<?xml version="1.0" encoding="utf-8"?>
<!-- Generator: Adobe Illustrator 21.1.0, SVG Export Plug-In . SVG Version: 6.00 Build 0)  -->
<svg version="1.1" id="Layer_2" xmlns="http://www.w3.org/2000/svg" xmlns:xlink="http://www.w3.org/1999/xlink" x="0px" y="0px"
	 viewBox="0 0 900 596" style="enable-background:new 0 0 900 596;" xml:space="preserve">
<style type="text/css">
	.st0{fill:#0F0F0F;}
	.st1{fill:#FEFEFE;}
	.st2{fill:#3F3F3F;}
	.st3{fill:#393939;}
	.st4{fill:#666666;}
	.st5{fill:#A0A0A0;}
	.st6{fill:#010101;}
	.st7{fill:#525252;}
</style>
<g>
	<path d="M901,594c0,1,0,2,0,3c-1.7,0.9-3.6,0.5-5.4,0.5c-296.4,0-592.8,0-889.2,0c-1.8,0-3.7,0.5-5.4-0.5c0-1,0-2,0-3
		c1-1.7,0.5-3.6,0.5-5.4c0-193.1,0-386.1,0-579.2C1.5,7.6,2,5.7,1,4c0-0.7,0-1.3,0-2c1.7-0.9,3.6-0.5,5.4-0.5
		c296.4,0,592.8,0,889.2,0c1.8,0,3.7-0.5,5.4,0.5c0,0.7,0,1.3,0,2c-1,1.7-0.5,3.6-0.5,5.4c0,193.1,0,386.1,0,579.2
		C900.5,590.4,900,592.3,901,594z"/>
	<path class="st0" d="M901,2C601,2,301,2,1,2c0.2-0.3-0.5-1,0.5-1c1.3,0,2.7,0,4,0c297,0,594,0,891,0.1C898,1.1,899.9-0.1,901,2z"/>
	<path class="st1" d="M1,597c143.1,0,286.2,0,429.3,0c156.9,0,313.8,0,470.7,0c-0.2,0.3,0.5,1-0.5,1c-1.3,0-2.7,0-4,0
		c-297,0-594,0-891-0.1C4,597.9,2.1,599.1,1,597z"/>
	<path class="st0" d="M1,4c1.6,1.5,1,3.4,1,5.2c0,193.2,0,386.4,0,579.6c0,1.7,0.7,3.7-1,5.2C1,397.3,1,200.7,1,4z"/>
	<path class="st0" d="M901,594c-1.6-1.5-1-3.4-1-5.2c0-193.2,0-386.4,0-579.6c0-1.7-0.7-3.7,1-5.2C901,200.7,901,397.3,901,594z"/>
	<path class="st1" d="M580.9,357.9c8.5-40,17-80.1,25.5-120.1c0.9-4.1,2-8.1,2.5-12.2c0.4-3.3,2-4,5-3.9c5.2,0.2,10.3,0.2,15.5,0
		c3.2-0.2,4.2,1,4.6,4.2c3.6,28.6,7.5,57.1,11.3,85.8c1.8-1.6,1.4-3.7,1.8-5.5c4.8-26.9,9.5-53.8,14.2-80.6c0.5-2.7,1.4-4,4.5-3.8
		c6.2,0.3,12.3,0.3,18.5,0c3.6-0.2,4.5,0.7,3.7,4.4c-6.8,31.7-13.4,63.5-20.1,95.2c-3.5,16.8-7.2,33.5-10.6,50.3
		c-0.6,3-1.5,4.3-4.7,4.1c-5.5-0.3-11-0.2-16.5,0c-2.7,0.1-3.7-0.7-4-3.6c-3.3-29.8-6.8-59.6-10.3-89.8c-1.7,2.1-1.5,4.4-1.8,6.6
		c-4.7,27.4-9.5,54.8-14.1,82.2c-0.6,3.3-1.5,4.7-5.3,4.6c-14.3-0.3-28.7-0.2-43,0c-3.5,0-4.6-0.9-4.3-4.5c0.4-7,0.2-14,0.6-21
		c0.2-3-0.5-4.2-3.7-4.1c-6.2,0.2-12.3,0.2-18.5,0c-2.6-0.1-3.8,0.8-4.7,3.2c-2.7,7.7-5.7,15.2-8.4,22.9c-0.8,2.4-2,3.3-4.6,3.3
		c-23.5-0.1-47-0.1-70.5,0c-2.8,0-3.7-0.3-3-3.6c10.8-48.6,21.4-97.1,31.9-145.8c0.8-3.6,2-4.9,5.8-4.7c6,0.3,12,0.3,18,0
		c3.7-0.2,4.5,0.9,3.7,4.5c-6.8,30.4-13.4,60.8-20.1,91.1c-1.8,8.3-3.6,16.6-5.6,24.8c-0.6,2.6-0.1,3.5,2.8,3.5
		c8.1,0.1,16.2-0.8,24.3,0.5c2.2,0.3,1.9-2,2.4-3.1c11.2-25.4,22.3-50.8,33.4-76.2c6.1-13.8,12.2-27.6,18.1-41.5
		c1.2-2.7,2.6-3.7,5.6-3.6c5.7,0.2,11.3,0.2,17,0c2.9-0.1,4.1,0.5,4,3.8c-0.7,43.5-1.3,87-1.9,130.4
		C579.6,356.9,578.7,358.2,580.9,357.9z"/>
	<path class="st1" d="M356.9,308c9.7-27.4,19.4-54.8,28.9-82.2c1-3,2.3-4.2,5.6-4.1c6.7,0.3,13.3,0.3,20,0c3.3-0.1,3.8,1,3.5,4
		c-3.2,30.3-6.2,60.6-9.2,90.9c-1.8,18.2-3.9,36.4-5.5,54.7c-0.3,3.8-1.6,4.7-5.1,4.5c-5.6-0.3-11.3-0.3-17,0
		c-3.8,0.2-4.3-1.1-3.8-4.5c4-29.7,7.8-59.4,11.7-89.1c0.1-0.7,0.1-1.3,0.2-2c0.4-0.6,0.5-1.3,0.3-1.9c-0.2-0.5,0.3-1.2-0.4-1.3
		c-0.1,0-0.5,0.8-0.8,1.1c-10.4,31.3-20.8,62.7-31.1,94c-0.8,2.6-1.9,3.8-4.8,3.6c-3.8-0.3-7.7-0.3-11.5,0c-3.9,0.3-4.6-1-4.4-4.7
		c1.8-27.6,3.3-55.2,4.8-82.8c0.1-1.3,0-2.7,0.1-4c0.9-3.6-0.2-7.1,0.2-10.7c-0.3-0.7-0.3,0-0.3,0.1c1,1.7,0.1,3.1-0.9,4.5
		c-8,31.2-16.1,62.5-24,93.7c-0.8,3-1.9,4.1-5,3.9c-6.7-0.3-13.3-0.2-20,0c-2.9,0.1-3.1-0.7-2.3-3.4c14.6-49.1,29-98.2,43.4-147.3
		c0.7-2.4,1.9-3.4,4.5-3.3c6.2,0.2,12.3,0.3,18.5,0c3.7-0.2,4.8,0.8,4.7,4.6c-0.5,19.2-0.7,38.3-1,57.5c-0.7,7.9-0.2,15.8-0.3,23.7
		c0,0.4,0.2,0.6,0.5,0.8C356.4,308.3,356.7,308.3,356.9,308z"/>
	<path class="st1" d="M671.9,330.9c1.7-30.6,6.4-60.5,22-87.6c3.5-6.1,7.9-11.5,13.5-15.9c20.2-16,46.2-6.9,51.6,18.3
		c3.7,17.4,1.9,34.8-1,52.1c-3.4,20.3-8.7,39.9-19.6,57.7c-3.4,5.6-7.6,10.6-12.7,14.7c-20.1,16.1-46.3,6.8-51.6-18.3
		C672.6,344.9,671.9,337.9,671.9,330.9z"/>
	<path class="st1" d="M279.1,260.7c-3.3,34.1-9.4,67.5-26,98c-8.3,15.1-18.8,20.5-34.2,18.6c-12.6-1.5-20.2-8.7-23.8-20.4
		c-4.1-13.1-3.1-26.4-1-39.6c4.3-26.7,10-52.9,22.9-77c4.5-8.5,9.8-16.7,19.8-19.2c19.7-5,36.9,1.1,41.1,26
		C278.6,251.7,279.2,256.2,279.1,260.7z"/>
	<path class="st1" d="M164.8,256.1c-4.7,3.1-8.9,6.7-14.6,8.4c1.7-8.2,3.3-16,4.8-23.8c0.3-1.7,1.5-2.5,2.8-3.2
		c6.9-3.8,13.3-8.3,18.7-14c2.6-2.7,5.6-1.8,8.4-1.7c3.9,0,9.2-1.8,11.4,0.8c1.6,1.9-0.8,7.2-1.5,10.9
		c-9.5,45.9-19.1,91.9-28.5,137.8c-0.7,3.7-2.1,4.5-5.5,4.4c-5.5-0.3-11-0.3-16.5,0c-3.4,0.2-3.9-1-3.2-4
		c7.9-37.8,15.8-75.6,23.6-113.4C164.9,257.7,164.8,257.1,164.8,256.1z"/>
	<path class="st1" d="M415.3,375.6c-3.2,0-6.4-0.2-9.5,0.1c-3.8,0.4-4.4-1.1-3.6-4.5c4.5-19.8,8.7-39.6,13.1-59.4
		c6.2-28.4,12.6-56.8,18.7-85.3c0.7-3.5,1.8-5.1,5.7-4.9c6.5,0.4,13,0.2,19.5,0.1c2.6-0.1,3.1,0.7,2.5,3.2
		c-10.9,49.2-21.7,98.4-32.4,147.6c-0.6,2.6-1.6,3.3-4,3.2C421.9,375.5,418.6,375.6,415.3,375.6z"/>
	<path class="st2" d="M356.9,308c0.2,1.4-0.4,2.4-2.1,4c0.6-10-0.1-19.1,1.1-28.2c0.8,6.4,0,12.7,0.3,19.1
		C356.2,304.6,355.3,306.5,356.9,308z"/>
	<path class="st3" d="M337.1,278.1c0.4-1.7,0.8-3.4,1.1-5c0.8,3.9,0.9,7.6-0.1,11.2C337.1,282.3,338.7,279.9,337.1,278.1z"/>
	<path class="st4" d="M385.1,278.1c-0.2-1.4,0.5-2.4,1.7-3.7c0.5,2.2,0.4,4-0.7,5.7C385.6,279.5,386.1,278.4,385.1,278.1z"/>
	<path class="st5" d="M580.9,357.9c0.2,1.1,0.3,3-0.9,2.5c-2-0.9-0.9-2.9-0.2-4.4C580.2,356.6,580.6,357.2,580.9,357.9z"/>
	<path class="st6" d="M556.2,281.2c-0.5,12.8-1,25.5-1.4,38.3c-0.1,3-1,4.2-4,3.9c-4.3-0.4-10.4,1.8-12.3-0.8c-2-2.6,2-7.7,3.4-11.7
		c4.3-12,8.8-23.9,13.2-35.9C557.9,276.7,556,279.1,556.2,281.2z"/>
	<path class="st7" d="M556.2,281.2c-1-1.9,0.6-4.3-1.1-6.1c-0.2-1.1,0.2-2.2,1.1-2.3c1.1-0.1,0.9,1.1,0.8,1.8
		C556.8,276.8,556.5,279,556.2,281.2z"/>
	<path d="M698.6,328.1c1.8-20.1,4.8-39.9,11.5-59c2-5.6,4.4-11.2,8.6-15.6c2.5-2.7,5.5-4.5,9.3-3.3c3.8,1.2,5.3,4.4,6,7.9
		c1.5,8.2,0.1,16.3-0.9,24.3c-2.1,16.3-5.1,32.5-11.1,48c-1.9,5-4.1,9.8-7.9,13.7c-2.6,2.7-5.6,4.4-9.4,3.1
		c-3.5-1.2-4.9-4.3-5.6-7.6C698.2,335.7,698.1,331.9,698.6,328.1z"/>
	<path d="M253.9,261.1c-2.7,24.9-6.9,50.3-16.3,74.5c-1.6,4.2-3.6,8.2-6.8,11.5c-4.8,5-11,3.4-12.9-3.3c-1.5-5.1-0.6-10.3,0.1-15.4
		c2.9-22.3,6.8-44.3,14.9-65.4c1.5-3.9,3.2-7.7,5.7-11c2.3-3,4.8-5.8,9.1-4.6c4.2,1.1,5.3,4.7,5.9,8.4
		C253.9,257.3,253.8,258.9,253.9,261.1z"/>
</g>
</svg>
