<?xml version="1.0" encoding="utf-8"?>
<!-- Generator: Adobe Illustrator 21.1.0, SVG Export Plug-In . SVG Version: 6.00 Build 0)  -->
<svg version="1.1" id="Layer_1" xmlns="http://www.w3.org/2000/svg" xmlns:xlink="http://www.w3.org/1999/xlink" x="0px" y="0px"
	 viewBox="0 0 700 965" style="enable-background:new 0 0 700 965;" xml:space="preserve">
<style type="text/css">
	.st0{fill:#FEFEFE;}
	.st1{fill:#E83A84;}
	.st2{fill:#E72983;}
	.st3{fill:#E83985;}
	.st4{fill:#E72B83;}
	.st5{fill:#E83E87;}
	.st6{fill:#E94687;}
	.st7{fill:#E72B84;}
	.st8{fill:#E94688;}
	.st9{fill:#E94288;}
	.st10{fill:#E72C84;}
	.st11{fill:#E84187;}
	.st12{fill:#E94A8A;}
	.st13{fill:#E94989;}
	.st14{fill:#EA578D;}
	.st15{fill:#E83285;}
	.st16{fill:#E94A89;}
	.st17{fill:#E94089;}
	.st18{fill:#E94C8B;}
	.st19{fill:#E83186;}
	.st20{fill:#E83688;}
	.st21{fill:#E83486;}
	.st22{fill:#EB5B90;}
	.st23{fill:#E94B8B;}
	.st24{fill:#FEFEFD;}
	.st25{fill:#FEFDFD;}
	.st26{fill:#FEFDFC;}
	.st27{fill:#FDFAFA;}
</style>
<g>
	<path class="st0" d="M697.5,484.8c0,113.5,0,227,0.1,340.5c0,4.7-0.9,5.7-5.7,5.7c-227.4-0.2-454.9-0.2-682.3,0
		C5,830.9,4,830,4,825.2c0.2-227.4,0.2-454.9,0-682.3c0-4.7,0.9-5.7,5.7-5.7c227.4,0.2,454.9,0.2,682.3,0c4.7,0,5.7,0.9,5.7,5.7
		C697.5,256.9,697.5,370.8,697.5,484.8z"/>
	<path class="st1" d="M73.4,495.9c-13.2,11.9-27.4,21.8-45.6,24.1c-8.1,1-13.8-2.3-15.9-9c-2.3-7.2,1.3-16.4,7.9-19.6
		c3.7-1.8,7.6-2.6,11,0.4c2.8,2.5,2.5,5.9,0.8,8.9c-2.3,4.3-5.8,4.4-10.1,2.8c-5.1-1.8-5.8,1.6-4.6,5.1c2,5.8,6.7,7.2,12.3,6.1
		c10.7-2,19.8-7.2,28.5-13.6c3.9-2.9,9.2-5.3,10.9-9.2c1.9-4.2-4-7.5-6.2-11.3c-9-16-13.7-32.3-4.4-49.9c8.7-16.5,25.4-19.1,39-6.4
		c6.7,6.2,11.6,13.6,15.2,22.6c3.6-1.9,5.7-4.9,8.1-7.5c16.4-17.9,34.2-34.2,53.6-48.8c11.7-8.9,17.1-10.5,30-9.4
		c-8.2,11-15.9,21.4-23.7,31.7c-1.3-1.5-0.8-4.3-3.5-4.7c-0.5-5.1,4.1-7.4,6.4-10.9c1.6-2.5,3.9-4.5,6.3-7.6c-9.8,5.4-18,11.5-26,18
		C147,421,133.8,437.4,118.9,452c-1.9,1.9-2.8,4-2.6,6.8c0.6,8.2,0.1,16.5,0.3,25.6c11.5-16,22.8-31.3,34.3-46.5
		c4.6-6,9.4-11.9,14-18c1.7-2.3,3.2-5.3,7-4.5c1.5,2.9-0.7,4.8-2.1,6.8c-17.6,23.4-35.4,46.6-52.6,70.3c-3.6,4.9-7.4,10.3-12.2,14.4
		c-0.7-0.8-1.1-1.7-1.2-2.7c1.2-9.8,4.5-19.3,4.6-29.3c0-2.2,1.1-4.5-1.1-6.9c-9,7.9-16.4,17.3-25.7,24.7
		C79.3,495.1,76.1,494.9,73.4,495.9z"/>
	<path class="st2" d="M160.6,498.6c6.5-13.5,16.2-24.9,24.8-37.1c15.1-21.3,33-39.9,53.8-55.8c1.7-0.7,2.9-2.1,4.3-3.2
		c1.6-1.3,3.1-4.3,5.5-2.1c2.2,2-0.1,4.1-1.4,5.9c-8.5,10.7-17.4,21.2-25.9,31.9c-1.4,1.8-2.8,3.6-4.8,4.9c-3.2,1.9-5.1,5.1-7.3,8
		c-5.7,7.2-10.1,15.3-17.2,21.3c-8.9,11.8-18.3,23.3-26,36c-2,1.8-3,3.7-1.4,6.5c2.8,5-0.8,3.8-3.4,3.3c-0.4-0.4-0.8-0.8-1.2-1.2
		C158.8,510.8,158.9,504.7,160.6,498.6z"/>
	<path class="st3" d="M546.7,389.3c-16.7,5.7-31,14.9-43,28c-5.5,6-9.2,12.5-10.7,20.5c-2,11.1,3.7,18.5,15.1,18.9
		c13.6,0.4,24.3-6.6,34-14.9c12.8-10.9,22.2-24.6,29.2-39.9c0.6-1.3,1.1-2.5,1.7-3.8c0.8-1.8,2.1-2.4,3.9-1.6
		c1.7,0.8,1.2,2.2,0.7,3.5c-1,2.6-2,5.2-3.1,7.7c-6.6,14.9-15.4,28.3-27.1,39.7c-11.8,11.4-25.9,16.4-42.3,15.1
		c-10.4-0.8-18.4-9.4-18.1-19.9c0.3-10.9,3.4-21.1,11.5-28.8c12.7-12,26.8-22.1,43.7-27.5C544.6,385.9,547.8,384.4,546.7,389.3z"/>
	<path class="st2" d="M611.7,405.8c-8.7,8.4-14.4,19.2-21.5,28.8c-1.5,2-3,3.9-4.6,5.9c-11.1,14.9-20.5,31.1-32.1,45.6
		c-13.7,17.2-32.1,26.4-53,31.5c-1.8,0.4-4.3,0.8-4.9-1.2c-0.7-2.4,1.9-2.7,3.6-3.1c15.6-3.5,27.1-13.3,37.1-24.9
		c6.2-7.1,11.8-14.6,17.8-21.9c10.2-13.7,20.9-26.9,31.9-40c6.5-7.8,13.7-14.7,20.7-21.9C608.9,402.5,611.5,400.1,611.7,405.8z"/>
	<path class="st4" d="M105.2,506.9c2.3-11.1,12.4-16.6,18.3-25.2c14.6-21.4,30.8-41.6,46.4-62.3c1-1.3,1.9-2.6,1.6-4.4
		c0.4-3.2,2.2-5.4,5.2-6.6c1.6-0.7,3.2-1.4,4.9-2.2c1.8,2.8-2.6,4.2-1.4,6.7c0,0,0-0.1,0-0.1c-2.8,2.9-4.9,6.4-7,9.8l0.1-0.1
		c-17.6,23.9-34.7,48-50,73.5c-0.3,1.7-1.2,3-2.5,4c-3,3.8,0.1,3.7,2.4,3.3c3.6-0.7,6.7-2.8,9.8-4.7c1.8-1.5,3.5-2.9,5.3-4.4
		c1.4-0.7,2.8-0.9,3.4,0.8c0.8,2.6-1.4,3.5-3.1,4.6c-4.8,3.9-10.3,6.7-16.1,8.4c-4.5,1.4-8.3,2.4-11,7.5c-2.8,5.1-9,1.3-14.2,2.2
		c0.6-3.2,2-5.1,3.6-7.1C102.5,509.9,102.6,507,105.2,506.9z"/>
	<path class="st5" d="M555,466.8c-10.2,12.9-19.6,26.5-33,36.6c-7.6,5.8-16,9.5-26.2,11.9c5.4,1.3,5.3,1.2,8.4,0.4
		c24.2-6.6,43.4-19.9,56.8-41.5c6.3-10.1,13.4-19.7,20.1-29.5c1.2-1.7,2.3-3.5,4.4-4.1c-10.3,17.2-20.6,34.6-34.1,49.4
		c-20.6,22.5-46.8,32.9-77.7,29.6c-4.9-0.5-9.5-1.9-13.7-4.4c-6.2-3.6-8.8-10-6.7-16.5c2.3-6.9,9.8-12.1,16.5-11.1
		c4.6,0.6,7.4,3.2,6.3,8c-1,4.6-4.3,6.5-8.9,4.7c-3.2-1.2-6.5-2.5-8.3,1.5c-1.7,3.8,0.6,6.8,3.6,8.8c4.9,3.3,10.6,4.5,16.4,4.6
		c22.6,0.1,41-9,55.6-26.2c6.2-7.4,12.4-14.8,18.6-22.2C553.9,465.9,554.4,466,555,466.8z"/>
	<path class="st6" d="M555,466.8c-0.6-0.1-1.2-0.1-1.8-0.2c18.8-25.3,37.7-50.6,62.5-70.7c4.8-3.9,4-5.4-1.2-7.3
		c-19.1-7.1-38.4-6.1-57.8-1.5c-3.3,0.8-6.7,1.5-10.1,2.2c-0.1-3-2.5-2.7-4.5-2.9c26.6-8,53.2-12.3,79.7,0.3
		c2.9,1.4,5.1,1.3,7.6-0.5c2.2-1.6,4.6-3.1,7-4.3c1.6-0.8,3.5-3.6,5.2-1.3c1.7,2.2-0.2,4.2-2.5,5.4c-0.4,0.2-0.8,0.5-1.2,0.7
		c-6.3,2.5-9,6.1-4.1,12.3c-1.1,1.4-4.3-2.6-4.4,1.7c-3.2-6.2-6.7-5.7-10.9-0.8c-2,2.3-3.8,5-7,6c-1.4-4.6-3.2-1.4-4.6-0.1
		c-11.3,10.5-21.3,22.1-31,34.1C569,448.7,562,457.8,555,466.8z"/>
	<path class="st7" d="M221.3,496.8c6.9-14.7,17.1-27.1,27.9-39c3.9-4.3,9.2-0.9,14.8-1c-10.4,13.5-20.7,27-31.1,40.4
		c-4.5,5.2-9.5,9.9-11.5,16.8c-0.4,1.4-0.9,2.9-2.6,2.4c-1.4-0.4-2-1.7-2.1-3.2c-0.2-2.9,0.9-5.4,1.7-8
		C219.2,502.4,220.7,499.8,221.3,496.8z"/>
	<path class="st7" d="M624.2,486.1c5.7-10.1,13.1-18.8,20.8-27.4c4.4-4.8,9.6-2.4,16.3-2.7c-10.5,13.7-20.2,26.1-29.8,38.6
		c-5.3,6.4-11.7,12.1-13.7,20.7c-0.2,1-0.8,1.7-1.7,1.8c-1.4,0.2-1.9-0.7-2.3-1.9c-0.8-2.8,0-5.4,0.7-8.1
		C616.4,499.5,620.9,493,624.2,486.1z"/>
	<path class="st7" d="M361.1,470.6c6.4-6.9,15.3-9.7,23.5-13.6c4.1-1.3,8.4-1.8,12.6-3c3.3-0.9,5.9,0.4,8.1,2.6
		c1.2,1.2,1.4,3,0.4,4.4c-1,1.4-2.4,0.8-3.7,0.1c-0.6-0.4-1.1-0.8-1.7-1.2c-5-2.3-8.9,0.7-12.8,2.9c-10.9,6.4-18.9,16.1-27.4,25.1
		c-3.9,4.1-8.9,7.4-11.5,12.7c-3,3.7-4.7,7.8-4.7,12.6c0,1.3,0.5,3-1.4,3.3c-1.6,0.3-2.4-1.1-3.2-2.2c-1.1-1.8-1.1-3.8-1.2-5.9
		c-0.3-10.8,4.7-19.3,11.8-26.8C353.5,477.8,357.3,474.2,361.1,470.6z"/>
	<path class="st8" d="M313,464.1c-10.2,10.5-21.1,20.5-29.7,32.6c-2.7,3.8-5.1,7.7-6.9,11.9c-1.8,4.1-0.2,6.2,4,6.5
		c6.4,0.4,12.2-1.8,17.7-4.9c9.6-5.5,18.1-12.6,26.7-19.6c1.2-1,2.5-2.4,4.2-0.8c1.3,1.3,1.6,2.8,0,4.1
		c-13.1,10.9-25.5,22.9-43.2,25.8c-12.4,2.1-18.3-3.9-16.5-16.5c1.3-9.3,6.4-16.7,12.4-23.4c3.9-4.4,7.7-9.2,13.1-12
		c1.3,3.4-1.5,5-3.3,6.8c-4.4,4.4-8.5,9-12.2,14c-3.9,5.3-6.7,11-6.2,17.9c8.5-15.7,20.8-28.3,33.6-40.5c1.3-1.3,2.7-2.5,4.7-2.6
		C311.9,463.3,312.5,463.6,313,464.1z"/>
	<path class="st9" d="M361.1,470.6c-4.3,7.1-11.6,11.6-16.2,18.5c-4.4,6.6-6.1,13.7-5.8,21.4c0.1,2.2,0.8,4,3.6,5.1
		c0.8-5.8,0.8-11.9,6-15.8c0.5,0.3,0.6,0.6,0.5,1c-0.1,0.4-0.3,0.5-0.4,0.5c-0.9,1.9-1.9,3.7-2.5,5.7c-0.8,2.5-3,5.2-0.4,7.7
		c2.2,2.2,5.1,1.5,7.9,0.9c15.8-3.3,28.6-12.3,41.6-21.1c2.2-1.5,4.9-6.5,7.7-2.9c3.2,4.2-2.7,5.2-4.9,7c-5.7,4.7-11.8,8.8-17.9,13
		c-9.6,6.6-20.4,9.6-32,9c-7.8-0.4-11.3-5-11.1-12.8C337.4,490.4,348.8,480.3,361.1,470.6z"/>
	<path class="st10" d="M311.4,463.9c-15.2,14-30.2,28-38.5,47.4c-2.9-5.3-2.2-13.2,2.2-19.9c4.3-6.6,9.2-12.5,14.9-17.9
		c1.8-1.7,4.1-3.1,4.7-5.8c4.9-4.6,10.3-8.3,16.6-10.7c3.2-0.5,7.9-4,9.1-1.2c1.6,3.8-4.3,4.5-6.8,6.6
		C313,463.1,312.1,463.5,311.4,463.9z"/>
	<path class="st11" d="M246.4,405.9c0.2-1.8,2.8-2.5,1.9-5.2c-3.8,0.2-4.9,5.6-9,5c7-7.4,15-13.6,23.5-19.1c6.7-4.3,15.9-4.9,18-1.2
		c3.5,6.4,0.1,12.1-3.8,17c-6.5,8.1-13.6,15.6-22.4,21.3c-3.1,1.5-3-0.5-2.3-2.4c0.8-2.1,2.7-3.5,3.9-5.5c5.1-6.1,10.4-12.2,15-18.7
		c1-1.5,2.8-3.2,1.4-4.9c-1.7-2.1-3.8-0.5-5.5,0.5c-4.9,2.9-9.6,6.2-13.6,10.3C251.5,405,249.7,407.8,246.4,405.9z"/>
	<path class="st12" d="M348.8,501.4c0-0.5-0.1-1-0.1-1.5c1.1-5.1,5.7-7.7,8.8-11.2c9.1-10.5,18.3-21.3,30.7-28.2
		c3.7-2.1,8.1-5.9,13-1.8c-13.7,4.2-23.9,13.5-33.2,24c13.3-4.9,25.8-10.9,33.2-24c1.6-0.2,2,3.3,3.8,1.4c1.3-1.4,0-3-1.4-3.9
		c-1.9-1.2-3.8-1.8-6.4-1.3c-4.1,0.8-8.2,2.6-12.6,2.1c4.4-2.7,9.4-3.8,14.5-3.9c6.6-0.2,9.2,3.6,7.2,9.9c-1.6,5.1-5.4,8.5-9.5,11.5
		c-9.6,7-20,12.5-31.3,15.6C358.3,492,352.7,495.3,348.8,501.4z"/>
	<path class="st13" d="M624.2,486.1c-1.6,7.7-7.3,13.7-8.8,21.4c-0.5,2.9-1.4,5.5,0.3,9.2c3.7-9.2,8.3-16.8,15.8-22.1
		c-3.2,4.5-6.4,8.9-9.5,13.5c-1.6,2.3-4.9,5-2.2,7.7c2.4,2.4,5.7,0.1,8.2-1.4c9.4-5.4,17.5-12.7,25.7-19.8c1-0.9,2-1.9,3-2.8
		c1.2-1,2.4-1.3,3.6,0c1.2,1.3,1.1,2.4-0.1,3.6c-10.8,10.4-21.2,21.3-36.4,25.3c-8,2.1-12.7-2.3-11.1-10.6
		C614.5,501.2,618.3,493.1,624.2,486.1z"/>
	<path class="st14" d="M257.2,416.5c-0.3,2.3-2.2,3.3-3.5,4.8c-1.1,1.3-1.6,2.3,0.7,2.5c-7.8,8.8-17.5,15.3-26.7,22.4
		c-11.6,9-23.6,17.4-35.4,26.1c0-0.2-0.1-0.5,0-0.7c8.1-9,13.3-20.3,21.9-28.9c0.4-0.4,1.2-0.6,1.8-0.8c0.8,5.9-3.9,7.8-5.9,9.9
		c7.6-5.6,16.4-12.2,25.2-18.9c5.3-4,10.2-8.5,14.8-13.2C252.1,417.9,253.9,415.3,257.2,416.5z"/>
	<path class="st15" d="M629.6,400.6c-0.3-5.2,2.2-3,4.4-1.7c0.9,1.9,1.8,3.7,2.7,5.6c4.3,14.2,2.8,27.2-7.4,38.6
		c-4.7,7.6-11.4,13-19.6,16.5c-2.4,1-6.1,3.2-6.2-2.5c2.1-1,4.3-2,6.4-3.1c7.5-4.8,13.4-11,17.1-19.1
		C632.3,423.8,634.4,412.5,629.6,400.6z"/>
	<path class="st16" d="M221.3,496.8c0.5,4.3-2,7.8-2.9,11.8c-0.6,2.4-2,4.7,0.6,7c3.4-7.2,7.1-13.9,13.8-18.4
		c-2.8,3.9-5.5,7.8-8.3,11.8c-1.3,1.9-3.1,4.2-1.5,6.3c2,2.6,4.7,0.8,6.9-0.3c9.3-4.8,17-11.7,24.8-18.5c1.7-1.5,3.5-3,5.2-4.5
		c1.1-0.9,2.2-1.7,3.6-0.3c1.5,1.5,1,2.9-0.3,4.1c-10.5,9.6-20.4,20.2-34.6,24.4c-9.4,2.8-14.5-1.9-12.4-11.5
		C217.2,504.6,218.4,500.3,221.3,496.8z"/>
	<path class="st17" d="M311.4,463.9c2-3.4,6.4-4.1,9.3-7.9c-3.6,0.4-6.5,0.6-9.4,0.9c5.7-4,12.2-5.3,18.9-5.4
		c6.9-0.1,9.9,3.6,9.1,10.6c-0.8,7.2-6.4,12.6-12,11.7c-2.5-0.4-4.4-1.5-4.7-4.2c-0.5-3.5,1.3-5.5,4.4-7c2.3-1.1,7.8,0,6.1-4.3
		c-1.4-3.5-6.2-1.7-9.2-0.4c-3.8,1.7-7.3,4-10.9,6C312.5,464,311.9,464,311.4,463.9z"/>
	<path class="st13" d="M161.5,518.2c1.4-0.6,5.1,0.9,2.6-3.2c-1.7-2.8-1.2-5.3,2.3-6.6c0,2.1-2.7,4.4,0.3,6.2c2.3,1.4,4.6,0.1,6.5-1
		c10.3-6.2,19.6-13.7,28.9-21.4c1.5-1.2,2.8-4.6,5.5-1.8c2.7,2.8-0.5,4.1-2,5.3c-9.4,7.4-17.7,16.3-28.6,21.6
		C172.1,519.6,167,522.5,161.5,518.2z"/>
	<path class="st18" d="M603.4,457.1c1.2,4.5,4,2.5,6.4,1.5c7.6-3.3,13.5-8.8,18.5-15.4c0.7-0.6,1.3-0.5,1.9,0.2
		c-7.5,11-17.2,18.3-31,19.2c-7.7,0.5-12.9-2.7-13.7-8.5c-0.8-5.9,6.2-16.3,11.5-17.4c1.4-0.3,2.2,0.1,2.8,1.2
		c0.6,1.1,0.7,2.2-0.3,3.1c-1.7,1.6-3.4,3-5.1,4.6c-2.6,2.5-4.8,5.3-3.1,9.1c1.6,3.5,5,2.5,7.9,2.5
		C600.7,457.3,602.1,457.2,603.4,457.1z"/>
	<path class="st19" d="M676.9,519.4c-3.5-0.3-6-2.3-6-6.9c0-6.3,5.1-11.1,11.5-11.2c4.3,0,6.4,2,6.5,6.2
		C689.2,513.2,683.3,519.3,676.9,519.4z"/>
	<path class="st20" d="M682.2,426.6c-0.3,5-5.3,10-9.8,9.5c-4.5-0.5-6.6-3.8-6-7.7c0.8-5,4.6-8,9.6-8.2
		C679.7,420.1,682.5,422.1,682.2,426.6z"/>
	<path class="st21" d="M285.4,426.5c-0.1,4.8-4.7,9.7-9.1,9.6c-4.6-0.1-6.7-3.1-6.4-7.2c0.4-5.4,4.3-8.1,9.1-8.6
		C282.8,419.9,285.7,422,285.4,426.5z"/>
	<path class="st1" d="M123.3,496c1-6.7,5.8-11.5,9.2-16.7c11.9-18.2,24.6-36,37-53.9c0.9-1.3,2-2.5,3.7-2.9
		c-9.7,16.4-21.6,31.4-32.1,47.3C135.4,478.7,129.2,487.3,123.3,496z"/>
	<path class="st22" d="M105.2,506.9c-1.1,1.9-2.2,3.6-4.6,4c0-0.9,0.2-2.1-0.9-2.3c-10-1.7-17.9-7.8-26.3-12.7
		c2.3-1.4,4.7-2.8,7-4.1c7.1,6.3,15.7,9.5,24.6,12C105,504.8,105.1,505.8,105.2,506.9z"/>
	<path class="st6" d="M630.2,443.4c-0.6-0.1-1.2-0.1-1.9-0.2c10-11.3,11.2-24.6,8.3-38.7C642.9,415.8,640.3,431.7,630.2,443.4z"/>
	<path class="st18" d="M627,434.9c-2.5,9.2-8.4,15.4-17.1,19.1C616.5,448.6,622,442,627,434.9z"/>
	<path class="st23" d="M138.4,499.8c0.1-1.8,5.6-3.9-0.2-5.5c1.1-1.2,2.1-2.5,3.3-3.5c1.6-1.3,3-0.6,4.1,0.8
		c1.2,1.4,0.4,2.6-0.7,3.5C142.8,496.9,141.6,499.8,138.4,499.8z"/>
	<path class="st23" d="M132.9,498.7c-2.6,3.6-6.5,4.9-10.5,5.6c-1.8,0.3-4.2,2.7-5.3,0c-0.8-2.1,1.7-3.4,3.7-4.1
		c-0.3,3,1.4,2.8,3.4,2.1C127,501,129.9,499.8,132.9,498.7z"/>
	<path class="st13" d="M160.6,498.6c-0.1,6.1-0.1,12.2-0.2,18.4C156.8,510.8,157.5,504.7,160.6,498.6z"/>
	<path class="st1" d="M173.2,422.7c1-4.2,2.9-7.7,7-9.8C178.6,416.7,176.3,420,173.2,422.7z"/>
	<path class="st24" d="M59.8,452.7c0-15.5,6.6-25.2,17.4-28.2c5-1.4,9.7-0.7,13.8,2.4c8.2,6.2,12.9,14.9,16.5,24.3
		c0.9,2.2,0.2,4-1.5,5.6c-9.4,9.5-18.8,19-28.1,28.7c-2.8,2.9-4.5,2-6.5-0.8C64,474.5,60,463.2,59.8,452.7z"/>
	<path class="st25" d="M176.6,408.4c-1.7,2.2-3.5,4.4-5.2,6.6c-18.4,21.6-34.8,44.7-51.4,67.6c-1.3,1.8-2.7,3.7-4.7,6.4
		c-1.6-6.7,0.8-12.7-0.4-18.2c-2.8-12.8,3-21.1,11.8-29.7c17.4-17.1,33.6-35.5,54.5-48.6c2.5-1.6,5.2-3,7.8-4.4
		c0.7-0.4,1.7-0.5,4.1-1.1C187.1,394.9,181.8,401.7,176.6,408.4z"/>
	<path class="st26" d="M105,503.7c-8.6,1-22.5-5.7-24.6-12c9.9-8.6,18.4-18.5,28.7-28.9C111.6,477.8,108.4,490.8,105,503.7z"/>
	<path class="st26" d="M257.2,416.5c-13.7,11.9-27.3,23.9-42.5,34c-1.9,1.2-3.7,2.4-6.2,3c2.6-3.8,5.2-7.7,7.7-11.5
		c10.1-12,20.1-24,30.2-36c6.7-3.5,11.2-10.2,18-13.5c3.4-1.7,7.4-5.6,10.4-2.3c2.7,2.9-1.2,6.8-3.4,9.6
		C266.9,405.4,262,410.9,257.2,416.5z"/>
	<path class="st27" d="M401.1,458.7c0.4,6.3-4.6,9.3-8.4,12.6c-8,7-17.8,11-28.1,14.4C369.8,473.5,389.8,459,401.1,458.7
		C401.1,458.7,401.1,458.7,401.1,458.7z"/>
</g>
</svg>
