<?xml version="1.0" encoding="utf-8"?>
<!-- Generator: Adobe Illustrator 21.1.0, SVG Export Plug-In . SVG Version: 6.00 Build 0)  -->
<svg version="1.1" id="Layer_1" xmlns="http://www.w3.org/2000/svg" xmlns:xlink="http://www.w3.org/1999/xlink" x="0px" y="0px"
	 viewBox="0 0 700 965" style="enable-background:new 0 0 700 965;" xml:space="preserve">
<style type="text/css">
	.st0{fill:#FEFEFE;}
	.st1{fill:#221F1F;}
	.st2{fill:#242121;}
	.st3{fill:#272424;}
	.st4{fill:#242120;}
	.st5{fill:#252222;}
	.st6{fill:#2D2929;}
	.st7{fill:#262222;}
	.st8{fill:#2C2828;}
	.st9{fill:#2E2A2A;}
	.st10{fill:#322F2F;}
	.st11{fill:#FDFDFD;}
	.st12{fill:#FCFCFC;}
	.st13{fill:#FAF9F9;}
	.st14{fill:#FBFAFA;}
	.st15{fill:#F8F7F7;}
</style>
<g>
	<path class="st0" d="M351.6,633c-102.6,0-205.3,0-307.9,0.1c-4.3,0-4.8-1.1-4.7-5c0.1-97,0.1-193.9,0-290.9c0-3.7,0.8-4.3,4.4-4.3
		c205.4,0.1,410.9,0.1,616.3,0c3.2,0,4.5,0.1,4.5,4.2c-0.2,97.3-0.2,194.6,0,291.9c0,3.5-0.7,4.1-4.1,4.1
		C557.2,633,454.4,633,351.6,633z"/>
	<path class="st1" d="M421.6,627.7c-11.6,0-11.6,0-14.6-11.4c-3.3-12.4-3.3-12.4-16.3-12.4c-8.8,0-17.7,0.1-26.5-0.1
		c-2.7-0.1-3.8,0.9-4.3,3.5c-1.1,5.9-2.6,11.7-3.6,17.6c-0.4,2.6-1.5,3.2-3.9,3.1c-5.5-0.1-11-0.1-16.5,0c-2.6,0.1-2.9-0.6-2.4-3.1
		c11.4-55.8,22.7-111.7,34-167.5c1.1-5.2,2.4-10.4,3.1-15.6c0.4-3.1,1.8-3.7,4.6-3.6c4.8,0.2,9.7,0.3,14.5,0
		c3.7-0.2,5.1,0.9,5.9,4.6c5.6,28.2,11.5,56.3,17.3,84.4c6.5,31.4,12.9,62.8,19.4,94.2c1.3,6.3,1.4,6.3-4.8,6.3
		C425.6,627.7,423.6,627.7,421.6,627.7z"/>
	<path class="st1" d="M622.8,461.8c-4.8,0-9,0.3-13.1-0.1c-3.3-0.3-3.8,1-3.8,3.9c0.1,28,0,56-0.1,84c0,3.2,0.7,4.4,4.1,4.2
		c4.8-0.3,9.7,0.1,14.5-0.1c2.9-0.1,3.7,0.9,3.6,3.7c-0.2,5.7-0.3,11.3,0,17c0.2,3.3-1.1,3.9-4,3.8c-5-0.2-10,0-15-0.1
		c-2.4-0.1-3.2,0.6-3.2,3.1c0.1,5.5,0.2,11,0,16.5c-0.1,2.9,0.9,3.6,3.6,3.6c9.3-0.2,18.7,0,28-0.1c2.9-0.1,3.7,0.8,3.6,3.6
		c-0.2,6.5-0.1,13,0,19.5c0,2.4-0.4,3.5-3.2,3.5c-18.3-0.1-36.7-0.2-55,0c-4.6,0.1-3.6-2.8-3.6-5.3c0-47.2,0-94.3,0-141.5
		c0-13,0.1-26-0.1-39c0-3,0.7-4.1,3.9-4c10.3,0.2,20.7,0.1,31,0c2.2,0,3.6,0.2,4.1,3C619.4,447.9,621.2,454.6,622.8,461.8z"/>
	<path class="st1" d="M248.6,532.4c0-29.6,0.1-59.3-0.1-88.9c0-4.5,1.3-5.7,5.6-5.4c5.3,0.4,10.7,0.2,16,0.1c2.1,0,3.1,0.6,2.9,2.8
		c-0.1,1.2,0,2.3,0,3.5c0,50.5,0.1,100.9-0.1,151.4c0,4.2,1,5.3,5.2,5.2c9.1-0.3,18.3,0,27.5-0.2c3.1-0.1,4.5,0.5,4.3,4
		c-0.3,6.3-0.2,12.7,0,19c0,2.4-0.7,3.2-3.1,3.2c-18.3-0.1-36.6-0.1-55,0c-4.1,0-3-2.6-3-4.7C248.6,592.3,248.6,562.3,248.6,532.4z"
		/>
	<path class="st1" d="M208.8,627c-8.3,0-16.5-0.1-24.6,0.1c-3.2,0.1-3.3-2.3-4-4.2c-6.7-18.4-11-37.3-12.9-56.7
		c-3.5-35.6-1.6-70.8,8.7-105.3c2-6.7,4.7-13.1,6.9-19.7c0.8-2.3,2-3,4.4-3c8,0.2,16,0.1,24.4,0.1
		C187.9,500.7,187.3,563.5,208.8,627z"/>
	<path class="st1" d="M96.8,532.6c0,30-0.1,60,0.1,90c0,3.8-1,4.8-4.7,4.6c-5.1-0.3-10.3-0.3-15.5,0c-3.6,0.2-4.8-0.7-4.7-4.6
		c0.3-13.7,0.1-27.3,0.1-41c0-38.5-0.1-77,0.1-115.5c0-4.1-0.9-5.9-5.1-5.1c-0.6,0.1-1.3,0.1-2,0.1c-3.9-0.3-9.5,1.9-11.4-0.8
		c-1.6-2.3,0.9-7.5,1.8-11.4c2.6-11.3,2.6-11.3,14.4-11.3c6.8,0,13.7,0.4,20.5-0.1c5.1-0.4,5.8,1.5,5.8,6.1
		c-0.2,29.7-0.1,59.3-0.1,89C96.3,532.6,96.6,532.6,96.8,532.6z"/>
	<path class="st1" d="M480.7,438c-3,11-5.5,21.7-7,32.7c-2.3,16.8-0.2,33.1,4.5,49.1c5,17,9.4,34.1,10.2,52
		c0.9,19.7-4.3,37.7-14.6,54.3c-0.9,1.5-2.1,1.8-3.7,1.8c-6.7-0.1-13.3,0-19.8,0c-0.9-1.5,0.1-2.4,0.7-3.3
		c14.2-22.6,16.4-47.2,11.5-72.8c-2.6-13.8-6.9-27.2-10.4-40.8c-5.2-20-3.4-39.8,1.3-59.6c1-4.3,1.3-9.8,4-12.5
		c2.9-2.8,8.5-0.7,13-0.9C473.8,437.9,477.1,438,480.7,438z"/>
	<path class="st1" d="M512.4,627.1c6.5-10.4,11.1-20.5,13.6-31.5c3.8-16.9,2.2-33.7-1.5-50.3c-3-13.7-7.3-27.1-10.4-40.8
		c-4-17.7-1.6-35.3,2.4-52.8c1-4.6,0.9-10.6,4.3-13.3c3.3-2.7,9-0.7,13.6-0.8c9.4-0.1,9.5,0,6.9,9.3c-8,27.8-6.3,55.2,2.8,82.6
		c5.3,16,8,32.5,7.6,49.4c-0.3,16.6-5.5,31.8-14.1,46c-1.1,1.8-2.3,2.5-4.4,2.4C526.7,627,520,627.1,512.4,627.1z"/>
	<path class="st2" d="M367.4,340c3.6,6.2,6.7,11.4,10.1,17.1c3.1-5.7,6-11,9.2-17.1c6.6,13.5,12.8,26.4,19.1,39.3
		c-3.8,1.4-5.5-0.1-6.9-3.2c-3.9-8.8-8-17.4-12.3-26.5c-3.2,5.8-6.1,11-9.3,16.8c-3.3-5.6-6.3-10.8-9.7-16.5
		c-4.2,9.3-8.2,17.8-11.8,26.5c-1.3,3-3.1,4.1-6.7,3C355.1,366.5,361.1,353.6,367.4,340z"/>
	<path class="st2" d="M317.3,380c-11.5-0.1-20.3-8.8-20.3-20.1c0-11.4,9.2-20.2,20.9-20.1c11.4,0.1,20.3,9,20.3,20.2
		C338.2,371.5,329.2,380.1,317.3,380z"/>
	<path class="st3" d="M473,379.3c-3.8,1.4-5.9,0.2-7.6-2.9c-1.3-2.5-3.2-4.7-4.5-7.2c-1.4-2.6-3.6-2.9-5.9-2.3
		c-2.4,0.6-1.1,2.8-1.2,4.2c-0.2,2-0.1,4-0.1,6c0,1.4,0,2.7-2,2.7c-1.8,0.1-2.3-0.8-2.3-2.4c0-11.6,0-23.3,0-34.9c0-1,0-1.9,1.3-2.4
		c8.5-3.6,20.3,5.5,19.4,15c-0.3,3-1.3,5.7-3.6,7.4c-3.1,2.3-2.2,4-0.4,6.4C468.6,372.2,470.7,375.8,473,379.3z"/>
	<path class="st2" d="M428.2,338.8c6,13.2,11.7,25.6,17.3,37.9c0.4,0.9,1.6,2.2,0.1,2.9c-1.1,0.5-2.6,0.7-3.7-0.5
		c-0.2-0.2-0.4-0.5-0.6-0.8c-1.5-2.3-1.4-6.4-4.4-6.7c-5.9-0.6-12-0.2-17.9,0.2c-2,0.2-2.1,3.1-3.1,4.8c-0.9,1.6-1.3,3.5-3.8,3.2
		c-1.6-0.1-2.7-0.3-1.8-2.2C416.1,364.9,422,352.2,428.2,338.8z"/>
	<path class="st4" d="M178.2,338.7c5.9,13,11.5,25.3,17,37.5c0.5,1.1,2,2.5,0.2,3.4c-1.4,0.7-3.7,0.7-4.2-1.4
		c-1.6-7.6-7.1-7.4-13-6.8c-1.7,0.2-3.4,0.3-5,0c-4-0.7-6.2,1-7.3,4.7c-0.3,1.1-0.8,2.3-1.6,3.1c-1,1.1-2.5,0.8-3.8,0.5
		c-1.1-0.3-0.8-1.3-0.4-2C166.2,364.9,172,352.1,178.2,338.7z"/>
	<path class="st5" d="M297.6,379.3c-3.6,1.3-5.7,0.3-7.3-2.6c-1.4-2.6-3.4-4.9-4.8-7.6c-1.4-2.7-3.7-2.7-6-2.2
		c-2.4,0.5-1.1,2.7-1.3,4.2c-0.2,1.8,0,3.7-0.1,5.5c-0.1,1.4,0.6,3.2-1.9,3.2c-2.8,0.1-2.2-1.9-2.2-3.5c0-7.8,0-15.6,0-23.4
		c0-2.3,0-4.7,0-7c0-6.4,0.2-6.7,6.7-5.7c5.8,0.9,11,2.8,13.3,9c2.1,5.7,0.4,10.5-4,14.3c-1.8,1.6-1.2,2.6-0.2,4.1
		C292.5,371.4,295,375.3,297.6,379.3z"/>
	<path class="st2" d="M504.1,346.6c0,10.4,0,20,0,29.6c0,1.4,1,3.6-1.9,3.6c-2.8,0-2-2.2-2-3.6c-0.1-12,0-24,0-37.1
		c7.3,4.6,14,8.9,21.7,13.7c0-3.7,0-6.7,0-9.7c0-1.4-0.3-3,2.1-3.1c2.5,0,2.1,1.6,2.1,3c0,11.3,0,22.7,0,34c0,1.3,0.3,2.7-1.8,2.8
		c-2.2,0.1-2.4-1.1-2.4-2.8c0-5.3-0.1-10.7,0.1-16c0.1-2.5-0.7-4-2.9-5.2C514.1,353.1,509.5,350,504.1,346.6z"/>
	<path class="st5" d="M107.8,471.2c2.2-11,4.3-21.7,6.5-32.5c0.3-1.5,1.2-2.2,2.8-2.2c1.8,0,2.6,0.6,2.9,2.5
		c2.1,10.6,4.4,21.1,6.6,31.7c0.2,1,0.9,2.5-0.9,2.7c-1.4,0.2-2.8,0.5-3.8-1.4c-2.7-4.7-7.2-4.7-9.7,0.1c-0.9,1.7-2,1.6-3.2,1.4
		C107.1,473.5,107.9,472.1,107.8,471.2z"/>
	<path class="st2" d="M228.2,381.9c-6.8-14.2-13.3-27.6-19.8-41c4.3-1,4.4-1,6.1,2.4c3.8,7.6,7.5,15.2,11.2,22.8
		c0.7,1.4,0.9,3.2,2.8,4.1c4.1-8.9,8.2-17.8,12.1-26.7c1.2-2.7,2.5-4.2,6.1-2.8C240.8,354,234.7,367.5,228.2,381.9z"/>
	<path class="st6" d="M199,359.7c0-5-0.1-10,0.1-15c0.1-1.7-1.6-4.8,2.4-4.6c3.5,0.1,2.2,2.8,2.2,4.4c0.1,8.2,0.1,16.3,0.1,24.5
		c0,6.4,0,6.4,6.7,6.4c2,0,4,0,6,0c1.5,0,2.5,0.4,2.5,2.2c0,1.8-0.9,2.2-2.5,2.2c-5,0-10-0.1-15,0c-2.6,0.1-2.5-1.5-2.5-3.2
		C199,371,199,365.3,199,359.7z"/>
	<path class="st7" d="M264.2,379.8c-7.5-0.1-6.5,1-6.5-6.7c-0.1-9.7,0.1-19.3-0.1-29c-0.1-3.4,1-4.5,4.2-4.1c1.8,0.2,3.7,0.1,5.5,0
		c1.5,0,2,0.7,2.1,2.1c0.1,1.7-0.9,2.1-2.2,1.8c-5.2-1-5.6,1.9-5.3,5.9c0.3,4.3,0,8.7,0.1,13c0.1,2.5-1.3,6.1,3.6,5.7
		c0.8-0.1,1.2,1,1.2,1.9c0,1.3-0.8,1.7-1.9,1.7c-1.3,0.1-2.9-0.2-2.7,1.9c0.2,2.4,2.2,1.3,3.5,1.5c1.1,0.2,2.3,0.1,3.5,0
		c1.4-0.1,2.2,0.4,2.2,2c0,1.4-0.4,2.2-2,2.2C267.5,379.8,265.8,379.8,264.2,379.8z"/>
	<path class="st2" d="M478,361.9c0-4.7-0.2-9.3,0.1-14c0.2-3-0.6-4.3-3.8-3.9c-1.4,0.2-3.1,0.3-3-2.1c0.1-2,1.5-1.8,2.9-1.8
		c3.8,0,7.7,0,11.5,0c1.5,0,3.1-0.2,3.1,2.1c0,2.1-1.5,2-2.8,1.8c-3.5-0.5-4.1,1.1-4,4.2c0.2,9.3,0.1,18.6,0,28c0,1.4,1,3.6-1.9,3.7
		c-2.9,0.1-2-2-2.1-3.5C477.9,371.5,478,366.7,478,361.9z"/>
	<path class="st8" d="M253.1,360.4c0,5.5,0,11,0,16.5c0,1.4,0.4,3.2-2.1,3c-2-0.1-1.9-1.5-1.9-2.8c0-11.3,0-22.7,0-34
		c0-1.6-0.1-3.1,2.2-3c2.6,0.1,1.7,2,1.7,3.3C253.1,349,253.1,354.7,253.1,360.4z"/>
	<path class="st9" d="M495.2,359.9c0,5.7,0,11.3,0,17c0,1.2,0.6,2.8-1.6,3c-2.2,0.1-2.4-1.2-2.4-2.9c0-11.3,0-22.7,0-34
		c0-1.6,0-3,2.3-2.9c2.2,0.1,1.7,1.6,1.7,2.9C495.2,348.6,495.2,354.2,495.2,359.9z"/>
	<path class="st10" d="M534.7,360c0,5.3,0.1,10.7,0,16c0,1.5,0.8,3.6-1.9,3.8c-2.8,0.2-2.2-2-2.2-3.5c0-11,0-22,0-33
		c0-1.4-0.5-3.2,1.9-3.3c2.7-0.1,2.2,1.9,2.2,3.5C534.7,349.1,534.7,354.6,534.7,360z"/>
	<path class="st9" d="M129.7,478.4c-7.6,5.4-16.4,0.8-25,2.9c1.2-3.3,3-4.4,5.8-4.3c6.3,0.1,12.6,0,19,0
		C129.5,477.4,129.6,477.9,129.7,478.4z"/>
	<path class="st0" d="M382.6,508.4c2.3,10.1,4.4,19,6.4,27.9c2.6,11.5,5.1,23,7.8,34.5c0.9,4,1.1,6.2-4.3,5.9
		c-7.1-0.4-14.3-0.1-21.5,0.2c-2.9,0.1-3.3-0.7-2.7-3.4C373.1,552.2,377.7,531,382.6,508.4z"/>
	<path class="st0" d="M318,343.8c9.2,0,16.2,6.9,16.1,16c0,8.6-7.6,16.2-16.3,16.2c-8.9,0-16.3-7.2-16.4-16
		C301.2,350.9,308.5,343.8,318,343.8z"/>
	<path class="st11" d="M453.7,353.7c0-1.2,0-2.3,0-3.5c0-6.2,1.5-7.1,7.2-4.4c4.2,2,6.2,6.2,4.9,10.3c-1.1,3.6-6.7,6.9-10.3,6.6
		c-1.8-0.2-1.7-1.2-1.7-2.4C453.8,358,453.8,355.8,453.7,353.7C453.8,353.7,453.8,353.7,453.7,353.7z"/>
	<path class="st12" d="M428.2,349.6c2.8,6.3,5.1,11.6,7.6,17.4c-4.6,0-8.5,0-12.5,0c-1.8,0-3-0.2-1.9-2.5
		C423.5,359.9,425.6,355.3,428.2,349.6z"/>
	<path class="st13" d="M170.5,366.7c2.6-5.9,5-11.1,7.7-17.2c2.7,6.2,5.1,11.5,7.6,17.2C180.5,366.7,175.9,366.7,170.5,366.7z"/>
	<path class="st14" d="M278.2,353.6c0-0.5-0.2-1.1,0-1.5c1-2.5-2.5-6.9,2.4-7.4c5.6-0.6,10.5,4.2,10.3,9.2c-0.2,4.8-6.3,9.5-11,8.7
		c-1.7-0.3-1.7-1.3-1.7-2.5C278.2,357.9,278.2,355.7,278.2,353.6C278.2,353.6,278.2,353.6,278.2,353.6z"/>
	<path class="st15" d="M117.6,452.8c0.6,2.8,1.2,5.1,1.6,7.5c0.2,0.9,1.5,2.3-0.4,2.8c-1.1,0.3-2.4,0.3-3.4-0.1
		c-1.1-0.5-0.6-1.8-0.3-2.7C115.8,458,115.3,455.2,117.6,452.8z"/>
</g>
</svg>
