<?xml version="1.0" encoding="utf-8"?>
<!-- Generator: Adobe Illustrator 21.1.0, SVG Export Plug-In . SVG Version: 6.00 Build 0)  -->
<svg version="1.1" id="Layer_1" xmlns="http://www.w3.org/2000/svg" xmlns:xlink="http://www.w3.org/1999/xlink" x="0px" y="0px"
	 viewBox="0 0 700 965" style="enable-background:new 0 0 700 965;" xml:space="preserve">
<style type="text/css">
	.st0{fill:#FEFEFE;}
	.st1{fill:#B2A1CD;}
	.st2{fill:#B2A2CD;}
	.st3{fill:#B3A2CD;}
	.st4{fill:#B3A2CE;}
	.st5{fill:#B4A3CE;}
	.st6{fill:#B4A4CE;}
	.st7{fill:#B5A5CF;}
	.st8{fill:#B5A4CF;}
	.st9{fill:#B6A6CF;}
	.st10{fill:#B8A9D1;}
	.st11{fill:#B8A8D1;}
	.st12{fill:#B6A6D0;}
	.st13{fill:#BBABD3;}
	.st14{fill:#B9A9D1;}
	.st15{fill:#B7A8D0;}
	.st16{fill:#BBACD3;}
	.st17{fill:#FBFBFC;}
	.st18{fill:#FDFCFD;}
	.st19{fill:#FDFDFD;}
	.st20{fill:#FDFDFE;}
	.st21{fill:#FCFCFD;}
	.st22{fill:#F3F1F7;}
</style>
<g>
	<path class="st0" d="M350.7,640.2c-115.6,0-231.2,0-346.8,0.1c-2.6,0-3.2-0.6-3.2-3.2c0.1-102.9,0.1-205.8,0-308.7
		c0-2.6,0.6-3.2,3.2-3.2c231.2,0.1,462.5,0.1,693.7,0c2.6,0,3.2,0.6,3.2,3.2c-0.1,102.9-0.1,205.8,0,308.7c0,2.6-0.6,3.2-3.2,3.2
		C581.9,640.2,466.3,640.2,350.7,640.2z"/>
	<path class="st1" d="M97.6,468.5c2.4-2.1,4.4-4.4,7-6c5.6-3.4,11.4-5.6,18.2-4.3c10,1.9,15.6,10.8,12.6,20.7
		c-2,6.4-6.1,11.5-10.3,16.5c9.4,2.2,19-2.7,19.2-14c0.1-9.4,3.7-17.1,12.3-21.6c6.8-3.6,14-4.3,21.1-0.6c1.5,0.8,2.9,2,3.1-1.1
		c0.1-1.8,1.6-2.7,3.5-2.7c2.1,0,3,1.3,3.3,3c0.3,1.7,0.1,3.5,0.1,5.2c0,8.2-0.1,16.3,0,24.5c0,5.1,1.8,8.4,4.8,9.2
		c3.2,0.9,7.7-1.3,10.1-4.9c1.7-2.5,2.5-5.2,2.5-8.2c0-14.9,0.1-29.9,0.2-44.8c0-2.9,0.3-5.8,0.6-8.7c0.6-5,4.6-8.4,9.6-8.3
		c5.1,0.1,9.6,4,10,8.9c0.5,5-1.3,9.4-3.3,13.8c-2.6,6-6.4,11.4-8.7,17.5c-0.6,1.7-1.6,3.4-1.2,5.5c1.3-0.1,1.9-1.2,2.6-1.9
		c4.5-4.3,9.7-7.2,15.9-8.1c7.3-1.1,13.5,1,17.8,7c4.1,5.8,2.9,11.9,0,17.9c-2.2,4.6-5.5,8.6-9,12.8c5.1,0.6,9.4-0.1,13.4-2.5
		c3.8-2.3,5.9-5.7,5.4-10.2c-0.7-6.9-0.1-13.7-0.1-20.6c0-2.8,0.3-5.3,3.7-5.6c2.7-0.2,4.3,2.5,3.9,6.2c-0.8,7.3-0.9,14.6,0.7,21.9
		c1.3,6.1,5.3,9.6,11.1,10.7c5.2,0.9,9.1-2.1,12.2-6.1c2.3-3,3.6-6.3,3.4-10.3c-0.3-5.8,0-11.7,0-17.5c0-2.8,0.4-5.5,3.8-5.5
		c3.4,0,3.8,2.9,3.9,5.6c0.1,10.1,0.1,20.3,0.2,30.4c0,4,0.8,4.7,4.4,2.7c4.1-2.3,7.3-5.4,8.2-10.3c0.4-2,1.1-3.8,3.5-3.4
		c2.4,0.4,2.5,2.5,2.2,4.4c-1.5,8.9-6.5,15.1-15.1,18c-2.8,0.9-3.5,2.1-3.4,4.9c0.2,5.2,0,10.5,0,15.7c0,2.1-0.4,4.2-1.1,6.2
		c-1.9,5.5-6.5,8.5-11.1,7.3c-5.4-1.4-8.9-6.7-7.9-12.3c0.6-3.5,1.5-6.8,3-10c2.3-4.6,4.6-9.2,6.8-13.8c0.4-0.8,1.1-1.5,0.7-2.8
		c-3.7,2.2-7.4,4.2-11.9,4.3c-6.8,0.1-11.9-2.6-16.1-7.6c-0.8-1-1.4-2.5-2.8-0.7c-4.1,5.5-9.9,7.6-16.3,8.4
		c-8.5,1.1-17.1,1.8-25.7,0.4c-0.9-0.1-1.9-0.4-2.7-0.8c-1.7-0.9-2.9-1.5-4.5,0.7c-1.6,2.3-4.7,1.5-5.8-1.2c-0.4-0.9-0.4-2-0.7-3.3
		c-3.8,2.6-7.4,5.3-12.2,5.3c-3.7,0-6.9-1-9.3-4c-0.7-0.9-1.1-1.9-2.7-0.7c-10.3,7.4-23.8,5.9-31.9-3.8c-1.6-1.9-2.3-2.3-4-0.2
		c-4.4,5.4-10.6,6.9-17,7.8c-6.8,0.9-13.7,0.8-20.6,0.7c-2.5,0-4.9-0.7-7-1.9c-1.5-0.8-2.3-1.2-3.2,0.8c-0.7,1.4-2.2,2.1-3.9,1.5
		c-1.6-0.7-2.8-1.7-2.7-3.6c0.4-10.8-0.9-21.6-0.3-32.5c0.6-10.7,0.2-21.5,0.4-32.2c0-2.1,0.2-4.2,0.6-6.2c1-5.1,5.2-8.1,10.4-7.7
		c4.8,0.4,8.9,4.7,9.1,9.5c0.3,5.3-1.9,10-4,14.7c-2.7,6-6.8,11.5-8.7,17.9C97.5,465.7,97,466.8,97.6,468.5z"/>
	<path class="st2" d="M597.9,489.5c0-5.6,0-10.2,0-14.8c0-7,0-14,0-21c0-2.1,0.3-4,2.4-5.1c2.7-1.4,5.2,0.4,5.2,3.9
		c0.1,4.8,0,9.6,0,14.3c0,10.6,0,21.2,0,31.8c0,2,0.2,4.2-2.3,4.9c-2.4,0.7-4.2-0.2-5.8-2.2c-9.2-11.9-18.4-23.7-27.7-35.5
		c-1-1.2-2-2.4-3.6-4.3c0,10.1,0,19.4,0,28.6c0,3,0,6.1,0,9.1c0,2.7-1,4.8-3.9,4.8c-2.8-0.1-3.8-2.1-3.8-4.9
		c0.1-15.2,0.1-30.3,0-45.5c0-2.3,0.3-4.4,2.6-5.2c2.4-0.8,4.4,0,6.1,2.2c9.2,11.9,18.5,23.7,27.8,35.5
		C595.7,487.1,596.5,487.9,597.9,489.5z"/>
	<path class="st3" d="M501.9,476.1c0-7.5,0-14.9,0-22.4c0-4,1.2-5.2,5.2-5.2c10,0,20.1,0,30.1,0c2.7,0,5.2,0.4,5.2,3.7
		c0,3.1-2.4,3.4-5,3.4c-8.3-0.1-16.6,0-24.8-0.1c-2.2,0-3.2,0.5-3.1,2.9c0.2,3.7,0.2,7.5,0,11.2c-0.1,2.2,0.8,2.8,2.9,2.7
		c6.8-0.1,13.5,0,20.3,0c0.8,0,1.6,0,2.4,0c2.3,0.2,3.8,1.3,3.8,3.7c0,2.5-1.6,3.4-3.9,3.3c-7.3,0-14.7,0.1-22-0.1
		c-2.9-0.1-3.6,0.9-3.5,3.6c0.2,3.5,0.2,7,0,10.5c-0.2,2.9,1,3.5,3.6,3.4c8.5-0.1,17,0,25.5-0.1c2,0,3.4,0.7,4.1,2.6
		c0.6,1.6-0.2,2.7-1.2,3.7c-0.7,0.7-1.7,0.8-2.6,0.8c-10.8,0-21.7,0-32.5,0c-3,0-4.5-1.6-4.5-4.6
		C501.9,491.4,501.9,483.8,501.9,476.1z"/>
	<path class="st2" d="M354.2,489.7c-3.6,0-7.2,0.2-10.8-0.1c-2.6-0.2-3.8,0.9-4.7,3.1c-1.1,2.8-2.2,5.6-3.6,8.3
		c-1,1.9-2.3,4.1-5.1,2.8c-2.8-1.3-2.7-3.4-1.6-5.9c7.1-15.5,14.2-31.1,21.3-46.7c0.9-2.1,2.4-3.4,4.8-3.5c2.5,0,4,1.5,5,3.7
		c7,15.5,14.1,30.9,21.2,46.3c1.1,2.5,1.1,4.6-1.5,5.9c-2.6,1.3-4.2-0.3-5.2-2.5c-1.4-2.8-2.7-5.7-3.9-8.6c-0.9-2.2-2.1-3.2-4.7-3.1
		C361.7,489.8,357.9,489.7,354.2,489.7z"/>
	<path class="st4" d="M448,476.2c0-7.2,0-14.4,0-21.7c0-4.8,1.2-6.2,5.9-6.1c6.9,0.2,13.7-0.7,20.6,0.6c9.6,1.7,15.4,8.2,15.4,17.4
		c0.1,8.8-6,15.8-15.3,17.7c-5.2,1.1-10.4,0.7-15.7,0.6c-2.7,0-3.4,0.9-3.3,3.4c0.2,3.7,0,7.5,0.1,11.2c0,2.7-1.1,4.8-3.9,4.8
		c-2.8,0-3.9-2.2-3.8-4.9c0-0.1,0-0.2,0-0.3C448,491.3,448,483.8,448,476.2z"/>
	<path class="st3" d="M412.9,504.4c-7.5,0.2-13.7-2.2-19.4-6.1c-0.2-0.1-0.4-0.3-0.5-0.4c-2-1.6-3.4-3.4-1.5-5.9c1.9-2.5,4-1.7,6,0
		c5,4.2,10.8,5.8,17.2,5.4c2.4-0.2,4.6-0.8,6.5-2.3c4.9-4,4.1-10.4-1.7-13c-4-1.8-8.2-2.4-12.4-3.5c-2.3-0.6-4.4-1.4-6.5-2.4
		c-5.4-2.5-8.3-6.7-8.4-12.6c-0.1-5.9,2.9-10.2,7.8-13.2c7.6-4.5,21-3.3,27.8,2.5c1.7,1.5,3,3.2,1.4,5.4c-1.5,2.1-3.7,1.8-5.6,0.6
		c-4-2.5-8.2-4.3-13.1-4.2c-2.2,0-4.1,0.5-6.1,1.4c-2.8,1.3-4.4,3.5-4.6,6.5c-0.1,3.2,1.6,5.5,4.5,6.9c3.6,1.7,7.5,2.4,11.3,3.4
		c2.8,0.7,5.6,1.7,8.2,2.9c5.6,2.8,8.4,7.2,8,13.5c-0.4,6.1-3.4,10.5-9,13.1C419.6,503.9,416.1,504.7,412.9,504.4z"/>
	<path class="st5" d="M94.4,570.1c1.1-1,0.3-3.4,2.4-3.1c1.9,0.4,1.8,2.2,1.8,3.7c-0.2,5.6,0.4,11.2-0.5,16.7
		c-0.7,4.5-2.9,7.3-7.3,8.3c-4.2,0.9-8.3,0.6-12.2-1.6c-1.1-0.6-2.2-1.3-1.3-2.7c0.8-1.3,1.8-0.5,2.7,0c1.7,0.9,3.4,1.6,5.2,1.8
		c6.3,0.8,9.9-2.6,9.7-9.4c-2.9,1.7-5.5,4.1-9.1,3.8c-3.6-0.3-6.4-1.9-8.5-4.9c-2.7-3.9-1.9-10.3,1.6-13.4
		C83.4,565.5,89.1,565.7,94.4,570.1z"/>
	<path class="st5" d="M595,580.6c0,2,0,4,0,5.9c0,1.2-0.1,2.5-1.7,2.6c-1.6,0-1.8-1.2-1.8-2.5c0-3.4,0-6.8,0-10.1
		c-0.1-4.5-2-6.9-5.6-6.9c-3.5,0-6.1,2.8-6.2,7c-0.1,3.3,0,6.5,0,9.8c0,1.2,0.3,2.9-1.7,2.8c-1.8-0.1-1.8-1.6-1.8-2.9
		c0-3.5,0-7,0-10.5c-0.1-3.8-2.1-6.1-5.2-6.2c-3.2-0.1-6,2.7-6.1,6.3c-0.1,3.5,0,7-0.1,10.5c0,1.3,0,2.8-1.8,2.8
		c-2,0-1.6-1.6-1.6-2.8c0-5.4,0-10.7,0-16.1c0-1.1-0.3-2.5,1-3.1c1.3-0.6,1.9,0.5,2.4,1.4c0.5,1,1,0.4,1.6,0.1
		c4.8-2.9,7.3-2.8,11.3,0.6c1.2,1,1.8,1,2.9-0.1c2.9-2.9,6.5-3.2,10-1.8c3.7,1.5,4.6,5,4.6,8.7C595,577.5,595,579.1,595,580.6z"/>
	<path class="st6" d="M483.7,570c0-3.6,0-6.7,0-9.9c0-1.3,0.3-2.5,1.8-2.4c1.3,0.1,1.6,1.2,1.6,2.3c0,8.8,0,17.7,0,26.5
		c0,1.1-0.1,2.3-1.4,2.4c-2.2,0.3-1.8-1.9-2.3-3.1c-6.3,4.9-11.6,5-15.7,0.7c-3.9-4.1-4-11.9-0.3-16.4
		C471.2,565.6,476.8,565.5,483.7,570z"/>
	<path class="st7" d="M395.1,586.1c-6.2,4.7-11.5,4.9-15.6,0.5c-3.9-4.1-4-11.9-0.3-16.4c3.8-4.5,9.4-4.7,16.3-0.2
		c0-3.2,0-6.2,0-9.1c0-1.4-0.2-3.1,1.9-3.1c1.7,0.1,1.6,1.7,1.6,3c0,8.3,0,16.5,0,24.8c0,1.3,0.5,3.1-1.4,3.5
		C395.2,589.5,395.9,587.1,395.1,586.1z"/>
	<path class="st5" d="M366.9,570.3c0-3.7,0-6.8,0-9.9c0-1.2,0.2-2.5,1.7-2.6c1.6-0.1,1.8,1.2,1.8,2.5c0,8.9,0,17.7,0,26.6
		c0,1.1,0,2.2-1.5,2.3c-2.1,0.1-1.8-1.8-2.3-3.2c-2.7,2.4-5.5,4.5-9.3,3.8c-2.7-0.5-5-1.8-6.8-4c-3.5-4.2-3.3-11.8,0.4-15.9
		C354.8,565.6,360.7,565.6,366.9,570.3z"/>
	<path class="st5" d="M192.6,585.7c0,3.1,0,5.6,0,8.1c0,1.1-0.1,2.2-1.6,2.2c-1.3,0-1.8-1-1.8-2.1c0-8.2,0-16.3,0-24.5
		c0-1.3,0.5-2.5,1.9-2.5c2.1,0.1,1.2,2.1,1.9,3.7c2.8-3.3,6.3-4.8,10.5-3.9c2.5,0.5,4.5,1.9,6,3.9c3.4,4.4,2.9,12-0.8,15.8
		C204.2,591,199.1,590.8,192.6,585.7z"/>
	<path class="st6" d="M243.1,586.8c-2.9,2.6-6.2,3.7-10,2.7c-3.9-1.1-6-4-5.6-7.7c0.3-3.2,3-5.6,6.8-5.9c2.4-0.2,4.9-0.2,7.3,0.1
		c2.5,0.4,2.2-1,1.8-2.4c-0.7-2.6-4-4.4-7.4-3.9c-1.5,0.2-2.9,0.8-4.4,1.1c-0.8,0.2-1.7,0.2-2-0.9c-0.3-0.9,0.2-1.5,1.1-1.9
		c4.2-1.7,8.4-2.2,12.5,0c3.6,1.9,3.8,5.5,3.8,9.1c0,2.9,0,5.8,0,8.7c0,1.2,0.3,2.7-1.4,3.2C243.9,589.5,244,587.6,243.1,586.8z"/>
	<path class="st5" d="M554.3,580.8c0,2.1,0,4.2,0,6.3c0,0.9-0.3,1.6-1.2,2c-0.9,0.3-1.8-0.1-2-0.9c-0.4-1.9-1-1.1-2-0.4
		c-2.7,1.9-5.7,2.6-8.9,1.7c-3.8-1.1-5.8-3.8-5.5-7.4c0.3-3.3,2.8-5.8,6.6-6.1c2.4-0.2,5-0.3,7.3,0.1c2.7,0.5,2.5-0.8,2-2.4
		c-0.8-2.7-3.1-3.6-5.6-3.9c-1.9-0.2-3.7,0.4-5.5,1c-1,0.3-2.2,0.8-2.6-0.7c-0.4-1.3,0.7-1.9,1.7-2.2c8-2.6,16.7-0.7,15.7,10.3
		C554.3,578.9,554.3,579.8,554.3,580.8C554.3,580.8,554.3,580.8,554.3,580.8z"/>
	<path class="st5" d="M428.2,579.3c-2,0-4,0.1-5.9,0c-2.6-0.1-2.7,1.2-1.8,3.1c1.7,3.8,5.9,5.4,10,3.8c0.9-0.3,1.7-0.8,2.5-1.3
		c0.9-0.6,2-1.3,2.8-0.3c1,1.3-0.4,2.1-1.2,2.8c-5.7,5-15.4,2-17.7-5.3c-2.7-8.8,3.1-16.4,11.8-15.5c4.9,0.5,9,6.1,8.3,10.8
		c-0.2,1.6-1.1,1.8-2.4,1.8C432.4,579.3,430.3,579.3,428.2,579.3z"/>
	<path class="st5" d="M151.4,579.3c-2,0-4,0.1-5.9,0c-2.8-0.2-2.5,1.2-1.8,2.9c1.7,4,6.3,5.7,10.6,3.9c0.8-0.4,1.6-0.9,2.4-1.4
		c0.8-0.5,1.8-1,2.5-0.1c0.9,1.2-0.2,1.9-1,2.6c-4.2,3.7-11.2,3.5-15.3-0.6c-3.4-3.3-4.3-8.9-2.3-13.6c2-4.5,5.7-6.7,10.6-6.4
		c4.9,0.3,9,4.8,9.2,9.8c0.1,2-0.5,3.1-2.7,3C155.6,579.2,153.5,579.3,151.4,579.3z"/>
	<path class="st5" d="M521.6,579.3c-2,0-4,0.1-5.9,0c-2.9-0.2-2.8,1.1-1.8,3.1c2,4.1,6.4,5.6,10.6,3.6c0.7-0.3,1.4-0.9,2.1-1.3
		c0.8-0.5,1.8-1.1,2.4,0c0.6,1-0.2,1.7-0.9,2.4c-4.3,4.4-13.1,3.2-16.8-2.4c-2.7-4.1-2.2-10.8,1-14.7c2.7-3.2,7.8-4.4,11.8-2.7
		c4.1,1.7,5.7,5.2,6.4,9.3c0.3,1.9-0.7,2.8-2.6,2.8C525.8,579.3,523.7,579.3,521.6,579.3z"/>
	<path class="st5" d="M262.7,585.4c2.2-5.6,4.1-10.4,6-15.1c0.2-0.5,0.4-1.1,0.6-1.6c0.5-1.1,1.1-2.3,2.5-1.7c1.4,0.6,1.1,1.8,0.6,3
		c-3,7.1-5.9,14.2-8.9,21.2c-1.8,4.2-5.4,5.9-9.3,4.8c-1-0.3-2.2-0.6-2-2c0.2-1.4,1.3-1.3,2.5-1c2.3,0.6,4,0,5.5-2
		c1.5-2,0.3-3.5-0.4-5.1c-2.4-5-4.8-10.1-7.1-15.1c-0.6-1.2-1.6-2.8,0.2-3.6c2.1-1,2.4,1,3,2.4C257.8,574.5,260.1,579.5,262.7,585.4
		z"/>
	<path class="st4" d="M341.7,578.1c0,3,0,6,0,9.1c0,0.8-0.1,1.7-1.1,1.9c-0.9,0.2-1.6-0.2-1.8-1.2c-0.3-1.9-1-1.4-2-0.5
		c-3,2.8-6.4,3.1-10,1.4c-3.5-1.7-4.4-4.8-4.2-8.4c0.1-3.7,0-7.4,0-11.2c0-1.1,0.2-2.3,1.6-2.1c1.2,0.1,1.3,1.1,1.3,2.1
		c0,3.4-0.1,6.7,0,10.1c0.1,5.1,2.1,7.2,6.5,7.2c4-0.1,6.4-2.8,6.6-7.4c0.1-3.1,0-6.3,0-9.4c0-1.1-0.1-2.6,1.5-2.6
		c1.6,0.1,1.4,1.6,1.4,2.7C341.7,572.5,341.7,575.3,341.7,578.1z"/>
	<path class="st5" d="M308.9,566.7c2.4-0.2,4.6,0.7,6.5,2.3c0.8,0.7,2.2,1.5,1,2.8c-1,1.1-2.1,0.6-3.1-0.2c-1.2-1-2.4-1.8-4-2
		c-3.3-0.4-6.7,1.4-8.1,4.3c-1.8,3.8-1.1,7.9,1.7,10.6c2.7,2.6,6,3.1,9.3,1.3c0.3-0.2,0.6-0.5,0.9-0.6c1.2-0.4,2.2-2.7,3.5-0.8
		c1.3,2-0.9,2.8-2.1,3.6c-4.5,2.8-9.7,2.4-13.6-0.9c-3.4-2.8-4.9-8.4-3.5-12.4C299.4,569.2,303.1,566.6,308.9,566.7z"/>
	<path class="st5" d="M125.8,585.3c2.3-5.5,4.4-10.4,6.4-15.3c0.3-0.7,0.6-1.5,1-2.2c0.4-0.8,1.2-1.2,2-0.8c1,0.4,1.3,1.3,0.9,2.3
		c-2.8,6.4-5.5,12.8-8.6,19.1c-1,2.1-2.9,1.8-3.9-0.4c-2.7-5.9-5.3-11.9-7.9-17.8c-0.5-1.1-0.8-2.4,0.6-3c1.4-0.6,2.1,0.6,2.5,1.7
		C121.2,574,123.3,579.3,125.8,585.3z"/>
	<path class="st8" d="M497.7,571.6c2.3-1.9,3.6-4,5.9-4.6c1.1-0.3,2.5-0.8,3,0.7c0.6,1.6-0.5,2.1-1.9,2.6c-5.1,1.8-6.9,4.5-7,10
		c0,2.3,0,4.7,0,7c0,1-0.3,1.9-1.6,1.9c-1.1,0-1.8-0.7-1.8-1.7c0-6.2,0-12.3,0-18.5c0-1,0.7-1.9,1.7-1.9c1.4-0.1,1.6,1.1,1.6,2.2
		C497.8,569.7,497.7,570.3,497.7,571.6z"/>
	<path class="st9" d="M406.6,573.5c0-4.2,0-8.4,0-12.6c0-1.2-0.3-3,1.5-3c1.8,0,2,1.6,2,3.1c0,4.2,0,8.4,0,12.6
		c0,3.8,0.1,7.7,0,11.5c0,1.5,0.7,3.8-1.7,3.9c-2.6,0.1-1.7-2.3-1.7-3.7C406.6,581.4,406.6,577.4,406.6,573.5z"/>
	<path class="st10" d="M632.2,456.9c0,5.7-4,9.7-9.6,9.7c-5.3-0.1-9.4-4.2-9.4-9.6c0-5.2,4.3-9.7,9.3-9.9
		C627.6,447,632.2,451.6,632.2,456.9z"/>
	<path class="st11" d="M634.9,564.1c-2.7,1.4-2.7,5.4-5.2,4.8c-1.6-0.4-2.6-3.3-4.6-6c0,3.1,0,5.3,0,7.5c0,0.7,0.1,1.6-0.8,1.6
		c-0.9,0-1.1-0.8-1.1-1.5c0-3.3-0.1-6.5,0-9.8c0-0.7,0.3-1.4,1.1-1.5c0.7-0.1,1.1,0.3,1.4,0.8c1,1.5,2,3.1,3,4.7
		c0.8,1.4,1.7,1.5,2.6,0.1c1-1.6,2-3.1,3.1-4.7c0.3-0.5,0.7-1,1.4-0.9c0.8,0.1,1.1,0.8,1.1,1.5c0,3.4,0,6.8,0,10.1
		c0,0.6-0.3,1.2-1,1.2c-0.9,0-1-0.8-1-1.5C634.9,568.6,634.9,566.5,634.9,564.1z"/>
	<path class="st3" d="M218.3,573.7c0-4.3,0-8.6,0-12.9c0-1.2-0.3-3,1.5-2.9c1.8,0.1,1.4,1.8,1.4,3c0,8.5,0,17,0,25.4
		c0,1.1,0.3,2.6-1.4,2.7c-2,0.1-1.6-1.6-1.6-2.8C218.3,582.1,218.3,577.9,218.3,573.7z"/>
	<path class="st12" d="M109.3,578.2c0,2.9,0,5.8,0,8.7c0,1.1-0.2,2.2-1.6,2.2c-1.3,0-1.8-1-1.8-2.1c0-5.9,0-11.9,0-17.8
		c0-1.2,0.7-2.4,2.1-2.2c1.3,0.2,1.3,1.5,1.3,2.5C109.3,572.4,109.3,575.3,109.3,578.2z"/>
	<path class="st13" d="M615.6,572.8c-2.4-3.2-1.4-6-1.5-8.7c-0.1-1.8-0.1-3.3-2.5-3.1c-0.7,0.1-1.5-0.2-1.4-1.1
		c0.1-0.6,0.8-0.8,1.4-0.8c2.6,0,5.1,0,7.7,0c0.6,0,1.2,0.3,1.2,1c0,0.6-0.6,1-1.2,1c-3.3-0.5-3.1,1.6-3.1,3.9
		C616.1,567.3,616.4,569.7,615.6,572.8z"/>
	<path class="st14" d="M167.3,584.4c1.4,0.2,2.1,0.9,2.1,2.3c0,1.5-0.4,2.6-2,2.7c-1.4,0.1-2.1-1-2.2-2.2
		C165.2,585.8,165.9,584.8,167.3,584.4z"/>
	<path class="st7" d="M278.5,587c-0.1,1.4-0.6,2.5-2.2,2.5c-1.3,0-1.9-1.1-2-2.4c0-1.4,0.6-2.6,2.1-2.5
		C277.9,584.6,278.4,585.6,278.5,587z"/>
	<path class="st15" d="M605.6,587c0.1,1.4-0.5,2.3-2,2.2c-1.4-0.1-2.2-0.8-2.1-2.2c0-1.4,0.8-2.6,2.3-2.4
		C605.1,584.6,605.7,585.6,605.6,587z"/>
	<path class="st16" d="M107.8,562.4c-1.5-0.1-2.1-0.8-2.1-2c0-1.2,0.6-2,1.9-2c1.2-0.1,2.1,0.5,2.1,1.7
		C109.8,561.4,108.8,562.1,107.8,562.4z"/>
	<path class="st8" d="M446,587c0,1.2-0.3,2.1-1.7,2.1c-1.6,0.1-2-0.9-2-2.2c0-1.2,0.3-2.1,1.7-2.1C445.6,584.8,446,585.7,446,587z"
		/>
	<path class="st0" d="M180.5,480.4c-0.4,2.8,0.7,6.2-0.7,9.5c-2.3,5.5-6.5,7.8-13.9,7.6c-6.6-0.1-11.4-3.7-13.7-10
		c-3.7-10.2,2.4-21.1,13-23.3c5.7-1.2,10.2,1,14,5.1c0.9,1,1.2,2.2,1.2,3.5C180.5,475.2,180.5,477.5,180.5,480.4z"/>
	<path class="st0" d="M119.1,464.5c7.5,0,10.9,4.2,9,11.5c-2.4,9-7.9,15.5-16.4,19.3c-7.6,3.4-14.1-1.1-13.8-9.4
		C98.4,475.3,109.1,464.5,119.1,464.5z"/>
	<path class="st0" d="M212.8,487.2c0.1-11.9,11.2-23.2,22.3-22.7c5.8,0.3,9,3.9,8.4,9.6c-0.9,9.2-10.7,20.1-19.6,22
		C217.9,497.5,212.7,493.4,212.8,487.2z"/>
	<path class="st17" d="M294.1,511.3c1,5.3,0.1,10.5-0.2,15.7c-0.1,1.6-0.7,3.4-2.8,3.3c-2.1-0.2-2.8-1.7-2.8-3.7
		C288.4,520.7,291.5,516.1,294.1,511.3z"/>
	<path class="st18" d="M212.1,446.9c0-4.1,0-8.1,0-12.2c0-0.7,0.1-1.4,0.3-2.1c0.6-1.7,1.6-2.9,3.6-2.4c2,0.5,2.1,2.2,1.7,3.6
		C216.5,438.5,214.8,442.8,212.1,446.9z"/>
	<path class="st19" d="M97.3,446.4c0-4,0-8.1,0-12.1c0-0.8,0.3-1.6,0.6-2.3c0.6-1.5,1.8-2.1,3.4-1.6c2,0.6,2,2.3,1.6,3.7
		C101.7,438.3,100.1,442.5,97.3,446.4z"/>
	<path class="st0" d="M354.4,457.8c3.7,8.2,7,15.5,10.3,22.8c0.7,1.6,0.2,2-1.4,2c-5.8,0-11.6,0-17.5,0c-1.2,0-2.6,0-1.8-1.9
		C347.4,473.3,350.7,466,354.4,457.8z"/>
	<path class="st20" d="M455.7,466.7c0-2.9,0.1-5.8,0-8.7c0-1.7,0.4-2.6,2.3-2.5c5,0.2,10-0.3,14.9,0.6c5,0.9,8.4,4.2,9.2,9.1
		c0.7,4.2-1.9,8.6-6.1,10.8c-3.2,1.6-6.7,1.9-10.2,1.7c-3.2-0.2-7.3,1.4-9.4-0.6c-2.2-2-0.4-6.2-0.7-9.4
		C455.7,467.4,455.7,467.1,455.7,466.7z"/>
	<path class="st0" d="M87.1,584.3c-4.5,0-8-3.3-7.9-7.5c0.1-4,3.5-7.3,7.8-7.3c4.4,0,8,3.3,8.1,7.4C95.2,581,91.6,584.3,87.1,584.3z
		"/>
	<path class="st0" d="M468.2,577.8c0-5,3.3-8.4,7.9-8.3c4.4,0.1,7.7,3.8,7.6,8.7c0,4.7-3.9,8.8-8.2,8.6
		C471.2,586.6,468.2,583,468.2,577.8z"/>
	<path class="st0" d="M380,578c0-5,3.1-8.4,7.7-8.4c4.4,0,7.8,3.7,7.8,8.5c0,4.7-3.7,8.8-8.1,8.8C383.2,586.8,380,583.1,380,578z"/>
	<path class="st0" d="M366.9,577.9c0,5.2-3.2,8.9-7.8,8.9c-4.1,0-7.7-4.1-7.7-8.7c-0.1-4.9,3.2-8.6,7.7-8.6
		C363.5,569.5,366.9,573.1,366.9,577.9z"/>
	<path class="st0" d="M200.9,569.5c4.1,0.1,7.7,4.4,7.6,8.9c-0.1,4.6-4,8.6-8.1,8.4c-4.3-0.2-7.9-4.2-7.8-8.8
		C192.6,573.3,196.4,569.5,200.9,569.5z"/>
	<path class="st19" d="M236.5,587c-2.7-0.2-5.2-0.7-5.5-4c-0.3-3.3,2.1-4.4,4.7-4.9c1.4-0.3,3.1-0.3,4.5,0.1
		c1.2,0.3,3.1-0.2,3.4,1.8c0.2,1.6,0.1,3.2-1.2,4.5C240.8,586.1,239,587.2,236.5,587z"/>
	<path class="st19" d="M545.6,578c1.6,0.9,5.2-1.1,5.3,3.1c0.1,3.4-3.1,6-7.2,5.9c-3.5,0-5.5-1.7-5.5-4.4
		C538.3,579.6,540.8,577.9,545.6,578z"/>
	<path class="st17" d="M426.6,577.1c-1,0-2.1,0.1-3.1,0c-1.2-0.1-2.9,0.6-3.5-0.7c-0.6-1.3,0.4-2.7,1.1-3.8c1.7-2.4,4-3.5,6.9-3
		c2.8,0.5,4.4,2.4,5.3,5c0.6,1.8,0.2,2.7-1.8,2.6C429.8,577,428.2,577.1,426.6,577.1z"/>
	<path class="st17" d="M150.1,577.1c-1.2,0-2.3,0.1-3.5,0c-1.1-0.1-2.6,0.5-3.2-0.7c-0.6-1.2,0.2-2.5,0.9-3.6
		c1.4-2.4,3.5-3.6,6.4-3.4c2.7,0.2,4.5,1.7,5.6,4.1c1.2,2.7,0.7,3.5-2.3,3.6C152.7,577.1,151.4,577.1,150.1,577.1z"/>
	<path class="st21" d="M521.1,569.5c1.6,0,3.3,0.9,4.4,2.7c0.8,1.3,2,2.7,1.3,4.2c-0.7,1.6-2.5,0.7-3.8,0.8c-2.6,0.1-5.1,0-7.7,0.1
		c-2.3,0.1-2.7-1-1.8-2.8C515,571.4,517.1,569.4,521.1,569.5z"/>
	<path class="st18" d="M623,449.1c4.3,0,7.7,3.4,7.7,7.8c0,4.4-4,8.4-8.2,8.3c-3.9-0.1-7.8-4.1-7.8-8
		C614.7,452.5,618.3,449,623,449.1z"/>
	<path class="st14" d="M622.3,451.9c4.2,0,5.4,1.6,3.9,5.2c-0.4,1-0.5,1.7,0.2,2.6c0.4,0.5,1,1.2,0.1,1.8c-0.8,0.4-1.2-0.3-1.7-0.8
		c-0.4-0.5-0.9-1.1-1.4-1.6c-1.2-1.1-2.3-1.4-2.5,0.8c-0.1,0.7,0,1.6-1,1.5c-0.8-0.1-1-0.9-1-1.6c0-2-0.1-4,0-5.9
		C619,451.6,620.9,452,622.3,451.9z"/>
	<path class="st22" d="M622.7,453.4c0.8,0.2,2.1,0.3,2.2,1.5c0.2,1.3-0.9,1.7-2,1.8c-1.2,0.1-2-0.2-2-1.7
		C620.9,454,621.4,453.3,622.7,453.4z"/>
</g>
</svg>
