<?xml version="1.0" encoding="utf-8"?>
<!-- Generator: Adobe Illustrator 21.1.0, SVG Export Plug-In . SVG Version: 6.00 Build 0)  -->
<svg version="1.1" id="Layer_1" xmlns="http://www.w3.org/2000/svg" xmlns:xlink="http://www.w3.org/1999/xlink" x="0px" y="0px"
	 viewBox="0 0 700 965" style="enable-background:new 0 0 700 965;" xml:space="preserve">
<style type="text/css">
	.st0{fill:#FEFEFE;}
	.st1{fill:#010000;}
	.st2{fill:#050404;}
	.st3{fill:#070606;}
	.st4{fill:#040303;}
	.st5{fill:#060505;}
	.st6{fill:#0B0A0A;}
	.st7{fill:#080707;}
	.st8{fill:#232222;}
	.st9{fill:#2A2929;}
	.st10{fill:#272626;}
	.st11{fill:#2C2B2B;}
	.st12{fill:#FDFDFD;}
	.st13{fill:#F9F9F9;}
	.st14{fill:#FBFBFB;}
	.st15{fill:#FAFAFA;}
</style>
<g>
	<path class="st0" d="M351.3,789.4c-114.2,0-228.4-0.1-342.6,0.2c-7.4,0-8.9-1.5-8.9-8.9c0.3-196.6,0.3-393.2,0-589.8
		c0-7.4,1.5-8.9,8.9-8.9c228.4,0.3,456.8,0.3,685.2,0c7.4,0,8.9,1.5,8.9,8.9c-0.3,196.6-0.3,393.2,0,589.8c0,7.4-1.5,8.9-8.9,8.9
		C579.7,789.3,465.5,789.4,351.3,789.4z"/>
	<path class="st1" d="M363.3,578.1c-37.7,0-67.6,0.3-97.6-0.2c-7.6-0.1-10.7,1-10.4,9.7c0.7,18.9,0.1,19.1-18.8,19.1
		c-24.6,0.1-49.1-0.2-73.7,0.2c-6.2,0.1-8-1.9-8-8c0.3-28.5,0.3-57.1,0-85.6c-0.1-6.3,2.1-7.8,8.1-7.8c21-0.2,21-0.5,21-21.6
		c0-56.7-0.2-113.4,0.2-170.2c0.1-8.6-1.6-12.1-11-11.6c-17.8,0.9-17.8,0.4-17.9-17.9c-0.1-24.2,0.1-48.4-0.4-72.6
		c-0.1-7.2,1.3-10,9.3-9.9c27.4,0.5,54.9,0.4,82.4,0.1c6.8-0.1,9.3,1.4,9.3,8.8c-0.2,20.2,0.2,20.2,20.1,20.2
		c57.1,0.1,114.2,0,171.2,0.4c9.3,0.1,14.3-2,12.4-12.3c-0.5-2.4,0.3-5.1-0.1-7.6c-1.1-7.6,1.8-9.7,9.4-9.5
		c27.4,0.5,54.9,0.3,82.4-0.1c6.4-0.1,8.7,1.1,8.6,8.1c-0.4,28.2-0.5,56.4,0,84.5c0.1,7.7-2.8,8.7-9.4,8.6
		c-19.3-0.6-19.5-0.3-19.5,18.7c0,58.5,0.2,117.1-0.1,175.6c0,7.1,1.8,9,8.9,8.9c19.8-0.3,19.8,0.1,19.8,20.4
		c0,23.5-0.4,47,0.3,70.4c0.2,8.4-2.4,10.1-10.3,9.9c-27.1-0.5-54.2-0.4-81.3-0.1c-6.7,0.1-9.4-1.2-9.3-8.8
		c0.2-20.4-0.2-20.5-21.1-20.4C410.5,578,383,576.8,363.3,578.1z"/>
	<path class="st2" d="M364.9,697.5c11,5.7,15.2,14.4,11.8,25.5c-3.5,11.5-13.1,14.3-24,14.4c-9.8,0.1-19.5,0-29.3,0.5
		c-4.7,0.2-6.4-1.2-6.3-6c0.2-21.7,0.2-43.4,0-65c-0.1-5.4,2.8-5.6,6.8-5.6c10.1,0.2,20.2,0.1,30.3,0.2c8.5,0.1,15.6,2.8,19.3,11.2
		c3.9,8.8,0,15.3-5.9,21.3C366.8,694.8,366.3,695.7,364.9,697.5z"/>
	<path class="st3" d="M461.9,740c11.7,7.7,20.2,19.8,34,10.8c6.8-4.5,7.5-11.8,7.1-19.3c-0.8-0.1-1.6-0.5-2-0.3
		c-15.2,8.5-25.8,7.9-34.1-1.9c-8.2-9.6-8.5-29.1-0.7-39.6c7.4-9.9,20.7-12.1,31.7-5.2c2.2,1.4,4.9,5.8,6.2-1
		c0.4-1.9,2.8-2.2,4.6-1.5c2.5,1,2.3,3.4,2.3,5.5c-0.2,17.3,0.2,34.7-0.9,51.9c-0.9,13.8-7.7,19.4-21.7,20.7
		C475,761.5,466.6,755.8,461.9,740z"/>
	<path class="st4" d="M273.3,710.2c0.9,8.5-2.9,17.3,5.5,23.5c1,0.7,1,3.1-0.6,3.6c-3.5,1.2-9.1,1.3-9.9-1.3c-2.3-7.5-4.3-3.1-7.4-1
		c-13.5,9.7-31.7,4-33.3-10.1c-1-9,3.1-14.7,11.6-16.9c6.2-1.6,12.7-2.4,19.1-3.5c3.3-0.6,6.7-1.4,7.5-5.2c0.7-3.7-0.7-7.1-3.5-9.7
		c-5.9-5.2-20-2.8-23.4,4.5c-1.7,3.7-3.3,7.4-7.5,4.9c-3.8-2.3-0.2-6,1-8.6c3.8-8.2,15.7-12.2,27.5-9.6c9.1,2,13.3,7.9,13.5,17
		C273.4,702.1,273.3,706.5,273.3,710.2z"/>
	<path class="st5" d="M456.3,736.8c-4.4-0.6-9.5,3.5-12.1-3.5c-1.5-4.2-3.8-0.1-5.3,1c-5.8,4.3-12.3,6.2-19.3,5
		c-8.3-1.3-13.9-5.7-14.7-14.7c-0.8-9,3.7-14.5,12-16.6c5.9-1.5,12-2.3,18.1-3.2c4.4-0.6,7.6-1.9,7.7-7.1c0.1-4.4-1.3-7.8-5.4-9.7
		c-7.2-3.4-17.2-0.4-21.8,6.2c-1.5,2.2-1.6,7.8-6.4,4.1c-3.3-2.6-1.1-5.9,0.5-8.6c4.4-7.7,15-11,27.1-8.6c8.7,1.7,13,7.3,13.5,15.9
		c0.4,6.5,0.5,13,0.4,19.5C450.4,723.7,450.2,730.8,456.3,736.8z"/>
	<path class="st2" d="M126,711.4c1.4,7.1-3.6,16.3,5.7,22c0.5,0.3,0.1,3.5-0.4,3.7c-3.1,1.2-7.5,1.3-8.9-1.1c-3.5-6-6-2.9-9.6-0.5
		c-7.4,5-15.4,5.6-23.6,1.9c-6.3-2.9-8.8-8.2-8.8-14.8c0-6.5,3.4-10.9,9.2-13.3c6.7-2.8,14-3.4,21.1-4.3c3.9-0.5,7.3-1.5,8.1-5.8
		c0.8-4.3-1-7.7-4.6-10.2c-6.9-4.6-19.5-1.7-23,5.8c-1.4,3-2.6,5.4-6.1,4.2c-5.2-1.7-1.1-4.9-0.3-6.8c3.9-9.5,14.9-13.8,27.6-11.1
		c9.7,2,13.7,8.5,13.7,18C126,703,126,706.9,126,711.4z"/>
	<path class="st2" d="M539.9,709.5c0.1-17.5,10.6-29.2,26.3-29.2c16.7,0,27.4,12.1,27,30.8c-0.3,17.2-11.3,28.9-26.9,28.7
		C550,739.6,539.8,727.8,539.9,709.5z"/>
	<path class="st4" d="M184.3,711c0,7.6,0,15.1,0,22.7c0,4.3-4.7,5.4-5.2,3.3c-2.4-9.9-5.9-2.4-8.6-0.8c-14.5,8.8-30,1.5-31.2-15.4
		c-0.8-11.1-0.4-22.3-0.4-33.5c0-2.2-1-5.4,3.2-5.4c4,0,4.5,2.5,4.5,5.7c0.1,10.8-1.5,21.5,0.2,32.4c1.1,7.1,2.9,12.1,11.3,12.9
		c8.6,0.8,14-2.8,16.8-10.3c3.2-8.2,2.5-17,2.5-25.6c0-3.6-0.1-7.2-0.1-10.8c0-2.3,0.5-4.3,3.5-4.3c3.1-0.1,3.4,2,3.4,4.3
		C184.3,694.5,184.3,702.8,184.3,711z"/>
	<path class="st6" d="M651.1,738.1c-10.2,1.1-13.5-4.1-13.2-13.4c0.3-9-0.1-18-0.2-27c-0.1-4.5,1.4-9.4-6.3-9.6
		c-4-0.1-3.2-5.5-0.6-5.6c8.9-0.2,6.8-6.3,7.1-11.2c0.2-3.1,0.6-6,4.4-6.3c4.9-0.3,3.3,3.7,3.5,6.2c0.4,5.5-1.2,12.1,8.3,10.8
		c2-0.3,3.1,1.4,3,3.6c0,2.5-1.7,3.1-3.6,2.8c-8-1.3-7.6,3.9-7.4,9.2c0.2,7.6-0.1,15.1,0.1,22.7c0.2,5.7-1.9,13.1,8.4,12.2
		c2.3-0.2,2.7,2,2.4,3.9C656,740.6,653,738.1,651.1,738.1z"/>
	<path class="st2" d="M27.4,698.8c0-10.1-0.1-20.2,0.1-30.3c0-2.9-1.6-7.3,3.8-7.1c5.5,0.2,3.2,4.8,3.2,7.5
		c0.2,18.4,0.4,36.9,0.1,55.3c-0.1,5.8,1.6,7.4,7.2,7.2c10.1-0.4,20.2-0.2,30.3-0.1c2.3,0,5.5-0.9,5.8,2.9c0.4,5.1-3.7,3.4-6.1,3.4
		c-12.6,0.1-25.3-0.3-37.9,0c-4.8,0.1-6.2-1.7-6.1-6.2c0.2-10.8,0.1-21.7,0.1-32.5C27.7,698.8,27.5,698.8,27.4,698.8z"/>
	<path class="st3" d="M625.8,688c-15.3-3.1-12,7.8-12.1,16.3c-0.1,6.5,0.2,13,0.2,19.5c0,4.7,0.4,8.8,6.7,8.5
		c2.2-0.1,4.5,0.4,4.2,3.5c-0.4,3.7-3.1,3-5.7,3c-8.1,0-13-2.7-12.5-12c0.4-8.3,0.3-16.6-0.1-24.8c-0.3-5.5,3.7-14-7.7-13.4
		c-1.5,0.1-2-1.7-2-3.3c0-1.6,0.8-3.2,2.3-3c8.9,0.9,7.3-5.5,7.6-10.6c0.2-2.6-1.1-6.2,3.4-6.5c4.8-0.4,4,3.4,3.7,5.9
		c-0.9,7.1,0.8,11.7,9,11.9C624.6,682.8,625.6,684.7,625.8,688z"/>
	<path class="st7" d="M204.9,689.8c4.4-3.8,8.9-7.3,14.7-8.5c2.1-0.4,4.4-0.8,5,2.3c0.4,2-0.2,4-2.1,4.4
		c-22.1,4.9-18,22.4-18.9,37.8c-0.2,4,3.5,11.4-3.1,11.4c-7.6,0-3.4-7.8-3.6-11.9c-0.6-11.5-0.4-23-0.1-34.5c0.1-3-2.6-8,3-8.7
		C205.7,681.4,201.9,687.9,204.9,689.8z"/>
	<path class="st8" d="M522.6,709.8c0-7.6,0-15.2,0-22.7c0-2.8,0.4-5.1,3.8-5.2c3.5-0.2,4.1,2.1,4.1,4.9c0,15.5,0,31,0,46.5
		c0,3-1,4.9-4.3,4.7c-3.6-0.2-3.5-2.9-3.5-5.5C522.7,724.9,522.7,717.4,522.6,709.8C522.7,709.8,522.7,709.8,522.6,709.8z"/>
	<path class="st9" d="M673.4,709.5c0,7.5,0,15.1,0,22.6c0,3.2-0.9,5.8-4.7,5.6c-4.3-0.1-2.7-3.6-2.7-5.6
		c-0.1-14.7-0.1-29.5-0.1-44.2c0-2.8-0.5-6.2,3.9-6.2c4.2,0,3.9,3.3,4,6.2c0,7.2,0,14.4,0,21.5C673.6,709.5,673.5,709.5,673.4,709.5
		z"/>
	<path class="st1" d="M394.9,709.9c0,7.5,0,15,0,22.6c0,2.5,0.4,5.2-3.6,5c-4-0.1-3.3-2.9-3.3-5.3c0-14.7,0-29.4,0-44.1
		c0-2.4-0.6-5.4,3.1-5.7c5-0.4,3.4,3.6,3.5,6c0.2,7.2,0.1,14.3,0.1,21.5C394.7,709.9,394.8,709.9,394.9,709.9z"/>
	<path class="st10" d="M522.8,666.1c1-2.3-1.1-6.9,3.4-6.2c4.2,0.7,4.3,5.2,4.7,8.8c0.5,3.9-2.4,3.8-4.9,3.8
		C521,672.4,523.2,668.6,522.8,666.1z"/>
	<path class="st11" d="M668.3,659.5c4.3,1.1,5,4.3,5.6,7.4c0.4,2.4,1.2,5.2-2.8,5.4c-3.1,0.2-5.9,0-5.2-4.3
		C666.3,665.1,665.6,661.7,668.3,659.5z"/>
	<path class="st4" d="M390,661.2c6.5,0.6,4.6,4.2,4.8,6.7c0.3,3-1,4.9-4.3,4.3c-3.8-0.7-2.4-3.8-2.5-6
		C387.8,663.5,387.5,660.6,390,661.2z"/>
	<path class="st0" d="M357.8,244.7c35,0,70.1-0.2,105.1,0.2c7,0.1,10.1-0.9,10-9.1c-0.4-19.8,0-19.8,20.3-19.8
		c14.8,0,29.6,0.3,44.4-0.1c6.2-0.2,8.1,2,8.1,8c-0.2,19.1-0.3,38.3,0.3,57.4c0.2,6.8-2.8,7.4-8.3,7.4c-20.6,0.2-20.6,0.4-20.6,21
		c0,66.1,0.3,132.2-0.3,198.4c-0.1,10.4,3.2,13.5,12.7,12.1c2.5-0.4,5.1,0.2,7.6-0.2c6.8-1.1,8.7,1.8,8.6,8.4
		c-0.3,18.4,0,36.8,0.3,55.3c0.1,6.4-0.9,9.8-8.8,9.5c-18.8-0.6-37.6-0.4-56.4-0.1c-5.7,0.1-8.1-1-8.2-7.5
		c-0.3-21.4-0.7-21.4-22.1-21.4c-66.1,0-132.2,0.2-198.3-0.2c-8.4,0-11.1,2-10.8,10.7c0.6,18.2,0.1,18.3-18.6,18.3
		c-15.5,0-31.1-0.2-46.6,0.1c-5.4,0.1-7.6-1.2-7.5-7.1c0.4-19.5,0.3-39,0-58.5c-0.1-5.5,1.2-7.3,7.1-7.4
		c22.3-0.5,22.3-0.8,22.3-22.7c-0.1-66.1-0.4-132.2,0-198.4c0-8.9-2.7-10.7-10.9-10.4c-18.2,0.6-18.2,0.1-18.2-18.5
		c0-15.2,0.2-30.4-0.2-45.5c-0.2-6.2,0.9-8.9,8.1-8.7c18.8,0.6,37.6,0.4,56.4,0.1c6.2-0.1,8.8,1,8.7,8.2c-0.3,20.7,0,20.7,20.7,20.7
		C294.2,244.7,326,244.7,357.8,244.7z"/>
	<path class="st12" d="M341.8,731.5c-16.7-0.2-16-0.2-16.9-17.3c-0.5-10.8,2-15.6,13.7-13.9c6.7,1,13.6,0.2,20.3,1.9
		c7.6,1.8,11.1,6.8,11,13.9c-0.1,7.6-4,13.1-12,14.3C352.6,731.2,347.2,731.2,341.8,731.5z"/>
	<path class="st12" d="M344.2,667.4c1.9,0.1,6.6,0.1,11.2,0.6c7.5,0.9,11.5,5.2,11.6,12.9c0.1,7.3-3.7,11.8-10.6,12.5
		c-8.9,0.9-17.9,0.5-26.8,0.9c-3.3,0.1-4.5-1.3-4.3-4.4c0.1-2.1,0-4.3,0-6.4C325.2,667.2,325.2,667.2,344.2,667.4z"/>
	<path class="st12" d="M503,709.6c-0.1,12.7-7.6,21.6-17.8,21.4c-10.5-0.3-17.2-8.9-17.2-22c0-12.9,7.1-21.9,17.3-21.9
		C496.1,686.9,503.1,695.8,503,709.6z"/>
	<path class="st13" d="M248.3,733.3c-6.7-0.5-12.1-3.3-13.3-9.5c-1.3-6.8,4.5-9,9.9-10.4c2.8-0.7,5.6-2,8.4-1.9
		c4.4,0.2,10.6-4.7,12.7,0c2.4,5.5-0.9,11.9-5.3,16.6C257.2,731.7,252.7,733,248.3,733.3z"/>
	<path class="st14" d="M442.7,714.8c0.2,12.1-10,20.7-21.3,18.1c-4.8-1.1-8.6-3.9-9.3-9.1c-0.8-5.6,2.8-8.7,7.7-10
		c5.9-1.5,11.9-2.4,17.8-3.8C442.3,708.8,443.3,710.9,442.7,714.8z"/>
	<path class="st15" d="M99.8,733.2c-6.1,0.4-10.3-3.1-12-9.3c-1.9-7,4.1-8.6,8.3-10.1c6-2.1,12.6-2.7,18.9-4.1
		c3.8-0.8,3.9,1.3,4,4.2C119.6,724.7,111.4,733.3,99.8,733.2z"/>
	<path class="st12" d="M585.3,709.9c0.1,13.3-7.9,22.9-19.1,23c-10.8,0.1-18.3-8.8-18.5-22.1c-0.3-13.4,7.4-23.2,18.4-23.4
		C577.5,687.1,585.3,696.1,585.3,709.9z"/>
	<path class="st1" d="M254,405.5c0-34.3,0.2-68.6-0.2-102.9c-0.1-7.7,2.1-9.6,9.7-9.6c26.7,0.2,26.7-0.1,26.7,27
		c0,48.4-0.1,96.8-0.1,145.2c0,16.8,0,16.7,17.1,16.7c34.7-0.1,69.3,0.2,104-0.2c13.3-0.2,22.6-8.2,25.9-20.6
		c3-11.2-1.6-23.7-11.4-30.4c-5.5-3.8-11.8-5.3-18.4-5.3c-21.3-0.1-42.6,0.2-63.9-0.2c-5.8-0.1-7.5,1.7-7.3,7.3
		c0.4,10.1-0.5,20.3,0.2,30.3c0.5,7-2.1,8.1-8.5,8.2c-27,0.2-27,0.4-27-26.2c0-47.3,0-94.6-0.3-141.9c0-7,0.9-10.1,9.2-10
		c31.8,0.5,63.6,0.3,95.3,0.3c26.3,0,45.9,11.5,57.3,35.2c11.1,23.2,7,45.2-8.8,64.6c-4.9,6-3.2,8.2,1.8,12.2
		c22.3,17.9,30,44.5,21,70.7c-8.6,24.9-31.9,41.8-59.7,42.1c-51.3,0.5-102.6,0.2-153.8,0.6c-7.4,0.1-8.8-2.4-8.8-9.2
		C254.2,474.8,254,440.2,254,405.5z"/>
	<path class="st0" d="M374.4,329.7c9.7,0,19.4-0.2,29.2,0.1c14.1,0.4,25.2,11.6,25.8,25.4c0.5,13.8-8.6,25.3-22.5,27
		c-21.5,2.5-43.1,0.5-64.7,1.1c-3.7,0.1-5.2-1.7-5.2-5.2c-0.2-14.4-0.3-28.8-0.7-43.2c-0.1-4.6,2.1-5.2,5.9-5.2
		C352.8,329.8,363.6,329.7,374.4,329.7z"/>
</g>
</svg>
