<?xml version="1.0" encoding="utf-8"?>
<!-- Generator: Adobe Illustrator 21.1.0, SVG Export Plug-In . SVG Version: 6.00 Build 0)  -->
<svg version="1.1" id="Layer_1" xmlns="http://www.w3.org/2000/svg" xmlns:xlink="http://www.w3.org/1999/xlink" x="0px" y="0px"
	 viewBox="0 0 900 596" style="enable-background:new 0 0 900 596;" xml:space="preserve">
<style type="text/css">
	.st0{fill:#FDFDFD;}
	.st1{fill:#231F20;}
	.st2{fill:#FEFEFE;}
	.st3{fill:#252122;}
	.st4{fill:#FCFCFC;}
	.st5{fill:#F2F2F2;}
	.st6{fill:#CCCBCC;}
</style>
<g>
	<path class="st0" d="M450.6,597c-148.4,0-296.8,0-445.1,0.1c-3.9,0-4.5-1.1-4.5-4.7C1,396.6,1,200.7,0.9,4.9C0.9,1,2,0.4,5.6,0.4
		c296.8,0.1,593.5,0.1,890.3,0c3.9,0,4.5,1.1,4.5,4.7c-0.1,195.8-0.1,391.7,0,587.5c0,3.9-1.1,4.5-4.7,4.5
		C747.3,597,598.9,597,450.6,597z"/>
	<path class="st1" d="M219.7,288c-9.7,10.9-18.3,22.9-28.6,33.2c-29.4,29.4-63.5,49.8-105.3,55.4c-15.9,2.1-31.6,1.1-46.7-4.6
		c-4.7-1.8-9-4.3-12.3-8.2c-5.3-6.3-3.6-15.4,3.6-18.5c4.1-1.8,7.9-1.2,11,2.1c2.7,2.9,2.9,6.3,0.7,9.6c-2.5,3.8-6.1,4.1-10.2,2.9
		c-0.6-0.2-1.1-0.7-1.9-0.1c2,4.4,6,6.5,10.1,8.2c15.2,6.2,31.1,6.8,47.1,4.5c27.8-4,50.1-18.8,70.4-37.1
		c15.4-13.9,28.6-29.8,42.8-44.7c24.5-25.8,51.1-49.1,81.5-67.9c3.7-2.3,2.7-3.3,0.1-5.3c-15.2-11.8-32.8-17.7-51.6-19.7
		c-42-4.6-82.7,0.6-120.9,19.7c-17.6,8.7-32.4,20.9-42.7,37.9c-3.1,5.2-5.1,10.8-6.2,16.7c-2.9,15.7,3.8,28,18.7,33.9
		c12.3,4.9,25,5.3,37.8,2.4c24.6-5.6,46.9-15.7,66.3-32c4.2-3.6,7.9-7.6,10.9-12.3c8.2-12.9,3.9-24.7-10.8-29.3
		c-8.9-2.8-17.8-2-26.6,0.1c-21,5.1-38.1,16.9-53.5,31.6c-6.6,6.3-12.7,13.2-18.1,20.6c-0.6,0.8-1,2.5-2.6,1.4c-1.5-1-0.3-2,0.3-2.9
		c18-23.8,39-43.8,68.2-53c11.2-3.5,22.8-4.9,34.4-1.3c15.1,4.7,20.8,17.6,14.1,31.9c-3.7,7.8-9.1,14.3-15.7,19.8
		c-26.5,22.3-56.5,34-91.6,30.2c-6.2-0.7-12.1-2.3-17.7-4.9c-13.1-6-19.6-16.8-18.8-31.2c1-18.3,10.1-32.4,23.4-44.2
		c19.1-17,41.9-26.8,66.4-32.8c33.8-8.4,68-11,102.3-2.7c14.6,3.5,28.1,9.4,39.3,19.6c2.1,1.9,3.4,1,5.1-0.1
		c8.4-5.4,17-10.5,26.2-14.3c1.2-0.5,2.8-2.3,3.8-0.1c1,2.3-1.5,2.1-2.7,2.6c-8.9,3.8-16.9,9.2-25.1,14.3c-2.4,1.5-2.1,2.5-0.7,4.6
		c13,19.2,9.9,39.7-8.1,54.5c-10.5,8.6-22.7,13.5-35.8,17.5c7.6,12.3,7.8,24.9,3.1,38.1c2.4,1.5,3.6-1,5-2.3
		c20.8-18.2,39.6-38.5,59.8-57.4c14.5-13.5,29.3-26.7,46.6-36.6c5.8-3.3,11.9-6,18.6-7.1c3.6-0.6,7.5-1,10.1,2.4
		c2.7,3.5,1.8,7.3,0.2,10.9c-3,6.7-7.8,12-13.1,16.8c-23.7,21.6-51.5,36.5-80.9,48.4c-2.7,1.1-4.9,2.5-6.9,4.6
		c-13.5,14.3-27.2,28.3-39.8,43.4c-2.6,3.1-5.1,6.2-6.7,9.9c-2.2,4.9,0.5,8.7,5.9,8.2c3.4-0.3,6.3-2.1,9.2-3.7
		c10.7-6.2,20.4-13.8,29.9-21.6c10.1-8.2,20.7-15.7,31.2-23.3c4.9-3.5,10.5-0.9,14.7-1.6c-6.6,7.1-13.4,14.7-20.5,22.1
		c-4.8,5-10.1,9.7-15.1,14.6c-1.7,1.6-3.2,3.4-4.6,5.3c-1.2,1.7-2.6,3.7-1.3,5.9c1.5,2.5,4.1,2.8,6.6,2.3c5.5-1,10.2-4.1,14.6-7.3
		c13.6-9.7,25.7-21.2,37.8-32.5c1.1-1,2.4-1.9,3.2-3.1c5.5-7.7,13.1-8.5,22.4-6.8c-4.8,5-9.3,9.7-13.9,14.5
		c-8.3,8.6-16.6,17.3-24.9,25.9c-1.1,1.2-2.2,2.5-3.1,3.9c-0.9,1.3-1.4,2.7-0.5,4.2c1.1,1.7,2.8,1.7,4.5,1.3
		c3.1-0.8,5.8-2.4,8.5-4.1c14.7-9.3,27.7-20.8,41.3-31.4c6.4-5,12.7-10.2,19.9-14.2c3.4-1.9,7.2-3.5,10.7-0.6c3.5,3,3.2,7.1,2,11.1
		c-1.5,4.9-4.3,9.1-7.9,13.1c2.4,0.3,3.4-1.5,4.8-2.5c9.9-7.3,19.7-14.8,30.8-20.3c3.3-1.6,6.6-3.1,10.4-3
		c6.5,0.2,10.1,4.9,8.2,11.2c-0.7,2.2-1.8,4.3-2.9,6.3c-1,1.9-2.2,3.7-3.5,5.7c2.3,1,3.2-0.9,4.3-1.7c8.6-6.3,16.8-13.1,26.4-17.9
		c3.3-1.7,6.7-3.1,10.4-3.4c7.6-0.8,12,4.3,10.5,11.8c-1.1,5.3-4.3,9.4-8,13c-5.1,5-10.5,9.7-15.8,14.5c-2.1,1.9-4.1,3.9-5.5,6.4
		c-0.8,1.4-1.8,3-0.4,4.6c1.3,1.6,3.1,2.1,5,1.4c2.3-0.9,4.7-1.7,6.8-3.1c12-7.6,23.4-15.8,33.4-26c11.9-12.1,26.6-19.2,43.2-22.4
		c1-0.2,2-0.2,3-0.2c9-0.3,11.2,1.4,12.5,10.2c2.9-2.8,5.4-6.8,8.9-8.2c3.6-1.4,8.1-0.3,13.5-0.3c-2.8,2.7-4.9,4.7-6.9,6.7
		c-10,9.8-20,19.5-28.9,30.4c-1.5,1.8-3,3.6-4.1,5.7c-1.1,1.9-3.4,3.9-1.4,6.2c2.1,2.4,4.3,0.2,6.3-0.8c1.8-0.9,3.5-1.9,5.1-3.1
		c16.4-11.7,32.1-24.3,46.9-38c2-1.8,2.3-3.2,0.7-5.3c-1.5-2-1.4-4.4-0.8-6.7c0.8-3.2,3.2-4.6,6.3-4.5c2.8,0,4.7,1.6,5.4,4.4
		c0.8,3.2-0.9,5-3.6,6.3c-0.9,0.4-2,0.3-2.7,1.7c4.6,2.3,9.2,1.8,13.8,0.3c2.9-0.9,10,3.1,10.4,5.9c0.2,1.6-1.3,2.2-2.2,3
		c-9.8,9.8-19.6,19.4-29.3,29.3c-1.9,2-5.7,4.2-3.5,7.3c2.2,3.2,6.2,1.7,9.2,0.4c13.2-5.5,24.3-14.3,35.4-23.1
		c8.1-6.4,16.4-12.7,23.7-19.9c6.2-6,12.9-7.3,21.5-5.8c-3,3.3-5.7,6.3-8.4,9.2c-9.1,9.9-18.3,19.8-27.3,29.8
		c-2.3,2.6-6.5,5.8-4,9.2c3,4.1,7.5,0.7,10.8-1c12.2-6.3,22.8-15,33.4-23.5c9.2-7.4,18.4-14.9,28.4-21.2c2.8-1.8,5.7-3.5,8.9-4.4
		c6.7-1.8,11.5,3.1,10,9.9c-0.9,3.9-3.1,7.1-5.5,10.5c2.5,0.4,3.4-1.3,4.6-2.2c6.8-5.3,13.7-10.6,21.4-14.6c4.5-2.3,9-4.3,14.3-3.8
		c7,0.6,10.6,6.1,8.2,12.7c-2,5.7-6.3,9.8-10.6,13.6c-5.5,4.9-11.3,9.3-16.6,14.3c-2.6,2.4-7,5.3-4,9.5c3.2,4.3,7.1,0.6,10.1-1.2
		c12.8-7.7,25.1-16.3,35.8-26.9c10.7-10.6,23.4-18.2,38.2-21.5c4.1-0.9,9.1-2.6,11.6,2.5c2.4,4.9-0.9,8.6-4.3,11.7
		c-5.6,5.2-12.6,8-19.8,10.2c-4.8,1.4-9.6,3-14.5,3.7c-9.1,1.2-12.8,7.5-15.4,15c-1.6,4.7,1.2,8.1,6.3,8.2c4.1,0.1,7.9-1.2,11.6-2.7
		c13.4-5.4,25.1-13.7,36.4-22.5c1-0.8,2.1-3.1,3.6-1.1c1.1,1.5-1,2.2-1.9,2.9c-12.2,9.2-24.2,18.8-39,23.8c-2.7,0.9-5.4,1.6-8.2,1.9
		c-10.6,1-16.4-5.3-14.4-15.8c0.2-1.3,0.7-2.5,1.4-4.9c-5.4,3.9-9.9,7.3-14.5,10.6c-4.7,3.4-9.6,6.7-14.9,9
		c-3.5,1.5-7.1,2.2-10.4-0.5c-3.4-2.7-3-6.5-2.2-10.1c1.2-5.5,4.3-10,8.1-14.1c4.3-4.6,9.3-8.5,14.2-12.6c2.4-2,4.7-4.2,6.9-6.5
		c1.2-1.3,2.4-3.1,1.1-4.9c-1.2-1.8-3.1-2.3-5.3-1.9c-5.5,1-10.4,3.5-15,6.4c-10.6,6.6-20.2,14.7-29.6,22.9
		c-7.5,6.6-15.7,12.4-22.6,19.7c-1,1-2,1.6-3.5,1.6c-4.1-0.1-8.2,0-11.5,0c5.4-5.9,10.9-12.2,16.8-18.1c7.7-7.8,15.9-15.2,23.6-23
		c2.2-2.2,6.2-5.1,3.7-8.3c-2.6-3.3-6.2,0.2-8.8,1.7c-14.7,8.9-27.5,20.4-41.3,30.6c-7.7,5.8-15.3,11.8-24,16.1
		c-3.2,1.5-6.4,2.7-10,2.4c-6.2-0.6-8.9-4-7.7-10.2c1.2-6.3,5.1-11.1,9.1-15.8c1.8-2.1,3.6-4.2,5.6-6.4c-2.2-1.6-3,0.4-3.9,1.1
		c-10.3,8.2-20.5,16.5-31.6,23.6c-5.6,3.6-11.3,7-18.2,7.7c-9.4,0.9-13.5-4.4-10.4-13.2c1.8-5.2,5.6-9,9.2-12.9
		c6.3-6.8,12.6-13.7,18.3-19.9c-5.6-0.3-11.9,0-17.9,5.7c-14.3,13.4-30.1,25.2-46.1,36.7c-2.3,1.6-4.6,3.2-7.6,3.7
		c-7,1.2-10.6-2.4-9.3-9.4c0.4-2.4,1.3-4.7,2.1-7.5c-2.2,0.3-3.3,1.8-4.6,2.8c-6.2,4.8-12.4,9.5-19.8,12.3c-2.7,1-5.4,1.7-8.2,1.9
		c-8.1,0.6-12.2-3-12.4-11.2c-0.1-2.6,0.3-5.2,0.5-8.5c-5.3,4-10,7.6-14.7,11c-4.3,3.1-8.7,6.1-13.8,7.9c-4,1.4-7.9,1.4-11.3-1.4
		c-3.6-3-3.2-7.2-2.1-11.1c1.5-5.6,5.2-10,9.4-13.8c4.3-3.9,8.9-7.5,13.3-11.3c2.3-1.9,4.5-3.9,6.2-6.5c1.2-1.9,1.4-3.7-0.1-5.5
		c-1.3-1.7-3-1.7-4.9-1.1c-3.2,0.9-6.2,2.4-9.1,4.1c-18.5,11.1-35.2,24.7-50.7,39.5c-6.8,6.4-13.6,7.5-22.7,6.2
		c8.6-8,16.8-15.6,25.1-23.2c5.3-4.9,10.6-9.6,15-15.3c1.4-1.8,2.9-3.7,3.4-6c0.8-3.9-1.4-6.1-5.3-5.2c-5.1,1.2-9.5,4-13.8,6.8
		c-16.7,10.7-32.4,22.9-47,36.3c-7,6.4-14,8.6-23.6,6.7c2.7-2.5,5.2-4.8,7.7-7.1c9.1-8.3,18.2-16.6,27.2-25
		c3.5-3.3,6.4-7.2,8.2-11.8c0.8-1.9,1.5-3.9-0.3-5.5c-1.8-1.7-3.5,0.1-4.9,0.9c-11,6.9-20.9,15.4-31.2,23.3
		c-9.9,7.6-19.5,15.6-30,22.4c-3.5,2.3-7.1,4.3-11.4,4.7c-7.1,0.6-10.9-4.3-8.9-11.1c1.1-3.8,3.7-6.8,4.4-11.1
		c-4.7,3.8-9.4,7.6-14,11.4c-4.4,3.6-9,6.9-14.4,8.9c-2,0.7-4.1,1.4-6.2,1.7c-9.5,1.4-15-5.4-11.7-14.5c2.2-6.2,7-10.4,11.4-15
		c1.8-1.9,3.8-3.6,6.3-6c-2.9-0.3-3.8,1.2-5,2.1c-11.9,8.8-23.2,18.5-35.6,26.6c-5,3.3-10,6.6-16.3,7c-7.8,0.5-11.9-3.6-11.5-11.3
		c0.3-5.9,3.5-10.7,6.6-15.4c1.8-2.7,3.8-5.2,6.5-8.9c-3.9,0.9-5.4,2.8-6.9,4.6c-16.8,19.9-38.5,29.6-64.1,31
		c-5.8,0.3-12.2-0.2-15.3-6.2c-3-5.9-0.3-11.4,3.5-16.1c9.7-12.1,22.9-19,36.8-24.9c5.4-2.3,11-3.9,16.7-5c1.1-0.2,2.9-1.3,3.3,0.7
		c0.4,2-1.7,1.7-2.8,1.9c-13.3,2.5-25.4,8-36.4,15.7c-6.4,4.5-12.4,9.6-16.2,16.6c-4.5,8.4-1.2,13.7,8.3,13.5
		c7.4-0.2,14-2.9,20.3-6.4c19.9-11.3,36.5-26.1,47.5-46.5c3.5-6.4,4.9-13.1,1.2-20c-1.3-2.5-2.5-3.7-5.8-2.9
		c-5.3,1.3-10.9,2-16.3,0.2c-4.2-1.4-7-3.8-5.6-8.8c1.5-4.7,5.5-5,9.3-4.8c5.2,0.3,10.2,1.9,14.3,5.3c2,1.6,3.7,1.6,5.9,0.5
		c17.4-9.2,31.2-22,40-39.8c3.3-6.8,4.8-13.8,0.7-21c-1.8-3.1-3.3-4-6.6-1.7c-9.1,6.3-17.9,12.8-25.9,20.4
		C247,259,235.4,270,225.4,282.6C223.8,284.7,222.3,286.9,219.7,288z"/>
	<path class="st2" d="M219.7,288c18.7-24.5,40.6-45.6,66.2-63c2.4-1.6,3.3-0.8,4.6,1c4.4,6,5.4,12.6,2.9,19.4
		c-8.2,21.9-24.3,36.4-44.6,46.8c-2,1-3.1-0.2-4.4-1.2c-3.8-2.8-8-4.7-12.7-5.3c-4.2-0.5-7.9,0.2-10.9,3.4
		C220.4,288.8,220.1,288.4,219.7,288z"/>
	<path class="st3" d="M736.2,301.7c0,0.7-9.2,8.6-9.5,8.3c-2.4-2.7-4.8-5.4-7.1-8.2c-0.4-0.5,8.5-8.8,9.2-8.7
		C729.4,293.2,736.2,301.1,736.2,301.7z"/>
	<path class="st2" d="M300.8,303.8c11.2-12.2,22.7-23.9,34.5-35.4c9.8-9.5,19.8-18.8,31-26.6c5.3-3.7,10.8-7.2,17.2-8.8
		c2.9-0.7,5.7-0.9,7.9,1.5c2.4,2.6,0.9,5.4-0.2,7.9c-2.9,6.4-7.7,11.2-12.8,15.7c-21.7,19-46.4,33.3-72.5,45.3
		C304.2,304.2,302.8,304.7,300.8,303.8z"/>
	<path class="st2" d="M535.4,375.2c-6.9,0-9-3.1-6.7-8.1c1.5-3.2,3.6-6,5.9-8.6c9.6-11.4,20.6-21.2,33.5-28.7
		c3.5-2,7.1-3.6,11.1-4.2c6.5-1,10,3.4,7.4,9.5c-0.9,2.3-2.3,4.5-4,6.3c-10.7,11.9-22.8,22.3-36.9,30.1
		C542.2,373.5,538.3,375,535.4,375.2z"/>
	<path class="st4" d="M833.5,348.9c8.5-7.5,16.7-15,26.3-20.6c3.3-1.9,8-5.5,10.9-0.5c2.6,4.5-1.8,7.7-5.1,10
		C856,344.4,844.9,347.2,833.5,348.9z"/>
	<path class="st5" d="M243.2,294.1c-6.2,1.4-11.3,1.8-16.4-0.4c-0.9-0.4-2-0.9-2-2c0-1.5,1.4-1.7,2.5-1.9
		C232.9,288.5,237.5,291,243.2,294.1z"/>
	<path class="st6" d="M690.3,336c-0.7,2.5-2,4.5-4.9,4.6C687.1,339,688.7,337.5,690.3,336z"/>
</g>
</svg>
