<?xml version="1.0" encoding="utf-8"?>
<!-- Generator: Adobe Illustrator 21.1.0, SVG Export Plug-In . SVG Version: 6.00 Build 0)  -->
<svg version="1.1" id="Layer_1" xmlns="http://www.w3.org/2000/svg" xmlns:xlink="http://www.w3.org/1999/xlink" x="0px" y="0px"
	 viewBox="0 0 900 596" style="enable-background:new 0 0 900 596;" xml:space="preserve">
<style type="text/css">
	.st0{fill:#FEFEFE;}
	.st1{fill:#FDFDFD;}
	.st2{fill:#6C6C6C;}
	.st3{fill:#030303;}
	.st4{fill:#020202;}
	.st5{fill:#010101;}
</style>
<g>
	<path d="M451,1c148.5,0,297,0,445.5-0.1c3.7,0,4.6,0.8,4.6,4.6c-0.1,195.7-0.1,391.3,0,587c0,3.7-0.8,4.6-4.6,4.6
		c-297-0.1-594-0.1-891,0c-3.7,0-4.6-0.8-4.6-4.6C1,396.8,1,201.2,0.9,5.5c0-3.7,0.8-4.6,4.6-4.6C154,1,302.5,1,451,1z"/>
	<path class="st0" d="M196.1,251.8c10.2,1.1,19.9,3.9,28.9,8.8c29.5,15.9,33.8,55.5,8.3,77.4c-13.2,11.4-29.2,16.2-46.2,18.2
		c-11.8,1.4-23.6,0.8-35.4,0.8c-25.5,0.1-51,0-76.5,0c-2.5,0-4.7,0.5-4.7-3.6c0-4,1.9-3.7,4.5-3.7c9.9-0.2,13-3.3,13-13.2
		c0-51.1,0-102.3,0-153.4c0-9.4-1.8-11.3-11.5-11.3c-2.8,0-5.1,0.4-4.9-3.9c0.2-3.1,1-3.8,4-3.8c36,0.1,72-0.1,107.9,0.2
		c13.2,0.1,25.8,3.1,37,10.5c21.3,14,24.3,39.8,6.7,58.4c-8.1,8.6-17.9,14.2-29.3,17.1C196,250.7,196,250.7,196.1,251.8z"/>
	<path class="st0" d="M478.4,261.2c-0.1,56-45.6,101.4-101.5,101.3c-56.3-0.1-101.6-45.7-101.5-101.9
		c0.1-55.4,45.9-100.8,101.6-100.8C433.1,159.9,478.5,205.2,478.4,261.2z"/>
	<path class="st0" d="M508,319.6c0-7.2-0.1-14.3,0.1-21.5c0-1.7-1.7-4.6,2.2-4.9c2.9-0.2,4.7,0.2,5.7,3.7
		c3.6,12.8,9.5,24.5,18.5,34.4c16.9,18.8,44.4,25.1,67.7,15.4c22.9-9.5,27-36.3,7.8-52.1c-7.5-6.2-16.4-10.1-25.4-13.7
		c-15.4-6.3-31.1-11.7-45.7-19.8c-13.5-7.5-24.6-17.2-28.9-32.8c-7.3-26.1,6.1-50.8,32.9-61.5c19.1-7.6,38.5-6.1,58.1-2.6
		c10.3,1.9,20.4,4.7,30.3,8.4c2.8,1,3.8,2.3,3.7,5.3c-0.2,12.2,0,24.3-0.1,36.5c0,1.6,1.3,4.2-2.3,4.4c-3.1,0.2-4.8-0.4-5.4-3.9
		c-2.9-15.3-9.8-28.4-23.3-36.9c-14.6-9.1-30.5-11.2-47-6.2c-9.1,2.8-14.9,9-16.9,18.6c-2,10,1.7,17.5,9.6,23.4
		c7.8,5.8,16.7,9.5,25.7,13c10.5,4.1,21.2,8,31.7,12.1c6.2,2.4,12.1,5.5,17.7,9.1c22.5,14.2,33.2,36.6,28.9,61.1
		c-4.6,26.5-21.6,41.2-46.6,47.5c-24,6.1-48,3.1-71.8-2.1c-8.1-1.8-16.1-4.1-23.9-7.1c-2.5-1-3.6-2.2-3.5-5.1
		C508.1,334.9,508,327.3,508,319.6z"/>
	<path class="st0" d="M682.2,319.7c0-7.5,0-15,0-22.5c0-1.6-0.9-4,2.2-3.9c2.4,0.1,4.8-0.6,5.7,3.1c1.9,8,5.4,15.4,9.5,22.5
		c19.3,33.4,51.5,37,75.8,28.3c11.1-4,18.6-11.6,20.5-23.6c2-12.4-2.9-22.1-12.7-29.6c-7.3-5.6-15.7-9.3-24.2-12.8
		c-15.4-6.3-31.1-11.7-45.7-19.8c-12.8-7.1-23.6-16.2-28.4-30.8c-8.7-26.4,4.7-52.5,32.2-63.5c17.1-6.8,34.5-6.4,52.2-3.7
		c12.4,1.9,24.4,5,36.2,9.4c2.7,1,3.9,2.2,3.8,5.3c-0.2,12.3-0.1,24.7-0.1,37c0,1.6,1,4-2.2,3.9c-2.4-0.1-4.6,0.5-5.3-3.3
		c-3.6-18-12.1-32.9-29.5-40.8c-13.2-6-26.9-7.3-40.9-2.9c-9.5,3-15.4,9.6-17.1,19.6c-1.7,9.9,2.4,17.1,10.2,22.8
		c9.4,6.9,20.2,10.8,30.9,14.8c14.3,5.3,28.9,10.2,42.1,18.1c28.7,17.2,39.3,49.1,25.8,77.9c-9.4,19.9-26.5,29.3-47.1,33
		c-30.9,5.6-60.6-0.2-89.9-10.1c-3.3-1.1-4.2-2.8-4-6.2C682.4,334.4,682.2,327,682.2,319.7z"/>
	<path class="st1" d="M530.6,414.6c7,3.5,9.2,6.8,8.5,12.3c-0.6,5-5,9-11.6,10.1c-7.3,1.2-14.6,0.4-21.9,0.6
		c-2.1,0.1-2.4-1.1-2.4-2.8c0-12.7,0.1-25.3,0-38c0-2.1,0.5-3,2.8-2.9c6.7,0.2,13.3-0.2,20,0.3c7.5,0.6,11.6,5.1,11.3,11.4
		C537,409.3,535.6,411.2,530.6,414.6z"/>
	<path class="st1" d="M636.4,415.7c0,14.4-8.2,23.2-21.7,23.1c-13.3-0.2-21.3-8.8-21.3-23c0-14.4,8.2-23.1,21.7-23
		C628.5,392.9,636.4,401.3,636.4,415.7z"/>
	<path class="st0" d="M396.2,415.6c-0.1,16.4-10.6,25.2-26.2,22.4c-6.7-1.2-11.6-4.8-14.2-11.3c-2.9-7.3-2.9-14.7-0.1-21.9
		c3.2-8.2,10.4-12.2,20.5-11.8c9.2,0.3,15.9,5.1,18.6,13.3C395.9,409.5,396.4,412.8,396.2,415.6z"/>
	<path class="st1" d="M116.8,415.5c0,6.2-0.2,12.3,0.1,18.5c0.2,4.5-2.9,3-5,3.1c-2.1,0.1-4.9,1-4.6-3.1c0.3-4.1-0.1-8.3,0.1-12.5
		c0.1-2.7-0.8-3.5-3.4-3.3c-4.6,0.3-10.5-1.8-13.5,0.8c-2.8,2.5-0.7,8.5-0.8,12.9c-0.2,4.6-4.3,7.1-8.5,5.1c-1.2-0.6-1-1.6-1-2.5
		c0-12.5,0.1-25,0-37.4c0-4.7,3.4-2.5,5.3-2.8c2-0.3,4.7-0.8,4.2,2.9c-0.1,0.5-0.1,1,0,1.5c0.4,4.1-1.9,10.3,0.9,11.7
		c4,2,9.7,0.6,14.7,0.8c1.9,0.1,2.1-1.1,2.1-2.5c0-3.7,0.3-7.3-0.1-11c-0.4-4.3,2.4-3.5,4.8-3.4c2.2,0.1,5.2-1.2,5,3.2
		C116.6,403.5,116.8,409.5,116.8,415.5z"/>
	<path class="st1" d="M301.1,424.6c0,0.2,0,0.3,0,0.5c0,11.1,0,11.1-11.3,12.5c-2.1,0.3-4.3,0.4-6.5,0.4
		c-14.1-0.2-22.2-8.1-22.4-21.9c-0.3-20.8,17.9-25.9,31.4-20.7c2.2,0.8,4.2,2.1,5.6,4c1.7,2.3,4.3,4.8,2.1,7.8
		c-1.3,1.9-8-0.4-9.5-2.8c-2-3.2-5-4.3-8.5-4.2c-4.2,0.1-7.6,1.8-9.3,5.6c-2.8,6.4-3,13-0.1,19.4c2.6,5.6,12.1,8.4,17.4,5.2
		c3-1.8,1.2-4.8,1.3-7.3c0.1-2.3-2.1-1.6-3.4-1.6c-3,0.1-5.6,0.3-5.1-4.2c0.3-2.3,0.8-3.2,3.2-3.1c3.7,0.2,7.3,0.3,11,0
		c3.1-0.2,4.2,0.8,3.9,3.9C300.9,420.2,301.1,422.4,301.1,424.6z"/>
	<path class="st1" d="M170.7,409.7c0-3.7,0.3-7.4-0.1-11c-0.4-4,1.2-4.7,4.8-4.6c3.2,0.1,5.2,0.1,5,4.4c-0.3,8.1-0.2,16.3,0.2,24.5
		c0.3,5.8,3.1,8.1,8.6,8.1c6.2,0.1,9.2-2.5,9.4-9c0.3-8.2,0.3-16.3,0.1-24.5c-0.1-3.7,1.8-3.8,4.3-3.4c2.2,0.3,5.7-1.8,5.5,3.1
		c-0.2,8,0.1,16-0.1,24c-0.3,10.5-7.6,16.6-19.1,16.6c-11.5-0.1-18.5-6.2-18.8-16.8C170.7,417.4,170.8,413.5,170.7,409.7z"/>
	<path class="st1" d="M708.4,438.7c-9.3-0.8-14.8-4-16.7-10.4c-0.4-1.5-2.6-4.5,0.8-4.6c2.5-0.1,6.3-2.6,8,2.1
		c1.9,5.4,5.4,7.3,10.7,6.4c3.1-0.5,5.3-2.1,5.7-5.4c0.4-3.2-1.4-5-4.2-6c-3.9-1.4-7.9-2.5-11.9-3.8c-6.1-2.1-9.1-5.6-9-10.6
		c0-5.9,3.4-9.5,8.5-11.8c8.7-3.9,19.8-1,23.4,6.1c0.8,1.6,3.2,4.5,0.1,5.2c-2.3,0.5-6.4,2.7-8-1.8c-1.1-2.9-2.9-4.9-6-5.2
		c-3.7-0.3-7.4,0-8.4,4.3c-1,4.1,2.3,5.5,5.3,6.5c3.4,1.2,7,2,10.5,3.3c6.8,2.4,10.1,6.6,9.9,12.2c-0.2,5.7-4.2,10.4-10.8,12.2
		C713.7,438.2,711,438.4,708.4,438.7z"/>
	<path class="st1" d="M800.9,438.5c-9-0.2-15.6-3.8-17.4-9.9c-0.5-1.5-2.3-4.7,0.7-4.8c2.5-0.2,6.6-2.9,8.1,2.3
		c1.5,5.3,6.7,7.6,12,5.8c2.6-0.9,4.3-2.6,4.5-5.4c0.2-2.6-1.3-4.5-3.6-5.4c-4.1-1.5-8.2-2.6-12.3-4c-6.2-2.1-9.1-5.5-9.2-10.4
		c-0.2-5.2,3.1-9.8,8.8-12.2c8.6-3.6,19.4-0.9,23.1,6.1c0.9,1.6,3.2,4.6,0.4,5.3c-2.4,0.7-6.5,2.6-8.5-2c-2.1-4.8-7.1-6.5-11.5-4.2
		c-3.8,2-4.1,6.5-0.4,8.7c2.3,1.3,4.9,1.9,7.4,2.8c0.8,0.3,1.6,0.5,2.4,0.7c9.9,2.8,14.4,7.8,13.4,14.6
		C817.6,433.8,810.3,438.7,800.9,438.5z"/>
	<path class="st2" d="M196.1,251.8c-0.6,0.2-1.8,0.1-1.6-0.3c0.6-1.6,2.2-1.5,3.6-1.3C197.4,250.7,196.8,251.3,196.1,251.8z"/>
	<path d="M132.3,302.5c0-14,0.1-28-0.1-42c-0.1-3.4,1-4.2,4.2-4.1c7.8,0.3,15.7,0.1,23.5,0.3c31.9,0.8,46.1,28.1,42.4,52.9
		c-3.6,24.1-21.7,39.3-45.9,39.3c-6.7,0-13.3-0.2-20,0.1c-3.3,0.1-4.3-0.7-4.2-4.1C132.4,330.8,132.3,316.7,132.3,302.5z"/>
	<path d="M132.3,210.4c0-11.5,0.1-23-0.1-34.4c0-3.1,0.4-4.5,4-4.3c9.4,0.6,19-1,28.3,1.2c19.2,4.5,30.5,21.5,28.4,42.1
		c-2,19-17.4,33.5-36.3,34c-6.6,0.2-13.3-0.2-20,0.1c-3.4,0.1-4.5-0.8-4.5-4.3C132.5,233.4,132.3,221.9,132.3,210.4z"/>
	<path d="M323.3,260.4c0.4-20.3,3.2-40.4,11.5-59.5c3.1-7.1,7-13.6,12.2-19.3c16.9-18.6,42.4-18.4,59.1,0.4
		c9.3,10.4,14.8,22.9,18.3,36.2c9.2,35,8.4,69.5-5.2,103.3c-2.7,6.7-6.5,12.7-11.3,18.1c-18.2,20.3-47.6,19.2-64.2-2.4
		c-11.4-14.9-15.8-32.4-18.5-50.5C323.9,278.1,323.4,269.4,323.3,260.4z"/>
	<path class="st3" d="M512.8,424.3c-0.3-3.4-0.8-6.7,5.2-6.2c7.9,0.6,11,1.9,10.8,6.5c-0.2,4.5-3.3,5.7-11.1,6.4
		C511.6,431.5,512.6,428.1,512.8,424.3z"/>
	<path class="st4" d="M517.4,400.7c7.4,0,10,1.8,9.9,5.7c-0.2,3.9-3.2,5-10,5.6c-6.4,0.5-4-3.8-4.5-6.7
		C511.7,399.7,515.5,400.6,517.4,400.7z"/>
	<path d="M626.2,415.3c-0.1,4.1-0.2,7.4-1.6,10.5c-2,4.2-5.4,6.1-10,6c-4.4-0.1-7.8-2-9.4-6.2c-2.5-6.6-2.4-13.4,0-20
		c1.6-4.2,5.1-6,9.5-6c4.3,0,7.7,1.6,9.7,5.7C626.1,408.7,626.2,412.4,626.2,415.3z"/>
	<path class="st5" d="M386.1,415.5c0,3-0.2,6-1.2,8.9c-1.6,4.7-5.4,7.6-10.1,7.4c-4.8-0.2-8.3-2.6-9.7-7.2c-1.8-5.8-1.8-11.8,0-17.7
		c1.5-4.6,4.8-7,9.7-7c4.9,0,8.2,2.2,9.9,6.8C385.8,409.5,386.1,412.5,386.1,415.5z"/>
</g>
</svg>
