<?xml version="1.0" encoding="utf-8"?>
<!-- Generator: Adobe Illustrator 21.1.0, SVG Export Plug-In . SVG Version: 6.00 Build 0)  -->
<svg version="1.1" id="Layer_1" xmlns="http://www.w3.org/2000/svg" xmlns:xlink="http://www.w3.org/1999/xlink" x="0px" y="0px"
	 viewBox="0 0 700 965" style="enable-background:new 0 0 700 965;" xml:space="preserve">
<style type="text/css">
	.st0{fill:#FEFEFE;}
	.st1{fill:#FDFCFD;}
	.st2{fill:#6E1C75;}
	.st3{fill:#6D1B75;}
	.st4{fill:#6E1C76;}
	.st5{fill:#73257B;}
	.st6{fill:#B5B4DC;}
	.st7{fill:#BCBBE0;}
	.st8{fill:#BBBAE1;}
	.st9{fill:#E7E5E7;}
	.st10{fill:#C0C0E3;}
	.st11{fill:#ACABD2;}
	.st12{fill:#6F1E77;}
	.st13{fill:#B9B8E0;}
	.st14{fill:#BDBCE2;}
	.st15{fill:#BCBCE1;}
	.st16{fill:#FDFDFD;}
	.st17{fill:#FBFBFC;}
	.st18{fill:#FCFCFC;}
	.st19{fill:#F9F9FA;}
</style>
<path class="st0" d="M352.3,692c-113.9,0-227.9-0.1-341.8,0.2c-7,0-8.4-1.4-8.4-8.4c0.3-132.2,0.3-264.4,0-396.7
	c0-7,1.4-8.4,8.4-8.4c227.9,0.2,455.8,0.2,683.7,0c7,0,8.4,1.4,8.4,8.4c-0.3,132.2-0.3,264.4,0,396.7c0,7-1.4,8.4-8.4,8.4
	C580.2,691.9,466.3,692,352.3,692z"/>
<path class="st1" d="M585.6,533.3c2.8,4.1,1.4,9.2,2.8,13.5c3,9-2,9.3-8.7,10.1c-16.1,1.9-32-1.5-48-0.3
	c-0.2-10.1-2.6-20.6,6.5-29.4c-4,0.1-7.5-0.3-10.9-0.8c-2.3-0.8-4.5-1.6-6.8-2.4c-4.1,10.1-3.8,20.2-0.1,30.4
	c-5.7,1.7-8.4,8.1-14.5,9.1c-0.4-13-1.4-26,0.7-38.9c4.5-7.9,1.1-11.7-6.7-14.1c-4.8-1.4-9.4-3.2-15.4-1.1c3.3,4.5,7.5,2.9,11.2,2.9
	c6,0,11.9,0.3,11.7,8.7c-1.6,6-5.4,6.2-10.8,5c-9.5-2-15.2,2-16.5,10.8c-1.1,7.5,5.2,13.6,14.5,14.2c3.6,0.2,9.8-3.3,9.4,4.1
	c-0.3,5.9-5.3,7.4-10.7,8.6c-4.5,1-8.5-5.2-12.7-0.2c-31.8-0.8-63.7-4.7-95.5,0c0.7-12,7.2-21.9,12.1-32.7c-0.9,1.2-1.1,2.3-1.8,3.2
	c-3.3,4.3-3.2,13.4-10,12.4c-5.7-0.8-6.6-8.8-8.7-14.1c-1.1-2.8-2.8-5.7-1.5-8.9c0.7-2.6,10.4,2.2,4.7-6.7c-2.8-4.4,5.4-5.9,8.7-8.8
	c-12.8,1.6-13.1,1.9-12.2,13.7c-5.3,8.9,2,15.2,5.3,21.8c6.7,13.5,6,16.2-8.3,20c-10-4.9-19.8-10.9-31.1-2.7
	c-1.6,1.1-4.5,0.4-6.9,0.4c-31,0.3-61.9-1.2-92.9,1.5c-6.4,0.5-12.4-6-18.1-10.1c-0.9-0.6-1.2-2-1.9-2.9
	c-4.6-6.2-11.7-10.8-17.7-5.4c-5.9,5.5,1.5,10.7,5.7,16.2c-11.5-5.3-23.2,3.9-34.5-2.1c-0.7-0.4-1.7-1.1-2.1-0.9
	c-20.5,10.4-19-18.3-33.7-19.2c-3.1-0.2,0.5-3.8,2.9-5c11.6-5.5,20,1.6,28.3,7.8c2.5,1.8,4.1,4.5,8.7,3.2c-0.1-3.5-6.6-6.6-1.5-11.2
	c3.9-3.5,7.7-3.1,12.3-3.9c14.8-2.3,29.8,6.2,44.1-1.5c2.9-1.6,5.1,0.1,7.7,0.9c5,1.7,18.1-5.1,19.7-10.1
	c1.4-4.4-7.8-12.3-14.9-13.3c-6.3-0.9-13.2,2.8-18.8-2.7c3.5-3.3,8-2.7,12.2-2.7c10.3,0,20.2-1.2,29.2-6.7c7.2-4.4,10-0.9,10.3,6.1
	c0.5,13.3-4.5,24.2-15.1,32.5c-3.7,2.9-8,4.8-11.4,8.4c8.7,0.1,16.1-3.8,22.4-9.7c9.7-9.1,15.9-20.3,16.6-33.7
	c0.8-14.7,0.3-29.5,0.2-44.3c0-3.9-0.1-8.3-5.4-8.8c-5.2-0.5-6.3,3.2-7.1,7.3c-0.6,3.3-0.3,7.3-5.1,8.1c0.6-9.3-3.6-11.7-12-8.7
	c-4.7,1.7-10,2.3-10.9-4.1c-0.8-5.9,3.8-7.1,9.1-9.2c12.8-5.1,24.8,0.8,37.1,0.4c4.8,6.6,4.1,14.8,6,22.2
	c6.8,27.2,25.3,41.1,53.5,39.8c23.3-1.1,41.4-19,45.2-44.2c1-6.8,0.5-11.9-7.9-12c-20.9-0.3-41.8-0.3-62.7,0.8
	c12.9,2.9,26,1.5,39.1,1.8c17.5,0.4,20.8,4.7,15.9,21.3c-2.7,9.2-7.6,17-15.5,22.7c-14.5,10.4-30.8,8.8-42.9-4.4
	c-6.8-7.4-11.6-16.1-12.3-25.9c-1.4-19.7-1.6-39.5-0.1-59.3c6.7,3.4,16.5,22.8,13.7,29.4c-3.4,7.9,1.1,7.8,6.3,7.8
	c19.4,0,38.9,0,58.3,0c4,0,8.1,0.3,8.2-5.5c0.1-5.7-2.6-6.7-7.4-4.8c-2.7,1-4.7-0.4-5.8-2.5c-3-6-5-5.2-8.5,0.1
	c-6.2,9.2-15.2-1.7-22.7,2c-1.4,0.7-4.3-0.5-6.6,0.2c-14.5,4.2-19,0.1-16.1-14.5c0.7-3.7,3.3-5.1,6.8-5.1c4.7,0,10.3-1.5,13.8,0.6
	c12.2,7.3,24.3,2.6,36.6,1.8c7.8-0.5,9.8-10.6,18-9.1c3.4,4.8,2.6,10.4,2.6,15.7c0.1,20.9,0,41.8,0.1,62.6c0,3.5-0.1,7,0.9,10.4
	c0.7,2.5,2.2,4,4.9,4c2.7,0,4.2-1.6,4.8-4.1c0.9-3.4,0.8-6.9,0.8-10.4c0-20.9-0.1-41.8,0.1-62.6c0-5.3-0.7-10.9,2.8-15.7
	c5.9,4,2,10,3.1,15c0.5,2.3,0.4,4.8,3.5,5.2c2.2,0.3,4.7-1.1,4.6-2.7c-0.7-7.8,5.4-5.7,9.3-6.8c9.7-2.9,19.8-0.1,29.6-1.6
	c2.3-0.3,5.2,0.7,5,3.5c-0.2,2.7-3,3.2-5.4,3.3c-5.4,0.1-9.1,0.5-13.3,6.2c-5.9,8-3.3-5.1-8.5-4c-1.7,8.7-8.1,12.5-17.7,11.9
	c-2.6-0.2-6.3-0.6-6.3,3.3c0,4.7,4.3,3.6,7.1,3.6c22.2,0.1,44.3,0.3,66.5,0c11.6-0.2,23.1,1.1,34.8-1.4c8.9-1.9,10.6,8.1,12.4,12.8
	c1.5,4-6,7.6-11.9,7.4c-2.7-12.8-11.7-13.6-22.7-13.3c-22.9,0.6-45.8,0.1-68.7,0.2c-11.5,0.1-13.5,2.5-12.3,13.9
	c2,18.6,19,37.2,37.8,41.5c22.2,5,43-3.5,54.5-22.2c2.5-4,2.7-10.1,9.1-10.9c6.4,6.6,11.8,5.6,17.3-1.5c4.7-6,10.8-10.9,13-18.9
	c1.9-6.6,8.8-8.3,14.2-11.1c12.5-6.4,26-3.2,38.9-2.8c5.1,0.2,9.8,5.2,9.6,11.5c-0.2,6.6-5.4,6.5-10.2,6.5c-4.1,0-7.7-1-5,6
	c1.6,4.2-4.1,3.4-6.6,3.2c-9.9-0.8-12.4,5.1-15.7,13.2c-4.4,10.9-6.8,23.1-16.9,31.3c-5.1,4.1-9.7,8.3,2.4,9.9
	c8.9,1.1,10.5,7.7,5.7,15.8c-9.2-4.1-18.4-6.2-28.1-1.7c-2-1.3-3.1-3.2-4-5.2c-0.2-0.3-0.4-0.6-0.4-1c-0.2-0.9-1.4-1.4-1.4-1.2
	c-1,8.2-0.7,16.5-0.3,24.8c0.2,5.4,4.8,1.3,7,2.6c5,4.4,11.1,4.8,17.3,4.2c2.7-0.3,5.6-0.3,6-3.9c0.3-3.2-1.2-5.1-4.2-6
	c-2.9-0.9-5.9-1.9-8.8-2.8c-4.7-1.6-7.1-4.9-5.5-9.7c1.7-5.3,6.4-4.8,10.6-4.2C579.3,525.3,581.9,530.2,585.6,533.3z"/>
<path class="st2" d="M317.1,400.4c4.1,8.9,1.5,18.3,2,27.5c0.7,12.4-1,24.9,2.4,37.1c5.6,19.9,20.3,31.4,36.7,28.6
	c15.1-2.5,29.3-22,29.3-39.2c0-6.4-3.9-5.6-7.6-5.6c-15.2,0-30.3,0.1-45.5,0c-3.9,0-9.6,1.8-9.4-5.1c0.1-6.1,5.4-4.4,8.9-4.4
	c21.4-0.1,42.7,0.2,64.1-0.2c7.1-0.1,9.4,2.3,9.5,9.4c0.4,27.7-20.1,51.9-47,54.9c-28.9,3.2-54.4-15.4-59.4-43.7
	c-1.3-7.2-1.6-14.6-2.3-21.9c0.2-8.4,1.2-16.8,0.5-25.1c-0.8-9.6,2.6-13.4,12.1-11.9C313.2,401,315.2,400.5,317.1,400.4z"/>
<path class="st3" d="M183.9,465.5c-12.6,28-31.5,40.5-57.3,38c-25.6-2.5-46.2-23.7-47.3-49.4c-0.6-15.1,0.1-30.3-0.4-45.4
	c-0.3-7.1,2.8-8.3,8.9-8.2c6.1,0.1,10.4,0.3,10.1,8.4c-0.5,13.6-0.3,27.2,0.1,40.7c0.4,12.6,2.9,24.7,12.3,34.2
	c14.1,14.4,34.4,13,46.1-3.3c1.4-1.9,2.5-3.9,3.5-6c11-21.9,8.6-25.9-15.3-25.9c-11.3,0-22.5-0.2-33.8,0.2c-6.3,0.3-8.4-2.5-8-8.2
	c1.9-2.9,4.9-1.8,7.4-1.8c21.7-0.1,43.4-0.1,65.2,0c10.3,0,13.5,3.4,11.4,13.3C186,456.6,186.7,461.5,183.9,465.5z"/>
<path class="st3" d="M275.6,459.2c0.7-3.4,2.1-6.8,1.9-10.1c-0.4-7.4,2-10.1,9.9-10.1c8.3,0,9.5,3.7,9.3,10.6
	c-0.4,15.5,0.3,31.1-0.5,46.6c-1.2,23.8-19.6,45.3-41.2,48.8c-3.3,0.5-8.3,3.5-9.7-2.4c-1.2-4.8,3.8-5,6.8-6.3
	c19.4-8.5,26.6-20.4,25.2-44.4c-14.7,12.8-31.5,12.4-48.5,10.8c-22.1-7.8-35.3-23.3-39.6-46.3c-3.3-5.4-3.9-10.7,0.4-15.9
	c17.5-3,17.6-3,19.8,14.1c0.9,6.6,2,13,4.9,19c5.9,12.3,14.8,20.9,29.5,20.7c14.6-0.2,23.2-9.2,28.9-21.6
	C274.5,468.4,276.4,464,275.6,459.2z"/>
<path class="st4" d="M539,465.6c-15.8,32.7-38.3,44.6-67.5,35.9c-23-6.9-39.8-31.4-38.4-55.3c0.3-5.8,2.7-7.1,7.8-7.1
	c30.7,0.1,61.4-0.1,92-0.1c14.3,0,5.3,11.7,8.3,17.3C539.7,459.2,538.8,462.3,539,465.6z"/>
<path class="st5" d="M428.6,400.7c2.2,30.6,0.4,61.2,1,91.8c0.1,7.5-5.5,5.9-9.9,6.2c-5.2,0.3-8.9-0.2-8.8-7.2
	c0.5-30.2,0.5-60.5,0.7-90.7C417.3,400.7,422.9,400.7,428.6,400.7z"/>
<path class="st6" d="M480.7,563.7c-0.8-2.4-3.6-5.2-1.2-7.4c3.1-2.7,4.1,1.7,6.2,2.8c7.4,4,13.7,4.1,17.2-6.1
	c-3.9,0.4-7.2,1.1-10.5,1c-6.6-0.3-11.7-3.2-14.5-9.6c-3-7-0.6-12.9,3.8-18c4.2-4.9,9.7-6.3,15.6-3.1c3.6,2,6.4,1.7,9-1.4
	c0.7-0.9,1.3-0.9,1.8,0.2c0.2,13.9,2.7,27.9-2.3,41.4C497.5,565.3,489.1,568.3,480.7,563.7z"/>
<path class="st7" d="M557.8,526.6c9.9-7.3,19.2-6.8,28,2.1c0,1.5-0.1,3.1-0.1,4.6c-5.7,1-6.9-5.9-11.6-6.5c-3.3-0.4-7.5-1.7-8.9,2.8
	c-1.6,4.8,2.1,5.7,5.8,6.4c2.6,0.5,5.2,1.5,7.8,1.9c5.1,0.9,7.1,4,6.9,9c-0.3,5.3-3.4,7.8-8.3,7.5c-7.1-0.4-16,3.6-19.7-6.9
	c-1.3-1.4-1.4-3-0.7-4.6c6.8-5,9.4,6,16.6,3.5c-3-3-7-2.8-9.8-4.4C557.6,538.5,552.5,534.5,557.8,526.6z"/>
<path class="st8" d="M373.4,563.6c11.8-5.1,12.1-12.2,4.6-21.8c-3.2-4.1-4.6-9.6-6.5-14.6c-1.2-3.3,0.3-5.1,3.9-5.1
	c0.7,0.3,0.9,0.6,0.9,1.1c-0.1,0.5-0.2,0.8-0.4,0.8c3,7.1,6.1,14.2,9.6,22.4c6.6-7.4,7.6-17.3,15.1-23c-2.5,14.5-10,27-15.4,40.3
	C381.3,565.8,377.3,566.6,373.4,563.6z"/>
<path class="st9" d="M189.6,440.3c-0.1,5.3-0.3,10.6-0.4,15.9c-3.8,1.9-0.8,7.7-5.2,9.3c2.7-26.1,2.7-26.4-23.3-26
	c-19.2,0.3-38.5-1.7-57.7,1.2c1.1-3.3,3.9-3.3,6.6-3.3c23.4,0,46.9,0,70.3-0.1C183.4,437.4,186.5,438.8,189.6,440.3z"/>
<path class="st10" d="M527.3,526.3c4.9-6.5,12.3,1.1,19.1-6.3c-2.4,9.8-11.8,10-12.1,17.5c-0.3,6.3,1.7,13.1-2.5,18.9
	c-7.2-4.5-3.5-11.6-4.2-17.7C527,534.7,527.4,530.5,527.3,526.3z"/>
<path class="st11" d="M520.3,554.3c-6.8-5.7-6.7-24.9,0.1-30.4C520.4,534.1,520.4,544.2,520.3,554.3z"/>
<path class="st12" d="M553.1,486.9c10.8-5,14.7-15.5,19.6-25c12.1-23,26.2-29.6,50.7-23.6c2.7,0.7,4.1,1.5,4.1,4.4
	c0,2.7-1.1,4.9-3.9,4.4c-25.7-4.1-32.5,15.3-41.4,32.7c-10.2,20.1-32.3,28.5-54.6,22c-2.6-0.8-4.1-1.9-4.1-4.6c0-4.1,3.1-3.8,5.7-4
	c8.5-0.4,17.1-0.1,24-6.5L553.1,486.9z"/>
<path class="st13" d="M308.3,514.7c-0.4,5.3-1.8,10,7.3,7.5c8.9-2.4,15.6,2.6,19.1,11.6c4.7-9.7,12.2-14,22.6-11.5
	c8.1,2,12.6,8.2,12.9,16.1c0.3,6.8-3.5,13.9-10.1,15.4c-9.2,2-20,4-24.8-11.2c-5.7,15.8-17.4,11.6-27.7,11.6c-2.8,0-4.7-1.5-4.5-4.2
	c1-13.3-3.3-26.9,2.4-39.9C307.8,510.8,309.1,512.1,308.3,514.7z"/>
<path class="st0" d="M413,521.3c4.5-5.9-9.4-10-1.6-16.2c5.6-4.5,11.1,1.3,16.8,0.2c2.6-0.5,5.4-0.4,8-1.2
	c14.7-4.8,15.5-4.7,29.8,5.8c-4.2,4.3-9.5,1.8-14.1,2.3c-5.7,0.6-12.6-2.3-13.9,7.5c-0.8,5.5-7.9,0.6-10.8,4.2
	C422,524.9,417.2,524.9,413,521.3z"/>
<path class="st14" d="M472.6,553.5c-7.9-2.8-14,1.6-20.4,1.1c-4.4-0.3-8.8-0.8-10.7-5.4c-1.7-4.3-0.6-8.6,3.3-11.3
	c3.5-2.4,4.1-4.3,1.7-8.2c-2.5-4.2-0.3-8.3,3.7-11c3.7-2.5,7.3-2.1,10.5,0.9c3.6,3.3,4.2,6.9,2,11.4c-2.9,5.8-2.5,5.6,3.5,8.1
	C472.4,541.6,465.4,550.2,472.6,553.5z"/>
<path class="st15" d="M413,521.3c4.8,0.1,9.7,0.1,14.1,2.6c0.9,2.8,4.9,4.2,3.5,8.5c-5.7,1.3-7-6.9-12.6-6.1
	c-3.1,0.4-6.5-0.1-7.7,3.7c-1.4,4.6,2.2,4.9,5.3,5.6c1.5,0.3,3,0.8,4.5,1.1c6.2,1.3,13.1,2.1,11.6,11c-1.3,7.6-8.3,8.4-13.5,8
	c-6.5-0.5-15.4-0.9-13.6-13.2c5.7,3.9,9.3,11.4,17.2,7.4c2.1-1.1,4.4-2.1,4.1-4.9c-0.2-2.6-2.7-2.1-4.5-2.6
	c-1.9-0.5-3.7-1.5-5.5-1.7c-5.8-0.7-10.9-2.5-11.9-9C402.9,525.2,409,524.1,413,521.3z"/>
<path class="st0" d="M308.3,514.7c-0.9-1.5-1.8-3.1-2.7-4.6c9.6-12,18.3-12.3,27.8-1c1.3,1.5,2.4,3.1,1.2,5
	c-1.4,2.2-3.6,3.3-5.9,2.3C322.1,513.7,315.2,515,308.3,514.7z"/>
<path class="st0" d="M508.2,522c-0.6,0-1.2-0.1-1.8-0.2c-0.8-8-6.4-7.8-12-6.6c-3.4,0.7-6.6,2.7-9.7-0.3c-2.1-2-6.4-2.7-5.6-6.5
	c0.8-4.2,4.9-2.5,7.7-3.1c8.6-1.8,15.8,2.9,22.9,5.9C516.3,514.1,511.2,518.7,508.2,522z"/>
<path class="st10" d="M557.7,542.9c0,1.5-0.1,3.1-0.1,4.6c-3.4,0.8-2.9,7.5-7.4,5.6c-3.4-1.4-1.7-5.5-1.8-8.4
	c-0.2-8.9-0.2-17.8,0-26.6c0-2.5-1.1-6.4,2.5-6.7c4-0.3,4.1,3.7,4.3,6.8c0.1,1.2,0.1,2.3,0.2,3.5
	C557.1,528.6,556.8,535.8,557.7,542.9z"/>
<path class="st0" d="M375.9,524c-0.3-0.6-0.4-1.2-0.5-1.9c0-2-0.4-3.8-2.2-5c-6-4-4.1-6.2,1.6-8c3.3-1.1,6.4-2.9,9.4-4.5
	c4.2-2.3,8.4-1.6,9.9,2.5c1.9,5.3-3.7,4.4-6.5,5.2c-2.6,0.8-5.9,0.8-6.1,4.1c-0.3,3.3,3.2,2.6,5.1,3.3c3.4,1.3,2.1,3.5,1,5.6
	c-1.4,2.7-3.2,3.2-5.3,0.7C380.6,523.9,378.2,524.1,375.9,524z"/>
<path class="st0" d="M553.3,486.8c-6.4,0-12.8,0-21.7,0c7.2-7.8,11.2-17,21.3-13.4c7.7,2.8,0.6,8.9,0.2,13.5
	C553.1,486.9,553.3,486.8,553.3,486.8z"/>
<path class="st0" d="M557.7,542.9c-4.9-6.6-1.6-14.2-2.4-21.3c2,1,2.3,3,2.5,4.9c-1.8,11.4,6.3,13.2,14.5,15.4c2.6,0.7,8.7-1,7,4.6
	c-1.3,4.3-5.9,4.9-10.7,3.9C563.6,549.5,563.2,542.7,557.7,542.9z"/>
<path class="st0" d="M527.9,517c-3.2-0.4-7.4,1.3-10-3c-1.2-2-2.8-4.3-1.4-6.4c1.9-2.9,4-0.6,5.8,0.7c3.5,2.5,7.5,1.4,11.2,1.8
	c2.4,0.3,6.4-1.2,6.5,2.7c0.1,4-3.9,4-7,4.2C531.5,517,529.9,517,527.9,517z"/>
<path class="st0" d="M279.2,555.8c-2.3-1-3.7-2.7-3.4-5.3c0.2-1.9,1.6-2.6,3.3-2c2,0.7,3,2.5,3,4.5
	C282,554.7,281.1,555.8,279.2,555.8z"/>
<path class="st16" d="M521.5,454.6c-1.7,12.9-5.9,24-15.1,32.5c-12.2,11.3-27.5,10.9-39.4-0.8c-2.7-2.7-5.1-5.8-7-9.1
	c-13.3-22.9-10.1-28.6,15.5-28.6c12.8,0,25.6,0.1,38.3,0C518.4,448.5,522.7,448.6,521.5,454.6z"/>
<path class="st17" d="M482.9,539.6c-0.3-7,1.5-12.5,8.7-13c7.7-0.6,11.3,5.3,11.2,11.7c-0.1,4.9-2,11.4-9.2,10.8
	C487.9,548.7,481.6,547.5,482.9,539.6z"/>
<path class="st18" d="M364.1,538.3c0.3,8.3-5,12.5-12,12.5c-6.4,0-11.5-4.2-11.6-11.8c-0.1-8.2,5-12.1,12.2-12.2
	C359.6,526.6,364.2,530.6,364.1,538.3z"/>
<path class="st18" d="M329.2,540.7c0.4,5-2.1,9.4-9.9,9.2c-7.2-0.2-11.7-2.7-11.5-11.1c0.2-7.3,2.6-12.3,10.5-12.3
	C326.3,526.5,329.1,531.6,329.2,540.7z"/>
<path class="st19" d="M451.9,538.5c3.4,2.2,7.3,4,7.3,8.3c0,3.3-3.4,4.2-6,3.8c-3-0.5-7.7,0-7.2-5.4
	C446.4,541.7,449.2,540.2,451.9,538.5z"/>
</svg>
