<?xml version="1.0" encoding="utf-8"?>
<!-- Generator: Adobe Illustrator 21.1.0, SVG Export Plug-In . SVG Version: 6.00 Build 0)  -->
<svg version="1.1" id="Layer_1" xmlns="http://www.w3.org/2000/svg" xmlns:xlink="http://www.w3.org/1999/xlink" x="0px" y="0px"
	 viewBox="0 0 700 965" style="enable-background:new 0 0 700 965;" xml:space="preserve">
<style type="text/css">
	.st0{fill:#FDFDFD;}
	.st1{fill:#010101;}
	.st2{fill:#020202;}
	.st3{fill:#FEFEFE;}
	.st4{fill:#F8F8F8;}
	.st5{fill:#FAFAFA;}
</style>
<path class="st0" d="M350,842.5c-115.2,0-230.4,0-345.5,0.1c-3.6,0-4.5-0.8-4.5-4.6c0.1-237,0.1-474,0-711c0-3.7,0.8-4.6,4.5-4.6
	c230.4,0.1,460.7,0.1,691.1,0c3.6,0,4.5,0.8,4.5,4.6c-0.1,237-0.1,474,0,711c0,3.7-0.8,4.6-4.5,4.6
	C580.4,842.5,465.2,842.5,350,842.5z"/>
<path d="M283.1,416.5c0-24.7,0.1-49.3-0.1-74c0-3.5,0.8-4.5,4.3-4.4c18.2,0.2,36.3,0.2,54.5,0c3.6,0,4.4,1.1,4.3,4.5
	c-0.1,10.3,0,10.3-10.3,10.3c-11.5,0-23,0.1-34.5-0.1c-3,0-4.3,0.3-4.3,3.9c0.2,39.8,0.1,79.6,0,119.5c0,3.6,1.3,4,4.3,3.9
	c13.7-0.1,27.3,0,41-0.1c3.1,0,3.8,0.9,3.9,3.9c0,10.9,0.1,10.9-10.8,10.9c-16,0-32-0.1-48,0.1c-3.5,0-4.4-0.9-4.4-4.4
	C283.2,465.8,283.1,441.2,283.1,416.5z"/>
<path d="M423.9,417c0,24.5-0.1,49,0.1,73.5c0,3.5-0.8,4.5-4.4,4.4c-18.2-0.2-36.3-0.2-54.5,0c-3.6,0-4.3-1.1-4.3-4.5
	c0.1-10.3,0-10.3,10.4-10.3c11.5,0,23-0.1,34.5,0.1c3,0,4.3-0.4,4.3-4c-0.1-39.8-0.1-79.6,0-119.4c0-3.6-1.3-4-4.3-3.9
	c-13.5,0.1-27-0.1-40.5,0.1c-3.6,0.1-4.4-1-4.3-4.4c0.2-10.4,0-10.4,10.3-10.4c16.2,0,32.3,0.1,48.5-0.1c3.6,0,4.4,1,4.3,4.5
	C423.8,367.4,423.9,392.2,423.9,417z"/>
<path d="M305.9,416.9c0-16.7,0.2-33.3-0.1-50c-0.1-4.1,1.2-4.9,5-4.8c10.5,0.2,21,0.2,31.5,0c3.1-0.1,3.9,0.9,3.9,3.9
	c-0.1,16.5-0.1,33,0,49.5c0,2.7-0.5,3.8-3.5,3.7c-5.7-0.2-11.3,0.2-17-0.2c-3.6-0.2-4.8,0.6-4.7,4.5c0.3,14.8,0,29.6,0.2,44.5
	c0,3.3-0.4,4.6-4.2,4.5c-11-0.2-11,0-11-11.2C305.9,446.5,305.9,431.7,305.9,416.9z"/>
<path d="M401.1,417.5c0,16.8-0.1,33.6,0.1,50.5c0,3.2-0.4,4.6-4.2,4.6c-11-0.2-11,0-11-11.2c0-12.8-0.1-25.6,0.1-38.5
	c0-3.1-0.7-4-3.9-3.9c-6,0.3-12,0-18,0.1c-2.6,0.1-3.4-0.6-3.4-3.3c0.1-16.8,0.1-33.6,0-50.5c0-2.8,1-3.3,3.5-3.2
	c11,0.1,22,0.2,33,0c3.2-0.1,3.8,1,3.8,4C401,383.2,401.1,400.4,401.1,417.5z"/>
<path class="st1" d="M151.7,626.2c-3.5,0-6.9-0.1-10.4,0c-2.2,0.1-2.8-1.2-3.5-2.8c-3.4-7.2-6.8-14.3-10.3-21.5
	c-0.6-1.2-0.8-3.3-2.9-2.7c-1.7,0.5-0.8,2.3-0.9,3.5c-0.1,4.7,0,9.3-0.1,14c-0.1,4-0.1,7.8,5.2,9c-6.8,0-13.5,0-20.3,0
	c7.1-1.7,5.3-7.5,5.4-12.3c0.1-12.6,0-25.3,0.1-37.9c0-4.1-0.5-7.5-5.7-7.5c0.2-0.7,0.3-1.2,0.4-1.2c9.1-0.7,18.2-1,27.3,0.5
	c6.2,1.1,8.6,5.8,9.5,11.4c1.1,6.7,0.8,13.3-5.4,17.5c-2.8,1.9-2.8,3-1.4,5.6c2.7,5.1,5.1,10.4,7.6,15.6
	C147.7,620.5,148.9,623.5,151.7,626.2z"/>
<path d="M247.7,595.8c-0.2,8.7-1.8,16.4-6.6,23.2c-8.7,12.4-26.6,11.8-34.1-1.4c-7-12.3-7.6-25.4-2-38.4c3.5-8.2,9.6-13.5,19.1-13.5
	c9.6,0,15.9,4.9,19.9,13.2C246.8,584.4,247.5,590.3,247.7,595.8z"/>
<path class="st1" d="M566.5,607.5c-0.6,5.5-1.1,11.1-1.6,16.6c-0.1,1.4-0.6,2.1-2.1,2.1c-11.9,0-23.7,0-36.1-0.7
	c6.7-0.3,6.4-4.8,6.4-9c0-13.2,0-26.3,0-39.5c0-4.6,0.4-9.2-7.8-9.2c3.9-2,6.2-1.4,8.5-1.4c8.7-0.1,17.3,0.1,26-0.1
	c2.9-0.1,3.8,0.8,3.6,3.7c-0.2,4.6-0.1,9.2-1,14c-0.4-1.8-0.9-3.5-1.3-5.3c-0.7-2.8-2-5.3-4.5-6.9c-3.6-2.4-8-2.6-11.5-1.4
	c-2.8,0.9-0.9,5-1.1,7.7c-0.3,4.1-0.1,8.3,0,12.5c0,1.2-0.9,2.9,0.9,3.5c1.6,0.5,3-0.4,4-1.5c2.5-2.5,3.2-5.7,3.6-9.1
	c0.2-1,0.5-2.1,1.5-2.9c0,10.2,0,20.4,0,31c-1.8-1.6-1.4-3.5-1.7-5.1c-0.4-2.3-1-4.6-2.7-6.3c-1.3-1.4-2.9-2.6-4.8-2
	c-1.8,0.7-0.8,2.6-0.8,4c-0.1,5.3,0.1,10.7,0,16c0,3.4,1.6,4.7,4.9,4.9c6.3,0.4,11-2.1,13.9-7.7c1.2-2.5,2-5.2,3-7.8
	C565.9,607.4,566.2,607.5,566.5,607.5z"/>
<path class="st1" d="M392.8,565.6c0,6.7,0,13.4,0,20.2c-2-0.1-1.5-1.6-1.8-2.6c-1.3-4-2.9-7.8-5.9-10.9c-5.6-5.8-13.4-4.6-16.8,2.6
	c-1.3,2.7-2,5.6-2.6,8.6c-1.9,9.9-1.8,19.9,0.5,29.7c1.9,7.9,6.5,11.7,12.6,10.9c3-0.4,4.9-1.6,4.5-5.1c-0.3-2.8-0.1-5.7-0.1-8.5
	c0-3.8-0.1-7.5-5-8.9c6.4,0,12.8,0,20.1,0c-8.2,4-4.9,10.9-5.1,16.6c-0.2,3.5-1.2,5.3-4.3,6.8c-14.4,6.7-27.8,1.4-32.8-13.7
	c-4-12-3.4-24,2.9-35.2c6.1-10.8,15.6-13.7,26.6-8C389.5,570,390.9,568.6,392.8,565.6z"/>
<path class="st1" d="M281,567.2c9.1-0.4,17.7-1.7,26.2,0.1c7.5,1.6,11.2,7.8,10.6,16.9c-0.5,8.7-5,13.6-13.3,14.7
	c-7.2,0.9-7.2,0.9-7.2,8.3c0,3,0,6,0,9c-0.1,4.3,0.3,8.4,5.8,9.6c-7.2,0-14.4,0-21.6,0c5.9-1.3,5.8-5.7,5.7-10.4
	c-0.1-13-0.1-25.9,0-38.9C287.3,572.2,287.6,567.7,281,567.2z"/>
<path class="st1" d="M400.2,566.4c4.4,0,8.8,0.1,13.3,0c2.4,0,2.9,1.9,3.7,3.4c5.7,9.9,11.4,19.8,17.2,29.7c0.4,0.8,0.5,2,1.9,2.2
	c0-9.2-0.1-18.2,0-27.3c0.1-4.3-2.9-5.8-6-7.7c4.8,0,9.6,0,14.4,0c-6.5,2.3-5.7,7.7-5.7,12.6c0,15.9,0,31.9-1.1,48.3
	c-9.4-15.9-18.8-31.9-28.3-47.8c-0.3,0-0.6,0.1-0.9,0.1c0,5.7,0,11.3,0,17c0,6.2,0,12.3,0,18.5c0,4.6,0.4,8.8,6.1,10.3
	c-4.9,0-9.7,0-14.6,0c5.8-2,6-6.6,5.9-11.6c-0.1-11.5-0.2-23,0-34.5c0.1-5.4-0.7-9.9-6.7-12C399.7,567.3,400,566.8,400.2,566.4z"/>
<path class="st1" d="M57.4,613.1c-0.2,7.8-7.3,14.2-15.9,14.6c-7.6,0.3-14-2.4-18.4-8.9c-8.9-13-8.1-33.2,1.8-45.4
	c7-8.6,15.2-10.5,25.2-5.8c4.7,2.2,4.7,2.2,8.1-3c0,4.2,0,7.6,0,11c0,3.3,0,6.6,0,9.9c-2-0.2-1.6-1.6-2-2.6
	c-0.6-1.7-1.1-3.5-1.8-5.1c-2.3-5-5.7-8.8-11.6-8.7c-5.7,0.1-9.2,3.9-11,8.8c-4.6,12.5-4.6,25.2,0.2,37.5c3.3,8.6,12,10.4,19.1,4.4
	C53.2,618.1,55,615.7,57.4,613.1z"/>
<path class="st1" d="M614.2,625c5.6-0.1,6.1-3.6,6.1-7.8c-0.1-13.5,0-26.9,0-40.4c0-7,0-7-6.9-9.8c8.7,0,16.4,0,24.1,0
	c-5.9,0.9-6.5,4.8-6.5,9.6c0.2,12.5,0,24.9,0.1,37.4c0,3.1-1.3,7.1,2.8,8.7c5,2,11.6,0,14.4-4c2.3-3.2,3.2-6.9,4.2-10.6
	c0.2-0.9,0.6-1.7,1.3-2.6c0.7,6.5-0.5,13-0.8,19.4c-0.1,1.4-1.2,1.3-2.2,1.3c-12.1,0-24.2,0-36.3,0
	C614.4,625.8,614.3,625.4,614.2,625z"/>
<path class="st1" d="M197.5,605.7c-0.5,6.1-1,12.2-1.4,18.3c-0.1,1.7-0.8,2.2-2.4,2.2c-12.1,0-24.2,0-36.9-0.6
	c7.5-0.6,6.5-5.7,6.5-10.3c0-13.1-0.1-26.3,0.1-39.4c0-4.5-0.4-8.1-6-8.9c7.6,0,15.3,0,22.9,0c-7.6,0.9-6.1,6.7-6.2,11.5
	c-0.1,11.8-0.1,23.6,0,35.4c0,3.1-1.3,7.1,2.8,8.7c5.1,2,11.5,0,14.4-4c2.3-3.2,3.2-6.9,4.2-10.6c0.2-0.9,0.6-1.7,0.9-2.6
	C196.8,605.5,197.1,605.6,197.5,605.7z"/>
<path class="st1" d="M484.4,582.4c0-4.4,0.1-8.9,0-13.3c-0.1-2.4,1.1-2.7,3.1-2.7c11,0.1,22,0,33,0c1.6,0,3,0,3,2.3
	c-0.1,4.6,0,9.2-0.9,14c-0.5-1.6-1-3.2-1.5-4.8c-0.7-2.2-1.6-4.4-3.3-6.1c-2.1-2.1-5-2.3-7.5-1.6c-2.3,0.7-1,3.2-1.1,4.8
	c-0.1,14,0,28-0.1,42c0,4.2,0.3,7.9,5.7,8.7c-7.3,0-14.6,0-22,0c6.3-1,5.8-5.8,5.8-10.2c0-13.8-0.2-27.7,0.1-41.5
	c0.1-4.1-1.8-4.3-4.8-3.9c-2.9,0.4-4.8,2.1-6.1,4.6c-1.3,2.5-1.7,5.3-2.3,8C485.2,582.6,484.8,582.5,484.4,582.4z"/>
<path class="st1" d="M486.6,626.1c-6.8,0-13.5,0-20.9,0c1.9-2.3,6.6-1.7,5.1-6.1c-1-2.8-1.1-6.2-2.8-8.5c-3.6-4.9-9.1-1.9-13.6-2
	c-4.3-0.1-3.3,4.9-4.3,7.7c-1.5,4.2,0.5,6.9,4.8,8.4c-4.5,0-9.1,0-14,0c8.5-8.2,9.1-19.8,12.9-29.9c3.7-9.9,6.6-20.1,10.3-31.6
	c3.2,9.8,5.9,18.3,8.7,26.8c2.7,8.4,5.4,16.7,8,25.1C482.1,619.8,483.3,623.3,486.6,626.1z"/>
<path class="st1" d="M81.4,565.7c5.2,16.4,10.4,32.9,15.7,49.3c1.3,3.9,1.9,8.3,6.3,10.7c-6.9,0-13.7,0-20.6,0
	c2.7-1.5,5.6-2.1,4.3-6.7c-2.7-9.6-2.4-9.7-8.2-9.7c-0.8,0-1.7,0-2.5,0c-7.7,0-9.9,2.2-10.3,10C66,623.5,69,624,72,625
	c-3.1,1.5-8.3,1.7-15,0.6c6.1-3.8,7.1-10,8.9-15.7c4.9-14.8,9.6-29.6,14.4-44.4C80.7,565.6,81.1,565.7,81.4,565.7z"/>
<path class="st1" d="M593.7,567c-5.9,0.6-6.5,4.8-6.5,9.4c0,12.5-0.1,25,0.1,37.5c0,3.2-1.2,7.5,3.4,8.8c5.8,1.7,11.5-0.2,14.3-4.5
	c2.6-3.9,3.2-8.5,5.9-12.7c-0.6,6.5-1.1,13.1-1.7,19.6c-0.1,1.1-1.1,1.1-1.9,1.1c-12.1,0-24.2,0-36.6-0.5c6.4-1,6.2-5.7,6.2-10.2
	c0-13.3-0.1-26.6,0-40c0-4.4-0.9-7.7-6-8.6C578.4,567,586.1,567,593.7,567z"/>
<path class="st2" d="M662.2,566.8c7.5,0,14.9,0,22.4,0c-6.5,1.2-5.9,6.1-5.9,10.6c0,13.1,0.1,26.3-0.1,39.4c0,4.4,0.5,8,5.9,9
	c-7.4,0-14.8,0-22.2,0c7-1.4,5.7-7,5.7-11.9c0-12.6,0-25.3,0-37.9c0-4.3-0.2-8.3-6.8-7.8C661.6,567.7,661.9,567.2,662.2,566.8z"/>
<path class="st1" d="M325.8,625.8c6-0.9,5.8-5.4,5.8-9.8c0-13.5-0.1-27,0-40.4c0-4.4-0.9-7.7-6-8.6c7.4,0,14.8,0,22.3,0
	c-6.2,1-5.8,5.8-5.8,10.2c0,13.1,0.1,26.3,0,39.4c0,4.3,0.4,8,5.7,9.1C340.5,625.8,333.1,625.8,325.8,625.8z"/>
<path class="st3" d="M318.9,390.3c0-3.8,0.3-7.7-0.1-11.5c-0.3-3.7,1.1-4.3,4.5-4.3c9.8,0.2,9.8,0,9.8,9.8c0,6.3-0.1,12.6,0.1,19
	c0.1,2.9-0.9,3.5-3.7,3.6c-10.6,0.1-10.6,0.2-10.6-10.1C318.9,394.6,318.9,392.5,318.9,390.3z"/>
<path class="st3" d="M388.1,391.1c0,4.2-0.1,8.3,0.1,12.5c0.1,2.7-0.9,3.3-3.4,3.3c-10.8,0.2-10.8,0.3-10.8-10.3
	c0-6.2,0.1-12.3,0-18.5c0-2.4,0.3-3.4,3.2-3.5c11.1-0.3,11.1-0.4,11.1,10.5C388.1,387.1,388.1,389.1,388.1,391.1z"/>
<path class="st0" d="M123.7,582.8c0-3,0.3-6-0.1-9c-0.4-3.5,1.1-4.3,4.2-3.9c5.7,0.8,8.6,6.1,8,15c-0.5,7.1-4,11-9.7,11
	c-2.1,0-2.5-0.9-2.5-2.7C123.7,589.8,123.7,586.3,123.7,582.8z"/>
<path class="st3" d="M236,599.2c0.1,4.2-0.3,10.7-2.4,16.9c-1.5,4.2-3.6,8-9,8c-5.3,0-7.7-3.6-8.9-8c-3.7-13.3-3.7-26.6,0.2-39.8
	c1.2-4.2,3.6-7.6,8.7-7.6c5.1-0.1,7.2,3.5,8.7,7.5C235.8,582.9,236,589.9,236,599.2z"/>
<path class="st4" d="M297.3,583.1c0-3.3,0.2-6.6,0-9.9c-0.2-3.4,1.5-3.5,4-2.7c4.2,1.4,6.3,6.1,5.7,14.1c-0.3,4.5-0.3,9.5-6.3,11
	c-2.3,0.6-3.4,0.2-3.3-2.5C297.4,589.7,297.3,586.4,297.3,583.1z"/>
<path class="st5" d="M460.1,585.7c2.1,6.6,3.7,12,5.5,17.2c0.9,2.5,0.3,3-2.3,3.1c-10,0.4-10,0.5-7-9
	C457.5,593.7,458.6,590.3,460.1,585.7z"/>
<path class="st4" d="M83,605.7c-13.2,1.4-13.2,1.4-9.3-10.6c0.9-2.7,1.7-5.3,3-9.4C79,593.2,81,599.4,83,605.7z"/>
</svg>
