<svg id="Calque_1" data-name="Calque 1" xmlns="http://www.w3.org/2000/svg" viewBox="0 0 241.97 120.88"><defs><style>.cls-1{fill:#1a171b;stroke:#1a171b;stroke-width:0.75px;}</style></defs><title>logo</title><path class="cls-1" d="M184.9,378.1h1q2.53,0.46,2.53,1.83a1,1,0,0,1-.56.56h-0.56a2.57,2.57,0,0,0-2-1.12q-3.52,1.23-3.52,2.25Q179,387,179,396.24v2.39a81.7,81.7,0,0,0,1.69,15q1,6.43,2.81,8.72a6.72,6.72,0,0,0,3.8,2q2.07,0,4.5-3.09h0.42a0.6,0.6,0,0,1,.42.42V422q0,1.27-3.09,3.23a6.08,6.08,0,0,1-2.39.56H187a8.31,8.31,0,0,1-4.36-2.25q-2.5-2-4.36-16a49.4,49.4,0,0,1-.7-10v-0.84q0.25-14.24,4.64-17.58A9,9,0,0,1,184.9,378.1Z" transform="translate(-177.21 -368.26)"/><path class="cls-1" d="M210.55,377.78h0.14q2,0.91,3.41,5,3.9,12.09,5.77,30.9a55.28,55.28,0,0,1,1.23,10.72,0.89,0.89,0,0,1-.95.46q-0.56-1.09-1.69-11.18-0.32-1.09-1.41-9.32l-1.09-.14q-7.59.7-7.59,1.55v5.45l-0.95,13a1.72,1.72,0,0,1,.32.91,1.1,1.1,0,0,1-.63.63q-1.23,0-1.23-1.55Q207,409.38,207,406.36q-0.14-1.93-.14-3.9A159,159,0,0,1,208.51,381Q209.18,377.78,210.55,377.78Zm0,1.86q-2,7.88-2,20.36a15.64,15.64,0,0,0-.14,3.41v0.46a31.88,31.88,0,0,1,8.54-1.23v-0.18q0-4.29-4.68-20.32Q211.22,379.92,210.55,379.64Z" transform="translate(-177.21 -368.26)"/><path class="cls-1" d="M238.1,373.88h0.28a4.78,4.78,0,0,0,2.53.84,9,9,0,0,1,4.36,3.94q2.39,5.8,2.39,8.58v1.41q0,9.21-5.34,13.36,6.19,1.48,7.17,14.62V422q0,1.2.14,3.52l-0.42.28h-0.42l-0.56-.42q-0.14-2.81-.14-4.22v-5.06a21.48,21.48,0,0,0-3.23-10.83q-2.25-2.11-3.94-2.11h-0.14q0.14,3,.14,4.5V413q0.28,7,.28,7.87v0.28a0.9,0.9,0,0,1-.84.56,1.42,1.42,0,0,1-.7-0.56l0.14-1q-0.28-5.94-.28-7.87v-8.44a0.86,0.86,0,0,1-.84-0.56v-0.42a0.82,0.82,0,0,1,.7-0.56q-0.7-19.3-1.83-28Zm1.13,2q0.84,10.27,1.55,25.45,5.48-3.73,5.48-12v-2q0-3.69-3.09-9.42-2.32-2.11-3.52-2.11h-0.42Z" transform="translate(-177.21 -368.26)"/><path class="cls-1" d="M264.95,373.88h0.28a4.78,4.78,0,0,0,2.53.84,9,9,0,0,1,4.36,3.94q2.39,5.8,2.39,8.58v1.41q0,9.21-5.34,13.36,6.19,1.48,7.17,14.62V422q0,1.2.14,3.52l-0.42.28h-0.42l-0.56-.42q-0.14-2.81-.14-4.22v-5.06a21.48,21.48,0,0,0-3.23-10.83q-2.25-2.11-3.94-2.11h-0.14q0.14,3,.14,4.5V413q0.28,7,.28,7.87v0.28a0.9,0.9,0,0,1-.84.56,1.42,1.42,0,0,1-.7-0.56l0.14-1q-0.28-5.94-.28-7.87v-8.44a0.86,0.86,0,0,1-.84-0.56v-0.42a0.82,0.82,0,0,1,.7-0.56q-0.7-19.3-1.83-28Zm1.13,2q0.84,10.27,1.55,25.45,5.48-3.73,5.48-12v-2q0-3.69-3.09-9.42-2.32-2.11-3.52-2.11h-0.42Z" transform="translate(-177.21 -368.26)"/><path class="cls-1" d="M293.76,376.83a8.83,8.83,0,0,0,3.23.56q2.81-.14,3.8-0.14l0.28,0.42v0.56a0.6,0.6,0,0,1-.42.42q-0.77,0-3.94.14l-1.69-.14a53.66,53.66,0,0,1,.42,7.73q-0.84,12.27-.84,14.48,0,0.35,5.91.84l0.42,0.56v0.28a1.13,1.13,0,0,1-.7.56,31.9,31.9,0,0,0-5.77-.42q-0.84,13.71-.84,18.84v2.53a0.27,0.27,0,0,0,.28.28H294l5.34-.56v0.14l0.28-.14h0.56a1,1,0,0,1,.56.56v0.28a1,1,0,0,1-.56.56h-1.41l-4.36.56a1.08,1.08,0,0,0-.42-0.14l-0.28.14a1.49,1.49,0,0,1-1.55-1.69v-2.39q0-5.91,1.83-35.3v-0.56q0-6.54-.84-8.44A1,1,0,0,1,293.76,376.83Zm7.45-8.19h0.18a0.84,0.84,0,0,1,.95.95q0,0.46-3.41,1.93-3,1.55-3.76,2a0.78,0.78,0,0,1-.35.07h-0.18a0.76,0.76,0,0,1-.84-0.7v-0.07q0-.77,5.13-3.23A7.84,7.84,0,0,1,301.22,368.64Z" transform="translate(-177.21 -368.26)"/><path class="cls-1" d="M317.45,377q0.84,0.28,9,22.54h0.39q0-1.51,7-21.73h0.42l0.35,0.67,0,1.41q-0.39,12.59-.39,21.27,0,3.34,1.23,24.15l-0.84.42q-0.81,0-1.62-22.92V385.65H332.6q-5.1,15.86-5.73,16.35-1.23-.07-7.77-18.42h-0.42V384l2,40.54-0.81.42a0.73,0.73,0,0,1-.81-0.84q-1.23-36.77-2.46-46.65Z" transform="translate(-177.21 -368.26)"/><path class="cls-1" d="M354.6,377.29l0.28,0.14a0.12,0.12,0,0,0,.14-0.14q4.5,0.42,4.5,1v0.14a0.83,0.83,0,0,1-.7.7l-4.08-.42q-0.39,0-2.81.14l0.14,1.69q0,2.29.7,18.56h1a9.31,9.31,0,0,0,1.83-.14q3.16,0.28,4.64.28l0.42,0.56v0.42q0,0.42-.56.42-1.23,0-4.08-.28-1.9.14-3.23,0.14v0.56q0,9.91,1,22.92a0.12,0.12,0,0,1,.14.14q5.31-.28,6.33-0.28a1.28,1.28,0,0,1,.84.7v0.14a1,1,0,0,1-.56.56q-5.34.14-6.47,0.28a1.56,1.56,0,0,1-1.69-1.83q-1-13.43-1-22.36v-4.5q-0.7-12.37-.7-16.73-0.42-2.11-.42-2.25l0.56-.42h1.55Q353.15,377.43,354.6,377.29Z" transform="translate(-177.21 -368.26)"/><path class="cls-1" d="M375.78,377.22q0.77,0,6.36,19.16,0.81,4.54,6.82,22.78h0.39V418q-0.81-17.09-.81-19.2,0-.63.18-4.29,0-.42,0-1.65Q389,390,389,388.4v-10a0.77,0.77,0,0,1,.77-0.81l0.81,0.42q-0.39,8-.39,12v4q0,12.23.77,31.57l-0.77.39q-0.81,0-10-31.15l-3.69-12.69-0.28-.46,0,0.77q0.25,3,.25,4.64l0,1.2q-0.28,7.8-.28,10.93a230.26,230.26,0,0,0,1.2,25.95h-0.81a0.68,0.68,0,0,1-.77-0.77q-0.81-12.27-.81-22V378A0.81,0.81,0,0,1,375.78,377.22Z" transform="translate(-177.21 -368.26)"/><path class="cls-1" d="M418.38,380l0.42,0.49v0.35q0,0.6-3.94.6h-3.94a0.65,0.65,0,0,0-.42.49l0.28,6.43q-0.14.88-.14,1,1.27,21.27,1.27,30.48a0.87,0.87,0,0,1,.14.39,0.69,0.69,0,0,0-.14.35l0.14,0.84a0.65,0.65,0,0,1-.42.49h-0.56a1.34,1.34,0,0,1-.56-0.49q0-.25.14-1.34,0-3-1.27-30.37,0-4.46-.28-8.12l-0.28-.14H408.4l-4.5.39a1.55,1.55,0,0,1-.42-1.09,0.84,0.84,0,0,1,.56-0.49,9.45,9.45,0,0,0,1.13.25q2.71-.25,3.8-0.25h5.77A27.92,27.92,0,0,0,418.38,380Z" transform="translate(-177.21 -368.26)"/><path class="cls-1" d="M238.85,437.58q4.36,0,5.34,9.14v2.67a25.75,25.75,0,0,1-4.5,10.55,6,6,0,0,0-.84,1v0.14a9,9,0,0,1,4.64,4.08q1.86,2.78,2.53,8.58a23.31,23.31,0,0,1-3.09,12.38,8.09,8.09,0,0,1-3.94,2.67h-0.28q-2,0-2-4.78-1.69-24.22-1.69-37.27-0.28-3.8-.84-7.17A7.29,7.29,0,0,1,238.85,437.58Zm-3.09,2.67a210.19,210.19,0,0,1,1.13,25q0.56,6.61,1.41,21.52l0.56,0.56a7.11,7.11,0,0,0,4.08-4.22,27.78,27.78,0,0,0,1.69-9.42q-1.13-6.75-1.83-6.75a8.85,8.85,0,0,0-4.22-4.64,1.79,1.79,0,0,1-1.69-.84v-0.42a24.92,24.92,0,0,0,5.91-11.39v-2.25q-0.7-8.44-3.94-8.44A4.36,4.36,0,0,0,235.76,440.25Z" transform="translate(-177.21 -368.26)"/><path class="cls-1" d="M275.72,440.29l0.28,0.14a0.12,0.12,0,0,0,.14-0.14q4.5,0.42,4.5,1v0.14a0.83,0.83,0,0,1-.7.7l-4.08-.42q-0.39,0-2.81.14l0.14,1.69q0,2.29.7,18.56h1a9.31,9.31,0,0,0,1.83-.14q3.16,0.28,4.64.28l0.42,0.56v0.42q0,0.42-.56.42-1.23,0-4.08-.28-1.9.14-3.23,0.14v0.56q0,9.91,1,22.92a0.12,0.12,0,0,1,.14.14q5.31-.28,6.33-0.28a1.28,1.28,0,0,1,.84.7v0.14a1,1,0,0,1-.56.56q-5.34.14-6.47,0.28a1.56,1.56,0,0,1-1.69-1.83q-1-13.43-1-22.36v-4.5q-0.7-12.37-.7-16.73-0.42-2.11-.42-2.25l0.56-.42h1.55Q274.28,440.43,275.72,440.29Z" transform="translate(-177.21 -368.26)"/><path class="cls-1" d="M309.45,440.78h0.14q2,0.91,3.41,5,3.9,12.09,5.77,30.9A55.28,55.28,0,0,1,320,487.36a0.89,0.89,0,0,1-.95.46q-0.56-1.09-1.69-11.18-0.32-1.09-1.41-9.32l-1.09-.14q-7.59.7-7.59,1.55v5.45l-0.95,13a1.72,1.72,0,0,1,.32.91,1.1,1.1,0,0,1-.63.63q-1.23,0-1.23-1.55,1.09-14.84,1.09-17.86-0.14-1.93-.14-3.9A159,159,0,0,1,307.41,444Q308.08,440.78,309.45,440.78Zm0,1.86q-2,7.87-2,20.36a15.63,15.63,0,0,0-.14,3.41v0.46a31.88,31.88,0,0,1,8.54-1.23v-0.18q0-4.29-4.68-20.32Q310.12,442.92,309.45,442.64Z" transform="translate(-177.21 -368.26)"/><path class="cls-1" d="M347.65,439.27h0.28a1.18,1.18,0,0,1,.7,1.12v0.7q1.27,22.89,3.09,36.84,1.23,9.42,3.8,9.42a2.71,2.71,0,0,0,1.83-2.67q0-5.52-1.12-27.84,0.14-4.08.14-7.87V445.6l-0.14-.84,0.14-.28q-0.14-1.9-.42-3.94l0.56-.42h0.42q0.6,0,.84,3.94,0,0.28-.14.28,0.14,2.11.14,3.09v4.5l-0.14.84a0.12,0.12,0,0,0,.14.14q-0.14,1.65-.14,2.39v0.56q1.12,24.47,1.12,28.83-0.39,4.08-3.66,4.08-3.8,0-5.06-13.5-1.55-12-3-35.58Z" transform="translate(-177.21 -368.26)"/></svg>