<?xml version="1.0" encoding="utf-8"?>
<!-- Generator: Adobe Illustrator 21.1.0, SVG Export Plug-In . SVG Version: 6.00 Build 0)  -->
<svg version="1.1" id="Layer_1" xmlns="http://www.w3.org/2000/svg" xmlns:xlink="http://www.w3.org/1999/xlink" x="0px" y="0px"
	 viewBox="0 0 900 596" style="enable-background:new 0 0 900 596;" xml:space="preserve">
<style type="text/css">
	.st0{fill:#FEFEFE;}
	.st1{fill:#39393A;}
	.st2{fill:#39383A;}
	.st3{fill:#3A393B;}
	.st4{fill:#39393B;}
	.st5{fill:#3B3B3C;}
	.st6{fill:#3B3A3C;}
	.st7{fill:#2C2B2D;}
	.st8{fill:#373738;}
	.st9{fill:#262627;}
	.st10{fill:#333334;}
	.st11{fill:#302F30;}
	.st12{fill:#2A2A2B;}
	.st13{fill:#2B2A2C;}
	.st14{fill:#3D3D3F;}
	.st15{fill:#3A3A3B;}
	.st16{fill:#171718;}
	.st17{fill:#2E2E2F;}
	.st18{fill:#363637;}
	.st19{fill:#232324;}
	.st20{fill:#242425;}
	.st21{fill:#262526;}
	.st22{fill:#282829;}
	.st23{fill:#232223;}
	.st24{fill:#353536;}
	.st25{fill:#343435;}
	.st26{fill:#2D2D2E;}
	.st27{fill:#C6C8CA;}
	.st28{fill:#383839;}
	.st29{fill:#3C3B3D;}
	.st30{fill:#2F2E2F;}
	.st31{fill:#1E1E1F;}
	.st32{fill:#2D2C2D;}
	.st33{fill:#3F3E40;}
	.st34{fill:#404041;}
	.st35{fill:#29292A;}
	.st36{fill:#353436;}
	.st37{fill:#3C3C3D;}
	.st38{fill:#2B2B2C;}
	.st39{fill:#1D1D1D;}
	.st40{fill:#343335;}
	.st41{fill:#3E3D3F;}
	.st42{fill:#323133;}
	.st43{fill:#3E3E3F;}
	.st44{fill:#313132;}
	.st45{fill:#3D3C3E;}
	.st46{fill:#2C2C2D;}
	.st47{fill:#181818;}
	.st48{fill:#2D2C2E;}
	.st49{fill:#111112;}
	.st50{fill:#363537;}
	.st51{fill:#1C1C1C;}
	.st52{fill:#131314;}
	.st53{fill:#141314;}
	.st54{fill:#76787B;}
	.st55{fill:#373638;}
	.st56{fill:#1A1A1A;}
	.st57{fill:#1E1D1E;}
	.st58{fill:#272627;}
	.st59{fill:#747678;}
	.st60{fill:#1F1F20;}
	.st61{fill:#19191A;}
	.st62{fill:#717275;}
	.st63{fill:#0C0C0C;}
	.st64{fill:#0F0F10;}
	.st65{fill:#313032;}
	.st66{fill:#7E7F82;}
	.st67{fill:#444446;}
	.st68{fill:#424143;}
	.st69{fill:#95979A;}
	.st70{fill:#4A4A4C;}
	.st71{fill:#414042;}
	.st72{fill:#4F4F51;}
	.st73{fill:#191919;}
	.st74{fill:#0B0B0B;}
	.st75{fill:#2B2A2B;}
	.st76{fill:#DDDEDF;}
	.st77{fill:#5A5B5D;}
	.st78{fill:#4E4E50;}
	.st79{fill:#747578;}
	.st80{fill:#0B0B0C;}
	.st81{fill:#6C6E70;}
	.st82{fill:#F0F0F1;}
	.st83{fill:#5F6062;}
	.st84{fill:#0D0D0E;}
	.st85{fill:#161616;}
	.st86{fill:#464648;}
	.st87{fill:#5E5F61;}
	.st88{fill:#595A5D;}
	.st89{fill:#0B0A0B;}
	.st90{fill:#484849;}
	.st91{fill:#4C4C4E;}
	.st92{fill:#121212;}
	.st93{fill:#57585A;}
	.st94{fill:#5C5D5F;}
	.st95{fill:#797B7D;}
	.st96{fill:#424243;}
	.st97{fill:#111111;}
	.st98{fill:#0D0D0D;}
	.st99{fill:#CED0D2;}
	.st100{fill:#707274;}
	.st101{fill:#696A6D;}
	.st102{fill:#48484A;}
	.st103{fill:#464547;}
	.st104{fill:#4B4C4E;}
	.st105{fill:#77797C;}
	.st106{fill:#525355;}
	.st107{fill:#464647;}
	.st108{fill:#201F20;}
	.st109{fill:#404042;}
	.st110{fill:#141415;}
	.st111{fill:#4E4F51;}
	.st112{fill:#131313;}
	.st113{fill:#302F31;}
	.st114{fill:#FAFAFB;}
	.st115{fill:#252425;}
	.st116{fill:#D3D5D6;}
	.st117{fill:#CECFD1;}
	.st118{fill:#F2F2F3;}
	.st119{fill:#383739;}
	.st120{fill:#FFFFFF;}
	.st121{fill:#FDFDFD;}
	.st122{fill:#E1E2E3;}
	.st123{fill:#FCFCFC;}
	.st124{fill:#DEE0E1;}
	.st125{fill:#58585A;}
	.st126{fill:#545557;}
	.st127{fill:#7D7F82;}
	.st128{fill:#E2E3E4;}
	.st129{fill:#1A191A;}
	.st130{fill:#E6E7E8;}
	.st131{fill:#BCBEC0;}
	.st132{fill:#DBDCDE;}
	.st133{fill:#A3A5A8;}
	.st134{fill:#FAFBFB;}
	.st135{fill:#787A7C;}
</style>
<g>
	<path class="st0" d="M451.1,597c-148.3,0-296.7,0-445,0.1c-4,0-5.2-0.5-5.2-5C1,396.8,1,201.4,0.9,6.1c0-4,0.5-5.2,5-5.2
		c296.7,0.1,593.3,0.1,890,0c4,0,5.2,0.5,5.2,5c-0.2,195.5-0.1,391-0.1,586.5c0,3.6-0.5,4.7-4.5,4.7C748.1,597,599.6,597,451.1,597z
		"/>
	<path class="st1" d="M524,278.9c-4.6,0.2-9.2,0.4-13.7,0.5c-1.4,0.1-3-0.4-4.1,0.9c-2.4,4.8-0.9,10-1.1,15
		c-0.3,5.4,0.7,10.8,0.6,16.2c0.3,0.6,1.1-0.1,0.4,0.1c-0.2,0.1-0.4,0-0.4-0.3c-0.1-1.9-0.7-3.9,0.5-5.7c1.2,3.5-0.6,8.1,4.1,10.2
		c-0.6,1.2-1.6,1.6-2.8,1.6c-6.1,0-12.1,0.1-18-0.1c-1-1.9,1.2-2.9,0.7-4.4c0.3-1.9,0.9-3.9,0.9-5.8c0.1-20.9,0.1-41.8,0.1-62.6
		c0-0.8-0.2-1.6-0.3-2.5c0.6-0.5,1.1-0.3,1.5,0.3c0.3,21.7,0,43.4,0.2,65.1c-0.1-21.7,0.2-43.4-0.2-65c-2.4-2.8-2-4.4,1.9-4.5
		c3.3-0.1,6.6-0.1,9.8,0c2.1,0,3.6,0.6,3.2,3.1c-0.1,0.6-0.2,1.2-0.4,1.7c-0.9,10.7-0.6,21.3-0.2,32c0.3,0.4,0.6,0.8,0.9,1.1
		c4.9,1.3,9.8,0.9,14.8,0.2c2.3-0.7,4.6-1.9,7-2c3.1,0.7,5.1,0.4,3.7-3.6c0.3-3,2-5.5,3.4-8.1c2-3.1,1-6.3,0.4-9.5
		c-0.4-2.1-1.1-4.1-0.8-6.3c1.9-4.7,2.1-4.7,6-2.1c1.6,1.1,3.3,2.2,4.5,3.8c1.6,2.2,2.2,0.3,3.2-0.4c4.3,5.7,3.5,11.8,1.1,18
		c-4.4,0.4-6.7,3.1-7.8,7.1c-3.7,4.2-8.9,4.4-13.8,5C527.6,278.9,525.7,278,524,278.9z"/>
	<path class="st1" d="M36,317.9C24,312.5,15.5,304,12.1,291c0.7-2.1-0.5-4.2-0.1-6.2c-1.3-8.7,0.3-17.2,2.1-25.7
		c2.3-6,5.9-10.9,10.9-14.9c2.3,0.2,2.9-2.3,4.7-3c2.4-1.6,4.9-3.1,7.6-4.2c2.3-1,3,0,2.8,2.2c-4.2,4-7,8.8-9.1,14.1
		c-3.5,5.6-3.3,12.1-3.8,18.1c-0.8,9.4-0.7,18.8,1.2,28.2c0.5,2.3,1.1,4.5,2.4,6.4c1.5,1.3,0.6,4.3,3.3,4.8c1.7,1.8,3.4,3.5,5,5.3
		C38.8,317.6,37.2,317.5,36,317.9z"/>
	<path class="st2" d="M834,259.1c-0.2,0.9-0.7,1.9-0.7,2.8c0,16.3,0,32.7-0.1,49c0,2,0.8,3.5,1.9,4.9c-5.4,2.6-10.9,2.5-16.4,0
		c1.1-1.4,2.3-2.7,2.3-4.8c-0.1-17.3-0.2-34.6-0.2-51.9c-0.3-0.3-0.4-0.5-0.3-0.7c0.1-0.2,0.2-0.3,0.3-0.3c4.3,0,8.7,0,13,0
		c0.3,0.2,0.5,0.4,0.4,0.7C834.3,259,834.2,259.1,834,259.1z"/>
	<path class="st3" d="M236.1,314c0.4-3.3-1.2-6.1-2-9c-0.2-2.9-1.2-5.6-3.2-7.8c-0.6-0.5-1.3-0.9-1.9-1.4c-3.5-0.8-7-0.3-10.4-0.3
		c-2.2-0.1-3.7-0.5-2.8-3.2c2.6-1.1,5,0.8,7.6,0.5c2.5-0.2,3.8-0.7,2.7-3.6c-1-2.5-1.9-5-2.8-7.4c-0.6-1.7-1.5-1.3-2.6-0.6
		c-0.5,0.1-0.9,0-1.3-0.3c0.2-5.1,2.7-9.5,4.5-14c0.5-0.4,0.8-1,1.1-1.6c1.2-1.8,0.8-5.5,3.5-5.2c1.5,0.2,2.1,3.7,3.1,5.7
		c0.8,1.6-0.2,4.2,2.4,4.8c2.3,5.8,4.5,11.5,6.8,17.3c-0.2,4.2,2,7.5,4.2,10.9c2.7,5.7,4.4,11.8,8,17.1c-1.1,2.1-3.1,1.5-4.8,1.5
		c-3.1,0.1-6.3-0.2-9.4,0.1C235.9,317.8,235.6,316.3,236.1,314z"/>
	<path class="st4" d="M181,317.2c5.1-1.3,8.5-4.3,9.9-9.4c0.3,0.2,0.5,0.4,0.5,0.6c-0.1-0.7,0.8-1.7-0.5-2.1
		c-2.7-6.9-8.3-10-15-11.5c-6.5-1.5-12.9-3-18-7.7c-0.4-1.5-1.4-2.5-2.9-2.9c-5.9-8.1-3.6-18,5.3-23.2c2.4-1.4,5-2.6,7.8-2.9
		c0.6,0.6,1.7,0.1,2.2,1c-1.9,0.7-3.8,1.2-5.5,2.1c-5.4,2.8-6.8,6.6-4.9,12.8c-0.2,2.2,1.9,2.8,2.9,4.2c3.2,1.6,6.5,2.9,10.1,3.6
		c6.2,1.2,12.1,3.3,18.1,5.3c2.8,1.6,4.7,4,5.9,6.9c1,5.5-0.3,10.8-2.1,15.9c-3.5,4.7-8.1,7.6-13.8,8.9
		C180.4,318.3,180.4,317.7,181,317.2z"/>
	<path class="st2" d="M652,258.1c7.2,0,14.5,0,21.7,0c-7.3,1.9-6.3,7.8-6.5,13c-0.2,6-0.2,11.9-0.3,17.9c-0.5,7.9-1,15.8,0.2,23.7
		c0.6,1.1,1.3,2.2,1.9,3.2c-2.1,1.8-12.2,2.8-14.3,1.6c-1.7-1-0.2-2.4-0.6-3.5c0.3-1.4,0.8-2.9,0.8-4.3c0.1-14.1,0.1-28.2,0.2-42.3
		c0-4.1-1.1-7.1-5.4-8.2C650.2,258.2,651.3,258.7,652,258.1z"/>
	<path class="st1" d="M760,316c2.4-2,2.5-4.8,2.5-7.7c0-16,0.2-32.1,0.3-48.1c2.8-3.9,6.9-1.5,10.2-1.4c2.5,0,1.4,3.3,1.4,5
		c0.1,16.4,0.1,32.9,0.1,49.3c1.1,3.3,0.2,5-3.6,4.3C767.3,316.8,763.3,319,760,316z"/>
	<path class="st3" d="M459.9,286.8c1.1-6.1-1.2-8.9-8.3-9.2c-5.6-0.2-11,1.9-14.4,7.1c-0.1,0.2-0.1,0.5-0.2,0.7
		c-0.6,0.9-1.6,1.4-2.7,1.6c-1.4,0.2-2.7,0-3.9-0.8c-5.3-5.1-11.7-6.8-19-6.3c-3.9,0.3-8,0.7-10.8-3.1c-1.2-3.2-0.2-6.6-0.6-9.8
		c2.1-4,12.5-7.2,16-4.8c1.4,1,1.2,2.7,1.1,4.1c-0.2,1.9-1.9,1.4-3.1,1.5c-4.8,0.3-4.8,0.3-4.9,3.2c0.2,0.3,0.5,0.6,0.8,0.9
		c3.6,0.7,7.4-0.9,10.8,1.4c7.6,4.1,15.4,2.6,23.1,0.3c7.8-4,20-1.8,24.5,4.4c2.3,5.1,0.5,11.1-4.9,16.1c-1.5,1.6-3.1,3.1-4.2,5.1
		l0-0.1c-2.4,1-3-0.6-3.2-2.4c-0.3-2.3-1.8-5,1-6.8C458.2,289.1,459.4,288.3,459.9,286.8z"/>
	<path class="st1" d="M106.1,312.7c0.6,1.1,1.3,2.2,1.9,3.2c-5,2.4-10.1,2.5-15.1,0c1.4-1.7,1.3-3.6,1.4-5.6
		c0.1-13.8,0.3-27.5,0.5-41.3c0-2.9-0.1-5.6-1.8-8.1c3.4-2.8,9.8-2.8,13.2-0.1c-1.2,8-1.3,16.1,0,24.1c0.6,0.1,1.2,0.2,1.8,0.3
		c0.7,1,3-0.8,3,1.7c-1.6,0.1-3.1,0.2-4.7,0.2c-1.7,3.4-0.7,7.1-0.7,10.6C105.6,302.7,104.7,307.8,106.1,312.7z"/>
	<path class="st3" d="M565.1,257.8c3.6,9.4,7.3,18.8,10.9,28.2c-0.2,1.2-0.5,2.4,1.1,2.9c1.4,2.2,2.3,4.6,2.8,7.1
		c0,3.1,1.5,5.9,2.3,8.8c0.1,0.5,0.3,0.9,0.3,1.4c0.1-0.5,0.1-1.1,0.6-1.5c1.5,3.2,3.7,6.2,4.1,9.9c-1.7,2.7-3.8,3.2-5.8,0.9
		c-2-2.4-4-4.8-4.4-8.1c-0.4,1.3-1,2.7-2.7,2.9c-1.8,0.2-1.7-1.6-2.5-2.6c-0.8-1.1-0.3-2.9-2.1-3.4c-1.8-8.1-7.5-9.6-14.7-8.4
		c-1.3,0.2-2.6,0.3-3.9,0.5c-1-1.1-0.2-1.9,0.4-2.7c2-1.4,4.4-1.2,6.7-1c3.5,0.3,4.9-0.8,4-4.3c0.4-4.8-2.4-8.6-4-12.8
		C559.1,269.2,561,263.1,565.1,257.8z"/>
	<path class="st1" d="M681.1,276c2.1-6.3,6.2-10.9,12-14c4.5-1.6,4.6,1.3,4.6,4.4c-4.9,15.9-5.2,31.5,2.6,46.6
		c-0.4,2.9-2.1,2.7-4.3,1.9c-2.2-0.8-3.7-2.7-6-3.1c-4.4-2.9-6.9-7.3-8.9-11.9C679.1,292,679.1,284,681.1,276z"/>
	<path class="st3" d="M280.1,313.8c0.6,0.7,1.3,1.5,1.9,2.2c-4.2,2.6-12,2.1-13.9-1c0.9-2.2,1-4.5,1-6.8c0-14.1,0-28.2,0-42.2
		c1.4-2-0.9-4.1,0-6.1c3.8-0.9,7.7-2,11.3,0.8c0.4,7.8-0.8,15.6,0.6,23.3c0.4,0.7,0.9,1.3,1.2,2c0.1,1.6-1.2,1.4-2.1,1.6
		c-1.1,3.8-0.8,7.6-0.2,11.4c0,0.3,0,0.7,0,1C279.4,304.6,278.9,309.2,280.1,313.8z"/>
	<path class="st1" d="M346.3,284.9c1.9,0.1,3.8,0.1,5.7,0.2c0.4,1.8-1.4,1-2,1.7c-1.3,0.1-2.5,0.1-3.8,0.2c-2.5,5.3-1,11-1.1,16.5
		c0,2.7,0.3,5.5,0.4,9.1c0-1.6-0.1-2.4,0.6-3c1,2,0,4.6,2,6.3c-5.1,2.6-10.2,2.6-15.4,0c0.7-1.7,1.4-3.4,2.1-5.2
		c0.4-0.1,0.7-0.3,0.7-0.5c-0.3-15.9,0.4-31.8-0.3-47.8c-0.2-1.1-0.8-2.2,0.6-3c2.1-1.3,10.1-0.3,12.2,1.5c-0.6,1.4-1.3,2.8-1.9,4.3
		C345.2,271.8,344.9,278.4,346.3,284.9z"/>
	<path class="st3" d="M606,303c0.4,0.7,0.4,1.4-0.1,2c-0.1,2.6,1.8,4.3,2.6,6.6c0.4,1.2,2.3,1.9,1.4,3.3c-1.1,1.8-2.6-0.8-3.9,0.1
		c-15.4-8.9-19.9-31.3-9-45.2c2.9-3.7,5.4-7.8,10.1-9.6c1.3,0.7,2.8-1.8,3.9,0c0.9,1.5-1.8,2.2-1.1,3.8c-0.6,1.4-1.2,2.7-1.8,4.1
		c-3.4,3.7-3.4,8.4-3.8,12.9C603.7,288.4,603.4,295.8,606,303z"/>
	<path class="st1" d="M880.2,309.7c0.7,2.1-0.1,4.6,1.9,6.3c-2.1,1.7-12,2.9-14.1,1.7c-2.1-1.2-0.4-2.5-0.1-3.8
		c1.4-1.5,1.1-3.4,1.1-5.2c0-13.8,0-27.7,0-41.5c0-2.2,0-4.3-1.3-6.3c2.1-1.6,9.6-2.5,11.5-1.4c1,0.6,1.2,1.3,1,2.5
		c-1.9,10.5-1.3,21.1-1,31.6c0.6,5,0.1,10.1,0.3,15.1C879.6,308.9,878.6,310.2,880.2,309.7z"/>
	<path class="st3" d="M730.1,266.8c12.3,12.4,11.3,34-2.3,44.7c-3.1,2.5-6.7,4.3-10.5,5.6c-0.9,0.4-1.3,0-1.6-0.8
		c2.2-3.9,5.2-7.1,7.8-10.7c2.5-2.9,2.5-6.8,2.8-10.2c0.7-7.8,0.8-15.8-0.8-23.6c-0.1-0.5-0.4-0.8-1-0.7c-2.9-5.6-8-8.9-12.7-12.6
		c0.5-1.3,1.4-1.2,2.4-0.8c5.1,1.4,10,3.3,13.9,7.1C728.3,266,729,266.7,730.1,266.8z"/>
	<path class="st1" d="M436,229c1.6-0.2,2.4,0.7,3.1,1.9c0.8,1.8,1.9,3.4,1.9,5.6c0,9.1,0,18.3,0.4,27.4c0.3,5.4-1.1,6.4-7,6.5
		c-6.5,0.1-7.7-0.8-7.8-6.2c-0.2-8.5,0.1-17-0.1-25.5c-1.4-4.7,2.6-5.9,5.2-8C433,229.9,434.1,228.3,436,229z"/>
	<path class="st4" d="M437.2,284.7c3-0.5,6.6-4.4,8.6,1.3c0.3,11.7-2.8,23-3.9,34.5c-0.8,8.1-2.1,16.1-3.1,24.2
		c-0.8,6.8-1.4,13.7-2.7,20.7c-2.8-1.5-2.5-3.7-2.5-5.6c-0.1-22,0-44-0.1-66c0-3.5,1.6-6,3.4-8.6C437,285,437.1,284.9,437.2,284.7z"
		/>
	<path class="st5" d="M418.2,294c0-3.5-2.4-7.4,1.8-10.1c4-1.3,7.4-0.3,10.4,2.5c1.2,0.9,2.3,1.8,2.1,3.5c-0.4,21,0.5,42.1-0.5,64
		c-2.5-1.4-2.7-2.3-2.6-3.4c0.1-2.2-1.1,0.6-1.3-0.3c-2.4-5-1.7-10.6-2.9-15.8c-0.7-2.7-0.1-5.6-1-8.2c-0.4-1.6-0.4-3.3-0.5-4.9
		c-0.4-3.2-0.9-6.3-1.6-9.5c-0.2-5.8-1.1-11.5-1.5-17.2c-0.1-0.6-0.3-1.2-0.6-1.6C419.4,293.4,419.1,294.2,418.2,294z"/>
	<path class="st6" d="M312.1,265.8c4.5,7.3,2.1,15.1-5.7,18.4c-2.9,1.2-6,2-9.2,1.9c-1.1,0.3-1.4-0.3-1.4-1.2
		c2.8-4.3,5.5-8.5,5-14.1c-0.6-6.3-3.1-9.1-9.6-9.4c-3.1-0.2-6.3,0.7-9.2-1.1c-0.3-0.5-0.2-1,0.2-1.5c3.3-0.6,6.6,0.3,9.8-0.5
		c5.7-0.1,11.3-0.1,16.1,3.8C309,263.7,310.1,265.2,312.1,265.8z"/>
	<path class="st3" d="M308,291.1c2,1.1,3.4,2.6,3.9,4.9c0.6,4.6-0.9,9.4,1.2,13.8c1.4,2,2.8,4,4.2,6c-5.1,4.5-13.3,1.8-14.9-5.2
		c-0.9-4-1.6-8.1-1.4-12.3c0.1-2.1,0.4-4.3-0.9-6.3c-0.4-1-1.8-1.8-0.8-3c0.8-0.9,1.8-0.1,2.8,0C304.1,289.4,305.8,291,308,291.1z"
		/>
	<path class="st7" d="M436.9,285.2c-4.2,24.6-0.8,49.4-1.9,74c-0.1,1.5-0.5,3.2,0.6,5.1c2.5-19.5,4.9-38.6,7.4-57.8
		c0.9-6.8,1.9-13.7,2.8-20.5c0.4,1.3,1.6,2.4,1.1,4c-1,1.7,0,3.7-0.8,5.5c-0.1,0.9-0.2,1.7-0.2,2.6c-0.9,1.7,0.1,3.6-0.8,5.3
		c-0.4,3.2-0.8,6.5-1.2,9.7c-0.9,1.7,0.1,3.6-0.8,5.3c-0.4,3.2-0.8,6.4-1.2,9.7c-1,1.7,0.1,3.6-0.8,5.3c-0.4,3.2-0.8,6.5-1.2,9.7
		c-1,1.7,0,3.6-0.8,5.3c-1.4,10.9-2.8,21.8-4.2,32.6c-1,1.7,0,3.6-0.8,5.3c0,1.5-1,3.1-2.1,2.5c-1.6-0.8-2.2-2.8-1.9-4.8
		c0.2-0.3,0.5-0.6,0.8-0.8c1.3-1.1,0.8-2.7,1.1-4c1-4.3,0.4-8.7,0.5-13.1c0-23.4,0-46.9,0-70.3c0-2.2-0.2-4.3,0.3-6.5
		c0.1-1.3,0.7-2.4,1.8-3.2C435.4,285.8,436.2,285.5,436.9,285.2z"/>
	<path class="st8" d="M40.2,239.1c-0.8-1-1.2-2.5-3.1-1.2c-2.2,1.6-4.7,2.8-7.1,4.1c-0.6-0.6-0.5-1.3,0-1.9
		c11.4-8.7,25.7-9.1,37.4-1.4c2.9,1.9,6.3,4.1,9.5,0.2c2.6,1.1,2,3.4,2,5.5c0.1,2.4,0.1,4.9-0.1,7.3c-0.4,1.8-2,2.3-2.7,0.9
		c-1.2-2.3-2.4,0.3-3.3-0.4c-1.3-1.9-2.9-3.6-2.8-6.1c0.2-0.8,1-1.6,0.1-2.3c-0.2-0.1-0.6,0.9-1.1,1.2c-3.1-1.4-4.5-4.7-7.3-6.3
		C54.4,234.3,47.3,234.6,40.2,239.1z"/>
	<path class="st9" d="M36,317.9c1-0.6,2.1-1.3,3.1-1.9c19,8.2,36.4-1.8,39-22.3c0.2-1.3-0.5-3.8,1.5-3.6c2.6,0.2,1.1,2.7,1,4
		C78.5,316.5,57.6,327.6,36,317.9z"/>
	<path class="st6" d="M436,229c-1.4,0.6-2.3,2.1-4,2.1c-0.2-0.1-0.4-0.2-0.6-0.3c-0.7-0.8-1.2-1.8-1.5-2.9c-0.3-1.9-1.3-3.1-3.1-3.7
		c-1.4-1.1-3.1-2.1-1.8-4.4c2.3-4,4.7-8,7.2-12.3c3.8,4,5.6,8.7,8.2,12.8c1,1.6-0.7,2.3-1.3,3.3C438.2,225.5,435.6,226.3,436,229z"
		/>
	<path class="st10" d="M427.2,236.9c1.8,5.5,0.5,11.1,0.8,16.7c0.2,3.3,0.3,6.7,0,9.9c-0.5,4.4,1,5.7,5.5,5.6
		c7.2-0.1,8.4-0.5,7.4-8.5c-0.9-7.5-0.7-14.9-0.7-22.3c0-2.6-1.2-4.9-0.9-7.4c1.8,1,3.1,2.2,3.1,4.6c-0.3,11.5,0.6,23-0.3,34.4
		c-5.9,2.5-11.9,1.9-17.9,0.4c-0.7-3.6-1.5-7.1,0.5-10.6c1.8,2.2,0.6,4.6,0.9,6.9c-0.4-8.3-1.5-16.7-0.7-25.1
		c0.2-1.3,0.7-2.6,1.3-3.7C426.3,237.4,426.7,237.1,427.2,236.9z"/>
	<path class="st11" d="M506.2,242.1c0-0.2,0-0.3,0-0.5c-2.7-6.2-7.8-1.1-11.6-2.5c-2.4-0.9-3.3,0.6-2.5,2.9c-0.4,0-0.8,0.1-1.2,0.1
		c-3.3-3.9-8.4-2.8-12.4-4.1c-0.4-0.7-0.3-0.9,0.2-0.9c16.2,0,32.5-0.2,48.7,0.2c6.8,0.2,13.5,1.8,18.6,6.9c-1.1,2.6-2.8,1-3.9,0.2
		c-3.9-2.8-8.1-3.3-12.6-2.5C521.7,240.4,513.9,239.3,506.2,242.1z"/>
	<path class="st12" d="M332.8,315.9c5.1,1.7,10.2,1.7,15.4,0c6.3,2.2,12.3,0.2,18.4-1.1c3.3,2,7,1.2,10.2,0.6
		c5.8-1.1,1.4-6.6,3.3-9.5c0.2-0.6-0.9-0.5-0.3-0.4c0.1,0,0.1,0.2,0,0.5c-1.1,1.8-1.6,4.5-4.8,3.7c-0.1,0-0.1-0.3-0.1-0.4
		c0-0.2,0.1-0.3,0.1-0.5c3.1-4.3,4.6-9.4,7.7-14c0,7.3,0,14.6,0,22c0,2-1.8,1.6-3,1.6c-16.8,0-33.5-0.1-50.3-0.2c-1,0.4-1.4,0-1.3-1
		C329.6,316.7,331.2,316.3,332.8,315.9z"/>
	<path class="st13" d="M130.9,264.1c-3.1-1.7-6.2-3.6-9.9-4.2c-3.3-0.8-6.7-0.2-10.1-0.4c-0.5,0-1,0-1.6-0.1
		c-0.6-0.3-0.7-0.7-0.4-1.2c9.4,0,18.9-0.1,28.3-0.1c1.3,0,2.7-0.2,2.7,1.8c0,6.4,0,12.7,0,20.3c-2-4.6-3.6-8.2-5.2-11.8
		c1.7-1.1,2.3-2.5,1.8-4.6c-0.8-3.4-3.7-2-5.9-2.9c0.5,1.1,2,1.9,0.9,3.2c-0.1,0.1-0.3,0.1-0.4,0.1
		C131.2,264.2,131,264.1,130.9,264.1z"/>
	<path class="st14" d="M774,314c0-15.9,0-31.8,0-47.8c0-7.8-3.5-9.7-11.1-6c-2.2-2.3-4.6-0.4-6.9-0.5c-2.8-0.4-5.4,0.9-8.2,0.8
		c-3-0.1-3.3,2.3-3.2,4.5c0,4.4-0.1,8.9-1,13.2c-0.2,0.8-0.2,1.6-1.3,1.6c-0.1-6.3,0-12.7-0.2-19c-0.1-2.4,0.7-3.1,3.1-3.1
		c10,0.2,20,0.1,30,0.2c0.3,0.2,0.5,0.4,0.4,0.7c-0.1,0.3-0.2,0.4-0.3,0.4c-0.1,18.3-0.1,36.5-0.2,54.8
		C774.6,314.5,774.3,314.5,774,314z"/>
	<path class="st15" d="M627.1,258.8c1.5,0.6,3.1,1.1,4.4,1.9c3.7,2.1,6.3,1.4,7.8-2.7c2.3,0.9,1.1,2.8,1.1,4.2
		c0.3,5.9-0.4,11.8,0.4,17.7c-0.1,1.6-1.1,1.6-1.7,0.5c-0.9-1.7-1.3-3.7-2-5.6c-2.1-5.9-4.8-11.4-10.1-15c-0.3-0.3-0.4-0.5-0.3-0.8
		C626.9,259,627,258.8,627.1,258.8z"/>
	<path class="st1" d="M374.9,308.8c2-1.8,4-3.6,6.1-5.5c0,0.7,0,1.6,0,2.5c0.1,12.2,0.1,12-12.1,11.4c-2.4-0.1-1.3-2-2.4-2.4
		C369.3,312.7,372.8,311.8,374.9,308.8z"/>
	<path class="st16" d="M420.2,274.1c-3.5-2.1-7.5-0.4-11.1-1.3c-0.1,0-0.1-0.3-0.1-0.4c0-0.2,0.2-0.3,0.3-0.4
		c11.2-0.4,22.4-1.5,33.6-0.5c4.1,0.4,8.3,0.5,12.4-0.3c2.6,0.3,5.2,0.4,7.8,0.9c3.2,0.6,5.4,2.3,5.2,5.9c-5.6-6.6-13.3-4.8-20.5-5
		c-1.8,0-2.6,1.2-3.7,2c-6.7-0.3-13.3,1.2-20,0C422.6,274.8,421.3,274.8,420.2,274.1z"/>
	<path class="st17" d="M840,258.1c4.5,0,10.2-1.6,13,0.5c2.9,2.3,0.8,8.4,1,12.8c0.2,3.4,0,6.9,0,10.3c-0.5,0.1-1,0.2-1.5,0.3
		c-0.9-3.6-1.8-7.2-2.6-10.8c0.3-3.3,2.6-6.8-1.2-10c-0.9,1.8,1.1,3.9-0.9,5.1c-3.2-3.2-6-7-11.2-7.2C837.5,258,839,259,840,258.1z"
		/>
	<path class="st18" d="M742.2,280c1.8-5.3,0.7-10.8,0.7-16.2c0-3.7,1-5.3,4.8-4.8c2.7,0.4,5.6-0.8,8.3,0.8
		c-8.3,3.1-9.8,10.7-11.6,18c-0.3,1.1-0.4,2.3-0.7,3.4c-0.2,0.6-0.7,1.4-1.3,0.6C742,281.4,742.2,280.6,742.2,280z"/>
	<path class="st1" d="M569.8,304.5c2.2-0.9,1.6,1.4,2.5,2.2c0.9,0.8,0.3,3.1,2.1,2.9c1.9-0.3,1.6-2.2,1.7-3.6c0-0.6,0.1-1.3,0.3-3.1
		c1.9,4.6,3.1,8.2,5.4,11.3c2,2.7,3.4,2.4,5.4,0.6c0.3,0.4,0.6,0.8,0.9,1.2c0.3,1.1-0.3,1.6-1.3,1.6c-4.3,0.1-8.6,0-12.9,0.1
		c-3.1,0.1-1.4-2.2-1.8-3.5C572.5,310.5,570.6,307.6,569.8,304.5z"/>
	<path class="st1" d="M123.8,315.9c2.4-1.2,4.8-2.5,7.2-3.7c3.7-1,5.4-4.1,7.4-6.9c0.7-0.8,0.9-2.5,2.4-2.1c1.1,0.3,0.7,1.7,0.7,2.6
		c0.7,11.5,0.5,11.7-10.7,11.6C128.4,317.5,125.7,318.1,123.8,315.9z"/>
	<path class="st12" d="M31,307c-2.8-2.8-3.2-6.6-3.7-10c-2.2-14.3-1.8-28.6,1.8-42.7c0.2-0.8,0.5-1.8,1-2.2c0.9-0.5,0.7,0.6,0.9,1.1
		c-3.7,13.4-3.1,27.1-2.9,40.8c0.1,3.7,1.8,7.3,2.8,11C31.6,305.6,31.6,306.3,31,307z"/>
	<path class="st19" d="M821,258.2c0,0.4,0,0.7-0.1,1.1c-5.9-0.3-10.6,1.9-14,6.8c-3.6-1.1,0.7-3.2-0.6-4.6c-3.5,1.5-4.1,3.4-1.8,6.3
		c0.7,0.9,1.2,1.4,0.6,2.4c-1,3.9-2.1,7.8-3.1,11.7c-0.4,0-0.8,0-1.2,0c0-7.6,0-15.1,0-22.7c0-1.5,1.4-1.1,2.3-1.1
		C809.1,258,815,258.1,821,258.2z"/>
	<path class="st10" d="M216.8,292c-1.6,2.7,0.1,2.8,2.2,3c3.3,0.3,6.8-0.9,10,0.8c-1.6,0.1-3.3,0-4.9,0.2c-2.9,0.4-6.9-1.6-8.4,1
		c-2.4,4.2-4.2,9.1-3.3,14.2c0.3,1.6,1.1,3,1.7,4.6c0.4,1-0.2,1.3-1,1.4c-2.9-1.5-3-4.5-3.9-6.9c-0.3,1.3-0.8,2.2-2.5,1.2
		c-0.1,0-0.1-0.3-0.1-0.4c0-0.2,0.1-0.3,0.2-0.4c4.1-7.9,6.9-16.4,10.2-24.7c1-0.2,1.4,0.4,1.7,1.2
		C219.1,289.2,218.7,290.9,216.8,292z"/>
	<path class="st6" d="M362.9,295.2c-2.4-3.9-5.9-6.4-10.1-8.1c0.1-0.3,0.3-0.5,0.6-0.7c0.5-0.4,1.2-0.5,1.7-0.7
		c-0.4-0.2-1-0.2-1.3-0.7c3.3-1.6,6.9-2.9,9-6.2c0.6,0.2,1.5,0.6,1.5,1.2C364.7,285.1,367,290.5,362.9,295.2z"/>
	<path class="st20" d="M123.8,315.9c3,1.1,6.2,1.1,9.3,1.1c7.2-0.1,7.7-0.5,7.9-7.9c0-1.7,0-3.3,0-5.1c-2,0.1-1.6,2.4-3,3
		c-0.4-0.2-0.7-0.5-0.8-1c0.9-2,1.9-3.9,2.6-5.9c0.7-1.9,1.1-3.9,2.3-5.7c0,7.5,0,15,0,22.5c0,1.1-0.8,1.3-1.7,1.3
		c-8.7,0-17.4,0-26.2-0.9C117.4,316.8,120.6,316.4,123.8,315.9z"/>
	<path class="st21" d="M879,294c-2-7.8-0.8-15.7-0.6-23.5c0-0.5,0.4-0.9,0.4-1.4c0.1-2.9,1.1-7.9,0.1-8.3c-3.3-1.4-7.3-1.6-10.9,0.2
		c0.4,0.6,0.3,1-0.2,1.4c-0.9-0.9-1.9-1.7-2.8-2.6c0.5-2.3,2.4-1.2,3.6-1.3c5.1-0.3,10.3,0.4,15.4-0.4c1.6-0.2,3.3-0.5,5.4,0.4
		c-2,0.5-3.6,0.8-5.1,1.4c-2.7,1-4.1,2.5-4,5.8c0.2,7.1-0.2,14.2-0.3,21.4C878.7,289.2,880.3,291.8,879,294z"/>
	<path class="st22" d="M78,253c-0.4-4.7,1-9.5-1-14.1c0.6-1.6,1.3-3.1,1.9-4.7c0.3,0.1,0.6,0.2,0.9,0.3c0,11.2,0,22.3,0,34.9
		c-2.7-3.9-3.3-7-3.8-10.2c-0.3-0.6-0.5-1.7-0.1-1.7c1.7,0.1,1.9-0.2,1.3-1.8C76.7,254.8,77.2,253.7,78,253z"/>
	<path class="st1" d="M371,264.8c-1.8-1.2-3.5-2.5-5.3-3.7c2.1-1.9,10-3,12.4-1.8c0.5,0.2,1.1,0.6,1.1,0.9c-0.2,4.4,2,9.1-1.4,13.1
		c-0.9-1.5-1.7-3-2.6-4.5C374.8,266.6,373.4,265.2,371,264.8z"/>
	<path class="st3" d="M529.7,241.1c4.5-2.6,8.2,0.2,12.1,1.7c1.3,0.5,2.1,3,4.2,1.4c1.8,0.7,3.1,2,3.8,3.8c-0.5,2.8-1.5,4-4,1.3
		c-1.6-1.6-3.7-2.7-5.2-4.4c-2.3-2.7-2.6,0.1-3.6,1c-0.8,0.5-1.8-0.5-2.6,0.3C532,245.4,530.1,243.9,529.7,241.1z"/>
	<path class="st23" d="M118,283.1c4.3-3.9,4.6-4.3,7.1-11.8c0,4.6,0,9.1,0,13.7c0,4.5,0,9.1,0,13.6c-2-4-4.8-7.1-8.1-9.7
		c1.9-1.3,1.9-1.3,4.6-0.2C121.8,285.4,121.8,285.4,118,283.1z"/>
	<path class="st24" d="M300,291c2,1.7,2,4,2,6.4c0.1,3.6-0.1,7.2,0.8,10.9c1.9,8.2,6.2,10.7,14.5,7.6c2.5,0.3,3.6-1.8,5.3-3
		c0.5-0.5,0.9-0.4,1.3,0.1c-3.6,5.9-7.6,7.5-14.7,5.5c-6-1.6-8.1-4.8-8.2-12.9c-1.1-3.8,0.2-7.8-0.8-11.6c-0.3-0.2-0.3-0.4-0.3-0.7
		C299.5,292.5,299.4,291.7,300,291z"/>
	<path class="st25" d="M552.2,293.7c-0.3,0.9-0.6,1.8-1,2.8c-1.3,5.1-3.7,10-3.2,15.5c-2.5,1.6-2.6-3-4.9-2c4-8.7,8.1-17.5,10.2-27
		c1.6,0,2,1.2,2.4,2.4C555.3,288.5,555.1,291.7,552.2,293.7z"/>
	<path class="st26" d="M377.8,273.4c2-3.5,1-7.4,1.1-11.1c0.1-1.3-0.7-2.3-2.1-2.2c-3.7,0.1-7.6-0.9-11.1,1
		c-2.6-0.7-5.2-1.4-7.8-2.1c-0.3-0.2-0.4-0.4-0.3-0.6c0.1-0.2,0.2-0.3,0.3-0.3c6.5,0,12.9,0,19.4-0.2c1.9,0,3.1,0,3,2.5
		c-0.2,6.1-0.1,12.2-0.1,19.4C378.4,277.4,378.3,275.3,377.8,273.4z"/>
	<path class="st27" d="M455.2,271.1c-10.8,1.5-21.7,0.7-32.6,0.8c-4.5,0-8.9,0-13.4,0c-0.1-0.3-0.2-0.6-0.1-0.9
		c4.7-0.8,9.6,1.3,14.1-1.2l0.4-0.2l0.4,0.3c6,0.9,12,0.6,18,0.1C446.2,272.4,450.9,269.8,455.2,271.1z"/>
	<path class="st28" d="M118,283.1c2.2,2,2.8-1.7,4.8-1.2c0,3.1,0,6.1,0,9.1c-2.6,0.7-2.8-4.2-5.8-2.1c-2-0.7-4-1.4-6-2.1
		c-1-0.6-2-1.1-3-1.7C111.5,285.1,114.8,284.4,118,283.1z"/>
	<path class="st19" d="M795,259c0,7.6,0,15.1,0,24.2c-2.3-4-2.6-7-3.1-9.9c1.4-2.6,0.9-5.3,0.8-8c-0.1-1.9-0.4-3.6-2.9-3.8
		c-1.3,1.3,2.9,3.9-1,4.6c-1.8-2.6-3.9-4.8-6.8-6.2c0.2-2.1,1.9-1.4,2.9-1.3C788.3,258.7,791.7,258,795,259z"/>
	<path class="st8" d="M401.1,277c3.9,2.9,8.5,2,12.9,2c5.1-0.1,9.7,1.1,14.1,3.5c1.5,0.8,3,1.5,3,3.5c-0.4,0.3-0.8,0.4-1.2,0.2
		c-2.2-1.5-5-2-6.9-4c-4.7-1.8-9.7-1.1-14.6-1.3c-2.7-0.1-5.7,0.2-7.5-2.6C400.5,277.8,400.6,277.4,401.1,277z"/>
	<path class="st29" d="M788.8,266.1c2.5-3-2.3-3.3-1.9-5.9c2.4,0.1,5.1-1.4,6.8,1.7c1.4,2.4,0,10.1-1.8,11.5
		C790.9,270.9,789.8,268.5,788.8,266.1z"/>
	<path class="st30" d="M606,303c-4.1-1.7-1.8-5.6-2.4-8.3c-1.8-8.4-0.1-16.8,2.3-25c0.3-1.2,1-1.6,2.2-1.7
		c-4.2,9.6-3.2,19.6-2.6,29.6C605.6,299.4,605.8,301.2,606,303z"/>
	<path class="st31" d="M490.1,313c1.6,1.3-0.4,2.3-0.3,4c6.9-0.7,13.7,1.2,20.5-1.2c3.5,0.5,7.1,1,11.1,1.5
		c-3.6,1.1-36.7,1.3-42.8,0.3C483,316.3,487.7,317.2,490.1,313z"/>
	<path class="st32" d="M181,317.2c0,0.6,0,1.1,0,1.7c-8.7,1.7-16.1-1.2-23-6.1c-0.9-0.6-2.6,0.3-2.9-1.1c-0.3-1.4,1.6-1.8,2.1-3
		c0.2-0.4,0.5-0.7,0.9-0.8c2.1,1.8,4,3.8,6.2,5.5C169.2,317.4,174.8,318.8,181,317.2z"/>
	<path class="st10" d="M867.8,262.5c0.1-0.5,0.2-1,0.2-1.4c1.7,1.4,2,3.3,2,5.4c0,14.3,0,28.6,0,42.9c0,1.9,0.1,3.7-2,4.7
		c-0.5-0.4-0.5-0.9-0.2-1.4c-0.1-0.3-0.1-0.5,0.2-0.7c1-7.6,0.4-15.2,0.4-22.7c0-8.4,0.5-16.8-0.3-25.2
		C868,263.5,867.9,263,867.8,262.5z"/>
	<path class="st33" d="M418.2,294c1.5-0.8,0.1-3.3,2.2-3.8c0,2,0.6,3.9,0.6,5.8c1,5.5,0.9,11,1.8,16.5c0,3.2,1.5,6.2,1.2,9.5
		c0,0.5-0.1,1.1-0.1,1.6c-0.3,0.8-0.7,1.4-1.7,1.4C420.8,314.6,419.5,304.3,418.2,294z"/>
	<path class="st34" d="M424,269.8c-0.3,0-0.5-0.1-0.8-0.1c-0.1-11.3-0.1-22.5-0.1-33.8c0-1.1-0.5-2.4,0.9-3.1
		c3,3.2,0.1,7.2,1.5,10.6c-0.3,5.5,0.8,11.1-0.6,16.5C423.2,263.2,424.4,266.5,424,269.8z"/>
	<path class="st6" d="M130.9,264.1c1.5-2.3-1.9-2.1-1.8-3.6c9.2-1.1,9.2-1.1,8.8,8.5c-1.2,0.8-1.5-2.7-3-0.6
		C133.5,266.9,132.2,265.5,130.9,264.1z"/>
	<path class="st35" d="M506.2,305.6c-0.1,2.1-0.3,4.2-0.4,6.3c-0.8-9.1-2.4-18.2-1.7-27.4c0.1-1.6,0.8-3.1,1.3-4.6c0,0,0.3,0,0.4,0
		c0.1,0.1,0.2,0.2,0.4,0.3C506.2,288.8,506.2,297.2,506.2,305.6z"/>
	<path class="st36" d="M170.3,259.1c-0.7-0.3-1.5-0.6-2.2-1c6.1-1.7,11.7-0.6,16.8,3.1c1.9,1.4,3.9,2.5,6.2,0.8
		c0.4,0.4,0.5,0.8,0.5,1.4c-1,2.6-2.9,3.2-5.5,2.6C181.9,261.2,176.7,258.7,170.3,259.1z"/>
	<path class="st16" d="M336,262c0,17,0,33.9,0,51.1c-1.3-0.6-0.8-1.6-1.1-2.3c0-15.8,0-31.6,0-47.5C334.4,262.1,335,261.9,336,262z"
		/>
	<path class="st37" d="M805.1,270.1c0-2.1-3.1-0.3-3.2-3.2c-0.4-6.6,0.2-7.5,7.3-6.5c0.5,2.4-4.2,2.6-2.2,5.5
		C806.8,267.6,806,268.9,805.1,270.1z"/>
	<path class="st38" d="M548.1,313.8c2.3,1.7,4.8,3.2,7.8,3.2c-0.1,0.4,0.2,1.1-0.5,1.2c-7.7,0.1-15.5,0.9-23.1-0.4
		c2.2-1,4.4-2,6.6-2.9C541.8,314.2,545.1,315,548.1,313.8z"/>
	<path class="st1" d="M868.1,264c1,0.9,0.9,2.1,0.9,3.2c0,13.9,0,27.7,0,41.6c0,1.1,0.1,2.3-0.9,3.2C868.1,296,868.1,280,868.1,264z
		"/>
	<path class="st39" d="M154.1,314.2c-0.5,1.3-0.9,2.6-1.4,3.9c-0.2-0.1-0.5-0.1-0.7-0.2c0-8.5,0-17.1,0-26.8
		c2.3,6.3,4.2,11.6,6.2,16.8l-0.2,0.2c-4.2-0.3-3.5-4.3-4.8-6.7C154.9,305.5,154.3,309.9,154.1,314.2z"/>
	<path class="st40" d="M606,314.9c0.9-1.5,2.1,0,3.2-0.3c-0.6-3.4-4.5-5.6-3.3-9.6c3,5,4.9,11.2,12.1,12.1c1.8,1.3,4.6-1.1,6,1.8
		C617.5,319.6,611.5,318.6,606,314.9z"/>
	<path class="st41" d="M206.9,310.7c5.4-1.2,4,4.2,6.1,6.3c-2.6,1.9-5.6,0.9-8.4,0.8c-1.7,0-1.9-1.4-1.7-2.8
		C204.2,313.5,205.5,312.1,206.9,310.7z"/>
	<path class="st42" d="M424.8,243c-1.7-3.3-0.4-6.8-0.9-10.1c1.3-1.4,2.7-2.7,4-4.1c2.2-1,3,0.8,4,2.1c0,0,0.1,0.2,0.1,0.2
		c-0.2,1.3-0.5,2.3-2.2,2.5c-1.8,0.1-2.7,1.4-2.6,3.3c0,0-0.1,0.1-0.1,0.1c-1,0.7-1,1.9-1.4,2.9C425.2,240.9,426,242.2,424.8,243z"
		/>
	<path class="st43" d="M847.8,266.4c0.8-2.4-1.2-3.9-2.3-6.1c2.4,0,5.4-1.5,6.1,1.2c0.8,3.2,1.7,7.1-1.7,9.8
		C849.2,269.6,848.5,268,847.8,266.4z"/>
	<path class="st22" d="M346.2,309.7c-0.1,1.4-0.3,2.9-0.4,4.3c-0.8-7.3-2.3-14.5-1.8-21.8c0.1-2,0.2-4,2.3-5.1
		C346.2,294.6,346.2,302.1,346.2,309.7z"/>
	<path class="st22" d="M627.1,258.8c0,0.4,0,0.7-0.1,1.1c-6.8-3.3-12.4-1.7-17.1,4c-0.5-1.6,0.7-4.4-2.8-3.8
		C613.5,256.2,620.1,255,627.1,258.8z"/>
	<path class="st25" d="M14.1,259c1.3,4.8-1.3,9.1-1.4,13.8C12.5,277,12.2,281,13,285c-0.5,0.5-0.8,1.5-1.9,1
		C10.2,276.8,10.2,267.7,14.1,259z"/>
	<path class="st3" d="M543.2,273.1c-0.6-0.1-1.7-0.2-1.4-0.8c1.3-3.1,3.6-5.3,6.1-7.5c1.7-1.4,2.1,0.7,3.1,1.2
		C549.3,269.4,547.3,272.4,543.2,273.1z"/>
	<path class="st28" d="M565.1,257.8c-2.2,6-5.9,11.5-6,18.2c0.3,0.2,0.4,0.5,0.3,0.7c0,0.3-0.1,0.4-0.2,0.4
		c-0.6,0.4-1.2,0.5-1.9,0.4c-0.7-0.3-0.9-0.9-1.2-1.5c2-5.7,3.8-11.5,5.9-17.1C562.5,257.7,563.2,255.6,565.1,257.8z"/>
	<path class="st5" d="M154.1,314.2c-2.1-4.2-0.6-8.7-1.2-13.6c2.4,2.4,2.2,5.9,5,7.4c-0.4,0.9,1.4,2.1-0.4,3c-0.9,0.4-0.7,1,0.5,1.8
		C156.4,312.6,155.2,313.2,154.1,314.2z"/>
	<path class="st44" d="M234.1,270.8c-0.2,0.9-0.5,2.5-1.4,0.4c-1.5-3.5-2.7-7-4-10.6c-3,1.3-1.1,5.9-4.7,6.4c0.6-3.6,1-8.1,4.3-9.5
		c1.2-0.5,2.7,5.4,4.3,8.3C233.5,267.3,232.5,269.4,234.1,270.8z"/>
	<path class="st36" d="M191,287.1c-2.2,1.7-3.6-0.7-5.3-1.1c-6.2-1.5-12.4-3.3-18.5-5.1c-1.9-0.6-3.8-1.3-5.1-2.8
		c0.4-0.4,0.7-0.4,1.1-0.1C172.1,282,182.5,281.5,191,287.1z"/>
	<path class="st45" d="M548.1,313.8c-2.6,4.3-6,1.9-9.3,1c0.9-2.1,3.9-2.4,4.3-4.9c2.6-1.7,3,2.1,4.9,2
		C548,312.6,548,313.2,548.1,313.8z"/>
	<path class="st46" d="M681.1,276c0.2,0.2,0.6,0.5,0.6,0.7c-1.8,7.5-1.9,15,0,22.5c0,0.2-0.4,0.5-0.6,0.7
		C677.6,292,677.5,284,681.1,276z"/>
	<path class="st47" d="M867.9,312.7c0.1,0.5,0.1,0.9,0.2,1.4c0.3,1-1.5,3,1,2.9c4.3-0.1,8.8,1,13-0.9c2.3,0.5,4.7,0.9,7.8,1.5
		c-2.4,1.3-4,0.6-5.6,0.7c-6.5,0.7-13.1,0.2-19.6,0.3c-0.9,0-1.6-0.2-1.5-1.4C865.7,316.7,866.3,314.2,867.9,312.7z"/>
	<path class="st48" d="M654.1,314c0.7,1.7,1,3.5,3.7,3.1c3.7-0.6,7.6,0.8,11.2-1.1c2.3,0.6,4.9,0.2,6.9,2
		c-8.6,1.1-17.2,0.3-25.7,0.5c-0.8,0-1.2-0.5-1.1-1.3C651.4,317.1,652.7,315.5,654.1,314z"/>
	<path class="st41" d="M186,266c1.6-1.1,4.1-0.7,5-3c2.9,2.8,2.8,8.4-0.1,12.2C189.3,272.1,187.7,269,186,266z"/>
	<path class="st49" d="M236.1,314c0.6,1.8,1,3.5,3.7,3c4.4-0.7,8.9,0.9,13.2-1.1c1.2,0.5,2.4,1,4.9,2c-10.4,0-19.6,0-29.6,0
		C231.3,316.4,234.8,317,236.1,314z"/>
	<path class="st50" d="M690,311.9c1.8-1.8,2.5,0.5,3.7,1c2.1,0.7,3.9,2.8,6.4,1.1c2.9,0.1,5.5,0.8,7.1,3.6c-0.9,1.5-2.2,0.9-3.5,0.7
		C698.5,317.5,693.9,315.6,690,311.9z"/>
	<path class="st51" d="M362.9,295.2c1.8-5.5,1.8-11,0-16.5c0.4-1.9,0.8-3.8,1.3-5.7c2.6,0.6,1.3,2.7,1.3,4.1
		c0.4,7.3-0.4,14.6,0.4,21.9c-0.4,1.3-1.2,1.5-1.8,0.3C363.4,298.1,363.3,296.6,362.9,295.2z"/>
	<path class="st52" d="M572,314c0.7,2,1.5,3.5,4.2,3c3.9-0.7,8.1,1.2,11.9-1.2c1.4,0.3,2.7,0.6,4.1,2.2c-9.4,0-18.2,0-28.1,0
		C567.2,316.4,570.6,316.9,572,314z"/>
	<path class="st53" d="M774,314c0.3,0,0.6,0,0.8,0c1.8,2.3,4.3,2.9,7.1,3.1c0,1.9-1.2,1.2-2.2,1c-7.5,0-15,0-22.5,0
		c-1,0.2-2.1,0.9-2.2-1c1.7-0.4,3.3-0.8,5-1.2c4.1,1.9,8.5,0.7,12.8,0.9C775.4,317.1,773.7,315.1,774,314z"/>
	<path class="st54" d="M649.1,317.2c7,1.5,14,0.3,21,0.7c2,0.1,3.9,0.1,5.9,0.2c-3.2,1.6-6.6,0.5-9.9,0.6
		c-6.7,0.2-13.3,0.1-20.5,0.1C646.6,316.5,647.9,317,649.1,317.2z"/>
	<path class="st46" d="M459.9,286.8c0.1,1.3-0.4,2.1-1.4,3c-3.5,3.2-3.3,6.3,0.7,9.4c0,1.8-1.1,2.9-2.6,3.8
		C453.1,294.4,453.7,291.4,459.9,286.8z"/>
	<path class="st55" d="M696.9,265c-0.2-2.4-2-2.6-3.8-3c2.6-2.9,6.3-3.3,9.7-4.1c1.2-0.4,2.4-0.9,3.4,0.5
		C703.9,261.7,700.2,263.1,696.9,265z"/>
	<path class="st56" d="M818.8,315.9c5.5,1.7,10.9,1.7,16.4,0c1.9,0.4,3.8,0.8,5.7,1.3c0,1.9-1.2,1.2-2.2,1c-7.5,0-15,0-22.5,0
		c-1,0.2-2.2,0.9-2.2-1C815.7,316.7,817.2,316.3,818.8,315.9z"/>
	<path class="st57" d="M268.1,315c4.4,3.6,9.2,2.1,13.9,1c2,0.4,3.9,0.8,5.9,1.2c-0.1,1.9-1.3,1.2-2.2,1c-7.2,0-14.3,0-21.5,0
		c-1,0.4-1.3,0-1.2-1C265,317,266.7,316.4,268.1,315z"/>
	<path class="st58" d="M336,262c-0.4,0.4-0.7,0.9-1.1,1.3c-1-2.1-2.8-2.9-4.8-3.5c0.6-2.2,2.4-1.2,3.6-1.2
		c5.4-0.3,10.9,0.4,16.3-0.4c0.7,0,1.3,0,2-0.1c0.4,0.2,0.5,0.4,0.4,0.6c-0.1,0.2-0.2,0.4-0.3,0.4c-1.3,0.6-2.7,1.3-4,1.9
		c-3.7-1.8-7.7-0.8-11.5-0.9C335.2,260.1,335.9,261.3,336,262z"/>
	<path class="st29" d="M78,253c0,2.3,0.6,4.7-2.1,6.2c-1-2.4-2.1-4.7-3.1-7.1c1.6-0.3,0.2-2.1,1.6-2.9C75.6,250.4,76.8,251.7,78,253
		z"/>
	<path class="st56" d="M202.9,315c2.7,3.9,6.7,1.3,10.1,2c0.4-0.4,0.7-0.7,1.1-1.1c2,0.4,3.9,0.8,5.9,1.2c0.1,1.2-0.6,1.3-1.5,1.3
		c-6.6,0-13.2,0-19.8,0c-0.9,0-1.6-0.3-1.5-1.4C199,316.4,200.9,315.7,202.9,315z"/>
	<path class="st59" d="M365.8,299.1c-2-6.7-0.3-13.6-0.9-20.4c-0.2-1.9,0.9-3.9-0.8-5.6c-0.1-0.8-0.2-1.9,0.8-1.9
		c1.4,0,1.1,1.4,1.1,2.3C365.9,282,365.9,290.5,365.8,299.1z"/>
	<path class="st46" d="M282,259c0,0.3,0,0.6,0,0.9c0.6,1.7-0.5,2.1-1.8,2.3c-0.3-0.2-0.5-0.4-0.4-0.7c0.1-0.3,0.1-0.4,0.2-0.4
		c-3.6-1.8-7.3-1.8-10.9,0c0.5,0.8,0.6,1.5-0.2,2.2c-0.9-4.1-4.9-3.5-8.2-4.7c2.2-0.9,3.8-0.6,5.4-0.4
		C271.3,259.3,276.7,257.7,282,259z"/>
	<path class="st60" d="M190.9,275.1c1-4.1,2.1-8.1,0.1-12.2c0-0.3,0-0.7,0-1c1-0.6-0.1-4.1,2.8-2c-0.5,6.3-0.5,12.7,0.1,19
		C190.4,279.6,191.8,276.5,190.9,275.1z"/>
	<path class="st61" d="M92.9,316c5,1.6,10.1,1.6,15.1,0c1.2,0.4,2.5,0.9,3.7,1.3c0,0.3,0,0.6,0,0.8c-7.2,0-14.4,0-21.6,0
		c-0.9,0.2-2.1,0.9-2-1C89.7,316.8,91.3,316.4,92.9,316z"/>
	<path class="st62" d="M863.1,317.1c5.2,1.5,10.5,0.3,15.7,0.7c1.8,0.1,3.6,0.3,5.4,0.4c-8.3,0-16.7,0-25.4,0
		C860,316.5,861.6,317.1,863.1,317.1z"/>
	<path class="st63" d="M106.1,312.7c-0.3,0.4-1,1.4-1,1c0-8.7-0.8-17.4,0.3-26.1c0-0.2,0.5-0.4,0.8-0.6
		C106.2,295.6,106.2,304.2,106.1,312.7z"/>
	<path class="st63" d="M879,294c0.4-2.3-0.9-4.9,0.9-7c0.1,7.6,0.2,15.1,0.2,22.7c-0.2,1.4-0.4,2.8-0.6,4.2c-0.2,0-0.4,0-0.6,0
		C879,307.3,879,300.6,879,294z"/>
	<path class="st64" d="M313.1,309.9c-0.3,0.3-0.4,2.3-1,0.4c-1.5-4.7-1.7-9.5-0.2-14.3C313.6,300.5,312.4,305.3,313.1,309.9z"/>
	<path class="st65" d="M884,258.1c-3.8,1.9-7.8,0.4-11.7,0.9c-2.4,0.3-5-0.8-7.2,0.9c-1.9-0.4-3.8-0.7-5.6-1.1c0-0.2,0-0.5,0-0.7
		C867.6,258.1,875.8,258.1,884,258.1z"/>
	<path class="st66" d="M197.1,317.1c7.6,1.3,15.2,1.2,22.9,0c1.6,0.4,1.4,1.6,0.2,1.6c-7.7,0.1-15.5,0-23.2-0.1
		c-0.2,0-0.4-0.7-0.6-1.1C196.5,317.3,196.8,317.2,197.1,317.1z"/>
	<path class="st67" d="M296,285.1c0.4,0.3,0.8,0.7,1.2,1c-0.2,1.6,1.5,1,2.1,1.8c-1.1,1.6-2.8,0.7-4.2,0.9c-3-0.4-6-0.8-9-1.2
		c-0.6-0.8-0.5-1.5,0.4-2.1C289.6,284.7,292.7,283.6,296,285.1z"/>
	<path class="st68" d="M350,258.2c-4.1,1.8-8.5,0.4-12.7,0.9c-2.4,0.3-5-0.8-7.2,0.8c-1.4-0.3-2.8-0.5-4.3-0.8c0-0.3,0-0.6,0-0.9
		C333.9,258.2,341.9,258.2,350,258.2z"/>
	<path class="st63" d="M667.1,312.7c-0.3,0.4-1,1.4-1,1c0.3-8.2-1.3-16.5,0.7-24.7C667,296.9,667.1,304.8,667.1,312.7z"/>
	<path class="st69" d="M532.2,317.8c7.9-0.4,15.8,1,23.7-0.7c1.3,0.1,1.1,1.5,0.6,1.5C548.4,318.3,540.2,319.9,532.2,317.8z"/>
	<path class="st70" d="M109,258.2c0,0.3,0,0.6,0,0.8c-5.9,1.4-12-0.2-18,0.9c-1.8-0.3-3.7-0.7-5.5-1c0-0.2,0-0.5,0.1-0.7
		C93.4,258.2,101.2,258.2,109,258.2z"/>
	<path class="st25" d="M282,259c-5.3-0.5-10.7,1-16-0.9c8.7,0,17.3,0,26,0C288.8,259.8,285.3,258.6,282,259z"/>
	<path class="st58" d="M295,288.8c1.2-1.2,2.8-0.4,4.2-0.9c3.3-0.1,6.3,0.9,8.7,3.3c-2.8,1.4-4.6-1.5-7.1-1.8
		c-2-0.2-1.1,0.8-0.9,1.6c0,0.8-0.1,1.5-0.1,2.3C298.5,291.5,297.2,289.7,295,288.8z"/>
	<path class="st71" d="M640.9,280c-1.9-4.5-0.4-9.1-0.9-13.7c-0.3-2.7,0.7-5.6-0.7-8.3c2.3-1.4,1.5,0.7,1.5,1.4
		C640.8,266.3,640.8,273.2,640.9,280z"/>
	<path class="st72" d="M639.9,303.7c-0.3,4.1-1.6,7.6-5.8,9.3c-0.4,0.3-0.7,0.3-1.1,0c1.9-2.8,4.2-5.3,5.1-8.6
		C638.3,303.3,638.8,302.6,639.9,303.7L639.9,303.7z"/>
	<path class="st73" d="M91,259.9c5.9-2.1,12-0.4,18-0.9c0.4,0,0.7,0,1.1,0c0.3,0.2,0.4,0.4,0.3,0.6c-0.1,0.2-0.2,0.2-0.4,0.2
		c-1.3,0.8-2.5,1.6-3.8,2.5c-0.6-0.4-0.6-0.8-0.2-1.3c-4.3-1.9-8.6-1.4-12.9-0.1C92.4,260.6,91.7,260.3,91,259.9z"/>
	<path class="st8" d="M795,259c-4.3,0.5-8.8-1.1-13,0.9c-2.3-0.2-4.6-0.5-6.9-0.7c0-0.4-0.1-0.7-0.1-1.1
		C781.7,258.4,788.4,256.8,795,259z"/>
	<path class="st74" d="M106,261.1c0.1,0.4,0.1,0.8,0.2,1.3c0,7.5,0.1,15.1,0.1,22.6c-1.3-0.6-1.4-1.8-1.3-2.9
		C105.6,275,103.8,267.9,106,261.1z"/>
	<path class="st75" d="M346.3,284.9c-2.3-1.6-1.2-3.9-1.2-5.9c-0.2-5.3-0.1-10.6-0.1-16.1c1.3,0.7,0.8,1.7,1.1,2.4
		C346.2,271.8,346.2,278.4,346.3,284.9z"/>
	<path class="st76" d="M428,360.9c-0.1-1.1-0.1-2.3-0.2-3.4c-1.1-1.1-0.7-2.7-1.3-4c0-0.8,0-1.5,0.9-1.9c0.6-0.1,1.1,0,1.6,0.3
		c2.4,4.1,2.5,8.6,2.3,13.1c-0.2,1.4-0.3,2.9-2.2,3.3C428.4,365.8,427.7,363.4,428,360.9z"/>
	<path class="st58" d="M194.8,310c0.8-5.3,2.2-10.5,2.1-15.9C199.6,299.8,197.8,305,194.8,310z"/>
	<path class="st77" d="M193.8,279c-1.4-6.3-1.4-12.7-0.1-19C193.8,266.3,193.8,272.7,193.8,279z"/>
	<path class="st32" d="M245,298.9c-0.2,0.4-0.4,0.8-0.6,1.2c-1.7-3.9-4.8-7.3-3.6-12.1C241.7,291.8,244.5,294.9,245,298.9z"/>
	<path class="st78" d="M422.2,325c0.3-0.4,0.6-0.7,0.9-1.1c2.1,0,1.1,2,1.7,2.9c0.1,2,0.9,4,0.6,6c-0.5,1.1-0.2,2.6-1.5,3.4
		C422.5,332.6,422.7,328.7,422.2,325z"/>
	<path class="st79" d="M705.9,258.8c-0.7-1.3-2.1-0.5-3.1-1c3.8-1.4,7.6-1.6,11.3,0c-0.7,0.3-1.7,0-2.1,1
		C710,260.7,708,260.7,705.9,258.8z"/>
	<path class="st70" d="M624,318.9c-1.6-1.9-4.4,0.2-6-1.8c3.6,0.1,7.2-0.1,10.7-1.2c1.2-0.5,1.3,0.1,1.3,1.1
		C628.2,318.2,626.2,318.9,624,318.9z"/>
	<path class="st48" d="M556.1,276c0.3,0.4,0.7,0.9,1,1.3c1,3.1,0.7,5.8-2.3,7.7c-0.5-0.6-1-1.3-1.6-1.9
		C554.2,280.7,555.2,278.4,556.1,276z"/>
	<path class="st44" d="M583.1,304.7c-0.2,0.5-0.6,1.6-0.8,1.3c-1.3-3.2-3.8-6.2-2.4-10C581.8,298.6,581.5,302,583.1,304.7z"/>
	<path class="st40" d="M230.9,297.2c3.1,1.7,4.3,4.3,3.2,7.8C232.5,302.6,231.5,300,230.9,297.2z"/>
	<path class="st80" d="M280.1,313.8c-2.1-4.5-1.5-9.1-0.2-13.7C280,304.6,280.1,309.2,280.1,313.8z"/>
	<path class="st81" d="M703.7,318.2c1-0.6,2.5,0.2,3.2-1.1c1.3-1.5,3-1.3,4.6-1c1.1,0.4,2.1,0.9,2.6,2
		C710.7,319.5,707.2,319.5,703.7,318.2z"/>
	<path class="st82" d="M423,282.2c2.4,1.1,5.1,1.8,7,3.9c0.3,0.1,0.4,0.3,0.3,0.5c-0.1,0.2-0.2,0.3-0.3,0.3c-3.5-0.5-6-4.2-10-2.9
		C421,283.3,422,282.8,423,282.2z"/>
	<path class="st83" d="M639.9,303.7C639.9,303.7,640,303.7,639.9,303.7c-1.5-2.4-0.9-4.8,0.5-7.1C641.3,299,641.8,301.4,639.9,303.7
		z"/>
	<path class="st19" d="M137.2,306c0.3,0.3,0.5,0.7,0.8,1c-2.2,1.9-2.8,5.9-7,5.1C133.1,310.1,135.2,308.1,137.2,306z"/>
	<path class="st29" d="M69,244.9c-0.1-1.1-0.2-2.2-0.3-3.5c1.6-0.2,3.1,0.4,3.5,1.8c0.4,1.4-1.2,2.1-2.3,2.7
		C69.7,245.6,69.3,245.3,69,244.9z"/>
	<path class="st84" d="M279.9,299c-1.5-4-1.4-8,0-11.9c0.7,0.3,0.8,0.7,0.3,1.2C280.1,291.8,280,295.4,279.9,299z"/>
	<path class="st85" d="M425.9,350c-1.2-1.8-0.7-3.9-1-5.9c-0.3-1.3-1.1-2.8,1-3.3c1.5,2.9,1.3,6,1.4,9
		C426.9,350.3,426.4,350.4,425.9,350z"/>
	<path class="st86" d="M428,360.9c1.1,2.2,0.7,4.7,1.2,7.1c0.3,0.3,0.4,0.7,0.3,1.1c-0.2,0.6-0.6,1.1-1.4,0.8
		C428.6,366.9,425.8,364,428,360.9z"/>
	<path class="st87" d="M218.2,287.3c-0.4-0.4-0.8-0.9-1.2-1.3c0.6-1.8,0.3-3.9,2.3-5c0.2-0.2,0.3-0.2,0.5,0
		C221.6,283.7,220.9,285.8,218.2,287.3z"/>
	<path class="st3" d="M300.2,294c1.8,3.8,0.5,7.7,0.8,11.6C299.5,301.8,300.8,297.8,300.2,294z"/>
	<path class="st88" d="M110,259.9c0-0.3,0.1-0.6,0.1-0.8c3.6,0.3,7.4-1.3,10.9,0.8C117.3,259.9,113.6,259.9,110,259.9z"/>
	<path class="st89" d="M401.1,277c0,0.4-0.1,0.8-0.1,1.3c-0.9-0.3-1.1-1.1-1.1-1.9c-0.5-2.9-0.5-5.8,0-8.7c-0.2-0.3-0.1-0.5,0.2-0.6
		C402,270.2,400.5,273.7,401.1,277z"/>
	<path class="st77" d="M814.1,317.2c0.7,0.3,1.5,0.7,2.2,1c-2,0.5-3.9,1-6.5-0.2C811.4,316.7,812.7,317,814.1,317.2z"/>
	<path class="st2" d="M31,307c0-0.7,0-1.4,0-2.1c1,1.9,2.1,3.8,3.1,5.7C30.8,311.4,31.8,308.4,31,307z"/>
	<path class="st90" d="M280.1,288.3c-0.1-0.4-0.2-0.8-0.3-1.2c0.7-0.3,1.4-0.6,2.1-0.9c1.3-1.3,2.7-1.3,4,0c0,0.5,0,0.9,0,1.4
		C284.1,288.2,282,287.1,280.1,288.3z"/>
	<path class="st91" d="M630,317c-0.4-0.4-0.8-0.7-1.3-1.1c1.4-1,2.8-1.9,4.2-2.9c0.4,0,0.7,0,1.1,0C633.8,315.5,631.8,316.2,630,317
		z"/>
	<path class="st55" d="M459.1,299.2c0-2.8,1.9-4.1,4.2-5.1C463.2,296.9,460.9,297.8,459.1,299.2z"/>
	<path class="st92" d="M371,264.8c3.1-0.3,4.5,1,4.1,4.1C373.8,267.6,372.4,266.2,371,264.8z"/>
	<path class="st92" d="M312.1,265.8c-2.8,0.3-3.9-1.3-4-3.8C309.9,262.8,311.2,264,312.1,265.8z"/>
	<path class="st93" d="M779.8,318.1c0.7-0.3,1.5-0.7,2.2-1c1.2-0.1,2.5-0.5,4,0.7C783.7,319.1,781.7,318.6,779.8,318.1z"/>
	<path class="st47" d="M30,240.1c0,0.6,0,1.3,0,1.9c-1.9,0.2-2.2,3.9-5,2.2C26.5,242.5,28,241.1,30,240.1z"/>
	<path class="st63" d="M353.8,284.9c0.5,0.3,1.4,0.7,1.4,0.9c-0.3,1.2-1.5,1-2.4,1.3c-0.9-0.1-1.9-0.2-2.8-0.2
		c0.7-0.6,1.3-1.1,2-1.7C352.6,285.1,353.2,285,353.8,284.9z"/>
	<path class="st80" d="M11.1,286c0.6-0.3,1.2-0.7,1.9-1c-0.3,2,0.7,4.2-0.8,6C11.5,289.4,10.6,287.8,11.1,286z"/>
	<path class="st94" d="M755.1,317.2c0.7,0.3,1.4,0.7,2.2,1c-1.8,0.6-3.7,0.9-6.1-0.3C752.7,316.8,753.9,316.9,755.1,317.2z"/>
	<path class="st3" d="M399.8,267.6c0,2.9,0,5.8,0,8.7C398.4,273.4,398.5,270.5,399.8,267.6z"/>
	<path class="st77" d="M838.7,318.2c0.7-0.3,1.5-0.7,2.2-1c1.1-0.1,2.2-0.6,3.4,0.7C842.4,319.1,840.6,318.7,838.7,318.2z"/>
	<path class="st92" d="M426.9,224.2c2.6,0.1,3.3,0.8,4,4.2c-1,0.1-1.4-0.6-1.9-1.3C428.3,226.1,427.6,225.1,426.9,224.2z"/>
	<path class="st95" d="M88.1,317.2c0.7,0.3,1.4,0.6,2,1c-1.7,0.7-3.4,1-5.2,0C85.6,316.3,87.1,317.4,88.1,317.2z"/>
	<path class="st96" d="M431.2,383.9c-0.3,0-0.7,0.1-1,0.1c0.4-1.8-1.6-3.2-0.9-5c0.2-0.8,0.5-1.4,1.5-1.2c1.3,0.8,1.2,2.1,1.2,3.3
		C432,382.1,431.9,383.1,431.2,383.9z"/>
	<path class="st97" d="M163.1,278c-0.4,0-0.8,0-1.1,0.1c-1.2-1.1-3.6-1.5-2.1-4C160.9,275.3,162,276.6,163.1,278z"/>
	<path class="st38" d="M577,288.9c-0.2,0.5-0.3,1.6-0.8,1.1c-1-1.1-2.1-2.5-0.3-4C576.3,287,576.7,287.9,577,288.9z"/>
	<path class="st98" d="M154.9,284.2c2.3-0.4,3.2,0.6,2.9,2.9C156.5,286.5,155.5,285.5,154.9,284.2z"/>
	<path class="st89" d="M190.9,306.2c0.3-0.3,0.6-1.6,0.9-1c0.5,1.4,0.1,3.1-0.4,4.8c-0.2-0.8-0.3-1.5-0.5-2.3
		C190.9,307.2,190.9,306.7,190.9,306.2z"/>
	<path class="st99" d="M429,227.1c0.6,0.4,1.3,0.9,1.9,1.3c0.3,0.8,0.7,1.7,1,2.5c-1.6-0.2-1.9-2.7-4-2.1
		C428.3,228.2,428.6,227.6,429,227.1z"/>
	<path class="st73" d="M423.9,336.2c0.3-1,0.6-2.1,0.9-3.1c0.8,0.4,0.7,1.3,1,1.9c0.2,1,0.2,2,0.1,3c-0.2,1-0.3,2.1-1.8,1.9
		C424.1,338.7,424,337.4,423.9,336.2z"/>
	<path class="st100" d="M424.1,339.9c0.4-0.7,0.7-1.4,1.1-2.1c1.9,0.8,1.5,2,0.7,3.3c-1.2,0.7-0.4,2.1-1,3.1
		C424.1,342.8,423.9,341.4,424.1,339.9z"/>
	<path class="st101" d="M427,353.9c1.3,1,0.8,2.3,0.8,3.6c-2.6,0.4-1.6-1.5-1.7-2.6C426.3,354.5,426.6,354.2,427,353.9z"/>
	<path class="st102" d="M429.9,378.5c-0.2,0.3-0.4,0.4-0.7,0.5c-0.1-1.9-0.3-3.9-0.4-5.8c-0.3-1.3,0.4-1.5,1.4-1.1
		c0.8,0.9,1,2.1,1,3.2C431.2,376.5,430.7,377.6,429.9,378.5z"/>
	<path class="st19" d="M840,258.1c-0.9,1.1-2.2,0.7-3.3,1c-0.9,0-1.8,0-2.6,0c0-0.3,0-0.7,0-1C836,258.1,838,258.1,840,258.1z"/>
	<path class="st17" d="M652,258.1c-0.8,0.3-1.5,0.7-2.3,1c-1.2-0.2-2.6,0.5-3.7-1C648.1,258.1,650.1,258.1,652,258.1z"/>
	<path class="st103" d="M714.2,318.1c-0.7-0.3-1.4-0.6-2.1-1c1.1-1.4,2.3-1.8,4-1.1c0.4,0.3,0.9,0.7,1.3,1
		C716.5,318.1,715.3,318.1,714.2,318.1z"/>
	<path class="st77" d="M263.1,317.2c0.4,0.3,0.8,0.7,1.2,1c-1.3,0.3-2.9,1.4-3.5-0.5C260.5,316.9,262.2,317.1,263.1,317.2z"/>
	<path class="st104" d="M328,317.1c0.4,0.3,0.9,0.7,1.3,1c-1.3,0.2-3,1.5-3.6-0.5C325.5,316.8,327.2,317.1,328,317.1z"/>
	<path class="st105" d="M429.8,372.1c-0.3,0.4-0.6,0.7-1,1.1c-0.9-0.9-0.9-2.1-0.7-3.2c0.3-0.3,0.6-0.6,0.8-1c0.5-0.3,1-0.2,1.4,0.2
		C430.9,370.3,430.9,371.3,429.8,372.1z"/>
	<path class="st64" d="M323.8,313c-0.4,0-0.8-0.1-1.3-0.1c0.5-1.3,0.7-2.9,2-3.9C325.6,310.6,324.5,311.8,323.8,313z"/>
	<path class="st106" d="M285.7,318.2c0.7-0.3,1.5-0.7,2.2-1c0.7-0.1,1.7-0.5,1.9,0.6c0.2,0.9-0.7,0.9-1.3,0.9
		C287.6,318.6,286.6,318.3,285.7,318.2z"/>
	<path class="st107" d="M352,259.1c0-0.3-0.1-0.7-0.1-1c2,0,4,0,6,0c0,0.3,0,0.6,0,0.9C356,259.1,354,259.1,352,259.1z"/>
	<path class="st84" d="M268.9,263.3c0.1-0.7,0.1-1.4,0.2-2.2c1.5,1.6,1.3,3.2,0.1,4.9C269,265.1,268.9,264.2,268.9,263.3z"/>
	<path class="st4" d="M446.1,295.5c0-1.9-0.8-3.8,0.8-5.5C447,291.9,447,293.7,446.1,295.5z"/>
	<path class="st108" d="M730.1,266.8c-1.9,0.7-2.5,0-1.9-1.9C728.8,265.6,729.4,266.2,730.1,266.8z"/>
	<path class="st4" d="M441.1,333.3c0-1.8-0.7-3.7,0.8-5.3C442,329.8,442,331.6,441.1,333.3z"/>
	<path class="st4" d="M445.1,303.3c0-1.8-0.7-3.7,0.8-5.3C446,299.8,445.9,301.6,445.1,303.3z"/>
	<path class="st4" d="M443.1,318.3c0-1.8-0.7-3.7,0.8-5.3C444,314.8,443.9,316.6,443.1,318.3z"/>
	<path class="st109" d="M524,278.9c1.6-1.5,3.5-0.7,5.3-0.8C527.7,279.1,525.8,279,524,278.9z"/>
	<path class="st4" d="M439.1,348.4c0-1.8-0.7-3.8,0.8-5.3C440,344.8,440,346.7,439.1,348.4z"/>
	<path class="st110" d="M427,353.9c-0.3,0.3-0.6,0.6-0.9,1c-0.1-1.6-0.2-3.2-0.3-4.9c0.3,0,0.6,0,1,0c0.7,0.5,0.8,1.2,0.4,2
		C427.2,352.6,427.1,353.3,427,353.9z"/>
	<path class="st111" d="M434.1,386.3c-0.2-1.8-0.7-3.7,0.8-5.3C435,382.8,435,384.6,434.1,386.3z"/>
	<path class="st0" d="M529.7,241.1c1.7,1.7,3.4,3.4,5.2,5.1c2.8,2.3,1.7,6,3,8.8c0.1,1.9,0.1,3.8,0,5.7c-0.1,0.9-0.4,1.6-1,2.2
		c-1,2.6-2.1,5.1-3.1,7.7c-0.4,2.3-1.8,3.7-4.2,4.2c-2.2,0.8-4.5,1.5-6.7,2.3c-5.6,0.2-11.2,1.3-16.8-0.5l-0.1,0.2l0.2,0.1
		c-1.2-0.6-0.8-1.7-0.8-2.7c0-9.8,0-19.6,0-29.4c0-1-0.2-2,0.7-2.8l0,0.1c6.7-5.1,14-2.9,21.2-1.7
		C528.2,240.6,528.9,240.9,529.7,241.1z"/>
	<path class="st112" d="M492.7,242.3c0,22.2,0,44.3,0,66.5c-0.1,0-0.3,0-0.4,0c0-22.3,0-44.6,0-66.9
		C492.4,242.1,492.6,242.2,492.7,242.3z"/>
	<path class="st74" d="M506.2,242c0,11.6,0.1,23.2,0.1,34.9c-1.1-0.4-1.3-1.4-1.3-2.4c0-10,0-19.9,0-29.9
		C505,243.5,505.2,242.6,506.2,242z"/>
	<path class="st113" d="M537.1,255c-0.8-2.9-1.5-5.8-2.3-8.7c0.6-1.3,1.4-0.5,2.1-0.3c0.4,4.4,2.3,8.6,2,13.2
		c-0.1,1.6,0.4,3.5-2,3.8c0.1-0.7,0.1-1.3,0.2-2C537.7,259,537.8,257,537.1,255z"/>
	<path class="st3" d="M529.7,274.9c1.4-1.4,2.8-2.8,4.2-4.2c0.2,1.6,2.7,3,0.8,4.7C533.1,276.8,531.3,275.6,529.7,274.9z"/>
	<path class="st109" d="M506.2,276.6c5.6,1.4,11.2,0.2,16.8,0.5C517.4,278.2,511.7,279.3,506.2,276.6z"/>
	<path class="st114" d="M218.2,287.3c1.3-1.9,1.8-4.1,1.7-6.4c1.9-0.6,0.6-3.3,2.7-4c2.1,5.6,4.2,11.2,6.5,17.2c-3.7,0-6.8-0.1-10,0
		c-1.6,0-2.6-0.3-2.3-2.1C217.3,290.4,217.8,288.9,218.2,287.3z"/>
	<path class="st115" d="M656.8,265.1c0,15.2,0,30.5,0,45.7c-0.2,0-0.3,0-0.5,0c0-15.2,0-30.5,0-45.7
		C656.5,265.1,656.6,265.1,656.8,265.1z"/>
	<path class="st116" d="M420.2,274.1c6.7,0,13.4,0,20.2,0.1c1.2,0,2.7-0.5,3.6,0.9c-7.2,2.2-14.5,2.9-21.9,0.9
		C421.1,275.6,420.1,275.4,420.2,274.1z"/>
	<path class="st117" d="M430,286.8c-0.2-0.2-0.2-0.5-0.1-0.7c0.3,0,0.7,0,1-0.1c1.2,0,2.5,0.1,3.7,0.1c-0.2,0.6-0.5,1.2-0.7,1.9
		c-0.4,0.4-0.5,1-1,1.3c-0.2,0-0.4,0-0.6,0c-0.2-0.1-0.3-0.2-0.5-0.3C431.3,288.3,430.7,287.5,430,286.8z"/>
	<path class="st118" d="M554.8,285c1-2.5,2.1-4.9,2.3-7.7c0.6,0,1.2-0.1,1.7-0.1c2.3,3.2,3.4,6.9,4.1,10.8c0.5,1.8,1.1,3.7,1.8,6
		c-4.4,0.1-8.5,0.5-12.6-0.3C553,290.8,553.9,287.9,554.8,285z"/>
	<path class="st119" d="M563,288c-1.8-3.4-3.1-7.1-4.1-10.8c0-0.4,0.1-0.8,0.1-1.2C561.7,279.5,563.8,283.3,563,288z"/>
	<path class="st120" d="M716,316.1c-1.3,0.4-2.6,0.7-4,1.1c-1.7,0-3.4,0-5.1,0c-2.6-0.3-4.7-1.9-6.9-3.2c-8-10.6-7.3-22.9-6.6-35.1
		c0.3-4.8,1.9-9.3,3.4-13.8c2.5-2.9,5.2-5.4,9.1-6.2c2,0,4.1,0,6.1,0c6.4,1.9,10.7,6,12.8,12.4c1.5,1.5,1.7,3.7,1.8,5.5
		c0.4,8.5,1.1,17.1-1.2,25.5c-0.3,1.2-0.5,2.6-1.6,3.5C722.1,309.9,719.8,313.5,716,316.1z"/>
	<path class="st121" d="M286,286.2c-1.3,0-2.7,0-4,0c-0.5-0.1-1.1-0.2-1.6-0.3c-1.8-3.4-0.7-7-0.7-10.5c0-4.3-0.9-8.8,0.6-13.1
		c0.6-0.8,1.2-1.6,1.8-2.4c3.5,0,6.9-0.2,10.4,0c6.5,0.5,9.3,3.4,9.8,10c0.5,6-0.4,11.6-6.2,15.1C292.7,285.4,289.3,285.8,286,286.2
		z"/>
	<path class="st74" d="M280.2,262.4c0.1,7.8,0.1,15.7,0.2,23.5c-0.4-0.3-1-0.6-1-1c-0.1-8-1.4-15.9,0.7-23.8
		C280,261.5,280.1,261.9,280.2,262.4z"/>
	<path class="st28" d="M723.9,305.8c2.7-11.4,3.2-22.9,1-34.5c1.3-0.6,1.6-0.6,1.9,0.5c1.7,8.4,1.7,16.8,0.7,25.3
		c-0.4,3.1-1.1,6.2-2.1,9.2C724.6,308.2,724.1,306.8,723.9,305.8z"/>
	<path class="st31" d="M430.1,364.5c-0.1-4.3-0.1-8.6-2-12.5c-0.6-0.7-0.7-1.4,0.2-2c1.4-1,0.1-2.9,1.7-4.4c0,2.3,0,4.2,0,6.6
		c1.6-1.6,1-3,1-4.2c0.1-17.9,0-35.9,0.1-53.8c0-1.7-0.7-3.7,1-5.2l0.1-0.1c1.1,1.5,0.9,3.2,0.9,4.8c0,25,0.1,50.1,0,75.1
		c-0.1,0.9-0.3,1.8-1.2,2.3c-1.4,0.1-1.1-1-1.2-1.8C430.3,367.7,430.8,366.1,430.1,364.5z"/>
	<path class="st122" d="M422.1,313c-0.6-5.7-1.3-11.4-1.9-17.1c0.6-0.9-0.1-2.1,0.7-2.9c1.6,6.2,2.4,12.4,2.1,18.8
		C423.6,313,423,313.1,422.1,313z"/>
	<path class="st123" d="M428.3,350c-0.1,0.7-0.1,1.3-0.2,2l-0.4-0.1c0,0-0.4,0.1-0.4,0.1c-0.1-0.7-0.3-1.3-0.4-2
		c-0.3-3-0.6-6-0.9-8.9c0.2-1.2,0.2-2.3-0.7-3.3c0-0.9,0-1.9,0-2.8c0.3-0.4,0.3-1,0.9-1.2C427.5,339.1,427.9,344.6,428.3,350z"/>
	<path class="st124" d="M422.1,313c0.3-0.4,0.6-0.7,0.9-1.1c1.7,2.9,1.1,6.2,1.8,9.2c-0.6,0.6,0,2.2-1.6,2
		C423.7,319.6,421.4,316.5,422.1,313z"/>
	<path class="st121" d="M426.1,333.8c-0.3,0.4-0.6,0.8-0.9,1.2c-0.1-0.6-0.2-1.3-0.4-1.9c-0.2-2-0.4-4-0.6-6.1
		c0.2-0.5,0.3-1,0.9-1.2C426.4,328.3,426,331.1,426.1,333.8z"/>
	<path class="st121" d="M425.1,325.7c-0.3,0.4-0.6,0.8-0.9,1.2c-0.4-1,0.3-2.5-1.2-3.1c-0.1-0.3,0-0.6,0.2-0.9c0.5-0.7,1-1.3,1.6-2
		C424.9,322.6,425,324.2,425.1,325.7z"/>
	<path class="st114" d="M421,293c-0.2,1,0.2,2.1-0.7,2.9c-0.1-1.9-0.8-3.8,0.1-5.7C420.6,291.1,420.8,292.1,421,293z"/>
	<path class="st125" d="M432.9,288.9c0.4-0.3,0.7-0.6,1.1-0.9c0,26.3,0,52.7,0,79c-0.8,0.3-1.2,0-1.4-0.8c-0.1-24.8,0-49.6,0-74.4
		C432.5,290.8,432.4,289.8,432.9,288.9z"/>
	<path class="st126" d="M433,367c0.3,0,0.6,0,0.9,0c-0.1,4.7,0.6,9.5-1,14.1c-0.6,0.3-1,0.1-1.3-0.4c-0.1-2.4-0.9-4.7-0.5-7.1
		c0.2-1.3,1.4-2.2,1.4-3.6C432.6,368.9,432.2,367.8,433,367z"/>
	<path class="st127" d="M432.2,381c0.2,0,0.5,0,0.7,0.1c-0.7,0.9,1.6,3.6-1.8,2.8c0-1,0-2-0.1-3C431.5,380.5,431.8,380.5,432.2,381z
		"/>
	<path class="st128" d="M434.9,221.8c-1.1,1-1.7,4-3.8,1c-1.4-2.2-1.1-4.1,1-5.7c0.9-0.2,1.3,0.5,1.9,1
		C434.6,219.3,436.2,220.2,434.9,221.8z"/>
	<path class="st46" d="M432.1,217.1c-0.7,1.8-1.6,3.6-1,5.7c-1.8,1.1-2.3-0.6-1.9-1.3C430.1,220,428.7,216.9,432.1,217.1z"/>
	<path class="st129" d="M434.9,221.8c-0.3-1.2-0.6-2.5-1-3.7c0.2-0.4,0.4-0.8,0.6-1.2c0.8,1.6,1.9,3.2,1.2,5.1
		c0,0.1-0.3,0.1-0.4,0.1C435.1,222.1,435,221.9,434.9,221.8z"/>
	<path class="st130" d="M424.8,243c0.1-1.3,0.2-2.6,0.3-3.9c0.9-0.2,1.4,0,1,1.1c0,9.4,0,18.8,0,28.3c-1.7-2.7-0.7-5.7-1.3-8.4
		C424.8,254.3,424.8,248.7,424.8,243z"/>
	<path class="st131" d="M426.1,240.2c-0.3-0.4-0.6-0.7-1-1.1c-0.3-1.5,0.2-2.3,1.9-2.1C426.7,238,426.4,239.1,426.1,240.2z"/>
	<path class="st132" d="M430.1,364.5c0.7,1.4,1,2.9,0.7,4.5c-0.4,0.4-0.7,0.4-1.1,0c-0.2,0-0.5,0-0.7-0.1c0.1-0.3,0.1-0.7,0.2-1
		C430.3,367,429.9,365.7,430.1,364.5z"/>
	<path class="st133" d="M432.2,381c-0.4,0-0.7,0-1.1,0c-0.4-0.8,0.3-2.2-1.1-2.5c0.1-1.2,0.1-2.4,0.2-3.5c0.6-0.6,0.3-1.4,0.7-2.1
		c0.4-0.1,0.7,0,1,0.3C431.9,375.8,432.1,378.4,432.2,381z"/>
	<path class="st134" d="M431.1,372.9c-0.4,0.6,0,1.7-1,2c-0.1-1-0.2-1.9-0.3-2.9c0-1-0.1-2-0.1-3c0.4,0,0.7,0,1.1,0
		c0.1,0.6,0.2,1.3,0.3,1.9C431.7,371.6,431.6,372.3,431.1,372.9z"/>
	<path class="st3" d="M537.1,255c1.4,2,1.3,4,0,6C537.1,259,537.1,257,537.1,255z"/>
	<path class="st135" d="M433,367c0,1,0,2-0.1,3c-0.3,0.5-0.6,0.5-0.9,0c0-27,0-54,0-81c0.3,0,0.6,0,0.8,0C433,314.9,433,341,433,367
		z"/>
	<path class="st125" d="M432.1,369.9c0.3,0,0.6,0.1,0.9,0c0,1.2,0.1,2.5-1.2,3.2c-0.2-0.1-0.4-0.1-0.7-0.2c0-0.7,0-1.3,0.1-2
		C431.5,370.6,431.8,370.3,432.1,369.9z"/>
</g>
</svg>
