<?xml version="1.0" encoding="utf-8"?>
<!-- Generator: Adobe Illustrator 21.1.0, SVG Export Plug-In . SVG Version: 6.00 Build 0)  -->
<svg version="1.1" id="Layer_1" xmlns="http://www.w3.org/2000/svg" xmlns:xlink="http://www.w3.org/1999/xlink" x="0px" y="0px"
	 viewBox="0 0 700 965" style="enable-background:new 0 0 700 965;" xml:space="preserve">
<style type="text/css">
	.st0{fill:#FEFEFE;}
	.st1{fill:#2C2824;}
	.st2{fill:#2C2825;}
	.st3{fill:#282420;}
	.st4{fill:#2A2723;}
	.st5{fill:#292622;}
	.st6{fill:#2A2623;}
	.st7{fill:#292522;}
	.st8{fill:#282521;}
	.st9{fill:#2B2723;}
	.st10{fill:#2B2824;}
	.st11{fill:#25221E;}
	.st12{fill:#090602;}
	.st13{fill:#0A0703;}
	.st14{fill:#26231F;}
	.st15{fill:#0B0602;}
	.st16{fill:#0B0603;}
	.st17{fill:#1C1915;}
	.st18{fill:#2B2724;}
	.st19{fill:#0A0602;}
	.st20{fill:#110F0A;}
	.st21{fill:#080501;}
	.st22{fill:#272421;}
	.st23{fill:#060400;}
	.st24{fill:#E8E7E7;}
	.st25{fill:#FBFBFB;}
	.st26{fill:#FAFAFA;}
	.st27{fill:#EDEDED;}
	.st28{fill:#F0F0EF;}
	.st29{fill:#F2F2F2;}
	.st30{fill:#0E0906;}
	.st31{fill:#FDFDFD;}
</style>
<g>
	<g>
		<path class="st0" d="M351.4,832.4c-114.3,0-228.7,0-343,0.1c-4.8,0-5.7-0.9-5.7-5.7c0.2-229.1,0.2-458.3,0-687.4
			c0-4.8,0.9-5.7,5.7-5.7c229.1,0.2,458.3,0.2,687.4,0c4.8,0,5.7,0.9,5.7,5.7c-0.2,229.1-0.2,458.3,0,687.4c0,4.8-0.9,5.7-5.7,5.7
			C581,832.4,466.2,832.4,351.4,832.4z"/>
		<path class="st1" d="M264.2,437c15.1-21.3,34.9-34.3,61.8-34.6c6.3-0.1,12.5,1.3,18.4,3.4c12.3,4.3,17.6,15.7,14,28.7
			c-2.7,9.5-8.6,16.9-14.8,24.1c-8.4,9.7-18.6,17.3-29.4,24.3c-16.3,10.6-33.5,12.1-51.2,5.4c-8.4-3.2-15.7-2.9-23.1,2.1
			c-1.3,0.9-2.8,1.7-4.3,2.2c-2.3,0.9-3.3-1.3-4.5-2.5c-1.4-1.5,0.3-2.5,1.3-3.2c8.3-6.9,14.1-18,27.6-16.2c2.2,0.3,3.1-1.6,4.4-2.9
			c5.5-6,10.8-12.2,16.4-18c10.9-11.1,19.2-24.9,35.3-33.1c-16.9-1.2-27.7,6.8-38,15.9c-4.1,0.4-5.7,4.1-8.2,6.5
			C266.1,442.5,264.5,442,264.2,437z"/>
		<path class="st2" d="M475.3,413.6c-9.8,15.9-19.2,31-28.6,46.1c0.8,0.6,1.1,0.9,1.5,1c2.3,0.7,6.1,0,6,3.3c0,3.7-3.6,6-6.7,5.9
			c-5.9-0.2-8,3.8-10.4,7.6c-0.7,1.2-1.7,2.5-0.6,3.8c1.1,1.3,2.6,0.5,3.9,0.2c0.7-0.2,1.4-0.4,2-0.6c1.8-0.7,3.9-1.3,5,0.7
			c1.3,2.6-1.3,3.5-2.9,4.6c-2.9,1.9-6,3.6-9,5.3c-4.8,2.8-9.7,5.5-14.5,8.4c-2.2,1.3-4.4,3-6.8,0.6c-2.1-2.1-1.9-4.7-0.8-7.2
			c2.3-5.1,4.6-10.2,7.2-15.1c1.4-2.6,1.2-3.7-1.7-5.1c-6.4-3.1-11.6-2.7-17,2.5c-9.5,9.3-20,17.4-31,24.8c-4.9,3.2-10,6-15.7,7.3
			c-3,0.7-6.1,0.7-8.4-1.9c-2.4-2.7-1.5-5.6-0.4-8.5c1.5-3.7,3.5-7.1,6.6-9.7c6.2-5.3,12.5-10.4,18.8-15.5c1.5-1.2,3-2.4,4.8-0.4
			c2,2.2,0.1,3.3-1.3,4.5c-3.1,2.8-6.3,5.5-9.3,8.5c-1.6,1.6-3.5,3.8-1.6,6c1.5,1.7,4,1.1,5.8-0.1c8.2-5.3,16.3-10.7,24.4-16.1
			c1.1-0.7,2.6-2.6,2.3-3.2c-3.5-6.8,2.5-6.6,5.9-8.3c17.7-8.4,30.9-22.2,43.9-36.1C457.5,415.4,457.5,415.4,475.3,413.6z"/>
		<path class="st3" d="M550.2,542.2c0-1.9-0.5-3.9,0.1-5.5c1.9-4.7-4.8-13.1,3.5-14.3c19-2.8,26.5,1.3,29.3,13
			c4.2,17-3.7,27.2-21.1,27.2c-11.8,0-11.8,0-11.8-12C550.2,547.8,550.2,545,550.2,542.2z"/>
		<path class="st4" d="M405.3,521.2c4.4,0.3,9.4,0.8,12.5,5.3c1.3,1.9,3.9,4.5,1.1,6.3c-1.6,1.1-5.3,1.9-7.1-1.8
			c-2-4.1-6-3.8-9.8-3.3c-2.2,0.3-4.2,1.3-4.5,3.7c-0.4,2.6,1.6,3.8,3.6,4.4c3.3,1.1,6.7,2,10,2.9c6.2,1.8,10.3,5.5,10.3,12.3
			c-0.1,6.4-4.7,10.5-12.5,11.8c-8.2,1.3-15-1.2-18.1-7c-1-1.8-3.5-4.3-0.7-5.9c2.2-1.3,5.4-2.3,7.2,2.1c2.1,5.2,7,5.6,11.9,4.2
			c2.7-0.7,4.6-2.4,4.6-5.4c0-2.8-2-4-4.4-4.7c-2.7-0.8-5.4-1.4-8.1-2.3c-8.3-2.6-11.9-7-10.9-13C391.4,525.1,397,521.3,405.3,521.2
			z"/>
		<path class="st5" d="M593.8,522.3c6.5,0,13-0.2,19.4-0.1c6.1,0.1,10.3,3,11.1,9.2c0.8,6-1.8,10.3-7.9,12.2
			c-0.6,0.2-1.1,0.6-2.1,1.2c5.7,4.8,9.1,11,12.7,17.2c-5.9,1.9-9.5,0.1-12.2-4.9c-1.7-3.3-4-6.2-6.3-9.1c-1.9-2.4-4.8-3.1-7.6-2.4
			c-3.3,0.9-1.4,3.9-1.7,5.9c-0.3,1.8-0.2,3.7,0,5.5c0.6,6.2-2.2,7-7,4.4c2.3-0.9,0.8-2.7,0.8-4.1
			C593.6,545.6,592.3,533.9,593.8,522.3z"/>
		<path class="st6" d="M443.9,521.2c4.3,0.4,9.1,0.9,12.1,5.1c1.3,1.9,4.1,4.5,1.4,6.4c-1.7,1.2-5.4,1.9-7.2-1.5
			c-1.9-3.8-5.4-3.9-9-3.5c-2.4,0.3-4.9,0.9-5.3,3.6c-0.4,2.9,1.9,4,4.1,4.8c3.3,1.1,6.7,1.9,10,2.9c6.2,2,10.1,5.8,9.5,12.7
			c-0.6,6.8-5.1,10-11.5,11.2c-9.1,1.6-16.6-1.4-19.5-8.1c-0.7-1.6-3-4.1,0.3-5.1c2-0.6,4.4-1.8,6.4,1.7c3,5.6,8.6,7,13.4,4.4
			c2-1.1,3.3-2.7,3.4-4.9c0.1-2.4-1.6-3.8-3.7-4.5c-2.8-1-5.8-1.6-8.7-2.5c-8.3-2.6-11.9-6.7-11.1-12.9
			C429.5,525,435.4,521.1,443.9,521.2z"/>
		<path class="st5" d="M380.2,543.2c-5,2.3-10.4,1-15.5,0.9c-4.8-0.1-4.6,2.5-4.4,5.7c0.2,3-1.4,6.8,4.3,6.4c4.9-0.4,9.8,0,14.7-0.1
			c2.4,0,4,0.3,4,3.3c0,3.2-1.8,3.2-4.1,3.2c-7.7-0.1-15.4-0.1-23,0c-2.8,0.1-3.7-1-3.6-3.6c0.1-11.2,0.1-22.4,0-33.5
			c0-2.9,1.2-3.5,3.8-3.5c7.4,0.1,14.9,0.1,22.3,0c2.5,0,3.9,0.5,3.8,3.4c-0.1,2.8-1.8,2.8-3.8,2.8c-4.4,0-8.9,0.2-13.3-0.1
			c-3.8-0.3-5.4,0.8-5.3,4.9c0.1,3.8,0.9,5.2,5,5.2c5-0.1,10.1-1.2,14.9,0.8c-5.5,1.5-11.2,0.2-16.8,0.7c-0.9,0.1,0.4,1.5-0.1,0.7
			c5.1-1.4,10.2-0.8,15.4,0.5c-5,2.4-10.5,0.9-14.8,1.5C368.7,542.9,374.5,541.7,380.2,543.2z"/>
		<path class="st5" d="M251.6,543.2c-5,2.3-10.4,1-15.5,0.9c-4.7-0.1-4.7,2.4-4.4,5.6c0.2,2.9-1.5,6.9,4.2,6.5
			c4.9-0.4,9.8,0,14.6-0.1c2.2,0,4.1-0.1,4.2,3.1c0.1,2.9-1.3,3.4-3.8,3.4c-7.7-0.1-15.3-0.2-23,0c-3.1,0.1-4-1-4-4
			c0.1-10.9,0.1-21.8,0-32.8c0-3.1,1.1-4,4.1-3.9c7.2,0.2,14.4,0.1,21.6,0.1c2.1,0,4.2-0.5,4.3,2.9c0.1,3.8-2.3,3.3-4.6,3.3
			c-4.2,0-8.4,0.2-12.5-0.1c-3.9-0.3-5.3,0.9-5.2,5c0,3.9,1,5.2,5,5.2c5,0,10-1.2,14.9,0.8c-5.5,1.5-11.2,0.2-16.7,0.7
			c-0.9,0.1,0.4,1.5-0.1,0.7c5.1-1.4,10.2-0.8,15.3,0.4c-4.9,3-10.5,0.8-14.7,1.7C240.2,542.9,245.9,541.7,251.6,543.2z"/>
		<path class="st5" d="M511.4,522.3c3.4-1.1,5.5,0.2,7.3,3.3c4.4,7.7,9.3,15.3,15.2,22.6c0-7.3,0-14.6,0-21.9c0-2.5-0.1-4.4,3.5-4.4
			c3.6,0,3.5,1.9,3.5,4.4c-0.1,10.2,0.1,20.5-0.1,30.7c0,1.9,1.7,5.1-2.2,5.5c-2.7,0.3-5.3,0.4-7.1-2.8c-4-7.1-8.5-13.9-12.7-20.8
			c-0.6-0.9-0.7-2.2-3.1-2.2c0,7.8,0,15.5,0,23.3c-2.6,1.5-5.1,0.7-5.1-2.1C510.3,546,508.4,534.1,511.4,522.3z"/>
		<path class="st4" d="M48,562.5c5.1-13,9.8-24.8,14.2-36.7c1.1-2.8,2.4-3.9,5.5-3.9c3,0,4.6,0.8,5.7,3.7
			c4.6,12.1,9.5,24.1,14.4,36.4c-5.1,1.5-8.8,1.1-9.9-4.8c-0.6-3.1-2.4-4.4-5.9-4.2c-6.5,0.4-14-2.3-16,8
			C55.5,564.2,51.4,562.1,48,562.5z"/>
		<path class="st7" d="M116.6,560.1c-5-7.7-9.9-15.5-16.1-25.1c0,8.9-0.1,15.9,0,22.9c0,2.8,0.1,4.9-3.8,4.8
			c-3.8-0.1-3.3-2.4-3.3-4.7c0-10.2-0.1-20.4,0.1-30.6c0-1.8-1.5-5,2.3-5.4c2.8-0.2,5.2-0.1,7,3c4.5,8,9.5,15.7,15.5,23.2
			c0-7.2,0.1-14.5-0.1-21.7c-0.1-3.6,0.8-5.4,4.7-4.2c2.6,4.8,1.1,10,1.3,15c0.3,5.8,0.2,11.6,0,17.4
			C124.1,561.1,123.3,561.6,116.6,560.1z"/>
		<path class="st6" d="M312,562c-5.7,1.6-9,0.4-9.9-5c-0.6-3.4-2.8-4.3-6-4.1c-6.2,0.5-13.6-2.5-15.5,7.6c-0.7,3.8-5,1.5-8.3,1.8
			c4.9-12.8,9.7-25,14.4-37.4c1-2.8,2.8-3.1,5.4-3.1c2.5,0,4.3,0.2,5.4,3C302.1,537.2,307,549.5,312,562z"/>
		<path class="st6" d="M503.3,562c-5.7,1.7-9,0.4-10-5c-0.6-3.4-2.7-4.3-6-4.1c-6.2,0.5-13.6-2.5-15.5,7.7c-0.7,3.8-5,1.5-8.3,1.7
			c5-12.8,9.8-25,14.4-37.3c1.1-2.8,2.9-3,5.4-3.1c2.6,0,4.3,0.4,5.3,3.1C493.4,537.3,498.3,549.5,503.3,562z"/>
		<path class="st8" d="M180.4,556.9c2.2,4,1.4,5.8-3.5,5.7c-7.2-0.2-14.4-0.3-21.6,0c-3.8,0.2-4.6-1.3-4.6-4.8
			c0.2-10.5,0.2-20.9,0-31.4c0-3,0.3-4.7,4-4.5c7.2,0.3,14.4,0.1,21.6,0.1c2.2,0,4.1-0.2,4.1,3.1c0,3.3-1.8,3.1-4,3.1
			c-4.4-0.1-8.8,0.2-13.2-0.1c-3.8-0.2-5.3,0.8-5.2,5c0.1,3.9,1.1,5.4,5.1,5.1c4.2-0.3,8.4,0,12.5-0.1c2.2,0,3.4,0.5,3.4,3.1
			c0,2.5-1.1,3.2-3.4,3.1c-3.5-0.1-7,0-10.5,0c-6.6,0-9.1,3.6-7.1,9.9c0.9,2.7,2.9,1.8,4.5,1.9C168.6,556.6,174.6,555.2,180.4,556.9
			c-6.3,2-12.8,0.3-18.7,0.9c5.3,0.2,11.2-0.3,18.2,0.4c-4.9,2.7-12.5,3.1-23.2,2.2c6,0.3,12.1,0,18.1,0.4
			C178.1,561,179.3,559.3,180.4,556.9z"/>
		<path class="st6" d="M12.6,522.3c4.6-0.1,9.3-0.3,13.9-0.2c10.2,0.2,15.3,4.6,17.2,14.5C46,548.3,42.4,557,33.5,561
			c-5.5,0.2-11.1,0.4-16.6,0.3c-2.9-0.1-5-0.8-4.9-4.3C12.3,545.4,11.1,533.8,12.6,522.3z"/>
		<path class="st9" d="M673.4,561.5c-5.2-6.1-8.5-13.6-13.1-20.1c-1.2-1.8-1.5-4.5-4.2-5c-2,5.2,0,10.5-0.8,15.8
			c-0.4,2.9,1.6,8-2.8,7.9c-4,0-1.8-4.9-1.9-7.5c-0.3-7.4,0.2-14.8-0.2-22.2c-0.2-5,1.4-7.5,6.5-7.2c4.6,7.4,9.3,14.8,14,22.1
			c0.9,1.4,1.1,3.7,3.7,3.4c2.3-5.7,0.5-11.7,1.1-17.5c0.3-2.9-0.7-6,0.7-8.9c0.9,0,1.9,0,2.8,0c1.5,11.6,0.3,23.3,0.6,34.9
			C679.8,561.9,676.2,561.1,673.4,561.5z"/>
		<path class="st10" d="M189.2,542.2c0-5.3,0.1-10.7,0-16c-0.1-3.1,1.1-3.9,4.1-3.9c3.2,0,3.9,1.2,3.8,4.1
			c-0.2,8.4,0.1,16.8-0.1,25.1c-0.1,3.6,0.8,5,4.6,4.7c3.7-0.3,7.4-0.1,11.2-0.1c2.2,0,4.8-0.8,4.9,3c0.1,3.6-2.1,3.5-4.6,3.4
			c-1.2-0.1-2.3,0.1-3.5,0c-6.6-0.5-15.5,3-19.2-1.4c-3.2-3.8-0.7-12.4-0.7-18.9C189.5,542.2,189.3,542.2,189.2,542.2z"/>
		<path class="st11" d="M633,541.9c0-5.1,0.1-10.2,0-15.3c-0.1-2.8,0-4.8,3.9-4.7c3.5,0.1,3.5,1.8,3.5,4.3c-0.1,10.7,0,21.3,0,32
			c0,2.4,0.2,4.4-3.5,4.4c-3.9,0.1-4-1.9-3.9-4.7C633.1,552.6,633,547.3,633,541.9z"/>
		<path class="st2" d="M697.2,522.5c2.5,7.8,0.5,15.8,1.1,23.7c0.3,3.9-0.1,7.9,0.1,11.8c0.1,3-0.3,4.7-4,4.7
			c-3.6,0-4.1-1.5-4.1-4.6c0.2-10.4,0.3-20.8-0.1-31.2c-0.2-4.8,1.7-5.6,5.7-4.6c1.5,11.5,0.3,23.1,0.6,34.7c0,1.3,0.1,3.1-1.8,3.2
			c-2.5,0.2-2.3-1.8-2.3-3.4c-0.1-6.7,0-13.3-0.2-20c0.5,5.7-0.2,11.5,0.2,17.3c0.1,2.2-1.6,6.1,2.2,6c3.2,0,1.8-3.7,1.9-5.7
			c0.1-9.3,0.1-18.6,0.1-27.9C696.5,525.2,696.3,523.7,697.2,522.5z"/>
		<path class="st12" d="M139.7,522.3c1.9-0.3,2.3,0.8,2.3,2.4c0,11.4-0.1,22.8,0,34.2c0,2.8-0.9,3.7-3.6,3.6c-2-0.1-3.8,0.1-3.7-2.7
			c0.1-12.1,0-24.2,0.1-36.3c0-1.2,1.1-1.2,2.1-1.2c3,5.9,0.8,12.3,1.4,18.4c0.3,3,0,6,0,7.5C139.4,540.6,136.6,531.3,139.7,522.3z"
			/>
		<path class="st2" d="M318.4,523.6c6.8-2.3,7-2.2,7.1,4.2c0,7.8,0.2,15.7-0.1,23.5c-0.2,4,1.2,5,5.1,5c4.9,0,10-1.3,14.8,0.9
			c-5.4,1.6-10.7,0.2-14.9,0.7c3.5,0.7,8.6-0.9,13.7,0.9c-2.4,3.8-6,2.6-8.9,2.6c-15.8,0.2-15.8,0.1-15.8-15.7
			c0-5.1-0.1-10.2,0.1-15.3c0.1-2-1.3-5.5,2.2-5.5c2.9,0,1.8,3.2,1.8,5.1c0.1,6,0.2,12,0,18.1c0.1-6-0.4-12.1,0.2-18.1
			C324,525.5,321.8,524.3,318.4,523.6z"/>
		<path class="st13" d="M318.4,523.6c3.9-0.3,5.9,0.8,5.7,5.4c-0.4,8.3-0.1,16.7-1.4,25c0-9.4,0-18.8,0-28.2
			c-3.1,0.1-2.7,1.9-2.7,3.1c-0.1,8.6,0,17.2,0,25.8c0,2.7,0,5.2,3.8,5.2c6.2-0.1,12.4,0,18.6-1.3c-5,0-10.1,0-15.1,0
			c0-0.5,0-1.1,0-1.6c6,0,12,0,17.9,0c1.6,3.5,1.2,5.7-3.4,5.3c-0.5,0-0.9,0-1.4,0c-7.3-0.4-17.2,3.1-21.3-1.4
			c-3.6-3.9-1.1-13.7-1.1-20.8C318,534.7,318.3,529.1,318.4,523.6z"/>
		<path class="st6" d="M332.8,497c-3.9-0.2-3.8-4-5.1-6.4c-1.4-2.6,0.3-3.8,2.4-4.6c2.6-1,5.3-1.7,7.8-2.7c5.1-2.2,6.2,1.4,7.8,4.9
			c2.1,4.7-1.7,4.9-4.3,5.9C338.6,495.2,335.8,496,332.8,497z"/>
		<path class="st8" d="M466.2,499.1c-3.5,4.9-9.1,5.3-13.8,6.3c-4.7,1-6-4.8-5.5-7c1.4-6.3,8.2-5.4,12.8-6.7
			C464.4,490.4,463.7,496.3,466.2,499.1z"/>
		<path class="st14" d="M656.9,523.2c-4.6,1.3-6.1,4.1-5.9,8.9c0.5,8.9,0.1,17.9,0.1,28.7c4-4.8,2.1-8.8,2.8-12.3
			c0.8-4-2.1-8.7,2.2-12.2c0,7.4,0,14.8,0.1,22.2c0.1,2.9-0.8,4.1-3.9,4.1c-3.3,0-3-2.1-3-4.1c0-10.2,0.3-20.4-0.1-30.6
			C648.9,521,651.8,520.7,656.9,523.2z"/>
		<path class="st15" d="M116.6,560.1c5.2,0.7,6.6-1.8,6.5-6.8c-0.4-10.3-0.1-20.7-0.1-31c1.8-0.3,2.3,0.5,2.3,2.3
			c-0.1,11.4-0.1,22.8-0.1,34.2c0,1.3,0.5,3.3-1.3,3.4C121.3,562.5,118.1,563.7,116.6,560.1z"/>
		<path class="st16" d="M511.4,522.3c0,10.7,0,21.4,0,32.1c0,2.9-0.2,5.8,4.1,5.5c0.4,3.9-2.7,2.1-4.3,2.5c-1.4,0.3-2.1-0.8-2.1-2.1
			c0.1-12.5,0.2-25,0.4-37.5C509.5,522.6,510.7,522.5,511.4,522.3z"/>
		<path class="st17" d="M12.6,522.3c0,10.6,0.2,21.2-0.1,31.9c-0.1,4.6,1.5,5.9,6,5.9c5,0,10.1-1.4,14.9,1c-6.5,2.5-13.2,1-19.9,1.5
			c-2.1,0.1-3-0.7-2.9-2.8c0-12,0-24,0.1-36C10.7,522.7,11.5,522.2,12.6,522.3z"/>
		<path class="st18" d="M139.7,522.3c-0.1,12-0.2,24-0.4,36c0,0.2-0.6,0.5-2.4,1.6c0-13.1,0-25.4,0-37.7
			C137.9,522.3,138.8,522.3,139.7,522.3z"/>
		<path class="st19" d="M697.2,522.5c-0.1,10.7,0,21.3-0.3,32c-0.1,2.3,1.9,6.6-2.7,6.4c-4.4-0.2-2.3-4.4-2.4-6.7
			c-0.3-6.9-0.1-13.8,1.5-20.7c0,8.5,0,17.1,0,25.6c0.8,0,1.7,0,2.5,0c0-12.3,0-24.5,0-36.8C696.3,522.4,696.7,522.4,697.2,522.5z"
			/>
		<path class="st20" d="M673.4,561.5c5-1.4,6-4.7,5.8-9.6c-0.4-9.8-0.1-19.7-0.1-29.6c3.1,0.8,1.7,3.3,1.7,5.1
			c0.1,9.7-0.2,19.4,0.2,29.1C681.2,563,678.6,563.9,673.4,561.5z"/>
		<path class="st19" d="M251.6,543.2c-6,0-12,0-18,0c0-0.5,0-0.9,0-1.4c5,0,10.1,0,15.1,0c0-0.4,0-0.9,0-1.3c-5,0-10,0-15,0
			c0-0.5,0-1.1,0-1.6c5.9,0,11.9,0,17.8,0C252.8,540.4,252.6,541.8,251.6,543.2z"/>
		<path class="st19" d="M380.2,543.2c-6,0-12,0-18,0c0-0.5,0-0.9,0-1.4c5,0,10.1,0,15.1,0c0-0.4,0-0.8,0-1.3c-5,0-10,0-15,0
			c0-0.5,0-1.1,0-1.6c5.9,0,11.9,0,17.8,0C381.3,540.4,381.1,541.8,380.2,543.2z"/>
		<path class="st21" d="M593.8,522.3c0.2,12.2,0.3,24.4,0.6,36.5c0,0.4,1.9,0.8,3,1.2c-1.4,1.9-3.5,0.8-5.1,1.3
			c-0.2-12.3-0.3-24.6-0.4-36.9C591.8,523.2,592.2,522.2,593.8,522.3z"/>
		<path class="st22" d="M264.2,437c1.3,1.7,1.7,4.7,5,1.4c2.3-2.4,3.6-7.4,8.7-5.8c-4.8,4.4-9.7,8.9-14.9,13.6
			C263.2,443.2,262.1,440,264.2,437z"/>
		<path class="st23" d="M676.2,522.3c0,6.7,0.1,13.4,0,20.1c0,2.2,1,4.7-1.7,6.2c-0.1-7.6-0.2-15.3-0.3-22.9
			C674.2,524.4,673.6,522.3,676.2,522.3z"/>
		<path class="st0" d="M291.6,480.6c-5.7-0.4-11.1-1.6-16.5-3.3c-3.9-1.2-5-3.5-1.8-6.5c17.2-16.7,34.3-33.4,51.8-49.8
			c4.6-4.4,10.1-3.1,13.7,2.2c2.5,3.7,3,7.7,2.5,12c-2,17.5-21.6,39.8-38.7,43.9C299,479.9,295.2,480.1,291.6,480.6z"/>
		<path class="st24" d="M425.6,457.3c4-3.5,8-7,12-10.5C433.8,450.7,435.7,461.1,425.6,457.3z"/>
		<path class="st25" d="M557.7,542.4c0-1.8-0.5-3.9,0.1-5.5c1-3-3.6-8.4,3.8-8.8c8.3-0.4,12.9,1.9,13.9,8.1
			c0.7,4.3,0.8,8.8-0.2,13.1c-1.3,5.6-12,9.7-16.6,6.5c-1.4-1-1-2.4-1-3.7C557.7,548.9,557.7,545.6,557.7,542.4z"/>
		<path class="st26" d="M606.2,539.2c-4.9,1.1-7.6-0.3-7.1-6.6c0.3-3.7,1.4-4.9,4.9-4.5c2.1,0.2,4.2,0,6.3,0.1
			c3.7,0.1,6.5,1.5,6.4,5.7c-0.1,4.1-2.8,5.5-6.6,5.4C609,539.2,607.9,539.2,606.2,539.2z"/>
		<path class="st27" d="M67.7,530.1c1.7,4.5,2.5,7.7,4,10.5c3.3,6.1,0.3,6.4-4.9,6.5c-5.1,0.1-5.3-1.6-3.5-5.5
			C64.8,538.5,65.8,535.2,67.7,530.1z"/>
		<path class="st28" d="M291.8,530c1.9,4.8,2.9,8.1,4.4,11.1c2.6,5.1,0.6,6.1-4.3,6c-4.4-0.1-6.8-0.5-4.2-5.6
			C289.1,538.4,290,535,291.8,530z"/>
		<path class="st29" d="M489.3,546.6c-13.2,0.2-14.3,4.1-6.4-14.9c2.6,1.8,2.4,4.8,3.5,7.2C487.4,541.2,488.2,543.6,489.3,546.6z"/>
		<path class="st30" d="M180.4,556.9c-0.2,2.5-0.8,4.4-4.1,4.3c-7.5-0.2-15.1-0.1-22.6-1.2c7.8,0,15.6,0,23.4,0c0-0.4,0-0.8,0.1-1.3
			c-5.9,0-11.8,0-17.7,0c0-0.6,0-1.2,0-1.8C166.5,557,173.5,557,180.4,556.9C180.5,557,180.4,556.9,180.4,556.9z"/>
		<path class="st31" d="M18,541.7c0-1.6-0.4-3.4,0.1-4.8c0.9-3-2.9-7.8,3.2-8.7c7.8-1.1,13.1,1.5,14.5,7.4c1.1,4.8,1.2,9.7-0.3,14.4
			c-1.5,5-12.3,8.8-16.5,6c-1.4-0.9-1-2.5-1-3.8C18,548.6,18,545.2,18,541.7z"/>
	</g>
</g>
</svg>
