<?xml version="1.0" encoding="utf-8"?>
<!-- Generator: Adobe Illustrator 21.1.0, SVG Export Plug-In . SVG Version: 6.00 Build 0)  -->
<svg version="1.1" id="Layer_1" xmlns="http://www.w3.org/2000/svg" xmlns:xlink="http://www.w3.org/1999/xlink" x="0px" y="0px"
	 viewBox="0 0 700 965" style="enable-background:new 0 0 700 965;" xml:space="preserve">
<style type="text/css">
	.st0{fill:#FEFEFE;}
	.st1{fill:#0A0A0A;}
	.st2{fill:#121212;}
	.st3{fill:#111111;}
	.st4{fill:#090909;}
	.st5{fill:#0F0F0F;}
	.st6{fill:#0B0B0B;}
	.st7{fill:#0D0D0D;}
	.st8{fill:#0E0E0E;}
	.st9{fill:#F0F0F0;}
	.st10{fill:#F8F8F8;}
	.st11{fill:#FCFCFC;}
	.st12{fill:#FBFBFB;}
	.st13{fill:#E2E2E2;}
	.st14{fill:#E5E5E5;}
	.st15{fill:#E6E6E6;}
</style>
<g>
	<g>
		<path class="st0" d="M351.6,165.1c115.3,0,230.7,0,346-0.1c4.8,0,5.7,0.9,5.7,5.7c-0.2,209.7-0.2,419.3,0,629
			c0,4.8-0.9,5.7-5.7,5.7c-230.7-0.2-461.4-0.2-692.1,0c-4.8,0-5.7-0.9-5.7-5.7C0,590,0,380.3-0.1,170.7c0-4.8,0.9-5.7,5.7-5.7
			C120.9,165.1,236.3,165.1,351.6,165.1z"/>
		<path d="M79.9,477.7c0-14.5,0.1-29-0.1-43.4c-0.1-4.2,0.5-6,5.5-6c22.6,0.3,45.3,0,67.9,0.2c9.6,0.1,19,2.1,27.8,6
			c18.9,8.3,29.2,26.3,27,46.8c-2.4,22.4-17.7,39.6-38.7,43.8c-10.1,2-20.3,2.5-30.6,2.6c-17,0.1-34.1-0.4-51.1,0.2
			c-6.8,0.2-7.9-2.1-7.8-8.2C80.2,505.7,79.9,491.7,79.9,477.7z"/>
		<path d="M374.5,463.7c0,20.2-0.2,38.8,0.1,57.5c0.1,4.9-0.7,7.2-6.3,6.7c-5.8-0.6-11.7-0.3-17.5-0.1c-3.5,0.2-4.8-0.6-4.8-4.5
			c0.2-30.1,0.2-60.2,0-90.3c0-3.7,1.1-4.4,4.7-4.7c11.8-0.9,21.7,1.1,31,9.8c20.2,18.9,42.7,35.3,64,55c0-3.2,0-5.8,0-8.5
			c0-17,0.1-34.1-0.1-51.1c0-3.8,0.7-5.4,4.9-5.2c6.5,0.4,13.1,0.2,19.6,0c3.2-0.1,5,0.2,4.9,4.4c-0.2,30.1-0.2,60.2,0,90.3
			c0,3.8-1.2,4.9-4.8,4.7c-5.1-0.3-10.3-0.2-15.4,0c-2.5,0.1-4.5-0.8-6.3-2.3c-22.3-18.3-44.7-36.6-67-55
			C379.4,468.9,377.7,466.9,374.5,463.7z"/>
		<path d="M241.1,465.4c14.7-9.1,29.1-17.1,42.5-26.5c11.6-8.2,23.5-12.3,37.7-10.6c6,0.7,12.1,0.1,20.1,0.1
			c-23.2,15.3-44.9,29.6-67.3,44.4c23.1,18,45.8,35.8,70.1,54.7c-13.4,0-25,0-36.5,0c-2.8,0-4.6-2-6.6-3.5
			c-15.1-11.3-30.1-22.7-45.2-34c-2.1-1.6-3.8-4.6-7.1-1.9c-3.2,2.6-8.2,3.2-7.7,9.4c0.6,8.1-0.1,16.3,0.2,24.5
			c0.1,4.1-0.6,5.9-5.3,5.6c-6.5-0.4-13.1-0.3-19.6,0c-3.6,0.1-4.8-0.8-4.8-4.6c0.1-30.1,0.1-60.2,0-90.3c0-3.2,0.7-4.5,4.2-4.4
			c7,0.3,14,0.3,21,0c4.1-0.2,4.5,1.6,4.4,4.9C241,443.5,241.1,454,241.1,465.4z"/>
		<path d="M477.5,428.5c10.6,0,21.3,0,31.9,0c2.5,0,3.6,2,5,3.4c9,8.9,18,17.7,26.7,26.8c2.6,2.8,4.1,3.2,6.9,0.2
			c8.7-9.1,17.8-17.8,26.6-26.9c2.4-2.5,4.9-3.7,8.5-3.6c9.5,0.3,19,0.1,30.6,0.1c-9.8,9.6-18.3,18-26.8,26.4
			c-8.1,8.1-16.1,16.2-24.3,24.2c-2.5,2.5-3.6,5-3.5,8.6c0.2,11.7-0.1,23.3,0.2,35c0.1,3.8-0.7,5.4-4.9,5.2
			c-6.3-0.4-12.6-0.3-18.9,0c-4.3,0.2-5.7-1.1-5.5-5.4c0.3-11.4-0.1-22.9,0.2-34.3c0.1-4.1-1.2-6.9-4.1-9.7
			c-16.6-16-32.9-32.2-49.3-48.3C476.9,429.5,477.2,429,477.5,428.5z"/>
		<path class="st1" d="M467.2,546c-1.8,4.6-3.2,8.3-4.5,12c-0.5,1.5-0.5,3.4-2.8,3.4c-1.9,0-1.8-1.9-2.3-3c-1.8-4.5-3.6-9-5.2-13.6
			c-0.3-0.8-1.9-2.1-0.1-2.8c1.5-0.6,2.5,0.2,3,1.9c1.3,3.9,2.7,7.8,4.6,12.9c2-5.1,3.6-8.9,5-12.9c0.4-1.2,0.7-2.2,2.2-2.2
			c1.3,0,1.9,0.7,2.3,2c1.3,3.9,2.9,7.8,4.6,12.2c3.1-3.7,3.4-8.1,5-11.9c0.6-1.6,1.5-2.7,2.9-2c2,0.9,0.1,2.4-0.2,3.3
			c-1.4,4.4-3.1,8.7-4.9,13c-0.5,1.1-0.2,3-2.2,3.1c-2.3,0.1-2.3-1.8-2.9-3.3C470.5,554.5,469,550.8,467.2,546z"/>
		<path class="st2" d="M142.6,544.4c0,4.9,0.2,8.4-0.1,11.8c-0.1,1.8,1.3,5-1.7,5c-2.4,0-1.3-3-1.4-4.6c-0.2-3.3-0.2-6.5,0-9.8
			c0.1-1.7-1.1-4,1.3-4.9c2.2-0.8,3.9,0.6,5.5,2.1c4.5,4.3,9.2,8.4,14.3,12.9c1.4-5.3-0.5-10.4,2.1-15.1c2.1,6,1.8,12.3,1.1,18.3
			c-0.4,3.2-3.1,0.9-4.6-0.4C153.9,555,148.9,550.2,142.6,544.4z"/>
		<path class="st3" d="M377.5,557.4c0-5-0.1-8.3,0-11.5c0-1.5-0.8-3.7,1.6-3.9c2.8-0.2,1.8,2.2,1.7,3.5c-0.3,5.2,2.4,13.2-1.1,15
			c-4.8,2.5-7.8-5.5-12-8.4c-2.9-1.9-5.2-4.6-8.3-7.3c-1.5,5.7,0.5,11.4-1.3,16.6c-0.7,0-1.5,0-2.2,0c0-6.2-0.7-12.5,0.3-18.5
			c0.5-2.8,4.2-1.3,6.1,0.5C367,547.7,371.5,551.9,377.5,557.4z"/>
		<path class="st4" d="M299.2,561.7c-1.4-6-0.4-11.8-0.7-17.4c-0.1-1.2,0.1-2.5,1.7-2.4c5.8,0.1,11.7,0,17.5,0.5
			c2.1,0.2,3.8,2.1,3.9,4.4c0.3,4.1-3.4,5-6.5,6.5c2.3,2.8,4.3,5.2,6.5,7.8c-4.6,1.3-5.3-2.8-7.5-4.4c-1.8-1.3-2.6-3.7-5.5-3.8
			c-4.6-0.2-8.5-0.1-7.1,6.3C301.5,560.1,301.3,561,299.2,561.7z"/>
		<path class="st5" d="M79.9,550.6c1.8-2.3-3.3-7.4,2.5-8.8c9.3-2.2,18.6,0.4,21.1,5.3c2.4,4.8,0.3,10.6-4.7,12.9
			c-5.3,2.4-11,1.3-16.6,1.5c-2.4,0.1-2.4-1.6-2.4-3.3C80,555.9,79.9,553.5,79.9,550.6z"/>
		<path class="st6" d="M191.3,557.2c1.3-5.7-0.7-10.8,2.2-17.3c2.1,7.8,1.7,14.1,1,19.9c-0.5,4-3.6,1-5-0.3
			c-5.3-4.7-10.4-9.6-16.1-15c-1.3,6.2,0.6,11.8-2.1,16.9c-2.3-6-2-12.4-1-18.4c0.4-2.7,4.2-1.1,6.2,0.6
			C181.1,547.9,185.9,552.3,191.3,557.2z"/>
		<path class="st5" d="M419.6,557.3c1-6-0.6-10.8,2.1-15.4c1.9,6.1,1.8,12.4,0.9,18.5c-0.4,2.7-3.4,0.6-4.8-0.7
			c-5.3-4.8-10.4-9.8-16.9-15.8c0,6.9,0,12.2,0,17.5c-0.7,0-1.4,0.1-2,0.1c-1.5-6-1.2-12.4-0.2-18.4c0.5-2.8,4.2-1.1,6.1,0.6
			C409.4,548,414.2,552.3,419.6,557.3z"/>
		<path class="st4" d="M553.7,561.6c-1.3-5.9-0.4-11.6-0.6-17.3c-0.1-1.2,0.2-2.5,1.7-2.5c5.8,0.1,11.6,0,17.3,0.6
			c1.8,0.2,3.5,1.8,3.8,4.4c0.4,4.5-4,4.4-6.2,6.7c2,2.5,4,4.9,6.1,7.5c-4.2,1.4-4.9-2.2-6.8-3.9c-1.8-1.6-2.8-4.3-5.9-4.3
			c-3.9,0-8.3-0.8-7,5.6C556.2,559.6,556.2,560.9,553.7,561.6z"/>
		<path class="st1" d="M119.8,561.8c-1.9,0.1-5.1-0.4-8-2.2c-4.7-3-5.6-7.5-3.5-12.2c2.3-5.2,7.5-6.1,12.4-6.2
			c5.2-0.1,10.5,0.7,13.2,6C137.9,554.9,131.8,561.8,119.8,561.8z"/>
		<path class="st4" d="M534.8,561.8c-3,0-6.1-0.1-8.8-1.8c-2.4-1.5-4.6-3.2-5-6.3c-0.5-4,0.2-7.6,3.8-9.8c5.8-3.5,11.9-3.4,18-0.8
			c4,1.7,5.6,4.9,5.6,8.9C548.5,557.9,543,561.7,534.8,561.8z"/>
		<path class="st4" d="M253.3,549.3c4.2,3.9,8.1,7.6,12.5,11.6c-5.1,1.4-6.4-3.2-9.3-4.7c-2.6-1.4-3.4-6.1-7.7-4.3
			c-3.9,1.6-5.5,4.5-5,8.7c0,0.2-0.6,0.6-1.9,1.6c0-7.2,0-13.7,0-20.6c4,2.4,0.9,6.3,2.5,9.5c6.4-2,11-8.3,18.6-8.6
			C259.8,544.7,256.6,547,253.3,549.3z"/>
		<path class="st7" d="M581.5,561.4c0-5.9,0-11.7,0-17.6c0-1,0.2-1.9,1.4-1.9c1.2,0,1.5,0.8,1.5,1.8c0,2.3,0,4.7,0,7.4
			c7.1-1.7,11.3-8.8,20.7-9.7c-4.7,3.3-7.9,5.5-11.3,7.8c4.3,4,8.4,7.7,12.9,11.8c-5.8,1-7.2-3.8-10.4-5.7c-2.2-1.3-3.3-5.2-6.8-3.6
			c-3.2,1.5-6.2,3.5-5.2,7.9c0.1,0.5-0.5,1.1-0.8,1.6C582.9,561.5,582.2,561.4,581.5,561.4z"/>
		<path class="st1" d="M446.4,552.2c-3.7,0-7.3,0.1-11,0c-2.5-0.1-3.8,0.6-3.8,3.5c-0.1,3.1,1.4,3.4,3.8,3.3c4.9-0.1,9.7,0,14.6,0
			c0,0.9,0,1.7-0.1,2.6c-6.3,0-12.6,0-18.9,0c-1.9,0-2.3-1.2-2.3-2.7c0-4.9,0-9.8,0-14.7c0-1.9,1-2.3,2.6-2.3c6,0,12,0,18,0.6
			c-4.5,2.3-9.2,1.1-13.8,1.3c-2.4,0.1-3.9,0.4-3.9,3.4c0,3.3,2,3.1,4.1,3.1c3.6,0,7.3,0,10.9,0
			C446.5,550.8,446.4,551.5,446.4,552.2z"/>
		<path class="st4" d="M267.6,560.9c3.4-5.6,6.8-11.3,10.3-16.9c2-3.2,4.5-3.2,6.5,0c3.5,5.5,6.9,11.2,10.1,17.5
			C285.5,554.1,277,552.8,267.6,560.9z"/>
		<path class="st4" d="M225.5,560.8c-9.1-6.6-17.7-8.3-27.1,0c3.7-6,7.3-12.2,11.3-18c1.3-1.9,3.7-1.7,5.2,0.7
			C218.4,549.3,222,555,225.5,560.8z"/>
		<path class="st4" d="M351.1,562.1c-8.4-9.4-17-7.9-26-1.2c3.4-5.6,6.8-11.3,10.3-16.9c2-3.2,4.4-3.2,6.4,0
			c3.5,5.5,7,11.2,10.4,16.8C351.9,561.2,351.5,561.6,351.1,562.1z"/>
		<path class="st8" d="M493,541.9c5.3-0.3,7.2,3.5,9.5,6c2.8,3,4.5,2.6,7.2,0c2.5-2.4,4.1-6.4,9.4-5.9c-2.5,2.6-4.5,4.8-6.8,6.9
			c-3,2.7-5.8,5.3-4.9,9.9c0.2,1,0.3,2.5-1.4,2.5c-0.5,0-1.5-0.8-1.5-1.1C506.3,551,497.4,548.3,493,541.9z"/>
		<path class="st0" d="M109.4,477.3c0-7.2,0.2-14.5-0.1-21.7c-0.1-3.7,0.7-5.3,4.9-5.2c13.1,0.4,26.2,0,39.2,0.5
			c15.2,0.6,23.9,9.5,24.8,24.6c0.9,16-5.8,24.5-21.4,27.3c-14.6,2.7-29.3,0.7-44,1.4c-3.7,0.2-3.4-2.1-3.4-4.5
			C109.4,492.2,109.4,484.8,109.4,477.3z"/>
		<path class="st9" d="M308.9,550.3c-1.6,0-3.3-0.1-4.9,0c-2.1,0.1-2.9-0.7-2.7-2.8c0.2-1.9,0-3.9,2.7-3.8c3.5,0.1,7,0.2,10.4,0.5
			c1.8,0.2,4.1,0.4,3.9,3c-0.2,2.7-2.3,3.2-4.6,3.2C312.1,550.3,310.5,550.3,308.9,550.3z"/>
		<path class="st10" d="M83,549.8c-0.1-2.6-1.1-7.1,5.5-6.1c5.2,0.8,11.9-0.8,12.7,7.4c0.5,5.7-2.9,7.8-11.9,7.8
			C83,559,83,559,83,549.8z"/>
		<path class="st9" d="M563.4,550.3c-1.4,0-2.8,0-4.2,0c-5.1,0.2-3.5-3.6-2.8-5.7c0.8-2.3,15-1,16.1,1.4c1,2.3-0.4,3.7-2.3,4
			c-2.2,0.4-4.6,0.1-6.9,0.1C563.4,550.2,563.4,550.3,563.4,550.3z"/>
		<path class="st11" d="M121.3,543.3c6.5,0.1,10.7,3.4,10.4,8.5c-0.4,6.5-5.5,7.5-10.3,7.9c-6.3,0.5-10.8-3.2-10.8-8.1
			C110.5,546.6,114.8,543.3,121.3,543.3z"/>
		<path class="st12" d="M545.2,551.3c0.1,5.1-4.1,8.5-10.5,8.5c-6.2,0-10.9-3.5-10.7-8.3c0.3-6.4,5.1-7.7,10.2-8
			C540.6,543,545.1,546.4,545.2,551.3z"/>
		<path class="st13" d="M281,543.9c1.2,1.9,2,2.9,2.7,4.1c1,1.7,2,3.5,3.3,5.8c-4,0-7.4,0-11.8,0C277.2,550.5,278.9,547.6,281,543.9
			z"/>
		<path class="st14" d="M205.9,554c2.2-3.7,3.9-6.5,6.1-10.2c2.2,3.7,3.9,6.6,6,10.2C213.6,554,210.2,554,205.9,554z"/>
		<path class="st15" d="M338.6,543.7c2.3,3.9,4,6.8,6.1,10.2c-4.2,0-7.6,0-11.9,0C334.8,550.5,336.4,547.5,338.6,543.7z"/>
	</g>
</g>
</svg>
