<?xml version="1.0" encoding="utf-8"?>
<!-- Generator: Adobe Illustrator 21.1.0, SVG Export Plug-In . SVG Version: 6.00 Build 0)  -->
<svg version="1.1" id="Layer_1" xmlns="http://www.w3.org/2000/svg" xmlns:xlink="http://www.w3.org/1999/xlink" x="0px" y="0px"
	 viewBox="0 0 700 965" style="enable-background:new 0 0 700 965;" xml:space="preserve">
<style type="text/css">
	.st0{fill:#FEFEFE;}
	.st1{fill:#252122;}
	.st2{fill:#242021;}
	.st3{fill:#262223;}
	.st4{fill:#252223;}
	.st5{fill:#282425;}
	.st6{fill:#FDFDFD;}
</style>
<g>
	<path class="st0" d="M352,833.9c-114.4,0-228.9-0.1-343.3,0.2c-5.9,0-7.2-1.1-7.2-7.1c0.2-228.9,0.2-457.7,0-686.6
		c0-6.9,2.1-7.4,7.8-7.3c229.1,0.1,458.3,0.2,687.4,0c6.2,0,7.6,1.2,7.6,7.6c-0.2,228.6-0.2,457.1,0,685.7c0,7-2.1,7.8-8.3,7.8
		C581.5,833.9,466.7,833.9,352,833.9z"/>
	<path class="st1" d="M133.6,451.2c7.6,0,15.1-0.4,22.7,0.1c8,0.5,13.7,4.5,15.2,12.9c0.4,1.9,1.6,4.3-1.7,4.7
		c-2.1,0.2-4.6,1-5.4-2.5c-1.7-7.1-7.5-8.3-13.5-8.3c-11.3-0.2-22.7,0-34-0.1c-7-0.1-11.3,3.2-11.8,10c-0.5,7.5,4.6,9.8,11.2,10.2
		c14.2,0.9,28.5-1.3,42.7,0.7c9.4,1.3,14,6.4,14.2,16.4c0.2,10.6-4.9,18.4-14,18.8c-14.8,0.6-29.7,0.6-44.5,0
		c-7.8-0.3-13.8-4.3-15.4-12.9c-0.4-2-1.2-4.3,1.6-5.1c2.5-0.8,4.8-0.2,5.4,2.8c1.4,7.4,6.9,8.6,13.1,8.6c11.3,0,22.7,0,34,0.1
		c7.5,0.1,11.5-3.9,11.7-11.1c0.2-7.8-4.5-10.6-11.8-10.5c-12.5,0.1-25,0.2-37.5,0c-15.1-0.2-22.9-13.4-16.2-26.8
		c2.6-5.1,6.4-8.2,12.3-8.1c7.3,0,14.5,0,21.8,0C133.6,451,133.6,451.1,133.6,451.2z"/>
	<path class="st2" d="M218.9,514.4c-6.7,0-13.4,0.1-20.1,0c-8.7-0.2-14.5-4.6-15.9-13.2c-2.1-12.7-2-25.5,0.2-38.2
		c1.3-7.7,6.3-11.8,13.9-11.9c14.5-0.3,29.1-0.2,43.7,0c8.1,0.1,13.1,4.6,14.5,12.5c2.3,12.7,2.3,25.5,0,38.2
		c-1.4,7.8-6.3,12.3-14.4,12.6C233.5,514.5,226.2,514.3,218.9,514.4C218.9,514.4,218.9,514.4,218.9,514.4z"/>
	<path class="st1" d="M424.9,481.8c0-8.1,0.2-16.3-0.1-24.4c-0.2-4.7,0.9-6.7,6.2-6.6c13.7,0.3,27.4-0.2,41,0.2
		c18.8,0.5,24.9,9.7,18.4,27.1c-0.6,1.5-0.9,2.2,0.4,3.4c9.3,8.6,3.8,19.8,5.1,29.8c0.4,2.8-1.7,3.2-4,3.2c-2.6,0-3.6-1.3-3.6-3.7
		c0-4.9-0.2-9.9,0-14.8c0.4-6.9-2.5-10.5-9.5-10.5c-14-0.2-27.9-0.3-41.9-0.7c-4.5-0.1-5.4,1.9-5.2,5.8c0.4,6.4,0.4,12.8,0.7,19.2
		c0.1,3-0.4,5-4.2,4.9c-3.5-0.1-3.4-2.3-3.4-4.7C424.9,500.5,424.9,491.2,424.9,481.8z"/>
	<path class="st1" d="M572.9,482.7c0-8.7,0.2-17.5-0.1-26.2c-0.1-4.2,1.1-5.5,5.3-5.4c15.1,0.3,30.2-0.2,45.4,0.2
		c15,0.4,20.3,6.3,20.5,21c0.1,7.6,0.3,15.1-0.1,22.7c-0.6,13-6.9,19.2-19.7,19.4c-15.1,0.2-30.2-0.2-45.4,0.2
		c-5.3,0.1-6.2-1.9-6-6.6C573.1,499.6,572.9,491.2,572.9,482.7z"/>
	<path class="st3" d="M19.5,482.6c0-8.4,0.2-16.8-0.1-25.3c-0.1-4.1,0.5-6.3,5.5-6.2c15.1,0.3,30.2-0.2,45.3,0.2
		c14.9,0.4,20.3,6.4,20.3,21.1c0,7.5,0.2,15.1,0,22.6c-0.5,12.4-7.4,19.2-19.8,19.3c-14.8,0.2-29.6-0.2-44.4,0.2
		c-5.2,0.1-7.2-1.2-6.9-6.7C19.9,499.5,19.5,491,19.5,482.6z"/>
	<path class="st2" d="M506.8,482.7c0-8.7,0.2-17.5-0.1-26.2c-0.1-4.2,1.2-5.4,5.4-5.4c15.1,0.2,30.3,0.1,45.4,0.1
		c2.3,0,5.4-1.2,5.5,3.3c0.1,5.1-3.5,3.6-6,3.6c-12.2,0.1-24.5,0.4-36.7-0.1c-5.5-0.2-6.8,1.4-6.7,6.8c0.2,14-0.1,14,14.3,14
		c9.6,0,19.2,0,28.8,0c2.1,0,4.9-0.8,5.1,2.9c0.2,3.8-2.2,4.1-5.1,4c-12.2-0.1-24.5,0.2-36.7-0.1c-4.8-0.1-6.4,1.1-6.4,6.2
		c-0.1,15.5-0.3,15.5,15.4,15.5c9.6,0,19.2,0,28.8,0c2.8,0,5.3-0.1,5.2,3.9c-0.1,3.7-2.7,3.1-4.9,3.1c-15.4,0-30.9-0.1-46.3,0.1
		c-4.5,0.1-5.2-1.8-5.1-5.6C506.9,500.2,506.8,491.4,506.8,482.7z"/>
	<path class="st4" d="M418.2,513.3c-6.4,3-9.4-0.1-10.9-5.1c-2.1-7-6.6-9.1-13.7-8.5c-8.1,0.6-16.3,0.6-24.4,0
		c-7.5-0.6-12.8,1-15.3,8.9c-1.6,5.1-5.1,7.4-11,4.9c10.2-19.7,20.3-39.3,30.6-58.8c2.8-5.2,11.4-5.8,14.1-0.8
		C397.9,473.6,408,493.5,418.2,513.3z"/>
	<path class="st2" d="M303.4,514.4c-6.1,0-12.2,0.1-18.3,0c-11.4-0.3-17.4-5.6-17.9-17.1c-0.6-13.9-0.1-27.9-0.2-41.8
		c0-2.6,0.3-4.5,3.7-4.3c3.6,0.2,3.3,2.5,3.3,4.8c0,10.8,0,21.6,0,32.3c0,17.6,1,18.5,19,18.5c9.6,0,19.2,0.1,28.8,0
		c8.9-0.2,11.9-3.3,11.9-12.2c0.1-12.5,0-25,0-37.6c0-2.7-1.2-6,3.8-5.9c4.4,0.2,3.4,3.1,3.4,5.5c0,13.1,0.2,26.2-0.2,39.3
		c-0.5,13.2-6.1,18.3-19,18.5C315.7,514.5,309.5,514.4,303.4,514.4z"/>
	<path class="st5" d="M667.8,484.7c-3.2,0-6.5,0.4-9.6-0.1c-3-0.5-8.2,3-8.2-4c0-5.5-0.1-11,7-12c5.7-0.7,11.6-0.5,17.4-0.9
		c3.7-0.2,7.1-1.1,6.8-5.9c-0.2-4.6-3.1-6.2-7.1-5.5c-6.5,1.3-14.5-4-19.6,4.6c-1.1,1.8-3.7-0.5-3.4-3c0.5-4.4,3.4-6.6,7.7-6.7
		c6.1-0.2,12.2-0.1,18.3,0c6.6,0.1,9.2,4.3,9.4,10.2c0.2,5.7-1.5,10.6-8.2,11.2c-5.5,0.5-11,0.3-16.5,0.7c-2.5,0.2-6,0.5-5.7,3.9
		c0.3,3.3,3.6,1.8,5.6,1.9c7,0.2,14,0.1,20.9,0.1c2.1,0,4.2,0.1,3.9,3.1c-0.2,2.5-2.1,2.4-3.8,2.4
		C677.7,484.8,672.7,484.7,667.8,484.7z"/>
	<path class="st0" d="M249,483.1c0,1.7,0,3.5,0,5.2c0,17.6-1.2,18.6-18.9,18.6c-5.6,0-7.9-1.4-7.4-7.3c0.5-5.8,0-11.6,0.1-17.4
		c0.1-3.3-1.2-4.6-4.6-4.6c-3.7,0-3.3,2.4-3.3,4.7c0,6.4-0.2,12.8,0.1,19.2c0.2,4.2-1.3,5.8-5.5,5.4c-2.9-0.3-5.8-0.1-8.7,0
		c-7.6,0.2-11.4-3.9-11.7-11c-0.4-8.7-0.3-17.5,0-26.2c0.2-7.7,4.5-11.5,12.3-11.4c10.8,0.1,21.5,0,32.3,0
		c13,0.1,15.2,2.3,15.3,15.3C249,476.7,249,479.9,249,483.1z"/>
	<path class="st0" d="M455.6,477.7c-6.1,0-12.2-0.3-18.3,0.1c-4.6,0.3-5.7-1.4-5.8-5.9c-0.2-14-0.4-14,13.2-14c9.6,0,19.2,0,28.8,0
		c6.9,0,12.3,2.5,12.4,10.2c0.1,7.8-5.9,9.2-12,9.4C467.8,477.9,461.7,477.7,455.6,477.7z"/>
	<path class="st0" d="M604.7,458c7,0,14-0.2,21,0.1c6.8,0.3,10.8,3.8,10.7,11c0,9-0.1,18.1,0,27.1c0,8-4.4,12-11.8,12.2
		c-13.4,0.4-26.8,0.1-40.2,0.2c-3.8,0-5.1-1.3-5.1-5.1c0.1-13.7,0.2-27.4,0-41.1c-0.1-4.2,2-4.7,5.3-4.6
		C591.3,458.1,598,457.9,604.7,458C604.7,458,604.7,458,604.7,458z"/>
	<path class="st0" d="M25.9,482.8c0-6.7,0.2-13.4-0.1-20c-0.2-3.9,1.3-4.9,5-4.9c13.6,0.2,27.3,0,40.9,0.1c6.9,0.1,11,4,11.3,10.7
		c0.4,9.3,0.4,18.6,0,27.8c-0.3,8-5.3,12-13.1,12.1c-13.1,0.1-26.1-0.1-39.2,0.1c-3.8,0.1-5.1-1.2-5-5
		C26.1,496.7,25.9,489.7,25.9,482.8z"/>
	<path class="st6" d="M380.5,456.9c6.2,11.9,11.9,22.8,18.1,34.7c-12.1,0-23.4,0-35.8,0C368.7,480.1,374.3,469.2,380.5,456.9z"/>
</g>
</svg>
