<svg xmlns="http://www.w3.org/2000/svg" viewBox="0 0 586.5 96.19"><defs><style>.cls-1{fill:#231f20;}</style></defs><title>Risorsa 2</title><g id="Livello_2" data-name="Livello 2"><g id="Livello_1-2" data-name="Livello 1"><path class="cls-1" d="M63.7,10.93C54.05,4,45.58,1.77,27.57,1.77H0V94.32c6.4.1,12.6.1,18.9.1,16.74,0,22.15-.3,28.65-1.77A41.08,41.08,0,0,0,67.83,81.52c8.66-8.47,13.69-20.68,13.69-33.87C81.52,32.69,74.92,19.3,63.7,10.93ZM39.69,75c-4.41.79-6.85,1-14.73,1H17.76V19.79c2.44-.1,4.06-.1,5.22-.1,15.2,0,23.55,2.07,30.63,7.48C60,32,63.35,39.09,63.35,47.85,63.35,61.93,54.42,72.27,39.69,75Z"/><path class="cls-1" d="M374.4,10.93C364.75,4,356.28,1.77,338.26,1.77H310.7V94.32c6.4.1,12.6.1,18.9.1,16.74,0,22.15-.3,28.65-1.77a41.09,41.09,0,0,0,20.28-11.13c8.76-8.47,13.69-20.68,13.69-33.87C392.22,32.69,385.62,19.3,374.4,10.93ZM350.4,75c-4.41.79-6.85,1-14.75,1h-7.2V19.79c2.44-.1,4.06-.1,5.23-.1,15.21,0,23.57,2.07,30.66,7.48,6.39,4.82,9.76,11.91,9.76,20.68C374.09,61.93,365.15,72.27,350.4,75Z"/><path class="cls-1" d="M571.84,7.68c-7.78-4.53-15.46-5.91-31-5.91H509.29V94.32h17.56V69.51h17.51c15,0,24.42-2.86,32.1-9.94q10-9.3,10-24.22C586.5,23.43,581.09,13.09,571.84,7.68Zm-9.64,39.48c-4.34,3.35-10,4.73-18.3,4.73h-17V19.4h15.63c8.8,0,12.67.69,17.13,2.86a14.59,14.59,0,0,1,8.33,13.29A14.22,14.22,0,0,1,562.19,47.16Z"/><path class="cls-1" d="M141.87,0C114.11,0,92.74,20.77,92.74,47.85c0,27.27,21.56,48.34,49.52,48.34S191.4,75.42,191.4,48.24,169.74,0,141.87,0Zm.44,80.77c-17.78,0-32.18-14.74-32.18-33.19A31.58,31.58,0,0,1,142,15.52c18.23,0,31.84,13.84,31.84,32.4S159.86,80.77,142.31,80.77Z"/><path class="cls-1" d="M473.78,1.77V48.61c0,13.32-.47,16.1-4.24,21.54a24.24,24.24,0,0,1-40,0c-3.77-5.22-4.59-9.55-4.59-21.1V1.77H407.19V49.13c0,17.13,1.77,23.53,9.35,32.29a44.3,44.3,0,0,0,65.87.2c7.29-8.37,9.06-15.16,9.06-32.39V1.77Z"/><polygon class="cls-1" points="272.88 67.95 221.5 1.77 205.77 1.77 205.77 94.32 223.53 94.32 223.53 30.34 273.21 94.32 290.64 94.32 290.64 1.77 272.88 1.77 272.88 67.95"/></g></g></svg>