<?xml version="1.0" encoding="utf-8"?>
<!-- Generator: Adobe Illustrator 21.1.0, SVG Export Plug-In . SVG Version: 6.00 Build 0)  -->
<svg version="1.1" id="Layer_1" xmlns="http://www.w3.org/2000/svg" xmlns:xlink="http://www.w3.org/1999/xlink" x="0px" y="0px"
	 viewBox="0 0 700 965" style="enable-background:new 0 0 700 965;" xml:space="preserve">
<style type="text/css">
	.st0{fill:#FDFDFD;}
	.st1{fill:#F7F7F7;}
	.st2{fill:#F2F2F2;}
	.st3{fill:#E9E9E9;}
	.st4{fill:#F6F6F6;}
	.st5{fill:#ECECEC;}
	.st6{fill:#030303;}
	.st7{fill:#020202;}
	.st8{fill:#F1F1F1;}
	.st9{fill:#F4F4F4;}
	.st10{fill:#EDEDED;}
	.st11{fill:#E4E4E4;}
	.st12{fill:#DEDEDE;}
	.st13{fill:#EBEBEB;}
	.st14{fill:#E0E0E0;}
	.st15{fill:#DFDFDF;}
	.st16{fill:#EFEFEF;}
	.st17{fill:#E8E8E8;}
	.st18{fill:#CDCDCD;}
	.st19{fill:#E5E5E5;}
</style>
<g>
	<g>
		<path class="st0" d="M6.5,532c0-96.2,0-192.4-0.1-288.6c0-2.7,0.5-3.5,3.7-3.5c229,0.1,458,0.1,686.9,0c3.4,0,3.9,0.7,3.9,3.7
			c-0.1,161.8-0.1,323.7,0,485.5c0,3-0.5,3.7-3.9,3.7c-229-0.1-458-0.1-686.9,0c-3.1,0-3.7-0.8-3.7-3.5C6.5,664.6,6.5,599.8,6.5,535
			c0.4-0.3-0.2,0,0.2-0.3c3.4-1.9,13.4,1.6,14.3,5.1c0.3,1.4,0.6,2.7,1.3,3.9c2.2,4,2.2,4-1.9,6.7c-0.5,0.3-0.7,0.7-1.1,1
			c3.9-3.2,5.9-2.9,8.6,1c0.2,0.3,0.1,1,0.5,0.9c5.8-0.8,7.7,6,13.4,5.7c3.1-0.1,2.7,2.9,3,4.9c0.5,2.9-0.2,5.4-3.4,6.9
			c2-0.3,3.2-3.8,5.5-1.4c1.7,1.8,4.3,3.8,3.1,6.5c-1.7,3.8-5.7,1.5-9.1,2.3c1.2,1.1,2.6,2.5,1.3,3.6c-2.1,1.9-1.9,5.5-5.6,6
			c-1.1,0.1-2.2,0.1-3.2,0.3c-3,0.5-3.8,2-2.6,4.6c0.2,0.3,0.3,0.7,0.6,1c1.8,2,2.9,4.1,0.2,6.2c-1.4,1.1-5.5-0.3-7.1-2.2
			c-0.4-0.5-0.5-1.2-0.9-1.7c-0.3-0.4-0.9-0.8-1.4-0.4c-0.7,0.5-0.4,1.1,0,1.6c0.7,0.7,1.8,0.7,2.5,1.1c2.4,1.4,5.7,1.6,7.1,4.6
			c0.5,1,1.8,0.9,2.9,0.8c1.4-0.2,2.8,0.2,3.7,1.1c1.2,1.2,2.3,1.1,3.9,0.9c2.8-0.4,4.3,1,4,3.7c-0.2,2.2-0.5,4.2,2.1,5.6
			c1,0.5,1.4,1.9,0.8,2.7c-1.8,2.6-2.6,5.7-4.8,8c-2.2,2.3-4.7,2.8-7.4,0.7c-1-0.8-2-1-3.7-0.6c3.8,0.9,7.9,1.2,8.4,5.2
			c0.5,3.6-3.1,5.4-5.8,7.1c-1.9,1.2-1.6,1.6-0.3,3c1.9,2.2,2,5.4,4.7,7.3c0.7,0.5,1.2,1.5,2.1,1.7c4.8,1.4,7.5,5.2,11.1,8
			c2.7,2.2,6,1,8.9,1.6c2.9,0.5,6.2,0,9-2.3c2.8-2.2,6.7-0.9,10.1-0.5c0.4,0.1,0.7,0.3,1,0.5c1,1.7,2.3,2.6,4.5,2
			c1.9-0.6,2.9-1.6,2.8-3.6c-0.1-1.8,0.9-3.1,2.9-3.5c1.7-0.4,3.2,0.1,4.2,1.5c2.5,3.6,5.3,6,10.6,4.3c2.3-0.7,5.4-0.4,7.8,0.7
			c2.5,1.2,4.3,0.4,5.9-1.5c3.4-4,9.5-4.5,13.8-1.1c1.5,1.2,3.2,1.2,4.9,1.7c7,1.9,13.4,2,19.4-2.5c2.2-1.7,5.1-0.1,7.7-0.2
			c2.4-0.2,4.9,0.7,7.2-0.8c2-0.4,2.8-1.5,2.9-3.5c0.3-3.2,1.8-4,5.5-3.5c0.4,0.2,0.7,0.4,0.9,0.7c0.5,3,3.3,4.7,4.6,7.2
			c2.1,3.5,5.9,3.6,9.2,3.5c3.8-0.1,7.5-1.1,11.4-0.5c2,0.3,4.2,0.2,6.1-1.1c0.7-0.5,1.5-0.6,2.3-0.4c6.3,1.7,12.9,1.3,19.3,1.8
			c3.2,0.3,6-1.3,7.5-4.3c0.6-1.1,0.9-2.4,1.3-3.5c2.1-5.7,6.9-8.5,13.3-7.9c0.9,0.1,2.1,0.8,2.3-0.5c0.2-1.4-1.1-1.5-2.2-1.6
			c-0.8-0.1-1.6,0-2.4-0.1c-3-0.5-4.2-2.4-3.5-5.2c1-4,0.4-5.7-3.3-7.9c-3.4-2-6.7-4.1-8.6-7.7c-0.9-1.8-5.9-3-8.2-2.3
			c-1.5,0.5-3.5,0.5-4.5,1.1c-3.8,2.2-7.8,0.3-11.6,1.4c-1.8,0.5-3-0.5-4.1-1.7c-3.8-3.8-4.6-3.8-9.1-0.7c-0.4,0.3-0.9,0.9-1.3,0.8
			c-4.1-0.8-8.2,1.8-12.3-0.2c-3-1.4-6.4-0.8-9.5-1.1c-4.7-0.4-9.2-6-7.3-10.1c1-2.2,2.2-4.3,3.7-6.2c1.7-2.1,3.9-3,7.1-2.6
			c-1.4-1.8-2.5-3.5-3.5-5.2c-1.4-2.3-0.2-4.9,2.5-5.2c2.3-0.2,4.8-0.7,6.7,0.6c-3.9-1.9-4.7-6.6-8.3-9.2c-0.6-0.4-0.7-1.7-0.2-2.1
			c2.8-2.4,1.7-5.9,3-8.7c0.1-0.5,0.2-1,0.3-1.5c0.4-1.3,0.6-2.7,1.9-3.7c1.8-1.4,2.6-2.8,0.5-4.7c-1-0.9-0.5-2.3,0.6-2.9
			c3.1-1.6,5.6-4.5,9.6-4.4c0.9,0,1.8-0.3,2.7-0.7c4.5-1.8,8.5,0.4,7.2,4.7c-1.6,5.2,2.6,7.8,4.1,11.6c0.4,1.1,1.4,1,2-0.1
			c1.2-1.3,0.8-3.1,1.8-4.4c1.6-2,1.1-4.6,2.1-6.8c1.8-3.7,4.8-4.3,8.3-1.7c2.9,2.2,3.2,5.6,5.2,8.2c1.2,0.7,1.3,2.4,2.9,2.7
			c2.7-0.6,2.1-2.7,2.1-4.3c0.4-6.4,1.2-7.2,8.1-7.6c1.3-0.1,2.7-0.1,4,0c4.3,0.3,5.3,1.2,5.6,5.3c0.1,1.3,0,2.5,0.1,3.8
			c0.2,1.2,0.1,2.7,2.1,2.6c1-0.6,1.8-1.3,2.4-2.2c0.3-0.7,0.4-1.5,0.9-2.1c0.9-1.1,1.7-2.4,3.4-2.1c1.9,0.3,2.9,1.7,3.3,3.3
			c0.3,1.2-0.1,2.5,1.3,3.3c0.4,0.2,0.8,0.5,1.2,0.8c0.8,0.4,1.6,0.3,2.3-0.2c0.7-0.6,1.2-1.2,2.1-1.7c1.9-1.5,2.8-4.7,6.5-3.3
			c2.3,0.8,1.7,3.9,4.1,4.6c2.4-0.6,2-2.4,2.1-4c0.1-3.4-0.1-6.8,0.2-10.1c0.1-1.4,0.3-2.9,2-3.3c1.8-0.5,2.8,0.8,3.6,1.9
			c2.6,3.9,5.4,7.8,7.8,11.9c0.9,1.4,1.6,2.9,3.2,3.8c2.4,1.1,4,0.6,5.1-1.8c0.7-1.6,2.1-2.8,3.1-4.3c1.8-2.7,4.4-1.5,6.7-0.4
			c1.4,1.5,2.4,3.4,4.1,4.6c3.1,2.3,6.6,3.8,10.5,2.8c3.7-1,7.3-2.2,11.2-1.3c0.6-0.4,1.1-0.8,1.7-1.1c2.2-1.7,1.6-4.2,2-6.3
			c0.9-4.8,1.5-9.7,0.1-14.7c-0.9-3.2-3.4-4.6-5.3-6.8c-1.1-1.3-3.1,0.3-4.5-0.5c-1-0.5-2.1-0.5-3.1-1.1c-6.1-3.5-12.4-2.2-18.7-0.7
			c-0.8,0.2-1.8,0.4-2.4,0c-3.4-2.4-7.4-0.8-10.9-1.5c-5-1-10-1.6-15-2.4c-1.9-0.3-3.6-0.7-5.5-0.4c-1.6,0.3-3.2,0.2-4.7-0.7
			c-0.4-0.3-0.9-0.7-1.4-0.6c-9.7,0.9-19-2.4-28.7-2c-1.1,0-2.2,0.2-3,1c-2.5,2.5-5.1,1.8-7.5,0c-1.6-1.2-3.5-2.3-5.1-1.1
			c-4.7,3.6-10,2.4-15.1,2.1c-3.6-0.2-7.2-0.3-10.8,0.1c-5.7,0.7-11.2-1.3-16.8-1.9c-3.1-0.3-5.8-0.1-7.9,1.3
			c-4.5,3-9.6,2.4-14.4,2.4c-9.9,0-19.6-2.1-29.4-3c-1.1-0.1-2.3-0.4-3.2,0.2c-4,2.6-8.6,1.6-12.9,1.5c-1.5,0-2.4,0.2-3.5,1
			c-2.2,1.7-4.6,2.8-7.3,0.7c-1.1-0.9-2.5-0.7-3.9-0.4c-4.2,0.7-8.3,0.8-12.4-0.4c-2.4-0.7-4.6-0.6-7,0.3c-3.2,1.2-6.7,2.1-10.1,0.1
			c-1-0.6-2.3-0.6-3.5-0.2c-2.4,0.8-4.7,0.9-7-0.4c-1.7-1-3.5-0.4-5,0.5c-2.2,1.3-4.5,1.7-7,1.3c-4-0.6-8.4-0.5-11.8,0.9
			c-3.4,1.4-7.4,2.7-10.1,5.7c-3.3,3.7-6.2,3.8-9.9,0.7c-3.1-2.6-7.4-2.6-11.1-4C8.6,533.5,7.4,533,6.5,532z"/>
		<path class="st1" d="M185.6,569.1c-1.3,2.8,0.4,5.3,1,8c-1.4,0.3-3.1-1.1-3.8,0.4c-0.8,1.6,1.4,1.8,2.1,2.7
			c0.6,0.8,1.5,1.5,1.8,2.4c1.3,3.1,3.5,5,7.2,5.2c0.9,0.1,2.1,0.2,2.2,1.3c0.2,1.4-1.1,1.5-2.1,1.8c-2,0.6-3.9,1.4-5.9-0.6
			c-1.3-1.3-3.6-0.6-5.4-0.5c-1.4,0.1-1.6,1.3-0.8,2.3c1.7,2.2,2.6,5.1,5.8,6c1,0.3,2.4,0.6,1.9,1.9c-0.5,1.2-1.9,1.3-3.2,1
			c-0.9-0.2-1.8-0.6-2.7-0.8c-1.7-0.5-3.2-0.3-4.5,0.8c-3,2.4-4.7,9.2-2.9,12.5c0.5,1,1.3,2,2.4,1.6c3.1-0.9,6.1,1.3,9.2,0.1
			c0.3-0.1,0.9-0.1,1.2,0.1c3.2,2.5,5.8,2.6,7.7-1.5c0.5-1.1,1.9-0.5,1.9,0.6c0.2,4.6,2.7,2.5,4.3,1.1c4.2-3.6,6.4-3.6,10.4,0.6
			c1.5,1.5,2.5,3.6,4.5,0.3c0.7-1.2,2.7-1.2,3.4,0.2c1.2,2.3,2,1.8,3.8,0.4c2.8-2.2,6.8-1.3,9.8-0.9c3.4,0.4,8.7-0.3,9.8,5.2
			c0.3,1.3,2.3,2.5,3.8,3.3c4.1,1.9,7.3,4.2,8.1,8.9c0.2,1.2,1.1,2-0.6,2.7c-0.7,0.3-1.7,0.6-1.4,1.5c0.3,1,1.3,1.2,2.2,1.3
			c0.8,0.1,1.8,0.1,2.4-0.2c3.5-2.5,4.7-1.4,4.5,2.3c0,0.6,0.3,1.2,0.6,1.8c0.4,0.9,2.6,1.3,1.3,2.7c-1,1-2.7,0.9-4.2,0.5
			c-8.4-2.3-11.3-0.8-14,7.3c-1.2,3.6-7.3,7.2-11.5,6.9c-6-0.5-12.2-2.2-17.9-1.2c-5.9,1-11.8-0.6-17.4,0.9c-3.8,1-7.2-0.2-10.7-0.9
			c-1.7-0.3-2.2-1.7-2.5-3.1c0.9-0.9,2.1-1.4,3.5-1.3c3.6,1.2,7.2,1.3,10.9,0.7c1.7,0,3.1,1.7,5,0.6c1.2-0.4,2.5-0.6,3.3-1.5
			c0.8-1.1,2-1.6,3-2.4c1.6-1.3,3.4-1.3,4.4,0.5c0.9,1.6,2.5,1.7,3.8,2.5c5.4,1.1,10.8,0.7,16.3,0.2c-0.1-1.9-1.2-1.8-2.1-1.9
			c-1.7-0.2-3.5-0.1-5.3-0.1c-5.9-0.2-7.1-1.5-6.5-6.9c0.3-2.7,1.8-4,4.7-4.2c2.6-0.2,5.3,0.3,8.6-0.8c-3-1.3-5.5-0.7-7.8-0.9
			c-4.2-0.3-5.5-1.5-5.4-5.4c0-3.8,1.1-4.7,5.4-5c2.8-0.2,5.7,0.4,8.2-1.5c-5.8-1.4-11.7-0.8-17.6-0.7c-1.2,0.1-2,0.5-2.3,1.7
			c-0.4,2-2.2,2.4-4,2.5c-1.8,0.1-2.3-1.1-3-2.4c-1.5-2.6-4.9-4.1-7.2-4.6c-4.5-0.9-9.8-2.1-13.7,2.2c-2.3,1.4-5.2,1.9-5.7,5.4
			c-0.3,1.7-3.3,2.1-5.1,0.4c-1.9-1.7-4-3.4-4.6-6c-0.2-0.9-0.4-2.2-1.9-2c-1.4,0.2-1.2,1.4-1.4,2.4c-0.2,5,0.1,10-0.2,15.1
			c-0.1,1.5,0,3.2-1.9,3.8c-2.1,0.6-3.2-1-4.1-2.4c-2.7-3.9-5.2-7.9-7.7-11.9c-1-1.7-2.3-3.4-4.7-2.9c-2.6,0.5-2.5,2.7-2.5,4.5
			c-0.1,5.4,0,10.8,0,16.2c0,1.2,0,2.5,1.1,3.6c1.7-0.6,1.3-2,1.3-3.1c0-3.3-0.1-6.5,0.1-9.8c0.1-1.6,0.4-3.1,2.4-3.5
			c1.9-0.4,3,0.6,3.9,2c2.9,4.6,5.8,9.1,8.7,13.6c0.8,1.3,1.6,2.7-0.1,4c-2.7-0.3-4.8,2.6-7.7,1.1c-0.8-0.4-1.1,0.4-1.6,0.8
			c-5,3.5-10,3.6-16.1,1.5c-4.8-1.7-9.9-3.8-15.4-3.8c-1.8,0-2.5,1.2-3.1,2.6c-1.4,3.1-3.7,3.8-6.8,2.2c-3.3-1.7-7-2.1-10.2-1
			c-5,1.7-7.6-0.8-10.2-3.9c-0.7-0.9-1-2.2-2.6-1.9c-1.5,0.3-1.5,1.6-1.7,2.7c-0.5,2.8-2.6,4.2-5.2,4.7c-2.4,0.4-4-1.2-4.4-3.5
			c3.5-2.2,4.5-5.2,4.5-9.1c-0.1-5.2,1-6,6.7-6.2c0.4,0,0.8,0,1.2,0c8.5,0,10.1-0.3,9.8,8.2c0,1.2-0.1,3,1.6,3c1.7,0,1.6-1.8,1.5-3
			c-0.1-6.2-0.7-12.3-0.9-18.4c0-0.6-0.3-1.2-1.2-1.6c-1.4,1.1-1,2.7-1.1,4.1c-0.3,4.5-0.7,4.9-5.4,5.5c-2.5,0.3-5,0.9-7.6,0.6
			c-2.9-0.2-4.3-1.6-4.6-4.3c-0.2-1.9,0.5-4-1.2-6c-1.7,1-1.4,2.6-1.4,4c-0.1,6,0,12.1-0.1,18.1c0,1.9,0.1,3.8-1.8,5.2
			c-2.2,0.4-4.5,1-6.8,0.4c-1.2-0.3-2.6-0.1-3.2,1.1c-1.5,2.8-3.9,2.4-6.6,2.1c-2.9-0.4-5.8-1.4-8.7-0.2c-0.5,0.2-1.7,0.1-1.9-0.2
			c-1.8-3.4-7-3.3-8.4-7.1c-0.1-0.2-0.3-0.6-0.5-0.6c-4.7-0.2-6.6-4.4-10.1-6.2c-2.9-1.4-3.5-2.3-0.7-4.5c-1.2-0.4-1.9-0.6-2.6-0.9
			c-1.4-0.5-2.3-1.4-2-2.9c0.3-1.4,1-2.8,2.8-2.7c2.6,0.2,3.9-1.3,5.4-2.8c0.9-0.8,1.6-1.7,0.9-3c-0.7-1.2-1.5-2.5-3.3-2.3
			c-0.3,0-0.5,0.1-0.8,0c-7.4-0.3-7.4-0.4-3.8-7.4c1.8,3.9,4.7,2.3,7.4,1.3c1.1,1.3-1.7,2.7,0.3,3.8c0.8,0.4,1.6,0,2.3-0.4
			c1.3-1,3.2-1.8,2.3-3.9c-0.7-1.7-0.3-2.6,1.7-2.9c2-0.4,2.6-1.8,1.1-3c-2.1-1.6-2.2-3.5-2.1-5.7c0.2-2-0.4-3.4-3-2.5
			c-1.4,0.5-2.3-0.1-3.3-0.8c-1.3-0.9-2.4-1.3-3.9-0.1c-1.7,1.4-3.3,0.3-3.8-1.2c-1.5-4.9-5.6-5.7-10.1-5.8c-2.5-0.1-3.8-0.5-1.9-3
			c0.4-0.5,0.5-1.2,0.6-1.8c0.2-1.1-0.5-2.9,1.7-2.7c1.9,0.1,4.2,0.1,4.8,2.6c0.2,0.9,0.3,1.8,0.7,2.5c0.8,1.5,2.4,2.4,4,1.4
			c1.7-1,0.3-2.1-0.4-3.1c-0.7-1-1.5-2.1-2.1-3.2c-1.4-3,0.9-6.1,4.4-6c2.8,0.1,5.4,0.3,6.2-3.2c0.2-0.8,1.4-1.4,2.3-2.3
			c-1.5-0.8-3-1.6-4.4-2.4c-0.8-0.5-1.6-1.2-1.2-2.2c0.5-1.2,1.8-1.3,2.7-0.8c2.3,1.1,4.8,0.5,7.1,1c1,0.2,2.3,0.3,3-0.6
			c0.9-1.1-0.4-1.8-0.9-2.6c-1-2-1.9-4.1-4.8-1.6c-1,0.9-2.7,0.4-3.6-0.7c-0.9-1.2-1.6-2.6-1.3-4.2c0-0.3,0.5-0.7,0.8-0.7
			c0.9,0,1.3,0.7,1.7,1.4c0.4,0.7,0.4,2,1.8,1.7c1.1-0.3,1-1.4,1.1-2.2c1-4.9-0.8-6.8-5.9-6c-1.9,0.3-2.8-0.2-3.3-1.8
			c-0.5-1.8-1.4-3.3-3.6-3.6c-0.9-0.1-2.4-0.9-2,1.1c0.2,0.8,1,1.9-0.6,2c-0.8,0.1-1.8-0.5-2.5-1c-1-0.7-0.5-1.5,0.1-2.3
			c1.8-2.1,0.6-3.2-1.5-3.9c-1.1-0.4-2.2-0.2-2.9,0.8c-0.7,1,0.1,1.6,0.8,2.2c0.6,0.5,1.4,1,0.6,1.8c-0.7,0.7-1.5,0.3-2.2-0.1
			c-2.5-1.3-3.1-4.6-0.7-6.4c2.2-1.7,1.7-2.8,1.1-5.1c-1.3-5.3-4.6-7.4-9.8-8c-1.5-0.2-2.3-2.4-4.3-1.4c0-1,0-2,0-3
			c5.1-0.7,10.1,1.2,13.6,3.4c5.7,3.6,8.7,2.8,11.7-2.3c0.5-0.8,1.6-0.8,2.6-0.7c0.8,0.1,2,0,2.2-0.7c0.9-3.5,2.7-4.7,6.1-2.4
			c6.4-2.5,13.9,1.5,20-3.1c1.3-1,3.4-1.9,4.4,0.9c0.5,1.4,2,0.9,3.1,0.4c2.5-1.2,4.9-1.1,7.2,0.5c1.2,0.8,2.6,0.9,3.9,0.4
			c6.3-2.1,12.8-0.7,19.1-0.6c1.4,0,2.7,0.2,4-0.3c2.4-1,4.9-2.7,6.6,1.1c0.5,1.1,1.9,0.3,2.9-0.2c0.9-0.4,1.6-1,0.9-2.1
			c-0.6-1-1.5-2.1,0-2.9c1.4-0.8,2.6,0.1,3.6,1c3.5,2.9,9,2.7,12.4-0.4c0.4-0.3,1-0.8,1.3-0.7c3,0.8,6,2.4,9.1,0.5
			c4.1,3.3,9.4,1.1,13.9,2.8c4.3,1.6,9.1,0.1,13.6,0.5c5.6,0.5,10-2.5,15-3.1c4-0.5,8.1,0,12,1c4.1,1.1,8.2,1.3,12.3-0.1
			c1.2-0.4,2.3-0.2,3.5-0.1c6,0.9,12,2.7,17.6-1.5c2.4-1.8,5.1-0.8,7.2,1.3c1.8,1.8,3.5,2.2,5.5,0.2c2.6-2.5,5.9-1,8.9-1.1
			c2.4-0.1,4.8,0.4,7.2,0.6c1.9,0.2,4,1.3,4.4-2c0.2-1.3,1.4-0.5,2,0.3c3,4.4,3.2,4.5,8.2,1.8c1.6-0.9,2.5-0.3,3.4,0.8
			c1,1.2,2.2,2.3,3.7,1.7c6.1-2.3,11.5,1.8,17.4,1.9c2.8,0,5.8,1,8.7,0.6c2.4-0.3,4.5-0.8,6.1,1.4c0.5,0.7,1.6,0.8,2.2,0.3
			c3.6-2.7,7.6-1,11.4-0.9c0.7-0.6,0.2-1.2,0-1.7c-0.4-1-0.5-2.1,0.8-2.5c1.4-0.5,2.5,0.1,2.9,1.3c1.7,4.9,5.7,5.5,10.5,6.6
			c2.5,0.5,7.6,1.3,7.5,6c0,0.1,0,0.3,0.1,0.4c2.4,3.4,2.9,5.9,1.7,9.8c-1.2,3.6-1.9,7.3-2.2,11.1c-0.1,1.4-0.5,2.7-1.5,3.8
			c-2.4-2.8-1.4-6.4-2.4-9.6c-0.7-2.4-0.8-4.9-2.6-7c-1.2-1.4-0.1-2.6,0.3-3.9c0.2-0.6,0.7-1.2,0.7-1.9c0.5-3.1-2.3-3.3-4.3-4.2
			c-5.3-1.5-10.6-1.9-15.6,0.9c-1.3,0.8-2.5,1.8-3.4,3.1c-0.9,0.9-1.5,1.9-2,3.1c-1.4,1.4-2.9,2.9-5.2,2c-2.3-0.9-2.2-3.1-2.3-4.9
			c-0.1-2-0.6-3.4-2.4-4.3c-1.2-0.7-2.3-0.5-3.2,0.5c-0.6,0.7-0.8,1.5-1.5,2.1c-3.6,3.6-3.6,3.6-8,1.2c-0.6-0.3-1.3-0.3-1.9-0.5
			c-0.4-0.2-0.7-0.4-0.9-0.7c-3.1-3.2-6.7-5.4-11.6-3.6c-2.4,0.7-4.2,0.2-6-1.5c-2.8-2.5-6-1.9-7.9,1c-1.8,2.8-4.1,1.3-6.3,0.7
			c-0.4-0.1-0.8-0.2-1.1-0.2c-0.4-0.1-0.7-0.2-1.1-0.4c-1.7-1.9-3.2-2.1-5.2-0.1c-4.8,4.8-5.4,4.8-11.5,1.1c-0.5-0.3-1-0.4-1.5-0.5
			c-0.4-0.1-0.8-0.2-1.1-0.3c-0.4-0.2-0.7-0.4-0.9-0.7c-0.8-1.4-2.6-1.8-3.6-1.2c-3.2,2.1-6.5,0.9-9.5,0.3
			c-5.9-1.2-11.7-0.5-17.5-0.4c-2.7,0-5.4,0.5-7.6,2c-0.9,0.6-1.9,0.8-3,0.7c-0.4,0.1-0.8,0.1-1.2,0.1c-2.3-0.3-4.3-1.5-6.4,1.5
			c-1,1.5-4.1,4.3-7.7,3.1c-0.9-0.6-1.7-1.3-2.7-1.7c-0.4-0.3-0.6-0.7-0.7-1.1c-0.2-0.2-0.3-0.4-0.5-0.5c-0.5-0.4-0.9-0.8-1.1-1.3
			c-0.6-2.2-1.4-3.6-4.1-1.7c-4.3,3.2-9,1.7-13.3,0.2c-5.3-1.8-10.4-0.1-15.6-0.4c-0.8,0-1.2,0.9-1.7,1.5c-0.3,0.3-0.6,0.5-0.9,0.6
			c-1.6,0.8-3.2,1.3-4.5-0.3c-0.9-1.1-2.1-0.6-3.2-0.6c-0.6,0-1.1,0-1.7,0c-3.1-0.8-6.4-0.6-9.2-2.1c-0.5-0.3-1.2-0.4-1.5-0.1
			c-3,2.3-6.8,0.9-10,2.1c-1.5,0.2-3,0.2-4.4,0.8c-1.2,0-2.1-0.7-3.2-1.1c-3.6-1.7-5.8,1-8,2.6c-1.5,1.1,1,2.1,0.8,3.3
			c-0.1,1.1-0.7,1.7-1.8,2c-4.5,1.7-6.1-2.5-9.1-3.8c-0.9-0.5-1.8-1.1-2.7-1.6c-0.5-0.1-0.9-0.3-1.4-0.4c-1.7-0.8-3.4-0.1-5.1,0
			c-3.7-0.5-7.4-0.4-11-1.3c-2.6-0.6-5.3-0.6-7.9,0c-3,0.7-6.1,0.7-9-0.2c-0.3-0.3-0.6-0.6-0.9-0.9c0.3,0.3,0.5,0.5,0.7,0.9
			c2.9,7.7,0.8,15.9,3,23.6c0.3,1.1,0.2,2.2,0.6,3.3c0.2,0.4,0.4,1,0.9,1.3c2.1,1.5,14.6,1.6,16.8,0.2c0.2-0.1,0.1-0.5-0.1-0.7
			c-2.3-1.8-4.5-3.4-7.9-2.3c-1.9,0.6-4.2,0.2-4.9-2.1c-0.7-2.3,1-3.4,3-4.2c2.9-1,5.9-1.4,8.8-2.6c0.7-0.2,1.4-0.5,1.9-0.9
			c1.9-1.5,1.4-3,0.3-4.7c-1.2-1.9-1.6-4,0.6-5.3c2.4-1.3,4.5-0.6,6,1.8c1.1,1.8,2.6,3.5,2.6,5.8c0,1.3,0.7,2.4,1.5,3.4
			c1.6,2.3,3.3,4.6,3.8,7.4c0.4,2.1,2,3.2,3.8,4.1c2.9,1.7,4.7,0.6,6-2c0.9-1.7,1.5-3.5,2.4-5.1c0.8-1.5,1.9-2.7,3.8-3
			c0.8-0.1,1.5-0.4,2-1.1c0.9-1.3,2-2.4,3.8-2c2,0.5,2.5,2,2.9,3.6c0.3,1.1,0.5,2.2,0.8,3.2c0.9,2.4,1.9,4.8,3.2,7.1
			c4.9,2.5,10.5,1.6,15.7,2.2c1.7,0.2,2.5-1.3,3.1-2.5c0.5-1.3,1.1-2.5,1.9-3.7c1.4-2.2,3.8-2.4,5.5-0.3c1.1,1.3,2.2,2.5,3.6,3.5
			c1.8,0.5,2.2-0.5,2.2-1.8c0-1.5,0.3-3,0.2-4.5c-0.2-2,0.2-3.9,2.4-4.6c2.2-0.7,4.5-0.8,6.5,0.8c3.1,2.4,5.4,5.6,8,8.5
			c0.9,1,2.3,3,3.2-0.2c0.5-2.4,1.2-4.6-2.1-6c-1-0.4-1.1-1.8-0.2-2.6c1.9-1.8,3.7-3.7,6.2-4.8c1.8-0.8,3.4-0.4,5.2,0.6
			c5,2.7,5.8,7.7,7.9,11.9c0.4,0.8,0.4,1.7,0.9,2.5c0.2,0.2,0.5,0.5,0.7,0.7C183.4,567.1,185,567.6,185.6,569.1z"/>
		<path d="M361.9,429.3c-1.8,2.5-4.2,3.3-7.5,3.2c-6.6-0.2-13.1-0.2-19.7,0c-3.1,0.1-5.1-0.8-6.6-3.2c-6.2-7.1-8.9-15.8-12.6-24
			c-7.7-17-15.2-34.1-22.7-51.1c-1-2.3-1.5-4.8-3.3-6.9c-1.1,1.7-0.7,3.2-0.7,4.7c0,22.2-0.1,44.4,0,66.7c0,3.9-1.2,7.6-1.7,11.5
			c-0.1,1.1-1.1,1.7-1.9,2.3c-9.9,1-19.7,0.3-29.6,0.5c-1.7,0-2.5-1.3-3.6-2.1c-1.2-4.1-2.1-8.3-2.1-12.6c0-17.9,0.2-35.7-0.1-53.6
			c-0.2-12.3-0.3-24.6-0.2-36.9c0-10.3-0.5-20.5,0.1-30.8c0.4-6.9,0.5-13.8-0.1-20.7c-0.4-4.3,2.5-7.7,7.3-7.8
			c7.6-0.3,15.1-0.3,22.7,0c3.5,0.2,6.9-0.4,10.4,0.1c2.5,0.4,4.3,1.2,5.6,3.6c5.4,9.6,9.2,19.8,13.6,29.8c8.9,20,17.7,40,26.3,60.1
			c2.2,5,4.3,10,6.6,15c0.6,1.2,0.9,2.9,2.7,3c1.8,0,2.2-1.6,2.8-2.9c3.6-8.4,7.3-16.8,10.9-25.2c11.1-25.5,21.8-51.2,33-76.7
			c3.2-7.3,5.2-7.3,12.8-7.5c9-0.2,18.1-0.4,27.1,0c5.2,0.2,8.6,3.3,8.4,8.3c-0.3,9.7-0.8,19.3-0.4,29c1.4,35.3,0.5,70.6,0.7,105.9
			c0,5.6-0.9,11.3-1.3,16.9c-0.2,2.1-1.2,3.5-3,4.6c-3.8,0-7.6,0.1-11.4,0.1c-3.3,1.1-6.7,1.3-10.1,0.6c-0.8-0.2-1.5-0.2-2.4-0.1
			c-8,1.1-9.9-2.3-11.3-8.4c-0.4-1.6-0.1-3.3-0.1-4.9c0-22.6,0-45.2,0-67.9c0-1.5,0.1-3-0.3-4.8c-1.4,0.9-1.6,2.1-2.1,3.2
			c-9.8,22.3-19.5,44.7-29.1,67.1C367.3,421.6,365.5,425.9,361.9,429.3z"/>
		<path d="M157.9,363.7c-13.2,0.8-26.4,0.3-39.6,0.6c-2.4,0-4.8,0.1-7.3,0.2c-6.4,0.6-12.7,1.1-19.2,0.7c-3.3-0.2-6.6,0.6-9.9,1
			c-1.4,0.2-2.2,1.3-2.5,2.6c-1,4.3-1.1,8.7-0.7,13c0.5,5,0.8,10,1,14.9c0.2,5.7,1.9,7.3,8.1,7.4c16.7,0.1,33.3,0,50-0.7
			c4.8-0.2,9.3,1.2,14,1.1c1.3,0,2.7,0.1,4,0c8.4-0.5,11.2,2.2,10.7,10c-0.3,4.8-1,9.6-1,14.5c0,1.3-0.3,2.5-1.5,3.3
			c-1.3,1-2.9,1.1-4.6,1.1c-36.8,0.2-73.6,0.4-110.3,0.6c-2.6,0-4.8-0.3-6.3-2.4c-0.7-8.8-3.4-17.4-1.3-26.4
			c0.7-3.2-0.4-6.8-0.1-10.3c0.7-7.8-0.1-15.7,0.4-23.5c0.3-5.3-0.7-10.8-0.9-16.2c-0.3-10.4-0.1-20.9-0.1-31.3c0-2.4,1.1-4.5,0.9-7
			c-0.9-9.7-0.5-19.5-0.9-29.3c-0.1-3.4-0.1-6.8,0-10.2c0.2-4.9,2.3-6.7,7.7-7.5c6.2-1,12.3-0.7,18.5-0.8c24.8-0.1,49.7-0.1,74.5,0
			c5.8,0,11.7,0.1,17.5,0.5c3.8,0.3,5.5,2.1,6.3,5c0.8,2.7,1,5.5,0.7,8.3c-0.5,4.3-0.7,8.7-1.1,13.1c-0.2,2.5-2,3.5-4.4,3.4
			c-10.3-0.3-20.7-0.3-31,0.1c-11,0.4-22.1-0.4-33.1,1.1c-3.1,0.4-6.3,0.4-9.4,0.5c-8.5,0.5-9.4,4.6-8.6,11.7c0.5,4.1,1,8.3,1,12.4
			c0,6.5,2.1,8.6,9.1,8.7c14.4,0.1,28.9-0.1,43.3,0.1c7.7,0.1,15.4-0.2,23,1.1c4.6,0.7,4.9,2.1,6.1,6.4c1.8,6.2-0.8,12.1-0.2,18.2
			C161,361.7,159.6,362.8,157.9,363.7z"/>
		<path d="M657.9,293.5c3.7,6.4,7.2,12.8,8.5,20.1c0.6,3.7-0.3,4.9-4.2,5c-8.5,0.1-16.9,0-25.4,0.1c-2.5,0-4-1.2-5.5-2.6
			c-1.5-1.2-3-2.6-3.7-4.2c-3-7.1-9.5-9.9-16.5-12c-15.2-4.5-29.9-2.6-43.6,4.3c-4.6,2.3-9,5.8-10.8,11c-0.2,0.5,0.2,0-0.2,0.3
			c-4.3,3.2-3.9,8.5-6.3,12.6c-1.4,2.4-0.2,5.6-1.4,8c-2.7,5.6-1.7,11.6-1.5,17.2c0.3,7.5,1.7,15,4,22.2
			c7.2,21.8,24.4,28.8,41.3,29.3c7.8,0.3,15.3-0.8,22.4-4c6.7-3,10.8-8.2,13.9-14.1c3.2-5.9,4.3-6.7,11.5-5.9
			c0.8,0.1,1.6,0.2,2.4-0.1c6.5-2.1,13-1.2,19.6-0.4c4.2,0.5,4.9,2.2,5.1,6c0.3,5.9-2.1,10.9-4.7,15.7c-1.5,2.8-3.3,5.9-6.6,7.7
			c-8.6,11.4-20.6,18.3-34.7,22c-18.9,4.8-37.9,4.7-56.6-1c-25.1-7.7-41.6-23.8-49.2-47.1c-8.6-26.1-7.3-52,5-77.1
			c0.1-0.2,0.1-0.5,0.2-0.7c5.2-10.2,12.4-18.8,22.8-25l-0.1,0c0.9-1.8,2.4-2.9,4.5-3.7c3.6-1.3,7.1-3,11-3.9c0.2,0,0.4,0,0.6-0.2
			c6.8-3.4,14.2-5.1,21.9-5.2c11.9-0.8,23.7-0.8,35.4,1.6c8.9,0.7,16.6,3.9,23.7,8.8c0.8,0.3,1.5,0.6,2.3,1
			C649.6,282.7,653.9,288,657.9,293.5z"/>
		<path class="st2" d="M435.9,432.4c1.7-1.6,2.4-3.4,2.4-5.7c-0.2-49.8-0.4-99.6-0.3-149.4c0-7.5-2.2-8-8.6-7.9
			c-9.3,0.1-18.6,0-27.9-0.1c-3.7-0.1-5.6,1.4-7,4.5c-15.5,35.9-31,71.8-46.5,107.6c-0.3,0.7-0.6,1.4-0.9,2.1c-0.4,0.9-0.7,2-2.1,2
			c-1.4,0-1.6-1.2-2-2.1c-2.4-5.3-4.9-10.6-7.2-16c-12.2-27.9-24.4-55.8-36.6-83.7c-1.5-3.4-3-6.7-4.5-10.1
			c-1.1-2.4-2.8-3.7-5.9-3.6c-10.5,0.1-21.1,0-31.6,0.1c-3.9,0-5.6,1.7-5.6,5.3c0.1,50.5,0.2,101.1,0.3,151.6c0,1.3,0.1,2.5,0.2,3.8
			c-1.3-0.8-1.6-2-1.7-3.2c-0.3-2.2-1.6-4.1-3.4-5.4c-2.2-1.7-4-1.6-3.9,1.7c-5.1-1.2-5.5-6.4-9-8.9c-1.8-1.3,0.4-1.9,1.6-2.3
			c1.4-0.5,3.1-0.6,3.4-2.3c0.4-1.9-1.1-2.6-2.6-3.3c-1-0.5-1.9-1.3-1.4-2.4c0.5-1.1,1.6-0.6,2.5-0.5c1.6,0.1,4.1,1.2,4.1-1.3
			c0-1.9-2.7-1.5-4.4-1.7c-0.5-0.1-1,0.2-1.6,0.3c-0.9,0.2-2,0.7-2.4-0.5c-0.4-1.1,0.8-1.4,1.6-1.8c1.3-0.5,3.4-1,2.4-2.7
			c-1.1-1.8-2.8-0.7-4.1,0.2c-0.7,0.5-1.4,1.6-2.4,0.5c-0.7-0.8-0.1-1.7,0.4-2.4c0.6-0.7,1.3-1.3,2-1.8c3.3-2.3,3.4-4.4,0.1-6.8
			c-0.7-0.5-1.4-0.9-1.1-1.7c0.4-1.1,1.4-1,2.4-0.7c2.9,0.8,4.2,3.3,6.1,5.3c-0.2-3.4-1.7-6.4-3.1-9.3c-0.4-0.9-2.7-1-1.4-2.5
			c1-1.2,2.4-2.1,4.2-1.1c0.3,0.2,0.8,0.2,2.4,0.5c-2.7-2.8-3.4-6-6.7-7.2c-3.9-1.4-4.6-2.7-2.9-6.1c0.8-1.5,0.9-3.1,1.1-4.8
			c0.1-0.9,0.3-1.8,1.3-2.2c2.3-1,3.2-1.9,0.3-3.4c-0.9-0.4-1.2-1.4-0.8-2.3c0.3-0.7,0.9-0.8,1.7-0.7c0.8,0.1,1.9,0.9,2.4-0.4
			c0.3-0.8-0.2-1.5-0.7-2.1c-0.8-0.9-1.8-1.2-2.9-0.7c-1.1,0.5-2,1.3-3.1,1.7c-1,0.3-2.3,0.9-3,0c-1-1.4,0.2-2.8,0.9-3.8
			c2.8-4.3,2.4-5.1-3.5-6c-0.2-1.1,0.8-1.2,1.5-1.3c3.1-0.5,2.9-1.7,1-3.4c-0.6-0.5-1.4-1.1-0.9-1.9c0.7-1,1.7-0.3,2.5,0
			c1.3,0.4,2.9,1.3,3.7,0c0.9-1.4-0.9-2.1-1.8-3c-0.9-1-1.8-1.9-2-3.2c-0.5-2.5-0.3-4.4,3.3-3.7c1,0.2,2.3,0.6,2.8-0.7
			c0.4-1,0.4-2-0.9-2.6c-0.7-0.3-1.9-0.2-1.3-1.4c0.4-0.9,1.5-1.1,2.5-0.9c0.8,0.2,1.4,0.7,2.1,1c1.3,0.4,2-0.4,2.7-1.2
			c0.3-0.4,0.6-1,0.4-1.4c-0.7-1.2-1.6,0-2.4-0.1c-2.7-0.3-6.3,0.4-5.9-4c0-0.4-0.2-1.2-0.6-1.3c-3.9-2-1.4-3.5,0.4-5.1
			c1.5-1.4,2.9-2.9,4.4-4.4c0.8-0.7,0.8-1.3-0.1-1.8c-2.9-1.7-2.8-3.4,0.2-5.2c-1.9-1.3-2.7,0.2-3.7,0.7c-1.1,0.6-2.2,1.1-3.4,0.2
			c-1-0.8-0.7-1.7-0.4-2.7c0.9-2.5,1.6-4.7-2.7-5.5c-1.2-0.2-2.2-3.8-2.3-5.9c-0.1-2.1,2.2-1,3.5-1.1c1.9-0.1,2-0.9,1-2.2
			c-0.7-0.9-1.1-1.9,0.4-2.4c1.3-0.5,2,0.3,2.3,1.4c0.6,2.3,2.7,3.5,4.6,5.6c0.4-2.6-0.6-4.6-0.9-6.5c-0.4-3.4,2.8-5,2.8-8
			c0-1.2,2-0.8,3.5,1.3c1,1.3,1.5,3.1,3.8,2.9c3.2-0.2,4.2-1.8,3-5.4c2.6,0.5,4.7,0.3,6.9-1.4c1.8-1.3,5.2-0.8,7.5,0.2
			c1.9,0.8,3.5,1.1,5.4,0.7c0.4-0.1,0.8-0.2,1.2-0.2c7.2,1.2,14.7,1,21.9,2.7c1.2,0.3,2.5,0.8,2.9,1.9c1.2,3,3.8-0.8,5.1,1.1
			c1.2,1.9-2.1,3.3-0.8,5.2c0.4,0.6,0.9,0.9,1.6,0.9c0.8,0,1.2-0.5,1.3-1.2c0.1-1.1,0.5-2,1.6-2.4c0.8-0.4,1.6-1.1,2.6-0.4
			c0.7,0.5,0.6,1.5,0.3,2.1c-1.4,2.6-0.8,4.2,2.4,5c1.5,0.4,2.1,1.2,1.4,3.1c-1.1,3.1,0.5,5.1,3.4,7.4c3.2,2.5,6,4.4,10,5.1
			c0.3,0,0.7,0.6,0.7,0.8c-0.4,3.4,1.7,2.7,3.7,1.9c1-0.4,2.1-1,3.1-0.2c1.3,1-0.2,1.7-0.4,2.6c-1,5.2-4.1,8.6-9.6,10.1
			c-1.2,0.3-2.3,1.2-1.6,2.5c0.6,1.1,1.8,0.7,2.9,0.3c1.7-0.6,3.5-1.2,5.2-1.9c2.2-0.9,10.8,1.7,11.7,3.8c0.8,1.8,0,2.8-2,2.6
			c-2-0.2-3.9-0.9-5.9-1.2c-1.8-0.3-2.5,0.3-1.9,2.1c1.2,3.4,4.1,4.6,7.9,3.6c2.5-0.6,5.5,0.1,5.4-3.7c0-0.6,1.4-0.4,2.2-0.2
			c2.3,0.8,4.5,1.6,6.4,3.3c1.1-1.9-0.2-2.6-1.1-3.4c-0.5-0.5-1.7-0.8-1.2-1.7c0.3-0.5,1.3-0.8,2.1-0.9c0.8-0.2,1.9-0.4,2.4,0
			c3.8,3.3,7.6-0.3,11.3,0c0.8,0.1,1.7-0.5,1.6-1.4c-0.1-1-1-0.9-1.8-0.9c-1.3-0.1-2.7-0.1-4-0.3c-1.9-0.3-3.7-1.2-4.1-3.1
			c-0.5-2.2,1.8-3.2,3.1-4.5c1-0.9,2.6-0.9,3.2,0.8c0.3,0.8,0.1,1.9,1.6,1.6c1-0.2,1.9-0.8,2-1.7c0.5-3.3,2.3-3.2,4.8-1.8
			c0.7,0.4,1.5,1,2,0c0.5-0.8-0.2-1.4-0.9-1.8c-2.3-1.2-1.8-2,0.2-3c2.8-1.4,0.9-2.9-0.3-4.1c-1-0.9-2-3.6-3.5-0.3
			c-0.4,0.9-1.2,0.9-2,0.3c-1-0.7-1.7-1.6-1.6-2.9c0.1-1,0.8-1.6,1.9-1.6c1.9,0.1,3.7,0.5,5.5,1.3c1.4,0.6,2.9,0.5,4.1-0.5
			c1.3-1.1,1.2-2.5,0.4-3.8c-1.3-2.3-0.5-3.7,1.7-5c1.7-1,3.4-2.3,2.1-4.6c-0.3-0.6-0.3-1.3,0.2-1.8c7.3-5.2,13.5-12.2,24.3-10.6
			c3.1,0.5,6.5-0.4,9.6-1.1c3.1-0.8,6.1-0.9,9.1,0.1c2.9,0.9,5.7,1.2,8.6-0.2c0.6-0.3,1.5-0.5,2-0.3c3.4,1.6,7.3,1.5,10.8,2.4
			c0.9,0.2,2.1,0.5,2,1.6c-0.2,1.1-1.5,0.8-2.4,1c-0.5,0.1-1.1,0-1.6,0.1c-1.6,0.5-4.3-1.1-4.5,0.9c-0.2,1.1,2.3,2.9,3.9,3.8
			c1.5,0.9,3.6,1.9,5.1,0.1c2.1-2.5,2.6-1.7,3.4,0.8c0.6,1.8,1.9,3.3,2.2,5.4c0.3,2,2.1,2.9,4.2,1.4c0.8-0.5,1.4-1.2,2.5-1.1
			c0.9,0.1,1.7,0.3,1.9,1.1c0.3,0.9-0.4,1.4-1.2,1.6c-2.4,0.4-4.7,2-7.4,0.6c-1.3-0.7-3.5-1.7-4.5-0.3c-1.3,1.7,0.3,2.3,2.1,2.2
			c0.7,0,1.3-0.4,2.2,0.3c-2.5,3-0.1,4.9,2.2,6.6c3.1,2.3,6.4,1.1,9.5-0.1c1.2-0.5,2.1-1.6,3.7-1.1c1.6,0.6,3.9,0.9,3.9,2.8
			c-0.1,1.9-2.3,1.1-3.7,1.3c-3.6,0.7-7,1.8-9,5.3c-1.6-5.9-8.6-4.7-11.9-9.6c-0.1,3.2,1.9,4.1,2.6,5.7c0.4,0.8,1.4,1.4,0.4,2.3
			c-0.7,0.6-1.5,0.3-2.3,0.2c-1.1-0.2-2.3-1.9-3.1-0.6c-0.8,1.4,1.1,2.3,2.3,3.1c1.3,0.9,2.8,0.8,4.3,0.6c0.7-0.1,1.5,0,1.6,0.8
			c0.2,0.8-0.6,1-1.3,1.1c-1.2,0.3-2.7,0.5-2,2.1c0.5,1.3,1.8,2.1,3.2,1.8c2.2-0.5,4.2-0.4,6.3,0.2c1.9,0.5,2.3-1.1,2.9-2.4
			c1.2-2.5,4-4.9,6.1-2.9c2.5,2.4,3.6,6.2,6.2,9c0.7,0.8-0.4,1.8-1.8,1.8c-0.8,0-1.6-0.1-2.4-0.1c-6.2-0.3-6.3-0.3-6.6,5.5
			c-0.1,1.7-1.3,2.1-2.5,2.5c-1,0.3-2.1,0.7-3-0.2c-1.1-1.1-0.2-2,0.5-3c1.9-2.8,0.3-4.4-3.2-5.9c2.1,4.4-0.5,5.7-3.8,6.6
			c-0.9,0.2-2.1,0.4-2.3,1.3c-0.2,1.2,1.1,1.6,2,2.1c4.6,2.3,8,6.5,13.7,7.2c1.9,0.2,3.4,0.7,2.8-1.9c-0.2-0.7-0.6-1.6,0.4-2
			c1.2-0.4,2.3,0.4,2.6,1.3c0.6,1.5,1.2,2.7,2.8,3.4c0.7,0.3,1.3,1.1,0.8,1.9c-0.5,0.9-1.4,0.6-2.1,0.2c-2.1-1.3-4.2-1.3-6.5-0.5
			c-4.9,1.7-5,1.6-2.5,6.1c0.6,1.2,0.4,1.9-0.5,2.6c-1.6,1.3-3.1,2.8-5.1,3.6c-0.9,0.3-1.7,1-1.2,2.1c0.4,0.9,1.4,1.2,2.4,1
			c0.3,0,0.5-0.1,0.8-0.2c1.1-0.5,2.5-1.1,3.3,0c1.3,1.8-2.1,1.2-1.8,2.7c0.1,0.1,0.3,0.5,0.3,0.5c3.5-0.7,4.7,0.1,3.5,3.6
			c-0.8,2.3-1.8,2.9-4,2.1c-2.8-1-5.5-2-9.1-1.3c4.7,2.6,8.3,6.5,14.3,4.2c0.5-0.2,1.1-0.1,1.6-0.1c1.1-0.1,2.5-0.3,2.5,1.1
			c0.1,1.4-1.4,1.4-2.4,1.3c-3.2-0.3-5.9,0.9-9,1.5c1.1,2,3.3,1.5,4.6,2.6c1,0.9,3.4,1,2.5,2.8c-0.7,1.4-2.4,0.2-3.6-0.1
			c-3.1-0.7-5.8-2.8-9.3-1.8c-1.5,0.4-3.5,0.2-3.3,2.4c0.3,2.3,2.2,1.2,3.5,1.3c3.7,0.2,6.6,1.5,8.3,5.3c-2.6,0-4.4-1.1-6.4-1.8
			c-1.3-0.5-2.6-0.9-3.8,0c-1,0.7-0.3,1.6,0,2.4c0.6,1.3,1.2,2.9,3.1,2.4c2.4-0.6,3.6,0.3,4.9,2.1c2.3,3,3.1,0.2,4.2-1.7
			c2.1,2.5,1.3,4.7,0.2,6.8c-0.6,1.1-2.8,1.9-0.2,3c1.8,0.8,3.7,1.5,4.8-0.8c0.6-1.1,1.4-2.4,1.2-3.5c-0.5-2.2-1.6-4.2,1.6-5.7
			c1-0.5-0.6-1.3-1.4-1.6c-1-0.4-2.9-0.3-1.8-2c0.8-1.3,2.3-2.2,3.7-0.9c2.1,2.2,5.2,4.2,2.7,8c-1.3,2-2.2,4,0.9,6.1
			c1.3,0.9,0.6,4.3,2.1,6.4c0.7,1-1.3,1.2-2.2,1.5c-1.3,0.3-1.6-0.1-1.5-1.4c0.2-5-0.3-5.2-5.1-2.9c-2.7,1.3-5.3,0.4-7.7-0.7
			c-3.3-1.5-7.4,0.1-8.1,3.4c-0.2,1.1,3.5,3.4,5.2,2.9c2-0.5,3.7-0.9,5,0.9c0.7,1,0.1,2.1-0.8,2.6c-2.1,1.2-4.3,0.9-5.9-0.7
			c-2.9-3-5-1.9-7.1,0.8c-1.4,1.5-2.9,0.2-4.3,0c1.4,0.2,2.9,1.5,4.3,0c2.3,2.2,3.7,4.8,4.5,8.3c-2.5-0.6-5.2-1.7-5.8,1.8
			c0,0.2-0.8,0.5-1,0.4c-4.1-1.3-4.3,2.5-5.5,4.2c-1.4,1.9-4.2,3.5-2.6,6.9C442,425.4,438.4,431.1,435.9,432.4z"/>
		<path class="st3" d="M157.9,363.7c1.7-1.6,2.3-3.5,2.2-5.8c-0.2-5.7,0-11.3-0.1-17c-0.1-4.3-1.1-5.3-5.8-5.2
			c-23.2,0-46.4,0.1-69.6,0.1c-6,0-6.6-0.6-6.7-5.9c0-8,0-16.1,0-24.1c0-5.7,0.8-6.4,7.1-6.4c24.4-0.1,48.9-0.2,73.3-0.4
			c5.9,0,6.6-0.7,6.6-6.1c0-5.7,0-11.3-0.1-17c-0.1-3.9-1.5-5.3-5.6-5.2c-36.6,0.1-73.1,0.3-109.7,0.5c-5.8,0-6.8,1-6.8,6.5
			c0.1,51.3,0.2,102.6,0.3,153.9c-1.7-7.3-4.1-14.4-7.4-21.3c-1.2-2.5,1.5-3.2,3-4.2c1.5-1.1,2.6-1.8,0.6-3.4
			c-1.3-1-1.1-2.5-0.6-3.9c1.6-4.9,1.3-10,1.8-15c0.2-2.5-0.2-4.9-2.6-6.8c-1-0.8-2-2-1.9-3.5c5,0.5,4.5,0.5,4.2-4.8
			c-0.1-2.7-0.5-5.4-0.7-8.2c0-0.5,0.2-1.1-0.1-1.5c-1.6-3.1-2.2-6.1-1.8-9.8c0.7-7.2-0.4-14.5,0.6-21.7c0.4-3.1-1-6.4,2.3-8.8
			c-2.6-2.7,1.5-6-1.4-9.2c-2-2.1,0.7-5.9,0.6-9c-0.1-3.6-0.1-7-2-10.2c-1.1-1.8-2.6-3-4.8-3.8c-3-1.1-3.2-2.3-1.7-5.4
			c1,1.7,1.4,4.6,4.3,3.2c2.4-1.2,3.6-3.3,2.3-6c-0.5-1.1-2.4-2.3-1.1-3.3c1.8-1.3,2.8-3.3,4.9-4.4c4.2-2.1,8.9-2.6,13.3-3.6
			c3.6-0.8,7.7,0.4,11.6,0.1c3.3-0.2,6.4-0.2,9-2.6c1.1-1,2.6-1,4.2-0.6c7.6,2,15.1,2,23,1.3c6.2-0.5,12.7-0.7,19.1-0.5
			c6.4,0.1,12.6,2.7,19.1,1.1c1.4-0.3,2.4,0.3,3.4,0.7c4.8,2,10.1-0.1,15,1.7c3.9,1.4,7.6,4.2,8.3,8.2c0.3,1.8,0.5,3.3,2.5,4.4
			c2.1,1.2,1.3,2.7-0.5,3.3c-2.6,0.9-3,2.9-2.9,4.9c0.1,1.9-0.2,3.6-0.7,5.4c-1.5,5.3-1.4,5.4-7.1,5.4c-9.8,0-19.7-0.6-29.4,0.3
			c-9.3,0.9-18.6-0.9-27.7,0.5c-5.6,0.9-11.2,0.9-16.7,2.6c-5.6,1.7-7.3,6.3-4.7,11.2c1.7,3.2,1.7,7.1,1.7,10.8
			c0,1.2-0.2,2.6,1.3,2.7c3.6,0.1,7,2.2,10.7,0.9c1.9-0.6,4-0.8,6-0.5c2.3,0.4,4.1-0.1,6-1.4c1.7-1.2,3.5-2.2,4,1.3
			c0.3,1.9,2.4,2.9,4.1,0.8c1.3-1.6,2.6-1.3,3.8-0.4c5.1,4.1,11.3,2.5,17,3.1c7.9,0.8,16,0.4,23.4,3.8c2.2,1,4.6,2.5,3.5,5.6
			c-0.1,0.3-0.2,1,0,1.1c4.1,2.5,1.3,5.6,0.8,8.4c-0.6,3.2-1.5,6.3-1.6,9.6C161,361.9,160.6,363.9,157.9,363.7z"/>
		<path class="st4" d="M361.9,429.3c3.6-8.5,7.2-17,10.9-25.5c8.7-20.1,17.4-40.3,26.2-60.4c0.5-1.3,0.7-3.7,2.6-3.2
			c1.8,0.4,0.9,2.6,0.9,4c0.2,27.1,0.3,54.3,0.4,81.4c0,5.8,1,6.6,7.3,6.7c4.7,0,9.4,0.2,14.1,0.3c-2.8,2.4-6.1,2.8-9.4,1.6
			c-3-1.1-5.8,0.6-9-0.6c-4.3-1.6-5.2-5.4-8.2-7.8c-4.3-3.3-9-4.7-14.3-4.8c-1.3,0-2.7-0.2-4-0.5c-1.7-0.4-2.8-0.9-3.4,1.5
			c-0.5,2-3,1.7-4.8,1.8c-1.8,0.1-4.2-1.4-3.8,2.6C367.8,428.3,364,428.5,361.9,429.3z"/>
		<path class="st5" d="M656.3,409.8c5-7.2,8.8-14.8,10.1-23.4c0.5-3.4-0.7-5-4.5-5c-8.5,0-17,0.1-25.5,0.1c-2.5,0-4.2,1-4.9,3.2
			c-2.8,8-7.6,14.3-15.9,18.2c-9.1,4.2-18.7,4.7-28.5,3.5c-20.1-2.4-32.7-13.2-38-31.3c-5.3-17.9-5.2-35.8,2-53.2
			c6.9-16.6,20.6-24.9,39.5-25.9c11-0.6,21.5,0.5,30.7,6.9c5,3.4,8.2,7.8,9.9,13.3c-4-0.7-6.6-3.2-7.3-6.7c-0.5-2.5-2.7-2.1-3.9-3.2
			c-1.3-1.2-2.1-2.1-4.5-1.1c-3,1.2-5.8-1.4-8.4-2.7c-2.9-1.4-5.6-2.2-8.8-2.2c-9.7,0.1-19.4,0.4-28.3,4.4
			c-4.1,1.9-6.9,5.3-10.6,7.8c-0.6,0.4-1,1.7-0.9,2.4c0.6,2.8-0.3,4.2-3.5,4.6c-1.8,0.2-2.1,1.7-1.5,3.3c0.8,2.2,0.6,4.1-1.4,5.8
			c-3,2.8,0.1,6.2-0.8,9.3c-0.1,0.5,0.9,1.5-0.1,1.9c-5,2.2-2.8,5.6-1.7,8.7c0.3,0.9,0.3,1.8-0.1,2.5c-1,1.7-1.1,2.7,1.4,3.1
			c1,0.2,2.2,0.9,0.7,2c-2.5,1.9-1.4,4.5-0.2,5.7c2.6,2.6,2,5.4,1.5,8c-0.6,3.7,0.7,7.1,1.6,10.3c1.8,6.8,11,10.3,18,7.8
			c1-0.4,1.5-0.1,1.9,0.7c1.2,2.1,3.5,3.3,5.1,5c2.1,2.3,6.1,1,8.3-1.1c2.2-2.1,3.6-2.7,6.4-0.7c1.9,1.4,4.2,2.8,6.9,2.9
			c0.9,0,2.1,0.7,2.5-0.3c0.5-1.3-0.7-1.7-1.8-2c-0.6-0.2-1.3-0.3-1.6-1.6c2.5,0.5,5.1-1.2,7.4,0.5c2.3,1.7,3,0.4,3.8-1.3
			c0.2-0.5,0.3-1,0.6-1.4c0.8-1.3,2-2.5,3.5-1.7c1.6,0.9,0.2,2.2-0.4,3.2c-0.3,0.4-0.7,0.8-1,1.2c-0.5,0.8-1.7,1.9-0.5,2.6
			c1.3,0.7,1.8-0.6,2.1-1.6c1.1-3.4,4-4.8,7.3-5.2c4.3-0.5,6.5-3.1,8.6-6c1.5-2.1,3-2.7,5.4-2c2.9,0.8,5.6,0.6,8.2-0.7
			c2.3-1.1,4.5-0.6,7-0.5c4.1,0.3,8.1,0.3,12.1,1.6c3.1,1,6.2,1.7,4.6,6.2c-0.8,2.3,1.2,5,0.8,7.7c-0.1,0.5,0.3,1.2,0.1,1.5
			c-3.1,3-3.6,7.5-7.2,10.2c-0.5,0.4-1.5,0.8-1.5,1.1C661.4,410.1,658.6,409.5,656.3,409.8z"/>
		<path class="st2" d="M285.3,432.4c1.7-1.6,1.6-3.6,1.6-5.6c0-27.4-0.1-54.8-0.1-82.2c0-0.4-0.1-0.8,0-1.1c0.2-1-0.6-2.6,1.1-2.8
			c1.5-0.2,1.7,1.4,2.2,2.3c1.1,2.3,2.2,4.6,3.2,6.9c11.5,25.9,22.9,51.8,34.4,77.7c0.3,0.6,0.3,1.2,0.5,1.8
			c-2.4-1.5-4.2-3.8-7.1-4.8c-0.2-0.1-0.5-0.4-0.7-0.4c-4.2,0.2-8.1-3.4-11.3-3.1c-5.1,0.5-9.5,0.9-13.8-2c-0.2-0.2-1.1,0.2-1.4,0.5
			c-0.6,0.9,0.1,1.6,0.7,2.3c0.8,0.8,2.1,1.6,1.1,2.8c-0.9,1.1-1.9,0.1-2.8-0.4c-2.2-1.2-2.6,0.5-3.7,1.6
			C287.6,427.9,288.7,431.5,285.3,432.4z"/>
		<path class="st6" d="M385.4,700.5c-6.4,0.2-11.3-3-14.6-7.8c-7.6-10.9-21.2-9.5-28.4,0.2c-8.2,11-21.9,10.9-31,0.4
			c-1.3-1.5-2.4-3-4-4.3c-7-5.6-16.1-4.9-22.3,1.6c-2.4,2.5-4.1,5.5-7.2,7.5c-8.3,5.3-19,3.9-25.2-3.6c-2.6-3.2-5.3-6.3-9.6-7.8
			c-6.8-2.3-13.7-0.6-18.1,4.9c-3.9,4.8-8,9.2-15,9.9c-6.7,0.7-12.5-0.7-16.5-6.3c-1.4-1.9-2.9-3.7-4.7-5.2
			c-6.7-5.8-16.7-5.2-22.7,1.3c-1.5,1.6-2.8,3.4-4.3,5c-7.8,8-20.6,7.6-28-0.8c-1.7-1.9-3.3-4.1-5.3-5.6c-7.9-6.1-17.4-4.3-24.3,4.3
			c-5.9,7.5-14.5,10-23.1,6.7c-3.1-1.2-5.5-3-7.5-5.6c-2-2.7-4.2-5.3-7.3-6.9c-6.4-3.3-13.8-2-19.2,3.1c-0.9,0.9-1.7,2.8-3.5,1.3
			c-1.7-1.4,0.3-2.5,1.1-3.4c6.8-7.9,20.7-8,27.9-0.3c1.3,1.4,2.5,3,3.8,4.4c6.9,7.7,18.1,7.5,24.6-0.6c3.5-4.3,7.2-8.3,13.1-9.4
			c8-1.5,14.6,0.9,19.6,7c2.1,2.5,4.1,5,7.2,6.5c7.4,3.6,14.8,1.9,20.3-4.8c2.2-2.7,4.5-5.4,7.7-7.1c8.6-4.6,19-2.2,25,5.7
			c7.6,10.1,18.3,10.5,26.7,0.9c3.1-3.6,6.3-6.9,11.1-8.4c8.2-2.6,15.9,0.1,22.2,7.7c7.9,9.5,18.2,9.6,26.3,0.3
			c3.8-4.4,7.7-8.3,14.2-9c7.1-0.8,12.7,1.5,17.2,6.4c1,1,1.8,2.2,2.7,3.3c7.5,8.1,18.6,7.7,25.5-1c3.5-4.5,7.6-8.2,13.8-9
			c7.8-0.9,14,1.8,18.5,7.7c4.2,5.5,9.5,8.8,17.2,7.3c3.6-0.7,6.3-2.7,8.7-5.1c0.8-0.8,1.6-2.1,2.9-1c1.6,1.3,0.1,2.2-0.7,3.1
			C396.6,698.3,391.7,700.6,385.4,700.5z"/>
		<path class="st6" d="M384.3,508.7c-4.7,0-9.7-2.2-13.5-6.6c-1.4-1.7-2.7-3.5-4.3-5c-7.2-6.3-17.3-5.2-23.2,2.3
			c-2.6,3.4-5.5,6.5-9.8,8.1c-8.5,3.2-17.2,1.1-22.7-5.8c-0.8-1-1.6-2-2.4-3c-6.7-7.4-17.7-7.3-24,0.4c-2.5,3-4.8,6.1-8.5,8
			c-9.1,4.7-19,2.3-25.5-6.2c-5.6-7.2-13.2-9.2-20.7-5.5c-3,1.5-5,3.9-6.8,6.4c-6.7,9.3-22.9,11.3-31,0.5c-1.5-2-3.1-4.1-5.4-5.6
			c-7-4.7-15.5-3.5-21.1,3c-2.7,3.1-5.2,6.4-9.2,8.3c-8.6,4-18.3,1.9-24.2-5.4c-2-2.5-4-5.1-7-6.6c-7-3.6-15.1-1.6-20.2,5
			c-3.8,5-8.5,8.7-15.4,9.2c-8,0.5-13.7-2.9-18.1-8.7c-5.3-6.9-12.7-8.8-20.1-5.3c-2.1,1-3.6,2.6-5.2,4.1c-0.8,0.8-1.4,2.1-2.9,1.1
			c-1.8-1.2-0.3-2.2,0.4-3.1c6.8-8.8,21.5-9,29.1-0.3c1.6,1.8,2.9,4,4.8,5.5c7.4,6.1,18.7,5,23.8-3.3c6.7-10.8,24.3-12.2,32.8-0.7
			c7.8,10.7,20.1,10,28.1-0.8c7.6-10.2,23.3-10.3,30.8-0.2c7.9,10.8,19.7,11.2,27.9,0.4c6.5-8.5,16.6-9.8,24.5-6.5
			c3.4,1.4,5.6,3.9,7.6,6.6c7.3,9.8,20.3,10,27.1,0c7.2-10.7,25-12.1,32.4-0.3c5.6,8.9,20.8,10.1,27.8-0.5c5.9-9,18.8-10.8,27.5-4.4
			c2.2,1.6,3.5,3.8,5.1,5.8c6.2,7.7,17.8,8.2,24.5,1c1-1.1,1.9-2.5,3.5-1.1c1.6,1.4-0.4,2.3-1,3.1
			C397.1,506,390.7,508.6,384.3,508.7z"/>
		<path class="st3" d="M164.2,432.3c1.6-3.1,0.8-6.4,0.9-9.6c0.1-4.1-0.1-8.3,0-12.4c0.1-3.5-1.8-4.9-5.5-4.9
			c-19.3,0.2-38.5,0.2-57.8,0.4c-6.2,0-12.4,0-18.6,0.1c-3.5,0-5.3-1.5-5.3-4.7c-0.1-10.8-0.1-21.6-0.1-32.4c0-2.5,1.4-4.3,4-4.3
			c9.7-0.1,19.4,0,29.1,0c-1.8,1.1-3.9,0.9-5.9,1.1c-6.3,0.4-12.6,0.7-18.9,1.3c-3.7,0.3-6.9,5.4-6.8,8.8c0.2,4.7,2.1,9.2,2.1,13.9
			c0,1.3,0.6,2.4,1.6,3.4c0.5,0.4,1,0.9,1.2,1.4c0.3,1-2.3,2.3,0.1,3c2.1,0.6,4.4,2.1,6.6,0.7c4.5-2.9,8.8-2.2,13.3-0.2
			c3,1.3,6.1,2.1,9.3,0.5c0.4-0.2,1.2-0.4,1.5-0.2c3.6,2.4,8,1.7,11.7,2.6c5.4,1.4,10.3-0.2,15.3,0.3c1.4,0.1,2.5,0.3,3.8,1
			c3.9,2.2,7.9,2.8,12.1,0.8c1.1-0.5,1.9-0.6,3-0.1c4.8,2.3,8.3,8.3,6.8,14c-1,3.6-2,7.5-1.7,11.4
			C166.2,429.7,166.2,431.4,164.2,432.3z"/>
		<path class="st6" d="M301.1,536.6c1.9-0.2,3.8-0.5,5.6-0.7c1.5,0.3,1.9,1.4,1.9,2.5c-0.1,4.9,1.1,9.7,1.3,14.6
			c0.2,4.6-2,8.7-1.7,13.2c0.1,1.1-0.6,1.6-1.7,1.6c-2.3-0.1-4.5,0.5-6.8-0.3c-4-6.3-8.1-12.6-12.4-19.4c-1.3,2.2-0.7,4.2-0.8,6.1
			c-0.1,3-0.3,6,0,9c0.4,3.4-0.5,5.3-4.5,5c-1.5-0.4-2.8-0.4-3-2.6c-0.8-8-0.7-16-0.7-24c0-2.1-0.9-4.8,2.5-5.6
			c4.7-1.1,7.3-0.1,9.2,3.1c0.3,0.5,0.6,1.1,1,1.6c3.9,2.2,6,5.7,7.8,9.4c0.8-3.9,0.7-7.9,1.3-11.8
			C300.3,537.7,300,536.8,301.1,536.6z"/>
		<path class="st7" d="M167,656.5c-3.9-6.2-7.8-12.4-11.7-18.6c-0.3,0.1-0.6,0.2-1,0.2c0,5.3-0.1,10.7,0.1,16c0.1,3-1.3,3.5-4.1,3.4
			c-2.8-0.1-2.8-1.7-2.8-3.6c0-7.8-0.1-15.5-0.1-23.3c0-1.6-1-4.1,1.7-4.3c2.8-0.3,6.1-1.4,8.1,2.2c2.6,4.7,5.7,9.1,8.5,13.6
			c0.7,1,1.4,2,2.8,3.9c0-7.2,0-13.3,0-19.4c1.4-1.7,3.3-2.4,5.4-1.8c2,0.6,1.7,2.4,2.2,3.9c2.5,7.5,1.5,15.1,0.9,22.6
			c-0.1,2-0.6,4-1.7,5.7C172.7,657.1,169.7,658,167,656.5z"/>
		<path class="st7" d="M344.3,544.2c-0.3,0.5-0.5,1-0.8,1.4c-3.6,1.3-7,2.2-10.1-1.1c-1.1-1.1-2.9-1.1-4.6-0.8
			c-3.4,0.6-5.6,3.4-5.9,7.2c-0.3,4.4,1.6,7.7,4.8,8.7c1.2,0.4,1.3,0.3,4.1-0.9c-4.6-0.8-6.1-3.2-5.4-7c0.3-1.9,1.3-2.9,3.4-3.2
			c2.3-0.3,4.6-0.3,6.8-0.2c7.1,0.4,8.3,1.4,8.1,8.1c-0.1,3.7,0.7,7.4-0.5,11.1c-2.2,0.1-4.5,1.2-6-1.4c-0.5-0.8-1.1-0.1-1.7,0.1
			c-9.5,3.8-15.3,2.2-21.4-6.2c-5-4.8-4.2-9.9-0.8-15.1c0.6-1,1.1-2,1.7-3c1.1-1.5,2.2-3,4.1-3.8c5.5-3.4,11.4-2.8,17.4-1.4
			C341.6,537.7,343.4,540.6,344.3,544.2z"/>
		<path class="st7" d="M201.3,657.2c-3.7,0.7-7.4,0.5-11-0.6c-4.2-1.2-6.7-4-7.9-7.8c0.1-0.2,0-0.4-0.2-0.5
			c-3.8-3.9-3.4-10.8,0-15.1c2.3-2.9,4.7-5.4,7.9-7.4c9.4-3.3,17.4-1.2,22.3,6.4c1.3,2,0.4,4.2-2,4.7c-2.8,0.6-5.5,0.4-7.9-1.6
			c-2.2-2-5-2.5-7.8-1c-3,1.6-4.5,5.3-3.7,9.3c0.6,2.9,2.1,5.2,5.4,5.9c0.8,0.2,1.6,0.2,2.3-0.4c0.3-1.1-0.8-1.2-1.5-1.4
			c-3.6-1.1-3-3.7-2.9-6.2c0.2-2.6,2.3-3.1,4.6-3.2c3.6-0.1,7.3-0.2,10.9,0.1c2.5,0.2,3.9,1.5,4.2,3.8c0.7,5.3-0.3,10.4-2.9,15.2
			c-1.4,0-2.8,0-4.2-0.1C205.1,656.3,203.2,656.7,201.3,657.2z"/>
		<path class="st8" d="M194.4,536.6c5.7-2.7,12-2.1,18-2.7c2.2-0.2,4.3,0.2,6.4,0.2c4.7,0,9.4,2.1,14.3,0.1c1.8-0.7,3.8,0.2,4.1,2.5
			c-1,1.9-4,1.4-4.9,3.4c-2.7,6-1.5,12.3-1.8,18.4c-0.1,1.5,0.7,3.3-1.2,4.4c-2.2-1.9-2-5.1-4.5-6.9c-1.5-1.1-2.7-2.5-4.9-1.7
			c-2,0.7-2.1,2.5-2.4,4c-0.3,1.6,0,3.2-1,4.7c-1.6-0.7-1.3-2.1-1.3-3.3c0-4.4,0-8.8,0-13.2c0-2.3,0.3-4.2,3.5-4.4
			c1.4-0.1,2.7-1,3.9-1.9c-0.1-1.8-0.1-1.8-4.1-2.1c-5.4-1.7-10.7-0.7-15.9,0.9c-0.2,2.1,1.7,1.6,2.7,1.7c3.7,0.1,4.9,2,4.9,5.1
			c0,4.3,0.3,8.6,0,12.8c-0.3,4.2,0.8,7.4,5.2,9.1c0.1,0.2,0.2,0.3,0.2,0.5c-1,2.1-2.9,2-4.8,1.6c-1.8-0.4-3.2-1.6-3.3-3.4
			c-0.1-2.3-1.1-4-2.6-5.7c-1.2-1.3-1.8-2.8-0.3-4.4c1.5-1.6,0.7-3.1-0.6-4.3c-1.5-1.4-2.7-0.3-3.7,0.7c-0.7,0.7-1.6,0.9-2.6,0.7
			c-3.8-0.9-5.8,2.6-9,3.2c-1.7,0.3-0.1,1.5,0.9,1.7c2.3,0.5,2.9,2.1,1.1,3.1c-3.1,1.6-3.3,4.4-4.2,6.9c-0.2-0.1-0.4-0.2-0.6-0.3
			c-2.5-4.6-2.3-9.4-0.1-13.8C188.7,548.4,192.7,543,194.4,536.6z"/>
		<path class="st7" d="M230.1,537.3c2.2-1.4,4.7-0.5,7.1-0.6l0,0c2.5,1.9,1.2,4.7,2,7c1.1,3.2,2.8,4.7,6.3,4.4
			c3.5-0.3,3.6-2.8,4-5.1c0.3-2.4-0.2-5,2-6.9c2.2-1,4.2-0.5,6.2,0.5l0,0c1.1,0.9,1.3,2.1,1.3,3.4c0,9.1,0.3,18.2-0.8,27.2
			c-0.1,0.4-0.3,0.7-0.5,1c-0.7,0-1.4-0.1-2,0c-3.5,0.5-5.1-0.8-4.5-4.1c0.1-0.4,0-0.8,0-1.1c-0.4-2.6,1.3-6.2-0.9-7.5
			c-3-1.6-7.1-0.5-10.7-0.3c-1.7,0.1-1.8,1.2-1.7,2.5c0,2.1-0.2,4.3,0.1,6.4c0.5,3.6-1,4.9-4.7,4.3c-0.7-0.1-1.3-0.1-2-0.1
			c-0.6-1.3-1.2-2.5-1.2-3.9c-0.1-8.1,0.3-16.1-0.2-24.2C229.4,539.2,229.4,538.1,230.1,537.3z"/>
		<path class="st8" d="M258.5,536.6c2.6,0.8,4.5,1.2,5.9-2.1c1.2-2.7,5-2.8,7.9-0.4c1.9,1.6,3.8,2.7,6.4,2.4c0.7,8.3,0.8,16.6,0,25
			c-2.9-0.1-4.2,1.8-5.4,3.8c-2-0.8-1.3-2.5-1.4-3.9c-0.3-5.9,0.9-12-0.8-17.8c-0.3-1.2-0.4-2.5-1.3-3.5c-0.6-0.3-1.1-0.2-1.5,0.2
			c-2.1,4.2-3.2,8.3-2.2,13.1c0.8,3.9,0.2,8,0.2,12c0,0.9-0.2,1.8-1.2,2.2c-1.2-1.1-1-2.5-1.2-3.9c-0.2-1.5,0.6-3.7-1.9-3.9
			c-2.4-0.2-1.7,2.1-2.4,3.3c-1.9,0.1-1.3-1.3-1.3-2.1c-0.1-2.8,0-5.5,0-8.3c0.7-2.5,0.8-5.1,0.4-7.7
			C258.9,542.2,257.6,539.4,258.5,536.6z"/>
		<path class="st9" d="M344.2,567.5c0-4.5-0.1-9.1,0.1-13.6c0.2-3.1-1.2-4-4.3-3.8c-2.8,0.2-5.7,0.2-8.5,0.1
			c-2.3-0.1-3.4,0.5-3.4,2.9c0,2.3,0.8,3.3,3.3,3.1c0.5,0,1.1-0.1,1.6,0c1.3,0.3,3.4-0.9,3.7,1c0.3,1.7-0.9,3.1-2.7,3.9
			c-3.6,1.6-7,1.6-10.1-1.1c-5-4.2-4.4-13.8,1.2-17.3c3.3-2,7-2.3,9.7,0.2c2.7,2.4,5.4,2.9,8.7,2.7c-0.2,1.2-1.7,1-2.7,2.1
			c4.8,1.7,4.4,5.3,4.4,8.9c-0.1,2.9,0,5.8,0,8.7C344.9,566,344.5,566.7,344.2,567.5z"/>
		<path class="st7" d="M265.7,536.5c2.1,0,4.2,0,6.3,0c1.2,1.3,0.7,2.9,0.7,4.3c-0.1,8-0.1,16-0.1,24c0,1.2,0.3,2.6-1.2,3.3
			c-1.8,0-3.6,0-5.4-0.1c-0.2-0.2-0.5-0.4-0.5-0.5C265.7,557.3,264.1,546.9,265.7,536.5z"/>
		<path class="st10" d="M190.6,626.4c-7.3,4.1-10.4,10.6-9,18.5c0.2,1.1,0.4,2.2,0.5,3.3c-2.1,0.3-3.6,1.5-3.5,3.4
			c0.1,2.6-1.5,4-3.1,5.6c0.9-9.7,0.2-19.5,0.4-29.2c0-1.7-1.1-2.1-2.6-2.1c-1.6,0.1-3.2-0.2-4.7,0.7c0.3-2.2,1.7-3.5,4-3.1
			c2.2,0.3,4.1,1.6,4.1,3.9c0,2.3,1.6,3.3,3.2,4.3c1,0.6,2.7,0.7,2.5-0.6c-0.8-4.4,3.4-3.5,5.5-4.9
			C188.9,625.8,189.8,625.6,190.6,626.4z"/>
		<path class="st10" d="M314.3,544.9c-1.2,5.1-1.3,10.1,0.8,15.1c-3.2-1.2-5.2,0-6.1,3.5c-1.4,5.3-3.5,6.3-9.2,4.1
			c8.4,0.6,8.4,0.6,8.3-7.3c0-6.7,0-13.5,0-20.2c0-1.5,0.3-3.1-1.3-4.1c4.3,1.1,2.7,4.6,3.2,7.2c0.2,1.2,0.2,2.7,1.6,3.3
			C312.9,547.1,313.4,545.5,314.3,544.9z"/>
		<path class="st11" d="M311,611.4c-1-0.2-2.5,0.2-3-0.8c-0.7-1.4,1-1.5,1.8-1.9c1.2-0.6,0.7-1.8,1-2.7c0.9-3,3.9-3.9,6.1-2.1
			c0.7,0.5,1.1,1.1,0.9,1.9C317.6,607.1,312.2,611.4,311,611.4z"/>
		<path class="st12" d="M543.8,280.8c-5.8,5.2-12.2,9.8-16.7,16.2c-2.1,2.9-4.1,5.9-6.1,8.8c-0.5-4.6,3.8-6.8,5.7-10.2
			c3-5.5,8.4-9.2,13-13.4C540.9,281.1,542.4,281.1,543.8,280.8z"/>
		<path class="st13" d="M278.6,561.5c0-8.3,0-16.6,0-25c4.7-2.7,10.3-2.5,13,4.5c0.3,0.4,0.2,0.8-0.2,1.1c-0.8-1.1-1.8-2.2-2.4-3.5
			c-1.8-3.5-5.1-2.3-7.8-2.1c-2.9,0.2-1.7,2.8-1.7,4.3c-0.1,8,0.1,16.1,0.1,24.1c0,1.8,0.4,2.9,2.3,3.3c-2.2,0.7-3.2-0.3-3.3-2.3
			C278.7,564.4,278.7,563,278.6,561.5z"/>
		<path class="st12" d="M640.9,278.3c-7.6-3.7-15.5-6.6-23.7-8.8c5.1,0.3,10.5-0.6,15,2.2C635.3,273.5,638,276.1,640.9,278.3z"/>
		<path class="st14" d="M559.2,273.3c-5.2,2.5-10.3,5.1-15.5,7.6c-0.5-2.7,0.4-4.2,3.5-4.8C551.3,275.2,554.9,273,559.2,273.3z"/>
		<path class="st14" d="M581.7,267.9c-7.4,1.3-14.8,2.9-21.9,5.2c-0.9-0.9-0.7-1.5,0.6-1.8c5.9-1.5,11.8-3.4,17.9-4.3
			C579.6,266.8,580.6,267.4,581.7,267.9z"/>
		<path class="st10" d="M265.7,536.5c-0.5,10.5-0.6,21.1,0.2,31.6c-0.4-0.2-0.7-0.4-1.1-0.6c-0.1-5.5,0.2-11-0.6-16.5
			C263.5,546.2,264.4,541.3,265.7,536.5z"/>
		<path class="st10" d="M225.9,541.7c-1.6,2.5-4.4,2.4-6.7,2.3c-2.2,0-2.4,0.5-2.6,2.2c-0.6,5.6-0.3,11.3-0.2,16.9
			c-0.2,1.8,0.2,3.6-0.9,5.3c0,0-0.2-0.2-0.2-0.2c-1.7-1.3-1.8-3-1.8-4.8c-0.1-5.6-0.2-11.3,0-16.9c0.2-4.6,1.1-5.4,6-5.6
			C221.8,540.8,224,540.6,225.9,541.7z"/>
		<path class="st10" d="M271.4,568.2c0.9-0.8,1-1.7,1-2.8c-0.1-9.6-0.2-19.3-0.3-28.9c1.3,1.7,1.4,3.7,1.2,5.7c-0.2,3-0.9,6,1,8.8
			c0.2,0.4,0.3,1.1,0.1,1.4c-2.6,4.1-1,8.5-1.2,12.8C273,566.5,272.9,567.8,271.4,568.2z"/>
		<path class="st10" d="M258.6,551.5c0.1,3.8-1,7.8,0.8,11.5c-1.3,1.5,0.2,3.9-1.9,5.2c1-4.4,0.4-8.9,0.4-13.4
			c0-6.1-0.2-12.2-0.4-18.3c0.3,0,0.6,0,0.9,0c0.3,2.8,0.5,5.5,0.8,8.3C258.3,547,259.9,549.4,258.6,551.5z"/>
		<path class="st15" d="M657.9,293.5c-4.5-5.1-9.7-9.6-14.7-14.3c4.5-0.4,5.8,3.7,8.5,5.7C654.5,287.1,656.7,290.1,657.9,293.5z"/>
		<path class="st10" d="M230.1,537.3c0.1,8.5,0.1,16.9,0.3,25.4c0,1.9,0.3,3.7,0.5,5.6c-1.7-1.4-1.6-3.4-1.7-5.3
			c-0.4-7.2,0.8-14.4-0.7-21.6C228.2,539.9,229.2,538.5,230.1,537.3z"/>
		<path class="st10" d="M182.4,648.8c2.1,3.1,4.4,6,7.9,7.8c-1.1-0.3-2.1-0.5-3.2-0.8C184.6,654,182.3,652.1,182.4,648.8z"/>
		<path class="st8" d="M185.6,569.1c-2.1-0.6-4.6,1.4-6.4-0.9c2.3-2.2,4.7-2,7,0c0,0,0.2,0.2,0.2,0.2
			C186.1,568.6,185.8,568.9,185.6,569.1z"/>
		<path class="st7" d="M76.2,602.1c0-1,0.6-2.4-0.5-2.7c-1.3-0.4-1.6,1.1-1.9,2c-1.5,3.2-2.9,6.5-4.2,9.8c-0.8,2.1-2.3,2.4-4.3,2.5
			c-2.1,0.1-3.2-0.6-4-2.4c-1.9-4.4-4-8.8-6.9-13.1c0,4-0.1,8,0,12c0.1,2.1-0.2,3.6-3.1,3.6c-2.7,0-3.8-0.8-3.8-3.4
			c0.1-8-0.1-16.1,0-24.1c0-1.4-1-3.8,1.9-3.8c2.5,0,5.7-1.6,7.3,2c2.7,6.3,5.6,12.5,8.8,19.7c2-4.4,3.6-7.9,5.1-11.4
			c1-2.3,1.9-4.7,2.9-7c1.6-3.5,4.5-4.7,8.4-3.6c1.6,0.4,1.6,1.5,1.6,2.6c0,8.7,0.2,17.3,0.1,26c-0.1,4.7-4.1,2.1-6.3,2.7
			C75.7,609.7,77.3,605.8,76.2,602.1z"/>
		<path class="st7" d="M166,564.6c-0.6,1.3,1.1,3.3-1.5,4.1c-2.5,0.8-3.8-0.5-5.1-2.2c-2.2-3-4.7-5.8-7.1-8.6
			c-1.5-1.8-3.5-1.9-5.5-1.4c-2.3,0.5-1,2.5-1.3,3.9c-0.2,0.9-0.2,1.7-0.2,2.6c0.2,6,0.2,6-5.9,6.1c-2.4-3.1-2.3-6.8-2.7-10.3
			c-0.6-5.3-0.2-10.8-0.1-16.2c0-2,0.7-3.7,2.1-5.1l-0.1,0.1c0.6-0.6,1.3-1.1,2.1-1.1c7.2-0.2,14.4-1.5,21.4,1.3
			c2.3,0.8,3.8,2.3,4.9,4.3c0.2,0.4,0.3,0.8,0.3,1.2c0.1,2.1,0.1,4.3,0,6.5c-1,2.4-2.7,4.4-4.9,5.7c-1.8,1.1-1.4,1.9-0.1,2.8
			C164.6,559.7,165.9,561.9,166,564.6z"/>
		<path class="st6" d="M136.4,613.5c-2.7,0.1-6.1-0.5-9.1-2.4c-1.7-1.1-3.1-2.6-3.3-4.5c-0.1-1.2-1.8-3.4,0.8-3.8
			c1.9-0.3,4.5-1.4,5.9,1.5c1.9,3.7,8.2,4.9,11.8,2.6c1.2-0.8,1.8-1.8,1.6-3.2c-0.2-1.7-1.2-2.8-2.9-3.2c-3.1-0.7-6.3-1.3-9.4-2
			c-5.9-1.4-8.1-4-7.9-8.9c0.2-4.1,3.4-7.1,8.8-7.8c3.8-0.5,7.5-0.4,11.2,0.7c2,0.6,3.9,1.5,4.7,3.3c0.7,1.6,2.5,3.9,0.4,4.9
			c-1.8,0.8-4.8,1.6-6.6-1.4c-1.5-2.6-7.8-3.2-10.2-1.3c-2,1.6-1.2,4.2,1.9,5.1c3.2,0.9,6.6,1.3,9.8,2.2c6.3,1.7,9,6.2,7,11.9
			c-1.7,4.6-6.2,5.6-10.6,6.3C139.2,613.6,138.2,613.5,136.4,613.5z"/>
		<path class="st7" d="M71.3,564.1c-0.6,5.1-0.6,5.1-6.5,5.1c-4.4,0-8.9-0.2-13.3,0.1c-2.9,0.2-4.2-0.8-4.4-3.4
			c-1.1-5.2-0.2-10.5-0.5-15.7c-0.2-3,0.3-6-0.6-9c-0.7-2.4,0.7-4.3,3.6-4.4c6.5-0.2,12.9-0.1,19.4-0.1c2.5,0,3,1.9,3.4,3.5
			c0.5,1.7-0.9,2.6-2.5,3.3c-2.6,1.1-5.4,1.5-8.2,1.6c-1,0-2.4,0.1-2.3,1.5c0.1,1.1,1.3,1.1,2.2,1.3c1.3,0.2,2.7,0.1,4,0.2
			c2.2,0.1,4,0.7,4.7,2.8c0.7,1.9,0.3,3.7-1.6,4.9c-0.8,0-1.5,0.1-2.3,0.1c-2.7,0.8-5.5,0.5-8.3,0.8c-2.5,0.3-3.6,1.5-3.4,3.8
			c0.3,2.3,2.2,2.2,4,2.2C63,562.8,67.2,562.6,71.3,564.1z"/>
		<path class="st8" d="M190.6,626.4c-0.9,0-1.8-0.1-2.7-0.1c4.5-4,12.6-4.6,17.7-1.2c2.1,1.4,4.8,1.8,6.2,4.4
			c0.9,1.6,2.9,0.5,3.6-1.2c0.6-1.5,1.5-2.7,3.4-2.6c1.3,1.1,1.7,2.5,1.7,4c0.2,8,0.1,16,0,23.9c0,1.3-0.2,2.5-1,3.6
			c-0.2-0.1-0.5-0.2-0.7-0.3c-2.2-0.8-1.7-4.4-4.4-4.2c-2.3,0.2-1,3.8-3.4,4.4c1.6-5,0.5-10.2,0.7-15.3c0-1.5-1-1.9-2.4-1.9
			c-3.6,0-7.3,0.1-10.9,0c-2.6-0.1-2.6,1.5-2.7,3.2c-0.1,1.9,0.7,2.8,2.8,2.7c0.7,0,1.4-0.2,2,0c1.3,0.3,3.4-0.9,3.7,1.1
			c0.3,1.5-0.9,2.8-2.3,3.7c-3.8,2.3-9.5,1.3-11.7-2.4c-2.7-4.3-2.7-8.9-0.1-13.2c2.9-4.8,9.9-5.5,13.6-1.2c2,2.4,4.3,1.5,6.6,1.5
			c1.8,0,1-1.5,0.7-2.3c-1.6-4.1-4.8-6.5-9.4-7.3C198,625,194.3,625.4,190.6,626.4z"/>
		<path class="st7" d="M82,657.9c-0.9-9.6-0.2-19.3-0.5-29c-0.1-2.3,1.4-2.7,3.4-2.6c1.8,0.1,3.6,0,3.6,2.5c0,2.5,0.1,5,0,7.5
			c-0.1,2,0.8,2.5,2.9,2.6c10.2,0.5,10.3,0.5,10.6-9.2c0.1-2.6,1-3.5,3.8-3.5c3-0.1,3.3,1.3,3.3,3.5c0,8.3,0,16.6,0.1,24.8
			c0,2-0.2,3.3-3,3.3c-2.5-0.1-4.3-0.4-4-3.3c0.1-0.9,0.1-1.8-0.1-2.6c-0.3-2.4,1.3-6.1-1.1-6.9c-3.3-1.1-7.4-0.3-11.2-0.2
			c-1.2,0-1.2,1.2-1.2,2.1c0,1.8,0,3.5,0,5.3C88.4,657.9,88.4,657.9,82,657.9C82,657.9,82,657.9,82,657.9z"/>
		<path class="st7" d="M219.7,657.2c-0.3-0.5-1-1-1-1.5c0-10-0.8-20,0.3-30c6.3,0,12.7-0.1,19-0.1c2.2,0,4.3-0.4,4.3,2.9
			c0,3.3-2.3,2.7-4.4,2.8c-3.2,0-6.5,0.2-9.7,0.1c-2.8-0.1-2.8,1.6-2.9,3.5c0,2,0.2,3.5,3,3.4c3-0.1,5.9,0,8.9-0.1
			c2.1,0,4-0.2,4,2.8c0,2.7-1.5,3-3.9,3c-3.1-0.1-6.2,0.1-9.3,0c-3.5-0.1-2.5,2.3-2.6,4c-0.1,1.6-0.6,3.7,2.6,3.5
			c3.6-0.2,7.3,0,10.9-0.1c2.4-0.1,3.4,0.7,3.4,3c0,2.2-1.2,2.8-3.3,2.8C232.6,657,226.1,657.1,219.7,657.2z"/>
		<path class="st7" d="M117.7,593.8c0,3.4,0.2,6.8,0,10.1c-0.3,4.6-3.5,7.8-8.3,9.1c-2.1,0.6-4.3,0.6-6.4,0.5
			c-7.1-0.3-11.4-3.8-11.9-10.4c-0.4-6.1-0.2-12.3-0.3-18.4c-0.1-2.8,1.8-2.8,4-2.9c2.5-0.1,3.3,1,3.3,3.2c-0.1,5.3,0,10.5,0.1,15.8
			c0,4.7,2.2,7.2,6.2,7.2c4.2,0,6.4-2.3,6.5-7c0.1-5.4,0.1-10.8,0-16.2c-0.1-2.7,1.4-3.1,3.8-3.1c2.4-0.1,3.5,0.7,3.4,3
			c-0.1,3,0,6,0,9C117.8,593.8,117.7,593.8,117.7,593.8z"/>
		<path class="st6" d="M127.4,651c-3.8-0.7-6.8,0.4-7.9,5c-0.5,2.2-2.7,1.7-4.4,1.6c-1.9-0.2-1.5-1.8-1.7-2.9
			c-0.2-1.7,0.4-3.2,1.1-4.7c2.8-6.8,5.7-13.5,8.4-20.4c0.9-2.3,2.1-3.4,4.9-3.4c2.7,0,4.1,0.8,5.1,3.2c2.9,7,6,14,9,21
			c0.6,1.3,0.8,2.7,0.8,4c-0.1,1.3,0.7,3-1.7,3.1c-1.7,0.1-3.3,0.3-4.4-1.7C134.3,650.8,134.1,650.9,127.4,651z"/>
		<path class="st8" d="M138.7,537.4c-0.1,9.7-0.1,19.5-0.2,29.2c0,0.9,0.3,1.7,0.9,2.4c-2.1-0.7-1.7-2.7-2.3-4.1
			c-0.5-1-0.8-2.3-2.3-2.2c-1.7,0.1-1.6,1.5-1.8,2.5c-1.1,5.4-2.6,6-8.8,5c-3.9-0.7-8-0.3-12-0.3c-1.3,0-2.7,0.4-3.8-0.7
			c0.1-0.2,0.2-0.4,0.3-0.5c1.3-1.4,3.1-1.3,4.9-1.4c3.1-0.1,6.2,0,9.3-0.1c1.4,0,3,0.4,4.1-1.3c-2.1-1.5-4.4-0.8-6.6-0.9
			c-5.8-0.2-8.3-3.7-6.2-8.8c0.7-1.7,2.1-2.1,3.8-2.3c2.4-0.3,4.9,0.2,8.2-0.9c-2.9-1.1-5.3-0.7-7.5-0.9c-3.5-0.4-5.4-2-5.5-4.9
			c-0.2-3.3,1.5-5,5.1-5.4c3.6-0.4,7.3,0.7,10.6-1.3c1.2-1,1.9-2.3,2.2-3.8c1.2-1.3,2.4-1.5,3.6-0.1
			C135.9,537.6,137.2,537.9,138.7,537.4z"/>
		<path class="st6" d="M63.7,626.1c3.2-0.1,7.4,1.2,10.1,4.9c1,1.4,2.9,3.6,0.9,4.9c-1.7,1.1-4.8,1.3-6.5-1.1
			c-0.8-1.1-1.7-1.9-3.1-2.3c-4.7-1.6-9.4,0.2-11.4,4.5c-1.8,3.9-1.6,7.9,0.4,11.7c2.5,4.8,10.6,5.6,13.9,1.2
			c1.9-2.5,4.1-1.8,6.4-1.8c1.8,0.1,1.1,1.4,0.9,2.3c-1.2,4.6-7.3,8.3-13.6,8.2c-9.9-0.1-16.5-7-16.2-16.9
			C45.8,632.1,52.4,625.9,63.7,626.1z"/>
		<path class="st7" d="M98.5,556.8c-2.4,2.3-3,5.5-4.2,8.3c-1.9,4.5-3.9,5.2-9.1,3.1c-3.4-5.2-5.2-11.1-7.7-16.7
			c-1.1-2.6-2.1-5.2-3.6-7.6c-1.4-2.3-1.3-4.1,0.8-5.9c1.3-2.1,3.2-0.6,4.8-0.8c0.3-0.3,0.7-0.3,1.1-0.1c0.9,1.9,2,3.6,3.7,4.9
			c0.9,2,1.7,4.1,3,5.9c0.7,1.3,0.5,2.7,0.6,4c0.1,0.8,0.6,1.4,1.5,1.5c1,0.1,1.5-0.7,1.6-1.4c0.8-5.4,4.2-10,5.7-15.2
			c0.5-0.4,1.1-0.6,1.8-0.7c5.5,0.3,6.3,1,6.5,5.7c0.1,1.3-0.5,2.4-0.4,3.7c-0.3,2.2-3.2,3.4-2.7,5.9
			C101.6,553.8,100.5,555.5,98.5,556.8z"/>
		<path class="st7" d="M186.2,568.1c-2.3,0.7-4.7,0.5-7,0l0,0.1c-1.4-3,0-6.3-1-9.5c-0.8-2.5-1.9-4.6-4-6.3c-3.4-2.7-5.2-6.2-6-10.3
			c0.5-5.5,1.4-6.3,6.5-5.6c0.7,0.4,1,1,1.1,1.7c0.2,0.7,0.9,0.7,1.5,0.6c0.6,0.2,0.6,0.4,0,0.6c-0.7,0.2-0.6,0.6-0.1,1
			c1.7,0.7,2.1,2.7,4,3.3c0.4,0.2,0.8,0.3,1.2,0.5c0.2-0.1,0.5-0.2,0.7-0.2c0.4-0.2,0.7-0.5,1-0.8c1.3-1.7,4.2-2.1,4.2-4.8
			c1.5-2.7,3.6-3.1,6.4-1.8c0,0,0,0,0,0c1.5,2,1.1,4,0.4,6.1c-0.3,0.9-0.8,1.9-1.4,2.7C188,552.2,185,559.6,186.2,568.1z"/>
		<path class="st7" d="M167.8,581.6c3.6,0,7.3,0.1,10.9,0c2.2-0.1,2.7,1,2.9,2.7c0.2,2.1-1,2.5-2.9,2.6c-7.7,0.6-7.7,0.7-7.7,7.9
			c0,5-0.1,10,0,15c0.1,2.3-0.8,3.1-3.3,3.1c-2.5,0-3.7-0.5-3.6-3.1c0.1-6.1-0.2-12.3,0-18.4c0.1-3.3-0.8-5-4.7-4.4
			c-0.9,0.1-1.9,0-2.8,0.1c-2.3,0.2-3-0.9-3-2.9c0-2,0.9-2.7,2.9-2.6C160.2,581.7,164,581.7,167.8,581.6
			C167.8,581.7,167.8,581.6,167.8,581.6z"/>
		<path class="st16" d="M74.6,538.1c0.1,7.2,4.1,13.4,6.5,20c1.3,3.4,2.7,6.8,4,10.2c-0.8-0.7-2-1.3-2.2-2.1
			c-1.6-5.3-5.3-9.8-6.8-15.2c-0.7-2.4-1.6-4.5-3.8-6c-0.8-0.5-1.7-0.8-2.6-0.2c-0.8,0.6-0.5,1.3-0.3,2.1c0.4,1.1,0.4,2.4,1.1,3.2
			c2.5,3,1.1,4.7-1.9,6.1c2.5-4.5,1.6-6-3.4-6.1c-2.3,0-4.6-0.1-6.9,0c-3,0.2-4.3-0.5-4.4-3.6c-0.1-3.5,2.2-3,4.5-3.1
			c3.1,0,6.2-0.2,9.3-0.1c2.4,0.1,3-1.1,3.1-3c0.1-2.1-0.8-2.9-3.1-2.8c-5.7,0.1-11.3,0.2-17,0.1c-2.8,0-3.7,1-3.6,3.6
			c0.1,8.3-0.1,16.6-0.1,24.8c-1.8-4.2-0.5-8.6-0.9-12.9c-0.4-4,0.7-8.2-1.2-12.1c-0.5-0.9,0.3-2.4,0.5-3.6h0
			C55.2,536.1,64.9,535.3,74.6,538.1z"/>
		<path class="st8" d="M175.7,538.3c-0.3-0.2-0.5-0.4-0.8-0.7c-1.7-1.2-3.7-1.2-5-0.1c-1.5,1.3-1.5,3.3-0.5,5.1
			c1.6,2.8,3.1,5.7,5.5,8c5.1,5.1,4,11.5,4.3,17.6c-1.7-3.6-0.7-7.6-2.6-11.2c-1.5-2.9-4.1-4.5-7-5c-3.2-0.5-4.9,2.3-6.8,4.1
			c-1.2,1.1,0.4,1.3,1,1.8c2,1.9,3.3,3.9,2.3,6.7c-1-2.8-3.3-4.8-5.1-7.1c-1-1.2-1.1-1.8,0.5-2.5c2.2-1.1,3.6-2.9,4.5-5
			c1.5-2.5,1.3-5,0.1-7.5l0,0.1c0-2-1.6-2.9-3.2-3.8c-7.9-3-16-1.5-24.1-1.4c0.5-0.9,1.2-2,2.2-2c5.1,0.1,10.1-2.5,15.4-0.4
			c5.3,2,10.8,3.4,15.6-1.3c0.6-0.6,1.5-0.6,2.2-0.1C175.6,534.8,176.4,536.3,175.7,538.3z"/>
		<path class="st8" d="M257.6,536.6c-2.1,0-4.2,0-6.3,0c-1.6,2.8-0.4,5.8-0.8,8.7c-0.3,1.8-0.9,2.6-2.7,3c-2.2,0.5-4.5,0.4-6.8,0.4
			c-1.7,0-2.7-0.8-2.9-2.5c-0.3-3.2-0.7-6.4,0-9.6c1.1,0.3,2.4,0.4,3.4,1c3.2,1.7,5.7,2.6,8.4-1.2
			C252,533.5,254.8,533.9,257.6,536.6z"/>
		<path class="st8" d="M98.5,556.8c-0.5-2.1,1.4-3.4,1.9-5.2c2.6-1.4,1.2-4.2,2.5-6.1c0.1-1,0.3-2,0.4-3c2-1.4-0.1-3.7,1.3-5.2
			c1.1-1.2,2.6-1,4-0.8c0.1,0.1,0.3,0.2,0.4,0.3c0.1,0.3,0.2,0.6,0.2,1c-0.1,0.5-0.3,1-0.4,1.4c-0.7,2.3-0.5,4.7-0.5,7.1
			c0,0.5,0,1,0,1.5c0,2.6-0.2,5.3,0.4,7.9c0.2,1.7,1.2,3.6-1.6,4.2c-0.2-0.5-0.5-0.9-0.6-1.4c-1.2-4.9-1.2-4.9-5.5-2
			C100,557.1,99.3,557,98.5,556.8z"/>
		<path class="st8" d="M84.8,548.7c-0.8-2-2.2-3.7-2.2-5.9c-0.6-1.1-0.3-1.9,0.9-2.5c1.9,0.1,3.7,0.3,4.6,2.3
			c0.6,1.3,2.1,1.4,3.5,1.5c1.9,3.2,1.1,8.5-1.8,10.4c-1.5,1-2.2,0-2.7-1.1C86.3,551.8,86,550,84.8,548.7z"/>
		<path class="st16" d="M84.8,548.7c0.5,0.6,1,1.1,1.6,1.7c1,1,0.8,3.8,2.5,3c1.6-0.8,3.5-2.7,2.9-5.2c-0.4-1.3-0.5-2.7-0.2-4
			c0.8-0.3,1.3-0.8,1.6-1.5c-1.4-3.6,1.4-4,4-4.5c-2,6.9-5,13.5-7.8,21C86.9,555.3,85.9,552,84.8,548.7z"/>
		<path class="st10" d="M291.5,542.1c0.1-0.4,0.1-0.7,0.2-1.1c1-0.3,2.1-0.5,2.9,0.3c2.4,2.3,3.8,1.1,5.1-1c0.9,3.2,0.4,6.5,0.3,9.7
			c-0.1,1.8-1.3,2.5-2.9,1C295.3,548,293.4,545,291.5,542.1z"/>
		<path class="st8" d="M194.4,536.6c-2.4,0.2-5,0-5.8,3c-1.1,1.7-2.3,3.3-3.1,5c-0.3,0.3-0.6,0.7-0.9,1c-1,1.9-2.5,1.4-4.1,0.8
			c-0.8-0.2-0.8-0.8-0.8-1.4c-0.3-1.1-2-2.2,0.1-3.2c2.4-2.4,6.4-2.3,8.6-5.4C189.7,534.7,192.4,534.7,194.4,536.6z"/>
		<path class="st16" d="M71.3,564.1c-4.5-1.4-9.1-0.5-13.6-0.5c-4,0.1-3.2-2.2-3.5-4.4c-0.3-2.5,0.7-3.4,3.3-3.2
			c2.9,0.2,5.9,0.1,8.8,0.1c-2.2,1.4-4.7,1.7-7.2,1.9c-1.7,0.1-4,0.2-3.6,2.5c0.4,2,2.4,1.3,4,1.3C63.7,562,67.9,561.3,71.3,564.1z"
			/>
		<path class="st10" d="M238.2,536.5c0.1,2.3,0.1,4.5,0.3,6.8c0.2,2.3,0.7,4.6,4,4.7c4.7,0.2,6.7-1.1,7.5-4.3c0.6-2.4-1-5.1,1.4-7.2
			c-0.8,3.1-0.1,6.2-0.5,9.3c-0.8,6.2-6.1,2.3-9.2,3.2c-2.3,0.7-4.5,0.2-4.3-3.1c0.2-3.1-0.1-6.2-0.2-9.3
			C237.5,536.6,237.9,536.6,238.2,536.5z"/>
		<path class="st8" d="M97.2,538.1c-1.9,1.1-3.1,2.7-4,4.5c-2.1,0.3-2.4-1.2-2.6-2.6c-0.1-1.2,0.6-2,2-2.4c3.1-0.9,5.7-3.9,9.5-1.9
			c-0.5,2.4-2.9,0.4-4,1.4C97.8,537.5,97.5,537.8,97.2,538.1z"/>
		<path class="st17" d="M107.6,538.1c0.3-0.3,0.5-0.6,0.8-0.9c0.2,0.1,0.5,0.2,0.7,0.4c1.5,1.4,1.4,3.2,1.4,5c0.1,7,0.1,14.1,0,21.1
			c0,1.9,0,3.8-1.8,5.2c0,0-0.2,0.3-0.2,0.3c-1.4-2.9-0.6-6.2-1.6-9.1c0.9-1.5,0.4-3,0-4.5c0.6-2.5,0.5-5,0-7.6c0-0.5,0-1,0-1.5
			C107.5,543.6,106.8,540.8,107.6,538.1z"/>
		<path class="st8" d="M108.5,536.5c1-1.2,2.4-1.5,3.9-1.2c0.9,0.2,2.1,0.4,2.7,0.1c5.1-2.8,9.7,0.6,14.5,1
			c-0.2,0.2-0.3,0.6-0.5,0.6C122.3,537.9,115.4,538.6,108.5,536.5L108.5,536.5z"/>
		<path class="st0" d="M27.6,547.8c-0.4-0.2-1.4-0.4-1.5-0.8c-0.9-2.5,3.5-2.8,2.9-5.5c-0.1-0.3,2.1,0.4,2.9,1.1
			c0.6,0.6,1,1.5,0.2,1.9C30.5,545.4,30,547.5,27.6,547.8z"/>
		<path class="st17" d="M108.6,536.6c7-0.1,14.1-0.1,21.1-0.2c0.5,0,1,0.1,1.5,0.1c2.1,1.8,2.1,3.9,0.7,6.1
			c-2.2-2.5-5.1-3.4-8.6-3.4c-3.2,0.1-6.4,0-9.7,0c-1.9,0-3.8-0.2-5.1-1.8c0,0-0.2-0.2-0.2-0.2C108.5,537,108.5,536.8,108.6,536.6z"
			/>
		<path class="st13" d="M297.1,550.9c2.4,0.3,2.6-1.2,2.6-2.8c0-2.6,0-5.2,0-7.8c0-1.4,0-2.8,1.3-3.7c0,6.3,0,12.6,0,19.8
			C298.6,554.3,298,552.5,297.1,550.9z"/>
		<path class="st0" d="M45.4,537.3c-1.5-0.2-4.1,0.5-3.9-1.4c0.2-2.4,3.4-2.2,5.8-4C46.5,534.4,45.2,535.6,45.4,537.3
			C45.4,537.3,45.4,537.3,45.4,537.3z"/>
		<path class="st0" d="M177.3,572.5c-1.2,1.3-2.2,2.6-3.5,3.6c-0.6,0.5-1.6-0.4-1.4-1.2c0.4-1.5,1.2-2.9,3-3.2
			C176.2,571.5,176.9,571.9,177.3,572.5z"/>
		<path class="st0" d="M236.6,621.7c-1.3-0.3-2.8-0.4-2.6-1.8c0.1-1.2,1.5-1.2,2.6-1.2c1.2,0,2.1,0.4,2,1.7
			C238.5,621.5,237.4,621.6,236.6,621.7z"/>
		<path class="st9" d="M344.3,544.2c-1.5-3.1-3.8-5.6-6.8-7.6C342.1,537.4,343.8,539.4,344.3,544.2z"/>
		<path class="st0" d="M251,641.9c-0.9,0-1.6-0.3-1.7-1.2c-0.2-1,0.6-1.3,1.5-1.3c0.9,0,1.6,0.4,1.5,1.3
			C252.3,641.4,251.8,641.8,251,641.9z"/>
		<path class="st17" d="M98,537.2c1.3-0.5,2.7-0.9,4-1.4c0.8,0.5,1.6,1,2.4,1.5c-0.1,1.8,0.5,3.8-1.3,5.2
			C103.7,537.2,103.7,537.2,98,537.2z"/>
		<path class="st18" d="M76.2,602.1c1.1,3.7-0.3,7.7,0.9,11.4C74.9,609.8,76.2,605.9,76.2,602.1z"/>
		<path class="st0" d="M87,529.5c1.2-0.7,2.2-1,3.1-0.1c0.4,0.4,0.3,1-0.2,1.3C88.7,531.2,87.9,530.6,87,529.5z"/>
		<path class="st13" d="M179.9,541.8c0,1.1,0,2.1-0.1,3.2c-1.2-1.4-2.5-2.7-2.7-4.6C178.2,540.5,179.2,541,179.9,541.8z"/>
		<path class="st0" d="M42.5,604.6c-0.1,0.6-0.5,0.9-1.1,0.7c-0.4-0.2-0.8-0.6-1-1c-0.2-0.5,0.2-0.9,0.8-0.9
			C42,603.5,42.4,603.9,42.5,604.6z"/>
		<path class="st8" d="M201.3,657.2c1.9-0.5,3.8-4,5.7,0C205.1,657.7,203.2,657.4,201.3,657.2z"/>
		<path class="st8" d="M79.9,537.4l-0.3,0.1l-0.2-0.1c0.2-0.8,0.2-1.9,1.5-1.5c1.1,0.3,1.5,1.2,0.9,2.3
			C80.9,538.6,80.5,537.5,79.9,537.4z"/>
		<path class="st16" d="M79.9,537.4c0.7,0.2,1.3,0.4,2,0.7c0.5,0.8,1.1,1.5,1.6,2.3c-0.3,0.8-0.6,1.6-0.9,2.5
			C81.7,541,80.8,539.2,79.9,537.4z"/>
		<path class="st10" d="M320.1,538.1c-1.4,1.3-2.7,2.5-4.1,3.8C316.5,539.8,317.4,538.1,320.1,538.1z"/>
		<path class="st0" d="M246.6,528.6c-0.2,0.2-0.4,0.5-0.7,0.5c-0.5,0.1-1-0.2-1.1-0.7c0-0.2,0.4-0.6,0.7-0.7
			C246,527.7,246.4,528,246.6,528.6z"/>
		<path class="st0" d="M183.9,527c0,0.7-0.4,1.1-0.9,1.2c-0.6,0.1-1-0.3-0.9-0.9c0.1-0.6,0.5-0.9,1.1-0.9
			C183.4,526.5,183.7,526.9,183.9,527z"/>
		<path class="st13" d="M177.2,539.5c0-0.2,0-0.4,0-0.6l0.2,0.3L177.2,539.5z"/>
		<path class="st0" d="M453.8,388.6c-0.8-0.3-4.1,0.7-1.3-2.4c1.5-1.6-0.4-2.4-1-3.5c-0.4-0.8-1-1.6-0.2-2.4c0.8-0.8,1.7-0.4,2.6,0
			c1,0.5,2,0.9,2.8,1.5c1.5,1.1,4.5,2,3.6,3.8C459.4,387.3,457,388.8,453.8,388.6z"/>
		<path class="st0" d="M460.5,336.4c-2.7,2.4-4.4,6.1-9,5.8C455,340.8,455.8,336.1,460.5,336.4z"/>
		<path class="st0" d="M240.5,367.9c-1-0.1-3.9-5.3-3.3-6.1c0.6-0.7,1.4-0.9,2.1-0.3c1.7,1.5,2,3.6,2.4,5.7
			C241.7,367.6,241.1,368,240.5,367.9z"/>
		<path class="st0" d="M451.3,401.5c-0.2,1.3-0.7,2.1-2.4,1.8c-1.8-0.3-4.6-2.2-6-4.4C446.1,399.3,448.4,401.4,451.3,401.5
			C451.3,401.5,451.3,401.5,451.3,401.5z"/>
		<path class="st0" d="M317.9,299.2c-0.7-0.1-1.3-0.5-1.2-1.2c0-0.7,0.6-1.1,1.3-1.1c0.9,0,1.6,0.4,1.4,1.4
			C319.2,299,318.6,299.2,317.9,299.2z"/>
		<path class="st0" d="M450.6,394.9c0,0.8-0.5,1.1-1.2,1.2c-0.7,0-1.4-0.2-1.5-0.9c-0.1-0.8,0.5-1.4,1.4-1.4
			C450.1,393.7,450.4,394.2,450.6,394.9z"/>
		<path class="st0" d="M446.5,409.2c-0.1,0.6-0.5,0.9-1,0.9c-0.9,0-1.5-0.4-1.5-1.3c0-0.6,0.6-0.8,1.2-0.7
			C445.8,408.3,446.4,408.5,446.5,409.2z"/>
		<path class="st0" d="M243.2,300.6c0,0.6-0.4,0.9-1,0.9c-0.6,0-1.1-0.3-1-0.9c0-0.3,0.4-0.6,0.8-0.7
			C242.6,299.8,243.1,300.1,243.2,300.6z"/>
		<path class="st0" d="M243.4,415.5c0,0,0.3,0.5,0.4,1c0.2,0.6-0.1,1.1-0.7,1c-0.4,0-0.9-0.4-1.1-0.8
			C241.7,416.2,241.9,415.8,243.4,415.5z"/>
		<path class="st0" d="M323.6,302.2c0.1,0.2,0.5,0.5,0.5,0.7c0,0.5-0.5,0.8-1.1,0.8c-0.3,0-0.7-0.5-0.6-0.7
			C322.4,302.5,322.9,302.3,323.6,302.2z"/>
		<path class="st0" d="M571.9,393.2c1.4,0.2,1.8,1,1.9,2c-0.3,0.1-0.6,0.3-0.7,0.3C572,395.1,571.2,394.5,571.9,393.2z"/>
		<path class="st6" d="M225.9,541.7c-2.2,1.5-4.7,0.8-7,0.8c-2.7-0.1-3.4,0.9-3.4,3.3c0,7.5-0.1,14.9-0.2,22.4
			c-0.8,0.1-1.6,0.1-2.4,0.2c-3.5,0.6-4.7-0.8-4.6-4.1c0.2-6-0.2-12.1,0-18.1c0.1-2.8-0.8-4-3.9-3.6c-0.9,0.1-1.9,0-2.8,0
			c-1.8-0.1-3.9,0.3-3.9-2.5c-0.1-2.3,0.7-3.6,3.3-3.6c6.2-0.4,12.4-0.7,18.6-0.1c2.2,0.3,5-1.9,6.4,1.8
			C226.5,539.7,225.6,540.6,225.9,541.7z"/>
		<path class="st10" d="M219.5,536.5c-6.2,0-12.4,0-18.6,0.1c5.4-1.5,11.1-0.2,16.6-1.2C218.1,535.3,218.9,536.1,219.5,536.5z"/>
		<path class="st10" d="M258.6,551.5c-0.1-2.3-0.6-4.5,0.7-6.7C259.5,547.1,260.7,549.5,258.6,551.5z"/>
		<path class="st3" d="M150.8,550.3c-1.8-0.5-5.4,1.8-5.6-3.1c-0.1-3.5,1-4.9,4.7-4.4c1.7,0.2,3.5,0,5.3,0.1c2.6,0.1,4.1,1.4,4,3.8
			c-0.1,2.2-1.6,3.4-3.9,3.6C154,550.4,152.7,550.3,150.8,550.3z"/>
		<path class="st19" d="M165.9,542.6c2.1,2.5,2.3,5-0.1,7.5C166.6,547.6,166.4,545.1,165.9,542.6z"/>
		<path class="st19" d="M162.7,538.9c1.9,0.6,4.3,0.9,3.2,3.8C164.9,541.4,163.8,540.1,162.7,538.9z"/>
		<path class="st14" d="M128.3,635.3c1,2.1,1.7,3.6,2.3,5c2,4.8,1.3,5.6-4.3,5.1c-1.7-0.2-2.5-0.5-1.8-2.3
			C125.6,640.7,126.4,638.2,128.3,635.3z"/>
		<path class="st7" d="M108.6,537.4c6.7-0.1,13.4-0.1,20.1-0.2c4.8-0.1,2.8,3.2,3.2,5.4c-4.4,1-8.9,0.4-13.3,0.4
			c-3,0-3.2,1.5-3.2,3.6c-0.1,2.1,0.5,3.4,3.1,3.3c2.7-0.1,5.4,0,8.1,0c2.2,0,4.7-0.6,4.6,3c0,3.3-2.3,2.8-4.4,2.8
			c-2.7,0-5.4,0.2-8.1,0c-3-0.2-3.3,1.3-3.2,3.5c0.1,2-0.5,4.2,3.1,4c3.4-0.2,6.7,0.1,10.1,0c2,0,3.5,0.1,3.4,2.5
			c-0.1,2-0.4,3.4-3.1,3.3c-6.7-0.1-13.5-0.1-20.2-0.1C108.2,558.3,108.1,547.9,108.6,537.4z"/>
		<path class="st16" d="M102.8,545.5c0.7,2.6,1.8,5.3-2.5,6.1C100.3,549.3,100.6,547,102.8,545.5z"/>
		<path class="st19" d="M169.4,542.6c-1.7-1.5-1.9-3.4-0.5-4.9c1.7-1.7,4-1.7,6-0.1C169.9,536.6,169.9,536.6,169.4,542.6z"/>
		<path class="st13" d="M180.6,546.4c1.4-0.3,2.7-0.5,4.1-0.8c0.1,1.4-0.8,2.7-1.9,3C181.5,549,181.2,547.3,180.6,546.4z"/>
		<path class="st13" d="M185.5,544.6c0.2-2.1,1.2-3.8,3.1-5C188.1,541.6,187,543.2,185.5,544.6z"/>
		<path class="st16" d="M107.6,538.1c-0.1,2.8,0.6,5.6-0.7,8.3C106.4,543.6,106,540.7,107.6,538.1z"/>
		<path class="st16" d="M106.9,547.9c1.1,2.5,1.1,5,0,7.6C106.9,552.9,106.9,550.4,106.9,547.9z"/>
	</g>
</g>
</svg>
