<?xml version="1.0" encoding="iso-8859-1"?>
<!-- Generator: Adobe Illustrator 16.0.0, SVG Export Plug-In . SVG Version: 6.00 Build 0)  -->
<!DOCTYPE svg PUBLIC "-//W3C//DTD SVG 1.1//EN" "http://www.w3.org/Graphics/SVG/1.1/DTD/svg11.dtd">
<svg version="1.1" id="Layer_1" xmlns="http://www.w3.org/2000/svg" xmlns:xlink="http://www.w3.org/1999/xlink" x="0px" y="0px"
	 width="159.279px" height="31.856px" viewBox="0 0 159.279 31.856" style="enable-background:new 0 0 159.279 31.856;"
	 xml:space="preserve">
<path style="fill:#000000;" d="M62.4,21.578c-17.973,0.256-31.607,1.98-43.024,10.278c-4.371-3.926-9.688-7.022-17.223-8.841
	L0,3.192c4.86,0.223,13.146,2.075,19.897,6.352c11.058-7.979,25.705-8.81,46.515-9.033L62.4,21.578z M83.961,21.833
	c-12.232,0-14.223-1.468-14.189-11.012C69.805,1.533,73.165,0,83.928,0c10.243,0,13.766,0.671,13.766,6.895h-6.72
	c-0.423-1.532-0.685-2.138-6.36-2.138h-1.501c-4.338,0-6.916,0.287-6.916,4.851v2.618c0,4.596,2.936,4.884,6.786,4.884h1.728
	c5.415,0,6.654-0.639,6.654-2.586V13.63h-7.111V9.672h13.44v4.788C97.694,20.621,92.965,21.833,83.961,21.833z M123.92,21.578
	l-2.806-5.075h-12.525l-2.741,5.075h-6.426l11.841-21.322h7.372l12.101,21.322H123.92z M114.819,5.043l-4.078,7.501h8.221
	L114.819,5.043z M145.579,21.833c-7.861,0-13.276-0.256-13.505-6.575h6.427c0.228,1.373,1.173,1.946,5.871,1.946h3.131
	c4.045,0,5.415-0.415,5.415-2.042c0-1.373-0.978-1.596-4.664-1.692l-5.155-0.127c-5.544-0.128-10.633-0.734-10.633-6.512
	c0-5.905,4.958-6.832,12.753-6.832c8.677,0,12.689,0.862,12.917,6.672h-6.491c-0.261-1.724-1.533-2.012-5.382-2.012h-2.871
	c-3.523,0-4.567,0.734-4.567,2.012c0,1.308,0.947,1.787,4.991,1.882l4.11,0.097c8.188,0.191,11.352,0.893,11.352,6.415
	C159.279,22.217,150.634,21.833,145.579,21.833z"/>
</svg>
