<?xml version="1.0" encoding="utf-8"?>
<!-- Generator: Adobe Illustrator 21.1.0, SVG Export Plug-In . SVG Version: 6.00 Build 0)  -->
<svg version="1.1" id="Layer_1" xmlns="http://www.w3.org/2000/svg" xmlns:xlink="http://www.w3.org/1999/xlink" x="0px" y="0px"
	 viewBox="0 0 900 596" style="enable-background:new 0 0 900 596;" xml:space="preserve">
<style type="text/css">
	.st0{fill:#FEFEFE;}
	.st1{fill:#040807;}
	.st2{fill:#050908;}
	.st3{fill:#020202;}
	.st4{fill:#030303;}
	.st5{fill:#020303;}
	.st6{fill:#040404;}
	.st7{fill:#060606;}
	.st8{fill:#050505;}
	.st9{fill:#282626;}
	.st10{fill:#201E1E;}
	.st11{fill:#AAAAAA;}
	.st12{fill:#B4B4B4;}
	.st13{fill:#AEAEAE;}
	.st14{fill:#B2B2B2;}
	.st15{fill:#A5A5A5;}
	.st16{fill:#979797;}
	.st17{fill:#ACACAC;}
	.st18{fill:#A4A4A4;}
	.st19{fill:#AFAFAF;}
	.st20{fill:#C7C7C7;}
	.st21{fill:#B1B2B2;}
	.st22{fill:#A9A9A9;}
	.st23{fill:#ADADAD;}
	.st24{fill:#C5C5C5;}
	.st25{fill:#B3B3B3;}
	.st26{fill:#8E9291;}
	.st27{fill:#D0D0D0;}
	.st28{fill:#C6C6C6;}
	.st29{fill:#BABABA;}
	.st30{fill:#0C0C0C;}
	.st31{fill:#FDFDFD;}
	.st32{fill:#BCBDBC;}
	.st33{fill:#BFBEBE;}
	.st34{fill:#BDBDBD;}
	.st35{fill:#ABABAB;}
	.st36{fill:#A8A8A8;}
	.st37{fill:#E5E5E5;}
	.st38{fill:#A3A0A1;}
	.st39{fill:#EAEAEA;}
	.st40{fill:#F9F6F7;}
	.st41{fill:#CAC6C7;}
	.st42{fill:#E1E0E0;}
	.st43{fill:#B0AEAE;}
	.st44{fill:#ABA8A9;}
	.st45{fill:#A6A5A5;}
	.st46{fill:#BCBABB;}
	.st47{fill:#989898;}
	.st48{fill:#0B0A0A;}
	.st49{fill:#ECECEC;}
	.st50{fill:#353435;}
	.st51{fill:#464343;}
	.st52{fill:#2D2C2C;}
	.st53{fill:#F5F5F5;}
	.st54{fill:#FCFCFC;}
	.st55{fill:#CFCECE;}
	.st56{fill:#1F1E1E;}
	.st57{fill:#F8F7F7;}
	.st58{fill:#A09F9F;}
	.st59{fill:#C2C0C1;}
	.st60{fill:#E3E0E1;}
	.st61{fill:#343333;}
</style>
<g>
	<path class="st0" d="M450.9,597c-148.8,0-297.6,0-446.4,0.1c-3.8,0-4.6-0.8-4.6-4.6C0,396.7,0,200.8-0.1,5c0-3.8,0.8-4.6,4.6-4.6
		c297.6,0.1,595.1,0.1,892.7,0c3.8,0,4.6,0.8,4.6,4.6c-0.1,195.8-0.1,391.6,0,587.5c0,3.8-0.8,4.6-4.6,4.6
		C748.4,597,599.6,597,450.9,597z"/>
	<path class="st1" d="M469.5,118.6c2.1,0.2,2.7-1.7,3.6-2.9c18.1-21.7,36.1-43.4,54.2-65c0.6-0.7,1.4-1.4,2.1-2
		c54.8-0.1,109.7,0,164.5,0c0.8,0,1.7,0,2.5,0.1c3.6,1.8,1.7,4.6,0.9,6.9c-2.7,7.6-5.4,15.1-7.6,22.8c-2.4,8.2-3.6,9.2-12.2,9.2
		c-12.3,0-24.7,0.9-36.9-0.3c-8.5-0.8-12.6,1.3-14.7,9.7c-1.8,7.1-4.9,13.9-7.1,20.9c-2.2,6.9-5.4,13.5-6.4,20.7
		c1,2.5,3.2,1.3,4.7,1.3c14.7,0.1,29.3,0.1,44,0c3.3,0,4.1,0.6,2.8,3.9c-4.7,12.5-9.3,25-13.6,37.6c-1,3-2.5,3.6-5.4,3.6
		c-15.5-0.1-31,0-46.5-0.1c-2.8,0-4.3,0.6-5.3,3.6c-5.9,17.4-12.1,34.7-18.4,52.6c14.7,0.6,28.8,1.2,43,1.8
		c5.2,0.2,10.3,0.6,15.5,0.7c2.8,0,3.9,0.6,3,3.7c-1.1,3.8-1.8,7.8-2.6,11.7c-0.4,1.7-0.9,3.5,2,2.9c5.3,0.1,10.1-2.2,15-3.6
		c45.3-12.8,90.5-25.7,135.8-38.7c17.4-5,34.8-10.2,52.3-14.9c15.1-4.1,30.4-7,45.8-9.7c2.2-0.4,5.3-1.2,5.4,2.9
		c-20.5,9.1-41,18.2-61.5,27.3c-131.4,58.1-264,113.3-396,169.9c-67.4,28.9-135,57.2-202.2,86.3c-22.8,9.9-45.5,19.9-69.9,25.2
		c-8.3,1.8-16.7,2.9-25.1,4.4c-17.1,1.6-34.2,1.9-51.2-1.5c-0.8-0.1-1.7-0.3-2.5-0.5c-4.5-1.3-9-2.5-13.5-3.8
		c-8.3-2.9-16.5-6.2-23.9-11.2c-5.3-3.7-10.7-7.2-16-11c-6.1-4.4-11.3-9.7-14-17c-1.1-1.6-2-3.3-1.9-5.3c0-4-0.3-7.9-1.8-11.7
		c-2-4.8-2.6-10-2.7-15.1c-0.2-11-1.2-22,1-32.8c3-14.4,5.2-28.9,11-42.7c3.2-7.6,6-15.4,9.8-22.8c0.9-1.7,1.5-3.7,1.3-5.8
		c18.4-38.4,42.3-73.1,70.1-105.2c3.8-0.9,4.4-0.4,3.2,3.4c-2.7,8.7-5.7,17.4-7.9,26.3c-5.9,23.4-6.3,46.5,2.2,69.4
		c1.2,3.1,1.2,7,4.7,9c5.2,9.3,12.5,17,19.9,24.6c6.4,6.6,14.3,10.6,22.4,14.5c5.5,3.7,12,4.3,18.3,5.1c23.1,3.1,45.8,0.6,68.1-5.4
		c31.8-8.5,63.4-17.5,95.1-26.3c35.6-9.8,71.2-19.6,106.8-29.3c28.4-7.7,56.7-15.7,85.1-23.4c0.3-0.1,0.6-0.4,0.8-0.6
		c0.2-0.9,1.4-1.8-0.2-2.5c-21.3-0.1-42.6-0.1-63.9-0.5c-6.9-0.1-7.9-1-8.2-8c-0.3-8.3-0.4-16.6-0.7-24.9c-0.7-18.4-2-36.8-1.8-54.8
		c-0.5,2,0.7,4.7-0.7,7c-1.5-3.6,0.6-7.7-1.7-11.1c-4.9,9.3-8.1,19.2-12,28.9c-7.8,19.3-15.3,38.7-22.8,58c-1.1,2.7-2.7,3.9-5.6,3.9
		c-15-0.1-30,0-45-0.1c-4.4,0-5.1-1.1-3.6-5.1c12.7-34.8,25.3-69.7,38-104.5c15-41.1,30-82.2,44.8-123.3c1.7-4.7,4-6.4,9-6.3
		c14,0.3,28,0.1,42,0.1c6.3,0,6.6,0.4,4.6,6.1c-7.3,20.7-14.7,41.4-22.1,62C469.5,117.3,469.2,117.9,469.5,118.6z"/>
	<path class="st2" d="M270.3,149.5c0.6-0.7,1.2-1.4,1.8-2.1c3.9-6,5.5-13.1,7.9-19.7c9.1-24.8,18.5-49.5,27.2-74.4
		c1.2-3.3,2.9-4.8,6.5-4.7c13.3,0.2,26.7,0,40,0.1c5.6,0,6.3,1.1,4.4,6.7c-1.7,5-3.9,9.9-5.4,15c-14.5,40.9-29.1,81.8-43.9,122.7
		c-10.9,30.2-22.2,60.2-32.5,90.6c-1.4,4.2-3.4,6-8.2,5.9c-16-0.3-32-0.2-48-0.1c-3.1,0-5.1-0.4-4.9-4.3c0.5-16.2,1.5-32.4,2.9-48.6
		c0.5-5.9,0.5-11.9,0.8-17.9c0.5-9.6,2-19.2,1.2-28.9c0.1-1.1-0.2-1.3-1-0.4c-0.2,0.2-0.5,0.4-0.7,0.6c-7.4,19-14.8,38-22.1,57
		c-2.4,1.6-2.7,4.5-3.5,6.9c-3.7,11.1-8.4,21.7-12.3,32.7c-0.7,2.1-1.8,2.9-4,2.9c-15.5-0.1-31-0.1-46.5,0c-5.1,0-3.3-3.1-2.5-5.4
		c3.7-10,7.2-20,10.9-30c8-21.7,15.9-43.4,23.9-65.1c6.2-16.8,12.3-33.7,18.5-50.6c10.3-28.5,20.8-56.9,31.1-85.4
		c1.2-3.3,3.1-4.3,6.3-4.3c16.2,0.1,32.4,0.1,48.5,0c4.1,0,5.6,1.4,5.5,5.5c-0.1,18.3-1.1,36.6-1.9,54.9
		c-0.5,12.3-0.5,24.6-1.2,36.9C269.2,147.1,268.8,148.6,270.3,149.5z"/>
	<path class="st3" d="M429.3,47.6c-4.9,13.3-9.5,25.8-14.2,38.2c-25,66.4-50,132.8-74.8,199.3c-1.4,3.8-3.2,5.3-7.4,5.2
		c-15.2-0.3-30.3-0.1-45.5-0.1c-5.8,0-5.8,0-3.7-5.5c27.4-73.5,54.8-147,82.1-220.5c1.7-4.7,3.6-9.3,5.2-14c0.6-1.8,1.5-2.6,3.6-2.6
		C392.5,47.6,410.5,47.6,429.3,47.6z"/>
	<path class="st3" d="M469.5,118.6c-1.2-4.3,1.4-7.8,2.7-11.5c6.2-17.9,12.7-35.7,19.1-53.5c1.1-2.9,0.7-4.1-2.8-4.1
		c-15.2,0.2-30.3,0.1-45.5,0c-2.8,0-4.1,1-5,3.7c-7.1,19.7-14.4,39.3-21.6,59c-11.5,31.5-23,63-34.5,94.6
		c-7.5,20.8-15,41.6-22.5,62.4c-1.7,4.7-3.3,9.4-5.2,14c-1.1,2.7-0.5,3.7,2.3,3.7c15.3,0,30.7,0,46,0c2.4,0,3.7-1.2,4.5-3.2
		c10.4-26.4,20.8-52.9,31.1-79.3c0.8-2.2,1.6-4.4,2.4-6.5c0.3-0.9,0.7-2.1,2-0.8c-8.8,22.6-17.5,45.2-26.3,67.8
		c-2.7,7-5.6,13.9-8.2,20.9c-0.9,2.5-2.2,3.2-4.8,3.2c-16.5-0.1-33-0.1-49.5,0c-3.1,0-3.5-0.6-2.4-3.6c28.5-78,57-156.1,85.4-234.2
		c0.7-1.9,1.1-3.6,3.9-3.5c18,0.2,36,0.1,53.9,0.1c0.5,2-0.2,3.5-0.8,5c-7.4,20.5-14.8,41-22.2,61.5
		C471,115.6,470.2,117.1,469.5,118.6z"/>
	<path class="st3" d="M520.3,291.7c0.2,0,0.3,0,0.5,0.1c0.4,0.2,1,0.6,0.4,0.8c-4.8,1.4-9.6,2.8-14.4,4.1
		c-39.5,10.9-79,21.7-118.5,32.5c-36.1,9.9-72.3,19.7-108.4,29.6c-17,4.6-33.8,9.7-50.8,14.1c-19.2,5-38.9,7-58.7,5.8
		c-8.4-0.5-16.8-2.1-24.7-5.2c-0.5-0.2-4.1-0.7-0.3-1.9c33.3,10.2,65.9,4.6,98.4-4.4c53.6-14.9,107.2-29.6,160.8-44.4
		c37.9-10.4,75.8-20.8,113.7-31.2C519,291.1,519.7,291.1,520.3,291.7z"/>
	<path class="st3" d="M220.3,187.7c1.8,4.7,1.4,9.7,0.6,14.2c-1.3,7.6-0.8,15.2-1.5,22.8c-1.4,14.3-1.2,28.8-2.4,43.2
		c-0.5,5.6-0.6,11.3-0.9,16.9c-0.1,3.1,1.1,4,4.1,4c16.5-0.1,33-0.2,49.5,0c3.6,0,4.4-2.1,5.3-4.7c10.8-30.5,21.5-61.1,32.4-91.6
		c14.4-40.4,28.9-80.7,43.4-121c0.2-0.6,0.3-1.3,0.5-1.9c2-0.1,1.8,1.5,2,2.7c0,0.5-0.1,1-0.2,1.5c-2.6,8.4-5.7,16.5-8.7,24.8
		c-0.7,2.1-1.8,4-2.3,6.2c-2.7,8.3-6.2,16.3-8.5,24.8c-2.2,2.7-2.3,6.2-3.6,9.2c-2,4.3-3.2,8.8-4.8,13.3
		c-7.1,18.8-13.5,37.9-21,56.5c-9.3,25.6-18.7,51.3-27.9,77c-1.2,3.2-2.4,4.7-6.2,4.6c-17.3-0.3-34.7-0.2-52,0
		c-3.8,0-4.7-0.8-4.4-4.7c2-30.6,3.8-61.2,5.6-91.8C220.5,191.9,218.6,189.5,220.3,187.7z"/>
	<path class="st4" d="M889.9,197.7c-2.2-2.9-5.1-2.2-8-1.6c-22.8,4.3-45.3,9.6-67.6,16.2c-30.8,9.1-61.8,17.7-92.7,26.6
		c-28.7,8.2-57.4,16.5-86,24.7c-0.6,0.2-1.3,0.1-2.6,0.2c1.2-0.9,1.9-1.4,2.6-1.9c19.6-5.7,39.3-11.4,58.9-17
		c47.5-13.6,94.9-27.3,142.4-40.7c16-4.5,32.4-7.5,48.8-10.4c1.1-0.2,2.3-0.3,3.5-0.3c1.8,0.1,4.4-0.6,4.8,1.5
		C894.2,197.1,891.5,197.2,889.9,197.7z"/>
	<path class="st4" d="M270.3,149.5c-0.2,1-0.2,2-2.1,2.6c0-3.8-0.6-7.5,0.1-10.9c1.4-7.3,0.6-14.6,0.9-21.9
		c0.7-21.4,2.1-42.8,2.1-64.2c0-4.4-1.2-5.6-5.6-5.6c-15.7,0.3-31.3,0.2-47,0c-3.3,0-5,0.8-6.2,4.2c-6,16.9-12.2,33.7-18.4,50.6
		c-4.2,11.5-8.6,22.9-13,34.4c-0.4-0.2-0.7-0.5-0.9-1c8.1-22.3,16.1-44.7,24.2-67c2.4-6.7,5.1-13.4,7.3-20.1c0.8-2.3,1.9-3,4.3-3
		c17.8,0.1,35.7,0.2,53.5,0c3.7,0,4.3,1.1,4.2,4.6c-1.2,31.6-2.3,63.3-3.4,94.9C270.3,147.8,270.3,148.6,270.3,149.5z"/>
	<path class="st5" d="M180.3,137.6c0.3,0.3,0.6,0.7,0.9,1c-1.6,7.5-4.9,14.4-7.4,21.6c-9.9,27.7-20.1,55.2-30.2,82.8
		c-5,13.6-9.8,27.2-14.9,40.7c-1.4,3.8-1.1,5.2,3.5,5.1c14-0.3,28-0.2,42,0c3.3,0,4.9-0.8,6.1-4.1c4.5-12.5,9.4-24.8,14.3-37.2
		c0.1-0.2,0.1-3.7,1.8-0.6c-5,13.5-10.1,26.9-15.1,40.4c-0.8,2.3-2,3-4.4,3c-16.2-0.1-32.4-0.1-48.5,0c-3.8,0-3.9-0.9-2.7-4.1
		c18-49,36-98.1,53.9-147.2C179.6,138.4,180,138.1,180.3,137.6z"/>
	<path class="st6" d="M352.2,72.3c0-1,0.2-2.1-0.9-2.7c2-5.4,4-10.9,6.2-16.3c1-2.5,0.8-3.8-2.2-3.8c-14.3,0-28.6,0-42.9,0
		c-2.3,0-3.2,1.2-3.9,3c-7.7,21.2-15.4,42.4-23.1,63.6c-3.7,10.3-7.5,20.6-11.3,30.8c-0.2,0.6-0.6,3.5-1.9,0.4
		c3.9-13.2,9.3-26,14-39c6.8-18.8,13.8-37.5,20.5-56.3c1.3-3.5,3-4.7,6.8-4.7c15.7,0.3,31.3,0.1,47,0.1c0.7,0.8,0.5,1.8,0.8,2.7
		c0,1.4-0.6,2.8-1,4.1c-0.6,1.4-1.3,2.8-1.6,4.4c-0.4,2-1.6,3.7-1.8,5.8c-0.6,1.7-1,3.4-1.5,5.1C354.7,71,354.6,73,352.2,72.3z"/>
	<path d="M697.6,49.6c-54.1,0-108.3,0-162.4,0c-1.9,0-4,0.7-5.7-0.9c1.1-1.9,3-1,4.5-1c54-0.1,108-0.1,162,0c1.5,0,4.3-1.8,4.5,1.9
		c-0.2,0.9-0.8,1.3-1.7,1.3C698.2,50.6,698,50,697.6,49.6z"/>
	<path class="st7" d="M697.6,49.6c0.4,0.4,0.7,0.8,1.1,1.1c1.8,3.5-0.1,6.7-1.1,9.9c-1.6,5.5-4,10.7-6,16c-0.1,0.2-0.1,0.3-0.2,0.5
		c-1.7,3.7-1.4,9.3-4.7,11.1c-3.2,1.7-8.1,0.5-12.2,0.5c-13.5,0-26.9,0.1-40.4-0.1c-3,0-4.3,0.8-5.3,3.7
		c-4.9,14.6-10,29.1-15.1,43.7c-0.3,0.9-0.8,1.8-1.2,2.7c-1.4-1.1-0.6-2.4-0.2-3.6c1.8-4.6,3.1-9.5,4.1-14.1
		c1.6-7,6.2-12.9,6.6-20.5c0.2-3.8,3.1-8.5,5.7-12.2c1.5-2.1,3.9-5.5,7.7-2.1c0.9,0.8,2.9,0.5,4.3,0.5c12.7,0,25.3,0,38,0
		c6.7,0,10.9-3.8,10.4-10.3c-0.2-2.6,0.3-4.1,1.8-5.7c0.4-0.5,0.9-1.1,1-1.7C692.9,62.2,696.1,56.1,697.6,49.6z"/>
	<path class="st6" d="M444.2,208c0-3.8,0-7.6,0-11.3c1.5,6.1,1.8,12.2,1.9,18.3c0.3,13.3,1.3,26.6,1.5,39.9
		c0.2,9.1,0.6,18.2,0.8,27.4c0.1,4,1.7,5.7,6.2,5.7c21.5-0.2,43-0.1,64.5,0c1.1,0,4.4-1.9,3.3,2.1c-2.9,1.1-5.9,0.3-8.9,0.3
		c-13.7-0.1-27.4,0.6-41.1-0.3c-7.1-0.1-14.3-0.3-21.4-0.2c-2.5,0-3.9-0.4-4-3.4C446.1,260.2,445.1,234.1,444.2,208z"/>
	<path class="st7" d="M30.9,329.7c1.7,2.3,0.7,5.5-0.2,6.9c-4.6,6.9-6.2,14.7-9.2,22.1c-3.8,9.4-6.5,18.9-8.7,28.7
		c-3.4,15.4-4.6,31.1-3.6,46.8c0.4,5.1,0.8,10.3,3.1,15.4c1.4,3.2,2.5,7.4,0.9,11.3c-1.1-0.3-1.8-1.1-2.1-2.2
		c-1.1-3.6-2.6-7-3.3-10.7c-1.6-11-2.5-22-2-33.1c0-0.6,0-1.1,0-1.7c0-1.4,0.1-2.8,0.4-4.2c0.7-2.1,0.6-4.2,0.6-6.3
		c0-2.2-0.1-4.3,0.4-6.5c0.8-4.2,2.1-8.2,3.1-12.3c1.7-7.1,3.9-14,6-21c1.2-5,3.9-9.4,5.9-14.1C24.9,342.4,27.9,336.1,30.9,329.7z"
		/>
	<path class="st8" d="M103.2,332.5c-2.1,1.5-2.1-0.7-2.5-1.6c-4.5-9.3-7.3-19.2-8.7-29.4c-3.5-25.5,2.2-49.7,10.8-73.4
		c0.7-1.9,1.2-3.7-1.9-3.6c1.6-2.6,3.3-5.1,5.9-6.9c1-0.3,1.4,0.3,1.7,1.1c-1,6-4,11.4-5.7,17.3c-1.9,6.6-4.2,13-6,19.6
		C90.6,282,91.3,307.7,103.2,332.5z"/>
	<path class="st9" d="M712.1,60.2c0.3-7,6.1-12.4,13.2-12.2c7.3,0.2,12.7,6,12.4,13.3c-0.3,7.1-6.4,12.6-13.6,12.2
		C717.2,73.1,711.8,67.1,712.1,60.2z"/>
	<path class="st10" d="M151.4,332.5c7.7-0.1,13.7,5.8,13.8,13.4c0,7.5-6.1,13.7-13.6,13.7c-7.5,0-13.4-6.1-13.5-13.8
		C137.9,338.3,143.6,332.6,151.4,332.5z"/>
	<path class="st11" d="M343.3,98.6c2.5-8.5,5.6-16.8,8.9-25.1c1.3-0.7,2.1,0.2,3,1c-6.3,17.2-12.5,34.3-18.9,51.5
		c-0.6,1.7-0.4,4.1-2.9,4.8c-0.5-0.4-0.5-0.9-0.2-1.4c-0.3-0.7-1-1.6-0.8-2.2c2.9-7.6,5.8-15.2,8.8-22.8
		C342.6,102.8,343.3,100.8,343.3,98.6z"/>
	<path class="st12" d="M304.2,208.7c3.4-12.5,8.4-24.3,12.6-36.5c2.3-6.9,5-13.7,7.5-20.5c1.1-0.5,1.5,0.2,1.9,1
		c-6.7,18.1-13.5,36.3-20.3,54.4C305.6,207.7,304.8,208.1,304.2,208.7z"/>
	<path class="st13" d="M83,508.1c17.2,3.5,34.6,3.5,52.1,2.9c-2.8,1.9-6.2,1.5-9.1,1.6c-15,0.8-30.1,1.5-44.9-2.6
		C80.4,508,82.5,508.8,83,508.1z"/>
	<path class="st14" d="M97,255.7c1.3-10.1,5.1-19.6,8.1-29.2c0.8-2.6,2.1-5.1,3.1-7.6c0.2-1.4,0.7-2.6,1.9-3.4
		c-0.6-2.6,1.8-3.3,2.9-4.8c1-0.2,1.5,0.1,1.2,1.2c-6.5,14-12.2,28.4-16.6,43.2C97.6,255.3,97.2,255.5,97,255.7z"/>
	<path class="st15" d="M6.9,413.9c-0.6,11.8,1,23.4,2,35c-0.9,1.3,0.3,2.3,0.5,3.5c0.3,1.2,0.6,2.6-1.5,2.5c-2.1-4.1-3.3-8.5-3.9-13
		c1.7-2.3,0.6-4.7,0.4-7.1c-0.2-1.8-0.7-3.5-0.2-5.3c1.1-4.4,0.1-8.9,0.7-13.3C5.1,415.1,5.3,413.9,6.9,413.9z"/>
	<path class="st16" d="M355.1,74.5c-1-0.3-2-0.7-3-1c0-0.4,0-0.8,0-1.2c2.4-2.4,1.2-6.4,3.9-8.7c0.3-1.7,2.2-3,1.3-5
		c0.1-1.6,0.6-3.1,1.6-4.4c1.8-0.7,1.4-2.3,1.3-3.7c0-1-0.1-2-0.1-3c1.3,1,2.7,2,4,3c-0.7,1.7-0.7,3.6-1.9,5.1
		C360.2,62,356.7,67.9,355.1,74.5z"/>
	<path class="st17" d="M691.6,76.6c2.3-7.8,4.7-15.6,7-23.5c0.2-0.8,0-1.6,0-2.4c0.6-0.4,1.2-0.8,1.8-1.2c1.4,0,2.3,0.4,1.7,2.1
		C698.8,60,696.5,68.9,691.6,76.6z"/>
	<path class="st18" d="M5,429.8c0.3,2.3,0.8,4.6,1,6.9c0.2,2,0.4,4.1-2,5.2c0-0.9-0.1-1.8-0.1-2.7c-1-2,0.4-4.4-1-6.3l0,0.1
		c-0.3-0.5-0.4-1-0.1-1.5c0.3-5.4,0.3-10.7,0-16.1c-0.2-0.5-0.2-1,0.1-1.5l0,0.1c1.5-2.6-0.2-5.6,1-8.3c0-0.9,0.1-1.8,0.1-2.7
		c0.8-1.7,1.7-3.4,1.5-5.4c0.1-1,0.1-2,1.6-1.7c1,5.5-0.9,10.9-0.9,16.3c-0.5,1.5-0.9,3.1-0.7,4.8C5.2,421.2,6,425.5,5,429.8z"/>
	<path class="st19" d="M16.9,362.8c-2,7-3.9,14.1-5.9,21.1c-1,0-1.8-0.3-2.3-1.2c1.1-6.6,3.8-12.7,6.2-18.9
		C15.6,363.3,15.8,362.2,16.9,362.8z"/>
	<path class="st20" d="M44.1,493.9c8,3.4,16,6.8,23.9,10.2c0.4,1-0.1,1.6-1,2c-7.7-2-14.4-6.2-21.4-9.9
		C44.7,495.6,44,495,44.1,493.9z"/>
	<path class="st21" d="M472.3,289.9c16.7,0,33.3,0.1,50,0.1c-0.7,0.6-1.3,1.2-2,1.8c-0.7,0-1.3-0.1-2-0.1c-1.3-1.6-3.1-0.8-4.7-0.8
		c-12.3-0.1-24.7-0.2-37-0.2C475.2,290.6,473.6,290.9,472.3,289.9z"/>
	<path class="st22" d="M8.8,382.7c0.9,0.1,1.8,0.2,2.3,1.2c-0.3,4.1-1.5,8.1-2.9,12c-0.4,0.5-0.8,0.5-1.2-0.1c-0.8,0.4-1,1.2-1,2
		c-0.3,0.5-0.6,0.5-0.9,0C5.7,392.6,6.5,387.5,8.8,382.7z"/>
	<path class="st23" d="M326.2,152.6c-0.6-0.3-1.2-0.6-1.9-1c1.4-4.5,2.4-9.2,4.8-13.4c1.1,0.5,1.7,1.2,1.2,2.5
		C329.8,145,327.7,148.7,326.2,152.6z"/>
	<path class="st23" d="M67,506c0.3-0.7,0.7-1.3,1-2c4.4,1.2,8.9,2.5,13.3,3.7c-0.8,1.3-1.9,2.1-3.5,1.3
		C74.1,508.4,70.5,507.4,67,506z"/>
	<path class="st17" d="M330.3,140.7c-0.4-0.8-0.8-1.6-1.2-2.5c1.2-3,0.9-6.8,4.1-8.9c0.1,0.5,0.1,1,0.2,1.4
		C333.7,134.5,332,137.6,330.3,140.7z"/>
	<path class="st24" d="M16.9,362.8c-0.7,0.3-1.3,0.7-2,1c1.6-5.3,3.3-10.6,7-15C21.6,353.9,17.5,357.7,16.9,362.8z"/>
	<path class="st11" d="M7.9,454.9c2.7-1.6-1.4-4.3,0.9-6c1.3,3.3,2.7,6.4,3.1,10c-0.4,0.7-0.8,1.5-1.9,1
		C9.1,458.3,8.1,456.8,7.9,454.9z"/>
	<path class="st15" d="M2.9,413.8c0,0.4,0.1,0.8,0.1,1.2c0.7,5.6,0.6,11.1,0,16.7c-0.1,0.4-0.1,0.8-0.2,1.2
		C1.6,426.6,1.6,420.2,2.9,413.8z"/>
	<path class="st25" d="M10.1,459.9c0.6-0.3,1.3-0.6,1.9-1c0.4,0.7,0.8,1.3,1.1,2c0.4,1.6,0.7,3.3,1.1,4.9
		C11.8,464.5,10.7,462.4,10.1,459.9z"/>
	<path class="st15" d="M3.9,405.6c-0.3,2.8,1.2,5.7-1,8.3C3,411.1,2.5,408.2,3.9,405.6z"/>
	<path class="st26" d="M220.3,187.7c-0.2,2.1,0,4.2-1,6.1c-0.8-1.2,0.4-2.9-1-3.9C218.5,188.7,218.4,187.3,220.3,187.7z"/>
	<path class="st15" d="M5.1,397.8c0.3,0,0.6,0,0.9,0c0.1,2-0.4,3.7-2,5C4.4,401.2,4.7,399.5,5.1,397.8z"/>
	<path class="st27" d="M362.4,55.6c0.2-1.8,0.6-3.6,1.9-5.1C364.4,52.5,364.5,54.5,362.4,55.6z"/>
	<path class="st28" d="M114.3,211.9c-0.4-0.4-0.8-0.8-1.2-1.2c0.5-1,1.2-1.9,2.6-2.5C116.2,209.8,114.9,210.7,114.3,211.9z"/>
	<path class="st15" d="M2.9,432.9c2,1.8,0.8,4.2,1,6.3C2.6,437.2,2.9,435,2.9,432.9z"/>
	<path class="st29" d="M77.9,509c1.2-0.4,2.3-0.9,3.5-1.3c0.6,0.1,1.1,0.2,1.7,0.3c-0.7,0.6-1.3,1.3-2,1.9
		C79.9,510,78.8,509.9,77.9,509z"/>
	<path class="st30" d="M110.1,215.5c-0.6,1.1-1.3,2.3-1.9,3.4c-0.4-0.4-0.8-0.9-1.3-1.3C107.6,216.4,108.4,215.1,110.1,215.5z"/>
	<path class="st31" d="M506.3,270.6c-0.6,0.8-1.3,1.5-1.9,2.3c-0.9,0.1-1.1-0.4-1.1-1.2c0.2-6.8-0.8-13.6-0.7-20.4
		c0.1-13.1-1.2-26.2-1.3-39.4c-0.2-20.3-2-40.5-2-60.7c0-4.3,1.3-7.4,5.2-9.3c19.5-20.5,38.9-41.1,58.4-61.6
		c7.4-7.8,14.8-15.7,23-23.1c-4.8,13.2-9.6,26.4-14.3,39.5c-1.2,7.4-4.7,14.1-7.3,21.1c-17.5,46.7-34.9,93.4-52.6,140
		C510,262,509,266.7,506.3,270.6z"/>
	<path class="st6" d="M506.3,270.6c2.8-10.1,7-19.6,10.7-29.3c17.4-46.9,35-93.8,52.5-140.7c0.5-1.4,1.3-2.6,2-3.9
		c1.9,3.3-0.6,6.1-1.6,8.8c-12.4,33.3-25,66.5-37.5,99.8c-8.1,21.6-16.2,43.2-24.2,64.8c-0.2,0.6-0.5,1.5-0.9,1.7
		C506.3,272.1,506.5,271,506.3,270.6z"/>
	<path class="st8" d="M504.5,141.8c-4,3.4-4.5,7.7-4.3,12.8c1.5,35.4,2.7,70.8,3.9,106.1c0.1,4,0.2,8,0.3,12c-2.8,1-1.9-1.3-2-2.3
		c-0.2-6.6-0.7-13.3-0.8-19.9c-0.1-13.5-1.3-26.9-1.3-40.4c0-20.1-2.2-40.1-1.9-60.2C498.4,145.7,499.9,142.7,504.5,141.8z"/>
	<path class="st1" d="M310,288.8c-7.2,0-14.3-0.2-21.5,0.1c-3.6,0.1-4.4-0.9-3.1-4.3c7.5-19.9,14.9-39.8,22.3-59.7
		c8.4-22.6,16.8-45.1,25.3-67.7c12.3-32.8,24.4-65.7,36.8-98.5c3.5-9.2,3.7-9.1,13.4-9.1c13,0,26,0.1,39-0.1c3.5,0,4.2,0.5,2.8,4.2
		c-17.4,46-34.5,92.1-51.8,138.1c-11.6,30.8-23.3,61.5-34.7,92.3c-1.3,3.6-3.2,4.9-6.9,4.7C324.3,288.6,317.1,288.8,310,288.8z"/>
	<path class="st32" d="M343.3,98.6c0.8,2.5,0.5,4.6-2.1,5.9C341.5,102.4,342.2,100.4,343.3,98.6z"/>
	<path class="st33" d="M357.5,58.6c1.8,2.3,0,3.6-1.3,5C355.4,61.7,357,60.3,357.5,58.6z"/>
	<path class="st34" d="M360.4,50.6c1.2,2.5,0.8,3.6-1.3,3.7C359.5,53,359.9,51.8,360.4,50.6z"/>
	<path class="st35" d="M7,395.8c0.4,0,0.8,0,1.2,0.1c-0.4,2.3,0.7,4.7-0.3,7c-0.9,2.1,0.1,4.3-0.7,6.4c-0.1,1.2-0.1,2.4-0.2,3.6
		c-0.9,0.2-1.4,0-0.9-1C4.1,406.4,7.5,401.2,7,395.8z"/>
	<path class="st15" d="M7.1,409.3c0.1-2.1-0.8-4.4,0.7-6.4C7.9,405,7.9,407.2,7.1,409.3z"/>
	<path class="st36" d="M6,411.9c0.3,0.3,0.6,0.7,0.9,1c0,0.3,0,0.7,0,1c-0.3,0.7-0.6,1.3-0.9,2c-0.3,0.4-0.7,0.4-1,0
		C5.1,414.5,4.5,412.9,6,411.9z"/>
	<path class="st37" d="M731.7,53.5c4.2,4.8,4.4,8.5,0.7,13.9c-1,1.1-2.4,1.4-3.8,1.6c-2.5-2-5-1.8-7.5-0.1c-1.1-0.5-1.2-1.4-1-2.4
		c1.4-1.8,0.9-4.2,2.1-6c0.8-0.8,1.7-0.9,2.8-0.9c0.5,0,1,0.2,1.4,0.4c0.9,0.5,1.3,1.4,1.8,2.2c0.1,0,0.2,0.3,0.2,0.2
		c-0.1-0.4-0.3-0.8-0.5-1.3c0.4-2.3,1.5-4.4,1.9-6.8C730.3,53.7,730.8,53.1,731.7,53.5z"/>
	<path class="st38" d="M720.6,66.4c0,0.9-0.1,1.8,1,2.2c2.4-0.9,4.7-0.9,7.1,0c1.2-0.4,2.5-0.8,3.7-1.2c-4.2,4.3-9.3,4.9-13.7,1.6
		c-4.4-3.3-5.2-8.5-2.2-13.5c0.4,0.3,0.7,0.7,0.9,1.2c0.6,1.7,0.5,3.6,0.7,5.7c0.4-3.6-0.5-7,1.4-9.9c0.4-0.3,0.7-0.5,1.1-0.8
		c2.6,0.5,5.3-0.5,7.9,0.7c0.4,0.4,0.4,0.9,0.1,1.4c-0.6,0.6-1.4,1-2.2,0.9c-4.1-0.4-4.9,2-4.8,5.3
		C721.2,62.1,722.2,64.5,720.6,66.4z"/>
	<path class="st39" d="M719.6,52.4c0,4.4,0,8.9,0,13.8c-4.6-3-2.4-7.3-3.1-10.8C717.2,54.2,718.1,53,719.6,52.4z"/>
	<path class="st40" d="M728.6,52.8c-2.6-0.9-5.5,0.7-7.9-1.2c2.6-0.9,5.3-1.1,7.9-0.1C728.9,52,728.9,52.4,728.6,52.8z"/>
	<path class="st41" d="M728.6,52.8c0-0.4,0-0.9,0-1.3c1.4,0,2.4,0.8,3.1,1.9c-0.4,0.4-0.8,0.8-1.2,1.2c-0.3,0.3-0.7,0.3-1,0.2
		c-0.5-0.3-0.8-0.8-0.9-1.4C728.6,53.3,728.6,53.1,728.6,52.8z"/>
	<path class="st42" d="M144.1,337.7c3.3-2.7,7.2-2.3,11-1.7c1.6,1,3.6,1.7,3.2,4.2c-0.5,0.6-1.1,1-1.9,1c-1.2-0.1-2.1-0.8-3.3-1
		c-4.7-0.7-5.5-0.1-5.6,4.6c-0.1,1.9,0.2,3.9-0.8,5.8c-0.3,0.4-0.8,0.7-1.3,0.7c-0.9-0.1-1.4-0.6-1.6-1.4c0-3.3,0.4-6.7-0.3-10
		C143.4,339.1,143.6,338.4,144.1,337.7z"/>
	<path class="st43" d="M144.1,337.7c0,0.7,0.1,1.4,0.1,2.1c0.3,3.3-0.2,6.6,0,9.9c0.3,0.4,0.6,0.8,0.9,1.2c0.4,1.2,0.6,2.3,0.4,3.6
		c-0.1,0.1-0.3,0.3-0.4,0.4C138.9,349.6,138.6,343.1,144.1,337.7z"/>
	<path class="st44" d="M158.2,354.8c-4.9,3.4-8.3,3.4-13.1,0.1c0,0,0.1-0.2,0.1-0.2c3.8-1.7,7.9,0.2,11.7-0.8
		C157.4,354.1,157.9,354.4,158.2,354.8z"/>
	<path class="st45" d="M158.1,339.8c-1-1.3-2-2.5-3-3.8c3.8,0.7,6,3.1,6.9,6.8c-0.4,0.8-0.9,1.5-1.9,1.2c-0.7-0.5-1.1-1.2-1.6-1.9
		C158.1,341.4,157.5,340.7,158.1,339.8z"/>
	<path class="st45" d="M161.9,349.7c-0.1,1.3-0.7,2.4-1.8,3.2c-1.4-0.5-1.8-1.6-1.9-2.9c0-0.5,0.1-1,0.2-1.5c0.5-1.4,0.5-3,1.9-4
		C163.5,345.5,160.9,348.2,161.9,349.7z"/>
	<path class="st46" d="M161.9,349.7c-1.6-1.3,0-3.6-1.7-4.9c-0.2-0.2-0.3-0.5-0.3-0.7c0.1-0.3,0.2-0.4,0.2-0.4
		c0.6-0.3,1.2-0.6,1.7-0.9C163,345.1,162.9,347.4,161.9,349.7z"/>
	<path class="st19" d="M159.1,349.7c0.4,1.1,0.7,2.1,1.1,3.2c-0.4,0.9-1,1.6-2,1.9c-0.4,0-0.7,0-1.1,0c-0.3-0.3-0.6-0.7-0.8-1
		c-0.1-0.4-0.2-0.9-0.2-1.3c0-0.7,0.2-1.3,0.6-1.9C157.4,349.9,158.1,349.3,159.1,349.7z"/>
	<path class="st12" d="M5,415.9c0.3,0,0.6,0,1,0c-0.5,4.6,1.1,9.4-1,14C5,425.2,5,420.5,5,415.9z"/>
	<path class="st47" d="M3.1,431.7c0-5.6,0-11.2,0-16.7C4.6,420.6,4.6,426.1,3.1,431.7z"/>
	<path class="st48" d="M728.6,53.5c0.3,0.3,0.7,0.7,1,1c0.5,0.9-0.1,1.2-0.8,1.4c-1.8,0.3-3.8-1-5.4,0.8c-0.2,0.6-0.1,1.1,0.3,1.5
		c0.7,0.7,2.1,0.8,1.8,2.2c-0.9,0.1-1.8,0.2-2.7,0.3c-1.3,0.5-1.6-0.3-2-1.2C720.6,53.7,720.6,53.7,728.6,53.5z"/>
	<path class="st49" d="M728.6,68.6c-2.4,0.4-4.7,0.4-7.1,0c1.4-1.1,2.2-2.6,2.3-3.6C725.3,66.1,727,67.4,728.6,68.6z"/>
	<path class="st50" d="M729,55.6c0.2-0.4,0.4-0.7,0.7-1.1c0.3,0,0.6,0.1,0.9,0.2c1.5,3-1.4,4.7-2,7.1c0.1,0.5-0.1,0.8-0.7,0.8
		c-0.4-0.7-0.7-1.4-1.1-2c-0.1-0.8,0.1-1.6,0.4-2.3c0.3-0.8,0.5-1.5,0.9-2.2C728.2,55.6,728.5,55.5,729,55.6z"/>
	<path class="st51" d="M720.8,59.5c0.7,0.4,1.3,0.8,2,1.2c-1,1.8,2,5.1-2.2,5.7C720.7,64.1,720.7,61.8,720.8,59.5z"/>
	<path class="st9" d="M727.8,62.6c0.2-0.3,0.5-0.5,0.7-0.8c1.8,0.7,2,2.6,3.8,4.2C728.9,66.1,728.3,64.4,727.8,62.6z"/>
	<path class="st51" d="M727.6,58.7c0,0.7-0.1,1.5-0.9,1.9c-0.4,0-0.8-0.1-1.2-0.1c-0.7-1.1-2.4-0.3-3-1.6c1-1.3,2.3-1.4,3.8-1.1
		C726.8,57.9,727.3,58.2,727.6,58.7z"/>
	<path class="st52" d="M145.8,350.7c0.1-1.8,0-3.6,0.2-5.4c0.3-2.3-1.4-5.9,1.1-6.5c3.2-0.8,7.3-1.5,9.9,2.2
		c1.6,1.9,0.6,3.1-1.1,4.1c-0.8,0.1-1.2-0.5-1.8-0.9c-0.6-0.9-0.4-2.1-1.5-2.7c-1.4-0.5-2.8-0.7-3.9,0.7c1.3,2.2,3.9,0.8,5.3,2.2
		c0.9,0.8,0.4,1.7,0,2.6c-1.4,1.9-3.2,0.9-4.9,0.9c-1.7,0.9-0.4,3.3-2.1,4.1C146.2,351.9,145.7,351.6,145.8,350.7z"/>
	<path class="st53" d="M153.4,346.8c0.3-0.7,0.5-1.3,0.8-2c0.2-0.4,0.6-0.5,0.9-0.2c2.3-0.3,1.7-2.2,1.9-3.6
		c0.4-0.4,0.8-0.8,1.1-1.2c0.4,0.6,0.8,1.2,1.1,1.8c0.5,2.4,0.7,4.8-0.1,7.2c0,0.3-0.1,0.6-0.1,0.9c-0.6,0.3-1.2,0.7-1.8,1
		c-1.3,0-2.3-0.8-3.3-1.6C153.3,348.5,153.6,347.6,153.4,346.8z"/>
	<path class="st36" d="M145.8,350.7c0.2,0.6,0.4,1.3,1.3,1.1c0.4-0.2,0.8-0.1,1.1,0.2c2.7,1.8,6.4-0.7,8.9,1.8c0,0.3,0,0.7,0,1
		c-4,1.4-8,0.5-12-0.1c-0.1-1.3-1-2.5-0.1-3.8C145.3,350.8,145.6,350.7,145.8,350.7z"/>
	<path class="st54" d="M144.2,349.7c-1.8-3.3-1.1-6.6,0-9.9C145.7,343.1,145.6,346.4,144.2,349.7z"/>
	<path class="st42" d="M159.1,348.8c0-2.4,0.1-4.8,0.1-7.2c0.3,0.7,0.7,1.4,1,2.1c0,0.4,0,0.8,0,1.1
		C160,346.2,160.5,347.8,159.1,348.8z"/>
	<path class="st55" d="M157.1,353.8c-2.9,0-5.9,0-8.8-0.1c-2.8-0.1-0.1-1.4-0.4-2.1c0.1-0.2,0.1-0.4,0.2-0.6c0.5-1,0.5-2.1-0.2-3
		c-0.2-0.4-0.1-0.8,0.2-1.1c1.7-0.7,3.5,1.2,5.3-0.1c0.7,0.3,1,0.9,0.7,1.6c1.1,1.4,1.9,2.9,3,4.3
		C157.1,353,157.1,353.4,157.1,353.8z"/>
	<path class="st56" d="M157.1,352.7c-2.9-0.1-2.9-2.2-3-4.3c1.7-0.1,2.2,1.4,3.2,2.4C157.2,351.4,157.1,352,157.1,352.7z"/>
	<path class="st57" d="M726.6,58.6c-1.4,0.1-2.7,0.1-4.1,0.2c-1.7-0.9,0.3-1.4,0.2-2.1c0.6-0.7,1.3-0.9,2.2-0.9
		C726.4,56.1,727.6,56.7,726.6,58.6z"/>
	<path class="st58" d="M724.5,56.4c-0.6,0.1-1.2,0.1-1.8,0.2c0-0.7-1.9-1.8,0.1-2c2-0.1,4.3-0.8,6.1,0.9c-0.2,0-0.5,0-0.7-0.1
		C727.3,57,725.6,55.5,724.5,56.4z"/>
	<path class="st59" d="M724.5,56.4c1-1.2,2.5-0.7,3.7-0.9c0.9,1.3,0.4,2.3-0.7,3.1c-0.3,0-0.7-0.1-1-0.1
		C726.6,57.2,725.8,56.6,724.5,56.4z"/>
	<path class="st60" d="M154.1,340.9c0.7,0.9,0.6,1.9,0.1,2.9c-0.1,0.1-0.3,0.2-0.4,0.2c-2,0.2-4.2,1.2-5.9-0.8
		c-0.4-0.5-0.5-1.8,0.3-2.2C150,339.9,152.1,339.9,154.1,340.9z"/>
	<path class="st61" d="M154.1,340.9c-0.8-0.1-1.6-0.5-2.4-0.4c-1.3,0.2-3.3-0.9-3.4,1.5c-0.2,2.9,2.1,1.7,3.5,1.9
		c0.8,0.1,1.6-0.1,2.4-0.2c0.3,0.3,0.7,0.6,1,0.9c-0.3,0.1-0.6,0.1-0.9,0.2c-1.1,0-2.3,0-3.4,0c-1.9,0-3.7,0.1-3.6-2.7
		c0.1-2.8,2.2-2.3,3.9-2.3C152.2,339.8,153.4,339.7,154.1,340.9z"/>
	<path class="st61" d="M148.2,346.9c-0.1,0.3-0.1,0.6,0.1,0.9c0.9,1.4,0.9,2.7-0.2,3.9c0,0,0-0.1,0-0.1c-0.3,0.1-0.5,0.1-0.8,0.1
		C147.7,350.2,146,348.1,148.2,346.9z"/>
	<path class="st20" d="M148,351.7c0.1-1.3,0.2-2.6,0.2-3.9C151.4,349.3,150.2,350.6,148,351.7z"/>
</g>
</svg>
