<?xml version="1.0" encoding="utf-8"?>
<!-- Generator: Adobe Illustrator 21.1.0, SVG Export Plug-In . SVG Version: 6.00 Build 0)  -->
<svg version="1.1" id="Layer_1" xmlns="http://www.w3.org/2000/svg" xmlns:xlink="http://www.w3.org/1999/xlink" x="0px" y="0px"
	 viewBox="0 0 900 596" style="enable-background:new 0 0 900 596;" xml:space="preserve">
<style type="text/css">
	.st0{fill:#FEFEFE;}
	.st1{fill:#F8F8F8;}
	.st2{fill:#FBFBFB;}
	.st3{fill:#FCFCFC;}
	.st4{fill:#FDFDFD;}
	.st5{fill:#F9F9F9;}
	.st6{fill:#7F7F7F;}
	.st7{fill:#010101;}
	.st8{fill:#040404;}
</style>
<g>
	<path d="M900,597c-298.4,0-596.9,0-895.3,0.1c-4.2,0-4.8-1-4.8-4.9C0,396.7,0,201.3-0.1,5.8c0-3.9,0.6-4.9,4.8-4.9
		C303.1,1,601.6,1,900,1c0.9,1.7,0.5,3.6,0.5,5.4c0,195.1,0,390.1,0,585.2C900.5,593.4,900.9,595.3,900,597z"/>
	<path class="st0" d="M900,597c0-198.7,0-397.3,0-596c0.3,0.2,1-0.5,1,0.5c0,1.3,0,2.7,0,4c0,195.7,0,391.3-0.1,587
		C900.9,594,902.1,595.9,900,597z"/>
	<path class="st1" d="M638.3,288.4c0,15.5-0.1,31,0.1,46.4c0.1,3.8-1.4,4.6-4.6,4.4c-2.2-0.2-4.3-0.1-6.5,0
		c-2.8,0.1-5.4,0.3-4.9-4.1c0.3-2.4-1.7-2.4-3.4-1.3c-2.7,1.6-5.4,3.3-8.2,4.6c-11.8,5.7-22.9,4.3-33.2-3.5
		c-11-8.3-13-19.8-11.2-32.6c2.6-18.6,15.3-29,30.5-37.4c7.4-4.1,15.2-7.5,20.7-14.4c4.1-5.2,6.5-10.6,3-16.9
		c-3.3-6-9.3-6.7-15.2-6.4c-6.8,0.4-12,3.7-14.3,10.5c-2,6-2.1,12.4-2.7,18.7c-0.3,3.8-2,4.9-5.4,4.7c-1.7-0.1-3.3-0.2-5-0.1
		c-2.9,0.1-4.6-1.1-4.5-4c0.1-8.5,0.3-16.9,3.4-25c5.7-14.9,19.9-22.7,36.9-20.1c13.4,2,24.4,14.8,25.3,29.4
		C640,257.1,638.8,272.7,638.3,288.4z"/>
	<path class="st0" d="M782.9,291.5c0,14.2-0.1,28.3,0.1,42.5c0.1,3.8-0.9,5.7-5,5.3c-2.3-0.2-4.7-0.1-7,0c-2.5,0.1-4.6,0.1-4.3-3.6
		c0.3-3.3-2-3-3.9-1.6c-3.1,2.2-6.4,4.1-10,5.5c-11.6,4.8-22.3,2.4-31.8-5.1c-9.6-7.6-12.1-18.1-10.8-30c2.2-20.4,16-31.5,32.5-40.4
		c6.5-3.5,13.1-6.6,18-12.3c3.2-3.7,6.1-7.5,5.6-12.8c-0.9-9.7-12-14.6-22.5-10.2c-6.3,2.6-8.8,7.7-9.7,13.9
		c-0.6,4.4-1.1,8.9-1.4,13.4c-0.2,4.1-2.2,5.6-6.1,5.2c-1.8-0.2-3.7-0.2-5.5-0.2c-2,0-3.2-0.9-3.3-2.9c-0.3-11.9,0.1-23.7,7.3-33.9
		c7.1-10.1,22.5-15,35.4-11.5c12.4,3.4,21.1,14.2,22.6,26.9C785.2,256.9,782.9,274.2,782.9,291.5z"/>
	<path class="st0" d="M147,248.9c0-18.3,0.1-36.6-0.1-55c0-4,1-5.5,5.3-5.4c11.1,0.2,11.1,0,11.1,11.3c0,6.3-0.1,12.7,0,19
		c0,1-0.6,2.5,0.9,3c1.1,0.4,1.8-0.6,2.6-1.2c20.7-15.6,44.4-5.4,48.3,20.7c2.4,15.7,1.1,31.6,0.5,47.3c-0.3,8.5-1.2,16.9-3.3,25.1
		c-4.3,16.6-17.6,26.9-34,26.2c-15.2-0.7-28.7-13.3-31.4-29.2c-0.5-3.1-0.8-6.3-0.8-9.4c0.1-8.8,0.2-17.6,0.3-26.5
		c0-8.7,0-17.3,0-26C146.5,248.9,146.7,248.9,147,248.9z"/>
	<path class="st0" d="M65.8,278.8c0-15,0.6-26.9,3.2-38.7c3.6-16.8,16.7-27.7,33.9-28c15.5-0.3,28.9,9.7,32.7,26
		c6.1,26.2,5.6,52.5-1.8,78.3c-6.4,22.1-33.5,31.1-51.5,17.8c-9.2-6.8-12.2-17-14.2-27.6C66.1,296.5,65.6,286.2,65.8,278.8z"/>
	<path class="st0" d="M454.4,273.2c0,14.7-1.3,29.2-5.5,43.3c-8.4,28.3-43.5,28.5-55.4,14.4c-5.8-6.8-8.9-14.8-10.2-23.4
		c-3.6-22.8-3.8-45.7,1-68.4c3-14.1,12.2-22.9,26.3-26c13.5-3,28.3,2.6,35.2,13.1c4.5,6.9,5.9,15,7.3,23
		C454.3,257.2,454.2,265.2,454.4,273.2z"/>
	<path class="st2" d="M225.8,277.4c0.1-12.5-0.3-25,3.2-37.1c1.7-6.1,4.3-11.8,8.1-16.8c8.2-10.9,19.6-13.2,32.1-11
		c13.2,2.4,21.2,11,24.7,23.8c0.8,3,1.4,6.2,1.9,9.3c0.7,4.5-0.1,8.1-3.9,11.5c-14.6,12.9-28.9,26.1-43.2,39.4
		c-2.8,2.6-7.3,4.5-6.9,9.2c0.6,6.2,2.5,12.1,7.6,16.2c10.5,8.5,24.1,4.2,28.8-8.9c0.7-2,0.2-5.3,3.2-5.7c3.6-0.4,7.3-0.3,10.9,0.2
		c1.9,0.3,1.4,2.5,1.1,4.2c-2.8,15.1-15.3,27.9-27.9,28.5c-18.4,0.9-31.2-8.5-36.4-26.6C225.7,301.7,225.7,289.5,225.8,277.4z"/>
	<path class="st0" d="M679.4,295c2.8-12.8,5.7-25.7,8.5-38.5c2.8-12.6,5.5-25.3,8.2-37.9c0.8-3.8,2.8-5.9,7-5.2
		c1.8,0.3,3.7,0.2,5.5,0.3c6.2,0.3,6.7,0.8,5.2,6.7c-9.3,38.3-18.6,76.5-27.8,114.8c-1.2,5.1-5.1,4.5-8.7,4.4
		c-3.2-0.1-6.4,0.4-7.5-4.4c-8.4-38.8-17.1-77.6-25.7-116.4c-0.9-3.8,0.5-5.1,4.3-5c13.4,0.3,10.9-1.8,13.8,10.7
		c5.2,22.9,10.5,45.8,15.7,68.8c0.1,0.6,0.3,1.2,0.5,1.8C678.7,295.1,679.1,295,679.4,295z"/>
	<path class="st0" d="M489.2,274.4c0.3-13.9,0.6-27.2,4.9-40c7.1-20.8,30.2-28,45.5-20.3c14.9,7.5,18.8,22.3,18.7,35.4
		c0,0.2,0,0.4,0,0.5c-3.4,5.1-8.5,1.3-12.7,2.5c-2.2,0.6-3.6-0.7-3.7-3.3c-0.1-4.7-1.1-9.2-2.9-13.5c-2.1-5.3-5.6-9.1-11.6-9.5
		c-6.5-0.4-11.6,2.1-15.1,7.7c-3,4.9-4.5,10.5-4.9,16c-1.5,19.3-2.8,38.5,0.6,57.7c0.6,3.3,1.6,6.4,3,9.4c3.3,6.9,7.6,9.3,15.6,8.9
		c6.4-0.4,11.3-4.2,13.6-10.5c1.5-4.1,2.3-8.3,2.7-12.6c0.3-2.6,1.4-4,4.1-3.9c0.7,0,1.3,0,2,0c10.6-0.1,10.1-0.8,8.8,9.7
		c-1.7,13.9-8.1,25.1-22,30.1c-18.4,6.6-38.1-5.2-42.9-25.2C489.9,300.5,489.9,287.1,489.2,274.4z"/>
	<path class="st0" d="M351,265.2c0-22.5,0.1-45-0.1-67.5c0-4.4,0.8-6.2,5.7-6c11.4,0.3,11.4,0.1,11.4,11.5c0,0.2,0,0.3,0,0.5
		c0,9.2,0,9.5,9.2,9.2c4.3-0.2,5.7,1.3,5.1,5.3c0,0.2,0,0.3,0,0.5c0,9.7,0,10-9.6,9.8c-4.5-0.1-4.7,2.1-4.7,5.5c0.1,33,0,66,0.2,99
		c0,4.4-1.1,5.7-5.5,5.7c-11.6-0.2-11.7,0-11.7-11.4C351,306.5,351,285.9,351,265.2z"/>
	<path class="st0" d="M813,262.5c0,23.7-0.1,47.3,0.1,71c0,4.4-1.2,5.7-5.6,5.6c-10.6-0.3-10.6-0.1-10.6-10.6
		c0-45.8,0.1-91.7-0.1-137.5c0-4.1,0.9-5.4,5.2-5.3c11,0.3,11,0.1,11,11.3C813,218.8,813,240.7,813,262.5z"/>
	<path class="st0" d="M842.2,262c0,24-0.1,48,0.1,72c0,3.9-1.1,5.2-5.1,5.1c-11.2-0.1-11.2,0-11.2-11c0-45.3,0.1-90.6-0.1-135.9
		c0-4.8,0.8-6.7,6.2-6.5c10.1,0.5,10.1,0.1,10.1,10.3C842.2,218,842.2,240,842.2,262z"/>
	<path class="st0" d="M319,290.5c0,14.5-0.1,29,0.1,43.4c0,3.3-0.8,4.6-4.4,4.7c-11.7,0.1-11.7,0.2-11.7-11.3
		c0-25-0.1-49.9,0.1-74.9c0.1-11.1,2.3-21.7,10.5-30.2c6.7-7.1,14.6-10.7,24.3-10.7c2.9,0,4.3,1.2,4.2,4.2c-0.1,1.7-0.2,3.3,0,5
		c0.5,4.4-0.7,6.2-5.8,6.7c-10.6,1-17.1,8.9-17.2,19.7C318.9,261.6,319,276,319,290.5z"/>
	<path class="st0" d="M27,292.7c0-13.2-0.1-26.3,0-39.5c0.2-13.8,4.7-25.7,16.3-34.1c5.8-4.2,12.3-5.5,19.3-5.4
		c1.7,0,3.2,0.6,3.3,2.4c0.2,3.7,0.2,7.3,0,11c-0.1,1.8-1.8,1.9-3.4,2.1c-13,1.7-19.1,7.9-19.3,20.8c-0.3,28-0.3,56-0.2,84
		c0,3.4-0.6,4.6-4.3,4.6C27,338.7,27,338.8,27,327.2C27,315.7,27,304.2,27,292.7C27,292.7,27,292.7,27,292.7z"/>
	<path class="st0" d="M873.2,275.7c0,19.5-0.1,39,0.1,58.5c0,3.7-1,4.9-4.7,4.9c-11.5,0-11.5,0.1-11.5-11.2c0-36.7,0.1-73.3-0.1-110
		c0-4.4,0.8-6.2,5.7-6c10.5,0.4,10.5,0.1,10.5,10.8C873.2,240.4,873.2,258,873.2,275.7z"/>
	<path class="st3" d="M597.2,391.9c0.3-7.6-1.1-9.4-8-9.7c-6.8-0.3-13.6-0.2-20.5-0.1c-2.5,0-5,0.2-6.4,2.9
		c-1.2,2.2-3.3,0.9-4.9,1.1c-1,0.1-1.5-0.6-1.3-1.6c0.4-1.7,1.4-2.9,3.1-3.6c3.1-1.3,6.5-1.7,9.8-1.8c8.6-0.2,17.3-0.6,25.9,0.8
		c6.5,1,8.7,3.4,8.7,9.8c0,3.7-0.1,7.3,0,11c0,2,0.1,4.3-2.6,3.2c-5.3-2.1-10.2,0.8-15.4,0.4c-5.5-0.3-11,0-16.5-0.1
		c-3.1-0.1-6.3-0.1-9.4-0.6c-4.1-0.8-5.5-3.7-5.4-7.7c0-3.9,2.7-5.5,5.6-5.8c10.8-1.1,21.6-1.2,32.4-0.1
		C593.9,390.3,595.3,391.2,597.2,391.9z"/>
	<path class="st4" d="M467.4,401.2c4.4-6.1,8.7-11.6,12.4-17.4c2.2-3.4,4.7-4.9,9.2-3.6c-5.5,7.7-10.8,15.3-16.4,22.7
		c-2.2,2.9-9.7,1.5-11.5-1.7c-3.6-6.1-7.1-12.1-11-18.9c-3.9,6.7-7.5,12.8-11,18.9c-2.2,3.7-9.5,4.2-12.3,0.8
		c-0.4-0.5-0.7-1.1-1.1-1.6c-4.8-6.7-9.6-13.4-14.5-20.2c4.1-1.5,6.7-0.2,8.9,3.2c3.9,5.9,8.2,11.6,12.6,17.8
		c3.8-6.4,7.3-12.4,10.8-18.4c2.8-4.7,10.5-4.6,13.3,0.1C460.2,388.9,463.7,394.9,467.4,401.2z"/>
	<path class="st4" d="M294.2,396.8c-1.7,6.1-6.4,6.8-10.4,7.1c-9.8,0.8-19.6,0.8-29.4,0.1c-7.8-0.6-10.6-4-10.7-11.4
		c-0.1-9,1.9-11.5,10.2-12.7c9.9-1.4,19.9-1.3,29.8,0.2c4.4,0.7,8.3,2.3,9.8,7.2c1,3.5,0.6,5.1-3.6,5c-11.8-0.3-23.6-0.1-35.4,0
		c-1.5,0-4-1.3-4.5,1.4c-0.4,2.4,0.4,4.6,2.7,6c2.6,1.5,5.4,1.5,8.2,1.7c6.8,0.5,13.6,0.6,20.4-0.1c2.4-0.3,4.5-0.6,5.9-2.9
		C288.8,395.6,291.4,397.6,294.2,396.8z"/>
	<path class="st4" d="M383.1,392.1c-6.2,0-12.3,0-18.5,0c-3.6,0-4.6,1.8-2.9,4.9c1.4,2.6,3.8,3.6,6.6,3.9c7.3,0.9,14.6,0.8,21.9,0.5
		c3.2-0.2,6.6-0.2,8.8-3.6c1.1-1.8,3.4-0.6,5.1-0.8c0.8-0.1,1,0.7,0.9,1.4c-0.4,1.8-1.5,3.1-3.2,3.5c-14.1,3.5-28.3,4.2-42.2-0.1
		c-7.1-2.2-4.4-9.2-4.4-14.3c0-4.6,3.8-6.6,7.6-7.3c11.2-2.1,22.5-1.9,33.8,0c3,0.5,6,1.9,7.5,5.1c2.5,5,1.5,6.8-4,6.8
		C394.4,392.1,388.7,392.1,383.1,392.1z"/>
	<path class="st4" d="M545.2,396.8c0,4.1-2.6,5.6-5.3,6.1c-12,2.2-24.2,2.2-36.2,0.4c-7.4-1.1-9.1-4.8-8.6-13.8
		c0.3-5.9,3.1-8.6,9.9-9.7c10.3-1.5,20.6-1.5,30.9,0.2c4.6,0.7,8.7,2.5,9.4,8.1c0.4,2.8,0.3,4.1-3.3,4c-12-0.3-24-0.1-36,0
		c-1.6,0-4.1-1.2-4.6,1.5c-0.4,2.2,0.5,4.4,2.6,5.6c1.4,0.8,3,1.4,4.6,1.7c7.6,1,15.3,1,22.9,0.4c2.9-0.2,5.8-0.2,7.7-3.5
		C540.4,395.7,543.1,397.6,545.2,396.8z"/>
	<path class="st3" d="M306.1,379.9c5.4,6.1,11,12,16,18.4c2.6,3.3,4,2.8,6.2-0.2c3.5-4.8,7.6-9.3,10.9-14.2c2.5-3.7,5.3-5,9.7-3.8
		c-7.2,9.1-14.4,17.9-21.4,26.9c-5,6.5-12,6.1-19,6.1c-1,0-1.5-0.5-1.4-1.5c0.1-1.2,1-1.1,1.8-1.1c2.5-0.2,5-0.3,7.5-0.7
		c2.2-0.4,4.1-1.5,5.3-3.4c2-3-1.7-2.9-2.6-4.1c-6-7.7-13.2-14.4-19-22.4C302,379.2,304,379.3,306.1,379.9z"/>
	<path class="st5" d="M616.4,391.4c0-2.8-0.1-5.7,0-8.5c0-1-1-2.6,0.7-3c1.5-0.4,4-1,4.6,0.4c0.9,2.3,1.7,1.6,3.2,0.9
		c8.8-3.8,17.9-2.6,26.9-0.9c3,0.6,5.4,2.7,5.3,6.3c-0.1,1.4,1.2,3.6-1.8,3.5c-1.7-0.1-3.6,0.5-3.7-2.5c-0.2-3.9-3.3-5.2-6.6-5.4
		c-4.8-0.3-9.7-0.5-14.4-0.1c-5.9,0.5-7.9,3.1-8,9.2c0,3.2-0.2,6.3,0.1,9.5c0.1,2.3-0.3,3.3-2.9,3.2c-2.4-0.1-3.7-0.3-3.4-3.3
		C616.6,397.7,616.4,394.5,616.4,391.4z"/>
	<path class="st6" d="M306.1,379.9c-2,0-4,0.1-6,0.1C302,378.6,304,378.8,306.1,379.9z"/>
	<path d="M622.3,265.3c-0.2,15.8,0.2,30.3-2.1,44.6c-1.9,12.1-11.3,18.6-22.5,16c-10.6-2.4-17.4-14.8-14.1-25.5
		c2-6.3,6.1-11,11.3-14.8C603.9,279.3,613.3,273.8,622.3,265.3z"/>
	<path d="M767,266.5c-0.5,12-1,24.1-1.6,36.1c-0.2,4.1-0.4,8.3-2,12.2c-4.1,9.5-13.3,13.8-22.9,10.6c-9.3-3.1-15.3-14-13-23.6
		c1.8-7.5,6.7-12.8,12.9-17.1C749.1,278.9,758,273.5,767,266.5z"/>
	<path d="M200.3,271c-0.5,12-0.1,24-2.4,35.8c-1.6,8.4-4.2,16.2-14.1,18.5c-8.1,1.8-15.4-1.8-18.8-9.4c-1.9-4.3-2.7-8.9-2.8-13.6
		c-0.4-18,0.1-35.9,1.9-53.8c0.5-5.5,2.1-10.7,5.9-15.1c4.2-4.8,9.2-7,15.5-5.9c6.6,1.1,10.7,5.2,12.6,11.3
		c2.9,9.5,2.9,19.3,2.5,29.2C200.5,269,200.4,270,200.3,271z"/>
	<path d="M122.3,275.3c-0.3,11.4,0,22.3-2.2,32.9c-0.5,2.4-1.1,4.9-2.1,7.1c-2.9,6.5-8,10.2-15.1,10.4c-7.1,0.2-13.4-4-16.1-10.5
		c-2.8-6.7-3.7-13.8-4.2-20.9c-1.3-16.7-0.7-33.3,2.4-49.7c0.4-2.1,1.1-4.2,1.9-6.2c2.4-6.4,7.1-10,13.7-10.8
		c6.6-0.8,11.6,2.2,15.2,7.6c4.2,6.3,5.5,13.5,6.2,20.8C122.5,262.6,122.7,269.3,122.3,275.3z"/>
	<path d="M437.1,276.2c-0.1,11.3,0.2,22.7-2.3,33.8c-2.7,12.2-11.9,18.2-22.6,14.9c-6-1.9-9.6-6.1-11.4-12.2
		c-4.6-15.8-4.1-31.9-3.4-48.1c0.3-7.3,0.8-14.6,2.6-21.8c2.2-8.9,8.6-14.8,16.8-15.4c6.8-0.5,13.4,4.4,16.7,12.7
		c2.3,5.8,3.4,11.8,3.6,18C437.3,264.2,437.1,270.2,437.1,276.2z"/>
	<path d="M242,266.5c0.2-9.5,0.9-18.4,3.8-27c3.3-9.8,11-13.9,21.1-11.6c7.4,1.7,13,10.8,12,19.4c-0.2,1.9-1.3,2.9-2.6,4
		c-9.7,8.6-19.4,17.2-29.1,25.7c-1.1,0.9-2.1,2.6-3.7,1.9c-1.6-0.7-1-2.7-1.1-4C242.2,271.9,242.1,269,242,266.5z"/>
	<path class="st7" d="M578.2,400.9c-4.3,0-8.6,0.1-12.9-0.1c-2.2-0.1-4.3-0.8-4.4-3.7c-0.1-3.2,2-4,4.5-4.1c9-0.6,17.9-0.5,26.9,0.1
		c2.3,0.2,4.9,0.7,4.8,3.9c0,3.3-2.8,3.6-5,3.7c-4.6,0.3-9.3,0.1-13.9,0.1C578.2,400.8,578.2,400.9,578.2,400.9z"/>
	<path class="st8" d="M250.1,389c0.5-4.1,2.5-5.8,5.7-6.1c8.5-0.9,16.9-1,25.4,0.1c1.3,0.2,2.6,0.7,3.8,1.3c1.4,0.7,2.5,1.8,2.2,3.5
		c-0.4,2-2.2,1.1-3.3,1.1C272.7,389,261.6,389,250.1,389z"/>
	<path class="st8" d="M379.8,389c-5.1,0-10.3,0-15.4,0c-0.9,0-2.2,0.5-2.7-0.5c-0.6-1.1,0.2-2.2,0.8-3.2c1.1-1.6,2.8-2.2,4.7-2.4
		c8.4-0.8,16.9-0.9,25.3,0.2c1.1,0.2,2.3,0.6,3.3,1c1.6,0.7,3,2,2.7,3.8c-0.4,2.1-2.5,1.1-3.8,1.1C389.8,389.1,384.8,389,379.8,389z
		"/>
	<path class="st8" d="M520.6,389c-5.3,0-10.7,0-16,0c-0.9,0-2.1,0.6-2.5-0.8c-0.3-1,0.3-1.9,0.8-2.8c1.1-1.7,2.8-2.3,4.7-2.5
		c8.5-0.9,17-1,25.4,0.2c1.3,0.2,2.6,0.7,3.7,1.3c1.4,0.7,2.6,1.8,2.2,3.5c-0.4,1.9-2.2,1-3.3,1.1C530.6,389.1,525.6,389,520.6,389z
		"/>
</g>
</svg>
