<?xml version="1.0" encoding="utf-8"?>
<!-- Generator: Adobe Illustrator 21.1.0, SVG Export Plug-In . SVG Version: 6.00 Build 0)  -->
<svg version="1.1" id="Layer_1" xmlns="http://www.w3.org/2000/svg" xmlns:xlink="http://www.w3.org/1999/xlink" x="0px" y="0px"
	 viewBox="0 0 900 596" style="enable-background:new 0 0 900 596;" xml:space="preserve">
<style type="text/css">
	.st0{fill:#FEFEFE;}
</style>
<path d="M447.6,240.3c7.3-20.5,16.9-40.1,22.6-61.1c1.2-4.4,4.3-2.3,6.4-2.2c3.8,0.1,7.9-1.6,11.2,1.3c0.3,0.3-0.2,2.3-0.7,2.5
	c-11.7,4.6-11.1,16.7-15.4,25.7c-4.6,9.5-7.6,19.8-12.1,29.4c-2.4,5.2-0.8,6.5,3.5,4.7c7.9-3.2,14.9,1.4,21.3,3.5
	c3.8,1.2,6.7,9.9,8.1,17.8c-4.8-2.5-8.3-2.7-11.8-6.5c-6.4-7.2-16.2-5.3-24.2-3.1c-5.3,1.5-7.4,7.7-6.7,14.1
	c0.5,4.7,2.4,7.4,6.5,8.8c4,1.3,8.2,1.9,12,3.4c22.5,9.1,24.4,12.5,23.9,38.4c-0.1,5.9-2.3,9.5-7.1,12.7c-2.2,1.4-4.1,1.8-6.4,1.8
	c-12.4,0-24.7,0-37.1,0c-3.1,0-6,0.5-5.8-4.3c0.3-6.7,0.2-13.4,0-20.1c-0.1-3.2,1.4-3.9,4.3-3.8c2.2,0.1,3.6,0.3,3.9,3.2
	c0.7,6.4-0.1,14.3,6.1,17.6c6.8,3.6,15,1.4,22.6,1.1c6.7-0.2,9.2-5.8,11.4-11.3c2.3-5.7-1.4-9.3-4.9-11.9c-4.2-3.2-9.2-5.6-14.7-6.8
	c-15.6-3.3-21.6-11.1-25-26.2c-2.5-11.1-7.5-21.7-11.9-32.4c-6.5-16-13.5-31.7-19.7-47.7c-1.2-3-1.3-5.9-5.1-6.1
	c-2.8-0.1-3.4-1.5-3.1-3.8c0.3-3.1,2.8-2.1,4.5-2.3c0.3,0,0.7,0,1,0c9.2,0,19.2-3,20.8,11.9c1,9.1,6.6,17.2,9.9,25.9
	C439.4,223.2,442.9,231.7,447.6,240.3z"/>
<path d="M32.4,373.7c2.7,0,5.3-0.2,8,0c6,0.4,14.6-2.8,16.8,4.6c2.4,8.1,3,17.3-3.5,25.3c-4.3,5.2-9,9.9-13.8,14.6
	c-3.8,3.7-10.1,3.1-12.7,1c-11.3-9.3-22.2-19.3-19.4-36.5c1-6.1,2.6-9.7,9.6-9C22.4,374.1,27.4,373.7,32.4,373.7z"/>
<path d="M850,422.9c1.3-4.6,2.1-9.4,3.9-13.8c3-7.5-1.8-11-7.1-13c-4-1.5-5.2-3.4-5.1-7.1c0.2-5.3,4.5-3.4,6.7-3
	c11,2.1,15.6-2.8,15.3-13.3c-0.1-3.9,1.1-5.3,5.1-5.1c3.7,0.2,7.4,0.7,6.9,5.1c-1.3,11.5,4.4,14.4,14.5,13.2
	c1.8-0.2,4.9-1.6,5.6,2.1c0.6,3.2,0.2,6.6-3.1,7.6c-11.4,3.5-9.6,11.3-6.5,19.3c1.3,3.2,3.2,6.8,0,8.7c-3.7,2.3-5.9-1.3-8.3-4.2
	c-6.2-7.4-11.3-7-18.3,0.7C856.5,423.7,856.5,423.7,850,422.9z"/>
<path d="M485.3,371.7c5.6,0.4,14-0.6,14.9,10.1c0.2,2.2,1.7,5.7-2.9,5.9c-2.8,0.1-5.4,0.2-5-3.9c0.6-6.3-5.9-3.4-8.2-6
	c-1.9,2.7-6.9,0.1-7.8,4.4c-0.8,4.2,1.2,6.4,5.2,8.2c3.5,1.5,6.7,4.2,9.3,7.1c2.8,3,4.1,3.3,7.8,0.7c2.5-1.8,8.2-0.6,7.6,4.5
	c-0.6,4.9,0,7.7,4.9,9.4c1.9,0.6,4.5,2.3,2.7,5.3c-1.6,2.5-4.4,3.9-6.8,1.8c-3.2-2.7-4.8-2.2-8.9-0.8c-9.6,3.2-20.3,3.1-30.1,0
	c-7.2-2.3-8.8-19.9-2.3-24.3c3-2,3.4-2.8,2.9-6.4C466.6,374.4,469.6,371.6,485.3,371.7z"/>
<path d="M301.9,395.5c0-7.6-3-17.8,0.8-22.2c4.5-5.2,15-1.5,22.9-1.6c17-0.3,22.2,7.5,16.1,23.6c-2.2,5.9,4.2,11,1.9,17
	c-1,2.6,2.5,7.1-3.5,7.5c-6.7,0.5-4.6-4.4-4.4-7.4c0.3-4.9-1.2-9.3-5.8-10.2c-5.7-1.1-12.4-2.2-17.4,0.7c-3,1.7-1,7.5-0.9,11.3
	c0.1,4.2-0.9,5.8-5.5,5.8c-4.4-0.1-4.8-2-4.7-5.5c0.2-6.3,0-12.7,0-19C301.5,395.5,301.7,395.5,301.9,395.5z"/>
<path d="M567.8,419.9c-3.7,0-7.4,0.2-11-0.1c-6.9-0.6-10.8-7.4-8.4-13.9c0.8-2.2,2.2-1.9,3.8-2.1c3.8-0.5,3.5,2,4.4,4.7
	c3.5,10.3,12.3,4.2,18.7,5.1c5.8,0.8,5-4.7,5.3-8.6c0.3-3.8-0.8-5.9-4.9-5.1c-6.4,1.2-12.3-1.6-18.5-2.3c-7.7-0.8-9-6.9-8.9-13.7
	c0.1-6.8,2.6-11.5,9.6-12.1c7-0.5,14-0.3,21.1,0c3.6,0.1,6.6,1.6,8.3,5.4c1.3,2.9,2.6,6.4,0,8.1c-2.5,1.6-5.4,0.9-7.8-3
	c-4.8-7.9-13.1-4.5-20-3.9c-4.1,0.4-3.2,5.2-3,8.4c0.2,3.7,2.6,4.7,6.1,5c6.5,0.6,12.8-0.5,19.6,1.5c12.3,3.7,5,12.7,6.1,19.1
	c0.9,5.3-4,7.7-9.4,7.5C575.2,419.8,571.5,419.9,567.8,419.9z"/>
<path d="M289.3,395.6c0,24.3,0,24.3-24.5,24.3c-19.2,0-19.7-0.6-19.7-20c0-4.7,0-9.3,0-14c0.1-9.5,4-13.7,13.4-14.2
	c2.3-0.1,4.7,0,7,0C289.3,371.7,289.3,371.7,289.3,395.6z"/>
<path d="M779.4,419.9c6.2-15.3,12.6-29.8,17.9-44.6c1.3-3.7,2.8-3.6,5.4-3.7c3.3-0.1,7.2-0.7,8.7,3.2c5.2,12.8,10,25.8,15,38.6
	c1,2.5,2.9,5.1-0.9,6.3c-2.8,0.9-5,0.1-6.9-3.4c-5.2-9.7-23.6-9.4-28.5,0.4C787.4,422.2,783.5,418.9,779.4,419.9z"/>
<path d="M425.4,419.2c-6.1,2-10.6,0.7-11.4-6.1c-0.4-3.6-2.4-3.3-4.8-3.3c-5.7,0-11.4,0-17.1,0c-2.5,0-4.2,0.1-4.6,3.5
	c-0.7,6.2-4.9,7.9-11.6,5.9c5.9-14.4,12-28.7,17.6-43.2c1.6-4.1,4.2-4.4,7.8-4.4c4,0,5.3,1.8,6.7,5.6
	C413.4,391.4,419.6,405.2,425.4,419.2z"/>
<path d="M144.6,395.1c0-4,0.3-8-0.1-12c-0.4-3.9,1.5-6.3,4.2-8.4c3.7-2.9,30.1-4.5,33.9-2.1c5.2,3.3,4.5,8.5,4,13.4
	c-0.2,2.3-2.5,1.7-4,1.7c-2.2,0.1-3.5-0.3-3.9-3.1c-1.7-13.3-12-5.7-18.2-6.6c-6.8-0.9-8.3,5-7.9,11c0.2,2.7,0,5.3,0,8
	c0,16.3,5.8,20.9,21.7,16.7c4.2-1.1,6.8-4,6.4-8.7c-0.3-3.8,2.4-3.1,4.7-3.2c3.7-0.3,3.3,2.3,3.4,4.6c0.4,9-3.5,13.3-12.3,13.5
	c-6,0.1-12,0.1-18,0c-9.2-0.1-13.5-4.2-13.8-13.8C144.5,402.4,144.6,398.8,144.6,395.1z"/>
<path d="M647.5,395.4c0-7.6-2.9-17.6,0.8-22.2c3.9-4.9,14.4-1.7,21.9-1.3c4.2,0.2,12.2-3.6,12.1,2.9c-0.1,5.8-8.1,1.7-12.4,2.7
	c-2.5,0.6-5.4,0.4-8,0c-5.7-0.8-7.2,1.5-7.2,7.1c0,5.7,1.5,7.7,7.2,7.1c5-0.5,10-0.1,15-0.1c2,0,4-0.1,4.1,2.9
	c0.1,3-1.7,3.1-3.8,3.1c-5,0-10.1,0.6-15-0.1c-8.1-1.2-7,3.7-7.5,8.9c-0.6,6.6,2.1,7.9,7.9,7.4c5.6-0.5,11.3-0.1,17-0.1
	c1.7,0,3.2,0.3,3.4,2.6c0.2,2.7-1.1,3.5-3.5,3.4c-9.7,0-19.4-0.1-29,0c-4.4,0.1-3.6-2.9-3.6-5.5c0-6.3,0-12.7,0-19
	C647.1,395.4,647.3,395.4,647.5,395.4z"/>
<path d="M90.6,409.5c3.3-8.9,6.5-17.9,9.9-26.8c1.1-3,2.8-5.8,3.9-8.8c1.4-3.9,4.7-2.3,6.7-1.8c2.2,0.5,1.6,3.1,0.9,5.1
	c-5.2,13.4-10.5,26.8-15.4,40.4c-1.5,4.1-4.3,2-6.5,2.3c-3.4,0.5-6.2-0.1-7.7-4.2c-4.4-12.4-9.5-24.5-13.7-36.9
	c-0.5-1.6-5.7-5.1,0-6.8c3.3-1,6.4-0.1,7.9,4c2.4,6.6,6,12.9,7.6,19.7C85.3,400.3,89.1,404,90.6,409.5z"/>
<path d="M612.7,398.8c0-3-0.3-6,0.1-9c1.2-8.6-0.3-14.3-11-12.2c-1.9,0.4-4.9,1.1-5.1-2.7c-0.2-3.8,2.5-3.2,4.7-3.2c11,0,22,0,33,0
	c2.4,0,4.8-0.2,4.4,3.5c-0.3,3-2.6,2.9-4.4,2.5c-12.1-2.5-12.5,4.5-11.8,13.4c0.6,7.6,0,15.3,0.2,23c0.1,3.8-0.3,6-5.2,6
	c-5.2,0-5-2.7-4.9-6.3C612.8,408.8,612.7,403.8,612.7,398.8z"/>
<path d="M212.9,398.6c0-2.7-0.4-5.4,0.1-8c1.6-9.8-1.1-15.1-12.2-13.1c-2,0.4-5.8,1.7-5.9-2.9c-0.1-4.7,3.7-2.9,5.8-3
	c10.3-0.2,20.7-0.1,31,0c2,0,5-1.2,5.2,2.6c0.3,4.6-3.3,3.7-5.5,3.3c-10.2-1.9-11.2,3.5-10.6,11.6c0.6,8.3,0.1,16.7,0.1,25
	c0,3.1,0.5,5.9-4.3,5.8c-4.3-0.2-3.7-2.8-3.7-5.4C212.9,409.3,212.9,403.9,212.9,398.6z"/>
<path d="M695.1,395.1c0-6.3,0.1-12.7-0.1-19c-0.1-3.5,1.1-4.6,4.6-4.5c3.5,0.1,3.5,2,3.5,4.5c0,6.7,0,13.3,0,20
	c0,17.7,0,17.7,17.2,17.8c1.7,0,3.3,0,5,0c2.1,0,3.9,0.1,3.9,3c0,3-2,3-4,3c-8.7,0-17.3-0.1-26,0.1c-3.8,0.1-4.3-1.8-4.3-4.9
	C695.2,408.4,695.1,401.7,695.1,395.1z"/>
<path d="M739.3,396.3c0-6.2-0.6-10.9,0.2-15.5c0.5-3.1-3.6-8.8,3.6-9.1c7.5-0.4,3.9,5.6,4.1,8.6c0.5,9.3,0.4,18.6,0.1,28
	c-0.1,4.4,1.2,5.9,5.6,5.6c5.3-0.4,10.6-0.1,16-0.1c2.3,0,4.9-0.5,4.6,3.3c-0.2,3-2.3,2.6-4.2,2.7c-1.7,0.1-3.3,0-5,0
	c-7.9-0.1-18.5,2.7-23.1-1.3C735.6,413.9,740.2,403,739.3,396.3z"/>
<path d="M122.5,394.8c0-6,0-12,0-17.9c0-2.6-0.5-5.3,3.8-5.3c3.7,0,4.4,1.6,4.3,4.8c-0.1,13-0.1,25.9,0,38.9c0,3.2-0.5,4.8-4.3,4.8
	c-4.2,0-3.8-2.6-3.8-5.3C122.5,408.1,122.5,401.4,122.5,394.8z"/>
<path d="M357.6,395.9c0-6.3,0-12.6,0-18.9c0-2.6-0.7-5.3,3.7-5.4c3.6,0,4.4,1.4,4.4,4.7c-0.1,13-0.1,25.9,0,38.9
	c0,3-0.3,4.9-4.2,4.9c-4.2,0-3.9-2.5-3.9-5.2C357.6,408.5,357.6,402.2,357.6,395.9z"/>
<path class="st0" d="M482.3,414.1c-4.6-1.1-10.7,2.3-11.9-4.6c-0.6-3.5-2.1-8.4,2.3-10.9c4.1-2.4,7.5-0.4,10.3,3
	c0.6,0.8,1.3,1.6,2.2,2c4,1.6,8.9,4.2,7.6,8.3C491.3,416.1,485.5,412.7,482.3,414.1z"/>
<path class="st0" d="M319.1,395.8c-7,1.9-7.8-2.2-8-9.2c-0.2-7.4,1.7-9.5,9.2-9.2c13.8,0.6,16.4,1.7,15.1,10.2
	C334,396.9,326.6,395.6,319.1,395.8z"/>
<path class="st0" d="M266.8,413.8c-14,0-15.3-1.5-15.7-17.8c-0.3-15.1,2.6-18.3,16.5-18.3c13.6,0,15.7,2.2,15.7,17.1
	C283.3,412.6,282.2,413.8,266.8,413.8z"/>
<path class="st0" d="M813.2,403.5c-6.7,0-12,0-18.1,0c3.1-7.5,6-14.5,9.4-22.5C807.7,389.2,810.4,396.3,813.2,403.5z"/>
<path class="st0" d="M410.1,403.3c-6.5,0-12.3,0-18.8,0c3.2-7.4,6-14.2,9.3-21.8C404,389.1,406.9,395.9,410.1,403.3z"/>
</svg>
