<svg
        id="Layer_1"
        data-name="Layer 1"
        xmlns="http://www.w3.org/2000/svg"
        viewBox="0 0 900 596">
    x="0px" y="0px"
    <defs>
        <style>
            .cls-1{fill:none;}
        </style>
    </defs>
    <title>adidas</title>
    <path d="M518.69,254c-17.8,0-35.61,0-53.41,0a3.46,3.46,0,0,1-3.53-2Q405.11,153,348.32,54.12c-1-1.76-.47-2.32,1-3.16Q389,27.71,428.59,4.33c2-1.16,2.3-.08,3,1.2q56.43,97.89,112.9,195.76l29,50.33c1.36,2.36,1.35,2.36-1.45,2.36H518.69Z"
          transform="translate(-91.99 -3.83)"/>
    <path d="M316.39,259.37H340c0.09,5.48,0,11,0,16.44,0,1.49-.32,2.07-2,2q-10.09-.14-20.18,0c-1.7,0-1.94-.66-1.91-2.08,0.07-3.4,0-6.81,0-11.75A15,15,0,0,0,316.39,259.37Z"
          transform="translate(-91.99 -3.83)"/>
    <path d="M316.39,256.82" transform="translate(-91.99 -3.83)"/>
    <path d="M316,253.58c-19.44-33.78-44.17-77.33-63.43-111.21-1.62-2.85-1.63-2.86,1.34-4.53Q293.5,115.42,333.11,93c1.75-1,2.41-.72,3.37,1q45,78.78,90,157.51C428,254,428,254,424.93,254c-27.38,0-54.76,0-82.15-.06"
          transform="translate(-91.99 -3.83)"/>
    <path d="M281,295.25c0-7.2,0-14.07,0-20.95,0-5.86,0-11.71,0-17.57,0-1.44.41-1.93,1.87-1.92,6.81,0.06,13.61.09,20.42,0,2,0,1.88,1,1.88,2.4q0,21.25,0,42.5,0,40.72,0,81.44c0,2.15-.51,2.82-2.72,2.77-6.33-.15-12.66-0.13-19,0-1.95,0-2.76-.47-2.49-2.48a26.94,26.94,0,0,0,0-3.33c-14.57,8.32-29.63,10.46-45.39,5.14a47.1,47.1,0,0,1-24.74-19.41A50.7,50.7,0,0,1,215.18,303C230.72,285.51,259.41,281.12,281,295.25Zm-55.41,41.24a27.56,27.56,0,0,0,28.61,27.3c14.72-.34,27.16-13.65,26.77-28.65-0.36-14.26-13.91-26.89-28.47-26.56C237.62,308.93,225.22,321.78,225.57,336.49Z"
          transform="translate(-91.99 -3.83)"/>
    <path d="M428,378a45.16,45.16,0,0,1-16,6.89,50.93,50.93,0,0,1-61.43-39.35c-5.4-26.36,12.69-52.81,39.56-57.7,11.43-2.08,22.52-1.2,33,4.35,1,0.52,1.86,1.2,2.82,1.75,0.57,0.33,1.09,1.23,1.77.81s0.29-1.32.29-2c0-11.79.05-23.57,0-35.36,0-1.9.4-2.61,2.45-2.57,6.48,0.13,13,.09,19.46,0,1.6,0,2.17.38,2.17,2.09q-0.07,62.42,0,124.84c0,1.92-.69,2.17-2.34,2.15-6.33-.08-12.66-0.12-19,0-2.11,0-3.1-.45-2.75-2.7A25.27,25.27,0,0,0,428,378Zm-27.47-69.4c-14.65-.08-27.84,12.82-27.94,27.33-0.1,14.8,12.59,27.76,27.31,27.89A27.61,27.61,0,1,0,400.5,308.58Z"
          transform="translate(-91.99 -3.83)"/>
    <path d="M170.19,294.94c0-1.87,0-3.74,0-5.61,0-1.13.41-1.5,1.53-1.5q10.45,0.05,20.89,0c1.23,0,1.76.41,1.65,1.63,0,0.47,0,.95,0,1.42q0,45,0,90c0,2.29-.41,3.14-2.94,3-6.25-.21-12.5-0.15-18.75,0-2,0-2.69-.6-2.43-2.54a20.81,20.81,0,0,0,0-2.77c-0.88-.4-1.27.25-1.79,0.54-32.74,18.36-71.29-1.19-76-36.42-3.54-26.74,14.18-50.59,40.73-55.18a49,49,0,0,1,34.7,6.41A3.5,3.5,0,0,0,170.19,294.94Zm-27.6,13.64c-14.58,0-27.78,13-27.83,27.47-0.06,14.71,12.78,27.68,27.46,27.75A27.61,27.61,0,1,0,142.59,308.58Z"
          transform="translate(-91.99 -3.83)"/>
    <path d="M538.68,295.23c0-2.24,0-4.12,0-6a1.16,1.16,0,0,1,1.39-1.39q10.09,0,20.18,0a1.12,1.12,0,0,1,1.33,1.42c0,0.39,0,.79,0,1.19q0,45.35,0,90.7c0,2.13-.49,2.82-2.71,2.76-6-.16-12-0.13-18,0-1.81,0-2.42-.52-2.21-2.28a33.49,33.49,0,0,0,0-3.57c-14.38,8.25-29.2,10.42-44.76,5.4a47.13,47.13,0,0,1-25-19.06c-12.43-18.36-10.93-43.63,3-60.35S514.83,279.82,538.68,295.23Zm-27.87,13.35a27.61,27.61,0,1,0,.13,55.22c14.85,0,27.85-13,27.72-27.75S525.41,308.54,510.82,308.58Z"
          transform="translate(-91.99 -3.83)"/>
    <path d="M224.67,254c-17.8,0-35.6,0-53.4,0a3.23,3.23,0,0,1-3.33-1.89q-6.73-12.4-13.68-24.67c-0.75-1.33-.63-1.95.72-2.73q40-23.17,79.95-46.45c1.34-.78,1.8-0.43,2.49.76q21.2,36.49,42.51,72.92c1.2,2,.35,2.05-1.37,2Q251.6,254,224.67,254Z"
          transform="translate(-91.99 -3.83)"/>
    <path d="M584,352.85c3.64,0,7.28,0,10.92,0,1,0,1.63.1,1.74,1.33,0.72,8.11,5.85,12,13.24,13.67a23.83,23.83,0,0,0,14-.72,15.49,15.49,0,0,0,6.4-4.36c3.65-4.28,2.8-9-2.17-11.61-3.48-1.85-7.34-2.38-11.17-3-9-1.45-17.92-2.9-26.59-5.81-12.13-4.07-17.56-16.35-16.65-26.94,1-12,7.65-20.16,18.46-24.64a54,54,0,0,1,42.72.1c10.75,4.48,17.29,12.72,19.14,24.41,0.46,2.87.47,2.87-2.49,2.88-6.41,0-12.82,0-19.23,0-1.41,0-2.07-.26-2.24-1.87-0.67-6.44-4-9.82-10.58-10.82a38.84,38.84,0,0,0-13.69.4,10.1,10.1,0,0,0-6.42,3.73c-2.73,3.67-2,7.57,2,9.87,4.11,2.4,8.74,3.14,13.34,3.94,6.31,1.09,12.69,1.77,18.91,3.34,7.6,1.92,14.45,5.24,19.39,11.57,8.5,10.88,5.9,29.12-5.36,38.26-5.89,4.78-12.79,7.16-20.15,8.28-11.56,1.76-23.07,1.74-34.13-2.62-12.46-4.9-20.15-13.78-22-27.36-0.25-1.83.31-2.12,1.92-2.07C576.85,352.92,580.41,352.85,584,352.85Z"
          transform="translate(-91.99 -3.83)"/>
    <path d="M340.27,334.82c0,15.19,0,30.39,0,45.58,0,2-.34,2.75-2.55,2.7-6.56-.16-13.14-0.11-19.7,0-1.67,0-2.13-.51-2.13-2.15q0.07-46.18,0-92.35c0-1.88.65-2.2,2.33-2.18,6.57,0.09,13.14.11,19.7,0,1.89,0,2.37.52,2.36,2.38C340.24,304.12,340.27,319.47,340.27,334.82Z"
          transform="translate(-91.99 -3.83)"/>
    <path d="M654.33,266.54a11.62,11.62,0,0,1-12,12,12.33,12.33,0,0,1-12-12c0-6.28,5.76-11.92,12.1-11.92A11.7,11.7,0,0,1,654.33,266.54Zm-2.44.14c0-6-3.88-10.23-9.42-10.28-5.72-.05-9.73,4.14-9.74,10.2s4,10.34,9.65,10.31S651.87,272.62,651.89,266.69Z"
          transform="translate(-91.99 -3.83)"/>
    <path d="M647,272.85c-1.62.65-2.47,0.08-3-1.41-0.31-1-.86-1.86-1.23-2.82s-1.17-.9-2-0.87c-1.14,0-.85.92-0.88,1.57,0,0.87,0,1.74,0,2.61,0,0.55,0,1.14-.8,1.15a0.87,0.87,0,0,1-1-1q0-5.45,0-10.9a0.81,0.81,0,0,1,.77-1c1.89,0,3.83-.4,5.65.21,2.41,0.81,3.57,4.07,1.86,5.8-1.54,1.56-1.28,2.73-.39,4.28A18.09,18.09,0,0,1,647,272.85Zm-7.33-8.78c0,1.87.51,2.09,2.11,2s2.86,0.07,2.78-2.14-1.41-2.21-2.88-2.21C639.91,261.71,639.59,262.43,639.68,264.07Z"
          transform="translate(-91.99 -3.83)"/>
    <line class="cls-1" x1="224.27" y1="254.31" x2="224.27" y2="254.31"/>
    <path class="cls-1" d="M340,259.37h0c0-.85,0-1.7,0-2.55Z" transform="translate(-91.99 -3.83)"/>
</svg>