<svg id="Layer_1" data-name="Layer 1" xmlns="http://www.w3.org/2000/svg" viewBox="0 0 1233.18 837.8"><defs><style>.cls-1{fill:#6e1515;}.cls-2{fill:#6d1313;}.cls-3{fill:#701717;}.cls-4{fill:#6f1616;}.cls-5{fill:#711919;}.cls-6{fill:#f6f2f2;}.cls-7{fill:#f9f6f6;}.cls-8{fill:#f5f0f0;}.cls-9{fill:#eee4e4;}.cls-10{fill:#f9f5f5;}.cls-11{fill:#fff;}.cls-12{fill:#fefefe;}.cls-13{fill:#006;}.cls-14{fill:#030367;}.cls-15{fill:#fdfdfe;}.cls-16{fill:#07076a;}.cls-17{fill:#fafafc;}</style></defs><title>asics</title><path class="cls-1" d="M54.69-506.1c16.79-1.38,30.86-1.85,44.67.59,12.92,2.28,17.74,14.06,11.17,25.42-1.81,3.14-4.52,4.19-.21,8.79,11.95,12.75,5.15,28.61-12.64,31.48a49.94,49.94,0,0,1-7.69.48c-10.66.05-21.32,0-32.54,0C67.28-455,66.74-496.12,54.69-506.1Z" transform="translate(481.87 509.62)"/><path class="cls-2" d="M162.47-450l-13-16.87c-1.11,10.48-4.72,19,8.2,25.84-13.33,2.61-23.73,2-34.9,1,10.09-13.4,9.93-54.39-1.64-66.71,18,0.17,34-2.18,49.49,2.93,10.2,3.36,16.21,17.7,9,23.86-12.41,10.65-4.33,18.17.37,27,0.5,4.05,8.6,7.52,3.25,11-3.79,2.47-11.33,3.7-15.5-2.77A24.38,24.38,0,0,0,162.47-450Z" transform="translate(481.87 509.62)"/><path class="cls-1" d="M-0.81-448c0-13.24.13-26.47,0.1-39.71,0-6.42.71-13.28-8.22-17C8-506.63,24.22-509.77,39.72-503c10.12,4.43,11.34,13.61,3.89,22.84-3.21,4-3.43,6.22.71,9.2,7.94,5.71,9,12.82,3.6,20.93-4.23,3.5-8.36,7.42-13.84,8.61-7.7,1.67-11.93-.29-7.51-9,2.89-6.8,3.13-12.85-4.76-16.47-6.77,5.31-2.9,12.56-3.16,18.81-0.29,7-4.17,7.87-9.21,6.94C5.29-441.92-3.2-437.19-.81-448Z" transform="translate(481.87 509.62)"/><path class="cls-3" d="M30.15-450.5c0.19,2.84-4.81,4.74-2.25,7.39,2.06,2.13,5.35.28,8.12-.7,4.29-1.51,7-6.05,11.9-6.21-2.56,7.07-8.94,8.7-15.15,10.08-3.71.82-7.67,0.63-11.51,0.64-21.62.05-43.24,0-67.53,0,5.55-6.2,10-11.7,3.22-16.1-5.86-3.79-13.43-4.21-19.12.21-7.33,5.7.72,9.85,4.33,14.86-8.08,1.5-14.73,1.28-22.75.25,13.54-19.58,20.3-41.51,29.87-62.15,2.66-5.74,4.11-6.72,7.52-.1,7.81,15.12,14.14,30.84,20.66,46.52C-17-442.6-12.08-441.11-.81-448c1.56,8.52,8.38,5.87,13.17,5.4,6.66-.66,1.88-6,2.33-9.09,0.67-4.55,0-9.28.2-13.93,0.32-7.95,3.56-10.16,10.25-4.83C18-457.5,18.56-455.23,30.15-450.5Z" transform="translate(481.87 509.62)"/><path class="cls-4" d="M-90-455.41c-7.47-3.13-6.38-16.67-13.85-11.28-4.5,3.25-5.11,15,2.07,21.69,1.21,1.14,3,1.77,2.08,4.83h-32.8c10.72-9.39,7.7-21.1,7.11-31.87s5.35-23.12-6.49-35h37.14c19.38,0,19.53.2,15.37,22-6.64-8-12.29-20-23.73-13.15-6.26,3.75-2.54,13.12-1.66,20.27,9.25,0.9,7.35-9.78,15-12.47A155.2,155.2,0,0,1-90-455.41Z" transform="translate(481.87 509.62)"/><path class="cls-4" d="M-449.16-468.57c0.68,4.59-2.19,4.93-5.4,4.9s-6.89-.87-6.54-4.16c0.34-3.09,1.22-7.69,6.32-7.73C-449.86-475.6-451-470.83-449.16-468.57Z" transform="translate(481.87 509.62)"/><path class="cls-4" d="M-384.44-448.22c-0.09,2.21,1.89,6.19-2.22,5.64-5.53-.74-13.32,4.6-16.19-5C-396.69-447-390.36-442-384.44-448.22Z" transform="translate(481.87 509.62)"/><path class="cls-4" d="M-352.5-454.88c-4.41,5.64-1.84,12.69-9.79,12.39-4.56-.18-1.94-3.59-2.07-5.71,1.24,0.75,2.72,2.32,4,1.16,1.94-1.8-.75-2.14-1.51-3.08Z" transform="translate(481.87 509.62)"/><path class="cls-4" d="M-227.77-450.53c6-19.87,16.55-37.64,25.15-59.08,14.77,23.42,19.15,48.37,34.8,69.4h-32.54c-0.35-5.25,6.19-5,6.13-9.31-4.5-10.89-6.83-11.68-22.7-7.7l0.24-.23c-2.55,2.36-4.63,5-4.16,8.72,0.68,5.29-1.26,9.08-6.7,7.29C-233.65-443.45-228-447.42-227.77-450.53Z" transform="translate(481.87 509.62)"/><path class="cls-5" d="M162.47-450a7.41,7.41,0,0,1,6.26,3.65c2.89,5.24,8.38,5.39,12.07,3.62,5.8-2.79-3.22-6.49-.75-10.25,2.43,2.34,4.49,5.48,7.38,6.86,6.2,2.94,12.48,3,12.8-6,0.5-14.16-.25-28.36.3-42.52,0.22-5.57-5.62-5.69-7.15-10.58,11-3.66,21.73-.95,33.35-1.68-11.22,16.78-11,54.23.8,66.25-16.5,3.1-32.08.1-47.37,1.5C171.25-438.37,165.09-441.06,162.47-450Z" transform="translate(481.87 509.62)"/><path class="cls-4" d="M-384.5-486.86c0.53,12.85.09,25.75,0.06,38.64-0.09,2.21,1.89,6.19-2.22,5.64-5.53-.74-13.32,4.6-16.19-5-0.07-13.74-.18-27.48-0.17-41.23,0-6.27,1-12.86-11.44-15.44,15.34-4.22,26.27-2.45,38.19-1C-383.92-500.57-384.81-494.3-384.5-486.86Z" transform="translate(481.87 509.62)"/><path class="cls-4" d="M-351.17-458c-0.1-2,1-4.78-1.61-5.57-3.07-.91-3.92,2.57-5.83,4q-1.66,4.71-3.31,9.42l9.42-4.76c-4.41,5.64-1.84,12.69-9.79,12.39-4.56-.18-1.94-3.59-2.07-5.71-6.69,1.86-13.39,2.44-20.08,0-0.09,2.21,1.89,6.19-2.22,5.64-5.53-.74-13.32,4.6-16.19-5-9.89,8-16,3.52-20.46-6.24-1.58-3.48-2.45-7.31-4.23-10.68-7.36-13.93-10.09-30.32-22.21-43.32-6.75,14.66-14.13,27.55-17.58,42.15-6.11,4.81-4.54,14.58-12,18.52-2.59,3.95-5.21,8.07,2.91,7.89,5.06-.11,10.25,1.11,16.08-1.46-2-4.68-8.83-9.89-3.29-14.37,5.38-4.37,12.85-3.57,19.26,0a14.86,14.86,0,0,1,2.75,2.69c3.32,5.49-4.91,7.17-4.12,13,25.68,0,51.16,0,76.65,0C-351.21-439.3-350.33-440.24-351.17-458Zm-109.93-9.85c0.34-3.09,1.22-7.69,6.32-7.73,4.92,0,3.79,4.73,5.62,7,0.68,4.59-2.19,4.93-5.4,4.9S-461.45-464.54-461.1-467.83Z" transform="translate(481.87 509.62)"/><path class="cls-4" d="M-227.77-450.53c1.45,2.49-3.08,6.59,1.08,7.65s4-3,4.08-6c0.12-4.09,1.13-7.65,5.92-8.54-0.23,3.29-4.21,5.63-2.51,9.35,1.31,2.88,9.58,5.43,2.55,8.41-5.59,2.37-15.92,2.57-19.21-.93C-240.1-445.1-230.45-446.8-227.77-450.53Z" transform="translate(481.87 509.62)"/><path class="cls-4" d="M-352.5-454.88c-4.41,5.64-1.84,12.69-9.79,12.39-4.56-.18-1.94-3.59-2.07-5.71l2.44-1.92Z" transform="translate(481.87 509.62)"/><path class="cls-4" d="M-216.93-457.22c13.51-6.83,20.7-4.39,22.7,7.7C-199.08-460.09-208.81-456.28-216.93-457.22Z" transform="translate(481.87 509.62)"/><path class="cls-4" d="M-284.42-440a56.05,56.05,0,0,1-20.18-.09c6.84-7.07,8.54-15.65,7.54-25.12-1.18-11.23,2.46-22.83-2.58-33.77-1.71-2.13-6.77-1.26-5.78-5.49,0.72-3.09,4.09-2.26,6.59-2.48,10.36-.92,19.14.46,25.06,11,4.27,7.59,10.7,14,16.68,21.55,5.24-16.41,3.9-22.43-5.78-29.54,8.58-3.93,11-4,21.24-.93-13.11,20.72-1.91,44.44-7.61,66.23-6.44,0-6.81-7.35-11.54-9.08l0.08,0.11c-7.21-12.9-18.13-23-26.52-35-0.59-.86-1.73-1.25-1.77-1C-291-468.73-294.68-453.64-284.42-440Z" transform="translate(481.87 509.62)"/><path class="cls-4" d="M-312.75-440.05h-35.66c11.57-6,10.94-13.51,10.72-21.12-0.29-10.28,0-20.57-.12-30.85,0-3.62.94-7.42-4.16-9.52s-2.47-5,1.1-5.16c9-.42,18.07-0.84,26.89.41,4.46,0.63,3.74,4-1,4.87-5.3,2.24-4.06,7-4.09,11.1-0.09,9.87.57,19.8-.21,29.61A27.54,27.54,0,0,0-312.75-440.05Z" transform="translate(481.87 509.62)"/><path class="cls-4" d="M-312.75-440.05c-4.73-3.27-8.08-6.88-7.81-13.51,0.52-12.8.05-25.65,0.21-38.47,0-4-1.4-9.18,5.42-9.4-6.3,16.91-2.08,34.39-2.47,51.59-0.1,4.46,5.59,6.8,9.68,6,4.94-1,9.35-3.73,9.1-10.42-0.56-14.9-.7-29.82-1-44.73,3.86,1.31,4.9,4.41,4.93,8,0.12,11.88.31,23.77,0.2,35.65-0.07,7.1-4.67,11.5-10.09,15.21Z" transform="translate(481.87 509.62)"/><path class="cls-4" d="M-284.42-440c-7.41-6.5-11.93-37.73-6.13-44.73,1.47-1.78,2.77.44,3.33,2.11-3.05,14-8.14,28.26,4.94,40.3a1.24,1.24,0,0,1-.2,1.16A12.62,12.62,0,0,1-284.42-440Z" transform="translate(481.87 509.62)"/><path class="cls-6" d="M87.17-470.26c6.16,1.73,9.8,5.36,10,11.78,0.21,6.67-3.75,11.18-9.67,11.39-7.32.26-5.1-6.6-5-10.71C82.62-462.22,79.58-468.49,87.17-470.26Z" transform="translate(481.87 509.62)"/><path class="cls-7" d="M82.2-488.34c1.45-3.66-2.5-10.54,4.89-10.49,5,0,7.74,4.75,7.74,10s-2.5,9.66-7.74,10C80-478.46,83.44-484.79,82.2-488.34Z" transform="translate(481.87 509.62)"/><path class="cls-8" d="M147.59-487.14c2.22-4.68-2.74-12.14,6.06-12.2,7.14,0,9.08,5.28,9.11,11.45,0,6.59-1.55,12.48-9.68,12C144-476.4,151-484.26,147.59-487.14Z" transform="translate(481.87 509.62)"/><path class="cls-9" d="M30.15-450.5c-3.86,1-7.54,6.53-11.49,2.4-4.52-4.73-2-11.45-2-17.28s4.77-4.85,8.51-5.08C31.4-465,34.11-458.57,30.15-450.5Z" transform="translate(481.87 509.62)"/><path class="cls-10" d="M16.25-487.89c1.43-4.38-2.1-11.08,5.5-10.87,5.5,0.16,7.59,5.08,7.45,10s-2.3,9.57-7.87,9.75C14.07-478.73,18.18-485.22,16.25-487.89Z" transform="translate(481.87 509.62)"/><path class="cls-9" d="M-47.37-469c0.26,5-2.76,5.2-5.75,5.23-2.82,0-5.31-1-4.31-4.27,0.91-3,1.19-7.5,5.1-7.7C-47.76-476-49.9-470.32-47.37-469Z" transform="translate(481.87 509.62)"/><path class="cls-11" d="M-454.56-463.67c-3.13,0-6.89-.87-6.54-4.16,0.34-3.09,1.22-7.69,6.32-7.73,4.92,0,3.79,4.73,5.62,7C-448.48-464-451.35-463.64-454.56-463.67Z" transform="translate(481.87 509.62)"/><path class="cls-11" d="M-208.38-477.41c5.13,1.42,5.6,6,6.44,9.89,1,4.43-2.68,4.36-5.63,4.34-3.4,0-7.65,0-6.07-5.12C-212.65-471.52-213-476.12-208.38-477.41Z" transform="translate(481.87 509.62)"/><path class="cls-12" d="M375.94,328.12q-186.25,0-372.5.06c-2.34,0-2.87-.53-2.87-2.87q0.1-129.37,0-258.75c0-2.34.53-2.87,2.87-2.87q372.5,0.09,745,0c2.34,0,2.87.53,2.87,2.87q-0.11,129.38,0,258.75c0,2.34-.53,2.87-2.87,2.87Q562.19,328.08,375.94,328.12Z" transform="translate(481.87 509.62)"/><path class="cls-13" d="M180.56,176.14a154.54,154.54,0,0,0,18.81-28.26,91.49,91.49,0,0,0,7.76-21c4.52-19.5-8.2-29.77-22.34-31.9-14-2.11-27.32,1-40.44,5.38C126,106.46,109,115.48,93,126.27c-1.06.72-2,2.25-3.47,0.13s0.22-2.5,1.23-3.3c23.65-18.92,49.56-33.53,79.17-40.85,13.85-3.42,27.88-5,42-1.62,18,4.26,29.58,17.92,31.22,36.38,1.37,15.41-2.82,29.7-8.56,43.63-10.38,25.23-25.34,47.69-42.65,68.63-20.77,25.12-44.21,47.3-72.25,64.24-14.51,8.76-29.86,15.54-46.8,18.06-11,1.63-21.81,1.17-32.29-2.83-15.29-5.83-24.57-19.18-25-35.85C15.25,257.1,20.08,242.76,28,229.34,42,205.38,62,187.22,85,172.12c16.33-10.74,33.7-19.35,52.91-23.71,9.11-2.06,18.31-3,27.49-.32,12.36,3.57,18.21,13.64,15.32,26.24C180.62,174.64,180.64,175,180.56,176.14Z" transform="translate(481.87 509.62)"/><path class="cls-13" d="M287.5,161.36c2.44-9.11,4.82-17.93,7.13-26.76,0.36-1.38,1.08-1.72,2.42-1.71,14.37,0.05,28.76-.26,43.12.12,23.84,0.64,38.08,19.24,32.14,42.69-8.08,31.92-16.95,63.64-25.43,95.46-0.41,1.53-1.12,1.91-2.6,1.91-18.75-.05-37.5,0-56.24-0.09a51.18,51.18,0,0,1-13.25-1.93c-20.45-5.59-30.79-23.95-25-44.5,4-14.12,13.3-24,25.37-31.61a72.43,72.43,0,0,1,40.8-11.58c6.87,0.14,13.75,0,20.62.06,1.77,0,2.56-.49,3-2.3,0.67-3.14,1.8-6.19,2.09-9.42,0.51-5.56-2.43-9.37-8-9.84-13.09-1.12-26.23-.24-39.34-0.49C292.08,161.33,289.91,161.36,287.5,161.36Z" transform="translate(481.87 509.62)"/><path class="cls-13" d="M361.93,273c2.49-9.23,5-18.13,7.25-27.07,0.48-1.85,1.64-1.52,2.82-1.52h39a36.35,36.35,0,0,0,9.89-1.06c4.73-1.32,7.28-4.56,8.4-9.13,1.06-4.32-1-7.43-4.09-10.1-3.72-3.22-8.05-5.51-12.32-7.88a150,150,0,0,1-15.76-9.46c-16.82-12.24-20.79-27-11.83-45.84,8.52-17.89,23.64-26.51,42.76-27.73,14.42-.92,28.93-0.25,43.4-0.38,2,0,2.16.58,1.68,2.3q-3.33,12-6.43,24.08c-0.46,1.79-1.33,2.16-3,2.15-12.7-.07-25.4-0.06-38.11,0-5.09,0-9.4,1.67-12.13,6.26-2.07,3.47-1.81,6.08.9,9.09s6.12,5,9.54,6.95c6.93,4,14.16,7.45,20.76,12,9.13,6.34,15.55,14.36,16.32,25.95,0.51,7.57-1.59,14.64-4.38,21.51-7.38,18.16-21.11,27.72-40.49,29.42-2.38.21-4.77,0.44-7.16,0.45C393.45,273.06,377.94,273,361.93,273Z" transform="translate(481.87 509.62)"/><path class="cls-13" d="M606.34,272.72c2.39-8.89,4.84-17.8,7.14-26.74,0.47-1.82,1.63-1.53,2.82-1.53q19.52,0,39,0c3.65,0,7.29-.1,10.78-1.36,8.27-3,10.3-12.53,3.91-18.49-3.76-3.51-8.33-5.84-12.78-8.31a152.3,152.3,0,0,1-15.5-9.28c-17-12.31-21-27-12.12-46,7.39-15.82,20.52-24,37.19-27.24a59.23,59.23,0,0,1,11.2-.81c12.39,0,24.78.06,37.17-.08,2.63,0,2.83.71,2.19,3q-3.24,11.39-6.15,22.86c-0.51,2-1.27,2.78-3.52,2.76-12.6-.14-25.2-0.09-37.8-0.06-5,0-9.21,1.56-12,6-2.3,3.68-2.07,6.42.91,9.58,2.74,2.91,6.18,4.9,9.61,6.87,6.85,3.92,14,7.35,20.48,11.88,9.31,6.48,15.83,14.68,16.38,26.56,0.34,7.45-1.78,14.39-4.54,21.17-8,19.75-23.49,28.78-44.08,29.43-16.54.52-33.11,0.15-49.66,0.16A2.65,2.65,0,0,1,606.34,272.72Z" transform="translate(481.87 509.62)"/><path class="cls-13" d="M574.36,273c-8.05.2-18.25,0.17-28.08-3.2-19.09-6.54-31.15-23.22-31.86-44.09C513,184.46,543.88,145,584.77,135.57c13.46-3.11,27.08-2.5,40.7-2.63,1.53,0,1.75.54,1.39,1.84-2.27,8.31-4.58,16.62-6.7,25-0.46,1.83-1.54,1.59-2.76,1.61-6.86.15-13.73-.21-20.6,0.42-27.13,2.5-49.59,25.8-50.88,52.92-0.8,16.69,10.89,29.35,27.59,29.7,8.12,0.17,16.24.12,24.36,0,2.13,0,2.42.6,1.9,2.48-2.23,8-4.42,16-6.48,24.06-0.42,1.65-1.08,2.16-2.73,2.13C585.9,273,581.21,273,574.36,273Z" transform="translate(481.87 509.62)"/><path class="cls-13" d="M526.8,132.92c-3.25,12.5-6.4,24.65-9.57,36.8q-13,49.91-25.95,99.84c-0.68,2.64-1.58,3.65-4.49,3.57-9-.23-18.08-0.09-27.37-0.09l10.28-39.45c8.44-32.37,16.93-64.72,25.23-97.13,0.75-2.91,1.87-3.71,4.77-3.63,7.91,0.22,15.83.08,23.75,0.08h3.34Z" transform="translate(481.87 509.62)"/><path class="cls-14" d="M721.47,245a14,14,0,0,1,14.15,14,14,14,0,1,1-28.08-.08A14,14,0,0,1,721.47,245Z" transform="translate(481.87 509.62)"/><path class="cls-12" d="M90.88,244.41c-15.07.12-22.31-9.1-19.07-21.49,2.19-8.36,7-15.28,12.56-21.65,14.69-16.8,32-29.87,53.4-37.09,6.14-2.08,12.48-3.34,19-2.53,11,1.37,15.53,8,13,18.84a39.58,39.58,0,0,1-8.63,17.11c-15.57,17.75-33.25,32.89-55,42.66C100.56,242.74,94.76,244.35,90.88,244.41Z" transform="translate(481.87 509.62)"/><path class="cls-12" d="M307.5,244.43c-4.06,0-8.12.08-12.17,0-9.83-.24-15-7.81-11.78-17.16,3.07-8.92,12.16-15.41,22.65-15.76,7.69-.26,15.4,0,23.1-0.12,1.92,0,1.9.59,1.47,2.16q-4,14.41-7.69,28.88a2.34,2.34,0,0,1-2.77,2.08c-4.26-.12-8.53,0-12.8,0v0Z" transform="translate(481.87 509.62)"/><path class="cls-15" d="M721.49,246.88a12.12,12.12,0,1,1-12,12.19A12.14,12.14,0,0,1,721.49,246.88Z" transform="translate(481.87 509.62)"/><path class="cls-16" d="M725,259.55c2.39,1.19,2.75,3.12,2.63,5.26,0,0.76.39,1.77-1,1.85s-1.5-.83-1.47-1.84c0.09-3-1.28-4.31-4.35-4.28-1.8,0-2.42.53-2.2,2.27a24.26,24.26,0,0,1,0,2.49,1.15,1.15,0,0,1-1.25,1.38,1.26,1.26,0,0,1-1.53-1.44c0-4.16,0-8.31,0-12.47,0-1.29.58-1.58,1.71-1.54,1.66,0.06,3.33,0,5,.05,2.14,0.08,4.2.38,5,2.82S727.4,258.29,725,259.55Z" transform="translate(481.87 509.62)"/><path class="cls-17" d="M720.68,253.07c2.34,0.16,4.49,0,4.43,2.75-0.07,3-2.53,2.7-4.54,2.87-3.1.26-1.61-2.11-1.89-3.41C718.22,253.18,719.46,252.85,720.68,253.07Z" transform="translate(481.87 509.62)"/></svg>