<svg id="Layer_1" data-name="Layer 1" xmlns="http://www.w3.org/2000/svg" viewBox="0 0 734.83 320.77"><defs><style>.cls-1{fill:#231f20;}.cls-2{fill:#231f21;}.cls-3{fill:#282727;}.cls-4{fill:#242021;}.cls-5{fill:#4f4f4f;}.cls-6{fill:#313131;}.cls-7{fill:#383838;}.cls-8{fill:#363636;}.cls-9{fill:#353535;}.cls-10{fill:#333;}.cls-11{fill:#3c3c3c;}.cls-12{fill:#2b2b2b;}.cls-13{fill:#303030;}.cls-14{fill:#434343;}.cls-15{fill:#555;}.cls-16{fill:#323232;}.cls-17{fill:#757575;}.cls-18{fill:#6a6a6a;}.cls-19{fill:#686868;}.cls-20{fill:#7a7a7a;}.cls-21{fill:#707070;}.cls-22{fill:#7e7e7e;}.cls-23{fill:#646464;}.cls-24{fill:#787878;}.cls-25{fill:#777576;}.cls-26{fill:gray;}.cls-27{fill:#666;}.cls-28{fill:#696969;}.cls-29{fill:#636263;}.cls-30{fill:#676767;}.cls-31{fill:#6c6c6c;}.cls-32{fill:#5b5b5b;}.cls-33{fill:#6f6f6f;}.cls-34{fill:#f0f0f0;}.cls-35{fill:#606060;}.cls-36{fill:#1f1f1f;}.cls-37{fill:#2a2a2a;}.cls-38{fill:#e7e6e6;}.cls-39{fill:#3d3d3d;}.cls-40{fill:#fefefe;}.cls-41{fill:#f4f4f4;}.cls-42{fill:#f8f8f8;}.cls-43{fill:#f5f5f5;}.cls-44{fill:#d1cfd0;}.cls-45{fill:#f7f7f7;}</style></defs><title>blugirl</title><path class="cls-1" d="M360.72,253.76a17.46,17.46,0,0,0-2-1.41c-10.78-5.58-13.86-16-7.58-26.58,4.76-8,12-13.46,20-18,2.53-1.44,5.12-2.76,7.49-4,1-2.53-1-3.66-1.8-5.2-6.63-13.31-4.44-26,3.11-38,10.06-15.89,25.15-24.15,43.5-26.83,18-2.62,30.31,3.36,39.43,19,.66,1.14,1.39,2.24,2.21,3.54,2.57-5.86,4.91-11.55,8.64-16.47,4-5.32,8.89-9.08,16.11-8.87,4.11.12,7.67,1.32,9.31,5,1.9,4.26,2.07,8.87-1.28,12.8a10.68,10.68,0,0,1-10.74,3.71c-3.22-.58-5.68-2.68-8.44-4.09-2.18,1.93-2.57,4.31-3.31,6.52a190.65,190.65,0,0,1-14,31.34c-13,23.55-39.58,33.37-63.42,28.19a34.31,34.31,0,0,1-6.72-2.46c-7.89-3.58-18.94.61-22.54,8.64-1.9,4.23-.38,7.64,4.81,10.1,7.4,3.51,15.47,4,23.42,4.47,10.93.67,21.82,1.63,32.64,3.28a57.41,57.41,0,0,1,12.34,3.19c9.59,3.72,14.2,11,14.16,21-.06,15.95-6.28,28.92-19.29,38.45-9.65,7.06-20.54,11.2-32.12,13.53-16.3,3.27-32.69,4.69-49.16.89A46.46,46.46,0,0,1,343.68,311c-15.95-8.73-19.4-28.64-7.24-42.21C343,261.41,351.78,257.5,360.72,253.76Z" transform="translate(-9.02 -49.61)"/><path class="cls-1" d="M9.74,233.75c-1.91-8.4.28-16.25,3-24.1Q38.22,137.08,63.53,64.48c.6-1.72,1.67-3.3.87-5.48a25.1,25.1,0,0,0-9.35-.11l-9.34-.69c-.53-3,.78-4.89,2.7-7.53h22.7a1.09,1.09,0,0,1,1.58,0c4.62-.07,9.24-.08,13.86-.25,1.85-.07,3.67-.46,4.29,2-4.49,12.26-9.36,24.38-13,36.93-6.59,17.88-13.18,35.76-20.35,55.23,8.94-5.3,16.37-9.5,25.18-10.85,19.87-3,42,8.78,43,35.89q.15,4,.28,8a95.87,95.87,0,0,1-22.49,49.31c-16.55,19.3-37.11,29.89-63,27.8-12.55-1-23-6.16-29.31-17.77a1.88,1.88,0,0,0-1-1.47Z" transform="translate(-9.02 -49.61)"/><path class="cls-1" d="M219.35,136.05c15.73.23,30.83-1.67,46.57-2.68-.93,7.21-3.9,13.67-6.06,20.27-8.22,25-16.85,49.94-25.34,74.89-4.5,13.21.43,19.14,14,16.76,10.48-1.84,18.55-7.92,25.72-15.27a80,80,0,0,0,18.38-29.7q10.31-29.37,20.71-58.73c.62-1.73,1.38-3.41,2.14-5.28h21.25c.11,2.88-1.13,5.15-2,7.58C324.81,172.24,315,200.63,305,229a24.08,24.08,0,0,0-1.65,7.77c0,6.31,3.83,9.28,10,7.66,5.35-1.41,9.46-4.81,13.05-8.87,5.89-6.66,10.06-14.42,14.09-22.26.61-1.18,1-2.49,2.32-3.27,2.06-.39,3.38.82,4.73,2.48-4.76,11.32-10.5,22-19.43,30.82-8.46,8.31-18.32,12.51-30.35,11.49-9.42-.8-15.32-6.49-15.62-15.85-.08-2.59.32-5.2.59-9.24-3.23,3.38-5.45,6-8,8.33-13,11.8-27.83,18.63-45.87,16.59-14.21-1.61-20.58-11.11-16.46-24.78.77-2.54,1.77-5,2.6-7.54,8.55-26,17.08-52,25.95-79H217.72C216.42,140,218.21,138.42,219.35,136.05Z" transform="translate(-9.02 -49.61)"/><path class="cls-1" d="M743.85,50,675.27,239.93c4.45,5.27,8.82,5.47,13.68,3.27,5.24-2.36,9.23-6.22,12.91-10.52,6.78-7.94,11.9-17,17.27-25.79,2.54-.69,4.07,1.06,6.08,2-6.38,13.37-13.91,25.81-25.25,35.58-8.69,7.49-18.61,11.18-30.16,10.33-10.66-.78-15.93-6.87-14.7-17.44.62-5.31,2.52-10.33,4.3-15.34q28-78.52,56-157.06c.63-1.75,1.12-3.55,1.83-5.81-7.77-1.46-15.43-.11-23.18-.86-1.18-2.89.28-4.94,2.38-7.27C711.77,50.91,727.41,51.38,743.85,50Z" transform="translate(-9.02 -49.61)"/><path class="cls-1" d="M154.77,165.16c6.6-14.78,11.17-30.31,16.72-45.48,7.3-20,14.31-40,21.61-60.49-8.15-1.62-16.11.27-23.79-1.1-.64-3,.86-4.81,2.59-7,15.24-.19,30.65.24,45.7-.83,2,2.36.24,3.91-.33,5.49-7.81,21.76-15.72,43.49-23.52,65.26-.8,2.21-2.16,4.3-2,6.8q-11.34,30.72-22.65,61.42-8.12,22.09-16.05,44.25c-.87,2.43-2.61,4.82-1.06,8.09,4.3,4,9.18,3.7,14.31.78,6.17-3.52,10.75-8.71,14.89-14.32a232.18,232.18,0,0,0,13.55-21.29c2.46-.2,3.95,1,5.49,1.6.57.44.45.82.16,1.42-6.75,13.74-14.48,26.71-26.85,36.31-8.34,6.48-17.63,9.6-28.25,8.73-11.65-.94-17.65-8.56-14.21-19.75,4.84-15.73,10.57-31.19,15.87-46.78,1-3,2.77-5.77,2.78-9.08,1.51-1.27.08-3.59,1.73-4.81l0,.08c.79-1,.58-2.35,1.34-3.34a1.12,1.12,0,0,0,.3-1.29,14.48,14.48,0,0,0,1-1.91Z" transform="translate(-9.02 -49.61)"/><path class="cls-1" d="M598,143.48c-8.13-1.36-15.61.32-22.76-1.1-.42-2.74.59-4.49,2.59-6.33,14.84.56,29.86-2.2,45.57-2.19-1.16,8.4-5.24,15.41-7.12,24.66,4.67-5,8.17-9,12-12.68,6.21-6,13.21-10.7,22-12.3a18.79,18.79,0,0,1,8.67.29c6.57,1.81,9.43,5.29,9.12,11.21a12.66,12.66,0,0,1-10.44,11.57A14,14,0,0,1,646.24,154c-2.51-1.94-4.9-4.19-8.3-5-4.22,1-7.32,4-10.34,7-13.32,13.37-21.25,29.79-27.12,47.45-5.27,15.88-10.86,31.66-16.39,47.72-7.33.81-14.44.42-22.7.31Z" transform="translate(-9.02 -49.61)"/><path class="cls-2" d="M514.31,239.65c3.2,4.63,6.86,5.67,11.49,4.3a27.14,27.14,0,0,0,11.9-7.78,100.49,100.49,0,0,0,14-19.42c1.32-2.27,2.58-4.58,3.75-6.65,2.5-.69,3.82,1,5.48,1.63a4.13,4.13,0,0,1,0,1.41c-4.55,11.56-11,21.86-20.12,30.43-9.57,9-20.85,12.45-33.77,11.05-9.39-1-15.37-9.27-13-18.06,3.94-14.69,9.65-28.74,14.55-43.08,5-14.6,10.25-29.1,15.41-43.65.71-2,1.72-3.87,1.24-6.37-7.36-1.58-14.81.52-21.93-.7-.69-2.9.93-4.45,2.17-6.67,15.25.13,30.59-1.44,47.1-2.89Z" transform="translate(-9.02 -49.61)"/><path class="cls-3" d="M260.34,358.79c-6.07,5.93-13.26,9.58-21.75,10.14-3,.2-6.33,1-8.62-2.06-.92-1.55,0-1.57,1.15-1.37,3.11,3,6.34,1.54,9.51.16,8.78-3.82,15.46-10.16,20.95-17.85A11.59,11.59,0,0,0,263.17,337c-4.11-1.52-9.17,1.52-12.36-3.19-5.67,6.34-10.76,12.08-16.54,17.19-11.45,10.14-24.53,16.42-39.83,18.15-4.36.49-8.41-.7-12.61-.91-.56-.31-.75-.63-.57-.95s.36-.49.55-.49c19.26,2.91,34.12-5.38,47.16-18.44,10.35-10.39,19.54-21.95,31.14-31.09,5.22-4.11,10.28-8.45,16.31-11.39a1.25,1.25,0,0,1,1.91-.07c.6,2.89-1.38,4.46-3.26,5.89a95.37,95.37,0,0,0-18.43,17.71c.92,1.36,4.25.56,3.9,3.59-1,1.1-2.34.89-4.48,1.06,2.35,0,3.79-.05,4.76-1.4,10.34-5.07,18.38-12.13,20.75-24.07a4.1,4.1,0,0,1,1.51-1.66c4.46,8.41,3.75,13.74-2.54,19.95-4.27,4.22-9.65,6.45-15.08,8.47-.9,2.71,1.59,4.52,1.44,6.93-.12,2.12,0,4.25,0,7,4.18-2.31,7.1-5.53,10.26-8.47,9.75-9.07,18.51-19.27,29.73-26.66,3.4-2.25,6.5-5.74,11.35-4.66a1.84,1.84,0,0,1-.26,2c-10.71,7.16-19.92,16-28.81,25.29-1.58,1.39-3.13,2.82-4.72,4.2a194.3,194.3,0,0,0-18.7,19.47c-1.55,1.79-3.39,3.41-3.36,6.06a1.47,1.47,0,0,1-.32,2c-2.33-.68-2.46-2.45-2.28-4.43s1.14-3.62.4-5.51Z" transform="translate(-9.02 -49.61)"/><path class="cls-4" d="M559.48,60.22c7.48.31,12.46,5.86,12.27,13.66a15.34,15.34,0,0,1-16.2,15A13.22,13.22,0,0,1,543.1,75,15.39,15.39,0,0,1,559.48,60.22Z" transform="translate(-9.02 -49.61)"/><path class="cls-5" d="M283.08,306.93l-.45,2.58c-2.28-.05-3.17-1.72-4-3.43l-2.17-.2,1.05-2.25a40.85,40.85,0,0,0-20.38-8.12c-20.6-2.44-40.36-.14-57.83,12.19-6.15,4.34-11.39,9.61-12.93,17.53-1.25,6.41.8,11,6.75,13.56a23.09,23.09,0,0,0,14.77,1.61,71.78,71.78,0,0,0,26-11.6c4-2.88,7.18-6.3,8.46-11.17-2.73-6.67-6.62-8.81-13.48-7.81-7.87,1.16-14.29,5.37-20.81,9.43-.82.1-1.17-.23-1-1.06,6.92-6.86,15.36-10.22,25-10.81,4.89-.29,9.23,1.46,11.62,5.6,2.54,4.4.57,8.72-2.18,12.62-8.41,11.93-31.79,20.55-45.86,16.88-10.07-2.63-14.42-11-11.07-21,2.32-6.92,7.12-11.81,12.86-15.86,10.93-7.7,23.47-11.05,36.51-12.65,6.83-.84,13.61-1.41,20.66-.39,9.44,1.37,18.09,4,25.59,9.74,5-1.14,8.31-5.79,14-5.89-1.63,3-4.63,3.06-6.6,4.64S282.4,303.36,283.08,306.93Z" transform="translate(-9.02 -49.61)"/><path class="cls-6" d="M419.36,352.5c2-2.36-.17-5.59,1.3-7.65,1.87-1.64,3.25-1.39,4.57,0s-.82,2.65-.32,4.31c2.47.81,6.65-2.4,7.72,4l-13.1,11.72c-.6,3.44,1.58,3.17,2,4.49-2.64.93-4.63.25-6.2-2.54.2-7.41,7.15-10.31,11.18-15.13-2.91-2.85-4.79,1.56-7.32.69Z" transform="translate(-9.02 -49.61)"/><path class="cls-7" d="M278.14,360.54c6.48-5.72,12.09-13,22.17-13.27-4.69,5.06-9.07,9.6-13.22,14.36-1.35,1.55-4.52,2.45-2.84,5.62.37,1.4.12,2.17-1.53,1.45-2.67-3.36-2.67-3.36-1.93-7.82l-2.81-.47Z" transform="translate(-9.02 -49.61)"/><path class="cls-8" d="M480.19,352.39c-6.74,6.7-12.94,14.18-23,16.24,3.47-6.41,9.42-10.38,14-15.63,1.42-1.63,4.21-3.1.91-5.53l.19.19c6-3,3.79,3.32,5.57,4.87h2.46Z" transform="translate(-9.02 -49.61)"/><path class="cls-9" d="M294.15,363.68c5-4.65,9.9-9.34,14.92-13.94,2.55-2.32,2.62-2.24,8.38-1.74-5.4,7.58-13.28,12.62-17.65,20.53-2.77-.9-1.44-6.22-5.83-5Z" transform="translate(-9.02 -49.61)"/><path class="cls-10" d="M353.52,347.62c3.07,1.26,1.13,3.93,1.44,5.77,1.66,1,2.36-.63,3.47-.85,1.53-.78,1.62,0,1.27,1.19-5.07,4.18-10.26,8.22-15.18,12.57-2.6,2.29-5.09,3.29-9,1.47,4.05-3.84,7.94-7.32,11.57-11,2.1-2.15,5.19-3.83,4.85-7.59C351.55,347.67,351.88,347,353.52,347.62Z" transform="translate(-9.02 -49.61)"/><path class="cls-11" d="M435.54,360.69C441,352.75,448.3,347.82,455,348c-4.52,8.08-13.44,12.21-16.6,20.82-2.64-1.18-2.56-2.8-1.92-4.81.39-1.23,1.89-3.11-1-3.49Z" transform="translate(-9.02 -49.61)"/><path class="cls-12" d="M339.93,354.2c-5.07,4.17-10.21,8.27-15.19,12.56a7,7,0,0,1-8.1,1.22c4.85-6.47,12.67-9.81,16.37-17,.51-1.15-.09-2.7,1.25-3.57,2.4.6,1.84,2.55,1.86,4.18,0,1.15-.56,2.51,1.41,2.54A1.54,1.54,0,0,1,339.93,354.2Z" transform="translate(-9.02 -49.61)"/><path class="cls-9" d="M376.21,366.75c-.76-1.53.48-3.86-1.88-4.76l.14.15c6.2-7.27,13.4-13.06,22.92-15.33,1.44-.35,3.1-1,4.15.88l-.37,1c-8.37,4-14.36,10.84-20.86,17.08C379.08,366.69,377.82,367.49,376.21,366.75Z" transform="translate(-9.02 -49.61)"/><path class="cls-13" d="M403.19,349.31c3.13.56,5.54-3.36,9.27-1-4.24,6.81-12.15,10.84-15.54,18.49.12,2.59-.88,3-2.89,1.49-1.25-1.29.94-4.08-2-4.65l-.36-1.06c1.94-5.55,7.09-8.44,10.52-12.76C402.52,349.64,402.85,349.47,403.19,349.31Z" transform="translate(-9.02 -49.61)"/><path class="cls-10" d="M494.8,362.14c5.51-6.79,11.57-12.82,20.58-14.72,1.41-.72,2,.08,2.29,1.29-1.39,4.49-6.6,5-8.91,8.46a5.45,5.45,0,0,1-1.28,1.47c-7.21,2.12-7.77,2.84-7.75,9.76l-.23.29c-2.35-.06-3.12-1.53-3.24-3.6-.07-1.25.18-2.69-1.57-3.09Z" transform="translate(-9.02 -49.61)"/><path class="cls-9" d="M364.66,368.41c-1.18,2.9-3.15,1.59-5.26.92-2.65-5.1.93-8.11,4-11.29,2.65-2.75,6.72-4.22,7.56-8.56a1.56,1.56,0,0,1,.23-2.17c3.86,1.4,3.44,4,1.92,6.88-1.38,2.62-3.78,4.31-5.78,6.36s-4.62,3.43-5.55,6.21c.23,2.17,2,1.35,3,1.8Z" transform="translate(-9.02 -49.61)"/><path class="cls-14" d="M491.47,347.68c4,1.88,4.54,3.23,2.38,6.6-1.9,3-4.72,5-7.34,7.28-2.18,1.88-4.82,3.44-4.61,6.91l0,0c-5-1.73-2.41-5.14-1-7.32,1.78-2.81,4.52-5,7-7.35,1.9-1.77,4.24-3.15,3.74-6.3Z" transform="translate(-9.02 -49.61)"/><path class="cls-15" d="M318.11,310.23l.11-.73c2.23-2.63,3.6.37,6.51.07-3.91,13.21-14.17,18.24-24,23.74a1.7,1.7,0,0,1-2.06.11c-.58-3.81,2.63-4.7,4.9-6.27a98.53,98.53,0,0,0,11.8-9.16C317.67,315.85,318.82,313.37,318.11,310.23Z" transform="translate(-9.02 -49.61)"/><path class="cls-16" d="M181.81,366.8c0,.48,0,1,0,1.44a14.48,14.48,0,0,1-8.69-3.17c-2.24-1.7-3.5-4.14-2.25-6.94,1.57-3.54,4.32-3.05,7.06-1.91,1.85,4,.08,5.68-3.39,6.37C176.08,365.59,179.63,365,181.81,366.8Z" transform="translate(-9.02 -49.61)"/><path class="cls-17" d="M394,368.29c1.31.17,2.4-.08,2.89-1.49,6.65-1,10.48-6.46,15.6-9.88,1.67-1.12,2.65-3.44,5.23-2.86l-.06-.07c-4.62,7.39-12.25,11.16-19.14,15.77A2.82,2.82,0,0,1,394,368.29Z" transform="translate(-9.02 -49.61)"/><path class="cls-18" d="M504.4,368.55l18.69-11.88c-3.34,6.78-10.52,11.08-18.78,11.77Z" transform="translate(-9.02 -49.61)"/><path class="cls-19" d="M298.07,332.84l2.71.47c-5.14,3.23-10.27,6.48-16.35,7.72.05-2.2.87-3.91,3.07-4.72C291.18,335.65,293.64,331.24,298.07,332.84Z" transform="translate(-9.02 -49.61)"/><path class="cls-17" d="M376.21,366.75l2.93-1.49c4.57,1.53,8.23-4.55,13-1.55l-.08-.07c-2.08,4.57-6.56,5.37-10.66,6.44A3.93,3.93,0,0,1,376.21,366.75Z" transform="translate(-9.02 -49.61)"/><path class="cls-20" d="M262.05,368.53l.32-2c3.32,1.19,6-.36,8.69-2,1.68-1,2.79-3.25,5.3-2.53l.15.09C272.79,366.76,268.78,370.73,262.05,368.53Z" transform="translate(-9.02 -49.61)"/><path class="cls-21" d="M339.93,354.2l-2.4-.1c3.51-3.7,7.91-5.86,12.68-7.45,1.46-.49,2.52-.42,3.31,1L352,349.14C346.93,348.37,344.21,353.14,339.93,354.2Z" transform="translate(-9.02 -49.61)"/><path class="cls-22" d="M371.17,347.31c-.08.72-.15,1.44-.23,2.17-4.77-1.3-7.38,3.11-11.24,4.25l-1.27-1.19C362.15,349.51,365.54,345.69,371.17,347.31Z" transform="translate(-9.02 -49.61)"/><path class="cls-20" d="M334.26,347.38c-.06,1.32.31,2.78-1.25,3.57-.66-1.43-1.57-1.9-3-.89-2.1,1.49-4.25,2.92-6.38,4.38-.94.22-1.22-.15-.95-1,2.39-3.16,5.7-5.14,9.13-6.91A1.59,1.59,0,0,1,334.26,347.38Z" transform="translate(-9.02 -49.61)"/><path class="cls-23" d="M231.12,365.5,230,366.87c-1.67-5.66-.88-7.21,5.9-11.7.83-.13,1.12.23.95,1C234.67,359.15,231.16,361.26,231.12,365.5Z" transform="translate(-9.02 -49.61)"/><path class="cls-24" d="M517.05,348.94l-1.67-1.52c3.54-2.53,5.48-.89,6.82,2.25-.52,3.27-2.61,4.63-5.08,5.63a2.56,2.56,0,0,1-.77-1.72C516.36,352,517.45,350.58,517.05,348.94Z" transform="translate(-9.02 -49.61)"/><path class="cls-5" d="M197.52,328c1.92-4.48,5.47-7.39,9.49-9.83a14,14,0,0,0,1,1.06l-10,9.31Z" transform="translate(-9.02 -49.61)"/><path class="cls-25" d="M241.22,352.5c5-4,6.1-4.45,12.28-4.28-4.12,1.39-7.62,4.52-12.37,4.18Z" transform="translate(-9.02 -49.61)"/><path class="cls-26" d="M282.72,368.7l1.53-1.45c3,.46,5.16-2.4,8.13-2l.18.18C290,368.81,287.23,371.32,282.72,368.7Z" transform="translate(-9.02 -49.61)"/><path class="cls-27" d="M517,353.49c0,.61.05,1.21.08,1.81a21.73,21.73,0,0,1-9.64,3.34c0-.44,0-.87,0-1.3C510,354.43,513,352.55,517,353.49Z" transform="translate(-9.02 -49.61)"/><path class="cls-28" d="M314.49,360c2.43-2.57,4.9-5.06,8.18-6.57a1.94,1.94,0,0,0,.95,1c-2.55,2.42-4.84,5.19-8.34,6.37C314.52,361,314.23,360.74,314.49,360Z" transform="translate(-9.02 -49.61)"/><path class="cls-23" d="M455,360.82c-1.66,2-3.42,3.93-6.6,4.72.91-3.38,3.49-4.36,5.86-5.54Z" transform="translate(-9.02 -49.61)"/><path class="cls-21" d="M315.28,360.81a11.55,11.55,0,0,1-6.49,4.76c.95-3.3,3.33-4.45,5.7-5.6A4.83,4.83,0,0,1,315.28,360.81Z" transform="translate(-9.02 -49.61)"/><path class="cls-21" d="M454.26,360c1.62-1.94,3.34-3.72,6.46-4.46-1,3.18-3.15,4.46-5.72,5.28A2.42,2.42,0,0,1,454.26,360Z" transform="translate(-9.02 -49.61)"/><path class="cls-14" d="M491.57,347.55c-2.06.92-4,2.09-6.44,1.79l-.13-.16c1.88-1.67,3.63-4,6.47-1.5Z" transform="translate(-9.02 -49.61)"/><path class="cls-29" d="M241.13,352.4c-.48,2.36-2.46,3-4.31,3.8a9.28,9.28,0,0,0-.95-1c1.38-1.7,3-3,5.35-2.67Z" transform="translate(-9.02 -49.61)"/><path class="cls-19" d="M480.32,352.53c.57-2.49,2.22-3.49,4.68-3.35l.13.16c-.95,2.14-2.35,3.57-4.94,3.05Z" transform="translate(-9.02 -49.61)"/><path class="cls-11" d="M430.23,363.5c1.4-1.63,2.57-3.7,5.31-2.81l-.13-.16a7.7,7.7,0,0,1-4.73,3.48Z" transform="translate(-9.02 -49.61)"/><path class="cls-8" d="M472.1,347.47c-.48,2.64-2.45,3.16-4.69,3.29l.12.13c.79-2.24,2.58-3,4.76-3.23Z" transform="translate(-9.02 -49.61)"/><path class="cls-30" d="M494.69,362c-.53,2.21-2.08,3.19-4.19,3.51-.72.31-1,.06-.78-.67,1.2-1.84,2.73-3,5.08-2.7Z" transform="translate(-9.02 -49.61)"/><path class="cls-31" d="M367.72,366.53c1.36-1.59,2.51-3.54,5.14-2.82l-.11-.09c-.55,2.36-2.34,3.16-4.47,3.51Z" transform="translate(-9.02 -49.61)"/><path class="cls-32" d="M430.68,364c-.83,2.12-2.56,2.62-4.64,2.6.91-1.73,2-3.12,4.19-3.11Z" transform="translate(-9.02 -49.61)"/><path class="cls-33" d="M467.41,350.76c-.43,2.36-2,3.1-5.6,3.47,2.36-2.21,3.33-3.86,5.72-3.34Z" transform="translate(-9.02 -49.61)"/><path class="cls-14" d="M485.18,368.59c.36-2.65,2.82-2.76,4.54-3.75a.66.66,0,0,0,.78.67c-1.52,1.52-2.79,3.51-5.44,2.93Z" transform="translate(-9.02 -49.61)"/><path class="cls-34" d="M151.47,174.39c.13,1.86-.1,3.58-1.73,4.81C149.92,177.46,148.86,175.26,151.47,174.39Z" transform="translate(-9.02 -49.61)"/><path class="cls-18" d="M504.31,368.44c-1.48,2.58-3.09,2.51-4.81.25l.23-.29a8.53,8.53,0,0,1,4.67.15Z" transform="translate(-9.02 -49.61)"/><path class="cls-34" d="M152.77,171.13a3.08,3.08,0,0,1-1.34,3.34C151.25,173.11,151.2,171.8,152.77,171.13Z" transform="translate(-9.02 -49.61)"/><path class="cls-5" d="M196.53,330.28l-.81,2.34c-1.28-1.39-1.31-2.26.4-2.78Z" transform="translate(-9.02 -49.61)"/><path class="cls-35" d="M364.78,368.56c.17-1.85,1.71-1.72,2.94-2a1,1,0,0,0,.56.6c-.72,1.82-2.16,1.58-3.62,1.28Z" transform="translate(-9.02 -49.61)"/><path class="cls-14" d="M485.06,368.44c-1,2-2.08,2.2-3.2.08l0,0,3.28.12Z" transform="translate(-9.02 -49.61)"/><path class="cls-36" d="M417.75,354.06c-.07-1.15.46-1.67,1.61-1.56l-.14-.14c.47,1.46-.45,1.63-1.53,1.63Z" transform="translate(-9.02 -49.61)"/><path class="cls-34" d="M154.08,167.93a1.6,1.6,0,0,1-1,1.91A1.54,1.54,0,0,1,154.08,167.93Z" transform="translate(-9.02 -49.61)"/><path class="cls-13" d="M401.54,347.69c1.24-.16,1.85.32,1.65,1.62l.14-.14c-1.52.43-2.18,0-1.59-1.62Z" transform="translate(-9.02 -49.61)"/><path class="cls-37" d="M372.86,363.71c-.33-1.41.47-1.66,1.61-1.57l-.14-.15c.15,1.2-.49,1.63-1.58,1.63Z" transform="translate(-9.02 -49.61)"/><path class="cls-5" d="M198,328.56c-.13.9-.44,1.64-1.51,1.72l-.41-.44a1.69,1.69,0,0,1,1.4-1.82Z" transform="translate(-9.02 -49.61)"/><path class="cls-9" d="M294,363.54c.7,1.5-.46,1.62-1.41,1.9l-.18-.18a1.66,1.66,0,0,1,1.77-1.58Z" transform="translate(-9.02 -49.61)"/><path class="cls-38" d="M10.08,235.43c.65.28,1.13.67,1,1.47A1.29,1.29,0,0,1,10.08,235.43Z" transform="translate(-9.02 -49.61)"/><path class="cls-39" d="M278,360.41c.6,1.5-.55,1.52-1.47,1.73l-.15-.09c0-1.22.73-1.55,1.78-1.51Z" transform="translate(-9.02 -49.61)"/><path class="cls-38" d="M72.69,50.66H71.11C71.63,49.27,72.15,49.24,72.69,50.66Z" transform="translate(-9.02 -49.61)"/><path class="cls-40" d="M370.51,254.7c16,2.91,32.07,2.9,48,4.55a64.54,64.54,0,0,1,14.85,2.9c8,2.84,11.26,8.56,9.43,16.83-2,8.91-7.65,15-15.32,19.5-10.78,6.35-22.63,9.25-34.89,10.55a90,90,0,0,1-19.9.25c-18.65-2.15-31.46-16.07-19.45-38.82C357.06,263.12,363.65,258.59,370.51,254.7Z" transform="translate(-9.02 -49.61)"/><path class="cls-40" d="M446.33,155.76c-1.78,15.5-6.4,31.52-17.74,44.65-6.45,7.47-14.88,11.06-25.08,7.6-6.84-2.32-10.81-7.24-10-14.45,1.84-16.08,6.57-31.34,17-44,6.18-7.51,14.24-12,24.66-9.42C443,142.07,446.3,146.22,446.33,155.76Z" transform="translate(-9.02 -49.61)"/><path class="cls-41" d="M103.79,159.36c-.08,10.88-3.6,21-7.32,31a248.45,248.45,0,0,1-17.09,36.09c-3.46,6.05-7.49,11.65-13,16.09-6.88,5.56-14.69,7.26-23.29,5.68s-14-8.17-13.94-16.9a26.56,26.56,0,0,1,.87-7.12A523.85,523.85,0,0,1,50.17,167a54.59,54.59,0,0,1,12.65-18.31,33.63,33.63,0,0,1,18.39-9C94.09,137.68,105,145.26,103.79,159.36Z" transform="translate(-9.02 -49.61)"/><path class="cls-42" d="M278.59,306.08c2.41-.11,2.61,2.39,4,3.43-1.11,11.57-11.52,22.69-22.11,23.64l.11.14c-1.54-3.32-4.72-1.13-7.38-2.34C259.68,320.55,269.63,313.8,278.59,306.08Z" transform="translate(-9.02 -49.61)"/><path class="cls-43" d="M298.07,332.84c-2.79,1.32-5.6,2.58-8.35,4-1,.51-1.78,1-2.22-.51,6.45-6.29,12.81-12.67,19.38-18.81,3.27-3.06,6.79-5.92,11.23-7.27,1.27.18,2.69,0,3.54,1.77-.08,3.64-3,5.66-5.46,8C310.84,325.28,304,328.41,298.07,332.84Z" transform="translate(-9.02 -49.61)"/><path class="cls-44" d="M260.52,333.15c-1.83,2.14-3.85,2.36-6.21.71,2.09-1.61,4.27-.17,6.32-.57Z" transform="translate(-9.02 -49.61)"/><path class="cls-40" d="M260.34,358.79l1-.59c-.15.54-.53.65-1.15.39Z" transform="translate(-9.02 -49.61)"/><path class="cls-45" d="M401.74,347.55c-.18,1.23.35,1.78,1.59,1.62-.5,3.67-3.2,5.86-5.47,8.41-1.87,2.09-4.69,3.29-5.75,6.13-4.44-.15-7.23,4.19-11.59,4.25-1-.6-1.17-1.68-1.38-2.7C385,357.18,391.82,350.41,401.74,347.55Z" transform="translate(-9.02 -49.61)"/><path class="cls-40" d="M517,353.49l-9.51,3.85c-1.58-2.66,1.24-2.69,2.29-3.52,2.27-1.8,4.8-3.27,7.23-4.88l2.9.77C518.85,351.14,518,352.32,517,353.49Z" transform="translate(-9.02 -49.61)"/></svg>