<svg id="Layer_1" data-name="Layer 1" xmlns="http://www.w3.org/2000/svg" viewBox="0 0 1449.43 566.5"><defs><style>.cls-1{fill:#e7e6e6;}</style></defs><title>catbalou</title><path class="cls-1" d="M-714.84,729.53h-1.58C-715.9,728.14-715.38,728.11-714.84,729.53Z" transform="translate(716.42 -163.04)"/><path d="M318.55,226.51c-11.8,0-23.61-.14-35.4.08-4.26.07-6-1.24-5.93-5.66.11-18.15,0-36.31-.13-54.46,0-3.62,2.22-3.32,4.53-3.32h36.76c11.65,0,23.3-.07,34.95.07,7.9.1,12,4.18,12.21,12.05.22,6.64,1.08,13.51-5.75,18-1.52,1-.43,2.06.54,2.89,7.42,6.41,5.74,14.85,4.54,22.81-.74,4.87-4.95,7.43-10,7.46-12.1.09-24.2,0-36.3,0Zm2.19-15h19.5c2.86,0,5.88-.2,5.92-3.95s-3-4-5.85-4l-25.85,0c-11.3,0-11.21,0-10.84-11.43.12-3.81,1.5-5.34,5.49-5.25,10.58.24,21.16.1,31.75.13,2.83,0,5.43-.71,5.46-4,0-3-2.38-3.92-5.08-3.93-13.61,0-27.21,0-40.82,0-2.93,0-4.06,1.32-4,4.13.12,8,.3,16,.17,24-.06,3.56,1.56,4.4,4.67,4.35C307.74,211.39,314.24,211.47,320.74,211.48Z" transform="translate(716.42 -163.04)"/><path d="M408.53,163.24c9.22,0,18.47.35,27.68-.09,10.6-.5,20,9,22.84,17.63,2,6.05,1.92,12.18,1.92,18.37,0,7.56-.11,15.13,0,22.69.07,3.52-1.3,5-4.83,4.69-4.33-.38-9.73,1.75-12.76-1s-.32-8-.83-12.19a14.61,14.61,0,0,1,0-3.17c.47-4.37-1.49-5.84-5.79-5.78-13.6.19-27.21-.05-40.81.72-2.69.15-3.37,1.22-3.35,3.59,0,4.53-.09,9.07-.08,13.61,0,3-1.09,4.46-4.32,4.24a79.73,79.73,0,0,0-9.53,0c-3.71.19-5.12-1.41-5.08-5.09.11-11.8,0-23.6,0-35.41,0-5.74.21-11.5,0-17.24-.2-4.43,1.65-5.79,5.89-5.7,9.68.22,19.36.07,29,.07Zm7.8,23.61v.1c6.21,0,12.42.06,18.63,0,1.53,0,3.82.77,4.3-1.37s-1.65-3-3.14-4a7.14,7.14,0,0,0-2.59-.75c-12.14-2.19-24.41-1.87-36.66-1.82-2.76,0-4.15.9-4.26,3.91-.12,3.2,1.63,3.93,4.19,3.94C403.31,186.88,409.82,186.85,416.33,186.85Z" transform="translate(716.42 -163.04)"/><path d="M140.26,163.19c8.47,0,17-.08,25.43,0,12.33.14,19.72,5.38,24.25,16.84a37.21,37.21,0,0,1,2.84,15c-.25,8.62-.16,17.26,0,25.88.06,4-1.38,5.92-5.6,5.6a83.33,83.33,0,0,0-9.08,0c-3.06.1-4.44-1.25-4.4-4.32.06-4.54-.06-9.08,0-13.62,0-2.61-1-3.88-3.74-3.92-14.08-.2-28.15-.52-42.22.18-3,.15-4,1.27-3.86,4.15.18,4.84-.07,9.7.2,14.53.13,2.14-.17,3.11-2.49,3-4.08-.1-8.17-.08-12.26-.08-2.68,0-3.79-1.42-3.79-4q0-27.7,0-55.42c0-3.33,2-3.94,4.77-3.93,10,0,20,0,30,0ZM148,187v0c6,0,12.07.06,18.11,0,1.7,0,4.37.89,4.85-1.12.55-2.32-2.15-3.33-3.92-4.35a10.71,10.71,0,0,0-3.05-.71c-11.79-2.54-23.74-1.57-35.64-1.77-2.87,0-4.55.64-4.5,4s1.93,4,4.68,4C135,186.92,141.5,187,148,187Z" transform="translate(716.42 -163.04)"/><path d="M590,226.51c-10.3,0-20.6-.11-30.89.06-3.59.06-4.84-1.33-4.8-4.79.11-11.2-.08-22.41.12-33.62.17-9.15,9.06-21.61,17.32-24.35,2.09-.7,4.5-.54,6.76-.55,20-.09,40-.08,60-.22,3,0,4.18,1.23,4.14,4-.16,12.85.81,25.74-1,38.54-1.65,11.5-12.28,20.76-23.86,20.86-9.24.08-18.48,0-27.72,0Zm2.78-16.22c7.24.05,14.5.73,21.74-.37,4.79-.73,7.17-3.47,8.15-7.84,1.44-6.43.69-13,.8-19.45.06-3.15-1.9-3.66-4.48-3.65-8.77.05-17.55.1-26.32,0a45.58,45.58,0,0,0-12.1,1.66c-5,1.28-7.72,4.65-7.83,9.75-.12,5.29,0,10.59-.07,15.88-.05,2.7.56,4.24,3.78,4.11C581.92,210.13,587.37,210.29,592.81,210.29Z" transform="translate(716.42 -163.04)"/><path d="M57.86,163.17c11.8,0,23.6.11,35.4-.07,4.19-.07,6,1.17,6,5.66C99.13,179,99.32,179,89.12,179c-16.34,0-32.68.1-49-.06-4.05-.05-5.87,1.13-5.6,5.4s0,8.77.08,13.16c.11,7,4,11.57,11,12.7a43.65,43.65,0,0,0,6.77.4c13.77,0,27.54.07,41.3,0,4.12,0,5.53,1.77,5.55,5.79,0,10.17.19,10.17-10,10.16-17.1,0-34.21-.48-51.29.09-9.49.32-20.82-12-20.76-20,.09-13.17,0-26.33-.17-39.49,0-3.45,1.74-3.94,4.55-3.92C33.65,163.21,45.75,163.17,57.86,163.17Z" transform="translate(716.42 -163.04)"/><path d="M732.93,195.17c0,9.09-.13,18.18.07,27.26.07,3.09-.63,4.2-4,4.16-17-.18-33.92-.06-50.89-.16-11.52-.08-21.22-8-24.82-19-1.75-5.37-1.68-10.69-1.71-16.11,0-7.72.13-15.45,0-23.17-.09-3.77,1.4-5.23,5.09-5a57.12,57.12,0,0,0,8.17,0c4.07-.33,5.26,1.55,5.19,5.37-.18,8.63-.08,17.26,0,25.89,0,7.77,4.71,13.7,12.38,15.11,10,1.86,20.22,1.06,30.36,1,3.45,0,3.53-2.64,3.53-5.19q0-17.72,0-35.44c0-6.48.24-6.68,6.59-6.72,10.06,0,10.06,0,10.06,10.2v21.81Z" transform="translate(716.42 -163.04)"/><path d="M508.88,226.51c-11.05,0-22.1-.11-33.14.06-3.7.06-5.1-1.17-5.08-4.94q.18-27,0-54c0-3.21.85-4.81,4.38-4.51a62.4,62.4,0,0,0,9.07,0c3.81-.23,5,1.53,5,5.14-.12,12-.05,23.91,0,35.86,0,6.46,0,6.47,6.65,6.47,15.44,0,30.87,0,46.3,0,5.41,0,6,.68,6.1,6,.18,9.86.18,9.86-9.74,9.86Z" transform="translate(716.42 -163.04)"/><path d="M235.08,163.16c10.75,0,21.5.12,32.25,0,4-.07,5.57,1.54,5.34,5.35-.05.75,0,1.51,0,2.27,0,7.78-.49,8.25-8.15,8.27-5,0-10,.22-15-.07-4.28-.25-5.89,1.14-5.79,5.61.26,12.26-.08,24.53.19,36.79.09,4.29-1.35,5.7-5.47,5.24a42.24,42.24,0,0,0-7.71,0c-3.9.28-5.4-1.34-5.35-5.27.14-12.11-.13-24.23.12-36.34.1-4.53-1.27-6.29-5.92-6-5.43.33-10.9,0-16.35.09-4.14.11-6-1.4-6-5.83,0-10-.15-10,9.69-10Z" transform="translate(716.42 -163.04)"/></svg>