<svg id="Layer_1" data-name="Layer 1" xmlns="http://www.w3.org/2000/svg" viewBox="0 0 1350.34 712.16"><defs><style>.cls-1{fill:#e7e6e6;}.cls-2{fill:#acacac;}.cls-3{fill:#ababab;}.cls-4{fill:#bb74ae;}.cls-5{fill:#010101;}.cls-6{fill:#020202;}.cls-7{fill:#030303;}.cls-8{fill:#060606;}.cls-9{fill:#090909;}.cls-10{fill:#fff;}.cls-11{fill:#fefefe;}.cls-12{fill:#fafafa;}.cls-13{fill:#f4f4f4;}.cls-14{fill:#0a0a0a;}.cls-15{fill:#e1e1e1;}</style></defs><title>deha</title><path class="cls-1" d="M-714.84,729.53h-1.58C-715.9,728.14-715.38,728.11-714.84,729.53Z" transform="translate(716.42 -17.38)"/><path d="M633.92,322.08c-.77.05-1.54.13-2.31.13h-40.7c-.79,0-1.56.11-1.54-1.13,0-1.41.07-1.58,1.5-1.67a15.55,15.55,0,0,0,4.34-.68c2.66-.94,3.81-2.81,3.3-5.59a12.36,12.36,0,0,0-1-3.08c-2.63-5.51-5.35-11-8-16.52a2.17,2.17,0,0,0-2.31-1.41q-17.69.06-35.36,0a2.1,2.1,0,0,0-2.28,1.43c-2.48,5.58-5.08,11.12-7.64,16.67-.13.28-.22.58-.33.87-1.66,4.43-.27,7,4.34,8a23.2,23.2,0,0,0,2.77.28c1.47.14,1.46.22,1.52,1.66,0,1.19-.63,1.17-1.46,1.17q-12.45,0-24.89,0c-.93,0-1.45-.16-1.42-1.26s.19-1.59,1.39-1.58a15.26,15.26,0,0,0,3.23-.32c5.44-1.07,9.15-4.32,11.44-9.27,3-6.47,5.92-12.95,8.88-19.43q12.93-28.31,25.86-56.6c1.3-2.84.53-2.27,3.68-2.45,1.86-.12,2.82.48,3.68,2.22q18.43,37.26,37,74.43a24.64,24.64,0,0,0,3.69,5.88,15.71,15.71,0,0,0,12.56,5.44Z" transform="translate(716.42 -17.38)"/><path class="cls-2" d="M118.47,234.09c-.79.33-1.59,0-2.39,0v-2.79H117C117,232.56,118,233.15,118.47,234.09Z" transform="translate(716.42 -17.38)"/><path class="cls-3" d="M116.08,319.75l.57.09a1.68,1.68,0,0,1,0,2.19l-.53.05Z" transform="translate(716.42 -17.38)"/><path class="cls-4" d="M432.45,114.56c2.24-.73,4-2.22,6-3.42,11.39-6.93,22.8-13.81,34.83-19.59A41.71,41.71,0,0,1,486,87.31a13.91,13.91,0,0,1,7.28.94,7.73,7.73,0,0,1,4.4,4.83,15.12,15.12,0,0,1,.11,8.46c-1.07,4.9-3.32,9.32-5.76,13.65-5.48,9.72-11.44,19.15-16.8,28.94-5.22,9.53-10,19.24-13.27,29.64a59.29,59.29,0,0,0-3,16.86A31.52,31.52,0,0,0,460.78,202c.13.36.19.75.33,1.34a30.83,30.83,0,0,1-10.77-2.85c-7.51-3.57-11.86-9.42-12.83-17.77-.88-7.61.7-14.87,3.66-21.73a196.77,196.77,0,0,1,17.51-32c2.43-3.62,4.49-7.42,5.22-11.81a6.35,6.35,0,0,0-.84-4.89,4.62,4.62,0,0,0-3.77-2,18.34,18.34,0,0,0-8.7,2.18c-7.65,3.59-15.26,7.24-22.68,11.3a24.12,24.12,0,0,0-7.44,6.88,265,265,0,0,1-27.11,30.58,198.19,198.19,0,0,1-38.64,29.24,67.52,67.52,0,0,1-27.93,8.77c-18.41,1.56-34.66-3.94-49.29-14.88C268,177.38,263,167.8,261.13,156.29a55.57,55.57,0,0,1,2.57-28.81,57,57,0,0,1,21.49-27.35c9.38-6.56,19.89-10.23,31.12-12.12a90.45,90.45,0,0,1,21.55-.79,82.15,82.15,0,0,1,26.69,6.62,79.48,79.48,0,0,1,27.56,19.76c2,2.22,3.85,4.61,5.78,6.92.76-.24.85-.92,1.09-1.45a299.79,299.79,0,0,0,13.21-33.72A233.08,233.08,0,0,0,419,56.46c1.25-7.09,2.2-14.22,3.09-21.35.66-5.22,1.06-10.47,1.55-15.71.18-1.9.21-2,2-2q15.35,0,30.7,0c1.64,0,1.67.06,1.69,1.73,0,4.57-.41,9.12-.82,13.67-.54,5.94-1.38,11.83-2.4,17.7a203.31,203.31,0,0,1-11.69,41.72,157.72,157.72,0,0,1-9.82,20.27c-.37.65-.95,1.25-.86,2.1Z" transform="translate(716.42 -17.38)"/><path d="M443.31,273.46H468c2,0,2,0,2.05-2V245.39a14,14,0,0,0-.58-4.12c-1.38-4.54-4.9-6.33-9.2-7.07-.53-.09-1.08-.1-1.62-.14-2.13-.17-2.17-.22-2.19-1.54,0-1.82,1.35-1.14,2.16-1.14,10.93,0,21.86,0,32.79,0,3.34,0,6.67.06,10,0,1.24,0,1.39.52,1.37,1.53,0,.85-.43,1-1.14,1.08a26.87,26.87,0,0,0-4.37.52c-4.9,1.29-7.52,4.32-8,9.34-.07.85-.06,1.71-.06,2.56v60.93a20,20,0,0,0,.21,3.71c.88,4.56,3.51,7.28,8,8.24a14.86,14.86,0,0,0,4.15.47c1-.08,1.09.48,1.11,1.28s-.26,1.31-1.17,1.23c-.47,0-.93,0-1.4,0H459c-.46,0-.93,0-1.39,0-1,.1-1.19-.38-1.19-1.23s.18-1.3,1.16-1.27a16.45,16.45,0,0,0,5.48-.82,9.13,9.13,0,0,0,6.69-7.83,19.68,19.68,0,0,0,.26-2.77q0-15,0-30c0-2,0-2.05-2-2.05H418.46c-1.84,0-1.85,0-1.86,1.95,0,9.84.12,19.69,0,29.53-.12,7.46,3.67,11.34,11.21,11.95.31,0,.62,0,.93,0,1.4.09,1.56.31,1.45,1.65,0,.58-.28.84-.84.85H386.05c-.38,0-.77,0-1.16,0-.93.06-1.16-.41-1.17-1.27s.33-1.24,1.22-1.23a16.53,16.53,0,0,0,5.71-.9,9.13,9.13,0,0,0,6.46-8,32.57,32.57,0,0,0,.22-3.95q0-30,0-60A22,22,0,0,0,397,242c-1-4.46-4.53-7.25-9.81-7.84-.77-.08-1.55-.13-2.32-.15-1.15,0-1.07-.84-1.09-1.64s.46-1,1.17-1c.47,0,.93,0,1.4,0h41.16c.47,0,.93,0,1.4,0,.81,0,1.3.13,1.29,1.12s-.13,1.43-1.22,1.49a21.12,21.12,0,0,0-4.6.56c-4.8,1.3-7.5,4.54-7.71,9.52-.09,2.24,0,4.49,0,6.74v20.47c0,2.27-.32,2.21,2.29,2.21Z" transform="translate(716.42 -17.38)"/><path d="M116.61,322l0-2.19c1.53-.19,3.08-.31,4.6-.58,5.86-1.05,8.93-4.64,9.11-10.57,0-.39,0-.78,0-1.16V245.66c-.06-6.73-3.36-10.51-10-11.46-.61-.09-1.23-.08-1.85-.11-2-.59-2-.59-1.46-2.74,19.77,0,39.54-.12,59.3.09a63.56,63.56,0,0,1,35.86,11.14c9.11,6.24,15.85,14.51,18.68,25.26,3.78,14.37.3,27.17-10,37.93-10.58,11.06-23.73,16.33-38.92,16.42-21.16.12-42.32,0-63.49,0A16.19,16.19,0,0,1,116.61,322Z" transform="translate(716.42 -17.38)"/><path d="M307.36,322.22H263.17c-.55,0-1.09,0-1.63,0-.81,0-1.32-.1-1.29-1.11s.1-1.43,1.22-1.44a17.69,17.69,0,0,0,5.25-.9,9.59,9.59,0,0,0,7.13-9.27c0-.7,0-1.39,0-2.09V246.23c0-.54,0-1.08,0-1.63-.19-6-3.47-9.61-9.47-10.42-.92-.12-1.85-.12-2.78-.22-1.32-.14-1.51-.45-1.35-1.8.06-.58.32-.81.87-.8h84.2c.39,0,.78,0,1.16,0,.87-.08,1.23.26,1.29,1.16.45,6.34,1,12.68,1.41,19,.1,1.48-.78,2.12-2.29,1.82-.51-.1-.54-.45-.61-.83-.17-1-.29-2-.53-3a17.78,17.78,0,0,0-11.17-13,33.12,33.12,0,0,0-12.27-2.31c-9.14-.09-18.29,0-27.44,0-1.84,0-1.87,0-1.87,1.95v34c0,1.77,0,1.8,1.76,1.8q6.75,0,13.49,0a19.52,19.52,0,0,0,7.05-1.29c4.41-1.71,6.73-5,7.34-9.62a8.12,8.12,0,0,0,.09-1.39c-.07-1.53,1-1.18,1.91-1.26,1.18-.11,1.18.62,1.18,1.46q0,13.72,0,27.45c0,.89-.08,1.53-1.22,1.43-.9-.08-1.93.24-1.9-1.28a10.89,10.89,0,0,0-.25-2.54c-1.18-5.57-5.1-9-11.28-9.72-5.64-.68-11.31-.27-17-.38-.9,0-1.27.36-1.21,1.24,0,.46,0,.93,0,1.4q0,12.9,0,25.82c0,1.08.09,2.16.19,3.24A12.17,12.17,0,0,0,300,316.4a23.61,23.61,0,0,0,8.59,2.73,66.2,66.2,0,0,0,27.4-1.71,30.57,30.57,0,0,0,4.33-1.64c7.75-3.57,12.15-9.59,13.12-18.08.19-1.6.38-1.68,1.84-1.51,1.21.15,1,.95.95,1.7L355,314.36c-.15,2.16-.35,4.33-.45,6.49-.06,1.11-.53,1.52-1.61,1.38a10.73,10.73,0,0,0-1.39,0Z" transform="translate(716.42 -17.38)"/><path class="cls-5" d="M445.62,357.76c-.75,4.24-1.4,7.89-2.05,11.54a2.31,2.31,0,0,1-3.35,1.81c-.61-.25-.43-.74-.34-1.17q.72-3.88,1.48-7.76c1-4.85,1.94-9.7,3-15.14,2.88,5.86,5.08,11.5,7.84,17.22,2.68-5.78,5.24-11.29,7.79-16.8l.37.05c1.38,7.8,2.77,15.61,4.15,23.38a2.85,2.85,0,0,1-.58.23c-2.87.24-2.9.24-3.38-2.55-.56-3.35-1.08-6.71-2-10.2l-6.43,13.84Z" transform="translate(716.42 -17.38)"/><path class="cls-5" d="M291.52,372.15,275.86,356c-.61.61-.41,1.26-.41,1.82,0,4,0,8.05,0,12.07,0,.53.12,1.22-.64,1.26s-1.87.33-2.69-.26c-.17-.13-.15-.57-.15-.87,0-7.43,0-14.86,0-22.87,5.63,5.66,10.74,11.15,16,16.5.78-.49.5-1.17.5-1.72,0-3.95,0-7.9,0-11.85,0-.5-.2-1.24.54-1.33a4.64,4.64,0,0,1,2.71.14c.29.15.23.55.23.85V372Z" transform="translate(716.42 -17.38)"/><path class="cls-5" d="M512,347.53l15.59,16.15c.77-.34.48-1,.49-1.43,0-3.95,0-7.9,0-11.85,0-.57-.3-1.4.43-1.64a4.19,4.19,0,0,1,2.73,0c.54.21.31,1,.32,1.49,0,5.35,0,10.69,0,16v6.31L515.4,355.93l-.45.21v6.17c0,2.48,0,5,0,7.44,0,1.42-.06,1.4-1.68,1.42-1,0-1.76,0-1.74-1.41.08-5.5,0-11,0-16.5v-5.55Z" transform="translate(716.42 -17.38)"/><path class="cls-5" d="M579.55,347.5l16.14,16.71v-4c0-3.41,0-6.82,0-10.22,0-.91.16-1.4,1.25-1.4,2.16,0,2.17-.09,2.17,2.1q0,9.87,0,19.75a2.18,2.18,0,0,1-.34,1.73l-16.09-16.61v2.8c0,3.72,0,7.44,0,11.16,0,1.61,0,1.61-1.72,1.63s-1.83,0-1.84-1.5q0-11,0-22Z" transform="translate(716.42 -17.38)"/><path class="cls-5" d="M331.43,362.63c-1.55,0-2.94,0-4.33,0-.89,0-1.19-.28-1.21-1.2,0-2-.06-2.06,2-2.07s4,.07,6.05,0c1.2-.05,1.39.46,1.39,1.5a10.5,10.5,0,0,1-14.07,10.22,11.06,11.06,0,0,1-8-9.84A11.75,11.75,0,0,1,332,350.54a9.27,9.27,0,0,1,2.2,2.18c-.49,1-1.49,1.47-2.17,2.36-.88-.79-1.56-1.51-2.34-2.1a8.07,8.07,0,0,0-9.92.31,8.58,8.58,0,0,0-2.43,10.09,8.37,8.37,0,0,0,8.7,4.83C328.81,367.75,330.79,365.8,331.43,362.63Z" transform="translate(716.42 -17.38)"/><path class="cls-6" d="M182.69,359.83c0-3.25,0-6.5,0-9.76,0-1.12.35-1.48,1.46-1.46,3.25.06,6.51.11,9.76,0,1.55-.06,1.33.81,1.38,1.75s-.09,1.6-1.35,1.54c-2.08-.11-4.18,0-6.27-.06-1.18-.05-1.39.41-1.42,1.48-.08,3.89-.12,3.89,3.85,3.89h3c2,0,2,0,2,1.58s0,1.67-1.89,1.68-3.72,0-5.58,0c-.91,0-1.44.13-1.39,1.24.08,1.7,0,3.41,0,5.11,0,.9.32,1.22,1.23,1.2,2.17-.05,4.34.06,6.51,0,1.33-.06,1.28.68,1.28,1.59s.06,1.66-1.27,1.63c-3.33-.07-6.67,0-10,0-1,0-1.34-.34-1.33-1.35C182.72,366.5,182.69,363.17,182.69,359.83Z" transform="translate(716.42 -17.38)"/><path class="cls-6" d="M149.07,359.85c0-3.25,0-6.51,0-9.76,0-1.08.27-1.5,1.43-1.48,3.25.07,6.5,0,9.75,0,1.42,0,1.38.05,1.42,1.68,0,1-.09,1.61-1.35,1.55-2.08-.09-4.18,0-6.27,0-1,0-1.57.15-1.54,1.38.13,4.88-.62,3.87,3.83,4,1.16,0,2.33,0,3.49,0,1.53,0,1.53.05,1.54,1.56s0,1.67-1.65,1.69c-1.93,0-3.87,0-5.81,0-.95,0-1.43.26-1.39,1.31.06,1.62.05,3.25,0,4.88,0,1,.31,1.39,1.33,1.36,2.17-.05,4.34.05,6.51,0,1.28-.06,1.33.61,1.32,1.57s0,1.66-1.29,1.64c-3.32-.06-6.65-.05-10,0-1,0-1.35-.34-1.33-1.34C149.1,366.51,149.07,363.18,149.07,359.85Z" transform="translate(716.42 -17.38)"/><path class="cls-5" d="M406.79,360c0-3.25,0-6.51,0-9.76,0-1.09.13-1.69,1.49-1.64,3.17.11,6.35,0,9.53,0,1.54,0,1.54.05,1.56,1.54s0,1.65-1.65,1.67c-2,0-4,0-6,0-1,0-1.56.17-1.53,1.39.16,4.89-.71,3.85,3.81,4,1.32,0,2.64,0,3.95,0s1.05,1,1.1,1.77.06,1.54-1.13,1.51c-2.16-.05-4.33,0-6.5,0-.89,0-1.24.32-1.22,1.23.05,1.7.05,3.41,0,5.11,0,.91.36,1.22,1.24,1.21,2.09,0,4.18,0,6.27,0,1,0,1.84-.09,1.73,1.41-.12,1.69,0,1.75-1.61,1.76-3.18,0-6.35,0-9.53,0-1.09,0-1.5-.29-1.48-1.43C406.83,366.51,406.79,363.25,406.79,360Z" transform="translate(716.42 -17.38)"/><path class="cls-5" d="M633.37,348.66l0,3.16c-2.47,0-4.95.06-7.42,0-1,0-1.36.31-1.33,1.33.13,5-.71,3.9,3.73,4,1.09,0,2.17,0,3.25,0,1.83,0,1.83,0,1.82,1.95a1.91,1.91,0,0,1-.33,1.32c-2.22,0-4.61,0-7,0-1.06,0-1.56.27-1.49,1.44.09,1.46,0,2.93,0,4.4,0,1.66,0,1.66,1.63,1.71,2.4.07,4.79-.15,7.18.13,0,2.93,0,2.93-2.94,2.93h-7.89c-.76,0-1.36,0-1.35-1.06.1-7.12-.15-14.24.15-21.35Z" transform="translate(716.42 -17.38)"/><path class="cls-7" d="M117.09,360c0-3.25,0-6.5,0-9.75,0-1.21.35-1.62,1.57-1.59q4.31.12,8.59,0c1.33,0,1.3.71,1.3,1.63s.08,1.7-1.27,1.64c-1.85-.08-3.71,0-5.57,0-.8,0-1.11.3-1.09,1.08,0,1.08,0,2.17,0,3.25,0,.84.42,1,1.16,1,1.78,0,3.56,0,5.34,0,1.44,0,1,1,1.09,1.78s0,1.54-1.15,1.5c-1.7-.05-3.41,0-5.11,0-1,0-1.36.31-1.34,1.32,0,2.64,0,5.27,0,7.9,0,1.48-.11,1.48-1.85,1.51-1.07,0-1.73-.1-1.69-1.48C117.15,366.46,117.09,363.2,117.09,360Z" transform="translate(716.42 -17.38)"/><path class="cls-7" d="M374.77,359.81c0-3.25,0-6.51,0-9.76,0-1.14.38-1.46,1.48-1.44,2.86.07,5.72,0,8.59,0,1.34,0,1.34.13,1.38,1.74,0,1.06-.24,1.56-1.42,1.5-1.7-.09-3.41,0-5.11,0-.92,0-1.37.17-1.42,1.25-.22,4.1-.26,4.1,3.93,4.1H384c2,0,2,.14,1.9,2.16,0,.8-.32,1.12-1.09,1.11-1.71,0-3.41,0-5.11,0-1.11,0-1.5.35-1.48,1.46.07,2.63-.05,5.27.05,7.9.06,1.51-.84,1.36-1.79,1.37s-1.81.1-1.77-1.39C374.84,366.47,374.77,363.14,374.77,359.81Z" transform="translate(716.42 -17.38)"/><path class="cls-5" d="M216.44,360c0-3.17,0-6.35,0-9.52,0-.59-.3-1.43.36-1.7a3.94,3.94,0,0,1,2.71,0c.58.19.34,1,.35,1.47,0,4.88,0,9.76,0,14.64v1.39c0,1.68,0,1.69,1.63,1.72,1.24,0,2.48.08,3.72,0s1.44.49,1.38,1.53c-.06.87.1,1.71-1.25,1.68-2.55-.07-5.11-.06-7.66,0-1.1,0-1.27-.5-1.27-1.42C216.46,366.51,216.44,363.26,216.44,360Z" transform="translate(716.42 -17.38)"/><path class="cls-8" d="M249.94,360c0,3.18,0,6.35,0,9.53,0,.56.31,1.38-.56,1.54a4.23,4.23,0,0,1-2.72-.13c-.41-.21-.25-.7-.26-1.06,0-6.66,0-13.32,0-20,0-1.06.42-1.29,1.38-1.3,2.18,0,2.19-.08,2.19,2.11C250,353.81,249.94,356.91,249.94,360Z" transform="translate(716.42 -17.38)"/><path class="cls-8" d="M553.56,360c0-3.25,0-6.51,0-9.76,0-.56-.3-1.39.58-1.53a4.48,4.48,0,0,1,2.71.13c.38.19.25.7.25,1.08,0,6.66,0,13.32,0,20,0,1.09-.48,1.27-1.4,1.29-2.12.05-2.17.05-2.18-2.13C553.55,366,553.56,363,553.56,360Z" transform="translate(716.42 -17.38)"/><path class="cls-8" d="M486,359.76c0-3.25.07-6.5,0-9.74-.05-1.47.74-1.43,1.73-1.4s1.84-.19,1.83,1.31q-.08,10,0,20c0,1.53-1,1.25-1.86,1.29s-1.74,0-1.7-1.44C486,366.42,486,363.09,486,359.76Z" transform="translate(716.42 -17.38)"/><path class="cls-9" d="M621.06,242.6a7.06,7.06,0,1,1,7.13-7.06A7,7,0,0,1,621.06,242.6Z" transform="translate(716.42 -17.38)"/><path class="cls-10" d="M569.05,251.37c6.19,12.82,12.24,25.32,18.37,38H551.63Z" transform="translate(716.42 -17.38)"/><path class="cls-10" d="M286.27,153.5c-.45-12.2,4.55-22.82,11.42-32.72a53.08,53.08,0,0,1,38.39-23.06,60.87,60.87,0,0,1,30.08,3.84c11.82,4.78,21.22,12.62,28.69,22.88a2.66,2.66,0,0,1,.21,3.15A192.21,192.21,0,0,1,371.84,165c-9.39,11.6-21,20.17-35.27,24.69-9.82,3.11-19.68,3.19-29.3-.93-10.6-4.54-17.39-12.37-20-23.73A47.55,47.55,0,0,1,286.27,153.5Z" transform="translate(716.42 -17.38)"/><path class="cls-11" d="M432.45,114.56l-.2.22s0-.13,0-.15a1.17,1.17,0,0,1,.2,0Z" transform="translate(716.42 -17.38)"/><path class="cls-10" d="M149.44,271V237c0-.55,0-1.09,0-1.63-.05-.86.24-1.26,1.19-1.23,2.09.05,4.18,0,6.28,0,5.27,0,10.53-.1,15.75.87a55.09,55.09,0,0,1,16.08,5.16c13.6,7.25,21.6,18.44,23.27,33.91a42.35,42.35,0,0,1-3.4,22.48c-5.93,13-16,20.55-30.31,22.25a50.17,50.17,0,0,1-17.11-.47A19.7,19.7,0,0,1,157,317c-4.69-2.22-7.37-5.9-7.47-11.11-.16-7.67-.09-15.35-.11-23C149.43,278.89,149.44,274.93,149.44,271Z" transform="translate(716.42 -17.38)"/><path class="cls-12" d="M617.16,239.73c-2.47-2.56-2.55-6-.19-8.37a5.93,5.93,0,0,1,8.14,0c2.43,2.32,2.39,5.7-.1,8.37-.66.21-.92-.36-1.33-.66-1.19-1.3-2-2.53-.85-4.45.78-1.27-.37-2.07-1.58-2.47-2.9-.21-3-.16-3,2.75a30.87,30.87,0,0,1,0,3.19C618.14,238.74,618.31,239.68,617.16,239.73Z" transform="translate(716.42 -17.38)"/><path class="cls-13" d="M617.16,239.73c.7-.6.43-1.42.45-2.15,0-1.61,0-3.22,0-4.83,0-.63.06-1.34.88-1.34,1.12,0,2.29-.42,3.33.36-3.24.36-3.46,2.6-3.2,5.12,1.09-1.82,2.12-.82,3.19.05.77.62.9,2.05,2.33,1.86l.86.9C622.33,242,619.83,242,617.16,239.73Z" transform="translate(716.42 -17.38)"/><path class="cls-14" d="M624.15,238.8c-.35,1.12-1,.79-1.51.22a7.93,7.93,0,0,1-.86-1.37,3.31,3.31,0,0,0-1.07-1.19c-.86-.46-1.41-.12-1.55.88-.09.71.38,2-.5,2-1.25,0-.62-1.3-.67-2-.1-1.47,0-2.94,0-4.41,0-.78.27-1.12,1.08-1.08s1.86,0,2.79,0c2.59,1.26,2.72,2.38.42,4.45Z" transform="translate(716.42 -17.38)"/><path class="cls-15" d="M620.76,235.12c-1,0-1.63,0-1.64-1s.53-1.3,1.43-1.23,1.84.06,1.82,1.21S621.24,235,620.76,235.12Z" transform="translate(716.42 -17.38)"/></svg>