<svg id="Layer_1" data-name="Layer 1" xmlns="http://www.w3.org/2000/svg" viewBox="0 0 1315.23 719.07"><defs><style>.cls-1{fill:#e7e6e6;}</style></defs><title>kappa</title><path class="cls-1" d="M-714.84,729.53h-1.58C-715.9,728.14-715.38,728.11-714.84,729.53Z" transform="translate(716.42 -10.46)"/><path d="M579.08,215.93C567,215.61,555,214.44,543,214.59c-5.27.07-8.21-3.24-7.74-9.08.4-5-1.64-8.44-4.85-11.84C524,187,516.46,181.89,509.2,176.4c-7.51-5.68-14.42-11.76-18.71-20.4-1.67-3.38-3.09-3.32-5,0-6.73,11.33-13.36,22.71-21.08,33.4-6.31,8.74-13.17,17-22.25,23.06A25.78,25.78,0,0,1,427,217c-7.39-.12-14.79.4-22.17-.37-9.33-1-14-5.11-15.84-14.41-1.63-8.34-2.72-16.81-6-24.76-1.34-3.27-2.82-6.5-4.31-9.71-.31-.69-.56-1.69-1.57-1.62-.84.06-1,.93-1.21,1.58-2.92,8.62-7.82,16.22-12.39,24a31,31,0,0,1-6.23,7.4c-3.64,3.26-6.28,7.41-9,11.41a10.29,10.29,0,0,1-9,4.74c-7.49.12-15,.15-22.48.41-7.86.27-13.87-3.84-18.88-9.55a63.78,63.78,0,0,1-7.83-11.55q-12.06-22-24.09-44c-1.73-3.17-3-3.43-5-.54-9.4,13.33-22.09,23.38-34.06,34.12-5.31,4.77-8.5,10-6.77,17.32a13.93,13.93,0,0,1,.13,3.93c-.3,5.86-2.77,8.2-8.64,8.07-3.74-.08-7.48-.41-11.22-.58a83.48,83.48,0,0,0-22.33,1.86,31.27,31.27,0,0,1-20.17-2.41c-2-.91-3.74-2-3.73-4.63a3.76,3.76,0,0,0-1.51-2.54c-2.37-2.43-1.88-4.83,1.31-6.05,2.55-1,5.25-1.57,7.75-2.65,7.66-3.29,14.58-7.93,21.71-12.18,6.78-4,13.51-8.14,19.38-13.56,9.05-8.36,15.77-18.42,22-28.92,4.18-7.05,8.57-14,12.93-20.93a6.64,6.64,0,0,0,.72-5.53c-.61-2.35-1.37-4.68-1.77-7.06-.59-3.55,0-6.89,2.68-9.55.57-.56,1.29-1.4,1.92-1.39,3.72.09,6.74-2,10.11-3a7,7,0,0,1,5,.49,10.43,10.43,0,0,0,2,.82c6.74,1.72,19.7-4.06,22.73-10.36a98.87,98.87,0,0,0,7.94-23.23c.73-3.69.45-7.22-2.4-10.19-1.77-1.84-1-4,.43-5.48A16.69,16.69,0,0,0,292,34.81a13.45,13.45,0,0,0-.69-5.63A5.43,5.43,0,0,1,292.57,23a73.18,73.18,0,0,1,10.51-9.18c3.18-2.36,7.34-1.94,11.17-1.94a15.8,15.8,0,0,0,6.54-.89,4.32,4.32,0,0,1,2.93-.44c4.81,2,10.31,2.46,14.35,6.14s4.83,8.9,5.89,14.19c1.41,7,.91,14,.43,20.83-.31,4.27,1.06,7.58,1.74,11.32.51,2.78,1.37,5.52,1.22,8.39a4.23,4.23,0,0,0,1.9,3.62c5.67,4.42,9.46,10.2,12.3,16.7,2.93,6.72,7.85,12.29,11.1,18.83.77,1.56,1.71,1.64,2.56,0a245.12,245.12,0,0,1,14.61-24.17c1.21-1.79,2-3.76,1.11-6a2.8,2.8,0,0,1,.29-2.64A5,5,0,0,0,392,73.2a3.29,3.29,0,0,1,1.4-3.74c2.21-1.52,2.1-3.54,1.12-5.64a30.39,30.39,0,0,0-2.24-4c-6.81-10.47-4.61-24.63,2.79-33.8,2.25-2.79,5-4.68,8.88-4.28a7.71,7.71,0,0,0,4.78-.57c4.7-2.82,9.79-2,14.8-1.78,4.24.17,8.94,3.66,10,7.66a17.28,17.28,0,0,0,3.93,7.72,10.28,10.28,0,0,1,1.8,3.8,4.2,4.2,0,0,0,2.74,3c3.29,1.1,4.34,3.64,3.74,6.73a13.36,13.36,0,0,0,1.37,8.79,7,7,0,0,1,.37,6.17c-.74,1.68-.06,3.16.66,4.64A204.3,204.3,0,0,0,460.5,89.53c4,6.23,8,12.44,10.25,19.59,1.32,4.11,10.2,7,14.28,4.85s8-3.45,12.47-3.09a4.76,4.76,0,0,0,3.26-1.42c2.66-2.12,5.33-1.55,7,1.45a7.2,7.2,0,0,1,.39,7c-3.51,6.43-1.26,11.07,3.18,16.28,7.48,8.79,13.38,18.8,19.59,28.53,6.79,10.63,14.07,21,24.61,28.22,9.1,6.23,18.79,11.58,28.26,17.25a14.55,14.55,0,0,0,5.73,1.9c1.2.15,2.61.26,2.73,1.85.11,1.41-1,2.16-2.09,2.73-2.53,1.29-5.3,1.19-8,1.22C581.11,215.94,580.09,215.93,579.08,215.93ZM322.75,137.25c-.13-3.36-2.29-5.58-2.83-8.37-.91-4.67-1.87-9.32-2.73-14-.46-2.46-1.59-3-3.83-1.81-5.1,2.68-10.24,5.3-15.43,7.82-2.37,1.15-2.2,2.56-.88,4.33,4.3,5.77,7.79,12.07,11.61,18.15,2.75,4.37,5.64,8.64,8.54,12.92.64,1,1.31,2.32,2.8,1.8,1.19-.41,1.44-1.68,1.47-2.8C321.63,149.13,321.52,142.94,322.75,137.25ZM459,131.06c-.14-1.15-.93-1.46-1.67-1.74q-9.8-3.7-19.59-7.37c-.73-.27-1.59-.7-2.27,0s-.13,1.57.11,2.29c.86,2.59,2,5.11,2.67,7.74,1.42,5.29-.31,8.59-5.33,10.65-.74.31-1.5.61-2.26.88a5.36,5.36,0,0,0-3.78,4.66,24.92,24.92,0,0,1-1.85,7.63,2.53,2.53,0,0,0,.81,3.26c1.13.94,2.48,1.57,3.9.75a14.72,14.72,0,0,0,3.11-2.39c8.27-8.32,16.28-16.9,24.88-24.89A14.21,14.21,0,0,0,459,131.06ZM434.32,75.12A4.5,4.5,0,0,0,433,76a17.56,17.56,0,0,0-3.56,7.58,3.52,3.52,0,0,0,1.4,3.76c4.64,3,9.32,6,14,9,.56.36,1.28.78,1.95.18s.37-1.31.1-2a83.52,83.52,0,0,0-9.16-17.33A5,5,0,0,0,434.32,75.12Zm-134,1.59c0,1.28.26,2.1,1.68,2,2-.14,5.34-2.47,5.05-3.66-.46-1.93-2-3.53-3.77-3.43C300.17,71.79,301,74.84,300.31,76.71Z" transform="translate(716.42 -10.46)"/><path d="M181.93,271.53c7-7.55,13.87-14.87,20.69-22.2q10.45-11.24,20.89-22.48a4.68,4.68,0,0,1,3.73-1.62c8.81,0,17.62-.06,26.43-.07.88,0,2.05-.31,2.52.6s-.61,1.59-1.2,2.21q-21.24,22.36-42.53,44.66c-1.73,1.8-1.61,3-.3,4.91q22.86,33.15,45.58,66.37c.35.5.67,1,1,1.52,1.23,1.74.81,2.52-1.34,2.51-6.48,0-13-.54-19.43.14-7,.74-10.86-1.94-14.52-7.81-9.33-14.94-19.52-29.34-29.29-44-1.32-2-2.27-2.13-3.86-.31-2.39,2.75-4.92,5.38-7.49,8-1.38,1.38-1.46,3-1.46,4.76q0,17.47,0,34.95c0,4.19-.11,4.29-4.22,4.3q-8.21,0-16.41,0c-3.92,0-4.05-.14-4.06-4.15q0-46.8,0-93.6c0-7.09.1-14.19,0-21.27-.06-2.72.74-3.79,3.6-3.69,5.77.19,11.56.19,17.32,0,2.9-.09,3.9.82,3.87,3.77-.12,13.07-.06,26.14,0,39.2A5.38,5.38,0,0,0,181.93,271.53Z" transform="translate(716.42 -10.46)"/><path d="M427.41,318q0-28.41,0-56.81c0-4.36.25-4.59,4.67-4.61,5.36,0,10.73.08,16.1-.05,2.93-.07,4.3.94,4.19,4-.06,1.74-.94,4.26.64,5.08,1.34.69,2.77-1.57,4.12-2.54,17.05-12.18,38.25-6.58,48.26,13.05,7,13.65,7.56,28.13,4.59,42.93-1.56,7.79-4.48,15-9.83,20.9-9.9,11-26.8,16-42.51,3.72-1-.75-1.86-1.57-2.84-2.28-.61-.44-1.06-1.56-2-1-.76.44-.48,1.47-.48,2.26,0,10.73,0,21.46,0,32.19,0,4.45-.22,4.65-4.61,4.66H432.22c-4.69,0-4.8-.11-4.81-4.72Q427.4,346.38,427.41,318Zm24.94-12.61a27,27,0,0,0,3.79,14.54c5.71,9.42,18.14,13.72,25.7.6,6.69-11.61,6-23.57-1.33-34.78-4.75-7.26-13.12-8.14-19.7-2.52C454.46,288.63,452.32,295.81,452.35,305.38Z" transform="translate(716.42 -10.46)"/><path d="M365,267.06c4.73-4.16,9.1-7.05,14.16-8.74a31.19,31.19,0,0,1,34.68,11c8.44,11,10.93,23.74,10.51,37.22a60.22,60.22,0,0,1-4,21.08c-5.08,12.49-13.59,20.87-27.44,23-9.32,1.41-16.71-2.69-23.75-7.95-1.2-.9-2.28-2-3.56-3.08-.87,1-.56,2.16-.56,3.18,0,10.73,0,21.47,0,32.2,0,4.42-.13,4.54-4.65,4.55-5.57,0-11.14-.07-16.71,0-2.5,0-3.35-1-3.34-3.43q.08-58,0-116c0-2.72,1.13-3.54,3.62-3.51,5.77.07,11.54.1,17.31,0,2.92-.06,4,1.2,3.81,4C364.83,262.44,365,264.34,365,267.06Zm33.86,34.71c.07-3.69-1.38-9.52-4.67-14.82-5-8-13.68-9.66-20.46-4-11,9.27-11.81,31.17-1.44,41.2,6.61,6.4,15.24,5.88,20.87-1.35C397.33,317.41,398.74,311.06,398.81,301.77Z" transform="translate(716.42 -10.46)"/><path d="M309.74,340.58c-11.63,14.11-36.4,12.3-47.4,3.74-9.35-7.27-12.21-17-10-28.42,2-10.52,8.75-16.49,18.93-19,7.3-1.81,14.8-2.21,22.18-3.46A36.09,36.09,0,0,0,302.5,291a11.45,11.45,0,0,0,4.58-3.41c2.23-2.89,2-5-.76-7.35-5.12-4.43-15-5.51-21-2.34a10.71,10.71,0,0,0-6.13,8.51c-.28,2.39-1.42,3.26-3.79,3.21q-7.76-.16-15.5,0c-2.53.05-3.46-.93-3.24-3.44.93-10.66,5.55-19.19,15.25-24,15.86-7.83,31.94-7.62,47.48.88,9.44,5.16,13.64,14,13.84,24.48.27,14.68.12,29.37.08,44.06,0,4.7.29,9.32,2.23,13.68.95,2.13,0,2.7-2,2.69-5.77,0-11.55-.18-17.32.07-3.4.14-5.11-1.24-5.72-4.42C310.39,342.71,310.09,341.85,309.74,340.58ZM309.53,312h-.07c0-1.11-.07-2.23,0-3.34.19-2.55-.78-3-3-2a62.7,62.7,0,0,1-10.46,3c-5.11,1.18-10.37,2-15,4.54a8.51,8.51,0,0,0-.77,14.77c10.77,7.56,27.08.76,29.09-12.16A45.73,45.73,0,0,0,309.53,312Z" transform="translate(716.42 -10.46)"/><path d="M572.5,340.88c-12.91,12.19-27.46,12.53-42.67,6.23C519,342.62,513.15,331.38,514.42,319c1.21-11.79,8-19.32,20-22.27,8.27-2,16.85-2.2,25.16-4,3.3-.7,6.51-1.69,9.06-4,3.71-3.38,3.59-6.42-.5-9.21-6-4.07-12.48-4.59-19.13-2.09a10.44,10.44,0,0,0-7.17,9c-.24,2.19-1.24,3.14-3.54,3.09q-7.6-.19-15.2,0c-2.63.07-3.66-.88-3.46-3.55.94-12.45,7.18-21.15,18.72-25.69,13.86-5.44,27.79-5.1,41.29,1.26,11.4,5.36,16.31,15,16.37,27.25q.1,21,0,41.94c0,5.19,0,10.34,2.49,15.11.79,1.52.06,2-1.39,2q-10,0-20.05,0c-1.72,0-2.56-1.08-3.08-2.48S573,342.43,572.5,340.88Zm-.44-28.7c0-1.31,0-2.63,0-3.94.07-1.92-.48-2.56-2.5-1.74a87.64,87.64,0,0,1-13.72,3.79c-4.24.95-8.54,1.78-12.37,4-5.7,3.23-5.83,12-.05,15,7.14,3.77,14.58,3.6,21.37-.72C570.59,324.86,572.42,318.87,572.06,312.18Z" transform="translate(716.42 -10.46)"/><path d="M190.08,235.29c0-3.64.07-7.28,0-10.91-.05-2,.66-3,2.73-3.08,6.88-.22,13.73.55,20.59.74,1.91.05,2,1.1.81,2.34q-11,11.75-22,23.46c-.4.42-.86,1-1.5.81-.88-.3-.62-1.19-.63-1.84C190.07,243,190.08,239.13,190.08,235.29Z" transform="translate(716.42 -10.46)"/></svg>