<?xml version="1.0" encoding="utf-8"?>
<!-- Generator: Adobe Illustrator 22.0.1, SVG Export Plug-In . SVG Version: 6.00 Build 0)  -->
<svg version="1.1" id="Layer_1" xmlns="http://www.w3.org/2000/svg" xmlns:xlink="http://www.w3.org/1999/xlink" x="0px" y="0px"
	 viewBox="0 0 750 490" style="enable-background:new 0 0 750 490;" xml:space="preserve">
<style type="text/css">
	.st0{display:none;}
	.st1{display:inline;}
	.st2{display:inline;fill:none;}
	.st3{display:inline;fill:#FEFEFE;}
	.st4{display:inline;fill:#000066;}
	.st5{display:inline;fill:#030367;}
	.st6{display:inline;fill:#FDFDFE;}
	.st7{display:inline;fill:#07076A;}
	.st8{display:inline;fill:#FAFAFC;}
	.st9{display:inline;fill:#ACACAC;}
	.st10{display:inline;fill:#ABABAB;}
	.st11{display:inline;fill:#BB74AE;}
	.st12{display:inline;fill:#010101;}
	.st13{display:inline;fill:#020202;}
	.st14{display:inline;fill:#030303;}
	.st15{display:inline;fill:#060606;}
	.st16{display:inline;fill:#090909;}
	.st17{display:inline;fill:#FFFFFF;}
	.st18{display:inline;fill:#FAFAFA;}
	.st19{display:inline;fill:#F4F4F4;}
	.st20{display:inline;fill:#0A0A0A;}
	.st21{display:inline;fill:#E1E1E1;}
</style>
<g class="st0">
	<path class="st1" d="M558.9,320.6c-22.8,0-45.6,0-68.4,0c-1.9,0.2-3.7-0.8-4.5-2.6c-48.4-84.6-96.8-169.1-145.4-253.6
		c-1.3-2.3-0.6-3,1.3-4c33.9-19.9,67.8-39.8,101.6-59.8c2.6-1.5,2.9-0.1,3.8,1.5C495.5,85.8,543.7,169.4,592,253l37.2,64.5
		c1.7,3,1.7,3-1.9,3L558.9,320.6L558.9,320.6z"/>
	<path class="st1" d="M299.7,327.4h30.3c0.1,7,0,14.1,0,21.1c0,1.9-0.4,2.7-2.6,2.6c-8.6-0.1-17.2-0.1-25.9,0
		c-2.2,0-2.5-0.8-2.4-2.7c0.1-4.4,0-8.7,0-15.1C299.6,331.4,299.8,329.4,299.7,327.4z"/>
	<path class="st1" d="M299.7,324.2"/>
	<path class="st1" d="M299.2,320c-24.9-43.3-56.6-99.1-81.3-142.5c-2.1-3.7-2.1-3.7,1.7-5.8c33.8-19.2,67.6-38.3,101.5-57.5
		c2.2-1.3,3.1-0.9,4.3,1.3c38.4,67.3,76.9,134.6,115.3,201.8c1.9,3.2,1.9,3.2-2,3.2c-35.1,0-70.2,0-105.3-0.1"/>
	<path class="st1" d="M254.3,373.4c0-9.2,0-18,0-26.8c0-7.5,0-15,0-22.5c0-1.8,0.5-2.5,2.4-2.5c8.7,0.1,17.4,0.1,26.2,0
		c2.6,0,2.4,1.3,2.4,3.1c0,18.2,0,36.3,0,54.5c0,34.8,0,69.6,0,104.4c0,2.8-0.7,3.6-3.5,3.5c-8.1-0.2-16.2-0.2-24.3,0
		c-2.5,0-3.5-0.6-3.2-3.2c0.1-1.4,0.1-2.8,0-4.3c-18.7,10.7-38,13.4-58.2,6.6c-13.1-4.4-24.3-13.2-31.7-24.9
		c-15.7-24.3-13.5-56.1,5.6-78C189.9,360.9,226.6,355.3,254.3,373.4z M183.3,426.3c0.2,19.5,16.1,35.2,35.6,35c0.3,0,0.7,0,1,0
		c18.9-0.4,34.8-17.5,34.3-36.7c-0.5-18.3-17.8-34.5-36.5-34C198.7,391,182.8,407.4,183.3,426.3L183.3,426.3z"/>
	<path class="st1" d="M442.7,479.5c-6.2,4.2-13.2,7.2-20.5,8.8c-35.1,8.2-70.2-13.7-78.4-48.8c-0.1-0.5-0.2-1.1-0.4-1.7
		c-6.9-33.8,16.3-67.7,50.7-73.9c14.6-2.7,28.9-1.5,42.3,5.6c1.3,0.7,2.4,1.5,3.6,2.2c0.7,0.4,1.4,1.6,2.3,1
		c0.9-0.5,0.4-1.7,0.4-2.6c0-15.1,0.1-30.2,0-45.3c0-2.4,0.5-3.3,3.1-3.3c8.3,0.2,16.7,0.1,24.9,0c2.1,0,2.8,0.5,2.8,2.7
		c-0.1,53.3-0.1,106.6,0,160c0,2.5-0.9,2.8-3,2.8c-8.1-0.1-16.2-0.2-24.3,0c-2.7,0-4-0.6-3.5-3.5
		C442.8,482.2,442.8,480.8,442.7,479.5z M407.5,390.5c-18.8-0.1-35.7,16.4-35.8,35c-0.1,19,16.1,35.6,35,35.7
		c19.5,0.2,35.6-15.5,35.8-35C442.7,406.7,427,390.7,407.5,390.5L407.5,390.5z"/>
	<path class="st1" d="M112.3,373c0-2.4,0-4.8,0-7.2c0-1.4,0.5-1.9,2-1.9c8.9,0,17.9,0,26.8,0c1.6,0,2.3,0.5,2.1,2.1
		c0,0.6,0,1.2,0,1.8c0,38.4,0,76.9,0,115.3c0,2.9-0.5,4-3.8,3.8c-8-0.3-16-0.2-24,0c-2.6,0-3.4-0.8-3.1-3.3c0.1-1.2,0.1-2.4,0-3.5
		c-1.1-0.5-1.6,0.3-2.3,0.7c-42,23.5-91.4-1.5-97.4-46.7c-4.5-34.3,18.2-64.8,52.2-70.7c15.3-2.9,31.2,0,44.5,8.2
		C110.1,372.5,111.2,373,112.3,373z M77,390.5c-18.7,0-35.6,16.7-35.7,35.2c-0.1,18.8,16.4,35.5,35.2,35.6
		c19.5,0.1,35.5-15.6,35.6-35.1C112.2,406.6,96.5,390.6,77,390.5L77,390.5z"/>
	<path class="st1" d="M584.5,373.4c0-2.9,0-5.3,0-7.7c-0.2-0.8,0.3-1.6,1.1-1.8c0.2-0.1,0.4-0.1,0.7,0c8.6,0,17.2,0,25.9,0
		c0.8-0.2,1.5,0.3,1.7,1.1c0.1,0.2,0.1,0.5,0,0.8c0,0.5,0,1,0,1.5c0,38.7,0,77.5,0,116.2c0,2.7-0.6,3.6-3.5,3.5
		c-7.7-0.2-15.4-0.2-23.1,0c-2.3,0-3.1-0.7-2.8-2.9c0.1-1.5,0.1-3.1,0-4.6c-18.4,10.6-37.4,13.4-57.4,6.9
		c-13.2-4.2-24.5-12.9-32-24.4c-15.9-23.5-14-55.9,3.8-77.3S553.9,353.6,584.5,373.4z M548.8,390.5c-19.5,0-35.3,15.9-35.3,35.5
		c0,19.5,15.9,35.3,35.5,35.3l0,0c19,0,35.7-16.7,35.5-35.6C584.3,406.8,567.5,390.5,548.8,390.5L548.8,390.5z"/>
	<path class="st1" d="M182.1,320.6c-22.8,0-45.6,0-68.4,0c-1.8,0.2-3.5-0.8-4.3-2.4c-5.7-10.6-11.6-21.1-17.5-31.6
		c-1-1.7-0.8-2.5,0.9-3.5c34.2-19.8,68.3-39.6,102.4-59.5c1.7-1,2.3-0.6,3.2,1c18.1,31.2,36.3,62.3,54.5,93.4
		c1.5,2.6,0.4,2.6-1.8,2.6C228.2,320.5,205.1,320.6,182.1,320.6z"/>
	<path class="st1" d="M642.6,447.2c4.7,0,9.3,0,14,0c1.3,0,2.1,0.1,2.2,1.7c0.9,10.4,7.5,15.4,17,17.5c5.9,1.5,12.2,1.2,17.9-0.9
		c3.2-1.1,6-3.1,8.2-5.6c4.7-5.5,3.6-11.5-2.8-14.9c-4.5-2.4-9.4-3-14.3-3.8c-11.5-1.9-23-3.7-34.1-7.4c-15.5-5.2-22.5-21-21.3-34.5
		c1.3-15.4,9.8-25.8,23.7-31.6c17.5-7.5,37.3-7.4,54.7,0.1c13.8,5.7,22.2,16.3,24.5,31.3c0.6,3.7,0.6,3.7-3.2,3.7
		c-8.2,0-16.4,0-24.6,0c-1.8,0-2.7-0.3-2.9-2.4c-0.9-8.3-5.1-12.6-13.6-13.9c-5.8-0.9-11.8-0.7-17.5,0.5c-3.2,0.5-6.2,2.2-8.2,4.8
		c-3.5,4.7-2.6,9.7,2.6,12.6c5.3,3.1,11.2,4,17.1,5c8.1,1.4,16.3,2.3,24.2,4.3c9.7,2.5,18.5,6.7,24.8,14.8
		c10.9,13.9,7.6,37.3-6.9,49c-7.5,6.1-16.4,9.2-25.8,10.6c-14.8,2.3-29.6,2.2-43.7-3.4c-16-6.3-25.8-17.7-28.2-35.1
		c-0.3-2.3,0.4-2.7,2.5-2.7C633.4,447.3,638,447.2,642.6,447.2z"/>
	<path class="st1" d="M330.3,424.1c0,19.5,0,38.9,0,58.4c0,2.6-0.4,3.5-3.3,3.5c-8.4-0.2-16.8-0.1-25.2,0c-2.1,0-2.7-0.7-2.7-2.8
		c0.1-39.5,0.1-78.9,0-118.3c0-2.4,0.8-2.8,3-2.8c8.4,0.1,16.8,0.1,25.2,0c2.4,0,3,0.7,3,3C330.2,384.8,330.3,404.5,330.3,424.1z"/>
	<path class="st1" d="M732.7,336.6c0.3,8.2-6.2,15.1-14.4,15.4c-0.3,0-0.7,0-1,0c-8.4-0.2-15.2-7-15.4-15.4c0-8,7.4-15.3,15.5-15.3
		c8.3-0.1,15.1,6.5,15.2,14.7C732.7,336.3,732.7,336.5,732.7,336.6z M729.6,336.8c0-7.7-5-13.1-12.1-13.2
		c-7.3-0.1-12.5,5.3-12.5,13.1c0,7.8,5.1,13.2,12.4,13.2C724.6,349.9,729.6,344.4,729.6,336.8L729.6,336.8z"/>
	<path class="st1" d="M723.3,344.7c-2.1,0.8-3.2,0.1-3.8-1.8c-0.4-1.3-1.1-2.4-1.6-3.6s-1.5-1.2-2.6-1.1c-1.5,0-1.1,1.2-1.1,2
		c0,1.1,0,2.2,0,3.3c0,0.7,0,1.5-1,1.5c-0.6,0.1-1.2-0.3-1.3-0.9c0-0.1,0-0.2,0-0.4c0-4.7,0-9.3,0-14c-0.1-0.6,0.2-1.1,0.8-1.3
		c0.1,0,0.1,0,0.2,0c2.4,0,4.9-0.5,7.2,0.3c3.1,1,4.6,5.2,2.4,7.4c-2,2-1.6,3.5-0.5,5.5C722.5,342.7,722.9,343.7,723.3,344.7z
		 M713.9,333.5c0,2.4,0.7,2.7,2.7,2.6s3.7,0.1,3.6-2.7c-0.1-2.8-1.8-2.8-3.7-2.8C714.2,330.4,713.8,331.4,713.9,333.5L713.9,333.5z"
		/>
	<line class="st2" x1="299.5" y1="325.9" x2="299.5" y2="325.9"/>
	<path class="st2" d="M329.9,327.4L329.9,327.4c0-1.1,0-2.2,0-3.3V327.4z"/>
</g>
<g class="st0">
	<path class="st3" d="M375.1,366.7c-123.7,0-247.5,0-371.2,0.1c-2.3,0-2.9-0.5-2.9-2.9c0.1-86.2,0.1-172.5,0-258.8
		c0-2.3,0.5-2.9,2.9-2.9c247.5,0.1,495,0.1,742.5,0c2.3,0,2.9,0.5,2.9,2.9c-0.1,86.3-0.1,172.5,0,258.8c0,2.3-0.5,2.9-2.9,2.9
		C622.6,366.7,498.8,366.7,375.1,366.7z"/>
	<path class="st4" d="M178.9,214.8c7.3-8.7,13.6-18.2,18.8-28.3c3.4-6.7,6-13.7,7.8-21c4.5-19.5-8.2-29.8-22.3-31.9
		c-14-2.1-27.3,1-40.4,5.4c-18.3,6.1-35.3,15.1-51.3,25.9c-1.1,0.7-2,2.3-3.5,0.1s0.2-2.5,1.2-3.3c23.6-18.9,49.5-33.5,79.1-40.8
		c13.8-3.4,27.9-5,42-1.6c18,4.3,29.6,17.9,31.2,36.4c1.4,15.4-2.8,29.7-8.6,43.6c-10.4,25.2-25.3,47.7-42.6,68.6
		c-20.8,25.1-44.2,47.3-72.2,64.2c-14.5,8.8-29.8,15.5-46.8,18.1c-11,1.6-21.8,1.2-32.3-2.8c-15.3-5.8-24.6-19.2-25-35.9
		c-0.3-15.8,4.5-30.1,12.4-43.5c14-24,34-42.1,57-57.2C99.7,200,117,191.4,136.2,187c9.1-2.1,18.3-3,27.5-0.3
		c12.4,3.6,18.2,13.6,15.3,26.2C178.9,213.3,178.9,213.6,178.9,214.8z"/>
	<path class="st4" d="M285.7,200c2.4-9.1,4.8-17.9,7.1-26.8c0.4-1.4,1.1-1.7,2.4-1.7c14.4,0.1,28.7-0.3,43.1,0.1
		c23.8,0.6,38.1,19.2,32.1,42.7c-8.1,31.9-16.9,63.6-25.4,95.5c-0.4,1.5-1.1,1.9-2.6,1.9c-18.7,0-37.5,0-56.2-0.1
		c-4.5-0.1-8.9-0.7-13.2-1.9c-20.4-5.6-30.8-23.9-25-44.5c4-14.1,13.3-24,25.4-31.6c12.1-7.8,26.3-11.9,40.8-11.6
		c6.9,0.1,13.7,0,20.6,0.1c1.8,0,2.6-0.5,3-2.3c0.7-3.1,1.8-6.2,2.1-9.4c0.5-5.6-2.4-9.4-8-9.8c-13.1-1.1-26.2-0.2-39.3-0.5
		C290.3,199.9,288.1,200,285.7,200z"/>
	<path class="st4" d="M360.1,311.6c2.5-9.2,5-18.1,7.2-27.1c0.5-1.9,1.6-1.5,2.8-1.5h39c3.3,0.1,6.7-0.3,9.9-1.1
		c4.7-1.3,7.3-4.6,8.4-9.1c1.1-4.3-1-7.4-4.1-10.1c-3.7-3.2-8-5.5-12.3-7.9c-5.4-2.8-10.7-6-15.7-9.5c-16.8-12.2-20.8-27-11.8-45.8
		c8.5-17.9,23.6-26.5,42.7-27.7c14.4-0.9,28.9-0.3,43.4-0.4c2,0,2.2,0.6,1.7,2.3c-2.2,8-4.4,16-6.4,24.1c-0.5,1.8-1.3,2.2-3,2.1
		c-12.7-0.1-25.4-0.1-38.1,0c-5.1,0-9.4,1.7-12.1,6.3c-2.1,3.5-1.8,6.1,0.9,9.1s6.1,5,9.5,6.9c6.9,4,14.1,7.4,20.7,12
		c9.1,6.3,15.5,14.4,16.3,25.9c0.5,7.6-1.6,14.6-4.4,21.5c-7.4,18.2-21.1,27.7-40.5,29.4c-2.4,0.2-4.8,0.4-7.2,0.5
		C391.6,311.7,376.1,311.6,360.1,311.6z"/>
	<path class="st4" d="M604.3,311.3c2.4-8.9,4.8-17.8,7.1-26.7c0.5-1.8,1.6-1.5,2.8-1.5c13,0,26,0,39,0c3.6,0,7.3-0.1,10.8-1.4
		c8.3-3,10.3-12.5,3.9-18.5c-3.8-3.5-8.3-5.8-12.8-8.3c-5.3-2.8-10.5-5.9-15.5-9.3c-17-12.3-21-27-12.1-46
		c7.4-15.8,20.5-24,37.2-27.2c3.7-0.6,7.4-0.9,11.2-0.8c12.4,0,24.8,0.1,37.1-0.1c2.6,0,2.8,0.7,2.2,3c-2.2,7.6-4.2,15.2-6.1,22.9
		c-0.5,2-1.3,2.8-3.5,2.8c-12.6-0.1-25.2-0.1-37.8-0.1c-5,0-9.2,1.6-12,6c-2.3,3.7-2.1,6.4,0.9,9.6c2.7,2.9,6.2,4.9,9.6,6.9
		c6.8,3.9,14,7.4,20.5,11.9c9.3,6.5,15.8,14.7,16.4,26.6c0.3,7.4-1.8,14.4-4.5,21.2c-8,19.8-23.5,28.8-44,29.4
		c-16.5,0.5-33.1,0.1-49.6,0.2C604.7,311.6,604.5,311.5,604.3,311.3z"/>
	<path class="st4" d="M572.4,311.6c-8,0.2-18.2,0.2-28.1-3.2c-19.1-6.5-31.1-23.2-31.8-44.1c-1.4-41.2,29.4-80.7,70.3-90.1
		c13.5-3.1,27.1-2.5,40.7-2.6c1.5,0,1.7,0.5,1.4,1.8c-2.3,8.3-4.6,16.6-6.7,25c-0.5,1.8-1.5,1.6-2.8,1.6c-6.9,0.1-13.7-0.2-20.6,0.4
		c-27.1,2.5-49.6,25.8-50.8,52.9c-0.8,16.7,10.9,29.4,27.6,29.7c8.1,0.2,16.2,0.1,24.3,0c2.1,0,2.4,0.6,1.9,2.5
		c-2.2,8-4.4,16-6.5,24.1c-0.4,1.6-1.1,2.2-2.7,2.1C583.9,311.6,579.2,311.6,572.4,311.6z"/>
	<path class="st4" d="M524.8,171.5c-3.2,12.5-6.4,24.6-9.6,36.8c-8.7,33.3-17.3,66.6-25.9,99.8c-0.7,2.6-1.6,3.6-4.5,3.6
		c-9-0.2-18.1-0.1-27.3-0.1l10.3-39.4c8.4-32.4,16.9-64.7,25.2-97.1c0.7-2.9,1.9-3.7,4.8-3.6c7.9,0.2,15.8,0.1,23.7,0.1L524.8,171.5
		L524.8,171.5z"/>
	<path class="st5" d="M719.4,283.6c7.7-0.1,14.1,6.1,14.1,13.8c0,0.1,0,0.1,0,0.2c0,7.8-6.3,14-14.1,14c-7.7,0-14-6.3-14-14.1
		C705.5,289.9,711.7,283.7,719.4,283.6z"/>
	<path class="st3" d="M89.2,283c-15.1,0.1-22.3-9.1-19.1-21.5c2.2-8.4,7-15.3,12.6-21.6c14.7-16.8,32-29.9,53.4-37.1
		c6.1-2.1,12.5-3.3,19-2.5c11,1.4,15.5,8,13,18.8c-1.4,6.3-4.4,12.2-8.6,17.1c-15.6,17.8-33.2,32.9-55,42.7
		C98.9,281.4,93.1,283,89.2,283z"/>
	<path class="st3" d="M305.7,283c-4.1,0-8.1,0.1-12.2,0c-9.8-0.2-15-7.8-11.8-17.2c3.1-8.9,12.2-15.4,22.6-15.8
		c7.7-0.3,15.4,0,23.1-0.1c1.9,0,1.9,0.6,1.5,2.2c-2.7,9.6-5.2,19.2-7.7,28.9c-0.1,1.3-1.3,2.2-2.5,2.1c-0.1,0-0.1,0-0.2,0
		C314.2,283,310,283.1,305.7,283L305.7,283L305.7,283z"/>
	<path class="st6" d="M719.4,285.5c6.7-0.1,12.2,5.3,12.2,12s-5.3,12.2-12,12.2c-6.7,0.1-12.2-5.3-12.2-12l0,0
		C707.4,291,712.7,285.6,719.4,285.5z"/>
	<path class="st7" d="M722.9,298.2c2.4,1.2,2.7,3.1,2.6,5.3c0,0.8,0.4,1.8-1,1.9s-1.5-0.8-1.5-1.8c0.1-3-1.3-4.3-4.3-4.3
		c-1.8,0-2.4,0.5-2.2,2.3c0,0.8,0,1.7,0,2.5c0.1,0.6-0.3,1.2-0.9,1.4c-0.1,0-0.2,0-0.4,0c-0.7,0.2-1.4-0.3-1.5-0.9
		c0-0.2,0-0.3,0-0.5c0-4.2,0-8.3,0-12.5c0-1.3,0.6-1.6,1.7-1.5c1.7,0.1,3.3,0,5,0.1c2.1,0.1,4.2,0.4,5,2.8
		C726.2,295.2,725.3,296.9,722.9,298.2z"/>
	<path class="st8" d="M718.6,291.7c2.3,0.2,4.5,0,4.4,2.8c-0.1,3-2.5,2.7-4.5,2.9c-3.1,0.3-1.6-2.1-1.9-3.4
		C716.1,291.8,717.4,291.5,718.6,291.7z"/>
</g>
<g class="st0">
	<path class="st1" d="M732.3,419.8c-1.1,0.1-2.1,0.2-3.2,0.2h-55.9c-1.1,0-2.1,0.2-2.1-1.6c0-1.9,0.1-2.2,2.1-2.3c2,0,4-0.3,6-0.9
		c3.7-1.3,5.2-3.9,4.5-7.7c-0.3-1.5-0.7-2.9-1.4-4.2c-3.6-7.6-7.4-15.1-11-22.7c-0.5-1.3-1.8-2.1-3.2-1.9c-16.2,0.1-32.4,0.1-48.6,0
		c-1.4-0.2-2.7,0.6-3.1,2c-3.4,7.7-7,15.3-10.5,22.9c-0.2,0.4-0.3,0.8-0.5,1.2c-2.3,6.1-0.4,9.6,6,11c1.3,0.2,2.5,0.3,3.8,0.4
		c2,0.2,2,0.3,2.1,2.3c0,1.6-0.9,1.6-2,1.6c-11.4,0-22.8,0-34.2,0c-1.3,0-2-0.2-2-1.7c0-1.5,0.3-2.2,1.9-2.2c1.5,0,3-0.1,4.4-0.4
		c7.5-1.5,12.6-5.9,15.7-12.7c4.1-8.9,8.1-17.8,12.2-26.7c11.8-25.9,23.7-51.9,35.5-77.8c1.8-3.9,0.7-3.1,5.1-3.4
		c2.6-0.2,3.9,0.7,5.1,3.1c16.9,34.1,33.8,68.2,50.9,102.3c1.3,2.9,3,5.6,5.1,8.1c4.3,5,10.7,7.8,17.3,7.5L732.3,419.8z"/>
	<path class="st9" d="M23.8,298.8c-1.1,0.5-2.2,0-3.3,0V295h1.3C21.8,296.7,23.1,297.6,23.8,298.8z"/>
	<path class="st10" d="M20.5,416.6l0.8,0.1c0.7,0.9,0.7,2.1,0,3l-0.7,0.1L20.5,416.6z"/>
	<path class="st11" d="M455.4,134.5c3.1-1,5.5-3.1,8.2-4.7c15.7-9.5,31.3-19,47.9-26.9c5.5-2.9,11.4-4.8,17.5-5.8
		c3.4-0.5,6.8,0,10,1.3c2.9,1.2,5.1,3.6,6,6.6c1.2,3.8,1.2,7.8,0.2,11.6c-1.5,6.7-4.6,12.8-7.9,18.8c-7.5,13.4-15.7,26.3-23.1,39.8
		c-7.2,13.1-13.7,26.4-18.2,40.7c-2.5,7.5-3.9,15.3-4.1,23.2c-0.1,5.3,0.7,10.6,2.5,15.6c0.2,0.5,0.3,1,0.5,1.8
		c-5.1-0.4-10.1-1.7-14.8-3.9c-10.3-4.9-16.3-12.9-17.6-24.4c-1.2-10.5,1-20.4,5-29.9c6.6-15.4,14.7-30.1,24.1-44
		c3.3-5,6.2-10.2,7.2-16.2c0.5-2.3,0.1-4.7-1.2-6.7c-1.2-1.7-3.1-2.7-5.2-2.7c-4.2,0-8.3,1-12,3c-10.5,4.9-21,10-31.2,15.5
		c-4,2.4-7.5,5.6-10.2,9.5c-11.3,14.9-23.8,29-37.3,42c-16,15.5-33.8,29-53.1,40.2c-11.8,6.8-24.9,10.9-38.4,12.1
		c-25.3,2.1-47.6-5.4-67.8-20.5c-13.1-9.6-19.9-22.8-22.5-38.6c-2.3-13.3-1.1-26.9,3.5-39.6c5.7-15.3,16-28.4,29.5-37.6
		c12.9-9,27.3-14.1,42.8-16.7c9.8-1.5,19.7-1.9,29.6-1.1c12.7,1,25.1,4,36.7,9.1c14.4,6.2,27.4,15.5,37.9,27.2
		c2.7,3.1,5.3,6.3,7.9,9.5c1-0.3,1.2-1.3,1.5-2c7-15.1,13-30.5,18.2-46.3c4-13,7.1-26.3,9.4-39.7c1.7-9.7,3-19.5,4.2-29.3
		c0.9-7.2,1.5-14.4,2.1-21.6c0.2-2.6,0.3-2.7,2.7-2.7c14.1,0,28.1,0,42.2,0c2.3,0,2.3,0.1,2.3,2.4c0,6.3-0.6,12.5-1.1,18.8
		c-0.7,8.2-1.9,16.3-3.3,24.3c-3.3,19.6-8.7,38.9-16.1,57.3c-3.8,9.6-8.3,18.9-13.5,27.9C456,132.6,455.2,133.4,455.4,134.5
		L455.4,134.5z"/>
	<path class="st1" d="M470.3,353h33.9c2.7,0,2.7,0,2.8-2.7v-35.8c0-1.9-0.3-3.8-0.8-5.7c-1.9-6.2-6.7-8.7-12.6-9.7
		c-0.7-0.1-1.5-0.1-2.2-0.2c-2.9-0.2-3-0.3-3-2.1c0-2.5,1.9-1.6,3-1.6c15,0,30,0,45.1,0c4.6,0,9.2,0.1,13.7,0c1.7,0,1.9,0.7,1.9,2.1
		c0,1.2-0.6,1.4-1.6,1.5c-2,0.1-4,0.3-6,0.7c-6.7,1.8-10.3,5.9-11,12.8c-0.1,1.2-0.1,2.4-0.1,3.5v83.8c-0.1,1.7,0,3.4,0.3,5.1
		c1.2,6.3,4.8,10,11,11.3c1.9,0.5,3.8,0.7,5.7,0.6c1.4-0.1,1.5,0.7,1.5,1.8s-0.4,1.8-1.6,1.7c-0.6,0-1.3,0-1.9,0h-56.5
		c-0.6,0-1.3,0-1.9,0c-1.4,0.1-1.6-0.5-1.6-1.7s0.2-1.8,1.6-1.7c2.6,0.1,5.1-0.3,7.5-1.1c5-1.4,8.6-5.6,9.2-10.8
		c0.2-1.3,0.3-2.5,0.4-3.8c0-13.7,0-27.5,0-41.2c0-2.7,0-2.8-2.7-2.8h-68.1c-2.5,0-2.5,0-2.6,2.7c0,13.5,0.2,27.1,0,40.6
		c-0.2,10.3,5,15.6,15.4,16.4c0.4,0,0.9,0,1.3,0c1.9,0.1,2.1,0.4,2,2.3c0,0.8-0.4,1.2-1.2,1.2h-59.5c-0.5,0-1.1,0-1.6,0
		c-1.3,0.1-1.6-0.6-1.6-1.7c0-1.2,0.5-1.7,1.7-1.7c2.7,0.1,5.3-0.4,7.8-1.2c4.9-1.5,8.5-5.9,8.9-11c0.2-1.8,0.3-3.6,0.3-5.4
		c0-27.5,0-55,0-82.5c0.1-2.2-0.1-4.5-0.5-6.7c-1.4-6.1-6.2-10-13.5-10.8c-1.1-0.1-2.1-0.2-3.2-0.2c-1.6,0-1.5-1.2-1.5-2.3
		c0-1.1,0.6-1.4,1.6-1.4c0.6,0,1.3,0,1.9,0h56.6c0.6,0,1.3,0,1.9,0c1.1,0,1.8,0.2,1.8,1.5c0,1.4-0.2,2-1.7,2c-2.1,0-4.2,0.3-6.3,0.8
		c-6.6,1.8-10.3,6.2-10.6,13.1c-0.1,3.1,0,6.2,0,9.3V350c0,3.1-0.4,3,3.1,3L470.3,353z"/>
	<path class="st1" d="M21.2,419.7v-3c2.1-0.3,4.2-0.4,6.3-0.8c8.1-1.4,12.3-6.4,12.5-14.5c0-0.5,0-1.1,0-1.6v-85
		c-0.1-9.3-4.6-14.4-13.7-15.8c-0.8-0.1-1.7-0.1-2.5-0.2c-2.7-0.8-2.7-0.8-2-3.8c27.2,0,54.3-0.2,81.5,0.1
		c17.6,0,34.8,5.4,49.3,15.3c12.5,8.6,21.8,19.9,25.7,34.7c5.2,19.8,0.4,37.3-13.7,52.1c-14.5,15.2-32.6,22.4-53.5,22.6
		c-29.1,0.2-58.2,0-87.3,0C22.9,419.9,22.1,419.8,21.2,419.7z"/>
	<path class="st1" d="M283.4,420h-60.7c-0.8,0-1.5,0-2.2,0c-1.1,0-1.8-0.1-1.8-1.5c0-1.4,0.1-2,1.7-2c2.5,0,4.9-0.5,7.2-1.2
		c5.8-1.5,9.8-6.8,9.8-12.7c0-1,0-1.9,0-2.9v-84.1c0-0.7,0-1.5,0-2.2c-0.3-8.2-4.8-13.2-13-14.3c-1.3-0.2-2.5-0.2-3.8-0.3
		c-1.8-0.2-2.1-0.6-1.9-2.5c0.1-0.8,0.4-1.1,1.2-1.1h115.7c0.5,0,1.1,0,1.6,0c1.2-0.1,1.7,0.4,1.8,1.6c0.6,8.7,1.4,17.4,1.9,26.1
		c0.1,2-1.1,2.9-3.1,2.5c-0.7-0.1-0.7-0.6-0.8-1.1c-0.2-1.4-0.4-2.7-0.7-4.1c-1.7-8.2-7.5-14.9-15.4-17.9
		c-5.4-2.1-11.1-3.2-16.9-3.2c-12.6-0.1-25.1,0-37.7,0c-2.5,0-2.6,0-2.6,2.7v46.7c0,2.4,0,2.5,2.4,2.5c6.2,0,12.4,0,18.5,0
		c3.3,0,6.6-0.6,9.7-1.8c6.1-2.4,9.3-6.9,10.1-13.2c0.1-0.6,0.1-1.3,0.1-1.9c-0.1-2.1,1.4-1.6,2.6-1.7c1.6-0.2,1.6,0.9,1.6,2
		c0,12.6,0,25.1,0,37.7c0,1.2-0.1,2.1-1.7,2c-1.2-0.1-2.7,0.3-2.6-1.8c0-1.2-0.1-2.3-0.3-3.5c-1.6-7.7-7-12.4-15.5-13.4
		c-7.8-0.9-15.5-0.4-23.4-0.5c-1.2,0-1.7,0.5-1.7,1.7c0,0.6,0,1.3,0,1.9c0,11.8,0,23.7,0,35.5c0,1.5,0.1,3,0.3,4.5
		c0.5,5.9,4.1,11,9.4,13.6c3.7,2,7.7,3.3,11.8,3.8c12.6,1.9,25.4,1.1,37.7-2.4c2-0.6,4-1.4,6-2.3c10.7-4.9,16.7-13.2,18-24.9
		c0.3-2.2,0.5-2.3,2.5-2.1c1.7,0.2,1.4,1.3,1.3,2.3l-1.7,22.6c-0.2,3-0.5,6-0.6,8.9c-0.1,1.5-0.7,2.1-2.2,1.9c-0.6,0-1.3,0-1.9,0
		L283.4,420z"/>
	<path class="st12" d="M473.5,468.8c-1,5.8-1.9,10.8-2.8,15.9c-0.2,1.7-1.8,3-3.5,2.8c-0.4,0-0.8-0.2-1.1-0.3
		c-0.8-0.3-0.6-1-0.5-1.6c0.7-3.6,1.3-7.1,2-10.7c1.4-6.7,2.7-13.3,4.1-20.8c4,8.1,7,15.8,10.8,23.7c3.7-7.9,7.2-15.5,10.7-23.1
		l0.5,0.1c1.9,10.7,3.8,21.5,5.7,32.1c-0.3,0.1-0.5,0.2-0.8,0.3c-3.9,0.3-4,0.3-4.6-3.5c-0.8-4.6-1.5-9.2-2.7-14l-8.8,19
		L473.5,468.8z"/>
	<path class="st12" d="M261.6,488.6l-21.5-22.2c-0.8,0.8-0.6,1.7-0.6,2.5c0,5.5,0,11.1,0,16.6c0,0.7,0.2,1.7-0.9,1.7
		s-2.6,0.5-3.7-0.4c-0.2-0.2-0.2-0.8-0.2-1.2c0-10.2,0-20.4,0-31.4c7.7,7.8,14.8,15.3,22,22.7c1.1-0.7,0.7-1.6,0.7-2.4
		c0-5.4,0-10.9,0-16.3c0-0.7-0.3-1.7,0.7-1.8c1.2-0.3,2.5-0.2,3.7,0.2c0.4,0.2,0.3,0.8,0.3,1.2v30.6L261.6,488.6z"/>
	<path class="st12" d="M564.7,454.8l21.4,22.2c1.1-0.5,0.7-1.4,0.7-2c0-5.4,0-10.9,0-16.3c0-0.8-0.4-1.9,0.6-2.3
		c1.2-0.4,2.5-0.4,3.8,0c0.7,0.3,0.4,1.4,0.4,2c0,7.4,0,14.7,0,22v8.7l-22.2-22.9l-0.6,0.3v8.5c0,3.4,0,6.9,0,10.2
		c0,2-0.1,1.9-2.3,2c-1.4,0-2.4,0-2.4-1.9c0.1-7.6,0-15.1,0-22.7V455L564.7,454.8z"/>
	<path class="st12" d="M657.6,454.7l22.2,23v-5.5c0-4.7,0-9.4,0-14c0-1.3,0.2-1.9,1.7-1.9c3,0,3-0.1,3,2.9c0,9,0,18.1,0,27.1
		c0.2,0.8,0,1.7-0.5,2.4l-22.1-22.8v3.8c0,5.1,0,10.2,0,15.3c0,2.2,0,2.2-2.4,2.2c-2.4,0-2.5,0-2.5-2.1c0-10.1,0-20.2,0-30.2
		L657.6,454.7z"/>
	<path class="st12" d="M316.5,475.5c-2.1,0-4,0-6,0c-1.2,0-1.6-0.4-1.7-1.6c0-2.7-0.1-2.8,2.7-2.8s5.5,0.1,8.3,0
		c1.6-0.1,1.9,0.6,1.9,2.1c0.3,8-6,14.6-13.9,14.9c-1.8,0.1-3.7-0.2-5.4-0.9c-6.1-1.8-10.5-7.2-11-13.5c-1-8.9,5.4-16.9,14.2-17.9
		c4.1-0.5,8.2,0.7,11.5,3.1c1.2,0.8,2.2,1.8,3,3c-0.7,1.4-2,2-3,3.2c-1.2-1.1-2.1-2.1-3.2-2.9c-4.1-3-9.7-2.8-13.6,0.4
		c-4.1,3.3-5.5,9-3.3,13.9c2.1,4.6,6.9,7.3,12,6.6C312.9,482.6,315.6,479.9,316.5,475.5z"/>
	<path class="st13" d="M112.1,471.7c0-4.5,0-8.9,0-13.4c0-1.5,0.5-2,2-2c4.5,0.1,8.9,0.2,13.4,0c2.1-0.1,1.8,1.1,1.9,2.4
		c0.1,1.3-0.1,2.2-1.9,2.1c-2.9-0.2-5.7,0-8.6-0.1c-1.6-0.1-1.9,0.6-2,2c-0.1,5.3-0.2,5.3,5.3,5.3h4.1c2.7,0,2.7,0,2.7,2.2
		c0,2.2,0,2.3-2.6,2.3c-2.6,0-5.1,0-7.7,0c-1.3,0-2,0.2-1.9,1.7c0.1,2.3,0,4.7,0,7c0,1.2,0.4,1.7,1.7,1.6c3-0.1,6,0.1,8.9,0
		c1.8-0.1,1.8,0.9,1.8,2.2c0,1.3,0.1,2.3-1.7,2.2c-4.6-0.1-9.2,0-13.7,0c-1.4,0-1.8-0.5-1.8-1.9
		C112.1,480.9,112.1,476.3,112.1,471.7z"/>
	<path class="st13" d="M65.8,471.7c0-4.5,0-8.9,0-13.4c0-1.5,0.4-2.1,2-2c4.5,0.1,8.9,0,13.4,0c2,0,1.9,0.1,2,2.3
		c0,1.4-0.1,2.2-1.9,2.1c-2.9-0.1-5.7,0-8.6,0c-1.4,0-2.2,0.2-2.1,1.9c0.2,6.7-0.9,5.3,5.3,5.5c1.6,0,3.2,0,4.8,0
		c2.1,0,2.1,0.1,2.1,2.1c0,2.1,0,2.3-2.3,2.3c-2.7,0-5.3,0-8,0c-1.3,0-2,0.4-1.9,1.8c0.1,2.2,0.1,4.5,0,6.7c0,1.4,0.4,1.9,1.8,1.9
		c3-0.1,6,0.1,8.9,0c1.8-0.1,1.8,0.8,1.8,2.2s0,2.3-1.8,2.3c-4.6-0.1-9.1-0.1-13.7,0c-1.4,0-1.9-0.5-1.8-1.8
		C65.9,480.9,65.8,476.3,65.8,471.7z"/>
	<path class="st12" d="M420.1,471.9c0-4.5,0-8.9,0-13.4c0-1.5,0.2-2.3,2-2.3c4.4,0.2,8.7,0,13.1,0c2.1,0,2.1,0.1,2.1,2.1
		c0,2,0,2.3-2.3,2.3c-2.7,0-5.5,0-8.2,0c-1.4,0-2.1,0.2-2.1,1.9c0.2,6.7-1,5.3,5.2,5.5c1.8,0,3.6,0,5.4,0c1.8,0,1.4,1.4,1.5,2.4
		c0.1,1.1,0.1,2.1-1.6,2.1c-3-0.1-6,0-8.9,0c-1.2,0-1.7,0.4-1.7,1.7c0.1,2.3,0.1,4.7,0,7c0,1.3,0.5,1.7,1.7,1.7c2.9,0,5.7,0,8.6,0
		c1.4,0,2.5-0.1,2.4,1.9c-0.2,2.3,0,2.4-2.2,2.4c-4.4,0-8.7,0-13.1,0c-1.5,0-2.1-0.4-2-2C420.1,480.9,420.1,476.4,420.1,471.9z"/>
	<path class="st12" d="M731.5,456.3v4.3c-3.4,0-6.8,0.1-10.2,0c-1.4,0-1.9,0.4-1.8,1.8c0.2,6.9-1,5.4,5.1,5.5c1.5,0,3,0,4.5,0
		c2.5,0,2.5,0,2.5,2.7c0.1,0.6-0.1,1.3-0.5,1.8c-3.1,0-6.3,0-9.6,0c-1.5,0-2.1,0.4-2,2c0.1,2,0,4,0,6c0,2.3,0,2.3,2.2,2.4
		c3.3,0.1,6.6-0.2,9.9,0.2c0,4,0,4-4,4h-10.8c-1,0-1.9,0-1.9-1.5c0.1-9.8-0.2-19.6,0.2-29.3L731.5,456.3z"/>
	<path class="st14" d="M21.9,471.9c0-4.5,0-8.9,0-13.4c0-1.7,0.5-2.2,2.2-2.2c3.9,0.1,7.9,0.1,11.8,0c1.8,0,1.8,1,1.8,2.2
		s0.1,2.3-1.7,2.3c-2.5-0.1-5.1,0-7.7,0c-1.1,0-1.5,0.4-1.5,1.5c0,1.5,0,3,0,4.5c0,1.2,0.6,1.4,1.6,1.4c2.4,0,4.9,0,7.3,0
		c2,0,1.4,1.4,1.5,2.4c0.1,1.1,0,2.1-1.6,2.1c-2.3-0.1-4.7,0-7,0c-1.4,0-1.9,0.4-1.8,1.8c0,3.6,0,7.2,0,10.9c0,2-0.2,2-2.5,2.1
		c-1.5,0-2.4-0.1-2.3-2C22,480.8,21.9,476.3,21.9,471.9z"/>
	<path class="st14" d="M376.1,471.7c0-4.5,0-8.9,0-13.4c0-1.6,0.5-2,2-2c3.9,0.1,7.9,0,11.8,0c1.8,0,1.8,0.2,1.9,2.4
		c0,1.5-0.3,2.1-2,2.1c-2.3-0.1-4.7,0-7,0c-1.3,0-1.9,0.2-2,1.7c-0.3,5.6-0.4,5.6,5.4,5.6h2.5c2.7,0,2.7,0.2,2.6,3
		c0,1.1-0.4,1.5-1.5,1.5c-2.4,0-4.7,0-7,0c-1.5,0-2.1,0.5-2,2c0.1,3.6-0.1,7.2,0.1,10.9c0.1,2.1-1.2,1.9-2.5,1.9s-2.5,0.1-2.4-1.9
		C376.2,480.8,376.1,476.2,376.1,471.7z"/>
	<path class="st12" d="M158.4,471.9c0-4.4,0-8.7,0-13.1c0-0.8-0.4-2,0.5-2.3c1.2-0.4,2.5-0.4,3.7,0c0.8,0.3,0.5,1.4,0.5,2
		c0,6.7,0,13.4,0,20.1v1.9c0,2.3,0,2.3,2.2,2.4c1.7,0,3.4,0.1,5.1,0s2,0.7,1.9,2.1c-0.1,1.2,0.1,2.4-1.7,2.3c-3.5-0.1-7-0.1-10.5,0
		c-1.5,0-1.7-0.7-1.7-2C158.5,480.9,158.4,476.4,158.4,471.9z"/>
	<path class="st15" d="M204.5,471.9c0,4.4,0,8.7,0,13.1c0,0.8,0.4,1.9-0.8,2.1c-1.2,0.4-2.5,0.3-3.7-0.2c-0.6-0.3-0.3-1-0.4-1.5
		c0-9.2,0-18.3,0-27.5c0-1.5,0.6-1.8,1.9-1.8c3,0,3-0.1,3,2.9C204.6,463.4,204.5,467.7,204.5,471.9z"/>
	<path class="st15" d="M621.8,471.9c0-4.5,0-8.9,0-13.4c0-0.8-0.4-1.9,0.8-2.1c1.2-0.3,2.5-0.3,3.7,0.2c0.5,0.3,0.3,1,0.3,1.5
		c0,9.2,0,18.3,0,27.5c0,1.5-0.7,1.7-1.9,1.8c-2.9,0.1-3,0.1-3-2.9C621.8,480.2,621.8,476,621.8,471.9z"/>
	<path class="st15" d="M529,471.6c0-4.5,0.1-8.9,0-13.4c-0.1-2,1-2,2.4-1.9c1.4,0,2.5-0.3,2.5,1.8c-0.1,9.2-0.1,18.3,0,27.5
		c0,2.1-1.4,1.7-2.6,1.8s-2.4,0-2.3-2C529,480.7,529,476.2,529,471.6z"/>
	<path class="st16" d="M714.6,310.5c-5.4-0.1-9.7-4.4-9.6-9.8c0.1-5.4,4.4-9.7,9.8-9.6c5.3,0.1,9.6,4.4,9.6,9.7
		c0,5.3-4.2,9.7-9.5,9.7C714.8,310.5,714.7,310.5,714.6,310.5z"/>
	<path class="st17" d="M643.1,322.6c8.5,17.6,16.8,34.8,25.3,52.2h-49.2L643.1,322.6z"/>
	<path class="st17" d="M254.4,188.1c-0.6-16.8,6.3-31.4,15.7-45c12.1-17.8,31.4-29.4,52.8-31.7c14-1.8,28.2,0.1,41.3,5.3
		c16.2,6.6,29.2,17.3,39.4,31.4c1,1.2,1.2,3,0.3,4.3c-8.6,18.3-19.3,35.6-31.9,51.4c-12.9,15.9-28.9,27.7-48.5,33.9
		c-13.5,4.3-27.1,4.4-40.3-1.3c-14.6-6.2-23.9-17-27.5-32.6C254.7,198.7,254.2,193.4,254.4,188.1z"/>
	<path class="st3" d="M455.4,134.5l-0.3,0.3c0,0,0-0.2,0-0.2C455.2,134.6,455.3,134.6,455.4,134.5L455.4,134.5z"/>
	<path class="st17" d="M66.4,349.6v-46.7c0-0.8,0-1.5,0-2.2c-0.1-1.2,0.3-1.7,1.6-1.7c2.9,0.1,5.7,0,8.6,0c7.2,0,14.5-0.1,21.6,1.2
		c7.7,1.2,15.1,3.6,22.1,7.1c18.7,10,29.7,25.3,32,46.6c1.3,10.5-0.3,21.2-4.7,30.9c-8.2,17.9-22,28.2-41.7,30.6
		c-7.8,1.1-15.8,0.9-23.5-0.6c-2-0.4-3.9-1-5.8-1.8c-6.4-3.1-10.1-8.1-10.3-15.3c-0.2-10.5-0.1-21.1-0.2-31.6
		C66.3,360.4,66.4,355,66.4,349.6z"/>
	<path class="st18" d="M709.3,306.6c-3.4-3.5-3.5-8.2-0.3-11.5c3.1-3,8-3,11.2,0c3.3,3.2,3.3,7.8-0.1,11.5c-0.9,0.3-1.3-0.5-1.8-0.9
		c-1.6-1.8-2.7-3.5-1.2-6.1c1.1-1.7-0.5-2.8-2.2-3.4c-4-0.3-4.1-0.2-4.1,3.8c0.1,1.5,0.1,2.9,0,4.4
		C710.6,305.2,710.8,306.5,709.3,306.6z"/>
	<path class="st19" d="M709.3,306.6c1-0.8,0.6-2,0.6-3c0-2.2,0-4.4,0-6.6c0-0.9,0.1-1.8,1.2-1.8c1.5,0,3.1-0.6,4.6,0.5
		c-4.5,0.5-4.8,3.6-4.4,7c1.5-2.5,2.9-1.1,4.4,0.1c1.1,0.9,1.2,2.8,3.2,2.6l1.2,1.2C716.4,309.7,712.9,309.7,709.3,306.6z"/>
	<path class="st20" d="M718.9,305.3c-0.5,1.5-1.4,1.1-2.1,0.3c-0.5-0.6-0.9-1.2-1.2-1.9c-0.3-0.7-0.9-1.2-1.5-1.6
		c-1.2-0.6-1.9-0.2-2.1,1.2c-0.1,1,0.5,2.7-0.7,2.7c-1.7,0-0.9-1.8-0.9-2.7c-0.1-2,0-4,0-6.1c0-1.1,0.4-1.5,1.5-1.5
		c1.1,0.1,2.6,0,3.8,0c3.6,1.7,3.7,3.3,0.6,6.1L718.9,305.3z"/>
	<path class="st21" d="M714.2,300.3c-1.4,0-2.2,0-2.3-1.4c0-1.4,0.7-1.8,2-1.7c1.2,0.1,2.5,0.1,2.5,1.7
		C716.4,300.4,714.9,300.1,714.2,300.3z"/>
</g>
<path d="M643.3,272.2c-15.9-0.4-31.8-2-47.6-1.8c-7,0.1-10.8-4.3-10.2-12c0.5-6.6-2.2-11.1-6.4-15.6c-8.5-8.8-18.4-15.5-28-22.8
	c-9.9-7.5-19-15.5-24.7-26.9c-2.2-4.5-4.1-4.4-6.6,0c-8.9,15-17.6,30-27.8,44.1c-8.3,11.5-17.4,22.4-29.4,30.4c-5.9,4-12.9,6.1-20,6
	c-9.8-0.2-19.5,0.5-29.3-0.5c-12.3-1.3-18.5-6.7-20.9-19c-2.2-11-3.6-22.2-7.9-32.7c-1.8-4.3-3.7-8.6-5.7-12.8
	c-0.4-0.9-0.7-2.2-2.1-2.1c-1.1,0.1-1.3,1.2-1.6,2.1c-3.9,11.4-10.3,21.4-16.4,31.7c-2.2,3.7-5,7-8.2,9.8
	c-4.8,4.3-8.3,9.8-11.9,15.1c-2.6,4-7.1,6.4-11.9,6.3c-9.9,0.2-19.8,0.2-29.7,0.5c-10.4,0.4-18.3-5.1-24.9-12.6
	c-4-4.7-7.5-9.8-10.3-15.2c-10.6-19.4-21.2-38.7-31.8-58.1c-2.3-4.2-4-4.5-6.6-0.7c-12.4,17.6-29.2,30.9-45,45
	c-7,6.3-11.2,13.2-8.9,22.9c0.3,1.7,0.4,3.5,0.2,5.2c-0.4,7.7-3.7,10.8-11.4,10.7c-4.9-0.1-9.9-0.5-14.8-0.8
	c-9.9-0.5-19.8,0.3-29.5,2.5c-9,1.9-18.3,0.8-26.6-3.2c-2.6-1.2-4.9-2.6-4.9-6.1c-0.2-1.3-0.9-2.6-2-3.4c-3.1-3.2-2.5-6.4,1.7-8
	c3.4-1.3,6.9-2.1,10.2-3.5c10.1-4.3,19.2-10.5,28.7-16.1c8.9-5.3,17.8-10.7,25.6-17.9c11.9-11,20.8-24.3,29-38.2
	c5.5-9.3,11.3-18.5,17.1-27.6c1.4-2.2,1.7-4.8,1-7.3c-0.8-3.1-1.8-6.2-2.3-9.3c-0.8-4.7,0-9.1,3.5-12.6c0.8-0.7,1.7-1.8,2.5-1.8
	c4.9,0.1,8.9-2.6,13.3-4c2.2-0.6,4.6-0.4,6.6,0.6c0.8,0.5,1.7,0.8,2.6,1.1c8.9,2.3,26-5.4,30-13.7c4.8-9.7,8.3-20,10.5-30.7
	c1-4.9,0.6-9.5-3.2-13.4c-2.3-2.4-1.3-5.3,0.6-7.2c4-4.1,6.4-9.6,6.4-15.3c0.2-2.5-0.1-5-0.9-7.4c-1.2-2.8-0.6-6.1,1.7-8.2
	c4.2-4.5,8.9-8.5,13.9-12.1c4.2-3.1,9.7-2.6,14.7-2.6c2.9,0.2,5.9-0.2,8.6-1.2c1.2-0.6,2.5-0.8,3.9-0.6c6.3,2.6,13.6,3.2,18.9,8.1
	c5.3,4.9,6.4,11.7,7.8,18.7c1.9,9.2,1.2,18.5,0.6,27.5c-0.4,5.6,1.4,10,2.3,14.9c0.7,3.7,1.8,7.3,1.6,11.1c0,1.9,0.9,3.7,2.5,4.8
	c7.5,5.8,12.5,13.5,16.2,22c3.9,8.9,10.4,16.2,14.6,24.9c1,2.1,2.3,2.2,3.4,0c5.8-11,12.2-21.6,19.3-31.9c1.6-2.4,2.6-5,1.5-7.9
	c-0.5-1.2-0.3-2.5,0.4-3.5c1.3-1.7,1.7-4,1-6c-0.6-1.9,0.2-3.9,1.8-4.9c2.9-2,2.8-4.7,1.5-7.4c-0.9-1.8-1.8-3.6-3-5.3
	c-9-13.8-6.1-32.5,3.7-44.6c3-3.7,6.6-6.2,11.7-5.6c2.1,0.4,4.3,0.2,6.3-0.8c6.2-3.7,12.9-2.6,19.5-2.3c5.6,0.2,11.8,4.8,13.2,10.1
	c0.8,3.8,2.6,7.3,5.2,10.2c1.1,1.5,1.9,3.2,2.4,5c0.4,1.9,1.8,3.3,3.6,4c4.3,1.5,5.7,4.8,4.9,8.9c-0.7,4-0.1,8.1,1.8,11.6
	c1.4,2.5,1.6,5.5,0.5,8.1c-1,2.2-0.1,4.2,0.9,6.1c4.9,9.8,10.3,19.4,16.3,28.5c5.3,8.2,10.6,16.4,13.5,25.9
	c1.7,5.4,13.5,9.2,18.8,6.4s10.6-4.6,16.5-4.1c1.6,0,3.2-0.7,4.3-1.9c3.5-2.8,7-2,9.2,1.9c1.8,2.8,2,6.3,0.5,9.2
	c-4.6,8.5-1.7,14.6,4.2,21.5c9.9,11.6,17.7,24.8,25.9,37.7c9,14,18.6,27.7,32.5,37.2c12,8.2,24.8,15.3,37.3,22.8
	c2.3,1.4,4.9,2.2,7.6,2.5c1.6,0.2,3.4,0.3,3.6,2.4c0.1,1.9-1.3,2.9-2.8,3.6c-3.3,1.7-7,1.6-10.6,1.6
	C646,272.2,644.6,272.2,643.3,272.2z M305,168.3c-0.2-4.4-3-7.4-3.7-11c-1.2-6.2-2.5-12.3-3.6-18.5c-0.6-3.2-2.1-4-5.1-2.4
	c-6.7,3.5-13.5,7-20.4,10.3c-3.1,1.5-2.9,3.4-1.2,5.7c5.7,7.6,10.3,15.9,15.3,24c3.6,5.8,7.4,11.4,11.3,17.1
	c0.8,1.3,1.7,3.1,3.7,2.4c1.6-0.5,1.9-2.2,1.9-3.7C303.5,184,303.4,175.8,305,168.3z M484.8,160.2c-0.2-1.5-1.2-1.9-2.2-2.3
	c-8.6-3.3-17.2-6.5-25.9-9.7c-1-0.4-2.1-0.9-3,0c-0.9,0.9-0.2,2.1,0.1,3c1.1,3.4,2.6,6.7,3.5,10.2c1.9,7-0.4,11.3-7,14.1
	c-1,0.4-2,0.8-3,1.2c-2.8,0.8-4.7,3.3-5,6.2c-0.3,3.5-1.1,6.9-2.4,10.1c-0.8,1.5-0.3,3.3,1.1,4.3c1.5,1.2,3.3,2.1,5.1,1
	c1.5-0.9,2.9-1.9,4.1-3.2c10.9-11,21.5-22.3,32.8-32.8C483.8,161.5,484.3,160.8,484.8,160.2z M452.3,86.3c-0.6,0.3-1.2,0.7-1.7,1.2
	c-2.3,2.9-4,6.3-4.7,10c-0.5,1.9,0.3,3.9,1.8,5c6.1,4,12.3,7.9,18.5,11.9c0.7,0.5,1.7,1,2.6,0.2c0.9-0.8,0.5-1.7,0.1-2.6
	c-3.1-8.1-7.2-15.7-12.1-22.9C455.7,87.6,454.1,86.6,452.3,86.3z M275.4,88.4c0,1.7,0.3,2.8,2.2,2.6c2.6-0.2,7-3.3,6.7-4.8
	c-0.6-2.5-2.6-4.7-5-4.5C275.2,81.9,276.3,86,275.4,88.4L275.4,88.4z"/>
<path d="M119.2,345.5c9.2-10,18.3-19.6,27.3-29.3c9.2-9.9,18.4-19.8,27.6-29.7c1.2-1.4,3-2.2,4.9-2.1c11.6,0,23.3-0.1,34.9-0.1
	c1.2,0,2.7-0.4,3.3,0.8c0.6,1.2-0.8,2.1-1.6,2.9c-18.7,19.7-37.4,39.3-56.1,58.9c-2.3,2.4-2.1,4-0.4,6.5
	c20.1,29.2,40.2,58.4,60.2,87.6c0.5,0.7,0.9,1.3,1.3,2c1.6,2.3,1.1,3.3-1.8,3.3c-8.6,0-17.2-0.7-25.6,0.2c-9.2,1-14.3-2.6-19.2-10.3
	c-12.3-19.7-25.8-38.7-38.7-58.1c-1.7-2.6-3-2.8-5.1-0.4c-3.2,3.6-6.5,7.1-9.9,10.6c-1.8,1.8-1.9,4-1.9,6.3c0,15.4,0,30.7,0,46.1
	c0,5.5-0.1,5.7-5.6,5.7c-7.2,0-14.4,0-21.7,0c-5.2,0-5.3-0.2-5.4-5.5c0-41.2,0-82.4,0-123.5c0-9.4,0.1-18.7,0-28.1
	c-0.1-3.6,1-5,4.8-4.9c7.6,0.3,15.3,0.3,22.9,0c3.8-0.1,5.1,1.1,5.1,5c-0.2,17.2-0.1,34.5,0,51.7
	C118.3,342.7,118.5,344.2,119.2,345.5z"/>
<path d="M443.1,406.9c0-25,0-50,0-75c0-5.8,0.3-6.1,6.2-6.1c7.1,0,14.2,0.1,21.2-0.1c3.9-0.1,5.7,1.2,5.5,5.3
	c-0.1,2.3-1.2,5.6,0.8,6.7c1.8,0.9,3.7-2.1,5.4-3.4c22.5-16.1,50.5-8.7,63.7,17.2c9.2,18,10,37.1,6.1,56.7
	c-2.1,10.3-5.9,19.8-13,27.6c-13.1,14.5-35.4,21.1-56.1,4.9c-1.3-1-2.5-2.1-3.7-3c-0.8-0.6-1.4-2.1-2.6-1.3c-1,0.6-0.6,1.9-0.6,3
	c0,14.2,0,28.3,0,42.5c0,5.9-0.3,6.1-6.1,6.1h-20.4c-6.2,0-6.3-0.1-6.3-6.2C443.1,456.8,443.1,431.8,443.1,406.9z M476.1,390.2
	c-0.2,6.7,1.6,13.4,5,19.2c7.5,12.4,23.9,18.1,33.9,0.8c8.8-15.3,7.9-31.1-1.8-45.9c-6.3-9.6-17.3-10.7-26-3.3
	C478.8,368.1,476,377.6,476.1,390.2L476.1,390.2z"/>
<path d="M360.8,339.6c6.2-5.5,12-9.3,18.7-11.5c16.8-5.5,35.2,0.4,45.8,14.5c11.1,14.5,14.4,31.3,13.9,49.1
	c-0.1,9.5-1.9,18.9-5.3,27.8c-6.7,16.5-17.9,27.5-36.2,30.4c-12.3,1.9-22.1-3.6-31.3-10.5c-1.6-1.2-3-2.6-4.7-4.1
	c-1.1,1.3-0.7,2.9-0.7,4.2c0,14.2,0,28.3,0,42.5c0,5.8-0.2,6-6.1,6c-7.4,0-14.7-0.1-22.1,0c-3.3,0-4.4-1.3-4.4-4.5
	c0.1-51,0.1-102.1,0-153.1c0-3.6,1.5-4.7,4.8-4.6c7.6,0.1,15.2,0.1,22.8,0c3.9-0.1,5.3,1.6,5,5.3
	C360.6,333.5,360.8,336.1,360.8,339.6z M405.5,385.5c0.1-4.9-1.8-12.6-6.2-19.6c-6.6-10.6-18.1-12.7-27-5.3
	c-14.5,12.2-15.6,41.1-1.9,54.4c8.7,8.4,20.1,7.8,27.5-1.8C403.4,406.1,405.3,397.7,405.5,385.5L405.5,385.5z"/>
<path d="M287.8,436.7c-15.3,18.6-48,16.2-62.6,4.9c-12.3-9.6-16.1-22.4-13.2-37.5c2.6-13.9,11.5-21.8,25-25.1
	c9.6-2.4,19.5-2.9,29.3-4.6c4.1-0.5,8.1-1.6,11.9-3.2c2.4-1,4.4-2.5,6-4.5c2.9-3.8,2.6-6.6-1-9.7c-6.8-5.8-19.8-7.3-27.7-3.1
	c-4.5,2.1-7.5,6.3-8.1,11.2c-0.4,3.2-1.9,4.3-5,4.2c-6.8-0.1-13.6-0.1-20.5,0c-3.3,0.1-4.6-1.2-4.3-4.5c1.2-14.1,7.3-25.3,20.1-31.7
	c20.9-10.3,42.2-10.1,62.7,1.2c12.5,6.8,18,18.5,18.3,32.3c0.4,19.4,0.2,38.8,0.1,58.1c0,6.2,0.4,12.3,2.9,18.1
	c1.3,2.8,0,3.6-2.6,3.6c-7.6,0-15.2-0.2-22.9,0.1c-4.5,0.2-6.7-1.6-7.5-5.8C288.7,439.5,288.3,438.3,287.8,436.7z M287.6,399
	L287.6,399c-0.1-1.5-0.2-2.9-0.1-4.4c0.3-3.4-1-4-4-2.6c-4.5,1.7-9.1,3-13.8,4c-6.7,1.6-13.7,2.6-19.8,6c-5.5,2.8-7.8,9.5-5,15.1
	c0.9,1.8,2.3,3.3,4,4.4c14.2,10,35.7,1,38.4-16C287.5,403.2,287.6,401.1,287.6,399z"/>
<path d="M634.6,437.1c-17,16.1-36.2,16.5-56.3,8.2c-14.3-5.9-22-20.8-20.3-37.1c1.6-15.6,10.6-25.5,26.4-29.4
	c10.9-2.6,22.2-2.9,33.2-5.3c4.4-0.9,8.6-2.2,12-5.3c4.9-4.5,4.7-8.5-0.7-12.2c-7.9-5.4-16.5-6.1-25.2-2.8c-5.2,1.7-9,6.4-9.5,11.9
	c-0.3,2.9-1.6,4.1-4.7,4.1c-6.7-0.2-13.4-0.2-20.1,0c-3.5,0.1-4.8-1.2-4.6-4.7c1.2-16.4,9.5-27.9,24.7-33.9
	c18.3-7.2,36.7-6.7,54.5,1.7c15,7.1,21.5,19.8,21.6,36c0.1,18.5,0.1,36.9,0,55.3c0,6.8,0,13.6,3.3,19.9c1,2,0.1,2.6-1.8,2.6
	c-8.8,0-17.6,0-26.5,0c-2.3,0-3.4-1.4-4.1-3.3C635.9,441.1,635.3,439.1,634.6,437.1z M634,399.2c0-1.7,0-3.5,0-5.2
	c0.1-2.5-0.6-3.4-3.3-2.3c-5.9,2.2-11.9,3.8-18.1,5c-5.6,1.3-11.3,2.3-16.3,5.3c-7.5,4.3-7.7,15.8-0.1,19.8c9.4,5,19.2,4.8,28.2-1
	C632.1,415.9,634.5,408,634,399.2z"/>
<path d="M129.9,297.7c0-4.8,0.1-9.6,0-14.4c-0.1-2.6,0.9-4,3.6-4.1c9.1-0.3,18.1,0.7,27.2,1c2.5,0.1,2.6,1.5,1.1,3.1
	c-9.7,10.3-19.4,20.7-29,31c-0.5,0.6-1.1,1.3-2,1.1c-1.2-0.4-0.8-1.6-0.8-2.4C129.9,307.9,129.9,302.8,129.9,297.7z"/>
</svg>
