<svg id="Layer_1" data-name="Layer 1" xmlns="http://www.w3.org/2000/svg" viewBox="0 0 1449.52 595.02"><defs><style>.cls-1{fill:#e7e6e6;}</style></defs><title>mango</title><path class="cls-1" d="M-714.84,729.53h-1.58C-715.9,728.14-715.38,728.11-714.84,729.53Z" transform="translate(716.42 -134.52)"/><path d="M665.59,134.52c23.36.66,43.81,9.44,58.26,30.18,13.09,18.79,12.17,45.77-2.06,63.78-10.82,13.69-25,21.76-41.84,25.33-6.29,1.34-6.78.85-6.76-5.51,0-4.2-.87-8.79.54-12.48,1.61-4.25,7.26-3.21,11-4.93,11.62-5.4,21.09-12.85,25-25.58,4.67-15.11-.06-27.68-11.39-38-18.84-17.17-52.77-16.13-70.7,2-18.33,18.53-12.71,47.87,11.37,59.45a63.49,63.49,0,0,0,12.6,4.69c2.88.69,4.2,2.24,4.17,5.15,0,3.91,0,7.82,0,11.74,0,2.94-1,4.49-4.49,4-29.17-4.23-54.56-26.74-56.13-58.88-.67-13.82,4.34-26.19,13.57-36.6C623.46,142.16,642.39,134.91,665.59,134.52Z" transform="translate(716.42 -134.52)"/><path d="M228.28,197.54c4.64,0,9.29-.22,13.91.07,3.48.22,3.18-1,2-3.4Q232.07,169,220,143.66c-2.57-5.36-2-5.46,4-6.34,11.23-1.66,17.08,2.56,22.06,13.05,15.22,32,31.85,63.42,47.92,95.06.65,1.29,1.26,2.61,1.87,3.93,1,2.21.05,3.52-2.13,3.56-6.08.12-12.16.09-18.24,0-2.41-.06-3.24-2.18-4.15-4-4.55-9.06-9.2-18.09-13.56-27.24-1.47-3.09-3.44-4.13-6.77-4.1q-23,.21-46.08,0c-3.57,0-5.59,1.28-7.13,4.37-4.58,9.21-9.42,18.29-14,27.49-1.34,2.67-3.16,3.85-6.16,3.73-4.19-.16-8.4,0-12.6-.05-5-.08-5.55-1-3.33-5.31q21.06-41,42.23-81.89c1.4-2.69,1.85-7.42,5.17-7.22,2.43.15,2.54,5.05,4.32,7.49,6.4,8.75,6.15,17.21-.16,26.14-3.42,4.83-2.83,5.24,3.34,5.22,3.91,0,7.83,0,11.74,0Z" transform="translate(716.42 -134.52)"/><path d="M332.37,170.38c-1.24,1.75-.77,3.39-.77,4.91q-.06,35.9,0,71.79c0,5.69-.26,5.95-5.8,6q-3.92,0-7.83,0c-6.42,0-6.7-.28-6.7-6.55q0-29.58,0-59.17,0-22,0-43.94c0-5.45.5-5.89,6-6,14.25-.16,14.12,0,24.16,11.09C352.55,160.91,364,173,375.3,185.27c15.07,16.28,30.09,32.59,45.25,48.78,4.8,5.13,2.88,11.11,2.78,16.9,0,.55-.74,1.25-1.31,1.59-3,1.84-13.28.28-15.84-2.5Q382,223.82,357.9,197.56,346.56,185.25,335.16,173C334.32,172.09,333.35,171.3,332.37,170.38Z" transform="translate(716.42 -134.52)"/><path d="M545.74,188.8c8.41,0,16.82.07,25.22,0,3.45,0,5,1.28,5,4.86-.12,8.84.06,17.69-.08,26.53-.18,11-6.6,18.32-15,24.05-9.29,6.3-19.81,9.34-31,10.57-16,1.76-31.53.4-46.37-6.17-15.19-6.73-26.55-17.38-32.95-32.93-.55-1.33-.91-2.75-1.34-4.13-.75-2.44.26-3.62,2.72-3.64,5.21,0,10.43,0,15.65,0,2.14,0,3.3,1.13,4.37,2.94,9.41,16,23.8,23.46,42.07,24.07,11.3.38,22.32-.74,32.45-6.29,5.8-3.18,9.88-7.35,9.26-14.79-.25-3-1.19-4-4.08-4-10.29.06-20.58,0-30.87,0-5.69,0-5.9-.24-5.94-5.85,0-3,0-6.08,0-9.13.06-5.28.65-5.91,6.1-5.95C529.22,188.75,537.48,188.8,545.74,188.8Z" transform="translate(716.42 -134.52)"/><path d="M37.31,178.2v67.27c0,7.61,0,7.61-7.82,7.61-2.32,0-4.65-.13-7,0-4,.26-5.68-1.28-5.63-5.54.19-16.09.08-32.18.08-48.28q0-27.84,0-55.67c0-5.65.51-6.25,6.27-6.14,15.87.29,11.79-2.51,20.38,11.22C58.87,173,74,197.42,89.22,221.72c1.69,2.69,2,4.81.14,7.49-2.48,3.57-4.62,7.37-6.94,11s-2.86,3.8-5.17.12q-13.05-20.82-26-41.66c-4.35-6.93-8.75-13.82-13.13-20.74Z" transform="translate(716.42 -134.52)"/><path d="M121.36,178q-8.65,13.78-17.29,27.58c-3,4.79-3.48,4.74-6.4-.18-2-3.36-4.08-6.67-6.22-9.94a6.12,6.12,0,0,1,0-7.27Q106,164.67,120.28,141.1a6.72,6.72,0,0,1,6.38-3.65c3.62.08,7.25.14,10.87,0,3.8-.18,5.08,1.57,5.05,5.22-.1,13.62,0,27.24,0,40.86q0,31.52,0,63c0,6.28-.26,6.51-6.69,6.53h-6.09c-7.29,0-7.37-.07-7.37-7.18V178.19Z" transform="translate(716.42 -134.52)"/><path d="M517.91,135.46c19.05.14,36.23,5.41,50.71,18.32,2.67,2.38,3.17,4.13,0,6.51a84.83,84.83,0,0,0-9.17,8c-2.42,2.44-4.06,2.07-6.53-.08-20.71-18-55.58-16.35-74.47,3.5a33.35,33.35,0,0,0-8.32,14.59c-1,3.65-2.89,5.32-6.79,5.07s-8.11-.11-12.17-.07c-3.59,0-4.57-1.87-3.93-5.06a55.32,55.32,0,0,1,19.27-32.7C481.82,140.89,497.88,135.5,517.91,135.46Z" transform="translate(716.42 -134.52)"/><path d="M423.68,175.44c0,11.14,0,22.29,0,33.43,0,1.23.46,2.87-1.14,3.39-1.29.42-2-1-2.76-1.74-4.42-4.38-8.78-8.83-13.23-13.18a9.16,9.16,0,0,1-3-6.91q.06-24.09,0-48.19c0-3.2,1.14-4.89,4.55-4.79,3.62.11,7.24.12,10.86,0s4.84,1.57,4.81,5C423.62,153.44,423.68,164.44,423.68,175.44Z" transform="translate(716.42 -134.52)"/></svg>