<svg id="Layer_1" data-name="Layer 1" xmlns="http://www.w3.org/2000/svg" viewBox="0 0 1466.42 729.54"><defs><style>.cls-1{fill:#e7e6e6;}.cls-2{fill:#fcfafc;}.cls-3{fill:#fbfafb;}.cls-4{fill:#f8f7f8;}.cls-5{fill:#838284;}.cls-6{fill:#cccbcd;}.cls-7{fill:#a7a5a7;}.cls-8{fill:#b5b3b5;}.cls-9{fill:#484648;}.cls-10{fill:#4c4a4c;}.cls-11{fill:#8e8d8e;}.cls-12{fill:#716f71;}.cls-13{fill:#2b2a2b;}.cls-14{fill:#525052;}.cls-15{fill:#0c0b0c;}.cls-16{fill:#080709;}.cls-17{fill:#171617;}.cls-18{fill:#2c2b2c;}.cls-19{fill:#e3e2e3;}.cls-20{fill:#0a090a;}.cls-21{fill:#060506;}.cls-22{fill:#242224;}.cls-23{fill:#757375;}.cls-24{fill:#454445;}.cls-25{fill:#030103;}.cls-26{fill:#010001;}.cls-27{fill:#010102;}.cls-28{fill:#030203;}.cls-29{fill:#050405;}</style></defs><title>parasuco</title><path class="cls-1" d="M-714.84,729.53h-1.58C-715.9,728.14-715.38,728.11-714.84,729.53Z" transform="translate(716.42)"/><rect x="716.42" width="750" height="390"/><path class="cls-2" d="M408.06,128.33c5.55,4.91,11.19,9.72,16.62,14.77,3.09,2.88,16.35,2.71,18.33-.55.35.28,1,.54,1,.84.83,10.93-.39,12.71-11.75,12.42a40.51,40.51,0,0,1-23.4-7.54c-11-8-23.54-13.36-36.09-18.28-9.88-3.88-18.7-8.71-25.64-16.77-3.27-3.79-6.58-7.55-9.75-11.2-5.86,8.82-.82,20.8-9.66,28.43,7.46,5.39,16.16,8.49,24.66,11.92,3.78,1.53,3.7,5.21,4.34,7.82.57,2.31-3.1-.72-4.62,1.16-.56.69-2.36-.16-1.35-2,.34-.63,1.3-2.28-.38-2.1-10.38,1.13-17.71-7.47-27.47-8.36-3.79-.34-4.59-2.89-3.72-6.63,1-4.14,1.56-8.44.68-12.78a5,5,0,0,0-3.22-3.89c-1.61-.62-2.16,1.11-2.63,2.06-3.57,7.32-10.31,11.61-15.94,17-4.26-1.62-2.49,2-3.09,3.56-.9,2.36.93,5.77-2.7,7.1,1.42,4.93,5.92,4,9.39,4.67,1.86.35,4.24-1,3.34,2.7-.56,2.27.34,5-3.85,4.89-4.87-.17-8.68-1.06-10.21-6.4a50.7,50.7,0,0,0-3.31-8.38c-3.39-6.87-4.7-12.53,4-17.17,6-3.18,8.13-8.62,4.2-15.88-3.76-6.94-5.26-14.81-.66-22.27,1.46-2.36-.07-3-1.33-4.11-1.51-1.21-3-2.44-2-4.69a70.65,70.65,0,0,0,15.34-9c8.61-6.57,18.67-4,28.09-2.85,2.45.29,5.49,3.38,8.71,4.39,6.6,1.19,10.83,6.71,16.75,9.21,2.41,1,.34-1.33,1.21-1.25.53-1.14,1.32-2.1,1.88-3.19,4.58-8.9,3.05-11.46-7-11.72a3.74,3.74,0,0,1-2.7-.92c-.9-4.4,2.73-4.58,5.33-5.6s6-.25,8.45-2.28a6.78,6.78,0,0,1,1.86-1.12c10.48-1.84,17.48,2,20.78,11.59-2.53-.07-4.51-4.86-6.91-1.54-2.54,3.51-1.39,8.12-.24,11.71.94,3,4.14,0,6.27,0,7.26-.06,11.37-6.69,17.94-7.84,1.27.68.89,2.08,1.37,3.11a10.79,10.79,0,0,0,.64-2.75c.36-1.58,1.51-2.58,2.41-3.78a6.58,6.58,0,0,1,6.24-1.22,17.06,17.06,0,0,0,6.21,4.32c1.14,1.61,2.47,1.51,4.38,1.23,2.19-.32,7.52-2.35,3.91,3.83-.71,1.2.46,1.1,1,1.2,2.37.46,4.15-.49,5.18-3.12,1.75,4.29,3.69,7.95-1.89,10.12-.56.22-.41,2.28-.59,3.48-3.9,2.59.67,5.13,0,7.71-5,.93-7.87,4.15-9.31,8.86-1.52,1.16-5-1.65-5.05,2.48-1.09,1.92-1.5,4.42-4.17,5-2.95,1.15-1.83,4.91-4.14,6.46l-.07-.07c-4.45-.41-2.46-4.73-4.16-6.8-2.19-1.49-5.05-.85-7.26-2.25a19.56,19.56,0,0,1-4.43-3.33c-1.18-1.11-.13.63-.5.87.4,3.91,2.31,7.8,0,11.69a3,3,0,0,1-1.94.41c-1.28-.38-2.9-1.73-3.24.94-.21,1.69-.7,3.71,1.7,4.32,1.69.43,3.48-.17,5.24,0C404.36,120.76,405.92,124.89,408.06,128.33Z" transform="translate(716.42)"/><path class="cls-2" d="M412,239.46c-6.5-.59-15.45,1.45-24-1.66s-13.77-13.24-10.59-21.64c1.66-4.4,6.09-1.55,9.2-2.17,2.37-.47,4.89-.11,4.33,3.33-1.5,9.17,4.53,9.79,11,9.82,9.1,0,18.22.17,27.3-.2,4.9-.2,9.57-1.12,9.19-8.18-.37-6.78-5.41-5.87-9.29-6-10.6-.49-21.24-.19-31.84-.65-19.72-.86-22.1-12.7-19.19-27.31,1.55-7.79,8.41-10.8,15.38-11.43,13.59-1.24,27.34-1.56,40.87.12,11.91,1.48,16.47,7.87,16.23,18.82-.08,3.78-1.5,5.36-4.86,4.43-3-.84-8.72,3.23-8.74-3.41,0-6-3.07-7.07-7.91-7.49a156.51,156.51,0,0,0-32.53.27c-4.68.56-5.61,3.1-5.68,7.2-.07,4.67,2.66,5.31,6.3,5.54,12.36.78,24.77-.51,37.12,1,13.55,1.7,18.21,7.39,17.61,22.05-.46,11.13-7.05,17.16-19.42,17.53C426.35,239.6,420.27,239.46,412,239.46Z" transform="translate(716.42)"/><path class="cls-3" d="M195.55,206.12q0-14,0-28c0-2.6-.19-5.26,3.68-5.12,19.14.66,38.38-1.66,57.44,1.3,8.85,1.38,12.73,5.92,13,14.84.17,6.61,2,13.74-3.5,19.37-1.16,1.18-.76,1.95.08,3.09,5.53,7.46,2.68,16.08,3.14,24.22.34,5.92-4.56,3.25-7.19,3.41-2.43.14-6.58,2.06-6.48-3.38.07-3.78-.12-7.58,0-11.36.23-6.24-2.43-9.27-8.89-9.16q-15.91.27-31.82,0c-3.5-.06-5,.78-4.8,4.59.3,5-.12,10.1.1,15.14.28,6.38-4.41,4.18-7.38,4.23s-7.53,1.91-7.4-4.32C195.69,225.32,195.54,215.72,195.55,206.12Z" transform="translate(716.42)"/><path class="cls-2" d="M691.63,239.51c-5.8,0-11.61,0-17.41,0-16.27-.12-22.88-5.4-24.44-21.23-.94-9.47-1.19-19.12.75-28.64,2.16-10.58,8.42-16.54,19.15-16.75,14.63-.3,29.27-.32,43.9,0,11,.27,18.39,7.47,18.94,18.53.49,9.81.48,19.68,0,29.49-.53,11.1-7.89,17.92-18.93,18.52-.51,0-1,0-1.52,0H691.63Z" transform="translate(716.42)"/><path class="cls-3" d="M597.14,239.5c-5.57,0-11.13.05-16.69,0-14.63-.14-21-5.07-23-19.42a92,92,0,0,1,.77-32.41c1.84-8.39,8.27-14.35,17.06-14.65,14.14-.48,28.32-.6,42.45,0,12.21.49,19.52,11.08,16.59,22.94-1.21,4.9-5.36,2-8.14,2.48-2.31.41-5.49.9-5-3.31.94-8.66-4.3-10.11-11.24-10-9.1.15-18.21-.17-27.3.13s-11,2.52-11.1,11.44c0,6.83.25,13.66-.06,20.47-.3,6.5,3.13,9.56,8.91,9.74,11.11.36,22.24.3,33.35.08,5.5-.11,9.16-2.62,8.19-9-1.09-7.11,4.13-4.88,7.72-5.39,4.68-.66,6,1.06,6,5.77-.06,15.06-5.66,21-21,21.11C608.76,239.54,603,239.49,597.14,239.5Z" transform="translate(716.42)"/><path class="cls-2" d="M21.81,205.54c0-9.09.12-18.19,0-27.28-.07-3.58.46-5.47,4.84-5.4,16.41.26,32.84-.14,49.25.21,12.54.26,17.57,4.84,18.33,17.33,1.06,17.44-2.76,25.4-22,25-10.61-.22-21.22.13-31.83-.07-3.62-.07-4.9,1-4.71,4.67.27,5-.25,10.12.11,15.15.43,6-3.82,4.17-6.58,4.06-2.93-.11-7.56,2.26-7.43-4.14C22,225.25,21.81,215.39,21.81,205.54Z" transform="translate(716.42)"/><path class="cls-2" d="M465.61,200.55c0-7.32.41-14.68-.13-22-.44-6,2.81-5.92,6.93-5.61,3.71.28,8.2-1.57,8,5.43-.43,13.63.14,27.29-.21,40.92-.14,5.33,2.28,7.51,6.87,7.59q17,.3,34.08,0c4.64-.09,7-2.26,6.85-7.66-.4-13.38.2-26.79-.27-40.16-.22-6.05,2.58-6.5,7.22-6.17,4,.28,8-1,7.78,5.77-.49,14.13.07,28.29-.24,42.44-.27,12.09-6.4,18.09-18.42,18.28-13.14.22-26.28.19-39.42,0s-18.9-6.26-19-19.13C465.56,213.69,465.61,207.12,465.61,200.55Z" transform="translate(716.42)"/><path class="cls-2" d="M278.1,238.8c3.36-5.66,6.38-10.78,9.42-15.88,8.89-14.95,17.75-29.93,26.71-44.84a11.2,11.2,0,0,1,19.31-.21q18,30.06,36.07,60.36c-13.62,2.69-14.54,2.43-21.08-8.06-1.67-2.69-3.44-3.84-6.61-3.81q-17.82.16-35.63-.14c-3.12-.05-5.59.62-6.56,3.7C296.27,240.89,287.94,240.18,278.1,238.8Z" transform="translate(716.42)"/><path class="cls-2" d="M94.8,238.68c12.84-21.46,25.26-42.42,37.92-63.24,2.43-4,13.87-3.61,16.29.4,12.47,20.66,24.78,41.42,37.24,62.29-13.21,2.92-14.75,2.48-20.92-7.77-1.81-3-3.71-4.07-7.17-4-11.37.17-22.74,0-34.12-.07-2.74,0-5.9-.62-7,2.84C113.45,239.84,105.37,240.79,94.8,238.68Z" transform="translate(716.42)"/><path class="cls-4" d="M369.82,54.23v1.54c-8.77.44-16.94,3.2-25.25,5.84-6.47,2-13.47,1-20.2-.58s-13.71-3.43-20.88-3.11c-9.74.43-12.4,2.39-15.62,11.75a4.76,4.76,0,0,1-2.64,3.22c2.29,2,6.77,1.13,7.22,5.47q.69,2.46,1.4,4.94c-9-2.17-14.1-7.41-14.54-15S283.85,54.13,292,51.42c11.67-3.91,23-.52,34.31,2,3.44.76,6.85,1.68,10.33,2.2,2.79.41,6,.31,7.56-2.35,3.22-5.6,8.86-5.94,14.37-7.62C356.85,55.93,366.6,50.56,369.82,54.23Z" transform="translate(716.42)"/><path class="cls-5" d="M408.06,128.33c-3.95-.66-3.95-7.81-9.52-5.81-2-2.13-4.31-4.14-2.84-7.57l1.47.09c2.77-4.25.2-8-1.16-11.81.23-2-1.71-4.31,1.08-6.64,1.61,3,2.31,6.66,5.68,8.15,9.15,4.12,5,12.54,6.21,19.23Z" transform="translate(716.42)"/><path class="cls-6" d="M409,124c-1.72-3.71-3.9-7.08-1.72-11.68,1.83-3.86-4.82-3.87-4.49-7.55,2.46,1.76,5.85-.56,8.17,1.85,1.12,4.78.57,9.72,1.34,14.53Z" transform="translate(716.42)"/><path class="cls-7" d="M292.28,145.25c1.23-3.06.34-6.34,1-9.61,1.24-6.09,3.49.06,4.77-1C295.57,137.83,299.24,144.43,292.28,145.25Z" transform="translate(716.42)"/><path class="cls-8" d="M417.1,107.34c3,.55,2.58-2.79,4.25-3.76-.51-.85-.63-1.76.42-2.14,1.28-.46,2.07.4,2.65,1.45-2.21,4.22-4.06,8.66-7.51,12.12C415,112.41,415.4,109.86,417.1,107.34Z" transform="translate(716.42)"/><path class="cls-9" d="M436.54,92.24c-.57-2.42-4.72-.56-4.56-3.81.15-2.85,2.22-3.51,4.52-3.9C435.3,87.11,444.9,89.62,436.54,92.24Z" transform="translate(716.42)"/><path class="cls-10" d="M412.28,121.12c-4.48-.21-1.65-3.08-1.66-4.8,0-3.24.2-6.49.32-9.73,4.07,1.74-.92,6.57,2.86,8.41C413.3,117,414.92,119.61,412.28,121.12Z" transform="translate(716.42)"/><path class="cls-11" d="M412.08,64.69c-2.38,3.53.45,10.21-7.06,10.88-.45-2.93,3.82-4.41,2.64-7.46C409.64,67.62,408.88,63.6,412.08,64.69Z" transform="translate(716.42)"/><path class="cls-12" d="M424.42,102.89c-1.07,0-2.32-.78-3.07.69-2.3-1.47-2.18-3.83-.5-5,2.83-2,4.07,2,6.38,2.53C426.85,102.57,425.61,102.7,424.42,102.89Z" transform="translate(716.42)"/><path class="cls-13" d="M417.1,107.34c-.06,2.56-.13,5.12-.19,7.67l-3,.06c.11-2.67-.2-5.45.44-8C414.84,105,416.31,105.37,417.1,107.34Z" transform="translate(716.42)"/><path class="cls-14" d="M424.53,67.79c-3-.13-7.76,2.32-6.21-4.32C422.11,62.43,423.2,65.27,424.53,67.79Z" transform="translate(716.42)"/><path class="cls-15" d="M292.45,78.36c-2.83-2.67-10.71-1.34-8.46-7.11,1.19-3.06.78-6.92,3.45-9.66,3.81-3.89,8.51-5.18,13.56-5.72,8.69-.93,17,1.41,25.26,3.53C336.31,62,345.67,61,354.48,55.66c5.27-3.17,10.24-.46,15.34.11.61,4.7-3,2.85-5,3.08-3.83.43-8.1-.43-10.08,4.28a5,5,0,0,1,1,5.35c-2.56,2.88-2.94.72-3.5-2.62A10.78,10.78,0,0,0,353,70c1.57,3.39,1,5.06-3,3.41a11.48,11.48,0,0,0-5.92-.81c-2.34-.61-4.25-2.83-7-1.88.17-3.1-3.33-2.29-4.37-4.1-1.91,4.34-6.69,1.56-7.94,1.2-8.37-2.39-14.21,1.46-20,6.18C301.11,77,297.37,79.32,292.45,78.36Z" transform="translate(716.42)"/><path class="cls-16" d="M354.48,69.81l.23-6.68c4.47-1.44,10.83-3.77,13.12-.35,2.87,4.29.16,10.5-2.73,15.29-.57.94-1.91,1.42-2.9,2.12C357.22,78.52,351.94,77.07,354.48,69.81Z" transform="translate(716.42)"/><path class="cls-17" d="M324.91,85.87c1.62,1.39,4.11,2.5,4.75,4.27,2.3,6.47-5.28,8.39-6.71,13.26-1.65-1.8-4.85-2.17-4.91-5.44-.09-4.6.49-9.19-.29-13.9,3.3,2.78,3.91,6.38,3.75,10.43C326.67,92.83,322.74,88.24,324.91,85.87Z" transform="translate(716.42)"/><path class="cls-18" d="M377,105.27c-.68,2.37-.17,5.86-2.87,8-.67.53-10.28-7.92-10.19-7.92,4.45,0,4.95-4.81,7.9-6.56C371.43,102.86,380.17,98.49,377,105.27Z" transform="translate(716.42)"/><path class="cls-19" d="M354.48,69.81c-1.84,6.74,5,7,7.72,10.38.7.67,1.93,1.29,2,2,.13,1.55-1.52,1.29-2,.81-2.46-2.26-6.19-1.57-8.62-4.77-2-2.71-6.25-3.8-9.5-5.6,3.05-5.23,5.58,2,8.82.16-.19-3.37-2.78-6.91-.41-10.57C354.64,64.37,351.87,67.84,354.48,69.81Z" transform="translate(716.42)"/><path class="cls-20" d="M395.7,115c.42,2.72,3.09,4.6,2.84,7.57-8.49.24-8.49.24-7.48-11.75C393.83,110.84,394.29,113.44,395.7,115Z" transform="translate(716.42)"/><path class="cls-21" d="M396,103.23c4.7,5.9,5.07,9.68,1.16,11.81Q396.58,109.13,396,103.23Z" transform="translate(716.42)"/><path class="cls-22" d="M329.4,73.57c2.75,2.35,3.21,4.72,1.41,7.38a1.43,1.43,0,0,1-2.42.3C326.11,78.66,327.34,76.34,329.4,73.57Z" transform="translate(716.42)"/><path class="cls-23" d="M302.11,120.38c-.18,4.57-1.6,8.24-7.53,10.92C297.78,126.67,299.94,123.52,302.11,120.38Z" transform="translate(716.42)"/><path class="cls-24" d="M310.67,120.45c-2.42-3.46-3.07-5.45-2.4-8.77C311.24,113.8,311.78,115.83,310.67,120.45Z" transform="translate(716.42)"/><path class="cls-25" d="M232.07,186.28c5.8,0,11.6,0,17.4,0,4.33,0,6.57,2.06,6.47,6.46-.1,3.92,1.05,8.56-4.86,9.38-12.79,1.79-25.65.45-38.48.76-2,0-2.37-1.37-2.37-3,0-3,.18-6.07-.07-9.07-.29-3.49.71-4.92,4.52-4.7,5.78.34,11.59.09,17.39.09Z" transform="translate(716.42)"/><path class="cls-26" d="M691.15,227c-6.06,0-12.12.27-18.15-.08-5.85-.33-9.15-3.33-8.91-9.76.27-7.3.24-14.63,0-21.94-.19-5.84,2.35-9.5,8.07-9.65,12.84-.33,25.7-.25,38.55,0,5.4.09,8.17,3.54,8.26,8.84q.19,11.73,0,23.46c-.08,5.27-2.76,8.69-8.19,8.91-6.54.28-13.09.07-19.64.07Z" transform="translate(716.42)"/><path class="cls-27" d="M55.7,203c-3.52,0-7.11-.45-10.55.09-8,1.27-10.15-1.93-9.7-9.66.32-5.5,1-7.82,7.26-7.45,10,.61,20.12.3,30.17.11,5.07-.09,7.27,1.7,7.22,7s-.21,9.75-7,9.79c-5.79,0-11.57,0-17.36,0Z" transform="translate(716.42)"/><path class="cls-28" d="M323.91,189l14.54,24.43H309.6Z" transform="translate(716.42)"/><path class="cls-29" d="M126.23,213.28l14.44-24.19,14.5,24.19Z" transform="translate(716.42)"/></svg>