<svg id="Layer_1" data-name="Layer 1" xmlns="http://www.w3.org/2000/svg" viewBox="0 0 744.11 383.3"><title>Puma</title><path d="M646.57,361.79c0.08,13.63-10.09,23.81-23.7,23.73-12.7-.07-23.83-11.14-23.79-23.65s11.39-23.59,23.94-23.58A23.15,23.15,0,0,1,646.57,361.79Zm-4.83.28c0-11.8-7.68-20.24-18.63-20.34-11.32-.11-19.25,8.19-19.27,20.17s7.92,20.45,19.1,20.41C633.85,382.26,641.7,373.81,641.74,362.07Z" transform="translate(-2.95 -3.23)"/><path d="M632.08,374.27c-3.21,1.29-4.88.16-5.84-2.78-0.62-1.92-1.71-3.68-2.43-5.57s-2.31-1.79-3.88-1.73c-2.26.08-1.68,1.82-1.74,3.1-0.08,1.72,0,3.44,0,5.16,0,1.09.08,2.26-1.57,2.27a1.73,1.73,0,0,1-2-1.95q0-10.78,0-21.56c0-1,.36-2,1.52-2,3.73,0,7.58-.79,11.17.42,4.77,1.61,7.07,8.05,3.68,11.47-3.06,3.08-2.54,5.4-.77,8.46A35.79,35.79,0,0,1,632.08,374.27ZM617.58,356.9c0,3.7,1,4.13,4.18,3.93,2.88-.18,5.65.14,5.51-4.22-0.13-4.13-2.78-4.37-5.69-4.37C618,352.24,617.41,353.65,617.58,356.9Z" transform="translate(-2.95 -3.23)"/><path d="M266.93,298.2q0-40.77,0-81.54c0-8.48,5.31-15.35,13.34-16.73a66.68,66.68,0,0,1,11.14-.8q63.21-.08,126.42,0c5.58,0,11.18.3,16.75,0.72,7.44,0.56,12.71,5.61,14.41,13.85a43.09,43.09,0,0,1,.64,8.61q0.05,77.2,0,154.4c0,9.68,0,9.69-9.23,9.7-11.37,0-22.75,0-34.12,0-7.42,0-8-.51-8-8.21q-0.07-52,0-104.09c0-13.68.25-27.36,0.41-41,0.07-5.69-2.79-9.45-7.44-9.66s-8.09,3.05-8.16,8.88c-0.19,15.61-.13,31.23-0.14,46.84,0,33.73-.07,67.47.12,101.2,0,4.54-1.18,6.2-5.59,6.14-13-.18-26.11-0.21-39.15,0-4.6.08-5.53-1.88-5.52-6.23q0.2-71.42.08-142.84c0-2.88.18-5.79-.71-8.6-1.21-3.81-3.72-5.63-7.59-5.41s-6.15,2.6-6.64,6.5a65.92,65.92,0,0,0-.26,8.08c0,47.42-.07,94.84.13,142.26,0,5.15-1.93,6.27-6.23,6.22-13.05-.14-26.1-0.21-39.15,0-4.5.07-5.63-1.71-5.6-6.16,0.18-27.37.09-54.74,0.09-82.12h0Z" transform="translate(-2.95 -3.23)"/><path d="M663.79,207.45c-0.38,9.93-.3,19.62,6.32,28,2.57,3.24,5.7,5.49,8.85,7.83a13.6,13.6,0,0,1,6,11.67,32.48,32.48,0,0,0,5.54,18.49c2.82,4.18,3.94,8.38,1.79,13.53-2,4.67-.79,9.9-0.89,14.89-0.13,6.1-2.38,8-8.17,6.72-7.69-1.68-13-6.24-15.82-13.95-3.22-8.84-4-18-3.35-27.29,0.33-4.93-1-8.44-4.93-11.4q-35.61-27.07-51.4-69.83c-5.15-13.87-12.57-25.73-26.53-32a44,44,0,0,0-17.35-3.71,166.91,166.91,0,0,1-33.81-4c-21-4.84-37.86-16.57-52.25-32.63-0.13-.14-0.24-0.3-0.37-0.44-8.48-9-8.49-9-18.54-2.35-11.59,7.64-23.58,5.3-35.59,1.51-8.23-2.6-15.78-6.89-23.63-10.45-7.36-3.34-7.87-3.19-10,4.7-1.47,5.41-5.23,6.31-9.57,5.38-5.81-1.25-10.44-4.62-11.94-10.86a15.09,15.09,0,0,1,5.48-16c7.73-6.3,17-7.43,26.43-7.42,3.51,0,7,.82,10.52,1.37,2.51,0.39,4.89.59,6.32-2.2a6.79,6.79,0,0,0-.47-7.61c-3.3-4.42-8.16-6.34-12.9-4.74-7.93,2.68-13.66.75-18.71-5.79-1.68-2.18-4.46-3.43-6.67-5.19-6-4.79-6.26-9.72-.41-14.63a14.64,14.64,0,0,0,5.62-9.59,8,8,0,0,1,4.84-6.63c5.77-2.49,8.9-7.27,11.46-12.81,2.95-6.37,4.34-6.62,9-1.39,2.78,3.12,4.58,4.26,7.72.14,4.46-5.86,7.19-5.8,10.29.76,2.75,5.82,6.65,7.54,12.39,8.59,24.33,4.43,44.65,17.75,64.43,32.11,18,13.1,34,28.84,50.91,43.34a144.78,144.78,0,0,0,45.87,27c28.74,10.18,48.29.83,64.93-26,6.38-10.3,9.88-22,14.54-33.13C685.26,48.32,691.48,35.56,701,25c7.92-8.77,17.07-16.09,28.07-20.44,4.94-2,9.91-2.15,14.14,2s4.44,9.12,3.18,14.45A25.1,25.1,0,0,1,733.76,37.8c-6.07,3.38-12.34,6.37-18.35,9.86-14.73,8.58-24.17,21.94-31.05,37.51-2.94,6.66-6.16,13.22-8.63,20.06a65.67,65.67,0,0,1-24.88,32.55c-3.71,2.57-4,4.5-1.16,8.17,7.2,9.35,9.39,20.84,11.45,32.21C662.89,187.82,664.21,197.57,663.79,207.45Z" transform="translate(-2.95 -3.23)"/><path d="M580.91,298.18c0,27-.12,54,0.1,80.94,0,5.47-1.52,7.54-7,7.4-12.11-.31-24.23-0.07-36.35-0.11-7.06,0-7.42-.43-7.45-8,0-10.41,0-20.81,0-31.22,0-7.64-.26-7.84-8.09-7.85-7.08,0-7.12,0-7.15,7.93,0,11.18-.18,22.36.08,33.53,0.1,4.36-1.4,5.75-5.47,5.7q-19.57-.25-39.14,0c-4.53.06-6.31-1.74-6.3-6.46,0.09-53.77,0-107.53.12-161.3,0-12.27,7-19.43,19-19.52q39.14-.3,78.29,0c13.46,0.1,19.36,6.57,19.36,20.38Q580.92,258.87,580.91,298.18ZM530.2,271.11h0c0-12.53,0-25.06,0-37.58,0-6.28-2.91-10-7.58-10S515,227.19,515,233.56c-0.06,25.25.07,50.5-.11,75.74,0,4.92,1.76,6.69,6.26,6.14,4-.49,9.38,1.81,9.14-6.18C529.93,296.55,530.2,283.83,530.2,271.11Z" transform="translate(-2.95 -3.23)"/><path d="M135,287.14c0-27.37.07-54.74-.08-82.1,0-3.86.8-5.39,4.81-5.59,13.79-.69,27.58-0.12,41.37-0.31,3.85-.05,4.59,2.34,4.57,5.66,0,11.76,0,23.51,0,35.27q0,53.77,0,107.54c0,1.93,0,3.85,0,5.78,0.12,4.91,2.14,8.21,7.23,8.44,4.37,0.2,7.82-3.4,7.91-8.62,0.19-10.79.09-21.58,0.09-32.38q0-57,0-113.9c0-7.58.2-7.8,7.48-7.82,11.93,0,23.86-.1,35.79.1,7.39,0.12,7.46.34,7.46,7.93q0,42.21,0,84.42,0,37,0,74c0,15.19-5.63,20.84-20.42,20.85q-38.87,0-77.74,0c-13,0-18.5-5.7-18.51-18.91q0-40.18,0-80.37h0Z" transform="translate(-2.95 -3.23)"/><path d="M3,292.58Q3,249.81,3,207c0-7.7.17-7.92,7.36-7.92q43.89,0,87.77,0c12.52,0,17.72,3.49,21,13.24a15.62,15.62,0,0,1,.74,5.08q-0.08,50.28-.09,100.57c0,15.38-5.75,21.28-20.63,21.3-13,0-26.09.14-39.13-.06-4.54-.07-6.35,1.52-6.26,6.33,0.21,11.56-.06,23.12.12,34.68,0.07,4.41-1.4,6.26-5.81,6.2-13-.17-26.09-0.2-39.13,0-4.81.08-6-2.1-6-6.64C3.07,350.76,3,321.67,3,292.58Zm50.8-23.73c0,13.47.12,26.95-.06,40.42-0.07,5.06,2.4,6.4,6.61,6.08,5.24-.4,8.62-4.11,8.64-10,0.07-24.06,0-48.12,0-72.18a15,15,0,0,0-.13-2.3c-0.84-5.34-4.71-7.93-10.67-7.61s-4.33,4.75-4.36,8.07C53.73,243.83,53.8,256.34,53.81,268.85Z" transform="translate(-2.95 -3.23)"/></svg>