<svg id="Layer_1" data-name="Layer 1" xmlns="http://www.w3.org/2000/svg" viewBox="0 0 1464.85 729.54"><defs><style>.cls-1{fill:#e7e6e6;}.cls-2{fill:#f2efe8;}.cls-3{fill:#213c64;}.cls-4{fill:#213b63;}.cls-5{fill:#213b64;}.cls-6{fill:#213c60;}.cls-7{fill:#223b62;}.cls-8{fill:#213b62;}.cls-9{fill:#263a5d;}.cls-10{fill:#283b57;}.cls-11{fill:#273c58;}.cls-12{fill:#263b5d;}.cls-13{fill:#223b63;}.cls-14{fill:#233b61;}.cls-15{fill:#e5f0f8;}.cls-16{fill:#eff0e9;}.cls-17{fill:#dfebf7;}.cls-18{fill:#dbf0f8;}.cls-19{fill:#d6e6f8;}.cls-20{fill:#e8f0ef;}.cls-21{fill:#cee2f1;}.cls-22{fill:#d8ebf8;}.cls-23{fill:#d1e7f5;}.cls-24{fill:#d7e8f6;}.cls-25{fill:#dcecf7;}.cls-26{fill:#eaeff1;}</style></defs><title>timeout</title><path class="cls-1" d="M-714.84,729.53h-1.58C-715.9,728.14-715.38,728.11-714.84,729.53Z" transform="translate(716.42)"/><path class="cls-2" d="M748.42,195.75q0,97.13,0,194.25H1.53q.06-195,0-390H748.43Q748.4,97.88,748.42,195.75Z" transform="translate(716.42)"/><path class="cls-3" d="M340.8,101.43c-10.72,7.59-20.93,16.3-35.17,16.22-3,0-7,1-7.74-3.29-.68-3.81,3.11-5,5.61-5.34,12.61-1.46,18.62-10.25,21.74-20.73,2.93-9.87,7.32-20.06,2-30.82-2-4-.64-9.6-5.76-12.78,6.14,18.8-8.87,29.53-25.35,32.05a30.48,30.48,0,0,0-7.38,2.37c-2.29,1-5.07,1.5-6.8-.12-2.93-2.72,2-3.62,2-5.92-1.51-1.39-2.47.43-3.68.69-3.43.73-7.39,1.4-9.43-1.68-2.31-3.5,1.75-5.29,3.75-7.44,4-4.24,8.3-8.13,6-15.1-.87-2.6,1.5-5.08,3.21-7,4-4.62,10.26-7.2,12.18-13.89.61-2.12,2.84-1.25,4.9-.59,4.45,1.43,8.49.77,12.8-2.17a202.78,202.78,0,0,1,23.2-13.07A38.73,38.73,0,0,1,369,11c11.19,4.16,22.67,3.89,34.25,1.32,17.12-3.81,32.38-.11,45.41,12,3.74,3.46,7.83,6.55,11.45,10.12,6,5.94,7,13,3.35,20.54-6.63,13.56-17.22,23.82-28.43,33.4-4.69,4-8.8,8.23-11.76,13.59-5.61,10.12-14.91,12-25.35,11.46-1.93-.1-3.42-.81-3.8-2.61-.45-2.06,1.56-3.56,2.83-3.69,12.59-1.26,11.61-8.51,8.88-17.73-1.47-5-.21-10.4,2.49-15.35,5.42-9.92,10.84-19.79,20-27.37-4.16-.94-6.64,1.62-8.84,4.18-2.83,3.28-5.92,6.57-7.8,10.39-4.8,9.74-11.51,16.41-22.93,17-4-1.31-8.12.65-12.2-.85-8-3-14.27-6.93-15.11-16.58-.34-4-.71-8.23-2.73-11.76,7.91,18.44-1.63,32.16-13.05,45.33l0,0C344.65,97,344.13,100.18,340.8,101.43Z" transform="translate(716.42)"/><path class="cls-4" d="M256.1,232.23c5.29-29.75,10.39-58.12,15.28-86.52.55-3.19,2.3-3.2,4.55-3.2,8.75,0,17.51.2,26.25,0,3.82-.1,4.3,1.61,4.3,4.8q-.12,60.16,0,120.32c0,3.84-1.11,4.86-4.92,5-18.51.59-18.5.71-18.5-17.49V184.43l-.92-.1q-5.37,29.61-10.73,59.2c-1.54,8.52-3.07,17-4.39,25.6-.39,2.5-1.57,3.34-3.85,3.25a14,14,0,0,0-1.45,0c-19.1,1-18.9,1-22.49-18.28-4.34-23.27-9.06-46.47-14.52-69.6,0,27-.19,53.92.15,80.88.07,5.8-1.46,7.36-7.19,7.2-13.82-.36-13.84-.07-13.84-13.6,0-36.46.13-72.93-.11-109.39,0-5.62,1.37-7.65,7.19-7.23a215.56,215.56,0,0,0,21.87.08c3.43-.1,4.78.65,5.49,4.46,4.5,24.28,9.34,48.5,14.24,72.7C253.33,223.46,253.2,227.64,256.1,232.23Z" transform="translate(716.42)"/><path class="cls-4" d="M501.91,210.28c-.64,10.88,1.09,24.24-.8,37.52-2,14.2-10.65,22.89-24.3,25.09-13.27,2.13-26.92,3.06-38.6-6.49-7.22-5.91-10.51-13.71-10.61-22.63-.27-24-.22-48.05,0-72.07.11-15.19,10.92-26.92,25.84-29.3a62.8,62.8,0,0,1,21.45-.09c16.78,3,26.71,13.82,27,31.32C502.07,185,501.91,196.44,501.91,210.28Z" transform="translate(716.42)"/><path class="cls-5" d="M601.1,196.1c0,14.1-.4,28.21.09,42.29.9,26.14-14.44,36.69-38.13,35.87-14.19-.49-26.85-3.91-32.38-19.17a38.76,38.76,0,0,1-2.55-13.42c.06-30.87.19-61.74-.12-92.61-.06-5.63,1.57-7.16,6.89-6.63,5.73.57,13.3-1.68,16.84,1.22,3.78,3.11,1.13,10.93,1.16,16.68.13,27.46,0,54.93.06,82.39,0,8.8,4.26,13.28,12.5,13.31s12.27-4.44,12.28-13.53c0-31.11.16-62.22-.13-93.33-.05-5.51,1.38-6.88,6.82-6.78,16.66.29,16.67,0,16.67,16.52Z" transform="translate(716.42)"/><path class="cls-6" d="M335.61,207.76c0-19.45.27-38.9-.16-58.33-.13-6.05,1.91-7.11,7.37-7,18,.33,36,.29,53.95,0,4.76-.08,6.12,1.23,6.06,6-.16,13,.09,13-12.78,13-8.26,0-16.53.18-24.78-.08-3.9-.12-5,1.2-4.91,5,.23,9,.27,18-.05,27-.14,4.17,1.62,4.74,5.13,4.65,8-.21,16,.1,24.06-.14,3.54-.11,4.41,1.13,4.57,4.53.66,14.13.78,13.95-13.31,14.22-6.65.13-15.57-3.06-19.32,1.43-3.27,3.92-1,12.53-1,19.07-.06,17.4,0,17.4,17.2,17.4,4.62,0,9.24-.16,13.85,0,3.55.16,8.64-1.84,10.31,1,2.52,4.26.81,9.91.79,15,0,2.66-2.4,1.9-3.9,1.91-19.68.05-39.37-.11-59.05.11-4.89.05-4-2.89-4-5.69Q335.61,237.29,335.61,207.76Z" transform="translate(716.42)"/><path class="cls-4" d="M71.59,216.61c0-16.51-.14-33,.11-49.54.06-4.36-.9-6.06-5.57-5.73-6,.43-12.14-.05-18.21.17-3.21.12-4-1-4.14-4.14-.83-14.83-1-14.82,13.92-14.82,19.91,0,39.83.15,59.74-.11,4.93-.07,6.71,1.05,6.62,6.33-.19,12.67.09,12.67-12.44,12.68-15.23,0-15.22,0-15.22,14.93,0,29.87-.12,59.75.09,89.61,0,4.88-.88,7.2-6.26,6.55-6-.72-13.78,2.52-17.5-1.24s-1-11.53-1.08-17.53C71.46,241.38,71.59,229,71.59,216.61Z" transform="translate(716.42)"/><path class="cls-7" d="M678.4,217.48c0,16.27-.12,32.55.09,48.82,0,4.35-.58,6.31-5.76,6.32-19.13,0-19.13.25-19.13-19.16,0-28.42-.14-56.83.14-85.25,0-5.36-1.2-7.39-6.79-6.88s-11.17,0-16.75.17c-3.16.12-4-1-4.22-4.14-1-14.82-1.09-14.81,13.29-14.81,20.16,0,40.32.17,60.47-.13,5-.07,6.63,1.11,6.52,6.34-.27,12.68,0,12.69-12.34,12.69-15.52,0-15.52,0-15.52,15.23Z" transform="translate(716.42)"/><path class="cls-8" d="M149.66,207.39c0-19.89.14-39.79-.11-59.69-.06-4.25,1.15-5.21,5.25-5.27,18.9-.26,18.9-.4,18.9,18.56,0,34.95-.13,69.89.13,104.83,0,5.45-1.35,6.84-6.8,6.76-17.31-.26-17.31,0-17.31-17.14V207.39Z" transform="translate(716.42)"/><path class="cls-9" d="M276.24,356.63c-12.05-3.07-24.8-3-37.56-3a10.17,10.17,0,0,0-6.6,2.53c-4.58,3.64-10,5.62-15.46,7.35a16.59,16.59,0,0,1-13.92-1.6c-5.39-3.2-5.59-6.9-.72-10.82a25.94,25.94,0,0,1,16.72-5.69c9.43.16,15.62-3.54,20.69-11.46,6.49-10.14,12.83-20.54,21.83-28.83,5-4.66,10.89-7.32,17.79-6.41,3.53.47,6.92,2.89,6.28,6.6-.59,3.38-1.51,8-6.86,7.95-3.49-.07-6.86-.34-3.49-5.13a5,5,0,0,0,.56-4.89c-16.48,9.67-20.84,27.94-31.78,41.41,7.87,2.13,12.18,0,14.68-7.38,2-5.84,7.22-9.64,12.75-12.3,3.15-1.52,6.65-3.13,10.11,0,3.16,2.88,1.79,6.17,1.24,9.41a28.57,28.57,0,0,1-1.22,3.47c4.75.07,7.61-2.32,10.34-4.82,3.4-3.11,6.66-6.38,10-9.56,2.41-2.3,5.53-2.32,8.23-1.41,3.2,1.08,2.3,4.38,2.43,7,.29,5.86-.23,11.61-2.95,16.92-2.81,5.49-7.74,7.35-13.41,6.37-4.74-.82-7.43-4-6.91-10.12,3.67,2.81,7.67,4.46,11.33,2.28s3-6.83,4.47-10.32a3.55,3.55,0,0,0-.74-4.08c-1.9-1.52-3.18.52-4.31,1.32-4.13,2.9-8.06,6.1-12,9.26-2.65,2.12-6.32.7-8.82,2.38a21.71,21.71,0,0,0-6.6,6.69C269.78,354.16,277.8,352.54,276.24,356.63Z" transform="translate(716.42)"/><path class="cls-10" d="M526.69,342.29c-6.34,2.84-11.63,7.64-18.42,9.66-9.6,2.86-14,.33-15.46-9.25-5.31,3.36-9.56,8.4-15.81,9.79-7.22,1.6-9.86-.7-12.13-10-5.57,2.83-10.43,6.84-16.37,8.83-5,1.66-10.19,3.25-14.19-1-4.54-4.84-2.45-10.16.59-15.22,3.58-6,9.25-9.18,15.38-11.4a7.47,7.47,0,0,1,9.45,3.28c2.41,4-1.24,5.71-3.29,7.46-4.07,3.51-8,7.72-14.51,5.9-2.4-.67-2.65,1.71-2.85,3.58-.32,3.13,1.95,3.18,3.78,2.79,10.23-2.22,19.95-5.61,25.63-15.27,6.65-11.31,15.3-20.4,27.13-26.27a21,21,0,0,1,5.35-2c2.1-.38,4.22-.46,5.75,1.91s-.2,3.76-1.1,5.09c-6.19,9.11-14.29,16.29-23.28,22.54-2.58,1.79-5.17,3.57-7.63,5.52a5.36,5.36,0,0,0-1.41,7.18c1.66,3,4.3.33,5.65-.38,7.44-3.9,14.73-8.21,20.73-14.19a30.77,30.77,0,0,1,11.56-7c3.67-1.33,7.28-.52,9.55,3,2.42,3.76-.79,5.78-3.06,7.61-4.21,3.36-8.1,7.72-14.55,5.86-2.25-.65-2.51,1.46-2.89,3-.51,2,.06,3.42,2.36,3.45a16.94,16.94,0,0,0,6.35-1,70.31,70.31,0,0,0,25.33-16.09c2.24-2.23,4.25-4.84,6.86-6.48,3.34-2.1,7.73-3.63,9.37,1.78A25.91,25.91,0,0,1,548,346.53a12.25,12.25,0,0,1-12.94,6c-5.83-.91-7.17-5.63-8.46-10.33,1.58-1,3.16-.5,4.84-.16,6.89,1.38,8.32,0,8.48-8.34C535.32,336.66,531.77,340.73,526.69,342.29Z" transform="translate(716.42)"/><path class="cls-11" d="M405.4,359.7c5-2.71,6.41-8.43,10.49-11.93-11.76,6.69-12.83,6.7-18.16-.36-5.21,3.12-9.76,9.55-16.94,5.44-5.48-3.14-2.92-8.28-1.38-13.58-5.09,3.84-9.56,7.09-13.89,10.53-2.06,1.64-3.91,2-5.71,0-2.08-2.33.35-3.46,1.57-4.69,4.7-4.71,7.32-10.74,10.59-16.36,1.22-2.11,1.92-5.37,5.79-2.81s-.62,3.92-.68,5.91c0,1.21-1.3,2.38-2.78,4.83,5.82-2.21,8.89-5.95,12.57-8.64,2.73-2,5.79-2.85,7.81-.73s-1.73,3.37-2.73,5.09c-1.93,3.32-4.51,6.26-6.5,9.55-.65,1.08-.94,3.19-.31,4.06,1.11,1.54,3,.87,4.53,0a92.83,92.83,0,0,0,15.77-11.36A51.51,51.51,0,0,1,418.56,326c5.23-2.34,8.77.21,12.74,2.21,1.19.6,2.65,1.71,1.4,3.43-10.4,14.37-16,31.88-29.25,44.41a27.1,27.1,0,0,1-8.53,5.17c-3.52,1.48-6.73.33-9.1-2.57s-1.67-5.82.67-8.25c5.24-5.44,10-11.9,19-10.54-4.25,4.62-8.53,9.22-12.87,13.75A165.62,165.62,0,0,0,405.4,359.7Z" transform="translate(716.42)"/><path class="cls-12" d="M361.26,363.74c-10-1.1-15-8.63-15.72-24.36-4.5,5.34-8.35,10.51-14.08,13.69-7.17,4-12.45,1.2-13.41-7-1.15-9.89,3-18,8.67-25.41,9.37-12.19,21.17-20.24,37.22-20.63,4.17-.1,6.73,1.53,8.72,5.09s-.52,5.29-2.24,7.55c-2.93,3.85-5.82,7.73-8.59,11.7C352.73,337.35,352.62,346.61,361.26,363.74Z" transform="translate(716.42)"/><path class="cls-13" d="M470.13,69.86c-.09,9.75,1.49,19,6.86,27.49,2.68,4.25,4.16,9.46-.06,13.84-3.45,3.58-17.5,4.58-20.76,2a2.18,2.18,0,0,1-.81-2.51c.52-1.92,2.35-2.51,3.79-3,2.41-.75,6.59.68,7-2.18.39-3.1-4.06-3.47-6.4-5-3.4-2.2-7.09-4-10.46-6.2-5.61-3.74-6.05-7.57-1.32-12.29,6-6,11.57-12.27,15.94-19.54,1.1-1.84,2-4.36,4.41-3.62,2,.63,1.53,3.26,1.58,5.19S470,67.93,470.13,69.86Z" transform="translate(716.42)"/><path class="cls-14" d="M387.08,94.32c1.17,16.11-12.14,20.35-24.52,19a3.78,3.78,0,0,1-3.62-2.93c-.72-3.47,3-3,4.44-4.55,9.25-3.23,10-6,3.39-13.1-2.16-2.31-4.67-4.26-6.68-6.71a11,11,0,0,1-2.4-10.21c.77-2.89,2.67-5.17,5.81-3.93,9.8,3.88,20.49,6.81,23.78,19A4.46,4.46,0,0,1,387.08,94.32Z" transform="translate(716.42)"/><path class="cls-15" d="M387.08,94.32c-2.8-8.09-5.94-15.8-16.22-16.66-1.1-.09-2.07-1.33-3.19-1.52-2.63-.44-4.53-5-7.2-2.49-3.26,3.1-1.81,7.43.4,10.68s5.32,6.22,8.18,9.15c2.63,2.69,5.07,5.91,3.83,9.47-1.52,4.41-6,3-9.5,2.88,2-2.72,7.22-4.31,5.12-8.49a23,23,0,0,0-11.88-11.06,3.47,3.47,0,0,0-4.72,3.16c.05,4.79-3.24,4.4-6.21,4.81,2.52-4.56,4.61-9.44,7.64-13.63,8.7-12,7.08-24.44,1.8-37.85,6.71,3.33,7.37,9.52,7.51,14.4.44,14.71,9.63,17.11,22.08,19.73,1.38.28,2.71.8,4.06,1.21-7.35.22-3.89,4-2.93,7.68C386.56,88.49,393,90.7,387.08,94.32Z" transform="translate(716.42)"/><path class="cls-15" d="M340.8,101.43c1.28-2.65,2.53-5.31,4.91-7.2C347.2,98.76,345.67,101.23,340.8,101.43Z" transform="translate(716.42)"/><path class="cls-16" d="M452.32,207.64c0-11.91-.06-23.82,0-35.73,0-7.84,4.28-11.87,12.23-11.92,7.76,0,12.49,4.13,12.52,11.67q.17,36.47,0,72.93c-.05,7.25-5.52,11.74-13,11.37s-11.63-4.37-11.69-11.86c-.09-12.15,0-24.3,0-36.46Z" transform="translate(716.42)"/><path class="cls-17" d="M272.8,340.62a14,14,0,0,1-7.82,7.16c-1.19.43-2.44-1.21-2.12-2.22,1.13-3.51,1.67-7.87,5.51-9.29C269.94,335.7,271.58,338.72,272.8,340.62Z" transform="translate(716.42)"/><path class="cls-18" d="M203.66,358.51a28.87,28.87,0,0,1,17.21-4.44C215.13,360,212.39,360.76,203.66,358.51Z" transform="translate(716.42)"/><path class="cls-19" d="M278.92,328.6c-1.49,3.17-1.17,6-3.88,7.26-.3.14-1.57-.78-1.55-1.17C273.63,331.93,275,329.93,278.92,328.6Z" transform="translate(716.42)"/><path class="cls-20" d="M526.69,342.29l16-14.54c0,4.57.36,7.33-.07,10-1.23,7.58-6.18,9.64-12.85,5.64a18.33,18.33,0,0,0-3.23-1.2Z" transform="translate(716.42)"/><path class="cls-21" d="M498.75,310c-6.05,8.09-12.46,13.46-18.51,19.18C483.66,321.35,490.07,314.64,498.75,310Z" transform="translate(716.42)"/><path class="cls-22" d="M444.22,336.11c2.24-3.52,4.76-6.92,10.36-8.95C452.32,332.91,447.88,334,444.22,336.11Z" transform="translate(716.42)"/><path class="cls-23" d="M516.25,327.18c-3.18,5.59-7.12,7.08-10.85,8.88C507.72,332.47,510.22,329.13,516.25,327.18Z" transform="translate(716.42)"/><path class="cls-24" d="M427.5,329.65c-5.75,6.66-11.83,12.07-20.06,15.94C412.26,336.77,417.6,332.57,427.5,329.65Z" transform="translate(716.42)"/><path class="cls-25" d="M405.4,359.7c-3.38,7.75-8.39,14-16.29,17.48,3.46-7.7,9.16-13.28,16.43-17.36Z" transform="translate(716.42)"/><path class="cls-26" d="M325.39,348.1c4.1-19.87,26.8-42.33,41.59-41.62C353.71,320.8,342.3,336,325.39,348.1Z" transform="translate(716.42)"/></svg>