<svg id="Layer_1" data-name="Layer 1" xmlns="http://www.w3.org/2000/svg" viewBox="0 0 1436.04 625.56"><defs><style>.cls-1{fill:#e7e6e6;}</style></defs><title>veramont</title><path class="cls-1" d="M-714.84,729.53h-1.58C-715.9,728.14-715.38,728.11-714.84,729.53Z" transform="translate(716.42 -103.98)"/><path d="M518.45,104.13c2.93,3.42,1.14,5.73-2.17,6.72-7.72,2.31-8.8,7.64-8.76,14.85.26,46.84.17,93.69.09,140.54,0,5.29,0,10.19,6.22,12.24,1.8.59,3.19,2.14,2.66,4.28S513.85,285,512,285q-18.27,0-36.52,0c-1.82,0-3.89,0-4.29-2.44-.37-2.25,1.27-3.5,3-4.09,6.2-2.13,6.94-6.75,6.92-12.55-.17-44.09-.1-88.18-.1-132.28v-6.61c-2.77.9-3,3.12-3.81,4.78q-24.09,50.32-48.15,100.65c-1.22,2.53-1.67,6.56-5.31,6.41s-3.9-4.11-5.14-6.68c-16.67-34.5-33.26-69-50.94-103.46-.11,2.1-.32,4.21-.32,6.31,0,43.18.18,86.35-.19,129.52-.07,7.68,2.32,11.44,9.78,12.86,3.42.65,9.57.32,8.67,5.44-.72,4.09-6.33,2-9.73,2.12-10.56.23-21.13.09-31.69,0-1.75,0-4.12.35-4.59-2-.55-2.69,1.89-3.26,3.8-4,.21-.09.44-.12.66-.19,14.33-4.85,14.33-4.85,14.33-19.95,0-44.1-.16-88.19.15-132.28.05-7.76-1.68-12.8-9.87-14.57-4-.87-6.9-3.16-3.83-7.9h41.34c15.63,33.38,31.27,66.75,47.63,101.66,6.34-13.15,12-24.83,17.61-36.54Q467,136.7,482.62,104.13Z" transform="translate(716.42 -103.98)"/><path d="M96.8,286Q70.24,204.11,43.74,122.15c-2.18-6.77-6.12-11.05-13.08-12.5-1-4.72.77-5.79,5.51-5.66,14.23.4,28.48.14,42.72.14C80.34,107,80.58,110,77,110.84c-7,1.69-5.3,5.83-3.85,10.45q16.77,53.49,33.41,107c.58,1.84.55,4.1,3,5.21a15.76,15.76,0,0,0,1.24-2.46q16.48-54.65,33-109.31c1.78-5.89-.06-9.38-6-10.66-3.83-.82-6.52-2.36-5.16-7h40c.72,4.4-1.52,6.6-5.6,6.81-8.76.44-12.65,5.63-15,13.49q-22.58,75-45.57,149.94c-1.2,3.94-2.72,7.77-4.09,11.65Z" transform="translate(716.42 -103.98)"/><path d="M719.63,268.11c-4.28,9.38-9.57,17.34-21.6,17-9.29-.25-14.54-5.27-14.61-15.24-.17-22-.07-44-.07-66,0-9.17-.12-18.35,0-27.52.08-4.25-.73-7.21-5.85-7.17-2.1,0-4.17-.84-4.67-3.28-.37-1.79.76-3.14,2.13-4,17.79-11.21,21.07-29.51,23.55-48.17.46-3.44.52-6.89,3.16-9.56h2.76c4.31,13.4,2.29,27.23,2.81,40.89.17,4.54-1.42,9.56,1,13.5,2.16,3.57,7.48.85,10.76,3.2a4.51,4.51,0,0,0,.63.29v5.51c-12.37,1.43-12.37,1.43-12.38,14.14v58.52c0,7.81,0,15.61,0,23.41,0,2-.72,4.89,1.7,5.42,2.67.58,2.92-2.36,3.24-4.29.72-4.41,3.3-5.72,7.39-4.88Z" transform="translate(716.42 -103.98)"/><path d="M263.53,286c-14.21-4.75-18.7-10.72-18.25-24.31.42-12.88,8.13-22.2,21-25.52a83.22,83.22,0,0,0,11.12-3.44c4.06-1.69,6.19-4.93,4.63-9.4-1.49-4.25-5.24-4.7-9.1-4.4-4.82.38-7.6,3.83-10.46,7.15-1.48,1.71-3.13,4.05-5.69,2.37-3-2-1-4.54.15-6.63,5.2-9.05,17.16-12.93,31.28-10.3,10.88,2,17.08,8.56,18.65,19.93,1.67,12.08.71,24.26,1,36.39.05,2.21-1,5.12,1.17,6.43,2.6,1.59,3.07-1.81,4.48-3,1.2-1,2.48-1.34,3.71-.36,1.42,1.13,1.44,2.73,1,4.4-1.39,5-5.35,7.83-9.23,10.7Zm21.66-32.53a54,54,0,0,0-.06-6.69c-.34-2.57,1.46-6.34-1.52-7.44-2.81-1-5.4,1.79-7.62,3.73-8.43,7.35-7,17.2-6.58,26.73.18,3.82,1.34,7.46,6.2,7.45,4.39,0,7.27-2.16,8.23-6.65A68.54,68.54,0,0,0,285.19,253.49Z" transform="translate(716.42 -103.98)"/><path d="M160.18,286c-18.15-3.58-28.46-14.7-31.27-32.85-3.61-23.32,12.91-42.64,35.75-41.9,13,.42,23.23,8.69,27.4,22.24,5.36,17.39,4.72,18.29-13,18.29-7.11,0-14.22.13-21.33,0-4.27-.09-5.85,1.93-5.38,5.91.24,2.05.55,4.09,1,6.1,1.17,5.75,2.63,11.68,9.17,13.32,6.74,1.69,12-1.83,16.34-6.66,2-2.21,3.55-4.79,5.55-7a4.17,4.17,0,0,1,5.12-.74c2.4,1.29.88,3.19.1,4.72-4.61,9-11.53,15.31-21.15,18.57Zm1.35-42.75c9.46,0,10.35-.93,9.15-10.15a29.77,29.77,0,0,0-1.84-7.26c-1.3-3.17-2.92-6.62-7-6.62s-5.57,3.35-6.91,6.62a25.84,25.84,0,0,0-1.54,8.7C153,243.28,153,243.28,161.53,243.27Z" transform="translate(716.42 -103.98)"/><path d="M197.39,286c-2.25-2.6-3.26-5.14.45-7.37,3.22-1.93,3.65-5,3.64-8.36q0-21.71,0-43.41c0-3.9-.66-7.26-4.78-9a3.13,3.13,0,0,1-1.93-4,3.6,3.6,0,0,1,3.74-2.49c7.11-.06,16.15-2.72,20.89.64,7.14,5.07,11.14.88,16.73-.47,5.82-1.4,11.1.41,13.62,6.51,2.18,5.3,2,10.7-2.7,14.5-4.87,4-10.49,4.24-15.93.64-1.09-.71-1.71-2.55-3.29-2-1.92.71-1.42,2.71-1.43,4.22-.06,12.17,0,24.34,0,36.51,0,2.66.56,5,3,6.5,3.28,2,3.32,4.65,1,7.52Z" transform="translate(716.42 -103.98)"/><path d="M669.09,249.53c0,6.42.09,12.85,0,19.27-.08,4.27-.12,8.34,4.84,10.23a2.88,2.88,0,0,1,2,3.26c-.33,2-1.86,2.63-3.52,2.64-9.86.07-19.73.27-29.57-.1-4-.15-5.61-2.75-2-5.78,2.72-2.25,3-4.93,3-7.95q0-20,0-39.9c0-4.9-.71-9.49-6.64-10.34-4.43-.64-9.18,4.22-9.31,10.06-.3,13.75-.09,27.51-.15,41.27,0,3.16,1.75,5,4.12,6.67,1.4,1,2.31,2.32,1.51,4.11a3.45,3.45,0,0,1-3.38,2q-14.44.07-28.89,0c-1.67,0-3.23-.68-3.73-2.48s.59-3.15,2.11-3.87c4.39-2.08,4.42-6,4.41-9.95,0-13.07-.08-26.14,0-39.21,0-4.34-.43-8.2-4.63-10.69-1.63-1-2.69-2.59-1.89-4.68a4.11,4.11,0,0,1,4.38-2.69c8.65.78,17.83-3,25.89,3,1.54,1.14,3.06-.14,4.56-.58,2.85-.84,5.65-2.06,8.56-2.42,20.52-2.55,28.33,4.42,28.33,25.07C669.1,240.82,669.09,245.18,669.09,249.53Z" transform="translate(716.42 -103.98)"/><path d="M557.42,285.09c-19.62,0-34.9-15.91-35.06-36.51s15.68-37.37,35.17-37.32c19.33,0,34.91,16.31,35.17,36.73S577.1,285.07,557.42,285.09Zm11.74-35.5c.17-7.34.25-14.68-2.8-21.58-1.82-4.13-4.16-7.79-9.39-7.75s-7.82,3.66-9.14,8a70.76,70.76,0,0,0-.06,42.5c1.33,4.3,3.88,7.9,9.1,8s7.65-3.45,9.49-7.6C569.41,264.26,569.32,256.92,569.16,249.59Z" transform="translate(716.42 -103.98)"/></svg>