<svg id="Layer_1" data-name="Layer 1" xmlns="http://www.w3.org/2000/svg" viewBox="0 0 317.62 50.32"><defs><style>.cls-1{fill:#fcfcfc;}.cls-2{fill:#6e1515;}.cls-3{fill:#6d1414;}.cls-4{fill:#6e1414;}.cls-5{fill:#701717;}.cls-6{fill:#701818;}.cls-7{fill:#711919;}.cls-8{fill:#833838;}.cls-9{fill:#6f1616;}.cls-10{fill:#924f4f;}.cls-11{fill:#fefefe;}.cls-12{fill:#7a2929;}.cls-13{fill:#f6f2f2;}.cls-14{fill:#f9f6f6;}.cls-15{fill:#f5f0f0;}.cls-16{fill:#eee4e4;}.cls-17{fill:#f9f5f5;}.cls-18{fill:#ebdfdf;}.cls-19{fill:#ccadad;}</style></defs><title>ALINAfabrri</title><path class="cls-1" d="M157.92,205.59c6,.78,5.67,5.79,5.45,9.61s-3.84,3-6.94,3.47c-6.08,1-12-.73-18.19.2-7.19,1.07-14.78-2.05-20.12-8.2-1.27-1.46-2.85-3.19-4.79-2.37-2.69,1.13-.35,3.26-.25,4.92.22,3.31-1,4.63-4.47,5.12-8.09,1.15-16.2.81-24.29,1.21-11.9.59-23.77-.66-35.72.46-7.58.72-15.43-1.48-23.26-.69-3.29.33-4.42-1.85-4.1-4.75.37-3.4.92-6.83,2.78-9.78,1.33-2.1,2.95-4,2.93-6.68,0-3.89,2.59-4.12,5.48-4,1.29,3.63-1.4,6.3-2.24,9.41-1.24,2.34-2.39,4.72-3.75,7-.56.94-1.41,2.12.34,2.67,1.14.35,2.37.18,2.23-1.53-.28-3.42,1.29-5.51,4.6-6s6.41.35,8,3.92c.29,1.62.09,3.42,2.59,3.66,10.74,1.06,21.47-.13,32.2-.2,3.45,0,3.88-2.81,1.45-7.19-3.21-1.64-5.72-3.33-2.22-7.21,2.35-2.61.17-3.38-2-4.13-1.08,2,0,4-.69,5.8-1.77,4.86.86,5.7,4.81,5.48,1,1.92,0,3.47-1,5a5.31,5.31,0,0,1-2.36,1.62c-2.89.65-5.76.93-8.49-.63-2.92-7-1.19-14.24-1.19-21.4,0-1.21,1.36-2.72-.48-3.52a5.76,5.76,0,0,0-4.48-.08c-1.82.8-.38,2.34-.37,3.53,0,6.86.79,13.73-.51,20.56-4,4-7.68,4.65-9.7.62-3.61-7.18-8.06-14.13-9.12-22.39.66-1.79,2.5-1.25,3.79-1.87-1.15-.1-2.14.47-3.22.59-3.87-1.34-4.72,2.7-7.1,4-.73-1.95-1.38-3.93-2.19-5.84A9.63,9.63,0,0,1,34,174.54c2.27-1.94,6.28-4.61,9.7-.1,1.23,1.62,2.38.11,2.68-1.33,1.12-5.37,3-3.08,4.87-.51a5.47,5.47,0,0,0,1,1.36c1.37,1,1.73,3.57,3.53,3.32s2-2.49,2.21-4.19c.17-1.15.48-2.51,1.93-2.25,1.3.24,1.44,1.63,1.46,2.8.1,5.66,2.43,5.65,6.41,2.79,2.29-1.66,8.25,3.94,8.46,7.86.07,1.33-1.36,3.49,1.2,3.47,1.65,0,1.14-2.12,1.15-3.36,0-2.46.34-5-1-7.27-1.5-2.64.09-4.11,2.33-4.63s4.69.07,5.32,2.87c.31,1.38-1.69,3.55,1.5,3.76a4.31,4.31,0,0,0,4.33-2c2-3,6.41-3.16,7.92.07,1.4,3,3.34,3.28,5.91,3.16,2.91-.13,5.65,0,7.85,2.41,1.66,1.85,3.55.6,5.23-.26a15.74,15.74,0,0,1,12.66-1c4.76,1.55,5.47,3.15,2.19,7.21-6.46,8-3.13,17.06-3.11,25.77,0,.72,1,1,1.74.27.15-.11.28-.28.44-.33,2.53-.84,7.23-5.26,8.15-7.7a4,4,0,0,1,1.46-.93c4.11-.78,8-.94,9.85,3.89-.33,7.36,4.9,2.16,7.3,3.77C159.66,210.31,155.67,208.31,157.92,205.59Z" transform="translate(-21.19 -169.84)"/><path class="cls-2" d="M262.13,214.77c5.27-5.23,5.21-24.88.09-29.57,7.62-.49,14.51-1.11,21.32.87,2.58.75,4.94,3.14,4.16,5.46-1.81,5.37,0,9.85,1.18,14.91s-3.46,7.83-8.16,8.22C274.89,215.14,269,214.77,262.13,214.77Z" transform="translate(-21.19 -169.84)"/><path class="cls-3" d="M309.82,210.18,304,202.6c-.43,4.73-2,8.54,3.66,11.59a50.5,50.5,0,0,1-15.51.41c4.48-6,4.41-24.23-.74-29.73,8,.08,15.14-1,22,1.31,4.55,1.5,7.23,7.89,4,10.63-5.53,4.75-1.95,8.1.16,12,.22,1.81,3.83,3.35,1.45,4.91-1.69,1.1-5.05,1.64-6.91-1.24A11,11,0,0,0,309.82,210.18Z" transform="translate(-21.19 -169.84)"/><path class="cls-4" d="M237.07,211.08c0-5.9,0-11.8.07-17.7.05-3-.11-5.73-3.54-7.64,7.38-.78,14.63-2.18,21.53.85,4.51,2,5.06,6.06,1.74,10.17-1.43,1.77-1.53,2.77.31,4.1,3.54,2.54,4,5.71,1.61,9.32-1.89,1.56-3.73,3.31-6.17,3.84-3.44.74-5.32-.14-3.34-4,1.3-3,1.38-5.73-2.13-7.34-3,2.36-1.29,5.59-1.41,8.38-.13,3.1-1.84,3.52-4.1,3.1C239.79,213.79,236,215.9,237.07,211.08Z" transform="translate(-21.19 -169.84)"/><path class="cls-5" d="M237.07,211.08c.69,3.8,3.74,2.62,5.87,2.4,3-.29.84-2.67,1-4a61.1,61.1,0,0,0,.09-6.21c.14-3.55,1.59-4.53,4.56-2.15-3.19,5.77-2.93,6.79,2.24,8.89.08,1.26-2.15,2.11-1,3.29.92,1,2.39.12,3.62-.31,1.91-.67,3.1-2.7,5.31-2.77-1.14,3.16-4,4.37-6.74,4.44-11.34.26-22.69.11-35,.11,2.24-2.52,4.25-5,1.22-6.93a7.23,7.23,0,0,0-8.51.1c-3,2.43-.33,4.51,3.29,6.76H201.51c6-8.76,9.08-18.52,13.33-27.72,1.17-2.54,1.82-3,3.35-.06,3.48,6.74,6.3,13.74,9.2,20.73C229.84,213.49,232.05,214.15,237.07,211.08Z" transform="translate(-21.19 -169.84)"/><path class="cls-6" d="M177.32,184.83c8.79,0,16.07-.82,23.06.27,5.22.8,1.53,5.69,2.25,8.66-2.13.52-2.37-.81-2.77-1.81-1.38-3.53-4.33-4.36-7.48-3.68-3.63.78-1.69,4.06-2,6.25-.21,1.23-.39,3.08,1.24,3.36,1.34.23,2.24-1.22,2.93-2.4s.34-2.82,2.69-2.85c1.21,4.89.32,9.79.46,14.8-1.12-.13-1.64,0-1.8-.22-1.42-1.78-1.82-6.21-4.35-4.77-2.75,1.58-1.38,5.78-.61,8.86.31,1.22,2.55,1.14,2.16,3.31H179.14C183,207.25,182.73,189.89,177.32,184.83Z" transform="translate(-21.19 -169.84)"/><path class="cls-6" d="M29.22,203.23l3.21-9.13,1.11-2.29c.13-1.14,1-2,1.3-3,1.24-3.44,2.82-4.36,5.58-1.48.88.06,1,.4.38,1,1.78,7.26,5.7,13.67,8.31,20.62,1.63,4.35,4.82,5.63,8.84,2.31,2.74.29,5.56,2.43,8.19-.3a14.23,14.23,0,0,0,9,0c.55.34,1.21,1,1.76.51.87-.81-.33-.95-.68-1.37.22-1.56,1.87-2.63,1.5-4.39v.07c1.21-.85,2.78-4,3.3.33.92,7.59-.25,8.81-8,8.82H38.83c-.31-2.61,3.32-3.37,1.85-5.81-1.93-4.27-5.71-3.31-8.91-2.7C28.14,207.15,28.21,205.78,29.22,203.23Z" transform="translate(-21.19 -169.84)"/><path class="cls-3" d="M157.92,205.59a10.24,10.24,0,0,0,2.3,5.61c.77,1,2.59,1.62,1.54,3.11-.45.63-2,.59-3.11.61-3.49.07-7,0-11.32,0l3.57-4.54c-2-4.85-3-5.2-10.12-3.43l.1-.1c-1.12,1-2.06,2.25-1.85,3.89.31,2.36-.56,4.05-3,3.25-2.72-.9-.21-2.67-.1-4.06,2.84-8.77,7.1-16.89,11.3-25.89C152.41,191.17,153.61,199.17,157.92,205.59Z" transform="translate(-21.19 -169.84)"/><path class="cls-7" d="M309.82,210.18a3.3,3.3,0,0,1,2.79,1.62,4,4,0,0,0,5.38,1.62c2.58-1.25-1.44-2.89-.33-4.57,1.08,1,2,2.44,3.29,3.05,2.76,1.32,5.55,1.35,5.7-2.67.22-6.31-.12-12.64.13-18.95.1-2.48-2.52-2.53-3.18-4.72,4.91-1.61,9.68-.42,14.85-.74-5,7.48-4.89,24.17.36,29.53-7.35,1.38-14.29,0-21.11.66C313.73,215.37,311,214.18,309.82,210.18Z" transform="translate(-21.19 -169.84)"/><path class="cls-8" d="M136,210c.65,1.11-1.37,2.94.48,3.41s1.78-1.35,1.82-2.68c.05-1.83.5-3.41,2.63-3.81-.42,1-1.25,2.08-1.21,3.09.23,5.35.31,5.35-5.94,5.08a18.92,18.92,0,0,1-2.22-.34C131.65,211.87,134.43,211.5,136,210Z" transform="translate(-21.19 -169.84)"/><path class="cls-2" d="M110.71,214.63a24.92,24.92,0,0,1-9,0c3-3.15,3.81-7,3.36-11.19-.53-5,1.1-10.17-1.15-15.05-.76-.94-3-.56-2.58-2.43.31-1.37,1.81-1,2.92-1.12,4.89-.54,8.91.42,11.45,5.32,1.38,2.65,3.57,4.9,5.46,7.28.83,1,2.61,2.34,2.69.1.14-4,2.31-9-4.26-11.2,3.37-2.37,6.55-1.4,9.54-1.25,1.1,0,1.57,1.57.61,2-4.31,2.12-2.52,6-2.65,9.12-.26,6.25-.08,12.51-.08,20.5-7.32-7.14-12-14.46-17.56-21.07-.26-.39-.77-.56-.79-.43C107.79,201.85,106.14,208.57,110.71,214.63Z" transform="translate(-21.19 -169.84)"/><path class="cls-6" d="M98.09,214.62H82.2c5.16-2.67,4.87-6,4.78-9.41-.13-4.58,0-9.16,0-13.74,0-1.62.42-3.31-1.86-4.25s-1.1-2.22.49-2.3a64.72,64.72,0,0,1,12,.18c2,.28,1.67,1.77-.42,2.17-2.37,1-1.81,3.11-1.83,4.95,0,4.4.26,8.82-.09,13.19A12.25,12.25,0,0,0,98.09,214.62Z" transform="translate(-21.19 -169.84)"/><path class="cls-9" d="M66.14,211c0,1,.85,2.75-1,2.51-2.47-.33-5.93,2.05-7.21-2.21,0-6.12-.07-12.24-.08-18.36,0-2.78.47-5.75-5.1-6.88,6.84-1.88,11.71-1.1,17-.46-3.48,2.06-3.8,4.89-3.67,8.19C66.34,199.51,66.15,205.25,66.14,211Z" transform="translate(-21.19 -169.84)"/><path class="cls-10" d="M98.09,214.62c-2.11-1.45-3.6-3.06-3.48-6,.23-5.7,0-11.42.09-17.14,0-1.76-.62-4.09,2.42-4.19-2.81,7.54-.93,15.33-1.11,23,0,2,2.49,3,4.32,2.66,2.2-.44,4.16-1.66,4-4.64-.25-6.64-.31-13.28-.45-19.93,1.72.59,2.18,2,2.2,3.58.05,5.29.14,10.59.09,15.88,0,3.16-2.08,5.13-4.5,6.78Z" transform="translate(-21.19 -169.84)"/><path class="cls-11" d="M77.68,205.75c-2.07.54-3.85,3.45-6.13,1.56-2.09-1.73-.51-4.17,0-6.34.28-1.27,0-2.67.26-3.95.34-1.61-2-4.38,1-4.62,1.84-.14,4.28,1.5,5.69,3,1.9,2.1-.39,3.3-2,4.3-4.71,3,1.36,3.95,1.15,6.08Z" transform="translate(-21.19 -169.84)"/><path class="cls-11" d="M56.81,200a23.84,23.84,0,0,1,0,3.6c-.32,1.69,1.11,4.6-1.34,4.78-2.14.16-3.79-2.2-4.27-4.61a5,5,0,0,1,0-2.8c1.32-2.93.11-8.64,3.81-8.39C59,192.8,55.38,198,56.81,200Z" transform="translate(-21.19 -169.84)"/><path class="cls-12" d="M29.22,203.23c-.31,3,1.43,2.39,3.47,2.47,3,.1,7.26-2,8,3.46-1.06-1.1-2.1-2.36-3.83-2.17-2.16.23-4.61-1-6.4,1.27-2.13,2.68,1.24,3.87,1.85,6.33A23.72,23.72,0,0,1,22,214.43C25.7,211,26.53,206.6,29.22,203.23Z" transform="translate(-21.19 -169.84)"/><path class="cls-10" d="M110.71,214.63c-3.3-2.89-5.31-16.81-2.73-19.93.66-.79,1.24.2,1.49.94-1.36,6.24-3.63,12.59,2.2,18,.07.06,0,.42-.09.51A5,5,0,0,1,110.71,214.63Z" transform="translate(-21.19 -169.84)"/><path class="cls-11" d="M40.8,188.36l-.38-1a7.58,7.58,0,0,1,1.51-.69c1.44-.35,2.7-2.51,4.35-.58a2.31,2.31,0,0,1,.51,2c-1.17,2.34-2.86.37-4.33.36C41.9,188.41,41.35,188.38,40.8,188.36Z" transform="translate(-21.19 -169.84)"/><path class="cls-9" d="M76.18,210.14,80.4,208c-2,2.53-.84,5.68-4.38,5.55-2-.08-.87-1.59-.92-2.54Z" transform="translate(-21.19 -169.84)"/><path class="cls-8" d="M140.78,207c6-3,9.22-1.95,10.12,3.43C148.73,205.69,144.4,207.37,140.78,207Z" transform="translate(-21.19 -169.84)"/><path class="cls-13" d="M274,206.43c.61-1.81-1.12-4.93,2.09-5.05,3.06-.12,4.61,2.27,4.62,5.35,0,2.72-1.71,4.6-4.06,4.72C272.87,211.66,274.64,208.28,274,206.43Z" transform="translate(-21.19 -169.84)"/><path class="cls-14" d="M274,193.25c.47-1.93-.8-4.69,1.83-4.84s3.87,2.09,3.81,4.66c0,2.31-1.25,4.29-3.61,4.27C273,197.32,274.82,194.45,274,193.25Z" transform="translate(-21.19 -169.84)"/><path class="cls-15" d="M303.32,193.31c.86-1.87-1.42-5.28,2.71-5.11,3.21.14,3.94,2.55,3.92,5.25s-.55,5.15-3.88,5.21C301.45,198.73,304.45,195,303.32,193.31Z" transform="translate(-21.19 -169.84)"/><path class="cls-16" d="M250.87,210c-1.72.43-3.36,2.91-5.12,1.07-2-2.11-.9-5.1-.9-7.7s2.12-2.17,3.78-2.26C251.42,203.53,252.63,206.37,250.87,210Z" transform="translate(-21.19 -169.84)"/><path class="cls-17" d="M247,188.33a4.17,4.17,0,0,1,3.44,4.55c0,2.18-1,4.47-3.44,4.36-3.67-.17-1.8-3.37-2.09-5.25C244.69,190.48,244.43,188.42,247,188.33Z" transform="translate(-21.19 -169.84)"/><path class="cls-16" d="M216.3,201.86c.26,1.93-1,2.15-2.39,2.18-1.2,0-2.43-.28-2.1-1.75s.53-3.33,2.16-3.55C216,198.46,215.38,200.9,216.3,201.86Z" transform="translate(-21.19 -169.84)"/><path class="cls-18" d="M35,204.12c-1.48-.14-3.39-.31-2.92-2.31.25-1.05.52-3,2.66-3s2.08,1.93,2.52,3.15C37.89,203.77,36.49,204.1,35,204.12Z" transform="translate(-21.19 -169.84)"/><path class="cls-19" d="M147.52,202.27c.15,2.15-1.29,2.06-2.6,2-1.54,0-3.41-.08-2.66-2.31.47-1.42.19-4,2.39-3.89S146.81,200.77,147.52,202.27Z" transform="translate(-21.19 -169.84)"/></svg>