<svg id="Layer_1" data-name="Layer 1" xmlns="http://www.w3.org/2000/svg" viewBox="0 0 347.03 145.16"><defs><style>.cls-1{fill:#231f20;}</style></defs><title>ANNA FIELD</title><path class="cls-1" d="M194.22,163.48l-4.85-12.71H171l-12.84,33.59h-4.38l24-61.94h4.94l15.93,41.06ZM182.76,133c-.33-.83-.63-1.66-.94-2.5l-.8-2.26c-.24-.67-.42-1.22-.55-1.65a4.65,4.65,0,0,0-.29-.73,6.09,6.09,0,0,1-.24.81c-.13.46-.32,1-.56,1.69l-.79,2.21c-.29.81-.6,1.62-.92,2.43l-5.48,14.43h16L182.76,133Zm9.44-2.33v-3.54h21.64v41.07h-4.17V150.78h-67v-3.53h67V130.62Zm-153,137-4.89-12.81H15.74L10.9,267.58H6.49l16.07-41.37h5l16.05,41.37ZM27.6,236.82c-.32-.83-.63-1.68-.94-2.52L25.85,232c-.24-.67-.43-1.23-.56-1.67a6.45,6.45,0,0,0-.28-.74c0,.1-.1.37-.24.83s-.33,1-.57,1.69l-.8,2.24c-.29.81-.6,1.63-.92,2.44L17,251.36H33.12ZM80,267.58,53,231.24l.11,2.56c0,.76,0,1.57.05,2.45s0,1.69,0,2.47v28.85H49.34V226.21h4.81l27.23,36.56c0-.82-.06-1.66-.11-2.53s-.1-1.62-.1-2.58,0-1.93,0-2.91V226.21H85v41.37Zm45.07,0-27-36.34.11,2.56c0,.76,0,1.57,0,2.45s0,1.69,0,2.47v28.85H94.4V226.21h4.81l27.23,36.56c0-.82,0-1.66-.11-2.53s-.09-1.62-.1-2.58,0-1.93,0-2.91V226.21h3.86v41.37Zm43.76,0L164,254.77H145.43l-4.85,12.81h-4.4l16.07-41.37h5l16.05,41.37Zm-11.55-30.76c-.33-.83-.64-1.68-.94-2.52s-.57-1.6-.81-2.28-.43-1.23-.56-1.67a6.45,6.45,0,0,0-.28-.74c0,.1-.11.37-.25.83s-.33,1-.57,1.69-.5,1.43-.79,2.24-.6,1.63-.93,2.44l-5.52,14.55h16.17Zm43.29-7.06v16.76h20.6v3.56h-20.6v17.5h-4.22V226.21H222v3.55Zm33,37.82V226.21h4.21v41.37Zm15.8,0V226.21h27.3v3.5H253.61v14.88h21.28V248H253.61v16.08h24.27v3.5Zm37,0V226.21h4.21V264h20.29v3.56Zm67.12-21.12a25,25,0,0,1-1.53,9.11,18.84,18.84,0,0,1-4.26,6.61,17.51,17.51,0,0,1-6.37,4.05,22.87,22.87,0,0,1-7.9,1.35H318.4V226.21h13.21a31.55,31.55,0,0,1,8.83,1.17,18.75,18.75,0,0,1,6.94,3.66,16.37,16.37,0,0,1,4.53,6.31,23.67,23.67,0,0,1,1.6,9.11Zm-4.29,0a20.31,20.31,0,0,0-1.3-7.64,13.27,13.27,0,0,0-3.64-5.19,14.26,14.26,0,0,0-5.62-2.94,26.31,26.31,0,0,0-7.2-.93h-8.85V264h10.21a18.74,18.74,0,0,0,6.56-1.12,14.37,14.37,0,0,0,5.2-3.33,15.14,15.14,0,0,0,3.41-5.5A21.8,21.8,0,0,0,349.22,246.46Z" transform="translate(-6.49 -122.42)"/></svg>