<svg id="Layer_1" data-name="Layer 1" xmlns="http://www.w3.org/2000/svg" viewBox="0 0 323.41 247.01"><defs><style>.cls-1{fill:#0b0b0b;}.cls-2{fill:#0a0a0a;}.cls-3{fill:#fdfdfd;}.cls-4{fill:#e9e9e9;}.cls-5{fill:#fcfcfc;}.cls-6{fill:#fbfbfb;}.cls-7{fill:#fafafa;}</style></defs><title>antony morato</title><path class="cls-1" d="M232.78,163.3c-3.06,3.64-4.3,7.6-5.52,11.52-2.31,7.42-4.62,14.84-6.59,22.36-.86,3.26-3.06,3-5.33,2.94s-3.68-.31-4.82-3.38c-4-10.94-7-22.27-11.84-33.08v15.81q0,25.74,0,51.48c0,4.68-8.32,11.6-13,10.85-2.75-.45-3.25-2.25-3.22-4.71.1-7.17-.42-14.37.14-21.48.63-7.89-1.74-14.63-5.89-21a110.32,110.32,0,0,1-7.87-14.3,5,5,0,0,0-5.12-3.09c-8,.18-16,.12-24,0-2.42,0-3.19.79-3.95,3.21-2.68,8.51-5.59,17-9,25.2-1.76,4.2-6.28,2-9.33,1.74-2.84-.24-.64-3-.42-4.45,3.33-21.49,7.79-42.79,10.78-64.35,1.23-8.88,3.43-17.59,4.71-26.49A120.32,120.32,0,0,0,134,92.23c-.1-3.92,1.12-8.21-3.42-10.85-.83-.48-1.22-1.94-1.56-3-1.86-6.13-1.42-6.7,4.91-6.7,8.67,0,17.35.35,26-.12,5.5-.3,7.16,2.32,8,7,1.63,8.67,1.77,17.54,4,26.13.78,3,1.82,4,4.91,3.78,3.81-.32,7.66-.07,11.49-.07,5.65,0,8,2.13,9.82,7.78,3.69,11.69,7.56,23.32,11.46,34.94,1.41,4.21,1.69,8.84,4.55,12.54.57.73.52,2,1.88,2,1.58-.05,1.71-1.3,2-2.44a279.33,279.33,0,0,1,8.94-32c2.37-6.87,4.65-13.77,6.91-20.67.4-1.21,1-2.17,2.24-2.41,4.41-.87,8.81-1.72,13.24-2.45,3.6-.59,5.13,1.32,5.46,4.74.39,4.06-.28,8.23-3.57,10.36s-3.25,4.52-3.25,7.54q0,52.72,0,105.46c0,5.7-.92,6.53-7.16,6.56-5.91,0-7.35-1.22-7.35-6.57q0-32.47,0-65C233.51,167.09,234,165.41,232.78,163.3Z" transform="translate(-18.29 -71.5)"/><path class="cls-2" d="M207.62,289.76c-3,2.92-2.79,6.84-4.32,10.17-.53,1.15-.54,2.55-2.41,2.41s-2.09-1.48-2.27-2.69c-.48-3.37-2.1-6.32-3.8-9.51v5.37c0,5.57-.3,11.16.1,16.7.25,3.47-2.21,4.35-4.18,5.69-1.25.85-2.16-.11-2.2-1.59,0-1.3,0-2.59,0-3.89,0-12,0-24.08,0-36.12,0-2.37.14-4.68-2.2-6.19a2,2,0,0,1-.74-2.41c.35-1,1.29-.57,2-.62,5.46-.37,5.47.09,7.55,5.3s2.82,11.22,6.08,16.9c2.22-7,4.28-13.39,6.25-19.8.38-1.25.35-2.78,2.2-2.5s4.3-1.46,5.84.49c1,1.27.23,3.06-.79,4.3-1.17,1.44-1.19,3.05-1.18,4.75,0,12.3,0,24.6,0,36.9,0,2.2-.12,3.68-3,3.67s-3-1.45-3-3.68C207.67,305.53,207.62,297.65,207.62,289.76Z" transform="translate(-18.29 -71.5)"/><path class="cls-1" d="M241.16,292.14c0,6.21-.07,12.41,0,18.62.05,2.93-1,4.9-3.82,5.95-5.52,2.05-10.89,3.12-15.88-1.35a7.43,7.43,0,0,1-2.78-6c.12-11.38,0-22.76.06-34.14,0-3.87,4.13-9,7.93-9.48a22.18,22.18,0,0,1,7,.14c6.19,1.21,7.48,2.93,7.51,9.22C241.19,280.76,241.17,286.45,241.16,292.14Z" transform="translate(-18.29 -71.5)"/><path class="cls-2" d="M117.17,292.43c0,6.08-.19,12.17.07,18.23a5.53,5.53,0,0,1-3.75,6c-5.75,2.39-11.38,3-16.63-1.42-1.8-1.53-2.11-3.48-2.12-5.55q-.06-17.85,0-35.69c0-3.28,4.68-8,8.21-8.3,3.34-.24,6.73-.3,9.88,1.26,2.54,1.26,4.39,2.95,4.36,6.12C117.12,279.5,117.17,286,117.17,292.43Z" transform="translate(-18.29 -71.5)"/><path class="cls-1" d="M341.64,292.1c0,6.46-.11,12.93.06,19.39a4.66,4.66,0,0,1-3.26,5.05c-5.57,2.14-11,3.45-16.28-1.08a7,7,0,0,1-2.67-5.64c0-11.9,0-23.79,0-35.68,0-3.36,4.52-8.05,8.24-8.48a19.6,19.6,0,0,1,10.59,1.47,5.6,5.6,0,0,1,3.31,5.58C341.59,279.17,341.64,285.64,341.64,292.1Z" transform="translate(-18.29 -71.5)"/><path class="cls-2" d="M294.06,318.08c-3.65-3.39-7.68-5.21-12.82-4.92-3.67.21-6.7.89-9,3.79-.78,1-1.88,1.74-3,1.1s-.47-1.84-.29-2.85c2-10.51,4.14-21,5.77-31.56.72-4.67,2-9.59-1-14.18-.91-1.37-.48-2.68,1.74-2.61,3.49.11,7,0,10.47,0,1.31,0,2,.39,2.24,1.95,1.86,11.18,4,22.32,5.76,33.52.77,5,.76,10.17,1.11,15.26Z" transform="translate(-18.29 -71.5)"/><path class="cls-2" d="M50.29,317.5c0-13.48,0-26.92,0-40.36,0-2.55-.1-5-2.19-6.7a2.45,2.45,0,0,1-.78-2.78c.37-1.23,1.66-1.09,2.65-1.07,4.78.11,9.57.18,14.34.47,2.71.17,5.34,3.43,5.34,6.31,0,13.33,0,26.66,0,40,0,2,0,4.77-2.16,4.54a4.83,4.83,0,0,1-4.12-5.11c.17-6.6.05-13.2.05-19.8,0-5.56-.05-11.13,0-16.69,0-2.33-.28-4.27-3.15-4.23-2.5,0-4.07.62-4,4,.28,11.64.11,23.29.11,34.94C56.45,315.78,55.57,316.73,50.29,317.5Z" transform="translate(-18.29 -71.5)"/><path class="cls-2" d="M142.66,294c0,6.47-.06,12.94,0,19.4,0,2.15-.5,4.57-2.52,4.52s-3.62-2-3.61-4.67c.08-12.16,0-24.31,0-36.47,0-4.14-2.88-5.87-6.62-4.14-1.73.8-1,2.21-1.05,3.34-.06,11.77,0,23.54,0,35.31a11.33,11.33,0,0,1-.1,3.09c-.68,2.36-2.94,3.13-4.85,3.14-2.09,0-1-2.19-1-3.35q-.14-18,0-36.08c0-2.88-.12-5.57-2-8-1.59-2-.76-3.44,1.81-3.41,4.79.06,9.58.14,14.34.48,3.1.22,5.65,3.41,5.67,6.69C142.68,280.5,142.65,287.23,142.66,294Z" transform="translate(-18.29 -71.5)"/><path class="cls-2" d="M30.41,266.85c6.7,0,6.83,0,8,6.58q3.72,20.57,7.15,41.19c.2,1.16,1.3,3-.79,3.58s-2.8-1.26-3.11-2.65c-1.39-6.16-5.18-7.4-11.17-7.42-5,0-5.63,3.16-7.77,5.81-1.15,1.41-.88,5.12-3.59,4-1.9-.78-.08-3.52.19-5.29,1.75-11.22,3.84-22.39,5.54-33.62.46-3,1.23-6.3-1.17-9.25-1.09-1.33-.87-3,1.65-2.94C27.05,266.89,28.73,266.85,30.41,266.85Z" transform="translate(-18.29 -71.5)"/><path class="cls-2" d="M245.92,293.12c0-6.6,0-13.2,0-19.8,0-.9.22-2-.23-2.64-2.94-3.9-.23-3.83,2.54-3.8.39,0,.78,0,1.16,0,13.92-1.07,17.37,5.33,16.61,17.3-.16,2.61-1.52,4.62-2.59,6.81-1,2-1.58,3.87.26,6a8.4,8.4,0,0,1,1.66,5.47c.05,4.4.22,8.8.25,13.19,0,1,.64,2.56-1.34,2.54-1.59,0-1.64-1.18-1.87-2.4-.92-4.94-2.15-9.83-2.88-14.8-.67-4.46-3.9-2.28-6.05-2.57-3-.4-1.84,2.15-1.89,3.51-.14,3.75,0,7.5-.06,11.26,0,2.09.71,5-2.62,5s-2.9-3-2.91-5.23c0-6.6,0-13.2,0-19.8Z" transform="translate(-18.29 -71.5)"/><path class="cls-2" d="M160,287c.95-4.53,1.92-9.05,2.84-13.58a25.33,25.33,0,0,1,.48-3c.79-2.34,2.21-4.58,4.94-3.93,2.9.69,1.54,3.55,1.25,5.19-1.88,10.53-4.18,21-6.08,31.5-.82,4.56-1.63,9.12-2.67,13.64-.28,1.22-.62,1.87-2,1.67-2.24-.32-4.84.38-6.49-1.6-.83-1,.29-2.25,1-3.09,4.53-5.28,3.73-11.22,2.07-17.16-1.76-6.31-3.74-12.56-5.82-18.77-.6-1.79-.7-3.83-3.05-5-1.95-1-2.59-3,.48-4.06a31,31,0,0,0,3.21-1.34c1.8-.84,2.75-.46,3.34,1.61,1.75,6,3.71,12,5.59,18Z" transform="translate(-18.29 -71.5)"/><path class="cls-1" d="M78.46,293.93c0-6.08-.08-12.15,0-18.22,0-2.13-.18-3.39-2.79-3.28-2.4.09-3.41-1.49-3.23-3.82C72.67,266,74.72,267,76,267c4.13-.12,8.27,0,12.4-.08,1.85,0,2.89.26,2.8,2.5-.09,1.86-.41,3.09-2.57,2.7-3-.55-3.58.86-3.55,3.64.14,12.27,0,24.54.11,36.82,0,2.5-.57,4.91-3,4.84-2.18-.06-3.87-1.93-3.78-4.85C78.59,306.33,78.46,300.13,78.46,293.93Z" transform="translate(-18.29 -71.5)"/><path class="cls-1" d="M303.26,294c0-6.2-.05-12.4,0-18.6,0-1.84-.25-2.93-2.46-2.87-2,0-3.45-.89-3.62-3.16-.11-1.52.25-2.44,2.06-2.41q7.37.09,14.73,0c1.94,0,1.92,1.12,1.94,2.51,0,1.56,0,3.06-2.15,2.65-4-.75-4,1.58-3.94,4.46.1,12,0,24,.09,36.05,0,2.47-.57,4.94-3,4.89-2.19,0-3.84-2.07-3.78-4.91.13-6.2,0-12.4,0-18.6Z" transform="translate(-18.29 -71.5)"/><path class="cls-3" d="M151.49,93.85c2.52,10.93,4.81,20.92,7.12,30.9q4,17.42,8.09,34.8c.5,2.12,0,3-2.35,3-7.47-.11-15-.17-22.43,0-2.91.08-3.2-1.23-3.15-3.58.22-11,2.52-21.72,4.13-32.54,1.32-8.89,4.39-17.31,6-26.1C149.26,98.42,150.34,96.66,151.49,93.85Z" transform="translate(-18.29 -71.5)"/><path class="cls-4" d="M182.53,160.31c-3.41-16.41-5.88-32.94-10.07-50.38,3,3.69,5.16,6.43,7.45,9s2.63,5.63,2.63,8.85Q182.51,144.07,182.53,160.31Z" transform="translate(-18.29 -71.5)"/><path class="cls-3" d="M234.49,292.44c0,5.42-.07,10.85,0,16.27.06,2.77-.72,4.68-3.83,4.43-2.83-.22-5.46-1-5.48-4.62,0-7.23,0-14.46,0-21.68,0-3.75.11-7.49,0-11.23-.12-3.37,1.55-4.58,4.68-4.7s4.75,1.14,4.68,4.5C234.41,281.08,234.49,286.76,234.49,292.44Z" transform="translate(-18.29 -71.5)"/><path class="cls-5" d="M101.38,291.4c0-5.55.11-11.11,0-16.66-.1-3.35,1.88-3.79,4.44-3.81s4.78.58,4.79,3.71c.05,11.63,0,23.25,0,34.88,0,2.72-1.83,3.78-4,3.62s-5.12-.5-5.15-3.91c0-5.94,0-11.89,0-17.83Z" transform="translate(-18.29 -71.5)"/><path class="cls-5" d="M335.4,292.54c0,5.41-.1,10.83,0,16.24.08,3-1.37,4.5-4.06,4.39s-5.23-.93-5.24-4.39c0-11.35,0-22.7,0-34,0-3.19,1.94-3.79,4.58-3.81,2.9,0,4.73,1,4.72,4.19C335.38,280.93,335.4,286.73,335.4,292.54Z" transform="translate(-18.29 -71.5)"/><path class="cls-6" d="M281.77,276.43c3.12,10.3,3.4,20.13,5.92,29.5.41,1.52-.29,1.64-1.51,1.78-8.86,1.07-9.72.4-8.77-8.38.64-6,.92-12.06,2.71-17.88C280.55,280.05,281,278.67,281.77,276.43Z" transform="translate(-18.29 -71.5)"/><path class="cls-6" d="M31.4,277.32c2.08,2.45,2.16,5.28,2.67,7.83a145,145,0,0,0,3.1,14.3c.66,2.15,0,3.18-2.38,2.9a24.31,24.31,0,0,0-2.7,0c-5.9,0-5.93,0-4.83-5.7C28.49,290.25,28.43,283.58,31.4,277.32Z" transform="translate(-18.29 -71.5)"/><path class="cls-7" d="M252.07,281.83c0-2.19-.15-4.39.05-6.56.13-1.41-1.19-3.76,1.62-3.91,2.42-.13,5.33-.21,6,2.89a30.28,30.28,0,0,1-.83,15.23,5.58,5.58,0,0,1-3,2.8c-2,.86-4.09,1.17-3.82-2.34C252.23,287.25,252.07,284.54,252.07,281.83Z" transform="translate(-18.29 -71.5)"/></svg>