<?xml version="1.0" encoding="utf-8"?>
<!-- Generator: Adobe Illustrator 22.0.1, SVG Export Plug-In . SVG Version: 6.00 Build 0)  -->
<svg version="1.1" id="Layer_1" xmlns="http://www.w3.org/2000/svg" xmlns:xlink="http://www.w3.org/1999/xlink" x="0px" y="0px"
	 viewBox="0 0 360 490" style="enable-background:new 0 0 360 490;" xml:space="preserve">
<style type="text/css">
	.st0{display:none;}
	.st1{fill:#231F20;}
	.st2{display:none;fill:#FCFCFC;}
	.st3{display:none;fill:#6E1515;}
	.st4{display:none;fill:#6D1414;}
	.st5{display:none;fill:#6E1414;}
	.st6{display:none;fill:#701717;}
	.st7{display:none;fill:#701818;}
	.st8{display:none;fill:#711919;}
	.st9{display:none;fill:#833838;}
	.st10{display:none;fill:#6F1616;}
	.st11{display:none;fill:#924F4F;}
	.st12{display:none;fill:#FEFEFE;}
	.st13{display:none;fill:#7A2929;}
	.st14{display:none;fill:#F6F2F2;}
	.st15{display:none;fill:#F9F6F6;}
	.st16{display:none;fill:#F5F0F0;}
	.st17{display:none;fill:#EEE4E4;}
	.st18{display:none;fill:#F9F5F5;}
	.st19{display:none;fill:#EBDFDF;}
	.st20{display:none;fill:#CCADAD;}
	.st21{fill:#0B0B0B;}
	.st22{fill:#0A0A0A;}
	.st23{fill:#FDFDFD;}
	.st24{fill:#E9E9E9;}
	.st25{fill:#FCFCFC;}
	.st26{fill:#FBFBFB;}
	.st27{fill:#FAFAFA;}
</style>
<g class="st0">
	<path class="st1" d="M194.7,220.9l-5-13.2h-19.1l-13.3,34.8h-4.5l24.9-64.3h5.1l16.5,42.6L194.7,220.9z M182.9,189.3
		c-0.3-0.9-0.7-1.7-1-2.6l-0.8-2.3c-0.2-0.7-0.4-1.3-0.6-1.7c-0.1-0.3-0.2-0.5-0.3-0.8c-0.1,0.3-0.1,0.6-0.2,0.8
		c-0.1,0.5-0.3,1-0.6,1.8l-0.8,2.3c-0.3,0.8-0.6,1.7-1,2.5l-5.7,15h16.6L182.9,189.3z M192.7,186.8v-3.7h22.4v42.6h-4.3v-18.1h-69.5
		V204h69.5v-17.3L192.7,186.8z M33.9,329l-5.1-13.3H9.6l-5,13.2H0L16.7,286h5.2l16.7,42.9L33.9,329z M21.9,297
		c-0.3-0.9-0.7-1.7-1-2.6l-0.8-2.4c-0.2-0.7-0.4-1.3-0.6-1.7c-0.1-0.3-0.2-0.5-0.3-0.8c0,0.1-0.1,0.4-0.2,0.9
		c-0.1,0.5-0.3,1-0.6,1.8l-0.8,2.3c-0.3,0.8-0.6,1.7-1,2.5L10.9,312h16.7L21.9,297z M76.3,328.9l-28-37.7l0.1,2.7
		c0,0.8,0,1.6,0.1,2.5c0.1,0.9,0,1.8,0,2.6v29.9h-4V286h5l28.2,37.9c0-0.9-0.1-1.7-0.1-2.6c-0.1-0.9-0.1-1.7-0.1-2.7s0-2,0-3V286h4
		v42.9L76.3,328.9z M123,328.9l-28-37.7l0.1,2.7c0,0.8,0,1.6,0,2.5c0,0.9,0,1.8,0,2.6v29.9h-3.9V286h5l28.2,37.9
		c0-0.9,0-1.7-0.1-2.6c-0.1-0.9-0.1-1.7-0.1-2.7c0-1,0-2,0-3V286h4v42.9L123,328.9z M168.4,328.9l-5-13.3h-19.3l-5,13.3h-4.6
		l16.7-42.9h5.2l16.7,42.9L168.4,328.9z M156.4,297c-0.3-0.9-0.7-1.7-1-2.6c-0.3-0.9-0.6-1.7-0.8-2.4s-0.4-1.3-0.6-1.7
		c-0.1-0.3-0.2-0.5-0.3-0.8c0,0.1-0.1,0.4-0.3,0.9s-0.3,1-0.6,1.8c-0.2,0.7-0.5,1.5-0.8,2.3c-0.3,0.8-0.6,1.7-1,2.5l-5.7,15.1h16.8
		L156.4,297z M201.3,289.6V307h21.4v3.7h-21.4v18.2H197V286h26.6v3.7H201.3z M235.6,328.9V286h4.4v42.9L235.6,328.9z M252,328.9V286
		h28.3v3.6h-23.9V305h22.1v3.5h-22.1v16.7h25.2v3.6H252z M290.3,328.9V286h4.4v39.2h21v3.7L290.3,328.9z M360,307
		c0.1,3.2-0.5,6.4-1.6,9.5c-1,2.6-2.5,4.9-4.4,6.9c-1.9,1.9-4.1,3.3-6.6,4.2c-2.6,0.9-5.4,1.4-8.2,1.4h-15.6V286h13.7
		c3.1,0,6.2,0.4,9.2,1.2c2.6,0.7,5.1,2,7.2,3.8c2.1,1.8,3.7,4,4.7,6.5C359.5,300.5,360.1,303.7,360,307L360,307z M355.5,307
		c0.1-2.7-0.4-5.4-1.3-7.9c-0.8-2.1-2.1-3.9-3.8-5.4c-1.7-1.4-3.7-2.5-5.8-3c-2.4-0.7-4.9-1-7.5-1h-9.2v35.5h10.6
		c2.3,0,4.6-0.4,6.8-1.2c2-0.7,3.9-1.9,5.4-3.5c1.6-1.6,2.8-3.6,3.5-5.7C355.1,312.3,355.6,309.6,355.5,307L355.5,307z"/>
</g>
<path class="st2" d="M155,251.2c6.8,0.9,6.5,6.6,6.1,10.9c-0.2,4.3-4.3,3.4-7.8,4c-6.9,1.1-13.6-0.8-20.6,0.2
	c-8.2,1.2-16.8-2.4-22.8-9.3c-1.5-1.7-3.2-3.6-5.4-2.7c-3.1,1.2-0.3,3.7-0.3,5.5c0.2,3.7-1.1,5.2-5.1,5.8
	c-9.2,1.2-18.3,0.9-27.5,1.4c-13.5,0.7-27-0.8-40.4,0.6c-8.6,0.8-17.4-1.7-26.4-0.8c-3.7,0.3-5-2.2-4.6-5.4c0.5-3.9,1-7.7,3.2-11.1
	c1.5-2.4,3.4-4.5,3.3-7.6c0-4.4,2.9-4.6,6.2-4.5c1.5,4.1-1.6,7.1-2.5,10.6c-1.4,2.6-2.7,5.3-4.3,7.9c-0.7,1-1.6,2.4,0.3,3.1
	c1.2,0.3,2.7,0.2,2.5-1.7c-0.3-3.9,1.5-6.2,5.2-6.8c3.7-0.6,7.2,0.5,9.1,4.4c0.3,1.8,0.1,3.9,2.9,4.2c12.1,1.2,24.4-0.1,36.5-0.2
	c3.9,0,4.4-3.2,1.6-8.2c-3.6-1.8-6.5-3.7-2.5-8.2c2.6-2.9,0.2-3.9-2.3-4.6c-1.2,2.3,0,4.5-0.8,6.6c-2,5.5,1,6.5,5.4,6.2
	c1.1,2.2,0,4-1.1,5.7c-0.7,0.8-1.6,1.5-2.7,1.8c-3.3,0.7-6.6,1-9.6-0.7c-3.3-7.9-1.4-16.1-1.4-24.2c0-1.4,1.6-3.1-0.6-4
	c-1.6-0.7-3.4-0.8-5.1-0.1c-2,0.9-0.5,2.6-0.5,4c0,7.8,0.9,15.5-0.6,23.3c-4.5,4.5-8.7,5.2-11,0.7c-4.1-8.2-9.2-16-10.3-25.4
	c0.8-2,2.8-1.5,4.3-2.2c-1.4-0.1-2.4,0.6-3.6,0.7c-4.4-1.5-5.3,3.1-8,4.5c-0.8-2.2-1.6-4.4-2.5-6.6c-2-4.5-0.8-9.9,3.1-12.9
	c2.6-2.2,7.1-5.2,11-0.1c1.4,1.8,2.7,0.1,3.1-1.5c1.2-6.1,3.4-3.5,5.5-0.6c0.3,0.6,0.7,1.1,1.1,1.6c1.6,1.1,1.9,4.1,4,3.7
	c2-0.3,2.3-2.8,2.5-4.8c0.2-1.2,0.6-2.8,2.2-2.6c1.5,0.2,1.6,1.8,1.7,3.2c0.1,6.5,2.7,6.3,7.2,3.2c2.6-1.9,9.4,4.4,9.6,8.9
	c0.1,1.5-1.6,4,1.4,4c1.9,0,1.2-2.4,1.4-3.9c0-2.8,0.3-5.7-1.1-8.3c-1.7-2.9,0.1-4.6,2.6-5.2c2.5-0.6,5.3,0.1,6,3.3
	c0.3,1.6-1.9,4.1,1.7,4.3c1.9,0.3,3.9-0.6,4.9-2.3c2.3-3.4,7.2-3.6,8.9,0.1c1.6,3.4,3.7,3.7,6.7,3.6c3.3-0.1,6.5,0,8.8,2.7
	c1.9,2.2,4.1,0.7,5.9-0.3c4.4-2.4,9.6-2.8,14.4-1.1c5.4,1.8,6.2,3.5,2.5,8.2c-7.4,9.1-3.5,19.4-3.5,29.2c0,0.8,1.1,1.1,1.9,0.3
	c0.1-0.1,0.3-0.3,0.5-0.3c2.8-0.9,8.2-6,9.2-8.7c0.5-0.5,1-0.8,1.7-1c4.6-0.9,9.1-1,11.2,4.4c-0.3,8.4,5.5,2.5,8.3,4.3
	C157,256.5,152.5,254.3,155,251.2z"/>
<path class="st3" d="M273,261.5c6-5.9,5.9-28.2,0.1-33.5c8.6-0.6,16.4-1.2,24.1,1c2.9,0.9,5.6,3.5,4.8,6.2c-2,6.1,0,11.2,1.4,16.9
	s-4,8.8-9.3,9.3C287.5,262,280.8,261.5,273,261.5z"/>
<path class="st4" d="M327,256.3l-6.6-8.6c-0.5,5.3-2.3,9.6,4.2,13.1c-5.8,1-11.7,1.2-17.6,0.5c5.1-6.8,5-27.4-0.8-33.6
	c9.1,0.1,17.1-1.1,24.9,1.5c5.1,1.7,8.2,8.9,4.5,12c-6.2,5.4-2.3,9.2,0.2,13.6c0.2,2,4.3,3.7,1.7,5.5c-1.9,1.2-5.7,1.8-7.8-1.4
	C329,258,328,257.1,327,256.3z"/>
<path class="st5" d="M244.6,257.3c0-6.7,0-13.4,0.1-20c0.1-3.4-0.1-6.5-4-8.6c8.4-0.9,16.5-2.5,24.4,1c5.1,2.3,5.8,6.9,1.9,11.6
	c-1.6,2-1.7,3.2,0.3,4.6c4,2.8,4.5,6.5,1.8,10.5c-2.2,1.8-4.2,3.7-7,4.3c-3.9,0.8-6-0.1-3.7-4.5c1.5-3.4,1.6-6.5-2.4-8.3
	c-3.4,2.7-1.5,6.3-1.6,9.5c-0.1,3.5-2,4-4.6,3.5C247.7,260.5,243.4,262.9,244.6,257.3z"/>
<path class="st6" d="M244.6,257.3c0.8,4.3,4.2,2.9,6.7,2.7c3.4-0.3,0.9-3.1,1.1-4.5c0.1-2.4,0.2-4.6,0.1-7c0.1-4.1,1.8-5.1,5.2-2.4
	c-3.6,6.6-3.3,7.7,2.5,10.1c0.1,1.5-2.4,2.4-1.1,3.7c1,1.1,2.7,0.1,4.1-0.3c2.2-0.8,3.5-3.1,6-3.2c-1.2,3.6-4.5,5-7.6,5
	c-12.8,0.3-25.7,0.1-39.7,0.1c2.5-2.8,4.9-5.7,1.4-7.8c-2.9-2-6.8-2-9.6,0.1c-3.4,2.7-0.3,5.1,3.7,7.7h-13c6.8-10,10.3-21,15.1-31.4
	c1.4-2.8,2-3.4,3.9-0.1c4,7.6,7.1,15.5,10.4,23.4C236.4,260.1,239,260.8,244.6,257.3z"/>
<path class="st7" d="M176.9,227.6c10,0,18.2-0.9,26.2,0.3c5.9,0.9,1.7,6.5,2.6,9.9c-2.4,0.6-2.7-0.9-3.2-2c-1.6-4-4.9-5-8.5-4.2
	c-4.1,0.9-1.9,4.6-2.3,7.1c-0.2,1.4-0.5,3.5,1.4,3.9c1.5,0.2,2.5-1.4,3.3-2.7c0.8-1.4,0.3-3.2,3.1-3.3c1.4,5.5,0.3,11.1,0.6,16.8
	c-1.2-0.1-1.8,0-2-0.2c-1.6-2-2-7-5-5.4c-3.2,1.8-1.6,6.6-0.7,10.1c0.3,1.4,2.9,1.2,2.5,3.7h-15.9C183.3,253,183,233.4,176.9,227.6z
	"/>
<path class="st7" d="M9,248.5l3.6-10.3l1.2-2.6c0.1-1.2,1.1-2.3,1.5-3.4c1.4-3.9,3.2-5,6.3-1.7c1,0.1,1.1,0.5,0.5,1.1
	c2,8.3,6.5,15.5,9.4,23.3c1.8,5,5.4,6.3,10,2.6c3.1,0.3,6.3,2.7,9.3-0.3c3.3,1.1,6.9,1.1,10.2,0c0.7,0.3,1.4,1.1,2,0.6
	c1-0.9-0.3-1-0.8-1.6c0.2-1.8,2.2-2.9,1.7-5v0.1c1.4-1,3.2-4.5,3.7,0.3c1,8.6-0.3,10-9.1,10H19.9c-0.3-2.9,3.7-3.9,2-6.6
	c-2.2-4.9-6.5-3.7-10.1-3.1C7.8,252.9,7.9,251.3,9,248.5z"/>
<path class="st4" d="M154.9,251.2c0.2,2.4,1.1,4.5,2.6,6.3c0.9,1.1,2.9,1.8,1.7,3.5c-0.5,0.7-2.3,0.7-3.5,0.7c-4,0.1-7.9,0-12.8,0
	l4.1-5.1c-2.3-5.5-3.4-5.9-11.4-3.9l0.1-0.1c-1.2,1.1-2.4,2.6-2.2,4.4c0.3,2.7-0.7,4.6-3.4,3.7c-3.1-1-0.2-3.1-0.1-4.6
	c3.2-10,8-19.1,12.8-29.3C148.7,234.8,150,243.8,154.9,251.2z"/>
<path class="st8" d="M327,256.3c1.2,0,2.5,0.7,3.2,1.8c1.1,2.2,3.9,2.9,6.1,1.8c2.9-1.5-1.6-3.3-0.3-5.2c1.2,1.1,2.3,2.7,3.7,3.5
	c3.2,1.5,6.2,1.5,6.5-3.1c0.2-7.1-0.1-14.3,0.1-21.4c0.1-2.8-2.8-2.8-3.6-5.3c5.6-1.8,11-0.5,16.9-0.8c-5.7,8.5-5.6,27.4,0.5,33.4
	c-8.4,1.6-16.2,0-23.9,0.8C331.4,262.2,328.4,260.8,327,256.3z"/>
<path class="st9" d="M130.1,256.2c0.7,1.2-1.6,3.3,0.6,3.9s2-1.6,2-3.1c0.1-2,0.6-3.9,2.9-4.3c-0.5,1.1-1.5,2.4-1.4,3.5
	c0.2,6.1,0.3,6.1-6.7,5.8c-0.8-0.1-1.7-0.2-2.5-0.3C125.2,258.2,128.3,257.9,130.1,256.2z"/>
<path class="st3" d="M101.4,261.4c-3.4,0.6-6.8,0.6-10.2,0c3.4-3.5,4.3-7.9,3.9-12.7c-0.6-5.7,1.2-11.6-1.4-17.1
	c-0.9-1-3.4-0.7-2.9-2.7c0.3-1.6,2-1.1,3.3-1.2c5.6-0.6,10.1,0.5,12.9,6c1.6,2.9,4.1,5.5,6.2,8.3c0.9,1.1,2.9,2.6,3.1,0.1
	c0.1-4.5,2.6-10.2-4.9-12.7c3.9-2.7,7.5-1.6,10.8-1.5c1.2,0,1.8,1.8,0.7,2.3c-4.9,2.4-2.8,6.8-3.1,10.3c-0.3,7.1-0.1,14.2-0.1,23.2
	c-8.3-8-13.6-16.4-19.9-23.9c-0.3-0.5-0.9-0.7-0.9-0.5C98.1,246.9,96.2,254.5,101.4,261.4z"/>
<path class="st7" d="M87.1,261.4h-18c5.9-3.1,5.6-6.8,5.4-10.6c-0.1-5.2,0-10.4,0-15.5c0-1.8,0.5-3.7-2.2-4.9
	c-2.6-1.1-1.2-2.5,0.6-2.6c4.5-0.3,9.1-0.3,13.6,0.2c2.3,0.3,1.9,2-0.5,2.5c-2.7,1.1-2,3.5-2,5.5c0,5,0.3,10-0.1,15
	C83.5,254.7,84.6,258.5,87.1,261.4z"/>
<path class="st10" d="M50.9,257.3c0,1.1,0.9,3.2-1.1,2.8c-2.8-0.3-6.7,2.4-8.2-2.5c0-6.9-0.1-13.8-0.1-20.8c0-3.2,0.6-6.6-5.8-7.8
	c7.7-2.2,13.3-1.2,19.3-0.6c-4,2.4-4.3,5.5-4.2,9.3C51.1,244.3,51,250.7,50.9,257.3z"/>
<path class="st11" d="M87.1,261.4c-2.4-1.6-4.1-3.5-4-6.8c0.2-6.5,0-12.9,0.1-19.4c0-2-0.7-4.6,2.7-4.8c-3.2,8.5-1,17.3-1.2,26.1
	c0,2.3,2.8,3.4,4.9,3.1c2.5-0.5,4.8-1.9,4.5-5.2c-0.3-7.5-0.3-15.1-0.5-22.5c1.9,0.7,2.5,2.3,2.5,4.1c0.1,6,0.1,12,0.1,18
	c0,3.6-2.4,5.8-5.1,7.7L87.1,261.4z"/>
<path class="st12" d="M64,251.3c-2.4,0.6-4.3,3.9-6.9,1.8c-2.4-1.9-0.6-4.8,0-7.1c0.3-1.5,0-3.1,0.3-4.4c0.3-1.8-2.3-5,1.1-5.2
	c2-0.1,4.9,1.7,6.5,3.4c2.2,2.4-0.5,3.7-2.3,4.9C57.3,247.9,64.2,248.9,64,251.3L64,251.3z"/>
<path class="st12" d="M40.3,244.9c0.1,1.4,0.1,2.7,0,4.1c-0.3,1.9,1.2,5.2-1.5,5.4c-2.4,0.2-4.3-2.5-4.9-5.2c-0.3-1-0.3-2.2,0-3.2
	c1.5-3.3,0.1-9.7,4.3-9.5C42.8,236.7,38.7,242.6,40.3,244.9z"/>
<path class="st13" d="M9,248.5c-0.3,3.4,1.6,2.7,4,2.8c3.4,0.1,8.3-2.3,9.1,4c-1.2-1.2-2.4-2.7-4.3-2.5c-2.5,0.2-5.2-1.1-7.3,1.5
	c-2.4,3.1,1.4,4.4,2.2,7.1c-3.9,0.8-7.8,0.7-11.7-0.2C5.1,257.3,6,252.3,9,248.5z"/>
<path class="st11" d="M101.4,261.4c-3.7-3.3-6-19-3.1-22.5c0.8-0.9,1.4,0.2,1.7,1c-1.6,7-4.1,14.3,2.5,20.4c0.1,0.1,0,0.5-0.1,0.6
	C102.1,261.1,101.7,261.3,101.4,261.4z"/>
<path class="st12" d="M22.2,231.6l-0.5-1.1c0.6-0.3,1.1-0.6,1.7-0.8c1.6-0.5,3.1-2.8,4.9-0.7c0.6,0.6,0.8,1.5,0.6,2.3
	c-1.4,2.6-3.3,0.5-4.9,0.5C23.4,231.7,22.9,231.6,22.2,231.6z"/>
<path class="st10" d="M62.3,256.3l4.8-2.4c-2.3,2.8-0.9,6.5-5,6.3c-2.3-0.1-1-1.8-1-2.8L62.3,256.3z"/>
<path class="st9" d="M135.6,252.8c6.8-3.4,10.4-2.2,11.4,3.9C144.6,251.3,139.7,253.1,135.6,252.8z"/>
<path class="st14" d="M286.5,252.1c0.7-2-1.2-5.5,2.4-5.8c3.5-0.1,5.2,2.6,5.2,6.1c0,3.1-1.9,5.2-4.6,5.3
	C285.2,258,287.3,254.1,286.5,252.1z"/>
<path class="st15" d="M286.5,237.2c0.6-2.2-0.9-5.3,2-5.4c2.9-0.1,4.4,2.4,4.3,5.3c0,2.6-1.5,4.9-4.1,4.9
	C285.4,241.8,287.4,238.5,286.5,237.2z"/>
<path class="st16" d="M319.7,237.3c1-2.2-1.6-6,3.1-5.8c3.6,0.1,4.4,2.9,4.4,6c0,3.1-0.6,5.8-4.4,5.9
	C317.6,243.4,321,239.2,319.7,237.3z"/>
<path class="st17" d="M260.3,256.2c-1.9,0.5-3.9,3.3-5.8,1.2c-2.3-2.4-1-5.8-1-8.7s2.4-2.5,4.3-2.6
	C260.9,248.8,262.3,252,260.3,256.2z"/>
<path class="st18" d="M255.9,231.6c2.5,0.5,4.2,2.7,3.9,5.2c0,2.5-1.1,5.1-3.9,5c-4.2-0.2-2-3.9-2.4-6
	C253.3,234,252.9,231.7,255.9,231.6z"/>
<path class="st17" d="M221.1,246.9c0.3,2.2-1.1,2.4-2.7,2.5c-1.4,0-2.7-0.3-2.4-2c0.3-1.7,0.6-3.7,2.5-4.1
	C220.7,243,220,245.9,221.1,246.9z"/>
<path class="st19" d="M15.8,249.5c-1.7-0.1-3.9-0.3-3.3-2.6c0.3-1.2,0.6-3.4,3.1-3.4s2.4,2.2,2.8,3.5
	C19.1,249.1,17.5,249.5,15.8,249.5z"/>
<path class="st20" d="M143.2,247.4c0.1,2.4-1.5,2.4-2.9,2.3c-1.7,0-3.9-0.1-3.1-2.6c0.6-1.6,0.2-4.5,2.7-4.4
	C142.4,242.7,142.4,245.7,143.2,247.4z"/>
<path class="st21" d="M238.7,209.3c-3.4,4.1-4.8,8.5-6.1,12.8c-2.6,8.3-5.1,16.5-7.3,24.9c-1,3.6-3.4,3.3-5.9,3.3s-4.1-0.3-5.4-3.8
	c-4.5-12.2-7.8-24.8-13.2-36.8v17.6c0,19.1,0,38.2,0,57.3c0,5.2-9.3,12.9-14.5,12.1c-3.1-0.5-3.6-2.5-3.6-5.2c0.1-8-0.5-16,0.2-23.9
	c0.7-8.8-1.9-16.3-6.6-23.4c-3.3-5.1-6.2-10.4-8.8-15.9c-0.9-2.3-3.2-3.7-5.7-3.4c-8.9,0.2-17.8,0.1-26.7,0c-2.7,0-3.6,0.9-4.4,3.6
	c-3,9.5-6.2,18.9-10,28c-2,4.7-7,2.2-10.4,1.9c-3.2-0.3-0.7-3.3-0.5-5c3.7-23.9,8.7-47.6,12-71.6c1.4-9.9,3.8-19.6,5.2-29.5
	c1.2-7.3,1.7-14.7,1.7-22.1c-0.1-4.4,1.2-9.1-3.8-12.1c-0.9-0.5-1.4-2.2-1.7-3.3c-2.1-6.8-1.6-7.5,5.5-7.5c9.6,0,19.3,0.4,28.9-0.1
	c6.1-0.3,8,2.6,8.9,7.8c1.8,9.6,2,19.5,4.5,29.1c0.9,3.3,2,4.5,5.5,4.2c4.2-0.4,8.5-0.1,12.8-0.1c6.3,0,8.9,2.4,10.9,8.7
	c4.1,13,8.4,26,12.8,38.9c1.6,4.7,1.9,9.8,5.1,14c0.6,0.8,0.6,2.2,2.1,2.2c1.8-0.1,1.9-1.4,2.2-2.7c2.6-12.1,5.9-24,10-35.6
	c2.6-7.6,5.2-15.3,7.7-23c0.4-1.3,1.1-2.4,2.5-2.7c4.9-1,9.8-1.9,14.7-2.7c4-0.7,5.7,1.5,6.1,5.3c0.4,4.5-0.3,9.2-4,11.5
	c-3.7,2.4-3.6,5-3.6,8.4c0,39.1,0,78.2,0,117.4c0,6.3-1,7.3-8,7.3c-6.6,0-8.2-1.4-8.2-7.3c0-24.1,0-48.2,0-72.3
	C239.5,213.5,240.1,211.6,238.7,209.3z"/>
<path class="st22" d="M210.7,350c-3.3,3.3-3.1,7.6-4.8,11.3c-0.6,1.3-0.6,2.8-2.7,2.7c-2.1-0.2-2.3-1.6-2.5-3
	c-0.5-3.8-2.3-7-4.2-10.6v6c0,6.2-0.3,12.4,0.1,18.6c0.3,3.9-2.5,4.8-4.7,6.3c-1.4,0.9-2.4-0.1-2.4-1.8c0-1.4,0-2.9,0-4.3
	c0-13.4,0-26.8,0-40.2c0-2.6,0.2-5.2-2.4-6.9c-0.9-0.6-1.2-1.7-0.8-2.7c0.4-1.1,1.4-0.6,2.2-0.7c6.1-0.4,6.1,0.1,8.4,5.9
	c2.3,5.8,3.1,12.5,6.8,18.8c2.5-7.8,4.8-14.9,7-22c0.4-1.4,0.4-3.1,2.4-2.8c2.1,0.3,4.8-1.6,6.5,0.5c1.1,1.4,0.3,3.4-0.9,4.8
	c-1.3,1.6-1.3,3.4-1.3,5.3c0,13.7,0,27.4,0,41.1c0,2.4-0.1,4.1-3.3,4.1c-3.2,0-3.3-1.6-3.3-4.1C210.8,367.6,210.7,358.8,210.7,350z"
	/>
<path class="st21" d="M248.1,352.7c0,6.9-0.1,13.8,0,20.7c0.1,3.3-1.1,5.5-4.3,6.6c-6.1,2.3-12.1,3.5-17.7-1.5
	c-2-1.6-3.2-4.1-3.1-6.7c0.1-12.7,0-25.3,0.1-38c0-4.3,4.6-10,8.8-10.6c2.6-0.4,5.2-0.3,7.8,0.2c6.9,1.3,8.3,3.3,8.4,10.3
	C248.1,340,248.1,346.3,248.1,352.7z"/>
<path class="st22" d="M110.1,353c0,6.8-0.2,13.5,0.1,20.3c0.4,2.9-1.4,5.7-4.2,6.7c-6.4,2.7-12.7,3.3-18.5-1.6
	c-2-1.7-2.3-3.9-2.4-6.2c0-13.2,0-26.5,0-39.7c0-3.7,5.2-8.9,9.1-9.2c3.7-0.3,7.5-0.3,11,1.4c2.8,1.4,4.9,3.3,4.9,6.8
	C110,338.6,110.1,345.8,110.1,353z"/>
<path class="st21" d="M359.9,352.6c0,7.2-0.1,14.4,0.1,21.6c0.3,2.5-1.2,4.9-3.6,5.6c-6.2,2.4-12.2,3.8-18.1-1.2
	c-1.9-1.5-3-3.8-3-6.3c0-13.2,0-26.5,0-39.7c0-3.7,5-9,9.2-9.4c4-0.6,8.1,0,11.8,1.6c2.4,1.1,3.9,3.6,3.7,6.2
	C359.8,338.2,359.9,345.4,359.9,352.6z"/>
<path class="st22" d="M306.9,381.5c-4.1-3.8-8.5-5.8-14.3-5.5c-4.1,0.2-7.5,1-10,4.2c-0.9,1.1-2.1,1.9-3.3,1.2
	c-1.2-0.7-0.5-2-0.3-3.2c2.2-11.7,4.6-23.4,6.4-35.1c0.8-5.2,2.2-10.7-1.1-15.8c-1-1.5-0.5-3,1.9-2.9c3.9,0.1,7.8,0,11.7,0
	c1.5,0,2.2,0.4,2.5,2.2c2.1,12.4,4.5,24.8,6.4,37.3c0.9,5.6,0.8,11.3,1.2,17L306.9,381.5z"/>
<path class="st22" d="M35.6,380.9c0-15,0-30,0-44.9c0-2.8-0.1-5.6-2.4-7.5c-0.9-0.7-1.3-2-0.9-3.1c0.4-1.4,1.8-1.2,2.9-1.2
	c5.3,0.1,10.7,0.2,16,0.5c3,0.2,5.9,3.8,5.9,7c0,14.8,0,29.7,0,44.5c0,2.2,0,5.3-2.4,5.1c-2.8-0.4-4.8-2.9-4.6-5.7
	c0.2-7.3,0.1-14.7,0.1-22c0-6.2-0.1-12.4,0-18.6c0-2.6-0.3-4.8-3.5-4.7c-2.8,0-4.5,0.7-4.5,4.5c0.3,13,0.1,25.9,0.1,38.9
	C42.5,379,41.5,380,35.6,380.9z"/>
<path class="st22" d="M138.4,354.7c0,7.2-0.1,14.4,0,21.6c0,2.4-0.6,5.1-2.8,5c-2.2-0.1-4-2.2-4-5.2c0.1-13.5,0-27.1,0-40.6
	c0-4.6-3.2-6.5-7.4-4.6c-1.9,0.9-1.1,2.5-1.2,3.7c-0.1,13.1,0,26.2,0,39.3c0.1,1.1,0.1,2.3-0.1,3.4c-0.8,2.6-3.3,3.5-5.4,3.5
	c-2.3,0-1.1-2.4-1.1-3.7c-0.1-13.4-0.1-26.7,0-40.2c0-3.2-0.1-6.2-2.2-8.9c-1.8-2.2-0.8-3.8,2-3.8c5.3,0.1,10.7,0.2,16,0.5
	c3.5,0.2,6.3,3.8,6.3,7.4C138.4,339.7,138.4,347.2,138.4,354.7z"/>
<path class="st22" d="M13.5,324.5c7.5,0,7.6,0,8.9,7.3c2.8,15.3,5.4,30.5,8,45.8c0.2,1.3,1.4,3.3-0.9,4c-2.3,0.6-3.1-1.4-3.5-2.9
	c-1.5-6.9-5.8-8.2-12.4-8.3c-5.6,0-6.3,3.5-8.6,6.5c-1.3,1.6-1,5.7-4,4.5c-2.1-0.9-0.1-3.9,0.2-5.9c1.9-12.5,4.3-24.9,6.2-37.4
	c0.5-3.3,1.4-7-1.3-10.3c-1.2-1.5-1-3.3,1.8-3.3C9.8,324.6,11.6,324.5,13.5,324.5z"/>
<path class="st22" d="M253.4,353.7c0-7.3,0-14.7,0-22c0-1,0.2-2.2-0.3-2.9c-3.3-4.3-0.3-4.3,2.8-4.2c0.4,0,0.9,0,1.3,0
	c15.5-1.2,19.3,5.9,18.5,19.3c-0.2,2.9-1.7,5.1-2.9,7.6c-1.1,2.2-1.8,4.3,0.3,6.7c1.3,1.8,2,3.9,1.8,6.1c0.1,4.9,0.2,9.8,0.3,14.7
	c0,1.1,0.7,2.8-1.5,2.8c-1.8,0-1.8-1.3-2.1-2.7c-1-5.5-2.4-10.9-3.2-16.5c-0.7-5-4.3-2.5-6.7-2.9c-3.3-0.4-2,2.4-2.1,3.9
	c-0.2,4.2,0,8.3-0.1,12.5c0,2.3,0.8,5.6-2.9,5.6s-3.2-3.3-3.2-5.8C253.4,368.5,253.4,361.1,253.4,353.7L253.4,353.7z"/>
<path class="st22" d="M157.7,346.9c1.1-5,2.1-10.1,3.2-15.1c0.1-1.1,0.3-2.2,0.5-3.3c0.9-2.6,2.5-5.1,5.5-4.4c3.2,0.8,1.7,4,1.4,5.8
	c-2.1,11.7-4.7,23.4-6.8,35.1c-0.9,5.1-1.8,10.2-3,15.2c-0.3,1.4-0.7,2.1-2.2,1.9c-2.5-0.4-5.4,0.4-7.2-1.8
	c-0.9-1.1,0.3-2.5,1.1-3.4c5-5.9,4.2-12.5,2.3-19.1c-2-7-4.2-14-6.5-20.9c-0.7-2-0.8-4.3-3.4-5.6c-2.2-1.1-2.9-3.3,0.5-4.5
	c1.2-0.4,2.4-0.9,3.6-1.5c2-0.9,3.1-0.5,3.7,1.8c1.9,6.7,4.1,13.4,6.2,20L157.7,346.9z"/>
<path class="st21" d="M67,354.7c0-6.8-0.1-13.5,0-20.3c0-2.4-0.2-3.8-3.1-3.7c-2.7,0.1-3.8-1.7-3.6-4.3c0.3-2.9,2.5-1.8,4-1.8
	c4.6-0.1,9.2,0,13.8-0.1c2.1,0,3.2,0.3,3.1,2.8c-0.1,2.1-0.5,3.4-2.9,3c-3.3-0.6-4,1-4,4.1c0.2,13.7,0,27.3,0.1,41
	c0,2.8-0.6,5.5-3.3,5.4c-2.4-0.1-4.3-2.1-4.2-5.4C67.1,368.5,67,361.6,67,354.7z"/>
<path class="st21" d="M317.2,354.7c0-6.9-0.1-13.8,0-20.7c0-2-0.3-3.3-2.7-3.2c-2.2,0-3.8-1-4-3.5c-0.1-1.7,0.3-2.7,2.3-2.7
	c5.5,0.1,10.9,0.1,16.4,0c2.2,0,2.1,1.2,2.2,2.8c0,1.7,0,3.4-2.4,2.9c-4.5-0.8-4.5,1.8-4.4,5c0.1,13.4,0,26.7,0.1,40.1
	c0,2.7-0.6,5.5-3.3,5.4c-2.4,0-4.3-2.3-4.2-5.5c0.1-6.9,0-13.8,0-20.7L317.2,354.7z"/>
<path class="st23" d="M148.3,132c2.8,12.2,5.4,23.3,7.9,34.4c3,12.9,6,25.8,9,38.7c0.6,2.4,0,3.3-2.6,3.3c-8.3-0.1-16.7-0.2-25,0
	c-3.2,0.1-3.6-1.4-3.5-4c0.2-12.2,2.8-24.2,4.6-36.2c1.5-9.9,4.9-19.3,6.7-29C145.8,137,147,135.1,148.3,132z"/>
<path class="st24" d="M182.8,205.9c-3.8-18.3-6.5-36.7-11.2-56.1c3.3,4.1,5.7,7.2,8.3,10s2.9,6.3,2.9,9.9
	C182.8,181.8,182.8,193.9,182.8,205.9z"/>
<path class="st23" d="M240.6,353c0,6-0.1,12.1,0,18.1c0.1,3.1-0.8,5.2-4.3,4.9c-3.1-0.2-6.1-1.1-6.1-5.1c0-8,0-16.1,0-24.1
	c0-4.2,0.1-8.3,0-12.5c-0.1-3.8,1.7-5.1,5.2-5.2c3.5-0.1,5.3,1.3,5.2,5C240.5,340.3,240.6,346.7,240.6,353z"/>
<path class="st25" d="M92.5,351.8c0-6.2,0.1-12.4,0-18.5c-0.1-3.7,2.1-4.2,4.9-4.2s5.3,0.6,5.3,4.1c0.1,12.9,0,25.9,0,38.8
	c0,3-2,4.2-4.5,4c-2.4-0.2-5.7-0.6-5.7-4.4C92.6,365.1,92.6,358.4,92.5,351.8L92.5,351.8z"/>
<path class="st25" d="M352.9,353.1c0,6-0.1,12.1,0,18.1c0.1,3.3-1.5,5-4.5,4.9c-3-0.1-5.8-1-5.8-4.9c0-12.6,0-25.3,0-37.8
	c0-3.6,2.2-4.2,5.1-4.2c3.2,0,5.3,1.1,5.3,4.7C352.9,340.2,352.9,346.6,352.9,353.1z"/>
<path class="st26" d="M293.3,335.2c3.5,11.5,3.8,22.4,6.6,32.8c0.5,1.7-0.3,1.8-1.7,2c-9.9,1.2-10.8,0.4-9.8-9.3
	c0.7-6.7,1-13.4,3-19.9C291.9,339.2,292.4,337.7,293.3,335.2z"/>
<path class="st26" d="M14.6,336.2c2.3,2.7,2.4,5.9,3,8.7c0.9,5.4,2,10.7,3.5,15.9c0.7,2.4,0,3.5-2.6,3.2c-1-0.1-2-0.1-3,0
	c-6.6,0-6.6,0-5.4-6.3C11.4,350.6,11.3,343.1,14.6,336.2z"/>
<path class="st27" d="M260.2,341.2c0-2.4-0.2-4.9,0.1-7.3c0.1-1.6-1.3-4.2,1.8-4.4c2.7-0.1,5.9-0.2,6.7,3.2c1.1,5.6,0.8,11.5-0.9,17
	c-0.7,1.4-1.9,2.5-3.3,3.1c-2.2,1-4.6,1.3-4.3-2.6C260.4,347.2,260.2,344.2,260.2,341.2z"/>
</svg>
