<svg id="Layer_1" data-name="Layer 1" xmlns="http://www.w3.org/2000/svg" viewBox="0 0 286.69 134.46"><defs><style>.cls-1{fill:#c2a221;}.cls-2{fill:#efeeea;}.cls-3{fill:#f0efea;}</style></defs><title>bgn</title><path class="cls-1" d="M252.12,153.89l53.23,46c0-12.37,0-23.43,0-34.5,0-7.77-.78-6.62,6.58-6.63,11.39,0,11.39,0,11.39,11.33q0,31.49,0,63v6.13c-18.11-15.47-35.43-30.27-53.37-45.58,0,12.31,0,23.75,0,35.19,0,6.47,0,6.47-6.59,6.47-12,0-12,0-12-12.15q0-32,0-63.95C251.37,157.61,250.9,155.92,252.12,153.89Z" transform="translate(-36.66 -127.77)"/><path class="cls-1" d="M90.28,194.15c10.91,5.22,15.34,12.62,13.48,21.84-2.25,11.1-9.43,17.24-20.72,18.13-14,1.11-28,.38-42,.72-3.22.08-4.45-.86-4.42-4.18q.27-34,.27-68c0-2.8.61-4.26,3.86-4.19,13.65.32,27.34-.59,41,.53,13.9,1.15,21.91,13.92,16.74,26.05C96.86,188.91,93.62,191.24,90.28,194.15Z" transform="translate(-36.66 -127.77)"/><path class="cls-1" d="M163.19,138.65a5.46,5.46,0,0,0,0,1c.86,5.4-.67,8.32-6.58,10.31-17.65,6-31.87,25.54-30.48,48.47a48,48,0,0,0,33,42.71c3,1,4.39,2.12,4.1,5.47a80,80,0,0,0,0,11.48c.19,3.32-.93,3.76-4.07,3.17-25.37-4.72-47-26.41-52.46-52.83-7.2-35,14.92-70.33,49.16-78.59,7.3-1.77,7.3-1.77,7.31,5.82Z" transform="translate(-36.66 -127.77)"/><path class="cls-1" d="M211.3,194.07c9,0,18,.09,27,0,3-.05,4.38.42,4.27,4-.9,31.56-25,59.1-55.94,63.7-6.45,1-6.46,1-6.42-5.68,0-3.82-1-8.14.43-11.34,1.58-3.53,6.7-2.39,10.16-3.69,12.48-4.7,21.16-13.46,27.58-24.85,1.56-2.76.75-3.34-2.09-3.32-10.65.09-21.31-.08-32,.1-3.32.06-4.4-1-4.17-4.29.34-4.63-1.42-10.62.88-13.57,2.46-3.16,8.72-.84,13.32-1C200,193.91,205.64,194.07,211.3,194.07Z" transform="translate(-36.66 -127.77)"/><path class="cls-1" d="M180.21,137.53c0-10.77,0-10.81,10.9-8.61A61.9,61.9,0,0,1,218,141.21c2.21,1.76,2.66,3.16.26,5-.65.5-1.16,1.18-1.77,1.75-3.26,3.06-6.06,7.4-9.94,8.82-4.05,1.47-6.83-4.11-10.79-5.55-3.42-1.24-6.68-3.17-10.34-3.42-4.59-.32-5.79-2.71-5.21-6.79A23.76,23.76,0,0,0,180.21,137.53Z" transform="translate(-36.66 -127.77)"/><path class="cls-2" d="M66.31,221.42c-4.12,0-9.4,2.12-12.05-.39-2.91-2.75-1-8.17-1-12.41-.09-7.87-1.06-6.77,6.85-6.83,5.47,0,11-.09,16.43.19,6.38.32,10.52,4.28,10.62,9.69s-3.41,9-9.9,9.69C73.64,221.72,70,221.42,66.31,221.42Z" transform="translate(-36.66 -127.77)"/><path class="cls-3" d="M65.3,171.14c3.81.18,7.65.14,11.43.61,4.5.56,7.31,3.21,7.37,7.92S81.45,187.13,77,188c-7.05,1.35-14.22.7-21.35.81-1.66,0-2.47-.68-2.45-2.34,0-1,0-2-.05-3C53.09,171.27,53.09,171.27,65.3,171.14Z" transform="translate(-36.66 -127.77)"/></svg>