<svg id="Layer_1" data-name="Layer 1" xmlns="http://www.w3.org/2000/svg" viewBox="0 0 341.71 143.31"><defs><style>.cls-1{fill:#b5962b;}.cls-2{fill:#b49629;}.cls-3{fill:#010101;}.cls-4{fill:#020202;}.cls-5{fill:#030303;}.cls-6{fill:#b7a859;}.cls-7{fill:#b6a557;}.cls-8{fill:#b8a555;}.cls-9{fill:#cbcbcb;}.cls-10{fill:#c8c8c8;}.cls-11{fill:#c5c5c5;}</style></defs><title>bleifrei</title><path class="cls-1" d="M316.67,123.34c2.53,3.42,1.63,7.56,1.91,11.75,3.31-1.31,4-3.91,4.93-6.65,1.81,1.73,1.26,3.61,1.13,5.28s-2,3.71-.33,5.11c2.2,1.82,3-1.89,4.94-1.94,2,5-2.31,7.16-4.5,10.24-1,1.42-2.09.14-3.07-.25-2.82-1.1-5.6-2-8.72-1.12-2,.53-4.6,3.31-5.67,1.59-2-3.24-6.62-5.83-4.28-10.9,1.36.16,1.12,1.71,1.85,2.46s1.49,1.46,2.58.84.86-1.65.58-2.65c-.78-2.77-2.59-5.55-.15-8.4.41.17.81.21,1,.42,1.1,1.45,1,4.61,3.69,3.79,2.4-.72,2.2-3.41,2.19-5.59,0-1.32,0-2.65-.05-4Z" transform="translate(-9.15 -123.34)"/><path class="cls-2" d="M307.68,225.33c-6.27-16.88-7.23-34-2.12-51.33.47-1.57,2.24-3.46,0-4.95-2.74-1.83-5.65-3.44-8.56-5-.16-.09-1.15,1.07-1.52,1.77-.76,1.47-1.19,3.14-2.07,4.53-2.84,4.48-1.53,7.79,2.07,11.31,6.8,6.65,6.85,7,.16,14-3.68,3.81-3.9,6.91-1.77,11.76,7.48,17.06,10.15,35.3,11.33,53.81-1.38-5.74-2.57-11.54-4.18-17.22a140.59,140.59,0,0,0-18.52-40.16c-2.22-3.3-2-5.53.55-8.18,2.42-2.49,6.64-4.72,6.55-7.74-.07-2.49-4-4.92-6.32-7.29-1.43-1.46-2-2.86-1-4.88,3.42-7.21,6.74-14.47,10-21.75,1.05-2.33,2.13-2.24,4.15-.92,5,3.28,10.11,6.43,15.35,9.31,2.82,1.55,3.09,3.11,2,6-4.65,12.38-7.57,25.18-7,38.49.25,5.79,1.32,11.54,2,17.3C309.14,225.26,308.67,225.56,307.68,225.33Z" transform="translate(-9.15 -123.34)"/><path class="cls-2" d="M327.61,251.28c1.67-15.77,4.82-31.2,11.51-45.66,1.61-3.49,1.23-5.79-1.17-8.37-2.58-2.78-6.59-5.48-6.7-8.89-.11-3.24,4.24-5.58,6.81-8.1,2.84-2.79,2.92-5.44,1.25-8.9-4-8.21-3.73-8.09-11.41-3.28-2.95,1.85-1.9,3.72-1.26,5.9,5.12,17.34,4.24,34.43-2.06,51.3-1.91.1-1.39-1-1-2,4-19,1.44-37.32-5.25-55.26-.91-2.43-.82-3.91,1.62-5.32,5.33-3.07,10.59-6.26,15.69-9.69,2.71-1.82,3.64-.71,4.71,1.68,2.78,6.22,5.63,12.41,8.66,18.52,1.76,3.55,1.55,6.14-1.59,9.08-5.63,5.26-5.41,5.49-.61,11.21,5.26,6.29,5.22,6.26.79,13.44a150.77,150.77,0,0,0-19.05,47.35C326.16,253.93,327.38,252.45,327.61,251.28Z" transform="translate(-9.15 -123.34)"/><path class="cls-3" d="M187.06,213.21H169.53c4.69-.4,4.36-3.74,4.31-7q-.1-7.24,0-14.48c.06-3.4.4-6.84-4.41-7.25,7.64,0,15.28-.06,22.91,0a11.49,11.49,0,0,1,5.68,1.72c2.49,1.48,3.93,3.56,3.72,6.55-.31,4.28-3.6,5.62-7.38,7.06,3.16,3.62,6.13,7.13,9.2,10.54,1.87,2.07,4.27,2.44,6.87,1.68,3-.86,2.18-3.35,2.2-5.39.07-5.16,0-10.32,0-15.48,0-3.3.46-6.76-4.53-7,9.06,0,18.12,0,27.18,0,1.65,0,2.46.41,2.36,2.23a48.5,48.5,0,0,1-.47,6.55c-2.34-5.63-6.62-6.91-12-6.88-3.25,0-4.14,1.1-3.7,4,.09.65-.11,1.36,0,2,.42,1.78-1.25,4.55,1.19,5.21,2.79.76,4.53-1.41,5.45-4,.22-.61.48-1.21,1.17-3,.8,5.8.48,10.49.31,15.33-1.55-.43-1.31-1.69-1.7-2.47-1.16-2.32-3-4.13-5.43-3.45-2.14.59-1,3.19-.91,4.79.11,2.27-1.56,5.83,1.68,6.54,4.55,1,9.37.69,13.09-2.95a26.74,26.74,0,0,0,2.63-3.62c1.48,7.13.22,8.85-6.35,8.86-10.66,0-21.32-.17-32,.09-3.54.08-5.92-1-8-3.75s-4.71-5.59-7.17-8.3c-.87-1-2.05-2.16-3,0C180.83,205.55,183,211.28,187.06,213.21Z" transform="translate(-9.15 -123.34)"/><path class="cls-3" d="M9.2,213.49c7.92-6.22,3-14.53,4.2-21.57.56-3.2.4-6.8-4.25-7.48,7.41,0,14.83-.09,22.24.07A10.88,10.88,0,0,1,36.07,186c2.12,1.14,3.65,2.88,3.59,5.54-.08,4.08-3.49,4.79-6.27,6.18.21.2.37.47.59.53,3.9,1,7.7,2.69,7.33,7.39-.35,4.42-4.06,6.05-8.05,6.89C25.35,214.23,17.36,212.81,9.2,213.49Z" transform="translate(-9.15 -123.34)"/><path class="cls-4" d="M101.82,191.37v15.81c-1.19-2.53-1.71-3.85-2.41-5.06-1.1-1.92-3-3-5-2.45-1.76.52-1,2.64-.82,3.92.33,2.58-1.74,6.53,1.85,7.43,4.49,1.13,9.36.77,13-3a35.22,35.22,0,0,0,2.88-3.79c1.11,1.29.23,2.41.24,3.49,0,4.11-1.46,6-6.19,5.73-8.29-.48-16.64-.13-25.6-.53,6.12-.18,4.82-4.27,4.85-7.62,0-4.83-.1-9.66,0-14.49.09-3.28.09-6.25-4.46-6.66,9.12,0,18.24,0,27.35,0,1.94,0,2.13,1,2.09,2.49a40.6,40.6,0,0,1-.4,6.2c-2.49-5.8-7.06-6.91-12.54-6.75-2.69.08-3.57.93-3.24,3.45.1.82-.12,1.69,0,2.49.38,1.79-1.24,4.54,1.16,5.23,2.77.79,4.53-1.39,5.54-3.92.3-.74.58-1.49.86-2.24Z" transform="translate(-9.15 -123.34)"/><path class="cls-4" d="M137.09,184.18c8.31,0,16.63.26,24.93-.12,4.2-.19,5.21,1.4,4.65,5-.17,1.08.44,2.28-.83,3.69-2-6.41-7-6.63-12.27-6.66-2.57,0-3.9.73-3.33,3.35s-1.92,6.6,1.67,7.82,5.79-2,7.6-5.14v14c-1.88-2.4-2.37-5.78-5.92-6.4-2.33-.4-3.29-.21-3.47,2.45-.49,7.25-.06,8.72,4.45,10.88H137.25c4.67-.4,4.31-3.77,4.27-7-.06-4.66,0-9.32,0-14C141.47,188.76,142.56,184.7,137.09,184.18Z" transform="translate(-9.15 -123.34)"/><path class="cls-3" d="M44.53,184.31H62.38c-5.85.22-4.68,4.51-4.7,8.06,0,5,.08,10,0,15-.07,3,1.22,3.86,4.15,4.11,6.68.57,11.68-1.38,14-8.41.59.74.91,1,.9,1.16-.22,9.16-.22,9.16-9.17,9.16H44.6c3.77-1,4.48-3.46,4.3-7-.27-5.3,0-10.63-.08-15.95C48.8,186.11,48.78,186.11,44.53,184.31Z" transform="translate(-9.15 -123.34)"/><path class="cls-5" d="M133.62,184.6c-4.4.05-4.44,3.1-4.42,6.28q0,8,0,16c0,3.06.36,5.75,4.28,6.23H116.24c4.48-.38,4.36-3.55,4.29-6.86-.11-5.32-.15-10.64,0-16,.09-3.13-.59-5.28-4.26-5.64Z" transform="translate(-9.15 -123.34)"/><path class="cls-5" d="M261.1,213.28H244c1-1.62,3.49-.84,4-2.64a18,18,0,0,0,.55-4.39c.06-5-.07-10,0-14.94.07-3.32.14-6.47-4.39-6.92h18c-4.89,1.94-4.9,1.94-4.93,6.84,0,5.31,0,10.62-.06,15.94C257.11,210,257.47,212.52,261.1,213.28Z" transform="translate(-9.15 -123.34)"/><path class="cls-6" d="M327.61,251.28c.22,1-.17,2.24.95,3q-1.05,6.19-2.11,12.4A35,35,0,0,1,327.61,251.28Z" transform="translate(-9.15 -123.34)"/><path class="cls-7" d="M323.59,223.25c.33.68.66,1.35,1,2a21.27,21.27,0,0,1-4.94,10.05Q321.63,229.3,323.59,223.25Z" transform="translate(-9.15 -123.34)"/><path class="cls-8" d="M307.68,225.33l1.16-1.14,3.82,11-1.28.52Q309.53,230.55,307.68,225.33Z" transform="translate(-9.15 -123.34)"/><path class="cls-9" d="M182.5,191.91c.92-1.79-2.31-6.15,3.48-5.78,4,.27,6.82,1.49,6.86,6.06,0,4.06-2.5,6.18-7.33,6.15C182.51,198.32,182.51,198.32,182.5,191.91Z" transform="translate(-9.15 -123.34)"/><path class="cls-10" d="M21.68,204.7c1-1.88-2-5.83,3.21-5.46,4.19.3,7.09,2.65,6.9,6.2-.22,4.1-2.94,5.8-6.64,5.86C19.82,211.4,22.63,207.08,21.68,204.7Z" transform="translate(-9.15 -123.34)"/><path class="cls-11" d="M21.54,191.67c1.41-1.64-2-5.52,2.84-5.41,3.56.09,6.32,1.56,6.23,5.53s-3.38,5.3-6.61,5.28C20,197.05,22.73,193.46,21.54,191.67Z" transform="translate(-9.15 -123.34)"/></svg>