<svg id="Layer_1" data-name="Layer 1" xmlns="http://www.w3.org/2000/svg" viewBox="0 0 351.87 41.78"><defs><style>.cls-1{fill:#242021;}.cls-2{fill:#262223;}.cls-3{fill:#2a2728;}.cls-4{fill:#e3e2e3;}.cls-5{fill:#fbfbfb;}.cls-6{fill:#f8f8f8;}</style></defs><title>blend</title><path class="cls-1" d="M96.4,215c-5.49-1.07-15.67,3.69-19.36-1.87-2.71-4.11,2.42-13.52,4.28-20.51C86,175.12,86,175.14,104.5,175.14c5.69,0,11.39-.06,17.09,0,11.29.14,14.22,5,8.31,14.85-2,3.34-2.49,5.3-1.19,9.36,2.31,7.21-4.57,15.1-12.47,15.58C110.25,215.3,104.22,215,96.4,215Z" transform="translate(-4.07 -174.11)"/><path class="cls-1" d="M252.14,184.24c-2.22,8.55-4.4,14.58-5.23,20.79-1.18,8.85-5.43,12-15.09,9.24,3.21-11.93,6.41-23.92,9.7-35.9a5,5,0,0,1,1.85-2.89c6.94-3.89,20.95,1,24.14,8.29,2.89,6.62,5.79,13.23,9.78,22.33,2.59-10,5-17.64,6.43-25.41,1.34-7.16,6.57-6.26,10.8-5.31,5.62,1.27,1.67,5.4,1,8.09-2,8.62-4.47,17.12-6.57,25.71-1,4.15-2.82,5.7-7.59,6.17-11.14,1.08-18.66-1.43-21.41-13.56C258.78,196.44,255.5,191.56,252.14,184.24Z" transform="translate(-4.07 -174.11)"/><path class="cls-1" d="M295.67,215C299,202.46,302,190.88,305,179.25c.87-3.43,2.91-4.23,6.21-4.18,11.4.19,22.82-.18,34.21.21,9,.3,11.8,4.1,10,13A131.08,131.08,0,0,1,351.68,202c-2.72,8.53-8.58,13-17.66,13C321.69,215,309.35,215,295.67,215Z" transform="translate(-4.07 -174.11)"/><path class="cls-1" d="M180.42,215.08c3.38-12.47,6.72-24,9.51-35.58.87-3.6,2.47-4.44,5.78-4.41,12.93.12,25.87,0,38.74,0,.76,7.49-2.08,10.23-9.15,9.63-6.59-.56-13.28-.13-19.92-.1-2.52,0-5.57-.3-5.32,3.49.23,3.61,3.33,2,5.13,2.06,7.87.18,15.75.07,23.54.07.7,7.11-1.93,9.81-8.63,9.27-6.29-.51-12.65-.09-19-.11-2.73,0-5.34.33-5.07,3.89s3.32,2,5.12,2.09c6.64.2,13.29-.06,19.93.17,2,.07,5.71-1.7,5.48,2.66-.18,3.41-.56,7-5.73,6.89C207.65,215,194.44,215.08,180.42,215.08Z" transform="translate(-4.07 -174.11)"/><path class="cls-2" d="M42,175.27c7.9,0,15.81.1,23.71,0,5.5-.09,7.42,1.84,5.83,7.51-2.48,8.8-4.66,17.7-6.41,26.67-.86,4.43-3,6.34-7.07,5.33-5.5-1.37-1.64-5-1.07-7.42,4.32-18.11,4.4-18-14.42-18.2-4.73-.06-12.6,3.15-9.93-7.49.68-2.74-2.13-2.68-3.9-2.48-2.83.32-6.65-1.7-7.92,2.88q-3.15,11.4-6.19,22.82c-1.2,4.49,1.88,4.54,4.9,4.55,8.53,0,17.07-.09,25.61.09,1.8,0,4.94-1.53,5.18,2,.19,2.79-2,3.42-4.51,3.41-12.34-.08-24.67,0-37-.07-4.35,0-5.4-2.45-4.41-6.29,2.43-9.47,4.94-18.92,7.2-28.43.9-3.75,2.91-5.09,6.68-5,7.9.19,15.81.06,23.72.06Z" transform="translate(-4.07 -174.11)"/><path class="cls-1" d="M155.93,175.1c-2.2,8.45-3.76,16.21-6.3,23.64-1.93,5.67.13,6.56,5.05,6.31s10.12-.22,15.17,0c2.11.1,5.8-1.47,5.46,2.9-.25,3.3-.23,7.21-5.46,7.15q-16.6-.18-33.2,0c-4.15,0-3.71-2.32-3-4.91,2.79-10.35,5.43-20.75,8.52-31C144.6,171.1,151,176.9,155.93,175.1Z" transform="translate(-4.07 -174.11)"/><path class="cls-3" d="M27.35,205.44C29.43,193.73,33.8,191,44.6,193.53c2.28.54,3.63,1.4,2.54,3.6-1.49,3-.14,8.19-5.75,8.3C36.76,205.51,32.12,205.44,27.35,205.44Z" transform="translate(-4.07 -174.11)"/><path class="cls-4" d="M102.54,205.63a38.64,38.64,0,0,1-6.55-.08c-2.1-.36-5.7,1.82-6-2.12-.21-3.18,2.06-4.89,5.56-4.79,5.63.17,11.26.05,16.89.1,1.9,0,4.24.24,4.4,2.44a3.89,3.89,0,0,1-4,4.29c-3.43.11-6.88,0-10.32,0Z" transform="translate(-4.07 -174.11)"/><path class="cls-5" d="M107.31,183.94c4.12,2.46,11.31-2.41,11.45,3.37.13,5.51-7.11,3.28-11,3.17-4.52-.13-13,2.51-12.92-1.94C94.92,180.36,103.6,187.26,107.31,183.94Z" transform="translate(-4.07 -174.11)"/><path class="cls-6" d="M322.49,205c-3.2-1.21-10,2.66-10.92-2-1-5,2.25-10.86,4.07-16.2.91-2.65,3.78-1.6,5.87-1.71,2.52-.13,5.17-.51,7.56.07,4.71,1.15,12.55-3.85,13.33,5.47s-4.25,14-14.37,14.37C326.45,205.05,324.87,205,322.49,205Z" transform="translate(-4.07 -174.11)"/></svg>