<svg id="Layer_1" data-name="Layer 1" xmlns="http://www.w3.org/2000/svg" viewBox="0 0 349.05 39.88"><defs><style>.cls-1{fill:#3b3b3d;}.cls-2{fill:#3a3a3c;}.cls-3{fill:#3c3c3e;}.cls-4{fill:#404042;}.cls-5{fill:#fdfdfd;}.cls-6{fill:#fcfcfc;}.cls-7{fill:#fefefe;}</style></defs><title>bonaparte</title><path class="cls-1" d="M91.83,185.84c0,8.42,0,16.62,0,24.81,0,1.67,1,4-2.44,3.91-3.13-.11-2.2-2.26-2.21-3.81q-.11-15.7,0-31.42c0-1.23-.83-3.06,1-3.6s3.32.07,4.61,1.78c6.36,8.48,12.88,16.84,19.35,25.24.39.51.85,1,1.82,2V179c0-1.73-.51-3.52,2.48-3.49s2.49,1.81,2.49,3.55c0,10.48,0,21,0,31.42,0,1.33,1,3.29-1.08,3.92-1.88.58-3.35-.33-4.58-1.95-6-7.9-12-15.75-18.11-23.58C94.25,187.84,93.71,186.5,91.83,185.84Z" transform="translate(-5.47 -175.06)"/><path class="cls-2" d="M25.35,194.32c6.13,3,8,5.79,7.4,10.48-.63,4.87-3.94,8.12-9.68,9.25-5.18,1-10.44.22-15.66.46-1.81.09-1.94-1-1.94-2.37q0-17.14,0-34.29c0-1.13-.08-2.28,1.59-2.24,5.36.15,10.75-.49,16.06.56,4.22.83,7.39,3,8.15,7.59C32.09,188.64,30,192,25.35,194.32Z" transform="translate(-5.47 -175.06)"/><path class="cls-2" d="M58.86,214.78c-11.48,0-19.15-7.84-19.18-19.61s8-20.24,19.32-20.11,19,8.43,19,20S70.24,214.78,58.86,214.78Z" transform="translate(-5.47 -175.06)"/><path class="cls-1" d="M275.29,197.53c3.87,5.35,7.66,10.58,11.42,15.82.13.17,0,.51,0,.87-3.38.94-5.87.11-7.86-3.08-2.32-3.72-5.18-7.1-7.67-10.73a4.84,4.84,0,0,0-5.77-2c-2.11.64-1.05,2.81-1.12,4.29-.16,3.16-.13,6.33,0,9.49.07,2.2-1.14,2.35-2.86,2.38s-2.76-.29-2.75-2.44c.09-11.41,0-22.84,0-34.26,0-1.12-.1-2.28,1.58-2.23,5.08.15,10.2-.53,15.21.64,5.36,1.25,7.86,4,8.34,8.83.52,5.3-1.49,8.9-6.33,11.33Z" transform="translate(-5.47 -175.06)"/><path class="cls-3" d="M341.53,214.51c-3.13-.39-8,1.66-10.43-.81-2.24-2.28-.62-7.08-.66-10.77-.09-8,.08-16-.09-24-.06-2.75.8-3.52,3.5-3.43,5.91.2,11.84.08,17.76.05,1.62,0,2.93,0,2.92,2.28s-1.5,2.16-3,2.16c-4.13,0-8.26.08-12.39,0-2.15-.07-3.14.34-3.22,2.87-.28,9.82-.39,9.82,9.51,9.82.69,0,1.38-.05,2.06,0,1.49.12,3.4-.68,3.45,2.14s-1.66,2.3-3.27,2.3c-3,0-6.06.09-9.09,0-1.94-.08-2.54.58-2.64,2.57-.53,10.14-.59,10.14,9.51,10.14,2.2,0,4.41.08,6.6,0,1.76-.09,2.49.53,2.48,2.34s-.56,2.48-2.4,2.42C348.8,214.43,345.49,214.51,341.53,214.51Z" transform="translate(-5.47 -175.06)"/><path class="cls-1" d="M250.42,214.21c-3.6,1.1-5.46-.21-6.66-3.85-2.17-6.55-2.39-6.48-9.37-6.48a9.09,9.09,0,0,1-1.65,0c-6.3-1.12-10.49.79-11.55,7.68-.21,1.39-.87,2.92-2.89,3-2.31.06-4.08.29-2.63-3.17,4.62-11,9-22.19,13.35-33.34.72-1.85,1.66-2.6,3.62-2.44,1.52.12,2.9-.09,3.64,1.81,4.7,12,9.49,24,14.23,36C250.6,213.63,250.46,213.94,250.42,214.21Z" transform="translate(-5.47 -175.06)"/><path class="cls-1" d="M151.48,203.88c-8.06,0-8.06,0-11.22,7.45a9.78,9.78,0,0,1-1.08,2.2c-1.24,1.61-3.2,1.3-4.57.79-1.76-.65-.27-2.12.11-3.08,4.34-11,8.82-22,13.11-33,.77-2,1.71-2.72,3.85-2.74s3.08.84,3.84,2.77c4.25,10.88,8.69,21.68,12.94,32.55.4,1,2.2,2.73.29,3.45-1.71.64-4.2,1-5.17-1.79-.54-1.56-1.31-3.05-1.73-4.64-.81-3.08-2.41-4.66-5.83-4A25.45,25.45,0,0,1,151.48,203.88Z" transform="translate(-5.47 -175.06)"/><path class="cls-2" d="M187.68,194.78c0-5.37.09-10.74,0-16.11,0-2.16.33-3.27,2.86-3.11,4,.25,8-.06,12,.28,7.1.59,11.26,5.09,11.29,11.77s-4.54,11.5-11.52,12.19c-.41,0-.83.06-1.24.08-7.91.32-7.91.32-7.91,8.45,0,1.1-.08,2.21,0,3.31.17,2-.45,2.93-2.73,2.94s-2.77-.77-2.73-2.86C187.76,206.08,187.68,200.43,187.68,194.78Z" transform="translate(-5.47 -175.06)"/><path class="cls-1" d="M303.41,197.25c0-4.54-.12-9.09,0-13.62.09-2.44-.56-3.56-3.18-3.35-2.33.2-4.68-.05-7,.07-2,.11-2.6-.73-2.6-2.66s1.15-2.1,2.66-2.1q12.58,0,25.18,0c1.47,0,2.66,0,2.63,2.08,0,1.87-.48,2.91-2.54,2.65h-.41c-3,.18-7-1.28-8.78.59-2.13,2.21-.64,6.29-.7,9.55-.13,6.74,0,13.48-.06,20.22,0,1.73.85,3.88-2.51,3.92-3.19,0-2.72-1.83-2.71-3.73Z" transform="translate(-5.47 -175.06)"/><path class="cls-4" d="M135,176.35c-1.45,4.54-2.59,8.19-3.81,11.81-.3.9-1.15,1.08-2,.87s-.7-.9-.56-1.58c.72-3.48,1.4-7,2.1-10.45.35-1.78,1.77-1.37,2.94-1.38S135,176.25,135,176.35Z" transform="translate(-5.47 -175.06)"/><path class="cls-5" d="M10.72,203.17c0-6.31,0-6.33,6.26-6.29a29.6,29.6,0,0,1,4.9.32c3.35.6,5.41,2.45,5.39,6.11s-1.78,5.82-5.17,6.33a83.93,83.93,0,0,1-9.4.42c-1.7.06-2-.94-2-2.37S10.72,204.68,10.72,203.17Z" transform="translate(-5.47 -175.06)"/><path class="cls-6" d="M16.08,179.88c7.08,0,10,1.92,10.05,6.45,0,4.33-3.43,6.68-10,6.65-6.3,0-5.3.76-5.4-5.53,0-.69,0-1.38,0-2.06C10.71,179.85,10.71,179.85,16.08,179.88Z" transform="translate(-5.47 -175.06)"/><path class="cls-7" d="M45.29,194.83c.09-9.08,5.38-14.93,13.53-14.94s13.78,6.24,13.69,15.34S67,210.06,58.82,210.06C50.37,210.06,45.21,204.25,45.29,194.83Z" transform="translate(-5.47 -175.06)"/><path class="cls-7" d="M269.8,179.87c.7.11,2.33.28,3.93.64a5.85,5.85,0,0,1,4.95,5.76,6.67,6.67,0,0,1-4,7c-2.72,1.26-5.61,1.06-8.48,1.09-1.8,0-1.91-1.12-1.9-2.46,0-2.47,0-4.94,0-7.41C264.34,179.27,263.51,180,269.8,179.87Z" transform="translate(-5.47 -175.06)"/><path class="cls-5" d="M232.75,181.75c2.23,5.72,4.11,10.7,6.12,15.63.8,2,.41,2.66-1.8,2.54-3.55-.2-7.11-.18-10.67-.25.23-3.58,2.17-6.6,3.3-9.88C230.54,187.34,231.53,185,232.75,181.75Z" transform="translate(-5.47 -175.06)"/><path class="cls-6" d="M144.91,199.6c.24-.79.36-1.32.55-1.81,2-5.24,4-10.48,6.21-16.06l6.89,17.87Z" transform="translate(-5.47 -175.06)"/><path class="cls-6" d="M193,187.89c0-.27-.1-.6,0-.82,1.26-2.32-3.13-7.15,3.27-7.21,8.21-.07,11.81,2.12,12,7.51.16,4.72-3.13,7.95-8.39,8.24C193,196,193,196,193,187.89Z" transform="translate(-5.47 -175.06)"/></svg>