<svg id="Layer_1" data-name="Layer 1" xmlns="http://www.w3.org/2000/svg" viewBox="0 0 296.51 195.22"><defs><style>.cls-1{fill:#9e1d14;}.cls-2{fill:#9e1e15;}.cls-3{fill:#a0261c;}.cls-4{fill:#a22b22;}.cls-5{fill:#9e1f16;}.cls-6{fill:#9d1c12;}.cls-7{fill:#dad1ca;}.cls-8{fill:#0b4771;}.cls-9{fill:#0e4b73;}.cls-10{fill:#e7e2dd;}.cls-11{fill:#0b4871;}.cls-12{fill:#4f748c;}.cls-13{fill:#1d5277;}.cls-14{fill:#094770;}.cls-15{fill:#104c74;}.cls-16{fill:#0a4771;}.cls-17{fill:#547b91;}.cls-18{fill:#0e4a73;}.cls-19{fill:#e4ded8;}.cls-20{fill:#dfdcd9;}.cls-21{fill:#567a8f;}.cls-22{fill:#7893a4;}.cls-23{fill:#53758b;}.cls-24{fill:#5d7b8c;}.cls-25{fill:#25587e;}.cls-26{fill:#9f2016;}.cls-27{fill:#9f2117;}.cls-28{fill:#d7d0cb;}.cls-29{fill:#ded7d2;}.cls-30{fill:#e3deda;}.cls-31{fill:#547891;}.cls-32{fill:#4c6f85;}.cls-33{fill:#e0d9d3;}.cls-34{fill:#e9e3e0;}.cls-35{fill:#e5e1e0;}.cls-36{fill:#e2deda;}.cls-37{fill:#6f8b9f;}.cls-38{fill:#ded9d5;}.cls-39{fill:#dadbdb;}.cls-40{fill:#3f6883;}.cls-41{fill:#4c718a;}.cls-42{fill:#dcdadb;}.cls-43{fill:#dbdadb;}.cls-44{fill:#5d7d93;}.cls-45{fill:#e6e1de;}.cls-46{fill:#dad9d9;}.cls-47{fill:#dfdedb;}.cls-48{fill:#c3cbd2;}.cls-49{fill:#305f81;}.cls-50{fill:#67869c;}.cls-51{fill:#32607e;}.cls-52{fill:#517287;}.cls-53{fill:#4e748c;}.cls-54{fill:#ced2d4;}.cls-55{fill:#496c83;}.cls-56{fill:#cbcecf;}</style></defs><title>caramelo</title><path class="cls-1" d="M118,134.12c-.09-10.64,0-21.28-.38-31.91-.22-5.9,4.33-3.22,6.73-4.42,3.47.32,7,.59,10.41,1,4.81.53,7.43,3.41,8.11,8s-.3,8.35-5.38,9.76c-3.38.94-2.37,2.74-1.15,4.81,2.21,3.75,4.28,7.58,6.43,11.42-6.84,2.34-13.71-5.63-15.68-17.82l.5-.73c2-1.47,5.19-1.35,6.12-4.35,1.9-7.29-5.18-5.58-8-8.06-2.48,8.52-1,17.24-1,25.85C124.73,133,123,134.88,118,134.12Z" transform="translate(-31.75 -97.39)"/><path class="cls-2" d="M78.1,130.62c-3.49-4.45-5.73-9.3-5.5-15.14.32-8.59,5.88-16,13.33-17.62,8.38-1.77,16.24,1.94,19.91,9.39s1.84,18.18-4,23.09a71.57,71.57,0,0,1-6.53,4.39C89.09,135.24,83.2,134.57,78.1,130.62Z" transform="translate(-31.75 -97.39)"/><path class="cls-3" d="M188.07,106.89c-2.09,7.85,3,7.27,8.09,7.11,1.64,0,4.64-1.11,4.53,1.74-.08,2.06-2.88,1.23-4.5,1.29-7.86.33-10.22,3.79-8.37,11.77.59,2.52,2.17,2.17,3.85,2.39,3.49.47,7.27-1.08,11.27,1.54-5.28,2.85-10.43.48-15.11,1.75l-.46-.18-.43.24c-6.1.55-6.75-3.58-6.94-8.1,1.64-7.76.87-15.62.87-23.44,0-3.63,1-5.14,4.83-5,5.32.25,10.66.07,17.65.07-3.92,4.11-7.11,3.08-9.82,2.92C189,100.76,186.82,102.07,188.07,106.89Z" transform="translate(-31.75 -97.39)"/><path class="cls-4" d="M233.67,97.86c.65,5.61-3.71,3-5.78,3.17-6.52.41-9.5,4.93-7,11.11.78,2,2.29,1.59,3.73,1.8,2.68.4,5.64-1,8.44,1.39-2.52,2.9-5.71,1.35-8.44,1.74-2.11.3-4-.59-2.81,3.54,1,3.22-1.22,7.4-1.19,11.33,0,2.41-2.26,2.21-4,2.25-2.72.06-3.16-1.71-3.18-3.93-.08-7.34-.21-14.69-.32-22,.76-10.13.76-10.11,11.51-10.14C227.61,98.08,230.64,97.94,233.67,97.86Z" transform="translate(-31.75 -97.39)"/><path class="cls-5" d="M34.2,106.89c7.36-10.34,20.14-12.63,28.05-5,.92.9,3.2,1.75,1.6,3.54-1.36,1.53-2.19-.43-3.1-1.15-9.41-7.49-18.21-4.24-20.54,7.55A20.5,20.5,0,0,0,42,125.31c3.79,7.5,12.44,8.54,18.77,2.62,1.17-1.11,1.7-4.78,4-2.72,2,1.74-.85,3.19-2.1,4.54a5.65,5.65,0,0,0-.74,1.77c-7.69,4.33-15.46,5.12-22.68-.66C31.15,124.39,31.62,115.78,34.2,106.89Z" transform="translate(-31.75 -97.39)"/><path class="cls-6" d="M151,98.94h19.33c-8.67,1-6.19,7.46-6.27,12.56q-.15,9.23,0,18.46c0,2.68-.7,4-3.69,4s-3.18-1.73-3.18-3.86c0-7-.17-14.07.1-21.1C157.47,104.12,157.64,99.72,151,98.94Z" transform="translate(-31.75 -97.39)"/><path class="cls-7" d="M125.67,101.85c9.42-.92,11.61,1.18,9.52,9.11-2.57,1.65-5.57,2.43-8.16,4h.07C124.19,110.88,126.31,106.21,125.67,101.85Z" transform="translate(-31.75 -97.39)"/><path class="cls-8" d="M109.56,174.62c4.6.08,9.23-.11,13.8.3s8.64,2.45,9.83,7.37c1.12,4.67-.2,8.68-4.75,11.17-1,.54-3,1-1.74,2.64,3.84,5,7.14,10.43,12,14.62.38.24.5.47.36.68s-.28.3-.41.3c-8.06,2.71-11.32-3-14.49-8.47-1.9-3.29-3.91-7.94-7.69-6.88s-1.13,6.07-1.73,9.28c-.49,2.63.41,4.67,4.54,5.9a55.79,55.79,0,0,1-14.81.21l0,0c1.93-6,1.76-12.2,1.77-18.39,0-2.38.22-4.74,1.92-6.65,1-4.42.44-8.39-4.29-11.52Z" transform="translate(-31.75 -97.39)"/><path class="cls-9" d="M44.64,212.05C33.7,208,29.15,197.8,33.21,186.45c3.51-9.81,14.56-13.92,25-11.11,7.31,1.95,9,5.27,6.92,11.82-2-.42-1.67-2.35-2.31-3.59C60.46,178.93,57,176,51.51,176s-8.89,3.31-11.12,7.95c-4.41,9.21-1.57,23.48,7,26.67C47.54,213.18,46,212.47,44.64,212.05Z" transform="translate(-31.75 -97.39)"/><path class="cls-10" d="M108.16,186.74c.09,6.27-.1,12.57.39,18.81.28,3.54-1.55,4.92-4.08,6.23l-1.3.34-.16-.21a8.46,8.46,0,0,1-6.19-6C95.21,200,90.32,195,91.9,188.25,97.42,188.82,102.77,187.53,108.16,186.74Z" transform="translate(-31.75 -97.39)"/><path class="cls-11" d="M91.9,188.25c3.33,8.06,5.1,16.85,11.11,23.66H90.39c5.52-4.9.19-9-.61-13.41a10.94,10.94,0,0,1-2.66-3.45c-1.66-3-2.7-6.32-4.23-9.41-.4-1-1-1.93-1.5-2.92.07-1.07.55-2.37.12-3.17-1.5-2.77,1-3.57,2.31-4.3,2.05-1.11,2.76.38,3.44,2.4C88.48,181.29,90.32,184.73,91.9,188.25Z" transform="translate(-31.75 -97.39)"/><path class="cls-11" d="M81.39,182.72c1.22,0,2.48-.08,3,1.37-2,2.94-1.71,6.59-3.71,9.67,3.09.83,5.52.38,7.84.9,1.29,1,1.19,2.44,1.21,3.84a66.85,66.85,0,0,1-7.77-.31c-5.29-.81-5.49,3.33-7.13,6.51-1.8,3.5-.46,5.37,3.34,6.94a23.79,23.79,0,0,1-10.61.11c4.53-3.08,5.13-8.34,7.09-12.83C77,193.57,79.17,188.13,81.39,182.72Z" transform="translate(-31.75 -97.39)"/><path class="cls-12" d="M184.78,274c2.51,6.62,1.51,12.75-2.63,18.42-1.88-.22-4.09,1.05-5.52-1.21-.44-4.45-4.35-8.37-2-13.23a1.2,1.2,0,0,1,1.61.19c1.88,2.73,1.57,6.33,3.6,9.3,4.84-3.69,1.08-9.25,3.29-13.3A1.29,1.29,0,0,1,184.78,274Z" transform="translate(-31.75 -97.39)"/><path class="cls-13" d="M65.67,211.75c-2.19-1.6-4.39-2.78-6.57,0l-2.3.27c-1.38.45-1.69-.16-1.38-1.39,5.27-1.71,7.34-6.3,10.25-10.72Z" transform="translate(-31.75 -97.39)"/><path class="cls-13" d="M55.42,210.65,56.8,212a13.07,13.07,0,0,1-12.16,0c1-.38,2.21-.18,2.71-1.43Z" transform="translate(-31.75 -97.39)"/><path class="cls-14" d="M304,211.93c-5.55-.13-8.3-4.3-11.39-8-4.84,8.38-4.84,8.31-15.81,8.08-5.93-.12-11.87,0-17.8,0,4.11-3.31,5.86-7.41,2.27-11.82-1.44-1.77.23-1.2.43-1.77,2.34-6.53.92-13.25.76-19.89,0-1.61-1.92-2.11-3.24-2.8-.08,0-.09-.48,0-.53a9.72,9.72,0,0,1,1.16-.59H272.2c-5.42,4.06-3.8,10-3.94,15.36a61.91,61.91,0,0,0,.07,9.24c.59,4.67-3.32,11.89,6.62,11.58,9.4-.29,16-5.48,15.8-13.68-.29-9.48,1.41-17.59,11.56-21.25,1.33-.48,1.86.24,2.09,1.4-1.52,4.49-5,8-5.32,13.21-.44,7.33,1.07,13.82,5.54,19.62A2.18,2.18,0,0,1,304,211.93Z" transform="translate(-31.75 -97.39)"/><path class="cls-15" d="M226.18,211.51c1.94-1.15,4.4-1.54,4.3-4.82-.31-9.31-.34-18.62-.48-27.94-1.16-.91-2.81-.9-3.89-2a1.22,1.22,0,0,1-.38-1c0-.37.11-.56.2-.56l27.77-.33a24.77,24.77,0,0,1,2.45,9.84c-4.42-5.54-8.57-9.37-15.45-8.65-3.37.35-4.86,1.06-4.42,4.55.19,1.51-.19,3.12.09,4.61.44,2.34-1.72,5.84,1.75,6.81s7.12.55,8.86-3.64a14.38,14.38,0,0,1,1.75-2.14v14.9c-1.44-2.27-2.17-4.08-3.46-5.31-2.12-2-5.07-1.71-7.52-1s-1.6,3.48-1.32,5.13c.61,3.56-2.63,8.89,2.45,10.37s11.06,1.36,14.87-4.14c.84-1.2,1.88-2.27,3.11-3.74.64,9.09,0,10.05-7.63,9.62S233.83,213,226.18,211.51Z" transform="translate(-31.75 -97.39)"/><path class="cls-16" d="M304,211.93v-1.36c.16-.15.3-.39.49-.43,15.92-3.39,20.78-16,11.38-29.55a7.07,7.07,0,0,1-1.72-3.48c.61-1.72,1.68-1.91,3.11-1,8.28,4.18,11.86,10.41,10.89,19.61-.38,3.6.06,7.59-3.22,10.35C318.92,211.71,312.29,214.87,304,211.93Z" transform="translate(-31.75 -97.39)"/><path class="cls-17" d="M209.43,237.28a33.79,33.79,0,0,0-.4,11.61c-.26,3.46-.51,6.92-.77,10.39-1,.84-.34,2.86-2.23,3-2.69-7.69-.27-15.32.39-23C206.53,238.1,208,237.31,209.43,237.28Z" transform="translate(-31.75 -97.39)"/><path class="cls-14" d="M317.21,176.14l-2.6,1.13a14.74,14.74,0,0,1-10.72.06l-1.58-1.45C307.32,173.52,312.3,172.74,317.21,176.14Z" transform="translate(-31.75 -97.39)"/><path class="cls-18" d="M178.35,211.79c3.59-1.54,4.8-4,4.57-8.1-.41-7.22-.11-14.49-.06-21.74,0-2.62.08-5.19-3.36-6.39,6.33-2.09,9.8-.43,12.12,5.51,3,7.74,7,15.07,10.63,22.58.86.91,3.75,1.24,3.72,2.86-1.61,1.85-2.48,3.59-4.71,5.29a11.91,11.91,0,0,1-6.55-5.86c-3.21-6.68-6.24-13.45-9.05-19.43,2,2.33,1,5.92,1.17,9.27.31,4.73-1,9.7,2.67,13.86,1.41,1.6.79,3-1.48,2.85C184.8,212.27,181.47,213.34,178.35,211.79Z" transform="translate(-31.75 -97.39)"/><path class="cls-19" d="M178.35,211.79h10.54c-4.56-3.34-4.83-5.41-3.63-29.9l14.32,29.94c-3.4,3.07-6.88,4.78-11.43,1.91C185.25,211.91,181.18,214.73,178.35,211.79Z" transform="translate(-31.75 -97.39)"/><path class="cls-16" d="M154.41,183.94c1-3.37.12-7.64,5-9.35,6.3,11.85,8.69,25.66,16.51,37.24H163.65c5.32-4.33.41-8.63,0-12.93-.63-1.07-2-1.43-2.58-2.5a65.57,65.57,0,0,1-4.23-10.28c-.47-1.62-1.14-.12-1.66-.35C154.3,185.42,153.78,184.92,154.41,183.94Z" transform="translate(-31.75 -97.39)"/><path class="cls-19" d="M151.87,230.16c1.32-6.36,6.92-10.36,14-8.71,5,1.17,9.29.36,14-.9,4.2-1.13,9.15-2.64,11.72,3.21-3.36,3-7.72,1.21-11.52,2.37-2.87.87-5.8,1.26-8.14,3.34a7.91,7.91,0,0,1-1.46,1.43,7,7,0,0,1-2,.95C162.9,231.77,157.07,234.07,151.87,230.16Z" transform="translate(-31.75 -97.39)"/><path class="cls-11" d="M225.93,175.16v.66c-.27,1.53-1.11,2.25-2.71,2s-2.53,0-2.53,1.81c0,9.19.12,18.38-.1,27.56-.06,2.58,1.91,3.07,3.5,4.66h-14c.28-1.43,1.67-1.09,2.53-1.6a4,4,0,0,0,.74-2c.28-9.38-.08-18.76.14-28.14C215.07,171.94,221.2,175.33,225.93,175.16Z" transform="translate(-31.75 -97.39)"/><path class="cls-20" d="M170.33,227.51a39.5,39.5,0,0,1,21.24-3.75h4c-.1,2.13-2,4.27,0,6.39a7.18,7.18,0,0,0-.55,6.26,7.53,7.53,0,0,1-1,6.86,4.43,4.43,0,0,1-1.53,1.18c-3,.83-5.11-.72-7.08-2.67-1.56-2.18-.69-4.41-.15-6.64,1.86-3.85,1.59-5.93-3.63-5.73C177.8,229.56,173.58,230.88,170.33,227.51Z" transform="translate(-31.75 -97.39)"/><path class="cls-19" d="M213.85,210.23l-.6.06-.6-.09c-1.54-2.48-3.65-3.92-6.68-3.69-1.14-.76-2.13-1.66-1.7-3.19,1.66-5.91,4.76-11.2,7.42-16.67.38-.79,1.56-.37,2.36.06C214.93,194.56,215.37,202.41,213.85,210.23Z" transform="translate(-31.75 -97.39)"/><path class="cls-16" d="M162.22,195.71l1.44,3.19c-2.62-.2-5.27-.18-7.85-.63-4.77-.85-5.84,2.39-7.2,5.78s-1.74,6.09,3.31,7.39c-5.16,1.72-9.23.11-13.32.26a2.93,2.93,0,0,1,.05-1c11.11-5.49,10-18.15,15.76-26.78l1,1.41c.46.18.93.56.8.89C153.68,192.29,156.77,194.75,162.22,195.71Z" transform="translate(-31.75 -97.39)"/><path class="cls-21" d="M175.84,278h-1.2c0-1.46,1.43-2.77.25-4.73-.67,1.18-1.24,2.16-1.79,3.16-5.39,9.87-5.39,9.87-13.64,2a1.77,1.77,0,0,1,1.19-1.19c1.93-.3,3.48.6,5,1.56,5.23-1.49,5.87-5.22,4.78-9.78-.61-1.53-1.35-3.07.4-4.39C179.89,267.91,181.7,272.78,175.84,278Z" transform="translate(-31.75 -97.39)"/><path class="cls-22" d="M151.87,230.16l18.58.26.24.86c-.95,2.18-1.59,4.65-4.63,4.85a11.41,11.41,0,0,1-2.74-.89c-5.43-1-11,.68-16.41-1.22a3.57,3.57,0,0,1-1.89-2.51C147,229.6,149.62,230.78,151.87,230.16Z" transform="translate(-31.75 -97.39)"/><path class="cls-23" d="M159.46,278.4c-3.6-1.56-1.72-3.34,0-4.78,3.34-2.84,2.68-4.41-1.09-6.24a10.35,10.35,0,0,1-6.18-9.29,2.08,2.08,0,0,1,1.69-.46c1.54.59,2.18,2,3,3.27,2.65,4.17,6.33,4.65,10.63,3a3.48,3.48,0,0,1,1.71.57c-.77,5.84-5.22,9.17-8.87,13.05C160,277.82,159.73,278.1,159.46,278.4Z" transform="translate(-31.75 -97.39)"/><path class="cls-11" d="M213.48,183c.51.43.06,3.28.57,3.71-2.11,4.55-4.17,10.43-6.53,14.85a14.57,14.57,0,0,0-1.56,4.95c-.46,0-1.11.33-1.38.06a3.68,3.68,0,0,1-2.33-2.92C205.2,197.56,210.54,189.09,213.48,183Z" transform="translate(-31.75 -97.39)"/><path class="cls-24" d="M145,231.51l1.5,1.25c1.35,3.24,7.81,1.4,6.89,6.92a1.13,1.13,0,0,1-1.6,0c-1.55-.52-3.27-3.33-4.26-1.89-2.53,3.66-4.66,2.81-6.11-.14C139.89,234.52,141.72,232.33,145,231.51Z" transform="translate(-31.75 -97.39)"/><path class="cls-25" d="M151.81,239.66a7.71,7.71,0,0,0,1.18.06c3.58,6.14,3.25,12.29.08,18.45a2.54,2.54,0,0,0-.91-.08Q152,248.88,151.81,239.66Z" transform="translate(-31.75 -97.39)"/><path class="cls-26" d="M313.46,134.9c-3.41.14-6.69-1-10.29,0-1.87.49-6,.13-5.82-4.17q.09-13.88.19-27.75c0-2.43-.43-4.91,3.45-4.87s3.45,2.52,3.45,5c0,7.49.19,15-.11,22.47-.16,4,1.15,5.16,5.18,5.4,2.9.16,7.17-3,8.88,2.29C317.1,134.8,315.22,134.69,313.46,134.9Z" transform="translate(-31.75 -97.39)"/><path class="cls-27" d="M285.16,134.39l-3.09.08-17.28-.39q-.32-3-.62-6c-2.68-6.64-3-13.26.11-19.87V100.3c.87-3.15,3.49-2.15,5.46-2.08,5.24.19,10.62-.85,17,.89-4.28,3.16-7.87,2-11.12,2-5-.1-4.34,3.19-4.22,6.19s-1.37,7,4.27,6.82c2.85-.07,6.05-1,8.82,1.22-1.9,2.82-4.64,1.91-6.72,1.66-6.09-.74-6.49,2.43-6.6,7.33-.11,5.37,1.38,7.76,7,6.94a21.56,21.56,0,0,1,5.89.16C286,131.64,285.56,133.09,285.16,134.39Z" transform="translate(-31.75 -97.39)"/><path class="cls-2" d="M251.52,126.69v1.38c-.7,2.34,1.1,6.12-3.78,6-5.06-.11-3.19-3.85-3.25-6.21-.19-8.1-.08-16.2,0-24.3,0-2.48-.84-5.45,3.49-5.47,4.58,0,3.05,3.23,3.31,5.53.17,1.52.16,3.06.24,4.58l.25,15.9A3,3,0,0,1,251.52,126.69Z" transform="translate(-31.75 -97.39)"/><path class="cls-28" d="M127,115c2-2.76,4.38-4.82,8.16-4C133.78,115,130.5,115.17,127,115Z" transform="translate(-31.75 -97.39)"/><path class="cls-29" d="M100.65,115.88a30.18,30.18,0,0,1-1.51,8.47c-1.43,4.5-3.92,7.89-9.23,7.79-5-.09-7.4-3.42-8.71-7.61a28.17,28.17,0,0,1,0-16.83c1.29-4.22,3.82-7.4,8.81-7.46s7.5,3.21,8.93,7.33C99.9,110.22,100.12,113.1,100.65,115.88Z" transform="translate(-31.75 -97.39)"/><path class="cls-30" d="M209.43,237.28c-2.19,1-2.32,3-2.23,5A96.83,96.83,0,0,1,206,262.3q-1.62,1.88-3.25,3.74c-2.51.84-4.49,2.91-7.26,3.16a5.24,5.24,0,0,1-2.45-1.71c-3.37-6.8-3-7.88,3.65-10.31,3.94-1.44,6-4.21,6.08-8.4,0-2.28,0-4.55,0-6.82a67.28,67.28,0,0,1,0,7.38,8.15,8.15,0,0,1-6,7.75c-1.71.56-3.53.87-4.57-1.17-.87-1.72-.88-4.18.62-4.8,5.88-2.46,4.6-7.41,4.87-11.92-.06,2.09-.18,4.18-.19,6.28a3.87,3.87,0,0,1-3.45,4.11,2.49,2.49,0,0,1-2.84-1.15c-1.23-2.22-.14-3.72,1.76-4.87l-.08.08c2.26-2.32,2.34-5,1.48-7.93-.47-1.58-.45-3.62,1.5-3.6,7.68,0,15.68-2.63,22.89,2.28-.16,3.07-.37,6.09-4.49,2.8C212.59,235.9,211,236.4,209.43,237.28Z" transform="translate(-31.75 -97.39)"/><path class="cls-31" d="M184.78,274l-1.34,0c-3.29-1-2.27-3-.92-4.76a10.11,10.11,0,0,1,5.11-3.62,2.79,2.79,0,0,1,1.85.39c1.74,1.86,3.59,3.69,2.41,6.61-.41.71-2.48-.08-1.68,1.7,1.14,2.52,2.5,4.9,4.9,6.48a2.37,2.37,0,0,1,.76,1.57c-2.17,3.19-3.9,3.49-5.85-.39C188.61,279.22,188.2,275.59,184.78,274Z" transform="translate(-31.75 -97.39)"/><path class="cls-32" d="M195.28,267.92l7.5-1.88c-2.92,2.45-6.06,4.78-1.11,8.37,2.06,1.5.94,3-.62,4.14l-5.18,3.89a4.28,4.28,0,0,0-.69-.78,3,3,0,0,1-.2-3.48c1.69-1.28,2.78-2.6,1.31-4.85C195.26,271.74,194.1,270,195.28,267.92Z" transform="translate(-31.75 -97.39)"/><path class="cls-33" d="M203.9,269c2.94.32,4.8-2.09,7.07-.14.22.19,0,1.46-.38,1.72C208.38,272.09,206.49,271.14,203.9,269Z" transform="translate(-31.75 -97.39)"/><path class="cls-34" d="M114.22,185.27c2.15-2.91-3-8.78,4.38-9.06a8.35,8.35,0,0,1,8.81,8.61c0,5.41-3.55,8.93-9.29,8.75C111.07,193.34,116.65,187.65,114.22,185.27Z" transform="translate(-31.75 -97.39)"/><path class="cls-35" d="M88.57,194.66c-3,2.78-6.38,1.08-10.25,1.18,2.39-4.17,1.31-9.38,6.12-11.75Q86.51,189.39,88.57,194.66Z" transform="translate(-31.75 -97.39)"/><path class="cls-36" d="M188.53,265.78c-1.42,2.93-8.1,2.64-5.09,8.29,0,4.19,2,8.4-.15,12.59-.8,1.54-1.25,3.84-3,3.93s-2.69-1.95-3.07-3.7c-.64-2.92-1.95-5.75-1.38-8.87,4.95-7.23-1-9.95-5.49-13.3l-.75-.73c-4.08-7.21-3.17-14,1.62-20.52,1.9-2.28,3.05-4.72,2.21-7.83-.4-1.5-.31-3.17,1.22-4.11s3-.05,4,1.19c3.44,4.31,3.84-3.41,6.62-1.63,2.68,1.34,1.56,3.38,1,5.32l-.45,4.47C194,250,194.9,258.38,188.53,265.78Z" transform="translate(-31.75 -97.39)"/><path class="cls-37" d="M218.71,234.4c-7.75-2.65-15.65-1-23.37-1.37-1.07,3.83,3.25,8.4-2.5,10.62,1.52-3.2.92-6.38-.21-9.49-1-2.87,0-4.1,2.9-4,5.2.08,10.41.2,15.62.23C214.4,230.41,217.16,231.22,218.71,234.4Z" transform="translate(-31.75 -97.39)"/><path class="cls-38" d="M303.89,177.33a13.37,13.37,0,0,1,10.72-.06c7.49,6.73,9.65,15.81,5.92,24.94-3.23,7.91-8.28,10.45-16.58,8.36C294.12,201.06,294.1,187,303.89,177.33Z" transform="translate(-31.75 -97.39)"/><path class="cls-39" d="M162.22,195.71c-10.52,1-10.52,1-6.82-10.36.72-.34.59-3.68,2.09-.9C159.42,188,160.68,191.94,162.22,195.71Z" transform="translate(-31.75 -97.39)"/><path class="cls-22" d="M183.62,231.71c-1.51,1.41,1.19,4.75-2.34,5.19-2.65.34-4.09-.66-3.94-3.6a1.41,1.41,0,0,0-1.93-1.17c-1.19.34-.93,1.47-.66,2.14,1.44,3.53,1.48,6.73-1.67,9.42a3.6,3.6,0,0,1-1.24-1.57c-1-3.86-.62-7.9-1.46-11.79l.07.09,0-1.37c1.37-1.13,3-.45,4.47-.61,2.49,0,4.49,2.27,7.15,1.56A2.12,2.12,0,0,1,183.62,231.71Z" transform="translate(-31.75 -97.39)"/><path class="cls-40" d="M176,229.32l-5.6-.27-.09-1.54h19.44a24.7,24.7,0,0,1-3.54,8.9c-.91-1.55,1.6-5-2.61-4.7l-1.23-1.2c.39-.62,1-.64,1.67-.76s.74-.24.36-.12a5.94,5.94,0,0,1-1.28.09A19.18,19.18,0,0,1,176,229.32Z" transform="translate(-31.75 -97.39)"/><path class="cls-41" d="M188.53,265.78c5.72-9,2.61-17.09-2.75-24.9,2.6.31,3.93,4,7.14,2.69.2,1.72-3.43,4.18.6,5,2.44.52,3.17-1.75,3.27-3.91.13-3-.22-6.09,2.14-8.74-.06,7.14-.5,8.37-5.3,15.52a3.93,3.93,0,0,0-.17,4.35c1.08,1.69,2.71.81,4,.07,3.15-1.75,4.52-4.4,4.63-8.07.1-3.35-1-6.94,1.49-10.75,0,4.62,0,8.51,0,12.4s-2,7.29-5.53,8c-7.48,1.6-6.63,5.22-3.36,10-2,1.09-3.63-.29-5.34-1C189.12,266.29,188.83,266,188.53,265.78Z" transform="translate(-31.75 -97.39)"/><path class="cls-42" d="M160.3,277.55c.88-5.82,6.36-8.25,9.27-12.57.15-.65.45-.69.87-.21l-.09,0c.34,1.39.67,2.78,1,4.17-.27,4.75-3,8-6.45,10.89Z" transform="translate(-31.75 -97.39)"/><path class="cls-43" d="M164.9,279.78c1-4.33,4.17-7.33,6.45-10.89,1.54.45,3,.92,1.92,3.05-1.56,3.05-2.8,6.31-4.7,9.13C166.44,284.22,165.67,281.56,164.9,279.78Z" transform="translate(-31.75 -97.39)"/><path class="cls-30" d="M153.07,258.17q0-9.23-.08-18.45c-1.87-5.39-5.8-4.45-9.77-2.45-.58-3.44,1.52-3.84,3.3-4.51,6.26,1.33,12.92-1.56,19,1.79,1.64,3.09,1.12,6.89,3.55,9.82,1.58,1.9.45,3.92-1.6,4.84s-3.35-.54-4.15-2.22a12.81,12.81,0,0,1-1-5.43c.17,2.62-.05,6.57,4.63,8.8,2.21,1,1.52,3.46.64,5.3-1.19,2.48-3.27,1.9-5.09,1-2.65-1.34-4.77-3.2-4.6-6.59.14-2.83-.25-5.67,0-6.94a35,35,0,0,1,0,4.57c-.55,5.24,1.67,8.54,6.74,9.7,4.63,1.06,4.57,3.84,3.11,7.35-3.83,4.62-7.34,2.55-10.5-.72A43.94,43.94,0,0,1,153.07,258.17Z" transform="translate(-31.75 -97.39)"/><path class="cls-44" d="M167.64,264.72c.63-3.5,0-5.73-4.22-6.6-4.63-1-6.89-4.38-6.57-9.29a46.35,46.35,0,0,0-.29-11c2.67,2.92,1.67,6.6,1.81,9.95.15,3.57,1,6.46,4.48,8.1,1.21.57,2.58,1.32,3.51,0s1.78-3.53.26-4.17c-7.39-3.13-4.05-10.24-6.12-15.28,3.32,1.83,2.59,5.24,3.13,8.11.32,1.76.3,3.58,2.5,4.14a1.86,1.86,0,0,0,2.18-1.06c1.12-2.12-1.16-2.47-2-3.54-2.34-3-1.38-6.25-.81-9.47l1.1,1.36c1.68,2.3,2.16,5.9,6.18,5.63.1.71.19,1.43.29,2.15-5.4,6.46-4.65,13.69-2.64,21.08l-.39.29-.48-.08Z" transform="translate(-31.75 -97.39)"/><path class="cls-45" d="M172.79,241.54c-5.49,3.23-6,2.72-6.18-5.63l3.77-5.58A12.68,12.68,0,0,1,172.79,241.54Z" transform="translate(-31.75 -97.39)"/><path class="cls-46" d="M189.39,266.56c2.29-2.4,3.36,1.73,5.34,1a.7.7,0,0,1,.55.37c-.21,2.53,1.91,3.73,3.07,5.49.73,1.11,2.82,1.69,1.51,3.71s-2.78,1.45-4.41.71c-2.49-.67-3.74-2.18-3.33-4.84C192,270.52,189,269.27,189.39,266.56Z" transform="translate(-31.75 -97.39)"/><path class="cls-47" d="M192.12,273l3.33,4.84-.27,3.83c-4,1.46-4-2.14-5.19-4.13-1.28-2.19-2.34-4.51-3.57-6.92C189.59,269.36,189.76,273.52,192.12,273Z" transform="translate(-31.75 -97.39)"/><path class="cls-48" d="M186.46,251.51c2.63,2.05-2.62,3.57-.38,5.6-2.39,1.81-3.75,5.72-7.93,3.91-.78-1.42-.33-2.93-.32-4.4-.18-3.58-2.7-7.57,1.77-10.34a1.12,1.12,0,0,1,.72-.1c1.36.83,3,2.41,2.88,3.38C182.58,253.57,185.21,251.23,186.46,251.51Z" transform="translate(-31.75 -97.39)"/><path class="cls-49" d="M178.37,260.71l2.54-.07c-.81-4.9,3-3,5.17-3.53a7.66,7.66,0,0,0-.45,2.51c.88,5-.78,5.73-4.79,3-.62-.42-1.63-.26-2.46-.36A1.28,1.28,0,0,1,178.37,260.71Z" transform="translate(-31.75 -97.39)"/><path class="cls-50" d="M179.6,246.28c-3.7,3.51,1.18,7.09-.09,10.62-1.88,1.22-3,.39-3.82-1.39C172,250.3,176.1,248.43,179.6,246.28Z" transform="translate(-31.75 -97.39)"/><path class="cls-51" d="M175.69,255.51l3.82,1.39c.87,1.65-.62,2.58-1.14,3.81v1.56a3.14,3.14,0,0,1-2.9,2.18c-1.76-.17-1.36-2-1.16-3.1C174.68,259.39,173.12,256.94,175.69,255.51Z" transform="translate(-31.75 -97.39)"/><path class="cls-52" d="M186.46,251.51c.15,2.38-3.39.38-3.27,2.77.06,1.27-.82,1.4-1.6.91a2.09,2.09,0,0,1-.53-1.65c4-2.91-.19-5-.74-7.36C183.77,246.34,184.26,249.92,186.46,251.51Z" transform="translate(-31.75 -97.39)"/><path class="cls-53" d="M306.21,188.1c3.32-2.87,6.51-1.79,9.06.88,2.28,2.39,3.4,5.38.56,8.36-1.37,1.86,0-5-2.28-.69-1.16,2.24-3.47,1.24-5.29,1.27-2.2,0-2.78-1.71-3.12-3.5C304.71,192.19,305.53,190.15,306.21,188.1Z" transform="translate(-31.75 -97.39)"/><path class="cls-54" d="M306.21,188.1a18,18,0,0,0,.72,4.46c.58,1.35-2.23,4.27,2.2,4.11,3.21-.11,3.53-1.63,3.64-3.91a30.64,30.64,0,0,0-.18-3.21c4,1.63,2.72,5.09,3.24,7.79l.08-.05c-2.33,4-6,4.37-9.54,2.56-4.05-2.08-3.58-6-2.38-9.7Z" transform="translate(-31.75 -97.39)"/><path class="cls-55" d="M304,190.15c.18,3.38-1,7.24,3,9.37,3.62,1.93,6.15-.73,9-2.23-1.44,6-6.29,4.94-9.66,3.48C301.56,198.74,301,194.5,304,190.15Z" transform="translate(-31.75 -97.39)"/><path class="cls-56" d="M176,229.32h10.37c-.94,2.08-2.77.55-4,1.19C179.06,236.55,178.39,228.44,176,229.32Z" transform="translate(-31.75 -97.39)"/></svg>