<?xml version="1.0" encoding="utf-8"?>
<!-- Generator: Adobe Illustrator 22.0.1, SVG Export Plug-In . SVG Version: 6.00 Build 0)  -->
<svg version="1.1" id="Layer_1" xmlns="http://www.w3.org/2000/svg" xmlns:xlink="http://www.w3.org/1999/xlink" x="0px" y="0px"
	 viewBox="0 0 360 490" style="enable-background:new 0 0 360 490;" xml:space="preserve">
<style type="text/css">
	.st0{display:none;}
	.st1{fill:#231F20;}
	.st2{display:none;fill:#FCFCFC;}
	.st3{display:none;fill:#6E1515;}
	.st4{display:none;fill:#6D1414;}
	.st5{display:none;fill:#6E1414;}
	.st6{display:none;fill:#701717;}
	.st7{display:none;fill:#701818;}
	.st8{display:none;fill:#711919;}
	.st9{display:none;fill:#833838;}
	.st10{display:none;fill:#6F1616;}
	.st11{display:none;fill:#924F4F;}
	.st12{display:none;fill:#FEFEFE;}
	.st13{display:none;fill:#7A2929;}
	.st14{display:none;fill:#F6F2F2;}
	.st15{display:none;fill:#F9F6F6;}
	.st16{display:none;fill:#F5F0F0;}
	.st17{display:none;fill:#EEE4E4;}
	.st18{display:none;fill:#F9F5F5;}
	.st19{display:none;fill:#EBDFDF;}
	.st20{display:none;fill:#CCADAD;}
	.st21{display:none;fill:#0B0B0B;}
	.st22{display:none;fill:#0A0A0A;}
	.st23{display:none;fill:#FDFDFD;}
	.st24{display:none;fill:#E9E9E9;}
	.st25{display:none;fill:#FBFBFB;}
	.st26{display:none;fill:#FAFAFA;}
	.st27{display:none;fill:#C2A221;}
	.st28{display:none;fill:#EFEEEA;}
	.st29{display:none;fill:#F0EFEA;}
	.st30{display:inline;fill:#B5962B;}
	.st31{display:inline;fill:#B49629;}
	.st32{display:inline;fill:#010101;}
	.st33{display:inline;fill:#020202;}
	.st34{display:inline;fill:#030303;}
	.st35{display:inline;fill:#B7A859;}
	.st36{display:inline;fill:#B6A557;}
	.st37{display:inline;fill:#B8A555;}
	.st38{display:inline;fill:#FFFFFF;}
	.st39{display:inline;fill:#242021;}
	.st40{display:inline;fill:#262223;}
	.st41{display:inline;fill:#2A2728;}
	.st42{display:inline;fill:#E3E2E3;}
	.st43{display:inline;fill:#FBFBFB;}
	.st44{display:inline;fill:#F8F8F8;}
	.st45{display:inline;fill:#3B3B3D;}
	.st46{display:inline;fill:#3A3A3C;}
	.st47{display:inline;fill:#3C3C3E;}
	.st48{display:inline;fill:#404042;}
	.st49{display:inline;fill:#FDFDFD;}
	.st50{display:inline;fill:#FCFCFC;}
	.st51{display:inline;fill:#FEFEFE;}
	.st52{fill:#9E1D14;}
	.st53{fill:#9E1E15;}
	.st54{fill:#A0261C;}
	.st55{fill:#A22B22;}
	.st56{fill:#9E1F16;}
	.st57{fill:#9D1C12;}
	.st58{fill:#DAD1CA;}
	.st59{fill:#0B4771;}
	.st60{fill:#0E4B73;}
	.st61{fill:#FFFFFF;}
	.st62{fill:#0B4871;}
	.st63{fill:#4F748C;}
	.st64{fill:#1D5277;}
	.st65{fill:#094770;}
	.st66{fill:#104C74;}
	.st67{fill:#0A4771;}
	.st68{fill:#547B91;}
	.st69{fill:#0E4A73;}
	.st70{fill:#567A8F;}
	.st71{fill:#7893A4;}
	.st72{fill:#53758B;}
	.st73{fill:#5D7B8C;}
	.st74{fill:#25587E;}
	.st75{fill:#9F2016;}
	.st76{fill:#9F2117;}
	.st77{fill:#D7D0CB;}
	.st78{fill:#DED7D2;}
	.st79{fill:#E3DEDA;}
	.st80{fill:#547891;}
	.st81{fill:#4C6F85;}
	.st82{fill:#E0D9D3;}
	.st83{fill:#E5E1E0;}
	.st84{fill:#E2DEDA;}
	.st85{fill:#6F8B9F;}
	.st86{fill:#DADBDB;}
	.st87{fill:#3F6883;}
	.st88{fill:#4C718A;}
	.st89{fill:#DCDADB;}
	.st90{fill:#DBDADB;}
	.st91{fill:#5D7D93;}
	.st92{fill:#E6E1DE;}
	.st93{fill:#DAD9D9;}
	.st94{fill:#DFDEDB;}
	.st95{fill:#C3CBD2;}
	.st96{fill:#305F81;}
	.st97{fill:#67869C;}
	.st98{fill:#32607E;}
	.st99{fill:#517287;}
	.st100{fill:#4E748C;}
	.st101{fill:#CED2D4;}
	.st102{fill:#496C83;}
	.st103{fill:#CBCECF;}
</style>
<g class="st0">
	<path class="st1" d="M194.7,220.9l-5-13.2h-19.1l-13.3,34.8h-4.5l24.9-64.3h5.1l16.5,42.6L194.7,220.9z M182.9,189.3
		c-0.3-0.9-0.7-1.7-1-2.6l-0.8-2.3c-0.2-0.7-0.4-1.3-0.6-1.7c-0.1-0.3-0.2-0.5-0.3-0.8c-0.1,0.3-0.1,0.6-0.2,0.8
		c-0.1,0.5-0.3,1-0.6,1.8l-0.8,2.3c-0.3,0.8-0.6,1.7-1,2.5l-5.7,15h16.6L182.9,189.3z M192.7,186.8v-3.7h22.4v42.6h-4.3v-18.1h-69.5
		V204h69.5v-17.3L192.7,186.8z M33.9,329l-5.1-13.3H9.6l-5,13.2H0L16.7,286h5.2l16.7,42.9L33.9,329z M21.9,297
		c-0.3-0.9-0.7-1.7-1-2.6l-0.8-2.4c-0.2-0.7-0.4-1.3-0.6-1.7c-0.1-0.3-0.2-0.5-0.3-0.8c0,0.1-0.1,0.4-0.2,0.9
		c-0.1,0.5-0.3,1-0.6,1.8l-0.8,2.3c-0.3,0.8-0.6,1.7-1,2.5L10.9,312h16.7L21.9,297z M76.3,328.9l-28-37.7l0.1,2.7
		c0,0.8,0,1.6,0.1,2.5c0.1,0.9,0,1.8,0,2.6v29.9h-4V286h5l28.2,37.9c0-0.9-0.1-1.7-0.1-2.6c-0.1-0.9-0.1-1.7-0.1-2.7s0-2,0-3V286h4
		v42.9L76.3,328.9z M123,328.9l-28-37.7l0.1,2.7c0,0.8,0,1.6,0,2.5c0,0.9,0,1.8,0,2.6v29.9h-3.9V286h5l28.2,37.9
		c0-0.9,0-1.7-0.1-2.6c-0.1-0.9-0.1-1.7-0.1-2.7c0-1,0-2,0-3V286h4v42.9L123,328.9z M168.4,328.9l-5-13.3h-19.3l-5,13.3h-4.6
		l16.7-42.9h5.2l16.7,42.9L168.4,328.9z M156.4,297c-0.3-0.9-0.7-1.7-1-2.6c-0.3-0.9-0.6-1.7-0.8-2.4s-0.4-1.3-0.6-1.7
		c-0.1-0.3-0.2-0.5-0.3-0.8c0,0.1-0.1,0.4-0.3,0.9s-0.3,1-0.6,1.8c-0.2,0.7-0.5,1.5-0.8,2.3c-0.3,0.8-0.6,1.7-1,2.5l-5.7,15.1h16.8
		L156.4,297z M201.3,289.6V307h21.4v3.7h-21.4v18.2H197V286h26.6v3.7H201.3z M235.6,328.9V286h4.4v42.9L235.6,328.9z M252,328.9V286
		h28.3v3.6h-23.9V305h22.1v3.5h-22.1v16.7h25.2v3.6H252z M290.3,328.9V286h4.4v39.2h21v3.7L290.3,328.9z M360,307
		c0.1,3.2-0.5,6.4-1.6,9.5c-1,2.6-2.5,4.9-4.4,6.9c-1.9,1.9-4.1,3.3-6.6,4.2c-2.6,0.9-5.4,1.4-8.2,1.4h-15.6V286h13.7
		c3.1,0,6.2,0.4,9.2,1.2c2.6,0.7,5.1,2,7.2,3.8c2.1,1.8,3.7,4,4.7,6.5C359.5,300.5,360.1,303.7,360,307L360,307z M355.5,307
		c0.1-2.7-0.4-5.4-1.3-7.9c-0.8-2.1-2.1-3.9-3.8-5.4c-1.7-1.4-3.7-2.5-5.8-3c-2.4-0.7-4.9-1-7.5-1h-9.2v35.5h10.6
		c2.3,0,4.6-0.4,6.8-1.2c2-0.7,3.9-1.9,5.4-3.5c1.6-1.6,2.8-3.6,3.5-5.7C355.1,312.3,355.6,309.6,355.5,307L355.5,307z"/>
</g>
<path class="st2" d="M155,251.2c6.8,0.9,6.5,6.6,6.1,10.9c-0.2,4.3-4.3,3.4-7.8,4c-6.9,1.1-13.6-0.8-20.6,0.2
	c-8.2,1.2-16.8-2.4-22.8-9.3c-1.5-1.7-3.2-3.6-5.4-2.7c-3.1,1.2-0.3,3.7-0.3,5.5c0.2,3.7-1.1,5.2-5.1,5.8
	c-9.2,1.2-18.3,0.9-27.5,1.4c-13.5,0.7-27-0.8-40.4,0.6c-8.6,0.8-17.4-1.7-26.4-0.8c-3.7,0.3-5-2.2-4.6-5.4c0.5-3.9,1-7.7,3.2-11.1
	c1.5-2.4,3.4-4.5,3.3-7.6c0-4.4,2.9-4.6,6.2-4.5c1.5,4.1-1.6,7.1-2.5,10.6c-1.4,2.6-2.7,5.3-4.3,7.9c-0.7,1-1.6,2.4,0.3,3.1
	c1.2,0.3,2.7,0.2,2.5-1.7c-0.3-3.9,1.5-6.2,5.2-6.8c3.7-0.6,7.2,0.5,9.1,4.4c0.3,1.8,0.1,3.9,2.9,4.2c12.1,1.2,24.4-0.1,36.5-0.2
	c3.9,0,4.4-3.2,1.6-8.2c-3.6-1.8-6.5-3.7-2.5-8.2c2.6-2.9,0.2-3.9-2.3-4.6c-1.2,2.3,0,4.5-0.8,6.6c-2,5.5,1,6.5,5.4,6.2
	c1.1,2.2,0,4-1.1,5.7c-0.7,0.8-1.6,1.5-2.7,1.8c-3.3,0.7-6.6,1-9.6-0.7c-3.3-7.9-1.4-16.1-1.4-24.2c0-1.4,1.6-3.1-0.6-4
	c-1.6-0.7-3.4-0.8-5.1-0.1c-2,0.9-0.5,2.6-0.5,4c0,7.8,0.9,15.5-0.6,23.3c-4.5,4.5-8.7,5.2-11,0.7c-4.1-8.2-9.2-16-10.3-25.4
	c0.8-2,2.8-1.5,4.3-2.2c-1.4-0.1-2.4,0.6-3.6,0.7c-4.4-1.5-5.3,3.1-8,4.5c-0.8-2.2-1.6-4.4-2.5-6.6c-2-4.5-0.8-9.9,3.1-12.9
	c2.6-2.2,7.1-5.2,11-0.1c1.4,1.8,2.7,0.1,3.1-1.5c1.2-6.1,3.4-3.5,5.5-0.6c0.3,0.6,0.7,1.1,1.1,1.6c1.6,1.1,1.9,4.1,4,3.7
	c2-0.3,2.3-2.8,2.5-4.8c0.2-1.2,0.6-2.8,2.2-2.6c1.5,0.2,1.6,1.8,1.7,3.2c0.1,6.5,2.7,6.3,7.2,3.2c2.6-1.9,9.4,4.4,9.6,8.9
	c0.1,1.5-1.6,4,1.4,4c1.9,0,1.2-2.4,1.4-3.9c0-2.8,0.3-5.7-1.1-8.3c-1.7-2.9,0.1-4.6,2.6-5.2c2.5-0.6,5.3,0.1,6,3.3
	c0.3,1.6-1.9,4.1,1.7,4.3c1.9,0.3,3.9-0.6,4.9-2.3c2.3-3.4,7.2-3.6,8.9,0.1c1.6,3.4,3.7,3.7,6.7,3.6c3.3-0.1,6.5,0,8.8,2.7
	c1.9,2.2,4.1,0.7,5.9-0.3c4.4-2.4,9.6-2.8,14.4-1.1c5.4,1.8,6.2,3.5,2.5,8.2c-7.4,9.1-3.5,19.4-3.5,29.2c0,0.8,1.1,1.1,1.9,0.3
	c0.1-0.1,0.3-0.3,0.5-0.3c2.8-0.9,8.2-6,9.2-8.7c0.5-0.5,1-0.8,1.7-1c4.6-0.9,9.1-1,11.2,4.4c-0.3,8.4,5.5,2.5,8.3,4.3
	C157,256.5,152.5,254.3,155,251.2z"/>
<path class="st3" d="M273,261.5c6-5.9,5.9-28.2,0.1-33.5c8.6-0.6,16.4-1.2,24.1,1c2.9,0.9,5.6,3.5,4.8,6.2c-2,6.1,0,11.2,1.4,16.9
	s-4,8.8-9.3,9.3C287.5,262,280.8,261.5,273,261.5z"/>
<path class="st4" d="M327,256.3l-6.6-8.6c-0.5,5.3-2.3,9.6,4.2,13.1c-5.8,1-11.7,1.2-17.6,0.5c5.1-6.8,5-27.4-0.8-33.6
	c9.1,0.1,17.1-1.1,24.9,1.5c5.1,1.7,8.2,8.9,4.5,12c-6.2,5.4-2.3,9.2,0.2,13.6c0.2,2,4.3,3.7,1.7,5.5c-1.9,1.2-5.7,1.8-7.8-1.4
	C329,258,328,257.1,327,256.3z"/>
<path class="st5" d="M244.6,257.3c0-6.7,0-13.4,0.1-20c0.1-3.4-0.1-6.5-4-8.6c8.4-0.9,16.5-2.5,24.4,1c5.1,2.3,5.8,6.9,1.9,11.6
	c-1.6,2-1.7,3.2,0.3,4.6c4,2.8,4.5,6.5,1.8,10.5c-2.2,1.8-4.2,3.7-7,4.3c-3.9,0.8-6-0.1-3.7-4.5c1.5-3.4,1.6-6.5-2.4-8.3
	c-3.4,2.7-1.5,6.3-1.6,9.5c-0.1,3.5-2,4-4.6,3.5C247.7,260.5,243.4,262.9,244.6,257.3z"/>
<path class="st6" d="M244.6,257.3c0.8,4.3,4.2,2.9,6.7,2.7c3.4-0.3,0.9-3.1,1.1-4.5c0.1-2.4,0.2-4.6,0.1-7c0.1-4.1,1.8-5.1,5.2-2.4
	c-3.6,6.6-3.3,7.7,2.5,10.1c0.1,1.5-2.4,2.4-1.1,3.7c1,1.1,2.7,0.1,4.1-0.3c2.2-0.8,3.5-3.1,6-3.2c-1.2,3.6-4.5,5-7.6,5
	c-12.8,0.3-25.7,0.1-39.7,0.1c2.5-2.8,4.9-5.7,1.4-7.8c-2.9-2-6.8-2-9.6,0.1c-3.4,2.7-0.3,5.1,3.7,7.7h-13c6.8-10,10.3-21,15.1-31.4
	c1.4-2.8,2-3.4,3.9-0.1c4,7.6,7.1,15.5,10.4,23.4C236.4,260.1,239,260.8,244.6,257.3z"/>
<path class="st7" d="M176.9,227.6c10,0,18.2-0.9,26.2,0.3c5.9,0.9,1.7,6.5,2.6,9.9c-2.4,0.6-2.7-0.9-3.2-2c-1.6-4-4.9-5-8.5-4.2
	c-4.1,0.9-1.9,4.6-2.3,7.1c-0.2,1.4-0.5,3.5,1.4,3.9c1.5,0.2,2.5-1.4,3.3-2.7c0.8-1.4,0.3-3.2,3.1-3.3c1.4,5.5,0.3,11.1,0.6,16.8
	c-1.2-0.1-1.8,0-2-0.2c-1.6-2-2-7-5-5.4c-3.2,1.8-1.6,6.6-0.7,10.1c0.3,1.4,2.9,1.2,2.5,3.7h-15.9C183.3,253,183,233.4,176.9,227.6z
	"/>
<path class="st7" d="M9,248.5l3.6-10.3l1.2-2.6c0.1-1.2,1.1-2.3,1.5-3.4c1.4-3.9,3.2-5,6.3-1.7c1,0.1,1.1,0.5,0.5,1.1
	c2,8.3,6.5,15.5,9.4,23.3c1.8,5,5.4,6.3,10,2.6c3.1,0.3,6.3,2.7,9.3-0.3c3.3,1.1,6.9,1.1,10.2,0c0.7,0.3,1.4,1.1,2,0.6
	c1-0.9-0.3-1-0.8-1.6c0.2-1.8,2.2-2.9,1.7-5v0.1c1.4-1,3.2-4.5,3.7,0.3c1,8.6-0.3,10-9.1,10H19.9c-0.3-2.9,3.7-3.9,2-6.6
	c-2.2-4.9-6.5-3.7-10.1-3.1C7.8,252.9,7.9,251.3,9,248.5z"/>
<path class="st4" d="M154.9,251.2c0.2,2.4,1.1,4.5,2.6,6.3c0.9,1.1,2.9,1.8,1.7,3.5c-0.5,0.7-2.3,0.7-3.5,0.7c-4,0.1-7.9,0-12.8,0
	l4.1-5.1c-2.3-5.5-3.4-5.9-11.4-3.9l0.1-0.1c-1.2,1.1-2.4,2.6-2.2,4.4c0.3,2.7-0.7,4.6-3.4,3.7c-3.1-1-0.2-3.1-0.1-4.6
	c3.2-10,8-19.1,12.8-29.3C148.7,234.8,150,243.8,154.9,251.2z"/>
<path class="st8" d="M327,256.3c1.2,0,2.5,0.7,3.2,1.8c1.1,2.2,3.9,2.9,6.1,1.8c2.9-1.5-1.6-3.3-0.3-5.2c1.2,1.1,2.3,2.7,3.7,3.5
	c3.2,1.5,6.2,1.5,6.5-3.1c0.2-7.1-0.1-14.3,0.1-21.4c0.1-2.8-2.8-2.8-3.6-5.3c5.6-1.8,11-0.5,16.9-0.8c-5.7,8.5-5.6,27.4,0.5,33.4
	c-8.4,1.6-16.2,0-23.9,0.8C331.4,262.2,328.4,260.8,327,256.3z"/>
<path class="st9" d="M130.1,256.2c0.7,1.2-1.6,3.3,0.6,3.9s2-1.6,2-3.1c0.1-2,0.6-3.9,2.9-4.3c-0.5,1.1-1.5,2.4-1.4,3.5
	c0.2,6.1,0.3,6.1-6.7,5.8c-0.8-0.1-1.7-0.2-2.5-0.3C125.2,258.2,128.3,257.9,130.1,256.2z"/>
<path class="st3" d="M101.4,261.4c-3.4,0.6-6.8,0.6-10.2,0c3.4-3.5,4.3-7.9,3.9-12.7c-0.6-5.7,1.2-11.6-1.4-17.1
	c-0.9-1-3.4-0.7-2.9-2.7c0.3-1.6,2-1.1,3.3-1.2c5.6-0.6,10.1,0.5,12.9,6c1.6,2.9,4.1,5.5,6.2,8.3c0.9,1.1,2.9,2.6,3.1,0.1
	c0.1-4.5,2.6-10.2-4.9-12.7c3.9-2.7,7.5-1.6,10.8-1.5c1.2,0,1.8,1.8,0.7,2.3c-4.9,2.4-2.8,6.8-3.1,10.3c-0.3,7.1-0.1,14.2-0.1,23.2
	c-8.3-8-13.6-16.4-19.9-23.9c-0.3-0.5-0.9-0.7-0.9-0.5C98.1,246.9,96.2,254.5,101.4,261.4z"/>
<path class="st7" d="M87.1,261.4h-18c5.9-3.1,5.6-6.8,5.4-10.6c-0.1-5.2,0-10.4,0-15.5c0-1.8,0.5-3.7-2.2-4.9
	c-2.6-1.1-1.2-2.5,0.6-2.6c4.5-0.3,9.1-0.3,13.6,0.2c2.3,0.3,1.9,2-0.5,2.5c-2.7,1.1-2,3.5-2,5.5c0,5,0.3,10-0.1,15
	C83.5,254.7,84.6,258.5,87.1,261.4z"/>
<path class="st10" d="M50.9,257.3c0,1.1,0.9,3.2-1.1,2.8c-2.8-0.3-6.7,2.4-8.2-2.5c0-6.9-0.1-13.8-0.1-20.8c0-3.2,0.6-6.6-5.8-7.8
	c7.7-2.2,13.3-1.2,19.3-0.6c-4,2.4-4.3,5.5-4.2,9.3C51.1,244.3,51,250.7,50.9,257.3z"/>
<path class="st11" d="M87.1,261.4c-2.4-1.6-4.1-3.5-4-6.8c0.2-6.5,0-12.9,0.1-19.4c0-2-0.7-4.6,2.7-4.8c-3.2,8.5-1,17.3-1.2,26.1
	c0,2.3,2.8,3.4,4.9,3.1c2.5-0.5,4.8-1.9,4.5-5.2c-0.3-7.5-0.3-15.1-0.5-22.5c1.9,0.7,2.5,2.3,2.5,4.1c0.1,6,0.1,12,0.1,18
	c0,3.6-2.4,5.8-5.1,7.7L87.1,261.4z"/>
<path class="st12" d="M64,251.3c-2.4,0.6-4.3,3.9-6.9,1.8c-2.4-1.9-0.6-4.8,0-7.1c0.3-1.5,0-3.1,0.3-4.4c0.3-1.8-2.3-5,1.1-5.2
	c2-0.1,4.9,1.7,6.5,3.4c2.2,2.4-0.5,3.7-2.3,4.9C57.3,247.9,64.2,248.9,64,251.3L64,251.3z"/>
<path class="st12" d="M40.3,244.9c0.1,1.4,0.1,2.7,0,4.1c-0.3,1.9,1.2,5.2-1.5,5.4c-2.4,0.2-4.3-2.5-4.9-5.2c-0.3-1-0.3-2.2,0-3.2
	c1.5-3.3,0.1-9.7,4.3-9.5C42.8,236.7,38.7,242.6,40.3,244.9z"/>
<path class="st13" d="M9,248.5c-0.3,3.4,1.6,2.7,4,2.8c3.4,0.1,8.3-2.3,9.1,4c-1.2-1.2-2.4-2.7-4.3-2.5c-2.5,0.2-5.2-1.1-7.3,1.5
	c-2.4,3.1,1.4,4.4,2.2,7.1c-3.9,0.8-7.8,0.7-11.7-0.2C5.1,257.3,6,252.3,9,248.5z"/>
<path class="st11" d="M101.4,261.4c-3.7-3.3-6-19-3.1-22.5c0.8-0.9,1.4,0.2,1.7,1c-1.6,7-4.1,14.3,2.5,20.4c0.1,0.1,0,0.5-0.1,0.6
	C102.1,261.1,101.7,261.3,101.4,261.4z"/>
<path class="st12" d="M22.2,231.6l-0.5-1.1c0.6-0.3,1.1-0.6,1.7-0.8c1.6-0.5,3.1-2.8,4.9-0.7c0.6,0.6,0.8,1.5,0.6,2.3
	c-1.4,2.6-3.3,0.5-4.9,0.5C23.4,231.7,22.9,231.6,22.2,231.6z"/>
<path class="st10" d="M62.3,256.3l4.8-2.4c-2.3,2.8-0.9,6.5-5,6.3c-2.3-0.1-1-1.8-1-2.8L62.3,256.3z"/>
<path class="st9" d="M135.6,252.8c6.8-3.4,10.4-2.2,11.4,3.9C144.6,251.3,139.7,253.1,135.6,252.8z"/>
<path class="st14" d="M286.5,252.1c0.7-2-1.2-5.5,2.4-5.8c3.5-0.1,5.2,2.6,5.2,6.1c0,3.1-1.9,5.2-4.6,5.3
	C285.2,258,287.3,254.1,286.5,252.1z"/>
<path class="st15" d="M286.5,237.2c0.6-2.2-0.9-5.3,2-5.4c2.9-0.1,4.4,2.4,4.3,5.3c0,2.6-1.5,4.9-4.1,4.9
	C285.4,241.8,287.4,238.5,286.5,237.2z"/>
<path class="st16" d="M319.7,237.3c1-2.2-1.6-6,3.1-5.8c3.6,0.1,4.4,2.9,4.4,6c0,3.1-0.6,5.8-4.4,5.9
	C317.6,243.4,321,239.2,319.7,237.3z"/>
<path class="st17" d="M260.3,256.2c-1.9,0.5-3.9,3.3-5.8,1.2c-2.3-2.4-1-5.8-1-8.7s2.4-2.5,4.3-2.6
	C260.9,248.8,262.3,252,260.3,256.2z"/>
<path class="st18" d="M255.9,231.6c2.5,0.5,4.2,2.7,3.9,5.2c0,2.5-1.1,5.1-3.9,5c-4.2-0.2-2-3.9-2.4-6
	C253.3,234,252.9,231.7,255.9,231.6z"/>
<path class="st17" d="M221.1,246.9c0.3,2.2-1.1,2.4-2.7,2.5c-1.4,0-2.7-0.3-2.4-2c0.3-1.7,0.6-3.7,2.5-4.1
	C220.7,243,220,245.9,221.1,246.9z"/>
<path class="st19" d="M15.8,249.5c-1.7-0.1-3.9-0.3-3.3-2.6c0.3-1.2,0.6-3.4,3.1-3.4s2.4,2.2,2.8,3.5
	C19.1,249.1,17.5,249.5,15.8,249.5z"/>
<path class="st20" d="M143.2,247.4c0.1,2.4-1.5,2.4-2.9,2.3c-1.7,0-3.9-0.1-3.1-2.6c0.6-1.6,0.2-4.5,2.7-4.4
	C142.4,242.7,142.4,245.7,143.2,247.4z"/>
<path class="st21" d="M238.7,209.3c-3.4,4.1-4.8,8.5-6.1,12.8c-2.6,8.3-5.1,16.5-7.3,24.9c-1,3.6-3.4,3.3-5.9,3.3s-4.1-0.3-5.4-3.8
	c-4.5-12.2-7.8-24.8-13.2-36.8v17.6c0,19.1,0,38.2,0,57.3c0,5.2-9.3,12.9-14.5,12.1c-3.1-0.5-3.6-2.5-3.6-5.2c0.1-8-0.5-16,0.2-23.9
	c0.7-8.8-1.9-16.3-6.6-23.4c-3.3-5.1-6.2-10.4-8.8-15.9c-0.9-2.3-3.2-3.7-5.7-3.4c-8.9,0.2-17.8,0.1-26.7,0c-2.7,0-3.6,0.9-4.4,3.6
	c-3,9.5-6.2,18.9-10,28c-2,4.7-7,2.2-10.4,1.9c-3.2-0.3-0.7-3.3-0.5-5c3.7-23.9,8.7-47.6,12-71.6c1.4-9.9,3.8-19.6,5.2-29.5
	c1.2-7.3,1.7-14.7,1.7-22.1c-0.1-4.4,1.2-9.1-3.8-12.1c-0.9-0.5-1.4-2.2-1.7-3.3c-2.1-6.8-1.6-7.5,5.5-7.5c9.6,0,19.3,0.4,28.9-0.1
	c6.1-0.3,8,2.6,8.9,7.8c1.8,9.6,2,19.5,4.5,29.1c0.9,3.3,2,4.5,5.5,4.2c4.2-0.4,8.5-0.1,12.8-0.1c6.3,0,8.9,2.4,10.9,8.7
	c4.1,13,8.4,26,12.8,38.9c1.6,4.7,1.9,9.8,5.1,14c0.6,0.8,0.6,2.2,2.1,2.2c1.8-0.1,1.9-1.4,2.2-2.7c2.6-12.1,5.9-24,10-35.6
	c2.6-7.6,5.2-15.3,7.7-23c0.4-1.3,1.1-2.4,2.5-2.7c4.9-1,9.8-1.9,14.7-2.7c4-0.7,5.7,1.5,6.1,5.3c0.4,4.5-0.3,9.2-4,11.5
	c-3.7,2.4-3.6,5-3.6,8.4c0,39.1,0,78.2,0,117.4c0,6.3-1,7.3-8,7.3c-6.6,0-8.2-1.4-8.2-7.3c0-24.1,0-48.2,0-72.3
	C239.5,213.5,240.1,211.6,238.7,209.3z"/>
<path class="st22" d="M210.7,350c-3.3,3.3-3.1,7.6-4.8,11.3c-0.6,1.3-0.6,2.8-2.7,2.7c-2.1-0.2-2.3-1.6-2.5-3
	c-0.5-3.8-2.3-7-4.2-10.6v6c0,6.2-0.3,12.4,0.1,18.6c0.3,3.9-2.5,4.8-4.7,6.3c-1.4,0.9-2.4-0.1-2.4-1.8c0-1.4,0-2.9,0-4.3
	c0-13.4,0-26.8,0-40.2c0-2.6,0.2-5.2-2.4-6.9c-0.9-0.6-1.2-1.7-0.8-2.7c0.4-1.1,1.4-0.6,2.2-0.7c6.1-0.4,6.1,0.1,8.4,5.9
	c2.3,5.8,3.1,12.5,6.8,18.8c2.5-7.8,4.8-14.9,7-22c0.4-1.4,0.4-3.1,2.4-2.8c2.1,0.3,4.8-1.6,6.5,0.5c1.1,1.4,0.3,3.4-0.9,4.8
	c-1.3,1.6-1.3,3.4-1.3,5.3c0,13.7,0,27.4,0,41.1c0,2.4-0.1,4.1-3.3,4.1c-3.2,0-3.3-1.6-3.3-4.1C210.8,367.6,210.7,358.8,210.7,350z"
	/>
<path class="st21" d="M248.1,352.7c0,6.9-0.1,13.8,0,20.7c0.1,3.3-1.1,5.5-4.3,6.6c-6.1,2.3-12.1,3.5-17.7-1.5
	c-2-1.6-3.2-4.1-3.1-6.7c0.1-12.7,0-25.3,0.1-38c0-4.3,4.6-10,8.8-10.6c2.6-0.4,5.2-0.3,7.8,0.2c6.9,1.3,8.3,3.3,8.4,10.3
	C248.1,340,248.1,346.3,248.1,352.7z"/>
<path class="st22" d="M110.1,353c0,6.8-0.2,13.5,0.1,20.3c0.4,2.9-1.4,5.7-4.2,6.7c-6.4,2.7-12.7,3.3-18.5-1.6
	c-2-1.7-2.3-3.9-2.4-6.2c0-13.2,0-26.5,0-39.7c0-3.7,5.2-8.9,9.1-9.2c3.7-0.3,7.5-0.3,11,1.4c2.8,1.4,4.9,3.3,4.9,6.8
	C110,338.6,110.1,345.8,110.1,353z"/>
<path class="st21" d="M359.9,352.6c0,7.2-0.1,14.4,0.1,21.6c0.3,2.5-1.2,4.9-3.6,5.6c-6.2,2.4-12.2,3.8-18.1-1.2
	c-1.9-1.5-3-3.8-3-6.3c0-13.2,0-26.5,0-39.7c0-3.7,5-9,9.2-9.4c4-0.6,8.1,0,11.8,1.6c2.4,1.1,3.9,3.6,3.7,6.2
	C359.8,338.2,359.9,345.4,359.9,352.6z"/>
<path class="st22" d="M306.9,381.5c-4.1-3.8-8.5-5.8-14.3-5.5c-4.1,0.2-7.5,1-10,4.2c-0.9,1.1-2.1,1.9-3.3,1.2
	c-1.2-0.7-0.5-2-0.3-3.2c2.2-11.7,4.6-23.4,6.4-35.1c0.8-5.2,2.2-10.7-1.1-15.8c-1-1.5-0.5-3,1.9-2.9c3.9,0.1,7.8,0,11.7,0
	c1.5,0,2.2,0.4,2.5,2.2c2.1,12.4,4.5,24.8,6.4,37.3c0.9,5.6,0.8,11.3,1.2,17L306.9,381.5z"/>
<path class="st22" d="M35.6,380.9c0-15,0-30,0-44.9c0-2.8-0.1-5.6-2.4-7.5c-0.9-0.7-1.3-2-0.9-3.1c0.4-1.4,1.8-1.2,2.9-1.2
	c5.3,0.1,10.7,0.2,16,0.5c3,0.2,5.9,3.8,5.9,7c0,14.8,0,29.7,0,44.5c0,2.2,0,5.3-2.4,5.1c-2.8-0.4-4.8-2.9-4.6-5.7
	c0.2-7.3,0.1-14.7,0.1-22c0-6.2-0.1-12.4,0-18.6c0-2.6-0.3-4.8-3.5-4.7c-2.8,0-4.5,0.7-4.5,4.5c0.3,13,0.1,25.9,0.1,38.9
	C42.5,379,41.5,380,35.6,380.9z"/>
<path class="st22" d="M138.4,354.7c0,7.2-0.1,14.4,0,21.6c0,2.4-0.6,5.1-2.8,5c-2.2-0.1-4-2.2-4-5.2c0.1-13.5,0-27.1,0-40.6
	c0-4.6-3.2-6.5-7.4-4.6c-1.9,0.9-1.1,2.5-1.2,3.7c-0.1,13.1,0,26.2,0,39.3c0.1,1.1,0.1,2.3-0.1,3.4c-0.8,2.6-3.3,3.5-5.4,3.5
	c-2.3,0-1.1-2.4-1.1-3.7c-0.1-13.4-0.1-26.7,0-40.2c0-3.2-0.1-6.2-2.2-8.9c-1.8-2.2-0.8-3.8,2-3.8c5.3,0.1,10.7,0.2,16,0.5
	c3.5,0.2,6.3,3.8,6.3,7.4C138.4,339.7,138.4,347.2,138.4,354.7z"/>
<path class="st22" d="M13.5,324.5c7.5,0,7.6,0,8.9,7.3c2.8,15.3,5.4,30.5,8,45.8c0.2,1.3,1.4,3.3-0.9,4c-2.3,0.6-3.1-1.4-3.5-2.9
	c-1.5-6.9-5.8-8.2-12.4-8.3c-5.6,0-6.3,3.5-8.6,6.5c-1.3,1.6-1,5.7-4,4.5c-2.1-0.9-0.1-3.9,0.2-5.9c1.9-12.5,4.3-24.9,6.2-37.4
	c0.5-3.3,1.4-7-1.3-10.3c-1.2-1.5-1-3.3,1.8-3.3C9.8,324.6,11.6,324.5,13.5,324.5z"/>
<path class="st22" d="M253.4,353.7c0-7.3,0-14.7,0-22c0-1,0.2-2.2-0.3-2.9c-3.3-4.3-0.3-4.3,2.8-4.2c0.4,0,0.9,0,1.3,0
	c15.5-1.2,19.3,5.9,18.5,19.3c-0.2,2.9-1.7,5.1-2.9,7.6c-1.1,2.2-1.8,4.3,0.3,6.7c1.3,1.8,2,3.9,1.8,6.1c0.1,4.9,0.2,9.8,0.3,14.7
	c0,1.1,0.7,2.8-1.5,2.8c-1.8,0-1.8-1.3-2.1-2.7c-1-5.5-2.4-10.9-3.2-16.5c-0.7-5-4.3-2.5-6.7-2.9c-3.3-0.4-2,2.4-2.1,3.9
	c-0.2,4.2,0,8.3-0.1,12.5c0,2.3,0.8,5.6-2.9,5.6s-3.2-3.3-3.2-5.8C253.4,368.5,253.4,361.1,253.4,353.7L253.4,353.7z"/>
<path class="st22" d="M157.7,346.9c1.1-5,2.1-10.1,3.2-15.1c0.1-1.1,0.3-2.2,0.5-3.3c0.9-2.6,2.5-5.1,5.5-4.4c3.2,0.8,1.7,4,1.4,5.8
	c-2.1,11.7-4.7,23.4-6.8,35.1c-0.9,5.1-1.8,10.2-3,15.2c-0.3,1.4-0.7,2.1-2.2,1.9c-2.5-0.4-5.4,0.4-7.2-1.8
	c-0.9-1.1,0.3-2.5,1.1-3.4c5-5.9,4.2-12.5,2.3-19.1c-2-7-4.2-14-6.5-20.9c-0.7-2-0.8-4.3-3.4-5.6c-2.2-1.1-2.9-3.3,0.5-4.5
	c1.2-0.4,2.4-0.9,3.6-1.5c2-0.9,3.1-0.5,3.7,1.8c1.9,6.7,4.1,13.4,6.2,20L157.7,346.9z"/>
<path class="st21" d="M67,354.7c0-6.8-0.1-13.5,0-20.3c0-2.4-0.2-3.8-3.1-3.7c-2.7,0.1-3.8-1.7-3.6-4.3c0.3-2.9,2.5-1.8,4-1.8
	c4.6-0.1,9.2,0,13.8-0.1c2.1,0,3.2,0.3,3.1,2.8c-0.1,2.1-0.5,3.4-2.9,3c-3.3-0.6-4,1-4,4.1c0.2,13.7,0,27.3,0.1,41
	c0,2.8-0.6,5.5-3.3,5.4c-2.4-0.1-4.3-2.1-4.2-5.4C67.1,368.5,67,361.6,67,354.7z"/>
<path class="st21" d="M317.2,354.7c0-6.9-0.1-13.8,0-20.7c0-2-0.3-3.3-2.7-3.2c-2.2,0-3.8-1-4-3.5c-0.1-1.7,0.3-2.7,2.3-2.7
	c5.5,0.1,10.9,0.1,16.4,0c2.2,0,2.1,1.2,2.2,2.8c0,1.7,0,3.4-2.4,2.9c-4.5-0.8-4.5,1.8-4.4,5c0.1,13.4,0,26.7,0.1,40.1
	c0,2.7-0.6,5.5-3.3,5.4c-2.4,0-4.3-2.3-4.2-5.5c0.1-6.9,0-13.8,0-20.7L317.2,354.7z"/>
<path class="st23" d="M148.3,132c2.8,12.2,5.4,23.3,7.9,34.4c3,12.9,6,25.8,9,38.7c0.6,2.4,0,3.3-2.6,3.3c-8.3-0.1-16.7-0.2-25,0
	c-3.2,0.1-3.6-1.4-3.5-4c0.2-12.2,2.8-24.2,4.6-36.2c1.5-9.9,4.9-19.3,6.7-29C145.8,137,147,135.1,148.3,132z"/>
<path class="st24" d="M182.8,205.9c-3.8-18.3-6.5-36.7-11.2-56.1c3.3,4.1,5.7,7.2,8.3,10s2.9,6.3,2.9,9.9
	C182.8,181.8,182.8,193.9,182.8,205.9z"/>
<path class="st23" d="M240.6,353c0,6-0.1,12.1,0,18.1c0.1,3.1-0.8,5.2-4.3,4.9c-3.1-0.2-6.1-1.1-6.1-5.1c0-8,0-16.1,0-24.1
	c0-4.2,0.1-8.3,0-12.5c-0.1-3.8,1.7-5.1,5.2-5.2c3.5-0.1,5.3,1.3,5.2,5C240.5,340.3,240.6,346.7,240.6,353z"/>
<path class="st2" d="M92.5,351.8c0-6.2,0.1-12.4,0-18.5c-0.1-3.7,2.1-4.2,4.9-4.2s5.3,0.6,5.3,4.1c0.1,12.9,0,25.9,0,38.8
	c0,3-2,4.2-4.5,4c-2.4-0.2-5.7-0.6-5.7-4.4C92.6,365.1,92.6,358.4,92.5,351.8L92.5,351.8z"/>
<path class="st2" d="M352.9,353.1c0,6-0.1,12.1,0,18.1c0.1,3.3-1.5,5-4.5,4.9c-3-0.1-5.8-1-5.8-4.9c0-12.6,0-25.3,0-37.8
	c0-3.6,2.2-4.2,5.1-4.2c3.2,0,5.3,1.1,5.3,4.7C352.9,340.2,352.9,346.6,352.9,353.1z"/>
<path class="st25" d="M293.3,335.2c3.5,11.5,3.8,22.4,6.6,32.8c0.5,1.7-0.3,1.8-1.7,2c-9.9,1.2-10.8,0.4-9.8-9.3
	c0.7-6.7,1-13.4,3-19.9C291.9,339.2,292.4,337.7,293.3,335.2z"/>
<path class="st25" d="M14.6,336.2c2.3,2.7,2.4,5.9,3,8.7c0.9,5.4,2,10.7,3.5,15.9c0.7,2.4,0,3.5-2.6,3.2c-1-0.1-2-0.1-3,0
	c-6.6,0-6.6,0-5.4-6.3C11.4,350.6,11.3,343.1,14.6,336.2z"/>
<path class="st26" d="M260.2,341.2c0-2.4-0.2-4.9,0.1-7.3c0.1-1.6-1.3-4.2,1.8-4.4c2.7-0.1,5.9-0.2,6.7,3.2c1.1,5.6,0.8,11.5-0.9,17
	c-0.7,1.4-1.9,2.5-3.3,3.1c-2.2,1-4.6,1.3-4.3-2.6C260.4,347.2,260.2,344.2,260.2,341.2z"/>
<path class="st27" d="M270.6,191.8l66.8,57.8c0-15.5,0-29.4,0-43.3c0-9.8-1-8.3,8.3-8.3c14.3,0,14.3,0,14.3,14.2
	c0,26.4,0,52.7,0,79.1v7.7c-22.7-19.4-44.5-38-67-57.2c0,15.5,0,29.8,0,44.2c0,8.1,0,8.1-8.3,8.1c-15.1,0-15.1,0-15.1-15.3
	c0-26.8,0-53.6,0-80.3C269.7,196.5,269.1,194.3,270.6,191.8z"/>
<path class="st27" d="M67.4,242.4c13.7,6.6,19.3,15.8,16.9,27.4c-2.8,13.9-11.8,21.6-26,22.8c-17.6,1.4-35.2,0.5-52.7,0.9
	c-4,0.1-5.6-1.1-5.6-5.2c0.2-28.5,0.3-56.9,0.3-85.4c0-3.5,0.8-5.3,4.8-5.3c17.1,0.4,34.3-0.7,51.5,0.7c17.5,1.4,27.5,17.5,21,32.7
	C75.6,235.8,71.6,238.7,67.4,242.4z"/>
<path class="st27" d="M158.9,172.7c0,0.4,0,0.8,0,1.3c1.1,6.8-0.8,10.4-8.3,12.9c-22.2,7.5-40,32.1-38.3,60.9
	c1.5,24.7,17.9,45.9,41.4,53.6c3.8,1.3,5.5,2.7,5.1,6.9c-0.3,4.8-0.3,9.6,0,14.4c0.2,4.2-1.2,4.7-5.1,4c-31.9-5.9-59-33.2-65.9-66.3
	c-9-43.9,18.7-88.3,61.7-98.7c9.2-2.2,9.2-2.2,9.2,7.3L158.9,172.7z"/>
<path class="st27" d="M219.3,242.2c11.3,0,22.6,0.1,33.9,0c3.8-0.1,5.5,0.5,5.4,5c-1.1,39.6-31.4,74.2-70.2,80
	c-8.1,1.3-8.1,1.3-8.1-7.1c0-4.8-1.3-10.2,0.5-14.2c2-4.4,8.4-3,12.8-4.6c15.7-5.9,26.6-16.9,34.6-31.2c2-3.5,0.9-4.2-2.6-4.2
	c-13.4,0.1-26.8-0.1-40.2,0.1c-4.2,0.1-5.5-1.3-5.2-5.4c0.4-5.8-1.8-13.3,1.1-17c3.1-4,10.9-1.1,16.7-1.3
	C205.2,242,212.2,242.2,219.3,242.2z"/>
<path class="st27" d="M180.3,171.3c0-13.5,0-13.6,13.7-10.8c12.3,2.3,23.9,7.6,33.8,15.4c2.8,2.2,3.3,4,0.3,6.3
	c-0.8,0.6-1.5,1.5-2.2,2.2c-4.1,3.8-7.6,9.3-12.5,11.1c-5.1,1.8-8.6-5.2-13.5-7c-4.3-1.6-8.4-4-13-4.3c-5.8-0.4-7.3-3.4-6.5-8.5
	C180.4,174.2,180.4,172.7,180.3,171.3z"/>
<path class="st28" d="M37.3,276.6c-5.2,0-11.8,2.7-15.1-0.5c-3.7-3.5-1.3-10.3-1.3-15.6c-0.1-9.9-1.3-8.5,8.6-8.6
	c6.9,0,13.8-0.1,20.6,0.2c8,0.4,13.2,5.4,13.3,12.2s-4.3,11.3-12.4,12.2C46.5,277,41.9,276.6,37.3,276.6z"/>
<path class="st29" d="M36,213.5c4.8,0.2,9.6,0.2,14.4,0.8c5.7,0.7,9.2,4,9.3,9.9c0.1,5.9-3.3,9.4-8.9,10.5c-8.9,1.7-17.9,0.9-26.8,1
	c-2.1,0-3.1-0.9-3.1-2.9c0-1.3,0-2.5-0.1-3.8C20.7,213.6,20.7,213.6,36,213.5z"/>
<g class="st0">
	<path class="st30" d="M324,173.2c2.7,3.6,1.7,8,2,12.4c3.5-1.4,4.2-4.1,5.2-7c1.9,1.8,1.3,3.8,1.2,5.6c-0.1,1.8-2.1,3.9-0.3,5.4
		c2.3,1.9,3.2-2,5.2-2c2.1,5.3-2.4,7.5-4.7,10.8c-1.1,1.5-2.2,0.1-3.2-0.3c-3-1.2-5.9-2.1-9.2-1.2c-2.1,0.6-4.8,3.5-6,1.7
		c-2.1-3.4-7-6.1-4.5-11.5c1.4,0.2,1.2,1.8,1.9,2.6c0.8,0.8,1.6,1.5,2.7,0.9c1.1-0.7,0.9-1.7,0.6-2.8c-0.8-2.9-2.7-5.8-0.2-8.9
		c0.4,0.2,0.9,0.2,1.1,0.4c1.2,1.5,1.1,4.9,3.9,4c2.5-0.8,2.3-3.6,2.3-5.9c0-1.4,0-2.8-0.1-4.2L324,173.2z"/>
	<path class="st31" d="M314.5,280.6c-6.6-17.8-7.6-35.8-2.2-54.1c0.5-1.7,2.4-3.6,0-5.2c-2.9-1.9-6-3.6-9-5.3
		c-0.2-0.1-1.2,1.1-1.6,1.9c-0.8,1.5-1.3,3.3-2.2,4.8c-3,4.7-1.6,8.2,2.2,11.9c7.2,7,7.2,7.4,0.2,14.8c-3.9,4-4.1,7.3-1.9,12.4
		c7.9,18,10.7,37.2,11.9,56.7c-1.5-6-2.7-12.2-4.4-18.1c-4.2-15-10.8-29.3-19.5-42.3c-2.3-3.5-2.1-5.8,0.6-8.6c2.5-2.6,7-5,6.9-8.2
		c-0.1-2.6-4.2-5.2-6.7-7.7c-1.5-1.5-2.1-3-1.1-5.1c3.6-7.6,7.1-15.2,10.5-22.9c1.1-2.5,2.2-2.4,4.4-1c5.3,3.5,10.7,6.8,16.2,9.8
		c3,1.6,3.3,3.3,2.1,6.3c-4.9,13-8,26.5-7.4,40.6c0.3,6.1,1.4,12.2,2.1,18.2C316.1,280.5,315.6,280.9,314.5,280.6z"/>
	<path class="st31" d="M335.5,308c1.8-16.6,5.1-32.9,12.1-48.1c1.7-3.7,1.3-6.1-1.2-8.8c-2.7-2.9-6.9-5.8-7.1-9.4
		c-0.1-3.4,4.5-5.9,7.2-8.5c3-2.9,3.1-5.7,1.3-9.4c-4.2-8.6-3.9-8.5-12-3.5c-3.1,1.9-2,3.9-1.3,6.2c5.4,18.3,4.5,36.3-2.2,54
		c-2,0.1-1.5-1.1-1.1-2.1c4.2-20,1.5-39.3-5.5-58.2c-1-2.6-0.9-4.1,1.7-5.6c5.6-3.2,11.2-6.6,16.5-10.2c2.9-1.9,3.8-0.7,5,1.8
		c2.9,6.6,5.9,13.1,9.1,19.5c1.9,3.7,1.6,6.5-1.7,9.6c-5.9,5.5-5.7,5.8-0.6,11.8c5.5,6.6,5.5,6.6,0.8,14.2
		c-9.5,15.4-16.3,32.2-20.1,49.9C334,310.7,335.3,309.2,335.5,308z"/>
	<path class="st32" d="M187.4,267.8H169c4.9-0.4,4.6-3.9,4.5-7.4c-0.1-5.1-0.1-10.2,0-15.3c0.1-3.6,0.4-7.2-4.6-7.6
		c8,0,16.1-0.1,24.1,0c2.1,0.1,4.2,0.7,6,1.8c2.6,1.6,4.1,3.8,3.9,6.9c-0.3,4.5-3.8,5.9-7.8,7.4c3.3,3.8,6.5,7.5,9.7,11.1
		c2,2.2,4.5,2.6,7.2,1.8c3.2-0.9,2.3-3.5,2.3-5.7c0.1-5.4,0-10.9,0-16.3c0-3.5,0.5-7.1-4.8-7.4c9.5,0,19.1,0,28.6,0
		c1.7,0,2.6,0.4,2.5,2.3c0,2.3-0.2,4.6-0.5,6.9c-2.5-5.9-7-7.3-12.6-7.2c-3.4,0-4.4,1.2-3.9,4.2c0.1,0.7-0.1,1.4,0,2.1
		c0.4,1.9-1.3,4.8,1.3,5.5c2.9,0.8,4.8-1.5,5.7-4.2c0.2-0.6,0.5-1.3,1.2-3.2c0.8,6.1,0.5,11.1,0.3,16.2c-1.6-0.5-1.4-1.8-1.8-2.6
		c-1.2-2.4-3.2-4.4-5.7-3.6c-2.3,0.6-1.1,3.4-1,5c0.1,2.4-1.6,6.1,1.8,6.9c4.8,1.1,9.9,0.7,13.8-3.1c1-1.2,2-2.5,2.8-3.8
		c1.6,7.5,0.2,9.3-6.7,9.3c-11.2,0-22.5-0.2-33.7,0.1c-3.7,0.1-6.2-1.1-8.4-4s-5-5.9-7.6-8.7c-0.9-1.1-2.2-2.3-3.2,0
		C180.9,259.8,183.2,265.8,187.4,267.8z"/>
	<path class="st32" d="M0.1,268.1c8.3-6.6,3.2-15.3,4.4-22.7c0.6-3.4,0.4-7.2-4.5-7.9c7.8,0,15.6-0.1,23.4,0.1
		c1.7,0.1,3.4,0.7,4.9,1.6c2.2,1.2,3.8,3,3.8,5.8c-0.1,4.3-3.7,5-6.6,6.5c0.2,0.2,0.4,0.5,0.6,0.6c4.1,1.1,8.1,2.8,7.7,7.8
		c-0.4,4.7-4.3,6.4-8.5,7.3C17.1,268.9,8.6,267.4,0.1,268.1z"/>
	<path class="st33" d="M97.6,244.8v16.7c-1.3-2.7-1.8-4.1-2.5-5.3c-1.2-2-3.2-3.2-5.3-2.6c-1.9,0.5-1.1,2.8-0.9,4.1
		c0.3,2.7-1.8,6.9,1.9,7.8c4.7,1.2,9.9,0.8,13.7-3.2c1.1-1.3,2.1-2.6,3-4c1.2,1.4,0.2,2.5,0.3,3.7c0,4.3-1.5,6.3-6.5,6
		c-8.7-0.5-17.5-0.1-27-0.6c6.4-0.2,5.1-4.5,5.1-8c0-5.1-0.1-10.2,0-15.3c0.1-3.5,0.1-6.6-4.7-7c9.6,0,19.2,0,28.8,0
		c2,0,2.2,1.1,2.2,2.6c0,2.2-0.1,4.4-0.4,6.5c-2.6-6.1-7.4-7.3-13.2-7.1c-2.8,0.1-3.8,1-3.4,3.6c0.1,0.9-0.1,1.8,0,2.6
		c0.4,1.9-1.3,4.8,1.2,5.5c2.9,0.8,4.8-1.5,5.8-4.1c0.3-0.8,0.6-1.6,0.9-2.4L97.6,244.8z"/>
	<path class="st33" d="M134.8,237.3c8.8,0,17.5,0.3,26.3-0.1c4.4-0.2,5.5,1.5,4.9,5.3c-0.2,1.1,0.5,2.4-0.9,3.9
		c-2.1-6.8-7.4-7-12.9-7c-2.7,0-4.1,0.8-3.5,3.5c0.6,2.8-2,7,1.8,8.2c3.8,1.3,6.1-2.1,8-5.4v14.8c-2-2.5-2.5-6.1-6.2-6.7
		c-2.5-0.4-3.5-0.2-3.7,2.6c-0.5,7.6-0.1,9.2,4.7,11.5H135c4.9-0.4,4.5-4,4.5-7.4c-0.1-4.9,0-9.8,0-14.8
		C139.4,242.1,140.6,237.8,134.8,237.3z"/>
	<path class="st32" d="M37.3,237.4h18.8c-6.2,0.2-4.9,4.8-5,8.5c0,5.3,0.1,10.5,0,15.8c-0.1,3.2,1.3,4.1,4.4,4.3
		c7,0.6,12.3-1.5,14.8-8.9c0.6,0.8,1,1.1,0.9,1.2C71,268,71,268,61.5,268H37.3c4-1.1,4.7-3.6,4.5-7.4c-0.3-5.6,0-11.2-0.1-16.8
		C41.8,239.3,41.8,239.3,37.3,237.4z"/>
	<path class="st34" d="M131.1,237.7c-4.6,0.1-4.7,3.3-4.7,6.6c0,5.6,0,11.2,0,16.9c0,3.2,0.4,6.1,4.5,6.6h-18.2
		c4.7-0.4,4.6-3.7,4.5-7.2c-0.1-5.6-0.2-11.2,0-16.9c0.1-3.3-0.6-5.6-4.5-5.9L131.1,237.7z"/>
	<path class="st34" d="M265.4,267.9h-18c1.1-1.7,3.7-0.9,4.2-2.8c0.4-1.5,0.6-3.1,0.6-4.6c0.1-5.3-0.1-10.5,0-15.7
		c0.1-3.5,0.1-6.8-4.6-7.3h19c-5.2,2-5.2,2-5.2,7.2c0,5.6,0,11.2-0.1,16.8C261.2,264.5,261.6,267.1,265.4,267.9z"/>
	<path class="st35" d="M335.5,308c0.2,1.1-0.2,2.4,1,3.2c-0.7,4.3-1.5,8.7-2.2,13.1C333.5,318.7,333.9,313.2,335.5,308z"/>
	<path class="st36" d="M331.3,278.4c0.3,0.7,0.7,1.4,1.1,2.1c-0.8,3.9-2.6,7.6-5.2,10.6C328.5,286.9,329.9,282.7,331.3,278.4z"/>
	<path class="st37" d="M314.5,280.6l1.2-1.2l4,11.6l-1.3,0.5C317.1,287.9,315.8,284.3,314.5,280.6z"/>
	<path class="st38" d="M182.6,245.4c1-1.9-2.4-6.5,3.7-6.1c4.2,0.3,7.2,1.6,7.2,6.4c0,4.3-2.6,6.5-7.7,6.5
		C182.6,252.2,182.6,252.2,182.6,245.4z"/>
	<path class="st38" d="M13.2,258.9c1.1-2-2.1-6.1,3.4-5.8c4.4,0.3,7.5,2.8,7.3,6.5c-0.2,4.3-3.1,6.1-7,6.2
		C11.2,265.9,14.2,261.4,13.2,258.9z"/>
	<path class="st38" d="M13.1,245.2c1.5-1.7-2.1-5.8,3-5.7c3.8,0.1,6.7,1.6,6.6,5.8c-0.1,4.2-3.6,5.6-7,5.6
		C11.4,250.8,14.3,247,13.1,245.2z"/>
</g>
<g class="st0">
	<path class="st39" d="M95.7,279.4c-5.6-1.9-15.9,6.6-19.6-3.4c-2.7-7.4,2.5-24.3,4.3-36.8c4.7-31.4,4.7-31.4,23.5-31.4
		c5.8,0,11.6-0.1,17.3,0c11.4,0.3,14.4,9,8.4,26.7c-2,6-2.5,9.5-1.2,16.8c2.3,12.9-4.6,27.1-12.6,28
		C109.7,280,103.6,279.4,95.7,279.4z"/>
	<path class="st39" d="M253.6,224.2c-2.3,15.3-4.5,26.2-5.3,37.3c-1.2,15.9-5.5,21.5-15.3,16.6c3.3-21.4,6.5-42.9,9.8-64.5
		c0.3-2.1,0.9-3.9,1.9-5.2c7-7,21.2,1.8,24.5,14.9c2.9,11.9,5.9,23.8,9.9,40.1c2.6-18,5.1-31.7,6.5-45.6c1.4-12.9,6.7-11.2,11-9.5
		c5.7,2.3,1.7,9.7,1,14.5c-2,15.5-4.5,30.7-6.7,46.2c-1,7.5-2.9,10.2-7.7,11.1c-11.3,1.9-18.9-2.6-21.7-24.3
		C260.3,246.1,257,237.3,253.6,224.2z"/>
	<path class="st39" d="M297.7,279.4c3.4-22.5,6.4-43.3,9.5-64.2c0.9-6.2,3-7.6,6.3-7.5c11.6,0.3,23.1-0.3,34.7,0.4
		c9.1,0.5,12,7.4,10.1,23.3c-1,8.3-2.3,16.5-3.8,24.6c-2.8,15.3-8.7,23.3-17.9,23.3C324.1,279.4,311.6,279.4,297.7,279.4z"/>
	<path class="st39" d="M180.9,279.6c3.4-22.4,6.8-43.1,9.6-63.9c0.9-6.5,2.5-8,5.9-7.9c13.1,0.2,26.2,0,39.3,0
		c0.8,13.4-2.1,18.4-9.3,17.3c-6.7-1-13.5-0.2-20.2-0.2c-2.6,0-5.6-0.5-5.4,6.3c0.2,6.5,3.4,3.6,5.2,3.7c8,0.3,16,0.1,23.9,0.1
		c0.7,12.8-2,17.6-8.8,16.6c-6.4-0.9-12.8-0.2-19.3-0.2c-2.8,0-5.4,0.6-5.1,7c0.3,6.4,3.4,3.6,5.2,3.8c6.7,0.4,13.5-0.1,20.2,0.3
		c2,0.1,5.8-3.1,5.6,4.8c-0.2,6.1-0.6,12.6-5.8,12.4C208.5,279.4,195.1,279.6,180.9,279.6z"/>
	<path class="st40" d="M40.5,208.1c8,0,16,0.2,24,0c5.6-0.2,7.5,3.3,5.9,13.5c-2.5,15.8-4.7,31.8-6.5,47.9c-0.9,8-3,11.4-7.2,9.6
		c-5.6-2.5-1.7-9-1.1-13.3c4.4-32.5,4.5-32.3-14.6-32.7c-4.8-0.1-12.8,5.7-10.1-13.4c0.7-4.9-2.2-4.8-4-4.5c-2.9,0.6-6.7-3.1-8,5.2
		c-2.1,13.6-4.2,27.3-6.3,41c-1.2,8.1,1.9,8.2,5,8.2c8.7,0,17.3-0.2,26,0.2c1.8,0,5-2.7,5.3,3.6c0.2,5-2,6.1-4.6,6.1
		c-12.5-0.1-25,0-37.5-0.1c-4.4,0-5.5-4.4-4.5-11.3c2.5-17,5-34,7.3-51c0.9-6.7,3-9.1,6.8-9c8,0.3,16,0.1,24.1,0.1L40.5,208.1z"/>
	<path class="st39" d="M156,207.8c-2.2,15.2-3.8,29.1-6.4,42.4c-2,10.2,0.1,11.8,5.1,11.3c5-0.4,10.3-0.4,15.4,0
		c2.1,0.2,5.9-2.6,5.5,5.2c-0.3,5.9-0.2,12.9-5.5,12.8c-11.2-0.2-22.4-0.2-33.7,0c-4.2,0-3.8-4.2-3-8.8c2.8-18.6,5.5-37.3,8.6-55.7
		C144.5,200.6,151,211,156,207.8z"/>
	<path class="st41" d="M25.6,262.2c2.1-21,6.5-25.9,17.5-21.4c2.3,1,3.7,2.5,2.6,6.5c-1.5,5.4-0.1,14.7-5.8,14.9
		C35.2,262.4,30.5,262.2,25.6,262.2z"/>
	<path class="st42" d="M101.9,262.6c-2.2,0.3-4.4,0.2-6.6-0.1c-2.1-0.6-5.8,3.3-6.1-3.8c-0.2-5.7,2.1-8.8,5.6-8.6
		c5.7,0.3,11.4,0.1,17.1,0.2c1.9,0,4.3,0.4,4.5,4.4c0.2,3.8-1.3,7.3-3.5,7.7c-0.2,0-0.4,0-0.5,0c-3.5,0.2-7,0-10.5,0L101.9,262.6z"
		/>
	<path class="st43" d="M106.7,223.7c4.2,4.4,11.5-4.3,11.6,6.1c0.1,9.9-7.2,5.9-11.2,5.7c-4.6-0.2-13.2,4.5-13.1-3.5
		C94.2,217.2,103,229.6,106.7,223.7z"/>
	<path class="st44" d="M324.9,261.5c-3.2-2.2-10.1,4.8-11.1-3.6c-1-9,2.3-19.5,4.1-29.1c0.9-4.8,3.8-2.9,6-3.1
		c2.6-0.2,5.2-0.9,7.7,0.1c4.8,2.1,12.7-6.9,13.5,9.8s-4.3,25.1-14.6,25.8C329,261.5,327.4,261.5,324.9,261.5z"/>
</g>
<g class="st0">
	<path class="st45" d="M89.8,224.5c0,8.7,0,17.1,0,25.5c0,1.7,1,4.1-2.5,4c-3.2-0.1-2.3-2.3-2.3-3.9c-0.1-10.8-0.1-21.5,0-32.3
		c0-1.3-0.9-3.1,1-3.7c1.9-0.6,3.4,0.1,4.7,1.8c6.5,8.7,13.2,17.3,19.9,26c0.4,0.5,0.9,1,1.9,2.1v-26.5c0-1.8-0.5-3.6,2.6-3.6
		s2.6,1.9,2.6,3.7c0,10.8,0,21.6,0,32.3c0,1.4,1,3.4-1.1,4c-1.9,0.6-3.4-0.3-4.7-2c-6.2-8.1-12.3-16.2-18.6-24.3
		C92.3,226.6,91.8,225.2,89.8,224.5z"/>
	<path class="st46" d="M21.4,233.2c6.3,3.1,8.2,6,7.6,10.8c-0.6,5-4.1,8.4-10,9.5c-5.3,1-10.7,0.2-16.1,0.5c-1.9,0.1-2-1-2-2.4
		c0-11.8,0-23.5,0-35.3c0-1.2-0.1-2.3,1.6-2.3c5.5,0.2,11.1-0.5,16.5,0.6c4.3,0.9,7.6,3.1,8.4,7.8C28.4,227.4,26.2,230.9,21.4,233.2
		z"/>
	<path class="st46" d="M55.9,254.3c-11.8,0-19.7-8.1-19.7-20.2c0-12.1,8.2-20.8,19.9-20.7s19.5,8.7,19.5,20.6S67.6,254.3,55.9,254.3
		z"/>
	<path class="st45" d="M278.5,236.5c4,5.5,7.9,10.9,11.7,16.3c0.1,0.2,0,0.5,0,0.9c-3.5,1-6,0.1-8.1-3.2c-2.4-3.8-5.3-7.3-7.9-11
		c-1.2-2-3.7-2.9-5.9-2.1c-2.2,0.7-1.1,2.9-1.2,4.4c-0.2,3.2-0.1,6.5,0,9.8c0.1,2.3-1.2,2.4-2.9,2.4s-2.8-0.3-2.8-2.5
		c0.1-11.7,0-23.5,0-35.2c0-1.2-0.1-2.3,1.6-2.3c5.2,0.2,10.5-0.5,15.6,0.7c5.5,1.3,8.1,4.1,8.6,9.1c0.5,5.5-1.5,9.2-6.5,11.7
		L278.5,236.5z"/>
	<path class="st47" d="M346.6,254c-3.2-0.4-8.2,1.7-10.7-0.8c-2.3-2.3-0.6-7.3-0.7-11.1c-0.1-8.2,0.1-16.5-0.1-24.7
		c-0.1-2.8,0.8-3.6,3.6-3.5c6.1,0.2,12.2,0.1,18.3,0.1c1.7,0,3,0,3,2.3c0,2.3-1.5,2.2-3.1,2.2c-4.2,0-8.5,0.1-12.7,0
		c-2.2-0.1-3.2,0.3-3.3,3c-0.3,10.1-0.4,10.1,9.8,10.1c0.7,0,1.4-0.1,2.1,0c1.5,0.1,3.5-0.7,3.5,2.2c0.1,2.9-1.7,2.4-3.4,2.4
		c-3.1,0-6.2,0.1-9.3,0c-2-0.1-2.6,0.6-2.7,2.6c-0.5,10.4-0.6,10.4,9.8,10.4c2.3,0,4.5,0.1,6.8,0c1.8-0.1,2.6,0.5,2.6,2.4
		c0,1.9-0.6,2.6-2.5,2.5C354.1,253.9,350.7,254,346.6,254z"/>
	<path class="st45" d="M252.9,253.7c-3.7,1.1-5.6-0.2-6.8-4c-2.2-6.7-2.5-6.7-9.6-6.7c-0.6,0.1-1.1,0.1-1.7,0
		c-6.5-1.2-10.8,0.8-11.9,7.9c-0.2,1.4-0.9,3-3,3.1c-2.4,0.1-4.2,0.3-2.7-3.3c4.8-11.3,9.3-22.8,13.7-34.3c0.7-1.9,1.7-2.7,3.7-2.5
		c1.6,0.1,3-0.1,3.7,1.9c4.8,12.3,9.8,24.7,14.6,37C253.1,253.1,253,253.4,252.9,253.7z"/>
	<path class="st45" d="M151.2,243.1c-8.3,0-8.3,0-11.5,7.7c-0.3,0.8-0.6,1.6-1.1,2.3c-1.3,1.7-3.3,1.3-4.7,0.8
		c-1.8-0.7-0.3-2.2,0.1-3.2c4.5-11.3,9.1-22.6,13.5-33.9c0.8-2.1,1.8-2.8,4-2.8c2.2,0,3.2,0.9,3.9,2.8c4.4,11.2,8.9,22.3,13.3,33.5
		c0.4,1,2.3,2.8,0.3,3.5c-1.8,0.7-4.3,1-5.3-1.8c-0.6-1.6-1.3-3.1-1.8-4.8c-0.8-3.2-2.5-4.8-6-4.1
		C154.3,243.2,152.7,243.2,151.2,243.1z"/>
	<path class="st46" d="M188.4,233.7c0-5.5,0.1-11,0-16.6c0-2.2,0.3-3.4,2.9-3.2c4.1,0.3,8.2-0.1,12.3,0.3
		c7.3,0.6,11.6,5.2,11.6,12.1s-4.7,11.8-11.8,12.5c-0.4,0-0.9,0.1-1.3,0.1c-8.1,0.3-8.1,0.3-8.1,8.7c0,1.1-0.1,2.3,0,3.4
		c0.2,2.1-0.5,3-2.8,3c-2.3,0-2.8-0.8-2.8-2.9C188.5,245.3,188.4,239.5,188.4,233.7z"/>
	<path class="st45" d="M307.4,236.3c0-4.7-0.1-9.3,0-14c0.1-2.5-0.6-3.7-3.3-3.4c-2.4,0.2-4.8-0.1-7.2,0.1c-2.1,0.1-2.7-0.8-2.7-2.7
		s1.2-2.2,2.7-2.2c8.6,0,17.3,0,25.9,0c1.5,0,2.7,0,2.7,2.1c0,1.9-0.5,3-2.6,2.7h-0.4c-3.1,0.2-7.2-1.3-9,0.6
		c-2.2,2.3-0.7,6.5-0.7,9.8c-0.1,6.9,0,13.9-0.1,20.8c0,1.8,0.9,4-2.6,4c-3.3,0-2.8-1.9-2.8-3.8L307.4,236.3z"/>
	<path class="st48" d="M134.2,214.8c-1.5,4.7-2.7,8.4-3.9,12.1c-0.3,0.9-1.2,1.1-2.1,0.9c-0.9-0.2-0.7-0.9-0.6-1.6
		c0.7-3.6,1.4-7.2,2.2-10.7c0.4-1.8,1.8-1.4,3-1.4C134.1,214,134.2,214.7,134.2,214.8z"/>
	<path class="st49" d="M6.4,242.3c0-6.5,0-6.5,6.4-6.5c1.7,0,3.4,0.1,5,0.3c3.4,0.6,5.6,2.5,5.5,6.3c0,3.8-1.8,6-5.3,6.5
		c-3.2,0.3-6.4,0.5-9.7,0.4c-1.7,0.1-2.1-1-2.1-2.4C6.4,245.5,6.4,243.9,6.4,242.3z"/>
	<path class="st50" d="M11.9,218.4c7.3,0,10.3,2,10.3,6.6c0,4.5-3.5,6.9-10.3,6.8c-6.5,0-5.5,0.8-5.6-5.7c0-0.7,0-1.4,0-2.1
		C6.4,218.4,6.4,218.4,11.9,218.4z"/>
	<path class="st51" d="M42,233.8c0.1-9.3,5.5-15.4,13.9-15.4c8.4,0,14.2,6.4,14.1,15.8c-0.1,9.4-5.7,15.3-14.1,15.3
		C47.2,249.4,41.9,243.5,42,233.8z"/>
	<path class="st51" d="M272.9,218.4c0.7,0.1,2.4,0.3,4,0.7c2.9,0.5,5.1,3,5.1,5.9c0.4,3.1-1.3,6-4.1,7.2c-2.8,1.3-5.8,1.1-8.7,1.1
		c-1.9,0-2-1.2-2-2.5c0-2.5,0-5.1,0-7.6C267.2,217.8,266.4,218.5,272.9,218.4z"/>
	<path class="st49" d="M234.8,220.3c2.3,5.9,4.2,11,6.3,16.1c0.8,2.1,0.4,2.7-1.9,2.6c-3.7-0.2-7.3-0.2-11-0.3
		c0.2-3.7,2.2-6.8,3.4-10.2C232.5,226.1,233.5,223.7,234.8,220.3z"/>
	<path class="st50" d="M144.4,238.7c0.2-0.8,0.4-1.4,0.6-1.9c2.1-5.4,4.1-10.8,6.4-16.5l7.1,18.4H144.4z"/>
	<path class="st50" d="M193.9,226.6c0-0.3-0.1-0.6,0-0.8c1.3-2.4-3.2-7.4,3.4-7.4c8.4-0.1,12.1,2.2,12.3,7.7
		c0.2,4.9-3.2,8.2-8.6,8.5C193.9,235,193.9,235,193.9,226.6z"/>
</g>
<g>
	<path class="st52" d="M104.7,165.7c-0.1-12.9,0-25.8-0.5-38.7c-0.3-7.2,5.3-3.9,8.2-5.4c4.2,0.4,8.5,0.7,12.6,1.2
		c5.8,0.6,9,4.1,9.8,9.7s-0.4,10.1-6.5,11.8c-4.1,1.1-2.9,3.3-1.4,5.8c2.7,4.6,5.2,9.2,7.8,13.9c-8.3,2.8-16.6-6.8-19-21.6l0.6-0.9
		c2.4-1.8,6.3-1.6,7.4-5.3c2.3-8.8-6.3-6.8-9.7-9.8c-3,10.3-1.2,20.9-1.2,31.4C112.9,164.4,110.8,166.6,104.7,165.7z"/>
	<path class="st53" d="M56.3,161.5c-4.2-5.4-7-11.3-6.7-18.4c0.4-10.4,7.1-19.4,16.2-21.4c10.2-2.1,19.7,2.4,24.2,11.4
		c4.5,9,2.2,22.1-4.9,28c-2.5,1.9-5.2,3.7-7.9,5.3C69.6,167.1,62.5,166.3,56.3,161.5z"/>
	<path class="st54" d="M189.8,132.7c-2.5,9.5,3.6,8.8,9.8,8.6c2,0,5.6-1.3,5.5,2.1c-0.1,2.5-3.5,1.5-5.5,1.6
		c-9.5,0.4-12.4,4.6-10.2,14.3c0.7,3.1,2.6,2.6,4.7,2.9c4.2,0.6,8.8-1.3,13.7,1.9c-6.4,3.5-12.7,0.6-18.3,2.1l-0.6-0.2l-0.5,0.3
		c-7.4,0.7-8.2-4.3-8.4-9.8c2-9.4,1.1-19,1.1-28.5c0-4.4,1.2-6.2,5.9-6.1c6.5,0.3,12.9,0.1,21.4,0.1c-4.8,5-8.6,3.7-11.9,3.5
		C190.9,125.2,188.2,126.8,189.8,132.7z"/>
	<path class="st55" d="M245.1,121.7c0.8,6.8-4.5,3.6-7,3.8c-7.9,0.5-11.5,6-8.5,13.5c0.9,2.4,2.8,1.9,4.5,2.2
		c3.3,0.5,6.8-1.2,10.2,1.7c-3.1,3.5-6.9,1.6-10.2,2.1c-2.6,0.4-4.9-0.7-3.4,4.3c1.2,3.9-1.5,9-1.4,13.8c0,2.9-2.7,2.7-4.9,2.7
		c-3.3,0.1-3.8-2.1-3.9-4.8c-0.1-8.9-0.3-17.8-0.4-26.7c0.9-12.3,0.9-12.3,14-12.3C237.8,122,241.4,121.8,245.1,121.7z"/>
	<path class="st56" d="M3,132.7c8.9-12.6,24.4-15.3,34.1-6.1c1.1,1.1,3.9,2.1,1.9,4.3c-1.7,1.9-2.7-0.5-3.8-1.4
		c-11.4-9.1-22.1-5.1-24.9,9.2c-1.2,5.5-0.4,11.3,2.2,16.4c4.6,9.1,15.1,10.4,22.8,3.2c1.4-1.3,2.1-5.8,4.9-3.3
		c2.4,2.1-1,3.9-2.5,5.5c-0.4,0.7-0.7,1.4-0.9,2.1c-9.3,5.3-18.8,6.2-27.5-0.8C-0.7,153.9-0.2,143.4,3,132.7z"/>
	<path class="st57" d="M144.8,123h23.5c-10.5,1.2-7.5,9.1-7.6,15.2c-0.1,7.5-0.1,14.9,0,22.4c0,3.3-0.8,4.9-4.5,4.9
		c-3.6,0-3.9-2.1-3.9-4.7c0-8.5-0.2-17.1,0.1-25.6C152.6,129.3,152.8,124,144.8,123z"/>
	<path class="st58" d="M114,126.5c11.4-1.1,14.1,1.4,11.6,11.1c-3.1,2-6.8,2.9-9.9,4.9h0.1C112.2,137.5,114.8,131.8,114,126.5z"/>
	<path class="st59" d="M94.5,214.9c5.6,0.1,11.2-0.1,16.8,0.4c5.5,0.5,10.5,3,11.9,8.9c1.4,5.7-0.2,10.5-5.8,13.6
		c-1.2,0.7-3.6,1.2-2.1,3.2c4.7,6.1,8.7,12.7,14.6,17.7c0.5,0.3,0.6,0.6,0.4,0.8c-0.2,0.3-0.3,0.4-0.5,0.4
		c-9.8,3.3-13.7-3.6-17.6-10.3c-2.3-4-4.7-9.6-9.3-8.4s-1.4,7.4-2.1,11.3c-0.6,3.2,0.5,5.7,5.5,7.2c-6,0.9-12,1-18,0.3l0,0
		c2.3-7.3,2.1-14.8,2.1-22.3c0-2.9,0.3-5.8,2.3-8.1c1.2-5.4,0.5-10.2-5.2-14L94.5,214.9z"/>
	<path class="st60" d="M15.6,260.3C2.4,255.4-3.2,243,1.8,229.2c4.3-11.9,17.7-16.9,30.3-13.5c8.9,2.4,10.9,6.4,8.4,14.3
		c-2.4-0.5-2-2.9-2.8-4.4c-2.9-5.6-7.1-9.2-13.7-9.2s-10.8,4-13.5,9.7c-5.4,11.2-1.9,28.5,8.5,32.4
		C19.2,261.7,17.3,260.8,15.6,260.3z"/>
	<path class="st61" d="M92.8,229.6c0.1,7.6-0.1,15.3,0.5,22.8c0.3,4.3-1.9,6-5,7.6l-1.6,0.4l-0.2-0.3c-3.6-0.9-6.5-3.7-7.5-7.3
		c-2-7.2-7.9-13.2-6-21.4C79.7,232.1,86.2,230.5,92.8,229.6z"/>
	<path class="st62" d="M73,231.4c4,9.8,6.2,20.5,13.5,28.7H71.2c6.7-5.9,0.2-10.9-0.7-16.3c-1.3-1.2-2.4-2.6-3.2-4.2
		c-2-3.6-3.3-7.7-5.1-11.4c-0.5-1.2-1.2-2.3-1.8-3.5c0.1-1.3,0.7-2.9,0.1-3.8c-1.8-3.4,1.2-4.3,2.8-5.2c2.5-1.3,3.4,0.5,4.2,2.9
		C68.9,223,71.1,227.1,73,231.4z"/>
	<path class="st62" d="M60.3,224.7c1.5,0,3-0.1,3.6,1.7c-2.4,3.6-2.1,8-4.5,11.7c3.8,1,6.7,0.5,9.5,1.1c1.6,1.2,1.4,3,1.5,4.7
		c-3.1,0.1-6.3-0.1-9.4-0.4c-6.4-1-6.7,4-8.7,7.9c-2.2,4.2-0.6,6.5,4.1,8.4c-4.2,1-8.6,1.1-12.9,0.1c5.5-3.7,6.2-10.1,8.6-15.6
		C54.9,237.9,57.6,231.3,60.3,224.7z"/>
	<path class="st63" d="M185.8,335.5c3,8,1.8,15.5-3.2,22.4c-2.3-0.3-5,1.3-6.7-1.5c-0.5-5.4-5.3-10.2-2.4-16.1
		c0.6-0.4,1.5-0.3,2,0.2c2.3,3.3,1.9,7.7,4.4,11.3c5.9-4.5,1.3-11.2,4-16.1C184.3,335.2,185.1,335.1,185.8,335.5z"/>
	<path class="st64" d="M41.2,259.9c-2.7-1.9-5.3-3.4-8,0l-2.8,0.3c-1.7,0.5-2.1-0.2-1.7-1.7c6.4-2.1,8.9-7.6,12.4-13V259.9z"/>
	<path class="st64" d="M28.7,258.6l1.7,1.6c-4.6,2.4-10.1,2.4-14.8,0c1.2-0.5,2.7-0.2,3.3-1.7L28.7,258.6z"/>
	<path class="st65" d="M330.5,260.2c-6.7-0.2-10.1-5.2-13.8-9.7c-5.9,10.2-5.9,10.1-19.2,9.8c-7.2-0.1-14.4,0-21.6,0
		c5-4,7.1-9,2.8-14.3c-1.7-2.1,0.3-1.5,0.5-2.1c2.8-7.9,1.1-16.1,0.9-24.1c0-2-2.3-2.6-3.9-3.4c-0.1,0-0.1-0.6,0-0.6
		c0.5-0.3,0.9-0.5,1.4-0.7h14.3c-6.6,4.9-4.6,12.1-4.8,18.6c-0.3,3.7-0.2,7.5,0.1,11.2c0.7,5.7-4,14.4,8,14.1
		c11.4-0.4,19.4-6.7,19.2-16.6c-0.4-11.5,1.7-21.4,14-25.8c1.6-0.6,2.3,0.3,2.5,1.7c-1.8,5.5-6.1,9.7-6.5,16
		c-0.5,8.9,1.3,16.8,6.7,23.8C331.4,258.8,331.1,259.6,330.5,260.2z"/>
	<path class="st66" d="M236,259.7c2.4-1.4,5.3-1.9,5.2-5.9c-0.4-11.3-0.4-22.6-0.6-33.9c-1.4-1.1-3.4-1.1-4.7-2.4
		c-0.3-0.3-0.5-0.8-0.5-1.2c0-0.4,0.1-0.7,0.2-0.7l33.7-0.4c1.8,3.7,2.8,7.8,3,11.9c-5.4-6.7-10.4-11.4-18.8-10.5
		c-4.1,0.4-5.9,1.3-5.4,5.5c0.2,1.8-0.2,3.8,0.1,5.6c0.5,2.8-2.1,7.1,2.1,8.3c4.2,1.2,8.6,0.7,10.8-4.4c0.6-0.9,1.3-1.8,2.1-2.6
		v18.1c-1.7-2.8-2.6-5-4.2-6.4c-2.6-2.4-6.2-2.1-9.1-1.2s-1.9,4.2-1.6,6.2c0.7,4.3-3.2,10.8,3,12.6c6.2,1.8,13.4,1.7,18.1-5
		c1-1.5,2.3-2.8,3.8-4.5c0.8,11,0,12.2-9.3,11.7C254.7,259.8,245.3,261.5,236,259.7z"/>
	<path class="st67" d="M330.5,260.2v-1.7c0.2-0.2,0.4-0.5,0.6-0.5c19.3-4.1,25.2-19.4,13.8-35.9c-1.1-1.2-1.8-2.6-2.1-4.2
		c0.7-2.1,2-2.3,3.8-1.2c10.1,5.1,14.4,12.6,13.2,23.8c-0.5,4.4,0.1,9.2-3.9,12.6C348.6,259.9,340.6,263.7,330.5,260.2z"/>
	<path class="st68" d="M215.7,290.9c-1,4.6-1.1,9.4-0.5,14.1c-0.3,4.2-0.6,8.4-0.9,12.6c-1.2,1-0.4,3.5-2.7,3.6
		c-3.3-9.3-0.3-18.6,0.5-27.9C212.2,291.9,214,291,215.7,290.9z"/>
	<path class="st65" d="M346.5,216.7l-3.2,1.4c-4.2,1.7-8.8,1.7-13,0.1l-1.9-1.8C334.5,213.5,340.6,212.6,346.5,216.7z"/>
	<path class="st69" d="M178,260c4.4-1.9,5.8-4.9,5.5-9.8c-0.5-8.8-0.1-17.6-0.1-26.4c0-3.2,0.1-6.3-4.1-7.8
		c7.7-2.5,11.9-0.5,14.7,6.7c3.6,9.4,8.5,18.3,12.9,27.4c1,1.1,4.6,1.5,4.5,3.5c-2,2.2-3,4.4-5.7,6.4c-3.5-1.3-6.3-3.8-8-7.1
		c-3.9-8.1-7.6-16.3-11-23.6c2.4,2.8,1.2,7.2,1.4,11.3c0.4,5.7-1.2,11.8,3.2,16.8c1.7,1.9,1,3.6-1.8,3.5
		C185.8,260.6,181.8,261.9,178,260z"/>
	<path class="st61" d="M178,260h12.8c-5.5-4.1-5.9-6.6-4.4-36.3l17.4,36.3c-4.1,3.7-8.4,5.8-13.9,2.3
		C186.3,260.1,181.4,263.6,178,260z"/>
	<path class="st67" d="M148.9,226.2c1.2-4.1,0.1-9.3,6.1-11.4c7.6,14.4,10.5,31.1,20,45.2h-14.9c6.5-5.3,0.5-10.5,0-15.7
		c-0.8-1.3-2.4-1.7-3.1-3c-2.1-4-3.8-8.2-5.1-12.5c-0.6-2-1.4-0.1-2-0.4C148.8,228,148.1,227.4,148.9,226.2z"/>
	<path class="st61" d="M145.8,282.3c1.6-7.7,8.4-12.6,17-10.6c6.1,1.4,11.3,0.4,17-1.1c5.1-1.4,11.1-3.2,14.2,3.9
		c-4.1,3.6-9.4,1.5-14,2.9c-3.5,1.1-7,1.5-9.9,4.1c-0.5,0.7-1.1,1.2-1.8,1.7c-0.7,0.5-1.6,0.9-2.4,1.2
		C159.2,284.3,152.1,287,145.8,282.3z"/>
	<path class="st62" d="M235.7,215.5v0.8c-0.3,1.9-1.3,2.7-3.3,2.4s-3.1,0-3.1,2.2c0,11.2,0.1,22.3-0.1,33.5
		c-0.1,3.1,2.3,3.7,4.2,5.7h-17c0.3-1.7,2-1.3,3.1-1.9c0.5-0.7,0.8-1.6,0.9-2.4c0.3-11.4-0.1-22.8,0.2-34.2
		C222.5,211.6,230,215.7,235.7,215.5z"/>
	<path class="st61" d="M168.2,279.1c8-3.9,16.9-5.5,25.8-4.6h4.9c-0.1,2.6-2.4,5.2,0,7.8c-1.4,2.3-1.6,5.1-0.7,7.6
		c1,2.8,0.5,5.9-1.2,8.3c-0.5,0.6-1.1,1.1-1.9,1.4c-3.6,1-6.2-0.9-8.6-3.2c-1.9-2.6-0.8-5.4-0.2-8.1c2.3-4.7,1.9-7.2-4.4-7
		C177.3,281.6,172.2,283.2,168.2,279.1z"/>
	<path class="st61" d="M221.1,258.1l-0.7,0.1l-0.7-0.1c-1.9-3-4.4-4.8-8.1-4.5c-1.4-0.9-2.6-2-2.1-3.9c2-7.2,5.8-13.6,9-20.2
		c0.5-1,1.9-0.4,2.9,0.1C222.4,239.1,222.9,248.6,221.1,258.1z"/>
	<path class="st67" d="M158.4,240.5l1.7,3.9c-3.2-0.2-6.4-0.2-9.5-0.8c-5.8-1-7.1,2.9-8.7,7c-1.7,4.1-2.1,7.4,4,9
		c-6.3,2.1-11.2,0.1-16.2,0.3c0-0.4,0-0.8,0.1-1.2c13.5-6.7,12.1-22,19.1-32.5l1.2,1.7c0.6,0.2,1.1,0.7,1,1.1
		C148,236.3,151.8,239.3,158.4,240.5z"/>
	<path class="st70" d="M174.9,340.4h-1.5c0-1.8,1.7-3.4,0.3-5.7c-0.8,1.4-1.5,2.6-2.2,3.8c-6.5,12-6.5,12-16.6,2.4
		c0.2-0.7,0.8-1.2,1.4-1.4c2.3-0.4,4.2,0.7,6.1,1.9c6.3-1.8,7.1-6.3,5.8-11.9c-0.7-1.9-1.6-3.7,0.5-5.3
		C179.8,328.1,182,334,174.9,340.4z"/>
	<path class="st71" d="M145.8,282.3l22.6,0.3l0.3,1c-1.2,2.6-1.9,5.6-5.6,5.9c-1.1-0.2-2.3-0.6-3.3-1.1c-6.6-1.2-13.4,0.8-19.9-1.5
		c-1.2-0.6-2-1.7-2.3-3C139.9,281.6,143.1,283,145.8,282.3z"/>
	<path class="st72" d="M155,340.9c-4.4-1.9-2.1-4.1,0-5.8c4.1-3.4,3.3-5.4-1.3-7.6c-4.5-2-7.4-6.4-7.5-11.3c0.6-0.5,1.3-0.7,2.1-0.6
		c1.9,0.7,2.6,2.4,3.6,4c3.2,5.1,7.7,5.6,12.9,3.6c0.7,0,1.5,0.3,2.1,0.7c-0.9,7.1-6.3,11.1-10.8,15.8
		C155.7,340.2,155.4,340.5,155,340.9z"/>
	<path class="st62" d="M220.6,225c0.6,0.5,0.1,4,0.7,4.5c-2.6,5.5-5.1,12.7-7.9,18c-1,1.9-1.6,3.9-1.9,6c-0.6,0-1.3,0.4-1.7,0.1
		c-1.5-0.6-2.6-1.9-2.8-3.5C210.6,242.7,217,232.4,220.6,225z"/>
	<path class="st73" d="M137.5,283.9l1.8,1.5c1.6,3.9,9.5,1.7,8.4,8.4c-0.5,0.5-1.4,0.5-1.9,0c0,0,0,0,0,0c-1.9-0.6-4-4-5.2-2.3
		c-3.1,4.4-5.7,3.4-7.4-0.2C131.3,287.6,133.5,284.9,137.5,283.9z"/>
	<path class="st74" d="M145.7,293.8c0.5,0.1,1,0.1,1.4,0.1c4.3,7.5,3.9,14.9,0.1,22.4c-0.4-0.1-0.7-0.1-1.1-0.1
		C146,308.7,145.9,301.3,145.7,293.8z"/>
	<path class="st75" d="M342,166.7c-4.1,0.2-8.1-1.2-12.5,0c-2.3,0.6-7.3,0.2-7.1-5.1c0.1-11.2,0.1-22.5,0.2-33.7
		c0-2.9-0.5-6,4.2-5.9c4.7,0,4.2,3.1,4.2,6.1c0,9.1,0.2,18.2-0.1,27.3c-0.2,4.9,1.4,6.3,6.3,6.6c3.5,0.2,8.7-3.6,10.8,2.8
		C346.4,166.5,344.1,166.4,342,166.7z"/>
	<path class="st76" d="M307.6,166l-3.8,0.1l-21-0.5c-0.3-2.4-0.5-4.9-0.8-7.3c-3.3-8.1-3.6-16.1,0.1-24.1v-9.6
		c1.1-3.8,4.2-2.6,6.6-2.5c6.4,0.2,12.9-1,20.6,1.1c-5.2,3.8-9.6,2.4-13.5,2.4c-6.1-0.1-5.3,3.9-5.1,7.5c0.1,3.6-1.7,8.5,5.2,8.3
		c3.5-0.1,7.3-1.2,10.7,1.5c-2.3,3.4-5.6,2.3-8.2,2c-7.4-0.9-7.9,2.9-8,8.9c-0.1,6.5,1.7,9.4,8.5,8.4c2.4-0.3,4.8-0.2,7.2,0.2
		C308.6,162.7,308.1,164.5,307.6,166z"/>
	<path class="st53" d="M266.8,156.7v1.7c-0.8,2.8,1.3,7.4-4.6,7.3c-6.1-0.1-3.9-4.7-3.9-7.5c-0.2-9.8-0.1-19.7,0-29.5
		c0-3-1-6.6,4.2-6.6c5.6,0,3.7,3.9,4,6.7c0.2,1.8,0.2,3.7,0.3,5.6l0.3,19.3C267.5,154.6,267.4,155.7,266.8,156.7z"/>
	<path class="st77" d="M115.6,142.5c2.4-3.4,5.3-5.9,9.9-4.9C123.9,142.5,119.9,142.7,115.6,142.5z"/>
	<path class="st78" d="M83.6,143.6c-0.1,3.5-0.7,7-1.8,10.3c-1.7,5.5-4.8,9.6-11.2,9.5c-6.1-0.1-9-4.2-10.6-9.2
		c-2.1-6.7-2.1-13.8,0-20.4c1.6-5.1,4.6-9,10.7-9.1c6.1-0.1,9.1,3.9,10.8,8.9C82.7,136.7,83,140.2,83.6,143.6z"/>
	<path class="st79" d="M215.7,290.9c-2.7,1.2-2.8,3.6-2.7,6.1c0.4,8.1-0.1,16.3-1.5,24.3c-1.3,1.5-2.6,3-3.9,4.5
		c-3,1-5.5,3.5-8.8,3.8c-1.2-0.4-2.2-1.1-3-2.1c-4.1-8.3-3.6-9.6,4.4-12.5c4.8-1.7,7.3-5.1,7.4-10.2c0-2.8,0-5.5,0-8.3
		c0.2,3,0.2,6,0,9c-0.1,4.4-3,8.2-7.3,9.4c-2.1,0.7-4.3,1.1-5.5-1.4c-1.1-2.1-1.1-5.1,0.8-5.8c7.1-3,5.6-9,5.9-14.5
		c-0.1,2.5-0.2,5.1-0.2,7.6c0.2,2.5-1.7,4.7-4.2,5c-1.3,0.4-2.8-0.2-3.4-1.4c-1.5-2.7-0.2-4.5,2.1-5.9l-0.1,0.1
		c2.7-2.8,2.8-6.1,1.8-9.6c-0.6-1.9-0.5-4.4,1.8-4.4c9.3,0,19-3.2,27.8,2.8c-0.2,3.7-0.4,7.4-5.5,3.4
		C219.5,289.3,217.6,289.9,215.7,290.9z"/>
	<path class="st80" d="M185.8,335.5h-1.6c-4-1.2-2.8-3.6-1.1-5.8c1.6-2.1,3.7-3.6,6.2-4.4c0.8-0.1,1.6,0.1,2.2,0.5
		c2.1,2.3,4.4,4.5,2.9,8c-0.5,0.9-3-0.1-2,2.1c1.4,3.1,3,5.9,5.9,7.9c0.5,0.5,0.9,1.2,0.9,1.9c-2.6,3.9-4.7,4.2-7.1-0.5
		C190.4,341.9,189.9,337.4,185.8,335.5z"/>
	<path class="st81" d="M198.5,328.1l9.1-2.3c-3.5,3-7.4,5.8-1.3,10.2c2.5,1.8,1.1,3.6-0.8,5l-6.3,4.7c-0.2-0.3-0.5-0.7-0.8-0.9
		c-1-1.2-1.1-2.9-0.2-4.2c2.1-1.6,3.4-3.2,1.6-5.9C198.5,332.8,197.1,330.7,198.5,328.1z"/>
	<path class="st82" d="M209,329.4c3.6,0.4,5.8-2.5,8.6-0.2c0.3,0.2,0,1.8-0.5,2.1C214.4,333.2,212.1,332,209,329.4z"/>
	<path class="st61" d="M100.1,227.8c2.6-3.5-3.6-10.7,5.3-11c5.6-0.3,10.4,4,10.7,9.6c0,0.3,0,0.6,0,0.9c0,6.6-4.3,10.8-11.3,10.6
		C96.3,237.6,103.1,230.7,100.1,227.8z"/>
	<path class="st83" d="M69,239.2c-3.6,3.4-7.7,1.3-12.4,1.4c2.9-5.1,1.6-11.4,7.4-14.3C65.6,230.7,67.3,234.9,69,239.2z"/>
	<path class="st84" d="M190.3,325.5c-1.7,3.6-9.8,3.2-6.2,10.1c0,5.1,2.4,10.2-0.2,15.3c-1,1.9-1.5,4.7-3.6,4.8s-3.3-2.4-3.7-4.5
		c-0.8-3.5-2.4-7-1.7-10.8c6-8.8-1.2-12.1-6.7-16.1l-0.9-0.9c-5-8.8-3.8-17,2-24.9c2.3-2.8,3.7-5.7,2.7-9.5c-0.5-1.8-0.4-3.8,1.5-5
		c1.9-1.1,3.6-0.1,4.9,1.4c4.2,5.2,4.7-4.1,8-2c3.3,1.6,1.9,4.1,1.2,6.5l-0.5,5.4C197,306.4,198.1,316.6,190.3,325.5z"/>
	<path class="st85" d="M227,287.4c-9.4-3.2-19-1.2-28.4-1.7c-1.3,4.6,3.9,10.2-3,12.9c1.8-3.9,1.1-7.7-0.3-11.5
		c-1.2-3.5,0-5,3.5-4.9c6.3,0.1,12.6,0.2,19,0.3C221.7,282.6,225.1,283.6,227,287.4z"/>
	<path class="st61" d="M330.4,218.2c4.1-1.8,8.9-1.9,13-0.1c9.1,8.2,11.7,19.2,7.2,30.3c-3.9,9.6-10.1,12.7-20.1,10.1
		C318.5,247,318.5,229.9,330.4,218.2z"/>
	<path class="st86" d="M158.4,240.5c-12.8,1.2-12.8,1.2-8.3-12.6c0.9-0.4,0.7-4.5,2.5-1.1C155,231.1,156.5,235.9,158.4,240.5z"/>
	<path class="st71" d="M184.4,284.2c-1.8,1.7,1.4,5.8-2.8,6.3c-3.2,0.4-5-0.8-4.8-4.4c-0.1-0.9-0.9-1.6-1.9-1.5
		c-0.2,0-0.3,0.1-0.5,0.1c-1.4,0.4-1.1,1.8-0.8,2.6c1.7,4.3,1.8,8.2-2,11.4c-0.7-0.5-1.2-1.1-1.5-1.9c-1.2-4.7-0.8-9.6-1.8-14.3
		l0.1,0.1v-1.7c1.7-1.4,3.6-0.5,5.4-0.7c3,0,5.5,2.8,8.7,1.9C183.5,282.4,184.2,283.2,184.4,284.2z"/>
	<path class="st87" d="M175.1,281.3l-6.8-0.3l-0.1-1.9h23.6c-0.7,3.8-2.2,7.5-4.3,10.8c-1.1-1.9,1.9-6.1-3.2-5.7l-1.5-1.5
		c0.5-0.8,1.2-0.8,2-0.9s0.9-0.3,0.4-0.1c-0.5,0.1-1,0.1-1.6,0.1C180.9,282.1,177.9,282,175.1,281.3z"/>
	<path class="st88" d="M190.3,325.5c6.9-10.9,3.2-20.7-3.3-30.2c3.2,0.4,4.8,4.9,8.7,3.3c0.2,2.1-4.2,5.1,0.7,6.1
		c3,0.6,3.8-2.1,4-4.7c0.2-3.6-0.3-7.4,2.6-10.6c-0.1,8.7-0.6,10.2-6.4,18.8c-1.1,1.6-1.2,3.6-0.2,5.3c1.3,2.1,3.3,1,4.9,0.1
		c3.8-2.1,5.5-5.3,5.6-9.8c0.1-4.1-1.2-8.4,1.8-13c0,5.6,0,10.3,0,15.1c0,4.7-2.4,8.8-6.7,9.7c-9.1,1.9-8,6.3-4.1,12.1
		c-2.4,1.3-4.4-0.4-6.5-1.2C191,326.2,190.7,325.8,190.3,325.5z"/>
	<path class="st89" d="M156.1,339.8c1.1-7.1,7.7-10,11.3-15.3c0.2-0.8,0.5-0.8,1.1-0.3h-0.1c0.4,1.7,0.8,3.4,1.2,5.1
		c-0.3,5.8-3.6,9.7-7.8,13.2L156.1,339.8z"/>
	<path class="st90" d="M161.6,342.5c1.2-5.3,5.1-8.9,7.8-13.2c1.9,0.5,3.6,1.1,2.3,3.7c-1.9,3.7-3.4,7.7-5.7,11.1
		C163.5,347.9,162.6,344.7,161.6,342.5z"/>
	<path class="st79" d="M147.3,316.3c0-7.5,0-14.9-0.1-22.4c-2.3-6.5-7-5.4-11.9-3c-0.7-4.2,1.8-4.7,4-5.5c7.6,1.6,15.7-1.9,23.1,2.2
		c2,3.8,1.4,8.4,4.3,11.9c1.9,2.3,0.5,4.8-1.9,5.9s-4.1-0.7-5-2.7c-0.9-2.1-1.3-4.3-1.2-6.6c0.2,3.2-0.1,8,5.6,10.7
		c2.7,1.2,1.8,4.2,0.8,6.4c-1.4,3-4,2.3-6.2,1.2c-3.2-1.6-5.8-3.9-5.6-8c0.2-3.4-0.3-6.9,0-8.4c0.1,1.8,0.1,3.7,0,5.5
		c-0.7,6.4,2,10.4,8.2,11.8c5.6,1.3,5.5,4.7,3.8,8.9c-4.6,5.6-8.9,3.1-12.7-0.9C150.5,321.2,148.8,318.8,147.3,316.3z"/>
	<path class="st91" d="M165,324.3c0.8-4.2,0-7-5.1-8c-5.6-1.2-8.4-5.3-8-11.3c0.4-4.4,0.3-8.9-0.4-13.4c3.2,3.5,2,8,2.2,12.1
		c0.2,4.3,1.2,7.8,5.4,9.8c1.5,0.7,3.1,1.6,4.3,0c1.1-1.6,2.2-4.3,0.3-5.1c-9-3.8-4.9-12.4-7.4-18.5c4,2.2,3.1,6.4,3.8,9.8
		c0.4,2.1,0.4,4.3,3,5c1.1,0.3,2.2-0.3,2.6-1.3c1.4-2.6-1.4-3-2.4-4.3c-2.8-3.6-1.7-7.6-1-11.5l1.3,1.7c2,2.8,2.6,7.2,7.5,6.8
		c0.1,0.9,0.2,1.7,0.4,2.6c-6.6,7.8-5.6,16.6-3.2,25.6l-0.5,0.4l-0.6-0.1L165,324.3z"/>
	<path class="st92" d="M171.2,296.1c-6.7,3.9-7.3,3.3-7.5-6.8l4.6-6.8C171.4,286.3,172.5,291.4,171.2,296.1z"/>
	<path class="st93" d="M191.4,326.5c2.8-2.9,4.1,2.1,6.5,1.2c0.3,0,0.5,0.2,0.7,0.4c-0.3,3.1,2.3,4.5,3.7,6.7
		c0.9,1.3,3.4,2.1,1.8,4.5c-1.6,2.5-3.4,1.8-5.4,0.9c-3-0.8-4.5-2.6-4-5.9C194.5,331.3,190.9,329.8,191.4,326.5z"/>
	<path class="st94" d="M194.7,334.3l4,5.9l-0.3,4.6c-4.9,1.8-4.9-2.6-6.3-5c-1.6-2.7-2.8-5.5-4.3-8.4
		C191.6,329.9,191.8,334.9,194.7,334.3z"/>
	<path class="st95" d="M187.8,308.2c3.2,2.5-3.2,4.3-0.5,6.8c-2.9,2.2-4.6,6.9-9.6,4.7c-0.9-1.7-0.4-3.6-0.4-5.3
		c-0.2-4.3-3.3-9.2,2.1-12.6c0.3-0.1,0.6-0.2,0.9-0.1c1.7,1,3.6,2.9,3.5,4.1C183.1,310.7,186.3,307.9,187.8,308.2z"/>
	<path class="st96" d="M178,319.4l3.1-0.1c-1-5.9,3.6-3.6,6.3-4.3c-0.4,1-0.5,2-0.5,3c1.1,6.1-0.9,7-5.8,3.6c-0.8-0.5-2-0.3-3-0.4
		C177.6,320.7,177.6,319.9,178,319.4z"/>
	<path class="st97" d="M179.5,301.9c-4.5,4.3,1.4,8.6-0.1,12.9c-2.3,1.5-3.6,0.5-4.6-1.7C170.3,306.7,175.2,304.5,179.5,301.9z"/>
	<path class="st98" d="M174.7,313.1l4.6,1.7c1.1,2-0.8,3.1-1.4,4.6v1.9c-0.5,1.5-1.9,2.6-3.5,2.6c-2.1-0.2-1.7-2.4-1.4-3.8
		C173.5,317.8,171.6,314.8,174.7,313.1z"/>
	<path class="st99" d="M187.8,308.2c0.2,2.9-4.1,0.5-4,3.4c0.1,1.5-1,1.7-1.9,1.1c-0.5-0.5-0.7-1.3-0.6-2c4.9-3.5-0.2-6.1-0.9-8.9
		C184.5,301.9,185.1,306.3,187.8,308.2z"/>
	<path class="st100" d="M333.2,231.2c4-3.5,7.9-2.2,11,1.1c2.8,2.9,4.1,6.5,0.7,10.1c-1.7,2.3,0-6.1-2.8-0.8
		c-1.4,2.7-4.2,1.5-6.4,1.5c-2.7,0-3.4-2.1-3.8-4.2C331.4,236.2,332.4,233.7,333.2,231.2z"/>
	<path class="st101" d="M333.2,231.2c0.1,1.8,0.4,3.7,0.9,5.4c0.7,1.6-2.7,5.2,2.7,5c3.9-0.1,4.3-2,4.4-4.7c0-1.3-0.1-2.6-0.2-3.9
		c4.9,2,3.3,6.2,3.9,9.5l0.1-0.1c-2.8,4.9-7.3,5.3-11.6,3.1c-4.9-2.5-4.3-7.3-2.9-11.8L333.2,231.2z"/>
	<path class="st102" d="M330.5,233.7c0.2,4.1-1.2,8.8,3.6,11.4c4.4,2.3,7.5-0.9,10.9-2.7c-1.7,7.3-7.6,6-11.7,4.2
		C327.5,244.2,326.9,239,330.5,233.7z"/>
	<path class="st103" d="M175.1,281.3h12.6c-1.1,2.5-3.4,0.7-4.9,1.4C178.8,290.1,178,280.2,175.1,281.3z"/>
</g>
</svg>
