<svg id="Layer_1" data-name="Layer 1" xmlns="http://www.w3.org/2000/svg" viewBox="0 0 342.17 35.94"><defs><style>.cls-1{fill:#010101;}.cls-2{fill:#020202;}.cls-3{fill:#efefef;}.cls-4{fill:#050505;}.cls-5{fill:#3f3f3f;}.cls-6{fill:#030303;}.cls-7{fill:#0e0e0e;}.cls-8{fill:#282828;}.cls-9{fill:#3e3e3e;}.cls-10{fill:#181818;}.cls-11{fill:#e7e7e7;}.cls-12{fill:#e6e6e6;}.cls-13{fill:#070707;}.cls-14{fill:#040404;}.cls-15{fill:silver;}.cls-16{fill:#060606;}.cls-17{fill:#1b1b1b;}.cls-18{fill:#a0a0a0;}.cls-19{fill:#222;}.cls-20{fill:#a9a9a9;}.cls-21{fill:#c2c2c2;}.cls-22{fill:#adadad;}.cls-23{fill:#767676;}.cls-24{fill:#8b8b8b;}.cls-25{fill:#f9f9f9;}.cls-26{fill:#f4f4f4;}.cls-27{fill:#c9c9c9;}.cls-28{fill:#bababa;}.cls-29{fill:#b0b0b0;}.cls-30{fill:#686868;}.cls-31{fill:#ededed;}.cls-32{fill:#eee;}.cls-33{fill:#cacaca;}.cls-34{fill:#e2e2e2;}.cls-35{fill:#f2f2f2;}.cls-36{fill:#f0f0f0;}.cls-37{fill:#c4c4c4;}.cls-38{fill:#f1f1f1;}.cls-39{fill:#8d8d8d;}.cls-40{fill:#828282;}.cls-41{fill:#f8f8f8;}.cls-42{fill:#d1d1d1;}.cls-43{fill:#e0e0e0;}.cls-44{fill:#e3e3e3;}.cls-45{fill:#d3d3d3;}.cls-46{fill:#cecece;}.cls-47{fill:#eaeaea;}.cls-48{fill:#b7b7b7;}.cls-49{fill:#ebebeb;}</style></defs><title>carlings</title><path d="M319,204.46c2,1.12,4.14.75,6.26.56.88-.08,1.64-.05,1.63,1.61.9-1.7,2.09-1.59,3.24-1.61,2.26,0,4.54,0,6.8-.15,2-.13,2.84-1,2.91-2.67.08-1.84-.42-2.49-2.67-2.84a78.06,78.06,0,0,0-11.34-.46c-4.42,0-8.84.08-13.19-.88-2.58-.57-4.93-1.73-5.39-4.54a26.83,26.83,0,0,1-.17-9.83,6.93,6.93,0,0,1,4.71-5.35,21.45,21.45,0,0,1,7.72-1.21c6.63,0,13.26-.2,19.88.13a18.86,18.86,0,0,1,2.48.3c6,1.07,8.22,4.12,7.68,10.19-.08.83-.38.94-1.11.93-2.86,0-5.73,0-8.59,0-.79,0-1.06-.14-1.19-1-.35-2.51-2.73-4.26-5.11-3-1.52.81-3.26.13-4.89.25-2.74.2-5.49.08-8.23.21-1.48.07-2.68.73-2.85,2.41a2.22,2.22,0,0,0,1.77,2.69,22.26,22.26,0,0,0,5.33.46c5.67.08,11.35-.24,17,.47,7.36.93,9.4,3.34,9.41,10.76,0,4-.53,6-2.27,8.12.11-1.51-1.89-.53-1.7-2.21-.92,1,.36,2.22-.81,2.84.71,1.17-.39,1.13-.94,1.29a28.6,28.6,0,0,1-8,.93c-7.15,0-14.3.22-21.45-.14-.42,0-.84,0-1.25-.09-6.85-1.07-8.22-4.15-8.06-10.78,0-.7.29-.92,1-.92,3,0,6,0,9,0,.79,0,1,.29,1,1.06a2.35,2.35,0,0,0,.66,1.78c-.18,1.21-1.92.57-2.09,1.84C317.28,205.66,317.9,204.42,319,204.46Z" transform="translate(-8.91 -177.03)"/><path d="M48.12,178.48c2.72.18,4.34,1.81,5.33,4.17a18,18,0,0,1,1,6.68c0,.82-.35,1-1.07,1-2.93,0-5.85,0-8.78,0-.59,0-1.12,0-1-.82.14-1.34-.88-2.28-1.2-3.48-.15-.59-.59-1.47-1.16-.17-.33.75-.93.32-1.4.33-4.54,0-9.08,0-13.62,0-2.23,0-4.28.51-5.39,2.77-.13.27-.22.42-.64.34-2.36-.41-3.12,2-2,4l2-1.57c0,2.45-.11,4.62,0,6.78.23,3.77,1.58,5.06,5.33,5.25.77,0,1.16,0,1.24,1.08a5,5,0,0,0,.32,2.26c1.22-.29.85-1.28.85-2,0-1,.26-1.35,1.32-1.32,2.62.09,5.26.08,7.88,0,1.27,0,2,1.16,3.37,1.15,1.21,0,1.57-.82,2.36-1.17,1-.44,1.23-.85.94-2.07-.47-2,.37-2.66,2.42-2.67,2.45,0,4.9.08,7.34,0,1.17,0,1.43.36,1.34,1.41a40.84,40.84,0,0,1-.24,4.82c-.84,4.16-3.37,6.54-7.57,7.2-2.36.36-4.78,0-7,.19-4.13.42-8.22,0-12.32.26-1.35.09-2.7-.2-4.09,0-1,.13-2.43.44-2.18-1.51.06-.51-.57-.54-.78-.46-1,.37.34.31.15.66-.27.52,0,1.47-1.18,1.1a16,16,0,0,0-2.11-.34c-.38-.06-.72-.24-.63-.69s.63-.42.86-.27c.83.53,1.05,0,1.22-.63,0-.18.73-.43.07-.5s-.89-1.11-1.76-.25-2,.12-2.13-1.08c-.05-.77-1.58.16-1.23-1.07-.89,0-1.82-.88-2.39-.68-1.47.52-1.53-.53-1.77-1.27C8.51,202.23,9,198.43,9,194.69c0-.89.08-1.75,0-2.66a18.9,18.9,0,0,1,.78-8.14c1.43-3.87,5.1-5.87,9.41-6.38,6.36-.75,12.7-.24,19-.42a33.5,33.5,0,0,1,7.48.54c.83.16,1.83,0,2.41.9a12.12,12.12,0,0,1-3.7.21c-.83,0-1.55.11-1.86.95A7.64,7.64,0,0,0,48.12,178.48Z" transform="translate(-8.91 -177.03)"/><path d="M245.14,184.06c.33.1.39-.52.76-.28.35.45,0,1,.3,1.5,1,1.29,0,2.33-.26,3.43.46-.05,1.1-.6,1.75,0,.74.36.49-.89,1.3-.65.11.4-.25.89,0,1.45.47.91.94,2.08-.6,2.69-.09,0,0,.54,0,.83-.16.17-.43.23-.5.48.32-.37,1-.3,1.2-.81.85-.18,1.73,0,1.76.94,0,1.81,1.26,1.75,2.39,1.58.83-.12,1,0,1,.81,0,3.4.07,6.79,0,10.18,0,1.18-1.68,1.75-1.39,3.14l-.49.07c-.23-1.71-2.66-.85-2.95-2.53,0-.27-.26-.83-.65-.3-.18.25-.87.24-.57.67,1.2,1.73-.82,2.42-.83,4.09-.91-1-.47-2.06-1.21-2.58a3.71,3.71,0,0,1-3.33,1.65c-.92,0-1.14.53-1.63.91-.25.42-.54.69-1,.33.13-.66-.87-1-.51-1.82-1.13,1.45-2.14.2-3.13.18-1.87,0-1.36-1.44-2.09-2.1.82-.42,1.94.24,2.67-.79-.42-.07-.78-.11-1.14-.2s-.67-.3-.63-.73a.73.73,0,0,1,.7-.69c.23,0,.47-.09.7-.1,1.26-.06,2.05-.34,1-1.73-.16-.19-.09-.56-.14-.95-1.37.93-2.68,1.38-4,0-.35-.39-.9-.14-1.36-.19a6.07,6.07,0,0,1-4.81-2.48c-3.13-4.27-6.55-8.32-10.09-12.75v22.08a2.75,2.75,0,0,0-2.59-.09c-1.85.89-2.8.64-4-1a7.76,7.76,0,0,1-.51-.83c-.19.52-.33.89-.44,1.27s-.17.69-.31,1.27c-.85-1.4-1.76-2.19-3-.21,0-.61-.06-.83-.06-1,0-1.32-.46-2.94.15-3.85s2.25.21,3.47,0a4.2,4.2,0,0,0,2.33-.62,11.24,11.24,0,0,0-4.32-1.23c-1.26-.21-1.69-.71-1.68-2.06.09-6.92.06-13.85,0-20.77,0-1.17,0-1.83,1.56-1.67,1.76.19,3.56-.2,5.35.06.8.11,1.27-1.06,2.19-.64l0,0a13,13,0,0,0,7.11.52,2.08,2.08,0,0,1,2.22.92q8.85,11.22,17.78,22.38c.21.27.33.65.84.69-.11-1.41,1-2.75.09-4.21-.09-.15-.48-1,.46-1,.47,0,.42-.25.27-.57-1.58-3.32-.65-6.74-.43-10.14a1.94,1.94,0,0,0,0-.24,24,24,0,0,1,1.16-2.11Z" transform="translate(-8.91 -177.03)"/><path d="M100.72,210.54c-.19.14-.54.26-.55.41-.23,2.2-1.36,1.17-2,.45-1.51-1.63-3.4-.39-5-.84-.59-.15-1.35.29-1.73-.52-.15-.32-1.19-.59-.08-1,.18-.08-.1-.56-.24-.51-.8.33-1-.26-1.16-.75-.41-1.24-1.28-1.46-2.48-1.42-2.62.08-5.26.14-7.87,0-3.61-.2-7.2.09-10.79,0-1.07,0-1.77.29-2,1.28-1.1,4.35-4,5.91-8.14,4.91-2.11-.5-4.16.48-6.42-.13,1.14-2.1,2.23-4.13,3.33-6.15q3.73-6.9,7.49-13.79c.09-.16.24-.32.24-.47,0-1.54,3.6-1.07,2-3.52q1.24-2.35,2.5-4.71c.86-1.63,1.78-3.23,2.59-4.89a2.22,2.22,0,0,1,2.33-1.45c3.76.1,7.52.07,11.28,0a1.79,1.79,0,0,1,1.94,1.17c1.25,2.85,3,5.46,4.3,8.3a20.53,20.53,0,0,0,3,5,4,4,0,0,0-3.47.19c-2.49,1.38-5.07,0-7.6.29-.67.08-.79-.65-1-1.09a47.28,47.28,0,0,0-3-5.35l-6.66,12.87H85.1l-2.32-4.34c2.36-.41,4.45-1.29,6.83,0,1,.57,2.91,1.64,4-.48.25-.47.64,0,.8.25q4.16,7.62,8.29,15.25l-.15.09C102.05,210,101.27,210.06,100.72,210.54Z" transform="translate(-8.91 -177.03)"/><path d="M112.18,212.29c-2.14.08-4.28.18-6.41.25a13.35,13.35,0,0,1-2.4-.13c1.06-.27,1.17-.93,1.14-1.82-.06-2.38,0-4.76,0-7.13.05-8.22,0-16.44,0-24.66,0-.4-.13-.84.19-1.19a39,39,0,0,1,6.57-.17c2.8-.06,5.6,0,8.4,0,.72,0,1.33,0,1.43.92.08.29.12.8-.16.77-2-.28-1.19,1.06-1,1.82.49,1.71-.33,3.27-.49,4.9-.08.77-1.13.34-1.72.36-2.37,0-2.37,0-2.37,2.32a16.18,16.18,0,0,0,0,2c.17,1.4-.11,2.23-1.81,2.25-1,0-1.55,1.11-2,1.91s.7.68,1,1.09a9.14,9.14,0,0,0,6.25,3.46c1.37.12.92,1.26,1.24,2.1.82-.51,1.44-.78,1.19-2.08-.22-1.14.41-2.43.6-3.67.14-.91.76-.95,1.45-.9,3.43.27,6.89-.5,10.3.38.59.15.92-.49,1.43-.69,2.53-1,1.86-3.29,1.84-5.25,0-1.64-1.07-2.43-2.6-2.66-.94-.13-2.23.13-2.74-.39-.72-.73.83-1.51.71-2.49a5.9,5.9,0,0,1,.06-1l-.57.77c-.69.87-1.55,1.84-2.65,1.12-.83-.54-.34-1.64,0-2.47.09-.22.3-.41,0-.55s-.68-.15-.77.18c-.26,1-1.58,1.31-1.19,2.71-1.16-.76,0-2.1-.81-2.36s-1.68.25-2.54.41a1,1,0,0,1-.31,1.31c-.42.4-.05.91-.15,1.35s.32,1.14-.63,1.18-.81-.63-.86-1.2c0-.12,0-.24,0-.36.15-4.79-1-4,4.12-4.32,3.44-.22,6.91.33,10.36-.15.12,0,.31,0,.34,0,.25.39-.23,1.25.9,1.09.82-.13.74-1.05,1.45-1.19s1.66-.4,1.9.36a1.31,1.31,0,0,1-1.32,1.49c-1.34-.26-1.21,1.51-2.33,1.4-.23,0-.21.4,0,.59.61.72.42,1.58.46,2.4,0,.37.13.94.43.87,2-.55,1.17,1.09,1.33,1.8.27,1.31.17,2.7,1.08,4.07a2.49,2.49,0,0,0,.3-1.8c0-.73-.31-1.68,1-1.53.55.06.4-.48.53-.76.89-2,.81-4.19.75-6.43l-.66,1.31c-.12-.13-.24-.21-.24-.28,0-.42.14-.9,0-1.23-.51-1.06-.42-1.76.79-2.22s2.09-.6,2.87.71a10.83,10.83,0,0,1,1.39,3.45,30.38,30.38,0,0,1,.27,7.5c-.18,3.42-1.71,5.89-5.19,6.75,0,.55.37.49.62.56a5.76,5.76,0,0,1,4.33,5.69c.12,2.23,0,4.48.08,6.71,0,.94-.38,1.07-1.17,1.06-2.87,0-5.73-.05-8.6,0-.89,0-1.13-.27-1.08-1.12.07-1.19,0-2.39,0-3.58,0-3.1-1.25-4.38-4.31-4.39-5.23,0-10.47,0-15.71,0-1,0-1.43.19-1.29,1.28a9.18,9.18,0,0,1-.13,2.7c-.7-2-1.13-4.24-3.73-4.7a1.34,1.34,0,0,0-.17-.31c-.38-.4-.68-.48-.64-.39s.26.4.1.64l-2.26.56a6,6,0,0,1,.64,2.52.83.83,0,0,0,.14.32c.5.87-1.26.25-.75,1.16s1.33-.22,1.89.51a22.52,22.52,0,0,0,2.18,2.19c.4.2.78.65.36.9C112.26,211.2,112.55,211.87,112.18,212.29Z" transform="translate(-8.91 -177.03)"/><path d="M152.36,179.4l8.22-.37c2.41-.1,2.45-.05,2.45,2.26,0,2.86-.07,5.73,0,8.59,0,1.16-.37,1.49-1.39,1.4-.48.21-1,.36-1.47.52-.24,0,.09.3,0,.08,0,0,0-.06.14-.09.34-.09.67-.18,1,.15.42.92,1.85,1,1.79,2.43-.05,1.3-.32,2-1.7,2.08a14.36,14.36,0,0,0-1.89.32c.42,1.35,2.18-.28,2.5,1.38s1.85,3.44.63,5.46c1.07.53,2.12-.18,3.2-.17,6.61.05,13.22.06,19.82,0,1.3,0,1.63.4,1.54,1.61-.1,1.36,0,2.73,0,4.1.33,3.4.33,3.4-3,3.4-10,0-20.07,0-30.1,0-1.46,0-1.92-.35-1.91-1.87.07-9.91,0-19.82,0-29.74C152.17,180.44,152,179.88,152.36,179.4Z" transform="translate(-8.91 -177.03)"/><path d="M291.67,211.68c-.6-1.76-2.51-1.28-3.36-1.17-1.09.15-2.12-.1-3.16,0s-2-.43-3,.31c-.69.52-1.06-.18-1.36-.68a4.22,4.22,0,0,0-2-1.95c-.8-.29-2.18-1.15-1.78,1,.19,1-.4,1.55-1.52,1.31a9.81,9.81,0,0,1-3.83-1.62c.57-.32,1-.78,1.64-.81.43,0,.89-.13.66-.68a.61.61,0,0,0-1-.32c-1.23.86-1.64.11-2-.95-.29-.75-1.36-.46-1.86-1.32-.8-1.38-.42-2.6-.18-3.92.11,0,.28,0,.32.09.66,1.09,1.39,3.17,1.93,3.12,1.39-.13,2.65.34,4,.31,4.22-.1,8.45-.13,12.68,0,2.45.07,4.07-1.35,5.85-2.59.13-.09.27-.4.23-.44-1-1-1-2.7-2.26-3.25a8.78,8.78,0,0,0-3.14-.22c-.38,0-.9.4-.81.57,1.24,2.3-1,1-1.26,1-2,.14-3.94,0-5.9.1-.8,0-1.17-.29-1-1,.33-1.35-.17-2.67,0-4s.25-2.42,2.2-2.39c6.86.13,13.73.08,20.59,0,1.12,0,1.54.22,1.49,1.44-.14,3.75.13,7.52-.19,11.27-.35,4-2.46,6.45-6.1,7-.88-.23-1.8.5-2.66-.14-.55-.53-1.19-1-.9-1.94s-.59-.57-1.09-.89c1.25,1.4,1.1,1.9-.73,2.83A1,1,0,0,1,291.67,211.68Z" transform="translate(-8.91 -177.03)"/><path d="M267,177.69a12.6,12.6,0,0,1,4.94-.59c7,0,14-.21,20.94.11a18.17,18.17,0,0,1,1.95.22c7.44,1.13,8.67,5,8.75,11,0,1-.39,1-1.16,1q-4.12-.06-8.24,0c-.9,0-1.37-.09-1.45-1.19a2.75,2.75,0,0,0-2.42-2.5,16.61,16.61,0,0,0-4.1-.26c-4.29.1-8.59-.21-12.88.18a4.17,4.17,0,0,0-4.08,3.56c-.13.59-.09,1.25-1,1-.66-.2-1.15-.52-.81-1.24a1.09,1.09,0,0,0-.1-1c-.17-.41-.22-1.29-.08-1.35,2.35-1,.36-1.46-.2-2.09-.75-.86-1.12-2.11-2.65-2.13a2,2,0,0,0-1.17.35c.23.82-.28.89-.73.65-.79-.42-.13-.83.13-1.23a2.42,2.42,0,0,1,1.57-2.51c.88.23,1.51,0,1.72-1C266.05,178.07,266.55,177.89,267,177.69Z" transform="translate(-8.91 -177.03)"/><path class="cls-1" d="M198.13,178.17l-1.36-.57c1.44-.07,2.43-.12,3.42-.14a.57.57,0,0,1,.4.28c.48,1.1-.54,2.18,0,3.36.17.38-.73.39-1.08.72-1.55,1.41-3.85,1.42-5.42,2.87a3.75,3.75,0,0,0-.57,4.45c.25.33.43.19.72.17,1-.06,2.14-1.32,3.07.26.1.18.61-.29.56-.6-.29-2.19,2.14-2.57,2.63-4.27,0,3.86.46,7.61,0,11.38a24.66,24.66,0,0,0,.2,4.61c.06.82-.27,1.07-1,.9-1.69-.38-3.38-.72-5.06-1.12a1.45,1.45,0,0,1-1.07-.82,3.43,3.43,0,0,0-3.12-1.65c-.6,0-.59-.49-.59-.91q0-8.93,0-17.86c0-.32-.13-.71.33-.91.22-.09,1.4.36.42-.62-.11-.11.32-.25.52-.25a24.21,24.21,0,0,1,5,.09C196.59,177.65,197.16,178.4,198.13,178.17Z" transform="translate(-8.91 -177.03)"/><path class="cls-1" d="M195.14,212.52c-.59,0-1.19,0-1.78,0-3.59-.12-3.6-.12-3.56-3.81,0-1.52-.4-3.41.33-4.47s2.86-.41,4.36-.61a24.52,24.52,0,0,1,5.14-.12c.68.06,1.08.06,1.06.92-.06,2.38-.05,4.77,0,7.15,0,.86-.4,1-1.09,1-1.48,0-3,0-4.45,0Z" transform="translate(-8.91 -177.03)"/><path class="cls-2" d="M264.89,205.54c.07.21.17.64,0,.59-1.58-.43-2.83.49-4.23.85-.75.2-1.64.16-1.93-1a10.59,10.59,0,0,1-.65-3.64c-.15-.73-.58-1.57.72-1.69.38-.45.62,1.52,1.33,0,.4-.87,2.2-.85,2.55-2.26a.49.49,0,0,1,.75.34c.23,1.25.62,1.49,1.86,1,.46-.17.63.05.81.33s.21.76.35.77c2.67.29.57,2.8,1.76,3.8.14.12-.5.34-.79.49s-.6.33-.54-.38c0-.37-.6-.21-.89.08s-.67.14-1,.18C264.29,205.12,264.93,205.37,264.89,205.54Z" transform="translate(-8.91 -177.03)"/><path class="cls-3" d="M152.36,179.4a16.67,16.67,0,0,0-.16,4.23q-.06,10.92,0,21.84c0,.75-.65,1.79.59,2.32.34.15-.1.27-.2.41-.87,1.23-.33,2.61-.35,3.92,0,.53.64.39,1,.39,10.86,0,21.72,0,32.58,0,1.11,0,1.42-.4,1.29-1.43a15.87,15.87,0,0,1,0-2c.62.87.26,1.85.28,2.77s-.81.84-1.44.84c-2.8,0-5.61,0-8.41,0-8,0-16,0-24,0-1.33,0-1.73-.39-1.73-1.73.05-10.07,0-20.14,0-30.22C152,180.34,151.76,179.74,152.36,179.4Z" transform="translate(-8.91 -177.03)"/><path class="cls-4" d="M291.48,212.75a93.92,93.92,0,0,1-10.34.14c-4.81,0-9.65.39-14.44-.53-.26-.05-.61.07-.66-.27H280.3c2.86.61,5.75.1,8.63.29C289.78,212.43,290.71,212.08,291.48,212.75Z" transform="translate(-8.91 -177.03)"/><path class="cls-5" d="M121.08,178.33c-.44-.71-1.13-.68-1.85-.68-4.85,0-9.7,0-14.55,0,.29-.46.75-.27,1.14-.27h30.93a1.45,1.45,0,0,1,1.45.57c-3.28,0-6.2.1-9.11,0-2.57-.11-5.14-.19-7.71-.08C121,177.82,121.18,178.15,121.08,178.33Z" transform="translate(-8.91 -177.03)"/><path class="cls-6" d="M291.48,212.75c-3.19,0-6.38,0-9.56-.05-.58,0-1.36.34-1.62-.61,3.24,0,6.49,0,9.73-.1.55,0,1.19.29,1.64-.31l.47,0a13,13,0,0,1,2.92,0c.72.76,1.76-.61,2.45.37A15.06,15.06,0,0,1,291.48,212.75Z" transform="translate(-8.91 -177.03)"/><path class="cls-7" d="M233.27,207.25c-.59-.79-1.23-1.55-1.76-2.38-.37-.57-.56-1.27.25-1.65s1.26.1,1.61.68C234,204.93,233.68,206,233.27,207.25Z" transform="translate(-8.91 -177.03)"/><path class="cls-1" d="M244.83,212h9.32a3.08,3.08,0,0,1-.07.45c-5.59.19-11.18.3-16.77,0-.07-.4.18-.52.5-.51A68.51,68.51,0,0,1,244.83,212Z" transform="translate(-8.91 -177.03)"/><path class="cls-8" d="M112.18,212.29c-.56-.9.9-1.49.37-2.38.89,0,1.49.8,2.44.77.62,0,.36.75.4,1.18s-.17.74-.59.71c-.59,0-1.34.39-1.73-.44-.11-.25.05-.6-.28-.79C112.33,211.49,112.68,212.17,112.18,212.29Z" transform="translate(-8.91 -177.03)"/><path class="cls-9" d="M215.48,178c-.27-.59-.94-.29-1.44-.55h9c-2.52.78-5.09.39-7.63.51Z" transform="translate(-8.91 -177.03)"/><path class="cls-10" d="M264.21,179.65l-1.57,2.51c-.71.23-1.09,0-1.05-.77-.22-.39-.5-.76-.28-1.25a5.39,5.39,0,0,1,1.82-1.32C264,178.33,264.27,178.82,264.21,179.65Z" transform="translate(-8.91 -177.03)"/><path class="cls-11" d="M247.69,188.69c-.61-.29-1.08.25-1.62.3-.53-1.14.22-2.3-.14-3.42.09-.18.1-.41.36-.45a1.82,1.82,0,0,1,.33,0c.53.43,1.59,0,1.76,1C248.08,187,247.35,187.68,247.69,188.69Z" transform="translate(-8.91 -177.03)"/><path class="cls-12" d="M319,204.46c-.75.54-1.48,1.11-2.24,1.63a1.07,1.07,0,0,1-1.32.07c-.67-.6.35-.64.44-1,.29-1.22,1.68-.68,2.36-1.33A1.15,1.15,0,0,1,319,204.46Z" transform="translate(-8.91 -177.03)"/><path class="cls-13" d="M258.78,200.67c-.73.35-.73,1-.72,1.69-.37-1.27-.07-2.58-.18-3.86-.05-.58.28-1.06.71-1,.61,0,.51.72.7,1.18C259.64,199.52,258.09,199.8,258.78,200.67Z" transform="translate(-8.91 -177.03)"/><path class="cls-9" d="M243.77,186.56c-.75-2.38-.24-4.82-.37-7.23a.51.51,0,0,1,.58-.53c.54,0,.34.45.44.75.26.74-.79.85-.66,1.5a5.68,5.68,0,0,1,.53,3,3,3,0,0,1-.54,2.55Z" transform="translate(-8.91 -177.03)"/><path class="cls-1" d="M206.54,212.11h10.58v.26H206.56Z" transform="translate(-8.91 -177.03)"/><path class="cls-14" d="M243.74,184.38c0-1.11,0-2.22,0-3.33.28,0,.71-.14.62.43,0,.72,1,1.07.76,1.88v.7l0,0C244.82,184.63,244.37,184.87,243.74,184.38Z" transform="translate(-8.91 -177.03)"/><path class="cls-15" d="M244.83,212c-2.05,0-4.09,0-6.13.07-.46,0-1.07-.32-1.39.34-.52-.62,0-.68.41-.7.83,0,1.66,0,2.49,0l1-.33C242.32,212.17,243.74,211.14,244.83,212Z" transform="translate(-8.91 -177.03)"/><path class="cls-16" d="M100.72,210.54c0-1.43,1.19-.8,1.88-1-.2,1-1.51,1.61-.89,2.95C100.48,212.1,101.52,210.93,100.72,210.54Z" transform="translate(-8.91 -177.03)"/><path class="cls-17" d="M248.38,186.15c-.26-.08-.14-.78-.7-.39-.75.51-.91-.08-1.06-.63.31-.14.63-.41.94-.4.51,0,1.11-.76,1.52,0S248.76,185.75,248.38,186.15Z" transform="translate(-8.91 -177.03)"/><path class="cls-18" d="M245.14,183.36c-.33-.59-1-1.05-.76-1.88.47.22,1-.74,1.43.1S245.6,182.85,245.14,183.36Z" transform="translate(-8.91 -177.03)"/><path class="cls-17" d="M261.31,180.14a1.78,1.78,0,0,1,.28,1.25,3.1,3.1,0,0,1-1.94,1A4.57,4.57,0,0,1,261.31,180.14Z" transform="translate(-8.91 -177.03)"/><path class="cls-10" d="M267,177.69a2.07,2.07,0,0,1-1.11,1c-.43,0-1.06.71-1.26-.14-.15-.64.61-.53,1-.64A8.88,8.88,0,0,1,267,177.69Z" transform="translate(-8.91 -177.03)"/><path class="cls-19" d="M246.29,185.12l-.36.45,0-1.79c.28-.32.76-.48.67-1.27C247.66,183.71,245.22,184.17,246.29,185.12Z" transform="translate(-8.91 -177.03)"/><path class="cls-20" d="M110.71,202.65c0-.53-.53-.63-1.21-.9,1-.27,1.73-.38,2.27.08.31.27-.31.54-.35.88Z" transform="translate(-8.91 -177.03)"/><path class="cls-21" d="M264.89,205.54a8.18,8.18,0,0,1-1-.39.42.42,0,0,1-.2-.59.35.35,0,0,1,.59-.06,1.87,1.87,0,0,0,1.66.35C265.82,205.41,265.11,205.09,264.89,205.54Z" transform="translate(-8.91 -177.03)"/><path class="cls-22" d="M161.3,191.94c-.73-.34-1.29.62-2.15.24a3,3,0,0,1,2.53-.9Z" transform="translate(-8.91 -177.03)"/><path class="cls-23" d="M249.14,192.68c.07.85-1.74.7-1,1.94-.45-.68-1-1.33.35-1.61Z" transform="translate(-8.91 -177.03)"/><path class="cls-24" d="M253.76,193.29l.21-2.15C254.63,192.08,254.68,192.72,253.76,193.29Z" transform="translate(-8.91 -177.03)"/><path class="cls-25" d="M336,194.93c-.59.26-1.19.41-1.61-.5-.15-.31-.91-.31-1.13,0-1.3,1.95-2.7.41-4,.09-.74-.18-1.52-.76-2.2-.39-2.07,1.14-4.18.16-6.25.28-.48,0-1.08-.05-1.05-.66s.63-.39,1-.37c2.35.12,4.74-.77,7.07.23a1.05,1.05,0,0,0,.86-.11c2.93-2,6.1.29,9.09-.51.51-.14.54.24.63.6.12.53.11.95-.46,1.19A2,2,0,0,1,336,194.93Z" transform="translate(-8.91 -177.03)"/><path class="cls-26" d="M331.54,209.12v-.67c-.1-1,.8-.32,1.08-.67,1.9-.17,3.82-.4,5.17,1.74-1.42.22-2.85-.52-3.91.77-.17.21-.88-.11-1.25-.45S331.43,210.08,331.54,209.12Z" transform="translate(-8.91 -177.03)"/><path class="cls-27" d="M308.39,191.81a3,3,0,0,1,1.75-1.35c.32-.1.85-.62.91.13,0,.36.29,1.16-.54,1.21S309.12,191.81,308.39,191.81Z" transform="translate(-8.91 -177.03)"/><path class="cls-28" d="M331.54,209.12l1.09.72a10.13,10.13,0,0,1-5.06-.94C329,208.48,330.27,209.44,331.54,209.12Z" transform="translate(-8.91 -177.03)"/><path class="cls-12" d="M341.6,208.24c-.12.7-.79.7-1.31.85s-.75-.07-.68-.51c.08-.6.34-1.12,1.11-.94C341.07,207.72,341.61,207.51,341.6,208.24Z" transform="translate(-8.91 -177.03)"/><path class="cls-29" d="M348.25,184.79a4.63,4.63,0,0,1,.35,3.5C347.52,187,348.69,185.83,348.25,184.79Z" transform="translate(-8.91 -177.03)"/><path class="cls-26" d="M332.62,207.78l-1.08.67c-.89-.77-2.05-.12-3-.67Z" transform="translate(-8.91 -177.03)"/><path class="cls-28" d="M348.67,207.32a1.62,1.62,0,0,1-.49-2,.35.35,0,0,1,.31-.06C349,205.84,348.73,206.5,348.67,207.32Z" transform="translate(-8.91 -177.03)"/><path class="cls-30" d="M331.15,210.52c-.47.81-1.48.32-2,1C329.35,210.07,330.5,210.89,331.15,210.52Z" transform="translate(-8.91 -177.03)"/><path class="cls-31" d="M48.12,178.48c-.28.73,0,2.26-1.62,1-.15-.12-.8.54-1.23.55s-1.24,1.61-1.6-.15c0-.19-.39,0-.58.17a1,1,0,0,1-1.7,0c1.81-2.52,4.34-1.71,6.76-1.48Z" transform="translate(-8.91 -177.03)"/><path class="cls-26" d="M39.82,210.91c-.08.14-.13.4-.3.53-.39.29-.39-.21-.59-.34-.37-.26-.88-.35-1.09-.82s-.48-1.38.1-1.76c.92-.6.67.53,1,.84A2.29,2.29,0,0,1,39.82,210.91Z" transform="translate(-8.91 -177.03)"/><path class="cls-32" d="M35.16,180.35a7,7,0,0,1-2.6.23c-.29-.07-.59-.15-.64-.51s.31-.47.56-.54A2.18,2.18,0,0,1,35.16,180.35Z" transform="translate(-8.91 -177.03)"/><path class="cls-33" d="M18.16,178.34h3.48C20.49,179.32,19.29,178.39,18.16,178.34Z" transform="translate(-8.91 -177.03)"/><path class="cls-34" d="M18.49,199.45a1.05,1.05,0,0,1,1,.83c.06.33-.1.69-.43.56A2.56,2.56,0,0,1,18,200C17.81,199.71,18.2,199.53,18.49,199.45Z" transform="translate(-8.91 -177.03)"/><path class="cls-35" d="M13,199.2a1.26,1.26,0,0,1-1.17.6c-.43,0-.36-.36-.37-.64,0-.65.36-.6.8-.47S13,198.63,13,199.2Z" transform="translate(-8.91 -177.03)"/><path class="cls-36" d="M12.76,205.77c-.23-.65-.9-1-.35-1.61a.81.81,0,0,1,.8.09C13.6,204.74,13.26,205.16,12.76,205.77Z" transform="translate(-8.91 -177.03)"/><path class="cls-37" d="M13.89,187.7c.24.11.79,0,.67.49-.07.3-.41.71-.67.74-.46.07-.46-.53-.6-.82S13.5,187.62,13.89,187.7Z" transform="translate(-8.91 -177.03)"/><path class="cls-38" d="M16,207.6c.16-.62.46-1.1,1.17-.95.17,0,.58.33.38.63A1.14,1.14,0,0,1,16,207.6Z" transform="translate(-8.91 -177.03)"/><path class="cls-39" d="M243.74,184.38a1.67,1.67,0,0,0,1.44-.35c.09,1.17-.74,1.82-1.43,2.55C243.83,185.85,244.46,185.11,243.74,184.38Z" transform="translate(-8.91 -177.03)"/><path class="cls-40" d="M93.38,198.33c1.54-1.12,2.3-.56,3.13.48C95.32,199.14,94.74,197.9,93.38,198.33Z" transform="translate(-8.91 -177.03)"/><path class="cls-31" d="M81.11,180.69c-.27.29-.33.43-.42.44-.6.09-1.2.14-1.81.21,0-.23-.11-.62,0-.66A2.43,2.43,0,0,1,81.11,180.69Z" transform="translate(-8.91 -177.03)"/><path class="cls-41" d="M137.82,198.66c-1.24,1.83-2.8,1.65-4.67,1.44C134.48,198.41,136,198.45,137.82,198.66Z" transform="translate(-8.91 -177.03)"/><path class="cls-42" d="M113.14,181.29c0,1.55,0,3.09,0,4.64,0,.28-.09.64-.51.49s-.42-.53-.35-.89a13.78,13.78,0,0,0,.42-4.25Z" transform="translate(-8.91 -177.03)"/><path class="cls-43" d="M107,205c-.88.28-1.58.41-1.7-.52-.07-.51.47-.46.77-.37.73.22,1.94-.62,2.11.55C108.36,205.59,107.27,204.78,107,205Z" transform="translate(-8.91 -177.03)"/><path class="cls-9" d="M111.42,197.79l2.13,1.65c-.91.25-1.6-.2-2.15.23C111,199,111.82,198.68,111.42,197.79Z" transform="translate(-8.91 -177.03)"/><path class="cls-44" d="M124.25,197.19c-.11.45-.3.9-.78.86a1.08,1.08,0,0,1-.81-.59c-.09-.42.4-.5.74-.56S124.12,196.69,124.25,197.19Z" transform="translate(-8.91 -177.03)"/><path class="cls-36" d="M157.08,204.74c-.25.69-.89.77-1.56.76s-1.23-.34-1.11-1.05.82-.74,1.43-.73S157,203.89,157.08,204.74Z" transform="translate(-8.91 -177.03)"/><path class="cls-45" d="M178.49,205.43c.1-.94.47-1.45,1.22-1.64.06,0,.26.25.25.39C179.93,205.06,179.27,205.19,178.49,205.43Z" transform="translate(-8.91 -177.03)"/><path class="cls-46" d="M160.85,194.87a2.66,2.66,0,0,1-2.28-1.26A2,2,0,0,1,160.85,194.87Z" transform="translate(-8.91 -177.03)"/><path class="cls-47" d="M295.06,211.65a2.61,2.61,0,0,1-2.92,0c1.29-.93,1.27-.91.49-2-.18-.24-.11-.66-.16-1,.59.34,1.24-.34,1.81.08.32.24.86.74.56.92C293.27,210.6,294.92,211,295.06,211.65Z" transform="translate(-8.91 -177.03)"/><path class="cls-43" d="M284.32,194.68c0,.37-.23.5-.57.47s-.79-.17-.85-.48.36-.52.7-.57S284.23,194.3,284.32,194.68Z" transform="translate(-8.91 -177.03)"/><path class="cls-12" d="M277.32,180.73c-.67.18-1.3.39-1.79-.16a.54.54,0,0,1,.32-.71C276.57,179.66,277.05,180,277.32,180.73Z" transform="translate(-8.91 -177.03)"/><path class="cls-48" d="M290,179.05c-.53,1-1.21.76-1.86.51-.12-.05-.18-.59-.17-.6C288.67,178.72,289.24,179.43,290,179.05Z" transform="translate(-8.91 -177.03)"/><path class="cls-49" d="M286.71,183.56c-.75.18-1.38.59-2,.11a.33.33,0,0,1,.1-.57A1.69,1.69,0,0,1,286.71,183.56Z" transform="translate(-8.91 -177.03)"/><path class="cls-26" d="M195.3,191.05c.15.7.5,1.36-.39,1.48-.42.06-.85-.46-.65-.75.44-.64-.5-1.89.68-2C195.78,189.75,195.14,190.75,195.3,191.05Z" transform="translate(-8.91 -177.03)"/><path class="cls-45" d="M192.09,194.73c-.18.55-.87,0-1.21.43-.13.19-.55-.17-.47-.47a1.1,1.1,0,0,1,1-.87C191.89,193.78,192.06,194.18,192.09,194.73Z" transform="translate(-8.91 -177.03)"/></svg>