<svg id="Layer_1" data-name="Layer 1" xmlns="http://www.w3.org/2000/svg" viewBox="0 0 343.09 343.09"><defs><style>.cls-1{fill:#838383;}.cls-2{fill:#313131;}.cls-3{fill:#333;}.cls-4{fill:#393939;}.cls-5{fill:#f4f4f4;}.cls-6{fill:#3f3f3f;}.cls-7{fill:#353535;}.cls-8{fill:#343434;}.cls-9{fill:#707070;}.cls-10{fill:#4c4c4c;}.cls-11{fill:#464646;}.cls-12{fill:#6f6f6f;}.cls-13{fill:#616161;}.cls-14{fill:#636363;}.cls-15{fill:#565656;}.cls-16{fill:#303030;}.cls-17{fill:#a2a2a2;}.cls-18{fill:#666;}.cls-19{fill:#a0a0a0;}.cls-20{fill:#434343;}.cls-21{fill:#868686;}.cls-22{fill:#f6f6f6;}.cls-23{fill:#737373;}.cls-24{fill:#9c9c9c;}.cls-25{fill:#9f9f9f;}.cls-26{fill:#7f7f7f;}.cls-27{fill:#8c8c8c;}.cls-28{fill:#5c5c5c;}.cls-29{fill:#585858;}.cls-30{fill:#777;}.cls-31{fill:#3c3c3c;}.cls-32{fill:#ededed;}.cls-33{fill:#b0b0b0;}.cls-34{fill:#656565;}.cls-35{fill:silver;}.cls-36{fill:#3d3d3d;}.cls-37{fill:#8d8d8d;}.cls-38{fill:#606060;}.cls-39{fill:#d2d2d2;}.cls-40{fill:#b4b4b4;}.cls-41{fill:#878787;}.cls-42{fill:#fbfbfb;}.cls-43{fill:#4a4a4a;}.cls-44{fill:#3e3e3e;}.cls-45{fill:#bdbdbd;}.cls-46{fill:#d3d3d3;}.cls-47{fill:#747474;}.cls-48{fill:#7b7b7b;}.cls-49{fill:#f0f0f0;}.cls-50{fill:#f2f2f2;}.cls-51{fill:#f1f1f1;}.cls-52{fill:#ececec;}.cls-53{fill:#444;}.cls-54{fill:#e7e7e7;}.cls-55{fill:#414141;}.cls-56{fill:#d6d6d6;}.cls-57{fill:#818181;}.cls-58{fill:#e2e2e2;}.cls-59{fill:#626262;}.cls-60{fill:#5f5f5f;}.cls-61{fill:#4e4e4e;}.cls-62{fill:#e4e4e4;}.cls-63{fill:#b3b3b3;}.cls-64{fill:#5a5a5a;}.cls-65{fill:#5d5d5d;}.cls-66{fill:#929292;}.cls-67{fill:#dedede;}.cls-68{fill:#e8e8e8;}.cls-69{fill:#7a7a7a;}.cls-70{fill:#ebebeb;}.cls-71{fill:#767676;}.cls-72{fill:#6a6a6a;}.cls-73{fill:#a1a1a1;}.cls-74{fill:#323232;}.cls-75{fill:#525252;}.cls-76{fill:#363636;}.cls-77{fill:#575757;}.cls-78{fill:#e6e6e6;}.cls-79{fill:#7c7c7c;}.cls-80{fill:#989898;}.cls-81{fill:#6b6b6b;}.cls-82{fill:#5b5b5b;}.cls-83{fill:#949494;}.cls-84{fill:#727272;}.cls-85{fill:#424242;}.cls-86{fill:#eee;}.cls-87{fill:#505050;}.cls-88{fill:#545454;}.cls-89{fill:#494949;}.cls-90{fill:#969696;}.cls-91{fill:#646464;}.cls-92{fill:#797979;}.cls-93{fill:#d0d0d0;}.cls-94{fill:#9b9b9b;}.cls-95{fill:#f5f5f5;}.cls-96{fill:#e1e1e1;}.cls-97{fill:#f3f3f3;}.cls-98{fill:#b5b5b5;}.cls-99{fill:#909090;}.cls-100{fill:#dfdfdf;}.cls-101{fill:#e5e5e5;}.cls-102{fill:#757575;}.cls-103{fill:#ddd;}.cls-104{fill:#979797;}.cls-105{fill:#9d9d9d;}.cls-106{fill:#6d6d6d;}.cls-107{fill:#7d7d7d;}.cls-108{fill:#454545;}</style></defs><title>chamonix</title><circle class="cls-1" cx="171.55" cy="171.55" r="171.55"/><path class="cls-2" d="M53.19,229.65c-.35-5.7-3.14-8.32-9-7.14a3.17,3.17,0,0,1-.69,0c-14-.41-12.14,2.19-12.31-12.73,0-.92-.38-2.1.05-2.73,4.29-6.35-12-8.28-3.23-15.64,6.06-5.07,2.65-12.17,3-18.32.26-4.65,1.26-6.39,6.24-6.35,13.68.11,13.68-.12,18.3-12.64,15.27-41.43,64.48-92.66,126.92-90.76,38.08,1.16,68.49,18.33,93.69,46C290.36,125,301.64,142.22,307,162.81c1.08,4.13,3.64,4,6.74,4.09,14.09.32,14.21.35,14.08,14.77,0,4.45.52,8.18,4.65,10.71,2,1.24,3.22,3.26.64,4.91-6,3.8-5.26,9.61-5.27,15.4,0,11.46,1.32,9.59-10,9.8a20,20,0,0,1-3.46,0c-4.5-.68-7.08,1-7.44,5.7-.95,1.57.51,4.34-2.43,4.92a4.35,4.35,0,0,1-3.42-1.71c-.61-2-2.41-3.4-8.57-6.74-8.56.31-17.61-2.35-25.11,4.26a5.24,5.24,0,0,1-3.45.18c-1.79-.75-2.3-2.23-2.31-4a7.32,7.32,0,0,1,.58-2.43c1.82-4.89,5.64-6.12,10.46-6.1,14.05.05,28.12-.15,42.17.1,5.48.1,7.34-1.88,7.18-7.26-.3-9.67-.05-19.35-.11-29,0-2.25.45-4.69-1.72-6.37-12.62-1.67-25.28-.3-37.9-.72-3.68-.12-7.36-.07-11,0-4.15,0-7.16-1.43-8.36-5.64-6.32-11.5-11.92-23.36-21.62-32.79-44.21-43-110.91-28-136.85,22.93-1.42,2.78-5.22,6-1,9.65a43.15,43.15,0,0,0,8.33.43q60.33,0,120.68,0c4.13,0,8.38.48,12-2.36a3.72,3.72,0,0,1,5.07,0c3.35,2.82,5.93.82,8.57-1.17,3-.82,3.49,1.81,4.73,3.43,1.58,3.38-.32,4.69-3.23,5.23a45.94,45.94,0,0,1-8.29.31q-101.15,0-202.29,0c-10.38,0-10.55,0-10.36,10.34s-.92,20.75.68,31.06c2.09,2.61,5,1.83,7.69,1.84,14,.09,28,0,42,.05,2.52,0,5.06-.18,7.51.66,3.89,2.48,4.3,6.56,4.84,10.59a3.31,3.31,0,0,1-2,2.71,6.84,6.84,0,0,1-7.22-1.8c.38-3.7-2.72-3.64-4.8-3.82-7.09-.62-14.22-1-21.31.19-4.44.47-5.25,1-9.58,6C54.83,231.75,54,230.65,53.19,229.65Z" transform="translate(-8.45 -23.45)"/><path class="cls-3" d="M271.15,285.12c-40,47.4-112.67,55.49-162.75,18-5.34-4-10.37-8.43-15.33-12.9a12.73,12.73,0,0,0-7.91-3.71c.54-3.85,3.54-3,5.8-2.71a26.68,26.68,0,0,1,7.34,1.67C142,330.92,215.45,332.12,260,287.07a6.3,6.3,0,0,1,1.66-1.43C264.77,284.71,267.84,282.71,271.15,285.12Z" transform="translate(-8.45 -23.45)"/><path class="cls-4" d="M72.38,267.2c-4.47-3.49-4.62-10.67-10.8-12.7a2.89,2.89,0,0,1-.71-1.77c1.38-3.16,3.54-5.78-1.63-8.45-5.46-2.82-5.59-7.52-1.88-13.26,4.8-5.86,11.32-6.44,18.19-6a9.47,9.47,0,0,1,5.11,1.47c2.19,1.55,2.64,3.06-.23,4.35a22.76,22.76,0,0,1-5.19.7A14,14,0,0,0,69,234c-3.23,2.22-2.82,4.94,1,7.05,4.45,1.33,6.45,3.53,2.81,7.79-1,1.16-.77,2.57-.55,3.94-.1,3.74,2.3,6.32,4.2,9.14,1.35,2,3.55,3.79,2.12,6.7a4,4,0,0,1-1.8.84C74.66,269.86,73.69,268.21,72.38,267.2Z" transform="translate(-8.45 -23.45)"/><path class="cls-5" d="M301.71,257.11a4.23,4.23,0,0,0-2.76-3.94c-3.77-1.53-6.87-3.54-6-8.39,5.08-2.39,9.09-5.86,11.22-11.21,2.84-.63,3.34,1.64,4.08,3.43a20.85,20.85,0,0,0,4.59,7.39c.9,1.86,1.94,3.65,2.9,5.48.58,1.09.75,2.43-.3,3.14-1.48,1-2.43-.66-3.79-1.06,4.09,2,4.93,5.91,6.07,9.68-2.91,6-6.29,3.34-9.69.52C306.76,259.44,304.1,258.44,301.71,257.11Z" transform="translate(-8.45 -23.45)"/><path class="cls-6" d="M293.54,245c-.83,4.47,3.92,5.27,5.41,8.21-5.31,3.5-7.34,9.57-11.12,14.27-2.21,2.74.45,3.46,2,4.58,6.85,5.05,6.77,7-.87,10.43a79.09,79.09,0,0,1-9.07,2.88c-1.36.65-1.88-.07-2.1-1.29,1.26-2.46,3.73-2.81,6-3.46,2.89-1,6.39-1.67,3-5.87-2.08-3.39-7.64-3.92-7.53-9.11,3.89-2.88,8-5.58,8-11.24a4.38,4.38,0,0,1,.27-1.8c1.1-1.88.29-3.38-.8-5-1.58-2.28-1.3-4.23,1.44-5.46a6,6,0,0,1,3.76-.44A3.63,3.63,0,0,1,293.54,245Z" transform="translate(-8.45 -23.45)"/><path class="cls-7" d="M308.68,261.26c2.62,2.25,5.28,3.54,8.15.4.05-2.92,2.42-5.38.48-8.83s1.21-4.08,3.95-4.21c6.58,3.34,7.68,7.27,3.45,13a23.88,23.88,0,0,1-13.53,9c-2.11.55-3.63.41-4.29-2C309.63,266.71,306.43,263.32,308.68,261.26Z" transform="translate(-8.45 -23.45)"/><path class="cls-8" d="M53.44,267.18c-2,4-4.32,5.17-8.57,2.35s-8.75-5-11-9.94-2.07-8.95,4-10.73c4.58-1.19,3.53,2.48,3.63,4.58.26,5.09,1.7,9.07,7.39,10C50.09,265.12,53.57,264,53.44,267.18Z" transform="translate(-8.45 -23.45)"/><path class="cls-9" d="M48.89,264.46c-7,1.05-7.9-3.8-8.85-8.95-.41-2.23,2.05-5.6-2.14-6.65,8-4.06,12.19-11.22,15.29-19.21l2.71.91.59.76c-1.55,4.8-3.35,9.45-6.42,13.56-1.46,2-3.37,4,.15,6.57,2.37,1.73-.16,3.36-1.81,4.7-3.28,2.65-2,4.58,1.24,6C50.6,263.34,51.45,264.47,48.89,264.46Z" transform="translate(-8.45 -23.45)"/><path class="cls-10" d="M72.38,267.2,77,268.55c.62,2.88-2.15,4.2-2.91,6.44a3.69,3.69,0,0,0,1.15,4.81,16.72,16.72,0,0,0,10.53,1.71c4.16.79,8.33-.13,12.48.08,1,2.5,3.69,1.94,5.41,3.14,1,1.07,1.86,2.16.67,3.63-2.48,1.23-4.23.31-5.57-1.86-4.54,1.34-9.09-3.49-13.62,0-5.94,0-11.29-2.17-16.32-5-4.76-2.65-4.72-5.71-.23-8.92C70.54,271.23,73.72,270.82,72.38,267.2Z" transform="translate(-8.45 -23.45)"/><path class="cls-11" d="M278.11,284l1.74,1.36c-3,2.55-5.82.43-8.7-.21l-9.65,1.49c-1.38.92-2.43.62-3.13-.88,2.54-1.81,2.56-1.9.83-4.5.59-2.53-1.53-5.71,1.77-7.62,2.37-.12,3.52,3.22,6.21,2.17a7.66,7.66,0,0,1,1.42-.88,3.55,3.55,0,0,1,1.68.1,52.83,52.83,0,0,1,5.32,2.8,5.47,5.47,0,0,1,.88,1.47C276.88,280.88,277.71,282.35,278.11,284Z" transform="translate(-8.45 -23.45)"/><path class="cls-12" d="M321.26,248.62c-1.29,1.33-4.53,1.54-2.22,4.8s.15,5.92-2.21,8.24c-1-5.33-8.23-7-7.66-13.9l6.08,5.14c.53-3.46-4.76-4.55-2.66-7.93a1.22,1.22,0,0,1,2-.16C317.24,245.34,319.12,247.21,321.26,248.62Z" transform="translate(-8.45 -23.45)"/><path class="cls-13" d="M48.89,264.46c.62-.3,1.56-.46.7-1.47-1.87-3.12.88-4.83,2.6-5.66,3.05-1.48,5.92-3.45,9.24-4.37l.15,1.54q-4.08,6.33-8.14,12.68C52,266.14,49,267.66,48.89,264.46Z" transform="translate(-8.45 -23.45)"/><path class="cls-14" d="M308.68,261.26c-.08,2.59,3.32,6-1.79,7.39-2.23-3.62-4.37-7.28-5.18-11.54C306,255.18,307.45,258.05,308.68,261.26Z" transform="translate(-8.45 -23.45)"/><path class="cls-15" d="M314.59,244.81l-2,.16c-4.91-2.63-4.4-9-8.35-12.25l-.44-.57c2.31-.33,1.65-3,3.15-4C307.52,234.63,310.75,239.86,314.59,244.81Z" transform="translate(-8.45 -23.45)"/><path class="cls-16" d="M258.67,164.36c-3.42,7.55-6.49,7.85-12.15.9-1.31,3.52-3.63,4.76-7.43,4.75-44.31-.15-88.62-.09-132.92-.12-2,0-4.23.57-5.75-1.45-.47-3.6,2-6,3.73-8.57,3.37-4.94,7.41-9.39,10.88-14.25,2.94-4.13,5.37-9.13,11.94-5.74a2,2,0,0,0,2.48-.75c5.3-8.73,17.39-9.38,22.22-18.8,1.18-2.31,3.41-4.52,6.79-3.5,2.81,2.47,1.88,5.83,2.11,8.9.18,8,2,11,12.78,20.6.78-4.12-.76-7.23-2.68-10.32-1.79-2.88-4.4-5.42-4.36-9.19a2.54,2.54,0,0,1,2-2,3.15,3.15,0,0,1,2,.47c7.88,5.79,8.33,6.24,15.18-.78,9.73-10,11.52-9.16,21.2,1.72,2.75,3.1,5.19,5.45,9.77,5.22,3.75-.19,5.8,3.42,8.52,5.48,3,2.25,5.64,5,9.52,1.12,1.75-1.73,3.88-.91,5.18,1.29-.26,2.78-1.94,5.33-1.41,8.25-.57,4.65,1.84,7.28,5.86,9,2.54,1.09,5,2.42,7.52,3.48a14.84,14.84,0,0,0,5.94,2.13C258.43,162.66,259.13,163.2,258.67,164.36Z" transform="translate(-8.45 -23.45)"/><path class="cls-17" d="M258.67,164.36l-1.19-1.54a80,80,0,0,1-18.37-23.27c-2.23-2.25-4.09-1.65-5.45.9-2,3.72-4.09,2.71-6.51.45-2.19-2-4.55-3.9-6.85-5.84-.88-.74-2-2.26-2.62-2.09-10.07,2.75-12.42-6.53-17.35-11.34-3.41-3.33-5.72-3.88-8.93-.32a70.41,70.41,0,0,1-5.61,5.16c-9.32,8.25-9.4,8.24-17.15-1.09-2.52-1.37-4-3.73-5.7-5.9-1.46-1.88-2.92-3.7-5.7-2.39-2.35,2.51-4.66,5-7.05,7.52-3.43,3.54-6,7.92-12,8.36-3.42.26-4.91,4.56-7.07,7.15s-3.53,4.36-6.31,1.12c-1.89-2.2-3.56-1.6-5,.49-6.24,9.08-13.84,17.16-19.42,26.71-3-3.61.24-6.55,1.51-9.24,12.57-26.61,33.51-43,62.1-49.54,40.58-9.34,86.06,16.55,98.76,56.14.56,1.41,0,1.68-1.29,1.3Z" transform="translate(-8.45 -23.45)"/><path class="cls-18" d="M57.41,165.75c3.46-17.12,11.63-32.07,22.82-45.07,15.55-18.07,32.62-34.61,55.55-43.41C174.12,62.55,210.6,65.52,245,88.62a148,148,0,0,1,48.86,53.55,98.83,98.83,0,0,1,8.33,20.46c.42,1.52,1.53,3.25-.72,4.09-2,.76-3.65.17-4-2.3-3-2.28-3.63-5.89-4.82-9.06-8.32-22.15-23.6-39.1-41.13-54.07-18.82-16.07-41.2-24.78-65.75-26.4-20.66-1.37-40.23,3.87-58.64,13.6-18.2,9.62-32.34,23.85-44.91,39.57-7.49,9.35-12.13,20.65-16.73,31.79C64.1,163.21,63.17,168,57.41,165.75Z" transform="translate(-8.45 -23.45)"/><path class="cls-17" d="M96.32,150.48c3.48,9.82-.82,16.19-11.07,16.35-6.38.09-12.77.08-19.16.12-2.45-1.65-2-3.93-1.18-6.14,9.39-25.64,24.89-46.65,47.32-62.4,2.75-.19,3.87,2.3,5.79,3.5,2.6,2,4.24,4.81,5.88,7.59.34.54.64,1.11.93,1.67,1.22,2,5.5,2.75,3.48,5.77-2.33,3.46-5.06,8-9.78,7.64-6.48-.42-8,1.81-8,8,0,5.72-5.07,8.18-10.09,9.72C96.24,143.61,93.09,145.39,96.32,150.48Z" transform="translate(-8.45 -23.45)"/><path class="cls-17" d="M294.26,167c-5.77,0-11.55,0-17.32-.09-9.14-.12-14.4-6.51-11.5-15,1.86-5.41,0-6.86-4.75-7.87-6.18-1.31-9.41-5.5-9.34-11.85.05-4.58-.92-7.16-6.53-7-7.82.21-10.86-3.5-14-14.88a3.19,3.19,0,0,1,2.69-1.07c1.55.34,3,.79,3,2.83.36-1.86-1.54-3.45-.6-5.35a27.09,27.09,0,0,0,9.94-8.37c2.44-.77,4,.9,5.48,2.23,18.09,16.33,34.58,33.87,42.6,57.62C294.86,160.92,297.21,163.91,294.26,167Z" transform="translate(-8.45 -23.45)"/><path class="cls-19" d="M96.32,150.48c-4.53-5.11-4.44-6.86,1.57-8.85,7.21-2.39,13.6-4.88,12.36-14.37-.24-1.9,1.06-3.4,2.91-3,7.53,1.62,9.89-5.15,14.67-8.16-1.38-2.36-4.87-1.82-5-4.8,4.73-3,9.88-5.33,14.28-8.87a10.18,10.18,0,0,1,2.43-1.51A66.69,66.69,0,0,0,151.15,97c.69-1,4.39.25,2.21-3a3.23,3.23,0,0,1-1.2-1.29c-1.35-4-1.67-7.69,3.44-9.33,4.27,1.51,6,5.37,8,8.85,4.83-1.13,3.09-5.31,3.87-8.22-5.23,4.92-6.73,4.52-9.43-2.44.14-1.66-.15-3.48,1.69-4.5,4.07-2.37,8.6-1.18,12.9-1.72,5.71-1.55,9.93.93,13.56,5,2.46,1,4.57,2.26,4,5.47-.44,1.39-1.65,2-2.75,2.84S184,89.89,184.86,92c.74,1.79,2.75,1,4.24,1.18,4.52,1,6.43-3.46,9.87-4.72,3.53,1.71,9.93-.47,9.36,6.85a18.61,18.61,0,0,0-2.3,4c-11.43,6.87-12.72,6.9-22.21-1.25-2.37-2-3.61-1.69-5.69.28-7.19,6.81-10.63,7.35-18.59,2.78-2.85-1.63-4.58-1.61-5.95,1.5-3.56,8.07-9.49,10.87-18,8-2.74-1-4.42-.09-5,2.89-1.55,8.28-6.49,12.39-15,11.83-3.32-.22-4.57,1.19-4.36,4.45.5,8.14-3.37,13.17-11.33,14.71C96.17,145.16,95.88,147.45,96.32,150.48Z" transform="translate(-8.45 -23.45)"/><path class="cls-20" d="M172.37,76.79a48.16,48.16,0,0,0-13.57,1.6c-2.59,2.66-6.27,2.66-9.47,3.84-5.48,1.54-10.54,4.19-15.89,6.09-7.39,2.55-12.83,8.77-20.47,10.87C92.64,115,76.28,133.81,67.23,158.3c-1,2.78-2.38,5.56-1.14,8.65-2.92-.18-6.09,1.38-8.68-1.2,4.62.69,5.13-3.21,6.32-6a253,253,0,0,1,11.66-24.23c6.59-11.67,15.83-20.94,25.21-30a114.72,114.72,0,0,1,41.45-25.64c25.92-9.3,51.87-9.75,77.48,1,38.48,16.11,64.84,43.71,78,83.57L294.26,167c-1.06-11.3-6.57-20.82-12.39-30.12-9.37-14.93-21.64-27.23-35.5-38-5-1.18-8.38-5.45-13.21-7-14.07-7.28-28.64-12.61-44.74-13.36C183.1,78.23,178,74.69,172.37,76.79Z" transform="translate(-8.45 -23.45)"/><path class="cls-21" d="M261.5,167.1l1.29-1.3c1.72,4.39,4.91,5.5,9.55,5.44,16.71-.2,33.42.08,50.13.17,1.62,14.61.36,29.26.61,43.88,0,1.69-1,2.53-2.61,1a9.82,9.82,0,0,1-1.29-5.21c-.61-9.46-.43-18.94-.19-28.39.15-5.84-2.28-8-7.75-7.79-2.53.09-5.08,0-7.62,0-60.73-.07-121.47.13-182.21-.08-25.69-.26-51.37-.22-77-.11A5.2,5.2,0,0,0,41.24,176c-2,2.16-1.23,4.83-1.31,7.3-.36,10.59.64,21.21-.58,31.8-.55,1.16-1.13,2.26-2.73,2-.08-13.63,0-27.25-.34-40.86-.17-6.15,3.77-5.09,7.34-5.09q78.88,0,157.76-.07c18.71,0,37.41,0,56.12,0C259.86,171,263.94,172.22,261.5,167.1Z" transform="translate(-8.45 -23.45)"/><path class="cls-12" d="M262.7,225.38c.27,1.23.57,2.43,1.8,3.1.06.22.05.58.18.64,6.06,2.63,5.73,7.26,3.9,12.35-.44,1.84,1.54,2.9,1.5,4.62a3.41,3.41,0,0,1-1.28,1.22,10.39,10.39,0,0,1-3.5,1c-2.77-.4-4.81-1.39-3.81-4.79.16-1.2-.74-2-1.09-3-2.1-6-3.79-2.69-5.5.23-1.77,1.36-2.39-2.1-4.11-1-1.43,1.53.28,4.16-1.9,5.44-10.35-7.76-20.63-15.6-31-23.34-1.73-1.28-3.77-3-1.91-5.7,8.66-2.28,17.32-4.24,26.06-.34-3,3.5-3.71,3.64-11.17,2.31,5.5,1.55,10.33,4.57,15.47,6.91C251.74,227.44,257.18,228.1,262.7,225.38Z" transform="translate(-8.45 -23.45)"/><path class="cls-12" d="M98.76,229.8l1.83-1.65c6.87,3.45,11.32-2.92,16.92-4.47,3.78-1.05,7.37-3.46,10.75-4.94-6.28-.11-12.55.54-18.7,4-4.41,2.46-7.93-1.77-10.92-5a2.25,2.25,0,0,1,1.26-1.61c4.27-1.28,8.81-.9,13.09-2.12,1.91-.17,3.82-.16,5.73-.18,3.09,0,6.17,0,9.26,0a38.9,38.9,0,0,1,8,.51c3.05,1.23,6.49.53,9.52,1.87,2.57,3-.18,4.6-2,5.95-8.23,6.19-17.2,11.34-25,18.19-2.27,2-4.78.71-7.21.28a6.87,6.87,0,0,1-2.73-.82c-1.09-1-2-2.31-3.62-2.64-3.22-1.57-6.06.91-9.14.85-4.85-.5-4.64-2.65-1.94-5.74C95.24,230.75,97.14,230.59,98.76,229.8Z" transform="translate(-8.45 -23.45)"/><path class="cls-22" d="M267,242.09c-1.36-5.06-1.36-5.06,3.18-7.5-2.21-1-4.53-1-6.48-2.36-3.34-2.3.5-2.54.81-3.75l2.38-.46c3.44-1.35,7.13-4.9,9.76,1.2.14.31,2-.6,3.13-.84a9.35,9.35,0,0,1,5.91.27c1.13,4.89,8.73,8.32,3.38,14.71-3.44.54-4.39,2.08-1,3.91,4.72,2.52,3.33,4.24-.28,6.12a4,4,0,0,1-5.15,2c-1.86-.55-1.64-4.73-5-2.82C273,250.3,271.47,244.67,267,242.09Z" transform="translate(-8.45 -23.45)"/><path class="cls-22" d="M98.76,229.8a52.27,52.27,0,0,0-4.88,5c-2.46,3.28,1,1.36,1.74,1.81,2.43,1,1.61,2.69.87,4.35-2.45,3.59-7.93,3.47-9.69,7.91-.59.71.12-.17-.26.63-1.78,3.7-4.74,3-7.77,2.26,1.25,4.29-1.72,3.81-4.29,3.81a5.69,5.69,0,0,1-3.13-2.47c-1.95-1.45-5-2.92-.82-5.13,5.84-3.08,1.71-4.12-1-5.56-.63-1.56-.81-3.88.45-4.34,4.29-1.59,2.92-5.54,4.11-8.39l5.41,0c1.77,1.33,3.55-.26,5.33,0,.3-5.31,3.23-4.38,6.46-2.7a3.75,3.75,0,0,1,1,1Z" transform="translate(-8.45 -23.45)"/><path class="cls-23" d="M321.05,215.61c3.15-.4,1.32-2.79,1.34-4.05.15-13.38.09-26.76.08-40.15,2.19,1.8,1.25,4.29,1.27,6.47.1,10.61.05,21.23.05,31.84,0,8.77,0,8.77-9.12,8.77-13.85,0-27.7.31-41.52-.16-5.16-.17-8.24,1.37-10.11,5.92-1.16-1.25-.56-4.63-4.44-1.87-5.1,3.64-12.44-.31-13.17-6.18,9.19-1.86,18.55-1.74,27.85-2.35,2.51-.17,5,0,7.57-.08a42.37,42.37,0,0,1,5,0c9.13-.07,18.25-.1,27.38,0C316,213.8,318.79,213.56,321.05,215.61Z" transform="translate(-8.45 -23.45)"/><path class="cls-24" d="M98.85,217.32c2.06,1.4,4.73,1.67,6.41,3.82a2.71,2.71,0,0,0,4.26.23c6.76-6.35,15-3.81,24.37-4.32-9,6.43-19.36,7.82-27.37,14.8l-5.93-3.7q-1.59-4.72-3.17-9.43C97.1,217.43,97.6,217,98.85,217.32Z" transform="translate(-8.45 -23.45)"/><path class="cls-19" d="M244.71,217.2c1.85,2.06,5.15,1.31,6.93,4.08,1.38,2.15,4,1.74,6.12,0,1.52-1.23,2.95-3.79,5.1-2.18.86.65.17,3.35.18,5.12-.12.37-.24.75-.34,1.13-4.95,7.82-11.41,3.15-16.82,1.35-6.16-2-11.78-5.73-17.59-9.89H242.1A1.91,1.91,0,0,1,244.71,217.2Z" transform="translate(-8.45 -23.45)"/><path class="cls-7" d="M286.22,229.77h-6.63c-1.67.12-2-.82-1.06-1.87,1.68-1.93,4.13-2.41,6.54-2.79,6.59-.78,12.28,1,16.9,5.9l1.84,1.13a1.49,1.49,0,0,0,.43.57c-.49,8.67-2.29,10.73-10.7,12.24a2.58,2.58,0,0,1-1.52-2.45C295.31,235.89,289.75,233.29,286.22,229.77Z" transform="translate(-8.45 -23.45)"/><path class="cls-23" d="M98.85,217.32l-1.42,1.4c-17.92-.08-35.84-.1-53.76-.28-2.36,0-5.1,1.14-7.05-1.35l1.58-1.58a6.6,6.6,0,0,1,2.15-1.28c16.93-.87,33.89-.44,50.83-.45,2.44.1,4.93-.13,7.21,1.07a1.76,1.76,0,0,1,.89,2.05Z" transform="translate(-8.45 -23.45)"/><path class="cls-25" d="M228.06,110.07c-10.39,3.33-14.19,1.75-19.44-8.08-.41-4.1.27-7.32,5.54-6.78a8.87,8.87,0,0,1,3.6,4.39c1.54,2.55,4.58,2.55,6.77,4S230.1,106.17,228.06,110.07Z" transform="translate(-8.45 -23.45)"/><path class="cls-26" d="M228.06,110.07c-.32-3.41-2.69-4.52-5.53-5.77-1.87-.82-5.53-.12-5.28-4,6.5.69,9.23-3.5,11.18-8.68,3.45-2.83,4,1.83,6.11,2.36,1.71,1.16,3.68,1.91,5.18,3.36,1.2,1.17,2.15,2.53,1.09,4.24-.84,1.35-2.25,1.26-3.67,1.19-1.88-.1-3.84-2.71-5.58-.27-2,2.77,1.44,3.84,2.27,5.74a3.53,3.53,0,0,1,.36,2h-3.4Z" transform="translate(-8.45 -23.45)"/><path class="cls-27" d="M92.33,228c-1.73-.27-3.21,1-5.82,2.66-2.08,1.32-4.83.82-7-.91.24-.68,3,0,1.12-1.57-1.24-1-3.35-1-5.07-1.4.49-3.87,3.29-1.14,4.89-1.84-5.29-1-10.91,2.58-16.1-.87,9.1-2.5,18.19-2.67,27.21.33C93.66,225.05,94.74,226.22,92.33,228Z" transform="translate(-8.45 -23.45)"/><path class="cls-27" d="M284.91,226.74c-4.57,1.24-4.57,1.24-5.32,3-3.31,1.06-3.08.88-5.12-1.67-2.27-2.84-5.05,1.18-7.59-.09a13.1,13.1,0,0,1,12-5.59c5.3.28,10.62.16,15.94.22-.17,3.78-3.15,2.44-5.13,2.73-2.51.36-4.95-.62-7.55-.74C283.23,225.16,285.43,224.21,284.91,226.74Z" transform="translate(-8.45 -23.45)"/><path class="cls-28" d="M64.38,224H81.21c-1.65,2.36-4.76.29-5.62,2.71-6.78-.36-13.2.46-18.29,5.6a1.69,1.69,0,0,1-1.07-1,4.22,4.22,0,0,0-.33-.83c.6-.7,1.82-1.58,1.69-2.08C55.19,219.77,61.11,223.94,64.38,224Z" transform="translate(-8.45 -23.45)"/><path class="cls-29" d="M284.91,226.74c-1.06-2.3-3.71-.87-5.77-2,5.48-1.92,11,1.2,15.64-2.08,1.73-.16,1,3.91,2.49,2.2,1.64-1.93,3-2.95,4.85-1.59,2.24,1.6-.41,3-.72,4.48-.21,1,.35,2.18.57,3.28C296.62,228.25,291.19,225.81,284.91,226.74Z" transform="translate(-8.45 -23.45)"/><path class="cls-30" d="M214.35,96.42c-4.47-.78-4.24,3.29-5.73,5.57L206,99.27c-.22-1.16-1.88-2-.84-3.32.24-.31,1.47.17,2.25.29,2.25-2.95,2.43-6.78,4.24-9.93a8.64,8.64,0,0,1,6,3.38C218.05,92.67,218.17,95.51,214.35,96.42Z" transform="translate(-8.45 -23.45)"/><path class="cls-18" d="M98.78,286.5c1.86.78,3.69,1.7,5.82,1.4,2.44-.83,3.83.93,5.41,2.2,36.57,29.57,85.49,33.37,126,9.75a88,88,0,0,0,14.77-10.16c3.27-2.92,6.61-4,10.61-1.74a103.62,103.62,0,0,1-51,30.05c-41.77,10.76-78.53.09-110.81-27.79C98.19,289,98.69,287.81,98.78,286.5Z" transform="translate(-8.45 -23.45)"/><path class="cls-31" d="M261.41,288c-3.92-.6-6.84.83-9.94,3.42-39.87,33.24-99.06,34.19-140.09,2.41-2.36-1.83-4.53-3.91-6.78-5.88l-1.38-2.77a3.61,3.61,0,0,1,1.61-1.1,4.13,4.13,0,0,1,4.42,1.48c5.86,6.91,14,10.71,21.44,15.37a87.55,87.55,0,0,0,23.2,8.68c3,.63,5.93,1.5,8.92,2.12a15.61,15.61,0,0,0,5.17.71c21.89,1,43.06-1.43,62.48-12.59,7.35-4.08,14.54-8.39,20.43-14.54a6.39,6.39,0,0,1,5-1.56,4,4,0,0,1,2.79,1.51l2.84,1.4C261.46,287.06,261.43,287.5,261.41,288Z" transform="translate(-8.45 -23.45)"/><path class="cls-32" d="M56.23,231.39l1.07,1c-2.73,7.4-1.66,9,9.62,14L61.43,253c-2.92,4.55-10.36,3.77-11.84,10-1.91-.37-5.26.8-5.46-1a10.05,10.05,0,0,1,2.2-7.57c1-1.17,5.28,1.32,3.42-2.85-1.46-3.29-3.36,1.5-5.22-.13Q50.37,241.47,56.23,231.39Z" transform="translate(-8.45 -23.45)"/><path class="cls-33" d="M74.13,229.68c-.12,3.14,5.1,8.08-3,8.66-.62,0-1,2.65-1.57,4.07-1.45-.55-4.22.71-4-2,.18-2.26-.84-5.16,1.72-6.82C69.48,232.17,71.84,231,74.13,229.68Z" transform="translate(-8.45 -23.45)"/><path class="cls-34" d="M71.35,253.1a3.2,3.2,0,0,1,3,1.24A17.47,17.47,0,0,1,83,264.7c-.71,2.43-1.6,4.6-4.85,3.42-.69-3.72-4-5.76-5.68-8.91C71.38,257.2,69.9,255.47,71.35,253.1Z" transform="translate(-8.45 -23.45)"/><path class="cls-35" d="M78.1,268.12c2-.58,3.27-2.09,4.37-3.76.52-2.55,1.47-4.68,4.61-4.63,6.09,4.61,6.1,6.61.06,11.09a4.36,4.36,0,0,1-3-.34c-1.11-.88-.72-1.87-.18-2.86a6.89,6.89,0,0,0-1.5,1.85,14.62,14.62,0,0,1-4.34,4.24c-1.8.92-3.59,1.93-5.7.88.18-3,3.32-3.81,4.57-6A3.87,3.87,0,0,0,78.1,268.12Z" transform="translate(-8.45 -23.45)"/><path class="cls-36" d="M282.36,254.22l5.45-.83c0,.37,0,.74,0,1.11-2.42,4.58-6.38,7.77-10.1,11.19a3,3,0,0,1-1.91.35,4.64,4.64,0,0,1-2.06-2.16c-3-5.57-3.28-11.76-3.88-17.86.38-2.28-5.44-.05-2.86-3.93,5.52,1.17,7.57,6.3,11.1,9.73C279.21,253.17,280.29,254.56,282.36,254.22Z" transform="translate(-8.45 -23.45)"/><path class="cls-37" d="M286.22,229.77c5.67,1.52,8.86,4.71,8.06,11.07-.23,1.86-1.56,1.08-2.26,1.67l-3,.85c-.58-2.82,2.64-6.65-2.66-8.33C285.06,234.6,284.78,231.62,286.22,229.77Z" transform="translate(-8.45 -23.45)"/><path class="cls-38" d="M276.66,265c4-3.15,6-8.45,11.14-10.45,2.21,5.4-2.19,7.79-5.11,10.68-.78.78-2.61.5-4,.71C277.78,266.15,276.68,266.75,276.66,265Z" transform="translate(-8.45 -23.45)"/><path class="cls-39" d="M276.66,265l2.07.94,9.61,8.18a3.44,3.44,0,0,1-1.84.85c-2.59-.1-4.59-1.46-6.54-3-1.79-2-4.55-3.48-4.06-6.86A.57.57,0,0,0,276.66,265Z" transform="translate(-8.45 -23.45)"/><path class="cls-40" d="M278.11,284c-3.19-.15-3.08-2.34-2.83-4.61,2.35-1.45,4.68-.26,7,.06,1.23.52,2.86.67,2.5,2.68Z" transform="translate(-8.45 -23.45)"/><path class="cls-41" d="M284.8,282.1l-2.58-1.19c-.14-3.14,5-3.05,4.07-6.68l2-.16C293.89,279.72,288.12,280.37,284.8,282.1Z" transform="translate(-8.45 -23.45)"/><path class="cls-42" d="M269.85,246c4.44,5.46,1.25,13.26,5.71,18.71-3,.45.29,2.31-.7,3.21-1,3-.62,7-5.19,7.54a6.12,6.12,0,0,1-1.18-.57c-1.87-.91-2.41-3.17-4.77-4.49,2.8,1.82,3.33,4.39,4.56,6.52,0,1.3.25,3.29-2,1.72a52.1,52.1,0,0,1-5-4.52c-1.46-1-2.15,0-2,1.16a43.2,43.2,0,0,0,.69,5.78l2.79,3.7-4.07.43-2.48-.29c-9.35.75-17.93-2.58-26.68-5-4.24-1.78-8.9-2.54-12.8-5.16-5.31-5.53-11.89-5.8-18.84-4.55a104.29,104.29,0,0,0-52.06,4.9c-5,1.39-9.82,3.14-14.74,4.66-8.83,2.14-17.38,5.72-26.72,5.17l-.59,0-.53.25c-1-1.66-6,2.9-4.31-2.82a10,10,0,0,1,.66-3.47,20.16,20.16,0,0,0,.33-3.38c.31-3.31-1.11-.83-1.88-.56-1.5.79-3,1.49-3.83-.77-.06-1.72.94-3.05,1.75-4.68-1.17,1.52-1.65,3.25-3,4.36-3.48,2.58-6.23,2.93-7.15-2.33a2.2,2.2,0,0,1,1.07-1.6c5.53-3.46,3.9-6.68-.33-9.82-1.87-1.84-1.57-4.09-1.23-6.35,1.06-2.16.83-5,3.33-6.42,5,.55,4.15,5.36,6.33,8.92,2.73-5.44,6.55-7.78,12.14-5,1.63,2.1.42,4.15.14,6.06,1.19-1.7.34-4.36,2-6.16,2.41-1.29,5.1-1.69,7.68-2.44,5.47-1.38,10.75-3.35,16-5.26,12.07-3.21,24-7.06,36.68-7.32a27.05,27.05,0,0,1,5.68.52c5.17,1.7,10.28.7,15.39-.38,12.3.3,24,3.55,35.64,7.18,5.66,2.34,11.74,3.37,17.5,5.42,3.22,1.44,6.66,1.12,10,1.2,5-.39,9,1.17,11.57,6.38.1-4,.47-7.4,2.82-10.15Z" transform="translate(-8.45 -23.45)"/><path class="cls-43" d="M100.73,279.58c-.34,1.09-.57,2.25-1.82,2.73-4.59,1.4-9.19,2.49-13.8.05-1.89-3.27-.92-4.55,4.8-6.37,3,1.57,5.71.52,8.34-1.06C100.59,275.67,100.26,277.84,100.73,279.58Z" transform="translate(-8.45 -23.45)"/><path class="cls-44" d="M72.45,274.59,78.17,272c1.2.24.57,2.58,2.44,2.07,2-.69,2.67.73,3.32,2.16-.62,6.15-.62,6.15-9.6,4.82C71.05,279.68,70.81,277.41,72.45,274.59Z" transform="translate(-8.45 -23.45)"/><path class="cls-45" d="M74.33,281.07c3.18-1.19,9.94,2.72,8-5.67,1-1.86.56-5.09,4.25-4.12,1,3.64,3,3.86,5.59,1.47a3,3,0,0,1,.73,2.81c-.45,1-1,1.74-2.27,1.25-3.15.55-5.58,1.83-5.57,5.55C81.1,285.42,77.81,282.47,74.33,281.07Z" transform="translate(-8.45 -23.45)"/><path class="cls-36" d="M286.29,274.23c5.63,6.48-2.42,4.64-4.07,6.68-2.6.79-4.55-1.38-6.94-1.55a6.36,6.36,0,0,0,.06-.87c1.19-3.08-4.81-5.92-.3-9.11a3.75,3.75,0,0,1,1.81.85c1.18,1.09,2,3.4,4,1Z" transform="translate(-8.45 -23.45)"/><path class="cls-46" d="M275.46,270.41c-2.91,2,.35,2.72,1,3.68,1.4,2.1,2.13,3.63-1.11,4.4a5.05,5.05,0,0,1-5.67-3c3.1-1.83,2.18-5.72,4.15-8.12C276.72,267.11,276,268.82,275.46,270.41Z" transform="translate(-8.45 -23.45)"/><path class="cls-47" d="M268.28,276.94c-3.13-2.89-5.84-6-6.88-11.72,3.31,3.68,5.59,6.4,7.09,9.69Z" transform="translate(-8.45 -23.45)"/><path class="cls-48" d="M259.94,281.08c-3.69-2.94-.46-7.22-2.91-10.86,2.8.74,3.75,2.11,4.23,3.92C260,276.29,262.08,279.09,259.94,281.08Z" transform="translate(-8.45 -23.45)"/><path class="cls-22" d="M166.92,127.17c4,7.16,11,13.27,7.91,23.87-5.38-5.94-10.38-11.53-15.46-17-2-2.15-.46-4.37-.41-6.57,1.09-2.78-.13-5.83,1.09-9C164.54,119.7,165.89,123.3,166.92,127.17Z" transform="translate(-8.45 -23.45)"/><path class="cls-49" d="M197.05,122.43c4.74,9,15.31,12.74,14.17,24-2.91-.91-3.54-3.68-5.24-5.42s-2-4.61-6.23-3.43c-2.3.64-6-3-5.18-7.25A80.93,80.93,0,0,1,197.05,122.43Z" transform="translate(-8.45 -23.45)"/><path class="cls-50" d="M182.85,136.06c3.35,2.73,6.19,5,9,7.32,3.89,3.22,3.77,8.52-.49,11.06-2.61,1.56-6.23-.19-6.08-2.14C185.69,146.82,180.44,142.6,182.85,136.06Z" transform="translate(-8.45 -23.45)"/><path class="cls-51" d="M251.82,161.64c-4.76-.83-8.51-3.95-12.86-5.7-4.18-1.67-2.66-5.08-2.44-8.09,1.47-1.66-.29-4.21,2.39-6.43C243.61,148,251.71,152,251.82,161.64Z" transform="translate(-8.45 -23.45)"/><path class="cls-52" d="M217.88,138.15c3.6,1.12,5.52,4.18,8.33,6,3,1.94,2.42,3.88.09,5.88-1.48,1.27-2.29,4-4.69,3.33-2.55-.71-1.92-3.17-1.75-5.22C220.15,144.73,215.38,142.56,217.88,138.15Z" transform="translate(-8.45 -23.45)"/><path class="cls-53" d="M251.82,161.64c-2.2-7.76-9-12.3-12.57-19.19-2.55,1.5-.63,4.35-2.73,5.4-.27-3.12-.63-6.27,2.59-8.3a152.75,152.75,0,0,1,18.37,23.27C255.13,164.65,253.34,163.78,251.82,161.64Z" transform="translate(-8.45 -23.45)"/><path class="cls-54" d="M137.7,137.17c3.05-.9,5.69-1.56,6.81,1.71,1.24,3.62,2.72,7.4,2.69,11.1,0,1.36-3.65.58-4.64-1.48C140.8,144.84,139.34,141,137.7,137.17Z" transform="translate(-8.45 -23.45)"/><path class="cls-55" d="M166.92,127.17l-6.11-7.36c-1.65,2.43.27,5.55-1.86,7.63-1-3.37,1.24-7.29-1.71-10.35,1.46-2.85,3.37-4.08,5.44-.77,1.92,3.07,4.95,5.41,6,9.06C168.06,126,167.49,126.57,166.92,127.17Z" transform="translate(-8.45 -23.45)"/><path class="cls-56" d="M120.46,157c-3.77-4.68.79-8.61.62-13.18C127.65,148.17,127.65,148.21,120.46,157Z" transform="translate(-8.45 -23.45)"/><path class="cls-57" d="M113,99.19C118.76,94,125.51,90.26,132.51,87c2.6,3.77,6.46,7.22,3.26,12.51-2.11,0-2.66-2-3.64-3,.64,3.16,3.58,4.62,5.82,6.7-4.39,3.9-8.66,8-15.09,8.08l-.21-.48a4.13,4.13,0,0,1,2.21-2.44c.75-.37,1.39-.93,2.13-1.31-.85-.09-1.55,1-2.32.58-3-1.49-2.92-5.29-5.26-7.44-.83-.76,1.24-2,1.71-3.21-1,1.43-3.07,2.1-2.76,4.35a3.8,3.8,0,0,1-.4,2C115.25,103.2,114.67,100.52,113,99.19Z" transform="translate(-8.45 -23.45)"/><path class="cls-58" d="M118,103.32c-4-7.78,4.36-6,6.9-10.13.08,4.53-6,4-4.12,7.78,1.1,2.22,3.21-.27,4.9-.23,1.11,2.52-4.27,3-1.75,5.45,2.28,2.27,3.76-2,6.72-.86-2.28,2.6-5.13,4-8,5.48Z" transform="translate(-8.45 -23.45)"/><path class="cls-59" d="M91.21,139.39c-2.83,2.5-1.87,7.86-6.75,8.08-2.32.1-2.64-2.82-1.93-3.46,2.39-2.17,2.06-6.08,5.23-7.57C87.85,138.5,91.19,137.22,91.21,139.39Z" transform="translate(-8.45 -23.45)"/><path class="cls-60" d="M83.67,154.7c2.81,2.9-.07,4.14-1.73,5.61a1.68,1.68,0,0,1-2.8-.47c-1.13-2.27-2-4.62,1-6.25A6.06,6.06,0,0,1,83.67,154.7Z" transform="translate(-8.45 -23.45)"/><path class="cls-61" d="M115.32,110.47c-2.58,3.81-4.85,6.35-9.31,7.87C107.6,113.41,110.57,111.71,115.32,110.47Z" transform="translate(-8.45 -23.45)"/><path class="cls-59" d="M83.67,154.7c-1.69,1.27-2.6.07-3.5-1.11-.16-1.56-.33-3.12-.62-5.88C82.2,150.21,87,149.92,83.67,154.7Z" transform="translate(-8.45 -23.45)"/><path class="cls-59" d="M91.69,129.59c-.57,2.88,3.13,3.39,1.5,5.66-.48.66-2.61,1.1-3,.71C88.64,134.18,89.24,132.29,91.69,129.59Z" transform="translate(-8.45 -23.45)"/><path class="cls-59" d="M95.5,125.23c.1,2,3.3,2.73,1.91,5.06a2.07,2.07,0,0,1-3,.37C92.27,128.56,94.45,127,95.5,125.23Z" transform="translate(-8.45 -23.45)"/><path class="cls-62" d="M234.19,110.24a20,20,0,0,0-3.61-3.07c-2.86-1.48-2.41-3.32-1.28-5.68,1.35-2.83,3.31-2.85,5.65-1.59,1.56.84,2.92,2.29,5.35,1.44-.78-3.93-4.82-4.06-6.73-6.35-.3-1.24.4-1.79,1.44-2.11,2.69.12,4.5,1.94,6.53,3.37a5.31,5.31,0,0,1,2.19,6.57c-1,2.67-3.31,2.89-5.69,2.26-3.75-1-2.21,1.12-1.67,2.69.63,1.3,2.18,2.79.85,4C236.14,112.74,235.25,110.75,234.19,110.24Z" transform="translate(-8.45 -23.45)"/><path class="cls-63" d="M250.4,112.68C254,110.57,258,111,259,114.76c.89,3.32-3.8,5.45-5.34,8.6-.47,1-2.05-.15-2.85-1-1.51-1.59-2.77-3.25-.45-5.2C252.41,115.73,250,114.18,250.4,112.68Z" transform="translate(-8.45 -23.45)"/><path class="cls-26" d="M236.37,107.77c-1.19-.69-2.41-1.34-3.57-2.08-1-.65-1.9-1.54-1.17-2.8s1.83-1.22,3-.59,2,1.23,3,1.68c1.79.78,3.71,1,5-.8a3.53,3.53,0,0,0-.85-5c-2.09-1.76-4.4-3.25-6.62-4.86a1.44,1.44,0,0,1-.13-2.28c4.28,1.85,8.27,4.15,11.38,7.74C245.63,104.71,240.94,106.17,236.37,107.77Z" transform="translate(-8.45 -23.45)"/><path class="cls-64" d="M277.82,148.18c3,2.42,3,2.89-.67,7.94,2.36,1.93,2.93-1.16,4.56-1.59.73,2.65.22,5.73-2.25,6.16-3.37.58-4.2-3.16-4.93-5.64-.67-2.29-.35-4.87-.47-7.31C275.44,146.81,276.62,147.63,277.82,148.18Z" transform="translate(-8.45 -23.45)"/><path class="cls-10" d="M250.4,112.68a29.38,29.38,0,0,1,2.4,2.33c.65.79,2,1.66,1.07,2.76-1.22,1.42-2.33-.51-3.56-.59-1.44-2.1-4.42-3-4.71-6.13C247.67,110.39,248.76,112.38,250.4,112.68Z" transform="translate(-8.45 -23.45)"/><path class="cls-64" d="M277.82,148.18c-1.46,1.59-2.52-.15-3.76-.44l-2.54-3.7C274.55,144.44,280.63,139.39,277.82,148.18Z" transform="translate(-8.45 -23.45)"/><path class="cls-65" d="M262.87,125.6c2.75.09,3.2,1.77,3.63,3.21.58,2-.87,2.24-2.32,2.18s-3-.43-3-1.93S265.42,128.73,262.87,125.6Z" transform="translate(-8.45 -23.45)"/><path class="cls-65" d="M268.35,138c-3.68-2.66-.9-4.83.61-7.24,1.92,1.61,2.17,3.68,1.87,5.94C270.41,137.9,269.8,138.76,268.35,138Z" transform="translate(-8.45 -23.45)"/><path class="cls-64" d="M268.35,138l2.49-1.3c1,.79,3.53-1.83,3.44,1.63,0,1.16.33,2.28-1,2.78C270.34,142.22,269.44,139.93,268.35,138Z" transform="translate(-8.45 -23.45)"/><path class="cls-66" d="M235,91.09c0,.76.08,1.52.13,2.28L233.57,95c-2.8,1.41-1.39-4-4.22-2.59-4-1.68-7.67-5.1-12.61-2.91-2.49.52-3.66-1.37-5.09-2.79-4.87-3-8.46,2.45-13,1.94-2.28-.5-2.59-2.65-3.59-4.22-2.63-3.57-5.4-6.39-9.69-2-3.64-3.51-7.3-7-13-5.59,10.85-2.62,21.51-.13,32,1.94A90.12,90.12,0,0,1,235,91.09Z" transform="translate(-8.45 -23.45)"/><path class="cls-67" d="M185.41,82.38c-.46-1.5-2.62-3.8.88-3.9,4.2-.11,9-.48,10.11,5.54.9,8.09.17,9.18-6.78,10.13a24,24,0,0,0-4-.78,2.58,2.58,0,0,1-2.32-2.2c-.2-2.11,1.47-1.72,2.78-2,1.59-.29,4.08.26,3.51-2.82C189.41,83.77,188.52,81.93,185.41,82.38Z" transform="translate(-8.45 -23.45)"/><path class="cls-68" d="M199.45,88.13c2.73-1.48,5.49-2.89,8.17-4.45,3.84-2.25,4.08.14,4,3,1,4.22.07,7.63-4.21,9.54,1.27-6.67-6.38-3.25-7.79-6.89l-1.24-.42Z" transform="translate(-8.45 -23.45)"/><path class="cls-69" d="M149,81a18.54,18.54,0,0,1,9.85-2.62c.13.91,1.42,1.85-.08,2.71-.48,1.37-3.86-.19-2.78,2.75-3.92,2.4-2.51,6.3-2.75,9.74a3.16,3.16,0,0,1-4.37,2.09c-1.93-.63-2.14-2.1-1.31-3.84.21-.42,1.23-.94.26-1.41-6.38-3.11-1.19-5,.71-7.18A5.73,5.73,0,0,0,149,81Z" transform="translate(-8.45 -23.45)"/><path class="cls-58" d="M150.47,82.25c2.08,5.15-5.29,1.72-4.62,6.19.54,2,3.49.17,4.91,1.59-.66,1.6-4.15,1.71-2.89,3.9,1.39,2.41,3.55.45,5.32-.34a2.85,2.85,0,0,0,1.23.12c2,4.76-3.51,2.47-4.34,4.59-2.89,1-5.36.79-6.86-2.32C139.24,85.39,140.19,83.6,150.47,82.25Z" transform="translate(-8.45 -23.45)"/><path class="cls-54" d="M155.94,83.85c-1-2.84.47-3.22,2.78-2.75,1.25,2,1.38,5.55,4.34,5.47s2.28-3.37,3-5.41c.62-1.71,1.63-1,2.46,0,1.28,4.78-1.48,8.57-3.21,12.57-.36.82-1.59.39-2.3-.29Z" transform="translate(-8.45 -23.45)"/><path class="cls-41" d="M189.55,86.38c1.78.18,3.49,1.05,3.36,2.81-.17,2.27-2.42,1.55-3.9,1.62s-3.1-.11-5.07-.2c1.31,2.56,4.11,1.13,5.37,2.74.73.53.72,1.05,0,1.58-2.54-.52-6.53,1.75-6.9-3.05C182,86.8,186.88,87.86,189.55,86.38Z" transform="translate(-8.45 -23.45)"/><path class="cls-70" d="M138,103.22c-5.48-.93-8.34-5.47-7.39-13.14,1.82,3.59,3.21,6.31,4.6,9,2.32,1,5.36-3.55,7.25.93-.44,1.57-2.28.81-3.06,1.83Z" transform="translate(-8.45 -23.45)"/><path class="cls-71" d="M163,93.44c5.36-2.51,3.47-8.27,5.51-12.28,1.67,5.22-.94,13.86-4.4,14.48C161.35,96.14,161.29,95.23,163,93.44Z" transform="translate(-8.45 -23.45)"/><path class="cls-12" d="M139.35,101.87c.15-1.58,1.41-1.36,2.45-1.52,1.58-1.37-2.16-5.63,2.8-5.15.61,3.64,3.26,2.58,5.52,2.4a1.19,1.19,0,0,1,1.82.18A18.48,18.48,0,0,1,139.35,101.87Z" transform="translate(-8.45 -23.45)"/><path class="cls-72" d="M189.31,94.93V93.35c7.41.72,5.8-5.41,7.09-9.33,1.7.86.84,3.63,3,4.11a.92.92,0,0,0,.2,1.22C196.38,91.54,194.55,96.4,189.31,94.93Z" transform="translate(-8.45 -23.45)"/><path class="cls-48" d="M173.73,89.45c1.93-.08,3.07.71,3,2.77,0,1.26-.43,2.4-1.82,2.44-3.53.11,2.45-4.69-2.17-4.36C172.39,90.32,173.2,89.56,173.73,89.45Z" transform="translate(-8.45 -23.45)"/><path class="cls-69" d="M151.94,97.78l-1.82-.18c.91-1.88,4.94-.3,4.3-3.89,2.29-1.63,2.84.27,2.7,1.71C156.79,98.82,154,97.61,151.94,97.78Z" transform="translate(-8.45 -23.45)"/><path class="cls-73" d="M144.6,95.2c-3.8.15.43,4.68-2.8,5.15-1.68-3.29-5,2.36-6.64-1.24,1.89-4.65-2.79-7.87-2.65-12.14,5.38-2.28,10.62-4.92,16.44-6l1.52,1.24C142.5,83.84,141.31,88.51,144.6,95.2Z" transform="translate(-8.45 -23.45)"/><path class="cls-2" d="M285,215.49l-4,0c-1.67-1.44-2.31-3.56-3.53-5.3-2.46-7.32-1.36-14.9-1.09-22.31.22-6.06-1.7-8.51-7.65-7.72-2.14-.06-4.28-.05-6.41-.07-5.77-.9-8.8.91-7.47,7.33a11.16,11.16,0,0,1-.19,4.1c-.25,1.36-.52,2.93-2,3.36s-2.59-.69-3.46-1.75c-2.46-3-4.62-6.25-6.81-9.46-2.34-3.43-5-4.65-8.42-1.35-1.82,2.52-4.21,2.08-6.68,1.34a26.6,26.6,0,0,0-18-3.35c-6.66,1-9.75,4.4-9.81,11.12-.06,7.25-1.57,14.93,4.87,20.69.55,1.47,1.22,2.94-.3,4.26a11.59,11.59,0,0,1-10.3,0c-4.05-9.89-1.53-20.25-2.11-30.39-.13-2.24,1.56-5.31-2.61-5.79-3.67-.42-6.4.36-6.53,4.74a34.84,34.84,0,0,1-3.93,8.78c-3.17,5.4-5.46,5.34-8.59-.29-1.89-3.41-3.24-7.11-5.41-10.38-1.07-1.61-2.46-2.87-4.56-2.4-2.4.53-2.19,2.6-2.27,4.42-.34,8.23,1,16.52-.86,24.7-3.91,4.42-6,1-7.77-2-2.2-3.77-2.93-8.28-5.63-11.83-2.14-3.61-3.2-7.65-4.42-11.61-.76-2.46-2.05-4.08-4.81-4.13s-4,1.74-4.54,4.26c-1.5,7.38-6.26,13.32-8.92,20.2a7.56,7.56,0,0,1-2.26,2.38c-2.12,1.05-4.24,2.17-6.35,0-2.34-7.54-.76-15.25-1-22.88-.08-2.24.64-4.49-.15-6.72,1.55-5.61,6.94-2.63,10.15-4.53q97.27-.09,194.56-.24c4.36,0,5.5,1.55,5.4,5.65-.27,11.08-.17,22.16-.23,33.23-2.39,3.78-4.27-.13-6.4-.42-4.22-3.18-6-8.12-8.73-12.34-1.6-2.45-.52-4.9.79-7.18,2.05-3.57,4.44-6.95,7-10.73-4.32-1.48-6.81-1.34-8.62,3.11-2.31,5.69-5.14,5.63-8.66.38-.89-1.32-1.26-3.05-2.88-3.78s-3.29-1.09-4.65-.1c-2.06,1.5-.25,3.1.68,4,9.64,9.73,5.8,18.62-1.47,27.37-.59.71-1.05,1.53-1.63,2.25A16.38,16.38,0,0,1,285,215.49Z" transform="translate(-8.45 -23.45)"/><path class="cls-74" d="M121.19,172.9l-9.65,3.95c-2.83,2.69-6.31,1.72-9.61,1.69-2.7-.31-4.94-2.21-8.46-2.49,1.2,2.8,0,6.2,2.57,7.81,1.68,1.06,2.71-1.84,4.1-2.87a1.88,1.88,0,0,1,1.9.19c2.22,4.3,2.42,8.06-3.2,9.63-6.29,1.77-10.55-.49-11-6.17-.22-3.17-1.41-4.58-4.22-5.14a5.16,5.16,0,0,1-1.6-1.09c-.63-.79-1.11-2.56-2.09-2-1.86,1,.27,2.56.1,3.92,2.35,8.66,1.36,17.47,1.25,26.22,0,2.13-.71,4.45-3.1,4.87-2.76.48-2.38-2.06-2.74-3.73,1.16-3.65.21-7.22-.34-10.84-.51-3.35-1.71-6.75.24-10.22.6-.39-1-.44-.22,0-2.78,3.32-5,2-7-.87a5.05,5.05,0,0,1,1.55-2.48c2.3-4.09,1-5.92-3.58-6-7.75-.18-15.49-.42-22.71,3.17-3.45-2-1-5-1.24-7.5Z" transform="translate(-8.45 -23.45)"/><path class="cls-53" d="M315.41,210.23c2.15-.88,3.13,3.19,5.52,1.31l.12,4.07-36.1-.12c0-.43.07-.85.13-1.28,4-4,10.73-3.38,14.23-8.47.74-1.07,2.71-.1,3.48,1.11C306,211.86,310.51,211.7,315.41,210.23Z" transform="translate(-8.45 -23.45)"/><path class="cls-75" d="M39.42,215.63a4.28,4.28,0,0,1-1.23-.12c0-12.56-.11-25.12-.1-37.68,0-1.71-.67-3.74,1.4-4.91,2.57,2.5.69,6.32,2.66,9a106.7,106.7,0,0,1,.15,24.62C41.24,209.53,41.74,213,39.42,215.63Z" transform="translate(-8.45 -23.45)"/><path class="cls-2" d="M41.1,181.2c-3-2.29-1.33-5.47-1.61-8.28H42.2c2.9,2.33,1.36,4.71.08,7.08A1.37,1.37,0,0,1,41.1,181.2Z" transform="translate(-8.45 -23.45)"/><path class="cls-53" d="M204.48,215.58l-1.27-2.8c3-2.56,6.59-1.72,10-1.78,12.34-.22,14.21-2.19,14.41-14.77.08-4.59-1-9.22.41-13.77,1.56-.4,4.15,1.93,4.46-1.71,3.68,1.1,2.91,4.32,3,6.88.29,5.75,0,11.52.17,17.28.08,2.2-.19,5.46,2.88,5.33s1.31-3.24,1.55-5c.42-3.08-1-7.48,2.43-8.65s5.1,3.09,7,5.54c1.71,2.17,3.1,4.58,5,6.62,1,1,2.09,2,3.6,1.43s1.42-2.21,1.42-3.56c0-7.14-.21-14.29.13-21.42a21.42,21.42,0,0,1,1.42-6.74h7.63c.17,1.76-1.46,2.21-2.31,3.21-1.93,7.19-.11,14.56-.9,20.76,1.26-6.35-1.8-14.08,1.51-21.35,3.73.42,3,3.55,3.15,5.75.38,5.26.12,10.56.15,15.84,0,8.8.08,8.83,9,7.58,2.4,1.18,1.47,3.41,1.67,5.28l-36.25,1.68-2.61-.36c-8.92-2.58-17.76-.74-26.61.5a3.47,3.47,0,0,1-2,.48C210.46,217.1,207,218.35,204.48,215.58Z" transform="translate(-8.45 -23.45)"/><path class="cls-19" d="M214.29,217.05l1.2.29c6.67,6.67,14.87,11.34,22.31,17,4.11,3.13,8.37,6,10.94,10.68,2.33,4.83-.36,5.28-4.15,4.78a4.79,4.79,0,0,1-2-.88c-10.77-8.27-22.07-15.88-32.09-25.12a40.53,40.53,0,0,1-3.15-2.71c-.9-1-2.06-2.13-1.45-3.6.68-1.66,2.38-1,3.67-1C211.16,216.47,212.83,216,214.29,217.05Z" transform="translate(-8.45 -23.45)"/><path class="cls-49" d="M262.56,243.76c-1.56,3,2.06,2.69,2.73,4.27-2.14,5.94-7,1.91-10.54,2.91-4.43-2.69-5.26-6.73-4.28-11.45,2.94-4.81,2.41,1.7,4,1.23A10.94,10.94,0,0,1,262.56,243.76Z" transform="translate(-8.45 -23.45)"/><path class="cls-18" d="M254.76,250.05c3.65,0,7.41.69,10.53-2a3.31,3.31,0,0,1,2.95-1.81c1,4.14-2.79,8.2.54,12.55-3.74-1-7.58.13-7.88-5.4-.16-2.87-4.36-.57-6.45-1.74A1.08,1.08,0,0,1,254.76,250.05Z" transform="translate(-8.45 -23.45)"/><path class="cls-76" d="M262.56,243.76c-2.93-.39-6-.44-8.07-3,.06-2.59-.88-6,3.07-6.24,2.76-.15,4.81,2,3.84,4.92C260.72,241.46,266.19,241.38,262.56,243.76Z" transform="translate(-8.45 -23.45)"/><path class="cls-36" d="M254.76,250.05c-.1.53-.2,1-.31,1.58-3.79.5-7.59,1.06-11-1.43a.78.78,0,0,1-.36-.87c.1-.3.2-.45.31-.45,2.6-.14,6.29,1.21,5.33-3.85.08-2-.27-4.16.36-6,.89-2.57.88.26,1.37.43A19.33,19.33,0,0,0,254.76,250.05Z" transform="translate(-8.45 -23.45)"/><path class="cls-44" d="M39.42,215.63c.35-2.81-1.29-6,1.56-8.33,7.23,2.2,14.39,4.79,22.17,3.65.91-.13-.21.11.69,0,2.34-.37,6.36,1,6.48-2,.15-3.34-3.88-2-6.16-2.27s-4.62-.09-6.93-.14c-5.64-.12-8.48-3-8.66-8.59a67.92,67.92,0,0,1,.08-8.32c.46-5.21,3.23-8,8.55-8a68.12,68.12,0,0,1,9.69.41c1.85.28,4.46,0,4.36,3.15l-2.59.28c-2.09,1.92-4.74,1.75-7.23,1.65-5-.2-6.26,2.36-6.25,6.86,0,4.82,1.55,7.43,6.77,7.26,3.7-.13,7.38-.35,11.07-.54s5.25,1.4,4.1,5.12v4.55c3.38-10.71,2.52-21.46,1.08-32.22,1-1.76,2.24-2.64,4.19-1.3v1.57c.62,8,.39,16.13.62,24.19.07,2.68-1.94,7.43,1.93,7.63,4.37.23,2.25-4.6,2.45-7.19.57-7.21,2.47-8.95,9.41-8.6,5.55.29,6.74,3.61,7,8.31.14,2.68-1.33,7.39,2.86,7.15,3.33-.2,1.43-4.64,1.55-7.14.25-5.06.1-10.15.08-15.22,0-7-.06-7-7.56-6.76l-.38.45c-3.1-1.55-2.14-3,.12-4.39h11.1c1.51.79,2.68,1.74,2.26,3.75-1.87,8.87-.42,17.86-.87,26.79q3.27,4.16,0,8.31c-4.44,1.69-9,1.45-13.66,1.2a2.59,2.59,0,0,1-.25-1.09c-1.25-1.26-1.29-2.84-1.3-4.5,0-3.2,2.7-8.74-1.24-8.94-4.3-.23-1.92,5.39-2.08,8.5-.09,1.93,0,3.72-2.17,4.61Z" transform="translate(-8.45 -23.45)"/><path class="cls-38" d="M144.73,195c3.64,3.22,3.83,8.11,5.8,12.15,1.18,2.4,2.15,4.76,5.51,3.08,4.38,1.07,6.52-.48,6.52-5.16,0-2.15-.4-5.37,2.42-5.75,2.6-.36,3.21,2.82,4.41,4.7.25.39.38.85.62,1.24,1.14,1.86,1.11,4.94,4.08,5s3.28-2.85,4.44-4.75c.6-1,1.08-2,1.77-3s1.5-2.07,2.67-1.94c1.61.19,1.91,1.78,2.23,3.13s.24,2.76.54,4.11c.26,1.14.59,2.36,2,2.42a2.08,2.08,0,0,0,2.16-2.21,137.38,137.38,0,0,0-.15-23.48c-.32-2.77-2.6-3.74-5.16-1.84-1.19.89-1.51,3-3.66,2.54.28-6.36,6.43-9.86,12.14-6.94a2.32,2.32,0,0,1,1.5,2.72c-1.92,11-1.22,21.93-.24,32.91,0,.57-.61,1.21-.94,1.82-2.37,2.46-5.48,1.79-8.37,1.9-7.72.28-15.46-.44-23.15.44a11.9,11.9,0,0,1-2.21.39c-3.81.09-7.53-1.55-11.4-.65a3.1,3.1,0,0,1-1.93-.61c-3.26-.67-6.86,1.12-9.88-1.35.08-1.66,1.4-3.69-.81-4.77-1.87-.91-3.46.06-4.5,1.74a8.61,8.61,0,0,1-2.8,2.8l-10,.07c-5.19-3.28-5.2-4.15-.12-9.68l1.66-1.36a2.93,2.93,0,0,1,1,2.48c-.82,5.62,2,4.15,4.35,2a12,12,0,0,1,8.69-3.5c3,.06,6,.14,8.1,2.91,1.27,1.67,2.85,3,5.39,1.95C147.58,205.14,141.62,200.8,144.73,195Z" transform="translate(-8.45 -23.45)"/><path class="cls-25" d="M146.36,217.2c.42,0,.85-.11,1.27-.19,1.48-1,3.14-.54,4.72-.54,3,0,2.75,1.71,1.71,3.67a7.68,7.68,0,0,1-2.19,2.66c-10.45,7.63-19.46,17.08-30.33,24.19-3.15,2.07-6.26,2.79-9.76,1.13-2.52-2.81-2.48-5.73-.37-8.74,4.69,1.78,7-1.36,10.2-4,6.11-5.09,13-9.24,19.67-13.63A16.52,16.52,0,0,0,146.36,217.2Z" transform="translate(-8.45 -23.45)"/><path class="cls-77" d="M111.41,239.38c.78,2.81-1,6.05,1.47,8.57,1,1.37,4.25-1.22,4.13,2.27a18.16,18.16,0,0,1-8,1.68,1.39,1.39,0,0,1-2,.06c-3.85.33-9.06-2.17-9.44,5.1-.12,2.29-2.66.67-4,.89-2.53.4-1.57-1.86-1.28-2.66,1.33-3.66-1.5-5.28-3.27-7.44a3.38,3.38,0,0,1,1.9-2.37,5.07,5.07,0,0,1,4.85.78c6.53,3.34,8.12,2.84,11.11-3.53.57-1.23.78-2.67,2.17-3.37Z" transform="translate(-8.45 -23.45)"/><path class="cls-54" d="M109,239.36c-1.85,11.32-6.24,13.9-14.08,8.31a51,51,0,0,1,3.94-4.86c2.92-1.49,4.81-4.14,7.14-6.28C109.54,234.8,107.92,238.53,109,239.36Z" transform="translate(-8.45 -23.45)"/><path class="cls-4" d="M106,236.53c.1,4.69-2.9,6.39-6.89,7.14a2.93,2.93,0,0,1-2.78.43c-1.2-.78-2-1.72-1.4-3.26,1.79-1.16,1.25-2.7.67-4.23C99.09,237.08,102.52,231.76,106,236.53Z" transform="translate(-8.45 -23.45)"/><path class="cls-74" d="M128.37,215.62c1.72-2.65.48-8.12,6.46-6.73,1.47.35,3.65-.55,4,1.62s1.16,4.82-2.4,5.34Z" transform="translate(-8.45 -23.45)"/><path class="cls-74" d="M118.29,206c-.58,3.23-5.4,6.52.12,9.68h-5.47q0-4.15,0-8.31Z" transform="translate(-8.45 -23.45)"/><path class="cls-38" d="M282.36,254.22c-.78,2.32-2.11,1.32-3.56.73-1.88-.78-1.15-1.94-.71-3.13C281.57,249,281.84,251.81,282.36,254.22Z" transform="translate(-8.45 -23.45)"/><path class="cls-31" d="M86.78,253.56c-.09,2.17-.19,4.34-.28,6.5l-4,4.3-8.12-10c2.91-3.43,9.05-1.52,10.94-6.63C88.83,248.89,86.87,251.46,86.78,253.56Z" transform="translate(-8.45 -23.45)"/><path class="cls-60" d="M86.78,253.56c-.85-1.86.52-4.29-1.49-5.85,1.36-4.91,6.56-4.41,9.66-6.87l1.32,2.58c-.17,4.21-4.29.73-5.55,2.84L89,247.85C87,249.26,88.34,252,86.78,253.56Z" transform="translate(-8.45 -23.45)"/><path class="cls-2" d="M92.24,215.48c2-4-.88-8-.2-12.11.44-2.64.88-4.26,4-4.32,3.32-.06,4.7,1.34,4.38,4.52-.42,4.09-.91,8.16-1.37,12.24Z" transform="translate(-8.45 -23.45)"/><path class="cls-78" d="M216.74,89.49c5.8-5.93,9.07-.9,12.61,2.91-4.17,10.48-4.17,10.48-12.1,7.91-1-1.3-1.93-2.6-2.9-3.89Q215.55,93,216.74,89.49Z" transform="translate(-8.45 -23.45)"/><path class="cls-19" d="M129.58,301.7c-10.36-4.95-18.43-10.85-21-15.35,8.68-4,18-5.77,27.18-7.91,7.71-2.4,13.46-.8,18,5.71,2.1,3,3.9,3.93,7.33,2.24,5.72-2.82,11.39-1.81,16.19,2,3.45,2.77,5.72,2.22,8.95-.37,6.79-5.45,13.33-4.41,19.07,2.44.91,2.75-.07,4.74-2.45,6.17-2,1.13-4.31.94-6.4,1.64-.53.27-1.08.52-1.62.78a10,10,0,0,1-2.49.94,6.85,6.85,0,0,1-1.81.07c-1.16-.14-2.27-.68-3.44-.28-1,3.18,0,6.4-.4,9.59s-2.07,5-5,4c-3.76-1.27-7.2-1.73-10.94-.1-.9.4-2.11-.64-2.88-1.57A6,6,0,0,1,167,309a12.67,12.67,0,0,1,3.18-8.11c2.26-2.58,0-2.34-1.64-2.45a10,10,0,0,1-4.48-1.24,13.61,13.61,0,0,0-9.73-1.58,19.69,19.69,0,0,1-5.48-1c-1.46-.53-2.57-1.65-4-2.27-4.07-2.32-7.24-2.11-8.95,2.94a10.58,10.58,0,0,1-2.61,3.94A10.79,10.79,0,0,1,129.58,301.7Z" transform="translate(-8.45 -23.45)"/><path class="cls-73" d="M251.39,286.77c-5.13,6.22-12,10-19,13.74-2.53,1.3-4.38-.18-6.28-1.51-3.29-2.1-3.14-7.05-7.13-8.56a17.94,17.94,0,0,0-9.25,2.11,2.3,2.3,0,0,1-1.75-.86,5.63,5.63,0,0,1-.69-3.06c3.21-10,9-12.94,19.56-10.07C235,281.44,243.84,282.18,251.39,286.77Z" transform="translate(-8.45 -23.45)"/><path class="cls-57" d="M226,297.6l6.47,2.91c-13.32,8.79-28.36,12.29-43.93,13.67-7,.62-14.19,0-21.29-.09-.73-1.49.11-2.19,1.35-2.69,1.18.42,2.18,1.87,3.65.49,1.16-1.07,6.58-1.22,7.67-.33,2.63,2.14,4.82,1.92,5.11-1.74s.61-7.27-.57-10.87c-.91-2.76,1-1.53,2.15-1.33,2.39,2.46.68,5.7,1.5,8.4-.19-2.61-.71-5.33,2.21-7h1.79c1.92,1.57,2.32,3.91,3,6.09s1.62,3.38,3.93,2.71c2.14-.62,3.86-1.81,3.44-4.39s-1.23-4.92-.53-7.47c1.5-1.41,3.28-2.67,2.62-5.17a3.37,3.37,0,0,1,4-1.71c.1,1,.21,2.09.32,3.14.12,1.3,1,1.39,1.94,1.08,1.86-.59,3.81-1,4.71,1.24,1.09,2.67-1.48,2.81-3,3.63-2,1.15-4.45,2.27-2.89,5.17,1.94,3.63,4.16.67,5.25.44-1,.4-3.09,2.3-5-.48-1.36-2,0-3.38,1.6-4.56s5-.74,4.25-4.29c-.7-3.34-4.23-.64-5.57-2.61,2.21-4.09,5.8-2.95,9.23-2.44C223.2,290.85,221.42,296.74,226,297.6Z" transform="translate(-8.45 -23.45)"/><path class="cls-79" d="M129.58,301.7c.11-1.7.86-2.76,2.73-2.68a4.72,4.72,0,0,1,2.57.85c0-.92,2.27,3.54,1-.43-.91-2.81,3.14-4.35,2-7.57-.33-.92,1.87-1.51,3.38-1.28s2.91,1.77,4.45.17l3.69,2.74c.61,2.69-.33,6,3.4,7.41,1.69.65,3,2.35,2.11,4.4s-2.85,1.62-4.65,1c1.86.85,3.88.76,5.55,1.88,1.49,2.83-1.37,2.19-2.4,3C145.07,309,136.71,306.89,129.58,301.7Z" transform="translate(-8.45 -23.45)"/><path class="cls-80" d="M153.39,311.21l2.61-2.59c1.49-3-1.21-6.06.12-9.08,3.45-2.13,6.7-1.17,9.91.6,1.87,3.25,0,6.28-.52,9.39a5.64,5.64,0,0,1-2.62,3.3Z" transform="translate(-8.45 -23.45)"/><path class="cls-81" d="M136.47,279.52c-9.48,1.53-18.27,5.89-27.89,6.83-1.06-1.54-2.88-.8-4.24-1.43l26.5-6.91C132.47,279.42,135.05,277.32,136.47,279.52Z" transform="translate(-8.45 -23.45)"/><path class="cls-34" d="M251.39,286.77l-24.69-7.16c.58-1.17,2-.61,2.81-1.41l26.67,6.72C254.58,285.53,252.49,284.86,251.39,286.77Z" transform="translate(-8.45 -23.45)"/><path class="cls-18" d="M162.89,312.83c.07-1.09.17-2.17,1.36-2.7,1.16-.21,1.73-1.31,2.69-1.83a1.21,1.21,0,0,1,1.44.44l.18,2.67-1.35,2.68C165.62,314.18,164,314.45,162.89,312.83Z" transform="translate(-8.45 -23.45)"/><path class="cls-82" d="M79.61,275.47c-2.94-.12-.67-2.42-1.44-3.45l8-9.3L87.72,264l-4,5.81C83.45,272.52,80.51,273.24,79.61,275.47Z" transform="translate(-8.45 -23.45)"/><path class="cls-83" d="M79.61,275.47c0-2.89,1.8-4.46,4.15-5.62l3.07,0c-.06.46-.13.93-.2,1.4l-4.25,4.12C81.42,273.77,80.54,275.69,79.61,275.47Z" transform="translate(-8.45 -23.45)"/><path class="cls-13" d="M275.46,270.41a3.13,3.13,0,0,0-1.64-3.05c-1.08-1.38-2.47-2.6-2.37-5.35l4.11,2.72s.35.37.35.36l5,6.13C278.55,274.57,276.88,273.37,275.46,270.41Z" transform="translate(-8.45 -23.45)"/><path class="cls-4" d="M229.51,278.2c-.55,1.25-1.72,1.25-2.81,1.41-10-2-13.88,0-18.21,9.45a5.74,5.74,0,0,1-4,1.71c-8-6.33-12.75-6.3-19.61.78-2.69,2.79-4.2,3-7,.11-6.12-6.27-10.67-6.87-18.3-2.38-3.48,2-4.67.85-6.31-2.08-4.43-7.89-8.39-9.57-16.79-7.68-1.92-.34-4.27.94-5.63-1.51l13.53-4.23c1.47-.64,2.8.33,4.21.35,7.2,2.21,14.22,5.07,21.84,5.63,10.07,1.73,20,.3,29.84-1.51,4.29-.76,8.52-1.73,12.36-3.93a7.64,7.64,0,0,1,1.73-1,3.16,3.16,0,0,1,2.83.52Z" transform="translate(-8.45 -23.45)"/><path class="cls-84" d="M117,250.22,112.88,248c7.52-.56,12.41-5.63,17.72-10.12,7.75-6.56,15.7-12.88,24.8-20.31l-7.77-.51c3.82-2.89,7.52-.46,11.27.24,1.66,3.53-1.41,5.44-2.78,7.89-2.68,4.79-7.72,8-9.33,13.48-3.93,3.8-10.34,2.28-14,6.57A65.3,65.3,0,0,1,117,250.22Z" transform="translate(-8.45 -23.45)"/><path class="cls-85" d="M147.83,275.34l-3.46-1.56a94.06,94.06,0,0,1,54.51-5.09c5.33,1.15,11.67-.7,15.39,5.2l-.22,1.76c-4.6-.67-9.14-.1-13.69.58a33.47,33.47,0,0,1-6.25-2.83c-2.51-1.27-4.49-1.19-6.81.87-6.62,5.87-7.16,5.83-13.56,0-1.63-1.49-3-2.83-5.33-1.88a15.55,15.55,0,0,1-1.92.39,55.83,55.83,0,0,0-8.81,1.45A47.26,47.26,0,0,1,147.83,275.34Z" transform="translate(-8.45 -23.45)"/><path class="cls-86" d="M210,262.93l-1.25-1.11c-.79-1.36-2.12-1.57-3.51-1.77-2.89-.43-4.39-2.27-4.8-5.05-.44-3,.75-5.13,4.64-6.1-8.79.39-3.76,8.1-7.09,11-2,.66-3.88,2.83-6,.2.74-2.89,2.05-5.63,2.22-8.87-2.28-.34-6.87,2.41-5.27-3.52,3-5.46,7.34-1.75,11.24-1.89,5.53-.21,10.76-.15,15.31,3.5C214.93,254.38,214.77,259.59,210,262.93Z" transform="translate(-8.45 -23.45)"/><path class="cls-20" d="M175.3,238l-5.5-.42c-1.15-.62-3.11-.22-3-2.42a4,4,0,0,1,1.76-1.3c8.09-1.46,16.22-1,24.34-.42a14.77,14.77,0,0,1,2.19.39c4.22,1.5,8.73.25,13,1.32,3.47.86,6.91,1.83,10.35,2.85,4,1.51,8.69,1.61,11.41,5.67-.43,2.16-1.76,2-3.3,1.28-11.89-2.64-23.49-6.68-35.8-7.24C185.6,237.7,180.49,239.76,175.3,238Z" transform="translate(-8.45 -23.45)"/><path class="cls-10" d="M155.22,257.7c-1.64,1.52,1.3,4.7-2.1,5.07s-2.52-2.66-3-4.38c-2.75-9-1-11.65,7.13-11.1,3,.2,5.18,1.56,4.48,4.7-.57,2.55-1.12,4.33,1.07,6.65,2,2.12-.9,2.3-2.16,2.48C158.1,261.47,157.74,258.35,155.22,257.7Z" transform="translate(-8.45 -23.45)"/><path class="cls-11" d="M189,247.75c.88.83.8,5.35,3,.93.73-1.46.66-3.25,2.87-2.66s1.58,2.61,1.22,4c-1,3.52,1.28,8.38-4,10.16l-4-5.62c-2.83,0-.63,7.44-4.35,3.91-3-2.86-1.87-8.78-.35-12.44C184.64,242.76,187.28,246.14,189,247.75Z" transform="translate(-8.45 -23.45)"/><path class="cls-29" d="M210,262.93c2.72-4.17,2-9.73,5.53-13.57a18.17,18.17,0,0,1,3.13,1.33c2.14,1.41,7,.66,6.2,4.05-1,4.37-4.54-.93-7.33.84,5.7,1.51,1.45,6.72,4,9.74.56.68-1.75,1.51-3.19.93C215.55,265.13,212.78,264,210,262.93Z" transform="translate(-8.45 -23.45)"/><path class="cls-87" d="M167.12,235.26l2.68,2.36c-12.65,1-24.82,4.46-37.06,7.57,1-4.51,5.37-4.2,8.4-5.69,1.56-.76,3.72.18,5.23-1.3,2.6-2.57,5.94-4.11,8.88-6.22C160.16,228.45,163.64,232.35,167.12,235.26Z" transform="translate(-8.45 -23.45)"/><path class="cls-88" d="M179.52,256.1c.72,2.47-.88,3.64-1.29,3.09-3.63-4.9-9.63,3.58-11.67-1.57-1.13-2.83,1.62-7.4,3.09-11a2.87,2.87,0,0,1,5-.78C176.91,249.27,178.24,253.26,179.52,256.1Z" transform="translate(-8.45 -23.45)"/><path class="cls-65" d="M141.15,255.3c1.66,1.44,3.48.23,4.4,2.22.84,1.82-.24,2.39-1.76,2.85a2.22,2.22,0,0,0-1.34,1.32c-.41,1.71,2.22,4.59-1.25,5s-3.08-3.42-4-5.44c-3.69-8.13-3.57-8.19,4.88-10.31,1.46-.36,3.3-1.62,4.16.59s-1.1,2.67-2.64,3.18C142.81,255,142,255.1,141.15,255.3Z" transform="translate(-8.45 -23.45)"/><path class="cls-89" d="M198,259.94c-1.13-4.12-1.29-8.42,1.6-11.64,2.2-2.45,5.62-.93,8.5-.31,1.53.33,2.59,1.3,2.08,2.89-.43,1.34-1.92,1.12-3,.86-2.29-.6-4.76-2.6-5.56,1.81-.68,3.82,1.36,4.83,4.48,5.19,1.76.21,3.11.89,2.62,3.08C205.07,261.77,201.33,262,198,259.94Z" transform="translate(-8.45 -23.45)"/><path class="cls-90" d="M214.27,273.89c-4.64-3.17-10.62-2.4-15.39-5.2,8.71-2.05,15.11-.25,18.3,5.15Z" transform="translate(-8.45 -23.45)"/><path class="cls-18" d="M226.55,245l2.88-1.47c5.48-1.53,9.8.85,13.83,4.16a3.05,3.05,0,0,1,.15,1.2,11.65,11.65,0,0,1,.05,1.32A65.89,65.89,0,0,1,226.55,245Z" transform="translate(-8.45 -23.45)"/><path class="cls-91" d="M107,252l2-.06c1.55,4.65-1.47,7.52-4.32,11.62C104.26,258.68,105.94,255.38,107,252Z" transform="translate(-8.45 -23.45)"/><path class="cls-80" d="M100.73,279.58l-3.06-4.17c-.43-.3-.58-.61-.46-.94s.26-.49.39-.49c1.33-1.35,2.05-3.46,5.33-3.67C100.25,273.31,103.33,276.84,100.73,279.58Z" transform="translate(-8.45 -23.45)"/><path class="cls-91" d="M256.2,264.48c-3.76-3.82-5.38-7.1-5.94-10.9,0-.14,1.42-.8,1.65-.61C255.05,255.67,255,259.52,256.2,264.48Z" transform="translate(-8.45 -23.45)"/><path class="cls-92" d="M92,275.73l.21-3,5.24-6.84c1,3.76-1.67,5.58-2.74,7.95C94.24,275.09,93.62,276.13,92,275.73Z" transform="translate(-8.45 -23.45)"/><path class="cls-93" d="M92,275.73l2.71-1.87c.89,1.73,1.91.41,2.88.12,0,.48,0,.95.07,1.43-5,4.86-5,4.86-7,1.4Z" transform="translate(-8.45 -23.45)"/><path class="cls-94" d="M175.3,238c5.15,0,10.28-1.53,15.45-.29C185.63,239.66,180.5,240.33,175.3,238Z" transform="translate(-8.45 -23.45)"/><path class="cls-95" d="M181,185.22a3.79,3.79,0,0,0,2.1-3.35c.49-4.3,3.74-2.36,5.87-2.59,3.08-.34,3,1.92,3,4.12,0,8.29-.12,16.6.09,24.89.07,3.06-.41,4.66-4,4.72s-4.21-1.5-3.93-4.6a58.05,58.05,0,0,0-.33-7.64,17,17,0,0,0-5.33,9.22c-.67,2.93-2.33,2.87-4.46,2.93s-3.14-.49-3.88-2.79c-1.09-3.37-3.07-6.45-4.8-9.91-2.68,4.25,2,9.84-3.25,12.45-1.87.92-5.21,1.26-6-2.47.12-8.73.13-17.47.44-26.2.06-1.71-3.18-5.06,1.41-5.08,3,0,6.75-2.19,8.68,2.9,2,5.24,4.22,10.55,8.46,15.68Z" transform="translate(-8.45 -23.45)"/><path class="cls-95" d="M261.11,178.44q.42,16.4.84,32.79c.05,2.13-1.67,2-2.9,1.84-2.23-.23-4.7,1.15-6.31-2.36-2.25-4.92-5.68-9.27-10.62-14.53,0,4.76-.06,8.07,0,11.37.07,2.8,1.46,5.72-3.73,5.78-5.34.07-4.53-2.86-4.48-6.13.11-6.68.09-13.35,0-20,0-2.21.73-4.68-1.47-6.42,4.27-2.78,8-4.2,11.19,1.8,2.19,4.15,5.37,7.77,9.3,13.3.21-4.41.92-6.95.32-9.12C251.18,179.26,254.94,177.83,261.11,178.44Z" transform="translate(-8.45 -23.45)"/><path class="cls-50" d="M228,182.46c3.06,7.79,1.68,15.94.93,23.75-.38,4-4.88,7-9.87,6.94-5.28-.08-10.56-.24-15.85-.37-9.05-5.76-4.09-14.86-5.38-22.48-1.17-6.87,3.44-10.44,8.54-11.14C213.59,178.16,221.53,176.76,228,182.46Z" transform="translate(-8.45 -23.45)"/><path class="cls-52" d="M315.41,210.23c.15,5.2-3.84,2.61-6,2.9s-4.94,1.25-6-2.56c-1.51-5.21-4.26-5-6.24-.29-1.16,2.79-2.91,3.07-5.35,3-2.28-.06-4.63-.41-6.73.92,1.24-4.47,4.56-7.71,7-11.42,2.61-3.95,3.19-7.12,0-11.08-2.93-3.69-5.17-7.93-7.74-12,8.59-3.8,13,.83,16.75,10.17,2.2-10.51,6.89-13.83,15.22-10.13-1.19,1.86-2.35,3.7-3.56,5.51C304.58,197.65,304.7,198.8,315.41,210.23Z" transform="translate(-8.45 -23.45)"/><path class="cls-32" d="M144.73,195c.71,6.19,4.19,11.47,6.11,17.83-4.08-.59-8.78,2.9-10.6-4-.71-2.67-11.58-2.77-12.35-.07-1.8,6.24-6,3.9-9.89,4.06l2-8.11c1.44-8.76,8.37-15.47,8.93-24.79.15-2.4,5.3-.84,8.15-1.13,1.79-.18,3.09.42,3.15,2.64C140.31,186.35,143,190.5,144.73,195Z" transform="translate(-8.45 -23.45)"/><path class="cls-96" d="M279.29,210.24c-1.35,5.8-6.08,2.84-9.07,3-3.51.15-1.13-3.17-1.18-4.8-.21-7.35-.06-14.7-.1-22.06,0-2,.47-4.22-1.67-5.62h0l1.47-2.28c9.79.5,9.65.51,9.83,10.46C278.7,196,277.65,203.18,279.29,210.24Z" transform="translate(-8.45 -23.45)"/><path class="cls-84" d="M243.26,247.68c-4.18-2.81-9.35-2.36-13.83-4.16l-11-4.12c-5.58-3.1-8.42-8.76-12.46-13.29-3.26-3.66-6-8.36-12.17-7-8.46.21-16.91.15-25.36.11-2.92,0-6,.28-8.35-2.17,7.07-2.82,14.43-.71,21.64-1.23,3.88-.28,7.79-.08,11.69-.09l11.06-.15c3.23.72,6.87-1.21,9.81,1.47h-9c11.53,10,21.75,18.78,32.91,26.28C240.17,244.63,242.22,245.48,243.26,247.68Z" transform="translate(-8.45 -23.45)"/><path class="cls-97" d="M71.25,185.2C65.74,182,59.76,184,54,183.78c-1.88-.08-3.26,1.55-3.13,3.81,0,.46,0,.92,0,1.38C51,207.79,48.72,204.76,66.21,205a58.39,58.39,0,0,1,6.2-.06c2.74.34,1.79,2.72,1.91,4.37.14,1.92,0,4-2.68,3.84-10.46-.67-21.83,3.32-30.66-5.88l.12-26.1,1.18-1.2c8.54-6.84,18.77-5.38,28.19-4.24C76.66,176.52,73.25,181.76,71.25,185.2Z" transform="translate(-8.45 -23.45)"/><path class="cls-5" d="M100.7,180.8c2.29-3.61,6-2.26,8.71-1.61,3.27.77.7,3.9.78,5.87.35,8.06-.1,16.15.44,24.18.22,3.35-.7,4.13-3.53,3.94-2.32-.15-5.5,1-5-3.4a53.66,53.66,0,0,0,.11-5.53c0-7.1-3.41-9.43-10.38-7.44-2.24.63-2.13,2.05-2.15,3.63,0,2.54-.44,5.17.1,7.59,1,4.49-.72,5.26-4.85,5.4-4.78.17-4-2.16-4.08-5.39-.12-8.94,1.11-17.94-.74-26.83-.42-2.05,1.24-2.1,2.3-2.78,1.81.13,3.62.35,5.43.39,2.54.05,3.67.3,2.27,3.47-.79,1.79-1.82,5.47,1.37,6.49s7.29,1.63,9.86-.53C103.08,186.77,102.82,183.17,100.7,180.8Z" transform="translate(-8.45 -23.45)"/><path class="cls-2" d="M77.12,205.83c-.27-2.59-1-4.74-4.27-3.37-2.45,1-5,.8-7.49.74-13.49-.32-11.88,2.83-12.14-12.69-.06-3.79,1.1-5.57,5.09-5.27,3.44.26,6.9.17,10.35.24,2.36,1.66,4.79,2.59,8.27-.42C73.88,192.9,79.79,199.15,77.12,205.83Z" transform="translate(-8.45 -23.45)"/><path class="cls-2" d="M100.44,176.86c-.57,1.45-2,2.87-.12,4.38.38,3.88-1.48,5.63-5.23,5.25-4.63-.47-2.16-3.41-1.81-5.59,0-.22,0-.48,0-.67,1.21-2.44-5.52-3.07-1.57-5.64C94.84,172.58,97.81,175,100.44,176.86Z" transform="translate(-8.45 -23.45)"/><path class="cls-2" d="M82.39,176.86l-4.19,1.31c-.57-.9-1.84-2.19-1.6-2.63,1.06-1.91,3.14-1.56,4.92-1.34S83.85,175.41,82.39,176.86Z" transform="translate(-8.45 -23.45)"/><path class="cls-2" d="M267.27,180.73V210.6l-2.93,0c0-9.53-.79-19,.65-28.6C265.07,181.49,266.48,181.16,267.27,180.73Z" transform="translate(-8.45 -23.45)"/><path class="cls-2" d="M232,188.07v17.62h-.57V188.07Z" transform="translate(-8.45 -23.45)"/><path class="cls-94" d="M160.09,217.05l36.15.14c1.54.85,2.53,2,1.94,3.88-1.83,3.46.87,6.12,1.69,9.08,1.54,5.62,1.47,5.76-5.09,5.06a5.61,5.61,0,0,1-1.19-.42c-2.58-2-3.11-4.92-3.86-7.7-1,2.55,1,7.12-4,7.22-3.69.07-4.86-2.66-4.79-6.11-.87,3.54-1.88,7.22-6.53,6.09-4.16-1-1.72-4.4-1.91-6.92-1.2,3-2.1,6.24-5.49,7.62l.13.27c-1.84-.52-4,.74-5.59-1.46-1.89-2.54-4.32-2.47-6.23.15-2.24,3.09-5.45,3.89-8.93,4.25-3-2.83.46-3.91,1.62-5.38,3.92-5,8.46-9.55,10.91-15.58A6.86,6.86,0,0,0,160.09,217.05Z" transform="translate(-8.45 -23.45)"/><path class="cls-98" d="M90.72,246.26c1.22-2.19,4.4-.54,5.55-2.84l2.86.25c-.1,2.68-1.87,3.63-4.19,4C94,245.85,92.26,246.34,90.72,246.26Z" transform="translate(-8.45 -23.45)"/><path class="cls-99" d="M217.41,95.87c1.49-2.32.74-6.15,4.31-6.44,1.92-.16,4.64,1.31,4.31,3.49-.35,2.35-.4,6-4.13,6.2A4.1,4.1,0,0,1,217.41,95.87Z" transform="translate(-8.45 -23.45)"/><path class="cls-100" d="M155.89,300.44c1.93,2.7,5.23,5.39.1,8.18-3.73-.51-7.53-.83-10.7-3.13.54-2.3,1.85-.83,2.72-1,2.1-.4,4.84,3.16,6,.3s-2.87-2.56-4.53-3.77c-3.33-2.43-2.16-5-.08-7.52l5.53.91c1.54-.25,3.5-.83,4.12,1,.85,2.54-1.29,2.67-3.12,3.09C154.35,298.9,155.8,299.78,155.89,300.44Z" transform="translate(-8.45 -23.45)"/><path class="cls-101" d="M201.87,295.94c2.06,3.3,3.37,7.08,2.29,10.71-.82,2.75-4.17,3.09-6.95,3.23-3.07.15-3.71-1.89-4-4.36-.28-2.18-.75-4.35-1.13-6.52l2.8-1.39a8.29,8.29,0,0,0,2,1.76c-.48-.81-1.45-1-2-1.71C196.74,295.34,199.52,296.54,201.87,295.94Z" transform="translate(-8.45 -23.45)"/><path class="cls-100" d="M145.69,290.76c.25,1.75-.17,2.64-2.18,1.94-1.59-.54-3.53-2.55-4.84-.43-1.66,2.68,2.62,2.54,2.84,4.93-1.28,2-4.24-1.68-4.82.58-1,3.94,4.78,2.53,5.46,6.3-4.11-.66-7.57-1.57-9.84-5.06a17.74,17.74,0,0,0,1.56-3.07C135.72,289.39,139.41,287.17,145.69,290.76Z" transform="translate(-8.45 -23.45)"/><path class="cls-92" d="M155.89,300.44l-.68-.1c-2.06-.25-4.93-.42-4.47-3s2.91-.82,4.54-.54c1,.18,2.6,1.1,2.75-.59.17-2-2-1.27-3.12-1.79,3.42-1.62,6.47-.92,9.23,1.49-.68,1.78,2.5,2.45,1.26,4.38C162.25,301.33,159,298.92,155.89,300.44Z" transform="translate(-8.45 -23.45)"/><path class="cls-100" d="M165.4,300.28c1.59-2-7.67-.95-1.26-4.37l4.55,1.44c1.32-.46,2.87-.89,3.74.37s-.44,2-1.37,2.59c-3.05,2-2.64,5.56-3.73,8.44-.53,1.58-1,3.35-3.08,1.38C164.63,306.85,165,303.57,165.4,300.28Z" transform="translate(-8.45 -23.45)"/><path class="cls-100" d="M190.28,299c-2,3.79-.27,7.88-.6,13.86-4.52-5.78-2.79-10.73-3.11-15.25Z" transform="translate(-8.45 -23.45)"/><path class="cls-102" d="M167.33,308.75c.48-3.49-1.17-7.77,3.8-9.58.89-.33.74-.73-2.44-1.82,1.78-1.57,3.76-2,5,.35.8,1.6.54,3.32-1.83,4.24-2.93,1.15-2.55,4.39-3.44,6.8Z" transform="translate(-8.45 -23.45)"/><path class="cls-103" d="M210.19,291.82c2.46-.2,5.55-2.58,6.84,1.62.85,2.73-.79,4.24-3.16,5.29-1.56.69-4.24,1.15-3.18,3.55,1.24,2.77,3.5.61,5.33.2l4.47-1c-2.11,3-4.73,3.24-7,4-1.56.54-3.58,3-5.09-.44-1.15-2.62-1.38-4.87,1.3-6.58.95-.6,2.14-.83,3.06-1.46s2.44-.8,1.75-2.37c-.56-1.31-1.71-1.22-2.91-.81-1.68.57-3.39,1.05-5.13,1.58-.64-2.58,2-1.9,2.29-3.25Z" transform="translate(-8.45 -23.45)"/><path class="cls-70" d="M226,297.6c.44,3.35-1.25,3.43-2.62,1.2-1.76-2.86-2.65-6.25-3.92-9.42C225,289.39,223,295.49,226,297.6Z" transform="translate(-8.45 -23.45)"/><path class="cls-104" d="M168.32,271.18c2.85-1.93,4.3-1.25,6.48,1.73,4.43,6.09,6.89,6,11.5-.21,2.28-3.05,4.38-2.85,7-1.52,2.43,1.21,4.73,2.7,7.08,4.07,1.17,1.17,3,2.14,1.34,4.22a62.54,62.54,0,0,1-32.26,1.66c1.28-2.12,3.74-1.31,5.68-2.25C173.06,276.09,170.31,274,168.32,271.18Z" transform="translate(-8.45 -23.45)"/><path class="cls-105" d="M168.32,271.18c5.72.18,6,6.68,10.19,9.42l-9,.53c-7.72-.05-14.68-2.94-21.66-5.79a15.22,15.22,0,0,1,9.33-2.5c3.88,3.12,6.73-.45,10-1.54A2.4,2.4,0,0,1,168.32,271.18Z" transform="translate(-8.45 -23.45)"/><path class="cls-99" d="M201.75,279.47l-1.34-4.22c4.63-2.5,9.18-2.59,13.64.4A33.36,33.36,0,0,1,201.75,279.47Z" transform="translate(-8.45 -23.45)"/><path class="cls-106" d="M167.13,271.3c-5.08,6-7.93,6.39-10,1.54C160.4,271.76,163.66,270.85,167.13,271.3Z" transform="translate(-8.45 -23.45)"/><path class="cls-107" d="M167,235a44.54,44.54,0,0,0,5.5-14.05c2.22,3.94,1.29,6.83,1.37,9.54,0,1.26-1,2.89,1.27,3.17a2.53,2.53,0,0,0,3.06-2.1c.71-3.11,1.4-6.21,2.21-9.82,3.12,2.15,1.52,5.13,1.92,7.49s.83,4.44,3.49,4.25,2.08-2.65,2-4.38c-.06-2.26-.41-4.5-.75-7.88,4.64,4.1,5.33,9,6.49,13.59Z" transform="translate(-8.45 -23.45)"/><path class="cls-25" d="M197.59,221.28l-1.35-4.1c2.62-.3,4.63.15,6.46,2.58,5,6.69,10.46,13.11,15.72,19.64-3.4-.5-6.8-1-9.89-2.68A24.58,24.58,0,0,1,197.59,221.28Z" transform="translate(-8.45 -23.45)"/><path class="cls-84" d="M197.59,221.28q5.47,7.72,10.94,15.44c-4.53-1-9.4,1.07-13.75-1.51,3.09,0,6.33.27,3.51-4.54a43,43,0,0,1-3.06-7.48C194.36,220.67,195.64,220.47,197.59,221.28Z" transform="translate(-8.45 -23.45)"/><path class="cls-8" d="M221.11,195.79c0,10.23-.09,10.1-9,10-4.63-.05-6.24-1.89-5.81-6.24.16-1.6,0-3.23,0-4.85,0-7.12,6.42-11,12.7-7.53C223.09,189.42,219.9,193.6,221.11,195.79Z" transform="translate(-8.45 -23.45)"/><path class="cls-108" d="M133.32,193.86c2.12.39,2.37,1.82,2.81,3,.65,1.73-.24,2.54-1.89,2.45-1.25-.07-3,0-2.29-2.16C132.31,196,132.89,194.89,133.32,193.86Z" transform="translate(-8.45 -23.45)"/><path class="cls-21" d="M194.82,297.66c.44.07.88.16,1.33.19,1.81.1,4.37-1.22,4.63,2,.09,1.09-1.1,1.74-2.4,1.87-3.24.32-3.78-1.52-3.51-4.12Z" transform="translate(-8.45 -23.45)"/><path class="cls-69" d="M201.51,304.51c.3,2-.45,2.75-1.76,2.68s-3,.63-3.32-1.23,1.61-1.76,2.74-2.22A1.67,1.67,0,0,1,201.51,304.51Z" transform="translate(-8.45 -23.45)"/></svg>