<svg id="Layer_1" data-name="Layer 1" xmlns="http://www.w3.org/2000/svg" viewBox="0 0 346.52 92.56"><defs><style>.cls-1{fill:#9c9a9b;}.cls-2{fill:#9d9b9c;}.cls-3{fill:#9e9c9d;}.cls-4{fill:#fefefe;}</style></defs><title>conbipel</title><path class="cls-1" d="M238.15,241.28c.13-1.9,1.54-1.88,2.81-1.67,3.24.54,3.82-.93,3.8-3.9q-.19-25.94,0-51.89c0-3-.67-4.16-3.72-3.71-.81.12-2.45.63-2.49-.61-.05-1.56,1.64-.91,2.6-1,3.59-.38,7.33.68,11.07-1.46v8.63c1.15-1.57,1.8-2.47,2.47-3.37a13.45,13.45,0,0,1,17.4-4.2c12.64,6.29,15.42,24.43,5.37,34.29-6.37,6.25-18.16,7.93-24.19-1.37-.08-.12-.32-.14-.83-.34v16.85c0,3.16.14,6.33,0,9.48-.13,2.19.77,2.52,2.71,2.69,1.47.12,4-1.64,4.4,1.59Z" transform="translate(-6.74 -148.72)"/><path class="cls-1" d="M6.74,177.79c1.54-5,2.85-10,5.93-14.36,5.14-7.24,11.61-12.27,20.77-13.23,4.76-.51,9,.88,13,3.25,1.36.81,2.65,1.74,4,2.49,2.94,1.59,4,1.15,5.46-2a1.53,1.53,0,0,1,1-.88v19.33c-1.35-.44-.93-1.39-1.06-2.06-1.76-9.24-6.69-15.75-16-18.18-7.62-2-14.18,1.05-18,7.94a34.68,34.68,0,0,0-4.08,14.12c-.84,10.07-1.15,20.13,2.37,29.87,2.31,6.37,6.14,11.16,13.23,12.11s12.87-2,17.3-7.62a25.59,25.59,0,0,0,5.24-13c.08-.7-.26-1.61,1.06-2.17v21.54c-.91.15-.92-.42-1.1-.86-1.5-3.74-2.67-4.3-5.87-1.79C35.05,224,18.67,215.48,11.14,202.11c-2.2-3.91-3.2-8.21-4.4-12.45Z" transform="translate(-6.74 -148.72)"/><path class="cls-2" d="M353.26,216.36c-6.82,0-13.64,0-20.45,0-.63,0-1.63.32-1.75-.55-.16-1.16.95-1,1.69-1,5.58-.55,5.58-.55,5.58-6.24,0-17.39-.07-34.78.06-52.17,0-2.9-.53-4.3-3.74-3.7a5,5,0,0,1-3.78-.76c.79-1.22,2-.73,2.9-.75,3.73-.09,7.51.27,11-1.4.94-.45,1.25-.08,1.25.84,0,.69,0,1.38,0,2.07v58.1c0,4,0,4,3.95,4,1.08,0,2.17-.09,3.25-.14Z" transform="translate(-6.74 -148.72)"/><path class="cls-3" d="M226.87,148.72l-.06,15.7c0,.07-.08.15-.28.54a61.73,61.73,0,0,0-5.32-7.44c-3.45-4.08-7.88-6.74-12.73-8.8Z" transform="translate(-6.74 -148.72)"/><path class="cls-1" d="M161.46,151.39c4.89-.86,9.62,0,14.23-2v35.47c2-2.12,3.4-4.46,5.73-6a14.41,14.41,0,0,1,16.17.42C207.5,186,210,200.47,202.87,210c-7.23,9.7-18.85,10.05-26.57.82-.14.11-.38.21-.39.33-.32,5.21-.32,5.21-5.73,5.21-2.37,0-4.75,0-7.12,0-.44,0-1.09.14-1.18-.55s.55-.9,1.14-1c.1,0,.2,0,.3,0,1.55-.37,3.7.91,4.58-.84.64-1.27.19-3.1.19-4.68,0-17.69-.07-35.39.09-53.09,0-3-.82-4.15-3.8-3.75A2.68,2.68,0,0,1,161.46,151.39Z" transform="translate(-6.74 -148.72)"/><path class="cls-1" d="M137.08,216c1.63-1.66,3.28-1.25,4.74-1.18,2,.09,2.78-.5,2.75-2.64-.11-9.2,0-18.39-.07-27.59,0-5.18-2.52-7.11-7.65-6.12S126,186.31,126,191.73c0,6.62.1,13.25-.06,19.87,0,2.4.53,3.42,3.09,3.2,1.24-.11,3.65-.72,3.59.72-.07,1.71-2.41.75-3.7.78-5.33.13-10.67.07-16,0-.62,0-1.6.28-1.65-.71s.89-.82,1.55-.89c1.73-.19,4,.79,5.09-.54s.38-3.8.4-5.75c0-8.51-.06-17,.06-25.51,0-2.24-.61-2.89-2.82-2.87-1.47,0-4.2,1.11-4.24-.81,0-1.5,2.86-.57,4.44-.77,3.28-.41,6.73.69,10.12-1.41v8.54c2.19-2.31,3.54-4.56,5.66-6.12,5-3.66,10.29-3.76,15.71-1.48,3.42,1.43,5,4.35,5,8,0,8.5.11,17,0,25.51,0,2.39.53,3.48,3.1,3.2a5.87,5.87,0,0,1,4.82,1.18Z" transform="translate(-6.74 -148.72)"/><path class="cls-1" d="M67.27,196.79c.07-11.49,8.68-20.23,19.88-20.17,10.93,0,19.31,9.16,19.2,20.87-.1,11.27-8.79,20.08-19.75,20S67.21,208.47,67.27,196.79Z" transform="translate(-6.74 -148.72)"/><path class="cls-1" d="M313.08,193.35c-3.26,0-6.52.08-9.78,0-1.85-.07-2.42.61-2.35,2.4.12,3.35-.08,6.72.11,10.07.54,9.1,5.7,11.53,13.76,9.51,5.22-1.3,8.25-5.15,9.84-10.18.21-.66-.05-2,1.16-1.61s.27,1.36.12,2c-2.72,11.43-17.52,16.08-26.64,8.39-10.68-9-9.36-27.78,2.57-35.14A13.28,13.28,0,0,1,317,179a20.85,20.85,0,0,1,8.1,10.33c1.24,3.25.59,4.05-2.8,4.06Z" transform="translate(-6.74 -148.72)"/><path class="cls-1" d="M228.61,195.83c0,5.43.09,10.87-.05,16.3-.05,2.11.69,2.63,2.7,2.69,1.45.05,4-1.24,4.17.93.12,1.11-2.7.55-4.17.57-5.33.09-10.67.05-16,0-.61,0-1.6.33-1.65-.68s.86-.84,1.54-.93c1.82-.25,4.18.92,5.33-.61s.35-3.83.36-5.78c0-8.2-.09-16.4.08-24.59.06-2.74-.47-4-3.5-3.68-1.21.13-3.58,1-3.64-.79-.06-1.42,2.32-.64,3.6-.79,3.3-.39,6.69.46,9.94-.93,1.91-.81,1.25,1,1.26,1.68C228.64,184.77,228.61,190.3,228.61,195.83Z" transform="translate(-6.74 -148.72)"/><path class="cls-4" d="M252.48,197.54c-.19-5-.33-9.91,3-14.14,2-2.56,4.41-4.56,7.74-5,6.78-1,10.27,2.2,11.09,9.82a89.83,89.83,0,0,1,0,18.62c-.51,5.3-2.93,8.35-7.06,9-6,.9-11.11-1.76-13.5-6.87C252,205.23,252.54,201.36,252.48,197.54Z" transform="translate(-6.74 -148.72)"/><path class="cls-4" d="M175.84,196.86c.15-2.54-.41-5.82.68-9,2-5.86,6.67-9.58,12.14-9.58,4.63,0,7.37,2.16,8.46,6.69a48.53,48.53,0,0,1,.95,12.36c-.06,3.43.11,6.91-.61,10.33-1.7,8.16-9.75,11.11-16.45,6a12.5,12.5,0,0,1-5.16-10.17C175.81,201.51,175.84,199.54,175.84,196.86Z" transform="translate(-6.74 -148.72)"/><path class="cls-4" d="M76.16,197.27c0-4.32-.16-8.06.59-11.78.88-4.36,3.7-6.88,8.16-7.17,8.63-.54,11.88,2.22,12.42,11.42a88.32,88.32,0,0,1-.38,18c-.81,5.51-4,8.11-10.1,8.11-6.3,0-9.24-2.41-10.18-8A71.06,71.06,0,0,1,76.16,197.27Z" transform="translate(-6.74 -148.72)"/><path class="cls-4" d="M309.41,192h-4.19c-4.41,0-4.41,0-4.2-4.55.28-6.17,3.39-9.36,8.82-9.22a6,6,0,0,1,5.33,3.16,4.71,4.71,0,0,1,.55,1c.87,2.85,2.21,6.22.81,8.6C315,193.61,311.39,191.28,309.41,192Z" transform="translate(-6.74 -148.72)"/></svg>