<svg id="Layer_1" data-name="Layer 1" xmlns="http://www.w3.org/2000/svg" viewBox="0 0 321.39 136.06"><defs><style>.cls-1{fill:#0a0a0a;}.cls-2{fill:#0b0b0b;}.cls-3{fill:#0c0c0c;}.cls-4{fill:#0e0e0e;}.cls-5{fill:#141414;}.cls-6{fill:#fdfdfd;}.cls-7{fill:#f5f5f5;}.cls-8{fill:#fff;}</style></defs><title>gaudi</title><path class="cls-1" d="M72.79,185.67h7.6c7,0,7.11.09,6.25,7.27-1.75,14.78-9.93,25.06-22.8,28.64a34.33,34.33,0,0,1-36.55-12.21c-9.11-12-10.54-25.15-3.69-38.43a35.37,35.37,0,0,1,56.83-9c2.06,2.05,4,3.75.65,6.44-2.57,2.07-4.11,4.67-7.89.89-9.06-9.09-20.68-10.34-30.9-4.17A25.39,25.39,0,0,0,31,194.46c3,10,10.07,16.1,20.27,18,8.87,1.66,16-1.74,21.33-9,1.49-2,3.33-4.59,2.25-6.92s-4.22-.9-6.44-1.17a19.63,19.63,0,0,0-4.66,0c-3.85.48-5.37-.64-5.45-5-.09-4.79,2.24-5,5.73-4.78C66.94,185.8,69.87,185.67,72.79,185.67Z" transform="translate(-19.31 -126.97)"/><path class="cls-2" d="M256.74,186.74c0-9.72.11-19.44-.06-29.16-.06-3.33.59-5,4.43-4.82,7.16.41,14.35-.26,21.52,1,16.43,2.76,27.49,16,27.53,33.25,0,17-11.18,30.85-27.26,33.67-7.53,1.32-15.12.69-22.69,1-3.57.13-3.5-2-3.49-4.53C256.76,207,256.74,196.85,256.74,186.74Z" transform="translate(-19.31 -126.97)"/><path class="cls-3" d="M180.18,178.12c0-7.2.19-14.4-.06-21.59-.17-4.6,2.85-3.64,5.43-3.71s5.33-.59,5.26,3.86c-.2,13.62-.24,27.25.12,40.86.26,9.74,5.49,15,14.12,15.24,9.37.27,15.11-5,15.39-15.12.36-12.83.16-25.68.19-38.53,0-6.1,2.55-7.84,8.66-6.32,2.24.56,2,2,2,3.52,0,14.4.38,28.82-.33,43.19-.69,14.06-12.23,23.71-26.34,23.24-13.65-.45-24-10.91-24.37-24.79-.17-6.61,0-13.23,0-19.85Z" transform="translate(-19.31 -126.97)"/><path class="cls-2" d="M98.9,221.27c1.81-6.14,30.31-67,33.7-71.76,3.83,8.45,7.49,16.51,11.13,24.58,6.2,13.74,12.46,27.46,18.49,41.27.77,1.77,3.78,4.84.86,5.72-3.09.93-7.79,2.58-10.34-2-1.75-3.12-3.72-6.29-4.59-9.69-1-3.94-3.12-4.68-6.69-4.56-6.62.22-13.25.24-19.87,0-3.42-.14-5.56.8-6.56,4.19a30.51,30.51,0,0,1-1.93,4.25C109,221.94,109,221.94,98.9,221.27Z" transform="translate(-19.31 -126.97)"/><path class="cls-4" d="M330.31,186.64c0-9.91.28-19.84-.12-29.74-.18-4.64,2.26-4.3,5.34-4.43,3.4-.14,5.22.24,5.16,4.56q-.37,29.75,0,59.49c.06,4.6-2.05,4.78-5.61,4.91-3.95.14-4.94-1.29-4.85-5C330.46,206.48,330.31,196.56,330.31,186.64Z" transform="translate(-19.31 -126.97)"/><path class="cls-5" d="M320.38,131.09c1.85-1.05,3.8-2,5.63-3.23s3-1.45,4.33.54c2.59,3.84,5.33,7.58,8,11.38.9,1.28,2,2.67,0,3.87-1.55.92-3.08,2.89-5.09.95-4-3.89-7.95-7.89-11.89-11.86A10.29,10.29,0,0,1,320.38,131.09Z" transform="translate(-19.31 -126.97)"/><path class="cls-2" d="M176.92,260.35c.27,1.65.06,2.27-.95,2.36s-1.68-.66-2.26-1.49c-4.57-6.4-7.86-6.4-12.22,0-.56.84-1.1,1.77-2.23,1.46-1.83-.5-.9-1.83-.55-2.78,2-5.29,3.95-10.57,6-15.82.95-2.38,3.18-4,4.64-1.23C172.44,248.68,174.65,255,176.92,260.35Z" transform="translate(-19.31 -126.97)"/><path class="cls-2" d="M241.83,261.25c0,.84-.49,1.3-1,1.33a3.52,3.52,0,0,1-2.17-.43c-7.25-6-7.22-6-13-.27a2.64,2.64,0,0,1-2,.68c-1.48-.31-.86-1.47-.55-2.3,2.16-5.64,4.32-11.28,6.6-16.86.65-1.59,2.64-3,3.54-1.21C236.36,248.38,239,254.87,241.83,261.25Z" transform="translate(-19.31 -126.97)"/><path class="cls-2" d="M138.65,243.36c6.16-2.12,11.55-2,17.39-1.28-.94,2.49-2.46,2.17-3.64,2.08-3-.24-3.58,1.36-3.49,3.91.14,3.5.13,7,0,10.51,0,1.37.85,3.74-1.35,3.8-2.8.07-1.54-2.56-1.69-4-.21-2.12,0-4.28-.05-6.42C145.75,247.6,147.62,241.79,138.65,243.36Z" transform="translate(-19.31 -126.97)"/><path class="cls-2" d="M186,252.05c0-2-.13-3.9,0-5.83.13-1.57-.84-4.27,1.53-4.3,2.93,0,1.7,2.9,1.82,4.58a51,51,0,0,1,0,8.74c-.42,4,1.27,5.1,5,4.85,1.62-.12,4.75-1.19,4.67,1.44s-3.15.93-4.86,1.3c-.74.16-1.56-.07-2.32,0-4.38.66-6.67-.71-5.89-5.59A33.77,33.77,0,0,0,186,252.05Z" transform="translate(-19.31 -126.97)"/><path class="cls-2" d="M128.23,252.15c0,2.72,0,5.44,0,8.17,0,.95-.06,2.07-1.29,2.21-1.69.19-1.77-1.14-1.77-2.31,0-5.44,0-10.89,0-16.33,0-.91.19-2,1.55-2s1.45,1.16,1.48,2.08C128.28,246.7,128.23,249.43,128.23,252.15Z" transform="translate(-19.31 -126.97)"/><path class="cls-2" d="M213.2,252.32c0,2.71,0,5.42,0,8.12,0,.94,0,2-1.36,2.1s-1.45-1.05-1.46-2c0-5.41,0-10.83,0-16.24,0-1.1,0-2.56,1.68-2.38,1.21.12,1.1,1.37,1.12,2.28C213.23,246.91,213.2,249.62,213.2,252.32Z" transform="translate(-19.31 -126.97)"/><path class="cls-6" d="M267.31,186.7c0-6.42.25-12.85-.08-19.25-.21-4,1.37-4.81,5-4.78,17.85.17,28.31,10.31,27.22,26.71-1,14.68-15.63,25.46-30,22.23-2.63-.59-2.21-2.26-2.22-3.92C267.29,200.7,267.31,193.7,267.31,186.7Z" transform="translate(-19.31 -126.97)"/><path class="cls-7" d="M132,171.78c3.65,8.41,6.71,15.43,10,23H121.43C124.88,187.27,128.15,180.19,132,171.78Z" transform="translate(-19.31 -126.97)"/><path class="cls-8" d="M167.47,245.77c.94,2.83,4.17,5,2.21,7.95-.76,1.14-3.5,1.08-4.23.07C163.18,250.67,166.92,248.6,167.47,245.77Z" transform="translate(-19.31 -126.97)"/><path class="cls-8" d="M232.16,245.76c.24,2.83,4,5.16,1.64,8.11-.69.85-3.53,1-4.15-.33C228.3,250.66,230.94,248.44,232.16,245.76Z" transform="translate(-19.31 -126.97)"/></svg>