<svg id="Layer_1" data-name="Layer 1" xmlns="http://www.w3.org/2000/svg" viewBox="0 0 347.58 136.59"><defs><style>.cls-1{fill:#fe0b01;}.cls-2{fill:#030203;}.cls-3{fill:#fbfbfb;}.cls-4{fill:#fefefe;}.cls-5{fill:#050404;}.cls-6{fill:#050304;}.cls-7{fill:#070606;}.cls-8{fill:#fd0b01;}.cls-9{fill:#fc0b02;}.cls-10{fill:#f90b03;}</style></defs><title>grease</title><path class="cls-1" d="M269,261.82a101.66,101.66,0,0,1-16.82-1.77c-13.16-2.65-21.49-10.59-25.47-23.22-.7-2.21-1.68-2.81-3.9-2.72-16.88.7-33.77,1.24-50.66,1.9q-28.74,1.14-57.5,1.05c-2.61,0-3.63.59-4.28,3.27-2,8.17-7.36,13.77-14.68,17.57-13.87,7.2-28.17,6.6-42.46,1.72-7.34-2.5-12.53-8.24-17.39-13.93-2.76-3.23-5.91-4.49-9.8-5A69.07,69.07,0,0,1,17.37,239c-4.18-1.14-6.92-3.72-7-8.36-.07-3.28-.52-6.29-2.54-9.16-2.17-3.07-2-6.51-.23-10.05A273.86,273.86,0,0,1,31.38,173a22,22,0,0,1,9-7c12.3-5.44,25.15-8.93,38.6-9a13.87,13.87,0,0,0,10.78-4.66c.76-.77,1.67-1.4,2.41-2.2,3.77-4,8.32-4.57,13.31-3,6.56,2.14,13.37,4.17,19,8,4.11,2.81,7.82,2.82,12.11,2.56,14.69-.89,29.39-1.7,44.08-2.54h.3c4.34-.31,4.36-.32,3.16-4.59-1.52-5.4-3.09-10.79-4.59-16.19-1-3.71-.63-4.14,3.09-4.82s7.9-.22,11.4-2.63c1.28-.88,2.39.52,3.32,1.34,6.2,5.51,12.52,10.9,18.5,16.66a14.8,14.8,0,0,0,10.6,4.3c16.11.27,32.22.58,48.28,1.89,16.21,1.33,32.48,2.33,48.44,5.83,13.25,2.9,21.79,11.82,28.3,23,3.52,6,2.87,12.3-.63,18.29a4.8,4.8,0,0,1-2.16,2.36c-2.86,1-3.37,3.37-3.42,5.95-.05,2.86-.06,5.73,0,8.59a9.3,9.3,0,0,0,1.83,5.84c3.9,4.76,3.59,9.8,1.13,14.95s-7.09,7.36-12.72,7.68-11.12-1.29-16.56-2.7c-2.95-.77-5.92-1.48-8.85-2.34a2.14,2.14,0,0,0-3,1.46C300.13,257.39,285.54,261.32,269,261.82Z" transform="translate(-6.21 -126.7)"/><path class="cls-2" d="M304.2,226.22c-1.33,3.82-2.64,6.71-3.33,9.74-2.73,12-18.27,23.82-34.27,21.12-3.3-.56-6.67-.75-9.87-1.84-10.36-3.53-17.21-10.37-20.1-21.09-1.78-6.65-2.82-13.5-5.22-20-1.73-4.7-6.78-5.57-10-1.63a36.35,36.35,0,0,0-3.21,5c-2.22,3.81-5.24,6.85-9.43,8.16-17.94,5.61-36.13,8.24-54.78,3.74-2.39-.58-4.76-1.26-7.14-1.89a8.58,8.58,0,0,1-5.07-3.84c-2.2-3.39-4.41-6.77-6.69-10.1-.47-.69-1.12-1.75-2.05-1.46s-.69,1.51-.71,2.37c-.05,2.27,0,4.55-.07,6.82-.22,7.1-2.71,9.63-9.7,10.53a91,91,0,0,1-13.6.53c-2.72-.05-4.1,1.15-4.45,3.66-.63,4.58-3.17,7.94-6.53,10.9-23.9,21.09-55.36,7.5-65.32-10.15-8-14.12-9.47-29.29-4-44.83a66,66,0,0,1,4.45-10.3c5.81-10.38,15.52-14.42,26.5-16.23,6.68-1.11,13.52-.94,20.15-2.86,4-1.18,7.79.64,10.8,3.53a29.35,29.35,0,0,1,7.35,11.32c2.24,6.24-.63,10.59-7.28,11-4.11.28-8-.82-11.89-2-4.58-1.43-9.24-2.24-14-1.31-8.24,1.61-11.86,7.66-13.5,15.11a34,34,0,0,0,3.24,24.38,17.45,17.45,0,0,0,20.84,8.06,11.9,11.9,0,0,0,4.53-2.71c1.6-1.58,3-3.37,2-5.76s-3.11-3.05-5.52-3.15c-2.76-.11-5.52.27-8.27-.38a6.44,6.44,0,0,1-5.18-5.73c-1-6.14,2.81-12.94,8.79-14.4a70.85,70.85,0,0,1,30.54-.77,2.8,2.8,0,0,1,.28.06c2.89,1.09,6,2.13,6.76,5.56s-1.88,5.36-4,7.37c-.93.88-2.06,1.55-3,2.45-1.36,1.35-2.15,3-.87,4.76s3.06,1.45,4.78.53c2.94-1.58,4.65-4.16,5.89-7.16,2.5-6,2-12.1.34-18.26-1.76-6.69-5.14-12.83-6.48-19.62-1.09-5.51-1.42-11,2.59-15.74,2.25-2.66,5-3.23,8.27-2.26a19.84,19.84,0,0,1,6.08,3,19,19,0,0,0,12.69,4,41.36,41.36,0,0,1,4.45.15c8.19.33,13,5.34,13,13.62,0,7.64-3.41,13.41-9.78,17.52-3.8,2.46-3.8,6.38.22,8.7s8.31,2.87,12.47.79c3.77-1.88,4.53-5.79,4.79-9.58.4-5.76-1.34-11.33-2-17a26.78,26.78,0,0,1,.39-9.42c1.48-6.1,6.42-8.13,11.84-9.21,6.88-1.37,13.79-.2,20.67.29,3.23.23,6.44.87,9.66,1.32a4.82,4.82,0,0,1,4.59,4.59c.49,4-.35,6.07-3.34,7.43-3.8,1.73-8,2.13-12,3q-3.9.81-7.77,1.75a4.81,4.81,0,0,0-3.2,2.45c-1.24,2.31-.46,3.88,2.16,4.09a73.36,73.36,0,0,0,12.12-.51c2.22-.2,4.91-.89,6.11,2.15,1.1,2.75,0,7.12-2.5,8.83a17,17,0,0,1-4.22,2.06c-3.17,1.07-6.42,1.91-9.61,2.92-4.17,1.32-6.08,3.72-5.35,6.58.92,3.67,4.73,5.65,8.82,4.88,11.14-2.12,18.31-8.65,20.8-19.61,1.07-4.74.94-9.84.78-14.76-.46-13.72,11.13-23.54,25.15-23.16,7.4.21,14.75,1.29,22.19.49,3.93-.42,5.63,2.66,4.13,6.67a15.15,15.15,0,0,1-5.32,6.63c-8.86,6.76-11,15.95-9.71,26.39.8,6.27,2.19,12.43,5.22,18.08,5.22,9.72,13.75,14.43,24.39,15.48,5.52.54,7.45-2.21,5.74-7.52-1.61-5-5.06-8.9-8.76-12.48-5-4.82-9.92-9.64-13.8-15.43-3.09-4.6-4.79-9.58-3.76-15.12,2.61-13.95,17.6-22,31-16.63a33.26,33.26,0,0,1,7.34,3.76c1.44,1,3.44,1.36,4.43.38,3.31-3.32,7.27-2.17,10.93-1.83,8.47.79,16.6,3.29,24.7,5.83,5,1.56,7.2,5.62,8.88,10,.76,2-.55,3.4-2.33,4.2a16.5,16.5,0,0,1-5.78,1.12c-2.66.15-5.32.31-8,.56a4.65,4.65,0,0,0-4.42,4.61c-.14,1.66,1.16,1.68,2.13,1.88,3,.62,6,1,9,1.67,5.6,1.27,9.32,8.15,7.5,13.58-.69,2.09-2.43,2.83-4.29,3.16-4.07.71-8.19,1.2-12.28,1.82-3.71.57-4.37,1.46-3.85,4.77.31,2,1.31,2.79,3.33,3,4.71.44,9.42,1,14.09,1.73,4.25.67,6.65,2.85,6.87,5.82a8.9,8.9,0,0,1-6,9.15c-9,2.88-17.72,1.88-26.23-1.82C308,232.84,305.88,230.27,304.2,226.22Z" transform="translate(-6.21 -126.7)"/><path class="cls-3" d="M211.25,148.2a8,8,0,0,1-2.83,2.13c-3.36,2.15-3.36,2.12-5.52-1.14-3.15-4.75-6.33-9.48-9.42-14.26-.4-.61-1.91-1.44-.53-2.19,1.16-.63,2.5-2.17,4.11-.32,3.16,3.64,6.44,7.17,9.68,10.74,1.25,1.39,2.53,2.76,3.79,4.14C210.78,147.58,211,147.89,211.25,148.2Z" transform="translate(-6.21 -126.7)"/><path class="cls-4" d="M88.89,200.73c3.28.43,7-.15,10.57.78a26.29,26.29,0,0,1,4.21,1.29c4.08,1.88,4.45,4,1.29,7.06-1.19,1.18-2.58,2.15-3.81,3.29-2.54,2.32-3.18,5.59-1.64,8,1.41,2.17,4.73,2.89,7.76,1.6,2.6-1.1,4.15-3.26,5.42-5.65a28.24,28.24,0,0,0,2.11-22.32c-1.64-5.35-3.47-10.65-5.22-16-1.48-4.47-2.22-9-1-13.66s4.53-6.65,9.09-5a12.73,12.73,0,0,1,3.13,1.62,24.83,24.83,0,0,0,16.61,5c4.47-.23,9-.1,11.54,4.74,2.89,5.52,2.08,10.88-.72,16.09-1.52,2.83-4,4.82-6.59,6.69-4.34,3.14-4.61,7.93-.39,11.33a14.87,14.87,0,0,0,15.36,2.18c4.76-1.86,6-6.5,6.52-11.13.58-5.78-1.45-11.31-2.06-17a32.94,32.94,0,0,1-.16-6.8c.67-6.92,4.55-10.52,12.59-11,9.19-.5,18.33.62,27.45,1.76,2,.25,2.89,1.6,3.05,3.44.18,2.15-.5,3.92-2.7,4.73-4.28,1.57-8.8,2-13.22,3-2.2.47-4.39,1.06-6.56,1.67a6.27,6.27,0,0,0-3.92,3.38c-1.95,3.84-.28,6.92,4,7.36,4,.4,7.88-.39,11.82-.56,1.55-.06,3.46-1.14,4.54.89.7,1.3-1.09,5.11-2.74,6.07a44.6,44.6,0,0,1-9.31,3.66,31.21,31.21,0,0,0-5.76,2.23c-4.86,2.71-5.52,8.86-1.19,12.32,3.56,2.85,7.82,3.93,11.93,1.89,6.06-3,11.91-6.48,15.7-12.56a24.86,24.86,0,0,0,4-12.76c.14-5.23,0-10.54.86-15.67,1.59-9.35,9.89-15.62,20.58-16.25a67.46,67.46,0,0,1,6.82-.05c5.62.25,11.23.69,16.87,0,2.84-.33,3.76,1,2.87,3.76a12.66,12.66,0,0,1-4.42,5.8c-5.55,4.54-10,9.85-11.25,17.17-2,11.11,1.62,33.1,13.74,41,5.71,3.73,11.72,6.49,18.72,6.31,6.36-.15,9.11-3.93,7.29-10.06-1.49-5.05-4.58-9.11-8.14-12.86-4.82-5.07-10.11-9.73-14-15.64-5-7.59-5.13-15.07-.32-21.37,5.64-7.37,14.54-10.26,22.85-7.39,3.33,1.15,6.46,2.93,10.1,3.09a14.1,14.1,0,0,0,6.63-1c3.37-1.51,6.84-.31,10.19.18,7.41,1.08,14.54,3.34,21.67,5.62,4,1.29,5.79,4.5,7.43,7.89.75,1.56-.39,2.08-1.66,2.4-3.58.89-7.27.63-10.9,1-5.07.51-6.31,1.59-7.64,6.55-.65,2.43.36,3.58,2.39,4.23,3.3,1.05,6.77,1.24,10.16,1.84,4.28.76,7.55,6.7,5.93,10.78-.59,1.5-2.11,1.82-3.38,2.09-3.65.77-7.36,1.34-11.06,1.9-5.62.86-7.31,3.54-5.45,8.87a3.67,3.67,0,0,0,3.26,2.6q6.17.78,12.32,1.6c1.08.14,2.15.29,3.21.5,2.53.5,4.87,1.32,5.22,4.36.24,2.06-2.66,5.65-5,6.34-8.26,2.38-16.39,1.65-24.36-1.29-3-1.1-5-3.42-6.81-5.94s-2.44-2.38-3.6.55c-1.27,3.2-2.64,6.38-3.6,9.67-2.87,9.77-15.61,18.41-26.09,18-4.54-.17-9.09-.36-13.48-1.64-10.61-3.1-17.36-10-20.08-20.77-1.63-6.47-2.71-13.1-5.11-19.37-.92-2.42-1.69-5-4.89-5.21-3.51-.24-6.75.42-8.86,3.56-1.59,2.36-3,4.87-4.43,7.32a9.11,9.11,0,0,1-5.12,4.25c-20.24,6.44-40.66,9.49-61.6,3.32A6.18,6.18,0,0,1,144.7,224c-2.52-3.76-5.07-7.51-7.77-11.15-1.08-1.45-2.39-3.43-4.46-2.78-2.26.71-2,3.13-2.07,5.09-.14,3.06-.2,6.12-.47,9.17a5.32,5.32,0,0,1-4.48,5.14A57.14,57.14,0,0,1,109.61,231c-4.61-.23-5.48.23-7,4.52-1.61,4.65-4.75,8-8.53,11-19.6,15.8-45.67,7.61-57.72-7.8-5.06-6.48-7.1-14.28-8.27-22.16-2-13.22,1.46-25.41,8.57-36.56,4.8-7.54,12.65-10.45,20.82-12.27,7.2-1.59,14.56-2.46,21.85-3.62a11,11,0,0,1,9.76,3.14A27.07,27.07,0,0,1,96,178.22c2,5.91-1.87,8.51-7.84,8.21-4.46-.22-8.64-1.87-12.93-3-11.71-3-22.68.94-26.09,15.09C46.65,209,47.66,219,53.78,228c5.68,8.35,18.49,10.59,26.3,4.87a14.69,14.69,0,0,0,2.71-2.69,6.72,6.72,0,0,0,1.06-7.44c-1.28-2.64-3.72-3.73-6.5-3.94-2.26-.17-4.55,0-6.82-.12-3.92-.19-5.68-2.25-5.39-6.14.46-6.06,4.68-10,11.59-11C80.66,201,84.61,201,88.89,200.73Z" transform="translate(-6.21 -126.7)"/><path class="cls-5" d="M300.26,193.25c-.26,2.56-.39,4.93-.78,7.26-.46,2.82-2.28,3.41-4.49,1.69-4.67-3.61-9.66-6.86-13.3-11.65-2.46-3.23-3.63-6.71-2.34-10.76a7.11,7.11,0,0,1,8.42-5.11c6.75,1.11,10.34,4.46,11.63,11.12C299.89,188.3,300,190.88,300.26,193.25Z" transform="translate(-6.21 -126.7)"/><path class="cls-6" d="M223.69,192c-.61,0-1.49.12-2.37.13a2.76,2.76,0,0,1-3-2.62c-.75-4.82,5.59-13.14,10.43-13.73a5,5,0,0,1,5.67,3.52,15.11,15.11,0,0,1,.33,7.86,5.21,5.21,0,0,1-4.35,4.28A21.29,21.29,0,0,1,223.69,192Z" transform="translate(-6.21 -126.7)"/><path class="cls-7" d="M125.17,175.22c3,.84,6.37,1.21,9.34,2.85,2.28,1.26,1.71,5.37-.91,7.21-3.3,2.3-10.06,1.05-12.36-2.28-1.21-1.77-.92-3.56,0-5.32A4,4,0,0,1,125.17,175.22Z" transform="translate(-6.21 -126.7)"/><path class="cls-8" d="M296.66,201.6c-4.63-4-9.24-7.55-12.93-12.08-2.23-2.74-3.39-5.79-2-9.34a4.79,4.79,0,0,1,5.63-3.25c5.11.67,8.15,3.36,9.39,8.43A34.83,34.83,0,0,1,296.66,201.6Z" transform="translate(-6.21 -126.7)"/><path class="cls-9" d="M232.53,183.48c0,4.78-.61,5.44-6.12,6.48-1.77.33-4,1.27-5.25-.45s.55-3.26,1.19-4.81a18.62,18.62,0,0,1,2.14-3.51c1.47-2.07,3.46-3.54,6-2.67S232.35,181.87,232.53,183.48Z" transform="translate(-6.21 -126.7)"/><path class="cls-10" d="M130,184.44a10.36,10.36,0,0,1-6.08-1.85c-1.7-1-1.63-2.58-.89-4.13s2.07-1.89,3.7-1.24,3.16,1.05,4.71,1.66c1.08.44,2.81.28,2.65,2.13a3.45,3.45,0,0,1-3.18,3.35A7.13,7.13,0,0,1,130,184.44Z" transform="translate(-6.21 -126.7)"/></svg>