<svg id="Layer_1" data-name="Layer 1" xmlns="http://www.w3.org/2000/svg" viewBox="0 0 247.07 363"><defs><style>.cls-1{fill:#fb0202;}.cls-2{fill:#020202;}.cls-3{fill:#f90405;}.cls-4{fill:#e91420;}.cls-5{fill:#e11d29;}.cls-6{fill:#e61c25;}.cls-7{fill:#b3241f;}.cls-8{fill:#e22331;}.cls-9{fill:#e4252e;}.cls-10{fill:#b83c46;}.cls-11{fill:#e71c29;}.cls-12{fill:#d34053;}.cls-13{fill:#fefefe;}.cls-14{fill:#f7efee;}.cls-15{fill:#f7f3f1;}.cls-16{fill:#f8f5f1;}.cls-17{fill:#f6f5f3;}.cls-18{fill:#f8f4f2;}.cls-19{fill:#f8f5f2;}.cls-20{fill:#f9f5f2;}.cls-21{fill:#f7f5f1;}.cls-22{fill:#f7f1ef;}.cls-23{fill:#f5f3ef;}.cls-24{fill:#f4f3ee;}.cls-25{fill:#f4f1e8;}.cls-26{fill:#e21d23;}.cls-27{fill:#d4312f;}.cls-28{fill:#fee0d8;}.cls-29{fill:#e3414c;}.cls-30{fill:#f2dacc;}.cls-31{fill:#fcfcfc;}.cls-32{fill:#fbfbfb;}.cls-33{fill:#fdfdfd;}</style></defs><title>GSUS</title><path class="cls-1" d="M253.72,217.1c-1.49,1.41-2.78,3.68-4.51,4.08-9.65,2.23-11.66,8.89-10.29,17.48-2.69.16-2.78-1.67-3.07-2.84-1.73-7.17-6.1-9.6-13.47-9.74-8.62-.16-15.89,8.44-12.64,16.43.62,1.53,2.09,3.31.53,4.6-1.76,1.45-3.14-.65-4.13-1.74-3.56-3.92-7.33-4.19-11.72-1.51a10.31,10.31,0,0,1-4.19,1.29c-5,.56-8.83,2.22-9.12,8.09-.07,1.42-1.35,2-3.21,2.95.49-7.47-3.25-10.77-10.09-11.22a14,14,0,0,1-5.35-1.79c-3.77-2-7-2.05-9.54,1.88-2.65.87-4,.24-3.2-2.8l0-.09c2-2.42,3.54-4.85.29-7.47-.8-.67-2-1.17-2.33-2-3.77-8.64-11-6.93-18-6.26-5.2.5-3.76,5.93-6.28,8.41-5.36,1.52-2.22-3.33-3.59-4.8-.12-3.07-.62-5.76-4.47-6.34a15.75,15.75,0,0,1-4-1.76c-9.19-4.35-9.19-4.35-18-1.13-1.29-4.48,7-6.92,2.48-12-3.26-3.66-3.88-9.14-7-12.57S80,194.9,75.44,193.7c-.31-1.27.76-1.72,1.68-1.93,8-1.84,11.81-6.21,11.32-15-.19-3.27-.36-5.3-3-7.26-2.31-1.7-5.19-2.84-6.56-5.66A3,3,0,0,0,75,162.76c-5.53,2.51-5-.29-3.66-4,1.64-2.18,1-4.3-.13-6.46a30.52,30.52,0,0,1-1.45-3.49c-3.58-9.89-3.57-9.89-13.22-13.36-.41-.85.43-1.11.8-1.1,13.36.42,10.57-12.15,14.88-18.87,1.27-2-2.09-4.17-3.16-6.35-.51-1-2.33-1.74-1.46-3.09s3.2-1.17,4-.45c5.74,5.14,8.41-1.34,11.88-3.3,4.06-2.28,5.68-5.8,5.09-11.42-.7-6.61-3.21-9.79-9.17-11.26a14.86,14.86,0,0,1-3.53-1.92c.34-1.66,1.38-1.18,2.09-1.31,3.68-.65,8.67.68,10.83-2,3.71-4.63,5.9-10.49,8.59-15.9.26-.51-.49-1.53-.77-2.31-1-2.53-1.77-4.9,2.57-4l0,0c3.06,3.06,5.56,2.25,7.7-1.11,2-1.17,3.81-2.93,5.94-3.4,5.66-1.26,7.55-4.5,6.7-10-.19-1.19-.81-3.12,1.57-3.42,2-.26,2.23,1.46,3,2.65,1.42,2.29,1.63,6.12,4.14,6.75a38.3,38.3,0,0,0,13.16.86c4.52-.46,9.93-11.51,8.25-15.74-1-2.49-2.54-4.8-2.42-9.51,6.62,9.62,13.61,8.7,22.79,6.09,7.27-2.06,7.1-6.54,9.18-11.88.77,9.29,7.71,9.91,13.93,12.9,8.88,4.27,12.87-1.75,18.22-5.62a2.14,2.14,0,0,1,.06,3c-6.09,8.12-1.18,13.78,4.22,19.38,3.45,3.58,15.89,1.52,17.79-3a35.16,35.16,0,0,1,2.17-4.55c.73-1.18,2.92-1.6,2.75-.24-1.5,11.9,9,12.68,15.47,17.22a3.08,3.08,0,0,0,2.28.71c3.77-.78,5.61.21,4.34,4.42-.24.82.4,1.53,1,2.09,1.41,1.81,3.62,3.43,4.1,5.47,2.3,9.62,9,11.88,17.69,11,.19,2.84-2,2.89-3.33,3.27-6,1.76-9,4.57-9,11.75,0,9.82,7.44,16.85,16.82,13.91,1.44,0,3.49-1.74,3.9,1.32-4.14,4.31-6.54,8.78-2.59,14.7,1.2,1.79,1.48,4.37,1.65,6.63.31,4.06,2.21,6,6.27,5.66.79.57,2.22.26,2.46,1.41.3,1.47-1,1.4-1.95,1.54-2,.29-4,.42-5.58,2-2,5.36-1.1,11.79-6,16.19-.81.73-.77,2.69,1.06,3.67,2.88,1.56,4.21,4.5,5.9,7.38-1.64,1-3.16.62-4.69.17-2.53-.75-5-3.53-7.62-1.74a51,51,0,0,0-10,8.6c-2.31,2.67,1.63,15.31,4.84,17.27,1.45.89,4.25.85,3.62,3.29-.49,1.87-2.93,1.15-4.48,1.2-3.32.12-5.5,1.18-6.25,4.79-.95,4.58-4.73,7.57-7,11.4C260.73,215.15,256.51,215.28,253.72,217.1Z" transform="translate(-56.47 -13.5)"/><path class="cls-2" d="M182.9,286.91c1.1-.78.52-1.9.54-2.86.1-5.45,5.06-8.53,9.89-6.12,2.06,1,1.26,2.92,1.27,4.46.07,11.61,0,23.22.05,34.84,0,1.68-.08,3.38,0,5.06.64,8.76,3.37,12.79,9.34,13.93,8.87,1.68,17-1.93,20.3-9.17a30.71,30.71,0,0,0,2.51-12.94c0-10.13.24-20.28-.1-30.4-.15-4.55.82-6,5.76-6.07,5.18,0,6.23,1.9,5.54,6.27a10.9,10.9,0,0,0,.48,2.67A23.66,23.66,0,0,1,256,276c7-.87,13.89-.19,20.31,3.12A17.52,17.52,0,0,1,286,291c.45,1.95,2.25,5.2-1.22,5.53-2.89.27-6.75,2.35-9.07-1.63-5.1-8.76-12.58-11.58-21.55-8.18-3.74,1.42-6,4-6.1,8s2.5,6.15,6,7.13c6.29,1.75,12.69,3.13,19,5,11.25,3.32,15.37,8.23,15.46,17.91.11,10.66-5.14,18.1-15.7,20.91-12.62,3.36-24.6,2.66-34.77-8.81.7,5.81.19,8.87-6.41,8.57-7.4-.33-2.61-5.69-5.24-8.23-6.73,8.92-16.41,10.9-27.14,8.91a18.4,18.4,0,0,1-14.44-11.69c-8.63,13.06-21.11,14.43-34.71,11.83-9.52-1.83-15.58-8.45-16.89-18.05-.23-1.67-2.31-4.86,1.37-4.86,3,0,7.19-2.54,9.15,2.35,4,10,11.34,13.48,22.27,10.52,5.15-1.39,8.79-4.36,8.83-10.05,0-5.21-3.74-7-8.14-8.16-6.71-1.79-13.46-3.54-20-5.85-9.13-3.23-12.32-8-12.26-16.92.07-8.55,4.39-14.46,12.84-17.57C160.18,272.87,172.84,276.16,182.9,286.91Z" transform="translate(-56.47 -13.5)"/><path class="cls-3" d="M87.91,374.33c-7.09-1.54-12.3-5.35-14.44-12.51-.58-1.94-2.56-5.12,1-5.63,2.93-.41,6.89-2.05,9.16,1.55,5.87,9.29,22.81,12.19,31.29,5.15a11.44,11.44,0,0,0,4.36-8.16c.3-5.14.08-10.31.08-16.24-5,4.32-9.66,7.72-15.75,8.49-11.46,1.46-21-2-27.13-11.83-9.24-14.85-9-30.94-1.25-45.87,6.86-13.21,26.85-20.78,43.53-5.25,1.67-2-.66-6.6,4.69-6.39,5.08.21,7.38.74,7.25,6.78-.45,21.11-.19,42.23-.26,63.35,0,9.74-1.72,18.68-11,24.37a24.46,24.46,0,0,1-12.54,3.46C100.46,377,94.26,374.6,87.91,374.33Z" transform="translate(-56.47 -13.5)"/><path class="cls-4" d="M253.72,217.1c1.4-3.46,5.83-3.34,7.54-6.42.63,4.16,4.4,6.84,5.57,11.4C261.71,221.46,258.82,216.18,253.72,217.1Z" transform="translate(-56.47 -13.5)"/><path class="cls-5" d="M261.48,59.82a22,22,0,0,0-7.64-7.22,3,3,0,0,1,.95-.19c3.59.11,5.48-3.66,8.92-3.88,1.73-.12,4.49-1.45,2.84,2.41C264.49,53.68,262.22,56.32,261.48,59.82Z" transform="translate(-56.47 -13.5)"/><path class="cls-6" d="M71.38,158.76c.86,1.12-2.14,6,3.05,3,1.82-1,4.23-1.24,4.46,2.11-4.83-1.47-8.39,4.19-13.67,2.11A24.63,24.63,0,0,1,71.38,158.76Z" transform="translate(-56.47 -13.5)"/><path class="cls-7" d="M87.91,374.33c6.45-1.19,12.64,1.3,19,1.27A31.66,31.66,0,0,1,87.91,374.33Z" transform="translate(-56.47 -13.5)"/><path class="cls-8" d="M99.22,52.18c-2.55.23-2.45,2.17-2.57,4-2.46-2.08-3.37-5.06-5.94-9.27C94.72,49.08,97.38,49.87,99.22,52.18Z" transform="translate(-56.47 -13.5)"/><path class="cls-9" d="M291.9,138.46c.26-3.12,2.67-2.55,4.61-2.62,3.56-.14.74-1.46.46-2.31,2.35-.48,4.3.32,6.56,1.81A35.28,35.28,0,0,1,291.9,138.46Z" transform="translate(-56.47 -13.5)"/><path class="cls-8" d="M107,51.09c-2,4.84-4.27,5.17-7.7,1.11C102.09,53.67,104.58,52.75,107,51.09Z" transform="translate(-56.47 -13.5)"/><path class="cls-10" d="M119.82,230c1.65,1.26.25,4.8,3.59,4.8.16,1.78-.89,3-2.34,4.78C120,236.18,119.21,233.23,119.82,230Z" transform="translate(-56.47 -13.5)"/><path class="cls-11" d="M150,234.7c1.26.18,3.37-.44,2.67,2-.58,2,1.19,5.4-3,5.51C149.34,239.66,152,237.27,150,234.7Z" transform="translate(-56.47 -13.5)"/><path class="cls-11" d="M149.72,242.26a3.24,3.24,0,0,0,3.2,2.8c-1.12,2.75-3.77,2.76-7,4.19C147.59,246.29,147.66,243.82,149.72,242.26Z" transform="translate(-56.47 -13.5)"/><path class="cls-12" d="M291.64,106.54c-.94-1.51-2.65-.75-3.9-1.32,2.05-1.89,4.53-2.52,7.48-2.87C294.62,104.68,293.56,106,291.64,106.54Z" transform="translate(-56.47 -13.5)"/><path class="cls-13" d="M209.13,204.17c-8.32-.13-8.32-.13-11.56-15.24-.36.09-1,.09-1,.29-1.42,3.67-1.83,8.37-4.4,10.76s-7.06-1.1-10.82-.64c-.21,0-.43,0-.63,0-8.07,1.33-16.13,2.64-19.32-7.93a35.57,35.57,0,0,1-8.83-4.87c-1,.16-2.36,0-3,.54-6,5-9.91,2-13.39-3.22a9.91,9.91,0,0,0-2.47-2.82c-7.75-5.18-13.34-10.86-3.62-20.62l-2-.12c-2.87,1.87-5.86,3.6-8.6,5.67s-5,1.07-7.44-.4c-2.77-1.65-1.84-3.87-1.23-6.1.06-.21.13-.41.17-.61,1.2-5.56,1.76-11.37,3.77-16.62,2.29-6,10.26-2.51,13.76-7.09-.14-.1-.42-.5-.71-.5-12.62-.13-14.44-9.23-15.78-18.82a39.12,39.12,0,0,0-1.37-5.5c-.59-2-1.69-4,1.24-5.28,2.39-1.06,4.28-3.52,7.37-1.14s6.28,4.13,9.52,6.22c.18-.65.49-1.12.36-1.37-4.87-10-3.91-9.25,3.13-17.74,6.65-8,12.61-12.83,22.74-7-1.59-3.23-1.82-6.84-2.92-10.21-.73-2.22-.51-4.31,2.25-4.87,3.05-.63,4,1.41,4.45,3.93s-.6,5.08,1.43,7.16c4.1,1,3.32-3.33,3.56-4.5,1.05-5.21,3.91-6.31,8.5-5.31a29.53,29.53,0,0,0,14.44,0c5.54-1.6,7.74.76,8.63,5.75.32,1.8.41,3.92,2.87,4.4,2.35.9,6.37-1.84,6.94,3.19,0,.36,1.21-.7,1.92-1,.83.06,1.95.51,2.44.13,7.12-5.58,10,.08,13.63,4.76,2.26,2.91,5.32,5.19,8,7.75,6.14,3.83.17,7.63,0,11.45h0c-.8,1.08-1.18,2.48.21,3,1.85.69,3.51-.36,4.82-1.78,1.34-.33.65-2.8,2.6-2.47a15.8,15.8,0,0,1,8-.25c1.08,1.13,2.9,1.92,1.84,4-1.62,2.87-3.48,5.49-3.65,9.1-.53,11.13-1.46,12-12,14-1,.2-2.1.24-2.29,1.58,1.84,3,5.29,3,8,4.34,3.87.77,6.1,2.63,6.57,7,.52,4.76,2.22,9.39,3.22,14.12.44,2.11,1.7,4.52-1.24,6.11-2.64,1.42-5.1,2.75-8,.52-2.68-2-5.58-3.75-8.41-5.63-.27.41-.68.85-.61.94,5.74,7.89,4.42,13.83-4.27,18.71-3.36,1.89-5.63,5.57-7.38,9.23-3.78,3.53-7.15-.08-10.9-.7,1.66,2.14,1.72,4.81,3.23,6.84l.86,1.36C213.16,200.09,211.85,202.37,209.13,204.17Z" transform="translate(-56.47 -13.5)"/><path class="cls-14" d="M107.45,87c-1.35-11.5,7.26-24.66,23.73-23.78A64,64,0,0,1,107.45,87Z" transform="translate(-56.47 -13.5)"/><path class="cls-15" d="M107.19,183.77c9.82,4.87,19.72,14.85,22.91,22.8C116.61,207.7,106.71,198,107.19,183.77Z" transform="translate(-56.47 -13.5)"/><path class="cls-16" d="M96.53,128.61c0,7.52.61,15.12-2.39,22.42-8.64-6.65-10.23-15.78-5-27.56,1-2,1.73-4.65,4.59-4.07,3.08.63,2.07,3.5,2.23,5.61C96.11,126.23,95.91,127.47,96.53,128.61Z" transform="translate(-56.47 -13.5)"/><path class="cls-17" d="M162.37,220c11.49-2.5,22.18-2.9,33-.15C188.4,230.74,174.05,231,162.37,220Z" transform="translate(-56.47 -13.5)"/><path class="cls-18" d="M251.62,86.78c-10.2-5.35-17.18-13.32-23.37-22.57C241.64,61.83,251.58,71.37,251.62,86.78Z" transform="translate(-56.47 -13.5)"/><path class="cls-19" d="M228.17,206.71a62.37,62.37,0,0,1,22.4-22.62C253.55,196.66,242.62,207.85,228.17,206.71Z" transform="translate(-56.47 -13.5)"/><path class="cls-20" d="M264.81,151.93c-2.55-9-2.56-17.26-1.72-25.62.2-2,1-3.82,3.08-4.35,2.54-.65,3.05,1.74,4,3.26C275.33,133.81,273.54,143.75,264.81,151.93Z" transform="translate(-56.47 -13.5)"/><path class="cls-21" d="M163.19,50.43c8.56-9.3,20-11,27.55-4.43,1.15,1,3.57,1.58,3.1,3.38s-2.71,2.69-4.56,2.75C180.73,52.37,172.1,53.32,163.19,50.43Z" transform="translate(-56.47 -13.5)"/><path class="cls-22" d="M207,82.63c0,1.88,0,4.66-2.23,4.36-3.2-.42-.61-4-2-5.79-2.6-.9-1.83,4.81-4.89,2.66-.48-.34.16-2.25.29-3.44.75-3.06,1.93-6.08,2.15-9.18.22-3.27,2.08-4.12,4.64-4.93,2.8-.88,4.26.38,5.68,2.53,1.54,2.33,1.93,4.26.15,6.81C209.24,77.79,206.64,79.48,207,82.63Z" transform="translate(-56.47 -13.5)"/><path class="cls-23" d="M152.52,186.55c4.26-.76,6.29,2.52,8.83,4.87-2.33,2-2,5-2.45,7.58-.52,3.3-2.25,4.69-5.32,5.19-2.07.33-3.53.13-4.76-1.88-1.55-2.53-2.42-4.72-.49-7.53C150.06,192.25,152.77,190.12,152.52,186.55Z" transform="translate(-56.47 -13.5)"/><path class="cls-24" d="M160.1,80.09c-4.25-.94-2-4.38-2.58-6.74-.27-1.22-.1-2.61-1.62-3.09a2.38,2.38,0,0,0-2.86.61c-1,1.38.44,2.19.86,3.28a21.83,21.83,0,0,1,1,9.93c-2.29-3.18-4.7-6.27-6.82-9.55-2.23-3.44-.22-6.68,2.42-7.91a5.94,5.94,0,0,1,8.27,3C160.18,72.94,160.17,76.54,160.1,80.09Z" transform="translate(-56.47 -13.5)"/><path class="cls-25" d="M228.72,135c-.79-3.43,0-4.64,4-4.32,8.45.68,11-1.94,10.87-10.74-.07-4.56.76-8.27,4.93-10.66-1.26,6.16-2.63,12.3-3.75,18.49-1.08,5.91-6.37,4.31-9.92,5.83C232.89,134.34,231.28,136.72,228.72,135Z" transform="translate(-56.47 -13.5)"/><path class="cls-26" d="M210.77,195.48a30.12,30.12,0,0,1-6.08-9.22c5.24-1.09,8.29,6.22,13.75,3.08-.26,2.79-2.39,2.5-4.19,2.35C211.32,191.44,210.7,193.09,210.77,195.48Z" transform="translate(-56.47 -13.5)"/><path class="cls-27" d="M96.53,128.61q-1.22-4.5-2.43-9c-2.77.11-2.94,3.08-4.91,3.82-.44-3.29.76-5.4,4.3-5.37,3.91,0,3.08,3.2,3.24,5.52A41.72,41.72,0,0,1,96.53,128.61Z" transform="translate(-56.47 -13.5)"/><path class="cls-28" d="M231,106.72c-1-3.82,3.38-7.63,0-11.45C236.53,98.39,236.52,99.22,231,106.72Z" transform="translate(-56.47 -13.5)"/><path class="cls-29" d="M228.72,135l6.15-1.4c-1.82,4,3.23,2.58,3.73,4.74C235,138.16,231.55,137.47,228.72,135Z" transform="translate(-56.47 -13.5)"/><path class="cls-25" d="M246.7,105.23c-2.64,1.25-5.26,2.83-8,.25C241.29,103.17,243.9,101.22,246.7,105.23Z" transform="translate(-56.47 -13.5)"/><path class="cls-26" d="M209.13,204.17c.4-2.59,3.51-4.26,2.5-7.33C214,200.37,215.57,203.64,209.13,204.17Z" transform="translate(-56.47 -13.5)"/><path class="cls-30" d="M236.08,108c-.58,4-4.37,2-7.11,4.63.39-3,.28-4.67,2.08-5.85C231.47,112.33,234.73,106.19,236.08,108Z" transform="translate(-56.47 -13.5)"/><path class="cls-31" d="M238,303.76c5.11,7,11.41,8.74,17.63,10.54,5,1.47,10.14,2.68,15.18,4.13,3.45,1,6.05,3,6.44,6.89a9,9,0,0,1-4.51,9.05c-7.95,4.93-24.33,3.64-26.4-8.37-.43-2.48-1.61-3.23-3.82-2.89-3.68.58-4.79-1.05-4.58-4.59C238.21,314.15,238,309.74,238,303.76Z" transform="translate(-56.47 -13.5)"/><path class="cls-32" d="M183.53,313.78c-8.73-7.32-19-8.26-28.75-10.88-4.69-1.26-9.9-2.4-9.13-9.08.76-6.51,5.91-7.6,11.09-8.13,8.18-.83,13,1.6,16.17,8.77,1.57,3.57,4.16,2.33,6.31,2.23,3.32-.16,4.56.85,4.36,4.21C183.36,304.86,183.53,308.84,183.53,313.78Z" transform="translate(-56.47 -13.5)"/><path class="cls-33" d="M120.24,311.73c-.29,3.44-.35,6.63-.87,9.74-1.56,9.31-7.27,14.52-16.54,15.34s-15.93-3.52-19-12.27a37.66,37.66,0,0,1-.44-24.82c3.16-9.68,9.6-14.59,18.53-14,9.42.67,16,6.93,17.5,16.78C119.88,305.67,120,308.85,120.24,311.73Z" transform="translate(-56.47 -13.5)"/></svg>