<svg id="Layer_1" data-name="Layer 1" xmlns="http://www.w3.org/2000/svg" viewBox="0 0 399.42 390"><defs><style>.cls-1{fill:#a90000;}.cls-2{fill:#fefefe;}.cls-3{fill:#fefdfd;}.cls-4{fill:#fdfcfc;}.cls-5{fill:#a90505;}</style></defs><title>inditex</title><path class="cls-1" d="M360,28.07V361.91q-90-.07-179.93,0T0,361.91V28.07Q180,28.16,360,28.07Z"/><path class="cls-2" d="M103.88,193.32c0-5.79.07-11.58,0-17.37,0-2,.55-2.58,2.54-2.54,6.13.12,12.27-.07,18.41.09a19.73,19.73,0,0,1-.17,39.45c-6.14.11-12.28,0-18.41.07-1.82,0-2.4-.5-2.37-2.34C103.94,204.9,103.88,199.11,103.88,193.32Z"/><path class="cls-2" d="M305.8,213c4.68-6.21,8.83-11.88,13.19-17.39,1.38-1.75,1.47-2.88.05-4.67-4.37-5.52-8.53-11.2-13.24-17.44h17.4c1.14,0,1.46,1,1.95,1.75,1.41,2.1,2.8,4.21,4.13,6.22a1.27,1.27,0,0,0,1.42-1c2.64-6.3,7.48-8,13.88-7.07,2.68.38,5.45.06,8.84.06-4.57,6.18-8.63,11.91-13,17.41-1.53,1.94-1.45,3.12,0,5,4.29,5.41,8.35,11,12.95,17.13h-16.8c-1.28,0-1.72-1-2.31-1.85-1.48-2.07-2.92-4.16-4.67-6.66-1.51,2.27-3,4.26-4.22,6.4a3.82,3.82,0,0,1-3.89,2.16C316.57,212.89,311.59,213,305.8,213Z"/><path class="cls-2" d="M84,213l-12.41-7.73c-3.91-2.44-7.83-4.87-12.3-7.64,0,4.54-.11,8.63,0,12.71.08,2.17-.69,2.8-2.78,2.69-3.12-.16-6.25-.11-9.37,0-1.66.05-2.54-.25-2.52-2.23.07-11.69,0-23.38,0-35.06,0-2.47,1-1.68,2.27-.94,7.35,4.34,14.72,8.65,22.43,13.18.65-4.15.33-8,.27-11.84,0-2.18.69-2.81,2.78-2.7,3.69.2,8.47-1.21,10.78.61s.71,6.92.76,10.56C84,193.8,84,203,84,213Z"/><path class="cls-2" d="M253.64,193.31c0-5.79.08-11.58,0-17.36,0-2,.55-2.56,2.53-2.54q14.92.14,29.86,0c1.91,0,2.57.45,2.59,2.5.06,6.73.15,6.73-6.62,6.73-3.82,0-7.64.12-11.46,0-2.35-.1-2.32,1.22-2.22,2.83s-.6,3.37,2.18,3.24c3.58-.16,7.18.05,10.76-.08,2-.07,2.86.33,2.88,2.62.05,6.65.16,6.65-6.44,6.64a48.18,48.18,0,0,1-5.89-.05c-3-.39-3.75.81-3.57,3.63.12,1.88.74,2.33,2.46,2.3,5-.08,10,.06,14.93-.07,2.14-.06,3,.35,3,2.8-.09,6.53,0,6.53-6.55,6.53-8.57,0-17.13-.07-25.7.05-2.12,0-2.8-.53-2.74-2.7C253.73,204.66,253.64,199,253.64,193.31Z"/><path class="cls-3" d="M215.78,173.45c5.45,0,10.89.1,16.34,0,2.32-.06,3.2.46,3.18,3-.06,8.65,0,8.79-8.62,8.59-3-.07-4,.52-3.85,3.72.29,7.17,0,14.36.13,21.55,0,2.12-.59,2.85-2.74,2.74-3.24-.16-6.49-.15-9.73,0-2.06.1-2.53-.71-2.51-2.61.09-7.42,0-14.83.1-22.25,0-2.32-.43-3.55-3-3.09a4.09,4.09,0,0,1-.7,0c-8.9,0-8.83,0-8.71-8.91,0-2.07.53-2.82,2.71-2.77C204.19,173.54,210,173.45,215.78,173.45Z"/><path class="cls-4" d="M162,193.16c0-5.79.06-11.57,0-17.35,0-1.8.48-2.47,2.34-2.4,3.46.12,6.94.11,10.41,0,1.74,0,2.43.43,2.41,2.32-.08,11.69-.06,23.37,0,35.06,0,1.62-.47,2.26-2.17,2.21-3.58-.1-7.17-.13-10.75,0-2,.08-2.23-.88-2.22-2.51C162.05,204.73,162,198.94,162,193.16Z"/><path class="cls-2" d="M24.5,193.26c0,5.68-.09,11.35,0,17,.05,2.11-.57,2.86-2.73,2.74-3.91-.22-9,1.28-11.43-.66s-.75-7.35-.81-11.22c-.12-8.34,0-16.67-.08-25,0-2.13.55-2.85,2.71-2.72,3.91.22,9-1.29,11.44.65s.64,7.34.83,11.22C24.6,187.93,24.5,190.6,24.5,193.26Z"/><path class="cls-5" d="M118.35,193.22a46.18,46.18,0,0,0,0-5.52c-.33-2.77,1.07-3,3.27-2.74a8.33,8.33,0,0,1-.68,16.6c-1.92.12-2.75-.43-2.58-2.47S118.35,195.18,118.35,193.22Z"/><rect class="cls-1" width="360" height="28.06"/><rect class="cls-1" y="361.94" width="360" height="28.06"/><path class="cls-1" d="M399.42,28.06h0Z"/></svg>