<svg id="Layer_1" data-name="Layer 1" xmlns="http://www.w3.org/2000/svg" viewBox="0 0 338.4 31.84"><defs><style>.cls-1{fill:#050505;}.cls-2{fill:#fdfdfd;}.cls-3{fill:#fcfcfc;}.cls-4{fill:#fefefe;}.cls-5{fill:#fafafa;}.cls-6{fill:#101010;}.cls-7{fill:#f3f3f3;}</style></defs><title>jackjones</title><path d="M160.83,179.43c6.2.08,12.39.07,18.57.63,1.45.14,2,.72,2,2.13a126.7,126.7,0,0,1-1.05,16.29c-.34,3.14-.78,6.25-1.42,9.35a2.54,2.54,0,0,1-2.64,2.33,256.82,256.82,0,0,1-26.32.48c-3.5-.12-7-.16-10.48-.46-1.63-.13-2.37-.83-2.33-2.43a147,147,0,0,1,2.59-25.63,2.24,2.24,0,0,1,2.31-2C148.33,179.5,154.58,179.51,160.83,179.43Z" transform="translate(-10.8 -179.08)"/><path d="M271.36,202.36c.68-6.76,1.35-13,1.92-19.17.32-3.38.25-3.39,3.67-3.39,3.1,0,3.05,0,2.73,3q-1.33,12.68-2.56,25.36c-.11,1.18-.34,1.73-1.68,1.64a45.83,45.83,0,0,0-5.86,0,1.93,1.93,0,0,1-2.08-1.31c-3.54-7.06-7.13-14.1-10.71-21.15-.12-.24-.26-.48-.62-1.13-.4,3.78-.76,7.15-1.1,10.52-.39,3.83-.79,7.65-1.13,11.49-.1,1.14-.41,1.76-1.74,1.57-1.57-.23-3.74.68-4.58-.37-.7-.88.09-2.95.25-4.5.78-7.65,1.62-15.29,2.31-23,.16-1.68.54-2.43,2.39-2.25a40.93,40.93,0,0,0,5.86,0,1.8,1.8,0,0,1,1.94,1.21c3.38,6.7,6.82,13.37,10.24,20C270.76,201.34,270.94,201.62,271.36,202.36Z" transform="translate(-10.8 -179.08)"/><path d="M230.71,179.11a19.22,19.22,0,0,1,5.14.61c5.06,1.31,8.25,4.8,8.85,10,.79,6.91-.37,13.34-6.41,17.65-5.67,4-12.07,4.58-18.5,1.93-5.21-2.15-7-6.64-7-12a21.69,21.69,0,0,1,1.62-8.21c2.28-5.72,6.68-8.71,12.6-9.66A15.07,15.07,0,0,1,230.71,179.11Z" transform="translate(-10.8 -179.08)"/><path d="M68.7,209.81c-2.15,0-4.32,0-6.48,0-.82,0-.9-.53-1-1.08-.38-1.38-.78-2.75-1.12-4.14a1.22,1.22,0,0,0-1.43-1.05q-6.21.06-12.4,0a1.47,1.47,0,0,0-1.57,1c-.65,1.46-1.4,2.88-2.06,4.34a1.3,1.3,0,0,1-1.38,1c-2.05-.07-4.11,0-6.18,0-.14-.71.31-1.15.54-1.64C40,199.11,44.35,190.06,48.69,181a1.8,1.8,0,0,1,1.94-1.21c2.86.07,5.74.06,8.61,0a1.3,1.3,0,0,1,1.54,1.12q3.94,14.22,7.94,28.43A2.27,2.27,0,0,1,68.7,209.81Z" transform="translate(-10.8 -179.08)"/><path d="M325.09,179.26c2.65.1,5.4.2,7.93,1.52a6.36,6.36,0,0,1,3.55,5.86c0,.81-.21,1.13-1.06,1.08-1.14-.06-2.3,0-3.44,0-1.63.06-3,.29-3.48-2.13-.38-2.09-3.44-2.85-6.21-2a4.53,4.53,0,0,0-3.4,5.09,3.5,3.5,0,0,0,2.72,2.6c2.37.66,4.75,1.28,7.13,1.92.5.14,1,.25,1.5.4,2.84.89,5.48,2,5.91,5.47a8.73,8.73,0,0,1-3.72,8.87c-3.88,2.68-8.33,3-12.87,2.75a16.69,16.69,0,0,1-5.68-1.28,7.36,7.36,0,0,1-4.62-6.69c-.07-.89.24-1.11,1-1.08,1,0,2.07.06,3.1,0,1.84-.12,3.63-.34,3.83,2.35.06.83.9,1.46,1.71,1.82a7.91,7.91,0,0,0,7.43-.24,4.27,4.27,0,0,0,2.08-4.57c-.22-1.81-1.62-2.41-3.09-2.82-2.75-.77-5.55-1.42-8.31-2.19s-5.33-2.13-5.83-5.36a8.51,8.51,0,0,1,3.42-8.49C317.75,179.81,321.32,179.36,325.09,179.26Z" transform="translate(-10.8 -179.08)"/><path d="M293.62,209.81c-3.39,0-6.78,0-10.17,0-1,0-1.26-.25-1.16-1.25q1.45-13.87,2.82-27.75c.08-.8.36-1.06,1.17-1.06q10.35,0,20.7,0c.77,0,.9.24.89,1-.07,4.27-.05,4.27-4.21,4.27-3.45,0-6.9.05-10.34,0-1.05,0-1.4.29-1.43,1.33a27.52,27.52,0,0,1-.47,4.44c-.21,1.09.14,1.29,1.11,1.28,4,0,8.05,0,12.07,0,1,0,1.38.11,1.26,1.3-.4,4-.33,4-4.35,4-3.16,0-6.32,0-9.48,0-1,0-1.4.33-1.43,1.36a39.82,39.82,0,0,1-.42,4.63c-.16,1.08.13,1.37,1.22,1.36,4.25-.07,8.51,0,12.76-.06,1.14,0,1.31.33,1.2,1.37-.45,3.85-.42,3.85-4.32,3.85Z" transform="translate(-10.8 -179.08)"/><path d="M96.89,188.41a9.77,9.77,0,0,0-1.21,0c-1.56.17-2.68,0-3.28-1.9s-3.23-2.8-5.76-2.47A7.53,7.53,0,0,0,80.7,188a19.12,19.12,0,0,0-1.9,13.34,6,6,0,0,0,5.48,5,6.52,6.52,0,0,0,7-3.51,1.57,1.57,0,0,1,1.67-1.1q2.67.12,5.34,0c1.27,0,1.27.42.94,1.43a9.33,9.33,0,0,1-5.53,6,22.24,22.24,0,0,1-15.66.59,9.67,9.67,0,0,1-6.72-7.24A19.88,19.88,0,0,1,74,186.15c3.9-5.88,9.83-7.07,16.36-6.57a15.12,15.12,0,0,1,6.11,1.61,7.91,7.91,0,0,1,4.27,6.1c.12.76,0,1.2-.94,1.13S97.87,188.41,96.89,188.41Z" transform="translate(-10.8 -179.08)"/><path d="M14.84,198.64c1.09,0,2.46-.4,3.2.11.89.61-.05,2,0,3,.09,2.52.78,3.89,2.41,4.23a4.54,4.54,0,0,0,5.18-2.76c.87-2.11.76-4.4,1-6.61q.89-7.78,1.61-15.58c.1-1,.4-1.35,1.44-1.29a46.33,46.33,0,0,0,5,0c1,0,1.12.32,1,1.19-.73,6.85-1.29,13.72-2.17,20.55-.73,5.78-4.67,8.83-11.41,9.27a17,17,0,0,1-5.12-.47c-6-1.47-6.64-5.4-6-10.95.07-.69.52-.77,1.1-.75.92,0,1.84,0,2.76,0Z" transform="translate(-10.8 -179.08)"/><path d="M189.1,198.69c1.15,0,2.58-.42,3.36.12s0,2,0,3.06c0,2.53.78,3.86,2.47,4.15a4.52,4.52,0,0,0,5.23-3.2c.78-2.48.72-5.1,1-7.66.55-4.74,1-9.48,1.44-14.22.08-.88.38-1.19,1.26-1.16,1.78.05,3.56,0,5.34,0,.69,0,1,.08,1,.92-.75,6.91-1.25,13.84-2.24,20.71-.89,6.15-4.84,9.07-11.67,9.39a16.59,16.59,0,0,1-4.62-.42c-3.8-.91-6.43-2.87-6.37-7.51a1.11,1.11,0,0,0,0-.17C185.08,198.62,185.08,198.62,189.1,198.69Z" transform="translate(-10.8 -179.08)"/><path d="M131.14,209.81c-2.8,0-5.38,0-8,0a1.52,1.52,0,0,1-1.59-1q-3.75-7.53-7.6-15a1.24,1.24,0,0,1,.22-1.63q5-5.82,9.9-11.68a1.69,1.69,0,0,1,1.41-.79c2.45,0,4.91,0,7.73,0-2.59,2.9-5,5.56-7.37,8.22-1.15,1.28-2.25,2.62-3.49,3.82a1.55,1.55,0,0,0-.27,2.31c2.78,4.67,5.47,9.4,8.19,14.11C130.58,208.72,130.82,209.21,131.14,209.81Z" transform="translate(-10.8 -179.08)"/><path d="M105.6,209.81c-1-.12-2.66.55-3.26-.25s.06-2.29.18-3.48c.83-8.34,1.68-16.67,2.47-25,.1-1,.47-1.35,1.49-1.3a43.06,43.06,0,0,0,4.82,0c1-.05,1.4.19,1.27,1.31-.78,7.25-1.5,14.5-2.24,21.75-.18,1.77-.44,3.53-.51,5.31,0,1.27-.39,1.91-1.79,1.69A17.57,17.57,0,0,0,105.6,209.81Z" transform="translate(-10.8 -179.08)"/><path class="cls-1" d="M339.86,184a4.63,4.63,0,0,1,4.58-4.78,4.71,4.71,0,0,1,4.76,4.63,4.82,4.82,0,0,1-4.62,4.82A4.74,4.74,0,0,1,339.86,184Z" transform="translate(-10.8 -179.08)"/><path class="cls-2" d="M165.6,193.56c-2.93,0-5.86,0-8.79,0-2.41,0-3.52.85-3.88,3.24-.26,1.69-1,2.22-2.65,2.11a55.44,55.44,0,0,0-7.06,0c-1.52.08-1.73-.45-1.3-1.72a23.44,23.44,0,0,0,.63-2.5c.77-3.44,2-4.47,5.6-4.47H169c2.13,0,4.26,0,6.38,0,1,0,1.38,0,1.15,1.31-.29,1.58-.76,2.21-2.49,2.1C171.24,193.43,168.41,193.56,165.6,193.56Z" transform="translate(-10.8 -179.08)"/><path class="cls-3" d="M163.92,198.87c-3,0-6,0-8.95,0-.48,0-1.37.55-1.43-.56s.55-1.18,1.43-1.17c3.1,0,6.2,0,9.3,0,1.25,0,2-.29,2.09-1.6,0-.77.43-.93,1.11-.92,2.47,0,4.94,0,7.41,0,.26,0,.75.09.76.16a9.08,9.08,0,0,1-.57,3.18c-.24.82-1,.87-1.68.87Z" transform="translate(-10.8 -179.08)"/><path class="cls-4" d="M220.41,196.84a19.46,19.46,0,0,1,1.82-8.15A8.59,8.59,0,0,1,232.3,184c2.89.72,4.25,2.81,4.72,5.52a19.31,19.31,0,0,1-1.33,11.25,8.47,8.47,0,0,1-9.37,5.11,6.63,6.63,0,0,1-5.74-6.16C220.46,198.79,220.46,197.82,220.41,196.84Z" transform="translate(-10.8 -179.08)"/><path class="cls-2" d="M47.71,198.34c2.19-4.54,4.24-8.81,6.3-13.07.06-.13.24-.21.46-.38,1.19,4.19,2.34,8.29,3.52,12.39.25.88-.05,1.08-.89,1.07C54.06,198.32,51,198.34,47.71,198.34Z" transform="translate(-10.8 -179.08)"/><path class="cls-5" d="M340.88,184a3.64,3.64,0,1,1,3.68,3.73A3.66,3.66,0,0,1,340.88,184Z" transform="translate(-10.8 -179.08)"/><path class="cls-6" d="M346.29,186.31c-1.56.5-1.1-1.5-2.06-1.71-.77.38.35,2-1,1.71-1-.19-.29-1.27-.44-1.94a3.23,3.23,0,0,1,0-1.2c.11-.56-.43-1.47.43-1.61s2-.43,2.78.37a1.4,1.4,0,0,1,0,2.13C345.19,185,346.55,185.44,346.29,186.31Z" transform="translate(-10.8 -179.08)"/><path class="cls-7" d="M344.59,183.67c-.4,0-.68-.09-.66-.55s0-.86.58-.81c.41,0,.82.15.86.66S345,183.59,344.59,183.67Z" transform="translate(-10.8 -179.08)"/></svg>