<svg id="Layer_1" data-name="Layer 1" xmlns="http://www.w3.org/2000/svg" viewBox="0 0 333.24 149.92"><defs><style>.cls-1{fill:#1f1f1d;}.cls-2{fill:#1e1e1c;}.cls-3{fill:#20201e;}.cls-4{fill:#fcfcfc;}.cls-5{fill:#fafafa;}.cls-6{fill:#1f1f1e;}.cls-7{fill:#21211f;}.cls-8{fill:#f9f9f9;}</style></defs><title>kaffecream</title><path class="cls-1" d="M268.79,227c10.56-10.41,28.62-11.22,34.13,1,6.84-7.17,15-10.32,24.86-8.23,7,1.47,9.87,4.77,10.14,11.82.13,3.4.14,6.82,0,10.23-.21,6.48,1,12,8.67,13.91H322.21c5.3-1.65,7.83-5.36,8-10.84.14-4.88,1.07-9.84-.94-14.53-2.48-5.82-7.59-6.55-12.86-5.62-5.81,1-12.47,2.23-13.92,9.13-2.49,11.85.17,17.57,9.38,21.56H286.25c4.79-1.41,8.16-4.13,8.31-9.49.12-4.68.41-9.43-.19-14-.75-5.71-5.26-7.34-10.33-7.47-6.89-.18-15.55,4.61-16.42,8.86-2.18,10.8.32,18.11,8.31,22.16H251.14c10.42-2.46,8.54-10.84,8.48-18-.06-6.67.85-14.24-8.93-16l.39-1.59c4.51,0,9,0,13.53,0C270.81,220,265.41,225.34,268.79,227Z" transform="translate(-13.38 -120.04)"/><path class="cls-2" d="M54.74,265.22c8.84.12,16.95-1.7,23-8.83,1.23-1.47,2.82-2.65,4.26-1.29,1.67,1.59-.49,3-1.36,4.19a21.94,21.94,0,0,1-7.27,6.11c-13.51,7.49-36.95,5.51-49-4.15C9,249.05,9.88,223.81,26.33,212c13.57-9.74,28.92-10.16,44.59-6.84,3,.63,6.76,2.07,6,6.19-.7,3.9-4.2,5-7.85,5-2.06,0-4,.65-3.14-3.28,1-4.88-3.44-5.54-7-6.05-19-2.68-33.83,8.77-35.18,27.06C22.32,253.06,34.38,265.16,54.74,265.22Z" transform="translate(-13.38 -120.04)"/><path class="cls-3" d="M243.87,248.89c-3.32,6-7.63,8.11-13.1,7.89-4.47-.18-6-3.45-6.74-7.65-7.22,5.72-14.69,9.21-23.82,7-3.88-1-6.78-3-7.36-7s1.92-6.81,5.27-8.66c6.3-3.48,13.31-4.1,20.28-5.07,2.07-.28,5.74,2.15,6.16-2,.39-3.81.05-8-4-10a15.06,15.06,0,0,0-12.43-.21c-3.84,1.59-3.62,4.82-.88,8.52-2.66,0-4.33,0-6,0-2.85-.06-5.14-1.21-5.59-4.18s1.73-4.67,4.26-5.57a46.37,46.37,0,0,1,26.38-1.67c4.59,1.07,6.61,4.53,6.75,9s-.29,8.93-.24,13.4C232.87,252.32,234.1,253.14,243.87,248.89Z" transform="translate(-13.38 -120.04)"/><path class="cls-1" d="M163.19,234.57c-4.69,0-9.38.09-14.07,0-2.92-.08-3.57,1.29-3.43,3.93.39,7,6,12.71,13.78,13.56,6.49.7,12.73,0,18.42-3.63,1.13-.72,2.66-2.27,3.74-.24s-1.27,2.29-2.32,3a36.24,36.24,0,0,1-30.62,4.12c-6.57-1.92-10.48-6.46-11.21-13.28-.81-7.73,1.22-14.68,8.3-18.71,9.23-5.24,19.06-5.47,28.92-1.56a10,10,0,0,1,5.54,5.07c2.46,5.2.83,7.78-4.9,7.81C171.29,234.58,167.24,234.56,163.19,234.57Z" transform="translate(-13.38 -120.04)"/><path class="cls-1" d="M105.1,229.64c3.28-3.68,5.72-6.24,8.83-7.95a16.35,16.35,0,0,1,7.82-2.47c3.39,0,7.46.13,8.42,4.17,1,4.44-2.85,5.47-6.24,6.68-.26-6-3.85-6.35-8.26-4.95-9.26,2.95-14.35,17.58-9.12,25.88,1.94,3.07,5.28,3,10,4.48H88.8c9.48-2.08,8.52-9.7,8.38-16.69s1.48-14.95-8.1-18.92c4.1,0,8.21.12,12.3,0,2.59-.11,4.1.44,3.76,3.44C105,224.88,105.1,226.52,105.1,229.64Z" transform="translate(-13.38 -120.04)"/><path class="cls-4" d="M209.31,252.22c-2.83,0-5.77-.07-6.78-3.32-1.13-3.64.89-6.19,3.89-7.77a26.33,26.33,0,0,1,12.8-3c1.81,0,4.63-1.62,5.35,1.39.61,2.59.72,5.43-2,7.41C218.55,249.77,214.43,252.21,209.31,252.22Z" transform="translate(-13.38 -120.04)"/><path class="cls-5" d="M147.22,231.31c2.94-8.25,15.17-12.24,21.92-7.28,1.8,1.32,3.07,3.09,2.75,5.36-.4,2.92-2.95,1.82-4.58,1.86C160.64,231.4,154,231.31,147.22,231.31Z" transform="translate(-13.38 -120.04)"/><path class="cls-1" d="M51.62,163.73c-4.21,1.35-6.36,0-8.21-2.89-2.84-4.48-6.28-8.58-9-13.1-1.87-3.05-4.51-3.11-7.16-2.54-3.15.66-1.4,3.5-1.54,5.31a103.33,103.33,0,0,0-.06,10.85c.07,2.21-.81,3-3,2.95-2.41,0-2-1.68-2-3.1q0-18.51,0-37c0-1.62-.44-3.45,2.33-3.45,2.54,0,2.66,1.42,2.65,3.29,0,3.83-.13,7.66.05,11.49.07,1.47-1.14,3.89,1.29,4.25s5,1.16,6.88-1.68c3.15-4.79,6.72-9.31,9.84-14.13,1.91-3,4.17-3.94,8-2.56-3,4.28-5.91,8.41-8.83,12.53-6.08,8.62-6.08,8.61.18,17.52Z" transform="translate(-13.38 -120.04)"/><path class="cls-3" d="M312.13,142.35c0-5.75.15-11.5-.06-17.24-.11-3.15.55-4.58,4.13-4.42,6.37.29,12.77,0,19.15.11,1.71,0,3.95-.83,4.06,2.4s-2,2.65-3.79,2.66c-4.69,0-9.39.25-14.05-.07-3.74-.26-4.91,1.14-4.48,4.67a24,24,0,0,1,0,5.74c-.38,3.24,1.14,4,4,3.8,2.33-.19,4.68,0,7,0,1.7,0,2.83.34,2.86,2.42,0,1.91-.7,2.73-2.57,2.68a27.15,27.15,0,0,1-3.83,0c-6-1.08-8,1-7.72,7.33.22,5.34,1.05,7.76,6.92,6.95,4-.55,8.07-.1,12.12-.1,1.7,0,3.37-.22,3.48,2.41s-1.25,2.7-3.16,2.68c-7,0-14.05-.12-21.07,0-2.72.06-3.12-1.2-3.08-3.47C312.2,154.7,312.13,148.52,312.13,142.35Z" transform="translate(-13.38 -120.04)"/><path class="cls-6" d="M127.13,163.53c-4.23,2.14-5.41-.32-6.58-3.4-1.1-2.87-.81-7.4-3.93-8.14-4.43-1.05-9.29-.4-14-.29-1.9.05-1.92,2.06-2.44,3.32-1.07,2.54-1.9,5.18-2.78,7.79-.68,2-2.37,1.45-3.73,1.4-2.17-.08-1.44-1.6-1-2.71,4.5-12.81,9.08-25.59,13.53-38.42a3,3,0,0,1,3.21-2.34c2-.06,2.93.68,3.62,2.66C117.62,136.82,122.41,150.18,127.13,163.53Z" transform="translate(-13.38 -120.04)"/><path class="cls-7" d="M169,140.78c.56-5.69-3-15.21,1.3-18.86,4.15-3.5,13.35-1,20.33-1.15,1.06,0,2.13,0,3.19,0,1.84-.09,2.66.66,2.7,2.58s-.92,2.56-2.71,2.54c-5.1,0-10.22.24-15.31-.09-3.75-.23-4.88,1.16-4.46,4.66a24,24,0,0,1,0,5.74c-.38,3.21,1,4.06,4,3.81,2.54-.21,5.11,0,7.66-.05,2.06,0,2.37,1.15,2.37,2.87s-.84,2.23-2.32,2.23a4.53,4.53,0,0,0-.64,0c-3.62.62-8.63-2-10.59,1.37-1.68,2.86-.4,7.46-.43,11.28a24.28,24.28,0,0,1,0,2.56c-.19,1.68.87,4-2.4,4-3.77.09-2.59-2.61-2.62-4.43C169,153.93,169,148,169,140.78Z" transform="translate(-13.38 -120.04)"/><path class="cls-3" d="M240.6,142.29c0-5.75.17-11.51-.06-17.25-.13-3.24.68-4.51,4.18-4.35,6.38.28,12.78,0,19.17.11,1.72,0,3.95-.78,4,2.44s-2,2.6-3.85,2.62c-4.68,0-9.38.26-14-.07-3.79-.27-4.87,1.22-4.44,4.7a19.35,19.35,0,0,1,0,5.1c-.55,3.84,1.28,4.77,4.69,4.41,2.11-.22,4.26,0,6.39,0,1.62,0,2.81.22,2.92,2.35.13,2.51-1.28,2.52-3.14,2.81-3.57.57-8.41-2.26-10.45,1.5-1.52,2.8-.35,7.07-.37,10.69,0,1.07,0,2.13,0,3.2,0,1.94.31,3.9-2.74,3.8-3.34-.1-2.21-2.53-2.24-4.13C240.53,154.22,240.6,148.25,240.6,142.29Z" transform="translate(-13.38 -120.04)"/><path class="cls-8" d="M109.53,128.62c2.29,6.46,4.18,11.79,6.18,17.47a40.21,40.21,0,0,1-12.34.06C105.36,140.48,107.24,135.12,109.53,128.62Z" transform="translate(-13.38 -120.04)"/></svg>