<svg id="Layer_1" data-name="Layer 1" xmlns="http://www.w3.org/2000/svg" viewBox="0 0 349.34 89"><defs><style>.cls-1{fill:#bb0518;}.cls-2{fill:#d4616d;}.cls-3{fill:#e49ea5;}.cls-4{fill:#edbfc4;}.cls-5{fill:#fefefe;}</style></defs><title>kontatto</title><path class="cls-1" d="M71,239.5c-.15-.55-.65-.42-1-.51-5.91-1.35-9.84-5-12.32-10.43s-3.52-11.33-4.09-17.25a181.25,181.25,0,0,1,0-34.39,50.27,50.27,0,0,1,3.31-14.7c2.44-5.88,6.57-9.79,12.9-11.19.42-.1,1,.1,1.23-.53h7.9c.15.12.29.32.45.34,5.68.86,9.51,4.16,12.1,9.1,2.71,5.18,3.83,10.81,4.45,16.53a159.08,159.08,0,0,1,0,35.64A57.75,57.75,0,0,1,92.72,226c-2.64,6.95-7,11.93-14.61,13.5Z" transform="translate(-5.33 -150.5)"/><path class="cls-1" d="M329.3,239.5c-.09-.1-.17-.26-.28-.28-7.91-1.24-12.24-6.39-14.72-13.53s-3.19-14.71-3.48-22.26c-.45-11.63-.5-23.25,1.85-34.74a33.42,33.42,0,0,1,2.28-7.08c2.47-5.53,6.5-9.18,12.5-10.54.48-.1,1.16.12,1.43-.57h7.91c9.33,1,13,7.68,15.44,15.48a55.72,55.72,0,0,1,2.23,16.19c0,.53-.18,1.11.21,1.6v16.64c-.48,1.58-.09,3.2-.22,4.8a54.18,54.18,0,0,1-3.23,20.38c-1.81,4.71-4.23,9-8.64,11.88-2.07,1.37-4.33,1.63-6.63,2Z" transform="translate(-5.33 -150.5)"/><path class="cls-1" d="M5.33,151.75c3.53,0,7.07,0,10.6-.11,1.6-.07,1.91.45,1.9,2-.06,12.54,0,25.08,0,37.62v1.87a2.73,2.73,0,0,0,.87-1.6c4.43-12.5,8.89-25,13.26-37.51.53-1.53,1.14-2.24,2.89-2.12a76.79,76.79,0,0,0,8.31,0c1.73-.07,2,.34,1.34,1.95-5,12.65-9.95,25.33-15,38a5.14,5.14,0,0,0,0,4.29c5.77,13.38,11.42,26.82,17.21,40.2.83,1.91.33,2.1-1.44,2-3.32-.11-6.65-.1-10,0-1.36,0-1.89-.45-2.35-1.68-4.73-12.75-9.54-25.48-14.33-38.22a3.13,3.13,0,0,0-.85-1.33v2.07c0,12.41,0,24.81,0,37.21,0,1.51-.29,2-1.9,2-3.53-.15-7.07-.07-10.6-.09Z" transform="translate(-5.33 -150.5)"/><path class="cls-2" d="M354.67,205.4l-.36.06c-.07-1.7-.32-3.41.36-5.05Z" transform="translate(-5.33 -150.5)"/><path class="cls-1" d="M256.32,199.78c0,12.13,0,24.26.05,36.39,0,1.72-.42,2.28-2.16,2.17a52.13,52.13,0,0,0-7.07,0c-1.64.11-1.88-.49-1.88-2,0-14.9,0-29.8,0-44.7,0-9.29-.1-18.58,0-27.86,0-1.93-.58-2.32-2.34-2.24-3.18.14-6.38-.1-9.56.09-1.95.12-2.35-.58-2.2-2.32a32.46,32.46,0,0,0,.06-5.4c-.14-1.8.39-2.32,2.27-2.31,13,.09,26.05.05,39.08.05,10.54,0,21.07,0,31.61-.05,1.89,0,2.37.54,2.24,2.31a43.48,43.48,0,0,0,0,5.82c.09,1.4-.27,1.94-1.79,1.88-3.11-.12-6.24.07-9.35-.07-1.72-.08-2.18.42-2.17,2.16q.08,34.72,0,69.45c0,1.64.72,3.77-.3,4.8s-3.15.24-4.79.31c-1.39.05-2.79-.09-4.16,0s-1.85-.46-1.84-1.86c0-8.39,0-16.78,0-25.16,0-15.8-.07-31.6,0-47.41,0-2-.61-2.33-2.41-2.3-7.14.09-14.28.06-21.42,0-1.59,0-2.08.37-2.07,2,.08,12,0,24.11,0,36.17Z" transform="translate(-5.33 -150.5)"/><path class="cls-1" d="M139.32,210.74c-1.21-18.6-1.78-37.23-2.48-55.85-.12-3.21-.11-3.21,3-3.21,2.29,0,4.58.09,6.86,0,1.44-.08,1.87.33,1.85,1.81-.07,8,0,16.08,0,24.12,0,19.54,0,39.08,0,58.62,0,1.74-.43,2.29-2.17,2.12a30.33,30.33,0,0,0-5.39,0c-1.95.16-2.83-.47-3.44-2.45-5.9-19.44-11.94-38.84-17.94-58.24a1.15,1.15,0,0,1-.47-1.37,16.56,16.56,0,0,0,.07,3.9c1.36,18.66.84,37.37,1.35,56.06.05,1.77-.31,2.45-2.22,2.28a54.93,54.93,0,0,0-7.26-.09c-1.47.06-1.83-.37-1.82-1.83,0-13.85,0-27.7,0-41.56,0-13.71,0-27.43,0-41.14,0-1.64.25-2.33,2.09-2.2a54.77,54.77,0,0,0,7.47,0c1.48-.09,2,.45,2.42,1.8q8.54,29.13,17.16,58.24c.16.53.31,1.06.47,1.59a1.8,1.8,0,0,1,.48.9C139.33,213,139.67,211.88,139.32,210.74Z" transform="translate(-5.33 -150.5)"/><path class="cls-1" d="M235.65,238.3c-3.36,0-6.53-.05-9.71,0-1.28,0-1.2-.93-1.4-1.65-1.28-4.59-2.56-9.18-3.74-13.8-.31-1.22-.78-1.66-2.08-1.64q-6.43.09-12.88-.09c-1.36,0-1.72.47-1.94,1.68-.83,4.55-1.88,9.07-2.62,13.64-.28,1.69-1,2.15-2.55,2.12a72.88,72.88,0,0,0-7.68.22c-1.82.17-2.22-.27-1.82-2.08,1.73-7.76,3.32-15.55,5-23.32q6.38-30.12,12.74-60.25c.28-1.35.68-1.88,2.1-1.8a62.88,62.88,0,0,0,6.44,0c1.26,0,1.75.31,2,1.63q7.38,35,14.88,70C233.46,228,234.53,233.06,235.65,238.3Z" transform="translate(-5.33 -150.5)"/><path class="cls-1" d="M180.82,200.42c0,12,0,24,.06,36,0,2-.62,2.41-2.42,2.31a60.22,60.22,0,0,0-7.48,0c-1.69.11-2-.49-2-2.08q.18-19.64.21-39.27c0-11.22,0-22.44.11-33.66,0-1.6-.47-2-2-1.94-3.32.07-6.65-.1-10-.08-1.15,0-1.57-.34-1.56-1.53,0-2.35-.1-4.71-.26-7.05-.07-1.12.3-1.4,1.39-1.4q17.56.15,35.12.18c1.06,0,1.48.3,1.45,1.41-.06,2.35-.08,4.71,0,7.06,0,1.19-.35,1.53-1.53,1.5-3-.07-6.1.09-9.14-.06-1.72-.09-2,.53-2,2.09C180.85,176,180.82,188.23,180.82,200.42Z" transform="translate(-5.33 -150.5)"/><path class="cls-3" d="M139.32,210.74a7.37,7.37,0,0,1,0,4.34l-.47-1.81C139.66,212.54,138.9,211.54,139.32,210.74Z" transform="translate(-5.33 -150.5)"/><path class="cls-4" d="M119.22,180.11a7.88,7.88,0,0,1-.09-4.26l.49,1.73C118.94,178.33,119.59,179.3,119.22,180.11Z" transform="translate(-5.33 -150.5)"/><path class="cls-5" d="M64.81,195c.09-8.24.09-16.48,2-24.57a17.89,17.89,0,0,1,2.43-5.91c2.89-4.31,7.88-4.34,10.76,0a23.49,23.49,0,0,1,3.4,10.58,171.06,171.06,0,0,1,0,40.2,22.45,22.45,0,0,1-2.41,8.1,7.44,7.44,0,0,1-6.84,4.29c-3.12,0-4.87-2-6.08-4.61-2-4.21-2.48-8.76-2.87-13.31A134.27,134.27,0,0,1,64.81,195Z" transform="translate(-5.33 -150.5)"/><path class="cls-5" d="M342.31,196.63c-.1,6.76.08,14.6-1.78,22.29a16.22,16.22,0,0,1-2.2,5.34c-3.28,4.87-9.31,4.62-12.09-.54-2.18-4.06-2.76-8.56-3.09-13a183.77,183.77,0,0,1,.35-34.23,32.55,32.55,0,0,1,2.5-10,8.9,8.9,0,0,1,3.5-4.26c2.83-1.65,6.07-.82,8.14,2.17,2.43,3.52,3.11,7.63,3.71,11.75C342.3,182.55,342.28,189.06,342.31,196.63Z" transform="translate(-5.33 -150.5)"/><path class="cls-5" d="M212.39,170.76c2.2,13.83,4.39,27.67,6.62,41.69H206.25c-1.77,0-.88-1.29-.79-1.91.75-4.92,1.6-9.82,2.42-14.72l4.2-25.12Z" transform="translate(-5.33 -150.5)"/></svg>