<svg id="Layer_1" data-name="Layer 1" xmlns="http://www.w3.org/2000/svg" viewBox="0 0 351.33 43.83"><defs><style>.cls-1{fill:#2a2e2d;}.cls-2{fill:#de262b;}.cls-3{fill:#2b2e2d;}.cls-4{fill:#f8fbfa;}.cls-5{fill:#f7fbfa;}</style></defs><title>massana</title><path class="cls-1" d="M58.73,173.9c1.3.59,1,1.77,1,2.81,0,12-.09,24.07.07,36.1,0,2.82-1.19,3-3.45,3s-3.47-.18-3.41-3c.19-8.9.07-17.81.07-26.71v-4.48c-6.55,8.43-12.47,16.08-18.4,23.72-2.71,3.47-2.73,3.47-5.45-.06C23.33,197.71,17.5,190.11,11,181.68v27.47c0,6.55,0,6.55-6.5,6.64-.06-13.22-.1-26.45-.19-39.67,0-1.52.5-2,2.06-2.12,4.12-.42,7.13.51,9.68,4.29,4.29,6.36,9.38,12.18,13.9,18.4,1.72,2.36,2.56,1.92,4.06-.07,4.68-6.25,9.65-12.3,14.22-18.63,2.08-2.88,4.3-4.61,8-4A11.16,11.16,0,0,0,58.73,173.9Z" transform="translate(-4.33 -173.09)"/><path class="cls-2" d="M174.47,173.25c7.22-.25,14.45-.59,21.37,2.16a16.87,16.87,0,0,1,3.63,1.57c1.16.84,3.76.71,3,3.05-.87,2.8-3.53,3.8-6.16,2.58a37.91,37.91,0,0,0-21.16-3,6.37,6.37,0,0,0-1.77.31c-2.26,1-5.17,1.5-5.21,4.73s2.7,4.18,5.19,4.52c5.95.8,11.95,1.33,17.93,1.84a27.12,27.12,0,0,1,7.33,1.85A11.12,11.12,0,0,1,201.51,212a20.78,20.78,0,0,1-10.92,4.26c-9.5,1.25-18.77.56-27.35-4.1-1.31-.71-4.34-.94-2.62-3.9,1.35-2.34,2.53-3.84,5.83-1.93,7.45,4.31,15.69,5.14,24.13,3.7a16,16,0,0,0,4.68-1.78,5.35,5.35,0,0,0,3-5.34c-.18-2.51-1.8-3.82-4-4.53-5.47-1.75-11.22-1.12-16.81-1.93-3.33-.48-6.73-.58-9.91-1.8-7.43-2.84-8.88-11.93-2.78-17.11,1.87-1.59,4.17-2.36,6.28-3.49A5.47,5.47,0,0,0,174.47,173.25Z" transform="translate(-4.33 -173.09)"/><path class="cls-3" d="M145.43,174c2.77,1.13,5.63,2.09,8.26,3.48.85.46,3.69.54,2.06,2.66-1.15,1.5-1.82,4.51-5.17,2.88a36.6,36.6,0,0,0-21.76-3.4c-4.52.67-7.42,2.6-7.15,5.24.43,4.2,4.1,4.39,7,4.78,6.9.92,14,.61,20.75,2.46,6.46,1.77,9.44,4.93,9.69,10.09a11.56,11.56,0,0,1-8.3,12.19c-12.18,4.12-24.14,3.38-35.51-3-1-.56-3.24-1.18-1.33-3,1.28-1.22,1.35-4.56,4.72-2.62a35.89,35.89,0,0,0,24.36,4.39,18.75,18.75,0,0,0,4.14-1.16c2.71-1.13,4.86-2.89,4.53-6.18s-3-4.58-5.82-5c-4.89-.65-9.81-1-14.73-1.41a50.55,50.55,0,0,1-9.25-1.5c-3.74-1-6.64-3-7.39-7a10.54,10.54,0,0,1,3.92-10.6c2.68-2.25,6.07-2.76,9.17-4A76.61,76.61,0,0,1,145.43,174Z" transform="translate(-4.33 -173.09)"/><path class="cls-3" d="M302.36,174c.75,7.09.19,14.2.31,21.3.1,5.9-.06,11.81.08,17.71.05,2.21-.69,2.69-2.86,2.89-4,.36-6.64-1-9.24-4.05-8-9.29-16.4-18.3-24.62-27.43a5.11,5.11,0,0,0-2.53-1.88V201.8c0,4-.07,7.95,0,11.93.07,3.05-2.16,1.89-3.56,2s-3.18.71-3.17-2c.1-12.78,0-25.55.06-38.33a1.47,1.47,0,0,1,.78-1.49c6.12-1.1,9.83,2.24,13.53,6.59,7.79,9.15,16,17.92,24.79,27.61v-6.35c0-7.83.21-15.67-.09-23.48-.14-3.54.87-4.85,4.34-4.24A9.81,9.81,0,0,0,302.36,174Z" transform="translate(-4.33 -173.09)"/><path class="cls-1" d="M232.31,173.89c1.14.45,1.45,1.58,1.93,2.51q9.57,18.63,19.09,37.27c.26.51.47,1,.73,1.61-6.67,1.28-6.89,1.37-9.51-4.69-1.41-3.27-3.22-4.36-6.75-4.19-6.62.33-13.26.2-19.88.06-2.14-.05-3.4.6-4,2.6a10.26,10.26,0,0,1-.62,1.3c-2.79,5.74-2.79,5.74-9.48,5.21-.31-1,.36-1.83.79-2.66q9.33-18.12,18.65-36.25c.74-1.44,1.38-2.84,3.31-2.77Z" transform="translate(-4.33 -173.09)"/><path class="cls-3" d="M92,174q10.18,19.68,20.39,39.35c1,1.84.72,2.28-1.47,2.51-3.51.36-5.8-.63-6.76-4.14-1.2-4.43-4.09-5.62-8.55-5.31-6.11.42-12.27.19-18.4.06-2.07,0-3.48.43-4.13,2.5a8.57,8.57,0,0,1-.62,1.3C69.62,216,69.62,216,63,215.63c-.46-1.06.31-1.79.73-2.61q9.36-18.28,18.74-36.57c.53-1,.85-2.31,2.29-2.56Z" transform="translate(-4.33 -173.09)"/><path class="cls-1" d="M355.1,213c.91,1.86,1,2.76-1.74,2.84-3.31.09-5.53-.65-6.45-4-1.22-4.53-4.11-5.86-8.78-5.46a152.73,152.73,0,0,1-18,.06c-2.45-.08-3.87.65-4.53,3a8.6,8.6,0,0,1-.67,1.27c-2.76,5.52-2.76,5.52-9.7,4.78,7.11-13.91,14.14-27.65,21.18-41.4,6.61-1.42,9.92,1.61,12.62,7.61C343.82,192.37,349.68,202.61,355.1,213Z" transform="translate(-4.33 -173.09)"/><path class="cls-4" d="M228.85,180.16c3.46,6.78,6.65,13,10,19.63H218.71Z" transform="translate(-4.33 -173.09)"/><path class="cls-5" d="M88,180.12c3.54,7,6.73,13.24,10.15,19.95H79.92c-1.26,0-2.23-.07-1.32-1.8C81.68,192.44,84.67,186.56,88,180.12Z" transform="translate(-4.33 -173.09)"/><path class="cls-5" d="M340.84,200H320.5c3.39-6.59,6.62-12.89,10.2-19.84Z" transform="translate(-4.33 -173.09)"/></svg>