<svg id="Layer_1" data-name="Layer 1" xmlns="http://www.w3.org/2000/svg" viewBox="0 0 344.53 87.09"><defs><style>.cls-1{fill:#221e1f;}.cls-2{fill:#242021;}.cls-3{fill:#221d1f;}.cls-4{fill:#231f20;}.cls-5{fill:#262323;}.cls-6{fill:#2b2828;}.cls-7{fill:#292526;}.cls-8{fill:#2b2728;}.cls-9{fill:#2e2b2c;}.cls-10{fill:#494647;}.cls-11{fill:#454243;}.cls-12{fill:#fdfdfd;}</style></defs><title>mosrose</title><path class="cls-1" d="M202.56,237.14c-7.26-2.43-10.87-7.79-11.21-16.79-.58-14.77,3.62-28.51,9.68-41.7,1.82-4,1.69-5.25-2.73-6.56-8-2.36-7.79-2.65-10.75,5a39.06,39.06,0,0,1-15.12,19.12c-2.61,1.73-3.59.51-5-1.3-1.71-2.15-.87-3.23,1.11-4.47a40.72,40.72,0,0,0,15.78-17.88c1.48-3.23,1.77-5.7-1.52-8.48-5-4.23-4.83-7.61-.52-12.65h1.16c.42,4.77,3.72,7.49,7.41,9.56,4.32,2.43,8.91,4.38,13.46,6.38,7.48,3.29,7.5,3.24,4.54,10.57-4.44,11-8.29,22.25-9.83,34.14a43.19,43.19,0,0,0,0,12.59c.73,4.53,2.3,8.48,6.37,11C205.43,238.16,203.88,237.42,202.56,237.14Z" transform="translate(-7.74 -151.46)"/><path class="cls-2" d="M7.74,178c1.94-1.1,1.71-3.25,2.3-5,3.61-10.49,11.36-14.48,22.19-11.32-.53,1.06-1.53,1.21-2.55,1.3-7.49-.35-9.93,1.43-11.86,8.64a52.54,52.54,0,0,0-1.69,13.68q0,21.36,0,42.72c0,8.31,0,8.31-8.42,7.72Z" transform="translate(-7.74 -151.46)"/><path class="cls-3" d="M29.68,163.06c.54-1,1.54-1.18,2.55-1.3,4.46.41,6.24,4,8.34,7.55,2.7-2.87,4.45-6.17,8.11-7.54,9.8-3.68,19.23.56,22.76,10.5A43.88,43.88,0,0,1,73.85,187c0,14.81-.09,29.63.06,44.44,0,3.27-.49,4.71-4.31,4.79-4.13.09-4.1-1.92-4.09-4.9,0-16.54,0-33.08-.06-49.62a37.33,37.33,0,0,0-1.86-11.89c-1.19-3.53-2.92-6.77-7.43-6.95s-7,2.6-8.63,6.35c-1.89,4.31-2.27,8.95-2.33,13.55-.2,15.76-.14,31.54-.27,47.31,0,2.69,1.48,6.15-4,6.16-5.09,0-4.33-2.92-4.32-6,0-15.58.15-31.16-.06-46.74C36.5,176.07,36.52,168.34,29.68,163.06Z" transform="translate(-7.74 -151.46)"/><path class="cls-3" d="M98.9,237.06c-7.64-2.21-10.56-8.39-11.2-15.26a231.76,231.76,0,0,1,0-43.2c1-10.76,8-17.39,17.17-17.76,9.85-.39,17.34,5.46,18.41,15.26a213.35,213.35,0,0,1,0,47.19c-.75,6.62-4.1,12-11.17,13.88-1.56.24-3.36,1.26-4.11-1.22,6.43-6.74,6.38-15.45,6.6-23.8.32-11.91.79-23.87-1-35.74a25.83,25.83,0,0,0-.85-5.12c-1.37-3.7-3.6-6.46-8-6.34s-6,3.05-6.86,6.66a52.69,52.69,0,0,0-1.55,10.26c-.55,11.74-.58,23.49,0,35.22.33,6.78,1.66,13.37,6.46,18.68C102.22,238.35,100.51,237.54,98.9,237.06Z" transform="translate(-7.74 -151.46)"/><path class="cls-1" d="M236.52,237c-8.2-2.38-10.72-9.13-11.38-16.36a209.24,209.24,0,0,1,0-40.89c1.47-14.17,10.58-21,23-18.35,5.65,1.21,9.12,4.76,11.18,9.81a32.7,32.7,0,0,1,2.46,12.38c0,11,.1,21.93,0,32.89-.13,11.21-4.29,18.05-12.2,20.63-1.49.65-2.66.55-3.08-1.31C252.06,228,252.31,219,252.2,210c-.13-11.69.82-23.42-1.08-35.07-.31-1.9-.44-3.83-1.49-5.51-1.59-2.56-3.62-4.55-6.89-4.44s-5.19,2.2-6.55,4.91a16,16,0,0,0-1.38,7.29c-.06,14.78.15,29.56-.11,44.34-.11,5.71,3.13,9.67,5.64,14.12C239.85,238.35,238.15,237.58,236.52,237Z" transform="translate(-7.74 -151.46)"/><path class="cls-1" d="M329.94,237.13c-8.89-2.12-11.72-9.19-12.29-16.86a288.72,288.72,0,0,1,0-42.62c1-14,11.31-20.43,23.79-15.94,8.13,2.93,12.56,13.14,10.25,23.79-2.54,11.75-10.26,18.17-21.74,20-4,.63-5.1,2.15-4.75,5.86.38,4,.28,8.06.54,12.08.37,5.56,2.68,10,8,12.39C333.32,238.73,331.38,237.24,329.94,237.13Z" transform="translate(-7.74 -151.46)"/><path class="cls-4" d="M292,236c8.35-5.9,10.26-15.91,4.9-25.32-3.54-6.23-8.71-11.13-13.29-16.51-4.79-5.61-9-11.51-9.1-19.35-.07-7.38,3-11.39,10-13.1,1.25-.21,2.8-1.06,2.84,1.33-6,5-7.13,11.22-3.42,18.41,2.78,5.4,7.34,9.34,11.37,13.7,5.27,5.68,10.14,11.57,11.57,19.52,2,11.09-3.67,26-19.5,23.42C287.88,235,290.82,237.36,292,236Z" transform="translate(-7.74 -151.46)"/><path class="cls-1" d="M154.51,235.82c7.93-5.78,10.18-14.21,6.29-23.33-2.54-5.94-6.9-10.57-10.94-15.43-4.32-5.19-8.33-10.56-10.07-17.25-2.2-8.52.88-15,8.63-18.08,1.29-.36,2.74-1.06,2.65,1.33-5.58,5.84-6.19,13.15-1,21.05,3,4.65,6.88,8.77,10.43,13.06,5.81,7,10.14,14.62,9,24.13-.86,7.19-3.42,13.44-11.28,15.75C156.74,237.29,154.89,238.74,154.51,235.82Z" transform="translate(-7.74 -151.46)"/><path class="cls-4" d="M154.51,235.82c.89,1.4,2.36,1.1,3.67,1.23-10.3,3.61-19.53.09-23.37-8.93-3.73-8.74.54-20.41,8.77-25,3.3-1.83,3.95.92,5.41,2.36,2.16,2.14,0,2.77-1.37,3.69-3.07,2.08-5.65,4.52-7,8.14C136.57,228.24,143,236.86,154.51,235.82Z" transform="translate(-7.74 -151.46)"/><path class="cls-5" d="M292,236l-4.59,2.1c-10.95-.85-18.57-11.16-15.79-21.49.59-2.21,1.3-4.44,3.81-5.45a3.79,3.79,0,0,1,4.24.81c1.55,1.32.35,2.36-.36,3.45-3.35,5-3.06,10.22-.28,15.24S286.71,236.59,292,236Z" transform="translate(-7.74 -151.46)"/><path class="cls-6" d="M287.42,163c-.65-1.08-1.78-1.12-2.83-1.33,5.45-1.21,10.81-1.58,15.79,1.72a8.89,8.89,0,0,1,4.28,5.83c.4,2.25-.8,3.72-3,4.17-2,.42-3.3-.3-3.47-2.6C297.73,163.94,293.36,162.37,287.42,163Z" transform="translate(-7.74 -151.46)"/><path class="cls-7" d="M202.56,237.14c1.09-.18,2.22-.27,2.85-1.4,7.46.7,8.5,0,10-7.22.39-1.88,1.11-2.84,2.95-2.52,2.18.37,3.42,1.79,3.14,4a7.4,7.4,0,0,1-4.15,5.84C212.62,238.28,207.73,239.42,202.56,237.14Z" transform="translate(-7.74 -151.46)"/><path class="cls-8" d="M151.07,163.06c-.57-1.07-1.64-1.14-2.65-1.33,5.25-2.36,10.1-1.07,14.59,1.91,1.92,1.27,3.52,3.1,3.34,5.68a3.65,3.65,0,0,1-3.66,3.69c-1.89.11-2.68-1-2.6-2.92C160.35,163.58,156.39,162.43,151.07,163.06Z" transform="translate(-7.74 -151.46)"/><path class="cls-9" d="M340.58,235.79c2.74-1.61,5-3.7,5.33-7,.24-2.13,1.09-3.38,3.24-2.8,2.39.65,3.49,2.53,2.61,4.88a9.08,9.08,0,0,1-7.58,6.19C342.74,237.32,340.91,238.73,340.58,235.79Z" transform="translate(-7.74 -151.46)"/><path class="cls-10" d="M340.58,235.79c.79,1.59,2.37.94,3.6,1.25a18.11,18.11,0,0,1-14.24.09c1.24-.46,2.9.26,3.73-1.34Z" transform="translate(-7.74 -151.46)"/><path class="cls-1" d="M246.94,235.72c.51,1.14,1.63,1.14,2.62,1.39a15.82,15.82,0,0,1-13-.11c1.2-.24,2.62.21,3.5-1.07C242.27,233.9,244.58,233.93,246.94,235.72Z" transform="translate(-7.74 -151.46)"/><path class="cls-11" d="M108.32,236c1,1.28,2.53.74,3.77,1.19-4.41,1.68-8.81,2-13.19-.11,1.21-.33,2.69.2,3.58-1.14C104.45,234.16,106.39,234.13,108.32,236Z" transform="translate(-7.74 -151.46)"/><path class="cls-12" d="M108.32,236l-5.84-.06c-5.19-2.49-6.82-7.24-7.07-12.34a475.15,475.15,0,0,1,0-48.92,21.81,21.81,0,0,1,1.28-5.58c1.29-3.87,4-5.88,8.16-6.05,4.45-.17,7.28,1.94,9,5.85,2,4.71,2,9.77,2.06,14.73.08,13,0,26.1-.26,39.14C115.52,228.26,114.26,233.51,108.32,236Z" transform="translate(-7.74 -151.46)"/><path class="cls-12" d="M246.94,235.72l-6.92.21c-4.49-2.43-6.48-6.45-6.74-11.32a494.82,494.82,0,0,1,0-50.66c.23-4.55,1.63-8.86,6.58-10.52,6-2,11.21,1.5,12.55,8.3s1.15,13.75,1.08,20.66c-.11,10.56-.19,21.12-.4,31.67C253,228.91,251.27,233,246.94,235.72Z" transform="translate(-7.74 -151.46)"/><path class="cls-12" d="M325.2,186.14c.12-4.23-.15-9.83,1.12-15.29,1-4.16,2.91-7.56,7.88-7.82,4.8-.26,7.41,2.46,9.1,6.51,5,12-.55,27.52-11.48,32.08-5.55,2.31-6.6,1.62-6.62-4.36Z" transform="translate(-7.74 -151.46)"/></svg>