<svg id="Layer_1" data-name="Layer 1" xmlns="http://www.w3.org/2000/svg" viewBox="0 0 360 390"><defs><style>.cls-1{fill:#fff;}</style></defs><title>MURPHY &amp;amp; NYE</title><rect class="cls-1" width="360" height="390"/><path d="M180,59.5A74.54,74.54,0,1,0,254.54,134,74.55,74.55,0,0,0,180,59.5Zm-51.46,86.32h-5.22l2.3-37.86L115,145.82h-3.77L125.41,90.6H136.7l-2.93,27.61L146.12,90.6h13.59l-14.22,55.22H134.61L144.44,108Zm70.7,31.58H142.35C152,127.62,184.6,73.24,184.6,73.24,218.91,115.28,199.24,177.4,199.24,177.4Zm32-18.19h-5.44l-2.1-38.7-10.24,38.7h-3.76l13.59-53.34h8.57l1.47,30.54,8.16-30.54h3.34ZM44.87,255.08l-11.42,22-1.13-22H17.26L3.87,307.23h7.81l8.66-34.3L22,307.23h5.58l17-34.3-8.39,34.3H47.66l13.11-52.15Zm39.32,0-9.46,36.53s0,6.14-5.86,6.14-2.79-7.25-2.79-7.25L75,255.08H63l-9.19,36.53c-2,8.93-1.71,15.34,10.86,15.62s16.19-9.76,16.19-9.76l10.86-42.39Zm29,0H94.51L80.85,307.23H94L99.83,286h2.51c3.07.28,2.51,4.47,2.51,4.47L102.34,298c-2.51,8.92,3.89,9.2,3.89,9.2h8.64l2.25-8.93c-2.79-.55-.83-5-.83-5l1.67-5.57c1.11-5-2.51-7-2.51-7,8.09-3.34,9.2-13.1,9.2-13.1C127.16,254.8,113.2,255.08,113.2,255.08Zm-3,15.34c-.84,5.85-4.74,6.13-4.74,6.13h-3.07L105.41,264C109,264.28,111,264.65,110.15,270.42Zm49-4.26h0c-.26-6.28-4.46-10.86-13.89-11.07h-15.9l-12.83,52.15h11.72l5-18.41s10,.28,14.78-2.51a20,20,0,0,0,8-8v0a28.12,28.12,0,0,0,2.62-7.3A18.59,18.59,0,0,0,159.16,266.16Zm-14.71,5.37c-1.95,9.2-8.92,7.81-8.92,7.81l3.62-14.78S146.4,262.33,144.45,271.53Z"/><path d="M162,255.08l-13.38,52.15h12.83L167,286h7l-4.47,21.2h12.55l12.55-52.15H182.08l-5,19.52-6.71-.28,4.46-19.24Z"/><path d="M193,255.08,196.87,286,191,307.23h12.82l5.59-21.2,19.24-30.95h-7.81l-12.53,21.47-2-21.47Z"/><path d="M246.24,292.72s5.86-3.9,13.11-20.07h-5.86s-4.75,9.2-10.05,13.38l-3.33-6.69s13.67-8.65,7.25-17.29c0,0-7.81-9.49-19.8-.84,0,0-8.36,9.2-3.07,19.52,0,0-16.17,5.3-13.66,19,0,0,1.67,7.25,12.25,7.53a27.56,27.56,0,0,0,12-6.14l3,6.14h14.78l-.89-1.94Zm-21.19.84c-2.51-4.46,2.49-7.53,2.49-7.53L232.3,295S227.56,298,225.05,293.56Zm12.53-19.24s-4.44-5.58-.54-8.65c0,0,5.3-3.9,4.75,3.35C241.79,269,240.09,274.32,237.58,274.32Z"/><path d="M251.53,307.23l13.38-52.15h15.62l.86,30.4,7.79-30.4h8.36l-13.38,52.15H269.94l-1.66-34.58-8.67,34.58Z"/><path d="M295.54,254.87l3.9,31L293.59,307h12.82L312,285.83l19.24-31h-7.81L310.9,276.34l-2-21.47Z"/><path d="M316,307.23h27.33l2.51-9.2H331.85l3.06-12h8.67l2.51-9.76h-8.65l2.77-11.71H353.9l2.23-9.45-26,0Z"/></svg>