<svg id="Layer_1" data-name="Layer 1" xmlns="http://www.w3.org/2000/svg" viewBox="0 0 334.6 57.56"><defs><style>.cls-1{fill:#181715;}.cls-2{fill:#fefefe;}</style></defs><title>ONLY &amp;amp; SONS</title><path class="cls-1" d="M302.84,197.8v-3.4c0-8.52.05-17,0-25.56,0-1.5.41-1.89,1.83-1.78a35.92,35.92,0,0,0,4.64,0c1,0,1.3.36,1.3,1.35q0,26.63,0,53.25c0,1-.35,1.35-1.34,1.32a50.68,50.68,0,0,0-5.23,0c-1.28.09-1.77-.41-2.14-1.59-3.22-10.33-6.5-20.63-9.76-30.95-.16-.48-.19-1-.7-1.34-.66.56-.35,1.33-.35,2,0,9.94-.05,19.88,0,29.82,0,1.52-.23,2.29-1.95,2.06-1.89-.26-4.45.83-5.53-.47-.93-1.13-.29-3.58-.29-5.44,0-16,0-32,0-48,0-1.63.44-2.2,2-2a16.32,16.32,0,0,0,2.32,0c4.91,0,4.9,0,6.39,4.75q3.9,12.43,7.85,24.86a9.93,9.93,0,0,0,.53,1.2Z" transform="translate(-12.7 -166.22)"/><path class="cls-1" d="M70.72,198c.42-.57.18-1.22.19-1.82,0-9.1,0-18.2,0-27.3,0-1.43.31-1.95,1.8-1.82,1.92.16,4.45-.62,5.62.34s.36,3.63.36,5.54c0,16,0,32,0,48,0,1.56-.31,2.21-2,2a26.63,26.63,0,0,0-4.64,0c-1.29.1-1.75-.44-2.11-1.61-3.15-10.15-6.38-20.27-9.59-30.39-.21-.67-.44-1.33-.71-2.17-.72.69-.44,1.41-.45,2,0,10.07,0,20.14,0,30.21,0,1.49-.3,2.1-1.89,1.94a24.5,24.5,0,0,0-4.45,0c-1.25.09-1.48-.4-1.48-1.54q0-26.43,0-52.86c0-1.13.18-1.61,1.45-1.54a58.28,58.28,0,0,0,6.2,0c1.19-.06,1.64.37,2,1.49,2.95,9.47,6,18.91,9,28.35C70.2,197.29,70.09,197.84,70.72,198Z" transform="translate(-12.7 -166.22)"/><path class="cls-1" d="M41.16,195.17c0,5.09.17,10.2,0,15.28s-2.17,9.71-7.29,11.8c-5.46,2.24-11,2.21-16-1.37-3.71-2.65-4.93-6.74-5-11-.14-9.87-.16-19.74,0-29.61.09-5.2,1.77-9.95,6.9-12.28,5.41-2.45,11-2.37,16.08.9,3.58,2.29,5.08,6,5.26,10.08.22,5.41,0,10.83,0,16.25Z" transform="translate(-12.7 -166.22)"/><path class="cls-1" d="M244.74,194.89c0-5-.12-10.06,0-15.09.16-5.21,2-9.8,7.05-12,5.55-2.38,11.25-2.31,16.37,1.36,3.38,2.43,4.75,6.17,4.82,10.14.17,10.44.26,20.9,0,31.34-.21,8.34-6.31,13.4-14.85,12.95-8.31-.44-13.07-5.11-13.38-13.45C244.59,205.09,244.74,200,244.74,194.89Z" transform="translate(-12.7 -166.22)"/><path class="cls-1" d="M329,208.42a36.64,36.64,0,0,0,0,4.06c.26,2.37,1.85,3.62,4.42,3.67s4-1.06,4.41-3.41c.67-4.14.06-7.87-3.24-11a145.64,145.64,0,0,1-10.32-10.47c-4.36-5-4.76-10.86-3.32-16.94.93-3.87,3.69-6.26,7.54-7.3a20,20,0,0,1,10.5,0c4.28,1.13,6.6,4,7.35,8.3a43.51,43.51,0,0,1,.35,7c0,.93-.3,1.23-1.22,1.21-2.07-.06-4.13-.06-6.2,0-.85,0-1.13-.27-1.1-1.11.05-1.42.06-2.84,0-4.26-.13-2.82-1.65-4.28-4.39-4.32s-4.5,1.45-4.76,4.23a9.19,9.19,0,0,0,3,7.8c3.28,3.2,6.43,6.54,9.76,9.68,5.32,5,6.14,11.29,5.17,18-.83,5.67-4.43,9-10.13,9.85a20.33,20.33,0,0,1-7.88-.28c-4.86-1.21-7.72-4.19-8.51-9.12-.5-3.14-.14-6.31-.26-9.47,0-.84.39-.95,1.06-.94,2.2,0,4.39,0,6.58,0,.89,0,1.1.36,1.06,1.16-.05,1.23,0,2.45,0,3.68Z" transform="translate(-12.7 -166.22)"/><path class="cls-1" d="M208,208.85c.1-1.71-.83-4,.31-5,1-.84,3.19-.26,4.86-.27,3.4,0,3.4,0,3.4,3.42,0,1.61,0,3.23,0,4.84a4,4,0,0,0,4.07,4.27c2.79.2,4.44-.92,4.89-3.54.7-4,0-7.66-3.12-10.63s-5.82-5.87-8.8-8.73c-5.12-4.92-6.54-10.92-5.28-17.7.9-4.87,4-7.65,8.71-8.7a20.69,20.69,0,0,1,9,.06c5.2,1.16,8,5,8.27,11.14.05,1.36,0,2.72,0,4.07.06,1.05-.2,1.5-1.36,1.44-2-.09-4-.06-6,0-.92,0-1.25-.27-1.21-1.21.06-1.48.06-3,0-4.45a3.92,3.92,0,0,0-3.88-4c-2.7-.21-4.49.88-5,3.18a8.38,8.38,0,0,0,2.25,8.2c2.31,2.35,4.68,4.64,7,7,1.23,1.24,2.4,2.54,3.65,3.75,5.34,5.13,5.88,11.55,4.71,18.28-.91,5.26-4.62,8.46-10.11,9.19a20.76,20.76,0,0,1-7.69-.29c-5.25-1.27-8.33-4.83-8.68-10.22C207.93,211.56,208,210.2,208,208.85Z" transform="translate(-12.7 -166.22)"/><path class="cls-1" d="M111.19,167.09c3,0,5.82.06,8.59,0,1.24,0,1.27.8,1.48,1.59q2.37,8.78,4.74,17.54a2.69,2.69,0,0,0,.84,1.76c.83-3,1.63-5.88,2.41-8.75,1-3.54,1.95-7.08,2.83-10.64.28-1.16.78-1.57,2-1.51a45.65,45.65,0,0,0,5.61,0c1.54-.11,1.66.43,1.26,1.72-2.37,7.7-4.69,15.4-7,23.11-.58,1.91-1.12,3.83-1.75,5.72a23.21,23.21,0,0,0-1.22,8.15c.11,5.23,0,10.46,0,15.69,0,1.14-.22,1.61-1.47,1.55-2.13-.11-4.27-.1-6.39,0-1.21.05-1.52-.36-1.51-1.53.06-5.23-.06-10.46.06-15.69a25.62,25.62,0,0,0-1.26-8.34c-2.94-9.47-5.82-19-8.71-28.45C111.53,168.45,111.4,167.89,111.19,167.09Z" transform="translate(-12.7 -166.22)"/><path class="cls-1" d="M179.42,219.21c-.34-.07-.44.19-.55.41-1.92,3.59-5.16,4.3-8.76,3.75a8,8,0,0,1-7-6.64,39.12,39.12,0,0,1-.24-12.91c.34-2.92,1.24-3.74,5-5.83-4.1-1.76-4.68-5.19-4.55-9,.08-2.51-.13-5,.8-7.45a7.88,7.88,0,0,1,5.06-5,14.93,14.93,0,0,1,10.23.23c3.76,1.45,4.68,4.75,4.93,8.29.35,5.08.29,5-4.78,5.12-1.75.05-2.45-.38-2.21-2.19a10.38,10.38,0,0,0-.07-2.89,3,3,0,0,0-3.26-2.89,3,3,0,0,0-3.25,2.88,29.47,29.47,0,0,0-.1,7c.19,2.23,1.62,3.35,4.17,3.4q5.33.08,10.65,0c1.13,0,1.68.19,1.53,1.46a18.72,18.72,0,0,0,0,2.9c0,.85,0,1.5-1.16,1.49s-.7,1-.71,1.62c0,5.94-.12,11.88,0,17.81,0,2-.57,2.36-2.37,2.27-3-.15-3,0-3.15-3.15C179.67,219.62,179.72,219.34,179.42,219.21Z" transform="translate(-12.7 -166.22)"/><path class="cls-1" d="M88.78,195c0-8.72,0-17.44,0-26.15,0-1.3.26-1.85,1.68-1.76a48,48,0,0,0,6,0c1.41-.1,1.67.4,1.67,1.72,0,14.85,0,29.69-.07,44.54,0,1.66.33,2.28,2.1,2.17,2.64-.16,5.29,0,7.94-.06,1,0,1.36.31,1.31,1.33-.1,2,.62,4.53-.35,5.82s-3.62.34-5.54.37c-4.19.06-8.39-.06-12.58.06-1.65,0-2.2-.3-2.18-2.09C88.84,212.27,88.78,203.62,88.78,195Z" transform="translate(-12.7 -166.22)"/><path class="cls-2" d="M32,195c0,4.77,0,9.54,0,14.32a9.68,9.68,0,0,1-.52,3.61,4.4,4.4,0,0,1-4.7,2.95,4.3,4.3,0,0,1-4.31-3.21,9.62,9.62,0,0,1-.37-3.06q0-14.61,0-29.22a11.86,11.86,0,0,1,.16-2.31,4.45,4.45,0,0,1,4.9-4,4.45,4.45,0,0,1,4.62,4.06,18.43,18.43,0,0,1,.21,2.88C32,185.72,32,190.36,32,195Z" transform="translate(-12.7 -166.22)"/><path class="cls-2" d="M263.86,195.06c0,5.16.06,10.32,0,15.48-.06,3.65-2.13,5.65-5.34,5.44a4.43,4.43,0,0,1-4.36-3.91,21.09,21.09,0,0,1-.25-3.27q0-13.85,0-27.68a19.78,19.78,0,0,1,.24-3.08,4.43,4.43,0,0,1,4.47-4,4.52,4.52,0,0,1,4.9,3.24,9.06,9.06,0,0,1,.37,3.06v14.71Z" transform="translate(-12.7 -166.22)"/><path class="cls-2" d="M177.82,207.79c0,2,.11,4,0,6-.17,2.3-1.6,3.45-3.86,3.4a3.28,3.28,0,0,1-3.47-3.56q-.12-4.55,0-9.09c0-2.05,1.07-3.05,3.08-3.23,4.4-.39,4.4-.39,4.4,4v2.52Z" transform="translate(-12.7 -166.22)"/></svg>