<svg id="Layer_1" data-name="Layer 1" xmlns="http://www.w3.org/2000/svg" viewBox="0 0 343.56 48.03"><title>papermoon</title><path d="M88.15,219c-.07-10.12-.41-20.25-.13-30.37a18.2,18.2,0,0,1,14-17.12A18.84,18.84,0,0,1,123,180.33a18,18,0,0,1-2.1,21.06c-5.62,6.52-14,8.54-22,4.67-4-1.95-5.12-1.3-4.89,3,.17,3.3-.16,6.62-.27,9.92Zm18.27-16.88A12.36,12.36,0,0,0,119,189.57a12.5,12.5,0,0,0-25-.29C94,196.53,99.39,202.09,106.42,202.13Z" transform="translate(-8.22 -170.99)"/><path d="M8.51,219c-.09-10.84-.47-21.69-.18-32.52.2-7.43,6.85-13.88,14.55-15.16,8.84-1.47,17.12,2.7,20.6,10.38a18.23,18.23,0,0,1-5.16,21.93c-6.18,4.82-13,6-20.12,2.31-3.43-1.8-4.16-.72-4.08,2.58.08,3.49,0,7-.08,10.48Zm5.64-29.4c0,7.3,5.33,12.65,12.43,12.5,6.61-.14,12.38-5.82,12.5-12.3a12.47,12.47,0,0,0-12.53-12.67C19.23,177.12,14.14,182.23,14.15,189.61Z" transform="translate(-8.22 -170.99)"/><path d="M236.69,193.6c0,3.5,0,7,0,10.5,0,1.69-.14,3.49-2.41,3.66-2.57.19-3.11-1.72-3.16-3.62-.16-5.34-.08-10.68-.19-16-.13-6.53-2.49-9.62-7.29-9.72-5.38-.12-8.16,3.21-8.25,10-.06,4.42.1,8.85-.06,13.26-.09,2.56.87,6.32-3.42,6.17s-3-3.93-3.11-6.45c-.19-4.6,0-9.21-.11-13.81-.17-6-3-9.08-8-9.17-4.84-.08-7.89,3.19-8.13,9.18-.21,5.33-.07,10.68-.11,16,0,2.12-.21,4.29-3.07,4.24s-3-2.27-3-4.37c0-5.71-.18-11.43,0-17.13.22-5.47,2.41-10.13,7.57-12.59s10.46-2.22,15,1.58c1.86,1.55,3.13,1.86,5.2.25,4.92-3.82,10.41-4.59,16-1.61s7,8.15,6.49,14.09c-.15,1.83,0,3.69,0,5.53Z" transform="translate(-8.22 -170.99)"/><path d="M149.93,191.76c-3.68,0-7.37.06-11.05,0-4-.09-4.32,1.8-2.86,4.88,3.2,6.73,13.39,8,18.89,2.38,1.15-1.18,2-2.69,3.33-3.64a4,4,0,0,1,4.71-.17c1.88,1.33.56,3-.14,4.41-3.77,7.62-13.46,11.15-22.41,8.2-8.27-2.72-14-12.79-12.41-21.71,1.86-10.24,8.46-15.21,19.9-15,9.07.18,15.51,6.28,17,15.79.5,3.28-.29,4.95-3.86,4.85s-7.37,0-11.06,0Zm-3.49-5.92v0c2.92,0,5.85.06,8.76,0s3-1.44,1.72-3.57c-3.65-6.28-16-6.64-20-.56-1.6,2.4-1.72,4.13,1.88,4.16C141.33,185.85,143.89,185.84,146.44,185.84Z" transform="translate(-8.22 -170.99)"/><path d="M297.27,171.41c9.31,0,15.69,4.75,18.16,13,2.33,7.82-.73,17-7,21.1s-17.58,3.56-22.93-1c-1.19-1-3.27-2.17-2.49-3.86,1-2.18,2.86-.32,4.3,0,5,1.25,9.45.82,13.09-3.3,3.22-3.65,3.29-7.55,1.37-11.77-2.3-5.1-7.71-6.89-14.08-4.62-1.64.59-3.63,2.46-5,.53-1.52-2.21.53-4.16,2-5.7A15.33,15.33,0,0,1,297.27,171.41Z" transform="translate(-8.22 -170.99)"/><path d="M243.78,200c3,.45,5.83,1.08,8.68,1.27,5,.34,8.49-2.28,10.6-6.54,2-4.05,1-8-1.84-11.31-3.09-3.56-7.07-4.2-11.59-2.79-1.87.58-4.43,3.13-5.79.48s1.37-4.7,3.36-6.3c5.17-4.15,16.47-4.7,21.48-1.18a19.82,19.82,0,0,1,7.45,22.48c-2.32,7.58-8.67,12.08-17.09,12.11S245.78,205.7,243.78,200Z" transform="translate(-8.22 -170.99)"/><path d="M84.75,196.25c0,2.94.07,5.89,0,8.83a2.58,2.58,0,0,1-2.3,2.69c-1.14.18-2.67.1-2.9-1-1-4.74-3.13-1.73-4.88-.87-8.55,4.22-17.82,2-23.69-5.64-5.09-6.64-4.69-16.37.94-23s16-8.26,23.74-3.75c5.87,3.44,8.61,8.91,9.2,15.52.21,2.38,0,4.79,0,7.19ZM66.41,177.14a12.49,12.49,0,1,0-.18,25C73.05,202,79,196,78.87,189.34A12.4,12.4,0,0,0,66.41,177.14Z" transform="translate(-8.22 -170.99)"/><path d="M320.09,194.14c0-2,0-4,0-6.06.08-10,5.44-15.66,15-15.79,9.91-.13,16.41,6,16.59,15.86.1,5.32,0,10.65,0,16,0,2-.53,3.75-3,3.74s-3-1.71-3.05-3.74c-.05-4.59,0-9.19-.11-13.78-.11-3.75-.84-7.4-4.1-9.81-6.32-4.68-14.43-.77-15.16,7.5-.46,5.11-.15,10.28-.25,15.43,0,2.07-.15,4.33-3,4.36s-2.92-2.24-2.95-4.31c0-3.13,0-6.25,0-9.38Z" transform="translate(-8.22 -170.99)"/><path d="M167.5,189.46c0-4.59,0-9.19,0-13.78,0-3.34,1.61-5.3,4.75-3.27,2.63,1.71,4.08-.34,6-.75s3.8-1,4.61,1.44c.68,2.06-.17,3.57-2.25,4.33-5.59,2-7,6.45-7,11.84.06,4.59,0,9.18,0,13.77,0,2.27-.07,4.7-3.27,4.6-2.86-.09-2.87-2.35-2.88-4.41C167.47,198.64,167.5,194.05,167.5,189.46Z" transform="translate(-8.22 -170.99)"/></svg>