<svg id="Layer_1" data-name="Layer 1" xmlns="http://www.w3.org/2000/svg" viewBox="0 0 334.76 168.76"><defs><style>.cls-1{fill:#232021;}.cls-2{fill:#252122;}.cls-3{fill:#242021;}.cls-4{fill:#242122;}.cls-5{fill:#221f20;}.cls-6{fill:#242022;}.cls-7{fill:#141011;}.cls-8{fill:#383536;}.cls-9{fill:#292627;}.cls-10{fill:#0b0a0a;}.cls-11{fill:#0c0a0b;}.cls-12{fill:#080405;}.cls-13{fill:#0c0a0a;}.cls-14{fill:#0b0708;}.cls-15{fill:#080707;}.cls-16{fill:#f9f9f9;}.cls-17{fill:#faf9f9;}.cls-18{fill:#f3f3f3;}.cls-19{fill:#e5e4e4;}.cls-20{fill:#e6e6e6;}.cls-21{fill:#080607;}</style></defs><title>pierrecardin</title><path class="cls-1" d="M193.34,111c16.12-.29,28,14.08,25.93,31.41-2,16.57-16,28.46-31.56,26.68-9.78-1.12-15.91-9-13.64-17.59.83-3.1,2.56-5.41,5.66-6.45,4.23-1.41,8.28.06,9.33,3.28.93,2.85-.85,5-5.49,6.74,3.61,3.41,7.34,3.47,11.05.17a10.29,10.29,0,0,0,1.11-13.58c-3.89-5.13-13.69-6.68-21.21-3.35-10,4.44-15.36,16-12.79,27.63,3,13.69,13.2,20.73,24.86,26,8.51,3.82,17.52,6.32,27.06,6.08.93,0,2-.31,2.76.63-.07,2-1.58,1.33-2.56,1.33-23.65,0-47.31,0-71,0-2.27,0-3.67-.09-3.64-3.06.17-17.32.15-34.63.19-51.95.94-9.61.39-19.25.32-28.87,0-3.82,1.08-4.73,4.78-4.68,14.63.21,29.27.1,43.91.07C190.08,111.41,191.78,111.84,193.34,111Z" transform="translate(-12.62 -110.62)"/><path class="cls-2" d="M20.86,266.22c0,3.11-.29,5.63.06,8.06.64,4.35-1.17,5.38-5.19,5-2.44-.21-3.08-1-3.06-3.27.09-10.82,0-21.64.08-32.46,0-1.32-.79-3.45,1.49-3.57,2-.09,4.91-1.2,5.91.78s1,1.47,2.38.58c7.3-4.69,15.61-1.93,18.7,6.11a20.09,20.09,0,0,1,.75,11.8C39.63,269.61,30.09,272.93,20.86,266.22Z" transform="translate(-12.62 -110.62)"/><path class="cls-3" d="M291.18,242.53c0-3.8.23-7.15-.06-10.45s1.55-3.33,3.92-3.24,4.45-.46,4.35,3.38c-.28,11-.05,22-.15,33,0,1.27,1.13,3.49-1.11,3.72s-5.35,1.51-6.34-.79c-1.24-2.84-1.81-.56-2.49-.16-7,4.19-14.9,1.67-18.2-5.84a19.07,19.07,0,0,1-.56-14.14C273.52,239.1,282.11,236.69,291.18,242.53Z" transform="translate(-12.62 -110.62)"/><path class="cls-4" d="M216.67,249c.4-5.21,3.19-7.88,7.59-9.13a23.72,23.72,0,0,1,10.4-.46c6.33,1,8.5,3.59,8.54,10.11,0,4.84.13,9.68-.06,14.5-.07,1.65,1.58,4-.48,4.82-1.85.71-5.11.9-6.2-.21-1.93-2-2.85-.61-4.29,0a15,15,0,0,1-9.77.93c-4.42-1.12-6.91-4-6.81-8.61.09-4.37,2.55-7.12,6.8-8.08,2.42-.55,4.94-.7,7.38-1.18,2.06-.41,4.55-.34,5.19-3.05a2.81,2.81,0,0,0-1.67-3.31c-2.38-1-5.68-1.66-6.94.54C223.81,250.32,220.2,248.48,216.67,249Z" transform="translate(-12.62 -110.62)"/><path class="cls-1" d="M88.28,260.19c-1.89,8.92-11.36,10.94-17.51,9.26-7.76-2.12-12-9.62-10.3-18.46a14.67,14.67,0,0,1,16-11.83c7.18.61,12.81,7.23,12.84,14.76,0,2.33-1,2.75-3,2.72-5.15-.09-10.3.05-15.44,0-3-.06-2.9,1.34-2,3.4,1.72,3.86,7.28,5.48,10.49,2.34C82.19,259.67,84.92,259.87,88.28,260.19Z" transform="translate(-12.62 -110.62)"/><path class="cls-1" d="M143.26,256.66c1.07,7.15,6.62,9.66,11.87,5,2.63-2.33,5.16-1.44,7.88-1.54-1.81,7.17-7.52,10.75-15.38,9.71-7.64-1-12.44-6.67-12.56-14.82-.11-8.49,5-14.75,12.78-15.76,7.66-1,13.35,3,15.37,10.72-.24,5.92-.25,5.77-6.19,6C152.44,256.14,147.78,255.06,143.26,256.66Z" transform="translate(-12.62 -110.62)"/><path class="cls-3" d="M321.34,240c2.2.67,5.78-2.64,6.56,2.39.11.65,1.3-.39,1.91-.87a11.43,11.43,0,0,1,13.1-1.18c4.09,2.13,4.46,6.26,4.4,10.41-.06,4.66-.18,9.33.05,14,.15,3-.35,4.34-3.91,4.39-3.81.06-4.35-1.4-4.17-4.62.24-4.31,0-8.65,0-13,0-3.41-1.32-6.06-5-6.12s-5.81,2.22-5.93,6c-.13,4-.1,8-.11,12,0,6.34-1.45,7.2-7.86,4.6,1.13-6.85.17-13.76.52-20.63C321,244.85,320.35,242.37,321.34,240Z" transform="translate(-12.62 -110.62)"/><path class="cls-4" d="M199.53,239.13c4,.07,8.39,1.4,11.14,5.78.9,1.43,2.63,4,1.11,4.78-2.05,1.14-5.28,1.56-7.38-.4-4.91-4.58-7.54-5.15-10.46-1.69-3.16,3.75-2.5,12.56,1.14,15.17a5.8,5.8,0,0,0,8.82-2.47c1.87-4.23,5.09-2.12,7.66-2.15,1.56,0,.57,1.85.27,2.83-2.8,9.24-16,12.14-23.52,5.19-4.48-4.13-5.87-11.7-3.32-18.07C187.33,242.25,192.05,239.15,199.53,239.13Z" transform="translate(-12.62 -110.62)"/><path class="cls-2" d="M257,244.63c2.85-3,4.91-4.95,7.85-5.34,1.61-.21,3.88-.64,3.37,2-.37,1.86,2.35,5.19-2.38,5.53-5.87.42-7.88,2.65-8.25,8.45a45.56,45.56,0,0,0,0,9c.61,4.45-1.34,5.22-5.24,5-2.55-.17-3-1.11-2.94-3.31.1-7.32,0-14.64.07-22,0-1.78-.91-4.45,2.58-4C254.46,240.27,258.57,238,257,244.63Z" transform="translate(-12.62 -110.62)"/><path class="cls-4" d="M94.38,268.64c-1.55-8.86-.38-17.78-.62-26.67-.09-3.53,2.91-1.61,4.52-2,3.37-.81,3.31,1.53,3.09,4.09a41,41,0,0,1,5.13-3.86c1.68-.9,4-2.1,5.54-.54,1.42,1.41.49,3.81.48,5.77s-1.5,1.22-2.56,1.33c-5.65.55-7.48,2.46-8,8.12-.42,4.58.62,9.23-.66,13.76-1-4.17-.09-8.36-.46-11.82-.07,1.84.11,4.44,0,7-.12,1.89,1,4.45-2.64,4.64s-3.36-2.14-3.3-4.48c.13-4.74-.27-9.5.1-14.24-.14,4.58-.12,9.16-.13,13.74C94.64,265.2,95.28,267,94.38,268.64Z" transform="translate(-12.62 -110.62)"/><path class="cls-1" d="M116.37,268.71c-1.87-5.61-.43-11.38-.82-17.07-.18-2.65,0-5.32,0-8,0-2.06-.28-3.85,2.93-3.8,4.41.08,4.42-.19,5.07,3.9a46.61,46.61,0,0,1,4.7-3.51c1.57-.91,3.55-1.78,5.23-.87,2,1.06.69,3.3,1,5,.33,2-.76,2.29-2.6,2.45-5.73.47-7.85,2.75-8.14,8.54-.17,3.66-.2,7.33,0,11,.13,2.77-1.17,3.09-3.34,2.5-2.4-.31-3.73-1.28-3.52-4.1.27-3.79.06-7.61.06-11.42,0-3.52,0-7,0-11.39C116.59,251.43,117.38,260.07,116.37,268.71Z" transform="translate(-12.62 -110.62)"/><path class="cls-5" d="M55.39,254.91c0,3.82-.18,7.65,0,11.45s-2.53,2.54-4.35,2.7-3.93.58-3.85-2.72c.2-8,.15-15.93,0-23.9,0-3.5,2.37-2.45,4.11-2.46s4.21-1,4.09,2.49c-.14,4.14,0,8.3,0,12.44Z" transform="translate(-12.62 -110.62)"/><path class="cls-6" d="M306.37,268.71c-1.78-9-1-18-.4-27,.23-3.54,4.73-1.94,7.47-.84-1.34,5.85-.23,11.79-.62,17.68-.22,3.43.58,6.91-.46,10.31h-5c-1.07-8.8-.18-17.59-.45-24.6C306.28,251.19,307.52,260,306.37,268.71Z" transform="translate(-12.62 -110.62)"/><path class="cls-7" d="M193.34,111c-1.48,1.6-3.43.94-5.17,1-14.26,0-28.53.14-42.78-.06-3.81,0-5.3.88-5.13,5,.32,7.78.12,15.58.06,23.38,0,1.59.53,3.35-.88,4.71-.09-10.5-.13-21-.34-31.48,0-2.22.6-2.82,2.77-2.8C159,110.79,176.18,110.85,193.34,111Z" transform="translate(-12.62 -110.62)"/><path class="cls-8" d="M309.66,228.91c2.75-.41,4.41-.22,4.37,3.33s-1.86,3.44-4.36,3.47-4.25-.22-4.27-3.64C305.37,228.34,307.42,228.61,309.66,228.91Z" transform="translate(-12.62 -110.62)"/><path class="cls-9" d="M51.55,228.92c2.39-.34,3.87-.2,4,3.09.18,4.1-2.16,3.49-4.66,3.66-2.75.18-3.61-.69-3.73-3.56C47,228.27,49.22,228.74,51.55,228.92Z" transform="translate(-12.62 -110.62)"/><path class="cls-10" d="M143.26,256.66c-.61-1.86.6-1.75,1.82-1.74,3.6,0,7.24-.29,10.8.08,4.12.44,6.86-.49,7.34-5,1.58,6.57,1.58,6.56-5,6.59Z" transform="translate(-12.62 -110.62)"/><path class="cls-11" d="M116.37,268.71V242h1c0,7.13.16,14.26-.07,21.39-.09,2.68.68,4.38,3,5.44Z" transform="translate(-12.62 -110.62)"/><path class="cls-12" d="M312.36,268.87c0-7.8,0-15.59,0-23.39,0-1.58-.57-3.37,1.07-4.6q.13,13.31.28,26.59C313.73,268.48,313.47,269,312.36,268.87Z" transform="translate(-12.62 -110.62)"/><path class="cls-13" d="M321.34,240c0,7.77,0,15.54,0,23.3,0,1.58.6,3.35-1,4.64q-.09-13.11-.19-26.23C320.16,240.86,320.16,240,321.34,240Z" transform="translate(-12.62 -110.62)"/><path class="cls-14" d="M306.37,268.71V242h1v26.87Z" transform="translate(-12.62 -110.62)"/><path class="cls-15" d="M94.38,268.64l.31-4.72h.62c.09,1.94-.33,4.25,2.85,4,2.87-.25,2.11-2.47,2.16-4.13.09-2.93,0-5.87,1-8.8v13.68A13.25,13.25,0,0,1,94.38,268.64Z" transform="translate(-12.62 -110.62)"/><path class="cls-16" d="M34.33,255c-.1,5.7-2.81,9.05-7.14,8.81s-6.78-3.9-6.66-9.41,2.87-9.24,7-9.17C31.77,245.29,34.44,249.1,34.33,255Z" transform="translate(-12.62 -110.62)"/><path class="cls-17" d="M291.42,254.42c.06,5.76-2.43,9.33-6.56,9.41-4.28.08-7.27-3.83-7.24-9.48s2.78-9.12,7-9.16S291.37,248.72,291.42,254.42Z" transform="translate(-12.62 -110.62)"/><path class="cls-18" d="M235.13,257.77c-.26,4.42-2.42,6.68-6.56,6.7-2.44,0-5.2-.77-4.75-3.68.85-5.41,6-3.93,9.49-5C235.83,255,234.74,257.12,235.13,257.77Z" transform="translate(-12.62 -110.62)"/><path class="cls-19" d="M74.9,251.68c-2.13-.9-5.89,1.37-6.2-1.64-.34-3.2,3-4.9,6.27-4.86s6,1.95,5.67,4.92S76.79,250.67,74.9,251.68Z" transform="translate(-12.62 -110.62)"/><path class="cls-20" d="M149,251.79c-1.69-1.43-5.39,1.59-5.38-2.09,0-3.08,3.12-4.58,6.2-4.51,2.88.06,5.9,1.64,5.59,4.51C154.93,253.84,151,250.24,149,251.79Z" transform="translate(-12.62 -110.62)"/><path class="cls-21" d="M95.31,263.92h-.62V249.16l.62,0Z" transform="translate(-12.62 -110.62)"/></svg>