<svg id="Layer_1" data-name="Layer 1" xmlns="http://www.w3.org/2000/svg" viewBox="0 0 351.71 149.67"><defs><style>.cls-1{fill:#010101;}.cls-2{fill:#020202;}.cls-3{fill:#030303;}.cls-4{fill:#060606;}.cls-5{fill:#040404;}.cls-6{fill:#050505;}.cls-7{fill:#070707;}.cls-8{fill:#0c0c0c;}.cls-9{fill:#0b0b0b;}.cls-10{fill:#575757;}.cls-11{fill:#fdfdfd;}.cls-12{fill:#fefefe;}.cls-13{fill:#f0f0f0;}.cls-14{fill:#fbfbfb;}.cls-15{fill:#dedede;}</style></defs><title>rinascimento</title><path d="M235.16,192.61c-1.81-5.11-5-6-9-2.43-1.89,1.64-3.32,3.74-5.46,5.11a7.84,7.84,0,0,1-9.13,0c-.92-.61-1.69-2-3-.73-.69.67-.36,1.36,1.25,3a6.57,6.57,0,0,1-4.63-10.4,24.48,24.48,0,0,1,2.14-2.43,3.07,3.07,0,0,0,.56-3.61,3.18,3.18,0,0,0-3.21-1.78,10.36,10.36,0,0,0-4.29,1.41c-5.57,2.63-11.37.61-14.3-4.9-.57-1.06-.56-2.74-2.31-2.79-.94,0-1.26.77-1.35,1.56-.19,1.72-.75,4,1.14,4.69,3.28,1.12,3.56,3.57,4.12,6.3.78,3.81,3.37,6.45,6.5,8.63,4.23,2.93,9.06,4.64,13.7,6.74,5.55,2.51,9,6.54,10.15,12.61.33,1.83,0,2.47-2,2.45-8.15-.1-16.3,0-24.45,0a2.7,2.7,0,0,1-2.73-1.22c-3.37-5.37-8-9.68-12.15-14.42-4.54-5.23-8.23-10.84-6-18.26a32.65,32.65,0,0,1,2.85-5.82c1.83-3.35,2-6.45-.52-9.67s-2.25-7.09-1-10.86c1.8-5.28,1-4.69-2.08-8.88-2.43-3.33-5.47-6.46-7.12-10.37-.4-.95-.57-2-1.7-2.06-4.84-.41-9.72-1.32-14.05,2.12-5.63,4.5-7.36,9.74-5.3,16.72a4.78,4.78,0,0,0,1.23,2.25,7.54,7.54,0,0,1,2.33,6.19,9.69,9.69,0,0,0,3.11,7.57,21.08,21.08,0,0,1,3.66,4.55c3.87,6.85,4.41,7.17,12,5.78-2.53,3.75-5.36,4.26-10.23,1.65-.33,3.7-.62,7.36-4.09,9.65-.91.61-.51,1.37.52,1.5,1.18.14,2.39,0,3.58.18,3.87.42,6.3,3.06,6.68,7.17.62,6.67,1.75,7.56,8.35,6.57a4.28,4.28,0,0,1,1,.06c-3.49,3.53-10.28,3-13.25-1.4-2-3-4.67-3.94-8-4.09-4.06-.19-8,.7-12,1.27-7.07,1-11.27-1.82-11.75-7.82-.4-5.09,2.9-8.8,8-9a6.84,6.84,0,0,1,1.63,0c2.8.53,4.51-.06,4.21-3.46a4.16,4.16,0,0,1,1.08-3c2.48-2.39,1.93-4.4-.08-6.77a8.86,8.86,0,0,1-1.63-8,2.89,2.89,0,0,0-1.46-3.71c-4.56-3-5-4.6-2.43-9.32.56-1.06.13-1.53-.27-2.28-1.64-3.16-1.27-5.38,1.61-7.31a8.21,8.21,0,0,0,3.76-5.38c.61-2.81,2.76-4.39,5.43-5.08a13.65,13.65,0,0,0,5.58-3.12,15.87,15.87,0,0,1,17.36-2.74c7,2.93,13.1,2.33,19-2.84,4.44-3.91,10.6-2.37,13.85,3,1.49,2.44,2.72,5.16,6.78,3.32-1.41,2.5-3.16,2.7-5.21,2.13s-2.54.1-1.86,2.1c1.16,3.47,3.75,5.4,7.49,4.74,4.19-.74,7.23.54,9.36,4.14s5.21,3.36,8.72,2.46a5.93,5.93,0,0,1-9.4.68c-3-3.45-6.42-4.62-10.87-4.55-4.1.06-6.69-2.77-8.34-6.33-1.43-3.12-3.26-5.89-7-5.86a10.66,10.66,0,0,0-9.33,5.62c-1.8,3-1,5.41,2.1,7,2.72,1.36,5.46,1,8.25.26,4.9-1.27,6.64-.05,7.23,4.9.45,3.76,1.39,4.46,4.82,3,4.08-1.78,7.43-1.07,10.13,2.38a6.26,6.26,0,0,0,6,2.4c2.16-.19,4.35-.13,6.52-.17s3.67,1,4.84,3.49c-4.79-1.74-9-.71-13.25.54a8.83,8.83,0,0,1-9.27-2.37c-1.34-1.3-2.76-2.51-4.77-2.5-2.43,0-4.38.85-4.64,3.53a4.2,4.2,0,0,0,3.28,4.91c2.56.73,5-.13,7.37-.66,5.59-1.24,10.77.89,11.43,7.57.48,4.86,3,5.94,8.88,4.7a4.84,4.84,0,0,1-7.46,1.59c-1.85-1.39-2.59-3.43-3.32-5.48-1.94-5.51-5.46-7.39-11.14-5.92-1.36.35-2.67.93-4.05,1.17-4.57.79-6.52-.25-8.67-4.41l-.9-1.73c-1.08-2.06-2.56-4-5.07-2.82s-2,3.67-1.47,5.77c1,3.65,4.65,5.56,10,5.48a36.88,36.88,0,0,1,4.21.09,4.37,4.37,0,0,1,4.36,4.05c.35,2.64,1.8,3.44,4.34,2.93,5.62-1.11,6.69-.25,7.64,5.59a15.74,15.74,0,0,0,1.22,3.68c.48,1.12,1.16,2.15,1.93,3.54-1.9-.33-2.69-1.55-3.67-2.47a2.71,2.71,0,0,0-3.27-.68,2.83,2.83,0,0,0-1.51,2.7,6.94,6.94,0,0,0,3.42,6.27c2.23,1.32,4.24.42,6-1,1.51-1.23,2.71-2.83,4.25-4,3.74-2.84,7.46-1.61,9.24,2.9C235.89,190.88,236.84,192.09,235.16,192.61Z" transform="translate(-4.14 -120.16)"/><path class="cls-1" d="M228.41,219.5c-2.81,3.7-2.12,24.1,1,27.86-3.3.69-6.43.19-10.47.35,3.47-2.76,3.34-5.87,3.28-9a89.49,89.49,0,0,0-.69-12.67c-3,5.91-6.08,11.82-9.17,17.71-.69,1.32-1.08,3.62-2.38,3.61-1.69,0-1.79-2.4-2.47-3.79-2.87-5.88-5.61-11.83-8.93-17.62,0,6.36,0,12.71,0,19.07,0,.95.85,2.67-1.31,2.58s-1.19-1.76-1.2-2.72c-.08-6.19-.05-12.38,0-18.57,0-2.36.3-4.77-2.23-6.38,5.29-1.59,6.55-1.11,8.7,3l8.74,16.87c1.41-.63,1.56-2,2.11-3.1,2.4-4.61,4.72-9.27,7.05-13.93C222.56,218.42,223,218.2,228.41,219.5Z" transform="translate(-4.14 -120.16)"/><path class="cls-2" d="M25.43,233.29c6.3,2.69,5.45,9.84,9.58,13.93-6.49,1.06-6.48,1.05-8.42-4.54a41.54,41.54,0,0,0-2-5.14c-1.93-3.76-9-6.13-12.6-4.4a1,1,0,0,0-.68,1c.1,3.36-.32,6.73.28,10.08.24,1.33,1.62,1.91,2.42,3.29a46.31,46.31,0,0,1-9.85,0c3.1-4.85,3.66-24.71.93-27.81.4-.94,1.25-.67,2-.68,4.78,0,9.56,0,14.34,0a15.85,15.85,0,0,1,7.24,1.63c2.27,1.17,3.92,2.82,4,5.49s-1.62,4.37-3.86,5.56C27.69,232.24,26.61,232.72,25.43,233.29Z" transform="translate(-4.14 -120.16)"/><path class="cls-2" d="M268,223.74c-1.45,8.94-.3,20.58,2.38,23.75h-8.49c3.92-2.48,3.07-6,3.1-9.19,0-4.56,0-9.12,0-13.67a5.15,5.15,0,0,0-.6-3.14c-.41-.58-1.58-.79-1.19-1.72s1.52-.39,2.31-.52c3.26-.54,5.62.6,7.82,3.23,4.59,5.48,9.57,10.64,14.4,15.93a12.34,12.34,0,0,0,1.08.8c-1.19-6.82,1.84-13.52-2.21-19.57,4.43-1,4.48-1,4.48,3.51,0,7.49,0,15,0,22.47,0,.86.64,2.18-.61,2.54-.86.25-1.39-.86-2-1.5Q279,236.13,269.6,225.58C269.12,225.05,268.66,224.5,268,223.74Z" transform="translate(-4.14 -120.16)"/><path class="cls-2" d="M77.6,248.64,55,223.55c0,3.45,0,6.28,0,9.11s.16,5.87.08,8.8c-.07,2.31.31,4.3,3.11,5.66-3.13,1-5.7.37-8.68.26,3.6-2.07,2.74-5.28,2.76-8.2,0-5.32-.06-10.65.07-16,0-1.31-1-3.42.94-3.84s4.09-.57,5.87,1.53c4.63,5.47,9.57,10.67,14.4,16,.58.64,1.22,1.22,2,2,.76-2.27.3-4.49.36-6.64.09-2.94,0-5.87,0-8.8,0-4.49,0-4.49,5.13-3.92-3.44,2.19-2.79,5.41-2.79,8.43,0,5.75.07,11.51,0,17.27C78.35,246.26,78.81,247.4,77.6,248.64Z" transform="translate(-4.14 -120.16)"/><path class="cls-1" d="M355.86,233.51c0,8.77-6.35,14.71-15.57,14.62-9.37-.08-16.37-6.65-16.35-15.37,0-8.54,6.22-14.2,15.55-14.17C349.55,218.63,355.88,224.4,355.86,233.51Z" transform="translate(-4.14 -120.16)"/><path class="cls-1" d="M118.74,239.31c3.31,6.1,11.07,8.64,16.74,5.69,2-1,3.85-2.41,3.63-4.92s-2.05-3.8-4.27-4.37c-3-.78-6.16-1.25-9.21-2-4.46-1.07-6.55-3.15-6.68-6.43-.15-3.77,2.1-6.76,6.42-7.87,5.25-1.36,10.53-1.43,15.55,1.1,1.71.86,2.06,3.92.6,5.11-.94.77-1.32-.1-1.73-.72-3.09-4.73-7.8-4.47-12.51-3.94a4.37,4.37,0,0,0-4.12,4.33c-.15,2.3,1.4,3.6,3.44,4.13,2.61.68,5.27,1.18,7.93,1.67,6,1.08,9,3.61,9.06,7.69s-3.29,7.4-8.66,8.75c-6,1.51-11.59.07-17.14-2-.9-.35-1.55-.67-1-1.86S117.53,240.69,118.74,239.31Z" transform="translate(-4.14 -120.16)"/><path class="cls-1" d="M258.14,225.46c-4.94-5.8-11.47-3.67-17.45-4.06-1.65-.11-2.21.37-2.27,2.14-.29,8.34-.35,8.33,7.94,8.18,2.95-.05,5.76-.39,7.87-3v7.8c-4.44-4.65-9.87-2.91-14.89-3.17-1.11-.06-.92,1-.92,1.72,0,2.5.05,5,0,7.5-.06,1.93.87,2.88,2.68,2.89,3.58,0,7.17,0,10.75-.16,3.28-.16,5.91-1.75,8.06-4.94.53,2.47-.52,4-.68,5.63-.12,1.36-.9,1.76-2.21,1.75-7,0-13.91-.05-20.86,0-1.42,0-1.86-.44-1.85-1.86.05-8.25.07-16.51,0-24.76,0-1.74.74-1.9,2.14-1.89,6.08.05,12.17-.07,18.25,0C259,219.34,256.92,223.23,258.14,225.46Z" transform="translate(-4.14 -120.16)"/><path class="cls-2" d="M175.3,240.2c2.24,2.84,1.79,4.58-1.09,5.81a22.8,22.8,0,0,1-17.42.72c-6.33-2.37-9.51-7.91-9.11-15a13.67,13.67,0,0,1,10.62-12.47,21.92,21.92,0,0,1,16.39,1.86c2,1.07,2.22,2.19,1.36,4.15-.75,1.72-1.36,1.89-2.23.27-2.66-4.93-7.23-5.25-11.85-4.54-7.1,1.09-10.58,7.72-8.87,16.14,1.8,8.87,12.34,12.28,19.42,6.24A29.71,29.71,0,0,0,175.3,240.2Z" transform="translate(-4.14 -120.16)"/><path class="cls-2" d="M90.77,247.46H81.63c6.45-8.66,11.05-18,16.16-27,1.07-1.91,2.06-1.55,3,.21,2.61,5.11,5.21,10.24,7.9,15.3,2.07,3.89,4,7.86,7.33,11.13-6.11,1.27-6.48,1.12-8.8-3.73-1.22-2.54-2.41-5.1-3.49-7.7a2.51,2.51,0,0,0-3-1.86,11.07,11.07,0,0,1-1.63,0c-7,0-7.34.26-10,6.6C88.05,242.88,87.45,245.19,90.77,247.46Z" transform="translate(-4.14 -120.16)"/><path class="cls-1" d="M294.53,225.94a12.14,12.14,0,0,1,0-1.91c1.56-5.65-.16-4.73,5.93-4.78,5.86-.05,11.73,0,17.59,0,5.42,0,5.48,0,5.54,6.25a12.3,12.3,0,0,0-9.35-4.13c-2.12,0-2.86.63-2.82,2.79.13,6.73.09,13.47.07,20.2,0,1.56.76,3.4-2.27,3.41-2.82,0-2.48-1.51-2.47-3.27.05-6.73,0-13.46.11-20.19.05-2.33-.73-3-3-2.93A11.81,11.81,0,0,0,294.53,225.94Z" transform="translate(-4.14 -120.16)"/><path class="cls-3" d="M46.88,219c-3.13,4-2.52,24.39.51,28.46H37.76c2.88-4.34,3.61-24.47.91-28.11C41.27,218.62,43.75,219.1,46.88,219Z" transform="translate(-4.14 -120.16)"/><path class="cls-2" d="M182.14,219.19a31.73,31.73,0,0,1,7.42-.06c-2.65,4.73-1.8,24.79,1.32,28.28-3.39.58-6.53.17-10.44.31,4.68-4.28,3-9.34,3-14S184.78,224.12,182.14,219.19Z" transform="translate(-4.14 -120.16)"/><path class="cls-3" d="M53.35,263.88c-1.54,1.79-2.69,3.06-3.77,4.39-1.51,1.86-2.92,2-4.47,0-1-1.36-2.24-2.61-3.41-3.94-1.23,1.11-.93,2.51-1.13,3.72-.28,1.71-1.42,1.68-2.65,1.53-1.47-.17-.83-1.18-.71-2,.27-1.71.51-3.43.83-5.14.14-.77-.25-2,1-2.09s2.61-.52,3.61.76c1.14,1.44,2.36,2.83,3.47,4.3.87,1.16,1.56,1.18,2.44,0,1.1-1.48,2.36-2.84,3.48-4.3.91-1.19,2.15-.83,3.29-.82,1.55,0,1.1,1.36,1.29,2.19a40.92,40.92,0,0,1,.81,4.81c.09.79,1,2-.72,2.26-1.22.16-2.41.2-2.55-1.58C54.05,266.86,53.71,265.73,53.35,263.88Z" transform="translate(-4.14 -120.16)"/><path class="cls-4" d="M103.09,269.84c-6.24-.17-6.12-.17-6.27-6.37-.06-2.38.47-3.27,3-3.05,3.22.29,6.51-.32,9.66.77,2.05.71,4.36,1.48,4.25,4.18s-2.39,3.49-4.51,3.95A44.17,44.17,0,0,1,103.09,269.84Z" transform="translate(-4.14 -120.16)"/><path class="cls-5" d="M183.33,263.29c0,2.08-.05,3.49,0,4.89s-.79,1.5-1.87,1.53-1.43-.62-1.41-1.63c0-1.52-.08-3,0-4.56.08-1-.66-2.48.56-2.92a4.17,4.17,0,0,1,4,.6c2.25,1.67,4.61,3.2,7.54,5.22,0-1.83.07-3.16,0-4.47-.11-1.47.77-1.49,1.84-1.53s1.5.45,1.46,1.54c-.06,1.63,0,3.26,0,4.88,0,.92.54,2.26-.49,2.67a3.65,3.65,0,0,1-3.68-.55C188.89,267.14,186.39,265.46,183.33,263.29Z" transform="translate(-4.14 -120.16)"/><path class="cls-6" d="M86.1,269.12c-3.9,2.39-5.37-2.15-8.69-2.24s-5.25,3.13-9,2.82c2.28-3.08,4.18-5.79,6.24-8.37a2.79,2.79,0,0,1,4.48-.25C81.61,263.61,83.79,266.41,86.1,269.12Z" transform="translate(-4.14 -120.16)"/><path class="cls-6" d="M276.56,269.12c-3.9,2.39-5.45-2-8.67-2.28-3.61-.31-5.14,3.65-8.76,2.56,2.05-2.78,3.95-5.49,6-8.08a2.8,2.8,0,0,1,4.48-.24C272.07,263.61,274.25,266.41,276.56,269.12Z" transform="translate(-4.14 -120.16)"/><path class="cls-6" d="M136.36,265.71c-2,0-4,0-6,0-.73,0-1.54-.19-1.56,1s.49,1.48,1.56,1.45c1.84-.06,3.69,0,5.53,0,.58,0,1.47-.23,1.41.77s-.93.69-1.51.7c-2.93,0-5.85,0-8.78,0-.64,0-1.41.06-1.42-.87,0-2.5,0-5,0-7.48a.74.74,0,0,1,.76-.84,83.72,83.72,0,0,1,10.73.43c-2,1.64-4.25.84-6.37,1-1,.09-2,0-1.87,1.47s1.21.95,1.94,1c1.88.07,3.76,0,5.64,0Z" transform="translate(-4.14 -120.16)"/><path class="cls-4" d="M306.76,260.66a4.34,4.34,0,0,1,5.12,1.52c1.68,2.06,3.31,2.43,5.07.09,1.31-1.74,3.09-2.21,5.6-1.58-1.45,1.31-2.73,2.5-4,3.66s-2.82,2.09-2.48,4.2c.12.81-.35,1.2-1.15,1.13s-2,.28-2-.54c.1-4.3-3.93-5.29-6-7.86A1.88,1.88,0,0,1,306.76,260.66Z" transform="translate(-4.14 -120.16)"/><path class="cls-5" d="M244.56,260.44c2.06,0,4.13,0,6.19,0,.59,0,1.43-.16,1.38.83s-.86.74-1.47.81c-4.32.5-4.29.51-4.43,5.16,0,1,.65,2.44-1.47,2.48s-1.71-1.39-1.76-2.61a6.27,6.27,0,0,1,0-1.3c.43-2.8-.41-4.28-3.57-3.78-.75.11-2.32.66-2.24-.92.05-1.16,1.39-.62,2.15-.65C241.09,260.38,242.82,260.44,244.56,260.44Z" transform="translate(-4.14 -120.16)"/><path class="cls-7" d="M293.52,269.7c-5.68,0-5.68,0-5.67-5.8,0-.65,0-1.31,0-1.95-.09-1.08.24-1.6,1.44-1.54s1.8.09,1.88,1.53c.1,2-1.05,4.65.58,5.83,1.3,1,3.76.25,5.7.38.75.05,2.07-.51,2.07.76s-1.33.7-2.08.76C296.13,269.77,294.82,269.69,293.52,269.7Z" transform="translate(-4.14 -120.16)"/><path class="cls-8" d="M226.69,265.62c-.9,1.05,1.64,3.94-1.56,4-3.42,0-1.16-2.89-1.68-4.39-.34-1,0-2.14-.08-3.21-.12-1.37.57-1.58,1.73-1.6,1.33,0,1.68.53,1.6,1.73S226.69,264.28,226.69,265.62Z" transform="translate(-4.14 -120.16)"/><path class="cls-9" d="M167.32,264.82c0,1.18,0,2.37,0,3.55s-.69,1.34-1.65,1.34-1.69-.12-1.66-1.36c0-2,.08-4.09,0-6.13-.07-1.44.48-1.82,1.85-1.83s1.52.79,1.47,1.85C167.29,263.1,167.32,264,167.32,264.82Z" transform="translate(-4.14 -120.16)"/><path class="cls-10" d="M235.16,192.61c1.08-.68.27-1.85.7-2.69,1.08,2,.48,4.05.32,6.13A4.73,4.73,0,0,1,235.16,192.61Z" transform="translate(-4.14 -120.16)"/><path class="cls-11" d="M17.62,221.3c1.41,0,2.83-.06,4.24,0,2.54.14,4.84.86,5.22,3.82a5.14,5.14,0,0,1-4,5.92c-3.48,1-7.12.39-10.69.49-.83,0-1.12-.49-1.12-1.24s0-1.74,0-2.61C11.28,221.3,11.28,221.3,17.62,221.3Z" transform="translate(-4.14 -120.16)"/><path class="cls-12" d="M339.58,246.13c-7-.07-10.75-4.7-10.68-13,.08-7.82,4.23-12.39,11.18-12.31s11,5.1,11,13C351,241.93,347,246.21,339.58,246.13Z" transform="translate(-4.14 -120.16)"/><path class="cls-13" d="M93.31,232.31l4.51-7.48c1.56,1.74,2.17,3.86,3.25,5.71.91,1.54.11,1.82-1.28,1.78C97.86,232.27,95.92,232.31,93.31,232.31Z" transform="translate(-4.14 -120.16)"/><path class="cls-14" d="M103.83,268c-3,.59-4.14-.46-3.8-3.58.16-1.49.44-2.12,2-2,2,.15,4.11-.17,6.08.63,1.1.44,2.45.78,2.38,2.25s-1.43,1.86-2.54,2.15A31.46,31.46,0,0,1,103.83,268Z" transform="translate(-4.14 -120.16)"/><path class="cls-15" d="M77,262.51l2.19,3H75C75.19,264.29,76,263.61,77,262.51Z" transform="translate(-4.14 -120.16)"/><path class="cls-15" d="M267.39,262.6a6.82,6.82,0,0,1,2,2.95h-3.88C265.52,264.24,266.56,263.59,267.39,262.6Z" transform="translate(-4.14 -120.16)"/></svg>