<svg id="Layer_1" data-name="Layer 1" xmlns="http://www.w3.org/2000/svg" viewBox="0 0 356.1 42.79"><defs><style>.cls-1{fill:#fcfcfc;}</style></defs><title>stenafel</title><path d="M239.19,192.16c0,7.09,0,14.18,0,21.27,0,1.36-.42,1.63-1.65,1.58-2.67-.08-5.35,0-8,0-.89,0-1.23-.2-1.22-1.16q0-18.84,0-37.67c0-.82.16-1.13,1.06-1.12,4,.05,8,.06,12,0,.93,0,1.17.5,1.51,1.14,3.92,7.39,7.86,14.77,12,22.48,0-.75.09-1.2.09-1.64,0-6.88,0-13.76,0-20.64,0-1.07.28-1.36,1.35-1.34,2.94.08,5.89.06,8.84,0,.82,0,1.12.17,1.12,1.07q0,18.83,0,37.67c0,.91-.23,1.22-1.19,1.21-4.2,0-8.4-.07-12.61,0-1,0-1.26-.62-1.6-1.27q-5.34-10.19-10.66-20.37c-.22-.43-.46-.84-.7-1.26Z" transform="translate(-1.95 -173.6)"/><path d="M40.68,180.56c-2.33,2-4.66,3.93-7,5.92-.5.43-.76.32-1.22-.07-3.46-3-7.66-3.34-12-3.1a3.72,3.72,0,0,0-1.09.34c-1,.37-1.77.94-1.8,2.08A2.38,2.38,0,0,0,19.43,188a26.12,26.12,0,0,0,5.74,1.17,55.64,55.64,0,0,1,6.4,1.25c4.93,1.38,8.48,4.18,9.34,9.52.82,5.15-1,9.27-5.08,12.48a19,19,0,0,1-10.41,3.82A32.39,32.39,0,0,1,9.11,213.8a17.5,17.5,0,0,1-6.7-5.33c-.62-.81-.69-1.25.26-1.87,2.4-1.6,4.74-3.29,7.05-5,.8-.59,1.2-.63,1.91.2a13.37,13.37,0,0,0,11.79,4.74,8.55,8.55,0,0,0,3.41-1c.82-.44,1.68-1,1.66-2a2.81,2.81,0,0,0-1.69-2.6,16.33,16.33,0,0,0-5.05-1.19,38.48,38.48,0,0,1-9.64-2.34C8.29,195.7,5.4,193.2,5,188.78c-.48-5.2,1-9.64,5.71-12.44s9.91-2.86,15.2-2.68C31.81,173.86,36.57,176.33,40.68,180.56Z" transform="translate(-1.95 -173.6)"/><path d="M175.66,215c1.5-4.18,2.94-8.21,4.39-12.23,3.16-8.78,6.34-17.54,9.47-26.33a1.7,1.7,0,0,1,2-1.38c4,.09,8,0,12,0a1.33,1.33,0,0,1,1.55,1q6.81,19.08,13.69,38.12l.29.8c-4.37,0-8.59,0-12.82,0-.72,0-.88-.44-1-1-.31-1.16-.76-2.28-1-3.45-.25-1.35-.83-1.85-2.28-1.79-3.21.13-6.44.07-9.65,0-.85,0-1.31.2-1.48,1.07-.14.68-.42,1.34-.63,2-1,3.13-1,3.13-4.15,3.13Z" transform="translate(-1.95 -173.6)"/><path d="M92.42,195c0-6.17,0-12.33,0-18.5,0-1.16.29-1.42,1.43-1.42q14.33.07,28.64,0c1.12,0,1.51.23,1.45,1.41a55.11,55.11,0,0,0,0,5.89c0,1.11-.33,1.34-1.37,1.33-5.4-.05-10.8,0-16.2-.05-1.11,0-1.58.21-1.46,1.41.13,1.35-.41,3.13.28,3.94s2.55.24,3.89.25c4.09,0,8.18.06,12.28,0,1.09,0,1.39.31,1.35,1.38-.08,2-.1,4,0,6.05.06,1.15-.39,1.33-1.4,1.32-5,0-10,0-15.06-.05-1.06,0-1.41.25-1.35,1.34a43.46,43.46,0,0,1,0,5.23c-.08,1.22.38,1.41,1.47,1.4,6-.06,11.89,0,17.84-.06,1.09,0,1.53.18,1.47,1.39-.11,2.18-.06,4.37,0,6.55,0,.87-.15,1.24-1.15,1.24Q109,215,93.55,215c-1.19,0-1.14-.56-1.14-1.39C92.43,207.41,92.42,201.19,92.42,195Z" transform="translate(-1.95 -173.6)"/><path d="M282.76,195c0-6.17,0-12.33,0-18.5,0-1.13.25-1.44,1.42-1.44q14.4.07,28.81,0c.94,0,1.35.14,1.29,1.22-.1,2-.09,4,0,6.05,0,1.06-.25,1.37-1.33,1.35-5.4-.06-10.81,0-16.21-.05-1.09,0-1.62.19-1.48,1.41s-.56,3.1.26,3.94,2.59.24,3.93.25c4.09,0,8.19.05,12.28,0,1,0,1.33.25,1.29,1.27-.08,2.07-.08,4.15,0,6.22,0,1-.3,1.27-1.3,1.26-5-.05-10,0-15.06-.05-1.18,0-1.47.34-1.41,1.46a48.21,48.21,0,0,1,0,5.24c-.06,1,.3,1.27,1.28,1.26,5.95,0,11.9,0,17.85-.06,1.34,0,1.61.41,1.56,1.63-.1,2.13-.05,4.26,0,6.39,0,.76-.07,1.17-1,1.17q-15.54-.06-31.1,0c-1.17,0-1-.65-1-1.36Z" transform="translate(-1.95 -173.6)"/><path d="M139.59,195c0-6.17,0-12.34,0-18.5,0-1.07.15-1.49,1.37-1.48q15.88.07,31.76,0c1.16,0,1.47.3,1.41,1.44-.1,2-.09,4,0,6,.05,1.12-.22,1.47-1.41,1.46-6.32-.06-12.66,0-19-.06-1.31,0-1.9.22-1.73,1.65a17.09,17.09,0,0,1,0,3.43c-.09,1.12.23,1.48,1.41,1.46,4.91-.07,9.83,0,14.74-.06,1.14,0,1.48.29,1.42,1.44a57.86,57.86,0,0,0,0,5.89c.06,1.13-.37,1.32-1.38,1.31-4.91-.05-9.82,0-14.73-.05-1.12,0-1.48.24-1.47,1.42.08,4.42,0,8.84.05,13.26,0,1-.19,1.34-1.25,1.32q-5-.1-10,0c-1.09,0-1.23-.41-1.22-1.33C139.6,207.47,139.59,201.25,139.59,195Z" transform="translate(-1.95 -173.6)"/><path d="M65.26,175.08c5.18,0,10.36,0,15.54,0,1.14,0,1.5.27,1.45,1.44-.1,2.28-.11,4.58,0,6.87.07,1.29-.4,1.54-1.58,1.5-2.5-.09-5,0-7.52-.06-1.26-.05-1.54.34-1.53,1.54,0,8.73,0,17.46,0,26.19,0,2.46,0,2.46-2.54,2.46-2.78,0-5.57-.08-8.35,0-1.41.06-1.68-.43-1.67-1.74,0-8.94,0-17.89.06-26.84,0-1.4-.36-1.7-1.69-1.64-2.56.12-5.13,0-7.69.06-1.05,0-1.28-.31-1.26-1.29.07-2.46.07-4.91,0-7.37,0-1,.32-1.14,1.2-1.14C54.89,175.1,60.07,175.08,65.26,175.08Z" transform="translate(-1.95 -173.6)"/><path d="M330.22,195c0-6.16,0-12.33,0-18.49,0-1.27.35-1.52,1.54-1.49,3,.09,6,.1,9,0,1.33-.05,1.71.27,1.7,1.66-.08,9,0,18-.09,27,0,1.31.35,1.61,1.61,1.58,4.2-.08,8.4,0,12.6,0,1.08,0,1.56.18,1.5,1.4-.09,2.34-.06,4.69,0,7,0,.94-.16,1.34-1.24,1.33q-12.68-.06-25.36,0c-1.09,0-1.23-.4-1.23-1.33C330.24,207.47,330.22,201.25,330.22,195Z" transform="translate(-1.95 -173.6)"/><path class="cls-1" d="M197.32,186.91c1.24,4.31,2.35,8.17,3.49,12,.25.86-.06,1-.84,1-1.8,0-3.59,0-5.38,0-.44,0-1.12.19-.87-.68C194.87,195.27,196,191.3,197.32,186.91Z" transform="translate(-1.95 -173.6)"/></svg>