<svg id="Layer_1" data-name="Layer 1" xmlns="http://www.w3.org/2000/svg" viewBox="0 0 350.62 124.39"><defs><style>.cls-1{fill:#004b8c;}.cls-2{fill:#004b8d;}.cls-3{fill:#014b8d;}.cls-4{fill:#044e8e;}.cls-5{fill:#024c8d;}.cls-6{fill:#064f8f;}.cls-7{fill:#a9a9ad;}.cls-8{fill:#a5a5a9;}.cls-9{fill:#a7a7ab;}.cls-10{fill:#acacaf;}.cls-11{fill:#a8a8ac;}.cls-12{fill:#acacb0;}.cls-13{fill:#b3b3b6;}.cls-14{fill:#fdfdfd;}.cls-15{fill:#fdfdfe;}.cls-16{fill:#fefefe;}.cls-17{fill:#fafbfc;}.cls-18{fill:#fafafa;}</style></defs><title>tomtailor</title><path class="cls-1" d="M180.33,132.84c12.65,0,23.89,1.43,34.66,5.81,2.64,1.08,4.12,2.5,3.82,5.64-.34,3.52,1.12,8.45-.7,10.25s-6.41-1-9.8-1.7c-8.64-1.76-8.62-1.84-8.62,6.91v3.81c0,7,0,7-6.82,8.29a69.25,69.25,0,0,1-26.87-.66c-2.41-.5-3.34-1.62-3.23-4.11.18-3.94-.17-7.9.1-11.82.24-3.51-1-4-4.17-3.31a112.78,112.78,0,0,0-12.19,3c-2.09.7-2.84.23-2.77-1.9,0-1.27,0-2.54,0-3.81,0-9.44,0-9.51,9.2-12.44a75.09,75.09,0,0,1,10.31-2.58A88.54,88.54,0,0,1,180.33,132.84Z" transform="translate(-4.69 -132.8)"/><path class="cls-2" d="M122.79,203c-3.91,4.32-7.37,7.94-10.56,11.78-1.49,1.81-2.33,1.63-3.72,0C105.33,211,102,207.41,98,203c0,6.14-.15,11.37.06,16.59.11,2.72-.82,3.39-3.43,3.42s-3.37-.9-3.32-3.48c.16-7.36.13-14.72,0-22.07,0-2.12.57-2.69,2.74-2.9,4-.38,6.61,1,9.06,4.1,2.22,2.78,4.29,7.54,7.41,7.28,2.6-.22,4.79-4.77,7.28-7.28,1.39-1.39,2.16-3.51,4.39-4,5.9-1.26,7.29-.15,7.29,5.84,0,6.21-.1,12.43,0,18.65.06,2.53-.18,3.9-3.35,3.87-3,0-3.62-.91-3.49-3.68C123,214.17,122.79,209,122.79,203Z" transform="translate(-4.69 -132.8)"/><path class="cls-3" d="M355.31,222.44c-5.35,1.44-9,.15-11.56-4.41-.86-1.55-1.77-3.78-3.79-3.95a37.23,37.23,0,0,0-10.6.13c-2.1.43-1,3.29-.94,5,.08,2.66-.42,3.85-3.49,3.79-2.91-.05-3.93-.71-3.82-3.8.24-7.09.16-14.2,0-21.29,0-2.33.4-3.41,3.06-3.34,6.84.18,13.69-.07,20.53.13,4.88.14,8.12,2.78,9.35,6.95s0,8-4,10.83c-1.43,1-1.21,1.49-.34,2.53s1.85,2.42,2.76,3.63Z" transform="translate(-4.69 -132.8)"/><path class="cls-2" d="M294.79,193.83c4.31.06,8,.58,11.49,2.4a13.16,13.16,0,0,1,7.55,11.86,12.92,12.92,0,0,1-7.07,12.54c-7.27,3.94-14.8,4-22.25.48-5.42-2.56-8.44-7-8.24-13,.2-6.19,3.55-10.34,9.32-12.61A26.7,26.7,0,0,1,294.79,193.83Z" transform="translate(-4.69 -132.8)"/><path class="cls-2" d="M65.3,193.85c4,.05,7.84.55,11.36,2.56,4.67,2.66,7.18,6.61,7.25,12.06a12.82,12.82,0,0,1-7.07,12.13c-7.54,4.11-15.33,4.06-22.92.17-5.15-2.64-7.84-7-7.51-13,.32-5.8,3.32-9.65,8.52-12A25.27,25.27,0,0,1,65.3,193.85Z" transform="translate(-4.69 -132.8)"/><path class="cls-3" d="M218.84,222.49c-4.75,1.09-8.41.75-9.92-4.31-.47-1.56-1.62-2-3.22-2a68.57,68.57,0,0,1-8.36,0c-4.31-.35-7.72,0-9.53,5-1.28,3.49-4.91,1-7.37,1.69-.64-1.34.33-2.06.77-2.87q6.43-11.82,13-23.58c1.66-3,8.48-3.06,10.13-.12C209.15,204.91,213.89,213.55,218.84,222.49Z" transform="translate(-4.69 -132.8)"/><path class="cls-4" d="M162.47,194.61c5.32,0,10.65.13,16-.06,3-.1,2.35,1.8,2.46,3.5.11,1.87-.08,3.15-2.55,3-3.29-.2-6.6,0-9.89-.08-2-.09-2.62.6-2.58,2.59.11,5.45-.15,10.91.1,16.35.15,3.22-1.65,2.92-3.78,3-2.44.13-3.37-.56-3.28-3.16.19-5.19,0-10.39.11-15.59.07-2.39-.5-3.42-3.11-3.24-3.28.22-6.59-.07-9.88.09-2.73.13-2.27-1.67-2.31-3.27s-.24-3.28,2.39-3.21C151.56,194.71,157,194.61,162.47,194.61Z" transform="translate(-4.69 -132.8)"/><path class="cls-5" d="M23.4,194.61c5,0,9.91.08,14.87,0,2.32-.06,3.74.1,3.68,3.15-.06,2.75-.91,3.51-3.51,3.32-2.78-.21-5.6.12-8.37-.1-2.58-.2-3.55.48-3.43,3.26.24,5.33-.09,10.68.13,16,.12,2.76-1.3,2.82-3.24,2.68-1.74-.13-3.88.76-3.75-2.56.22-5.58,0-11.17.1-16.76,0-1.94-.43-2.72-2.51-2.61-3.42.16-6.87-.1-10.29.08-2.66.14-2.39-1.51-2.37-3.19s-.38-3.34,2.31-3.27C12.48,194.71,17.94,194.61,23.4,194.61Z" transform="translate(-4.69 -132.8)"/><path class="cls-6" d="M258.49,222.9c-3.67,0-7.35-.1-11,0-2.19.09-3.18-.42-3.13-2.9.15-7.61.17-15.22,0-22.82-.08-3.22,2-2.51,3.76-2.62,2-.13,3.38,0,3.29,2.72-.18,5.57,0,11.16-.1,16.73-.06,2.34.71,3.07,3,3,5.19-.15,10.39.05,15.59-.09,2.15,0,2.88.61,2.83,2.78s-.23,3.35-2.84,3.22C266.11,222.75,262.3,222.9,258.49,222.9Z" transform="translate(-4.69 -132.8)"/><path class="cls-6" d="M226.49,208.56c0-3.81.15-7.62-.05-11.42-.13-2.46,1.12-2.84,3-2.51,1.66.3,4.4-1.38,4.38,2.31q-.08,11.81,0,23.61c0,3.69-2.72,2-4.38,2.31-1.86.34-3.11,0-3-2.5C226.64,216.43,226.49,212.49,226.49,208.56Z" transform="translate(-4.69 -132.8)"/><path class="cls-7" d="M192.7,257.2l3.82-3.66c0-.72-.26-.84-.71-.86-3-.09-4.35-1.93-4.14-4.69a3.66,3.66,0,0,1,4.36-3.66c3.06.33,3.78,2.61,3.71,5.22C199.65,253.3,197.18,256.11,192.7,257.2Z" transform="translate(-4.69 -132.8)"/><path class="cls-8" d="M208.23,240.46c-.62,1.83-2.6,1.82-2.91,3.53.54,1.22,2.15.83,3,1.72a4.58,4.58,0,0,1,1.16,4.91,3.49,3.49,0,0,1-3.83,2.48c-2.12-.07-3.16-1.19-3.68-3.15C200.91,245.9,203.31,242,208.23,240.46Z" transform="translate(-4.69 -132.8)"/><path class="cls-9" d="M151.73,246.38c-1.36.56-2.28-1.06-3.62.2-.62,1.07,4.17,1.87.16,3.13-.5.16-.43.94-.12,1.33.54.69,1.34.52,2.1.44.5-.06,1.18-.93,1.46.11.23.87-.34,1.43-1.27,1.44-1.88,0-3.75,0-5.73,0a8.8,8.8,0,0,0-.15-8.42C147.21,244.89,150.12,243.7,151.73,246.38Z" transform="translate(-4.69 -132.8)"/><path class="cls-10" d="M173.27,252.75c-1.39.54-2.63.34-4.42.15,1.3-1.1,1.23-2.36,1.28-3.63.12-2.92-.41-4.56-3.4-1.75-.54-1.61-.76-2.86,1.22-2.93,2.16-.07,4.31,0,6.47,0,1.38,0,1.89,1,1.46,2-.74,1.85-1.19-.1-1.77-.28-1.09-.34-1.79,0-1.82,1.15C172.23,249.28,171.8,251.16,173.27,252.75Z" transform="translate(-4.69 -132.8)"/><path class="cls-11" d="M162.45,247.78a27.06,27.06,0,0,0-2.24-1.91,1.19,1.19,0,0,0-1.9.47c-.32.77.47,1,1,1.29s.93.4,1.38.62c1.29.62,2.66,1.34,2.13,3.06-.63,2-2.37,2.54-4.27,2.25-1.71-.26-2.83-1.12-2.06-3.11.67-.14.79.45,1.09.78.87,1,2.12,1.53,2.9.39,1.08-1.57-.74-1.86-1.63-2.19-1.74-.66-3.18-1.56-2.25-3.56s2.7-1.87,4.6-1.37C162.92,245,162.43,246.07,162.45,247.78Z" transform="translate(-4.69 -132.8)"/><path class="cls-7" d="M218,252.82a18,18,0,0,1-6.11.05c0-1.44,1.07-1.87,1.78-2.51,1.08-1,3.07-1.59,2.59-3.37-.53-2-2.76-.32-4.19-1.36,1.62-2,3.63-2,5.12-.47,2.41,2.5.24,4.3-1.65,5.84C216.18,251.93,217.47,251.26,218,252.82Z" transform="translate(-4.69 -132.8)"/><path class="cls-12" d="M184.15,244.94a8,8,0,0,1,4.52-.14c-1.37,2.67-1.79,5.29,0,8.09-2.14.25-4.31,1.09-3.33-2.71A5,5,0,0,0,184.15,244.94Z" transform="translate(-4.69 -132.8)"/><path class="cls-13" d="M178.4,250.83a1.32,1.32,0,0,1,1.24,1.5,1.13,1.13,0,0,1-1.26,1.09c-.81-.09-1.44-.54-1.31-1.45A1.3,1.3,0,0,1,178.4,250.83Z" transform="translate(-4.69 -132.8)"/><path class="cls-14" d="M336.86,208.11a27.74,27.74,0,0,0-4.56,0c-3.6.62-4.13-1.1-4.07-4.22,0-2.68.47-3.89,3.5-3.64,3.66.3,7.36.06,11,.07,2.63,0,4.55,1.07,4.5,3.95,0,2.66-1.85,3.72-4.32,3.78-2,0-4.06,0-6.09,0Z" transform="translate(-4.69 -132.8)"/><path class="cls-15" d="M295.56,217.8a15.94,15.94,0,0,1-6.74-1.41,8,8,0,0,1-5-7.45,7.92,7.92,0,0,1,4.63-7.7,14.53,14.53,0,0,1,11.09-1c4.53,1.33,7.08,4.55,6.9,8.82s-2.75,7.12-7.22,8.16C297.86,217.54,296.52,218,295.56,217.8Z" transform="translate(-4.69 -132.8)"/><path class="cls-16" d="M65.62,217.78c-7.14-.07-11.57-3.57-11.68-8.84a7.86,7.86,0,0,1,4.57-7.7,14.85,14.85,0,0,1,11.45-.9c4.2,1.3,6.43,4.19,6.43,8.33,0,4.3-2.35,7.29-6.74,8.47C68.19,217.53,66.72,218,65.62,217.78Z" transform="translate(-4.69 -132.8)"/><path class="cls-17" d="M204.57,210.26H194l5.29-9.75Z" transform="translate(-4.69 -132.8)"/><path class="cls-18" d="M197.66,248.65c0,1.43,0,2.82-1.85,2.71s-2.13-1.44-2.14-2.93c0-1.31.11-2.77,1.72-2.83C197.45,245.52,197.52,247.27,197.66,248.65Z" transform="translate(-4.69 -132.8)"/><path class="cls-18" d="M205.79,252a3.32,3.32,0,0,1-2.17-3.6c0-1.33.52-2.28,1.95-2.2,2,.1,2.35,1.76,2.44,3.24A2.36,2.36,0,0,1,205.79,252Z" transform="translate(-4.69 -132.8)"/></svg>