<svg id="Layer_1" data-name="Layer 1" xmlns="http://www.w3.org/2000/svg" viewBox="0 0 339.63 92.17"><defs><style>.cls-1{fill:#010101;}.cls-2{fill:#020202;}.cls-3{fill:#030303;}.cls-4{fill:#242424;}.cls-5{fill:#111;}.cls-6{fill:#121212;}.cls-7{fill:#181818;}.cls-8{fill:#131313;}.cls-9{fill:#fcfcfc;}.cls-10{fill:#f4f4f4;}.cls-11{fill:#fff;}</style></defs><title>VAILENT</title><path d="M288.83,181.74c0-10.17.24-19.11-.1-28-.17-4.42,2.55-3.26,4.84-3.35s4.5-.65,4.41,3.33c-.28,13.18-.05,26.36-.18,39.55,0,1.48,1.5,4.06-1.28,4.46-2.44.35-5,.74-7-2.14-5.14-7.34-10.71-14.38-16.11-21.54l-6.69-8.84c0,9.93-.35,18.83.14,27.69.25,4.52-2,3.92-4.91,4.16-3.42.27-4.48-.62-4.41-4.25.24-13.17.06-26.36.14-39.54,0-1.37-1-3.71.95-4,2.37-.31,5.08-1.15,7.16,1.76,5.36,7.53,11.06,14.82,16.63,22.2C284.32,175.78,286.25,178.32,288.83,181.74Z" transform="translate(-10.18 -148.92)"/><path class="cls-1" d="M104.87,196.81c-.5,0-1,.11-1.55.12-7.44.09-7.57.14-10-6.93-.85-2.44-2.07-3.35-4.53-3a12.2,12.2,0,0,1-3.36,0c-6.48-.93-11.51.26-12.48,8-.21,1.73-1.46,2.09-3.08,2-2.23-.12-4.48,0-7.26,0,2.62-6.91,5.14-13.52,7.65-20.14,3.17-8.37,6.4-16.72,9.45-25.13.76-2.07,1.85-3,4-2.56,1.72.33,3.85-1,4.87,1.84,5.42,15,11,29.94,16.47,44.91C105.07,196.08,104.93,196.39,104.87,196.81Z" transform="translate(-10.18 -148.92)"/><path class="cls-2" d="M207.94,173.49c0-6.72.1-13.44-.05-20.16-.06-2.41.65-3.11,3.06-3,6.29.16,12.6.26,18.89,0,3.7-.17,2.77,2.16,2.81,4.07s.76,4.35-2.89,4c-3.19-.33-6.45.12-9.65-.13-2.73-.21-3.21.87-3.19,3.35.06,6.93-.06,6.93,6.69,6.93a26.6,26.6,0,0,0,4.19,0c3.53-.58,4.39.79,4.38,4.27,0,3.32-1.08,4.06-4.09,3.79-2.77-.25-5.6.1-8.39-.11-2.34-.17-2.72.8-2.77,2.89-.24,9.66-.3,9.65,9.46,9.65a16.18,16.18,0,0,1,2.09,0c1.34.18,3.44-.76,3.85.64a18.68,18.68,0,0,1,.16,6.64c-.09,1-1.33.73-2.14.73-6.71,0-13.44-.1-20.15.06-2.48.06-2.26-1.36-2.26-2.93Q208,183.77,207.94,173.49Z" transform="translate(-10.18 -148.92)"/><path class="cls-1" d="M30.64,181.77l8-24.15c2.72-8.22,2.72-8.22,12.06-6.84q-7.58,20.07-15.11,40c-.6,1.57-1.32,3.1-1.78,4.71a3.14,3.14,0,0,1-3.55,2.66c-2.19,0-3.13-.73-3.89-2.8q-7.69-21.07-15.7-42c-.92-2.4-.57-3,2.09-3,6.61,0,6.6-.11,8.88,6.28C24.51,164.68,27.42,172.78,30.64,181.77Z" transform="translate(-10.18 -148.92)"/><path class="cls-1" d="M340.32,177.43c0,5.47-.08,10.94,0,16.41,0,2.21-.36,3.19-2.94,3.17-6.26,0-6.26.11-6.26-6.07,0-9.67-.11-19.35.07-29,0-2.87-.58-4.23-3.63-3.69a5.57,5.57,0,0,1-1.68,0c-1.33-.2-3.49.75-3.86-.53-.59-2.07-.29-4.45-.08-6.66.11-1.13,1.36-.67,2.12-.68,7.72,0,15.43.11,23.14-.07,3.6-.08,2.38,2.38,2.38,4s1.23,4-2.37,4c-6.94.11-6.93.32-6.93,7.32Z" transform="translate(-10.18 -148.92)"/><path d="M162.6,173.49c0-6.73.1-13.46-.06-20.19,0-2.41.71-3,3.08-3,6,.05,6-.08,6,5.91,0,9.82.08,19.63-.06,29.44,0,2.5.47,3.66,3.19,3.33a45.18,45.18,0,0,1,5.46-.05c4.34,0,6.38,3.12,4.77,7.13-.47,1.15-1.27.88-2,.88-6,0-12.06-.11-18.08.07-2.49.07-2.25-1.32-2.25-2.9C162.61,187.22,162.6,180.36,162.6,173.49Z" transform="translate(-10.18 -148.92)"/><path class="cls-3" d="M126.22,173.86c0-6.85.08-13.71,0-20.56,0-2.37.63-3.06,3.06-3,6.12.07,6.13-.07,6.13,6.19,0,12.45-.08,24.89.06,37.33,0,2.59-.63,3.28-3.24,3.22-6-.15-6,0-6-5.95Z" transform="translate(-10.18 -148.92)"/><path class="cls-4" d="M260.08,212.91c-5,4.88-9.9,9.87-15,14.59-2.26,2.07-2.74,3.55,0,5.41a14,14,0,0,1,3.91,3.73c-2.53.41-3.59-1.41-4.64-2.72-2.17-2.73-3.67-2.2-5.77.12-2.33,2.6-4.64,5.32-7.83,7,1.79-3.33,4.67-5.71,7.33-8.2,2.07-1.92,2.61-3.26,0-5-1.45-1-2.77-2.18-4.4-3.48,2.26-1.3,2.65,0,3.23.53,4.6,4.33,4.58,4.35,8.94,0s8.78-8.76,13.17-13.13C259.37,212.15,259.72,212.53,260.08,212.91Z" transform="translate(-10.18 -148.92)"/><path class="cls-5" d="M176.31,235.63c0-4.43,0-8.67,0-12.91a1.79,1.79,0,0,1,.68-1.33c1.76-1.1,8.68.29,9.78,1.89,1.51,2.18.74,4.21-2.68,6.87.64.88,1.29,1.75,1.93,2.64s1.08,1.56,1.8,2.62c-2.49.38-3-1.56-3.89-2.69-1.23-1.52-2.18-3.36-4.61-2.76-2.58.65-.77,2.78-1.32,4.14C177.85,234.59,177.94,235.21,176.31,235.63Z" transform="translate(-10.18 -148.92)"/><path class="cls-6" d="M215.91,228.57c-1.66,1-3.37.55-5,.48-2-.09-2.63.47-2.68,2.54-.05,2.26,1,2.5,2.76,2.39a16.25,16.25,0,0,1,5.8.56c-3.12,1.49-6.4,1.11-9.66.77-.52-.05-1.2-12.71-.49-13.13,3.18-1.91,6.63-.48,10-.82,0,2.24-1.6,1.22-2.41,1.64-1.89,1-5.67-2.37-5.82,2.08s3.67,1.52,5.55,2.32C214.57,227.65,215.38,227.34,215.91,228.57Z" transform="translate(-10.18 -148.92)"/><path class="cls-7" d="M117.18,235.86a28,28,0,0,1-.83-13.68c.34-2,3.7-.73,5.67-.82a4.34,4.34,0,0,1,4.65,3.41,4.2,4.2,0,0,1-1.84,4.74,4.1,4.1,0,0,1-2.28.94C119,230.29,116.38,230.92,117.18,235.86Z" transform="translate(-10.18 -148.92)"/><path class="cls-8" d="M156.8,221.45c.13,3.84,1,7.74-.74,11.49-1,2.23-3.19,3-5.63,2.8s-4.49-1.44-5-3.78a29.38,29.38,0,0,1,.17-11.41c1.92,3.15,1.07,5.77,1.17,8.22.11,3,.71,5.36,4.36,5.26,3.39-.08,4.05-2.41,4.08-5.16,0-2.48,0-5,0-7.44Z" transform="translate(-10.18 -148.92)"/><path class="cls-9" d="M180.6,222.9c2.53.16,5-.25,5.06,2.56.1,3-2.38,2.8-4.49,3s-3.24-.13-3.24-2.78S179.13,222.63,180.6,222.9Z" transform="translate(-10.18 -148.92)"/><path class="cls-10" d="M117.81,225.84c-.64-3,1.19-3,3.15-2.9s4.16.43,4,3.05-2.39,2.84-4.6,3C117.58,229.21,117.4,227.72,117.81,225.84Z" transform="translate(-10.18 -148.92)"/><polygon class="cls-11" points="73.6 10.83 66.32 30.08 80.82 30.08 73.6 10.83"/></svg>