<svg id="Layer_1" data-name="Layer 1" xmlns="http://www.w3.org/2000/svg" viewBox="0 0 349.64 34.72"><defs><style>.cls-1{fill:#1c1c1b;}.cls-2{fill:#fefefe;}.cls-3{fill:#fdfdfd;}</style></defs><title>VERO MODA</title><path class="cls-1" d="M193.15,186.55l-3.8,13.77c-.9,3.28-1.83,6.55-2.67,9.85-.25,1-.65,1.38-1.7,1.32-1.6-.08-3.22-.07-4.82,0-1.15,0-1.41-.2-1.06-1.4,2.07-7.21,4.06-14.44,6.07-21.66.74-2.66,1.53-5.3,2.21-8,.28-1.07.67-1.59,1.92-1.55,2.82.11,5.65.1,8.48,0,1.13,0,1.55.38,1.86,1.4,1.82,5.87,3.71,11.72,5.58,17.61.78-.39.76-1.19,1-1.8,2-5.22,3.91-10.44,5.79-15.69a1.81,1.81,0,0,1,2.06-1.44c2.57.1,5.14.08,7.71,0a1.52,1.52,0,0,1,1.75,1.28q4.62,14.88,9.33,29.73c.39,1.21.22,1.56-1.09,1.48-2-.12-4.37.58-5.85-.3s-1.49-3.51-2.1-5.39c-2-6.27-4-12.56-6.15-19.25-1.43,3.6-2.71,6.84-4,10.09-1.75,4.47-3.51,8.94-5.2,13.43a1.88,1.88,0,0,1-2.11,1.43c-4.78,0-4.79,0-6.33-4.52C197.79,200.36,195.57,193.73,193.15,186.55Z" transform="translate(-5.18 -177.64)"/><path class="cls-1" d="M119.62,211.47c-2.84,0-5.27-.05-7.7,0-1,0-1.35-.55-1.8-1.18-2.77-3.86-5.57-7.69-8.3-11.58a2.46,2.46,0,0,0-2.35-1.26c-1.92.09-3.86.09-5.78,0-1.14,0-1.39.38-1.37,1.43.05,3.66,0,7.33.05,11,0,1.32-.41,1.66-1.64,1.59a48.46,48.46,0,0,0-5.39,0c-1.26.07-1.47-.42-1.47-1.55q.06-14.83,0-29.69c0-1.21.34-1.49,1.51-1.48,7.13.06,14.26,0,21.4,0a12.83,12.83,0,0,1,5.25,1.05,8.2,8.2,0,0,1,2,13.93,9.92,9.92,0,0,1-2.92,1.82c-1.7.58-1.94,1.12-.81,2.65C113.44,202.49,116.38,206.85,119.62,211.47Z" transform="translate(-5.18 -177.64)"/><path class="cls-1" d="M281.9,195.18c0-4.89.05-9.77,0-14.65,0-1.28.21-1.78,1.64-1.76,6,.09,12.08,0,18.12,0,8.82.08,14.92,5.75,15.7,14.51a21.17,21.17,0,0,1-.51,7.65,13.87,13.87,0,0,1-12.89,10.19c-7,.32-14,.12-21,.2-1.31,0-1-.82-1-1.54Q281.9,202.51,281.9,195.18Z" transform="translate(-5.18 -177.64)"/><path class="cls-1" d="M236.67,195.16c0-11.09,8.33-18.44,19.82-17.42,5.05.44,9.82,1.72,13.4,5.57,4.7,5.07,5.18,11.18,3.46,17.51s-6.37,9.25-12.26,10.73a23.36,23.36,0,0,1-11.06.13C241.25,209.69,236.68,204.1,236.67,195.16Z" transform="translate(-5.18 -177.64)"/><path class="cls-1" d="M141.81,212.32a19.62,19.62,0,0,1-6.47-.79c-8-2.17-12.17-7.9-12.11-16.57,0-8.4,4.45-14.15,12.34-16.25a24.1,24.1,0,0,1,13.13.16c8.59,2.46,13.19,9.83,11.89,19-1.1,7.8-6.21,12.82-14.38,14.11A18.57,18.57,0,0,1,141.81,212.32Z" transform="translate(-5.18 -177.64)"/><path class="cls-1" d="M48,195.17c0-4.88,0-9.77,0-14.65,0-1.29.35-1.62,1.61-1.61q12,.08,24.1,0c1.31,0,1.94.27,1.72,1.68a5.67,5.67,0,0,0,0,1.54c.14,1.1-.29,1.41-1.38,1.4-5.21-.05-10.42,0-15.62-.05-1.36,0-1.8.34-1.72,1.71a48.46,48.46,0,0,1,0,5.39c0,1.1.31,1.44,1.41,1.42,3.73-.06,7.46,0,11.18-.05,1.26,0,1.62.31,1.62,1.59,0,4.13,0,4.13-4.06,4.13-2.82,0-5.66.08-8.48,0-1.4,0-1.74.43-1.67,1.74a38.63,38.63,0,0,1,0,5.59c-.15,1.65.56,1.88,2,1.86,4.94-.08,9.9,0,14.84-.07,1.53,0,2.13.4,1.89,1.92a6.11,6.11,0,0,0,0,1.54c.08.88-.19,1.28-1.16,1.28q-12.54,0-25.07,0c-1.22,0-1.13-.66-1.13-1.47Q48,202.59,48,195.17Z" transform="translate(-5.18 -177.64)"/><path class="cls-1" d="M338.13,178.82c5,0,5,0,6.68,4.66,3.23,8.78,6.44,17.56,9.76,26.3.59,1.57.11,1.74-1.22,1.63-.76-.06-1.54,0-2.31,0-4.28,0-4.28,0-5.77-4.1-1.13-3.12-1.13-3.14-4.47-3.16-3,0-6,.06-9.06,0a1.75,1.75,0,0,0-2,1.48c-.4,1.35-1.1,2.62-1.41,4-.36,1.61-1.25,1.9-2.74,1.87-4.56-.1-4.55,0-2.94-4.31,3.29-8.75,6.61-17.49,9.82-26.28.57-1.57,1.28-2.33,3-2A17.23,17.23,0,0,0,338.13,178.82Z" transform="translate(-5.18 -177.64)"/><path class="cls-1" d="M23.67,200.72c3.21-7,6.28-13.51,9.22-20.11a2.34,2.34,0,0,1,2.73-1.7,17.86,17.86,0,0,0,3.27,0c1.5-.11,2.08,0,1.23,1.77-3.57,7.31-7,14.7-10.5,22.05-1.16,2.44-2.4,4.83-3.43,7.32-.49,1.17-1.2,1.29-2.32,1.47-3.45.53-5.1-.86-6.44-4.1-3.7-9-7.84-17.84-11.89-26.7-.67-1.48-.47-1.83,1.13-1.73a53.25,53.25,0,0,0,5.79,0,2,2,0,0,1,2.3,1.46C17.63,187.1,20.58,193.71,23.67,200.72Z" transform="translate(-5.18 -177.64)"/><path class="cls-2" d="M98.38,192.35c-1.6-.16-4.49.94-5.7-.4-1.07-1.18-.16-4-.38-6.12s.51-2.47,2.41-2.37c3.07.17,6.16,0,9.24.06s4.76,1.38,5,3.72c.31,2.87-1.43,4.92-4.45,5.09C102.66,192.43,100.79,192.35,98.38,192.35Z" transform="translate(-5.18 -177.64)"/><path class="cls-2" d="M290.46,195.19c0-3.6.09-7.2,0-10.79-.06-1.6.49-2,1.95-1.87,1.92.11,3.85,0,5.78,0,5.22,0,7.92,2,9.2,7.15a19.68,19.68,0,0,1-1.07,13.53c-1.47,3.12-3.7,5-7.41,4.67a61.62,61.62,0,0,0-6.93,0c-1.2,0-1.53-.36-1.5-1.53C290.51,202.64,290.46,198.92,290.46,195.19Z" transform="translate(-5.18 -177.64)"/><path class="cls-2" d="M264.7,193.66c0,5.35-.79,8.8-3.05,11.78-3.32,4.39-8.33,4.56-12,.49-4.85-5.35-5.17-15.82-.66-21.49,3.31-4.16,8.17-4.38,11.75-.47A15.34,15.34,0,0,1,264.7,193.66Z" transform="translate(-5.18 -177.64)"/><path class="cls-2" d="M151.3,195.64A16,16,0,0,1,148,205.87c-3.21,4-8,4.15-11.52.48-5.14-5.31-5.54-16.2-.81-21.91,3.54-4.27,8.81-4.12,12.28.38C150.3,187.89,151.21,191.44,151.3,195.64Z" transform="translate(-5.18 -177.64)"/><path class="cls-3" d="M337.06,184.47c1.75,4.81,3.31,9.12,4.89,13.41.29.77.11,1-.71,1-3,0-6,0-9.16,0C333.71,194.16,335.29,189.59,337.06,184.47Z" transform="translate(-5.18 -177.64)"/></svg>