<svg id="Layer_1" data-name="Layer 1" xmlns="http://www.w3.org/2000/svg" viewBox="0 0 360 390"><defs><style>.cls-1{fill:#fefefe;}.cls-2{fill:#fdfdfd;}.cls-3{fill:#f5f5f5;}.cls-4{fill:#f4f4f4;}.cls-5{fill:#efefef;}.cls-6{fill:#f3f3f3;}.cls-7{fill:#f2f2f2;}.cls-8{fill:#e6e6e6;}.cls-9{fill:#dfdfdf;}.cls-10{fill:#020202;}.cls-11{fill:#050505;}</style></defs><title>vila</title><rect width="360" height="390"/><path class="cls-1" d="M283.45,200.85c4-9.17,7.8-17.89,11.61-26.61,4.53-10.34,9.13-20.65,13.57-31,.8-1.89,1.75-2.7,3.82-2.63,4.47.13,8.94.12,13.41,0a3.13,3.13,0,0,1,3.36,2.19q12.24,27.54,24.66,55c1,2.23,1.24,3.29-1.85,3.1a94.53,94.53,0,0,0-11.54,0c-2.21.12-3-.84-3.72-2.66-3.46-8.75-3.5-8.73-12.9-8.73-5.34,0-10.69.09-16,0-2-.05-3.52.33-3.85,2.45-1.3,8.24-6.52,10.19-13.93,9A44.54,44.54,0,0,0,283.45,200.85Z"/><path class="cls-2" d="M42.08,185.74C44.4,179.07,46.49,173,48.59,167c2.77-8,5.62-15.91,8.28-23.91.55-1.65,1.1-2.53,3-2.47,4,.12,7.95.06,11.92,0,1.6,0,2.62-.09,1.67,2.18q-11.76,27.93-23.25,56a2.79,2.79,0,0,1-3,2.05c-3.73-.07-7.46-.12-11.18,0a2.65,2.65,0,0,1-2.8-1.83c-9.67-19.26-19.38-38.51-29.39-58.38,5.66,0,10.8,0,15.94,0,1.95,0,2,1.66,2.5,2.78,5.89,12.72,11.71,25.47,17.57,38.2C40.38,182.81,41.09,183.93,42.08,185.74Z"/><path class="cls-2" d="M198,170.77c0-9.07.07-18.14,0-27.2,0-2.26.51-3.11,2.87-3a71.22,71.22,0,0,0,9.69,0c2.81-.21,3.55.72,3.52,3.52-.16,13.79,0,27.58-.18,41.36,0,3.25.63,4.48,4.23,4.38,9.55-.29,19.13,0,28.69-.14,2.42,0,3.51.4,3.48,3.22-.09,7.87.05,7.87-8,7.87-13.67,0-27.33-.06-41,.08-2.59,0-3.38-.63-3.32-3.3.17-8.93.06-17.88.06-26.82Z"/><path class="cls-1" d="M121.67,170.73c0-9.08.08-18.16,0-27.23,0-2.23.44-3.07,2.84-2.91,3.46.23,7,.13,10.44,0,1.78-.05,2.64.22,2.63,2.37q-.12,27.79,0,55.58c0,1.79-.44,2.4-2.27,2.32a105.54,105.54,0,0,0-10.82,0c-2.41.15-2.86-.73-2.83-2.93C121.74,188.88,121.67,179.8,121.67,170.73Z"/><path class="cls-3" d="M148.31,235.85c-.05,5.05-3.47,8.46-8.36,8.33-4.29-.11-7.53-3.76-7.5-8.45s3.78-8.53,8.06-8.46C145.07,227.35,148.36,231,148.31,235.85Z"/><path class="cls-4" d="M213.94,236.09c0,2,0,4,0,6,0,1.22-.4,1.87-1.68,1.89s-1.7-.72-1.65-1.89c0-.87-.1-1.76,0-2.61.29-2.18-.67-2.72-2.74-2.71s-2.46.57-2.62,2.5c-.13,1.59,1.65,4.69-1.73,4.54-3.06-.14-1.39-3.09-1.53-4.73-.26-3.09,0-6.21,0-9.32,0-1.05,0-2,1.5-2s1.74.79,1.94,2.07-1.27,3.51,1.28,4,4.52.26,4-3.24c-.18-1.21-.57-3,1.74-2.82,2,.12,1.47,1.64,1.5,2.78C214,232.35,213.94,234.22,213.94,236.09Z"/><path class="cls-5" d="M239,236v-2.61c0-6.29,0-6.26,6.36-5.73,1.1.09,2,.13,2,1.53s-.88,1.42-1.94,1.54-3-.93-3.09,1.44,1.71,1.64,2.93,1.67,2,0,2.07,1.45-.78,1.49-1.89,1.57c-1.27.08-3.1-.85-3.19,1.78s1.62,2,3,2,2.17.3,2.12,1.83c0,1.37-.92,1.46-2,1.57-6.16.65-6.34.51-6.33-5.77Z"/><path class="cls-6" d="M278.54,227.31a21,21,0,0,1,2.18.68c.78.31,1.83.68,1.41,1.79-.35.9-1,1.84-2.26.92a1.71,1.71,0,0,0-2.8.61c-.71,1.42.61,1.92,1.62,2.37,1.61.72,3.27,1.45,3.92,3.22a5.2,5.2,0,0,1-1.75,6.35c-2.25,1.66-4.7,1.32-6.83-.46-.69-.58-1.69-1.28-.66-2.46.89-1,1.46-1.34,2.52,0s2.48,1.15,3.34-.41-.33-2.41-1.43-2.9c-1.5-.67-3.1-1.16-3.92-2.66a4.48,4.48,0,0,1,0-4.62A5,5,0,0,1,278.54,227.31Z"/><path class="cls-7" d="M80.65,231.77c-2.47-1.41-4.74-1.8-6.49.53a5.45,5.45,0,0,0-.08,6.91c1.84,2.53,4.23,1.85,6.58.64.31,3.88-1.44,5.21-5.32,4.18s-6.43-5.16-5.8-9.6a8.36,8.36,0,0,1,7.83-7.16C80.18,227.22,80.87,228.07,80.65,231.77Z"/><path class="cls-8" d="M173.69,227.67a11.74,11.74,0,0,1,2.22,0c1.15.23,3-.88,3.23,1.33.21,2-1.34,1.65-2.53,1.69-1.63.06-1.15,1.31-1.17,2.18,0,3-.05,5.93,0,8.89,0,1.31-.26,2.1-1.79,2.16s-1.79-.88-1.78-2.11c0-3,0-5.93,0-8.89,0-1.36,0-2.51-1.88-2.26-1.18.16-1.89-.32-1.8-1.65s1.11-1.37,2.13-1.35,2.22,0,3.33,0Z"/><path class="cls-9" d="M107.7,234.3a31.17,31.17,0,0,1,0,3.35c-.26,2.22.48,3.26,2.86,3,1.32-.14,2.92-.32,2.78,1.87-.12,2-1.65,1.53-2.79,1.51-7.56-.1-6.18.95-6.26-6.27,0-2.73,0-5.47,0-8.21,0-1.16.3-1.87,1.65-1.88s1.79.56,1.77,1.79c0,1.62,0,3.23,0,4.85Z"/><path class="cls-10" d="M318.83,153.34c3.29,8.35,6.17,15.83,9.21,23.24.85,2.07.06,2.32-1.69,2.31-4.84,0-9.68,0-14.52,0-1.08,0-2.59.15-1.92-1.67C312.73,169.5,315.65,161.81,318.83,153.34Z"/><path class="cls-11" d="M140.63,230.69c2.7.1,4.51,2.3,4.36,5.36-.14,2.9-1.7,4.67-4.57,4.88-2.65.19-4.61-2.21-4.57-5.22A4.84,4.84,0,0,1,140.63,230.69Z"/></svg>