<svg id="Layer_1" data-name="Layer 1" xmlns="http://www.w3.org/2000/svg" viewBox="0 0 337.13 134.55"><defs><style>.cls-1{fill:#676b6b;}.cls-2,.cls-4{fill:#656969;}.cls-3{fill:#fefefe;}.cls-4{font-size:22.09px;font-family:Corbel, Corbel;}.cls-5{letter-spacing:-0.04em;}.cls-6{letter-spacing:-0.04em;}.cls-7{letter-spacing:0em;}</style></defs><title>YAYA</title><path class="cls-1" d="M97.09,237.58c3.91-11.75,7.53-22.65,11.16-33.54q11.58-34.72,23.15-69.47a3.16,3.16,0,0,1,.21-.68q1.69-3.09,3.42-6.16c2,1.46,2.88,3.63,3.62,5.88Q154.83,182.95,171,232.3c.5,1.54,1,3.19-.61,5.46-4.48-5.95-5.32-13-7.47-19.41-5.55-16.44-5.28-16.53-22.24-16.53-7.86,0-15.73.16-23.58-.08-3.74-.11-5.34,1.17-6.42,4.85-2.73,9.29-6.07,18.41-9.14,27.61C101.1,235.57,100.69,236.92,97.09,237.58Z" transform="translate(-11.43 -127.73)"/><path class="cls-1" d="M348.57,236.92c-4.91-2.78-5.07-7.7-6.69-11.9-2.88-7.47-3.45-17.26-8.68-22-4.84-4.34-14.59-.95-22.17-1.23-3.09-.12-6.19,0-9.28,0-13.17,0-13.14,0-17.14,12.85-2.4,7.73-4.47,15.59-8.27,23.31-2.65-2.66-1.24-4.61-.62-6.48q16.2-48.51,32.51-97c.71-2.09.87-5.36,3.72-5.48,3.09-.13,3.09,3.28,3.76,5.31q15.81,47.87,31.35,95.81C347.77,232.35,348.07,234.67,348.57,236.92Z" transform="translate(-11.43 -127.73)"/><path class="cls-2" d="M222.78,236.93c0-7.23-.82-14.57.16-21.67,2.51-18.17-4.38-33.11-13.91-47.76a305,305,0,0,1-20.83-38.36c13.62,17.89,23.57,38.11,36.07,58.08,11.88-20.16,23.33-39.63,34.79-59.09l2.28,1.33c-3.12,5.76-6.09,11.62-9.39,17.28-7.73,13.27-15.59,26.45-23.44,39.64a20.12,20.12,0,0,0-2.83,10.83c.12,11,.1,21.92,0,32.88C225.65,232.34,226.55,234.84,222.78,236.93Z" transform="translate(-11.43 -127.73)"/><path class="cls-2" d="M45.86,236.85c0-7.73-.84-15.57.17-23.17C48.33,196.27,41.64,182,32.62,168a338.65,338.65,0,0,1-21.19-38.78c13.82,17.78,23.63,38.1,36.15,58.14,11.86-20.16,23.27-39.56,34.69-59l1.88,1.1c-1.28,6.41-5.73,11.39-8.76,16.91C68,159.83,60,172.91,52.12,186.07a22,22,0,0,0-3.38,12.08c.19,10.71.12,21.42,0,32.13C48.73,232.49,49.61,235,45.86,236.85Z" transform="translate(-11.43 -127.73)"/><path class="cls-3" d="M135.18,133c7.17,22.31,13.93,43.38,20.55,64-12.14,0-23.63-.15-35.12.07-4.74.09-6.88-.13-4.78-6C122.47,172.25,128.46,153.29,135.18,133Z" transform="translate(-11.43 -127.73)"/><path class="cls-3" d="M312.08,132.81c6.56,20.78,12.3,39.79,18.66,58.6,1.73,5.11.21,5.64-4.12,5.58-10.48-.15-21-.12-31.44,0-3.09,0-4.38-.57-3.21-4C298.55,173.52,305,154,312.08,132.81Z" transform="translate(-11.43 -127.73)"/><text class="cls-4" transform="translate(33.61 129.26)">BRAND<tspan class="cls-5" x="70.42" y="0"> </tspan><tspan x="73.98" y="0">OF</tspan><tspan class="cls-6" x="101.25" y="0"> </tspan><tspan x="104.81" y="0">QUALITY</tspan><tspan class="cls-6" x="192.32" y="0"> </tspan><tspan class="cls-7" x="195.88" y="0">GOODS</tspan></text></svg>