<svg id="Layer_1" data-name="Layer 1" xmlns="http://www.w3.org/2000/svg" viewBox="0 0 342.16 65.15"><defs><style>.cls-1{fill:#9b9b9b;}.cls-2{fill:#9c9c9c;}.cls-3{fill:#a6a6a6;}.cls-4{fill:#aeaeae;}.cls-5{fill:#fefefe;}.cls-6{fill:#fbfbfb;}.cls-7{fill:#f4f4f4;}</style></defs><title>YOU YOUNG</title><path class="cls-1" d="M339.18,190c-8.5,6.2-18.35,6-23.73-.11-5.19-5.91-5-17.35,0-23.09,4.23-4.93,17.38-6.35,23.1-.27,1.5-2.92,8-4.88,11.14-3.42a1.65,1.65,0,0,1,1.09,1.68c-.05,1.36-1,1.75-2.08,1.62-3.22-.38-3.47,1.48-3.43,4q.13,10.69,0,21.4c-.08,8-3.11,11.73-11,13.32-5.8,1.18-11.62,1.2-16.9-2-1.77-1.09-4.19-3.08-2.57-5,1.12-1.33,4.13-1.15,6.13,1,3.25,3.48,9.16,4.11,13.72,2C339.36,198.85,339.72,194.83,339.18,190Z" transform="translate(-8.92 -162.43)"/><path class="cls-2" d="M167,189.55l7.69-20.14c.83-2.18-.49-2.49-2.18-2.48-1.46,0-2.7-.35-2.57-2.15s1.55-1.82,2.9-1.82c3.34,0,6.69,0,10,0,1.1,0,2,.33,2.22,1.61s-.29,2.18-1.5,2.2c-2.39,0-2.65,1.92-3.3,3.47-4.15,9.76-8.31,19.51-12.4,29.3-1.77,4.24-5,6.24-9.42,6.62a14,14,0,0,1-3-.23c-1.29-.16-2.19-.72-2.1-2.23.11-1.69,1.25-1.56,2.48-1.63,6.8-.43,9.06-4.2,6.36-10.48s-5.41-12.86-8.3-19.2c-1.06-2.33-1.19-5.59-4.94-5.85-.94-.06-1.08-1.26-.87-2.17.28-1.26,1.32-1.42,2.37-1.43,3.63,0,7.27,0,10.91,0,1.34,0,2.24.41,2.25,2s-.84,2.11-2.2,2c-3.51-.32-3,1.49-2.07,3.68C161.78,176.49,164.14,182.42,167,189.55Z" transform="translate(-8.92 -162.43)"/><path class="cls-2" d="M281,167.4c3.82-5.92,9.42-5.15,14.75-4.61,4.23.43,7.27,4.27,7.41,9,.15,5.09.1,10.19,0,15.29,0,2.29.14,4.11,3.18,3.75,1.3-.15,2.33.31,2.25,1.92s-1.34,1.65-2.52,1.66c-3.78,0-7.57,0-11.36,0-1.28,0-2.77.2-2.74-1.84,0-1.66,1.18-1.86,2.4-1.75,2.7.26,3.11-1.24,3.06-3.47-.1-4.51,0-9,0-13.54,0-3.65-1-6.7-5.07-7.57-4.76-1-8.69.58-10.29,4.5-2.46,6-1.14,12.37-1.13,18.57,0,2.12,2.18,1.37,3.5,1.48s2.29.42,2.17,2c-.1,1.37-1,1.6-2.13,1.6H271.81c-1.21,0-2.39-.06-2.42-1.75s1.05-2,2.3-1.84c3.31.45,3.84-1.26,3.75-4.09-.18-5.38-.12-10.78,0-16.16.05-2.48-.17-4.41-3.4-4.12-1.11.09-2.53.21-2.52-1.56S271,163,272.31,163s2.93.14,4.36,0C279.86,162.52,281.5,163.56,281,167.4Z" transform="translate(-8.92 -162.43)"/><path class="cls-1" d="M27.43,189.86c2.92-7.67,5.35-14.16,7.88-20.62.82-2.09-.39-2.16-1.85-2.22-1.26-.05-2.86.25-2.83-1.76,0-2.35,1.91-1.73,3.23-1.77,2.9-.08,5.82-.05,8.73,0,1.11,0,2.49-.25,2.65,1.46a1.72,1.72,0,0,1-1.7,2.08c-2.29.22-2.48,2.23-3.12,3.76-4.17,9.91-8.14,19.92-12.47,29.76-2.23,5.05-6,6.76-11.36,6.06-1.48-.2-2.46-.57-2.46-2.33,0-2.15,1.27-1.61,2.65-1.59,5.54.09,8.49-4.57,6.31-9.71-3-7.1-5.91-14.24-9-21.3-.86-2-1-4.74-4.23-4.81-.9,0-.95-1-.95-1.7a1.46,1.46,0,0,1,1.58-1.64c4.08,0,8.15,0,12.23,0a1.45,1.45,0,0,1,1.52,1.71,1.71,1.71,0,0,1-2,1.76c-4.34-.46-3,1.84-2.11,4.09C22.44,177,24.71,182.86,27.43,189.86Z" transform="translate(-8.92 -162.43)"/><path class="cls-2" d="M253.29,190c-4.25,5.48-9.42,5.7-14.93,4.22-4.3-1.17-6.62-4-6.66-8.59,0-4.95-.12-9.9,0-14.85,0-2.63-.15-4.74-3.63-4.35-1.05.11-2.14-.11-2.17-1.51s1-1.94,2.32-2c.29,0,.58,0,.87,0,8-.43,8-.43,8,7.62,0,4.37-.15,8.74.07,13.1.19,3.69,1.38,6.92,5.71,7.67,4.1.71,8.52-1.56,9.85-5.51,1.94-5.8.78-11.85.84-17.79,0-2.16-2.11-1.43-3.44-1.56-1.15-.12-2.49.05-2.44-1.69s1.25-1.68,2.45-1.83c8.77-1.15,9.39-.62,9.39,8.16,0,5.38.06,10.78,0,16.16,0,2.2.31,3.76,3,3.51,1.19-.11,2.4,0,2.46,1.7.07,2-1.41,1.86-2.71,1.89s-2.91,0-4.37,0C254.08,194.36,254.08,194.35,253.29,190Z" transform="translate(-8.92 -162.43)"/><path class="cls-2" d="M113.18,189.82a12.22,12.22,0,0,1-9.8,5.14c-8.19.23-12.14-3.5-12.22-11.7,0-4.36-.1-8.73,0-13.09.06-2.37-.27-4-3.23-3.75-1.25.12-2.37-.27-2.22-1.91.13-1.36,1.16-1.39,2.21-1.54,8.2-1.18,9-.49,9,7.6,0,4.22,0,8.44,0,12.66,0,4,1.14,7.26,5.57,8.12a9.2,9.2,0,0,0,10.08-5.91c1.71-5.53.85-11.26.86-16.91,0-2.39-2-2-3.56-2.08-1.21,0-2.43-.09-2.4-1.77s1.29-1.6,2.47-1.72c8.68-.93,9-.67,9,8.1,0,5.24.07,10.48,0,15.71,0,2.46.1,4.41,3.37,4,1.48-.17,2.68.39,2.52,2.15s-1.59,1.39-2.7,1.42c-1.45.05-2.9,0-4.36,0C113.94,194.36,113.94,194.36,113.18,189.82Z" transform="translate(-8.92 -162.43)"/><path class="cls-1" d="M205.87,162.56c10.54,0,16.36,5.66,16.38,15.95S215.82,195,205.56,195c-10.08,0-16.67-6.54-16.71-16.6S195,162.56,205.87,162.56Z" transform="translate(-8.92 -162.43)"/><path class="cls-1" d="M65.12,162.56c10.89,0,16.52,5.5,16.49,16.15,0,10-6.61,16.28-16.91,16.23C54.64,194.9,48,188.31,48,178.32,48,168.12,54.06,162.57,65.12,162.56Z" transform="translate(-8.92 -162.43)"/><path class="cls-3" d="M331.37,218.68c1.33.64,2.07,1.65,1.67,3.14s-1.86,1-2.91,1.17c-1.47.3-3.24-.82-4.35.87-.16.23.29,1.09.67,1.41,1.63,1.43,3.33,1.59,5.06,0,.27-.24.75-.24,1.88-.56-1.61,3.08-3.9,2.82-6,2.62-2.33-.23-3.58-1.79-3.86-4-.32-2.53.35-4.73,2.93-5.69,1.77-.67,3.9-1.87,5,1.08-.85,1-2.27.86-3.32,1.56A4.09,4.09,0,0,0,331.37,218.68Z" transform="translate(-8.92 -162.43)"/><path class="cls-4" d="M315.81,225.3c1.56-2.43,2.61-4.16,2.22-6.28-.17-.9-.67-1.75.7-1.88a3.91,3.91,0,0,1,2.48.34c.69.51-.2,1.21-.48,1.83-1,2.11-1.78,4.29-2.81,6.37-1.24,2.51-2.73,2.52-3.91,0s-2.2-5.3-3.39-8.21c2.26-.46,4.29-1.45,3.47,2.55C313.79,221.39,315.05,223.12,315.81,225.3Z" transform="translate(-8.92 -162.43)"/><path class="cls-3" d="M302,217c4.65,0,6.76,1.58,6.85,5.15s-1.47,5.41-5.18,5.39-5.54-1.85-5.46-5.25C298.29,219.3,299.92,217.18,302,217Z" transform="translate(-8.92 -162.43)"/><path class="cls-4" d="M296.06,224c-.63,3.66-3.21,4.11-5.91,3.11a4.83,4.83,0,0,1-3-6.05c.64-2.62,2.29-4.39,5.29-4.16a14.64,14.64,0,0,1,3.81.59c1.18.42,1.19,1.63.67,2.58-.64,1.18-1.39.65-2-.16-1.4-2-3.17-2.15-4.72-.47a4.08,4.08,0,0,0-.15,5.26c1.22,1.67,3,1.4,4.64.25Z" transform="translate(-8.92 -162.43)"/><path class="cls-4" d="M351.08,227.4H346a12,12,0,0,0,1.13-7.84c-.1-.81-1.6-1.94.24-2.34s2.21.91,2.29,2.38C349.79,222.12,349.18,224.74,351.08,227.4Z" transform="translate(-8.92 -162.43)"/><path class="cls-4" d="M341.81,227.35h-5.48a10.23,10.23,0,0,0,.78-8.33c-.19-.56-1.39-1-.46-1.67a1.74,1.74,0,0,1,2.37.29,3.34,3.34,0,0,1,.84,3.58C339.1,223.38,339.23,225.47,341.81,227.35Z" transform="translate(-8.92 -162.43)"/><path class="cls-5" d="M339.4,178.84c0,7.61-4.22,12.11-11.21,12.07-6.33,0-10.72-5.14-10.61-12.31.12-7.57,4.51-12.47,11.09-12.39S339.44,171.33,339.4,178.84Z" transform="translate(-8.92 -162.43)"/><path class="cls-5" d="M216.18,178.17c.14,5.12-1.07,9.55-6.07,12.09a9.85,9.85,0,0,1-11.69-1.62c-3.7-3.43-4.88-11.87-2.41-17.14,1.86-4,6-5.9,11.42-5.38C213,166.67,216.15,171,216.18,178.17Z" transform="translate(-8.92 -162.43)"/><path class="cls-5" d="M75.49,178.27c0,6.71-2.08,10.41-6.94,12.32a10.64,10.64,0,0,1-11.84-3c-3.08-3.42-3.83-11.55-1.49-16.09q3.21-6.21,11.85-5.35C72.59,166.67,75.49,170.86,75.49,178.27Z" transform="translate(-8.92 -162.43)"/><path class="cls-6" d="M331.37,218.68c0,5-3.47,1.86-5.63,2.76,1-3.74,3.56-2.69,5.69-2.71Z" transform="translate(-8.92 -162.43)"/><path class="cls-7" d="M307,222.27c-.11,2.21-.95,4.12-3.4,4.08s-3.59-1.71-3.57-4,1.25-3.76,3.73-3.74S307,220.1,307,222.27Z" transform="translate(-8.92 -162.43)"/></svg>