<?xml version="1.0" encoding="utf-8"?>
<!-- Generator: Adobe Illustrator 21.1.0, SVG Export Plug-In . SVG Version: 6.00 Build 0)  -->
<svg version="1.1" id="Layer_1" xmlns="http://www.w3.org/2000/svg" xmlns:xlink="http://www.w3.org/1999/xlink" x="0px" y="0px"
	 viewBox="0 0 900 596" style="enable-background:new 0 0 900 596;" xml:space="preserve">
<style type="text/css">
	.st0{fill:#FEFEFE;}
</style>
<g>
	<path d="M450.6,0.7c149.2,0,298.3,0,447.5-0.1c2.1,0,2.6,0.6,2.6,3.2c-0.1,196.6-0.1,393.2,0,589.7c0,2.6-0.5,3.2-2.6,3.2
		c-298.3-0.1-596.6-0.1-894.9,0c-2.1,0-2.6-0.6-2.6-3.2C0.6,397,0.6,200.4,0.5,3.8c0-2.6,0.5-3.2,2.6-3.2
		C152.3,0.7,301.4,0.7,450.6,0.7z"/>
	<path class="st0" d="M579.8,359.8c6.2-29,12.4-58.1,18.6-87.1c3.5-16.2,6.9-32.4,10.3-48.6c0.4-1.9,1-2.8,2.8-2.7
		c6.5,0.2,12.9,0.1,19.4,0c1.5,0,2.1,0.6,2.4,2.4c3.7,28.6,7.5,57.1,11.3,85.7c0.1,0.9,0,1.8,0.9,2.8c2.6-14.5,5.1-28.8,7.6-43.1
		c2.7-15.1,5.3-30.3,8-45.4c0.3-1.6,0.7-2.5,2.3-2.5c7.6,0.1,15.2,0.2,22.8,0c2.1,0,1.9,1,1.5,2.9c-8.7,41-17.3,82.1-26,123.1
		c-1.8,8.4-3.6,16.8-5.2,25.2c-0.4,2-0.9,2.9-2.7,2.8c-6.6-0.2-13.1-0.1-19.7,0c-1.7,0-2.2-0.6-2.4-2.7c-3.3-28.7-6.6-57.3-10-86
		c-0.2-1.7,0-3.5-1-5.6c-1.5,8.4-2.8,16.4-4.2,24.4c-3.9,22.4-7.8,44.8-11.6,67.2c-0.4,2.3-1.1,2.6-2.7,2.6
		c-15.7-0.1-31.5-0.1-47.2,0c-1.7,0-2.2-0.4-2.2-2.6c0.2-8,0.2-16,0.4-24c0.1-2.1-0.3-2.7-2.1-2.7c-7.2,0.1-14.4,0.1-21.7,0
		c-1.5,0-2.1,0.7-2.7,2.2c-3,8.2-6.1,16.4-9.1,24.6c-0.6,1.6-1.2,2.5-2.8,2.5c-24.7-0.1-49.5,0-74.2,0c-0.4,0-0.7-0.1-1.3-0.1
		c2.5-11.3,4.9-22.6,7.4-33.8c8.6-39,17.2-78.1,25.7-117.1c0.5-2.3,1.2-2.9,3-2.8c7.4,0.1,14.8,0.2,22.2,0c2.2-0.1,2.6,0.5,2,3.2
		c-7.7,34.6-15.2,69.1-22.8,103.7c-1.2,5.6-2.4,11.1-3.7,17c8.4,0,16.5-0.1,24.6,0.1c1.1,0,2.4-0.9,3.6,0.8c0.4,0.6,0.8-1,1.1-1.6
		c5.3-12,10.6-24,15.8-36c12.4-28.2,24.7-56.3,37-84.5c0.8-1.8,1.6-2.7,3.4-2.6c6.7,0.2,13.5,0.1,20.2,0c1.8,0,2.3,0.5,2.3,2.8
		c-0.6,40.7-1.1,81.4-1.6,122.1c-0.1,4.5,0,9,0,13.5C579.6,359.9,579.7,359.8,579.8,359.8z"/>
	<path class="st0" d="M338.2,272c-1.7,6.7-3.4,13.3-5.1,20c-6.9,26.9-13.8,53.7-20.6,80.6c-0.6,2.3-1.3,2.8-3.1,2.8
		c-8.2-0.1-16.3,0-24.8,0c2.3-7.7,4.4-15.1,6.6-22.6c12.6-42.8,25.3-85.5,37.8-128.3c0.7-2.3,1.5-3.1,3.5-3.1
		c7.2,0.2,14.4,0.1,21.7,0c1.9,0,2.3,0.6,2.2,2.9c-0.6,28.2-1,56.4-1.5,84.5c0,0.7,0,1.4,0,2.2c1-0.2,1-1.3,1.3-2
		c9.9-28.2,19.9-56.4,29.7-84.6c0.8-2.4,1.8-3.1,3.9-3.1c7.6,0.2,15.2,0.1,22.8,0c1.9,0,2.4,0.5,2.1,2.9
		c-2.2,21.3-4.4,42.5-6.5,63.8c-2,19.4-3.9,38.9-5.8,58.3c-0.9,9.1-1.9,18.2-2.7,27.2c-0.1,1.3-0.4,1.8-1.5,1.8
		c-7.7,0-15.4-0.1-23.1,0c-1.8,0-1.4-1.3-1.2-2.4c2.1-16.3,4.3-32.7,6.4-49c2.2-16.6,4.2-33.1,6-49.9c-2.7,8-5.4,16.1-8,24.1
		c-8.3,25-16.6,50-24.9,75.1c-0.5,1.6-1.2,2.2-2.6,2.2c-5.2-0.1-10.5-0.1-15.7,0c-1.3,0-2-0.2-1.8-2.2c1.1-19.1,2.2-38.2,3.3-57.3
		c0.8-14.6,1.7-29.1,2.5-43.7C338.4,272.1,338.3,272,338.2,272z"/>
	<path class="st0" d="M760.6,266c-1.1,28.1-5.9,55-17.5,79.6c-6,12.7-13.7,23.2-25.1,28.6c-9,4.3-18.2,4.4-27.2,0.7
		c-10.9-4.4-15.9-14.9-18-28.1c-2.4-15.7-0.8-31.2,1.7-46.6c3-18.1,7.6-35.5,15.7-51.3c6-11.7,13.5-21.4,24.2-26.5
		c9-4.2,18.2-4.3,27.2-0.6c10.8,4.4,15.7,14.8,17.8,27.9C760.2,255.1,760.6,260.5,760.6,266z"/>
	<path class="st0" d="M278.4,260.1c-0.3,14.8-3,29.1-6.2,43.3c-4.3,19.2-10.1,37.6-19.1,54.5c-8.5,16-20.5,21.2-35.1,19.2
		c-17-2.3-25.7-14.9-26.2-37.1c-0.3-14.3,2.2-28.1,5.1-41.7c4.4-20.9,10.3-41,20-59.2c8.7-16.4,21-21.3,35.9-19.3
		c17.4,2.4,24.6,16.5,25.5,36.9C278.5,257.7,278.4,258.9,278.4,260.1z"/>
	<path class="st0" d="M400.9,375.3c6.4-29.2,12.7-57.8,19-86.5c4.7-21.6,9.5-43.3,14.3-64.9c0.3-1.2,0.1-2.5,1.7-2.5
		c8.6,0.1,17.2,0,26,0c-4.3,19.7-8.6,39.1-12.9,58.5c-6.8,30.9-13.6,61.8-20.3,92.7c-0.5,2.1-1.1,2.7-2.8,2.7
		C417.7,375.2,409.4,375.3,400.9,375.3z"/>
	<path class="st0" d="M196.9,221.4c-4.6,22.3-9.1,44.2-13.6,66.2c-5.8,27.9-11.6,55.7-17.3,83.7c-0.6,3.1-1.4,4.3-4.2,4.1
		c-7.1-0.3-14.2-0.1-21.7-0.1c8.2-39.9,16.4-79.6,24.7-119.8c-4.9,3.6-9.5,6.9-15,9c1.7-8.6,3.4-16.8,5.1-25
		c0.2-1.2,1.1-1.5,1.9-1.9c7.3-3.8,14-8.9,20.2-14.9c0.8-0.7,1.4-1.3,2.5-1.3C185.1,221.4,190.8,221.4,196.9,221.4z"/>
	<path d="M556.3,272.5c-0.7,16.2-1.4,32.4-2.1,48.6c0,1.1,0,2-1.3,2c-5.2-0.1-10.4,0-16.1,0c6.4-17.2,12.6-34.1,18.8-50.9
		C555.8,272.3,556.1,272.4,556.3,272.5z"/>
	<path d="M734.1,265.7c-1.6,22.1-4.8,43.7-12.4,64c-2,5.4-4.5,10.4-8.3,14.3c-2.3,2.3-4.8,3.6-7.7,3.2c-4.5-0.6-7.3-5-7.6-11.9
		c-0.4-10.4,1.2-20.5,2.8-30.6c2.1-13.1,4.8-25.9,9.5-37.9c2-5.1,4.3-10,7.9-13.8c3.1-3.2,6.7-4.8,10.6-2.7c3.7,2,4.7,6.3,5.1,10.8
		C734.2,262.6,734.1,264.2,734.1,265.7z"/>
	<path d="M216.9,336c2.6-25.1,6.8-49.7,15.4-72.8c1.7-4.5,3.8-8.8,6.6-12.4c2.7-3.4,5.9-4.9,9.7-3.2c3.6,1.6,4.6,5.5,4.7,9.8
		c0.2,8.2-1.2,16.1-2.5,24.1c-2.9,18-6.5,35.9-13.1,52.5c-1.6,4.1-3.5,8-6,11.3c-2.7,3.7-6,5.7-10.1,3.9c-4-1.8-4.7-6.1-4.9-10.7
		C216.8,337.6,216.9,336.8,216.9,336z"/>
</g>
</svg>
