<?xml version="1.0" encoding="utf-8"?>
<!-- Generator: Adobe Illustrator 21.1.0, SVG Export Plug-In . SVG Version: 6.00 Build 0)  -->
<svg version="1.1" id="Layer_1" xmlns="http://www.w3.org/2000/svg" xmlns:xlink="http://www.w3.org/1999/xlink" x="0px" y="0px"
	 viewBox="0 0 700 965" style="enable-background:new 0 0 700 965;" xml:space="preserve">
<style type="text/css">
	.st0{fill:#FDFDFD;}
	.st1{fill:#ED3B94;}
	.st2{fill:#ED3B95;}
	.st3{fill:#ED3B96;}
	.st4{fill:#EC3B96;}
	.st5{fill:#EC3C94;}
	.st6{fill:#EC3B95;}
	.st7{fill:#EE3996;}
	.st8{fill:#C45488;}
	.st9{fill:#A95582;}
	.st10{fill:#B95487;}
	.st11{fill:#B65687;}
	.st12{fill:#BD528A;}
	.st13{fill:#AC5986;}
	.st14{fill:#B54C80;}
	.st15{fill:#AE5383;}
	.st16{fill:#AC4C7C;}
	.st17{fill:#B65B89;}
	.st18{fill:#B1497B;}
	.st19{fill:#AD648B;}
	.st20{fill:#B3547D;}
	.st21{fill:#A75884;}
	.st22{fill:#FAFBFD;}
	.st23{fill:#FBFBFC;}
	.st24{fill:#FCFDFD;}
	.st25{fill:#AE5E8D;}
	.st26{fill:#FAFAFD;}
	.st27{fill:#F9F8FC;}
	.st28{fill:#F8F6F9;}
	.st29{fill:#F9F6FA;}
	.st30{fill:#FCFBFC;}
	.st31{fill:#FAFBFC;}
	.st32{fill:#AE628D;}
	.st33{fill:#FAFAFC;}
	.st34{fill:#F7F1FB;}
</style>
<g>
	<path class="st0" d="M350.5,263.8c115.8,0,231.6,0,347.3-0.1c2.4,0,2.8,0.6,2.8,2.9c-0.1,144-0.1,287.9,0,431.9
		c0,2.3-0.4,2.9-2.8,2.9c-231.5-0.1-462.9-0.1-694.4,0c-2.5,0-2.9-0.6-2.9-3c0.1-144,0.1-287.9,0-431.9c0-2.1,0.4-2.7,2.6-2.7
		C119,263.8,234.7,263.8,350.5,263.8z"/>
	<path class="st1" d="M474.3,377.6c0,10.7,0,21.4,0,32.1c0,0.4,0,0.8,0,1.2c-0.4,4.7-0.4,4.7,4.2,4.7c2,0,4.1,0.1,6.1,0
		c1.6-0.1,3.2,0.5,4.7-1.4c0.8-1.1,3-0.2,4.5-0.4c2-0.2,4.3,0.8,5.8-1.5c0.3-0.4,1.5-0.3,2.2-0.2c2.9,0.5,3.6-0.9,3.4-3.6
		c-0.5-10.7,0.4-21.3,0.6-32c0.2-11.2,1-22.4,1.1-33.7c0-3.9,1.5-5.7,3.2-4.3c2.4,1.8,5.3,0.5,7.5,2.3c1.2,0.9,3,0.5,4.6,1.2
		c3.1,1.4,2.4,3.4,2.6,5.5c0,0.5,0,1-0.1,1.5c-0.2,10,0,19.9-0.1,29.9c0-2,0-4.1,0-6.1c0-6.8,0-13.6,0-20.3c0-0.9-0.3-1.9,0.3-2.8
		c0.7,0.9,0.4,1.9,0.4,2.8c0.2,19.1,0.3,38.2,0.5,57.3c0,0.4,0.1,0.8,0.1,1.2c-0.3,9.6,0,19.2-0.1,28.7c0-2.2,0-4.5,0-6.7
		c0-6.2,0-12.4,0-18.6c0-0.9-0.3-1.9,0.3-2.8c0.1,0.6,0.3,1.1,0.3,1.7c0.2,26.5,0.3,53,0.5,79.6c0,1.5-0.3,2.1-1.9,2.1
		c-3.3-0.1-6.8,0.6-9.9-0.2c-3-0.8-6.1-1.8-8.1-5.4c-3.9-6.9-4.3-14.1-4.2-21.6c0.2-10.6,0-21.2,0.1-31.8c0-2.4-0.7-3-3-2.9
		c-5,0.2-9.9,0-14.9,0.1c-1.5,0-3.3-0.7-4.3,1.3c-0.2,0.5-1.9,0.5-2.7,0.3c-2.6-0.7-3.8,2.4-6.2,2.1c-0.1,0-0.4,0.8-0.4,1.3
		c-0.6,7.3-1.1,14.6-1.8,21.9c-0.7,7.7-1.5,15.4-2.2,23c-0.4,4.5-0.8,9.1-1.1,13.6c-0.2,3.2-1.8,2.8-4,2.7
		c-5.2-0.2-9.2-3.1-13.4-5.5c-5.2-3-5.1-2.9-4.5-8.9c1-9.6,1.9-19.2,2.9-28.8c0.5-4.6,0.9-9.2,1.7-13.8c0.7-4.2-0.2-7.7-3.8-10.2
		c-2.5-1.7-2.9-3.5-1.4-6.3c4.2-8,7.2-16.5,8.4-25.5c0.7-5.1,1.1-10.2,0.9-15.3c-0.1-1.3-0.3-2.7,0.6-3.9c0.6-1,0.3-2.1,0.3-3.1
		c0-11.5,0.1-23.1,0-34.6c0-2.1,0.5-3,2.7-2.8c3.3,0.3,6.6-0.4,9.8,0.3c1.4,1.2,3.2,1.5,4.8,2.3c1.7,0.8,3.1,1.9,2.9,4.1
		C474.6,357.3,474.7,367.5,474.3,377.6z"/>
	<path class="st2" d="M133.5,483.2c-0.6-9.1-1.2-18-1.8-26.8c0-0.5-0.2-1.3-0.3-1.3c-2.1,0-3.2-2.6-5.4-2.2
		c-1.8,0.3-3.8-0.8-5.6,1.3c-1.1,1.2-3.7,0.4-5.6,0.4c-5.3,0.1-5.3,0-6.7,5.1c-2.5,9.3-6.8,17.9-10.1,26.9
		c-1.3,3.5-2.7,7.1-2.8,10.9c0,1.6-0.8,1.8-2.2,1.9c-5.6,0.6-10.3-1.2-15-4.2c-6.3-4-6.6-4.3-4.9-11.6c1.6-7,4.2-13.7,6-20.6
		c0.8-3.1,1.1-6.4,1.9-9.5c2.1-7.8,2.3-16.1,6.6-23.2c1.6-2.7,1.1-5.8,1.6-8.7c0.3-1.8,0.1-3.7,1.9-5.1c0.6-0.5,0.6-2,0.6-3
		c0.1-4.3,1.6-8.2,2.8-12.2c2.6-8,3-16.5,5.5-24.6c1.9-6.1,4.2-12,4.9-18.4c0-0.1,0.1-0.2,0.1-0.3c0-5,2.5-9.4,3.2-14.2
		c0-0.3,0.2-0.5,0.3-0.8c0.6-1.7-0.9-4.8,2.8-4.5c2,0.2,4.1-0.9,5.9,1.3c0.9,1.1,3,0.2,4.5,0.4c2.4,0.3,4.7-0.4,7.1,0.6
		c7.4,3.1,8.8,9.9,9.4,16.4c0.5,5.4,1.7,10.6,2.7,15.9c1.7,9.2,3.1,18.5,3.2,27.9c0,2.8,1.7,4.8,2,7.6c1.4,13,2.9,26.1,4.9,39.1
		c1,6.5,2.7,12.8,3.6,19.4c1.3,9.3,2.9,18.5,4.3,27.7c0.2,1.2-0.3,2.1-1.5,1.8c-4.5-1.2-9.1,0.3-13.5-1.1c-2.8-0.9-5.5-1.9-8.1-3.1
		c-2.9-1.2-1.7-4.2-2.4-6.4C133.3,485,133.5,483.9,133.5,483.2z"/>
	<path class="st1" d="M330.7,497.1c-4.6-11.7-8.8-23.5-12.8-35.4c-1.3-4-2.8-8-4-12.1c-0.4-1.3-1-1.4-2.1-1.4c-2.5,0-5,0-7.6,0
		c-1.4,0-2.7,0.1-4.1-0.8c-1.8-1.2-4,0-4.4,2.5c-0.7,5.3-3.7,10.2-3.1,15.8c-2.7,3-2.6,7-3.4,10.6c-1.3,6.3-2.4,12.7-3.5,19
		c-0.1,0.7-0.4,1.3-0.6,1.9c-0.2,0.2-0.3,0.5-0.4,0.8c-1.1,5.3-1.1,5.3-6.6,5.3c-1.9,0-3.9-0.2-5.8,0c-3.1,0.3-5.3-1.3-6.8-3.6
		c-1.3-2-0.3-4.5-0.2-6.7c-0.2-3.2,1-6.1,1.7-9.1c1-3.9,1.5-7.8,1.5-11.7c0.1-8.3,1.5-16.3,3.5-24.3c1.4-5.5,1.9-11.3,3.2-16.7
		c1.4-5.9,2-11.9,3.5-17.8c2.1-8.2,4.1-16.5,5.3-24.9c0.1-0.4,0-0.8,0.1-1.2c0.3-2.8-0.3-5.6,1.5-8.5c1.9-3,0.9-7.2,1.3-10.8
		c0.9-7.7,1.2-15.4,1.8-23.1c0-0.5,0.1-1.2,0.3-1.4c4.7-3.1,9.7-6.5,15.5-4.9c3.1,0.8,6,3.2,8.4,5.5c8.7,8.4,12.5,19.2,14.3,30.9
		c1.4,9.3,3.4,18.6,4,28c3.2,4.4,1.6,9.8,2.6,14.7c1,5,1.2,10.2,2,15.2c2.2,14.9,3.8,29.8,7.9,44.4c1.8,6.6,4.9,12.6,7,19
		c0.3,1.3,0.3,2.7,0.7,4c0.7,3,0.7,3-2.2,3c-4,0-7.9-0.1-11.9,0c-2.5,0.1-4.3-0.3-5-3.1C331.9,499.2,331.5,498,330.7,497.1z"/>
	<path class="st1" d="M605.6,468.6c-0.4-2.7,0.9-5.4-1.7-7.4c-0.4-0.3-0.1-1.5-0.1-2.3c0-4.4-0.2-8.7-1-13c-0.6-3.2-2.3-5.5-4.2-7.7
		c-1.2-1.4-3.5-1.2-5-0.1c-1.1,0.9-1.7,1.1-2.5,0c-0.5-0.7-1.2-0.6-1.9-0.6c-5.1,0-10.3,0-15.4-0.1c-1.3,0-1.8,0.4-2.1,1.7
		c-2.2,9.4-5.2,18.5-5.8,28.3c-0.5,9.1-2.2,18.2-3.3,27.2c-0.3,2.1-1.2,3-3.4,2.9c-2.6-0.2-5.3-0.3-7.9,0c-7,0.8-8.7-4.3-8.1-9.5
		c0.7-6,1.1-12.1,1.7-18.2c0.4-4.3-0.2-9.1,1.4-12.9c2.4-5.7,2-11.6,3.2-17.4c1.3-5.9,1.7-12.1,3.4-17.9c2.4-7.8,4.2-15.7,5.6-23.6
		c0.8-4.3,2.4-8.5,2.4-13.1c0-5.2,1.4-10.5,2.2-15.7c1.3-8.5,2.6-16.9,4-25.4c0.6-3.5,3-6.2,5.9-7c2.9-0.8,6.9-1.8,9.2,2
		c0.3,0.4,0.6,1,1.1,0.8c2.8-0.6,4.6,1.5,6.8,2.5c7.3,3.4,11.4,9.8,13.7,17c1.4,4.4,3.8,8.3,4.8,12.9c1.7,7.9,2.7,16.1,6,23.5
		c2.2,5,2.1,10.3,4,15.1c0.9,2.4,1,4.9,2,7.2c0.5,1.1,1,2,2.6,2.3c3.7,0.8,4.6,2.9,3.2,6.5c-0.7,1.8-1.3,3.9-2.7,5.1
		c-3.2,3.1-2.7,6.7-1.9,10.4c2,10.1,3.5,20.3,5.1,30.5c0.5,3.4,0.3,6.7,0.5,10.1c0.1,1.5,0.5,2.7,1.2,4.1c1.3,2.9,0.6,6.4,0.4,9.7
		c0,0.1-0.2,0.3-0.4,0.4c-1.2,0.8-10.2,0.2-11.3-0.9c-3-2.9-5.9-5.8-8.3-9.2c-0.3-0.4-0.4-0.9-0.4-1.3c0.2-4.2-1.4-8-2.8-11.9
		C605.1,472.2,605.6,470.1,605.6,468.6z"/>
	<path class="st1" d="M168.6,430.5c-0.3-5,1.8-9.6,2.9-14.4c0.7-3.2,1.9-6.3,1.6-9.6c-0.2-2.3,1.7-3.6,2.4-5.5
		c3.6-9.5,6.9-19.1,11.6-28.1c4.3-8.2,8.5-16.5,14.7-23.5c3-3.3,6.5-6.4,11-7.7c0.4-0.1,0.9-0.3,1-0.5c1-3.8,4-2.7,6.5-2.8
		c0.9-1.1,2-1.5,3.3-1.3c7.2,0.9,14.3-1.4,21.4-1.2c0.9,0,1.9-0.3,2.8,0.3c0.1,0.1,0.2,0.2,0.2,0.2c4.4-0.6,5.6,2.5,6.8,5.8
		c0.6,1.7,0.3,2.9-0.4,4.4c-3.5,7.2-10.6,8.7-17.3,10.5c-2.9,0.8-5.1,3-8,3c-1.8,0-2.9,0.8-4,2c-5.4,6.3-10.7,12.7-15.4,19.5
		c-2.3,3.2-4.6,6.4-6.8,9.7c-3.6,5.6-5.9,11.9-8.2,18.2c-2.1,5.7-4,11.5-4.9,17.6c-0.8,6-1.3,12.1-0.6,18.2
		c0.6,5.3,1.8,10.4,2.5,15.7c0.2,1.5,0.7,2.8,1.3,4.1c1.6,3.7,3.6,7.4,4.7,11.2c0.8,3,3,3.8,5.1,4.4c5.3,1.3,10.6,0.8,15.9-0.5
		c0.9-0.2,1.2-0.9,1.6-1.5c2.2-3.4,4.5-6.8,6.7-10.1c0.9-1.3,1.5-2.6,1.3-4.3c-0.3-3.2,1.9-5.8,1.8-9c-0.1-2.4-0.8-3.7-3-4.7
		c-7.4-3.3-14.8-6.8-22.2-10.2c-1.1-0.5-2.5-0.8-2.4-2.5c0.2-1.6,1.7-1,2.5-1.4c5.1-2.4,9.8-5.3,14.7-7.9c4.1-2.1,8.4-4.6,13.4-4.8
		c1.5-0.1,3,0.1,3.7-1.6c0.4-0.9,1.3-0.7,2-0.7c3.8,0,7.6,0,11.4,0c0.7,0,1.7-0.4,1.9,0.8c0.5,3.2,3.4,3.8,5.7,4.8
		c1.4,0.6,1.7,1.3,1.9,2.7c0.6,3.8-1,6.4-4,8.5c-1.8,1.3-3.5,2.7-5.1,4.2c-0.8,0.8-2.1,1.9-0.2,3c2.9,1.8,3.4,4.9,3.3,7.6
		c-0.2,8-1.6,15.9-3.7,23.6c-1.4,5.1-3.8,9.7-6.3,14.2c-0.2,0.4-0.7,1-1,0.9c-3-0.4-3.8,2.1-5.1,3.9c-0.9,1.2-2.5,1.4-3.6,2.1
		c-3.8,2.3-8.1,0.5-11.7,1.8c-7.7,2.8-15.6,1.7-23,0.9c-5.7-0.6-10.9-4.9-15.3-9.3c-4.8-4.8-6.9-11.1-9.8-17
		c-0.4-0.7-0.4-1.6-0.9-2.1c-4.7-5.2-3.4-12-5.2-18c-0.1-0.3,0-0.8,0.1-1.2C168.2,445.4,168.1,437.9,168.6,430.5z"/>
	<path class="st3" d="M379.2,488.6c0.6-12.6,0.8-24.8,1.8-37c0.9-11,0.3-21.9,0.4-32.9c0.2-11.4,0.1-22.7,0-34.1
		c0-1.6,0.8-3.5-1.5-4.5c-0.3-0.1-0.2-1.3-0.2-1.9c0-2.6-0.2-5.3,0-7.9c0.1-1.9-1.1-3-1.8-4.5c-0.4-0.8-1.4-0.8-1.7-0.4
		c-1.1,1.2-2.5,0.8-3.8,1c-1.4,0.2-3.1-0.7-3.9,1.4c-0.1,0.4-1.4,0.3-2.2,0.3c-6.1,0-12.2-0.1-18.4,0c-3.4,0.1-4.4-2.9-6.4-4.5
		c-1.6-1.2-2.9-3.2-3.9-5.3c-1.6-3.5,0-6.3,3.8-6.4c3.8-0.1,7.4-1.8,11.3-1.2c2.1-3.5,6.8,0.1,9-3.3c0-0.1,0.2-0.1,0.3,0
		c3.7,1.1,6.6-2.3,10.3-1.9c1.8,0.2,3.8-0.7,5.5-1.7c0.8-0.5,1.7-1,2.7-1c3.4-0.1,6.3-2.3,9.8-2.2c1.2,0,2.8-0.5,4.2-0.6
		c2-0.2,4.3,0.7,5.9-1.5c0.3-0.4,1.3-0.1,2-0.2c2.3-0.3,4.5-0.1,7-1.3c2.1-1.1,5.8-1.6,8.8,0.9c1.5,1.2,4.5,0.9,6.8,0.9
		c1.7,0,3.3,0.2,4.6,1.3c3.2,2.8,7.5,2.9,11,5c0.9,0.5,1.9,0.8,1.9,2.2c0,1.4-0.8,1.9-1.8,2.7c-5.7,4.5-12.1,6.2-19.2,5.4
		c-1.6-0.2-3,0.4-4.5,1.3c-2.1,1.2-4.8,0.6-7.1,0.3c-2.9-0.4-4.5,2.6-7.4,2.1c-0.5-0.1-0.6,1.1-0.5,1.8c0.4,7,0.7,13.9,1.3,20.9
		c0.3,3.4,0.4,6.8,0.6,10.1c0.5,8.4,1.5,16.8,1.6,25.2c0,8.9-0.9,17.7-1.4,26.6c-0.2,4.4-0.1,8.9-0.5,13.3c-0.6,6.6-0.2,13.4-0.8,20
		c-0.6,7.4-0.6,14.9-1,22.3c-0.1,1.5-0.9,1.4-1.9,1.5c-7.7,0.7-14-2.8-19.7-7.3C378.2,492.2,379.6,490,379.2,488.6z"/>
	<path class="st2" d="M77.7,567.2c0.9-0.1,1.7,0.3,2.5-0.9c3.2-4.7,7.8-6,13.8-4.7c5.1,1.1,7,4.9,9.4,8.8c2.6,4.5,3.5,9.3,3.7,14.3
		c0.1,2.4-0.2,4.8-0.6,7.2c-0.7,4.2-3.4,6.7-7.4,8.1c-5,1.8-5.2,5.6-0.9,9.8c6,5.9,11.7,12.1,14.6,20.3c0.6,1.7,0.5,2-1.4,2.5
		c-5.5,1.5-8.7-1.2-11.1-5.4c-4.5-7.8-9.9-14.9-15.6-21.9c-0.8,1-0.5,2.2-0.5,3.3c0,6.4-0.1,12.8,0,19.2c0,2.2-0.6,4.2-0.7,6.3
		c-0.1,1.5-3.7,2-5,0.6c-2.5-2.7-4.8-5.3-4.6-9.7c0.4-9.9,0.2-19.8,0.2-29.7c-0.4-8.7-0.1-17.3-0.2-26
		C73.8,567.3,74.9,566.8,77.7,567.2z"/>
	<path class="st4" d="M481.2,613.6c0-15.3,0-30.7,0-46c0-3.5,0.4-3.9,3.5-2.3c1.1,0.6,1.6,0.7,2.2-0.4c0.6-1,1.5-1.8,1.9-2.9
		c0.8-1.7,2.4-2.8,3.9-2.7c5.6,0.5,11.3,0.7,14.7,6.5c4.8,8.1,4.8,13.9-0.6,21.8c-1.7,2.5-3.3,5-5.2,7.3c-1,1.2-0.7,2.2-0.3,3.2
		c1.4,3.1,2.8,6.3,4.4,9.4c2.8,5.2,4.6,11,6.8,16.5c0.9,2.3,1.8,4.7,2.6,7.1c0.3,1,1.7,2.4,0.3,3.1c-1.2,0.7-3.1,0.8-4.4-0.3
		c-1.7-1.4-3.2-3-4.4-4.9c-4-6.3-7-13.1-10.5-19.8c-0.8-1.5-1.5-4-3.2-3.7c-2.1,0.4-2.1,3.1-2.1,4.9c-0.2,5.8-0.9,11.6-0.6,17.4
		c0.1,1.5,0.2,3.1-0.5,4.6c-0.5,1.1,0.7,2.9-1.6,3.1c-2,0.2-3.4-0.3-4.3-2.1c-0.2-0.4-0.3-0.7-0.5-1c-2.6-2.5-2.9-5.6-2.7-8.9
		C481.2,620.1,480.7,616.9,481.2,613.6z"/>
	<path class="st3" d="M411.9,625.8c0,1.5,0.1,2.9,0,4.4c-0.1,1.3,0.7,3.1-1.5,3.5c-2.3,0.5-5.3-0.7-5.9-2.5
		c-1.7-4.5-2.7-9.1-3.5-13.9c-0.6-3.8-1.5-7.6-2.3-11.4c-0.1-0.7-0.2-1.4-1.1-1.4c-2.3,0-4.7-0.1-7,0c-1.2,0.1-1.2,1.3-1.4,2.2
		c-0.9,4.3-1.4,8.6-1.2,13c0.2,3.6-1.6,6.7-2.5,10.1c-0.4,1.5-2,1.4-3.4,1.1c-2.3-0.6-4.3-1.4-4.5-4.1c-0.3-4.3,0.4-8.5,0.8-12.7
		c0.6-6.3,1.5-12.6,2-19c0.6-6.9,1.6-13.8,2.5-20.7c0.6-4.7,2.4-9.1,2.7-13.9c0.1-1,0.5-1.3,1.5-1.4c7-0.7,13.1,4.1,15.5,10.8
		c2.3,6.2,2.3,12.6,3.7,18.9c2.3,10.1,2.2,20.6,5.5,30.5C412.4,621.3,411.8,623.7,411.9,625.8C411.8,625.8,411.8,625.8,411.9,625.8z
		"/>
	<path class="st2" d="M611.4,604.6c-4.6,0-6.3,2.3-6.5,8.6c-0.2,5.6-1,11.1-2.5,16.5c-0.6,2.2-1.4,3.9-4.3,3.6
		c-1.6-0.1-3.2,0.5-4.8,0.9c-1.6,0.3-2.6,0.1-2-1.8c2.4-8.3,3.7-16.7,5.3-25.2c2.8-15.3,5.9-30.5,8.8-45.7c0.7-3.8,0.6-3.3,4.5-2.8
		c7.3,0.9,9.6,5.8,11.2,11.9c3.1,12,4.8,24.2,5.1,36.7c0.1,5.9,0.4,11.9,1.5,17.9c0.8,4.2-1.2,6.4-5.5,6.5c-2.5,0-3.9-1.3-4.1-3.8
		c-0.4-5.5-0.7-11-0.5-16.6c0-2.1-1.5-3.7-1.3-5.8c0.1-0.9-1-0.7-1.6-0.7C613.6,604.5,612.5,604.6,611.4,604.6z"/>
	<path class="st5" d="M560.2,606.6c-0.5-8,0.5-18.1,0.7-28.2c0.1-3.5,0.4-6.9,0.5-10.4c0-0.7,0-1.4,0.5-1.9c2-1.8,3.4-4,4.9-6
		c1.4-1.9,4.3-2,6.1-0.3c4.5,4.2,9.3,8.2,11.2,14.5c0.4,1.4,1.2,2.7,2,3.9c4.4,6.3,4.2,13.4,3.8,20.5c-0.2,4-2.6,7.2-4,10.8
		c-1.3,3.1-3,6.1-4.5,9.1c-2.1,4.3-5.8,7-9.6,9.5c-1.2,0.8-2.5,1.7-3,3.1c-0.7,2.4-1.6,2-3.5,1.1c-4.3-2.1-5.7-5.1-5.3-9.8
		C560.5,617.8,560.2,613.2,560.2,606.6z"/>
	<path class="st1" d="M250.2,562.2c2.7-4.6,5-4.4,9.2-1.1c8,6.2,10.6,15.3,14.3,23.8c3,6.8,2.5,14-0.5,20.8
		c-3.1,7.1-6,14.3-11.7,19.9c-2.7,2.7-6.2,4.3-9,7c-1.9,1.9-6.7-0.9-7-3.8c-0.1-1.1-0.1-2.1-0.1-3.2c-0.6-4.1-0.4-8.3-0.5-12.4
		c-0.2-11.2-0.1-22.5-0.1-33.7c0-2.6,0.2-5.2,0.5-7.8l0,0c0.2-0.1,0.4-0.3,0.4-0.4C245.8,567.6,248,564.9,250.2,562.2z"/>
	<path class="st2" d="M458.7,600.8c-1.3,4.4-1,8.5-0.9,12.6c0.2,5.7-1.1,11.4-0.6,17.1c0.1,1.4-0.6,2.6-1.7,3.1
		c-1.2,0.6-1.8-0.7-2.5-1.4c-0.6-0.6-1.4-1-2.1-1.5c-2.9-2.4-4.3-5.1-4.2-9.2c0.4-12.5-0.8-25-0.5-37.5c0.1-6,1.7-11.9,1.8-17.9
		c0-0.7,0.4-1.5,1.1-1.5c2.8,0,3-2.2,3.4-3.9c0.6-2.8,2.6-3.5,4.8-3.4c4.3,0.1,8.3,1.6,11.6,4.5c0.1,0.1,0.3,0.3,0.4,0.4
		c8.1,4.4,7.7,12.2,7.1,19.5c-0.5,6.2-1.7,12.4-5.2,17.8c-1.8,2.8-3.2,3.7-6.7,3C462.6,602,460.2,603.1,458.7,600.8z"/>
	<path class="st6" d="M552.7,614.3c-1,6.9,0.3,11.5,0.1,16.2c-0.1,2.8-1,3.3-3.6,2.1c-3.7-1.6-4.4-5-5-8.3
		c-0.9-5.8-2.3-11.6-1.8-17.5c0.1-1.8-0.5-2.3-2.3-2.3c-5.4,0-5.5,0.2-6.3,5.6c-1,6.4-1.8,12.8-3.7,19c-1.2,3.8-1.7,4-6,3
		c-2.5-0.6-3.5-2.2-2.9-5.1c2-10.3,4.4-20.6,6.1-30.9c1.9-11.8,4.2-23.5,6.7-35.2c0.5-2.3,1-4,4.1-2.2c1.8,1,4,0.8,5.8,2.5
		c3,2.9,2.8,6.4,3.3,9.9c1.2,8,2.2,16.1,3.2,24.1c0.3,2.6,1,5.1,0.8,7.8C550.9,607.5,553.5,611.9,552.7,614.3z"/>
	<path class="st3" d="M137.1,562.9c4.1-0.9,6.1,0.1,7.4,4.8c1.3,4.9,1.6,9.9,2.2,14.9c1.3,10-1.8,19.4-3.5,29
		c-0.9,5.1-1.3,10.3-3.1,15.2c-1.5,0.5-0.9,2-1.1,3c-0.3,1.4-0.9,2-2.3,1.9c-2.3-0.1-4.6,0-6.9,0.2c-2,0.2-3.4-1.1-4.8-2.1
		c-1-0.7-2-1.5-3.2-1.9c-2.7-0.5-2.9-2.9-3-4.7c-0.9-9.2-2.6-18.3-3.8-27.5c-1.1-8.7-0.8-17.4-1-26.1c0-2.2-0.2-4.5,0.5-6.6
		c0.4-1-0.7-2.9,1.3-3c2.1-0.1,4.3-0.3,6.1,1.5c4,4.1,2.4,8.8,1.8,13.4c-0.8,5.9-0.6,11.8-0.2,17.7c0.2,3.1,0.2,6.2,0.3,9.3
		c0.2,7.5,2.3,14.5,5.1,22.2c5.4-14.3,8.6-28.1,8.2-42.7C136.7,575.2,136.6,569,137.1,562.9z"/>
	<path class="st2" d="M312,629c-5.3,0.5-10.5,1.5-15.9,1.2c-1.4-0.1-2,1.2-3.4,1.2c-5.8,0.1-10.3-3.2-11-10
		c-1.2-11.8-0.6-23.7-0.4-35.5c0.1-8,0.9-16,0.9-24c0-2.2,0.7-3.1,2.8-2.8c5.3,0.8,10.6,0.9,15.9,1.4c2.1,0.2,4.2,0.8,6.4,1
		c2.3,0.2,4,3.6,3.5,6.5c-0.4,2.4-1.9,3.3-4.3,3.2c-3.6-0.1-7.2,0-10.8,0c-3.4,0-5.5,2.4-5.1,5.8c0.4,3.5,0.9,7.1,1.5,10.6
		c0.2,1.6,0.9,2.8,3,2.6c3.1-0.2,6.1,0.1,9.1,0.8c3.3,0.7,2,2.9,2,4.5c0,1.6,0,3.7-2.6,3.7c-1.9,0-3.9,0-5.8,0.1
		c-4.2,0.1-6.3,2.2-6.3,6.4c0,3.7,0,7.4,0,11.1c0,4.5,0.6,5,5.2,5.3c0.5,0,0.9,0.2,1.4,0.3c-0.8,0.6-1.7,0.3-2.6,0.4
		c4.9,0,9.8,0,14.6,0c1.7,0,3.6-0.5,4.3,1.9C315.4,627.1,314,628.2,312,629z"/>
	<path class="st6" d="M191.6,572.9c-4.3,0.3-8.7,0.5-13.1,1.1c-3.2,0.4-6.8-2-7.2-5.1c-0.3-2.3,1.6-2.9,3.1-3
		c4.9-0.3,9.1-2.8,13.9-3.5c1.8-0.3,3.6-0.8,5.4-1.7c2.6-1.3,5.2,0,7.5,1.5c1.2,0.8,2.4,1.7,3.6,2.5c0.7,0.5,1.2,1.2,0.9,2
		c-0.9,2.2-0.9,4.7-1.9,6.9c-3,6.5-5.6,13.1-8.7,19.5c-3.5,7-5.5,14.6-8,21.9c-0.6,1.8-0.9,3.7-1.5,5.6c-0.6,1.8,0,2.5,1.9,2.4
		c5.1-0.2,10.1-0.8,14.9-2.7c3-1.2,8.3,1.5,9.4,4.6c0.4,1.1,0.2,1.8-1.2,2c-5.6,0.7-10.9,2.8-16.3,4.4c-4.2,1.2-8.7,1.9-13.2,1.3
		c-3.1-0.4-5.1-3-7.3-5c-0.7-0.6-0.3-2,0-3.1c2.2-6.7,4.8-13.2,7.1-19.9c3.4-9.6,7.2-19.2,9.8-29C190.9,574.8,192,574.3,191.6,572.9
		z"/>
	<path class="st6" d="M359,632.6c-3.6-0.2-7,0.5-10.2-1.9c-3.4-2.5-4.7-5.9-5.5-9.6c-1.4-6.5-0.8-13.1,0-19.6
		c0.8-6.4,1.3-12.8,2.1-19.2c0.8-6.4,0.4-12.7,0-19.1c-0.2-2.9,1.4-4.1,4.1-3.9c1,0.1,1.3,0.6,1.8,1.4c2.4,4,2.9,8.4,3.1,12.8
		c0.4,7.4-0.5,14.9-0.9,22.3c-0.4,8.3-1.1,16.6-0.7,25c0.1,1.7,0.7,2.5,2.5,2.5c4.6-0.1,9.2,1.2,13.9,0.6c1.6-0.2,2.3,0.7,2.4,2.2
		c0.4,3-1.5,5.3-4.5,6C364.4,632.8,361.6,632.4,359,632.6z"/>
	<path class="st7" d="M154.1,616.7c-0.6-4.9,0.3-10.5,1.4-15.8c1.4-6.1,0.1-11.8-0.2-17.6c-0.4-5.8,0.4-11.6,0.8-17.4
		c0.1-1,0.3-1.9,0.3-2.9c0.1-2.8,0.8-3.3,3.6-2.8c3.9,0.7,5.6,2.8,5.7,6.7c0.2,7.4-0.5,14.7-0.8,22.1c-0.3,8.1-0.7,16.2-0.9,24.3
		c-0.1,5.6,1.2,11.1,1,16.7c-0.1,2.7-0.8,3.4-3.3,2.4c-5.2-1.9-7.2-3.7-7.6-9.5C154,621,154.1,619.1,154.1,616.7z"/>
	<path class="st8" d="M245.5,571.8c0,18,0,35.9,0,53.9c-0.3-4.1-1-8.2-1-12.3c-0.1-11.4-0.1-22.8,0-34.3
		C244.6,576.7,244.8,574.2,245.5,571.8z"/>
	<path class="st9" d="M466.6,340.8c-3.2,0-6.4,0.2-9.6,0c-2.1-0.1-2.7,0.6-2.6,2.6c0.1,11.5,0,23.1,0,34.6c0,1,0.4,2.2-0.6,3
		c0-12.1-0.1-24.3,0-36.4c0-1.5-1.1-3.4,0.1-4.3c1.1-0.7,3-0.4,4.6-0.2C461.2,340.4,464,339.1,466.6,340.8z"/>
	<path class="st10" d="M330.7,497.1c1.7,0.6,1.7,2.4,2.4,3.6c0.8,1.4,1.6,2.3,3.3,2.2c4.4-0.1,8.7,0,13.1,0c1.2,0,2.3,0.3,1.4-1.8
		c-0.6-1.4-0.2-3.2-0.2-4.9c3.3,7.4,3.3,7.4-4.6,7.4c-3.5,0-7-0.1-10.5,0.1c-2,0.1-3.3-0.2-3.6-2.6
		C331.8,499.8,330.6,498.7,330.7,497.1z"/>
	<path class="st11" d="M265.4,493c0.4,2.9-0.9,6.2,2.4,8.4c1.4,0.9,2.7,1.7,4.5,1.7c2.7-0.1,5.4-0.1,8.1,0c2.5,0.1,3.8-0.9,3.8-3.5
		c0-0.9-0.4-2.1,1.1-2.2c0.4,1.8-0.5,3.4-0.6,5.1c-0.1,1.2-1.1,1.5-2.4,1.4c-3.8-0.1-7.6,0-11.3,0c-3.2,0-6.5-3.8-6.1-6.9
		C264.8,495.5,264.3,494.1,265.4,493z"/>
	<path class="st12" d="M121.7,627.9c2.7-0.7,3.7,2,5.7,2.7c3.3,1.3,6.6,0.4,9.9,0.6c1,0,0.9-1.1,0.9-1.8c0-1.2,0-2.3,0.6-3.4
		c0.2-0.4,0.5-1,1-0.4c0.2,0.2,0.1,0.7,0.1,1.1c0,0.6-0.1,1.2-0.1,1.7c-0.2,2.5-1.1,4.1-4.1,3.6c-1.7-0.3-3.4,0.1-5.2,0.4
		C126.6,633.2,124.5,629.8,121.7,627.9z"/>
	<path class="st13" d="M77.7,567.2c-2.7-0.1-3.7,1.2-3.7,3.9c0.1,8.1,0,16.2,0,24.4c-1-0.8-0.6-2-0.6-3c0-7.4,0-14.9,0-22.3
		C73.4,566.5,74.1,566,77.7,567.2z"/>
	<path class="st14" d="M312,629c0.6-1.5,3.6-1.7,2.1-4.2c-1.2-2.2-3.3-1.6-5.2-1.6c-5,0-10,0-15-0.5c1.4-0.1,2.8-0.1,4.3-0.2
		c4.5,0,8.9-0.1,13.4-0.1c1.5,0,3.5-0.6,3.5,2.1C315,626.7,315.6,629.3,312,629z"/>
	<path class="st15" d="M247.9,336.2c-8.3-0.5-16.4,2.1-24.6,1.1c-1.2-0.1-1.9,0.9-2.9,1c0.2-1,0.4-1.9,1.8-1.8
		c7.8,0.9,15.5-1.5,23.2-1.1C246.2,335.5,247.3,334.9,247.9,336.2z"/>
	<path class="st16" d="M525,349.6c0,10.1,0,20.1,0,30.2c-0.2,0-0.4,0-0.6,0c0-5.8-0.1-11.7,0-17.5c0.1-4.4-0.5-8.9,0.3-13.3
		C524.9,349.2,524.9,349.4,525,349.6z"/>
	<path class="st17" d="M474.3,377.6c0-10.2,0-20.3,0.1-30.5c0.7,0.6,0.6,1.4,0.6,2.1c0,8.6,0,17.2,0,25.9
		C474.9,376,475,376.9,474.3,377.6z"/>
	<path class="st18" d="M526.2,411.4c0,9.7,0,19.4,0,29.1c-0.2,0-0.4,0-0.6,0c0-5.1-0.1-10.1,0-15.2c0.1-4.8-0.5-9.7,0.4-14.5
		C526,411.1,526.1,411.3,526.2,411.4z"/>
	<path class="st19" d="M481.2,613.6c0,3,0,6,0.1,9c0,3-0.6,6.2,2.4,8.4c0.4,0.3,0.3,0.9,0,1.3c-2.2-1.3-3.1-3.2-3-5.8
		c0.1-3.4,0-6.8,0.1-10.2C480.6,615.4,480.3,614.4,481.2,613.6z"/>
	<path class="st20" d="M168.6,430.5c0,7.5,0,14.9,0,22.4c-0.2-0.4-0.6-0.9-0.6-1.3c0-6.6,0-13.2,0-19.8
		C168,431.3,168.3,430.9,168.6,430.5z"/>
	<path class="st8" d="M250.2,562.2c0.1,0.8-0.3,1.4-0.9,2c-1.5,1.7-2.9,3.5-2.6,6c0.1,0.9-0.2,1.5-1.2,1.5
		C245.5,567.8,246.4,564.3,250.2,562.2z"/>
	<path class="st21" d="M137.1,562.9c0,6.2,0,12.3-0.1,18.5c-0.9-0.7-0.6-1.8-0.6-2.7c0-4.5,0-9.1,0-13.6
		C136.4,564.3,135.8,563.3,137.1,562.9z"/>
	<path class="st22" d="M120.6,381.6c1.9,10.9,5.7,20.9,6.7,31.7c0.5,5.2-0.3,10.5,0.9,15.6c0.4,1.6-0.5,2.3-2.1,2.2
		c-2-0.1-4.1,0-6.1,0c-1.5,0-2.9,0-4.5,0.8c-2.2,1.2-3.3,0.2-3.1-2.2c0.9-7.6,1.2-15.3,2.9-22.7c1.6-7.2,1.4-14.7,4-21.6
		C119.8,384.3,119.2,383.1,120.6,381.6z"/>
	<path class="st23" d="M306.3,426.5c-0.8,0-1.6,0-2.3,0c-3.9,0-4.8-1.1-4.2-5.1c1.4-9.3,2.8-18.7,4.2-28c0.5-3.4,0.9-6.9,1.4-10.3
		c0.1-1,0.3-2.2,1.4-2.3c1.3,0,0.7,1.3,0.9,2.1c1.8,7.7,3.4,15.4,5.2,23.1c1.3,5.5,0.1,10.9-0.3,16.4c0,0.7-0.4,1.3-0.3,2
		c0.2,1.9-0.7,2.4-2.4,2.2C308.6,426.4,307.5,426.5,306.3,426.5C306.3,426.5,306.3,426.5,306.3,426.5z"/>
	<path class="st24" d="M579.3,423.1c-3.8,0-2.7-3.2-2.2-4.6c1.4-3.5,1.2-7.1,2-10.6c2-8.5,3.6-17.2,5.4-25.7
		c0.9-4.3,1.7-8.7,1.9-13.2c0.7,5.4,2.2,10.7,3.3,16c0.1,0.7,0.1,1.8,0.5,1.9c3.5,1.4,2.2,4.6,2.9,7.1c1.1,4.1,2.1,8.2,3.2,12.3
		c0.6,2.2,1.2,4.3,1.1,6.5c-0.1,1.4,0.2,2.5,1.2,3.8c1.4,1.8,0.5,4.4-0.8,6.5C591.7,423.6,585.5,423.5,579.3,423.1z"/>
	<path class="st25" d="M579.3,423.1c6.2,0,12.4,0,18.6,0c-0.7,0.9-1.8,0.5-2.7,0.5c-4.4,0-8.8,0-13.2,0
		C581.1,423.6,580,424,579.3,423.1z"/>
	<path class="st26" d="M85.9,583.8c0.1-2.4,0.1-5.5,0.4-8.6c0.3-3.2,2.4-4.6,4.6-6.2c1.3-1,2.2-0.5,3.3,0.9
		c3.1,4.1,2.3,8.8,2.8,13.3c0.4,4.1-1.7,6.2-4.2,8.6c-1.8,1.7-4.1,0.1-6.1,1.2c-0.6,0.3-0.7-0.9-0.7-1.6
		C85.9,589.1,85.9,586.8,85.9,583.8z"/>
	<path class="st27" d="M492.1,585.6c0.4-4.9,1.4-9.7,2.5-14.5c0.4-1.8,1.7-2.6,3.4-2.6c1.9-0.1,3.1,0.9,3.6,2.7
		c1.8,7.4-0.3,13.7-6.6,18c-1.3,0.9-2.9,1.2-2.8-1.4C492.2,587.1,492.1,586.4,492.1,585.6z"/>
	<path class="st28" d="M392.9,572.5c3.3,6.6,3.5,13.3,4.5,19.7c0.4,2.9-2.1,3-4.4,3.2c-2.5,0.2-3-0.9-2.8-3
		C390.7,585.9,391.3,579.4,392.9,572.5z"/>
	<path class="st29" d="M612.7,576.5c2.7,6.1,4.1,11.8,2.7,18c-0.4,1.8-2.9,2.7-5.3,1.9c-1.9-0.6-0.8-1.9-0.8-3
		c0.3-5,2.4-9.7,2.6-14.8C612,578.1,612.3,577.5,612.7,576.5z"/>
	<path class="st30" d="M570.5,616.1c-0.2-15.2-3.3-29.6,2.2-43.8c6.3,9.8,7.4,13.2,7,21.7C579.4,601,575.8,609.9,570.5,616.1z"/>
	<path class="st31" d="M254.5,590.6c0.4-5.9,1.5-11.8,2.8-17.5c0.1-0.5,0-1,0.6-1.2c0.5-0.1,0.9,0.2,1.2,0.6
		c3.5,6.7,7.5,13.5,6.1,21.3c-1.3,7.3-2.4,14.8-7.6,20.8c-0.3,0.4-0.2,1.1-0.5,1.6c-0.2,0.5-0.6,1-1.1,1.8c-1-2,0.1-4.2-1.6-5.6
		c-0.8-0.8-0.4-1.8-0.4-2.8c0-5.5,0-11,0-16.5C254.1,592.4,253.6,591.4,254.5,590.6z"/>
	<path class="st32" d="M254.5,590.6c0,7.3,0,14.6-0.1,21.9c-0.8-0.3-0.7-1.1-0.7-1.7c0-6.2,0-12.4,0-18.5
		C253.8,591.6,253.6,590.9,254.5,590.6z"/>
	<path class="st33" d="M456.6,579.8c-0.3-5,2.3-8.6,5.7-11.6c0.8-0.8,2.6-1,3.8-0.7c1.3,0.3,0.5,1.8,0.7,2.8c0.6,4.5,0.2,9-0.9,13.4
		c-0.9,3.4-2.5,6.3-5.5,8.2c-1.1,0.7-2.3,0.9-2.6-0.9C457.4,587.3,457,583.6,456.6,579.8z"/>
	<path class="st34" d="M541.4,591.8c-0.5,1,1.2,3.1-1.5,3.5c-3.6,0.5-4-0.1-3.3-3.7c0.6-3.1,1.4-6.2,1.4-9.4c0-0.6-0.1-1.5,0.9-1.5
		c0.8,0,0.7,0.8,0.8,1.3C540.8,585.1,541.2,588.4,541.4,591.8z"/>
</g>
</svg>
