<?xml version="1.0" encoding="utf-8"?>
<!-- Generator: Adobe Illustrator 21.1.0, SVG Export Plug-In . SVG Version: 6.00 Build 0)  -->
<svg version="1.1" id="Layer_1" xmlns="http://www.w3.org/2000/svg" xmlns:xlink="http://www.w3.org/1999/xlink" x="0px" y="0px"
	 viewBox="0 0 700 965" style="enable-background:new 0 0 700 965;" xml:space="preserve">
<style type="text/css">
	.st0{fill:#FEFEFE;}
	.st1{fill:#E83A84;}
	.st2{fill:#E72983;}
	.st3{fill:#E83985;}
	.st4{fill:#E72B83;}
	.st5{fill:#E83E87;}
	.st6{fill:#E94687;}
	.st7{fill:#E72B84;}
	.st8{fill:#E94688;}
	.st9{fill:#E94288;}
	.st10{fill:#E72C84;}
	.st11{fill:#E84187;}
	.st12{fill:#E94A8A;}
	.st13{fill:#E94989;}
	.st14{fill:#EA578D;}
	.st15{fill:#E83285;}
	.st16{fill:#E94A89;}
	.st17{fill:#E94089;}
	.st18{fill:#E94C8B;}
	.st19{fill:#E83186;}
	.st20{fill:#E83688;}
	.st21{fill:#E83486;}
	.st22{fill:#EB5B90;}
	.st23{fill:#E94C8C;}
	.st24{fill:#FEFEFD;}
	.st25{fill:#FEFDFD;}
	.st26{fill:#FEFDFC;}
	.st27{fill:#FDFAFA;}
</style>
<g>
	<path class="st0" d="M2.8,482.7c0-114.7,0-229.4-0.1-344c0-4.6,0.7-5.8,5.6-5.8c229.8,0.2,459.6,0.2,689.5,0c5.3,0,5.9,1.4,5.9,6.2
		c-0.1,229.6-0.1,459.2,0,688.8c0,4.8-0.7,6.2-6,6.2c-229.6-0.2-459.2-0.2-688.8,0c-5.5,0-6.3-1.5-6.3-6.5
		C2.8,712.5,2.8,597.6,2.8,482.7z"/>
	<path class="st1" d="M72.6,493.2c-13.3,12-27.7,22-46,24.3c-8.2,1-13.9-2.3-16-9.1c-2.3-7.3,1.3-16.5,8-19.7
		c3.7-1.8,7.7-2.7,11.1,0.4c2.8,2.5,2.5,5.9,0.8,9c-2.4,4.3-5.9,4.4-10.2,2.9c-5.1-1.8-5.9,1.6-4.7,5.2c2,5.8,6.8,7.2,12.4,6.2
		c10.8-2,20-7.3,28.7-13.7c3.9-2.9,9.2-5.3,11-9.3c1.9-4.2-4-7.5-6.2-11.4c-9.1-16.2-13.8-32.6-4.4-50.3
		c8.8-16.6,25.6-19.3,39.3-6.5c6.7,6.3,11.7,13.7,15.4,22.8c3.7-1.9,5.7-5,8.1-7.6c16.5-18.1,34.6-34.4,54-49.3
		c8.5-6.5,17.5-11.4,30.3-9.5c-8.2,11-16.1,21.5-23.9,32c-1.3-1.5-0.8-4.3-3.6-4.8c-0.5-5.2,4.1-7.4,6.4-11c1.6-2.5,4-4.5,6.4-7.6
		c-9.8,5.4-18.2,11.6-26.2,18.1c-16.4,13.4-29.7,29.9-44.8,44.6c-1.9,1.9-2.8,4.1-2.6,6.9c0.6,8.3,0.1,16.7,0.4,25.8
		c11.6-16.1,23-31.6,34.6-46.8c4.6-6.1,9.5-12,14.1-18.2c1.7-2.3,3.2-5.4,7-4.5c1.5,3-0.7,4.9-2.2,6.8c-17.7,23.6-35.7,47-53,70.9
		c-3.6,5-7.4,10.4-12.3,14.6c-0.7-0.8-1.1-1.7-1.2-2.7c1.2-9.9,4.5-19.4,4.6-29.5c0-2.3,0.9-4.5-0.9-7.1
		c-9.2,8.1-16.8,17.6-26.1,25.1C78.5,492.4,75.4,492.2,72.6,493.2z"/>
	<path class="st2" d="M161.5,515.7c-0.4-0.4-0.8-0.8-1.2-1.2c-1.6-6.2-1.5-12.4,0.2-18.5c6.6-13.7,16.4-25.2,25.1-37.4
		c15.2-21.4,33.3-40.3,54.3-56.2c1.7-0.7,3-2.1,4.4-3.3c1.6-1.4,3.2-4.3,5.5-2.1c2.2,2.1-0.1,4.1-1.4,5.9
		c-8.6,10.8-17.6,21.3-26.1,32.2c-1.4,1.8-2.9,3.6-4.8,4.9c-3.3,1.9-5.1,5.2-7.4,8c-5.7,7.2-10.2,15.4-17.4,21.5
		c-9,11.9-18.4,23.5-26.2,36.3c-2.1,1.8-3,3.7-1.4,6.6C167.8,517.4,164.2,516.2,161.5,515.7z"/>
	<path class="st3" d="M550,385.7c-16.9,5.7-31.3,15.1-43.4,28.2c-5.5,6-9.3,12.6-10.8,20.7c-2,11.2,3.7,18.7,15.3,19
		c13.7,0.4,24.6-6.7,34.3-15c12.9-11,22.4-24.8,29.5-40.2c0.6-1.3,1.1-2.5,1.7-3.8c0.8-1.9,2.1-2.5,3.9-1.6c1.8,0.8,1.2,2.2,0.7,3.5
		c-1,2.6-2,5.2-3.1,7.8c-6.7,15-15.5,28.6-27.4,40.1c-11.9,11.5-26.2,16.5-42.6,15.2c-10.5-0.8-18.6-9.5-18.2-20
		c0.3-11,3.4-21.3,11.6-29c12.8-12.1,27-22.3,44.1-27.7C547.9,382.3,551.1,380.8,550,385.7z"/>
	<path class="st2" d="M615.6,402.4c-8.8,8.5-14.5,19.3-21.7,29.1c-1.5,2-3.1,4-4.6,5.9c-11.2,15.1-20.6,31.3-32.4,46
		c-14.3,17.8-33.5,27.5-55.5,32c-1.5,0.3-4.3,1.6-4.8-0.9c-0.7-2.9,2.4-3,4.3-3.4c17-3.7,29.2-14.1,40-27.1
		c5.6-6.8,11-13.8,16.8-20.4c10.3-13.8,21.1-27.2,32.1-40.4c6.5-7.8,13.8-14.8,20.9-22.1C612.8,399,615.4,396.6,615.6,402.4z"/>
	<path class="st4" d="M104.7,504.3c2.8-11.4,13.1-17.4,19.3-26.5c14.6-21.3,30.8-41.6,46.4-62.3c0.9-1.2,1.3-2.4,1.1-3.9
		c0.4-3.3,2.2-5.5,5.2-6.7c1.6-0.7,3.2-1.4,4.9-2.2c1.8,2.9-2.6,4.3-1.4,6.8c0,0,0-0.1,0-0.1c-2.9,2.9-4.9,6.4-7,9.9l0.1-0.1
		c-17.7,24.1-35,48.4-50.4,74.1c-0.3,1.7-1.2,3-2.6,4.1c-1,0.7-2,1.9-1,2.7c1.4,1.3,3.3,1,4.9,0c4.7-2.7,9.7-4.8,13.7-8.5
		c1.4-0.7,2.9-0.9,3.4,0.9c0.8,2.7-1.4,3.6-3.2,4.7c-4.9,3.9-10.4,6.7-16.3,8.5c-4.6,1.4-8.4,2.5-11.1,7.6
		c-2.8,5.1-9.1,1.3-14.3,2.2c0.6-3.2,2-5.2,3.6-7.1C101.9,507.4,102.1,504.4,104.7,504.3z"/>
	<path class="st5" d="M558.4,463.8c-10.3,13-19.8,26.7-33.2,36.9c-8.3,6.3-17.5,10-27.3,13c11.6,0.1,21.8-4.5,31.9-9.4
		c19.4-9.2,30.1-26.7,42-43.2c5.8-8,9.6-17.4,17.5-23.8c-10.4,17.4-20.8,34.9-34.4,49.8c-20.8,22.7-47.2,33.1-78.4,29.9
		c-4.9-0.5-9.6-1.9-13.9-4.4c-6.3-3.6-8.9-10.1-6.8-16.6c2.3-7,9.9-12.2,16.6-11.2c4.7,0.6,7.5,3.2,6.4,8c-1,4.6-4.3,6.6-8.9,4.8
		c-3.2-1.3-6.5-2.6-8.3,1.5c-1.7,3.9,0.6,6.8,3.6,8.9c5,3.4,10.7,4.6,16.6,4.6c22.8,0.1,41.4-9.1,56-26.5c6.3-7.5,12.5-15,18.8-22.4
		C557.3,463,557.9,463,558.4,463.8z"/>
	<path class="st6" d="M558.4,463.8c-0.6-0.1-1.2-0.1-1.8-0.2c19-25.5,38.1-51.1,63-71.3c4.9-3.9,4-5.4-1.2-7.4
		c-19.3-7.2-38.7-6.1-58.3-1.5c-3.4,0.8-6.8,1.5-10.1,2.2c-0.1-3.1-2.5-2.7-4.5-3c26.8-8,53.7-12.4,80.4,0.3
		c2.9,1.4,5.1,1.3,7.6-0.5c2.2-1.6,4.6-3.1,7.1-4.4c1.6-0.8,3.5-3.6,5.2-1.3c1.7,2.3-0.2,4.3-2.5,5.5c-0.4,0.2-0.8,0.5-1.2,0.7
		c-6.3,2.5-9.1,6.2-4.1,12.4c-1.2,1.4-4.4-2.6-4.4,1.7c-3.2-6.3-6.7-5.7-11-0.8c-2,2.3-3.8,5.1-7,6.1c-1.4-4.6-3.2-1.4-4.6-0.1
		c-11.4,10.6-21.5,22.3-31.2,34.4C572.5,445.6,565.5,454.8,558.4,463.8z"/>
	<path class="st7" d="M221.8,494.2c6.9-14.8,17.2-27.3,28.1-39.3c4-4.4,9.2-0.9,14.9-1c-10.5,13.6-20.9,27.2-31.4,40.8
		c-4.5,5.2-9.6,10-11.6,16.9c-0.4,1.4-0.9,2.9-2.6,2.4c-1.4-0.4-2-1.7-2.1-3.3c-0.2-2.9,0.9-5.4,1.7-8.1
		C219.7,499.8,221.2,497.1,221.8,494.2z"/>
	<path class="st7" d="M628.2,483.3c5.7-10.2,13.2-19,21-27.6c4.4-4.9,9.7-2.4,16.4-2.8c-10.6,13.8-20.3,26.4-30,39
		c-5.3,6.5-11.8,12.2-13.8,20.9c-0.2,1-0.8,1.7-1.8,1.8c-1.4,0.2-2-0.7-2.3-1.9c-0.8-2.8,0-5.4,0.7-8.1
		C620.3,496.8,624.9,490.3,628.2,483.3z"/>
	<path class="st7" d="M362.9,467.7c6.5-7,15.2-10,23.7-13.7c4.2-1.3,8.5-1.8,12.7-3.1c3.3-0.9,5.9,0.4,8.2,2.6
		c1.2,1.2,1.4,3,0.4,4.5c-1,1.4-2.4,0.8-3.7,0.1c-0.6-0.4-1.1-0.8-1.7-1.2c-5.1-2.4-9,0.7-12.9,3c-11,6.4-19.1,16.2-27.6,25.3
		c-3.9,4.2-9,7.4-11.6,12.8c-3,3.7-4.7,7.9-4.8,12.7c0,1.3,0.5,3-1.5,3.3c-1.6,0.3-2.5-1.1-3.2-2.2c-1.1-1.8-1.1-3.9-1.2-6
		c-0.3-10.9,4.7-19.5,11.9-27.1C355.1,475,359,471.3,362.9,467.7z"/>
	<path class="st8" d="M314.3,461.1c-10.3,10.6-21.3,20.7-30,32.9c-2.7,3.8-5.1,7.7-7,12c-1.9,4.2-0.2,6.2,4,6.5
		c6.5,0.4,12.3-1.8,17.8-4.9c9.7-5.6,18.3-12.7,26.9-19.8c1.2-1,2.5-2.4,4.2-0.9c1.4,1.3,1.6,2.8,0,4.2
		c-13.2,11-25.7,23.1-43.6,26.1c-12.5,2.1-18.5-4-16.7-16.6c1.3-9.4,6.5-16.8,12.5-23.6c4-4.5,7.8-9.3,13.3-12.1
		c1.4,3.5-1.5,5-3.3,6.9c-4.4,4.5-8.6,9.1-12.3,14.1c-4,5.4-6.6,11.1-6.3,18.2c8.6-16,21.1-28.7,33.9-41c1.3-1.3,2.7-2.5,4.7-2.7
		C313.2,460.3,313.8,460.6,314.3,461.1z"/>
	<path class="st9" d="M362.9,467.7c-4.4,7.1-11.7,11.7-16.3,18.7c-4.5,6.7-6.1,13.8-5.9,21.6c0.1,2.3,1,3.9,3.6,5.5
		c0.9-6.1,0.8-12.3,6.1-16.2c0.5,0.3,0.6,0.6,0.5,1c-0.1,0.4-0.3,0.5-0.4,0.5c-0.9,1.9-1.9,3.7-2.5,5.7c-0.9,2.5-3,5.3-0.4,7.8
		c2.2,2.2,5.2,1.5,7.9,0.9c15.9-3.3,28.9-12.4,42-21.3c2.2-1.5,5-6.5,7.7-2.9c3.2,4.2-2.8,5.3-5,7.1c-5.7,4.7-11.9,8.9-18,13.1
		c-9.7,6.7-20.5,9.7-32.3,9c-7.9-0.4-11.4-5.1-11.2-12.9C338.9,487.7,350.4,477.5,362.9,467.7z"/>
	<path class="st10" d="M312.7,461c-15.3,14.1-30.4,28.3-38.8,47.8c-2.9-5.3-2.2-13.3,2.2-20.1c4.3-6.6,9.3-12.6,15.1-18.1
		c1.8-1.7,4.1-3.1,4.7-5.9c4.9-4.7,10.4-8.4,16.7-10.8c3.2-0.5,8-4,9.2-1.2c1.6,3.9-4.3,4.5-6.8,6.7
		C314.3,460.1,313.4,460.5,312.7,461z"/>
	<path class="st11" d="M247.1,402.5c0.2-1.8,2.9-2.5,1.9-5.2c-3.9,0.2-5,5.6-9.1,5c7-7.5,15.1-13.7,23.7-19.3c6.7-4.4,16-5,18.1-1.2
		c3.6,6.5,0.1,12.2-3.8,17.2c-6.5,8.2-13.7,15.7-22.6,21.5c-3.1,1.5-3.1-0.5-2.3-2.4c0.8-2.1,2.7-3.6,3.9-5.5
		c5.2-6.2,10.4-12.3,15.2-18.9c1.1-1.5,2.8-3.2,1.4-4.9c-1.7-2.1-3.9-0.5-5.6,0.5c-5,3-9.6,6.3-13.8,10.4
		C252.3,401.6,250.5,404.3,247.1,402.5z"/>
	<path class="st12" d="M350.4,498.8c0-0.5-0.1-1-0.1-1.5c1.1-5.2,5.8-7.7,8.8-11.3c9.2-10.6,18.5-21.4,31-28.5
		c3.8-2.1,8.1-6,13.1-1.8c-13.9,4.3-24.1,13.6-33.5,24.2c13.4-4.9,26-11,33.5-24.2c1.6-0.2,2.1,3.3,3.8,1.4c1.3-1.5,0-3-1.4-3.9
		c-1.9-1.2-3.9-1.8-6.4-1.3c-4.2,0.9-8.3,2.6-12.7,2.1c4.5-2.7,9.5-3.8,14.6-3.9c6.7-0.2,9.2,3.6,7.2,10c-1.7,5.2-5.5,8.5-9.6,11.6
		c-9.6,7.1-20.1,12.6-31.6,15.8C360,489.3,354.4,492.6,350.4,498.8z"/>
	<path class="st13" d="M628.2,483.3c-1.7,7.7-7.3,13.8-8.8,21.6c-0.6,2.9-1.4,5.6,0.3,9.2c3.8-9.3,8.4-16.9,16-22.3
		c-3.2,4.5-6.5,9-9.6,13.6c-1.6,2.4-4.9,5-2.2,7.8c2.4,2.4,5.7,0.1,8.3-1.4c9.5-5.5,17.6-12.8,25.9-19.9c1.1-0.9,2-1.9,3.1-2.8
		c1.2-1,2.4-1.3,3.6,0c1.2,1.3,1.1,2.5-0.1,3.6c-10.9,10.5-21.4,21.5-36.7,25.5c-8.1,2.1-12.8-2.4-11.2-10.7
		C618.4,498.5,622.3,490.4,628.2,483.3z"/>
	<path class="st14" d="M258.1,413.1c-0.3,2.3-2.2,3.4-3.5,4.9c-1.1,1.3-1.6,2.3,0.7,2.5c-7.8,8.9-17.7,15.4-26.9,22.6
		c-11.7,9.1-23.8,17.6-35.7,26.3c0-0.2-0.1-0.5,0-0.7c8.2-9.1,13.4-20.4,22.1-29.1c0.4-0.4,1.2-0.6,1.8-0.9c0.9,6-3.9,7.9-6,10
		c7.6-5.6,16.5-12.3,25.4-19.1c5.3-4.1,10.3-8.6,15-13.3C252.9,414.5,254.7,412,258.1,413.1z"/>
	<path class="st15" d="M633.7,397.1c-0.3-5.2,2.2-3.1,4.4-1.7c0.9,1.9,1.8,3.8,2.7,5.6c4.4,14.3,2.8,27.5-7.5,38.9
		c-4.8,7.7-11.5,13.1-19.7,16.7c-2.4,1-6.2,3.3-6.3-2.5c2.1-1,4.3-2.1,6.4-3.1c7.6-4.8,13.6-11,17.3-19.3
		C636.4,420.5,638.5,409.1,633.7,397.1z"/>
	<path class="st16" d="M221.8,494.2c0.5,4.3-2,7.9-3,11.9c-0.6,2.4-2,4.7,0.6,7.1c3.4-7.2,7.2-14.1,14-18.5c-2.8,4-5.6,7.9-8.4,11.9
		c-1.3,1.9-3.1,4.2-1.5,6.3c2,2.6,4.7,0.8,6.9-0.3c9.4-4.8,17.2-11.8,25.1-18.6c1.8-1.5,3.5-3.1,5.3-4.6c1.1-1,2.3-1.7,3.6-0.3
		c1.5,1.5,1,2.9-0.3,4.2c-10.6,9.7-20.5,20.4-34.9,24.6c-9.5,2.8-14.6-1.9-12.5-11.6C217.7,502,218.9,497.7,221.8,494.2z"/>
	<path class="st17" d="M312.7,461c2.1-3.4,6.3-4.3,9.7-8c-4,0.4-6.9,0.7-9.8,1c5.7-4,12.3-5.3,19.1-5.4c7-0.1,10,3.6,9.2,10.7
		c-0.8,7.2-6.4,12.7-12.1,11.8c-2.5-0.4-4.4-1.5-4.8-4.3c-0.5-3.5,1.3-5.6,4.4-7.1c2.4-1.1,7.8,0,6.2-4.3c-1.4-3.5-6.2-1.8-9.3-0.4
		c-3.8,1.7-7.3,4-11,6C313.8,461.1,313.2,461,312.7,461z"/>
	<path class="st13" d="M161.5,515.7c1.4-0.6,5.1,0.9,2.6-3.2c-1.7-2.8-1.2-5.4,2.3-6.7c0,2.1-2.7,4.4,0.4,6.2c2.4,1.4,4.6,0.1,6.6-1
		c10.4-6.3,19.8-13.9,29.1-21.6c1.5-1.3,2.8-4.6,5.6-1.8c2.7,2.8-0.5,4.2-2,5.4c-9.5,7.5-17.9,16.4-28.9,21.8
		C172.2,517.1,167,520.1,161.5,515.7z"/>
	<path class="st18" d="M607.3,454.1c1.2,4.5,4.1,2.5,6.4,1.5c7.7-3.4,13.6-8.9,18.7-15.5c0.7-0.6,1.3-0.5,1.9,0.2
		c-7.5,11.1-17.4,18.4-31.2,19.3c-7.8,0.5-13-2.7-13.8-8.5c-0.8-5.9,6.3-16.4,11.6-17.5c1.4-0.3,2.2,0.1,2.8,1.2
		c0.6,1.1,0.8,2.2-0.3,3.1c-1.7,1.6-3.5,3.1-5.1,4.7c-2.6,2.5-4.9,5.4-3.2,9.2c1.6,3.5,5.1,2.5,8,2.5
		C604.5,454.3,605.9,454.2,607.3,454.1z"/>
	<path class="st19" d="M693.6,504.1c0,6.9-6,13.1-11.6,12.8c-4.5-0.2-6.7-2.7-6.6-7.2c0.1-6.1,5-10.8,11.2-11
		C691.2,498.5,693.5,500.6,693.6,504.1z"/>
	<path class="st20" d="M686.7,423.5c-0.4,5.1-5.6,10.1-10.1,9.4c-4.5-0.7-6.5-4-5.8-7.9c0.9-4.9,4.8-8,9.8-8.1
		C684.4,416.9,687.2,419,686.7,423.5z"/>
	<path class="st21" d="M286.5,422.9c0,4.8-4.4,9.9-8.9,10c-4.6,0.1-6.9-2.7-6.8-7c0.1-5.6,4.1-8.3,8.9-8.9
		C283.5,416.5,286.5,418.4,286.5,422.9z"/>
	<path class="st1" d="M122.9,493.4c1-6.8,5.8-11.6,9.3-16.8c12-18.4,24.8-36.3,37.4-54.3c0.9-1.3,2-2.6,3.8-2.9
		c-9.8,16.6-21.8,31.7-32.4,47.7C135.1,475.9,129,484.6,122.9,493.4z"/>
	<path class="st22" d="M104.7,504.3c-1.1,1.9-2.2,3.6-4.6,4c0-0.9,0.2-2.1-0.9-2.3c-10.1-1.7-18-7.9-26.5-12.8
		c2.4-1.4,4.7-2.8,7.1-4.2c7.2,6.3,15.8,9.6,24.8,12.1C104.5,502.2,104.6,503.3,104.7,504.3z"/>
	<path class="st6" d="M634.3,440.3c-0.6-0.1-1.2-0.1-1.9-0.2c10.1-11.4,11.3-24.8,8.3-39C647.1,412.4,644.4,428.5,634.3,440.3z"/>
	<path class="st18" d="M631,431.7c-2.6,9.3-8.5,15.6-17.3,19.3C620.5,445.5,626,438.9,631,431.7z"/>
	<path class="st23" d="M138.2,497.2c0.1-1.9,5.7-3.9-0.2-5.5c1.1-1.2,2.1-2.5,3.3-3.5c1.6-1.3,3-0.6,4.2,0.8
		c1.2,1.4,0.4,2.7-0.7,3.6C142.7,494.2,141.5,497.2,138.2,497.2z"/>
	<path class="st13" d="M160.5,495.9c-0.1,6.2-0.1,12.3-0.2,18.5C156.8,508.3,157.5,502.1,160.5,495.9z"/>
	<path class="st23" d="M124.3,500.1c-0.7,0.5-1.5,1.3-2.3,1.4c-1.8,0.2-4.2,2.9-5.4,0.1c-0.8-2.1,1.7-3.4,3.7-4.2
		C119.8,501,122.7,499.7,124.3,500.1z"/>
	<path class="st1" d="M173.3,419.4c1-4.3,3-7.8,7-9.9C178.7,413.3,176.5,416.7,173.3,419.4z"/>
	<path class="st24" d="M58.9,450.3c-0.1-16.2,6.6-26.2,17.8-29.1c5.4-1.4,10.2-0.4,14.4,3c7.6,6.2,12.2,14.5,15.8,23.5
		c1.2,2.9-0.1,4.8-2,6.8c-9.2,9.3-18.3,18.5-27.3,27.9c-3,3.1-4.8,2.5-7-0.7C63.2,471.6,59.2,460.4,58.9,450.3z"/>
	<path class="st25" d="M176.8,405c-1.7,2.2-3.5,4.5-5.2,6.7c-18.5,21.8-35.1,45.1-51.8,68.2c-1.3,1.9-2.7,3.7-4.7,6.4
		c-1.6-6.8,0.8-12.8-0.4-18.4c-2.8-12.9,3-21.3,11.9-30c17.6-17.3,33.9-35.8,55-49c3.3-2.1,6.4-4.6,11.7-5.2
		C187.3,391.4,182,398.2,176.8,405z"/>
	<path class="st26" d="M104.5,501.1c-8.7,1-22.7-5.8-24.8-12.1c10-8.6,18.6-18.7,28.9-29.1C111.2,475,108,488.1,104.5,501.1z"/>
	<path class="st26" d="M258.1,413.1c-13.8,12-27.6,24.1-42.9,34.3c-1.9,1.2-3.8,2.5-6.3,3.1c2.6-3.9,5.2-7.8,7.8-11.6
		c10.1-12.1,20.3-24.2,30.4-36.4c6.8-3.6,11.3-10.3,18.2-13.7c3.4-1.7,7.5-5.7,10.5-2.3c2.7,3-1.2,6.8-3.4,9.6
		C267.8,401.9,262.9,407.5,258.1,413.1z"/>
	<path class="st27" d="M403.2,455.7c0.4,6.3-4.6,9.4-8.5,12.7c-8.1,7-17.9,11.2-28.3,14.4C371.6,470.7,391.7,456,403.2,455.7
		C403.2,455.7,403.2,455.7,403.2,455.7z"/>
</g>
</svg>
