<?xml version="1.0" encoding="utf-8"?>
<!-- Generator: Adobe Illustrator 21.1.0, SVG Export Plug-In . SVG Version: 6.00 Build 0)  -->
<svg version="1.1" id="Layer_1" xmlns="http://www.w3.org/2000/svg" xmlns:xlink="http://www.w3.org/1999/xlink" x="0px" y="0px"
	 viewBox="0 0 900 596" style="enable-background:new 0 0 900 596;" xml:space="preserve">
<style type="text/css">
	.st0{fill:#FEFEFE;}
	.st1{fill:#221F1F;}
	.st2{fill:#242121;}
	.st3{fill:#272424;}
	.st4{fill:#242120;}
	.st5{fill:#252222;}
	.st6{fill:#2D2929;}
	.st7{fill:#262222;}
	.st8{fill:#2C2828;}
	.st9{fill:#2E2A2A;}
	.st10{fill:#322F2F;}
	.st11{fill:#FDFDFD;}
	.st12{fill:#FCFCFC;}
	.st13{fill:#FAF9F9;}
	.st14{fill:#FBFAFA;}
	.st15{fill:#F8F7F7;}
</style>
<g>
	<path class="st0" d="M452,512.3c-145.7,0-291.3-0.1-437,0.2c-6.1,0-6.7-1.6-6.7-7.1c0.2-137.6,0.2-275.3,0-412.9
		c0-5.2,1.2-6.1,6.2-6.1c291.6,0.1,583.1,0.1,874.7,0c4.5,0,6.4,0.2,6.4,5.9c-0.2,138.1-0.2,276.2,0,414.3c0,4.9-1,5.8-5.8,5.8
		C743.8,512.3,597.9,512.3,452,512.3z"/>
	<path class="st1" d="M551.3,504.8c-16.5,0-16.5,0-20.7-16.1C526,471,526,471,507.5,471c-12.5,0-25.1,0.2-37.6-0.1
		c-3.9-0.1-5.4,1.2-6,5c-1.5,8.3-3.8,16.6-5.2,24.9c-0.6,3.7-2.1,4.5-5.5,4.4c-7.8-0.2-15.6-0.2-23.4,0c-3.6,0.1-4.1-0.9-3.4-4.5
		c16.2-79.2,32.2-158.5,48.3-237.7c1.5-7.4,3.4-14.7,4.4-22.2c0.6-4.4,2.6-5.3,6.5-5.1c6.8,0.3,13.7,0.4,20.6,0
		c5.2-0.4,7.3,1.3,8.3,6.6c8,40,16.3,79.9,24.5,119.8c9.2,44.6,18.3,89.1,27.5,133.7c1.9,9,2,8.9-6.8,8.9
		C557,504.8,554.2,504.8,551.3,504.8z"/>
	<path class="st1" d="M837,269.4c-6.9,0-12.8,0.4-18.6-0.1c-4.6-0.4-5.4,1.4-5.4,5.5c0.1,39.7,0,79.5-0.2,119.2c0,4.5,0.9,6.3,5.8,6
		c6.8-0.4,13.7,0.1,20.6-0.2c4.2-0.2,5.2,1.3,5.1,5.3c-0.3,8-0.4,16.1,0,24.1c0.2,4.7-1.6,5.5-5.7,5.4c-7.1-0.3-14.2,0.1-21.3-0.1
		c-3.4-0.1-4.6,0.9-4.5,4.4c0.2,7.8,0.3,15.6,0,23.4c-0.2,4.1,1.2,5.1,5.2,5.1c13.2-0.2,26.5,0.1,39.7-0.2c4-0.1,5.3,1.2,5.1,5.2
		c-0.3,9.2-0.2,18.4,0,27.7c0.1,3.5-0.6,5-4.6,5c-26-0.2-52-0.3-78,0c-6.5,0.1-5.1-4-5.1-7.5c0-66.9,0-133.9,0-200.8
		c0-18.4,0.1-36.9-0.1-55.3c0-4.2,1-5.8,5.5-5.7c14.7,0.3,29.3,0.1,44,0c3.2,0,5.1,0.3,5.8,4.2C832.2,249.5,834.6,259.1,837,269.4z"
		/>
	<path class="st1" d="M305.9,369.5c0-42.1,0.2-84.1-0.2-126.2c-0.1-6.5,1.8-8.1,7.9-7.6c7.5,0.5,15.1,0.2,22.7,0.1
		c3-0.1,4.4,0.8,4.1,4c-0.2,1.6,0,3.3,0,5c0,71.6,0.1,143.2-0.1,214.9c0,5.9,1.4,7.6,7.3,7.3c13-0.5,26,0,39-0.2
		c4.4-0.1,6.4,0.7,6.1,5.7c-0.4,9-0.2,18-0.1,26.9c0.1,3.4-1,4.5-4.5,4.5c-26-0.1-52-0.2-78,0c-5.8,0-4.3-3.8-4.3-6.7
		C305.9,454.6,305.9,412,305.9,369.5z"/>
	<path class="st1" d="M249.3,503.7c-11.8,0-23.4-0.2-34.9,0.1c-4.6,0.1-4.7-3.3-5.6-5.9c-9.5-26.1-15.6-53-18.3-80.5
		c-4.9-50.5-2.2-100.5,12.4-149.4c2.8-9.5,6.6-18.6,9.8-28c1.1-3.2,2.8-4.3,6.2-4.2c11.3,0.2,22.7,0.1,34.6,0.1
		C219.7,324.6,218.9,413.6,249.3,503.7z"/>
	<path class="st1" d="M90.5,369.8c0,42.6-0.1,85.1,0.1,127.7c0,5.5-1.4,6.9-6.7,6.5c-7.3-0.5-14.7-0.5-22,0c-5.2,0.3-6.8-1-6.7-6.5
		c0.4-19.4,0.1-38.8,0.1-58.2c0-54.6-0.1-109.2,0.1-163.8c0-5.8-1.3-8.3-7.3-7.2c-0.9,0.2-1.9,0.2-2.8,0.1
		c-5.6-0.5-13.5,2.7-16.1-1.1c-2.2-3.3,1.3-10.6,2.6-16.1c3.6-16,3.7-16,20.4-16c9.7,0,19.4,0.6,29.1-0.2c7.2-0.6,8.3,2.1,8.2,8.6
		c-0.3,42.1-0.2,84.2-0.2,126.2C89.8,369.8,90.1,369.8,90.5,369.8z"/>
	<path class="st1" d="M635.3,235.6c-4.2,15.6-7.8,30.9-9.9,46.5c-3.2,23.8-0.3,46.9,6.4,69.7c7.1,24.1,13.3,48.4,14.5,73.7
		c1.3,28-6,53.5-20.7,77.1c-1.3,2.1-3,2.5-5.3,2.5c-9.4-0.1-18.9,0-28.2,0c-1.3-2.1,0.2-3.4,1-4.7c20.1-32.1,23.2-66.9,16.4-103.4
		c-3.7-19.6-9.8-38.6-14.8-57.9c-7.4-28.3-4.8-56.5,1.9-84.5c1.5-6.1,1.8-13.9,5.7-17.7c4.1-4,12.1-1,18.4-1.3
		C625.5,235.4,630.2,235.6,635.3,235.6z"/>
	<path class="st1" d="M680.3,504c9.2-14.7,15.7-29.1,19.3-44.8c5.4-24,3.1-47.9-2.1-71.5c-4.3-19.4-10.3-38.4-14.7-57.8
		c-5.7-25.1-2.3-50.1,3.3-74.9c1.5-6.6,1.3-15,6.2-18.9c4.7-3.8,12.8-1,19.3-1.1c13.3-0.2,13.5,0,9.7,13.1
		c-11.3,39.5-8.9,78.4,4,117.2c7.5,22.6,11.3,46.1,10.9,70.1c-0.5,23.6-7.8,45.2-20,65.2c-1.5,2.5-3.3,3.5-6.2,3.4
		C700.6,503.8,691.1,504,680.3,504z"/>
	<path class="st2" d="M474.4,96.5c5.1,8.7,9.6,16.2,14.3,24.3c4.4-8.1,8.5-15.7,13.1-24.3c9.3,19.1,18.2,37.4,27.2,55.8
		c-5.4,1.9-7.8-0.2-9.7-4.6c-5.5-12.4-11.4-24.7-17.4-37.6c-4.5,8.2-8.6,15.6-13.2,23.8c-4.6-7.9-9-15.3-13.7-23.4
		c-5.9,13.2-11.6,25.3-16.8,37.6c-1.8,4.3-4.4,5.8-9.5,4.2C457.1,134.1,465.5,115.8,474.4,96.5z"/>
	<path class="st2" d="M403.4,153.2c-16.3-0.1-28.9-12.5-28.8-28.5c0-16.1,13.1-28.7,29.7-28.5c16.2,0.2,28.9,12.7,28.8,28.6
		C433,141.1,420.2,153.3,403.4,153.2z"/>
	<path class="st3" d="M624.4,152.3c-5.3,2-8.4,0.2-10.7-4.1c-1.9-3.5-4.5-6.6-6.4-10.2c-2-3.7-5.1-4-8.4-3.3c-3.4,0.8-1.5,3.9-1.7,6
		c-0.3,2.8-0.1,5.7-0.1,8.5c0,2,0,3.8-2.8,3.9c-2.5,0.1-3.3-1.1-3.3-3.4c0-16.5,0-33,0-49.6c0-1.4,0.1-2.7,1.8-3.4
		c12.1-5.1,28.7,7.9,27.5,21.3c-0.4,4.2-1.9,8.1-5.1,10.5c-4.4,3.2-3.1,5.7-0.5,9.1C618,142.2,621.1,147.2,624.4,152.3z"/>
	<path class="st2" d="M560.7,94.8c8.6,18.8,16.6,36.3,24.5,53.8c0.6,1.3,2.3,3.1,0.1,4.1c-1.5,0.7-3.7,1-5.2-0.7
		c-0.3-0.3-0.6-0.7-0.9-1.1c-2.2-3.2-2-9.1-6.2-9.5c-8.4-0.8-17-0.4-25.4,0.4c-2.9,0.2-3,4.4-4.3,6.8c-1.2,2.2-1.8,4.9-5.4,4.6
		c-2.2-0.2-3.9-0.4-2.6-3.2C543.6,131.9,552,113.8,560.7,94.8z"/>
	<path class="st4" d="M206,94.6c8.4,18.5,16.3,35.9,24.2,53.2c0.7,1.5,2.8,3.5,0.3,4.8c-2,1-5.3,1-5.9-1.9
		c-2.3-10.8-10.1-10.5-18.4-9.7c-2.3,0.2-4.8,0.4-7.1,0c-5.7-1-8.8,1.5-10.4,6.7c-0.5,1.6-1.1,3.2-2.2,4.4c-1.4,1.5-3.6,1.1-5.4,0.7
		c-1.6-0.4-1.1-1.8-0.6-2.9C188.9,131.8,197.2,113.7,206,94.6z"/>
	<path class="st5" d="M375.4,152.2c-5.1,1.8-8.1,0.5-10.4-3.7c-2-3.7-4.8-7-6.8-10.7c-2-3.8-5.3-3.8-8.5-3.1c-3.4,0.7-1.6,3.9-1.8,6
		c-0.3,2.6,0,5.2-0.1,7.8c-0.1,1.9,0.8,4.5-2.7,4.6c-3.9,0.1-3.1-2.7-3.1-4.9c0-11.1,0-22.2,0-33.3c0-3.3,0-6.6,0-9.9
		c0-9.1,0.3-9.5,9.6-8.1c8.2,1.2,15.6,4,18.8,12.7c3,8.1,0.5,14.9-5.7,20.3c-2.6,2.2-1.7,3.7-0.2,5.9
		C368.2,141.1,371.7,146.6,375.4,152.2z"/>
	<path class="st2" d="M668.5,105.9c0,14.7,0.1,28.3-0.1,41.9c0,2,1.4,5.2-2.7,5.1c-4,0-2.8-3.1-2.8-5.2c-0.1-17,0-34,0-52.6
		c10.4,6.6,19.9,12.6,30.8,19.5c0-5.2,0-9.5,0-13.8c0-2.1-0.5-4.3,3-4.3c3.5,0,3,2.2,3,4.3c0,16.1,0,32.1,0,48.2
		c0,1.8,0.4,3.8-2.6,4c-3.1,0.2-3.4-1.6-3.4-4c0-7.6-0.1-15.1,0.1-22.7c0.1-3.5-1-5.6-4.1-7.4C682.7,115,676.1,110.7,668.5,105.9z"
		/>
	<path class="st5" d="M106.1,282.7c3.1-15.6,6.1-30.8,9.2-46.1c0.4-2.1,1.7-3.1,4-3.1c2.5,0,3.6,0.9,4.2,3.6c3,15,6.2,30,9.3,45
		c0.3,1.5,1.3,3.6-1.3,3.9c-1.9,0.2-3.9,0.7-5.4-1.9c-3.8-6.7-10.2-6.6-13.7,0.2c-1.2,2.4-2.8,2.2-4.6,2
		C105,285.9,106.2,283.9,106.1,282.7z"/>
	<path class="st2" d="M277,155.9c-9.7-20.1-18.9-39.1-28.1-58.2c6.1-1.4,6.2-1.4,8.6,3.4c5.4,10.8,10.6,21.6,16,32.3
		c1,2,1.3,4.6,4,5.8c5.8-12.7,11.6-25.2,17.1-37.9c1.7-3.8,3.6-6,8.7-3.9C294.8,116.4,286.2,135.5,277,155.9z"/>
	<path class="st6" d="M235.5,124.4c0-7.1-0.2-14.2,0.1-21.3c0.1-2.4-2.3-6.7,3.4-6.6c4.9,0.2,3.1,3.9,3.1,6.3
		c0.2,11.6,0.1,23.1,0.1,34.7c0,9.1,0,9.1,9.5,9.1c2.8,0,5.7,0,8.5,0c2.2,0,3.6,0.5,3.6,3.2c0,2.6-1.3,3.1-3.5,3.1
		c-7.1-0.1-14.2-0.1-21.3,0c-3.7,0.1-3.5-2.1-3.5-4.6C235.5,140.5,235.5,132.4,235.5,124.4z"/>
	<path class="st7" d="M328,153c-10.6-0.1-9.2,1.4-9.3-9.5c-0.1-13.7,0.2-27.4-0.1-41.1c-0.1-4.8,1.4-6.3,6-5.8
		c2.6,0.3,5.2,0.1,7.8,0c2.2-0.1,2.8,1,2.9,3c0.1,2.3-1.3,3-3.1,2.6c-7.3-1.5-7.9,2.6-7.6,8.3c0.4,6.1,0,12.3,0.1,18.4
		c0.1,3.6-1.9,8.6,5.1,8.1c1.2-0.1,1.7,1.5,1.6,2.7c0,1.8-1.1,2.4-2.7,2.5c-1.8,0.1-4.2-0.3-3.9,2.6c0.3,3.5,3.2,1.9,5,2.1
		c1.6,0.2,3.3,0.1,5,0c2-0.1,3.1,0.5,3.1,2.8c-0.1,1.9-0.6,3.2-2.8,3.1C332.7,152.9,330.3,153,328,153z"/>
	<path class="st2" d="M631.4,127.5c0-6.6-0.3-13.2,0.1-19.8c0.2-4.3-0.9-6.1-5.4-5.5c-2,0.3-4.5,0.5-4.2-3c0.2-2.8,2.2-2.6,4.1-2.6
		c5.4,0,10.9,0,16.3,0c2.1,0,4.4-0.3,4.4,3c0,3-2.2,2.8-3.9,2.6c-4.9-0.8-5.8,1.5-5.7,5.9c0.3,13.2,0.2,26.5,0,39.7
		c0,1.9,1.5,5.1-2.6,5.2c-4.1,0.2-2.9-2.9-2.9-4.9C631.4,141.2,631.4,134.4,631.4,127.5z"/>
	<path class="st8" d="M312.3,125.4c0,7.8,0,15.6,0,23.4c0,2,0.6,4.5-3,4.2c-2.8-0.2-2.7-2.1-2.7-4c0-16.1,0-32.2,0-48.2
		c0-2.2-0.1-4.3,3.2-4.2c3.6,0.2,2.4,2.9,2.5,4.7C312.3,109.3,312.3,117.3,312.3,125.4z"/>
	<path class="st9" d="M655.8,124.7c0,8,0.1,16.1,0,24.1c0,1.7,0.8,4-2.3,4.2c-3.1,0.2-3.4-1.7-3.4-4.1c0-16.1,0-32.2,0-48.2
		c0-2.3,0-4.3,3.2-4.2c3.1,0.1,2.4,2.3,2.5,4C655.8,108.6,655.8,116.7,655.8,124.7z"/>
	<path class="st10" d="M711.9,124.9c0,7.6,0.1,15.1,0,22.7c0,2.1,1.1,5.1-2.7,5.4c-3.9,0.2-3.1-2.8-3.1-4.9
		c-0.1-15.6-0.1-31.2,0-46.8c0-1.9-0.8-4.6,2.7-4.7c3.8-0.1,3.1,2.7,3.2,4.9C711.9,109.3,711.9,117.1,711.9,124.9z"/>
	<path class="st9" d="M137.1,292.9c-10.8,7.6-23.3,1.2-35.5,4.1c1.7-4.8,4.3-6.2,8.3-6.2c9,0.2,17.9,0,26.9,0
		C136.9,291.5,137,292.2,137.1,292.9z"/>
	<path class="st0" d="M496.1,335.5c3.3,14.4,6.2,26.9,9.1,39.5c3.7,16.3,7.2,32.7,11.1,49c1.3,5.6,1.6,8.9-6.1,8.4
		c-10.1-0.6-20.3-0.1-30.5,0.3c-4.1,0.2-4.6-1-3.8-4.8C482.6,397.7,489.1,367.5,496.1,335.5z"/>
	<path class="st0" d="M404.3,101.9c13.1,0,22.9,9.8,22.9,22.7c0,12.2-10.8,22.9-23.2,23c-12.7,0.1-23.1-10.2-23.3-22.7
		C380.6,111.9,390.9,101.9,404.3,101.9z"/>
	<path class="st11" d="M597,115.9c0-1.7,0-3.3,0-5c0-8.8,2.2-10.1,10.2-6.3c6,2.8,8.8,8.8,6.9,14.6c-1.6,5.1-9.5,9.8-14.7,9.3
		c-2.5-0.3-2.4-1.7-2.4-3.4C597.1,122,597.1,118.9,597,115.9C597.1,115.9,597,115.9,597,115.9z"/>
	<path class="st12" d="M560.7,110.1c3.9,9,7.2,16.5,10.8,24.7c-6.5,0-12.1,0-17.7,0c-2.6,0-4.2-0.2-2.7-3.5
		C554.2,124.8,557.1,118.1,560.7,110.1z"/>
	<path class="st13" d="M195,134.4c3.7-8.3,7-15.7,10.9-24.4c3.9,8.8,7.2,16.3,10.7,24.4C209.2,134.4,202.7,134.4,195,134.4z"/>
	<path class="st14" d="M347.8,115.7c0-0.7-0.2-1.5,0-2.1c1.4-3.5-3.6-9.8,3.5-10.6c8-0.9,15,5.9,14.6,13c-0.3,6.8-9,13.5-15.7,12.4
		c-2.4-0.4-2.4-1.8-2.4-3.5C347.9,121.9,347.9,118.8,347.8,115.7C347.9,115.7,347.9,115.7,347.8,115.7z"/>
	<path class="st15" d="M119.9,256.6c0.8,3.9,1.7,7.3,2.2,10.7c0.2,1.3,2.1,3.3-0.6,4c-1.5,0.4-3.4,0.4-4.8-0.2
		c-1.6-0.7-0.9-2.6-0.5-3.8C117.4,264,116.7,259.9,119.9,256.6z"/>
</g>
</svg>
