<?xml version="1.0" encoding="utf-8"?>
<!-- Generator: Adobe Illustrator 21.1.0, SVG Export Plug-In . SVG Version: 6.00 Build 0)  -->
<svg version="1.1" id="Layer_1" xmlns="http://www.w3.org/2000/svg" xmlns:xlink="http://www.w3.org/1999/xlink" x="0px" y="0px"
	 viewBox="0 0 700 965" style="enable-background:new 0 0 700 965;" xml:space="preserve">
<style type="text/css">
	.st0{fill:#FEFEFE;}
	.st1{fill:#040404;}
	.st2{fill:#090909;}
	.st3{fill:#0B0B0B;}
	.st4{fill:#0F0F0F;}
	.st5{fill:#070707;}
	.st6{fill:#121212;}
	.st7{fill:#131313;}
	.st8{fill:#F4F4F4;}
	.st9{fill:#191919;}
	.st10{fill:#2E2E2E;}
	.st11{fill:#1D1D1D;}
	.st12{fill:#6E6E6E;}
	.st13{fill:#737373;}
	.st14{fill:#2D2D2D;}
	.st15{fill:#7C7C7C;}
	.st16{fill:#929292;}
	.st17{fill:#686868;}
	.st18{fill:#D5D5D5;}
	.st19{fill:#010101;}
	.st20{fill:#767676;}
	.st21{fill:#696969;}
	.st22{fill:#343434;}
	.st23{fill:#636363;}
	.st24{fill:#646464;}
	.st25{fill:#565656;}
	.st26{fill:#626262;}
	.st27{fill:#777777;}
	.st28{fill:#5C5C5C;}
	.st29{fill:#3C3C3C;}
	.st30{fill:#2C2C2C;}
	.st31{fill:#F5F5F5;}
	.st32{fill:#FDFDFD;}
	.st33{fill:#FAFAFA;}
	.st34{fill:#757575;}
	.st35{fill:#707070;}
	.st36{fill:#464646;}
	.st37{fill:#E8E8E8;}
	.st38{fill:#F8F8F8;}
	.st39{fill:#7B7B7B;}
</style>
<g>
	<path class="st0" d="M350.4,622.3c-115.2,0-230.4,0-345.5,0.1c-3.2,0-4.1-0.5-4.1-4c0.1-90.1,0.1-180.2,0-270.3
		c0-3.1,0.3-4.2,3.9-4.2c230.8,0.1,461.6,0.1,692.4,0c3,0,3.9,0.4,3.9,3.7c-0.1,90.3-0.1,180.5,0,270.8c0,3.5-1,3.9-4.1,3.9
		C581.4,622.2,465.9,622.3,350.4,622.3z"/>
	<path class="st1" d="M402,485.2c-7.7,0-15.4,0-23.2,0c-1.8,0-3,0-3.1-2.4c0-2.4,1-2.9,3.1-2.9c13,0.1,25.9,0,38.9,0
		c1.2,0,3,0.7,3.5-0.9c0.9-2.8-1-3-3.2-3c-12.4,0-24.8-0.1-37.1,0.1c-3.7,0.1-5-1-4.6-4.6c0.5-4.4-1.9-10.2,1-13
		c2.7-2.5,8.3-0.7,12.7-0.7c11.8-0.1,23.6,0.1,35.4-0.1c3.1,0,4,0.9,4,4c-0.2,6.7-0.2,13.4,0,20.1c0.1,2.6-0.7,3.6-3.4,3.5
		C418.1,485.1,410.1,485.2,402,485.2z"/>
	<path class="st1" d="M211.8,446.1c8,0,16,0.1,24,0c2.4,0,3.3,0.7,3.3,3.2c-0.1,7.3-0.2,14.6,0,21.8c0.1,3.3-1.7,3.3-4.1,3.4
		c-2.6,0-4-0.3-4-3.5c0-8.1-0.2-8.1-8.2-8.1c-9,0-18.1,0.1-27.1-0.1c-2.7,0-3.7,0.8-3.4,3.5c0.1,1.1,0,2.3,0,3.5
		c0,4.3-2.5,6-6.6,4.6c-1.4-0.5-1.2-1.5-1.2-2.4c0-7.9,0-15.7-0.1-23.6c0-2.6,1.6-2.3,3.2-2.3C195.8,446.1,203.8,446.1,211.8,446.1
		C211.8,446.1,211.8,446.1,211.8,446.1z"/>
	<path class="st1" d="M330.3,474.4c-7.4,0-14.9-0.1-22.3,0.1c-2.9,0.1-4.2-0.7-4.1-3.9c0.2-7,0.2-14,0-21c-0.1-3.2,1.3-3.5,3.9-3.6
		c2.7,0,3.9,0.4,3.8,3.6c-0.1,8.2,0.1,8.2,8.2,8.2c10.9,0,21.9,0,32.8,0c1.8,0,4-0.7,3.9,2.5c0,3.4-2.5,2.2-4.1,2.2
		c-12.4,0.1-24.8,0.1-37.2,0c-2.5,0-4,0.2-3.9,3.5c0.1,3.1,1.1,3.9,4.1,3.9c12.5-0.2,25.1-0.1,37.6,0c1.4,0,3.8-1.1,3.9,2
		c0.1,3.1-2.1,2.6-3.9,2.6C345.4,474.4,337.9,474.4,330.3,474.4C330.3,474.4,330.3,474.4,330.3,474.4z"/>
	<path class="st1" d="M275.3,462.5c-6.4,0-12.8,0.1-19.2,0c-2.7-0.1-3.8,0.8-3.4,3.5c0.2,1.3,0,2.6,0.1,3.9c0.2,2.8,0,4.6-3.7,4.6
		c-3.7,0-4.4-1.4-4.2-4.6c0.2-3.6,0-7.3,0.1-10.9c0-1.3-1-3.4,0.9-3.8c2.2-0.4,5.4-1.3,6.5,0.6c1.3,2.2,2.8,1.7,4.3,1.7
		c12.4,0.1,24.7,0,37.1,0.1c1.6,0,3.9-1.1,4,2.3c0.1,3.6-2.4,2.6-4.2,2.6C287.5,462.6,281.4,462.5,275.3,462.5z"/>
	<path class="st2" d="M439.2,493.6c-6.2,6.6-9.9,14.2-9.5,23.4c0.3,0.7,1.2,1,1.6,1.6c0.5,0.8,1.2,1.6,1.2,2.7
		c-0.3,0.6-0.8,0.9-1.4,1.1c-2,0.3-3.2-0.9-4.4-2.3c-0.6-0.9-1-2-1.6-2.9c-2.5-8.3-0.3-15.5,4.9-22c0.8-0.7,1.3-1.6,1.9-2.4
		c0.9-0.6,2.2-0.8,2.8-1.9c5.1-5.1,10.8-9.1,17.9-10.6c1.8-0.4,4.8-2.1,5.1,2.1c-6.8,0.3-11.3,4.6-15.8,9
		C441.1,492.2,440.3,493,439.2,493.6z"/>
	<path class="st2" d="M443.4,460.1c0,3.8-0.1,7.6,0,11.4c0.1,2.8-1.3,3.1-3.5,3c-2.1-0.1-4.1,0.3-4-3c0.2-7.6,0.2-15.2,0-22.7
		c-0.1-3.2,1.9-2.6,3.7-2.7c1.9,0,3.9-0.4,3.8,2.7C443.3,452.5,443.5,456.3,443.4,460.1C443.5,460.1,443.4,460.1,443.4,460.1z"/>
	<path class="st3" d="M492,510.3c-1.6,1.3-3.2,2.6-5.4,1.2c-2-1.2-2.4-3.2-2-5.3c-0.7-0.9-1.3-1.9-0.9-3.2
		c2.7-8.7,5.8-17.3,10.4-25.1c0.9-1.5,1.9-2.9,2.9-4.3c0.8-0.1,1.1,0.4,1.3,1c-0.1,4.3-2.4,7.9-3.7,11.8c-0.6,1.7-1.7,3.4-0.9,5.4
		c0.1,0.4,0,0.8-0.3,1.1c-2.8,2.9-3.5,6.7-4.5,10.4C488.7,506.1,487,509.6,492,510.3z"/>
	<path class="st4" d="M370.3,464.1c0,2-0.1,4.1,0,6.1c0.1,2.6-0.1,4.3-3.6,4.4c-3.4,0-3.8-1.5-3.7-4.2c0.1-4.7,0.2-9.3,0-14
		c-0.1-2.9,1.5-2.9,3.6-2.9c1.9,0.1,3.9-0.3,3.7,2.7C370.2,458.8,370.3,461.5,370.3,464.1z"/>
	<path class="st5" d="M456.9,464.2c0,1.9-0.2,3.8,0,5.6c0.7,4.2-1.5,4.8-5,4.6c-1.9-0.1-2.6-0.7-2.5-2.6c0.1-5.4,0.1-10.7,0-16.1
		c0-3.4,2.4-2.1,4-2.2c1.7-0.2,3.6-0.5,3.5,2.4C456.8,458.7,456.9,461.5,456.9,464.2z"/>
	<path class="st6" d="M483.8,503c0.4,1,1.1,2,0.9,3.2c-1.3,0.1-1.9,1.1-2.6,2c-1,1.4-1.9,3-3.3,4c-2.1,1.6-4.6,3.9-7.3,1.9
		c-2.4-1.7-1.9-4.5-0.9-7.1c0.7-1.7,1-3.5,1.7-5.8c-2.1,0.8-5.1,3.8-4.3-1.3c0.5-3.5,3.6-1.8,5.4-2.7c1-1.1,2.1-2.1,3.7-1.1
		c1.6,1,1.1,2.5,0.7,3.9c-1.1,3.1-2.2,6.2-3.3,9.4c-0.3,1-1.5,2.2,0.1,3c1.2,0.6,2.2-0.3,3.1-1C480.3,509,481.8,505.8,483.8,503z"/>
	<path class="st7" d="M430.7,519.3c-0.3-0.8-0.7-1.5-1-2.3c3.3,0.5,6.5-1.4,9.8-0.9c1.1,0.2,1.2-0.9,1.3-1.8
		c0.2-1.3,0.7-2.5,0.9-3.8c0.9-5.5,2-10.9,8.9-12.1c-2,5.6-4.1,11.4-6.2,17.1c-0.7,1.3,0.6,2.3,0.3,3.6c-1,2-1.9,4.1-2.9,6.1
		c-2.4-0.2-1.7-2.1-2-3.5c-0.1-0.6-0.1-1.2-0.2-1.8c-0.8-1.7-2.4-1.5-3.9-1.5C434.1,518.5,432.5,519.6,430.7,519.3z"/>
	<path class="st6" d="M458.5,517.3c-3.9,1.4-5.7-0.1-5.5-4.2c-0.1-0.7-1.2-1-0.6-1.9c0.8-2.3,1.9-4.4,2.5-6.8
		c0.8-3.6,2.7-5.7,6.6-5.9c-0.8,4.4-2.7,8.3-4.2,12.5c-0.6,1.6-1.2,3.2,0.3,4.7C458.3,516,459,516.3,458.5,517.3z"/>
	<path class="st8" d="M441,491c3.5-3.6,7-7.1,11.8-9c1.7-0.7,3.3-0.9,4.8,0.2c0.6,0.4,1.2,0.8,1.8,1.3c-3.3,4.5-8.6,5.9-13.3,8.2
		C444.4,491,442.2,494.2,441,491z"/>
	<path class="st9" d="M474.2,472.8c-5.1-5.8-8-13-12.3-19.4c4.9,1.9,7,6.5,9.9,10.4c3,1.7,3.9,4.8,5.4,7.6c0.5,0.9,0.5,2.3-0.3,2.8
		C475.6,475.1,475,473.4,474.2,472.8z"/>
	<path class="st10" d="M498,474.6c-0.3-0.4-0.6-0.7-0.9-1.1c0.5-0.7,0.9-1.4,1.5-2.1c1-1.1,2.3-2.1,3.8-1.4c1.6,0.7,1.5,2.4,1.3,3.8
		c-1.2,7.5-4.2,14-10.2,18.9c0-0.3,0-0.7,0-1c-0.6-1.8,0.6-3,1.4-4.3c2-3.5,3.7-7.1,4.4-11.1C499.5,475.3,499.7,474.3,498,474.6z"/>
	<path class="st11" d="M475.9,463.2c5.1,5.9,8.5,12.9,12.9,19.6c-3.2-0.3-3.2-0.3-9.3-9.3c-2.2-2.6-4.2-5.4-5.8-8.4
		c-0.4-0.8-0.9-1.6-0.1-2.3C474.3,462.4,475.3,462.3,475.9,463.2z"/>
	<path class="st12" d="M452.4,511.2c0.2,0.6,0.4,1.3,0.6,1.9c-2.5,0.2-4,2-6.3,3.6c5.4,2.1,10.3,4,15.2,5.8c-0.5,2-1.8,1-2.9,0.9
		c-4.7-1.5-9.1-4.3-14.3-4.4c-2-1-1-2.3-0.3-3.6C447.8,515.3,449,511.2,452.4,511.2z"/>
	<path class="st13" d="M459,523.5c1-0.2,2.2,0.1,2.9-0.9c2.9,0.7,5.7,2.2,8.8,2.4c6.6,0.5,9.4-1.3,11.8-7.5c0.2-0.6,0.6-1.2,1.2-2.3
		c0.4,6.5-2.7,10.3-8.3,11.3C469.5,527.6,464.3,525.5,459,523.5z"/>
	<path class="st14" d="M476.1,457.4c3.9,1.4,5.2,3.7,6.5,5.8c1.1,1.8,2.5,3.6,3.3,5.6c0.5,1.2,2.9,2.2,1.4,3.5
		c-1.8,1.5-2.8-1.1-3.5-2C481.3,466.5,479.1,462.4,476.1,457.4z"/>
	<path class="st15" d="M441.1,527.8c-0.8,8.2-8.9,16.6-16.7,17.4c-2,0.2-3.7-0.6-5.2-1.6c0.5-0.8,1.2-1.2,2-1.3
		c7.8,0.2,13.1-3.6,16.3-11.7c0.3-0.8,0.7-1.5,1.3-2.1C439.4,527.8,440.1,527.3,441.1,527.8z"/>
	<path class="st16" d="M406,526.9c-3.5-7.8-4.1-15.4,0.7-23c0.8,0.2,1.2,0.6,1.5,1.3c-2,6.4-2.3,12.8-0.8,19.3
		C407.3,525.6,406.9,526.4,406,526.9z"/>
	<path class="st17" d="M492,510.3c-4.2,0-5-1.9-2.9-7.1c0.7,2-1.5,5.4,1.2,6c2.7,0.6,3.6-2.8,4.8-4.8c1.5-2.7,2.7-5.5,4.2-8.7
		C500,500.9,496.2,508,492,510.3z"/>
	<path class="st18" d="M475.9,463.2c-0.7-0.2-1.3-0.9-2-0.3c-0.8,0.7,0,1.2,0.4,1.8c1.9,2.8,4.2,5.4,5.2,8.8
		c-1.8-0.2-4.2,4.5-5.3-0.7c0.9,0.3,1.3,1.6,2.8,1.4c-0.8-4-3.9-6.8-5.2-10.5C473,462.7,474.1,460.5,475.9,463.2z"/>
	<path class="st9" d="M453,448.9c-1.7-0.2-3.8,0.7-3.6-2.3c0.1-3.3,2.5-2.1,4.1-2.2c1.7-0.1,3.6-0.4,3.6,2.3
		C456.9,450.1,454.3,448.4,453,448.9z"/>
	<path class="st19" d="M366.7,444.4c1.7,0,3.7-0.3,3.5,2.5c-0.2,3-2.4,1.8-3.9,1.9c-1.4,0.1-3.3,0.6-3.3-2.1
		C363.1,443.9,365.1,444.5,366.7,444.4z"/>
	<path class="st20" d="M434.7,490.8c-0.3,1.2-1.2,1.8-2.2,2.1c-1.9,1.5-4.4,0.5-6.5,1.5c-4,1.2-7.6,3.4-11.8,3.8
		c-1-1.1,0.2-1.5,0.6-2.2c4.1-3.2,8.9-3.8,13.8-3.9C430.7,492.1,432.8,492,434.7,490.8z"/>
	<path class="st21" d="M446.2,490.9c4.4-2.5,8.8-4.9,13.2-7.4c-0.1,3.2-2.7,4.3-4.9,5.4c-2.9,1.5-5.8,3.2-9.1,3.7
		C444.9,491.7,445.8,491.4,446.2,490.9z"/>
	<path class="st22" d="M462.1,489.2c1.4,0.3,2.7,0.8,2.6,2.4c0,1.9-0.9,3.5-3,3.5c-1.5,0-2.2-1.1-2.3-2.6
		C459.3,490.5,460.5,489.6,462.1,489.2z"/>
	<path class="st23" d="M458.5,517.3c-0.3-0.5-0.6-1-0.9-1.6c4.6-2.4,5.9-7.9,10.1-10.7C465.6,509.8,463.2,514.4,458.5,517.3z"/>
	<path class="st24" d="M406,526.9c0.1-0.7,0-1.5,0.9-1.8c0.4,0.2,0.7,0.4,1,0.6c2.3,2.4,4,5.3,6.9,7.1c0.4,1.6-0.9,1.5-1.8,1.8
		C409.6,533.1,407.7,530.1,406,526.9z"/>
	<path class="st25" d="M473.4,497.2c-1.3,2-4,1-5.4,2.7c-2.1-1.9-0.1-3.2,0.9-4.2C471.1,493.4,471.7,497,473.4,497.2z"/>
	<path class="st26" d="M414.7,496.1c-0.3,0.7-0.5,1.3-0.8,2c-1.4,2.9-3.3,5.4-6.3,6.9c-0.3-0.3-0.6-0.7-0.9-1
		C408.6,500.5,411,497.7,414.7,496.1z"/>
	<path class="st27" d="M420.9,542.6c-0.4,0.8-1,0.9-1.8,0.9c-2.1-1.2-3.8-2.8-4.4-5.2c0.8-0.4,0.1-2.3,1.8-1.7
		C417.7,538.8,420.3,539.9,420.9,542.6z"/>
	<path class="st28" d="M446.2,490.9c-0.3,0.6-0.6,1.1-0.8,1.7c-2.1,0.3-3.9,1.7-6.2,0.9c0.6-0.8,0.5-2.2,1.7-2.6
		C442.7,492,444.5,490.5,446.2,490.9z"/>
	<path class="st29" d="M441.1,527.8c-0.6,0.3-1.2,0.5-1.8,0.8c-0.6-0.5-0.8-1.1-0.9-1.9c0.5-2.2-0.2-4.8,2.5-6.2
		c0.7,1.5-0.5,3.3,1.1,4.6C442.2,526.2,441.8,527.1,441.1,527.8z"/>
	<path class="st30" d="M416.5,536.5c-1.2,0-0.8,1.6-1.8,1.8c0-1.4-0.5-2.7-1.7-3.6c0.4-0.7,1.7-0.5,1.7-1.7
		c-0.5-0.5-0.5-1.1-0.2-1.7c1-0.5,1.4,0.3,1.8,1c0.2,0.7,0.4,1.5,0.6,2.2c0.1,0.6,0.1,1.1-0.1,1.6
		C416.8,536.2,416.6,536.4,416.5,536.5z"/>
	<path class="st31" d="M402.5,469.8c-5.1,0-10.2-0.2-15.3,0.1c-3,0.1-3.1-1.5-3.2-3.8c-0.1-2.5,0.4-3.7,3.3-3.7
		c10.3,0.1,20.7,0.2,31,0c2.9,0,3,1.3,2.9,3.5c-0.1,2,0.4,4.1-2.9,3.9C413,469.7,407.7,469.8,402.5,469.8z"/>
	<path class="st31" d="M211.7,450.7c5.4,0,10.8,0.2,16.2-0.1c3-0.1,3.3,1.3,3.3,3.7c0,2.5-0.4,3.6-3.3,3.6
		c-10.6-0.2-21.2-0.2-31.9,0c-2.8,0-3.4-1-3.4-3.6c0-2.5,0.6-3.8,3.4-3.7C201.3,450.8,206.5,450.7,211.7,450.7z"/>
	<path class="st32" d="M407.6,504.9c1.8-2.6,4-4.8,6.3-6.9c3.5-2.3,7.7-2.7,11.3-4.4c1.6-0.8,3.4-0.4,5.1-0.3c1.2,0.1,1.9,0.7,0.8,2
		c-4.7,6.6-8.5,13.5-5.1,22c0.8,0.8,0.5,1.9-0.2,2.3c-3.4,2.5-5.9,6.2-9.8,8.2c-3.1-0.1-6.1-0.4-9-1.7c-0.1-0.3-0.1-0.6-0.2-0.9
		C404.2,518.3,404.8,511.6,407.6,504.9z"/>
	<path class="st33" d="M416.5,534.8c-0.8-0.3-0.8-1-0.8-1.6c0.8-7,5.3-10.7,11.3-13.3c1.6,0.2,2.4,2.4,4.3,1.8
		c2.2,0.1,4.1-0.7,5.9-1.8c1.1-0.7,2.1-2.1,3.6-0.7c0,0.5,0,0.9,0,1.4c-0.8,2-0.3,4.4-1.8,6.1C434.7,535.3,423.7,539.2,416.5,534.8z
		"/>
	<path class="st34" d="M427,519.8c-5.2,3.2-9.2,7.4-11.3,13.3c-0.3-0.6-0.6-1.2-0.9-1.8c-0.9-2,0.1-3.3,1.7-4.4
		c2.7-3.7,7.2-5.6,9.6-9.6C427.3,517.8,426.7,519,427,519.8z"/>
	<path class="st35" d="M440.8,519.2c-2,0.1-3,2-4.8,2.6c-1.7,0.6-3.2,1.5-4.7-0.1c0.3-0.3,0.6-0.5,0.8-0.8c1.2-1.7,3.1-2,5-2.1
		c-0.5-0.5-1.8-0.3-1.5-1.5C437.8,516.8,439.6,517.4,440.8,519.2z"/>
	<path class="st0" d="M435.7,517.3c0.1,0.8,4.1,0.2,0.8,2.2c-1.3,0.8-2.8,1.2-4.3,1.4c-0.5-0.5-1-1.1-1.4-1.6
		C432.1,517.9,433.9,517.6,435.7,517.3z"/>
	<path class="st36" d="M431.2,495.3c-1.3-3-4.1-0.7-5.9-1.6c2.3-1.5,4.8-0.5,7.2-0.7C432.1,493.8,432.5,495,431.2,495.3z"/>
	<path class="st37" d="M498,474.6c0.9-0.7,0.9-2.2,2.9-2.6c0,7.7-3.7,13.7-7.4,19.7c-1.3,0.1-1.8,0-1.2-1.6
		C494.3,485,496.1,479.8,498,474.6z"/>
	<path class="st38" d="M420.9,542.6c-2.2-1.4-4.6-2.8-4.4-6l0,0c1-0.6,1.9-0.2,2.9-0.1c5.2,0.5,10-0.5,14.2-3.8
		c1.4-1.1,2.5-2.9,4.8-2.4c-1.6,7.1-6.5,10.9-13,13.1C423.9,543.8,422.3,543.6,420.9,542.6z"/>
	<path class="st39" d="M438.4,530.2c-4.1,2.8-7.9,6.3-13,7c-3,0.4-6,0.6-8.9-0.7c0-0.6,0-1.2,0-1.8c9.5,2.9,16.3-1.8,22.6-8.1
		c0.1,0.6,0.1,1.3,0.2,1.9C439,529.1,438.7,529.7,438.4,530.2z"/>
	<path class="st33" d="M416.5,526.9c-0.6,1.5-1.1,2.9-1.7,4.4c0,0.6-0.1,1.1-0.1,1.7c-4.3-0.3-5.2-4.5-7.6-7
		C410.3,525.8,413.4,526.3,416.5,526.9z"/>
</g>
</svg>
