<?xml version="1.0" encoding="utf-8"?>
<!-- Generator: Adobe Illustrator 21.1.0, SVG Export Plug-In . SVG Version: 6.00 Build 0)  -->
<svg version="1.1" id="Layer_1" xmlns="http://www.w3.org/2000/svg" xmlns:xlink="http://www.w3.org/1999/xlink" x="0px" y="0px"
	 viewBox="0 0 900 596" style="enable-background:new 0 0 900 596;" xml:space="preserve">
<style type="text/css">
	.st0{fill:#FEFEFE;}
	.st1{fill:#162968;}
	.st2{fill:#162967;}
	.st3{fill:#152869;}
	.st4{fill:#152969;}
	.st5{fill:#152868;}
	.st6{fill:#E40138;}
	.st7{fill:#182A67;}
	.st8{fill:#182B68;}
	.st9{fill:#172966;}
	.st10{fill:#152865;}
	.st11{fill:#162866;}
	.st12{fill:#969DAE;}
	.st13{fill:#111348;}
	.st14{fill:#06164B;}
	.st15{fill:#C20D3A;}
	.st16{fill:#06164C;}
	.st17{fill:#424C6F;}
	.st18{fill:#424B6D;}
	.st19{fill:#515A78;}
	.st20{fill:#3A4168;}
	.st21{fill:#474F71;}
	.st22{fill:#35355E;}
	.st23{fill:#343B60;}
	.st24{fill:#5E6482;}
	.st25{fill:#E7E8ED;}
	.st26{fill:#454C6F;}
	.st27{fill:#5B637F;}
	.st28{fill:#B68FA2;}
	.st29{fill:#B595A5;}
	.st30{fill:#2D365B;}
	.st31{fill:#FEFDFD;}
	.st32{fill:#E4023C;}
	.st33{fill:#D7DAE1;}
	.st34{fill:#E2E4E9;}
	.st35{fill:#E4E6EB;}
	.st36{fill:#E0E2E7;}
	.st37{fill:#E3E5EA;}
	.st38{fill:#DFE1E7;}
	.st39{fill:#E7E9ED;}
	.st40{fill:#DDE0E6;}
	.st41{fill:#DDDFE6;}
	.st42{fill:#E2E4EA;}
	.st43{fill:#E7E9EE;}
	.st44{fill:#EAEBEF;}
	.st45{fill:#ECEDF1;}
	.st46{fill:#E6E8EC;}
	.st47{fill:#EAECF0;}
	.st48{fill:#EAECEF;}
	.st49{fill:#EBECF0;}
	.st50{fill:#F1F2F5;}
	.st51{fill:#F0F1F4;}
	.st52{fill:#FCFDFD;}
	.st53{fill:#FBFCFC;}
	.st54{fill:#FCFCFD;}
	.st55{fill:#FAFAFB;}
	.st56{fill:#E30339;}
	.st57{fill:#DE0C45;}
	.st58{fill:#F4F4F6;}
</style>
<g>
	<path class="st0" d="M749.3,300.1c0,97.3,0,194.6,0.1,292c0,4.5-0.9,5.4-5.4,5.4c-195.1-0.1-390.2-0.2-585.2,0
		c-5.2,0-5.6-1.6-5.6-5.9c0.1-194.9,0.1-389.7,0-584.6c0-4.7,0.9-5.8,5.7-5.8c194.9,0.2,389.7,0.2,584.6,0c5.3,0,5.9,1.6,5.9,6.3
		C749.3,105,749.3,202.5,749.3,300.1z"/>
	<path class="st1" d="M545.6,454.2c0.7,1.2,0.5,2.2-0.8,2.5c-1.5,0.3-3.1,0.2-4.6,0.2c-60.4,0-120.9,0-181.3,0.1
		c-4.8,0-6.4-0.9-6.2-6.1c0.5-13.9,0.4-27.8,0.6-41.6c1-4.4,4.5-4,7.9-4c26.7,0,53.4,0,80.1,0c1.5,0,3.1,0,4.6-0.1
		c0.8-0.1,1.6-0.3,2.4-0.4c2,0.7,3.6,1.9,4.4,4c1.6,12.5,0.2,25,0.8,37.5c0.1,2.5-1,5.6,3.2,5.8c25.7,0,51.3,0,77,0
		c3.3,0,6.6-0.3,9.8,0.7C544.1,453.3,544.9,453.7,545.6,454.2z"/>
	<path class="st2" d="M596.8,194.9c8.9,0,17.9,0,28.3,0c-3.7,2.4-4.2,4.3-1.8,7c17,19.1,33.8,38.4,50.7,57.6
		c0.2,0.3,0.7,0.3,1.6,0.6c0-19.9-0.1-39.6,0.1-59.3c0-3.1-3.2-3.4-3.6-5.8c11.7,0,23.2,0,34.8,0c0,0.5,0.1,0.9,0.1,1.4
		c-4.7,0.3-9.5,0.9-14.2,0.8c-4.1-0.1-5.5,1.5-5.4,5.4c0.1,24.1,0.1,48.1,0,72.2c0,3.3,1.6,5.6,4.6,8.2c-7.6,0-14.1,0-22.2,0
		c6.1-3.2,3-5.4,0.9-7.8c-18.9-21.6-37.8-43.1-56.7-64.7c-0.4-0.4-1-0.6-2.2-1.2c0,22.8,0.1,44.9-0.1,67.1c0,3,2.1,4.3,5.3,6.6
		c-7.9,0-13.9,0-21.3,0c4.7-2.7,4.4-6.3,4.4-10c0-23,0-45.9,0-68.9C600.1,201,601.2,197.2,596.8,194.9z"/>
	<path class="st3" d="M385.7,191.9c-4.4,9-8.5,17.1-13.1,26.6c-1.6-7-6.2-9.1-11.1-10.8c-12.7-4.3-25.5-4.5-38,0.6
		c-6.9,2.8-10.7,8.5-9.5,13.5c1.6,7.1,7.7,8,13.4,8.4c9,0.7,18.1,0.8,27.1,0.9c5.6,0.1,10.9,1.1,16.1,3.1
		c16.2,6.1,20.2,26.2,7.6,38.1c-7.8,7.3-17.6,10-27.8,10.9c-14.7,1.3-29-0.3-42.3-7.5c-3.3-1.8-6.7-2.8-10.8-1.1
		c2.9-6.2,5.9-12.4,8.8-18.6c1.3,7.3,6.7,10,12,12.3c13,5.6,26.4,6.3,40.1,3c4.1-1,7.7-3.2,10.5-6.5c5.9-7,3.9-15.5-4.7-18.5
		c-9.1-3.2-18.7-2.2-28.2-2c-8,0.2-16-0.6-23.2-3.9c-14.6-6.7-16.8-25.5-4.2-35.9c10.6-8.8,23.4-10.8,36.6-10.8
		c8.4,0,16.8,1.3,24.5,4.7c6.1,2.7,10.1,1.5,12.7-4.5C382.6,193,383.2,192.1,385.7,191.9z"/>
	<path class="st4" d="M580,267.7c0,5.9,0,11.8,0,18.5c-4.2-3.8-8.9-3-13.3-3c-22.9-0.1-45.7,0-70.3,0c4.9-3,5.1-6.6,5-10.5
		c-0.1-22.7-0.1-45.4,0-68.2c0-3.6,0.3-7-3.4-9.7c21.9,0,43.8,0,65.7,0c4,0,8.4,1.1,12-3.2c0,6.4,0,12,0,18.6
		c-3.1-4.9-7.6-4.7-12-4.6c-14.3,0.1-28.7,0.2-43-0.1c-4.8-0.1-6.1,1.5-5.8,6c0.4,5.5,0.3,11,0,16.5c-0.1,3.3,0.6,4.6,4.3,4.5
		c10.1-0.3,20.3-0.1,30.4,0.2c3.9,0.1,5.6-1.6,6-5.3c0.4-3.8-0.3-7.7,2.2-11.2c0,14.7,0,29.4,0,44.6c-3.3-3-1.8-6.9-1.9-10.2
		c-0.1-5-1.7-7.1-7-6.9c-9.9,0.3-19.9,0.2-29.8,0c-3.1-0.1-4.7,0.7-4.2,4c0,0.2,0,0.4,0,0.7c0.1,7.7-2.8,17.8,1,22.4
		c3.9,4.8,14.4,1.1,22,1.3c11,0.3,22.1,0.1,33.1,0.3C575.1,272.3,577.9,271.1,580,267.7z"/>
	<path class="st4" d="M403.5,202.6c-0.8-2.6-0.5-6-5.5-6.1c0.4-0.6,0.9-1.1,1.3-1.7c2.7,0,5.4-0.1,8.1,0c19.1,0.5,38.3-1.4,57.4,1
		c15.8,2,21.8,9.6,21.2,25.4c-0.5,13.8-8.9,22.5-23.6,23.2c-13.2,0.7-26.4,0.7-39.6,0.4c-5.1-0.1-6.3,1.4-6,6.2
		c0.4,7.7,0.1,15.4,0.1,23.1c0,3.2-0.9,6.8,3.3,8.8c-6.7,0-13.5,0-20.2,0c3.2-2.2,3.1-5.6,3.6-8.7c0.3-0.4,0.7-0.7,0.7-1.1
		c0.2-23.2,0.2-46.3,0-69.5C404.2,203.3,403.8,202.9,403.5,202.6z"/>
	<path class="st5" d="M212.3,194.9c13.6,0,27.3,0,41.7,0c-2.8,2.8-2.6,5.3-1,8.5c11.4,23.3,22.5,46.7,33.8,70c1.6,3.4,2.7,7.4,7,9.4
		c-7.2,0-14.4,0-22.8,0c5.2-2.9,2.7-6,1.7-9.7c-3.2-11.4-10.2-15.1-21.7-13.6c-9.1,1.1-18.5,0.4-27.7,0.1c-3.7-0.1-5.7,0.8-6.8,4.4
		c-1.1,3.5-2.7,6.9-4.3,10.3c-1.4,3-3.1,5.9,2.1,8.7c-8,0-14.4,0-21.4,0c6.3-5.5,8.1-12.8,11.2-19.3c9.2-20.2,18.1-40.5,27.4-60.6
		c2-4.3,0.5-5.4-3.4-5.6c-5.2-0.3-10.3-0.7-15.5-1C212.3,195.9,212.3,195.4,212.3,194.9z"/>
	<path class="st6" d="M285.8,302c11.3-2.8,22.1,1.8,28.1,11.8c5.7,9.5,4.5,21.8-2.8,30.1c-8,9-20,11.5-30.6,6.4
		c-10.3-4.9-15.8-15.4-14.2-27.2c0.9-1.4,1.4-2.9,2.8-4.2c1.1-0.9,1.9,4.9,2.1-0.1c0.1-2,1.1-3.9,2.4-5.3
		C277.3,309.5,279.6,303.6,285.8,302z"/>
	<path class="st1" d="M656.8,352.7c0.6-17.4,0.7-34.4,0-51.7c10.5,0,22.1-0.3,33.7,0.1c6.3,0.2,12.6,1.9,14.7,8.9
		c1.8,5.9,0.8,11.4-5.5,15.1c7.3,4.4,9.2,10.9,6.7,18.3c-2.4,7.4-8.8,9.2-15.8,9.3C679.2,352.7,667.8,352.7,656.8,352.7z"/>
	<path class="st1" d="M411.9,300.5c20.9,0.1,32.8,13.5,28.9,32.9c-2.3,11.6-10.9,18.9-26.3,19.8c-27.5,1.5-36.5-17.6-30.6-36
		C387.5,306.3,397.9,300.4,411.9,300.5z"/>
	<path class="st7" d="M205,352.5c0-16.1,0-31.7,0-47.3c0-2.2-1.4-3-3.4-3.1c-2.4-0.1-4.8-0.3-7.1-1c14.7,0,29.5-0.2,44.2,0.1
		c9.9,0.1,15.1,4.6,15.5,12.6c0.6,10-3.5,14.7-13.9,16.3c-7.2,1.1-14.5,0.6-21.8,0.4c-4-0.1-5.6,1-5.2,5.2c0.3,3-0.6,6.3,0.2,9.2
		C215.9,353.8,210.6,353.3,205,352.5z"/>
	<path class="st8" d="M587.2,301c5,0,10.1,0,15.1,0c-1.5,12.7-0.9,25.4-0.4,38.1c0.2,5.5,7.6,8.1,18.5,7.6
		c9.2-0.4,14.3-3.2,14.6-9.3c0.5-10.8,0.2-21.6,0.2-32.4c0-1.2-1-2.3-1.7-3.9c5.5,0,10.7,0,16,0c-6.3-0.5-6.3,3.6-6.2,8.1
		c0.2,8.1,0.1,16.3,0,24.4c-0.1,11.9-4.9,17.2-16.6,18.9c-5.9,0.9-11.8,0.9-17.7-0.1c-10.4-1.7-15.2-6.5-15.6-17
		c-0.3-9-0.2-18.1-0.1-27.1C593.3,304.2,592.9,300.8,587.2,301z"/>
	<path class="st9" d="M524.6,336.3c2.2,2.8,4.2,5.5,6.2,8.1c-7.1,4-13.6,8.2-21.7,8.8c-11.3,0.7-21.7-1.2-29.3-10.2
		c-12.4-14.6-5.7-35,13.1-40.9c11.9-3.7,23-0.5,34,3.6c2.2,0.8,1.2,1.9,0.7,2.9c-1.2,2.3-2.6,4.6-3.9,6.9c-5.7-7.6-18.8-10.6-28.9-7
		c-8.8,3.2-13.7,10.2-13.3,19.1c0.4,8.6,7.5,16.1,17.9,18.7C509.4,348.8,519.3,344.9,524.6,336.3z"/>
	<path class="st10" d="M332.8,352.5c0-17.5,0-34.3,0-51.4c2.9,0,6.3,0,10,0c-2.6,4.8-1.3,9.8-1.4,14.7c-0.2,8.8,0.1,17.6-0.1,26.5
		c-0.1,3.5,1.1,4.5,4.6,4.5c9-0.2,18.1-0.2,27.1,0c2.4,0.1,4.1-0.9,6.2-2.4c0,3.3,0,6.2,0,8.8C363.8,351.9,348.3,353.1,332.8,352.5z
		"/>
	<path class="st11" d="M588,344.3c0,3.1,0.1,5.1,0,7c-0.1,1.1,0.4,2.5-2,2.2c-14.7-2-29.4-0.1-44.4-1.1c0-17.2,0-34.3,0-51.2
		c2.8,0,6.3,0,9,0c0,14.5,0,28.7,0,43c0,1.5,0.4,2.6,2.2,2.6c11-0.3,22,0.7,33-0.6C586.3,346.1,586.8,345.3,588,344.3z"/>
	<path class="st12" d="M448.8,405.5c-0.5,0-1,0-1.5,0c-14.7,0.9-29.4,0.3-44.1,0.4c-14.5,0.1-29,0.1-43.5,0c-2.1,0-4.4,0.8-6.4-0.8
		c1.5-2.1,3.6-1.1,5.5-1.1c60.4-0.1,120.9-0.1,181.3,0c1.8,0,4-0.9,5.5,1.1c-2.3,2.4-5.2,2-8,2c-26.6,0-53.1,0-79.7,0
		C454.6,407.2,451.6,406.9,448.8,405.5z"/>
	<path class="st13" d="M448.8,405.5c28.5-0.1,57-0.2,85.5-0.2c3.7,0,7.5-0.1,11.2-0.2c0.6,16.4,0.7,32.7,0.1,49.1
		c-0.6,0-1.2,0-1.8,0c-1.7-2-1.6-4.3-1.6-6.7c-0.2-3.1-0.1-6.2,0-9.4c-0.2-5.2-0.2-10.3,0-15.5c-0.2-2.8-0.1-5.6,0-8.4
		c-0.3-5.8-4.5-5.6-8.5-5.6c-24.6,0-49.2,0-73.7,0c-1.3,0-2.6,0-3.9-0.1c-1.6-0.1-3.1-0.3-4.6-0.7
		C450.4,407.1,449.6,406.3,448.8,405.5z"/>
	<path class="st14" d="M353.2,405.1c28.7,0.1,57.4,0.1,86.2,0.2c2.6,0,5.3,0.1,7.9,0.2c-2.1,1.9-4.6,1.1-7,1.1
		c-26.3,0.1-52.5,0-78.8,0c-3.1,0-6.2-0.2-8.3,2.7C352.8,407.9,352.4,406.5,353.2,405.1z"/>
	<path class="st15" d="M285.8,302c-6.2,6.1-12.8,12-14.6,22.5c-1.4-5.8-3.2-3-5-1.3C268.2,311.9,274.4,304.5,285.8,302z"/>
	<path class="st16" d="M403.5,202.6c2,1.4,1.4,3.5,1.4,5.5c0,20.2,0,40.5,0,60.7c0,1.9,0.5,4-1.4,5.5
		C402.9,250.3,402.9,226.5,403.5,202.6z"/>
	<path class="st17" d="M512.3,387.1c0.6,0.1,1.2,0,1.7,0.2c2.3,1,4.7,1.5,6.7-0.6c0.5-0.5,0.7-1.8,0.3-2.4c-1.4-2.5-3.7-1.8-5.9-1.3
		c-2.5,0.5-3.2-0.7-3.1-2.9c0.1-2-0.2-4.2,2.9-4c2.4,0.1,4.7,0,7.6,0c-1.8,4.6-6.8,0-8.4,4c3.4,0.7,7.7-0.8,9.1,3.9
		c0.5,1.9,0,3.7-1.5,4.7C518.5,390.9,515.3,390,512.3,387.1z"/>
	<path class="st18" d="M385.6,382.9c-2.4,2.3-6.1-0.4-6.5,3.3c-0.2,1.9,1.4,1.8,2.7,1.9c2.3,0.3,4.7-0.7,7.8,1
		c-4.7,0.8-9.6,2.5-12-0.7c-1.8-2.4-1.6-7.9,0-10.7c2-3.6,6.6-1,10.3-1.3c-0.6,3.6-3.2,1.7-4.7,2.2c-1.4,0.5-4.1-1.2-4,1.8
		c0.1,2.4,2.5,1.9,4.2,1.9C383.9,382.3,384.5,382.6,385.6,382.9z"/>
	<path class="st19" d="M425.2,390.7c-3.7-4.6,2.1-12.2-6.7-13.2c4.4-2,8.5-1.5,13.1-0.3C422.7,378.3,427.7,385.7,425.2,390.7z"/>
	<path class="st20" d="M400.2,379.2c-0.3,4,3,2.1,4.6,2.7c2.4,0.8,5.9,0.3,5.6,4c-0.2,3.7-3.5,4-6.4,4c-1.6,0-3.2-0.6-5-1
		c0.6-0.6,0.7-0.8,0.9-0.9c2.8-0.6,7.5,1.9,8-1.6c0.5-3.8-4.3-1.3-6.6-2.3c-2.8-1.2-5.6-2.5-2-5.9
		C399.9,378.2,400.2,378.6,400.2,379.2z"/>
	<path class="st21" d="M479.4,384.5c-3,1.9-5.3,0.9-7.2-1.6c-1.1-1.4-1.4-2.7,0-4.1c2.1-2.1,4.2-3.9,7.3-1.6c-0.2,0.6-0.5,1.1-1,1.4
		c-2.4,1.5-1.8,3,0.1,4.4C479,383.4,479.3,383.9,479.4,384.5z"/>
	<path class="st22" d="M458.3,376.9c0.2,4.1,1.6,8.3-1.5,12.3c-0.2-4.2-0.4-8.4-0.6-12.6C456.9,376.7,457.6,376.8,458.3,376.9z"/>
	<path class="st23" d="M502.9,384.1c1.6,2.4,0.7,4.4-1.6,5.1c-2.8,0.9-6,1.5-8.5-0.9c-1.6-1.6-1.9-3.3,0.5-4.6
		c0.6,0.1,1.1,0.4,1.5,0.8c1.7,2,3.5,2.4,5.4,0.4c0.3-0.4,0.7-0.8,1.2-1.2C502,383.6,502.5,383.7,502.9,384.1z"/>
	<path class="st24" d="M502.9,384.1c-0.5,0-1,0.1-1.4,0.1c-0.7-0.6-1.2-1.3-1.6-2.1c-1.6-2.8-5.7-1-7.3-3.8c2.4-2.3,5-3,8.3-1.6
		C504.8,378.6,502.6,381.6,502.9,384.1z"/>
	<path class="st25" d="M492.6,378.4c2.8,1.6,7-2.3,9,2.3c-2.4,4.3-5.1,3.7-8,0.5C493.3,380.2,492.9,379.3,492.6,378.4z"/>
	<path class="st26" d="M479.4,377.1c3.7,0.6,3.9,3.6,4.2,6.3c0.1,1.2,0.2,3.2-1.7,3.7c-2.2,0.6-0.4-3-2.5-2.6
		c-0.1-0.2-0.3-0.4-0.4-0.5c-0.6-2-0.6-4.1-0.1-6.2C479.1,377.5,479.3,377.3,479.4,377.1z"/>
	<path class="st27" d="M399.4,378.1c3.3-3.1,6.6-2.6,10.7,0.3c-3.7,1.1-7-0.7-9.8,0.8C399.9,378.8,399.7,378.5,399.4,378.1z"/>
	<path class="st28" d="M366.9,385c-4.3,0-8.5,0-12.8,0c0-0.3,0-0.6,0-0.9c4.3,0,8.5,0,12.8,0C366.9,384.4,366.9,384.7,366.9,385z"/>
	<path class="st29" d="M532.6,383.9c4,0,8,0,12,0c0,0.3,0,0.6,0.1,0.8c-3.9,0-7.9,0-11.8,0C532.8,384.5,532.7,384.2,532.6,383.9z"/>
	<path class="st30" d="M493.6,381.2c2.7,0.7,5.4,1.7,8-0.5c-0.1,1.2-0.1,2.4-0.2,3.6c0,0,0,0.1,0,0.1c-2.5,1.8-4.9,1.8-7.4,0
		c-0.2-0.2-0.4-0.5-0.7-0.6C493.4,382.9,493.5,382,493.6,381.2z"/>
	<path class="st31" d="M451.2,407.9c0.8-1.4,2-1.3,3.3-1c2.1,4.7,6.1,5.6,10.9,5.6c22.9-0.1,45.9-0.1,68.8,0c3.3,0,6.7-0.5,9.6,1.5
		c0,3-0.1,6-0.1,9c-3,2-6.4,1.5-9.6,1.5c-22.7,0.1-45.4,0-68.1,0.1c-2.9,0-6.4-0.9-8.1,2.8c-2.4,5.2,0,8.8,6.1,8.8
		c23.3,0.1,46.7,0,70,0.1c3.3,0,6.7-0.5,9.6,1.5c0,3.3,0,6.5-0.1,9.8c-2.9,2.8-6.6,2.1-10,2.1c-22.8,0.1-45.6,0.1-68.4,0
		c-4.2,0-7.8,0.4-10.2,4.3c-4.3,1.4-3.5-1.7-3.5-4c0-11.9,0-23.7,0-35.6C451.6,412.3,451.3,410.1,451.2,407.9z"/>
	<path class="st32" d="M455.1,454c-0.7-3.6-1.6-6.8,4.4-6.7c28.1,0.3,56.2,0.2,84.2,0.3c0,2.2,0.1,4.4,0.1,6.6
		C514.2,454.5,484.6,454.9,455.1,454z"/>
	<path class="st33" d="M392.5,442.8c-5,2.2-1.5-4-4.2-3.9c0.6-2.3,3.2-1.9,4.4-3.4c0.6,1.9,4.6,1.4,3.5,3.5
		C395.7,440.2,397.5,445.8,392.5,442.8z"/>
	<path class="st34" d="M360.7,451.7c-2.9,0.5,0.4-3.9-2.4-4.1c1.4-1.1,2.8-2.3,4.2-3.4c0.8,1.6,4,1.6,3.6,3.5
		C365.6,449.8,365.4,453.6,360.7,451.7z"/>
	<path class="st35" d="M443,451.5c-5.7,2.7-0.8-4.2-4-3.8c1.4-1.1,2.8-2.3,4.2-3.4c0.5,1.9,4.4,1.5,3.4,3.5
		C446,449,448,454.8,443,451.5z"/>
	<path class="st36" d="M402.8,451.5c-4.5,2.2-3.3-2.6-3.8-3.9c-0.7-1.7,2.9-1.6,3.5-3.4c1.4,1.2,2.8,2.4,4.1,3.6
		C403.7,447.5,408.2,454.2,402.8,451.5z"/>
	<path class="st37" d="M382.3,451.5c-4.5,1.7-1.2-3.5-3.6-3.5c0.5-2.2,2.7-2.6,4-3.8c0.4,2,4.2,1.4,3.4,3.5
		C385.6,449.3,386.5,454,382.3,451.5z"/>
	<path class="st38" d="M372.1,425.3c-5.1,2.9-0.9-3.7-3.5-3.4c0-2.7,3.3-2,4-3.9c0.2,2.2,4.5,1.2,3.4,3.4
		C375.3,422.7,377.3,428.3,372.1,425.3z"/>
	<path class="st39" d="M412.5,442.7c-5,1.9-0.8-4-3.5-3.8c0.2-2.1,2.8-1.6,3.5-3.2c1.2,1.4,4.6,1.2,3.9,3.2
		C416.1,440,417.1,445.5,412.5,442.7z"/>
	<path class="st40" d="M392.5,425.2c-5.3,3.2-2.4-2.4-3-3.3c-1.5-2.2,2.5-2.1,3.2-3.8c0.6,2,4.5,1.1,3.6,3.4
		C395.8,422.7,397.2,428,392.5,425.2z"/>
	<path class="st34" d="M433.1,442.7c-5.1,2.8-1.7-3.7-4.2-3.8c0.8-1.9,2.8-2.3,4.3-3.2c0.2,2.1,4.8,1.2,3,3.6
		C435.5,440.2,438.1,445.7,433.1,442.7z"/>
	<path class="st41" d="M422.7,451.4c-5.3,3.1-1.3-3.8-4-3.5c-0.1-2.6,3.4-1.5,3.7-3.6c1.4,1.2,4.3,1.6,3.8,3.5
		C426.1,448.7,427.6,454.2,422.7,451.4z"/>
	<path class="st42" d="M412.7,425.2c-4.5,1.2-1.4-3.6-3.7-3.8c1.4-1,2.8-2.1,4.2-3.1c0.2,2,4.7,0.8,3,3.6
		C415.5,423.1,417,428.6,412.7,425.2z"/>
	<path class="st43" d="M429.1,422.1c0.5-2.3,2.7-2.5,3.9-3.8c0.7,1.7,4.3,1.1,3.4,3.4c-0.5,1.2,0,3.7-3.7,4
		C428,426.1,431.4,422.1,429.1,422.1z"/>
	<path class="st44" d="M447.3,430.4c-2.6,0.6,0.2,4.1-3.9,4.2c-3.8,0-3.3-2.6-3.8-3.9c-0.7-2.3,2.8-2,3.4-3.8
		C444.3,427.9,445.7,429,447.3,430.4z"/>
	<path class="st45" d="M402.9,416.6c-4.2,2.2-3.3-2.1-3.6-3.5c-0.5-1.8,2.4-2,3.4-3.5c0.7,1.7,4.1,1.8,3.2,3.6
		C405.4,414.1,407.5,418.7,402.9,416.6z"/>
	<path class="st46" d="M422.9,416.4c-4.3,2.9-1.9-2.7-3.7-3.2c0.5-2.1,2.6-2.5,3.9-3.8c0,2.1,4.3,1.6,2.8,3.9
		C425.4,414.3,427.4,418.9,422.9,416.4z"/>
	<path class="st47" d="M365.3,430.9c-1.1,0.4,1.4,3.6-2.5,3.6c-3.3,0-3.5-2.2-3.8-3.6c-0.5-2.2,2.2-2.7,3.5-4
		C363.5,428.3,364.4,429.7,365.3,430.9z"/>
	<path class="st34" d="M372.5,442.7c-5.2,3-1.8-3.5-4.1-3.6c0.4-2.3,3.1-1.6,4-3.2c0.8,1.5,4.4,1.2,3,3.7
		C375,440.5,377.6,446,372.5,442.7z"/>
	<path class="st48" d="M442.9,416.6c-4.8,2.4-1.1-3.7-3.7-3.4c1.3-1.2,2.7-2.4,4-3.5c0.5,1.8,4,1.5,3.2,3.5
		C445.9,414.4,447.1,419,442.9,416.6z"/>
	<path class="st45" d="M362.1,416.6c-4.5,2.2-1.3-3.1-3.3-3.2c0.2-2.2,2.9-2.1,3.5-3.9c1.2,1.2,2.5,2.3,3.7,3.5
		C364.3,413.8,366.5,419,362.1,416.6z"/>
	<path class="st45" d="M382.5,416.7c-3.5,1.6-2.8-1.7-3-3.1c-0.4-2.2,1.7-3.1,3.3-4.1c0.1,2,4.1,1.3,2.9,3.9
		C385.1,414.7,386.2,418.2,382.5,416.7z"/>
	<path class="st49" d="M406.2,430.2c-1.2,2.2-1,4.2-4.2,4.3c-4.1,0.1-0.9-3.9-3.3-4.3c1.4-1.1,2.8-2.3,4.2-3.4
		C403,428.8,406.4,428.4,406.2,430.2z"/>
	<path class="st50" d="M418.2,430.5c1.9-1.5,3.2-3.4,4.6-3.5c1.2,0,2.5,2.1,3.8,3.2c-3.1-0.6,1.9,4.9-3.5,4.2
		C419.3,434,421,430.8,418.2,430.5z"/>
	<path class="st51" d="M386.6,430.3c-2.2,0.9,0,4.2-4,4.2c-3.6-0.1-3.3-2.6-3.5-3.8c-0.3-1.9,2-3.6,3.6-3.6
		C383.9,427,385.2,429.1,386.6,430.3z"/>
	<path class="st0" d="M440.5,206.6c7.2,0,14.5-0.2,21.7,0.1c6.2,0.2,10.4,3.3,11.3,9.8c1.1,7.6-2.3,13.7-9,15.7
		c-3.3,1-6.9,1.4-10.4,1.4c-11.2,0.2-22.5-0.1-33.7,0.1c-3,0.1-4.1-0.7-3.7-3.6c0-0.2,0-0.4,0-0.7c0.4-7.6-3.3-18.1,1.4-22.1
		C422.7,203.6,432.9,206.6,440.5,206.6z"/>
	<path class="st52" d="M260.4,248.6c-12,0-23,0-34,0c-0.6,0-1.3-0.1-2.6-0.2c5.7-13,11.2-25.7,17.3-39.7
		C247.8,222.4,253.9,235.1,260.4,248.6z"/>
	<path class="st53" d="M680.3,328.8c4,0,7.9-0.2,11.9,0.1c4.9,0.4,7.6,3.4,7.8,8.2c0.2,4.8-2.2,8.4-7.1,8.6
		c-8.1,0.5-16.3,0.3-24.4,0.4c-2.1,0-3.3-0.8-3.3-3.1c0.1-3.7,0.1-7.5,0-11.2c-0.1-2.9,1.8-3.1,3.9-3
		C672.8,328.7,676.5,328.7,680.3,328.8C680.3,328.8,680.3,328.8,680.3,328.8z"/>
	<path class="st54" d="M679.6,308.1c3.5,0,7.1-0.1,10.6,0c4.5,0.1,7.9,1.8,7.8,6.9c-0.1,4.6-3.1,6.6-7.4,6.7
		c-7.3,0.1-14.5,0-21.8,0.1c-2.8,0.1-3.7-0.9-3.8-3.8c-0.5-10-0.7-10,9.3-9.9C676.1,308.1,677.9,308.1,679.6,308.1z"/>
	<path class="st0" d="M411.7,346.8c-13.3,0-20.8-7.1-20.9-19.9c0-12.6,7.6-19.8,20.9-19.9c13.5-0.1,21.3,7.1,21.2,19.6
		C433,340,425.8,346.8,411.7,346.8z"/>
	<path class="st55" d="M227.3,324.1c-2.1,0-3.6,0-5.2,0c-10.8-0.1-8.1,0.7-8.8-8.7c-0.5-6.3,1.2-8.6,7.8-7.9
		c5.9,0.6,11.8-0.1,17.8,0.1c4.2,0.1,7.9,1.6,8.3,6.6c0.4,5.1-2,8.2-7.2,9.2C235.4,324.3,231.1,323.9,227.3,324.1z"/>
	<path class="st56" d="M543.7,437.9c-28.2,0.1-56.4,0.1-84.6,0.3c-3.9,0-5.2-1.2-4.5-4.9c0.2-1.3,0.2-2.7,0-4
		c-0.8-5.1,1.2-6.7,6.5-6.7c27.5,0.4,55.1,0.3,82.6,0.4C543.7,428,543.7,432.9,543.7,437.9z"/>
	<path class="st57" d="M543.8,414c-27.4,0-54.7-0.2-82.1,0.1c-5.7,0.1-8.4-1.1-7.3-7.2c28.1,0,56.3,0.1,84.4-0.2
		C545.2,406.6,544,410.4,543.8,414z"/>
	<path class="st44" d="M478.9,377.7c2.3,2,2.2,4.1,0.1,6.2c-2.2-0.5-5.4-0.1-5.1-3.5C474.1,377.8,476.6,377.5,478.9,377.7z"/>
	<path class="st58" d="M494,384.4c2.5-0.6,4.9-0.6,7.4,0c0.7,3.5-1.3,3.8-4.1,3.8C494.5,388.2,493.4,387.2,494,384.4z"/>
</g>
</svg>
