<?xml version="1.0" encoding="utf-8"?>
<!-- Generator: Adobe Illustrator 21.1.0, SVG Export Plug-In . SVG Version: 6.00 Build 0)  -->
<svg version="1.1" id="Layer_1" xmlns="http://www.w3.org/2000/svg" xmlns:xlink="http://www.w3.org/1999/xlink" x="0px" y="0px"
	 viewBox="0 0 700 965" style="enable-background:new 0 0 700 965;" xml:space="preserve">
<style type="text/css">
	.st0{fill:#FEFEFE;}
	.st1{fill:#0A0A0A;}
	.st2{fill:#0D0D0D;}
	.st3{fill:#0C0C0C;}
	.st4{fill:#0F0F0F;}
	.st5{fill:#0E0E0E;}
	.st6{fill:#767676;}
	.st7{fill:#080808;}
	.st8{fill:#FAFAFA;}
	.st9{fill:#101010;}
	.st10{fill:#111111;}
	.st11{fill:#262626;}
	.st12{fill:#4F4F4F;}
	.st13{fill:#3F3F3F;}
	.st14{fill:#616161;}
	.st15{fill:#292929;}
	.st16{fill:#B9B9B9;}
	.st17{fill:#D1D1D1;}
	.st18{fill:#E3E3E3;}
	.st19{fill:#1A1A1A;}
	.st20{fill:#5A5A5A;}
	.st21{fill:#CDCDCD;}
	.st22{fill:#F5F5F5;}
	.st23{fill:#CECECE;}
	.st24{fill:#BABABA;}
	.st25{fill:#B0B0B0;}
	.st26{fill:#FBFBFB;}
	.st27{fill:#F3F3F3;}
	.st28{fill:#EFEFEF;}
	.st29{fill:#EDEDED;}
	.st30{fill:#E9E9E9;}
	.st31{fill:#C3C3C3;}
	.st32{fill:#BFBFBF;}
	.st33{fill:#EAEAEA;}
	.st34{fill:#C7C7C7;}
	.st35{fill:#E6E6E6;}
	.st36{fill:#E7E7E7;}
	.st37{fill:#E4E4E4;}
	.st38{fill:#D9D9D9;}
	.st39{fill:#B6B6B6;}
	.st40{fill:#131313;}
	.st41{fill:#4A4A4A;}
	.st42{fill:#BDBDBD;}
	.st43{fill:#C2C2C2;}
	.st44{fill:#AEAEAE;}
	.st45{fill:#C9C9C9;}
	.st46{fill:#C4C4C4;}
	.st47{fill:#D8D8D8;}
	.st48{fill:#DADADA;}
	.st49{fill:#9C9C9C;}
	.st50{fill:#707070;}
	.st51{fill:#BBBBBB;}
	.st52{fill:#929292;}
	.st53{fill:#696969;}
	.st54{fill:#B3B3B3;}
	.st55{fill:#9F9F9F;}
	.st56{fill:#878787;}
	.st57{fill:#919191;}
	.st58{fill:#525252;}
	.st59{fill:#898989;}
	.st60{fill:#D3D3D3;}
	.st61{fill:#858585;}
	.st62{fill:#747474;}
	.st63{fill:#ECECEC;}
	.st64{fill:#848484;}
	.st65{fill:#595959;}
	.st66{fill:#8C8C8C;}
	.st67{fill:#B7B7B7;}
	.st68{fill:#444444;}
	.st69{fill:#DBDBDB;}
	.st70{fill:#8E8E8E;}
	.st71{fill:#121212;}
	.st72{fill:#2A2A2A;}
	.st73{fill:#B8B8B8;}
	.st74{fill:#303030;}
	.st75{fill:#3E3E3E;}
	.st76{fill:#7E7E7E;}
	.st77{fill:#DFDFDF;}
	.st78{fill:#A4A4A4;}
	.st79{fill:#8B8B8B;}
	.st80{fill:#FCFCFC;}
	.st81{fill:#E0E0E0;}
	.st82{fill:#D5D5D5;}
	.st83{fill:#D2D2D2;}
	.st84{fill:#939393;}
	.st85{fill:#999999;}
	.st86{fill:#8F8F8F;}
	.st87{fill:#727272;}
	.st88{fill:#7C7C7C;}
	.st89{fill:#A3A3A3;}
	.st90{fill:#DCDCDC;}
</style>
<g>
	<path class="st0" d="M701.3,482.8c0,115.4,0,230.9,0.1,346.3c0,3.1-0.7,3.8-3.8,3.8c-230.9-0.1-461.7-0.1-692.6,0
		c-3.1,0-3.8-0.7-3.8-3.8c0.1-230.9,0.1-461.7,0-692.6c0-3.1,0.7-3.8,3.8-3.8c230.9,0.1,461.7,0.1,692.6,0c3.1,0,3.8,0.7,3.8,3.8
		C701.3,252,701.3,367.4,701.3,482.8z"/>
	<path class="st0" d="M427.9,564.4c0.1-1.7-0.5-2.5-2.2-3.6c-4.1-2.6-8.1-3.1-12.7-2.2c-0.8,0.2-2.1,0.2-2.4-0.2
		c-2.7-4.1-7.5-1.2-10.8-3.3c-1.3-0.9-1.6,0.6-1.5,1.5c0.3,3.6-0.6,5.6-4.8,6.5c-3.2,0.7-2.4,4.9-2.2,7.4c0.2,2.7-0.5,4-2.7,4.5
		c-3.1,0.7-3.6,3.5-3.2,5.4c0.6,2.7-0.2,5.1-0.3,7.7c0,2.8-0.7,4.6-3.9,5.1c-2.8,0.5-2.9,3.3-2,5.1c2.7,5.6-0.4,10.3-1.8,15.3
		c-0.4,1.4-2.1,1.5-3.5,1.7c-2.4,0.2-4.9,0.5-7.3,0.9c-1.4,0.2-2.8,0.7-2.9,2.4c-0.1,3.9-2.7,3.4-5.2,3.1c-0.3,0-0.5-0.2-0.8-0.3
		c-2-0.3-4.4-1.3-5.3,1.3c-0.8,2.4,1,4.4,2.8,5.4c3.5,1.9,5.8,4.4,6,8.5c0,0.7,0.4,1.2,1,1.7c3.8,3,3.8,5.7-0.1,8.5
		c-2,1.4-3.4,2.9-4.6,5.3c-1.7,3.5-6.1,2-9.3,2.3c-1.6,0.1-3.2-0.2-3.7,1.4c-0.4,1.6,1.3,2.1,2.6,2.5c0.3,0.1,0.5,0.2,0.7,0.3
		c3.3,2.3,4.4,12.8,1.5,15.6c-1.7,1.7-2,3.2,0.1,4.2c2.4,1.1,2.6,2.9,2.6,5c0,2.2,0,4.4,0,6.6c0,1.3-0.5,3.1-1.5,3.1
		c-5-0.1-4.1,3.8-4.8,6.6c-1.2,4.8-3.9,7.9-8.8,8.5c-2.6,0.3-4.4,0.5-5.4,3.5c-1,3.1-4.7,3.1-7.1,3c-10.1-0.2-20,2.9-30.1,1.9
		c-3.6-0.4-6.3-2.9-9.8-3.5c-1.4-0.2-0.6-2.2-1.1-3.3c-0.4-0.9-0.6-2-1.7-2.1c-1.5-0.1-2,1.2-2,2.2c-0.1,3.7-2.3,3.7-5.3,4.8
		c-4.3,1.6-8.4,1.7-12.7,1.8c-1.4,0-2.1,1-3,1.8c-2.8,2.5-6,2-8-1.3c-0.4-0.6-0.6-1.3-1.4-1.1c-0.9,0.1-1,0.9-0.9,1.6
		c0.5,2-0.6,3-2.3,3c-1.4,0-2.6-1-2.6-2.7c0.1-2.9-2-2.2-3.4-1.9c-6.6,1.3-13.3,1.8-19.1-1.6c-4.2-2.5-7.4-4.1-12.2-1.3
		c-1.8,1.1-4.8,1.8-7.4,2c-1.3,0.1-1.5,1.3-1.9,2.4c-1.4,4-5.2,4.7-7.8,1.4c-1.2-1.7-2.5-2.5-4.4-2.2c-6.8,1.1-12.9-3.3-19.7-2.6
		c-0.7,0.1-1.9-0.5-2.1-1.1c-1.7-6.3-7.7-8.5-11.5-12.8c-2.2-2.5-2.1-6.1-3-9.2c-0.6-2.1-1.2-3.1-3.4-3.2c-3.8-0.2-7.7,0.9-11.4-1
		c-0.3-0.1-1,0-1.1,0.2c-1.5,2.7-0.6,5.6-0.7,8.4c0,1.7,1.2,2.2,2.8,2.3c2.8,0.1,3.7,1.8,3.7,4.4c0,2.3-0.1,4.6,0.5,6.9
		c0.7,2.6-1.8,5.1-4.5,5.1c-8.9,0-17.7,0.4-26.6-0.8c-1.4-0.2-2.7,0.3-4,0.7c-6.2,1.9-11-2.6-13-8.6c-1.8-5.7,0.6-6.6,4.7-7.8
		c2.6-0.7,3.3-3.6,5-5.3c2-2,1.7-4.1,0.1-6.2c-0.1-0.1-0.1-0.3-0.1-0.4c0.7-5.7,1.2-11.3-0.8-16.8c-0.2-0.5-0.1-1.2,0.2-1.6
		c4.3-5.9,0.1-9.7-3.4-13.6c-1.6-1.8-0.9-3.9-0.9-5.9c-0.1-9.4,0-9.2,9.1-9.3c11.9-0.1,23.8,0.4,35.8-0.3c4.5-0.3,9.1,1.5,13.8,1.3
		c1.5-0.1,2,1,2.3,2.4c0.9,3.6,4,4.8,6.4,2c5.5-6.4,12.6-5.8,19.9-5.4c6.4,0.3,12.8,0.1,19.1,0.1c2.1,0,4.1,1.1,6.4,0.3
		c2.3-0.8,2.9,2,4.5,3.7c0.8-3.7,3.2-4,6.2-4c11.3,0,22.5-0.2,33.8-0.3c2.7,0,4,1.3,4.2,3.9c0.2,3.3,0.1,6.5,0.5,9.8
		c0.3,2.3-0.6,5.5-4.2,5.4c-3.9-0.1-3.8,4.3-6.6,5.4c-0.1,0-0.1,1,0,1.1c3.9,1.8,1.7,5.8,3.2,8.5c0.7,1.2,1,3,0.2,4
		c-3.5,4.6-1.9,9.8-2.3,14.7c-0.1,1,0.1,2-0.2,2.8c-0.8,2.1,0.2,3.2,1.9,3.8c1.9,0.6,3.6-0.5,3.8-2.2c0.4-2.8,2-4,4.4-4.7
		c0.5-0.1,1.2-0.5,1.3-0.9c0.8-3.8,3.1-5.7,6.8-6.3c0.9-0.2,1-1.3,0.8-2.1c-1.4-4.8,0.9-9.6-0.5-14.6c-0.7-2.3,0.3-5.8,3.9-6.1
		c2.9-0.2,3.4-1.8,3.2-4.1c-0.4-2.9,1.3-3.8,3.5-5.5c3.1-2.4,5.6-5.6,8.6-8.3c2-1.8,3.3-4,6.2-4.4c1.1-0.1,2.6,0.1,2.6-1.3
		c0-1.3-1.3-2-2.7-2c-2.5-0.1-4.2-0.8-4.2-3.8c0-1.3-1.1-2.6-2.3-2.6c-6-0.3-5.3-5-5.5-8.7c-0.2-2.9,1.1-6-3.7-5.6
		c-1.3,0.1-1.5-1-1.5-2c-0.2-3.1-2.3-4.1-4.8-3.6c-4.3,0.9-8-2.6-12.4-1.2c-1.3,0.4-2-1.7-2.6-2.8c-2.2-3.7-5.1-5.2-9.3-3.8
		c-2.4,0.8-3.9,0.1-4.6-2.5c-0.9-3.5-5.2-6.9-8.8-7c-2.8-0.1-4.3-1.1-4.5-4.1c-0.4-5.2-1.1-10.3-0.7-15.5c0.2-3,0.2-6.4,4.8-6.1
		c1.3,0.1,2.2-0.9,2.3-2c0.2-2.7,2.5-5.2,2.1-7.3c-0.6-3.1-4.4-1.5-6.7-2.4c-6.5-2.6-12.9-5.3-19.8-6.5c-2-5.3-8.3-4.8-11.4-8.5
		c-2.7-3.2-4.4-6.8-4.2-11.3c0.4-10.7-0.3-21.4,1.5-32c0.3-2.1-0.8-4.4-2.6-5.2c-2.2-1-5.3-1.5-7,0.3c-4.7,4.8-10.6,5.1-16.6,5.8
		c-1.4,0.1-2.8-0.3-4.1,0.1c-1.6,0.5-5.4-0.1-2.7,3.7c0.5,0.7,0.2,1.5-0.9,1.7c-5.3,1.1-10.7,1.5-16.1,1.1c-1.5-0.1-2.9-0.2-3.1-2
		c-0.9-6.2-1.8-12.8,0.9-18.5c1.6-3.3,5-6.7,8.1-8.6c2.7-1.7,5-2.7,6.5-5.8c1.2-2.4,3.7-2.2,5.2,0.1c1.2,2,2.7,1.6,4.5,1.5
		c4.6-0.2,8.9-2,13.4-2.9c1.7-0.3,3.7-0.5,5.3-0.1c6.3,1.7,11.8,0.2,17.7-2.2c4-1.6,8.5-2.3,12.5-4.2c2.5-1.2,4.1-2.2,5.5-4.7
		c1.7-3,5.8-2.9,8.4-5.3c4.6-4.3,10.4-4.2,16.3-3.6c3.1,0.3,6.4,0.8,9.4-1.8c1.6-1.4,4.5-1.1,6.6,0.2c2.5,1.4,4.1,1.5,5-1.9
		c0.6-2.3,2.3-4.2,2.3-6.9c0-2,2-2.8,4-2.7c2.3,0.1,4-0.3,4.1-3.2c0.1-2.8,2.2-3.6,4.7-3.4c3.6,0.4,4.6-1.3,4.4-4.6
		c-0.2-3.1-0.3-6.2,1.3-9.2c0.7-1.4,0.3-3.2-0.3-4.8c-2.5-6.6-1.6-9.7,4.3-13.8c1-0.7,1.3-1.7,1.3-2.8c-0.1-3.2,0-6.3-0.2-9.5
		c-0.2-3.2-0.2-6,2.8-8.3c2.3-1.8,4-4.4,5.7-6.9c1.4-2,2.7-3.8,5.2-4.3c1.6-0.4,2.6-1.5,2.4-2.9c-0.2-1.5-1.6-2.2-3.1-2
		c-3.4,0.4-6.4-2.7-9.9-0.9c-0.3,0.2-1,0.1-1.2-0.2c-3.6-5.3-10.1-4.7-15-7.2c-1.6-0.8-3.1-1.7-4.2-3.2c-0.4-0.5-1-1.5-1.4-1.4
		c-5.7,1.3-6.8-3.8-9.5-6.7c-0.9-1-0.5-1.4,0.1-1.9c2.4-2.2,4.3-5,7.2-6.7c0.9-0.4,1.9-0.1,2,0.6c1.3,6.4,6.9,8.2,11.5,11.2
		c4,1.7,8.2,2.5,12.3,4c1.2,1.5,2.2,2.8,4.6,3.4c3.4,0.8,6,3.6,8.8,5.7c1.6,1.2,2.7,3,4.7,3.9c2.1,1,2.1,2.7,0.4,3.8
		c-2.6,1.7-4.5,4.5-7.5,5.6c-1.5,0.6-2.4,1.7-3.1,3.1c-0.8,1.8-1.9,3.3-3.7,4.3c-3,1.8-4,4.6-3.5,7.8c0.6,4.1-0.4,8.2,0.7,12.3
		c0.6,2.1-0.8,3.3-2.5,4.2c-2.1,1-3.1,2.6-3.1,4.9c-0.2,7.6-2.1,15.2-0.5,22.9c0.7,3.3-1.5,5.5-5.1,5.1c-3.1-0.3-4.5,0.7-5.9,3.5
		c-2.1,4.2-6.1,7.1-8.4,11.4c-0.7,1.3-2.4,1.8-3.9,2.2c-1.7,0.4-3,1.4-3.3,3.2c-0.8,1.4-2.2,1.6-3.6,1.5
		c-19.7-0.2-36.2,7.8-50.6,20.4c-3.5,3-7.1,3.8-11.3,3.4c-6.7-0.8-13.4-1.3-20.1-1.6c-3.3-0.1-6.5,0.2-9.8,0.7
		c-3.8,0.5-6.9,1.4-6.8,6.2c0,0.7-0.8,1.5-0.1,2.3c0.8,0.9,1.9,0.8,2.7,0.3c8-4.8,16.8-2.9,25.3-3.4c4.3-0.2,8,1.5,11.8,3.2
		c2.4,1.1,3.1,3,2.3,5.4c-1.7,5.9-2.4,12.1-4.2,18c-1.4,4.5-1.3,9.3-1,13.9c0.3,4.3,3.3,7.9,7.3,9.3c5.1,1.7,9.2,4.8,13.9,7
		c5.9,2.8,11.9,5,18.3,5.9c1.1,0.2,2.2,0.4,3.2,0.7c3.8,1.3,5.2,4,3.7,7.7c-1.7,4.2-3.7,8.3-5.5,12.4c-1.6,2.6-3.3,5-5.8,6.9
		c-2.6,2-2.4,4.8-1.8,7.5c0.4,1.9,2,2.6,3.7,2.5c3.4-0.1,6.2,1.2,8.6,3.3c3,2.6,7.4,2.2,10,5.4c3.7,5.8,9.8,6.4,15.8,7.3
		c4.3,0.6,8.4,2.1,12.4,3.8c1.9,0.9,3.8,1.5,6.2,0.4c-6.9,0.4-12.4-4-18.9-4.3c-3.1-0.4-6.2-1-9.1-2.1c-7.3-2.7-8.2-7.6-3-13.8
		c1.5-1.4,3.5-1.5,4.9-0.4c5.5,4,12,4.2,18.3,5.5c0.5,0.1,1.1,0.2,1.6,0.4c5.6,1.8,10.4,4.6,12.9,10.2c3.1,4.7,3.9,10.7,7.9,14.9
		c1.1,1.2,2.1,2.5,3.5,3.3c2.3-0.1,4,0.5,3.8,3.3c-0.1,2.1,0.8,2.8,3,2.7c6.9-0.2,12.2,4.1,13.7,10.7c0.3,1.5,0.7,3.2,2.3,3.6
		c5.6,1.4,10.5,4.7,16.1,5.9c0.4,0.1,0.8,0.1,1.3-0.5c-0.6-3.2-2.6-6-4.6-8.6c-3.6-4.8-7.8-9.1-11.1-14.2c-0.9-1.4-2.1-1.6-3.6-1.5
		c-2.4,0.4-4.8,0.9-6.8,2.4c-3,1.6-6.6,3.1-9,0.2c-2.4-2.9-0.3-6.2,1.9-8.8c2-1.5,4.5-1,6.7-1.3c5.7-0.6,10.6-3.2,15.7-5.5
		c6.3-2.9,11-1.1,13.8,5.1c3.6,0.2,1.8-4.8,5-5c3-0.2,5.9-0.9,8.7-2c2.9-1.2,4.3-3.3,3.6-6.5c-0.9-4,0-7.8,1.3-11.6
		c4.3-12.4,8.6-24.7,12.8-37.1c0.5-1.4,0.5-3,0.8-4.4c0.5-1.4,1.8-1.8,3-2.3c0.7-0.2,1.5-0.4,2,0c3.2,2.7,7.5,2.2,11,3.8
		c5.6,2.5,11.3,2.8,17.2,2.9c5.2,0,10.4,0.6,15.4,2c3.7,1.1,6.7,6.7,5.6,10.3c-0.6,1.8-2.7,1.7-3.7,3.1c-0.8,1.1-1.3,2.4-2.4,3.3
		c-2.2,1-3.2-0.7-4.3-1.9C430.6,564.5,429.5,564,427.9,564.4z"/>
	<path class="st0" d="M427.9,564.4c0.8-0.8,1.2-3.1,3-0.8c1.2,1.5,2.7,2.7,4.1,4.1c1.3,1.5-0.2,2.5-0.8,3.5c-2.6,4.3-6,7.8-9.6,11.2
		c-1.2,1.2-2.7,2-4.3,2.4c-1.8,0.5-3.3,1.2-4.4,2.8c-0.7,1.1-1.9,1.7-3.2,1.5c-6.5-0.9-9.4,4-12.7,8c-1.3,1.6-3.5,3.9-2.2,5.7
		c1.3,1.7,4.1,0.2,6.1-0.4c5.5-1.6,11.2-2.9,16.9-3.6c6.6-0.9,11-4.3,14-10c1-1.9,2-3.9,4.1-5.1c3.4-0.1,2.3-2.9,2.9-4.7
		c0.3-1.2,0.9-2.1,2-2.8c1.9-0.8,3.7-1.8,4-4.2c1-4.2,2.6-7.5,6.7-10.1c4.4-2.7,6.3-12.9,3.8-17.4c-2.1-3.7-6.4-5.1-10.1-5.7
		c-11.2-1.7-20.5-7.4-30.2-12.5c-2.4-1.3-4.4-2.3-6.2,0.8c-0.5,0.8-1.3,1.6-2.4,0.9c-1-0.6-0.9-1.6-0.6-2.6c0.5-1.4,0.6-3,1-4.4
		c3-6.1,5.7-12.4,12.2-16c-2.1,0.2-3.6,1.9-5.6,1.6c-2.1-0.3-3.6-1.8-5.5-2.7c-6.3-3-12.9-5.3-19.6-7.4c-2.8-0.9-5.3-2.2-7.1-4.7
		c-1.1-1.7-2.7-3-4.2-4.4c-1.2-1.1-1.6-2.3,0.6-2.7c0.7,0,1.3,0.2,2,0.5c1.3,0.7,2.6,1,3.6-0.5c1-1.4,0.2-2.6-0.7-3.7
		c-1.5-2-2.8-4-2.7-6.7c0.3-0.9,1-1.2,1.9-1.2c1.3,0.1,2.2,0.9,3.1,1.8c1.6,1.6,3.1,3.6,5.3,4.4c2.5,0.8-0.6,5.1,3.3,4.8
		c0.1-1.6-2.5-2.8-0.4-4.3c2.1-1.3,1.8-3,1-5c-1.6-3.8,0.8-9.7,4.5-11c1.5-0.6,2.1,0.5,2,1.7c-0.2,3,1.7,4.8,3.5,6.6
		c2,0.9,3.3,2.4,4.3,4.3c0.8,0.7,1.3,2,2.6,0.8c2.9-2.5,3.4-0.1,3.9,2c0.3,1.8-0.1,3.6,0,5.3c0,1.9,0.9,2.9,2.9,2.2
		c1.6-0.5,3.2-2.3,4.8-0.3c1,1.3,0.8,2.9,0.1,4.3c-0.9,2-2.8,2-5.3,1.7c1.3,0.9,2.1,1.4,2.8,2.1c1.8,1.4,3.2,1.1,3.5-1.1
		c1.2-7,6.9-10.7,11.5-14.9c7.1-6.6,14.2-13.2,21.1-20c4.9-4.8,10.2-9.2,14.9-14.1c2.7-2.9,6.5-1.6,9.7-2.5c1.6-0.4,3.3-0.4,4.9-0.4
		c1.1,0,2.3,0.1,3.1,0.8c2.4,2,5,1.6,7.8,1.3c3.9-0.5,7.8-1.4,11.8-0.7c2.1,0.4,3.4-1.1,4.5-2.4c2.6-3.1,5.7-4.9,9.9-5
		c3.2-0.1,5-3.2,3.9-6.3c-1.2-3.6-2.6-7-2.1-11.1c0.3-2.3-1.6-5-4-6.3c-3.5-1.9-5.5-4.8-7-8.3c-0.4-1-0.7-2.2-1.6-2.9
		c-5.4-4-9.6-9.3-14.5-13.8c-4.2-3.8-7.4-8.4-10.6-12.8c-1.8-2.4-3.4-4-6.2-3.6c-4.9,0.6-9.2-1.3-13.2-3.6c-2.3-1.3-4.5-1.8-7.1-1.3
		c-2.9,0.6-5.2-0.3-6.8-2.8c-2-3.1-5.7-3.7-8.2-6c-1.2-1.1-2.3,0.1-2.8,1.3c-0.8,1.8-1.3,3.7-1,5.6c0.6,4.1-0.1,8.2,0.4,12.3
		c0.3,2.3-0.7,3.1-2.8,2.8c-4.8-0.8-7.9,1.6-11.1,4.8c-6.6,6.4-12.9,13-18.8,20.1c-1.3,1.6-2.9,2.3-4.7,1.4c-2.3-1.1-3.8-3.2-3-5.7
		c1.5-4.5,0.9-9,1-13.5c0.1-1.7,0-3.3-1.3-4.6c-2-2-1.5-3.3,1.2-3.9c2.6-0.6,3.2-1.8,1.3-4c-0.7-0.7-1.2-1.7-1-2.6
		c0.8-4.4-1.6-8.3-1.9-12.5c-0.2-2.5-1.5-4.6-3.7-5.5c-2.3-1-4.2-2.6-6.1-4.1c-3.2-2.3-3.2-5.7-0.1-8.2c1.5-1.2,3.2-2.2,3.3-4.4
		c0.1-2.1-0.1-3.9-2.5-4.5c-1.8-0.5-3.1-1.6-4.3-3c-1.1-1.2-1.4-2.4-0.6-4.1c3.8-7.9,0-14.5-8.9-15.8c-3.8-0.6-7.9-0.9-11.4,0.2
		c-4.4,1.4-8.7,3.7-10.9,8.4c-1.8,3.8-4.8,7-6.2,11.1c-0.7,1.9-2.9,2.4-4.9,2.5c-3.3,0.1-6.6,0.7-9.8-0.3c-1.6-0.5-3.3-0.2-4.8,0.4
		c-2.5,1-4.8,1-7-0.8c-0.8-0.6-1.8-1.2-2.6-0.6c-2.6,1.8-4.8,1.2-6.9-0.9c-0.4-0.4-1-0.7-1.5-0.6c-5.4,0.3-10.7-1.1-16.1-0.5
		c-11.9,0.7-21.9-4.3-31.1-11c-5.4-4-4.5-13.3,1.2-16.8c7.6-4.7,14.7-10.1,21.8-15.4c4.4-3.3,9-5,14.8-5.1
		c8.7-0.1,17.5-0.8,26.3-1.5c5-0.4,10.1-0.8,15.2-0.9c3.4,0,5.3-1.2,5.2-5.1c-0.1-4,1.6-7.8,1.6-11.8c0-1,0.6-2.2-0.5-3.1
		c-1.9,0.3-2,2-2.5,3.3c-4.6,12.4-12.3,14.8-23.2,15.5c-5.4,0.3-7.4-1.8-8.1-6.6c-0.4-2.5,0.4-4.3,2.7-5.5
		c14-7.1,25.6-17.9,39.2-25.6c3.6-2,4.3-2.1,5.7,1.7c2.2,6,5.5,11.7,5.3,18.4c-0.2,4.4-1.8,8.5-2.2,12.9c-0.2,2.5-2.2,3.9-4.7,4.6
		c-1.1,0.3-2.5,0-4,1.6c10.2,2,20.1,2.8,30.2,3.9c-0.2-1-0.2-1.2-0.3-1.2c-6.7-4.2-7.8-6.9-5.8-14.8c0.6-2.3,1-4.5,1-6.9
		c0-2.5,0.8-4.8,2.2-6.9c6-8.6,12.5-16.7,18.8-25c1.9-2.4,4.5-3.9,7.5-5.2c-3.9-1.7-8-2-12-2.7c-2.7-0.5-6.7,0.6-7.4-2.8
		c-0.6-3,3-4.2,5.2-5.7c5-3.3,10-6.8,14.6-10.6c3-2.5,5.6-2.4,8.9,0.3c2.6,2.1,4.5,5.1,8,6.4c-1.2-2.7-3-5.2-5.3-7.1
		c-4.1-3.3-6.9-7.7-10.7-11.3c-0.7-0.7-1.2-1.5-1.9-2.1c-0.8-0.6-1.6-1.3-2.5-0.4c-0.7,0.7-0.2,1.5,0.3,2.2c0.9,1.4,2.3,2.4,3.4,3.6
		c2.9,3.3,2.9,5.5-0.8,7.7c-8.6,5.2-16.3,11.6-24.4,17.4c-2.5,1.8-4.4,2.7-7.7,0.7c-3.1-1.9-7.4-2-11.2-2.3c-4.5-0.4-9-0.7-13.4-1.7
		c-1.4-0.3-2.9-0.4-4.7,0.7c5.4,4.1,7.5,9.9,9.5,15.7c1,3,0.5,5.2-2.1,7.1c-11.8,8.5-24.3,16-36.3,24.2c-2.7,1.8-4.9,1.1-5.2-1.8
		c-0.8-8-1.9-16.1-1.9-24.2c0-0.8,0.2-1.6,0.8-2.3c1.8-1.5,3.5-2.9,5.7-4.8c0.1,4.7,1.4,8.8,1,13.2c-0.3,3.5,1.4,3.9,4.6,3.7
		c7-0.3,11.4-4.2,15.3-9.3c1.8-2.3,4.4-3.6,7.5-3.7c1,0,2-0.1,2.2-1.4c0.2-1.1,0.2-2.5-1.1-2.8c-4.5-0.9-4.6-4.8-5.1-7.9
		c-0.6-3.9-0.4-7.9-0.2-11.9c0.1-2.3,1.8-3.3,4-3.2c8.4,0.6,16.8-0.7,25.1,2.8c2.9,1.2,7.8,1.4,11.7-1.7c2.5-2,6.1-2.4,6.4-6.6
		c0-0.4,1-0.8,1.6-1c4.6-1.3,5.9-4,4.2-8.8c-1.5-4.4-0.5-6.4,3.9-7.8c1-0.3,1.6-0.8,2-1.8c2.4-5.8,5.1-6.4,9.6-2.4
		c0.3,0.3,0.6,0.7,1,0.7c4.5,0.1,7.8,1.6,7.9,6.8c5,0.5,4.3,9.5,11,7.6c0.2-0.1,0.5,0.1,0.8,0.3c0.8,0.4,0.9,1.3,1.2,2
		c1.8,4,6,7.4,2.5,12.5c-0.5,0.8-1.2,1.6-1.3,2.5c-0.2,1.2,2.2,3.2,0.8,3.4c-3.7,0.6-4.7,6-9.3,4.8c-1.6-0.4-2.8-0.7-3.6-2.2
		c-0.6-1.1-1.7-1.5-2.8-1c-1.5,0.7-0.6,1.8-0.2,2.8c1.8,4.4,0.2,9.1,0.8,13.6c0.3,2.2-1.8,2.6-3.6,2.2c-2.6-0.5-4.1,1.1-6.1,2.2
		c-3,1.7-3.9,6.6-9.7,5.1c3.4,3.2,4.5,5.1-0.5,5.9c-3.7,0.6-5.2,5.1-3.3,8.4c0.5,1,1.4,1.8,0.7,3c-0.8,1.3-1.7,0.7-2.8,0.2
		c-1.9-0.7-2.8,0.9-4,2c-0.7,0.6,1.1,4.2-2.1,1.9c-0.3-0.2-0.6,1.1-0.3,1.7c2.1,3.1,1.3,8.9,7.9,8c1.7-0.2,2.4,2.3,1.1,3.4
		c-2.5,2-1.8,4.4-1.8,6.8c-0.1,8.7-4.5,12-12.8,9.3c-2.4-0.8-4.8-0.8-7.3-0.8c-3.4,0.1-6.9,0.3-9.5-2.7c-1-1.1-2.6-0.6-3.9-0.6
		c-12.6,0-25.1,0-37.7,0c-7.1,0-14.1,0-21.2,0c-2.7,0-4.9,0.6-6,3.3c-1.1,2.7-3.1,3.6-5.9,3.3c-3.4-0.3-5.7,0.6-7.3,4.3
		c-1.2,2.7-4.5,4.5-6.3,7.4c-1.3,2.1-2.9,3.6-2,6.1c1.1,3.1,3.6,5,6.6,5.6c4.7,0.8,9.5,1,14.2,2.1c1.3,0.3,2.5,0.6,2.6,2.1
		c0.2,3.9,3.1,3.7,5.6,3.5c7.1-0.5,14.2-1.6,21.2,0.6c1,0.3,1.5-0.5,2.2-0.8c1.7-0.8,3.6-0.8,5.2-0.2c7.5,3,14.5-0.9,16.1-9
		c0.5-2.5,1.2-4.3,4.2-4.7c1.8-0.2,3.2-1.3,3.3-3.6c0.1-3.1,2.2-4,4.8-3.5c2.3,0.4,5.2-0.3,6.7,0.3c4.7,2,10.7-0.7,14.5,4.2
		c0.7,0.9,2,1.9,3.5,1.9c4.2,0,5.5,2.3,5.1,6.1c-0.2,1.9,0,3.8,0,5.8c-0.1,3.4-0.5,6.7,4.7,6.5c2.1-0.1,2.5,2.3,1.3,3.8
		c-1.4,1.9-1.4,3.7-1.1,5.8c0.3,1.9-0.3,3.4-1.7,4.8c-2.7,2.7-2.5,4.7,1.2,6.4c8.4,4.1,10.2,10.9,9,19.3c-0.1,0.4-0.2,0.9-0.1,1.2
		c4.4,7.6-0.3,15.2,0,22.8c0.1,1.7,0.5,3.1,2,3.6c1.4,0.5,2.3-0.8,2.7-2c0.8-2.5,2.4-3.9,4.8-4.5c0.1,0,0.3-0.1,0.4-0.2
		c1.5-4.5,6.9-5.7,8.3-10.2c0.7-2.1,2-3.2,4.2-3.3c1.2-0.1,2.5-0.1,3.7,0c3.3,0.2,5.6,0,4.4-4.6c-1.3-5.1,0.7-10.2,0.5-15.4
		c-0.2-3.9,5.1-3.9,8.1-5.1c1.9-0.8,2.5,1.8,2.7,3.3c0.3,1.9,1.5,2.1,2.9,2c3-0.3,4.8,1.1,5.2,4c0.3,2.5,1.7,2.8,3.7,2.6
		c4.5-0.4,8.8,0,12.6,2.6c1.1,0.7,2.4,0.9,3.6,0.6c5.8-1.6,9.5,2.5,14,4.7c0.4,0.2,1,0.8,0.9,1.3c-0.1,4.2,3.9,6.3,5.6,9.4
		c1.4,2.4,4.5,5.4,7.3,7.4c4.6,3.3,8.6,7,11.7,11.8c0.6,1,1.6,1.4,2.4,2.2c3.1,3,5.8,6.4,8.4,9.6c2.3,2.9,3.4,7.5,4.4,11.7
		c1,4.3,0.7,7.7-0.3,11.6c-0.2,0.7-0.3,1.9-0.5,1.9c-5.7,0.5-7,8.9-13.7,7.6c-2-0.4-3.5,0.6-5,2c-1.5,1.3-3.2,2.5-5.9,1
		c-2.2-1.2-5.4-1.7-7,1.7c-0.7,1.4-2.1,1-3.3,1c-3.3,0.2-6.5-0.4-9.8,0.6c-2.7,0.8-7-1.2-6.6,4.5c0.1,1.2-2.1,2.1-3.7,2.2
		c-6.7,0.8-10.5,4.8-12.3,11c-0.3,0.9-1,1.3-1.8,1.6c-1,0.3-2.4,0.1-3.1,0.8c-5.7,5.2-13,8.8-16.2,16.4c-0.5,1.1-0.9,1.8-1.8,2.5
		c-3.2,2.4-6.2,4.7-6.9,9.4c-0.7,4.4-4,7.8-7,11.1c-0.5,1.6-1,3.1-2.2,4.4c-1.1,1.2-2.2,2.7-1.1,4.6c0.4,0.9,1.1,1.6,2.2,1.6
		c2.8-0.1,4.3,1.2,6.1,3.4c2.9,3.5,7.8,3.7,12.3,4c0.6,0.6,1.9,0.4,1.9,1.3c0,4.6,2.9,3.3,5.5,2.8c0.3-0.3,0.5-0.5,0.8-0.8
		c5.8-0.9,6.2-0.8,8.2,3.3c0.3,2.4-1.3,5.8,3.3,5.8c3.8,2,4,4.6,0.8,9.1c-0.1,0.1-0.3,0.2-0.3,0.3c2.4,6.9-5,11.2-4.7,17.5
		c0,0.1,0,0.4-0.1,0.4c-4.7,1.1-5.1,7.1-9.5,8.5c-2.7,0.8-4.2,2.7-3.3,5.1c0.8,2.3-2.3,4.1-0.2,6.1c1,6.5,0.6,7.1-5.8,8.2
		c-2.6,0-4.8,0.1-5.1,3.7c-0.2,2.4-2.4,3.7-4.5,4.2c-4.8,1.2-9.3,2.6-13.6,5.1c-1.9,1.1-4.7,1.1-7,0.8c-4.1-0.6-8.1,0.1-12,0.9
		c-4.2,0.8-7.9-1.5-11.9-2.1c-2-0.3-1.8-3-2.1-4.5c-0.7-4-0.6-8.2,2.8-11.4c0.6-2-1.2-5.1,2.5-5.8c1.3-0.8,2.8-0.9,4.3-0.8
		c1.4,0,3.5-0.4,3.5-1.5c0.1-5.5,4.8-5.5,7.8-6c4.3-0.8,7.6-2.6,10.5-5.5c0.5-0.5,1.2-0.6,1.8-0.9c0.7-2.4,1-5.1,4.1-5.8
		C426.6,566,427.5,565.4,427.9,564.4z"/>
	<path class="st1" d="M319,231.7c0.6,8.7,1.3,17.4,1.8,26.2c0.2,2.4,0.8,3.5,3.2,1.8c12.2-8.7,25.4-16.1,37.5-25.1
		c1.4-1,2.2-2.1,1.6-3.7c-2.1-6-3.1-12.6-9.4-16.2c-1.1-0.6-1.6-1.6-1.2-2.8c0.4-1.6,1.7-1.1,2.7-1c8.9,1.1,17.8,2.3,26.7,3.5
		c1.4,0.2,3.2-0.1,3.9,2.2c0.5,1.6,1.8,0.1,2.5-0.4c4.8-3.4,9.5-7,14.3-10.4c4.2-3,8.4-6.1,12.9-8.8c3.1-1.9,2.7-3.5,0.5-5.6
		c-1.5-1.4-3-2.8-4.4-4.3c-1.5-1.5-1.2-2.9,0.2-4.2c1.5-1.4,2.8-0.6,3.9,0.6c6.1,6.8,12.3,13.5,18.4,20.3c0.9,1,2,2.3,0.4,3.5
		c-1.3,1.1-2.5,0.1-3.6-0.8c-2.6-2.2-4.3-5.3-7.1-7.4c-2.4-1.8-4.6-1.7-6.6,0.3c-5.5,5.2-12.1,8.8-18.1,13.4
		c-0.9,0.7-2.6,1.1-2.3,2.6c0.3,1.4,2.1,1.2,3.1,1.3c5.1,0.7,10.3,1,15.4,1.9c1.5,0.3,2.7,0.2,2.6,2.2c-0.1,2-1.5,1.3-2.6,1.5
		c-3.1,0.7-5.3,2.8-7.1,5.2c-5.9,7.9-11.7,15.8-17.7,23.6c-1.1,1.4-1.9,3-1.9,4.4c0,5.1-1.8,9.9-2.1,15c-0.2,4.6,0.8,6.2,5.4,7.2
		c1.7,0.3,2.6,0.8,2.3,2.6c-0.3,1.9-1.5,1.8-3.1,1.6c-8.8-1.1-17.6-2.1-26.4-3.2c-0.9-0.1-1.8-0.6-2.8-0.7c-1.4-0.1-2-0.7-1.8-2.1
		c0.1-1.2,0.9-1.4,2-1.6c7.4-1.3,7.5-1.4,8.1-8.6c0.2-2.1,1.3-3.8,1.5-5.9c0.6-8-3.2-14.8-5.8-21.9c-0.7-1.9-1.5-0.7-2.5-0.2
		c-13.9,8.2-26,19.1-40.4,26.6c-2.5,1.3-2,3.2-1.8,5.2c0.2,2.3,0.8,4.1,3.4,4.4c11.5,1.2,22.2-2.4,25.9-15.1
		c0.3-1.2,0.2-2.5,1.3-3.4c0.9-0.8,1.9-1.2,3-0.8c1.2,0.4,0.8,1.5,0.8,2.5c0.1,6.2-2.3,12.1-2,18.3c0.1,1.6-1.1,1.9-2.5,2
		c-10.4,0.6-20.7,1.4-31.1,2c-6.4,0.4-12.8,0.6-19.2,1c-3.1,0.2-5.6,2.1-8,3.9c-7.3,5.3-14.3,11-22.1,15.6c-6.8,4-6.8,12.5-0.2,16.9
		c8.7,5.8,17.9,9.8,28.6,9.8c3,0.5,3.7,3.4,5.2,5.4c1.2,1.6,2.2,2.5,4.4,1.5c3.1-1.4,8.5-0.1,10.6,2.2c2.2,2.5,2.1,5.6-0.1,9.9
		c2-3.1,2.6-6.3,0.5-9.7c-0.7-1.1-1.6-2.4-0.5-3.8c1.2-1.5,2.4-0.3,3.7,0.1c4,1,8,1.8,12.2,0.7c1.4-0.4,3.3-0.8,3.8,1.2
		c0.5,1.9-1.3,2.7-2.7,2.9c-4.3,0.7-5,3.8-5.2,7.2c-0.1,2.1-0.1,4.1-1,6c-1.7,3.7-3.6,4.5-7.4,3c-0.9-0.4-1.8-0.6-2.8-0.4
		c-5,0.8-5.4,0.8-7.1-4.1c-1-3.1-2.7-3.8-5.8-4.5c-7.6-1.6-9.3-1.8-11.2-10.3c-1.3,2.5-2.2,5-4.8,6.1c-1.1,0.5-0.2,1.7-0.3,2.6
		c-0.8,1.1-1.8,0.7-2.8,0.4c-2.8-1.8-5.8-3.5-8.5-5.6c-1.7-1.4-4.4-2.6-2.7-5.8c0.4-0.8-0.7-1.2-1.6-1.2c-3.1-2-5.9-4.6-9.6-5.3
		c-2.6-0.5-3.3-1.7-2.2-4c0.8-1.7,0.7-2.6-1.5-2.5c-2.2,0.1-3.6-1.8-5.5-2.7c-2.1,2.8,1.5,3.5,1.9,5.3c-4.1,0-6.9-2.1-7-5.9
		c0-2.1-1.4-3.8-1.4-5.8c0.2-6.6,7.7-10.8,13.5-10.1c0.9,0.1,1.6,0,2.2-0.5c5.6-4.5,12-8.1,17.4-12.9c-8.2-8.2-17.3-15.1-26.3-22.2
		c-0.6-0.5-1.2-1.5-2.1-0.9c-0.8,0.5-0.7,1.5-0.4,2.2c1.9,5.7,3.8,11.3,5.6,17c1,3,3.1,4.2,6.1,3.3c1.9-0.5,3.4-0.3,4,1.6
		c0.6,2.2-1.5,2.3-2.8,2.7c-9.2,3-18.3,6.4-27.9,8.3c-2.5,0.5-4.6,2.6-7,3.9c-7.5,4-15,7.9-22.5,11.9c-6.6,3.5-13.3,6.8-20,10.3
		c-1.6,0.8-2.7,0.2-3.5-1c-1-1.3,0.3-1.9,1.1-2.6c4.7-3.7,5.2-4.7,2.1-9.7c-8.3-12.9-13.5-27.3-21.7-40.2c-1.9-3-4.1-3.8-7.1-2.4
		c-1.4,0.7-2.5,1.2-3.4-0.4c-1.2-2.1,0.8-2.3,1.8-2.8c11.7-6.2,23.5-12.2,35.2-18.3c3.1-1.6,6.4-3.1,9.4-4.9c2-1.2,3.3-0.2,4,1.3
		c2.3,4.8,4.3,9.7,7.4,14c1,1.4-0.2,2-0.9,2.6c-1.2,1.1-2.4,0.6-3.1-0.6c-5-8.6-14.2-7.9-20.7-4.8c-0.5,0.2-0.9,0.6-1.4,0.8
		c-9.9,4.3-8.3,3.6-4.1,12c1.9,3.8,4.3,7.3,6.3,11c1.1,2,2.1,2.5,4.2,1.1c5.1-3.3,6.9-8.3,4.5-14.6c-0.7-1.8-0.4-2.5,0.9-3.3
		c1.8-1.1,2.1,0.8,2.6,1.6c4.4,8.1,8.7,16.3,13.1,24.4c0.8,1.5,1,3-0.6,4c-2,1.3-2.1-1-2.8-1.9c-4.9-6.5-9.2-8.1-14.9-5.8
		c-2.5,1-3.1,1.9-1.6,4.5c3.1,5.5,5.9,11.3,8.6,17.1c1.4,2.9,3.2,3.6,6.3,2.7c8.9-2.7,17-13.2,17-22.6c0-0.5-0.1-1.1,0-1.6
		c0.1-2.1-0.7-5.2,2.1-5.5c2.8-0.3,2.3,3,2.9,4.9c0.8,2.6,0.9,5.4,2.1,7.8c0.6,1.3,0.1,4.5,2.5,3.7c2.5-0.9,6-1.6,5.9-5.7
		c-0.1-3.9-1.3-7.5-2.4-11.1c-3.3-11.4-7.2-22.6-10.9-33.9c-1.8-5.7-2.4-6.2-8.1-5.6c-1.3,0.1-2.6,0.4-2.9-1.2
		c-0.4-1.6,0.9-2.2,2.1-2.6c5.6-1.8,11.1-3.9,16.7-5.2c7.9-1.8,15.4-5.4,23.9-5.6c12.2-0.2,20.1,7.7,18.7,19.6
		c-0.5,4.7-3.8,7.8-7.1,10.6c-1.7,1.5-1.4,2.2-0.1,3.5c7.3,6.8,15.9,12.1,23.8,18.1c1.5,1.1,7.2-2.8,7.2-5.2
		c0.1-4.2,0.2-8.5-0.4-12.7c-0.8-6.4-1.1-12.8-1.3-19.2c-0.2-4.9-0.8-9.8-1.2-14.6c-0.3-3.6-3.1-4.2-5.8-4.7
		c-1.3-0.3-2.9,0.2-2.8-1.9c0.1-1.6,1.4-1.8,2.7-1.8c9.5-0.6,19-1.2,28.6-1.9c1.6-0.1,2.8-0.1,3,1.7c0.2,1.9-0.9,2-2.6,2.1
		c-5,0.4-6.5,2-6.4,7.1C318.3,226.6,317.5,229.3,319,231.7z"/>
	<path class="st2" d="M597.3,403c1.5-0.3,4.2-0.7,6.8-1.2c1.6-0.3,2.7,0.5,3.1,2c0.5,1.5-0.9,1.9-1.8,2.3c-5.7,2.6-11.5,5-17.2,7.7
		c-1.8,0.9-2.4,0.5-3.5-1.1c-7.8-11.6-16-23-23.7-34.7c-5.5-8.2-13-14.2-20-21c-4.6-4.5-9.7-8.5-13.9-13.3c-3.5-4-7.7-7.3-11.5-10.9
		c-2.5-2.4-6.6-3.9-10-5.7c-5.7-3-11.7-6.1-16.2-10.4c-9-8.7-20.8-11.1-31.5-15.9c-1.3-0.6-3.1-0.6-2.5-2.9c0.6-2.4,2.2-1.4,3.6-1.2
		c5.9,0.6,6.3,0.4,8.6-5.5c2-5.2,4.5-10.1,6-15.5c0.5-1.7,0.7-2.5-1-3.2c-5.6-2.2-11.1-4.4-16.7-6.6c-1.2-0.5-1.7,0.1-2.1,1.2
		c-2.3,6.1-5.7,11.8-7.3,18.1c-0.8,3.4-0.6,6.2,3,7.9c1.5,0.7,2.5,1.9,1.5,3.6c-1,1.8-2.2,0.3-3.1-0.1c-8.8-3.6-17.6-7.2-26.4-10.9
		c-0.8-0.3-2.2-0.5-1.8-1.8c0.4-1.2,1.3-2.3,3-2.4c7.8-0.4,7.5-0.5,10.3-7.6c3.5-8.7,7.5-17.2,11.1-25.8c1.8-4.4,3.6-8.8,5.1-13.3
		c0.8-2.4-0.5-4.1-2.4-5.6c-1.2-0.9-3.7-1.6-2.3-4c1.5-2.6,3-0.4,4.4,0.2c7.4,2.8,14.7,5.7,22,8.6c1.3,0.5,2.5,1.2,3.6,1.9
		c0.9,0.6,0.9,1.6,0.7,2.6c-0.2,0.8-0.9,0.8-1.6,0.8c-8-0.2-8.3-0.3-11.5,8c-1.4,3.6-2.8,7.3-4.2,11c-0.5,1.2-0.6,1.7,0.8,2.4
		c5.4,2.9,11.6,3.7,17,6.6c1.2,0.6,1.7-0.1,2.1-1.1c2.4-5.5,5.1-10.8,7.2-16.4c1.1-2.8,0.2-5.4-2.8-6.8c-1.3-0.6-3.2-1.3-2.3-3.2
		c1-2.1,2.7-0.8,3.9-0.2c8.6,3.7,17.3,7.3,26.2,10.3c1.1,0.4,1.8,0.8,1.2,2c-0.5,0.9-0.8,2.1-2.3,1.7c-0.9-0.2-1.8-0.5-2.8-0.6
		c-3.1-0.3-5.4,0.4-6.7,3.8c-4.7,12.1-10.5,23.8-14.2,36.4c-0.5,1.6-1.4,3-2,4.5c-0.5,1.1-1,2.3-1.2,3.5c-0.8,4,6.8,11.9,10.8,11.5
		c2.1-0.2,3-1.5,4-3c8.2-12.9,16.4-25.8,25.4-38.2c2.8-3.8,2.5-5.7-1.4-9.2c-1.1-1-1.5-1.9-0.7-3.2c0.9-1.3,1.8-1.4,3.1-0.4
		c7.3,5.8,15.8,9.7,23.6,14.7c0.7,0.4,1.3,0.9,2,1.5c0.8,0.7,1.4,1.5,0.7,2.5c-0.7,1.1-1.5,1.2-2.8,0.8c-7-2.2-7.2-2.2-11.3,3.9
		c-8.5,12.7-16.5,25.6-25.5,38c-1.8,2.5-0.1,5.5,3.5,6.8c0.9,0.3,1.8,0.1,2.8,0.6c5.8,3,5.9,3,10.9-1.6c11-10.1,21.4-20.7,31.6-31.5
		c3.3-3.5,3.2-4.9,0-8.6c-0.9-1.1-2-1.9-0.5-3.4c1.4-1.4,2.6-0.8,3.5,0.3c6.6,7.7,14,14.5,21.1,21.7c0.9,0.9,1.1,1.9,0.2,2.9
		c-0.9,0.9-1.6,0.3-2.5-0.2c-6.9-4-7.4-3.8-12.8,2.3c-7,7.8-15.4,14.3-22.2,22.2c-2.6,3-5.2,5.9-8.3,8.5c-2.2,1.9-2.8,4.3-0.1,7
		c5.5,5.5,11.2,10.1,19.6,9.4c4-0.3,7.7-2,11.4-3.4c1.3-0.5,2.4-1.2,3.4,0.6c1.2,2.1-0.3,2.5-1.6,3.4c-3.1,2.1-6.1,4.2-8.9,6.5
		c-1.3,1-4.4,1.4-2.8,4c1.5,2.5,3.7,4.7,7.1,3.3c1.4-0.5,2.7-1.4,3.9-2.3c10.2-8.1,21.5-14.6,32-22.2c1.7-1.2,3.2-2.6,4.8-3.8
		c2.6-2,3.1-4.5,1.3-7.2c-0.9-1.4-1.6-2.7,0.2-3.8c1.7-1,2.4,0.4,3.2,1.5c5.6,7.7,10,16.2,16.4,23.4c0.8,0.9,2.1,2.3,0.5,3.6
		c-1.4,1.1-2.5-0.2-3.5-1.1c-5.1-4.3-5.1-4.3-10.7-0.6c-9.4,6.2-19,12.3-28.4,18.6c-3.3,2.2-6.3,4.8-9.5,7.2
		c-1.5,1.1-2.1,2.3-1.5,4.2C576.8,396.8,587,403.7,597.3,403z"/>
	<path class="st3" d="M108.3,414.3c-3.9,10.1-8.8,19.8-13.7,29.4c-0.7,1.4-0.8,2.9-1.5,4.2c-0.5,0.9-1.3,1.6-2.3,1.1
		c-0.8-0.4-2-1.2-1.5-2.2c3.8-7.4-1.7-8.8-6.6-11.4c-11.3-6-22.9-11.5-34.4-17.2c-1.5-0.7-3-1.3-4.4-2.1c-3.3-2-5.9-1.4-8.1,1.8
		c-0.8,1.2-1.7,3.4-3.7,2.2c-2.2-1.3-0.5-2.8,0.2-4.2c4.5-9,9-18.1,13.5-27.1c3-5.9,7.2-11,13.4-13.1c8.9-3,17.9,1.5,19,13.1
		c0.1,1.4,0.2,2.9,0.4,5.2c6.5-6.3,13.2-10.6,21.8-6.2c6.1,3.1,10.3,7.7,9.7,15.2C108.9,406.7,110.6,410.8,108.3,414.3z"/>
	<path class="st3" d="M138.8,357c0.4-4.3-1.7-7.9-3.5-11.5c-0.8-1.6-1.8-3.2,0.2-4.7c2.3-1.7,2.7,0.7,3.6,1.8
		c3.4,3.8,6.7,7.6,10,11.4c1.1,1.3,1.8,2.4,0.3,4.2c-10.5,13.4-22.2,25.8-32.2,39.5c-0.7,0.9-1,2.5-2.7,1.3c-0.8-0.6-1.8-1.4-1-2.3
		c5.8-7.1-0.8-9.8-4.8-13c-10.5-8.2-21.2-16.1-31.9-24.1c-5-3.8-5-3.8-10.2,0c-1.2,0.9-2,1.3-3.2,0.1c-1.3-1.3-0.8-2.4,0.2-3.6
		c9.1-10,17.1-20.9,25.8-31.3c2.3-2.7,4.6-5.4,7-8c0.7-0.7,1.4-1.7,2.8-0.6c4.2,3.3,8.5,6.4,12.8,9.6c1.3,0.9,2,1.9,1.1,3.4
		c-1,1.6-2,0.3-3.2,0.1c-1.5-0.3-2.8-0.8-4.2-1.5c-6.1-2.9-10.9,0.2-15.1,4c-2.5,2.2-4.7,4.8-6.6,7.7c-1.6,2.5-0.8,3.9,0.9,5.2
		c5.2,4.2,10.6,8.2,15.9,12.4c1.5,1.2,2.1,0.3,2.9-0.8c3.5-4.5,3.2-10.1-0.7-14.7c-0.7-0.8-1.5-1.6-2.1-2.5c-0.6-1-0.5-2.2,0.3-3.1
		c1.1-1.1,2-0.1,2.9,0.5c7.8,5.8,14.8,12.6,22.9,18c1.2,0.8,2.1,1.9,0.9,3.4c-1.1,1.5-2.3,0.7-3.6,0c-4.3-2.1-8.6-4-13.5-1.4
		c-1.8,0.9-3.4,2.1-3.8,3.9c-0.4,1.8,1.7,2.4,2.8,3.2c4.9,3.4,9,8,14.3,10.9c1.9,1.1,3.4,1.3,5.2-0.1
		C135.2,370.2,138.3,364.3,138.8,357z"/>
	<path class="st4" d="M549,674.6c0-7.3-0.3-12.7,0.1-18c0.3-4.4-1.2-6.6-5.6-7c-1-0.1-2.4,0.5-2.2-1.4c0.1-1.8,1.4-1.7,2.7-1.7
		c10.5,0.2,21.1-0.3,31.6,0.3c3.7,0.2,7,1.5,10,3.2c8.6,4.9,8.9,16.3,0.7,21.9c-0.5,0.3-0.9,0.7-1.3,1c-0.9,0.8-2.8,0.7-2.6,2.2
		c0.2,1.2,1.8,1.5,2.9,2c6.2,2.7,10.2,9.1,9.7,15.7c-0.5,6.7-6.8,12.8-15.5,14.6c-8.6,1.8-17.3,0.9-26,1c-3.3,0-6.6,0.1-9.9,0.2
		c-1.2,0-1.9-0.4-2-1.5c-0.1-0.9,0-1.9,1-2c8.4,0,6.7-6.5,6.6-11.1C548.8,686.9,549.3,679.8,549,674.6z"/>
	<path class="st4" d="M661.6,426.9c-0.3,3.2-0.2,5.5,3.6,6.5c1.7,0.4,2.5,2.8-0.1,3.9c-5.3,2.2-11.1,3.4-16.1,6.5
		c-0.9,0.5-2.5,0.7-3.2-0.9c-0.6-1.3-0.5-2.5,0.8-3.6c2.3-2,4.4-4.1,6.4-6.3c4.6-5.1,5.4-18.5-2.5-21.7c-4.8-1.9-11.4,1.4-12.5,6.5
		c-1.6,7.6-2.4,15.3-3.3,23.1c-1.1,9.7-14.1,18.3-23.5,15.9c-14-3.5-18.2-14.7-19.5-24.4c-0.2-1.9-0.1-3.8-0.2-5.7
		c-0.1-2.3-0.2-4.5-3.3-4.7c-1.5-0.1-2-1.4-2.2-2.6c-0.2-1.4,1.2-1.9,2.2-2c6.5-1,12.1-5,18.6-6.2c1.2-0.2,2.2-2,3.2,0.4
		c0.8,2,0.3,2.9-1.4,3.9c-6.4,3.8-11.3,8.8-12,16.6c-0.5,5.6,1.6,10.4,6.5,13.7c2.7,1.8,8.7,1,11.9-1.7c3.4-2.8,3.2-7,3.4-10.9
		c0.5-7.1,1.3-14.1,4.2-20.7c3.7-8.5,10.7-11.8,19.4-11.5c8.2,0.3,13.2,5.6,16.7,12.3C660.9,417.5,661.4,422.4,661.6,426.9z"/>
	<path class="st3" d="M107.6,313.2c-1.3,0-2.5,0.3-3.7,1.3c-1.4,1.1-2.2-0.2-3-1.1c-1.2-1.2-0.2-2,0.7-2.6
		c7.9-5.4,14.4-12.6,21.8-18.7c0.9-0.8,1.8-2.5,3.3-0.8c1.2,1.4,0.6,2.7-0.5,4c-4.3,4.7-4.3,4.9,1.1,8c9.6,5.5,19.4,10.5,29.4,15.2
		c0.6,0.3,1.3,0.8,1.9,0.4c1-0.7,0.2-1.4-0.1-2.2c-2.7-7.4-5.4-14.8-8-22.3c-1-2.7-1.7-5.4-2.8-8.1c-1.9-4.7-4.7-5.4-8.7-2.7
		c-0.9,0.6-1.9,2.6-3.2,0.4c-0.9-1.5-1-2.5,0.7-3.7c4.4-3.2,8.6-6.7,13-10c0.8-0.6,1.6-1.8,2.8-0.5c0.9,1,0.7,2.1,0,3
		c-2.4,3.5-1.6,6.8-0.2,10.4c3.3,8.6,6,17.4,9.4,25.9c3.6,9.2,5.9,18.9,10,27.9c0.6,1.3,1.8,2.9,0.1,4.5c-1.7,1.6-3.5,0.6-4.9-0.1
		c-7.9-4-15.7-8.2-23.6-12.1c-10.8-5.3-21.7-10.4-32.6-15.6C109.6,313.5,108.7,313,107.6,313.2z"/>
	<path class="st5" d="M485.4,674.7c0-6-0.1-12.1,0.1-18.1c0.1-3.8-1.5-6-5.1-6.7c-1.5-0.3-2.8-0.3-2.4-2.3c0.4-1.7,1.6-1.2,2.9-1.2
		c7.6,0.1,15.2-0.1,22.8-0.1c0.7,0,1.4,0.1,2,0c1.6-0.3,2.4,0.5,2.6,1.9c0.2,1.9-1.7,1.4-2.4,1.3c-4.6-0.4-6.1,2.1-6.1,6.1
		c-0.1,12.7-1,25.4,0.4,38.1c1.2,10.8,9.1,11.8,17.1,10.1c6.5-1.3,10.1-6.5,10.2-13.1c0.1-11.2,0-22.5,0.1-33.7
		c0.1-4.3-1.8-6.7-6-7.3c-1.5-0.2-3-0.3-2.7-2.2c0.3-1.8,2-1.1,3.1-1.1c4.9-0.1,9.8-0.1,14.8-0.1c1,0,2.7-0.6,2.9,1.3
		c0.1,1.3-0.9,2-2,2.2c-4.4,0.8-5,4.1-5,7.7c-0.1,10.4,0,20.8-0.2,31.2c-0.3,13.5-7.6,19.6-20.2,20.9c-6.5,0.7-12.3-0.4-17.9-3.5
		c-6.7-3.7-8.9-9.5-8.9-16.7C485.4,684.6,485.4,679.6,485.4,674.7z"/>
	<path class="st4" d="M424,656.1c0,2.7,0,5.5,0,8.2c0,1.1,0.2,2.4-1.2,2.7c-1.2,0.3-2-0.6-2.6-1.6c-1.1-1.7-2.3-3.4-3.2-5.2
		c-1.6-3.5-4.4-5.8-7.3-8.1c-9-7.1-18.8-2.7-22.2,7c-3.7,10.2-3.3,21.1-1.1,31.5c3.1,15,18.5,16.8,28.9,8.7c2-1.5,3.8-3.1,5.7-4.7
		c1-0.9,1.9-1.4,3.1,0c1.1,1.2,0.8,2-0.1,3.2c-11.7,14.2-31.8,14.9-44.4,4.6c-7.4-6-10.4-13.6-10.6-22.9c-0.2-10,1.5-19.3,9.1-26.2
		c9.5-8.7,20.7-10.9,33-6.2c3.6,1.4,7.2,3.3,9.8-1.5c0.4-0.7,1.3-1,2.2-0.7c1,0.4,0.8,1.3,0.8,2.1C424,650,424,653.1,424,656.1
		C424,656.1,424,656.1,424,656.1z"/>
	<path class="st4" d="M454,708c-7.4,0-14.8,0-22.2,0c-1.4,0-3,0.3-3-1.7c0-1.8,0.9-2,2.6-2c2.9-0.1,4.7-1.8,4.7-5
		c0-14.9,0-29.9,0.1-44.8c0-3.2-2.4-3.9-4.7-4.7c-1.3-0.4-3-0.3-2.6-2.4c0.4-1.9,2.1-1.6,3.4-1.5c8.6,0.8,17.2,0.3,25.8,0.2
		c1.3,0,2.5,0,2.5,1.8c-0.1,1.8-1.1,1.8-2.5,1.8c-4.9,0-6.8,2.1-6.8,6.9c0,13.6-0.1,27.1-0.2,40.7c-0.1,6.1,0.5,6.4,6.7,6.8
		c10.7,0.8,17.2-4.4,21.6-13.4c0.8-1.7,1.1-4.4,3.7-3.3c2.3,0.9,1.1,2.9,0.5,4.8c-1.1,3.6-2,7.4-2.2,11.2c-0.3,3.8-1.8,4.9-5.4,4.8
		C468.5,707.8,461.3,708,454,708C454,708,454,708,454,708z"/>
	<path class="st0" d="M393.3,586.6c-2.3,1.3-1.1,4.1-2.5,5.8c-0.1-0.4-0.1-0.8-0.2-1.2C388.4,587,388.6,586.7,393.3,586.6z"/>
	<path class="st0" d="M444.4,595.6c4.8-0.8,6.7-3.5,5.8-8.2C452.4,593.5,450.9,595.6,444.4,595.6z"/>
	<path class="st0" d="M468.3,549.5c1.3-3.2,3.4-6.4-0.8-9.1c1.6,0,3.1,0.3,3.2,2.3C470.8,545.3,471.4,548.1,468.3,549.5z"/>
	<path class="st0" d="M455.1,532.2c-2.7,1.1-5.4,2.5-5.9-2.3c-0.1-0.7-1-1.2-1.5-1.8c0.9,0,2.4-0.1,2.4,1
		C450.1,533.1,452.8,532.2,455.1,532.2z"/>
	<path class="st0" d="M427.1,519.1c-1.8-1.7-0.4-3.3,0.4-4.7c0.8-1.5,1.9-2.9,2.9-4.3c0.3,2-0.6,3.5-1.9,5
		C427.4,516.1,426.9,517.5,427.1,519.1z"/>
	<path class="st6" d="M108.3,414.3c0.6-3.8,1.2-7.6,1.8-11.3C110.4,406.9,110.8,410.8,108.3,414.3z"/>
	<path class="st0" d="M464.1,534.7c-1.8-3.4-4.9-3.6-8.2-3.3C461.1,529.5,463.2,530.3,464.1,534.7z"/>
	<path class="st0" d="M425.4,566c-2.3,1.2-2.8,3.8-4.1,5.8C421.4,568.9,421.4,566,425.4,566z"/>
	<path class="st7" d="M385,491.2c2.9,4.2,7.7,4.5,11.9,5.8c5.6,1.7,11,3.9,15.9,6.7c3.7,2.1,6.1,2.5,8.6-1c0.5-0.7,1.1-1.2,2.3-0.8
		c-0.4,3.4-1.3,6.1-5.1,7.4c-3.8,1.4-4.1,5.8-6.1,8.8c-0.6,0.8-0.6,2.1-1.7,2.6c-1.1,0.9-0.5,2.3-1.1,3.3c-0.3,0.6-0.7,1.8-0.9,1.7
		c-3.5-1.9-5.1,2.3-7.8,2.4c-0.2,0-0.4-0.3-0.6-0.5c-0.6-1.1,0.2-2.3-0.2-3.4c-1.5,0-0.9,1.5-1.5,2.1c-0.8,0.9-1.3,1.5-2.6,0.3
		c-2.6-2.5-5-2-7.3,1.2c0,0.9,0.1,1.7,0.4,2.5c0.6,1.9,2.2,3.3,2.3,5.3c0,0.4,0,0.7,0,1.1c1.1,3,0.3,5.1-2.9,6.1c-2,0.4-4,0.4-6,0.1
		c-0.8-0.1-1.6,0-2.5-0.2c0.7,0.3,1.3,0.1,1.9,0.3c0.8,0.2,1.4,0.7,1.9,1.3c0.5,0.5,0.4,2.6,1.9,0.8c0.7-0.7,1.5-1.6,2.6-0.5
		c1.5,4.4-1.2,8.2-2.6,11.9c-4.3,11.1-7.5,22.6-11.7,33.8c-0.9,2.4-1.1,4.8-0.1,7.2c1.3,3.1,0.2,5.6-2.4,6.9
		c-3.4,1.7-6.9,3.7-11.1,2.8c-2-0.7-4.4-0.3-6.1-2c-2.5-1.7-2.8-3.5-1-6.2c3.4-5.3,4.7-11.4,5-17.5c0.3-7.4,0.9-14.7,1.5-22.1
		c0.5-5.8,1.3-11.9-4.1-16.3c-1-0.8-1.3-2.1-1.3-3.4c-0.1-4.2-0.5-8.5,0.3-12.7c0.7-1.7,2.1-2.3,3.8-2.2c0.4,0,0.8,0.1,1.2,0.2
		c3.8,1.1,5,4.7,7.4,7.3c-1.7-2.4-3.4-5-5.6-6.9c-1.1-0.9-1.7-2.1-2.4-3.3c-1.3-2.3-3-3.7-5.9-3.1c2.7,0.2,3.5,1.7,2.9,4.2
		c-0.4,1.1-1.1,2.2-1.7,3.2c-3.9,4.4-5.6,4.2-7.7-0.8c-1.1,4.5-0.4,5.4,3.8,4.7c1.9-0.3,3,0.2,2.9,2.2c-0.1,2.9,0.1,5.8-0.2,8.6
		c-0.3,3.5-2,5.1-5.4,4.3c-2.1-0.5-3.5,0.1-5.5,1c-4.4,2-9.4,1.3-14.1,0.6c-6.9-1.1-13.3-4-19.6-7c-5.5-2.6-10.9-5.7-17.3-5.9
		c-3.4-0.1-4.8-1.4-7.7-5.5c-0.2,4.1-0.3,7.8-1.9,11.3c-0.6,1.3,0.1,2.6,0.7,3.9c1.2,2.8,2.1,5.6,2.5,8.6c-0.4,2.4-1.6,2.9-3.2,1.1
		c-1.5-1.7-2.7-3.7-2.4-6.4c-1,1-2.5,1.3-0.7,3.2c2.7,2.9,5.3,6.1,2.3,10.5c-0.8,1.1,0.1,2.4,0.7,3.5c1,1.8,0.6,3.4-0.5,5
		c-0.7,1-1.5,2.2-2.9,1.9c-1.6-0.3-1.6-1.7-1.6-2.9c-0.1-2.3-0.7-3.9-3.5-4.1c-2.3-0.1-2.8-1.8-2.2-3.9c0.3-1.3,1-2.6,1.2-3.9
		c0.2-1.3,0.7-2.8-1.3-3.2c-0.8,1.5,3.5,4.7-1.5,4.8c-0.5,0-0.5-0.2-0.2,0.1c3.9,3.3-1.9,4.6-1.5,7.2c-1.3,3.4-4.7,5.1-6.4,8.2
		c-0.1,0.2-0.3,0.5-0.3,0.7c-1.1,4.9-1.1,4.9-5.3,2.3c-1.3-0.7-0.9-2-1-3.2c-1.7,0.7-1.2,2.7-2.3,3.7c-1.5,0.9-3.2,1.4-4.9,1.9
		c-0.6-0.1-1.1-0.4-1.4-0.9c-0.7-1.3-0.7-2.8-2.1-4.2c-2-2.1-0.1-4.7,0.8-7c1.8-4.1,3.6-8.2,5.3-12.4c1.4-3.5,0.2-5.9-3.4-6.5
		c-5.3-0.8-10.4-2.1-15.5-3.6c-3.2-1-6-2.8-8.7-4.5c-6-3.8-14.1-4.6-17.8-11.9c-0.6-1.2-1.4-2.4-1.4-3.7c-0.1-6.4,0.5-12.7,2.5-18.9
		c1.5-4.6,2.3-9.6,3.3-14.4c0.6-2.6-1.4-3.3-3.2-4.1c-6.6-3-13.6-2.7-20.5-2.2c-4.8,0.4-9.9-0.5-14.1,3.2c-0.7,0.7-2.4,0.6-3.6,0.4
		c-0.9-0.1-1.7-0.8-2.5-1.4c-0.5-0.4-0.4-1.3,0-1.4c4.6-0.7-1.3-6.2,4.1-7.5c11-2.7,21.7-1.6,32.5-0.4c5.7,0.7,10.3,0.3,14.8-4.1
		c10.2-9.8,22.9-15.1,36.4-18.6c2.8-0.7,5.9-0.3,8.9-0.6c2.5-0.3,5.2,0.5,7.6-0.9c2.8-2.5,6.5-1.3,9.6-2.5c4.1-1.6,6,1.9,8.5,3.9
		c1.8,1.1,3.9,0.4,6.2,1c-1.5-1.3-2.9-2-4.3-2.6c-2.8-1.2-4.8-2.9-5.7-5.9c-0.9-3.2,0.8-6.3,4.1-7.3c0.7,0.2,0.9,0.1,0.8-0.7
		c-0.3-1.1-0.4-2.1,0.7-2.9c2.2-0.4,3.1,1.4,4.2,2.7c2.3,2.5,4.9,4.8,8.3,5.7c1.3,0.3,2.8,1.1,3.7-0.4c0.8-1.4,0.1-2.7-0.8-3.8
		c-2-2.4-4-4.8-4.7-8c-0.7-3.4-0.9-6.6,3.1-8.2c1.8-0.7,0.8-2,0.8-3.4c-1.4,1.7-2.4,4.3-5,2.8c-2.5-1.5-1.9-4-0.9-6.2
		c0.8-1.7,1.8-3.4,3-4.9c1.5-0.8,3.2-1.4,4.6-2.4c-1.8,0.7-3.3,2.4-5.4,1.2c-1.4-2.6-0.7-6.8,1.5-9.3c1.4-1.6,2.2-1.6,5.6-0.3
		c-1.5-4.3-3.7-8.3-4.7-12.7c-1-4.4,0.4-6.9,4.7-8.3c1.1-0.4,2.1-0.9,2.2-2.1c0.3-3.1,2.5-4.9,4.7-6.4c3.7-2.5,6.9-5.4,9.4-9.1
		c0.7-1,1.5-2.2,3-1.5c1.2,0.5,1,1.8,0.9,2.9c-0.2,1.6-0.3,3.3-0.1,4.9c0-3.4,0.8-6.8-0.1-10.2c-0.1-0.5-0.2-1.1-0.1-1.6
		c0.2-1.6,0-3.7,1.9-4.2c2.2-0.6,2.4,1.8,2.9,3.2c3.3,9.8,9.5,18.2,12.9,27.9c1.3,3.7,2.8,7.4,2.4,11.5c-0.4,1-1.1,1.7-2,2.3
		c-1.9,1.2-4.1,1.8-6.4,3.4c3.3,0.5,4.6-2,6.6-3.3c0.9-0.7,1.9-1.3,2.7-2.1c2.2-3.3,5-5.7,8.8-7.1c1.9-0.7,3.5-2.1,4.9-3.6
		c1.2-1.3,1.6-2.7,1.1-4.5c-2.8-11.1-7.3-21.2-14.7-30c-2.5-3-5.4-5.9-5.9-10.1c-0.2-1.4-0.2-2.7,0.1-4.1c0.3-1.7,1.2-3.2,3-3.5
		c1.7-0.3,2.7,1,3.6,2.3c0.4,0.7,0.8,1.5,0.8,2.3c0.1,2.1-0.1,4.3,0.3,6.4c-0.4-1.9-0.3-3.7-0.2-5.6c0.8-2.8,3-2.9,5.3-2.7
		c2.3,0.2,2.7-0.6,2.2-2.8c-1.2-5.5,4.9-18.7,9.9-21.4c5.7-3.2,11.5-2.1,16.8,1.1c4.7,2.9,6.2,7.6,5.9,13.1
		c-0.1,1.9-1.4,2.8-2.1,4.1c1.2,1.7,3.1,1.2,4.5,2c1.3,0.6,2.4,1.4,2.4,3c-0.1,1.6-1.2,2.4-2.7,2.6c-1.4,0.2-2.7,0.5-3.3,1.9
		c-0.7,1.3-1.6,2.6-3.1,1.3c-1.8-1.6-2.9-0.5-4.1,0.7c-1.5,1.6-3.1,3-4.3,4.9c-2.1,3.1-3.6,3.4-6.7,1.3c-1.1-0.8-2-1.9-3.4-2.3
		c-1.4-0.4-2.5,0-2.9,1.5c-0.4,1.5,0.3,2.7,1.8,2.5c3.3-0.4,6.4,0.2,9.7,0.9c2.6,0.5,3.4-2.8,5.6-3.7c1.6,1.5,2.6,3.7,5,4.2
		c1,1.2,0.5,2.9,1.6,4.1c1.2,0.3,1.2-0.9,1.7-1.4c1.8-2,3.6-1.5,4.7,0.5c3.3,5.9-0.2,18.9-7.8,20.4c-2.4,0.5-3.7-0.2-3.6-2.8
		c0-0.6,0.7-1.2,0.4-1.8c-0.1-0.2-0.8,0.5-1.3,0.8c-3.7-0.6-4.5,2.2-6.3,4.7c-5.1,7.2-10,14.7-18.4,18.7c-2.2,1.1-3.4,3.2-4.7,5
		c-1.2,1.7-2,3.6-2.9,5.4c-2.5,4.8-5.8,8.1-11.6,8.3c-2.5,0.1-4.8,1.2-7,2.1c-5,1-9-0.2-11.8-4.9c-1.9-3.2-4.5-5.8-5.2-9.7
		c-0.3-1.7-1.8-2.7-3.8-4.1c2.5,3.6,3.6,7,4.8,10.3c1.9,5.1,6.6,7.3,11.5,8.8c1.1,0.5,2,1.2,2.9,2c0.2,0.3,0.4,0.7,0.5,1.1
		c1.9,3.6,1.8,8.7,7.3,9.7c2.9,2,5.3,4.2,4.1,8.2c-1.1,1.3-2.3,0.8-3.1-0.2c-1.2-1.3-2.7-2.3-3.7-3.7c-0.2-0.3-0.4-0.7-0.7-1
		c-0.3,0.5,0.4,0.8,0.3,1.2c0.1,2.3-1.7,5.5,3.2,4.9c1.3-0.1,1.2,2.4,1.5,3.9c0.4,2.1-1.6,1.6-2.8,2.3c2.2,2.4,3.3,5.1,2.1,8.6
		c2.2-1.5,1.9-5.8,5.7-4c3.5,4.1,7.2,7.9,6.4,14.2c-0.6,4.8-2.4,8.7-4.7,12.4c1.8-1.4,1.8-4.3,3.6-6.1c1.4-1.8,2.8-1,4.2,0.4
		c-2.6-5.2-3-10-0.3-15.3c1-2-1.2-5.1-1.2-7.8c0-1.9-0.2-4.3,1.8-4.4c2.4-0.1,5.1-0.9,7.4,0.4c2,1.1,3.8,1.1,5.9,0.9
		c5.8-0.6,7.6,0.9,8.2,6.8c0.1,1-0.2,2.6,1.3,2.5c1.4-0.1,1.2-1.6,1-2.7c-0.1-0.8-0.4-1.6-0.3-2.4c0.3-1.4,0.8-3,2.3-3
		c2-0.1,1.7,1.9,1.7,3.1c0.1,3.3,0.3,6.6-0.3,9.8c-0.3,1.1-0.5,2.3-0.8,3.4c-0.1,0.4-0.2,0.8-0.4,1.2c-0.7,1.3-0.6,4-2.5,3.6
		c-1.9-0.4-0.9-2.7-0.6-4.2c0.3-1.3,0-2.1-1.3-2.5c-1.3-0.4-3-1.5-3.7-0.1c-1.5,3-4.9,4.2-6.3,7.2c-1.7,2.2-3,0.6-4.5-0.5
		c1.1,1.2,2.3,2,2.9,3.4c0.5,1.2,0.6,2.7,2.1,3.6c1-1.9-0.3-4.1,0.9-5.9c3-1,6.9,1.4,6.3,4c-0.4,1.5-0.6,2.5,1.1,3.2
		c0.6,0.2,0.6,1.2,0.2,1.3c-3.3,1.1,1,2.1,0,3.2c-0.2,1.6-0.7,3.1-2,4.2c-1.1,0.9-2.5,0.2-4,1c1.5-0.6,2.6-0.4,3.8-0.4
		C377.8,483.5,381,487.9,385,491.2z"/>
	<path class="st8" d="M333.3,432.5c-0.5-0.7-1.1-1.4-1.6-2.1c3.9,0.8,5.4,4.8,8.7,6.3c0.8-0.9,1.3-2.3,3-1.9c0.4,0,0.9-0.2,1-0.5
		c1.9-5.8,1.3-11.6-0.9-17.1c-0.9-2.1-7.6-1.7-8.8,0.4c-0.6,1-0.1,1.8,0.3,2.7c0.8,1.4,1.9,2.7,2.3,4.3c0.1,1.1,0,2.1-1.1,2.7
		c-1.9,0.3-3.3-0.8-3.7-2.4c-0.7-2.4-2.4-4.1-3.3-6.3c0-0.2,0-0.5-0.1-0.7c-0.1-0.9,0-1.7,0.5-2.4c0.3-0.4,0.9-0.5,1.2-1
		c2.1-1.8,4.8-2.5,7.2-2.5c6.3,0.2,8.7-4.1,11.1-8.5c0.9-1.5,1.3-3.4,2.4-4.7c2.1-2.7,3.6-5.7,7.7-6.6c4.1-0.8,5.7-5.6,8.6-8.4
		c4.6-4.4,8-9.6,10.2-15.4c1.9-0.3,0.9,4.7,3.8,1.7c0.6,0.2,1.3,0.4,1.8,0.8c-0.7,2.5-0.3,3.9,2.7,2.6c2.5-1.1,3.9-3.1,5.6-5.4
		c2.6-3.5,2.1-6.7,2.4-10.1c0.1-1-0.3-2.2-0.7-3.1c-0.4-1-1.2-1.9-2.5-1.6c-1.2,0.2-1.2,1.3-1.5,2.2c-0.4,0.8,0.6,2.6-1.2,2.4
		c-1.4-0.1-1.9-1.4-2.2-2.7c-0.2-1.3-0.3-2.7-0.4-4c-4.5-1.1-4.9-2.7-1.7-6.2c2-1.2,4-2.5,3.4-5.3c-0.1-2.4,1.1-3,3.4-2.6
		c1.3,0.2,3.1,0.4,3.2-1.5c0.1-1.7-1.4-2.7-2.9-3c-3.2-0.5-3.2-0.4-5.5-2.5c4-2.2,4.7-5.9,2.1-11.4c-2.8-5.9-8.3-7-14-7.5
		c-4.6-0.4-7.8,2-10.2,5.9c-2,3.3-3.5,6.7-3.6,10.6c0,0.8-0.3,2.1-0.7,2.2c-2.9,0.9-1.2,2.5-0.6,3.7c1.7,3.4,1.3,3.9-2.6,4
		c-1.8,0-4.2-1.6-5.4,1.2c-1,0.5-1.2-0.3-1.6-0.9c-0.4-0.9-0.6-1.8-1.2-2.5c-0.7-0.8-1.6-1.6-2.8-1.3c-1.4,0.3-1.3,1.5-1.5,2.6
		c-1.2,6.2,2.5,10.3,6,14.5c7.6,9,12.2,19.5,14.8,30.9c0.4,1.7,0.3,3.3-1.4,4.4c-0.7,0.4-1.1,1.3-1.8,1.7c-4.6,2.6-9.8,4.5-12.8,9.3
		c-0.5-0.7-1.1-1.2-2-1.1c0.1-5.7-2.1-10.9-4.4-16c-4-8.6-9.3-16.6-11.9-25.9c-0.1-0.3-0.6-0.5-1.1-0.8c-1.9,3.7-0.3,7.3-0.4,10.9
		c-0.1,1.8,0.2,3.6,0,5.3c-0.1,1.1-0.1,3-1.6,2.9c-1.8-0.1-1.1-1.9-1-3c0.1-2.5,0.5-5.1,0.7-7.8c-2.4,0.3-2.4,2.2-3.1,3.3
		c-2.8,4.5-7.5,6.9-11.4,10.1c-1.1,0.9-1.8,1.5-1.6,3c0.7,3.9-2.3,3.9-4.4,3.5c-1.6-0.3-1.8,0.1-2.1,1.3c-0.8,2.4-1.1,4.9,0,7.2
		c1.9,4,2.3,8.7,5.4,12.1c0.3,0.4,0.3,1.4,0,1.9c-0.4,0.8-1.1,0.3-1.7-0.1c-1.4-0.9-2.5-4.2-4.4-2.2c-2.2,2.3-4,5.4-2.8,9.1
		c0.3,0.6,1.4,0.9,0.8,1.9c-1.1,2.2-2.4,4.3-3.3,6.5c-0.6,1.4-0.7,3.1,1.2,3.8c1.8,0.6,2.5-0.4,2.8-2c0.3-1.5,1.8-1.9,3-3.8
		c0,2.4-1.2,4.3,0.7,5.6c0.7,0.5,0.6,1.7-0.5,1.8c-2.3,0.2-5,0.5-4.9,3.1c0.1,3.3,0.4,6.9,3.2,9.4c1.5,1.4,2.9,2.9,3.4,5
		c0.8,3.1-0.3,4.5-3.4,3.9c-5-0.9-8.6-3.8-11.6-7.6c-0.7-0.9-0.9-2.9-2.9-2.1c-0.7,1-0.4,2,0,3c0.2,0.7,0.3,1.3-0.8,1.1
		c-2.1-0.1-4.7,2.8-4.2,4.8c0.8,3.3,3,5.3,5.8,6.9c0.7,2.3,0.2,3.7-2.6,3.3c-1.1,0.1-2.2-0.4-2.4-1.2c-0.9-4.7-5-3.2-6.8-2.6
		c-2.9,1-5.9,0.4-8.7,1.4c-1.6-2.8,0.4-3.4,2.3-3.8c4-0.7,5.9-2.9,6.9-7c0.5-1.9,4.1-3,4.8-5c1.7-4.9,4.2-6.7,9.4-5.4
		c1.7,0.4,3.3-1.6,2.6-4.1c-2.4-8.4,0.5-16.7,0.4-25.1c0-1.6,1-3.1,3-3.4c2.9-0.6,2.7-2.2,2.3-4.8c-0.6-4.9-0.4-9.9-0.4-14.9
		c0-0.5,0.3-1.1,0.6-1.5c2.8-3.4,7.1-5.5,8.2-10.2c3.8-0.1,5.3-3.8,8.3-5.2c0.8-0.4,2-0.7,2-1.8c0-1.3-1.4-1.1-2.2-1.4
		c-1.6-0.6-3-1-3.4-3c-0.3-1.4-1.5-2.2-3.1-2.3c-1.2-0.1-2.2-0.6-2.7-1.6c-1.1-2.5-3.2-2.6-5.5-2.5c-1.6,0.1-4,0.5-1.8-2.4
		c0.1-0.1-0.5-0.6-0.7-0.9c1.7-1.6,3.8-0.7,5.8-0.8c-5.1-1.9-11-0.7-15.7-3.9c-2.2-0.9-3.1-2.8-0.5-3.4c3.2-0.7,4-2.1,4.2-4.9
		c0.1-0.9,0.3-2.4,1.8-2.3c1.2,0.1,1.4,1.2,1.6,2.1c1.3,7.6,2.5,8.8,10,9.4c1.5,0.1,2.8,1.1,4.4,0.9c0.9-0.1,1.9,0.6,1.5,1.4
		c-1.7,2.9,1.5,4.1,2,6.2c0.4,1.7,2.2,1.5,3.5,0.3c1.1-1,2.4-1.4,3.7-0.5c1.2,0.9,2.2,3.4,3.8,1.9c1.6-1.3,3.5-3,3.5-5.6
		c0-1.9-0.1-3.9,0.2-5.7c0.6-3.2,1.5-6.1,5.8-6c1.1,0,3.3-0.3,2.9-2c-0.3-1.5-2-0.5-3.2-0.3c-4.9,0.9-9.8,1.2-14.2-1.8
		c-0.5-0.4-1-0.4-1.5,0c-0.7,0.7-0.6,1.4-0.1,2.2c1.6,2.7,3.2,5.4,2.2,8.7c-0.9,3-2.5,4.7-6.1,3.1c4.6-0.1,3.6-3.9,4.2-6.3
		c0.7-2.5-1.5-4.2-3.6-4.8c-2.7-0.7-5.5-2.6-8.3,0.2c-1.4,1.4-2.9,0.5-4-1.2c-1.5-2.5-2.7-5.3-5-7.3c2.2-0.9,4.3-2,6.6,0.1
		c1.6,1.5,3.6-0.5,5.5-0.2c1.9,0.3,4.1-0.6,5.6,0.7c2.4,2,4.5,3.2,7.3,0.9c0.5-0.4,1.4-0.5,1.9,0.1c2.6,3.5,5.5,2,8.8,1
		c3.5-1.1,7.1,1.2,10.9,0.7c3.8-0.4,6.6-0.6,7.8-5.2c1-4.1,3.7-8.4,6.3-11c4.8-4.7,11.2-7.6,19-6.5c5.7,0.8,9.8,3.2,13.5,7
		c2.9,3,1.2,6.5,0,9.6c-1.2,3.1-0.3,5.9,2.7,6.6c1.9,0.5,4,0.1,4,3c0,2.8,0.5,5.6-2.9,7.4c-4.1,2.1-3.9,4.9-0.1,7.4
		c2,1.3,3.7,2.9,6,3.9c2.1,1,3.7,3.3,3.7,6.3c0,4.4,3.1,8.4,1.7,13c-0.1,0.4,0.4,1,0.7,1.4c1.1,0.9,3,1.4,2.1,3.4
		c-0.8,1.9-2.6,2.2-4.5,2.1c-0.4,0-0.8,0.2-1.1,0.3c4.4,6.5,3.1,13.4,1.4,20.2c-0.7,2.7,0.5,4.3,2.4,5.4c2,1.2,2.9-0.6,4.2-2
		c3.7-4.5,7.8-8.7,11.6-13.1c2.4-2.8,5.6-4.7,7.8-7.6c3.2-4.1,7.6-4.9,12.4-3.5c0-6.5-0.9-12.8-0.1-19.1c0.2-1.8,1.1-3.5,2.9-4.2
		c2-0.8,2.3,1.3,3.4,2.2c1.1,0.9,2.6,1.5,3.9,2.2c0.8,0.4,2.2,0.3,2.4,1.3c1.3,4.7,4.8,5,8.4,3.8c4-1.3,6.8,1.8,9.2,3.2
		c3.2,1.9,6.1,1.8,9.2,1.8c3.8,0,5.5,1.6,7.8,4.9c2.7,4,5.3,8.6,9.4,11.4c2,1.4,3.5,2.9,4.9,4.8c0.7,1,1.3,2.2,2.3,2.8
		c5.8,3.7,9.8,8.7,12.7,14.9c0.6,1.3,1.6,2.2,3.1,2.5c2.6,0.5,2.7,3.3,4.1,4.7c2,2,1.4,3.3,0.7,5.6c-0.7,2.3,0.9,5.1,2.1,7.4
		c1.6,3.1-0.2,8.5-3.5,8.2c-5.9-0.5-8.8,3.5-12.4,6.6c-0.8,0.7-1.4,2.1-2.7,1.4c-3.6-2.1-7.3-0.1-10.8,0.1
		c-3.8,0.1-7.4,1.7-10.6-1.7c-0.4-0.5-1.6-0.2-2.4-0.3c0.4-1.8,2-1.5,3.3-1.9c3.6-1,7.3-0.6,11.1-1.4c-2.3-0.3-5.7,1.2-5.8-2
		c-0.1-2.8,3.3-2.2,5.3-2.2c3.1,0,4.9-0.5,3.2-4.2c-1-2.3,1.3-3.3,2.6-4.5c0-0.4-0.3-0.6-0.5-0.5c-5.4,4.1-11.4,1.9-17,1
		c-8.7-1.4-17.3-2.7-26-3.8c-1.9-0.2-4.1-0.4-4.7-2.6c-0.6-2.3,0.3-4.7,1.9-6.5c1.7-1.9,3.7-0.8,5.6,0.1c1.8,0.9,4.2,2.1,3.7-1.5
		c-1.1-7.8-0.5-15.9-3.6-23.4c-1.4-3.5-3.1-6.7-6.5-8.7c-0.9-0.6-1.8-1.3-2.3-2.3c-0.5-1.1-0.5-2.2,0.3-3.1c0.7-0.8,1.7-0.8,2.7-0.5
		c1.8,0.5,3,1.8,4.5,2.8c1.4,0.9,2.8,2.7,4.5,0.4c1.8-2.4,1.6-4.5-0.8-6.2c-0.5-0.4-1.1-0.8-1.6-1.3c0.3,0.5-0.3-0.2-0.2-0.1
		c2.7,4.6,1.7,6.7-3.4,4c-4.4-2.4-8.4-5.7-12.1-9.2c-1.1-1-2.3-1.8-4.1-2.6c1.2,3,2.3,5.4,3.9,7.6c2.1,2.8,1.5,5.1-1.2,7
		c-1.8,1.3-3.4,2.7-5.1,4.1c-1.6,1.1-3.9,0.8-5.1,2.8c-11.9,10.4-22.7,21.9-35.1,32.1c1.5,1.8,5.1,0.2,5.3,3.5
		c-2.7,2.3-6.3,0.2-9.2,1.8c-3.8,0.5-4.4-0.1-3-3.4c0.5-1.1,1.3-2.3,0.8-3.5c-1.8-3.9-0.6-7.5,0.5-11.2c2.9-10,1.1-20.1,1.3-30.2
		c0.1-2.9-1.6-3.5-4.1-2c-1.1,0.6-2,1.4-3.2,1.9c-2.8,1-3.6,3.1-3.1,5.9c0.4,2.2,0.8,4.3,1.4,6.4c0.9,3.5,1.2,7.2,0.5,10.6
		c-1.1,5-1.3,9.8-0.3,14.9c0.9,5-2.3,9.1-5.9,12.6c-4.4,4.3-4.7,7.8,0.2,11.4c6.1,4.6,11.3,10.3,17.6,14.8c4.7,3.4,8,8.2,11.6,12.7
		c0.6,0.7,1.1,1.6,1.1,2.6c-0.6,1.5-2.2,1.9-3.3,2.7c-2.8-0.6-4.2-3-5.8-4.9c-2.4-2.8-4.9-5.5-6.9-8.6c-2.3-3.6-5.2-5.5-9.6-4.3
		c-1.2,0.3-2.5,0.3-3.3-0.9c-0.9-1.3,0.1-2,0.9-2.8c0.6-0.6,1.1-1.3,0.2-2.1c-1-0.8-2.2-1.2-3.5-0.9c-1.1,0.2-1.1,1.2-0.9,2
		c0.7,3,1,6-0.2,8.9c-0.6,1.4-1,3.4-3.3,2.8c-1.7-2.5-0.6-5.3-0.9-7.9c-0.2-2.5,0.4-5.2-1.2-7.5c-2.9-4.2-9.2-5.9-13.7-3.2
		c-2.7,1.6-5.8,2.2-8.1,4.5c-1.3,1.3-2.2-0.1-2.9-1.1c-2.7-3.4-3.7-3.6-6.8-1.3c-5.1,3.6-6.5,3.3-10.4-1.9
		C336.3,436.2,334,435,333.3,432.5z"/>
	<path class="st5" d="M389.2,542.2c2.9-1.3,0.5-4,1.7-5.8c0.5,0.3-0.2-0.1,0.3,0.2c-0.1-0.1-0.2-0.1-0.3-0.2c0-2.3-2.4-3.6-2.5-5.9
		c0.4-1,1.7-2.4-0.8-2.4c0-4,3.5-4,6-4.5c1.6-0.4,4.1,0.1,3.3,3.3c2.4-0.9,0.4-3.8,2.7-4.4c0.8-0.2,1.6,0,2,0.9
		c-0.4,1.3-2.4,2.2-0.7,3.9c3.6,0.6,2.6-2.8,3.7-4.4c0.6-0.3,0.9,0.1,1.2,0.6c1.6,2.6,2.8,2.6,3.8-0.4c0.3-0.8,0.3-1.9,1.4-2.3
		c0,2.3-0.9,4.5-1.5,6.5c1.3,0.7,1.7-0.3,1.7-0.7c0.9-5.5,3.7-3.3,6.5-1.8c8,4.4,15.8,9.4,24.8,11.3c4.7,1,9.1,2.7,13.5,4.4
		c2.6,1,4.3,2.7,4.4,5.8c0.3,8,0.1,15.6-9.1,19c-1.1,0.4-0.8,1.1-0.8,1.9c0.1,2-0.8,3.7-1.9,5.3c-0.9,2-2.8,2.9-4.5,4.1
		c-1,0.6-1.5,1.4-1.3,2.5c-1.3,1.5-1.4,3.9-3.4,5c-1,1.3-2.3,2.4-3,3.8c-3.6,8.3-10.2,11.5-18.8,12.4c-6.1,0.7-12.1,2.8-18.2,4.2
		c-1.2,0.3-2.6,0.9-3.4-0.2c-0.8-1-0.2-2.4,0.3-3.5c2.5-5.5,6.3-10.4,11.6-12.6c3.4-1.4,7-2.9,10.3-3.9c5-1.5,7.6-5.2,10.8-8.1
		c2.5-2.2,4.6-5.3,5.9-8.7c1.9-2.2,2.1-6.3,7-5.8c-2.1-2-0.9-4.2-1.8-6.1c-2.5-5.5-7.7-4.7-12.1-5.4c-4.3-0.7-8.8-0.3-13.2-0.4
		c-3.3,0-6.5-0.7-9.5-2.2c-1.9-0.9-3.7-1.6-5.8-1.4c-2.1,0.2-4-0.4-5-2.1c-1-1.9-2.4-1.3-3.8-1.3c-0.5,0.3-1.1,0.3-1.6,0.1
		c-0.2-0.2-0.3-0.4-0.2-0.7C389.1,542.3,389.1,542.2,389.2,542.2z"/>
	<path class="st2" d="M341,676c0.9,21.4-14,33-29.9,33.2c-20.3,0.3-33.6-12.6-32.9-33.4c0.6-18.6,11.3-30.6,30.9-31.3
		C328.2,644,340.5,658,341,676z"/>
	<path class="st2" d="M190.4,708.5c-19-0.8-31.9-12.5-31.5-32.7c0.4-20.2,11.7-31.4,30.6-32c20.1-0.6,32.2,13.1,32.3,32.9
		C221.9,695.1,209.7,708.4,190.4,708.5z"/>
	<path class="st5" d="M121.2,644.2c8,0.7,16.1-0.4,23.9,2.5c7.2,2.7,10.3,6.4,11,15c0.4,5.4-3.7,11.7-8.9,14.6
		c-5.7,3.1-11.9,2.8-18,2.8c-2.6,0-3.3,0.9-3.3,3.3c0.1,4.9,0.1,9.8,0.2,14.8c0.1,3.3,1.5,5.5,5.2,5.5c1.3,0,2.6,0.4,2.5,2
		c-0.1,1.8-1.5,2.1-3,2c-8-0.7-16.1,0-24.2-0.2c-1.2,0-3,0.8-3.1-1.5c-0.1-2,1.2-2.4,2.9-2.6c3.3-0.4,4.7-2.5,4.7-5.7
		c0.1-12.5,0.1-25.1,0.1-37.6c0-2.7,0.9-5.4-0.8-8c-1-1.5-1.9-3-4.1-2.8c-1.9,0.2-2.5-0.7-2.4-2.4c0-2.3,1.8-1.6,3-1.6
		C111.7,644.2,116.5,644.2,121.2,644.2z"/>
	<path class="st2" d="M246.7,707c-7.2,0-14.5,0-21.7,0c-1.5,0-3.4,0.2-3.6-1.8c-0.2-2.4,1.9-1.7,3.2-2c3.1-0.8,4.9-2.6,4.9-6.1
		c-0.1-13.5,0.1-27,0-40.5c0-3.7,0-7.7-5.6-7.4c-1.3,0.1-1.9-0.9-1.9-2.2c0.1-1.3,0.9-1.5,2-1.5c9,0,18,0,27,0c1,0,1.9,0.2,2,1.5
		c0.1,1.3-0.9,1.8-1.8,1.8c-5.6-0.2-6.8,3.2-6.8,7.9c0,14-0.3,27.9-0.3,41.9c0,3.3,1.8,4.8,5.2,5c9.8,0.5,18.6-2.6,22.4-14.2
		c0.5-1.6,1.5-3.3,3.5-2.8c2,0.6,1.1,2.6,0.9,3.9c-0.8,4.3-1.9,8.5-2.5,12.8c-0.5,3.3-2.1,4.4-5.2,4.3c-7.2-0.1-14.4,0-21.6,0
		C246.7,707.3,246.7,707.2,246.7,707z"/>
	<path class="st9" d="M244.2,566.6c-1,1.8,0.6,4-0.8,5.7c-0.3,0.4-0.2,0.8,0.3,0.8c3.6,0,1.7,2.8,2.2,4.4c-0.8,0.6-1.2-0.8-2.3-0.3
		c0.9,0.8,0.8,3.3,2.9,1.2c1.3-1.6,3.1-1.8,4.9-1.8c0.2,0,0.4,0.1,0.5,0.1c1.7,0.9,2.2,3.4,4.6,3.5c0.3-1.8-1.7-2.4-1.9-3.9
		c0.1-0.2,0.2-0.3,0.3-0.5c1.6-0.2,2.6,1,3.8,1.8c0.8-1.7-0.7-3.7,1.2-5c0.9,0.8,0.8,2,1,3c0.2,1.7,1,2.8,2.9,2.7c0.7,0,1.4,0,2,0.2
		c4.6,1.3,4.5,1.3,4.6-3.5c0-3.3-1.4-6.1-2.2-9.1c-0.3-0.9-1.1-0.5-1.7-0.7c0.2-0.9-1-2,0.2-2.6c4.6-2.5,2.5-4.1-0.7-5.5
		c0.2-0.4,0.3-0.7,0.5-0.8c1.5-1,2.7,2.3,3.9,0.5c0.9-1.4-1.1-2.2-1.7-3.4c-0.2-0.4-0.4-1.2-0.2-1.5c0.9-1.4,1.9,1.2,3.2-0.2
		c0.6-0.7,1.3,0.6,1.4,1.4c0.4,2.3-0.5,4.3-1.3,6.4c-0.9,2.4-1.3,4.4,2.5,3.8c2.9-0.4,2.7,1.9,2.9,3.8c0.1,1.1-0.7,2.6,0.8,3.3
		c0.3,0.1,1.1-0.3,1.3-0.7c0.6-1.4,2.9-2.6,1.6-4.3c-2.1-2.7-1.7-4.6,0-7.6c1.5-2.7-1.5-5.8-3.4-7c-3-1.9-2.9-2.7,0-3.7
		c1.4-0.5,0.7-1.9,2.2-2.6c-0.3,3,0.8,5.5,2.1,7.9c0.4,0.7,1.4,3,2.2,0c2.3,0.3,2.7,2.1,3.1,3.8c2,8.8,2.5,17.9,3.5,26.8
		c0.3,2.4,0.4,4.6,1.7,6.6c-1.4,2.7-3,0.6-4.5,0.2c-6.8-1.5-14.2-0.7-20-5.8c-1.1-1-2.6-0.6-3.9-0.2c-2.3,1.8-3.9,4.1-3.6,7.3
		c0.1,0.8,0.5,2.1-1.2,1.9c-0.6-1-1.4-1.8-2.6-1.8c-3.8-0.2-6.5-2.7-9.3-4.8c-1.8-1.3-3.5-2.1-5.7-1.7c-2.3,0.4-4.3-0.1-5.1-2.3
		c-1-2.6-1.6-6.2,0.1-7.8C239.2,572.1,241.8,569.5,244.2,566.6z"/>
	<path class="st10" d="M333.4,618c2.4-0.9,3.4-0.2,4.8,2.3c2.3,4.3,5.8,8.2,9,11.9c2.5,2.9,4.5,6.2,6.2,9.6c0.5,1,1.7,2.2,0.5,3.3
		c-0.9,0.9-2.3,0.3-3.5,0c-4.4-1.3-8.3-4.3-12.9-5c-4.8-0.7-6.2-3.7-6.1-8c0-0.8,0.2-1.9-0.7-2.2c-4.2-1.8-7-7.5-13-4.8
		c-1.7,0.8-2.8-0.4-2.7-2.4c0.1-1.4,0-2.7,0-4.3c-1.1-0.4-2.1,2.7-3.3,0.3c0.8-1.8,1-4,2.9-5.2c2.3,0.1,2.6-3,4.9-3
		c0.9,0.1,1.9,0,2,1.2c0.1,1-1.3,0.6-1.6,1.4c-0.3,0.6-0.7,1.1-1,1.7c-0.9,2.1-3.2,4.5-1,6.5c1.9,1.8,4.8,1,7.2-0.2
		c0.5-0.2,0.9-0.6,1.3-0.9c1.3-0.7,1.9-0.2,1.7,1.1c-0.2,1.8,0.2,2.8,2.2,2c1.4-0.5,3.7-0.7,2.2-3.2
		C332.1,619.2,332.1,618.4,333.4,618z"/>
	<path class="st9" d="M293.8,607.9c1.3,0.1,2,0.4,2.4,0.2c5-2.6,6.3,1,7.1,4.5c1.3,6.3,4.6,12.1,4.2,18.7c-0.1,1,0.3,2.5-1,2.8
		c-1.4,0.3-1.4-1.3-2.1-2.1c-3.5-4.4-6.1-9.7-12.4-11.3c-3.6-0.9-4.6-3.9-3.8-7.1C289,610.5,289.9,606.9,293.8,607.9z"/>
	<path class="st9" d="M315,613.8c-1.6,1.3-0.5,4.3-3.1,4.9c-4.4-3.3-7.7-7.5-8.8-12.9c-0.5-2.4-3.4-3.3-2.9-6c0.4-0.5,1-0.7,1.6-0.8
		c2.1-0.1,4.1,0.3,6.1,0.6c7,1.1,8.7,3,9.2,10C317.3,611.5,316.2,612.6,315,613.8z"/>
	<path class="st11" d="M320.1,613.1c1.2-1.4,0.7-1.9-1-1.8c0.2-1.7,1.6-1.8,2.8-1.7c7.3,0.2,13.6-3.1,19.8-6.3
		c4.3-2.2,8-2.7,11.4,1.1c0.6,0.7,1.4,0.9,2.2,0.4c1.7,0.8,3.4,1.7,5.1,2.5c-0.8,4-3.2,5.9-7.8,5.6c3-2,1.7-3.1-0.2-4.5
		c-3.3-2.5-5.9-4.3-10.3-1.3C335.6,611.4,328,613.1,320.1,613.1z"/>
	<path class="st12" d="M290.3,342.2c5.2,0.9,10.4,1.8,15.7,2.6c1.6,0.3,2.8,0.9,2.8,3.1c-2.9-0.8-5.7-1.4-8.5-1
		c-4.1-1.5-8.6-1.7-12.5-4C288.6,342.6,289.6,343,290.3,342.2z"/>
	<path class="st13" d="M275.6,599c3.8-0.1,7.3,1.4,10.7,2.7c2.8,1,5.3,2,8.3,1.1c0.8-0.2,1.8-0.3,2.1,0.7c0.3,1.1-0.8,1.3-1.5,1.5
		c-2.4,0.9-4.5,1.4-7.2-0.2c-3.7-2.3-8.1-3.3-12.3-4.2C275.1,600,275.1,599.5,275.6,599z"/>
	<path class="st14" d="M275.6,599c0,0.5,0,1,0,1.5c-6.4-0.4-12.5-1.4-16.5-7.3c1.3-3.2,0.2-7.7,4.8-9.2c-0.1,0.2-0.2,0.5-0.4,0.7
		c-5.8,5.9-2.6,9.8,4.2,12.5C270.1,598.3,272.9,598.4,275.6,599z"/>
	<path class="st15" d="M158.7,483.9c-1.1,3.8-4.2,6.7-5.7,10.4c-0.5,1.1-2.2,0.3-2.4-0.9c-0.2-1-2.5-2.5-0.1-3.3
		c3.5-1.1,4.7-3.2,4.6-6.7c0-1.4,1.3-2.1,2.6-2.1C159.1,481.5,158.6,482.8,158.7,483.9z"/>
	<path class="st16" d="M333.4,618c-0.2,0.3-0.6,0.9-0.5,1c2.9,3.8,2.9,3.7-1.3,5.1c-4.6,1.5-4.7,1.4-4.3-3.5c0-0.1-0.4-0.2-0.7-0.4
		C328.4,618.3,331.1,618.7,333.4,618z"/>
	<path class="st12" d="M301.9,599.8c-0.6,0-1.2,0-1.7,0c-2.9-4.8-7.2-7.9-12.4-9.8c1.4-0.4,2.9,1.4,4.3,0c0.9-0.9,1.8-0.5,2.6,0.1
		C297.7,592.7,301.3,595.1,301.9,599.8z"/>
	<path class="st17" d="M389.3,542.8c0.5,0.1,1,0.1,1.6,0.2c-0.9,0.5-1.7,1.1-2.6,1.6c-2.9-0.3-2,3.1-3.8,3.9
		c-1.7-0.9-0.7-2.7-1.2-3.9c-0.5-1.3-0.1-2.1,1.3-2.1C386.2,542.6,387.8,542.3,389.3,542.8z"/>
	<path class="st0" d="M341.2,649.2c0.6,0.1,1.5,0,1.5,0.9c0,1-0.7,1.4-1.6,1.4c-0.9,0.1-1.7-0.4-1.8-1.3
		C339.3,649.1,340.4,649.2,341.2,649.2z"/>
	<path class="st0" d="M349.2,617.3c0,0.9-0.6,1.2-1.3,1.2c-1,0.1-1.4-0.6-1.4-1.5c0-0.7,0.2-1.4,1.1-1.3
		C348.3,615.9,348.9,616.5,349.2,617.3z"/>
	<path class="st1" d="M411.5,418.5c-0.7-0.1-1.4-0.2-2-0.5c-1.6-0.7-4.3,0.4-4.8-1.4c-0.5-2,2.3-2.6,3.6-3.8
		c6.1-5.4,12-10.9,17.8-16.8c4.6-4.7,10-8.7,15-13c0.7-0.6,1.7-1.8,2.3-0.7c1.1,1.9-1.6,2.5-2,4.1c2.1-1.4,2.6-3.8,4-5.6
		c0.5-0.5,1-1,1.4-1.5c2.2-2.3,7.1-3.5,6.5-6.4c-0.5-2.4-2.9-5.3-4.8-7.8c-1-1.4-1.2-3-2-5c2.9,0.7,4.7,2.3,6.6,3.7
		c4.2,3.3,8.3,6.6,12.5,9.9c0.9,0.7,1.9,2,3.2,0.7c1.5-1.6-0.2-2.4-1.1-3.3c-0.6-0.6-1.4-0.8-2-1.4c-0.8-0.9-0.1-2,0.6-1.7
		c2.5,1.1,5,2.3,7,3.9c1.5,1.2,0.1,3.1-0.5,4.5c-2.1,4.9-2.2,4.9-6.7,1.8c-1.1-0.8-2.2-1.6-3.4-2.3c-1-0.6-2.3-1.9-3.2-0.7
		c-1,1.3,0,2.8,1.3,3.8c2,1.6,4.1,2.9,5.7,5.1c4.3,6,3.9,12.9,5,19.6c0.7,3.8,0.8,7.6,1.2,11.4c0.2,2-0.3,2.7-2.2,1.4
		c-0.8-0.5-1.7-0.8-2.6-1.2c-4.9-2.4-4.7-2.3-6.7,2.9c-1.1,2.8-0.2,3.3,2.3,3.6c11.6,1.4,23.2,3.1,34.7,5.2c2.7,0.5,5.3,0.6,7.6-1.6
		c0.9-0.8,2.1-1.9,3.6-0.8c0.6,0.4,1.2,0.7,1.3,1.5c0.1,0.9-0.6,1.2-1.3,1.4c-3.6,0.9-3.5,2.6-1.7,5.4c1.8,2.8-0.7,3.2-2.6,3.4
		c-2,0.2-4.1-0.1-6.1-0.1c-0.9,0-1.6,0.5-1.4,1.6c0.1,0.9,0.9,0.9,1.6,0.8c1.8-0.1,3.5-0.8,5.3-0.4c0.6,0.2,1.5,0,1.5,1
		c0.1,0.9-0.7,1.2-1.3,1.3c-2.3,0.3-4.6,0.6-6.9,0.7c-3.2,0-6.2,0.6-9.2,1.6c-9-1-15.2,3.7-21.2,9.7c-9.5,9.6-19.1,19.1-29.4,27.9
		c-4.8,4.1-10.2,8.4-10.8,15.7c-0.2,2.3-1,2.5-2.7,0.9c-1.4-1.3-3.1-2.1-4.8-3.1c-1-0.6-1.5-1.3-0.9-2.3c0.6-0.9,1.4-0.4,2.2,0
		c2.5,1.2,4.8,1.5,4.6-2.3c-0.1-2-0.9-3.8-3.3-1.7c-1.2,1.1-2.4,1.8-4,0.9c-1.9-1-1.5-2.6-1.6-4.3c-0.1-2.5,0.9-5.1-0.5-7.6
		c-2.4,0.6-0.1,3.6-2,3.8c-1.9,0.2-2.3-2.1-3.6-3c-0.8-1.1-0.4-2.3-0.4-3.5c0-1.1,2.1-1.7,0.6-3.4c-1,1.6-1.3,4.6-4.2,2.6
		c-3.9-3.8-3.9-3.8-3.7-9.2c-1.8,2.4-3.3,4.3-5.5,5.8c-2.1,1.5,0,3.9,1.2,5.7c1.8,2.8,1.4,4.6-2.1,5.3c-4,0.1-6.3-2.8-9-5
		c-0.8-0.6-1.6-1.1-2.4-1.7c-4.5-0.8-5.3-1.7-5.4-6.5c-0.1-3.9,0.3-7.6,2.9-10.7c2.7-3.8,3-7.9,1.5-12.1c-1.1-3.1,0.6-3.3,2.8-3
		c1.2,0.1,2.3,0.6,3.5,1c1.7,0.5,1.6,2.1,1.8,3.3c0.3,1.5-1.2,1-2,1.1c-1,0.1-1.6,0.5-1.3,1.5c0.3,1,1.2,1.3,2,0.8
		c5.7-3.3,8.6,0.3,11.7,4.3c3.7,4.9,7.4,9.8,12.2,13.8c4.4,3.4,7.1,8.1,10.4,12.4c-2-3.4-3.7-6.9-6.1-10c-0.9-1.2-2-2.3-1.7-4
		c-4.8-9-13.2-14.5-20.3-21.3c-4.8-4.7-11.5-7.6-14.6-14.3c-1.1-2.4-1.3-3.8,0.9-5.1c4.6-2.7,7-6.9,8.7-11.7
		c0.5-1.3,0.5-2.2-0.1-3.4c-1.5-2.8-1.8-6.1-0.8-8.8c2.8-7.4,0.9-14.5-0.6-21.7c-0.8-3.5-0.8-6.4,3.7-7.5c1.3-0.3,2.4-1.8,3.6-2.6
		c2.6-1.8,5.3-0.7,5.2,2.3c-0.2,12,2.1,24.1-2.4,35.8c-0.6,1.6-1,3.5,0,5.2c1.4,2.4,1.8,4.6-1,6.4c-0.6,0.4-0.9,1.2-0.2,1.7
		c0.7,0.6,1.5,0.5,2.2-0.2c7-1,14.1-0.9,21.1,0c5.2,0.7,10.3,0,14.1,0.6c-6.6-0.1-14.5-1.4-22.4-1.3
		C413.4,419.7,412.3,419.4,411.5,418.5z"/>
	<path class="st18" d="M382.7,456.5c0.2,3.3-1.8,6.1-2,9.5c-0.1,3.9,0.8,6.4,4.5,7.7c-0.6,0.3-1.2,0.5-1.7,0.8
		c-2.3,0-3.9,1.1-5.1,3.2c-1.3,2.3-1.9,4.2,1.3,5.4c0.9,0.3,1.6,1,1.4,2.2c-1.3,0.2-1.7,0.7-0.3,1.5c1.8,1.1,3.5,2.4,4.3,4.4
		c-4.3-2.6-7.7-6.8-13.1-7.6c-0.5-0.6-0.5-1.2-0.1-1.8c1.4-0.9,1.1-2.6,1.8-3.9c0.6-6.2,4-11.5,5.7-17.4c0.4-1.1-0.1-2.4,0.9-3.4
		c0.4-4.8,1.2-9.7-0.6-14.4c-0.4-0.9-0.3-1.9,0.4-2.7c2.4,0.7,1.7,2.8,1.9,4.4C382.3,448.5,380.9,452.6,382.7,456.5z"/>
	<path class="st19" d="M413.2,487.8c0,1.1-0.7,1.5-1.3,1.5c-3.1-0.1-5.8-1.1-8.2-3.1c-0.2-0.2-0.5-0.5-0.5-0.6
		c1.3-4.7-2.3-8.2-3.2-12.3c-0.2-0.8-0.4-1.6,0.4-2.2c1-0.7,1.7-0.3,2.5,0.5c3,2.8,6,5.6,8.2,9c0.8,1.2,2.3,2.7-0.2,4.1
		c-1.2,0.7,0.2,1.2,0.6,1.7C412,486.9,412.7,487.4,413.2,487.8z"/>
	<path class="st9" d="M381.1,485.2c-0.5-0.5-0.9-1.2-1.4-1.3c-4.1-1-4.8-2.8-2.4-6.4c0.5-0.7,1.2-1.3,1.4-2c1-3.2,2.8-2.7,4.8-1
		c0.8,2.3,1,4.8,3.2,6.3c1.7,1.1,2.7,2.4,1,4.3c-1.5,1.6-3,3.5-5.3,1C382.1,485.7,381.5,485.5,381.1,485.2z"/>
	<path class="st20" d="M387.6,475.4c3,1.6,5.5,4.3,9,5c-0.4,0.4-0.8,0.9-0.1,1.3c1.2,0.7,3,1.3,1.8,2.9c-1,1.4-3,1.1-4.5,0.5
		c-1.9-0.8-1.3-2-0.2-3.2c1.3-1.3-0.3-1.5-0.9-1.9C390.7,478.8,388.9,477.4,387.6,475.4z"/>
	<path class="st21" d="M406.6,472.7c5.1,0.5,2-3,2.4-5.1c1.7,0.3,2.6,1.7,3.7,2.8c0.9,0.9,1.3,2.1-0.4,2.4c-2.9,0.6-1.6,2.7-1.7,4.2
		C409.9,475.1,408.4,473.7,406.6,472.7z"/>
	<path class="st22" d="M439.3,584.1c0.6-2,1.9-3.5,3.4-5C441.8,580.9,443.7,584.6,439.3,584.1z"/>
	<path class="st22" d="M444,576.6c0.9-2,2.8-2.9,4.5-4.1C448.4,575.5,446.3,576.1,444,576.6z"/>
	<path class="st8" d="M403.3,224c0.2,1.5-1.1,2.4-1.8,3.4c-3.9,5.9-7.8,11.8-12,17.5c-2.3,3.1-3,2.8-4.3-0.9
		c-1.7-4.7-3.4-9.4-5.3-14.1c-0.9-2.3-0.7-3.8,1.5-5.2c4.1-2.5,8.1-5,12.1-7.6c1.5-1,2.3-1.4,2.5,1c0.2,2,2.2,2.2,3.8,2.5
		C401.6,220.9,403.2,221.6,403.3,224z"/>
	<path class="st8" d="M261.4,235c2.7,4.7,3.7,9.8,3.1,15.2c-0.4,3.1-8.5,8.1-11.7,7.7c-1.5-0.2-1.6-1.4-1.9-2.3
		c-1.6-5.4-3.1-10.9-4.8-16.3c-0.8-2.5-2.3-5,0.4-7.1c2.7-2.2,5.9-2.6,9.3-1.7c0.6,0.2,1.1,0.7,1.7,1.1
		C258.9,232.6,259.9,234.1,261.4,235z"/>
	<path class="st23" d="M383.1,219.1c-1.3,1.8-3,2.9-4.9,3.4c-1.2,0.3-2-1-1.8-2.1c0.5-2,2.1-2.7,4-2.6
		C381.5,217.9,382.7,217.7,383.1,219.1z"/>
	<path class="st24" d="M262.3,304.2c1,0.1,1.6,0.6,1.6,1.4c0.1,0.9-0.6,1.5-1.3,1.7c-0.8,0.2-1.2-0.6-1.2-1.3
		C261.4,305.4,261.2,304.5,262.3,304.2z"/>
	<path class="st25" d="M261.4,235c-3,0.7-2.3-2.7-3.9-3.5C259.3,232.1,260.6,233.3,261.4,235z"/>
	<path class="st26" d="M102.8,415.2c0.2,2.1-1,4.5-2,6.8c-0.7,1.7-2.6,2.3-4.2,1.5c-7.5-3.5-14.9-7.2-22.4-10.8
		c-1.2-0.6-1.3-1.4-0.8-2.7c2.1-5,9-10.8,15.9-8.1c4.7,1.9,8.8,4.4,12.2,7.9C102.6,411.2,102.7,412.9,102.8,415.2z"/>
	<path class="st8" d="M55.5,389.6c6.2,0.5,10.8,4,15,8.2c1.5,1.5,0.5,9.9-1.1,11.3c-1.2,1.1-2.7,0.5-3.8-0.2
		c-5.1-3.5-10.7-5.9-16.3-8.5c-3.1-1.5-2.8-4.2-1.5-6.2C49.4,391.5,51.8,389.2,55.5,389.6z"/>
	<path class="st8" d="M564.6,690c0-1.9-0.1-3.9,0-5.8c0.2-2.1-1.3-5.4,1-5.9c2.5-0.6,5.6-0.5,8.2,1.2c4.5,2.9,6.7,9.7,5,16.6
		c-1.6,6.4-3.4,7.9-9.3,8.3c-3.3,0.2-4.9-1.4-5-4.5C564.4,696.6,564.5,693.3,564.6,690C564.5,690,564.5,690,564.6,690z"/>
	<path class="st8" d="M564.7,661.7c0-1.9,0-3.8,0-5.8c0-5.4,1.7-6.7,7-5.2c2.8,0.8,5,2.6,5.3,5.7c0.3,3.4,0.4,6.9,0.2,10.3
		c-0.3,3.9-7,8.3-10.8,7.4c-1.5-0.4-1.7-1.6-1.7-2.9C564.6,668,564.6,664.8,564.7,661.7C564.6,661.7,564.6,661.7,564.7,661.7z"/>
	<path class="st0" d="M301.9,599.8c-2.8-3.8-5-8.2-9.9-9.8c-3.3-1.1-2.4-3.4-2.4-6.1c0-5.6-0.7-11.2-1.9-16.6
		c-1-4.4-0.3-9.1-2.6-13.1c-0.3-0.6-0.5-1.3-1.2-1.5c-1.8-3.2-0.7-7.7-4.1-10.2c-0.2-0.1-0.4-0.6-0.3-0.7c3.3-4.7,2.3-10.4,3.2-15.7
		c1.7,0.4,1.9,1.5,2.2,2.5c0.8,2.9,3,4.5,5.7,4.4c6.7-0.1,12.3,3.1,17.9,5.9c9.3,4.7,18.9,8,29.5,7.8c3-0.1,5.5-0.5,5.8-4.7
		c2.1,3.1,4.9,3,7.4,2.3c2.1-0.6,0.9-2.8,1-4.3c0.1-3,0-6,0-9.2c-2.2-0.3-4.6,3.7-6.2,1c-1.8-2.8-2.6-6.7,1.5-9.2
		c0.8,0.1,0.6,0.7,0.7,1.2c0.3,1.7-1,4.3,1.3,5c2,0.7,3.1-1.7,4.4-3.1c1-0.6,1.7-0.6,1.6,0.8c0,3.6,0,7.1-0.1,10.7
		c-0.1,3.1-0.2,6.1,3.6,7.2c1.4,0.5,1.1,2,1.5,3.1c2,7-0.5,13.8-0.4,20.7c0,3-0.1,6-0.2,9c-0.3,8.5-1.5,16.8-6.7,24.1
		c-1.5,2.2,1.2,2.4,2.2,3.4c-0.9,2.9-2.4,1.3-3.2,0.2c-2.2-3.1-5.1-3.1-7.9-1.7c-7.7,3.7-15.1,8.2-24.2,7.3c-0.3,0-0.6,0.5-0.9,0.7
		c-1.5,0.7-1.6,2.4-2.6,3.5c-1.5,1.6-1.1-0.4-1.5-1c2.3-3.4-0.1-6.8-0.3-10.2c-0.1-1.3-0.8-1.6-2.2-1.8
		C309,601.3,305.5,600.4,301.9,599.8z"/>
	<path class="st1" d="M379.9,440.1c1,5.7,1.8,11.4,0.2,17.1c0-4.1,0-8.2,0-12.9c-1.9,1.7-3.2,3.1-1.7,5c1.7,2.1-0.3,3.6-1.1,4.6
		c-1.1,1.4-2.8,0.2-3.3-1.3c-0.4-1.2-0.3-2.6-0.3-4c0.1-3-1.8-4.8-4.9-4.7c-3,0-6.5,2.4-8.9-1.4c-2.2,1.7-4.2,0.4-6.4-0.1
		c-0.4-0.1-1.5,1.1-1.1,1.9c1.3,2.6-0.7,5.9,1.9,8.1c0.7,0.7,0.7,1.3,0.1,2.1c-3.4,4.2-3.5,8.4-0.3,12.8c0.9,1.2,1.2,3.2-0.2,4.1
		c-1.2,0.7-2.1-0.8-2.5-2c-0.7-2.2-1.4,0.5-2,0c0.4-4.8,0.8-9.6,1-14.4c1.5-2.6-0.8-7-4.2-8.1c-1,0.6-1.9,1.5-3,2
		c-2.8-0.6-2.9,1.7-3.4,3.4c-0.3,0.9,0.2,2.5-1.7,1.9c-1.4-0.4-2-1.4-1.2-2.9c1.4-2.5,0.4-4.4-1.3-6.2c-0.8-0.8-2.2-1.7-1.2-3.1
		c1.1-1.4,2.1,0.5,3.8,0.4c-1.5-1.4,0.5-5.2-3.9-3.6c-1.2,0.4-2.1-1.2-1.9-2.6c0.1-1.3,0.5-2.7,0.8-4c3,1.7,4.1,5,6.6,7.1
		c2.2,1.8,3.9,3.5,7,0.2c4.5-4.8,6.4-3.9,9.9,2.7c5.9-4.5,11.6-8.4,19.8-5.9C379.2,437.2,379.2,438.6,379.9,440.1z"/>
	<path class="st1" d="M379.3,460.6c-0.4,6.3-3.5,11.7-5.7,17.4c-0.1-0.3-0.1-0.6-0.2-0.8c-0.7-1.5-2.2,1.8-2.6-0.3
		c-0.4-2.1,1.6-2,4.3-2.4c-3.5-0.7-6-1.3-3.1-4.1c0.6-0.6,0.4-1.7-0.1-1.7c-2.2,0.2-2.7-2.9-4.9-2.3c-0.9,0-1.7-0.3-2.4-0.7
		c-0.4-4,4.4-3.9,5.5-7c2-5.7,5.4,1.1,8.2-1.1c-0.6,2.8-1.1,5-1.5,7.2c0.1,0,0.3,0.1,0.4,0.1C377.9,463.4,378.6,462,379.3,460.6z"/>
	<path class="st27" d="M266.5,565.3c1.3-0.4,0.7-2.9,3.1-2.4c-1.7,2.4-0.2,4.5,0.8,6.5c1.7,3.4,1.2,6.9,1.2,10.4
		c0,2.5-1.3,2.9-3.1,1.4c-1.8-1.4-3.3-3.2-6.1-1.7c-1.2,0.6-2.1-0.8-2.5-2.1c-0.5-1.6-0.3-3.2,0-4.9
		C262.2,570.2,264.4,567.7,266.5,565.3z"/>
	<path class="st28" d="M387.5,339.5c1.4,2.8,0.5,4.7-2.3,5.8c-0.7,0,0.1-2.7-1.6-0.9c-0.8,0.9-1.4,2.1-2.5,2.6
		c-2.4,5.2-3.2,5.5-8.2,3.6c-1.9-0.7-3.7-0.7-5.6,0c-1.7,0.6-3.4,0.5-4.3-1.3c-0.8-1.6-0.5-3.2,1-4.4c1.6-1.4,3.3-1.1,4.9,0.1
		c0.6,0.5,1.1,1.2,1.7,1.7c2.2,1.9,3.9,3,5.9-0.9c1.4-2.8,4.4-4.7,6.7-7c1.2-1.1,1.9-0.4,2.5,0.8C386.2,341,386.9,341.4,387.5,339.5
		z"/>
	<path class="st29" d="M351.1,454.1c0.8,5.3,0,10.4-1.6,15.5c-1.7,2.4-2,5.6-4.6,7.5c-0.7,0.5-1.4,1.8-2.3,0.7
		c-0.8-0.9-0.4-1.9,0.7-2.7c6.5-4.7,7.8-15.9,2.6-21.9c-1-1.2-1.8-2.7-2.6-4.1c0.4-1.6,1.1-2.7,3-2.2
		C349.7,448,350.1,451.2,351.1,454.1z"/>
	<path class="st30" d="M330.7,414.4c-0.3,0.3-0.5,0.7-0.8,1c-1,0.9-2.2,0.9-3.4,0.9c-4.2-1-8-2.7-10.9-6.1c-1.3-1.5-2.3-2.8-2.3-5
		c0-2.5-1.5-4.6-3.1-6.5c-1-1.1-1.7-2.5-1.9-4c4.3,1.6,6.2,3.6,7,8c0.7,3.8,4,5.8,5.7,8.9C323.1,415.4,327.3,414.1,330.7,414.4z"/>
	<path class="st31" d="M338.9,482.6c-0.8,0.5-1.6,1-2.4,1.5c-0.7,0.4-1.5,0.8-2.3,0.2c-0.9-0.6-0.8-1.5-0.6-2.5
		c0.7-3.3,1.6-6.6,1.4-10.1c0-0.8-0.1-1.8,0.9-1.9c1.1-0.1,1.7,0.9,1.8,1.9c0.1,2.8,0.8,6-0.3,8.3
		C336.3,482.4,338.6,481.7,338.9,482.6z"/>
	<path class="st32" d="M364.5,465.6c1.1-0.9,2-0.7,2.4,0.7c0.1,1.9,0.3,3.8,0.3,5.6c0,0.9,0.3,2.1-1.1,2.3c-0.9,0.1-1.6-0.5-1.9-1.2
		c-1.3-3.2-2.3-6.7-6-8.2c-0.5-0.2-0.6-1-0.1-1.4c0.9-0.8,1.7-0.2,2.6,0.2C362.1,464.3,362.1,467.3,364.5,465.6z"/>
	<path class="st0" d="M355.4,523.1c1.7-6.3-3.8-1.4-5-3.2c2-3,6.2-3.1,8.4-0.1c1.2,1.6,2.1,3.4,3.2,5c-0.3,1.9-1.6,1-2.6,1l0,0
		c-0.8-1.1-1.9-0.4-2.9-0.6C355.2,525,354.7,524.4,355.4,523.1z"/>
	<path class="st33" d="M328.2,494.3c1.6,1.2,3.1,2.4,4.8,3.6c2.1-2.3-0.4-4.8,1.2-8.3c0.6,4.8,2.7,8.1,2.3,12.1
		c-0.2,2.3-1.5,1.7-2.4,0.7c-2.2-2.4-4.2-5-6.3-7.5C327.8,494.7,328,494.5,328.2,494.3z"/>
	<path class="st34" d="M360.5,353.4c4.7,1.2,9.4,1.8,14.2,2.2c-5.8,2.7-11.4,1.2-16.9-1.1C358,352.5,359.4,353.2,360.5,353.4z"/>
	<path class="st35" d="M318.8,459.4c4.5,0.3,9.3,0.2,10,6.8C324.3,465.5,322.1,461.6,318.8,459.4z"/>
	<path class="st36" d="M363.6,585.3c1.5,1,2.7,2.2,2.9,4.1c0.3,2-0.8,4.2-2.5,4.1c-2.1,0-2.1-2.8-2.7-4.5
		C360.7,587.3,362.2,586.4,363.6,585.3z"/>
	<path class="st37" d="M343.2,435.8c-1.3-0.9-1.8,0.6-2.8,0.8c1.3-4-1.8-5.8-4-8.1c-0.4-0.5-1.1-0.8-0.9-1.6c1.1-0.5,0.9-1.6,1-2.5
		C341.2,426.5,343.9,431,343.2,435.8z"/>
	<path class="st32" d="M359.4,525.8c0.9-0.3,1.7-0.6,2.6-1c2.8,1.8,4.1,4.9,6.6,7c0.6,0.6,0.9,1.4,0.1,2.1c-1,0.9-1.8,0.2-2.4-0.5
		c-1.3-1.7-2.8-3.4-3.8-5.3C361.8,526.7,360.5,526.5,359.4,525.8z"/>
	<path class="st38" d="M345.8,399c-1.9,1.9-3.5,4.2-6.6,4.3c-0.8,0-1.7,0.5-2.1-0.6c-0.4-1,0.2-1.8,1.2-2.3c2.1-0.9,4.2-1.7,6.4-2.6
		C345.2,398,345.6,398.3,345.8,399z"/>
	<path class="st39" d="M236.1,541.1c-4.2,1-6,0.5-11.1-2.9C227.1,537,230.8,537.9,236.1,541.1z"/>
	<path class="st40" d="M335.5,426.9c0.3,0.5,0.6,1,0.9,1.6c-0.9-0.1-1.9,0.9-2.7,0c-2.4-2.9-4.2-6.2-4.6-10c2.2,0.9,2.7,3,3.3,4.8
		C333,425,334,426.1,335.5,426.9z"/>
	<path class="st41" d="M381.1,347c-0.1-1.6,1.5-2.1,2-3.3c0.5-1.5,1.7-2.5,3-1.5c1.9,1.4-0.6,2.1-0.9,3.1c-1.9,0.5-2.6,1.9-2.6,3.7
		c-0.1,2.5,2.6,0.7,3.3,2.1C381.9,352.5,381.9,349.3,381.1,347z"/>
	<path class="st42" d="M383.3,334.4c-3-0.1-5.3,0.8-6.7-1.3c-0.7-1,0.9-2,1.8-2.3C381.2,329.7,381.2,332.6,383.3,334.4z"/>
	<path class="st17" d="M316.7,480.4c-0.1,1.3-0.6,2.4-1.9,1c-1.5-1.4-2.1-3.8-1.2-5.3c1.1-2,2.6,0.6,4.1,0.7
		C318.6,478.4,317.3,479.3,316.7,480.4z"/>
	<path class="st17" d="M287,455.7c1.8-0.3,2.3-1.7,2.6-3.3c2.1,0.5,3.9,1.5,6,3.6C292.1,456.3,289.6,457.4,287,455.7z"/>
	<path class="st43" d="M246.6,578.4c0.1,0.8,1.6,1.5,0.2,2.3c-0.8,0.5-1.8,0.5-2.5-0.4c-0.3-0.4-0.5-0.9-0.8-1.4
		c-0.8-1.4-1.9-3.5-0.4-4.3c2.3-1.2,1.6,2.1,2.8,2.9C246.1,577.8,246.4,578.1,246.6,578.4z"/>
	<path class="st44" d="M325,383.5c0.2-1.3-0.9-3.4,1.3-3.7c1.3-0.1,1.1,1.7,0.9,2.7c-0.4,1.6,1,4.2-1.3,4.4
		C324.3,387.1,325.3,384.7,325,383.5z"/>
	<path class="st45" d="M252.5,521.1c-1.7-0.6-4.1,0.7-4.2-1.1c-0.1-2,2.4-0.8,3.7-1.2c1.6-0.5,4.6-1,4.6,0.6
		C256.7,522.2,253.6,520.1,252.5,521.1z"/>
	<path class="st23" d="M313,419c0.7-1.3,1.9-1.4,3.1-1.4c1.6,0.1,4.2,0.2,4.1,1.6c-0.2,2.2-2.5,0.8-3.9,0.8
		C315.1,420,313.8,420.4,313,419z"/>
	<path class="st46" d="M301.2,412.9c-0.3-0.6-0.6-1.3-0.8-1.9c2,0.3,3.1-1.3,4.6-2.2c1.1-0.6,2.5-1,3.2,0.3c0.5,1.1-1,1.4-1.8,1.7
		C304.6,411.6,303.2,413.2,301.2,412.9z"/>
	<path class="st47" d="M400.9,509.7c-1.3-2.6-2.7-3.9-2.2-6.1c0.2-0.8,0.2-1.7,1.3-1.7c1-0.1,1.5,0.7,1.6,1.5
		C401.8,505.1,402.1,507,400.9,509.7z"/>
	<path class="st48" d="M219.5,521.9c-0.4,0.8,0.8,2.6-1.2,2.4c-1.4-0.1-2-1.5-1.8-2.8c0.2-1.1,0.2-3,1.7-2.9
		C220.2,518.8,219.2,520.7,219.5,521.9z"/>
	<path class="st9" d="M251.5,576.6c0.1-1.1,0.1-2.2,0.3-3.2c0.2-1,1.1-1.5,2.2-1.5c0.9,0,1.7,0.2,2.1,0.9c0.8,1.5-1.1,1.1-1.3,1.9
		c-0.1,0.3,0.2,0.7,0.3,1.1c0,0-0.1,0.2-0.1,0.2c-0.9,0.9-1.9,1.2-3.2,0.8L251.5,576.6z"/>
	<path class="st49" d="M303,464.5c-0.9,0.2-1.6,0-1.6-0.6c0.2-2.2,2.4-3,3.6-4.6c0.4-0.6,1.3,0.2,1.3,0.9
		C306.5,462.9,304,463.2,303,464.5z"/>
	<path class="st50" d="M360.5,353.4c-1,0.2-2.1,0-2.7,1.1c-2.1-1.4-4.7-2.3-6-6C355.1,350.8,357.7,352.2,360.5,353.4z"/>
	<path class="st51" d="M246,496c-0.9-0.1-2.4,0.3-2.1-1c0.4-1.7,2.4-1.9,4-2.3c1-0.3,1.7,0.2,1.5,1.2C249,495.7,247.7,496.2,246,496
		z"/>
	<path class="st52" d="M367.2,559.3c0.9-3.7,2.8-4.8,5.2-5.1c0.5-0.1,1.2,0.7,0.9,1C371.6,556.5,369.8,557.7,367.2,559.3z"/>
	<path class="st53" d="M364.7,456.6c-0.2,0.7-0.3,1.4-1,1.2c-2-0.7-2.4-2.8-3.7-4.1c-0.3-0.3,0.4-1,1-0.9
		C363.1,453.3,364.1,454.9,364.7,456.6z"/>
	<path class="st54" d="M221.3,479.5c-1.1,2.1-1.8,3.5-2.6,4.8c-0.4,0.7-1.1,1.4-2,0.8c-0.7-0.5-0.8-1.6-0.2-2.2
		C217.6,481.7,218.5,480.1,221.3,479.5z"/>
	<path class="st55" d="M245.5,462.4c-1.1,0.1-2.2,0-1.9-1c0.7-2,2.9-1.5,4.4-1.9c0.7-0.2,2.1-0.1,1.9,0.8
		C249.3,462.8,246.8,461.6,245.5,462.4z"/>
	<path class="st56" d="M371.8,481.9c0,0.6,0.1,1.2,0.1,1.8c-1.3,0.2-2.6,0.5-3.9,0.7c-0.8,0.2-1.7,0.3-2-0.7
		c-0.3-1.1,0.7-1.4,1.4-1.5C368.9,482,370.3,482,371.8,481.9z"/>
	<path class="st18" d="M312,431.5c-1.2,1.4-2.2,0.6-3.2,0.5c-0.8-0.1-2,0.7-2.4-0.6c-0.2-0.7,0.5-1.1,1-1.6c1.1-0.9,1.8-0.6,2.7,0.5
		C310.4,430.8,311.2,431,312,431.5z"/>
	<path class="st24" d="M348.6,511.9c-0.2,1.8,0.2,3.9-2.2,4.3c-0.7,0.1-1.5-0.3-1.5-1.1C345.1,513,346.8,512.4,348.6,511.9z"/>
	<path class="st57" d="M348.9,337.8c0.5,0.3,1.1,0.6,1.6,0.9c0,2.3,0.4,4.5-0.2,6.9C347.8,343.3,348.8,340.5,348.9,337.8z"/>
	<path class="st45" d="M316.7,480.4c0.3-1.2,0.6-2.3,0.9-3.5c1.9,0.3,4-0.6,5.6,1c-0.5,0.5-0.3,1.2-0.8,1.7
		C320.3,478.2,318.4,478.2,316.7,480.4z"/>
	<path class="st58" d="M223.9,474.6c-0.7,0-1.5,0-1.3-0.9c0.2-1.1,0.9-1.9,2.1-2.1c0.8-0.2,1.4,0.3,1.3,1
		C225.9,473.7,225.1,474.4,223.9,474.6z"/>
	<path class="st59" d="M387.6,528.1c0.2-0.2,0.4-0.3,0.6-0.5c0.9-0.6,2.1-2,3-0.8c0.9,1.2-0.8,1.9-1.5,2.8c-0.3,0.4-0.9,0.6-1.3,0.9
		C387.7,529.9,387.5,529,387.6,528.1z"/>
	<path class="st60" d="M343.4,523.5c-2.2-1.5-1.6-3.4-2.8-5.4C344.1,519.1,344.1,520.9,343.4,523.5z"/>
	<path class="st61" d="M367.2,334.2c0.9,0.3,2.5-0.3,2.6,1.2c0.1,1.4-1.3,0.9-2.2,0.9c-1.1,0-2.4-0.1-2.4-1.5
		C365.3,333.8,366.4,334.2,367.2,334.2z"/>
	<path class="st62" d="M300.4,472.7c-0.3,1.2-1.1,2-2.4,2.4c-0.7,0.2-1.1-0.5-0.9-1c0.3-1.2,0.9-2.3,2.2-2.7
		C300,471.1,300.3,471.8,300.4,472.7z"/>
	<path class="st16" d="M209.2,482.5c0,0.7-0.4,1.3-1.4,1.5c-1.1,0.2-1.9-0.1-2.1-1.2c-0.2-1.2,0.8-1.6,1.7-1.7
		C208.4,480.9,209,481.4,209.2,482.5z"/>
	<path class="st63" d="M381.8,543.7c-0.4,0-0.8,0.1-1.2,0.1c-1.4,0.1-2.8,0.2-3.6-1.3c-0.1-0.3,0-0.9,0.2-1c1.3-0.9,2.2,0.5,3.4,0.6
		c0.4,0,0.8,0.1,1.2,0.1C382.3,542.7,382.3,543.2,381.8,543.7z"/>
	<path class="st17" d="M322.5,479.6c-0.3-0.8-0.8-1.7,0.8-1.7c0.9,1.3,3.5,0.4,3.7,2.9C325.2,481.3,323.9,480,322.5,479.6z"/>
	<path class="st0" d="M383.6,370.9c-0.8,0.2-1.8,0.7-1.8-0.8c0.1-0.2,0.1-0.6,0.3-0.7c0.9-0.7,1.8-2.5,2.8-1.5
		C386.1,369,384.6,370.1,383.6,370.9z"/>
	<path class="st64" d="M381.8,543.7c0-0.5,0-1,0-1.5c2.5,0,5,0,7.4,0c0,0.2,0.1,0.5,0.1,0.7c-1.9,1.1-4.8-1.4-6,1.9
		C382.8,544.4,382.3,544,381.8,543.7z"/>
	<path class="st65" d="M287.9,440.8c1.3-1.2-1.6-3.2,0.8-4.1c0,1.2,0.2,2.3,0.9,3.3c0.4,0.6,1.1,1.6,0.3,2.1
		C288.9,442.6,288.3,441.8,287.9,440.8z"/>
	<path class="st0" d="M326.5,416.3c0.8-1.3,2.2-0.9,3.4-0.9c0,0.9,0.1,1.8-0.9,2.4C328,417.7,327.1,417.2,326.5,416.3z"/>
	<path class="st66" d="M329.2,538.2c-0.1,0.8-0.5,1.4-1.3,1.2c-0.8-0.2-1.4-0.9-1.3-1.8c0.1-0.7,0.5-1.4,1.3-1.2
		C328.8,536.5,329.1,537.4,329.2,538.2z"/>
	<path class="st67" d="M400.7,527.3c-0.7,0.4-1.6,0.8-1.7-0.4c-0.2-1.8,0.8-2.9,2.5-3.4C402,524.8,400.6,525.9,400.7,527.3z"/>
	<path class="st0" d="M345.8,399c-0.4-0.4-0.8-0.8-1.1-1.1c0.2-0.8,0.7-1.3,1.5-1.6c1-0.2,2-0.5,2,1.1
		C347.7,398.4,346.9,398.9,345.8,399z"/>
	<path class="st63" d="M370.4,316c0.8,0.1,1.3,0.4,1.2,1.2c-0.1,1.2-1.1,1.3-2.1,1.3c-0.7,0-1.6-0.1-1.5-0.9
		C368.1,316.5,369.3,316.2,370.4,316z"/>
	<path class="st6" d="M266.4,552.4c-0.2,0.9-0.5,1.6-1.5,1.6c-0.7,0-1-0.5-1-1.1c0-1,0.6-1.5,1.5-1.6
		C266.1,551.3,266.2,551.9,266.4,552.4z"/>
	<path class="st68" d="M385.8,510.9c0.1,0.6,0,1.1-0.7,1.2c-0.9,0.1-1.5-0.4-1.6-1.3c-0.1-0.8,0.3-1.4,1.1-1.3
		C385.2,509.6,385.7,510.1,385.8,510.9z"/>
	<path class="st69" d="M331.3,531.8c0,1.2-0.5,1.6-1.1,1.7c-0.7,0.1-1.3-0.2-1.4-1c-0.2-0.8,0.4-1.2,1.1-1.2
		C330.3,531.3,330.9,531.6,331.3,531.8z"/>
	<path class="st14" d="M250.8,532.8c-0.2,1-0.9,1.3-1.8,1.2c-0.6,0-1.1-0.3-1-1c0.2-0.9,1-1.2,1.8-1.3
		C250.4,531.7,250.7,532.2,250.8,532.8z"/>
	<path class="st51" d="M371.9,578.5c-1,0-1.5-0.3-1.5-1.2c0-1,0.4-1.6,1.4-1.6c0.6,0,1.5-0.3,1.5,0.7
		C373.2,577.4,372.7,578.2,371.9,578.5z"/>
	<path class="st70" d="M357.4,497.9c-0.8-2.4,0.4-3.1,1.5-3.8c0.1-0.1,0.9,0.3,0.9,0.5C360,496.2,358.6,496.7,357.4,497.9z"/>
	<path class="st32" d="M355.4,523.1c0.2,2.6,3.4,0.7,4,2.7c-1.4-0.3-2.8-0.3-4,0.7c-0.3-0.6-1-0.8-1.6-0.8
		C354.4,524.8,354.9,524,355.4,523.1z"/>
	<path class="st0" d="M359,430.1c-0.5,0-1.1,0-1.6,0c-10.6,0-9.1-1.9-8.5-9.9c0.2-2.8,0.4-5.6-0.3-8.1c-0.8-3,0.2-3.9,2.7-4.7
		c1.7-0.5,2.9-1.7,3.4-3.7c1.3-4.9,5.5-7.4,9.4-9.7c2-1.2,3.1-2.6,4.6-4.3c2.8-3.2,3.7-8.6,9.2-9.3c0.2,0,0.5-0.3,0.7-0.4
		c1.4-0.5,1.9-3.4,3.9-1.9c2.3,1.7,4.6,4.2,4,7.2c-0.6,2.9,0.2,5.4,0.8,8c0.3,1.4,0.3,2.7-0.2,4c-1,2.9,0.3,5,2.3,6.9
		c-2.2,1.6-3.2,3.5-2.2,6.3c0.9,2.7,0.9,5.3-2.5,6.8c-1.2,0.5-1.9,2.2-2.9,3.3c-1.5,1.6-3,3.3-5.5,2.9c-1.2-0.2-2.5,0.4-2.7,1.4
		c-1.3,6.3-6.6,4.2-10.4,5.1C361.8,430.4,360.3,430.1,359,430.1z"/>
	<path class="st4" d="M482.1,398.9c2.5,2.1,4.9,4.3,7.4,6.4c1.3,1.2,2.5,2.5,2.9,4.4c0.1,0.5,0.5,1.4,0.7,1.4
		c6.6-0.3,10.1,5.7,15.7,7.4c-1.1-2.4-2.4-4-5.4-6.6c-2.4-2.1-3.3-4.7-2.5-7.7c0.9-3.4,4.2-4.5,6.8-5.1c3-0.7,4.9,3,5.2,4.9
		c0.8,4.5,4.6,5.8,7,8.5c0.6,0.6,0.9,1.6,1.8,2c1.7,1.5,1.8,2.7-0.8,3c-1.2,0.2-2.8-0.5-3.7,1.5c2.2,0.4,4.5-2.2,6.3,0.4
		c0.7,1,1.5,2,2.2,3c0.5,0.9,0.7,1.8-0.1,2.6c-0.7,0.7-1.5,0.7-2.6,0.3c-5.4-1.9-11.3-2.2-16.5-4.6c-1.3-0.6-2.4,0.3-3.5,1.5
		c-2.2,2.4-5.2,2.1-6.4-0.8c-0.9-2.1-1.4-0.9-2.2-0.3c-0.8,0.5-1.6,1.5-2.5,0.9c-0.9-0.5-0.5-1.7-0.5-2.7c0.3-4.2-0.7-5-4.7-3.5
		c-1.4,0.5-2.7,1.2-4.1,1.8c-4.3,1.8-7.7-0.4-7.7-4.9c0-7.4-2.1-14.6-2.5-22c-0.1-1,0-2.1,0-4.1c2.4,3.6,3.3,7.2,6.7,8.8
		C480.7,396,481.4,397.4,482.1,398.9z"/>
	<path class="st0" d="M337.5,342.3c1,0.2,1.8,0.9,2,1.8c1.7,7,8.2,10.9,11,16.8c3.4,7.2,8.8,13.3,10.7,21.1c0.4,1.8-1.7,2.2-2.6,3.1
		c-0.9,0.9-2.2,0.5-2.8-0.7c-0.9-1.7-2.2-2.1-4-2.2c-3.2-0.2-4.2-3.5-6.3-5.2c-0.6-0.5-1-1.9-1.4-1.8c-5.8,0.7-2.8-2.4-2.1-4.7
		c0.9-3,0.1-5.2-3.4-5.5c-2.1-0.2-2.3-1-2.4-3.2c-0.2-4.5-1.2-8.9-1.9-13.3C333.8,346.1,335.8,342.2,337.5,342.3z"/>
	<path class="st10" d="M479,387.4c-0.5-1.6-1.8-2.5-3.2-3c-3-1.1-3-3-1.9-5.5c3.1-6.6,7.3-6.8,13.3-1.8c5.9,4.9,10.1,11.5,16.3,16
		c1.5,1.1,0.9,2,0.1,3.1c-2,2.9-5.5,4.5-6.8,8c-0.3,0.8-1.7,0.8-2.6,0.4c-2.8-1.1-5.8-1.7-7.9-4.2c-1.9-2-4.5-3.2-5.7-5.8
		c-1-1.4-1.8-3-2.9-4.2C475.6,388.3,476.9,387.7,479,387.4c2.3,1.2,3.5,4,7.1,2.9c1.8-0.6,3.5-0.5,3.6-2.7c0.2-2.5-1.2-4.2-3.5-5
		c-1.5-0.5-3.1-0.1-5-1.4c1.3,2,2.8,1.6,4.1,2c1.3,0.4,2.6,0.8,3.5,1.9c0.8,1,1.1,2.2,0.5,3.4c-0.6,1.2-1.7,1.3-2.8,1.1
		C483.8,389.1,481.3,388.5,479,387.4z"/>
	<path class="st40" d="M343.2,435.8c-0.8-4.6-3.5-8.2-6.7-11.4c-0.1-0.2-0.2-0.5-0.4-0.7c-1.4-2.1-4.4-4.1-2.9-6.6
		c1.5-2.5,5-2.3,7.9-2.5c2.1-0.1,3.6,0.9,4.1,3.2c1,4.6,1.6,9.2,1.4,13.8C346.5,433.5,346.9,436.5,343.2,435.8z"/>
	<path class="st37" d="M411.5,418.5c10-0.5,19.8,1.3,29.7,2c0.8,0.1,1.8,0.1,1.5,1.3c-0.2,0.8-1,0.4-1.7,0.4
		c-13.2,0.6-26.2-2.2-39.4-2c1.5-1.8,3.5-0.6,5.3-0.9C408.4,419.1,410.2,420,411.5,418.5z"/>
	<path class="st0" d="M417.3,465.5c3,4.2,6,8.5,9,12.7c0.8,1.1,1.3,2.4,0.1,4.6c-4.1-5.5-7.9-10.6-11.7-15.7
		C414.5,464.9,415.6,464.6,417.3,465.5z"/>
	<path class="st71" d="M396.9,361.8c0-0.4,0-1.2,0-2.1c0-1.3,0.2-2.6,1.9-2.5c1.4,0.1,2.8,0.5,2.9,2.3c0.1,1,0.2,2-0.1,2.8
		c-0.8,1.9-1.3,5.1-3.6,4.8C396.1,367,397,364,396.9,361.8z"/>
	<path class="st54" d="M523.3,419.5c-1.4-0.6-2.9-0.9-4.2,0.3c-1,0.9-2.1,1.3-3.3,0.3c-0.6-0.5-0.6-1.2-0.3-1.9
		c0.6-1.3,1.7-1.8,2.9-1.9c0.8-0.1,1.6,0.4,2.4,0.4c2.6,0,0.3-1.4,0.6-2.1C525.3,415.1,523,417.8,523.3,419.5z"/>
	<path class="st72" d="M522.5,432.9c-2.4,0.4-3.2-1.4-3.6-3c-0.3-1.4,0.9-2.1,2.4-1.7c1.8,0.5,4.5-0.3,4.8,2.5
		C526.2,432.9,524,432.7,522.5,432.9z"/>
	<path class="st73" d="M445.3,380.8c-0.2,2.8-1.4,5.1-3.4,7c-0.7,0.6-1.4,1.6-2.4,0.7c-0.8-0.8-0.1-1.8,0.5-2.5
		c0.9-1.1,2-2.1,3.1-3.1c-0.8-1.2-1.3,0.5-2,0.2C441.4,380.4,444,381.7,445.3,380.8z"/>
	<path class="st0" d="M480.7,394.7c2.6,1.2,4.3,3.4,5.7,5.8c-1.9,0.6-2.4-2.3-4.3-1.6c-1.5-0.6-2.5-1.9-3.1-3.3
		C479.3,394.9,480,394.7,480.7,394.7z"/>
	<path class="st74" d="M516.6,434.5c-1.5-2-1-4-0.6-6.4C518.4,430.4,516.7,432.5,516.6,434.5z"/>
	<path class="st75" d="M515.3,438.1c-0.1,1.2-0.7,1.9-1.7,2c-0.8,0.1-1.1-0.6-1.2-1.2c-0.1-1,0.2-2,1.3-2.1
		C514.7,436.6,515.1,437.4,515.3,438.1z"/>
	<path class="st22" d="M426.1,584.3c0.5-3.5,3.3-5.7,5.9-7.3c2.6-1.7,3.7-3.7,4.3-6.5c0.4-1.8,1.2-4.4,3-4.3
		c2.4,0.2,5.1,0.8,7.1,2.8c1,1,0.4,1.9-0.5,2.8c-3,3.3-6,6.7-9.1,9.9c-2.5,2.6-4.6,5.4-5.5,8.9c-0.7,2.6-1.8,1.9-2.9,0.3
		C427.1,588.9,426.7,586.6,426.1,584.3z"/>
	<path class="st33" d="M427,594.4c0.3,1.3,0.2,2.1-0.6,2.3c-1.1,0.4-2.1,0.4-3.1-0.5c-2.4-2.2-3.3-5.2-4.2-8.2
		c-0.2-0.9,0.3-1.6,1.2-1.9c1-0.4,1.9,0,2.6,0.7C425.4,589.1,426.2,592.1,427,594.4z"/>
	<path class="st14" d="M417,534.6c-0.6-0.2-1.3-0.3-1.3-0.4c-0.2-1.5-2.8-1.6-2.1-3.6c0.1-0.3,0.8-0.7,0.9-0.7
		C415.9,531.1,417.1,532.4,417,534.6z"/>
	<path class="st76" d="M390.9,536.4c0.9-0.3,1.9-1.5,2.8-0.4c0.7,0.8-0.3,1.5-0.9,1.8C391.3,538.5,390.8,537.8,390.9,536.4
		C390.9,536.4,390.9,536.4,390.9,536.4z"/>
	<path class="st0" d="M324.3,679.1c0.3,7.1-0.1,15-5.3,22c-3.4,4.5-11.5,5.8-16,2.3c-2.4-1.9-4.7-4.1-5.5-7
		c-4.1-14.4-4.7-28.7,2.4-42.6c2.5-4.8,6.8-5.5,11.5-5.1c4.1,0.3,7.1,2.6,8.7,6.4C324.5,665.9,324.2,663.5,324.3,679.1z"/>
	<path class="st0" d="M206.2,677.1c-0.3,7.1-1.2,13.9-4.4,20.2c-2,4-5.2,6.8-10,6.9c-4.8,0.2-9-1-11.9-5.5
		c-5.1-7.9-5.1-16.9-4.9-25.6c0.2-6.3,1-12.8,4.3-18.6c2.1-3.6,5.3-6.5,9.3-6.7c4.6-0.2,9.2,0.5,12.1,5.7
		C205,661.1,205.3,669.2,206.2,677.1z"/>
	<path class="st26" d="M126.4,661.7c0-2.5,0-4.9,0-7.4c0.1-5,4-6.9,8.7-4.6c3.3,1.7,3.7,4.7,4.6,7.7c1.4,5,0.4,9.7-1.9,14.2
		c-1.1,2.2-8.3,4.1-10.4,3.1c-1.2-0.6-1.2-1.7-1.2-2.8c0-1.8-0.1-3.5-0.1-5.3c0-1.6,0-3.3,0-4.9
		C126.1,661.7,126.2,661.7,126.4,661.7z"/>
	<path class="st77" d="M251.8,576.8c0.9-0.8,1.9-1.5,3.2-0.8c1.7,1.5,3.6,2.9,3.4,5.6c0,0.2-0.6,0.6-0.9,0.6
		c-2.3-0.7-4.1-2.1-5.3-4.2C252,577.6,251.9,577.2,251.8,576.8z"/>
	<path class="st7" d="M285.8,565.3c-1.2-1-2.1-2.1-1.4-4.7C285.5,562.5,286.1,563.7,285.8,565.3z"/>
	<path class="st78" d="M343.1,632.7c1.1,0.2,2,0.9,2.3,2c0.2,0.8-0.5,1.3-1.2,1.1c-0.9-0.2-1.8-0.6-2-1.7
		C342,633.4,342.2,632.8,343.1,632.7z"/>
	<path class="st79" d="M299.8,612c1.4,1.2,1.2,3.1,1.7,4.7c0.2,0.5-0.4,1.3-0.9,1c-1.8-0.9-1.8-2.9-2.2-4.5
		C298.3,612.6,298.8,612,299.8,612z"/>
	<path class="st80" d="M428.9,476.2c0-4.9,2.8-8.7,4.9-12.8c3.9-7.9,8.9-15.2,14.2-22.3c1.7-2.2,3.2-4.8,7.2-2.6
		c3.2,1.7,7.3,1.8,11,2.6c2.1,0.4,4.3,1.1,5.2,2.8c0.9,1.7-1.6,2.4-2.6,3.6c-10.6,12.4-23.7,22.2-36,32.7c-0.6,0.5-1.2,1.2-2.1,0.9
		C429.7,480.8,428.9,478.3,428.9,476.2z"/>
	<path class="st63" d="M477.3,438.7c-4.9,1.5-8.3,0.2-11.7-1c-3.4-1.2-7-2.1-10.1-4.2c-0.7-0.5-1.3-1-1.1-2c0.2-0.8,1-1,1.6-0.8
		C462.7,433.5,470.1,434.2,477.3,438.7z"/>
	<path class="st81" d="M420.5,433.5c1.3,3.9,0.8,6.5-0.5,8.7c-1.4,2.6-3.7,4.7-3.5,8c0,0.5-0.4,1-1.1,0.9c-1.1-0.2-1.2-0.9-1.1-1.8
		C414.6,443.6,417.5,439.1,420.5,433.5z"/>
	<path class="st82" d="M459.7,393.2c1-3.8-0.7-4.9-4.3-4c-0.9,0.2-1.9,0.3-2.8,0.3c-0.5,0-1.2,0-1.3-0.7c-0.2-0.8,0.5-1.2,1.2-1.4
		c2.7-0.6,5.4-1.2,8.1-1.8c2.4-0.5,3,0.8,2.6,2.8c-0.3,1.7-0.8,3.4-1.2,5.2c-0.2,1.1,0.2,3.1-1.3,3
		C458.4,396.4,460.2,394.4,459.7,393.2z"/>
	<path class="st31" d="M480.3,432.5c-7.1,0.2-13.8-1.6-20.7-4.2C462.4,426.9,477.1,429.8,480.3,432.5z"/>
	<path class="st34" d="M425.3,402c-1,4.3-1.4,8.7-3.7,12.6c-0.5,0.8-1,1.8-2.2,1.2c-0.8-0.5-0.8-1.4-0.5-2.2
		C420.4,409.4,421.6,405,425.3,402z"/>
	<path class="st23" d="M445.4,398.1c-1.1,5-3.2,8.2-6.9,10.3c-0.9,0.5-1.8,0.8-2.6,0c-0.6-0.6-0.5-1.4,0.1-1.8
		C439,404.1,441.2,400.6,445.4,398.1z"/>
	<path class="st83" d="M402.7,433.8c0.3,2.4,0.5,4.2,0.8,5.9c0.2,1.3,0.4,2.6-1.4,2.8c-1.8,0.2-1.9-1.3-2-2.5
		C399.7,437.7,400.4,435.7,402.7,433.8z"/>
	<path class="st84" d="M462.2,403.6c0.3-4,2.5-7,3.2-11.6C467.4,396.8,466,401.1,462.2,403.6z"/>
	<path class="st85" d="M400.4,390.9c1.5,2.8,1.5,5.4,0,7.9c-0.3,0.6-0.9,1.2-1.6,0.8c-0.3-0.2-0.5-1-0.4-1.4
		C399.1,395.7,399.8,393.3,400.4,390.9z"/>
	<path class="st86" d="M438.6,444.2c0.9-3.3,1.6-5.8,4.1-7.4C442.9,440.4,442.2,441.8,438.6,444.2z"/>
	<path class="st70" d="M435.1,443.4c-0.2,1.2,0,2.6-1.4,3c-1.1,0.2-1.1-0.9-1.1-1.7c0.1-1.2,0.1-2.6,1.7-2.8
		C435.2,441.8,435,442.8,435.1,443.4z"/>
	<path class="st69" d="M386.6,426.7c1,0.1,2,0.3,2.2,1.4c0.1,0.8-0.9,1.2-1.7,1.4c-1.2,0.2-1.7-0.7-1.8-1.6
		C385.2,426.9,385.9,426.7,386.6,426.7z"/>
	<path class="st87" d="M433.5,414.7c-0.1,1-0.8,1.6-1.7,1.9c-0.8,0.3-1.4-0.2-1.3-1c0.1-1.1,1-1.6,1.9-1.9
		C432.8,413.6,433.4,413.9,433.5,414.7z"/>
	<path class="st88" d="M452.8,403.7c1.3-2.2,2.1-3.5,3.8-3.9c0.7-0.1,1,0.6,0.7,1.1C456.6,402.4,455.1,402.8,452.8,403.7z"/>
	<path class="st89" d="M484.4,438c0.8,0.2,1.9,0.3,1.8,1.2c-0.1,1.3-1.3,1-2.2,1c-0.6,0-1.5,0.2-1.5-0.7
		C482.4,438.2,483.5,438.2,484.4,438z"/>
	<path class="st90" d="M391.4,427.4c-0.8,0-1.4-0.2-1.4-1c0-1,0.7-1.4,1.6-1.4c0.7,0,1.5,0.1,1.4,1
		C393,426.9,392.2,427.2,391.4,427.4z"/>
	<path class="st7" d="M351.1,454.1c-1.6-2.4-3.2-4.8-4.8-7.3c0.2-0.5-1-1.9,0.7-1.5c1.8,0.4,5.8,7,5.5,8.8
		C352.5,454.2,351.6,454.1,351.1,454.1z"/>
	<path class="st7" d="M366.7,440.4c0.2-2.1,2.9-1.4,3.4-3.3c0.2-0.6,1.3-0.3,1.6,0.4c0.3,0.9,0.5,2.3-0.8,2.1
		C369.3,439.3,368.2,440.9,366.7,440.4z"/>
	<path class="st31" d="M488.6,409.6c0,1-0.7,1.4-1.5,1.6c-1.1,0.2-1.9-0.2-2-1.3c0-0.9-0.1-2.1,1.2-2.1
		C487.3,407.7,488.2,408.5,488.6,409.6z"/>
	<path class="st81" d="M479,387.4c2.2-0.3,4.3,0.2,6.4,1c1.1,0.4,2.9,1.3,3.4-0.8c0.4-1.7-0.8-2.8-2.5-3.1c-1.8-0.4-3.9,0.1-5.3-1.6
		c-0.9-1.1-2.1-2.5-0.8-3.6c1.2-1.1,1.7,0.6,2.2,1.5c0.5,0.8,1.2,0.9,2.1,0.9c5-0.2,7,2.4,5.8,7.2c-0.2,0.9-0.3,1.8-0.5,2.8
		C485.9,390.2,480.3,393.8,479,387.4C479,387.3,479,387.4,479,387.4z"/>
	<path class="st54" d="M491.1,392.1c2.2,0.5,4,0.6,5.5,1.3c1.2,0.5,1.8,1.7,0.9,3c-0.8,1.2-1.8,0.5-2.4-0.2
		C494,395,492.1,394.6,491.1,392.1z"/>
</g>
</svg>
