<?xml version="1.0" encoding="utf-8"?>
<!-- Generator: Adobe Illustrator 21.1.0, SVG Export Plug-In . SVG Version: 6.00 Build 0)  -->
<svg version="1.1" id="Layer_1" xmlns="http://www.w3.org/2000/svg" xmlns:xlink="http://www.w3.org/1999/xlink" x="0px" y="0px"
	 viewBox="0 0 700 965" style="enable-background:new 0 0 700 965;" xml:space="preserve">
<style type="text/css">
	.st0{fill:#FEFEFE;}
	.st1{fill:#3E3E3E;}
	.st2{fill:#4E4E4E;}
	.st3{fill:#3D3D3D;}
	.st4{fill:#3F3F3F;}
	.st5{fill:#FCFCFC;}
	.st6{fill:#FBFBFB;}
	.st7{fill:#F7F7F7;}
	.st8{fill:#F9F9F9;}
</style>
<g>
	<path class="st0" d="M2.1,446.2c0-41.2,0-82.4,0-123.5c231.3,0,462.5,0,693.8-0.2c7,0,8.5,1.4,8.4,8.4
		c-0.3,103.3-0.3,206.6,0,309.9c0,6.1-1.2,7.4-7.4,7.4c-229.2-0.2-458.4-0.2-687.6,0c-6.1,0-7.4-1.2-7.4-7.4
		c0.3-43.6,0.2-87.2,0.2-130.7c5-4.2,10.9-2.4,16.5-2.8c8.3-0.7,17,1.9,24.8-2.8c9.3-6.5,11-10.6,7.4-20.7c-2-5.4-2.6-10.2-1-15.9
		c2.8-10.4-1.6-16.4-12.3-18.2c-7.5-1.2-15.1-0.4-22.6-0.6C10.4,448.8,5.8,449.6,2.1,446.2z"/>
	<path class="st1" d="M2.1,446.2c9.9,1.7,19.8-0.3,29.6,0.1c20.1,0.8,25.8,8.7,18.5,27.1c-1.6,4,1.3,4.7,2.4,6.8
		c5.7,10.3,3.4,20-6.4,26.1c-12.3,4.6-25.1,2-37.6,2.7c-5.9,0.3-5.4-3.7-5.4-7.5c0-13.7,0.1-27.4,0-41.1c0-3.4,0.9-6.9-1-10
		C2.1,448.9,2.1,447.5,2.1,446.2z"/>
	<path class="st2" d="M2.1,450.3c4.6,10.5,1.7,21.5,1.9,32.2c0.5,25.8,0.2,25.9,26,25.4c5.4-0.1,10.8-1.1,16.2-1.6
		c-6.8,5.6-14.9,3.4-22.6,3.6c-7.1,0.2-14.3,0.1-21.5,0.1C2.1,490.1,2.1,470.2,2.1,450.3z"/>
	<path class="st3" d="M346.2,475.5c3.7-4.9,5.9-10.1,10.5-13.2c2.5-1.7,5.5-6.4,8.3-2.8c2.1,2.7,2.3,8-2,10.9
		c-3.5,2.4-6,5.6-8.1,9.1c-5.8,9.7-4.7,15.1,5.8,19.1c5.5,2.1,6.4,5.2,4.8,9c-2,4.7-6.3,2.4-9.6,0.9c-1.8-0.8-3.7-2.1-4.9-3.6
		c-3.1-4.3-5.4-5.3-10.1-1.1c-5.4,4.8-12.5,6.7-20.1,6.3c-9.5-0.6-17.8-3.7-21.3-13.2c-3.5-9.7-2.3-19.3,5.9-26.3
		c4.4-3.7,5.1-6,2.5-11.4c-4.2-8.6-0.6-17.8,7-22.3c8.5-5,22.3-3.2,28.5,3.7c5.8,6.4,5.5,15.4-0.7,23.3
		C339.6,467.5,339.6,467.5,346.2,475.5z"/>
	<path class="st1" d="M135.3,478.3c0-8.6,0.1-17.1,0-25.7c0-3.5,0.4-6,4.9-5.9c10.9,0.4,21.9-1.7,32.8,0.4
		c12.9,2.5,18.1,13,11.8,24.5c-1.6,2.9-2.5,4-0.1,7.4c9.2,12.8,3.1,28-12.5,30.1c-10.7,1.4-21.8,0.2-32.8,0.4c-4.2,0-4-2.8-4-5.5
		C135.3,495.4,135.3,486.9,135.3,478.3z"/>
	<path class="st4" d="M629.4,471c4.4,0.5,8.9,0.8,13.2,1.6c7,1.3,12,5.2,13.5,12.4c1.5,7.7-0.8,14.3-7.2,19.1
		c-11.4,8.5-32.7,7.6-43.5-1.5c-2.8-2.4-2.6-4.4-1.2-7.1c2-4,4.4-1.7,6.7-0.3c7.8,4.9,16.1,7.6,25.4,5.4c6.1-1.4,11.4-4.4,10.6-11.7
		c-0.8-7.1-7.2-6.2-12.1-6.6c-5.5-0.4-11-0.1-16.4-0.8c-7.3-0.8-13.3-4-14.8-12c-1.5-8.3,1.5-15,8.8-19.2
		c12.5-7.2,25.1-5.1,37.6-0.1c3.8,1.5,2.7,3.9,1.6,6.6c-1.3,3.3-3.1,4-6.2,2.1c-7.1-4.3-14.7-5.7-22.7-3.5c-5.2,1.4-10.5,3.7-9.9,10
		c0.7,6.5,6.8,5.5,11.4,6c1.7,0.2,3.4,0,5.1,0C629.4,471.2,629.4,471.1,629.4,471z"/>
	<path class="st4" d="M565.3,471c4.4,0.5,8.9,0.8,13.2,1.7c7.4,1.4,12.7,5.5,13.9,13.2c1.2,7.7-1.4,14.2-8,18.7
		c-11.6,7.9-31.7,6.9-42.7-1.9c-2.8-2.2-3-4.2-1.6-7c1.9-3.8,4.1-2.3,6.6-0.7c8.4,5.4,17.4,8.1,27.4,5.2c5.4-1.5,9.4-4.6,8.9-10.9
		c-0.5-6.7-6.1-6.5-10.8-6.9c-5.8-0.5-11.6-0.5-17.4-1c-7.5-0.6-13.4-3.9-15-11.7c-1.7-8.3,1.2-15,8.6-19.2
		c12.4-7.2,25-5.3,37.6-0.5c3.8,1.4,3.2,3.7,2,6.5c-1.2,2.9-2.5,4.6-6,2.5c-6.7-4.1-13.9-5.8-21.7-4c-5.5,1.2-11.5,3.1-11.1,10
		c0.4,7.5,7.2,5.6,12,6.4c1.3,0.2,2.7,0,4.1,0C565.3,471.3,565.3,471.1,565.3,471z"/>
	<path class="st4" d="M479.1,477.3c0-7.9,0.2-15.8-0.1-23.6c-0.2-5.2,1.3-7.4,6.8-7.3c11.3,0.3,22.6,0,33.9-0.1
		c3.2,0,6.3-0.3,6.4,4.4c0.1,4.7-3,4.5-6.2,4.5c-8.2,0-16.5,0.4-24.6-0.1c-7.8-0.5-6.8,4.4-6.9,9.3c-0.1,4.8-0.4,9,6.6,8.4
		c4.8-0.4,9.6-0.1,14.4-0.1c2.8,0,5.5-0.1,5.6,4c0.2,4.6-2.6,4.8-6,4.7c-3.1-0.1-6.2,0-9.2,0c-10.9,0-13.9,4.3-11.2,15.1
		c1.1,4.5,4.2,3.8,7.1,3.9c8.9,0.1,17.8,0,26.7,0c3.1,0,6.2-0.5,6.4,4.3c0.2,5.3-3,5.1-6.6,5.1c-12-0.1-24-0.4-36,0.1
		c-6.4,0.3-7.4-2.5-7.2-7.9C479.4,493.8,479.1,485.5,479.1,477.3z"/>
	<path class="st4" d="M205.3,477.9c0-7.2,0.5-14.4-0.1-21.6c-0.6-7.3,1.2-10.6,9.4-10c10.2,0.8,20.6,0.2,30.9,0.2
		c3.1,0,6.5-0.4,6.4,4.4c0,4.8-3.6,4.1-6.6,4.2c-8.2,0.1-16.5,0.3-24.7-0.1c-7.3-0.3-6.3,4.6-6.1,8.9c0.2,4-1.8,9.6,5.9,9
		c4.4-0.3,8.9-0.2,13.4,0c3.2,0.1,7.4-1.2,7.2,4.5c-0.2,5-3.9,3.8-6.7,3.9c-2.7,0.1-5.5,0-8.2,0c-11,0-14.6,5.1-11.5,15.8
		c1.1,3.9,3.9,3.3,6.4,3.3c8.9,0.1,17.8,0,26.8,0c3.5,0,7.1-0.4,6.9,5c-0.2,4.7-3.3,4.3-6.5,4.3c-12,0-24-0.3-36,0.1
		c-5.7,0.2-7-2.1-6.8-7.2C205.5,494.4,205.3,486.2,205.3,477.9z"/>
	<path class="st4" d="M92.6,493.1c-10.2-2.8-16.4,0.9-18.2,11.4c-0.8,4.9-4.2,6.6-8.1,4.9c-4.6-2-0.5-5.4,0.4-7.6
		c6.2-16.3,12.9-32.4,19.3-48.7c1.4-3.6,2.6-6.8,7.6-6.7c4.6,0.1,5.6,3.1,7,6.3c7.1,16.7,14.1,33.4,21,50.1c0.8,2,4.4,5.1-0.1,6.6
		c-3.1,1.1-7.1,1.1-8.1-3.6C110.8,494.4,104,489.9,92.6,493.1z"/>
	<path class="st1" d="M435.6,481.9c0-3.1,0-6.2,0-9.2c0-16.3,0-16.3-16-17.4c-3.2-0.2-6.2,0.1-6.1-4.6c0.1-4.9,3.4-4.2,6.4-4.2
		c13.7,0,27.4,0,41.1,0c3,0,6.4-0.5,6.5,4.3c0.1,4.8-3.1,4.3-6.2,4.5c-16.3,1.1-16.3,1.1-16.3,17.2c0,10.6,0,21.2,0,31.8
		c0,2.8,0.3,5.5-3.9,5.6c-3.9,0.1-5.6-1.5-5.5-5.4C435.6,497,435.6,489.4,435.6,481.9z"/>
	<path class="st5" d="M26.9,480.7c4.1,0,8.2-0.3,12.2,0.1c5.3,0.5,7.6,4.3,7.6,9.2c0,4.8-2,9.2-7.3,9.4c-8.1,0.4-16.5,1-24.4-0.3
		c-6.9-1.1-2.5-7.9-3.4-12c-0.6-2.8-0.8-6.5,4.1-6.3c3.7,0.1,7.5,0,11.2,0C26.9,480.8,26.9,480.7,26.9,480.7z"/>
	<path class="st6" d="M26.8,456.1c3.7,0,7.5-0.2,11.2,0c4.4,0.3,6.9,3,6.9,7.3c-0.1,4.1-2.2,7.3-6.7,7.4c-7.5,0.2-14.9,0.2-22.4,0
		c-6.3-0.2-3.8-5.2-4.2-8.4c-0.4-3.6-0.1-6.9,5.1-6.6c3.4,0.2,6.8,0,10.2,0C26.8,455.9,26.8,456,26.8,456.1z"/>
	<path class="st5" d="M323,471.8c8-0.1,16.6,7.4,17,14.8c0.4,7.6-7.4,14.3-16.7,14.5c-8.9,0.2-15-5.6-15-14.4
		C308.2,478,314.1,471.9,323,471.8z"/>
	<path class="st7" d="M326.6,442c6.8,0,10.1,4.3,10.2,10.3c0.2,6.6-4.3,10-10.6,9.8c-6.5-0.2-11.3-3.7-10.8-10.9
		C315.9,444.8,320.2,441.8,326.6,442z"/>
	<path class="st5" d="M158,499.8c-4.2-2.6-13.8,5.1-13.9-8c0-8.9,2-12.5,11.2-11.2c4.7,0.6,9.5-0.2,14.3-0.1
		c6.6,0.1,10.3,3.6,10.2,10.2c-0.1,6.2-3.8,9.2-9.9,9.2C166.1,499.9,162.4,499.8,158,499.8z"/>
	<path class="st6" d="M159.1,471c-15.2-0.1-16-0.7-14.8-10.3c0.4-3.4,1.6-4.9,5-4.8c7.1,0.1,14.3,0,21.4,0.3c4.3,0.2,7,2.6,7,7.1
		c0,4.9-2.5,7.6-7.4,7.8C166.6,471.1,162.9,471,159.1,471z"/>
	<path class="st8" d="M92.9,458.2c4,9.6,7.2,17.1,10.4,24.7c-21.7,2.9-21.7,2.9-14.1-16.1C89.9,464.8,90.9,462.7,92.9,458.2z"/>
</g>
</svg>
