<?xml version="1.0" encoding="utf-8"?>
<!-- Generator: Adobe Illustrator 21.1.0, SVG Export Plug-In . SVG Version: 6.00 Build 0)  -->
<svg version="1.1" id="Layer_1" xmlns="http://www.w3.org/2000/svg" xmlns:xlink="http://www.w3.org/1999/xlink" x="0px" y="0px"
	 viewBox="0 0 700 965" style="enable-background:new 0 0 700 965;" xml:space="preserve">
<style type="text/css">
	.st0{fill:#FEFEFE;}
	.st1{fill:#010000;}
	.st2{fill:#050404;}
	.st3{fill:#070606;}
	.st4{fill:#060505;}
	.st5{fill:#040303;}
	.st6{fill:#0B0A0A;}
	.st7{fill:#080707;}
	.st8{fill:#232222;}
	.st9{fill:#2A2929;}
	.st10{fill:#272626;}
	.st11{fill:#2C2B2B;}
	.st12{fill:#FDFDFD;}
	.st13{fill:#F9F9F9;}
	.st14{fill:#FBFBFB;}
	.st15{fill:#FAFAFA;}
</style>
<g>
	<path class="st0" d="M352.9,181.4c114,0,228,0.1,342-0.2c7.4,0,8.9,1.5,8.9,8.9c-0.3,195.6-0.3,391.1,0,586.7
		c0,7.4-1.5,8.9-8.9,8.9c-228-0.3-456-0.3-684.1,0c-7.4,0-8.9-1.5-8.9-8.9C2.2,581.1,2.2,385.6,2,190c0-7.4,1.5-8.9,8.9-8.9
		C124.8,181.4,238.8,181.4,352.9,181.4z"/>
	<path class="st1" d="M362.7,576.6c-37.6,0-67.5,0.3-97.5-0.2c-7.6-0.1-10.7,1-10.4,9.7c0.7,18.9,0.1,19-18.8,19.1
		c-24.5,0.1-49.1-0.2-73.6,0.1c-6.2,0.1-8-1.8-8-7.9c0.3-28.5,0.3-57,0-85.5c-0.1-6.3,2.1-7.8,8.1-7.8c20.9-0.2,20.9-0.5,20.9-21.6
		c0-56.6-0.2-113.3,0.2-169.9c0.1-8.6-1.6-12-11-11.5c-17.8,0.9-17.8,0.4-17.8-17.9c-0.1-24.2,0.1-48.3-0.4-72.5
		c-0.1-7.2,1.3-10,9.3-9.9c27.4,0.5,54.8,0.4,82.2,0.1c6.8-0.1,9.3,1.4,9.2,8.8c-0.2,20.2,0.2,20.1,20,20.2c57,0.1,114,0,170.9,0.4
		c9.3,0.1,14.3-2,12.4-12.3c-0.5-2.4,0.3-5.1-0.1-7.6c-1.1-7.6,1.8-9.6,9.4-9.5c27.4,0.5,54.8,0.3,82.2-0.1c6.3-0.1,8.7,1.1,8.6,8.1
		c-0.4,28.1-0.5,56.3,0,84.4c0.1,7.7-2.8,8.7-9.4,8.5c-19.3-0.6-19.4-0.3-19.4,18.7c0,58.4,0.2,116.9-0.1,175.3c0,7.1,1.8,9,8.9,8.9
		c19.8-0.3,19.8,0.1,19.8,20.4c0,23.4-0.4,46.9,0.3,70.3c0.2,8.4-2.4,10.1-10.3,9.9c-27-0.5-54.1-0.4-81.1-0.1
		c-6.7,0.1-9.4-1.2-9.3-8.7c0.2-20.4-0.2-20.4-21-20.3C409.8,576.4,382.4,575.2,362.7,576.6z"/>
	<path class="st2" d="M316.6,697.5c0-10.1,0.2-20.2-0.1-30.3c-0.2-5.2,0.7-8,6.9-7.7c10.4,0.5,20.9,0.2,31.4,0.4
		c8.2,0.2,14.7,3.3,18.1,11.2c3.3,7.7,1,14.2-4.7,19.5c-4.1,3.8-3.2,5.7,1.1,8.5c8.2,5.3,8.9,13.7,6.7,22.1
		c-2.3,8.6-9.3,13.1-17.6,13.7c-12.2,1-24.5,0.6-36.8,1c-4.9,0.2-5.1-2.6-5-6.2C316.7,719.2,316.6,708.3,316.6,697.5z"/>
	<path class="st3" d="M461.1,738.2c11.7,7.7,20.2,19.8,33.9,10.8c6.8-4.5,7.5-11.8,7.1-19.2c-0.8-0.1-1.6-0.5-2-0.3
		c-15.2,8.4-25.8,7.9-34-1.9c-8.2-9.6-8.5-29.1-0.7-39.5c7.4-9.9,20.7-12.1,31.6-5.2c2.2,1.4,4.9,5.8,6.2-1c0.4-1.9,2.8-2.2,4.6-1.5
		c2.5,1,2.3,3.4,2.3,5.5c-0.2,17.3,0.2,34.6-0.9,51.8c-0.9,13.8-7.7,19.4-21.7,20.7C474.2,759.7,465.8,754,461.1,738.2z"/>
	<path class="st2" d="M272.9,710c1.1,7.2-3.2,15.8,5.3,21.5c0.9,0.6,1.3,3-0.3,3.7c-3.4,1.6-9.1,1.4-9.9-0.9
		c-2.8-8.3-5.4-2.5-8.2-0.6c-7.9,5.2-16.2,5.5-24.6,1.6c-6.4-3-8.3-8.5-8.2-15.1c0.1-6.6,3.2-11.2,9.3-13c6.9-2,14-3,21-4.4
		c3.2-0.6,6.7-1.2,7.7-4.9c1-3.7-0.5-7.1-3.2-9.7c-5.6-5.4-20.2-3.2-23.5,3.9c-1.7,3.6-3.1,7.7-7.3,5.3c-4.5-2.5-0.4-6.6,1-9.4
		c3.8-7.8,16.7-11.7,27.9-8.8c9.1,2.3,12.7,8.6,12.8,17.6C272.9,701.2,272.9,705.5,272.9,710z"/>
	<path class="st4" d="M458.3,736c-7.1-1.4-12.2,2.4-15.1-4.9c-1.4-3.6-3.8,0.5-5.4,1.7c-6.9,4.8-14.4,6.4-22.5,3.9
		c-7.4-2.3-11.2-7.6-11.2-15.3c0-7.3,3.3-12.6,10.5-14.4c6.6-1.7,13.3-2.8,20.1-3.9c3.8-0.6,6.9-1.6,7.3-6.3
		c0.3-4.8-0.9-9.2-5.7-10.3c-8.1-1.9-16.6-3.2-21.6,6.5c-1.1,2.1-1.3,6.7-5.6,4.1c-4-2.4-1.8-5.6-0.3-8.4c4.1-8,14.1-11.4,26.7-9.3
		c8.6,1.5,13.4,6.6,14,15.3c0.4,6.1,0.4,12.2,0.5,18.3C449.9,720.7,448.6,728.8,458.3,736z"/>
	<path class="st2" d="M125.8,710.5c1.7,6.5-3.9,15.5,5.6,20.8c0.5,0.3,0.5,3.4-0.1,3.8c-3,1.9-7.8,1.3-8.8-0.5
		c-3.8-7.2-6.7-2.7-10.4-0.4c-6.8,4.2-14.1,4.9-21.7,2c-7-2.7-10-8-10.2-15c-0.2-6.9,3.4-11.9,9.9-13.8c6.5-1.9,13.3-3.1,20-4.1
		c4.2-0.7,8-1.6,8.5-6.5c0.5-4.8-2-8.3-6.2-10.4c-7.4-3.5-17.8-0.2-21.6,7.4c-1.6,3.3-3.5,4.7-6.6,3.3c-3.8-1.8-0.6-4.4,0.2-6.3
		c3.9-9.6,14.4-13.9,27.4-11.5c9.7,1.8,13.9,8.1,14,17.6C125.8,701.2,125.8,705.6,125.8,710.5z"/>
	<path class="st2" d="M539,708.5c-0.1-18.1,10.5-30.1,26.5-29.9c16.3,0.1,26.5,11.6,26.7,30c0.1,17-10.8,29.3-26.1,29.4
		C549.7,738.1,539.1,726.7,539,708.5z"/>
	<path class="st5" d="M184,708.7c0,7.6-0.1,15.1,0,22.7c0.1,3.7-3.8,6.4-4.7,4.1c-4-10.3-7.4-1.7-10.4-0.1
		c-13.8,7.3-28.6-0.1-29.8-15.8c-0.9-11.1-0.5-22.3-0.5-33.4c0-2.5-1.1-6.2,3.8-5.9c4.2,0.3,3.9,3.3,4,6.2
		c0.1,10.8-1.3,21.5,0.3,32.3c1.1,7.4,3.7,11.7,11.7,12.4c8.7,0.8,13.8-3.4,16.5-10.8c3.1-8.6,2.3-17.7,2.3-26.7
		c0-2.9-0.1-5.8-0.1-8.6c0-2.7,0.3-5.2,4-4.8c3.1,0.3,2.9,2.7,2.9,4.7C184,692.9,184,700.8,184,708.7z"/>
	<path class="st6" d="M650.8,736.3c-10.7,1.3-14.4-3.9-14-13.7c0.3-8.6,0-17.3-0.2-25.9c-0.1-4.7,1.9-10.1-6.6-10.5
		c-3.9-0.2-2.6-5.6,0-5.6c8.3,0,6.6-5.5,6.8-10.2c0.1-3.3,0.2-7,4.6-7.1c4.7-0.1,3.2,4.1,3.2,6.5c0,6.1-0.3,11.7,8.6,10.6
		c2-0.3,2.9,1.7,2.7,3.8c-0.2,2.5-2.1,2.7-3.9,2.5c-7-1-7.3,3.2-7.2,8.4c0.2,7.5-0.2,15.1,0.1,22.6c0.2,5.9-2.3,13.9,8.6,13
		c2.2-0.2,2.5,2.2,2.1,4.1C655,738.2,652.5,736.6,650.8,736.3z"/>
	<path class="st2" d="M27.4,696.8c0-10.5,0-20.9,0-31.4c0-3-0.3-6,4.2-5.8c4,0.2,3,3.4,3,5.6c0.1,18,0.5,36.1,0,54.1
		c-0.2,7.7,1.1,11,9.7,10.2c9.3-0.9,18.7-0.2,28.1-0.2c2.4,0,5.4-0.7,5.6,3.2c0.1,4.1-3.1,3.2-5.4,3.2c-13,0-26-0.3-39,0
		c-5.2,0.1-5.9-2.3-5.8-6.5c0.1-10.8,0-21.6,0-32.4C27.6,696.8,27.5,696.8,27.4,696.8z"/>
	<path class="st3" d="M618.8,736.7c-9.1,0.2-13.4-2.8-13.1-11.4c0.4-9.7,0.1-19.4-0.1-29.1c-0.1-4.4,1.5-10.1-6.4-9.2
		c-2.1,0.2-3.2-1.1-3.4-3.2c-0.2-2.2,0.9-3.6,3-3.5c8.4,0.6,6.4-5.5,6.8-10.2c0.3-2.9-1.2-7.2,4.2-6.8c4.6,0.3,3,4.2,3,6.6
		c0,5.5-0.8,11.1,7.6,10.7c2.1-0.1,4.4,1.5,4.2,4c-0.1,2.3-2.5,2.3-4.1,2.1c-7.5-1.2-8,3.3-7.8,9c0.3,7.5,0.1,15.1,0.2,22.7
		c0.1,6-1.2,12.9,8.5,12.4c2.3-0.1,2.8,1.9,2.3,3.9C622.8,738.4,619.7,736.5,618.8,736.7z"/>
	<path class="st7" d="M204.4,688.5c4.9-4.7,9.6-7.8,15.4-9c1.7-0.4,3.7-0.5,4.4,1.8c0.5,1.8,0.5,4.1-1.5,4.6
		c-24.2,5.9-18.2,25.4-19.1,41.8c-0.1,1.1,0,2.2,0,3.2c0,2.6,0.1,5.2-3.7,4.9c-3.7-0.2-3.4-2.9-3.4-5.4c0-14-0.1-28,0.2-42
		c0.1-2.8-2.1-7.3,2.5-8.1C205.3,679.5,202,685.7,204.4,688.5z"/>
	<path class="st8" d="M529.7,708.3c0,7.6,0,15.1,0,22.7c0,2.7-0.3,5.2-3.8,5.2c-4.5,0.1-4-3.2-4-6c-0.1-14.8,0-29.5-0.1-44.3
		c0-3.2,0.3-6,4.4-5.7c3.5,0.2,3.5,2.9,3.5,5.5C529.7,693.2,529.7,700.7,529.7,708.3z"/>
	<path class="st9" d="M664.8,707.8c0-7.5,0-15.1,0-22.6c0-2.7,0.3-5.2,3.8-5.2c3.4,0,4,2.3,4,5.1c-0.1,15.1-0.2,30.1-0.3,45.2
		c0,3.1-0.7,5.8-4.6,5.7c-4.3-0.1-2.8-3.5-2.8-5.6C664.7,722.9,664.8,715.3,664.8,707.8z"/>
	<path class="st1" d="M394.2,708.5c0,7.5,0,15,0,22.5c0,2.8-0.3,5-3.9,4.7c-3.1-0.2-3-2.4-3-4.5c0-15,0-30,0-45.1
		c0-2.5-0.2-5.3,3.4-5.5c4.3-0.2,3.1,3.1,3.1,5.3c0.2,7.5,0.1,15,0.1,22.5C394,708.5,394.1,708.5,394.2,708.5z"/>
	<path class="st10" d="M522,664.7c1-2.1-1.4-6.8,3-6.5c4.4,0.2,4.5,4.9,5.1,8.4c0.6,3.6-1.6,4.2-4.4,4.3
		C520.8,671,521.9,667.7,522,664.7z"/>
	<path class="st11" d="M664.9,664.4c1-2.1-0.8-6.7,3.5-6c4.1,0.7,4.2,5.2,4.6,8.7c0.5,3.9-2.4,3.6-4.9,3.6
		C663.4,670.6,665,667.1,664.9,664.4z"/>
	<path class="st5" d="M394.2,665.1c-0.3,2.3,0.6,5.3-3.4,5.4c-4.9,0.1-3.3-3.6-3.6-6.1c-0.4-2.9,0.2-4.9,3.9-4.7
		C395.2,659.9,393.9,662.9,394.2,665.1z"/>
	<path class="st0" d="M356.7,243.7c35,0,70-0.3,105,0.2c8.9,0.1,10.7-2.7,10.4-10.8c-0.5-18.1-0.1-18.1,17.6-18.1
		c15.5,0,31,0.2,46.5-0.1c5.6-0.1,8.7,0.9,8.6,7.5c-0.3,19.5-0.2,39,0.2,58.4c0.1,6.4-2.8,6.7-7.8,6.8c-21.1,0.5-21.1,0.6-21.1,21.6
		c0,66,0.2,132-0.2,198c0,8.6,1.6,12,11,11.6c17.4-0.6,17.5-0.1,17.7,17.3c0.2,15.5-0.1,31,0.3,46.5c0.1,6.1-1.1,9.1-8.3,8.9
		c-19.1-0.5-38.2-0.5-57.3,0c-6.5,0.2-7.5-2.4-7.6-8.1c-0.3-20.8-0.5-20.8-21.6-20.8c-66.4,0-132.7,0.2-199.1-0.2
		c-8.1,0-10.4,2-10.2,10.2c0.5,18.7,0,18.7-19.2,18.7c-15.5,0-31-0.2-46.5,0.1c-5,0.1-6.9-1.2-6.9-6.6c0.3-19.8,0.3-39.7,0-59.5
		c-0.1-5.1,1.3-6.6,6.5-6.8c22.7-0.9,22.8-1.1,22.7-24.3c-0.1-65.3-0.3-130.6-0.1-195.9c0-7.8-1-11.4-10.3-11
		c-18.7,0.8-18.7,0.2-18.7-19c0-15.1,0.1-30.3-0.2-45.4c-0.1-5.8,1.1-8.2,7.6-8.1c19.1,0.4,38.2,0.3,57.3,0c5.8-0.1,8.1,1.1,8.1,7.6
		c0,21.2,0.3,21.2,21.3,21.2C294,243.7,325.4,243.7,356.7,243.7z"/>
	<path class="st12" d="M341.7,729.8c-17.1-0.1-16.4-0.2-17.3-17.9c-0.5-10.6,2.1-14.8,13.2-13.3c7,1,14.3,0.2,21.3,2.1
		c7.5,2,10.7,7.3,10.4,14.3c-0.3,7.1-4.1,12.4-11.5,13.6C352.5,729.4,347.1,729.4,341.7,729.8z"/>
	<path class="st12" d="M344.3,665.8c1.8,0.1,6.9,0.1,11.8,0.9c6.5,1,9.9,5.2,10.2,11.8c0.4,7.1-2.8,12.3-9.8,13.1
		c-9.2,1.1-18.5,0.7-27.8,1c-3.5,0.1-4.2-1.8-4-4.7c0.1-2.1,0-4.3,0-6.4C324.7,665.5,324.7,665.5,344.3,665.8z"/>
	<path class="st12" d="M467.2,706.5c0.2-12.8,7.6-21.5,17.9-21.2c10.7,0.3,17.3,9.4,17,23.2c-0.3,12.1-7.5,20.7-17.4,20.6
		C474,729.1,467,720.2,467.2,706.5z"/>
	<path class="st13" d="M248.2,731.6c-7-0.6-12.5-3.4-13.6-9.6c-1.3-6.7,4.5-8.9,10-10.3c3.1-0.8,6.3-2.1,9.4-2
		c4,0.1,9.3-4.5,11.6,0.1c2.2,4.4-0.7,9.8-3.4,14.1C258.7,729.2,253.4,730.9,248.2,731.6z"/>
	<path class="st14" d="M426.9,731.5c-9.1-0.1-14.2-2.7-15.4-9.2c-1.2-6.7,3.6-9.4,9.4-10.8c3.1-0.7,6.3-2,9.4-1.9
		c3.9,0.2,9.3-4.8,11.3,0.3c1.9,5,0.7,11.4-3.9,15.9C433.9,729.4,429.5,731.6,426.9,731.5z"/>
	<path class="st15" d="M99,731.4c-6.4,0-9.8-3.9-11.4-9.5c-1.8-6.5,3.9-8.2,7.7-9.6c6.3-2.3,13.2-3,19.9-4.4c4.1-0.8,3.6,2,3.7,4.5
		C119.2,723.7,110.2,732.3,99,731.4z"/>
	<path class="st12" d="M584.3,708.6c-0.1,13.3-8.2,22.6-19.5,22.5c-10.6-0.1-18-9.4-18.1-22.5c-0.1-13.5,7.7-23,18.8-23
		C576.9,685.6,584.5,694.9,584.3,708.6z"/>
	<path class="st1" d="M253.6,404.9c0-34.6,0.2-69.2-0.2-103.8c-0.1-7.1,1.9-9.1,9-9.1c27.3,0,27.3-0.3,27.3,27.4
		c0,49.4,0.2,98.8-0.3,148.2c-0.1,10.5,3.1,13.3,13.5,13.2c35.7-0.6,71.4,0.2,107.1-0.5c21-0.4,33.6-21.6,24.5-40
		c-5.1-10.3-14-15.8-25.1-16.1c-22.7-0.5-45.4-0.1-68.1-0.3c-5.3-0.1-5.7,2.6-5.6,6.7c0.1,10.5-0.4,20.9,0.1,31.4
		c0.3,6.3-1.9,7.6-7.8,7.7c-27.6,0.5-27.6,0.7-27.6-26.6c0-47.2,0-94.5-0.3-141.7c0-6.3,0.5-9.6,8.5-9.5c31.7,0.6,63.4,0.3,95.2,0.3
		c26.7-0.1,46.7,11.4,58,35.6c10.9,23.2,6.6,45.1-9.3,64.5c-4.6,5.6-3.2,7.6,1.6,11.4c23,18.5,30.6,44.9,21.2,71.4
		c-8.8,24.8-31.9,41.3-59.9,41.6c-51.2,0.4-102.4,0.2-153.6,0.6c-6.8,0.1-8.3-2-8.3-8.5C253.8,474.1,253.6,439.5,253.6,404.9z"/>
	<path class="st0" d="M373.5,328.6c9.3,0,18.7-0.1,28,0c14.9,0.3,26.4,11,27,25.1c0.7,14.2-8.6,26.3-23.3,27.2
		c-21.1,1.3-42.4,0.7-63.5,1.1c-4.4,0.1-5.5-2.3-5.5-6c-0.2-14-0.2-28-0.7-42c-0.2-5.5,2.8-5.5,6.8-5.4
		C352.7,328.6,363.1,328.6,373.5,328.6z"/>
</g>
</svg>
