<?xml version="1.0" encoding="utf-8"?>
<!-- Generator: Adobe Illustrator 21.1.0, SVG Export Plug-In . SVG Version: 6.00 Build 0)  -->
<svg version="1.1" id="Layer_1" xmlns="http://www.w3.org/2000/svg" xmlns:xlink="http://www.w3.org/1999/xlink" x="0px" y="0px"
	 viewBox="0 0 900 596" style="enable-background:new 0 0 900 596;" xml:space="preserve">
<style type="text/css">
	.st0{fill:#FEFEFE;}
	.st1{fill:#E21869;}
	.st2{fill:#FBF6FB;}
	.st3{fill:#FCFDFE;}
	.st4{fill:#F9F2FA;}
</style>
<g>
	<path class="st0" d="M896,399.4c0,18.3,0,36.5,0.1,54.8c0,1.9-0.4,2.3-2.3,2.3c-148.8-0.1-297.5,0-446.3,0
		c-142.1,0-284.1,0-426.2,0c0.2-1.4,1.5-1.1,2.4-1.3c9.3-2.1,18-5.7,26-10.8c11-7,18.7-16.8,24.9-28.1C83,400.8,87.8,384,91.9,367
		c3.4-13.7,6-27.5,7.9-41.5c1.4-10.4,2.6-20.9,3.4-31.3c0.9-11.1,1.8-22.1,2.1-33.2c0.1-3.6,0.6-7.3,0.1-10.9
		c-0.2-1.4,0.6-2.3,1.7-2.9c9.1-5.6,18.7-9.8,29.7-10.4c9.1-0.5,17.5,1.8,25.4,6c8.7,4.6,16.3,10.4,21.2,19.2
		c2.7,4.8,4.3,9.9,4.7,15.4c1.1,15.7-4.9,28.6-14.8,40.1c-4.2,4.9-9.2,8.7-14.3,12.6c-2,1.5-3.5,3.5-4.6,5.7
		c-1.2,2.3-0.8,4.4,0.9,6.4c1.2,1.4,2.7,2.5,4.4,3.5c7.7,4.6,15.1,9.5,21.9,15.4c7.6,6.6,13.7,14.1,16.2,24.1
		c1.6,6.4,1.4,12.8-0.4,19.1c-4.3,14.9-12.1,27.6-25.4,36c-13.8,8.7-28.4,9.8-43.2,2.5c-10.6-5.2-20.4-11.6-28.6-20.2
		c-2.7-2.8-4.8-6-5.3-9.9c-0.2-1.8-1.4-2.9-3.1-3.4c-2.3-0.7-4.6-0.4-6.5,1.2c-2.7,2.3-3.1,6.3-1.2,9.8c2.5,4.6,6.2,8.1,10.3,11.2
		c8,6.1,16.4,11.7,25.8,15.3c20.6,7.9,40.9,7.3,60.2-4.2c9.2-5.4,15.3-13.7,20.6-22.8c5.5-9.5,9-19.7,9.4-30.6
		c0.4-12.3-3.5-23.2-12-32.3c-7.6-8.3-16.9-14-27.5-17.9c-0.2-0.1-0.5-0.2-0.7-0.3c-0.8-0.3-1.7-0.6-1.8-1.6
		c-0.1-0.9,0.8-1.2,1.4-1.6c5.2-3.9,10.4-8,14.9-12.7c8.6-9,14.9-19.3,16.2-31.9c1.8-17.7-3.7-32.5-18.3-43.3
		c-11.5-8.5-24.4-13.2-38.5-14.7c-12.7-1.4-24.4,1.3-35.8,6.5c-0.7,0.3-1.4,0.7-2.1,1c-1.1,0.4-1.8,0.1-2.2-1
		c-0.2-0.7-0.4-1.5-0.6-2.2c-2.1-7.5-5.7-13.9-12-18.8c-1.2-0.9-2.6-1.6-3.9-2.3c-0.7-0.4-1.7-0.4-1.7-1.6
		c269.2,0,538.4,0,807.6-0.1c2.3,0,2.5,0.6,2.5,2.7c-0.1,59.9,0,119.9,0,179.8c-0.6,0.5-1.3,0.3-1.9,0.3c-3.7-0.1-6.6,1.4-8.6,4.5
		c-3.5,5.3-7.7,9.7-13.9,11.8c-3,1-6,1.3-9,0.6c-3.4-0.7-5.1-3-4.7-6.5c0.8-6.7,1.9-13.3,3.9-19.7c4.5-14.7,8.4-29.6,12.4-44.4
		c1.3-4.7,1.5-9.6,1.3-14.4c-0.3-5.2-5.6-9.4-11.2-8.7c-6.8,0.8-12.6,3.7-17.6,8.4c-7,6.6-12.5,14.3-17.4,22.4
		c-0.7,1.2-1.5,2.5-2.4,3.6c-0.4,0.5-0.9,1-1.5,0.7c-0.6-0.3-0.4-1-0.3-1.6c0.4-1.9,1-3.8,2-5.5c10.4-16.7,20.4-33.7,30-50.9
		c7.1-12.7,14.2-25.4,19.9-38.7c2.7-6.3,5.3-12.7,5.2-19.8c0-6.4-3.5-9.3-9.9-8.3c-13,2-22.8,9-30.5,19.4
		c-7.5,10.2-11.7,22-15.8,33.8c-7.6,21.8-11.6,44.3-14.8,67c-0.9,6.7-1.2,13.5-1.5,20.3c0,1.1-0.1,2.2-0.4,3.3
		c-2.7,10.3-6.2,20.3-13,28.8c-2.5,3.2-5.5,5.8-9.5,7c-2.2,0.7-4.3,0.7-6.5,0.1c-1.6-0.4-1.9-1.3-0.8-2.5c1.2-1.4,2.5-2.8,3.6-4.3
		c3.6-4.9,6.1-10.3,6.6-16.3c0.5-5.4-1.4-10.4-4.1-15c-4.5-7.5-10.7-12.8-18.9-16c-8.5-3.4-17.3-5.6-25.9-8.6
		c-5.1-1.8-5.4-2.3-4.8-7.5c0.4-3.5,0.1-6.9-1.1-10.3c-2-5.7-6.8-8.4-12.7-7.1c-5.9,1.3-10.8,4.1-13.6,9.7c-1.8,3.5-1.1,7,1.6,9.8
		c2.8,2.9,6.4,4.4,10,5.9c3.8,1.6,3.8,1.5,3,5.6c-2.6,13.6-6.3,26.9-12.3,39.5c-2.5,5.3-5.6,10.3-9.9,14.4c-2.4,2.3-5.1,3.9-8.3,4.7
		c-4.9,1.3-9.1-1-10.6-5.8c-0.8-2.8-1.1-5.6-1.2-8.5c-0.3-13.9,1.8-27.6,4.4-41.2c0.9-4.7,3.1-9,4.2-13.6c0.4-1.6,0.8-3.1,0.9-4.7
		c0.3-2.9-0.8-4.1-3.7-4.2c-0.8,0-1.5,0-2.3,0c-2.8,0.2-4.1,1.4-4.6,4.2c-2.5,15.1-5.4,30.1-10.6,44.5c-2.3,6.4-5.1,12.6-8.4,18.5
		c-2.8,5.2-6.9,9-12.5,11c-5.2,1.9-9.2,0-10.7-5.3c-1.4-5-1.7-10.1-1.2-15.4c0.8-8.7,1.6-17.4,3.7-25.9c1.9-7.4,2.9-15,5.4-22.3
		c0.6-1.6,0.8-3.3,1-5c0.4-3.4-1.1-4.9-4.5-4.9c-1.2,0-2.4,0.3-3.5,0.5c-2.2,0.3-3.2,1.6-3.5,3.7c-1.2,8.3-2.9,16.6-4.7,24.8
		c-4.1,18-12.4,33.9-24.7,47.6c-0.6,0.7-1.3,1.3-2.1,1.9c-4.6,3.6-9.1,2.7-11.8-2.5c-2.2-4.2-3.4-8.7-3.5-13.4
		c-0.3-9.4,0.9-18.8,1.4-28.2c0.6-11.5,2.1-23,3.7-34.4c2.3-16,4.8-31.9,7.8-47.7c1.8-9.5,5-18.5,8.6-27.4c2.1-5.2,5-9.8,9.4-13.4
		c0.4-0.3,0.8-0.6,1.1-1c0.5-0.5,1.1-1,0.8-1.7c-0.4-1-1.3-0.6-2-0.4c-7.7,1.5-13.5,5.8-18,12c-5,6.9-7.3,14.9-9.2,23
		c-3.4,14.1-5.9,28.4-8.1,42.8c-2.6,16.4-4.7,32.9-6.8,49.4c-0.8,6.3-4.5,10.9-8.3,15.4c-4.6,5.4-10.7,7.2-17.4,7.7
		c-0.4,0-0.8,0-1.3,0c-4.3-0.2-5.4-1.4-5-5.7c0.6-5.9,1.5-11.8,2.3-17.7c0.5-4.2,0.2-8.3-1-12.3c-2.3-7.9-9-8.7-14.3-6.8
		c-6.9,2.4-10,8.1-10.5,14.9c-0.7,9.7,3,18.2,9.5,25.3c5.5,5.9,5.8,6.7,1.8,13.6c-2.4,4.3-5.6,7.7-10.9,8.3
		c-3.4,0.4-6.4-0.7-9.2-2.5c-7.8-4.9-12.3-12.3-15-20.8c-2.3-7.2-2.8-14.6-2.6-22.1c0-1.2,0.2-2.5,1.6-2.9c2.9-0.8,4.3-3.2,5.7-5.5
		c5.7-9.4,11.4-18.7,17-28.1c11.5-19.6,22.8-39.4,32.8-59.8c4.1-8.4,7.6-17,8.9-26.4c0.3-2.2,0.2-4.2-0.5-6.3
		c-1.1-3.1-3.4-4.7-6.7-5c-5.7-0.4-10.9,1.3-16,3.5c-7.6,3.3-13.3,9.1-18.6,15.1c-8,8.9-12.4,19.8-16.4,30.8
		c-6.8,18.7-12.4,37.7-16.6,57.2c-2,9.2-3.9,18.5-3.5,28c0.2,5-0.6,9.7-2.5,14.4c-4.2,10.1-8.9,19.8-17.1,27.4
		c-3,2.8-6.2,5-10.2,5.9c-6.7,1.5-12-1.3-16.7-5.5c-5.4-4.7-8.2-10.9-9.8-17.8c-0.5-2.4-1.2-4.8-1.1-7.3c0.1-1.3,0.4-2.3,1.7-2.8
		c5.6-2.1,10.2-5.8,14.6-9.7c7.1-6.2,12.9-13.5,16.5-22.4c1.8-4.5,3.4-9.1,2.5-14.1c-1.4-7.5-8.9-12.4-16.4-10.8
		c-7.9,1.7-13.4,6.7-17.9,13c-6.5,9.3-11,19.7-12.6,30.9c-1.8,12.4-7.3,23.2-13,34c-2.7,5.2-7.1,8.8-13.1,10.1
		c-4.4,0.9-8.6-1.2-10.6-5.2c-1.9-4-2.1-8.2-1.1-12.4c2.6-11.1,5.7-22,8.1-33.1c1.5-6.6,3.1-13.2,4-20c0.7-5.3-0.7-6.7-6-6
		c-3.7,0.5-4.4,1.1-5.1,4.8c-2,10.4-4.6,20.7-7.6,30.9c-1.5,5.3-4.3,10.3-6.8,15.3c-3.7,7.5-8.1,14.7-13.4,21.3
		c-1.8,2.3-3.8,4.4-6.2,6c-4.3,2.9-7.8,2.2-10.6-2.2c-2.2-3.4-3-7.2-3.7-11c-1.2-7.2-0.6-14.4,0.1-21.6c0.6-6.7,1-13.4,1.7-20
		c0.8-6.8,1.5-13.7,2.4-20.5c2.3-16.8,5-33.6,8.1-50.3c2.4-13,6.6-25.5,13.1-37c1.4-2.5,2.9-4.8,5.3-6.4c0.5-0.3,0.9-0.8,1.3-1.2
		c0.3-0.4,0.7-0.9,0.4-1.4c-0.3-0.5-0.9-0.5-1.4-0.4c-2.4,0.4-4.6,1.1-6.7,2.3c-7.5,4.1-12.3,10.5-15.8,18.1
		c-3.6,7.8-5.4,16.2-7.2,24.6c-2.1,10.1-3.9,20.2-5.5,30.3c-2.1,13.7-4.1,27.3-5.8,41.1c-0.7,5.6-1.4,11.3-2.2,16.9
		c-0.6,3.9-2.5,7.4-4.2,10.9c-4.2,8.7-9.3,17-15.7,24.3c-1.1,1.2-2.3,2.3-3.5,3.3c-4.5,3.6-8.8,2.7-11.7-2.3
		c-1.3-2.3-2.1-4.8-2.7-7.4c-1.6-7.4-1.3-14.9-0.8-22.3c0.5-6.8,1.1-13.5,1.8-20.3c0.6-6.2,1.2-12.5,2.1-18.7
		c2.6-18.2,5.3-36.5,8.7-54.6c2.4-12.6,6.5-24.6,12.6-35.9c1.7-3.1,3.6-5.9,6.5-8c0.6-0.4,1.4-1,1-1.9c-0.4-0.9-1.3-0.4-2.1-0.2
		c-8.5,2.2-14.5,7.5-19,14.8c-5.2,8.5-7.6,17.9-9.6,27.5c-4.2,19.6-7.2,39.4-10,59.2c-1.5,10.7-2.2,21.7-4.3,32.3
		c-2.2,10.6-6.5,20.6-13.7,28.9c-3.9,4.5-9.2,7-15.1,7.7c-5.8,0.7-10.8-4.4-11.2-11c-0.3-4.5,0.7-8.8,1.7-13.1
		c3.3-13.8,7.6-27.3,11.6-40.9c0.7-2.4,1.3-4.7,1.8-7.2c0.5-2.7-0.4-3.8-3.1-4c-0.8,0-1.5,0-2.3,0c-4.3,0-5.7,1.1-6.8,5.3
		c-3.2,12.1-5.6,24.3-8.7,36.4c-2,7.6-4.4,15.2-5.6,23c-0.4,2.5-0.5,4.9-0.2,7.4c0.4,4,2.5,6.9,6.4,8.1c13.4,4,25.5,1.4,36-8
		c2.4-2.1,4.3-4.6,6.4-6.9c0.5-0.6,1.1-1.5,2.1-1.1c0.9,0.4,1,1.3,1.1,2.1c0.4,3.6,1.3,7.2,2.3,10.7c0.9,3.1,2.9,4.8,6,5.6
		c4.7,1.3,9.3,0.3,13.8-0.9c10-2.7,18.6-7.7,25.4-15.7c0.6-0.7,1.1-1.7,2.2-1.3c0.9,0.3,0.9,1.4,1,2.2c0.4,3.5,1.4,6.8,2.3,10.2
		c0.8,2.7,2.5,4.3,5.2,5c4.3,1.2,8.6,0.7,12.9-0.3c8.7-1.9,16.4-6,23.1-11.9c0.7-0.6,1.4-1.6,2.4-1.3c1,0.4,0.8,1.6,0.9,2.4
		c0.8,8.1,4.9,10.3,11.9,11c10.7,1.2,19.6-2.5,27.1-10.1c3.5-3.5,6.9-7,9.6-11.2c0.5-0.8,1-1.7,2.1-1.6c1.1,0.2,1.2,1.3,1.5,2.2
		c1.6,5.3,3.7,10.3,7.9,14.3c2.7,2.6,5.7,4.3,9.2,5.1c18.4,4.1,33.7-1.1,45.8-15.5c1.9-2.2,3.5-4.6,5.1-7c1.3-2.1,2.1-2,3,0.3
		c1.9,4.5,4.1,8.8,7.1,12.6c4.8,6.1,10.8,10.1,18.6,10.8c4.3,0.4,8.4-0.9,12.4-2.5c6.5-2.7,11.9-6.8,16.5-12.1
		c1.6-1.9,3.2-2.8,5.9-2.6c9.5,1.1,17.9-1.7,25.3-7.8c2.4-2,3.2-1.7,3.6,1.5c0.7,5,1,10,2.3,14.8c1.7,6.3,5.2,8.8,11.7,8.3
		c11.9-0.9,22.1-5.5,30.9-13.6c0.9-0.8,1.7-2.4,3.1-1.9c1.3,0.5,1.1,2.2,1.3,3.4c0.8,5,2.5,9.2,7.7,11c2.6,0.9,5.4,0.8,8.1,0.4
		c8-1.4,15.5-4.5,22.5-8.6c1.4-0.8,2.4-2.1,3.6-3.2c2-1.8,2.5-1.6,3.2,0.9c0.1,0.4,0.2,0.8,0.3,1.2c1.4,7.3,5.8,10.5,13.2,9.6
		c9.6-1.1,18.7-4.4,26.4-10.4c5.4-4.2,9-9.8,11.6-16.2c4.7-11.8,8.5-24,12.5-36.1c1-3.2,1.4-3.5,4.5-2.4c6.9,2.4,13.8,4.8,20.4,8
		c10.3,5.1,17.4,13,19.2,24.7c1.2,8.3-0.5,15.9-6.5,22.2c-4.3,4.4-9.6,6.2-15.8,5.2c-9.8-1.6-16.2-9.2-16-19.1
		c0-1.9,0.5-3.7,1.2-5.4c0.8-2.2,0.1-3-2.2-2.8c-2.8,0.3-5.1,1.4-6.8,3.9c-6.1,8.7-2.6,21.3,7.1,25.5c7.6,3.3,15.5,3.4,23.5,1.6
		c4.4-1,8.6-1.7,13.2-1.7c8.9,0,17.5-2.4,24.7-8.2c1.8-1.4,3.5-2.9,5.1-4.6c0.5-0.6,1.1-1.5,2.1-1c0.9,0.5,0.5,1.5,0.5,2.3
		c-0.3,3.8,0,7.6-0.1,11.5c-0.1,1.9,0.6,2.6,2.6,2.4c2.4-0.3,4.6-1,6.9-1.8c1.6-0.6,2.3-1.9,2.6-3.5c0.8-4.7,1.1-9.4,1.7-14.1
		c2.4-17.2,8.3-33.2,17-48.2c3.6-6.2,7.3-12.3,12.6-17.2c1.4-1.3,3-2.5,4.8-3.3c3.3-1.4,5.5-0.3,6.4,3.1c0.7,2.6,0.6,5.2,0.3,7.8
		c-1.2,9.1-3.5,18-6,26.8c-3.5,12.6-6.4,25.4-8.8,38.2c-0.2,1.3-0.3,2.5-0.3,3.8c0.1,5,2.9,8.3,7.8,9.2c3.8,0.7,7.6,0.5,11.4-0.2
		c11-2.1,20.2-7.3,27.2-16.1C894.3,400.4,894.8,399.4,896,399.4z"/>
	<path class="st1" d="M896,399.4c-7.4,10.1-17.3,16.3-29.6,18.6c-4.4,0.8-8.8,1.1-13.1-0.4c-5.5-1.8-7.7-6.3-6.5-12.9
		c2.8-15.3,6.6-30.3,10.6-45.3c2-7.5,3.9-15.1,4.4-22.9c0.1-1.5,0-3-0.4-4.5c-0.9-3.5-2.8-4.4-6.1-2.8c-4.4,2.2-7.5,5.9-10.1,9.8
		c-11.1,16.4-19.3,34-22.6,53.6c-1.1,6.4-1.7,12.8-2.4,19.2c-0.2,1.5-0.7,2.6-2.1,3.2c-3.1,1.4-6.4,2.1-9.8,2.4
		c-1.5,0.2-1.5-0.9-1.5-2c0-5,0-9.9,0-15.1c-2.6,2.7-5.3,5.5-8.6,7.6c-8.1,5.1-16.8,7.5-26.4,6.5c-2.1-0.2-4,0.3-5.9,0.9
		c-9.2,2.9-18.3,3.1-27.4-0.5c-12.6-5-13.2-20.1-6.6-28.1c1.8-2.1,4.3-2.7,6.8-2.9c3-0.2,3.6,0.9,2.4,3.6
		c-3.3,7.7,1.2,19.6,8.8,22.5c10.4,4,20.8,0.4,25.2-10.4c5.7-14-0.5-30.1-14.5-37.7c-7.7-4.2-16-6.8-24.2-9.8
		c-1.7-0.6-1.7,0.5-1.9,1.4c-3.5,11.4-7.7,22.6-11.5,33.9c-5.1,15.1-15.6,24.1-30.7,28.4c-3.8,1.1-7.5,2.1-11.5,2
		c-6.1-0.1-10.3-3.4-11.6-9.4c-0.3-1.2-0.5-2.5-0.8-4.2c-5.2,6-12.1,8.6-19,11.1c-4.4,1.6-8.9,2.8-13.6,2.6
		c-5.9-0.2-10.1-3.5-11.4-9.3c-0.5-2.1-0.8-4.2-1.1-6.3c-0.9-0.1-1.2,0.8-1.7,1.2c-8.7,8.6-19.1,13.5-31.4,14.6
		c-2.2,0.2-4.4,0-6.6-0.5c-3.1-0.8-5.1-2.8-6-5.9c-1.8-6-2.5-12.1-2.9-18.3c0-0.5-0.1-0.9-0.2-1.6c-2.3,1.6-4.4,3.2-6.6,4.6
		c-6.8,4.5-14.3,6.1-22.3,4.9c-1.7-0.2-2.6,0.2-3.6,1.4c-4.4,5.3-9.6,9.5-15.9,12.5c-13.5,6.4-25.1,3.5-34.1-8.4
		c-3.1-4.2-5.4-8.8-7.3-13.9c-3.6,5.6-7.3,10.7-12.2,14.9c-12.5,10.8-26.9,13.5-42.6,9c-7.7-2.2-11.7-8.3-14.4-15.4
		c-0.7-1.9-1.3-4-2-6.4c-2.7,3.5-5,6.9-7.8,9.9c-5.5,6-11.6,11-19.6,13.1c-5.8,1.5-11.6,1.3-17.3-0.6c-4.7-1.6-6.4-5.5-6.8-10.1
		c-0.1-0.8,0-1.7,0-3c-1.6,1.4-2.9,2.6-4.3,3.7c-8.2,6.5-17.4,10.4-27.9,11.1c-0.4,0-0.8,0-1.3,0c-7.5,0-10.3-2.2-11.8-9.5
		c-0.7-3-1.1-6-1.7-9.3c-1.5,1.5-2.8,3-4.2,4.4c-8.8,8.7-19.3,13.5-31.6,14.6c-2,0.2-3.9-0.1-5.8-0.5c-3.4-0.7-5.5-2.8-6.4-6.2
		c-1-3.8-2-7.5-2.3-11.5c0-0.5,0-1-0.7-1.5c-2.5,2.8-4.7,5.9-7.5,8.5c-10.6,9.5-22.8,12.2-36.4,8.3c-4.6-1.3-7-4.5-7.3-9.3
		c-0.4-5.6,0.7-11,2.2-16.3c4.9-16.5,8.1-33.4,12.4-50.1c1.4-5.4,7.2-8.2,12.2-5.8c2.1,1,2,2.8,1.5,4.6c-1.4,5.2-2.8,10.3-4.3,15.4
		c-3.7,13.2-8.1,26.2-10.5,39.8c-0.6,3.2-0.6,6.4,0.5,9.5c1.7,4.9,5.6,7.3,10.7,6.5c7.5-1.2,13-5.4,17.1-11.7
		c4.5-6.9,7.6-14.5,9.9-22.2c1.5-5.1,1.5-10.7,2.3-16.1c1.6-11.6,3-23.2,4.7-34.8c2.3-15.8,5-31.5,8.6-47c2.1-9.2,4.9-18.2,10.5-26
		c4.7-6.5,10.7-11,18.6-12.8c1-0.2,1.9-0.4,2.4,0.6c0.4,0.8,0,1.5-0.7,2c-7.4,5.7-10.3,14.1-13.6,22.2c-4.9,12-7,24.7-9.1,37.5
		c-1.7,10.3-3.3,20.6-4.8,30.9c-1.9,13-3.3,26.1-4.4,39.2c-0.6,7.4-1.3,14.7-1,22.1c0.2,5,1,10,3.2,14.5c2.9,5.8,6.8,6.7,11.8,2.5
		c4.7-4,8-9.2,11.3-14.3c3.8-5.8,6.9-12,9.7-18.4c1.8-4.3,2-8.7,2.5-13.2c1.9-14.9,3.9-29.8,6.2-44.6c2.5-16.2,5.2-32.3,9.3-48.1
		c2.8-10.6,7.1-20.5,16-27.7c3.5-2.8,7.4-4.5,11.7-5.3c0.9-0.2,1.7-0.1,2.2,0.8c0.4,0.8-0.1,1.5-0.7,2c-10.2,8.5-13.2,20.9-17,32.6
		c-4.2,12.9-5.4,26.5-7.7,39.9c-4,23.5-6.6,47.2-8.1,71c-0.4,7-0.2,14.1,2.4,20.8c3,7.9,7.7,9.1,13.7,3.2
		c7.2-7.1,12.1-15.9,16.7-24.8c1.7-3.2,2.7-6.8,4.3-10c5.8-11.8,7.1-24.9,10.4-37.4c0.8-3,1.6-3.9,4.8-4.2c0.5,0,1-0.1,1.5-0.2
		c5.1-0.5,6.7,0.9,6,5.9c-1.3,10.2-3.9,20.1-6.3,30.1c-1.8,7.6-3.8,15.1-5.7,22.7c-0.7,2.6-0.9,5.2-0.7,7.8c0.4,9,8,13.2,15.8,8.8
		c4.9-2.8,8.1-7.1,10.5-12.1c3.5-7.1,6.4-14.6,9.3-22c1.2-3,0.8-6.2,1.5-9.3c2.7-12.1,7.1-23.3,15-33c3.8-4.6,8.4-8.1,14.3-9.8
		c10.9-3.1,20.2,4.9,18.8,16.1c-1.3,9.8-6.2,17.8-12.5,25.2c-5.2,6.2-11.5,11.2-18.5,15.3c-0.5,0.3-1,0.8-1.6,0.8
		c-2.8,0.2-3.1,1.9-2.7,4.2c1.3,8.6,3.7,16.7,10.4,22.9c8.4,7.7,17.4,7.9,25.8,0.2c7.2-6.5,11.8-14.8,15.6-23.6
		c1.4-3.1,2.5-6.3,3.8-9.4c0.2-0.5,0.3-1.2,0.3-1.7c-0.6-12,1.1-23.7,3.7-35.3c5-22.3,11.4-44.1,19.8-65.3
		c4.6-11.7,11.3-22,20.6-30.5c7.2-6.5,15.6-10.5,25.3-11.3c5.6-0.5,9.1,1.6,10.1,5.6c0.5,2.1,0.6,4.3,0.4,6.6
		c-1,8.8-4.3,16.9-8.1,24.8C540.8,294.9,526,320.1,511,345c-3.2,5.3-6.5,10.5-9.7,15.8c-0.8,1.4-1.9,2.5-3.4,2.9
		c-1.9,0.5-2.4,1.5-2.4,3.4c0,12,1.6,23.5,8.7,33.7c2.7,3.8,6,6.9,10.2,9c6,3,10.9,2.1,15.3-2.9c2.1-2.5,3.6-5.3,4.9-8.3
		c1-2.4-0.5-4.1-2-5.6c-2.2-2.3-4.6-4.5-6.2-7.4c-4.6-7.9-7.5-16.2-4.8-25.4c1.1-3.7,3.1-6.8,6.3-9c8.8-6.1,18.2-2,19.8,8.6
		c1.1,7.1-0.4,14-1.2,21c-0.4,2.8-0.5,5.6-0.8,8.4c-0.2,1.6,0.4,2.3,2.1,2.4c8.8,0.9,16.1-1.5,21.9-8.6c5-6.1,6.8-13.1,7.7-20.8
		c3.2-27,7-54,12.8-80.6c2.1-9.5,4.3-19,10-27.2c4.7-6.8,11-11.4,19.3-13c1-0.2,2.1-0.3,2.7,0.8c0.6,1.1-0.2,1.9-0.9,2.4
		c-8.7,6.2-11.5,15.8-14.9,25.1c-4.1,11.1-5.6,22.8-7.6,34.4c-3,17.6-5.7,35.2-7.5,52.9c-0.9,8.1-1.1,16.2-1.9,24.3
		c-0.6,6.6-0.9,13.2,0.2,19.8c0.6,3.4,1.6,6.8,3.5,9.7c2.4,3.6,5.3,4.2,8.9,2c3.4-2.2,5.9-5.3,8.3-8.5c12.1-16.1,19.1-34.2,22-54
		c0.6-4.2,1.4-8.4,2.1-12.5c0.4-2.4,1.6-3.8,4.2-4c1.3-0.1,2.7-0.4,4-0.4c3.6,0,5.1,1.6,4.8,5.2c-0.1,1.3-0.2,2.6-0.6,3.8
		c-2.7,8.3-4.3,16.9-6.2,25.4c-2.5,11.3-4.1,22.7-3.3,34.3c0.2,2.2,0.5,4.4,1.4,6.4c1.5,3.7,4.2,5.2,8.1,4.1
		c5.3-1.5,9.4-4.6,12.3-9.3c7.6-12.6,12.2-26.4,15.4-40.7c1.9-8.3,3.7-16.5,4.8-24.9c0.3-2.4,1.8-3.7,4.3-3.8c0.8,0,1.7-0.1,2.5-0.1
		c4.3,0,5.5,1.5,4.9,5.8c-0.5,3.6-1.5,7-2.8,10.3c-2.6,6.4-3.4,13.1-4.5,19.8c-1.5,9.5-2.5,19-2.1,28.6c0.1,2.6,0.3,5.2,0.9,7.8
		c1.1,4.8,5.3,7.3,10.1,5.8c6.2-1.8,10.2-6.2,13.5-11.4c6.4-9.9,10-20.9,13.1-32.1c1.5-5.3,2.6-10.7,3.7-16.1c0.4-1.9-0.2-2.5-1.8-3
		c-3.1-1-6-2.3-8.7-4.2c-6.7-4.6-7.4-11.2-1.6-16.9c2.9-2.9,6.2-4.9,10.2-5.9c8.2-2,14.5,2.4,15.6,10.8c0.4,3.4,0.4,6.8,0,10.1
		c-0.2,1.6,0.3,2.4,1.9,2.9c9,3.2,18.3,5.5,27.3,9c8.3,3.2,15.1,8.3,19.9,15.9c6.4,10,6.2,19.9,0,29.9c-1.9,3-4,5.8-6.8,8.3
		c5.1,1.9,9.9,0.9,14-3.3c4.9-4.9,8.5-10.8,11-17.2c1.3-3.5,2.4-7.1,3.7-10.5c1.7-4.6,1.4-9.4,1.7-14.1c0.4-9.4,1.9-18.6,3.3-27.8
		c2.5-15.7,5.5-31.2,10.6-46.3c4.2-12.6,8.2-25.3,15.4-36.6c6.7-10.4,15.4-18.4,27.5-22.1c2.6-0.8,5.2-1.4,8-1.4
		c5.5,0,8.6,2.8,8.7,8.3c0.2,6.4-1.9,12.4-4.2,18.2c-5.7,14.1-13.3,27.2-20.6,40.5c-9.7,17.6-19.9,34.9-30.5,51.9
		c-1.2,2-1.6,4.2-1.9,6.5c3-4.6,6-9.2,9.1-13.7c3.2-4.6,6.8-8.9,10.8-12.8c5-4.8,10.9-8,17.8-9c6.8-1,12.9,3.6,13,10.5
		c0,7.3-1.7,14.3-3.6,21.2c-3.7,13.3-7.5,26.6-11.2,39.9c-1.4,5.2-2.3,10.6-3,16c-0.5,3.6,0.8,5.4,4.4,6.2c5.4,1.1,10-0.8,14.3-3.8
		c3.2-2.3,5.7-5.3,7.9-8.6c2.4-3.8,6.8-5.5,11-4.2C896,397.8,896,398.6,896,399.4z"/>
	<path class="st1" d="M86,214.5c11.3,4.8,16.4,14.3,19.1,25.8c3.5-1.6,6.9-3.2,10.4-4.5c25.9-9.8,58.5,0.1,75,18
		c9.5,10.3,12.6,22.9,11.3,36.5c-1.5,15.9-10.3,27.8-21.9,38c-3.5,3.1-7.1,6.3-11.6,9c1.6,0.6,3,0.9,4.3,1.5
		c14,5.8,26,13.8,33.4,27.6c5.2,9.7,6.3,20.1,4.2,30.9c-3.2,16.2-10.7,30.3-23,41.2c-13.4,11.9-29.8,15.3-47.2,13.8
		c-20.1-1.7-36.2-12-51-24.8c-2.8-2.4-5-5.3-6.2-8.9c-1.1-3.2-0.6-6.3,2-8.6c2.4-2.2,5.3-2,8.1-1.2c1.5,0.5,2.6,1.5,2.6,3.1
		c0.1,3.9,2.2,6.9,4.6,9.6c5.4,6.2,12.1,10.8,19.1,15.1c5.2,3.2,10.4,6.5,16.3,8.1c18.5,5,33.9-0.3,46.6-14.2
		c7.1-7.8,12-16.8,14.6-27c3.1-12.2,0.6-23.2-7.1-33c-7-9-16.2-15.3-25.6-21.4c-2.6-1.7-5.3-3.1-7.7-5c-4.2-3.3-4.6-7-1.2-11.2
		c2-2.5,4.6-4.4,7.2-6.4c11.1-8.3,19.3-18.8,23.3-32.2c5.8-19.5-1.1-37.5-18.7-48.1c-8-4.9-16.4-8.8-26.1-9
		c-8.4-0.1-16.3,1.4-23.9,5.1c-3.3,1.6-6.5,3.3-9.6,5.2c-0.9,0.5-1.4,1-1.4,2.2c0.6,9.5-0.3,19-0.9,28.4
		c-0.6,11.1-1.6,22.2-2.9,33.2c-3.6,30.4-9.1,60.5-19.9,89.3c-5.1,13.6-12,26.2-22.6,36.4c-10.4,10-23,15.6-36.9,18.8
		c-0.6,0.1-1.1,0.3-1.7,0.5c-2.7,0-5.4,0-8.2,0c-4.9-0.8-7.5-3.9-7.9-10.3c0-0.8,0.3-1.7-0.3-2.4c0-5.3,0-10.5,0-15.8
		c0.5-5.4,1-10.7,2.1-16.1c2-9.1,4.5-17.9,7.2-26.8c3.9-13.1,8.2-26.1,13.2-38.8c8.3-20.8,18.2-40.7,30.8-59.3
		c5.4-7.9,11-15.7,17.4-22.9c4.6-5.1,9.4-10.1,14.8-14.4c1.5-1.2,2.3-2.6,2-4.6c-0.6-5.1-1.2-10.3-2.3-15.3
		c-0.9-4.4-2.9-8.1-5.9-11.3c-1.1-1.1-2-2.4-0.8-4C84.3,214.5,85.1,214.5,86,214.5z"/>
	<path class="st0" d="M83.4,214.5c-0.3,1.3,0,2.3,1,3.2c4.2,3.9,6,8.9,6.9,14.4c0.8,4.9,1.5,9.7,1.9,14.6c0.1,1.1-0.1,1.7-1,2.4
		c-17.3,13.9-29.9,31.8-41.2,50.6c-15.4,25.5-26.3,53-34.9,81.5c-3.3,10.9-6.7,21.9-8.9,33.1c-0.9,4.5-1.6,9.1-2.3,13.7
		c0-70.4,0-140.8,0-211.2c0-1.9,0.4-2.3,2.3-2.3C32.7,214.5,58,214.5,83.4,214.5z"/>
	<path class="st2" d="M5,443.8c0.8,0.6,0.5,1.6,0.6,2.3c0.4,5,2.6,8.7,7.6,10.4c-2.3,0-4.6-0.1-6.9,0c-1.1,0.1-1.3-0.2-1.3-1.3
		C5,451.4,5,447.6,5,443.8z"/>
	<path class="st1" d="M240.8,295.1c0-5.7,4.7-10.4,10.4-10.3c4.6,0.1,8.1,4,8.1,9c-0.1,5.4-4.7,10.1-10,10.2
		C244.3,304,240.7,300.3,240.8,295.1z"/>
	<path class="st1" d="M395.6,303.2c-4.9,0-8.5-3.7-8.4-8.8c0.1-5.6,4.7-10.1,10.3-10.1c4.8,0,8.2,3.6,8.2,8.7
		C405.7,298.6,401.1,303.2,395.6,303.2z"/>
	<path class="st0" d="M497.1,348.4c0.7-4.1,1.4-8.3,2.2-12.4c4.7-25.1,12-49.5,22.3-72.9c3.3-7.6,7.7-14.5,13.4-20.5
		c1.4-1.5,3-2.8,4.8-3.7c4.6-2.2,9.3,0.7,9.9,6.2c0.3,3.1-0.3,6.1-1.5,8.9c-13.6,33-31.5,63.7-50.2,93.9c-0.1,0.2-0.2,0.4-0.4,0.7
		C497.4,348.6,497.2,348.5,497.1,348.4z"/>
	<path class="st0" d="M824.1,337c0.6-7.5,2.1-14.8,3.7-22.1c4.3-19.8,10.6-39,18.9-57.5c3-6.6,6.9-12.6,12.1-17.7
		c0.7-0.7,1.3-1.3,2.1-1.8c2-1.5,4.2-2.8,6.8-1.5c2.7,1.4,4,3.8,4.2,6.8c0.2,2.4-0.4,4.7-1.3,6.9c-12.4,30.2-28.7,58.3-45.9,85.9
		C824.5,336.4,824.3,336.7,824.1,337z"/>
	<path class="st0" d="M425.4,377.5c0-13.2,0.6-25.6,6.7-36.8c1.8-3.3,3.9-6.4,8-7.2c4.9-0.9,9.7,2.5,10.2,7.4
		c0.4,3.2-0.4,6.2-1.8,9.1c-4.3,8.7-10.7,15.8-17.7,22.4C429.2,374,427.6,375.5,425.4,377.5z"/>
	<path class="st3" d="M538.9,385.9c-7.4-2.9-11.6-13.6-8.2-20.4c0.7-1.4,1.5-2.9,3.2-3c1.7-0.1,2.6,1.5,3.3,2.8
		c2.6,4.5,3.1,9.4,2.4,14.5C539.4,381.8,538.9,383.7,538.9,385.9z"/>
	<path class="st4" d="M724.4,337.5c-0.3,0.8,0.4,1.9-0.6,2.3c-0.9,0.3-1.5-0.6-2.2-1.1c-0.5-0.4-1-0.9-1.4-1.5
		c-0.8-1.4-1-2.9-0.1-4.3c0.4-0.6,1-1.4,1.8-1c1.4,0.6,1.7,2,2,3.3C724.2,336,724.3,336.7,724.4,337.5z"/>
	<path class="st0" d="M92.7,258.2c0.3,6.1-0.3,11.3-0.7,16.5c-1.1,13.4-2.2,26.7-3.5,40c-1.4,14.2-3.2,28.3-6,42.3
		c-3.1,15.7-6.5,31.3-12.3,46.3c-5.9,15.4-13.7,29.5-26.1,40.7c-4.3,3.9-8.8,7.5-14.5,9.1c-4,1-6.6-0.2-8.3-3.9
		c-2-4.6-2.1-9.4-1.8-14.2c1.4-27.2,8.5-53.1,17.6-78.6c8.4-23.7,18.4-46.6,31.9-67.9c5.8-9.2,12.2-17.9,19.5-26
		C89.7,261.2,90.9,260,92.7,258.2z"/>
</g>
</svg>
