<?xml version="1.0" encoding="utf-8"?>
<!-- Generator: Adobe Illustrator 21.1.0, SVG Export Plug-In . SVG Version: 6.00 Build 0)  -->
<svg version="1.1" id="Layer_1" xmlns="http://www.w3.org/2000/svg" xmlns:xlink="http://www.w3.org/1999/xlink" x="0px" y="0px"
	 viewBox="0 0 700 965" style="enable-background:new 0 0 700 965;" xml:space="preserve">
<style type="text/css">
	.st0{fill:#FEFEFE;}
	.st1{fill:#F5F9F7;}
	.st2{fill:#F2F5F5;}
	.st3{fill:#0E2246;}
	.st4{fill:#0F1F49;}
	.st5{fill:#0F2042;}
	.st6{fill:#0E244C;}
	.st7{fill:#12203C;}
	.st8{fill:#0A2445;}
	.st9{fill:#0F2244;}
	.st10{fill:#132346;}
	.st11{fill:#0F2445;}
	.st12{fill:#0C2453;}
	.st13{fill:#182138;}
	.st14{fill:#141D31;}
	.st15{fill:#212945;}
	.st16{fill:#212F44;}
	.st17{fill:#212C45;}
	.st18{fill:#1F283B;}
	.st19{fill:#323C4B;}
	.st20{fill:#42445F;}
	.st21{fill:#39476B;}
	.st22{fill:#152544;}
	.st23{fill:#F6F9F7;}
	.st24{fill:#F6F8F6;}
	.st25{fill:#E1EEEF;}
	.st26{fill:#EAEFEF;}
</style>
<g>
	<path class="st0" d="M698.5,485.3c0,111.8-0.1,223.7,0.2,335.5c0,7.2-1.3,8.9-8.8,8.9c-224.5-0.3-448.9-0.3-673.4,0
		c-8.3,0-9.1-2.7-9.1-9.7c0.2-224.1,0.2-448.1,0-672.2c0-7.6,1.6-9.5,9.4-9.5c224.1,0.3,448.1,0.3,672.2-0.1c9,0,9.8,2.5,9.8,10.4
		C698.4,260.8,698.5,373.1,698.5,485.3z"/>
	<path class="st1" d="M518.9,446.7c-6.8-0.8-16.5,4.6-17.3-8.5c-0.2-2.6-0.4-4.8,2.8-5.6c19-5.1,36.7,8.4,38.5,29.4
		c0.3,3.6-1.1,8.1,2.6,10.1c5.9,3.2,4.3-4,6.7-5.9c3.9-3.1,7,0.9,10.4,0.4c0.5,1.2,0.6,2.6-0.4,3.4c-16,13.7-13.1,29.8-6,46.5
		c0.3,4.7-2.4,8.3-4.5,12.1c2.3-3.1,5.3-5.4,8.9-6.9c7.7-0.6,15.5,1.1,23-2.1c1.4-1.8,8.6,4.8,5.2-3.7c-3.3-3.5-5.9,0.4-8.6,0.9
		c-12.3,2.5-28.6-12.6-26.5-24.8c0.6-3.2,2.6-4.9,5.5-5.8c9.8-2.3,20,1.1,29.6-2.3c4.3-8.1-7.4-10.5-6.2-17.5
		c9.9-2.6,19.9-4.5,29.8,0.1c-6.8,18.4-6,20.7,10.4,30.2c6.6,3.8,12.8,8.1,12.8,16.6c0,5.2-4,8.3-8.6,9.2
		c-8.5,1.6-14.8-2.2-19.3-9.2c5.3,12.5,16.7,8.5,26.4,9.2c-3.4,10.2-9.2,15-20.1,9.3c-1.6-0.8-4.1-1-5.8-0.4
		c-16.4,5.8-33.9,2.9-50.7,5.9c-7.1,1.3-15.3-2.6-22.7-5c-4-1.3-8.1-2.9-11.9-1.3c-8.8,3.8-9.9-0.9-9.6-7.8
		c5.9-2.4,11.9-4.4,18.4-2.1c0.4,0.1,0.9,0.5,1.1,0.4c1-0.8-0.4-1-0.5-1.6c0.1-1.1,0.6-1.9,1.5-2.5c5.4-8.3,2.2-18.3,5.8-26.9
		c-4.4,4-2.8,9.3-3.4,14.1c-0.6,4.9,1.5,10.9-4.9,13.8c-5.1-3.8-4-9.5-4.1-14.6c-0.2-16.7-0.3-33.4,0-50c0.2-9.8-3.5-13.6-13.3-10.8
		C514.1,443.6,518.9,446.7,518.9,446.7z"/>
	<path class="st2" d="M495.9,523c-7.2,8.1-17.6,4.7-26.4,6.8c-6.8,1.6-14.3,1.1-21.4,3.1c-2.5,0.7-6.4,0.4-8.1-1.1
		c-7-6.5-14.5-2.3-21.6-3.1c-11.6-1.2-25.9,7.5-35.7-5.4c8.1-2.9,16.2-5.2,20.5-2.5c-7.7-13.3-6.2-31-4-48.9
		c6.6-10.1,13.5-7.7,20.4-0.3c1.9,1.8,0.6,4.9,3.4,6.9c2.2-7.7,7.5-11.6,15.2-11c6,0.5,9.2,4.8,10.5,10.4c1.5,6.8-1.9,10.8-7.9,13.2
		c-5.8,2.1-11.6,4.2-16.2,8.5c-4.9,4.4-8.7,9.7-4.5,16.1c4.6,6.9,11.1,5.4,17.3,1.7c1.4-0.8,2.7-1.8,4.2-2.5
		c5.7-2.7,9.2,8.6,14.7,2.9c3.6-3.7-4.9-9.5,0.6-14.1c6.3,2.7,11.1-0.7,14.9-4.6c4.6-4.8-2.4-7.4-3.3-11.4c-1.2-5.3-8.4-10-1.2-15.9
		c8.2-0.9,12.3,2.9,12.6,11c0.4,9,0.5,18,0,27c-0.3,5-1.3,9.9-7.1,12C480.6,518.6,488.3,520.4,495.9,523z"/>
	<path class="st3" d="M73.9,523.1c11.2-2,9.9-10.4,9.9-18.2c0-16-0.3-32,0.1-47.9c0.2-7.7-0.7-13.9-9.7-16.2
		c15.1,0,30.2-0.6,45.2,0.2c10.3,0.6,18.9,5.2,22.3,16.2c3.5,11.1-3.1,17.4-11.5,23.6c11.3,4.8,18.8,12.1,15.4,24.8
		c-3.4,12.5-13.6,17-25.4,17.4C104.7,523.5,89.3,523.1,73.9,523.1z"/>
	<path class="st4" d="M199.7,440.1c10.1,0,20.2,0,30.3,0c-10.2,3-9.2,11.2-9.2,18.8c-0.1,14,0.2,27.9-0.2,41.9
		c-0.3,10.5-4.5,19.1-14.9,23.4c-5.4,2.2-10.6,1.5-15-2.1c-3.5-2.9-5-6.9-1.5-10.7c4.1-4.4,7.3-1.5,9.9,2.1c1.8,2.5,2,7.5,6.2,6.3
		s3.7-5.8,3.7-9.4c0.1-18.5-0.2-36.9,0.2-55.4C209.2,447.7,206.4,443.5,199.7,440.1z"/>
	<path class="st5" d="M585,521c-7.8,4.8-16,4.6-24.5,1.9c-2.9,0-4.6-1.6-5.5-4.3c-13-20.7-10.4-38.3,7.7-51.9c6.6-1.6,13.2-1,19.8,0
		c6.4,5,12.2,10.4,11.6,19.6c-4.7,2.2-9.4,1.7-14.1,0.3c-2.4-4.8-2-12-9.4-12.9c-6.2-0.7-9.6,3.4-11.7,8.7c-0.3,2.1,0,4.2-1.3,6.1
		c-3.9,10.7,1.6,17.9,9.6,23.4c9.4,6.5,17.4,1.9,24.2-5.5c2.8,4.3-1.6,6.4-1.7,9.5C589.3,518.8,587.7,520.4,585,521z"/>
	<path class="st6" d="M367.8,481.4c0.1,9,0.4,18.1,0.3,27.1c-0.1,6-0.2,11.7,7,14.4c-7.9,0-15.8,0-23.7,0c10.6-11,9.3-74.7-1.5-79.6
		c0.5-0.6,1-1.5,1.6-1.8c16.7-7.4,16.7-7.4,16.7,10.8c0,7.8,0,15.6,0,23.4C369.4,477.7,369.2,479.6,367.8,481.4z"/>
	<path class="st7" d="M634.1,522.8c-8.8,4.9-18.2,2.2-26.3-0.2c-7.5-2.2-1.6-11-2.8-17c4.3,4.2,5.4,10.8,11.2,13.5
		c6.2,2.8,12.2,3.8,16.2-2.9c3.7-6.2-1.2-9.9-5.6-13c-3-2.1-6.4-3.6-9.7-5.3c-15.6-8.6-17-17.5-4.8-31c5.7-1.2,11.4-2.5,17,0.4
		c0.1,2.5-1,3.4-3.4,2.4c-5.8-0.1-12.6-1-14.1,6.4c-1.2,6.2,4.6,9,9.3,11.6c2.5,1.4,5.2,2.5,7.7,3.8
		C645.5,500,647,509.6,634.1,522.8z"/>
	<path class="st8" d="M533.6,518.3c0.1,0.8,0.3,1.5,0.5,2.2c-5,0.9-10.9,5.8-13.9-3c0.1-23.6,2.3-47.3-1.3-70.9
		c-0.7-3.3-4.6-0.9-5.9-3.3c0.3-0.5,0.6-1.3,1.1-1.5c16.7-7.4,16.7-7.4,16.7,11.1c0,17.9-0.1,35.9,0.1,53.8c0,3.8-2,8.3,2.4,11.2
		L533.6,518.3z"/>
	<path class="st9" d="M456.8,503.7c-2.9,7.2,4.2,9.4,6.9,13.3c-7.2,12.3-14.3,5-21.4,0.3c-1-0.7-1.5-1.6-1.6-2.8
		c2.1-7.7,6.1-15.6-1.6-22.6c-0.6-1.1-0.4-2.1,0.4-3c5.8-2.3,8.2-6.1,5.8-12.4c-1.6-4.2-4.1-7.1-8.8-7.1c-4.4,0-8.3,1.4-9.1,6.3
		c-0.7,4.3,0.3,10.9-6.2,9c-7.7-2.3-3.1-8.5-1.6-13.3c5.3-4.1,11.4-6.5,18.2-6.3c13.5,0.3,18.3,5.3,18.6,18.8
		C456.4,490.6,456.6,497.2,456.8,503.7z"/>
	<path class="st10" d="M367.8,481.4c0.1-1.9,0.2-3.8,0.3-5.7c15.4-12.7,19.7-13.2,31-3.8c3.2,12.1,1.8,24.4,2,36.7
		c0.1,5.5,0.2,10.7,6.2,14.7c-8.2,0-16.4,0-24.7,0c6.7-3.6,9.1-9.1,8.3-16.8c-0.7-6.5-0.1-13.1-0.3-19.6c-0.2-4.8,0.5-10.2-5-12.9
		c-5.8-2.8-10.1,0.8-14.3,4.1C370.1,479.2,369,480.3,367.8,481.4z"/>
	<path class="st11" d="M495.9,523c-8.9,0-17.8,0-26.6,0c6.9-3.2,7.3-8.9,7-15.3c-0.3-6.9-0.7-13.9,0.1-20.8
		c0.9-7.8-1.9-12.6-9.2-15.1c2.6-1,5.2-2.2,7.9-3.1c3.4-1.1,8.6-4.8,9.8-2.2c1.8,4,4.8,8.7,3,14c-3.4,10.3-0.7,20.9-1.6,31.3
		C485.7,519.1,492.8,519.2,495.9,523z"/>
	<path class="st12" d="M278.5,507.1c-12-17.9-11.2-36.4,2.4-53.5c2.9,0.5,6.6-0.8,8,3.3c-4.4,12.9-6.1,26-3.5,39.6
		C284.5,500.9,287.3,507.7,278.5,507.1z"/>
	<path class="st13" d="M278.5,507.1c5.6-1.4,4.8-6.9,6.9-10.6c10.9,29.3,31.3,33.2,54.1,9.7c3,5.9,2.2,11.7,1.2,19.3
		c-5.1-7.1-10-4.1-15.3-2.2C307,529.8,289.9,523.7,278.5,507.1z"/>
	<path class="st14" d="M288.9,456.9c-2.2-2.3-6.3,0.1-8-3.3c11-14.1,25.6-17.1,42.3-13.7c5.2,1,10.4,8.1,15.9,0.3
		c0.5-0.7,1.2-0.3,1.9,6.4c0.2,4.5,4,9.6-2.5,12.7C324.7,438,305.5,437.2,288.9,456.9z"/>
	<path class="st15" d="M489.8,473.1c3.5-5.9,9.3-10.6,14.8-6c7.5,6.2,5.2,11.1-5,9.7C496.2,476.3,493.1,474.4,489.8,473.1z"/>
	<path class="st16" d="M235.5,511.1c4.2,0.5,7,2.5,7,6.9c0,3.8-2.1,6.3-5.7,6.7c-4.2,0.4-7.2-1.7-7.5-6.1
		C228.9,514.5,231.5,512.1,235.5,511.1z"/>
	<path class="st17" d="M161.9,511.2c4.4,0.3,6.8,2.5,6.9,6.9c0.1,3.7-1.8,6.4-5.5,6.8c-4.2,0.4-7.3-1.9-7.7-6.1
		C155.3,514.7,157.7,512,161.9,511.2z"/>
	<path class="st18" d="M626,469.6c1.1-0.8,2.2-1.6,3.4-2.4c10-0.3,10-0.3,8.6,17.2C632.8,479.6,632.6,471.7,626,469.6z"/>
	<path class="st19" d="M520.2,517.6c3.7,5.4,9.1,2.9,13.9,3c1.2,0.1,2.7-0.1,3.5,0.5c2.4,2.1-0.1,2.4-1.3,2.4
		c-7.7,0.1-15.3,0.1-23,0.1C513.2,518.8,518.8,520.6,520.2,517.6z"/>
	<path class="st20" d="M338.4,459.2c3.9-3.6,0.7-8.7,2.5-12.7c2.2,6.1,2.4,12.4,2.1,19.3C338.5,464.9,338.5,462,338.4,459.2z"/>
	<path class="st0" d="M533.3,518c0-8.2-0.1-16.4-0.1-24.6c0-3.8,0.3-7.5,4.8-8.9c2.1-0.6,4.1,0.1,5.5,1.7c2.7,3.1,1.7,6.1-0.6,8.8
		c-3.3,3.9-2,8.6-2.5,13c-0.5,4.5-1.1,9.1-6.8,10.2C533.6,518.3,533.3,518,533.3,518z"/>
	<path class="st21" d="M580.1,484.3c4.3,3.7,9.4,1.5,14.1,2c-11.9,5.3-24.3,1.8-36.5,2.3c-0.7-1.7-1.4-3.4-2.1-5.1
		C563.9,479.1,572.1,478.4,580.1,484.3z"/>
	<path class="st0" d="M555,518.6c1.8,1.4,3.7,2.8,5.5,4.3c-1.6,4.1-4.8,5.8-9,6.5C549.7,524.5,552.5,521.6,555,518.6z"/>
	<path class="st0" d="M585,521c1.6-1.7,3.1-3.4,4.7-5c2.5,1.7,7.3,3.3,5,6.5C592.9,524.9,587.8,524.4,585,521z"/>
	<path class="st22" d="M441.8,514.3c0.1,1,0.3,2.1,0.4,3.1c-7.1,6.8-15.1,10.8-23.4,2.8c-5.9-5.7-6.1-13.1-0.4-19.7
		c1.8-2.1,4.1-4,6.6-5.3c4.6-2.4,9.5-4.3,14.3-6.3c0.1,1,0.1,2,0.2,3.1c0,1.8-0.8,3-2.1,4.2c-3.5,3.1-8.9,5.2-8.2,11.1
		C430.3,514.8,438.4,510.6,441.8,514.3z"/>
	<path class="st23" d="M107.8,478.8c3.3,4,8.2,4.5,12.6,6.3c7.9,3.4,12.4,9.4,11.4,18.3c-0.9,8.5-6.9,12.9-14.6,14.4
		c-5.1,1-10.5,0.4-15.8,0.3c-2.5,0-5.4-0.6-5.6-3.6c-0.4-6.9,0.5-14-0.5-20.8c-1.4-9,4.4-11.8,10.5-14.9
		C106.4,478.2,107.1,478.2,107.8,478.8z"/>
	<path class="st24" d="M107.8,478.8l-1,0.2c0,0-1.1-0.1-1-0.1c-6.8,6.5-8.3-0.9-9.9-4.5c-1.3-3.1-1.3-7.5-0.2-10.8
		c2.1-6.4-6.9-17.6,7.4-19c14.6-1.4,25.5,4.8,26.4,15.5c1.1,12.8-7.8,16.6-18.1,18.8C110.3,479.2,109,478.9,107.8,478.8z"/>
	<path class="st25" d="M580.1,484.3c-8.2-0.3-16.3-0.6-24.5-0.8c2.1-8.4,6.8-14.9,16-13.3C578.2,471.4,583.3,476,580.1,484.3z"/>
	<path class="st26" d="M441.8,514.3c-5.9,3.2-11.8,4.9-15.6-2.7c-3.5-7,0.5-11.6,6-15.3c2.4-1.6,4.9-2.9,7.3-4.4
		c2.1,0.2,6-2.3,6,0.9C445.8,500.1,449.3,508.3,441.8,514.3z"/>
</g>
</svg>
