<?xml version="1.0" encoding="utf-8"?>
<!-- Generator: Adobe Illustrator 21.1.0, SVG Export Plug-In . SVG Version: 6.00 Build 0)  -->
<svg version="1.1" id="Layer_1" xmlns="http://www.w3.org/2000/svg" xmlns:xlink="http://www.w3.org/1999/xlink" x="0px" y="0px"
	 viewBox="0 0 900 596" style="enable-background:new 0 0 900 596;" xml:space="preserve">
<style type="text/css">
	.st0{fill:#FEFEFE;}
	.st1{fill:#E2001A;}
	.st2{fill:#010101;}
	.st3{fill:#F08793;}
	.st4{fill:#FFFFFF;}
	.st5{fill:#FCFCFC;}
	.st6{fill:#FBFBFB;}
	.st7{fill:#FDFDFD;}
	.st8{fill:#EBEBEB;}
	.st9{fill:#FFFEFE;}
</style>
<g>
	<path class="st0" d="M356.9,468c-118.8,0-237.7,0-356.5,0c0-27.2,0-54.3,0-81.4c1.1-0.9,2.3-0.5,3.5-0.5c40.9,0,81.8,0.1,122.7-0.1
		c13.8-0.1,26.7-3.8,37.9-12.3c11.6-8.9,18.6-20.6,20-35.2c1.5-15.9-3.4-29.8-14.9-40.9c-5.9-5.7-12.9-9.6-20.6-12.1
		c-0.3-0.1-0.6-0.2-1-0.3c-0.6-0.2-1.5-0.3-1.6-1c-0.2-0.9,0.7-1.2,1.3-1.6c4.5-2.8,8.6-6,12-10.2c9.3-11.5,11.5-24.4,8.1-38.5
		c-2.1-8.7-6.4-16.2-12.7-22.5c-7.3-7.3-16.2-11.6-26.5-12.9c-0.8-0.1-1.8,0.2-2.1-1c257.1,0,514.3,0,771.4,0c0,11.2,0,22.4,0,33.6
		c-0.9,0-0.8-0.8-1-1.3c-1.5-4.1-5.8-7.2-10.1-7.1c-4.6,0.1-8.9,3.3-10.1,7.6c-1.3,4.5,0.4,9.2,4.2,11.9c6.2,4.4,13.8,0.9,16.1-5.2
		c0.2-0.5,0.1-1.1,0.9-1.1c0,77.4,0,154.8,0,232.2c-149,0-297.9,0-446.9,0c-0.1-0.2-0.1-0.4,0.1-0.6c2.3-0.6,4.7-0.5,7-0.8
		c3-0.3,5.9-0.9,8.7-1.8c12.3-3.9,17.2-19.7,10.5-30.2c-1.6-2.4-3.6-4.3-6.3-5.5c-3.5-1.5-7-2.3-10.8-2.3c-4.5,0-8.9,0-13.4,0
		c-1.4,0-2.8-0.2-4-1.1c-1.8-1.4-1.8-2.9,0.1-4.2c1.7-1.2,3.6-1.5,5.6-1.5c7.6-0.3,15.1,0.5,22.6,1.4c1.9,0.2,3.9,0.5,5.8,0.7
		c1.1,0.1,1.5-0.3,1.5-1.4c0-4.1,0-8.1,0-12.2c0-1.3-0.9-1.6-2-1.9c-4.4-1-8.8-1.4-13.2-1.7c-5.8-0.4-11.6-0.7-17.4-0.5
		c-7.6,0.3-15.3,0.8-22.5,3.6c-6.3,2.4-10.9,6.5-12,13.6c-0.6,4-0.3,8,0.9,11.8c1.2,4,4.5,6.1,8,7.8c3.8,1.8,7.8,2.5,12,2.6
		c3,0.1,5.9,0.1,8.9-0.3c2.4-0.3,4.9,0.1,7.1,1.3c0.8,0.4,1.5,1,1.4,2c-0.1,1-0.8,1.5-1.7,1.8c-2.2,0.8-4.5,1.1-6.8,1.1
		c-8.8,0.1-17.6,0.2-26.2-1.4c-1.2-0.2-1.8,0.1-1.8,1.4c0,4.5,0,8.9,0,13.4c0,1.3,0.6,1.9,1.9,2.2c3.9,0.8,7.8,1.3,11.8,1.6
		c0.8,0.1,2-0.4,2.3,1c-18.9,0-37.8,0-56.7,0c0.3-1.2,1.3-0.9,2.1-1c4.5-0.6,8.9-1.5,13.2-3.2c8.8-3.4,13-10.1,13.2-19.2
		c0.3-12.1,0.1-24.3,0.1-36.5c0-2.1-0.2-2.3-2.3-2.3c-7.7,0-15.4,0-23.1,0c-2.3,0-2.5,0.2-2.5,2.6c0,9,0,18.1,0,27.1
		c0,2.8-0.1,5.7-0.5,8.5c-0.5,3.9-3.1,6.5-6.9,6.7c-3.6,0.2-6.7-2.3-7.5-6.1c-0.2-1.1-0.2-2.2-0.2-3.2c0-10.7,0-21.5,0-32.2
		c0-3.3-0.1-3.4-3.4-3.4c-7.6,0-15.1,0-22.7,0c-2.5,0-2.7,0.1-2.7,2.6c0,12.4-0.1,24.7,0,37.1c0,8.5,4.4,14.8,12.3,18
		c4.3,1.8,8.9,2.8,13.5,3.4C355.7,467.1,356.7,466.9,356.9,468z"/>
	<path d="M126.4,197.4c0.3,0.4,0.7,0.3,1.1,0.4c20.3,2.1,34,16.2,39.4,31.7c2.1,6.1,3.2,12.4,2.7,18.9c-0.8,11.8-5.7,21.7-14.6,29.5
		c-2.2,1.9-4.6,3.6-7.1,5.1c-0.5,0.3-1,0.6-1.6,1c0.6,0.4,1.2,0.5,1.7,0.7c6.8,2.1,13,5.2,18.5,9.7c9.9,8,16,18.2,18,30.7
		c3.3,19.8-5.1,39.1-21.7,50.6c-6.8,4.7-14.3,7.7-22.4,9.5c-5.8,1.3-11.7,1.8-17.7,1.8c-40.2,0-80.5,0-120.7,0
		c-0.6,0-1.2,0.1-1.8-0.2c0-63,0-126.1,0-189.2C42.4,197.4,84.4,197.4,126.4,197.4z"/>
	<path class="st1" d="M356.9,468c-0.5-0.5-1.1-0.3-1.7-0.4c-4.2-0.5-8.4-1.4-12.4-2.9c-3.4-1.3-6.5-3-9-5.6
		c-2.7-2.7-4.2-5.9-4.8-9.6c-0.3-1.9-0.4-3.8-0.4-5.6c0-12.3,0-24.6,0-36.9c0-0.3,0-0.7,0-1c0-0.4,0.2-0.6,0.6-0.6
		c0.5,0,0.9,0,1.4,0c8.6,0,17.3,0,25.9,0c0.3,0,0.7,0,1,0c0.8,0,0.9,0.2,0.9,1c0,0.5,0,1.1,0,1.6c0,11.1,0,22.3,0,33.4
		c0,1.3,0,2.7,0.4,4c0.8,2.8,2.6,4.3,5.5,4.7c1.2,0.2,2.4,0,3.6-0.4c1.4-0.5,2.4-1.4,3.1-2.7c0.5-1,0.9-2,0.9-3.1
		c0.1-1.3,0.1-2.6,0.1-3.8c0-10.8,0-21.6,0-32.4c0-2.5-0.1-2.3,2.3-2.3c8.4,0,16.9,0,25.3,0c1.8,0,1.8-0.1,1.8,1.8c0,12,0,24,0,36.1
		c0,3.3-0.5,6.5-1.6,9.5c-1.8,4.7-4.9,8.2-9.3,10.5c-3.5,1.8-7.3,2.9-11.1,3.6c-2.1,0.4-4.1,0.8-6.2,0.9c-0.3,0-0.7,0-0.9,0.3
		C367.2,468,362.1,468,356.9,468z"/>
	<path class="st1" d="M429.1,468c-0.7-0.5-1.4-0.3-2.2-0.3c-4.1-0.3-8.2-0.8-12.2-1.7c-0.5-0.1-0.9-0.2-1.4-0.3
		c-0.9-0.3-1-0.4-1-1.2c0-5.5,0-10.9,0-16.4c0-0.2,0.1-0.4,0.2-0.6c2.6,0.7,5.3,1,8,1.3c7.2,0.7,14.4,0.9,21.6,0.5
		c1.6-0.1,3.2-0.3,4.8-0.7c0.7-0.2,1.4-0.4,2-1c0.4-0.4,0.4-0.9,0.1-1.3c-0.3-0.4-0.6-0.7-1.1-0.9c-0.9-0.5-1.8-0.8-2.9-0.9
		c-1.8-0.2-3.5-0.2-5.3-0.1c-2.8,0.1-5.5,0.2-8.3,0.1c-3.1-0.1-6.2-0.5-9.1-1.5c-3.2-1.1-6-2.8-8.4-5.1c-1.4-1.3-2.2-2.9-2.7-4.7
		c-0.4-1.4-0.5-2.9-0.6-4.4c-0.2-2.4-0.3-4.7,0-7.1c0.6-4.2,2.6-7.6,5.8-10.3c1.9-1.6,4-2.8,6.2-3.7c3.9-1.5,7.9-2.3,12-2.8
		c7.9-1,15.8-0.9,23.7-0.6c4,0.2,8.1,0.5,12.1,1c2.5,0.3,4.9,0.7,7.4,1.3c1,0.2,1.1,0.3,1.1,1.3c0,4.7,0,9.3,0,14c0,0.1,0,0.3,0,0.4
		c0,0.6-0.2,0.8-0.9,0.7c-3.6-0.4-7.2-0.9-10.8-1.3c-5.9-0.7-11.8-1.2-17.8-1.1c-1.4,0-2.8,0.1-4.2,0.5c-1,0.3-1.9,0.6-2.7,1.3
		c-0.9,0.8-1,1.7-0.1,2.6c0.4,0.5,0.9,0.7,1.5,0.9c0.9,0.3,1.8,0.4,2.8,0.4c2.2,0,4.3-0.1,6.5-0.1c2.6,0,5.1-0.1,7.7,0
		c3.4,0.1,6.7,0.9,9.8,2.2c3.8,1.5,6.4,4.1,8.2,7.8c4,8.3,2,18.9-4.8,25.2c-2.4,2.2-5.2,3.6-8.3,4.5c-2.3,0.7-4.6,1.1-6.9,1.3
		c-2.6,0.3-5.2,0.5-7.9,0.5c-2.2,0.4-4.4-0.2-6.5,0.4C439.3,468,434.2,468,429.1,468z"/>
	<path class="st2" d="M897.8,235.9c-0.1,0.1-0.2,0.2-0.3,0.3c-0.8,4.2-3.6,6.6-7.4,8c-6.1,2.1-12.6-2.3-14-7.4
		c-2.3-8.5,4.1-14.9,11.1-14.6c4.3,0.2,7.5,2.3,9.7,6c0.3,0.6,0.6,1.2,0.6,1.9c0,0.3,0,0.7,0.4,0.9
		C897.8,232.7,897.8,234.3,897.8,235.9z"/>
	<path class="st3" d="M444.4,468c0.2-0.1,0.3-0.3,0.5-0.3c2-0.1,4-0.3,6-0.1c0,0.1,0,0.2,0,0.4C448.8,468,446.6,468,444.4,468z"/>
	<path d="M590.2,349.5c-0.2,0.6-0.4,1.1-0.6,1.7c-4.2,11.2-8.5,22.3-12.7,33.5c-0.2,0.4-0.4,0.9-0.5,1.3c-0.2,0.7-0.7,0.9-1.3,1.1
		c-7.8,1.6-15.7,2.9-23.7,3c-5.6,0.1-11.1-0.3-16.4-1.8c-3.7-1-7.2-2.5-10.4-4.8c-5.1-3.7-8.4-8.6-10.3-14.6
		c-0.2-0.6-0.3-1.2-0.5-1.7c-0.1-0.4-0.4-0.3-0.6-0.2c-0.4,0.3-0.8,0.7-1.2,1.1c-6.4,5.9-13.3,11-21.1,14.9
		c-6.5,3.2-13.3,5.5-20.6,6.4c-14.7,1.7-27.9-1.8-39.1-11.7c-7.5-6.6-12.3-15-14.9-24.6c-1.4-5.2-2.1-10.4-2.1-15.8
		c0-12.6,0-25.1,0-37.7c0-18.9,0-37.8,0-56.7c0-2.8-0.4-2.4,2.5-2.4c18,0,36.1,0,54.1,0c2.6,0,2.3-0.4,2.3,2.2c0,27.2,0,54.4,0,81.6
		c0,2.2,0.2,4.5,0.8,6.6c1.8,6.4,7.2,10.6,13.8,10.9c3.8,0.2,7.4-0.6,10.8-2.3c4.4-2.2,8.1-5.4,11.1-9.2c2.2-2.7,2.2-2.7,2.2-6.2
		c0-27.1,0-54.1,0-81.2c0-2.8-0.3-2.4,2.3-2.4c18,0,35.9,0,53.9,0c2.5,0,2.2-0.3,2.2,2.3c0,29.9,0,59.8,0,89.7c0,2.2,0,4.3,0.5,6.5
		c0.6,3,1.7,5.7,4.2,7.7c2.1,1.7,4.6,2.5,7.2,2.8c2.2,0.3,4.4,0.4,6.7,0.1C589,349.3,589.6,349.2,590.2,349.5z"/>
	<path d="M261.6,313.2c-0.3-0.7-0.2-1.3-0.2-1.8c0-15.5,0-30.9,0-46.4c0-0.2,0-0.4,0-0.6c-0.1-0.9,0.3-1.5,0.9-2.1
		c6-6,12.9-10.9,20.5-14.7c8.9-4.5,18.3-7.5,28.1-9.3c6.9-1.3,13.9-1.9,20.9-1.9c10.5,0.1,20.8,1.6,30.8,5.2
		c5.7,2.1,11.1,4.8,16,8.5c5.4,4.1,9.7,9,12.6,15.1c2.1,4.4,3.3,9.1,3.5,14c0.1,1.2,0.1,2.4,0.1,3.6c0,15.5,0,31.1,0,46.6
		c0,2.5,0.1,5,0.7,7.4c1,4.8,3.9,7.8,8.6,9.2c2.1,0.6,4.2,0.9,6.4,1.1c0.5,0,1-0.1,1.4,0.3c-0.6,2.5-1.3,5.1-1.9,7.6
		c-2.5,9.8-5.1,19.6-7.7,29.4c-0.6,2.3,0,1.9-2.6,2.2c-5.5,0.5-11,0.8-16.6,0.7c-5.7-0.2-11.4-0.7-17-2.3c-4.5-1.3-8.6-3.3-12.1-6.4
		c-0.8-0.7-1.6-1.5-2.3-2.2c-0.5-0.5-0.6-0.5-1.2-0.1c-1.9,1.3-3.9,2.4-5.9,3.5c-5,2.5-10.2,4.5-15.6,6.1c-10.5,3.1-21.2,4.5-32.2,4
		c-7.1-0.3-14.1-1.6-20.7-4.4c-2.7-1.2-5.2-2.6-7.5-4.4c-4.6-3.6-7.9-8.1-9.7-13.6c-2.2-6.6-2.6-13.3-1.2-20.2
		c1.3-6.6,4.5-12.2,9.1-17.1c4.3-4.6,9.5-8,15.1-10.7c5.7-2.8,11.6-4.8,17.6-6.5c6.3-1.7,12.7-3.3,19-4.9c3.8-1,7.5-2.1,11.1-3.7
		c2.2-1,4.4-2.1,6.3-3.7c2.1-1.7,3.6-3.8,4.3-6.4c0.4-1.6,0.5-3.2,0.2-4.8c-0.4-2.5-1.9-4.2-4.3-5.3c-1.9-0.8-3.9-1.1-5.9-1.2
		c-3.6-0.1-7.1,0.5-10.6,1.4c-7.2,1.7-14,4.3-20.8,7.3c-12.4,5.6-24.1,12.4-35.2,20.2C262.9,312.3,262.3,312.7,261.6,313.2z"/>
	<path d="M733.1,335.8c0.3,0.3,0.3,0.5,0.3,0.8c0,11.3,0,22.5,0,33.8c0,0.7-0.2,1.2-0.8,1.7c-6.4,5.4-13.3,9.9-21.3,12.6
		c-3.9,1.4-7.9,2.2-12,3c-10.4,1.9-20.9,2.6-31.5,2.1c-13.6-0.7-26.8-3.4-39.1-9.3c-15.2-7.3-27-18.1-35-33
		c-4.3-7.9-6.9-16.4-8-25.3c-1.1-8.8-1-17.5,0.8-26.2c2.8-13.6,9.1-25.3,18.7-35.3c10.3-10.7,22.7-17.7,36.9-21.6
		c5.5-1.5,11.1-2.5,16.7-2.7c24.6-1,44.8,7.9,60.1,27.4c7.5,9.5,12,20.4,14.1,32.3c1.1,6.5,1.5,13,0.9,19.6
		c-0.2,1.9-0.3,3.8-0.4,5.7c-0.1,1.3-0.1,1.3-1.5,1.3c-0.5,0-0.9,0-1.4,0c-27.9,0-55.9,0-83.8,0c-0.4,0-0.8,0-1.2,0
		c-2.3,0-2.1-0.2-2,2.1c0.3,6,2.2,11.5,6.2,16.1c3,3.4,6.6,5.9,10.8,7.7c4.2,1.8,8.6,2.8,13.1,3.3c9.7,1.1,19.1-0.2,28.4-2.7
		c10.4-2.8,20.1-7.1,29.4-12.4C732,336.4,732.5,335.9,733.1,335.8z"/>
	<path d="M803.9,264.4c0.3-0.6,0.5-1.2,0.8-1.8c2.1-5,4.8-9.5,8.6-13.3c5.2-5.3,11.5-8.6,18.8-10.1c7.7-1.6,15.3-1.2,22.9,0.6
		c8,1.9,15.5,5.1,22.5,9.4c0.3,0.2,0.6,0.3,0.9,0.5c0.6,0.4,0.6,0.5,0.3,1.2c-2.5,5.7-5.1,11.3-7.6,17c-5.5,12.4-11,24.8-16.6,37.1
		c-0.3,0.6-0.6,1.2-0.8,1.8c-0.6,0.1-0.9-0.4-1.3-0.6c-3.1-2.4-6.3-4.6-9.8-6.4c-3.5-1.8-7.2-3.1-11.1-3.7
		c-5.4-0.7-10.3,0.5-14.8,3.6c-2.6,1.8-4.6,4.1-6.4,6.7c-3.1,4.5-5,9.5-6,14.9c-0.5,2.5-0.7,4.9-0.7,7.4c0,18.5,0,37,0,55.5
		c0,0.5,0,1.1,0,1.6c0,0.8-0.1,0.9-1,0.9c-0.4,0-0.8,0-1.2,0c-18.6,0-37.3,0-55.9,0c-2.5,0-2.2,0.3-2.2-2.3c0-47.3,0-94.5,0-141.8
		c0-0.1,0-0.3,0-0.4c0-2.2-0.1-2,2-2c18.8,0,37.7,0,56.5,0c0.5,0,0.9,0,1.4,0c0.2,0,0.4,0.1,0.4,0.4c0,0.5,0,1.1,0.1,1.6
		c0,6.6,0,13.2,0,19.8c0,0.7,0,1.3,0,2C803.7,264.3,803.8,264.3,803.9,264.4z"/>
	<path d="M247.5,292.6c0,30.5,0,61,0,91.6c0,0.8,0.4,1.8-0.2,2.3c-0.6,0.6-1.7,0.3-2.5,0.3c-17.4,0-34.7,0-52.1,0
		c-2.6,0-2.3,0.2-2.3-2.3c0-61.2,0-122.5,0-183.7c0-2.7-0.3-2.4,2.3-2.4c17.5,0,35,0,52.5,0c2.5,0,2.2-0.3,2.2,2.3
		C247.5,231.3,247.5,261.9,247.5,292.6z"/>
	<path class="st1" d="M482.4,466.8c-0.2-0.4,0-0.7,0.1-1c2.6-8.4,20.1-58.7,21-60.5c0.6,0,1.3,0,2,0c14.6,0,29.2,0,43.7,0
		c2.5,0,2.1-0.4,2.8,2.1c5.9,19.1,11.9,38.3,17.8,57.4c0.2,0.6,0.4,1.2,0.5,1.8c-0.6,0.5-1.2,0.3-1.7,0.3c-8.6,0-17.3,0-25.9,0
		c-0.9,0-1.9,0-2.8,0c-0.6,0-1-0.2-1.2-0.8c-0.6-1.7-1.1-3.3-1.7-5c-0.8-2.3-0.3-2-2.8-2c-5.3,0-10.5,0-15.8,0
		c-0.9,0-1.3,0.3-1.6,1.1c-0.7,1.9-1.4,3.8-2.1,5.7c-0.2,0.7-0.6,1-1.3,1c-0.3,0-0.7,0-1,0c-9.3,0-18.6,0-27.9,0
		C483.7,467,483,467.1,482.4,466.8z"/>
	<path d="M810.9,354.3c0.1-19.3,15.7-34.5,34.6-34.5c18.8,0,34.5,15.3,34.4,34.7c-0.1,20.2-16.5,34.3-34.5,34.3
		C827.1,388.6,810.9,374,810.9,354.3z"/>
	<path class="st4" d="M66.6,330.1c0-6.9,0-13.8,0-20.7c0-0.5,0-1.1,0-1.6c0-0.4,0.2-0.6,0.6-0.6c0.2,0,0.4,0,0.6,0
		c7.3,0,14.6-0.1,21.9,0c4.7,0.1,8.8,1.9,12.2,5.2c1.5,1.5,2.8,3.1,3.7,5c4,8,4.4,16.2,0.9,24.4c-1.2,2.9-3.1,5.4-5.5,7.4
		c-3.4,2.8-7.4,4-11.8,4.1c-7,0-14,0-21.1,0c-0.3,0-0.5,0-0.8,0c-0.5,0-0.8-0.2-0.8-0.7c0-0.5,0-1.1,0-1.6
		C66.6,344,66.6,337.1,66.6,330.1z"/>
	<path class="st4" d="M66.6,246.7c0-6.3,0-12.7,0-19c0-0.5,0-1.1,0-1.6c0-0.5,0.2-0.8,0.7-0.8c0.3,0,0.7,0,1,0c4.7,0,9.3,0,14,0
		c1.8,0,3.6,0.2,5.4,0.7c4.2,1.1,7.4,3.5,9.9,7c1.9,2.7,3,5.7,3.6,8.9c0.9,4.8,0.6,9.5-1.1,14.2c-0.7,2-1.7,4-3.1,5.7
		c-3.3,4.3-7.8,6.6-13.2,6.8c-5.3,0.1-10.7,0-16,0c-0.2,0-0.4,0-0.6,0c-0.4-0.1-0.6-0.3-0.6-0.7c0-0.5,0-1.1,0-1.6
		C66.6,259.7,66.6,253.2,66.6,246.7z"/>
	<path class="st5" d="M891.8,226.1c4.1,2.3,5.2,8.3,2.6,12c-0.1-0.1-0.2-0.1-0.3-0.2c-0.3-0.3-0.6-0.4-0.8,0.1
		c-0.2,0.6-0.3,1.2-0.6,1.7c-0.1,0.3-0.7,0.3-0.8,0c-0.1-0.2-0.2-0.5-0.3-0.7c-0.2-0.6-0.3-1.2-0.4-1.8c-0.6-2.4-0.6-2.4-2.2-3.9
		c0.4-0.2,0.9-0.3,1.3-0.5c2.5-1.2,3.1-3.6,1.4-5.8c-0.1-0.2-0.2-0.3-0.4-0.5C891.4,226.2,891.4,225.9,891.8,226.1z"/>
	<path class="st0" d="M882.1,233.6c0,1.8,0,3.6,0,5.5c0,0.4,0.1,0.8-0.4,1c-0.5,0.2-0.9-0.1-1.2-0.4c-0.8-0.9-1.5-1.8-1.9-2.8
		c-1.3-3.4-0.8-7,2.2-9.8c0.3-0.3,0.6-0.3,0.9-0.2c0.4,0.1,0.5,0.4,0.5,0.8C882.1,229.5,882.1,231.6,882.1,233.6
		C882.1,233.6,882.1,233.6,882.1,233.6z"/>
	<path class="st6" d="M883.3,241.2c0.9,0,1.9,0,2.8,0c0.2,0,0.6,0,0.6-0.4c0-0.5-0.3-0.5-0.7-0.5c-0.3,0-0.7,0-1-0.1
		c-0.3-0.1-0.6-0.3-0.6-0.7c-0.1-0.7,0-4.6,0.2-5.7c0.6,0,1.2,0,1.8,0c1,0.1,1.7,0.6,2.1,1.6c0.3,0.7,0.3,1.4,0.4,2.2
		c0.1,1.4,0.2,2.7,1.2,3.8c0.2,0.2,0,0.4-0.1,0.5C887.7,242.7,885.5,242.6,883.3,241.2z"/>
	<path class="st7" d="M884.5,229.8c0-0.8,0-1.6,0-2.4c0-0.4,0.4-0.8,0.8-0.8c1-0.1,2-0.2,3,0.1c1.1,0.3,1.8,1,1.9,2.1
		c0.1,0.5,0.1,1.1,0,1.6c-0.1,0.9-0.6,1.5-1.4,1.8c-1.2,0.5-2.5,0.6-3.8,0.4c-0.3,0-0.5-0.3-0.5-0.5
		C884.4,231.3,884.5,230.6,884.5,229.8C884.5,229.8,884.5,229.8,884.5,229.8z"/>
	<path class="st8" d="M891.8,226.1c-0.2,0.1-0.3,0.2-0.5,0.4c-1-0.7-2.2-0.9-3.4-0.9c-1.4,0-2.8,0-4.2,0c-0.2,0-0.3-0.1-0.2-0.3
		c0-0.1,0.1-0.3,0.2-0.3C886.5,224.1,889.3,224.2,891.8,226.1z"/>
	<path class="st4" d="M335.7,330.6c0,0.9,0,1.5,0,2.1c0,8.1,0,16.2,0,24.3c0,0.4,0,0.8,0,1.2c0,0.4-0.2,0.7-0.5,0.8
		c-3.5,2.2-7.1,3.9-11.3,3.8c-2.9,0-5.4-1-7.6-2.9c-3.8-3.4-5.5-7.8-5.1-12.9c0.2-2.6,1.4-4.8,3.2-6.6c1.9-2,4.2-3.4,6.6-4.6
		c3.7-1.8,7.5-3.3,11.5-4.4C333.5,331.2,334.4,331,335.7,330.6z"/>
	<path class="st4" d="M643.5,290.8c0.8-5.7,2.5-10.9,6.7-15.1c6.3-6.3,15.9-6.4,22.4-0.2c3.2,3,5,6.8,6,11c0.1,0.5,0.2,0.9,0.3,1.4
		c0.4,3.7,0.9,3.1-2.5,3.1c-10.2,0-20.4,0-30.6,0C645.1,291,644.3,291.1,643.5,290.8z"/>
	<path class="st9" d="M527.4,422.3c1.6,6.7,3.1,13.1,4.6,19.7c-1.2,0.3-2.3,0.1-3.5,0.2c-1.1,0-2.2,0-3.2,0c-1.1,0-2.3,0-3.3,0
		c-0.2-0.5-0.1-0.9,0-1.3C523.8,433.5,526.5,424,527.4,422.3z"/>
</g>
</svg>
