<?xml version="1.0" encoding="utf-8"?>
<!-- Generator: Adobe Illustrator 21.1.0, SVG Export Plug-In . SVG Version: 6.00 Build 0)  -->
<svg version="1.1" id="Layer_1" xmlns="http://www.w3.org/2000/svg" xmlns:xlink="http://www.w3.org/1999/xlink" x="0px" y="0px"
	 viewBox="0 0 900 596" style="enable-background:new 0 0 900 596;" xml:space="preserve">
<style type="text/css">
	.st0{fill:#FEFEFE;}
	.st1{fill:#231F20;}
	.st2{fill:#252122;}
	.st3{fill:#CFCECE;}
	.st4{fill:#B4B3B3;}
	.st5{fill:#BAB9B9;}
	.st6{fill:#FDFDFD;}
	.st7{fill:#F2F2F2;}
</style>
<g>
	<path class="st0" d="M451.4,429.3c-148.3,0-296.6,0-444.9,0.1c-3.5,0-4-1-4-4.1c0.1-83.7,0.1-167.3,0-251c0-3.5,1-4,4.1-4
		c296.5,0.1,592.9,0.1,889.4,0c3.9,0,4.4,1,4.4,4.6c-0.1,83.5-0.1,167,0,250.5c0,3.5-1,4-4.1,4C748,429.3,599.7,429.3,451.4,429.3z"
		/>
	<path class="st1" d="M681.7,344.1c-11,8.6-21.8,17.7-33.6,25.3c-5.7,3.7-11.5,7.5-18.6,8.3c-4,0.4-8.2,0.6-10.7-3.1
		c-2.4-3.6-1.5-7.7,0.2-11.3c3.8-7.8,10.5-13.2,16.4-19.3c3.9-4,7.6-8.3,11.2-12.2c-2.9,0.1-6.6,0.5-10.3,0
		c-1.6-0.2-2.5,1.3-3.6,2.2c-15.5,13.5-31.7,26.3-48.3,38.5c-3.8,2.8-7.6,6-13,5.3c-4.7-0.6-6.3-2.4-6.4-7.2c0-3.7,1.6-7,3.1-11.2
		c-6.5,5-12,9.7-18.3,13.3c-4.7,2.7-9.6,4.8-15.2,5.1c-8,0.5-12-3.1-12.3-11.1c-0.1-3.1,0.7-6,1.6-9.4c-7.7,5.8-14.6,11.7-22.4,16.4
		c-3.1,1.9-6.3,3.7-10,4.1c-7.5,0.9-11.8-3.4-10.8-10.9c0.6-4.9,3.1-8.7,6.2-12.3c5.1-5.9,11.5-10.3,17.4-15.4
		c2.2-1.9,4.5-3.8,5.9-6.4c1-1.8,1.1-3.6-0.2-5.3c-1.3-1.6-2.9-1.6-4.7-1.1c-5.6,1.5-10.4,4.6-15.1,7.7
		c-17.2,11.4-32.9,24.7-48.2,38.6c-3.2,2.9-6.3,4.3-10.5,3.9c-2.7-0.3-5.4-0.1-9.3-0.1c9.1-8.4,17.3-16,25.5-23.6
		c5.2-4.9,10.6-9.6,15-15.3c1.4-1.8,2.9-3.7,3.4-6c0.8-4.1-1.4-6.2-5.4-5.2c-5,1.2-9.4,4-13.6,6.8c-17.3,11-33.2,23.9-48.5,37.4
		c-4.9,4.3-9.8,7-16.4,6c-1.6-0.2-3.2,0-5,0c0-1.8,1.5-2.4,2.5-3.3c10.5-9.7,21.2-19.3,31.7-29c3.8-3.5,6.8-7.6,8.6-12.5
		c0.6-1.7,1.1-3.5-0.4-4.9c-1.7-1.7-3.3-0.2-4.7,0.6c-9.4,5.7-17.8,12.8-26.4,19.5c-11.2,8.6-22.1,17.8-33.9,25.6
		c-3.6,2.4-7.4,4.7-11.9,5.2c-7.7,0.9-11.7-4.1-9.3-11.3c1.4-4.2,4-7.6,5.7-11.8c-3.5,2.9-7.1,5.7-10.6,8.6
		c-4.5,3.7-8.8,7.7-14,10.5c-3.1,1.7-6.3,3.2-9.7,3.8c-4.8,0.9-9.5,0.8-12.6-3.7c-3-4.4-1.9-9,0.5-13.2c3.6-6.5,9.2-11.2,14.5-16.3
		c0.9-0.9,1.9-1.8,2.9-2.7c0.4-0.6,0.9-1.1,1.3-1.7c-0.6,0.6-1.5,0.4-2.1,0.9c-12.3,9.3-24.5,18.7-37,27.8c-5.7,4.2-11.5,8.6-19,9.3
		c-9.4,0.9-14.3-4.8-12-14c2.3-8.8,8.3-15.2,13.6-22.1c0.3-0.6,0.5-1.3,0.9-1.8c-0.6,0.3-1.2,0.6-1.9,0.9c-3.1,2.4-5.8,5.2-8.5,8.1
		c-18,19.5-40.2,29.7-66.9,28.7c-10.6-0.4-14.7-8.4-9.7-17.9c2.8-5.4,7.1-9.6,11.9-13.3c12.7-9.7,26.8-16.5,42.4-20.1
		c0.9-0.2,1.7-0.4,2.6-0.5c1.1-0.1,2.6-0.7,2.7,1.1c0.1,1.4-1.4,1.3-2.3,1.4c-7.8,1.3-15.3,3.8-22.4,7.2
		c-10.4,4.9-19.9,11.1-27.4,20c-1.8,2.1-3.3,4.5-4.4,7c-2.8,6.8,0.1,11.2,7.4,11.5c4.5,0.2,8.8-0.6,12.8-2.3
		c24.9-10.7,44.1-27.7,57-51.6c3.4-6.2,4.1-12.7,0.4-19.2c-1.2-2.1-2.3-3.2-5.1-2.5c-5.4,1.3-10.9,2-16.5,0.3
		c-3.4-1-6.6-2.7-6.2-6.8c0.5-4.2,4.1-5.4,7.8-5.6c6.1-0.3,11.5,1.8,16.2,5.6c1.7,1.4,3,1.7,5.1,0.7c18-9.1,32.2-22.2,41.4-40.2
		c4.1-8.1,5.6-16.6-0.2-24.9c-1.7-2.5-2.7-3.1-5.6-1.1c-25.3,17.1-46.5,38.5-65.6,62.2c-12.9,16.1-25.6,32.3-41.5,45.7
		c-23.8,20.1-50.3,34.9-81.1,41.2c-17.7,3.6-35.4,3.9-52.9-1.3c-6.4-1.9-12.4-4.6-16.8-9.8c-3.2-3.7-4.1-8.1-2.2-12.7
		c1.6-3.9,4.7-6.3,9-6.6c3.8-0.3,6.9,1.1,8.8,4.5c1.6,2.8,1.3,5.7-0.6,8.3c-2.3,3.3-5.7,3.7-9.4,2.9c-0.7-0.1-1.3-0.5-2.5-0.9
		c1.8,4.7,5.4,6.6,9,8.2c13.6,6,27.9,6.9,42.5,5.6c30.2-2.7,54-18,75.8-37.7c17.1-15.4,31.6-33.3,47.6-49.7
		c23-23.6,47.9-45,76.1-62.4c3.3-2.1,3.5-3,0.3-5.5c-14.9-11.5-32.1-17.4-50.4-19.5c-39.9-4.7-78.7,0-115.6,16.5
		c-20.2,9.1-37.5,22-49.1,41.5c-5.1,8.6-7.7,18.1-6.1,28.1c1.7,10.8,8.9,17.5,18.6,21.5c14.6,5.9,29.4,5.2,44.2,1
		c23.9-6.7,46-16.9,64-34.5c4.3-4.2,7.9-9,9.7-14.9c2.5-8.1,0.1-14.8-7-19.3c-9.3-5.8-19.4-5.8-29.7-3.8
		c-22.5,4.2-40.5,16.6-56.8,32c-6.8,6.4-13,13.5-18.6,21c-0.5,0.7-0.7,2.2-2.2,1.4c-1.5-0.9-0.8-1.9,0-2.9
		c18.1-24,39.2-44.1,68.8-53.2c10.9-3.4,22.1-4.6,33.3-1.3c15.6,4.7,21.4,17.6,14.3,32.2c-5.5,11.4-14.5,19.7-24.6,26.9
		c-22.5,15.8-47.2,24.7-75.1,23.4c-8.8-0.4-17.4-1.9-25.4-5.9c-15-7.4-21-21.1-17-39c4-18,15.1-31,29.4-41.7
		c20-15,42.8-23.6,67-28.8c30.6-6.5,61.3-8.4,92.1-1.3c15.3,3.5,29.5,9.4,41.2,20.1c2,1.8,3.2,1,4.9-0.1
		c8.5-5.4,17.1-10.6,26.5-14.4c1-0.4,2.6-2.3,3.6,0c1,2.2-1.2,2-2.3,2.5c-9.2,3.9-17.4,9.4-25.8,14.8c-1.9,1.2-1.8,1.9-0.6,3.6
		c13.7,20.1,10.4,40.9-8.8,55.9c-10.2,7.9-21.9,12.7-34.5,16.4c8,12.8,7.8,26.1,3.2,40.2c5.8-5.3,11.7-10.6,17.5-15.9
		c19.4-18,37.4-37.5,57.2-55c12.4-10.9,25.1-21.5,39.9-29.1c5.5-2.8,11.2-5,17.4-5.5c7.1-0.5,10.7,3.9,8.8,10.7
		c-2.3,8.2-8,14.2-14.1,19.7c-23.6,21.5-51.3,36.3-80.7,48.2c-2.7,1.1-4.8,2.5-6.7,4.6c-13.4,14.1-27,28-39.4,42.9
		c-2.5,3-5,6.1-6.7,9.7c-1,2.2-2,4.4-0.2,6.6c1.9,2.3,4.5,2.7,7.2,1.9c2.3-0.8,4.6-1.8,6.8-3c10.1-5.6,19.3-12.6,28.2-19.9
		c10.9-8.9,22.3-17,33.6-25.3c1.6-1.2,3.2-1.8,5.2-1.8c3.6,0.1,7.2,0,11.4,0c-1.2,2.3-2.9,3.4-4.3,4.8
		c-11.1,10.8-22.3,21.5-33.4,32.3c-1.7,1.6-3.2,3.5-4.5,5.4c-1.1,1.7-2.3,3.6-0.8,5.7c1.4,2,3.6,2.5,5.9,2.1
		c3.7-0.6,6.9-2.1,10.1-4.1c11.9-7.3,22.1-16.7,32.4-26c6-5.4,11.9-10.8,17.5-16.5c2.7-2.7,5.4-4.1,9.3-3.7c2.9,0.3,5.8,0.1,9.8,0.1
		c-5.3,5.5-9.8,10.2-14.4,15c-8,8.3-16,16.6-24,24.9c-1,1.1-2,2.1-2.9,3.3c-1.3,1.7-3.2,3.5-1.4,5.8c1.7,2.2,4,1.4,6,0.5
		c5.3-2.2,9.9-5.5,14.6-8.8c13.6-9.7,26.1-20.7,39.4-30.8c4.8-3.6,9.5-7.3,14.9-10c3.1-1.6,6.4-2.5,9.5-0.2c3.1,2.3,3.1,5.8,2.6,9.2
		c-0.8,5.3-4.1,9.5-6.9,14c2.1,0.6,3-1.1,4.2-1.9c9.5-7,19-14.2,29.6-19.5c3.4-1.7,6.9-3.2,10.8-3c6.5,0.2,9.9,4.7,8.1,10.9
		c-1.3,4.7-4.5,8.4-6.9,12.8c1.7,0.7,2.4-0.7,3.3-1.4c9.2-6.8,17.9-14.1,28.2-19.2c3.3-1.6,6.7-3,10.4-3.2
		c7.4-0.4,11.4,4.4,9.8,11.8c-1.1,5.3-4.3,9.3-7.9,12.9c-5.2,5.1-10.8,9.8-16.1,14.8c-1.7,1.6-3.2,3.4-4.6,5.2
		c-1.2,1.6-2.5,3.5-0.8,5.5c1.5,1.8,3.5,1.9,5.6,1c1.7-0.8,3.6-1.3,5.2-2.3c12.1-7.6,23.8-15.8,33.9-26.2
		c11.7-11.9,26-19.1,42.3-22.4c1.7-0.4,3.5-0.3,5.2-0.4c8.3-0.1,10.4,1.9,11,11.9c5.2-9.7,12.5-12.6,21.9-9.8c-8,8-16.1,16-24,24.2
		c-5.7,5.9-11.3,11.8-15.6,18.9c-1,1.7-2.7,3.6-0.9,5.5c1.8,1.8,3.9,0.4,5.6-0.5c11.7-6.7,22-15.5,32.4-23.9
		c6.9-5.6,13.4-11.7,20.2-17.5c1.8-1.5,2.3-2.6,0.8-4.9c-3.1-4.7-1.1-10.5,3.5-11.3c3.1-0.6,5.8,0.2,7,3.7c1.1,3.3-0.4,5.3-3.3,6.7
		c-0.9,0.4-1.9,0.7-2.9,1.1c4.2,2.9,7.5,3,14.3,0.8c2.5-0.8,9.7,3.6,10,6.1c0.1,1.4-1.2,1.9-2,2.7c-9.8,9.8-19.7,19.6-29.5,29.4
		c-0.6,0.6-1.3,1.2-1.8,2c-1.1,1.6-3.4,3-2,5.3c1.4,2.4,4.1,2,6.4,1.5c4.4-1,8.4-3.2,12.3-5.5c15.6-9.1,29.1-21,43-32.4
		c2.3-1.9,4.5-3.7,6.7-5.6c8.9-7.4,8.9-7.4,21.7-6.2c-4.1,4.4-7.8,8.5-11.6,12.6c-8.5,9.2-17.4,18.1-25.4,27.9c-1.8,2.3-5,4.9-2.9,8
		c2.4,3.4,6,1.1,8.8-0.1c11.4-5.2,21-13.1,30.8-20.7c10.1-7.9,19.9-16.3,30.7-23.3c3.2-2.1,6.4-4.1,10-5.4c3.3-1.1,6.6-1.2,9.4,1.5
		c2.7,2.6,2.5,5.9,1.5,9c-1,3.2-2.6,6.2-5,8.8c2,1.1,3-0.6,4.1-1.4c6.8-5.3,13.6-10.6,21.3-14.6c4.6-2.4,9.3-4.3,14.6-3.9
		c6.8,0.6,10.4,5.7,8.3,12.3c-1.9,5.8-6.2,9.9-10.5,13.8c-5.1,4.6-10.5,8.9-15.7,13.3c-2.2,1.9-4.3,4-5.5,6.7
		c-0.7,1.5-0.6,2.8,0.4,4.1c1.1,1.4,2.6,1.9,4.3,1.3c3-0.9,5.7-2.3,8.2-4c12-7.8,23.7-15.9,34-26.1c10.2-10.1,22.4-17.2,36.5-20.7
		c2.4-0.6,4.9-0.8,7.4-0.7c4.5,0.2,6.8,3.4,5.6,7.8c-1.2,4.2-4.1,7-7.5,9.4c-10,6.8-21.5,9.6-33.1,11.9c-6.4,1.3-14,10.1-14.2,16.6
		c-0.1,3.7,3.1,6.4,7.5,6.2c5.2-0.3,10-2.2,14.6-4.3c11.6-5.4,22-12.6,32-20.5c0.8-0.6,1.6-1.3,2.4-1.9c0.8-0.6,1.4-0.2,1.8,0.4
		c0.4,0.6,0.2,1.1-0.3,1.5c-0.2,0.2-0.5,0.4-0.7,0.5c-12.7,9.6-25.1,19.6-40.5,24.8c-3.8,1.3-7.6,2-11.6,1.7
		c-8-0.6-12.3-7.1-10.5-15.8c0.3-1.3,0.6-2.5,1.1-4.8c-4.7,3.5-8.7,6.4-12.6,9.3c-5.1,3.7-10.2,7.3-16,9.9
		c-3.6,1.6-7.3,2.4-10.8-0.3c-3.4-2.7-2.8-6.6-2.1-10.2c1.2-5.6,4.4-10.1,8.3-14.2c4.4-4.7,9.5-8.6,14.4-12.8c2.2-1.9,4.4-3.9,6.3-6
		c1.3-1.4,2.4-3.2,1-5.1c-1.2-1.6-3-2.1-5.1-1.8c-5.4,0.9-10.2,3.4-14.8,6.2c-10.8,6.7-20.6,14.9-30.1,23.3
		c-7.5,6.6-15.6,12.3-22.4,19.6c-0.9,0.9-1.8,1.3-3.1,1.3c-4.2-0.1-8.4,0-13.9,0c5.3-5.1,9.9-9.4,14.5-13.8
		c8.9-8.5,17.7-17,26.5-25.6c2-1.9,3.6-4.2,5.2-6.4c0.9-1.1,0.9-2.6,0.1-3.7c-0.9-1.2-2.2-1-3.6-0.6c-3.1,0.9-5.9,2.6-8.5,4.4
		c-16,10.6-30.3,23.4-45.8,34.6c-5.3,3.8-10.7,7.7-16.7,10.4c-6.4,3-12.7,2.8-15.6-0.4c-2.7-3-2.1-9,1.5-15.2
		c3.3-5.6,7.9-10.1,12-15c0.9-2.9,4-3.8,5.3-5.9C686.3,340.9,684.5,343.1,681.7,344.1z"/>
	<path class="st2" d="M735.8,302.4c-0.3,0.3-0.6,0.8-1,1.1c-0.6,0.6-1.3,1.2-2,1.7c-6.9,6.1-6.9,6.1-12.6-1.3
		c-1-1.3-1.3-2.1,0.1-3.1c0.8-0.6,1.4-1.5,2.2-2.1c2-1.7,4-5.6,5.7-4.8c2.9,1.4,4.8,4.9,7.1,7.5
		C735.5,301.6,735.6,301.9,735.8,302.4z"/>
	<path class="st3" d="M681.7,344.1c3-2.7,6-5.4,9.1-8.1c0.3,0.3,0.5,0.5,0.8,0.8c-2.9,2.8-5.9,5.6-8.8,8.3
		C682.4,344.8,682.1,344.4,681.7,344.1z"/>
	<path class="st4" d="M253.7,340.7c1.1-1.5,2.5-2.7,5.2-4.2c-1.6,2.6-2.7,4.1-4.3,5.1C254.3,341.3,254,341,253.7,340.7z"/>
	<path class="st5" d="M308.9,340.6c1.5-1.2,3-2.5,4.6-3.7c0.2,0.2,0.4,0.5,0.7,0.7c-1.5,1.3-2.9,2.5-4.4,3.8
		C309.4,341.2,309.2,340.9,308.9,340.6z"/>
	<path class="st0" d="M300.5,306.1c11.3-12.9,23.2-25.1,35.4-37c9.6-9.4,19.5-18.5,30.5-26.3c5-3.6,10.2-6.9,16.1-8.6
		c1.5-0.4,3.1-0.7,4.7-0.7c4.6,0,6.6,2.7,5.4,7.2c-1.3,4.5-4,8.1-7,11.5c-9.2,10.3-20.4,18.3-31.9,25.8
		C336.9,289,319.5,298.9,300.5,306.1z"/>
	<path class="st0" d="M534.9,375.6c-6.5-0.1-8.5-3.7-5.5-9c4.9-8.8,12.2-15.7,19.6-22.3c7.3-6.5,15-12.6,24.1-16.5
		c3.2-1.4,6.5-2.6,10.1-1.6c3.2,0.9,4.5,3,4.2,6.2c-0.3,3.4-2,6.1-4.1,8.5c-11.1,12.5-23.6,23.4-38.5,31.3
		C541.5,374.1,537.9,375.5,534.9,375.6z"/>
	<path class="st6" d="M832.6,349.4c7.7-6.8,15.3-13.4,23.7-19c2.7-1.8,5.4-3.3,8.6-4.2c2.1-0.5,3.8-0.1,5.1,1.5c1.2,1.5,1,3.4,0,4.9
		c-0.8,1.4-1.7,2.8-2.9,3.8C857,344.6,844.9,347.4,832.6,349.4z"/>
	<path class="st7" d="M243.8,294.7c-5.9,1.4-11.1,1.8-16.2-0.6c-0.9-0.4-2-0.9-1.9-2.1c0.1-1.1,1.3-1.4,2.3-1.6
		C233.8,289,238.6,291.4,243.8,294.7z"/>
</g>
</svg>
