<?xml version="1.0" encoding="utf-8"?>
<!-- Generator: Adobe Illustrator 21.1.0, SVG Export Plug-In . SVG Version: 6.00 Build 0)  -->
<svg version="1.1" id="Layer_1" xmlns="http://www.w3.org/2000/svg" xmlns:xlink="http://www.w3.org/1999/xlink" x="0px" y="0px"
	 viewBox="0 0 900 596" style="enable-background:new 0 0 900 596;" xml:space="preserve">
<style type="text/css">
	.st0{fill:#FEFEFE;}
	.st1{fill:#515151;}
	.st2{fill:#444444;}
	.st3{fill:#4C4C4C;}
	.st4{fill:#BCBCBC;}
	.st5{fill:#B8B8B8;}
	.st6{fill:#474747;}
	.st7{fill:#5A5A5A;}
	.st8{fill:#585858;}
	.st9{fill:#4F4F4F;}
	.st10{fill:#B2B2B2;}
	.st11{fill:#424242;}
	.st12{fill:#CBCBCB;}
	.st13{fill:#525252;}
	.st14{fill:#CECECE;}
	.st15{fill:#8E8E8E;}
	.st16{fill:#B4B4B4;}
	.st17{fill:#ADADAD;}
	.st18{fill:#AEAEAE;}
	.st19{fill:#B1B1B1;}
	.st20{fill:#646464;}
	.st21{fill:#313131;}
	.st22{fill:#C3C3C3;}
	.st23{fill:#959595;}
	.st24{fill:#A9A9A9;}
	.st25{fill:#BBBBBB;}
	.st26{fill:#505050;}
	.st27{fill:#C5C5C5;}
	.st28{fill:#434343;}
	.st29{fill:#C0C0C0;}
	.st30{fill:#494949;}
	.st31{fill:#BEBEBE;}
	.st32{fill:#B3B3B3;}
	.st33{fill:#4A4A4A;}
	.st34{fill:#575757;}
	.st35{fill:#454545;}
	.st36{fill:#343434;}
	.st37{fill:#B0B0B0;}
	.st38{fill:#4B4B4B;}
	.st39{fill:#8B8B8B;}
	.st40{fill:#5D5D5D;}
	.st41{fill:#B5B5B5;}
	.st42{fill:#696969;}
	.st43{fill:#9D9D9D;}
	.st44{fill:#969696;}
	.st45{fill:#A1A1A1;}
	.st46{fill:#5B5B5B;}
	.st47{fill:#A3A3A3;}
	.st48{fill:#979797;}
	.st49{fill:#ABABAB;}
	.st50{fill:#A5A5A5;}
	.st51{fill:#9A9A9A;}
	.st52{fill:#010101;}
	.st53{fill:#3F3F3F;}
	.st54{fill:#CDCDCD;}
</style>
<g>
	<path d="M450.5,0.6c149.3,0,298.6,0,448-0.1c1.7,0,2.1,0.5,2.1,2.9c0,196.8,0,393.5,0,590.3c0,2.4-0.4,2.9-2.1,2.9
		c-298.6-0.1-597.3-0.1-895.9,0c-1.7,0-2.1-0.5-2.1-2.9c0-196.8,0-393.5,0-590.3c0-2.4,0.4-2.9,2.1-2.9
		C151.8,0.6,301.1,0.6,450.5,0.6z"/>
	<path class="st0" d="M70.7,369.8c3.1-0.1,6.3,0.4,9.4-0.8c2.5-1,4.8-2.5,6.3-5.6c0.5-0.7,0.6-1.7,0.9-2.6c0.4-1.7,0.4-3.5,0.4-5.3
		c0-74.5,0-148.9,0-223.4c0-7.5-1.7-10.4-6.9-12c-2.5-0.8-5.1-0.5-7.6-0.5c-1.3,0-1.8-0.4-1.8-2.4c-0.1-8.1-0.1-8.1,5.5-8.1
		c32.5,0,64.9,0.1,97.4-0.1c8.7,0,17.4,0.2,25.9,3.1c9.6,3.2,18.4,8.6,25.9,17.8c2.5,3.1,4.5,6.8,6.5,10.4c0.5,0.7,0.5,1.8,1,2.5
		c3.8,9.2,5.2,19.1,4.5,29.7c-0.7,2.9-0.6,6.1-1.3,9c-1.2,7.9-4.1,14.6-7.7,20.7c-7.3,12.5-16.6,20.9-27.4,26
		c-1.3,0.8-2.8,0.8-4.1,1.8c-1.3,0.5-2.6,1-4.5,1.7c4.9,0.7,9.1,1.7,13.2,3.2c13.1,4.7,25,12.4,33.7,27.5c3.5,6.1,5.9,13.1,7.5,20.7
		c0.4,1.6,0.7,3.1,0.7,4.8c0.5,4.8,1,9.6,1,14.5c0,5.7-0.5,11.2-1.2,16.7c-3.3,19.4-11.9,33-23.8,43c-10.4,8.8-21.7,13.7-33.7,16.1
		c-1.6,0.3-3.1,0.6-4.7,1c-2.4,0.3-4.7,0.9-7.1,0.9c-35.2,0-70.4,0-105.6,0c-2.9,0-3,0-2.9-4.2C70.3,373.9,69.7,371.7,70.7,369.8z"
		/>
	<path class="st0" d="M390.1,386.7c-5.7,0.7-11.3,1.2-17,1c-14.5-0.6-28.3-5.3-41.2-14.4c-25-17.6-42.2-44.8-51.5-81.9
		c-0.5-1.9-0.6-3.9-1.3-5.7c-4.5-21.3-5.3-43-2.7-64.8c1.7-13.8,4.8-27,9.4-39.5c0.7-1.4,1.2-3,1.7-4.5
		c7.2-18.8,17.2-34.2,29.4-46.8c10.1-10.4,21.3-17.7,33.4-22.3c0.5-0.2,1-0.2,1.5-0.4c2-0.7,3.9-1.2,5.9-1.8
		c7.7-2.3,15.4-3,23.2-2.5c16.7,1.2,32.4,7.5,46.8,19.5c17,14.2,30,33.7,39.2,58.4c0.1,0.3,0.1,0.6,0.2,0.9c0.4,1.3,0.8,2.6,1.3,3.9
		c3.3,9.5,5.6,19.4,7.2,29.7c0.5,3.8,0.7,7.6,1.4,11.4c3.9,48.3-6.6,89.5-31.7,123C432.5,367,417.2,378.2,400,384
		c-0.9,0.3-1.7,0.6-2.6,1C395,386.1,392.5,386,390.1,386.7z"/>
	<path class="st0" d="M512.5,367.9c-5.1-2.7-5.1-2.7-5.1-10.2c0-21,0-41.9,0-62.9c0-4.1,0-4.1,3-4.1c4,0,3.9,0.1,4.9,4.7
		c4.7,21.9,12.1,41.7,24.6,56.9c12.8,15.6,28,21.1,44.7,19c8.2-1,16.1-3.7,23.2-9.9c13.2-11.6,17.9-36.5,10.3-55.1
		c-4.2-10.3-10.9-17.1-18.1-22.7c-10.4-8-21.6-13.3-32.5-19.7c-11.5-6.7-23.2-13-33.8-22.5c-10.5-9.4-19-21.4-23.3-38.4
		c-7.2-28.5-0.1-60.7,17.4-78.4c5.7-5.8,11.8-10.6,18.6-13.5c1.3-0.8,2.8-1.1,4.1-1.8c5.8-2.5,11.7-3.5,17.7-4
		c8.4-0.7,16.7,0.8,25,2.1c2.4,0.9,4.9,0.6,7.3,1.8l0,0.1c2.1,0.8,4.2,1.1,6.3,1.8c9.1,2.6,17.9,6.5,26.6,11.2
		c1.4,0.8,1.2,2.2,1.2,3.6c0,15.9,0,31.8,0,47.7c0,3.3,0,6.5,0,9.8c0,1.7-0.4,2.4-1.7,2.5c-5.1,0.3-5,0.4-6-6.3
		c-3-19-8.9-35.6-20.1-47.8c-9.7-10.5-20.8-14.7-32.9-15.2c-2.8-0.1-5.7,0.2-8.5,0.4c-1,0.7-2,1-3.1,0.9c-1.3-0.1-2.5,0.5-3.7,0.9
		c-4.4,2-8.7,4.6-12.1,9.2c-10.6,14.2-9.8,36.9,1.7,49.9c7.5,8.5,16.3,13.5,25.1,18.6c1.1,0.6,2.2,1.3,3.3,1.9
		c1.1,0.9,2.4,1.2,3.6,1.9c9.2,4.4,18.4,9.3,27.4,14.6c0.7,0.5,1.6,0.6,2.3,1.3c6.7,4.7,13.3,9.5,19.4,15.7
		c13.5,13.7,21.9,31.8,24.1,55c2.6,27.4-2.3,51.7-16.8,71.4c-5.1,6.9-11.1,12-17.6,15.9c-0.7,0.5-1.6,0.6-2.3,1.3
		c-6.9,4.2-14.2,6-21.6,7.6c-2.8,1.5-5.8,1.1-8.6,1.3c-8.8,0.6-17.7,0.6-26.5-1.3c-13.3-2.4-26.4-5.7-39.1-11.4
		c-1.3-1.1-2.8-1-4.1-1.9l0,0C515.3,368.7,513.8,368.6,512.5,367.9z"/>
	<path class="st0" d="M779.4,213.6c11.6,6.7,22.6,14.9,31.7,27.4c13.3,18.4,18.2,41,16.7,66.7c-1,16.6-5.1,31.5-12.8,44.2
		c-7.4,12.3-16.9,20.2-27.7,25.3c-3.3,1.6-6.7,2.9-10.2,3.9c-2.4,1.1-4.9,0.9-7.3,1.8c-0.3,0-0.6,0.1-0.9,0.1
		c-2.8,1.5-5.8,1.1-8.6,1.3c-8.7,0.6-17.4,0.6-26.1-1.3c-0.6,0-1.2-0.1-1.7-0.1c-2.7-1-5.5-0.5-8.2-1.8c-14-3.3-27.9-7.6-41.1-15.1
		c-1.2-0.7-1.7-1.6-1.7-3.5c0-23,0.1-45.9,0-68.9c0-2.5,0.6-3,2.2-3c4.6,0,4.6-0.1,6,6.1c4.4,19.8,11,37.7,21.7,52.3
		c13.2,18,29.3,24.6,47.4,22.3c8-1,15.7-3.5,22.6-9.5c17.7-15.4,19.4-48.7,3.6-67.7c-7.9-9.5-17.3-15.4-26.8-20.8
		c-13.8-7.9-27.8-15-41.1-24.4c-9.9-7-19.1-15.5-25.9-28.1c-3.8-7-6.6-14.7-7.8-23.5c-0.6-3-0.7-6.1-1.2-9
		c-2.2-26.8,5.1-47.8,20.1-63.9c7.9-8.4,16.9-13.5,26.4-16.6c0.7-0.2,1.3-0.2,2-0.4c11.6-3,23.1-2.1,34.7,0c0.4,0,0.9,0.1,1.3,0.1
		c1.5,0.3,3,1,4.5,0.9c1.1,0.1,2.1,0.5,3.2,0.8c2,1.3,4.2,1.2,6.3,2c5.2,1.4,10.3,3.3,15.3,5.7c1.3,0.9,2.7,1.4,4.1,1.9
		c2.5,1.2,4.9,2.5,7.4,3.7c1.4,0.6,1.2,2.2,1.2,3.6c0,15.9,0,31.7,0,47.6c0,3.3,0,6.5,0,9.8c0,1.9-0.4,2.8-1.8,2.6
		c-0.3,0-0.6,0-0.9,0c-4.2,0-4.2,0-5-5.8c-0.7-2.5-0.6-5.2-1.3-7.6c-0.7-4.4-2-8.4-3.2-12.6c-0.3-1.4-0.7-2.7-1.3-3.8
		c-4-10.4-9.1-19.5-16.1-26.2c-11-10.6-23.2-14-36.3-13.2c-6.8,0.4-13.3,2.7-19.1,7.9c-10.8,9.7-16.3,37.6-1.2,53.4
		c6.7,7.1,14.1,12.3,21.8,16.6c10.6,5.9,21.3,11.5,32,17.2C777.2,212.8,778.3,213,779.4,213.6z"/>
	<path class="st0" d="M532.8,462.8c3.8,3.3,6.2,7.8,5.9,14.5c-0.3,6.6-3.5,12-8.8,14.4c-2.8,1.3-5.7,1.8-8.6,1.8
		c-5.5,0-10.9-0.1-16.4,0c-1.6,0-2.2-0.4-2.2-2.9c0.1-18.5,0-37.1,0-55.6c0-1.5-0.2-3.1,1.5-3c7.6,0.3,15.1-0.8,22.7,0.8
		c6.8,1.4,10.6,8.1,9.8,17.1c-0.4,4.7-2.5,7.7-5.2,10.2c-0.4,0.7-1,1.1-1.8,1.2c-0.1,0,0.3,0.5,0.2,0.2
		C530.9,461.2,531.8,462.2,532.8,462.8z"/>
	<path class="st0" d="M632.6,481.5c-4.5,10.7-11.6,14-19.9,13.2c-11.8-1.2-18-9.9-19.6-26.5c-0.7-7.8-0.1-15.4,2.2-22.5
		c2.4-7.4,6.5-12.2,12.2-14.1c5.8-1.9,11.6-1.9,17.1,1.8c0.5,0.7,1.3,0.7,1.8,1.3c2.4,1.8,4.1,4.7,5.7,7.7c0.9,1.5,1.3,3.3,1.9,5
		c2.4,10.1,2.4,20.2,0,30.3C633.6,479.1,633.4,480.5,632.6,481.5z"/>
	<path class="st0" d="M360.1,487.9c-9.4-10.5-10.2-44.8,4-54.2c1.1-0.9,2.4-1.2,3.6-1.9c4.7-1.3,9.5-1.6,14.2,0.4
		c7.6,3.3,11.7,11,13.3,21.6c1,6.1,1,12.2,0,18.3c-3.1,19-13.9,24.5-25.8,21.8c-2.7-0.6-5.2-2-7.4-4.2
		C361.2,489.2,360.6,488.5,360.1,487.9z"/>
	<path class="st0" d="M262.9,446.3c6.6-17.5,23.4-17.6,31.6-10.2c3.3,3,5.4,7.1,5.8,12.8c0.1,1.6-0.2,2.4-1.4,2.3
		c-1.1-0.1-2.2-0.1-3.4,0c-2.4,0.2-4.4,0.3-5.6-4.1c-1.8-6.4-6.1-6.7-10.3-5.9c-4.3,0.8-6.9,4.7-8.1,10.4
		c-1.4,6.1-1.4,12.4-0.6,18.7c0.7,1.8,0.6,3.9,1.4,5.7c2,5.7,5.3,8.4,9.7,8.5c2.5,0.1,5.1,0,7.6-0.9c1.3-0.5,1.7-1.4,1.6-3.1
		c-0.2-3,0.9-6.8-0.4-8.9c-1.3-2.1-4-0.6-6-0.6c-1.6,0-2-0.8-2-2.9c-0.1-7.2-0.1-7.2,4.9-7.2c3.7,0,7.3,0.1,11,0c1.4,0,2,0.4,2,2.6
		c-0.1,7.9,0,15.8,0,23.7c0,1.4-0.1,2.6-1.3,3.2c-8.3,4-16.8,5.7-25.3,1.9c-8.9-3.9-12.7-13.5-13.4-26c-0.3-5,0.1-9.9,1-14.7
		C262.1,449.7,262.1,447.8,262.9,446.3z"/>
	<path class="st0" d="M79.6,462.4c0-8.8,0.1-17.7,0-26.5c0-2.7,0.6-3.5,2.4-3.3c1.7,0.2,3.5,0.1,5.2,0c1.5-0.1,2,0.6,1.9,2.7
		c-0.1,6,0,12-0.1,18c0,2.3,0.4,3.1,2.1,3.1c4.5-0.2,9-0.2,13.5,0c1.8,0.1,2.1-0.9,2.1-3.1c-0.1-6,0-12-0.1-18
		c0-2.1,0.4-2.8,1.9-2.7c1.9,0.1,3.9,0.1,5.8,0c1.3-0.1,1.8,0.5,1.8,2.5c0,18.4,0,36.9,0,55.3c0,2-0.6,2.5-1.9,2.5
		c-1.9-0.1-3.8-0.2-5.6,0c-1.6,0.1-2-0.8-2-3c0.1-7,0-13.9,0.1-20.9c0-2-0.3-2.8-1.8-2.7c-4.7,0.1-9.4,0.1-14.2,0
		c-1.4,0-1.8,0.6-1.8,2.5c0.1,7,0,13.9,0.1,20.9c0,2.3-0.4,3.3-2.1,3.1c-1.8-0.2-3.6-0.2-5.4,0c-1.6,0.1-2-0.8-2-2.9
		C79.6,480.7,79.6,471.6,79.6,462.4z"/>
	<path class="st0" d="M190.8,493.7c-8.7,1.3-17.3-4-19.8-15.2c-0.6-2.7-0.9-5.5-0.9-8.4c0-11.6,0-23.1,0-34.7c0-2.3,0.6-2.9,2.1-2.8
		c1.9,0.2,3.8,0.2,5.6,0c1.7-0.2,2.2,0.6,2.2,3c0,12.2,0,24.4,0.1,36.6c0.1,6.3,1.8,10.2,5.4,11.5c4.8,1.7,10.2,0.7,11.7-5.2
		c0.3-1.3,0.4-2.6,0.9-3.9c0.8-12.1,0.3-24.2,0.4-36.3c0-1.2,0.1-2.3,0-3.5c-0.1-1.9,0.5-2.4,1.7-2.3c2.1,0.1,4.2,0.1,6.3,0
		c1.2-0.1,1.7,0.4,1.7,2.2c-0.1,12.3,0,24.6-0.1,36.9c-0.1,9-4,17.6-11.3,20.6C194.8,493.5,192.7,492.9,190.8,493.7z"/>
	<path class="st0" d="M713.7,431.6c5.2,2.5,9.4,6.4,10.7,14.6c0.4,2.4,0.2,3.7-1.8,3.3c-0.7-0.1-1.5-0.1-2.2,0
		c-2.8,0.2-4.8,0.3-5.9-5c-1.6-7.6-10.4-6.5-12.8-2.4c-1.9,3.3-1.4,8,1.3,10.3c3.5,2.9,7.4,3.8,11.2,5.5c2.1,0.9,4.1,1.9,6,3.5
		c8.1,6.8,8.5,21.1,0.7,28.6c-6.8,6.6-18.9,6.3-25.5-0.7c-3.2-3.4-4.6-8.1-5.1-13.6c-0.1-1.6,0.4-2.1,1.4-2c1,0,2.1,0,3.1,0
		c1.4,0,3-0.4,4.2,0.2c1.4,0.8,0.7,3.4,1.2,5.1c2.1,7.4,10.8,9.7,14.7,3.9c2.6-4,1.7-10.2-1.9-12.6c-3.4-2.2-7.1-3.2-10.7-4.9
		c-0.9-0.4-1.7-0.7-2.6-1.1c-4.5-2.6-8.2-6.3-8.5-14c-0.3-7.9,2.7-13.1,7.4-16.7c1.2-0.9,2.5-1.4,3.7-2.1
		C706.2,430.2,710,430.2,713.7,431.6z"/>
	<path class="st0" d="M805.5,431.7c4.8,2.3,8.8,5.8,10.4,13.1c0.2,1,0.3,2.1,0.4,3.1c0.1,1.2-0.2,1.7-1.1,1.7
		c-1.3-0.1-2.6-0.1-3.8,0c-2.4,0.2-4.1,0.3-5-4.4c-1.2-6.7-9.4-8.3-12.8-3.1c-2.2,3.4-1.7,8.1,1.1,10.5c3.5,2.9,7.4,3.8,11.2,5.5
		c2.1,0.9,4.1,1.9,6,3.4c8.2,6.8,8.6,21.6,0.5,28.7c-7.5,6.5-15.4,6.1-23.2,1.1c-3.5-2.2-5.7-6.3-6.7-11.6c0-0.1,0-0.2-0.1-0.3
		c-1-5.1-0.8-5.5,3-5.5c0.6,0,1.2,0.1,1.8,0c2.5-0.3,4.1-0.2,4.8,4.6c1.3,9.3,11.1,9.6,14.4,5c2.9-4.1,2.1-10.5-1.8-13
		c-3.4-2.2-7.1-3.2-10.7-4.8c-1.5-0.7-3-1.3-4.4-2.3c-6.3-4.4-8.3-12.3-5.3-21.3c1-2.5,2.4-4.6,4.1-6.3c1.8-1.8,3.8-3,5.8-3.8
		C798,430.1,801.8,430.2,805.5,431.7z"/>
	<path class="st1" d="M70.7,369.8c-0.6,2.8-0.1,5.6-0.3,8.5c-0.1,1.2,0.3,1.7,1.2,1.6c0.5,0,1,0,1.6,0c32.7,0,65.4,0,98,0
		c4.9,0,9.7-0.4,14.6-0.7c-1.9,0.9-3.9,1.2-5.9,1.2c-35.9,0-71.7,0-107.6,0.1c-1.9,0-2.8-0.7-2.6-3.6c0.1-1.8,0-3.6,0-5.4
		C69.8,370.8,69.7,369.7,70.7,369.8z"/>
	<path class="st2" d="M559.8,383.1c5.8,0.4,11.6,0.9,17.4,1.3c5.9,0.3,11.8-0.6,17.7-1.2c-0.5,0.9-1.2,1.1-2,1.2
		c-10.2,1.3-20.4,0.9-30.6,0C561.4,384.1,560.5,383.9,559.8,383.1z"/>
	<path class="st3" d="M734.4,383.1c5.9,0.4,11.8,0.9,17.7,1.2c5.7,0.3,11.3-0.7,17-1.2c-0.5,1-1.2,1.1-2,1.2
		c-10.1,1.3-20.1,0.9-30.2,0C736,384.1,735.1,384,734.4,383.1z"/>
	<path class="st4" d="M765.5,107.4c-2.9,0.5-5.8-0.4-8.7-0.8c-8.3-1.2-16.5-0.9-24.7,0.9c-0.4,0.1-0.9-0.1-1.3-0.1
		c3.4-1.9,7-1.7,10.5-2.1c7.7-0.9,15.3,0.4,23,1.5C764.7,106.8,765.1,107.2,765.5,107.4z"/>
	<path class="st5" d="M248,319.2c-0.3-3.9,0.7-7.6,0.9-11.5c0.2-6.8-0.3-13.5-0.8-20.3c0.2-0.2,0.3-0.1,0.3,0.1
		c0.9,6.5,1.4,13,1,19.6C249.2,311.3,249.1,315.4,248,319.2z"/>
	<path class="st6" d="M395.1,472.1c0.6-6.1,0.7-12.2,0-18.3c0.6,0.6,0.8,1.5,0.8,2.4c0,4.5,0,9,0,13.4
		C395.9,470.6,395.7,471.5,395.1,472.1z"/>
	<path class="st7" d="M713.7,431.6c-3.8-1-7.5-1-11.3,0c1.5-2.2,3.6-1.4,5.3-1.5C709.7,430.1,711.9,429.5,713.7,431.6z"/>
	<path class="st8" d="M805.5,431.7c-3.8-0.9-7.5-1-11.3,0c1.5-2.2,3.6-1.4,5.3-1.5C801.5,430.1,803.7,429.5,805.5,431.7z"/>
	<path class="st9" d="M724.5,381.2c2.8,0.2,5.5,0.6,8.2,1.8C729.9,382.8,727.1,383,724.5,381.2z"/>
	<path class="st10" d="M477,226.9c-1-3.7-1.4-7.5-1.4-11.4C476.6,219.2,477,223,477,226.9z"/>
	<path class="st11" d="M390.1,386.7c2.4-1,4.8-1.5,7.3-1.8C395.1,386.8,392.6,386.7,390.1,386.7z"/>
	<path class="st12" d="M236.8,181.6c0.3-3.1,0-6.3,1.3-9C238.1,175.7,237.8,178.7,236.8,181.6z"/>
	<path class="st3" d="M769.9,383c2.3-1.2,4.8-1.5,7.3-1.8C774.9,383,772.4,382.9,769.9,383z"/>
	<path class="st13" d="M600.3,109.3c-2.5-0.3-4.9-0.6-7.3-1.8C595.6,107.5,598,107.5,600.3,109.3z"/>
	<path class="st14" d="M682.2,188.3c1.2,2.8,1,6,1.2,9C682.6,194.5,682.2,191.5,682.2,188.3z"/>
	<path class="st15" d="M788.4,435.5c-1.4,2.1-2.7,4.2-4.1,6.3C785,438.8,786.4,436.8,788.4,435.5z"/>
	<path class="st16" d="M780.8,111.2c-2.2,0-4.4-0.4-6.4-1.7c0.1-0.4,0.3-0.5,0.5-0.3C776.9,109.9,779,109.8,780.8,111.2z"/>
	<path class="st17" d="M606.6,111.2c-2.2-0.1-4.4-0.3-6.3-1.8C602.5,109.5,604.6,110,606.6,111.2z"/>
	<path class="st18" d="M357.8,105.6c-1.9,1.2-3.9,1.7-5.9,1.8C353.7,106.1,355.7,105.5,357.8,105.6z"/>
	<path class="st19" d="M190.8,493.7c1.9-0.9,3.9-1.3,5.9-1.3C194.8,493.9,192.8,493.9,190.8,493.7z"/>
	<path class="st20" d="M799.7,172.5c0.9,2.4,1.3,4.9,1.3,7.6C800,177.8,799.9,175.1,799.7,172.5z"/>
	<path class="st21" d="M532.8,462.8c-1.1-0.4-2.2-0.8-3.9-1.5c1.3-0.6,1.9-0.9,2.6-1.3C530.8,461.9,532.6,461.5,532.8,462.8z"/>
	<path class="st22" d="M512.5,367.9c1.5,0,2.9,0.4,4,1.9C515.1,369.5,513.7,369,512.5,367.9z"/>
	<path class="st23" d="M771.3,108.7c-1.6,0.1-3.1-0.1-4.5-1.1c1.6-0.6,3,0.5,4.5,0.7c0.2,0.1,0.2,0.1,0.2,0.3
		C771.4,108.6,771.4,108.7,771.3,108.7z"/>
	<path class="st24" d="M279,285.7c1,1.7,1.4,3.6,1.3,5.7C279.5,289.7,279.2,287.7,279,285.7z"/>
	<path class="st18" d="M550.4,109.4c-1.2,1.5-2.7,1.6-4.1,1.8C547.5,109.9,548.9,109.4,550.4,109.4z"/>
	<path class="st25" d="M800.1,118.8c-1.5,0.1-2.9-0.4-4.1-1.9C797.5,117.1,798.9,117.7,800.1,118.8z"/>
	<path class="st26" d="M771.3,108.7c0-0.2,0-0.3-0.1-0.5c1.3-0.4,2.5,0.1,3.7,1c-0.2,0.1-0.4,0.2-0.5,0.3
		C773.4,109.2,772.3,108.9,771.3,108.7z"/>
	<path class="st27" d="M516.6,369.8c1.5,0.1,2.9,0.3,4.1,1.9C519.2,371.5,517.8,370.9,516.6,369.8z"/>
	<path class="st28" d="M634.1,447.5c-0.9-1.5-1.4-3.2-1.9-5C633.5,443.6,633.9,445.4,634.1,447.5z"/>
	<path class="st29" d="M197.5,230c1.2-1.6,2.6-1.7,4.1-1.8C200.5,229.5,199,229.7,197.5,230z"/>
	<path class="st1" d="M272.3,475.9c-1-1.6-1.3-3.6-1.4-5.7C272,471.8,272,473.9,272.3,475.9z"/>
	<path class="st10" d="M287.5,176.9c-0.2,1.8-0.6,3.4-1.7,4.5C286.1,179.7,286.5,178.1,287.5,176.9z"/>
	<path class="st23" d="M558.4,118.8c1.1-1.1,2.3-1.3,3.6-1.2c0.1,0.2,0.1,0.3,0.1,0.4c-0.1,0.1-0.1,0.1-0.2,0.1
		C560.8,118.5,559.7,119.1,558.4,118.8z"/>
	<path class="st9" d="M367.7,431.8c-1.1,1.1-2.3,1.6-3.6,1.9C365.1,432.1,366.3,431.7,367.7,431.8z"/>
	<path class="st30" d="M262.9,446.3c-0.2,1.8-0.7,3.5-1.4,5C261.5,449.4,261.8,447.6,262.9,446.3z"/>
	<path class="st31" d="M580.1,200.3c-1.4,0-2.7-0.4-3.6-1.9C577.8,198.6,579,199.1,580.1,200.3z"/>
	<path class="st32" d="M779.4,213.6c-1.3,0.2-2.4-0.3-3.1-1.9C777.4,212.1,778.5,212.5,779.4,213.6z"/>
	<path class="st33" d="M562,118.1c0-0.2,0-0.3,0.1-0.5c1-0.2,2.1-0.4,3.1-0.6C564.4,118.8,563.1,118.1,562,118.1z"/>
	<path class="st34" d="M248.4,287.6c-0.1,0-0.2-0.1-0.3-0.1c0-1.5-0.8-2.8-0.5-4.3C248.5,284.4,248.5,286,248.4,287.6z"/>
	<path class="st10" d="M795.2,156.1c1,0.9,1.4,2.2,1.3,3.8C795.7,158.9,795.4,157.5,795.2,156.1z"/>
	<path class="st35" d="M632.6,481.5c0.4-1.3,0.6-2.7,1.4-3.7C634,479.4,633.9,480.9,632.6,481.5z"/>
	<path class="st16" d="M468.5,185.8c-0.8-1-1.3-2.3-1.3-3.9C468,182.9,468.4,184.2,468.5,185.8z"/>
	<path class="st36" d="M198,474.6c0.1,1.5-0.2,2.7-0.9,3.9C197,477,197.1,475.7,198,474.6z"/>
	<path class="st37" d="M616.5,375.4c0.6-1.1,1.3-1.5,2.3-1.3C618.1,374.9,617.4,375.6,616.5,375.4z"/>
	<path class="st38" d="M609.7,216.2c-0.9,0.1-1.6-0.5-2.3-1.3C608.4,214.7,609.2,215.1,609.7,216.2z"/>
	<path class="st39" d="M360.1,487.9c0.8,0.2,1.4,0.8,1.8,1.9C360.9,489.7,360.4,488.9,360.1,487.9z"/>
	<path class="st40" d="M233.5,142.9c-0.6-0.6-0.9-1.4-1-2.5C233.3,140.9,233.6,141.8,233.5,142.9z"/>
	<path class="st41" d="M626.4,434.8c-0.8,0.1-1.4-0.4-1.8-1.3C625.4,433.4,626,433.8,626.4,434.8z"/>
	<path class="st42" d="M87.3,360.9c0.2,1.2-0.1,2-0.9,2.6C86.3,362.3,86.7,361.6,87.3,360.9z"/>
	<path d="M198,332.5c-5.2,15-13.1,25.9-24.2,32.1c-4.9,2.8-10,4.2-15.3,4.3c-8.2,0.1-16.3,0-24.5,0.1c-1.6,0-2.2-0.5-2.2-2.9
		c0.1-41.4,0.1-82.8,0-124.1c0-2.2,0.3-3.2,2.1-3.1c9.4,0.3,18.7-0.2,28.1,0.5c19.2,1.6,34.7,20,38.9,46.6c2.3,14.8,2,29.2-1.9,43.4
		C198.4,330.3,198.4,331.5,198,332.5z"/>
	<path d="M131.8,173.9c0-17.1,0-34.1,0-51.2c0-2.5,0.5-3.2,2.3-3.2c7,0.1,13.9-0.2,20.9,0.1c16,0.8,29.9,12,35.3,34.6
		c7.1,29.4-2,60.1-22.1,70.8c-4.2,2.2-8.5,3.4-12.9,3.4c-7,0-13.9-0.1-20.9,0.1c-1.9,0-2.5-0.6-2.5-3.4
		C131.9,208,131.8,191,131.8,173.9z"/>
	<path class="st43" d="M198,332.5c-0.1-1.3,0.3-2.2,0.9-3.1C199.1,330.6,198.7,331.7,198,332.5z"/>
	<path d="M327.6,303.4c-0.5-2.7-0.9-5.5-1.4-8.2c-0.7-3.3-0.7-6.8-1.3-10.2c-1.5-15.5-2.4-31.1-2-46.8c0.1-5.7,0.4-11.3,0.7-17
		c0.6-4.4,0.5-9,1.3-13.4c0.5-4,1-7.9,1.4-11.9c0.5-2.5,0.7-5.2,1.3-7.7c2.6-13.5,5.7-26.7,10.8-38.9c5.1-12.3,11.4-22.9,20.6-29.5
		c1.5-1.1,3.1-2,4.7-2.9c1.1-0.8,2.4-0.8,3.6-1.3c7.5-2.4,14.8-2,22.1,1.9c1,0.9,2.2,0.8,3.1,1.9c10.8,7.8,17.8,20.8,23.3,35.5
		c3,7.9,5.1,16.2,7.2,24.6c0.5,1.6,0.5,3.4,1,5c0.6,3,1.2,5.9,1.8,8.9c0.4,2.1,0.6,4.2,0.9,6.3c3.8,26.5,4.2,53.2,1.7,79.9
		c-0.9,9.7-2.3,19.2-4,28.7c-0.6,2-0.7,4.3-1.3,6.4c-3.1,12.2-6.5,24.2-12,34.7c-6.1,11.6-13.7,20.5-23.9,24.2
		c-2.1,0.9-4.3,0.8-6.4,1.8c-18.3,2.6-31.4-9-41-29.9c-5-10.9-8.3-22.7-10.7-35.2C328.4,308.1,328.3,305.6,327.6,303.4z"/>
	<path class="st44" d="M324.9,207.9c-0.3,4.5-0.3,9-1.3,13.4C323.6,216.7,323.7,212.2,324.9,207.9z"/>
	<path class="st45" d="M324.9,285c0.9,3.3,1.2,6.7,1.3,10.2C325.1,291.9,325,288.5,324.9,285z"/>
	<path class="st6" d="M380.7,375.4c2-1.7,4.2-1.4,6.4-1.8C385.1,375,382.9,375.4,380.7,375.4z"/>
	<path class="st46" d="M327.6,303.4c1.1,2.1,1.2,4.5,1.3,7C328.1,308.2,327.7,305.8,327.6,303.4z"/>
	<path class="st47" d="M327.6,188.3c-0.1,2.7-0.4,5.3-1.3,7.7C326.4,193.3,326.5,190.7,327.6,188.3z"/>
	<path class="st48" d="M423,314.7c0.1-2.3,0.4-4.5,1.3-6.4C424.1,310.6,423.9,312.8,423,314.7z"/>
	<path class="st49" d="M426.6,199.7c-0.6-2-1-4.1-0.9-6.3C426.5,195.4,426.8,197.5,426.6,199.7z"/>
	<path class="st50" d="M423.9,184.5c-0.6-1.5-1-3.2-1-5C423.8,181,424.1,182.7,423.9,184.5z"/>
	<path class="st51" d="M392.4,119.5c-1.1-0.4-2.2-0.8-3.1-1.9C390.5,117.6,391.6,117.9,392.4,119.5z"/>
	<path class="st48" d="M367.2,115.7c-1.1,0.7-2.3,1.5-3.6,1.3C364.7,115.9,365.9,115.3,367.2,115.7z"/>
	<path class="st52" d="M527.4,470.3c2.1,7,0,12-5.2,13.3c-2.8,0.7-5.7,0.2-8.5,0.4c-1.2,0.1-1.5-0.8-1.5-2.3c0-4.4,0.1-8.8,0-13.3
		c0-1.7,0.5-2.2,1.6-2.1c2.5,0.1,4.9,0.1,7.4,0.1c1.1,0.4,2.3,0.7,3.5,0.9C525.8,467.7,526.8,468.7,527.4,470.3z"/>
	<path class="st52" d="M512.1,449.3c0-7.8,0-7.8,5.5-7.8c1.3,0,2.5-0.1,3.8,0.1c3.2,0.5,5.1,3.1,5.3,7.1c0.2,4.2-1.6,7.5-4.7,8.1
		c-2.9,0.5-5.8,0.2-8.7,0.3c-0.9,0-1.1-0.7-1.1-1.8C512.2,453.2,512.1,451.3,512.1,449.3z"/>
	<path class="st53" d="M524.8,467.6c-1.3,0.2-2.6,0-3.7-1.1c1.2-0.4,2.4,0.2,3.6,0.6c0.2,0.1,0.2,0.2,0.2,0.3
		C524.8,467.6,524.8,467.6,524.8,467.6z"/>
	<path class="st17" d="M524.8,467.6c0-0.2-0.1-0.4-0.1-0.5c1.4,0.3,2.5,1,2.7,3.2C526.5,469.4,525.9,468.1,524.8,467.6z"/>
	<path d="M620.1,441.9c5,4.8,5.5,12.2,5.6,19.6c0.1,4.8,0,9.7-1.3,14.3c-1.9,6.7-5,9.5-10.2,9.5c-4.8,0-8.1-3-9.7-9.6
		c-2-8.6-2-17.4,0-26c1.8-7.7,6.2-9.9,11.6-9.6C617.4,440.4,618.9,440.4,620.1,441.9z"/>
	<path class="st54" d="M620.1,441.9c-1.4-0.6-2.7-1.3-4.1-1.9C617.5,439.6,619,439.9,620.1,441.9z"/>
	<path d="M385.6,462.6c-0.1,4.3-0.4,8.5-1.3,12.6c-1.4,6-5,9.7-9.4,9.9c-4.7,0.2-8.5-2.9-10-9c-2.3-9.1-2.2-18.4,0.2-27.5
		c1.5-5.8,5-8.2,9.2-8.3c4.2,0,7.5,2.3,9.4,7.9C385.2,452.9,385.5,457.8,385.6,462.6z"/>
</g>
</svg>
