<?xml version="1.0" encoding="utf-8"?>
<!-- Generator: Adobe Illustrator 21.1.0, SVG Export Plug-In . SVG Version: 6.00 Build 0)  -->
<svg version="1.1" id="Layer_1" xmlns="http://www.w3.org/2000/svg" xmlns:xlink="http://www.w3.org/1999/xlink" x="0px" y="0px"
	 viewBox="0 0 700 965" style="enable-background:new 0 0 700 965;" xml:space="preserve">
<style type="text/css">
	.st0{fill:#FDFDFD;}
	.st1{fill:#F9F9F9;}
	.st2{fill:#FCFCFC;}
	.st3{fill:#020202;}
	.st4{fill:#0D0D0D;}
	.st5{fill:#0C0C0C;}
	.st6{fill:#010101;}
	.st7{fill:#0A0A0A;}
	.st8{fill:#0B0B0B;}
	.st9{fill:#040404;}
	.st10{fill:#090909;}
	.st11{fill:#030303;}
	.st12{fill:#0E0E0E;}
	.st13{fill:#050505;}
	.st14{fill:#080808;}
	.st15{fill:#070707;}
	.st16{fill:#161616;}
	.st17{fill:#1C1C1C;}
	.st18{fill:#131313;}
	.st19{fill:#1D1D1D;}
	.st20{fill:#0F0F0F;}
	.st21{fill:#2E2E2E;}
	.st22{fill:#191919;}
	.st23{fill:#353535;}
	.st24{fill:#383838;}
	.st25{fill:#202020;}
	.st26{fill:#5D5D5D;}
	.st27{fill:#323232;}
	.st28{fill:#363636;}
	.st29{fill:#1A1A1A;}
	.st30{fill:#262626;}
	.st31{fill:#222222;}
	.st32{fill:#6F6F6F;}
	.st33{fill:#757575;}
	.st34{fill:#EEEEEE;}
	.st35{fill:#D5D5D5;}
	.st36{fill:#F1F1F1;}
	.st37{fill:#D3D3D3;}
	.st38{fill:#BABABA;}
	.st39{fill:#F5F5F5;}
	.st40{fill:#D2D2D2;}
	.st41{fill:#D9D9D9;}
	.st42{fill:#DEDEDE;}
	.st43{fill:#E5E5E5;}
	.st44{fill:#F8F8F8;}
	.st45{fill:#F4F4F4;}
	.st46{fill:#C7C7C7;}
	.st47{fill:#C5C5C5;}
	.st48{fill:#F3F3F3;}
	.st49{fill:#BFBFBF;}
	.st50{fill:#EDEDED;}
	.st51{fill:#D8D8D8;}
	.st52{fill:#C6C6C6;}
</style>
<g>
	<path d="M701,484.1c0,159.1,0,318.2,0.1,477.4c0,3.7-0.8,4.6-4.6,4.6C466.2,966,236,966,5.7,966.1c-3.7,0-4.6-0.8-4.6-4.6
		c0.1-318.6,0.1-637.1,0-955.7c0-3.7,0.8-4.6,4.6-4.6c230.3,0.1,460.5,0.1,690.8,0c3.7,0,4.6,0.8,4.6,4.6
		C701,165.2,701,324.7,701,484.1z"/>
	<path class="st0" d="M342.4,498.8c-3.4,0.9-7.6-1-10.3,2.9c-0.7,1-1.8,0.6-2.7,0.1c-1.5-0.8-1.9-2.3-1.9-3.8
		c0.1-3.9,3.8-7.5,8.6-8.4c3.3-0.6,3.3-0.6,2.9-4.1c-4.7,2.2-4.8,2.1-5-3.3c-0.4-10-2.8-19.8-2.5-29.9c0.1-4.1-7.6-9.3-12.5-9.1
		c-3.9,0.1-7.6,0.2-10.3-3.4c-0.5-0.7-1.7-0.9-2.7-1.2c-0.8-0.2-1.8,0.1-2.4-0.3c-6-4-13.9-4.4-18.6-10.6c-1.1-1.4-2.6-2.1-4.2-2.3
		c-1.9-0.3-3.8-1.1-4.5-2.8c-1.8-4-4.7-4.1-8.5-4.1c-24,0.2-48,0.2-72-0.1c-6.7-0.1-12.9-2.2-14.9-10c-0.1-0.4-0.5-1-0.9-1.1
		c-7.5-3.4-10.7-11.4-17.6-15.7c-4.2-2.6-6-7.8-9.9-11.3c-3.2-2.9-6.3-6-9.7-8.9c-4.6-4-8.4-9.2-11.9-14.3c-1.8-2.7-0.8-5.2,3.2-5.1
		c2,0,4,0,6,0c58.3,0,116.6,0.1,174.9-0.1c4.3,0,6.2,1.1,5.8,5.4c-0.6,5.7,2.8,8.4,7.5,10.3c4.1,1.7,5.8,1,6.3-3.7
		c0.9-7.8,3.8-14.8,7.8-21.4c1.6-2.6,2.8-5.1,3-8.3c0.5-5.9,5.5-9.4,11.5-9.4c5.3,0,10.5-0.7,14.8,4c1,1.1,4.1,0.4,6.3,0.4
		c4.2-0.1,5.7,2.2,5.2,6c-0.4,3.5-1.8,6.8-4.1,9.5c-1.4,1.6-3.2,4.6-5.5,0.3c-0.8-1.5-2.7-0.9-4.1-0.3c-1.7,0.7-2.1,1.9-1.6,3.6
		c2.1,7.2,7,12.8,12,18c2.2,2.3,10.4-3,10.6-7.4c0.2-6.6,3.7-6.9,8.8-6.9c59,0.1,117.9,0,176.9,0.1c3.1,0,7.4-1.5,8.9,2.4
		c1.3,3.5-2.2,6.1-4.5,8.3c-7.4,7.3-16.5,13.5-22.1,22c-4.2,6.4-11.1,9.7-14.8,16.7c-3.4,6.3-10.8,10.6-16.7,15.4
		c-2.3,1.9-5.6,1.8-8.7,1.8c-24.6,0-49.3-0.1-73.9-0.1c-2.2,0-3.7,0.6-5.5,2.3c-4.3,4-10,6.2-13.4,11.3c-0.9,1.3-3.3,1.3-5.2,1.1
		c-1.6-0.1-3,0.2-3.9,1.6c-1.7,2.6-4.7,2.5-7.2,3.7c-5.6,2.5-11.2,4.2-17.1,5.8c-9.6,2.5-8,11.8-7.8,18.9c0.2,7.7-4,14.4-3.3,22
		c0.2,2.8,0.4,4,4.2,4.8c5.1,1,7.9,4.6,6.8,8.6c-0.4,1.4-1.1,2.5-2.5,2.9c-1.4,0.5-2.2-0.2-2.7-1.5c-0.3-0.7-1-1.9-1.7-1.4
		c-3.1,2-6.4,0-11,0.7c10.9,5,18.2,12.1,22.1,22.3c3.9,10,4.1,20.2,0.7,30.3c-5.7,16.9-20.7,26.7-39.9,26.4
		c-17.1-0.3-31.9-11.5-36.8-27.9C314.1,529.8,321.1,513.8,342.4,498.8z"/>
	<path class="st0" d="M283.9,532.6c11.8,3.8,16.4,11.3,15.2,24.3c-1,10.5-9.6,18.2-22.2,19c-9.5,0.6-19,0.2-28.5,0.3
		c-2.5,0-3.1-1.1-3.1-3.3c0.1-23.6,0.1-47.3,0-70.9c0-2.8,1.3-3.3,3.6-3.3c8.8,0.1,17.7-0.1,26.5,0.2c9,0.3,14.4,4.6,16.5,12.5
		c2.3,8.6-0.1,15.2-7.4,20.4C284.2,532,284.1,532.3,283.9,532.6z"/>
	<path class="st0" d="M412.5,499.2c8-1.1,14.1-1.3,18.5,6.5c4.3,7.6,10.2,14.3,15.6,21.7c5.6-7.4,11.5-14,16.1-21.5
		c4.4-7.4,10.3-8.3,18.1-6.7c-8.7,11.7-17.3,23.3-26,34.7c-2,2.7-3,5.2-3,8.6c0.2,10-0.1,20,0.1,30c0.1,5-3.2,3.5-5.7,3.7
		c-2.7,0.2-5.2,0.6-5.1-3.8c0.3-10,0-20,0.2-30c0-3.2-0.7-5.7-2.7-8.2C430.1,522.8,421.6,511.4,412.5,499.2z"/>
	<path class="st1" d="M346.1,620.1c0-9.8,0-19.6,0-29.3c0-1.8-0.9-4.2,2.5-4.2c3.3,0,2.7,2.2,2.7,4.1c0,11,0.1,22-0.1,32.9
		c0,2,1.6,5-1.6,6c-3.5,1.1-5.7-0.7-7.6-3.9c-6-10.2-12.2-20.1-19.2-31.6c0,5.4,0,9.4,0,13.4c0,6,0,12,0,18c0,1.8,0.8,4.2-2.5,4.3
		c-3.6,0.1-2.8-2.5-2.8-4.5c0-10.8-0.1-21.6,0.1-32.4c0-2.1-1.9-5.3,2-6.2c3.6-0.8,5.7,0.8,7.5,4c4.9,8.5,10.1,16.8,15.2,25.2
		c0.9,1.5,1.9,3,2.9,4.6C345.4,620.3,345.8,620.2,346.1,620.1z"/>
	<path class="st2" d="M448.5,596c0,10,0,19.9,0,29.9c0,2.1,0.3,4-2.9,3.9c-3-0.1-2.5-2-2.5-3.8c0-11.5-0.1-23,0.1-34.5
		c0-1.7-1.4-4.4,1.8-4.8c2.6-0.3,5.1-0.6,6.9,2.5c5.7,9.8,11.6,19.4,17.5,29.1c0.5,0.8,0.6,1.9,2.4,2.3c0-9.2,0-18.3,0-27.3
		c0-1.3,0.1-2.7,0-4c-0.1-1.9,0.8-2.7,2.7-2.7c1.9,0,2.6,0.8,2.6,2.7c-0.1,12.5,0,25,0,37.5c0,1.3,0.2,2.9-1.8,2.9
		c-2.4,0.1-4.8,0.5-6.5-2.3c-5.5-9.3-11.2-18.5-16.9-27.7c-0.8-1.4-1.7-2.7-2.6-4.1C449.1,595.7,448.8,595.8,448.5,596z"/>
	<path class="st2" d="M271,608c0.1-15.5,12.1-25.7,25.7-21.9c11.2,3.2,17.5,16.1,14.2,28.8c-3,11.5-13,17.9-24.2,15.4
		C277.2,628.1,270.9,619.2,271,608z"/>
	<path class="st2" d="M437.3,608c0,17.6-16,28.3-30.2,20.1c-9.4-5.4-13.3-19-8.6-30c4.2-9.9,14-14.8,24-12
		C431.4,588.6,437.3,597.3,437.3,608z"/>
	<path class="st2" d="M359,608.2c0-6,0.1-12-0.1-17.9c-0.1-2.8,0.9-3.9,3.7-3.7c3.6,0.2,7.3-0.1,11,0.1c12.1,0.6,19.4,8.6,19.6,21.3
		c0.1,11.8-8.1,21-19.5,21.8c-14.7,1-14.7,1-14.7-13.5C359,613.5,359,610.8,359,608.2z"/>
	<path class="st1" d="M246.2,608.1c0-6,0-12,0-18c0-1.9-0.3-3.6,2.6-3.6c2.8,0,2.8,1.5,2.8,3.5c0,9.8,0.1,19.7-0.1,29.5
		c-0.1,3.7,0.9,5.1,4.7,4.7c3.5-0.3,7,0,10.5-0.1c2.3-0.1,2.8,1,2.8,3c0,2-0.9,2.6-2.7,2.6c-6,0-12-0.1-18,0c-2.3,0-2.7-1.1-2.7-3.1
		C246.2,620.4,246.2,614.3,246.2,608.1z"/>
	<path d="M359.1,568.3c-17.1,0.1-29.3-12.6-29.4-30.4c-0.1-18.2,12.1-31.3,29.1-31.2c16.9,0,29.2,13,29.3,30.7
		C388.1,555.1,375.9,568.2,359.1,568.3z"/>
	<path class="st3" d="M317.7,366.1c4.2,2.3,8.5,4.4,12.6,6.8c2.4,1.4,4,1,5.2-1.4c2.5-4.7,4.9-9.2,6.1-14.6
		c1.4-6.2,4.8-11.9,7.5-17.8c1-2.2,2.7-4.3,2.8-6.8c0.1-1.7,1.2-2.3,2.5-2.5c1.3-0.2,2,0.3,2.6,1.6c1.2,2.6,4.1,3.6,6.4,4.8
		c1.7,1,5.2,1.2,6.4-1.9c0.9-2.4,2.5-2.2,3.9-1.4c2.1,1.3,0.5,2.9-0.3,4.2c-0.9,1.3-2.4,1.8-3.8,2.2c-2.1,0.5-4.2,1.1-6.3,1.6
		c-3.3,0.8-4.3,2.2-1.5,4.8c4.1,3.8,6,9.1,9,13.7c2.8,4.3,4.9,9.1,10.3,10.9c0.8,0.3,1.1,0.7,0.6,1.4c-0.4,0.5-1.1,1.3-1.4,1.2
		c-4.1-1.6-5.2,1.7-6.9,4c-1.9,2.5-3.7,4.4-6.8,1.3c-1.9-2-3.7-0.8-5.2,0.7c-2,1.9-3.8,2.6-5.7-0.1c-1.9-2.7-4.3-2.8-7.3-0.8
		c-0.4-2.2-0.7-4.1-0.9-5.7c0.7-1.2,1.2-0.7,1.8-0.3c4.5,3,5.4-3.2,7.9-3.2c2.7,0,4.1,5.7,8.1,3.6c3.6-1.8,3.1-6.3,5.6-9.6
		c-3.7-0.5-4.3,1.8-4.9,3.9c-0.9,3.6-2.6,4.2-4.8,1.2c-2.9-4-5.4-3.8-7.9,0.1c-1.7,2.6-2.8,1.7-4.4-0.3c-1.6-2-3-4.4-7.2-4.7
		c5.5,4.4,3.3,9.4,3.3,14.8c-2.6-2.1-3.6-5.2-7.6-5.2c2.3,3.6,4.4,6.7,7.5,9.1c1.2,0.9,2.9,1,3.8,0.2c2.7-2.6,4.5-2.1,6.5,0.9
		c1.5,2.3,4.4,2.3,6.2,0.6c2.8-2.7,5.1-2.1,7.7-0.1c2,0.5,4.6,0.2,4.8,3.2c0.1,2-0.9,3.1-3,2.8c-2.5-0.6-4.1,1-5.5,2.7
		c-2.1,2.6-4.1,3.1-6.4,0.3c-3.2-4-6.3-4.2-9.8-0.2c-1.6,1.8-3.1,1.7-4.9-0.2c-3.7-4-8.6-7.2-7.9-13.9c-0.2,1.6-0.4,3.3-0.6,5
		c-4.9-1.9-9.7-3.6-14.4-5.8c-5.2-2.5-9.5-6.2-11.4-11.9c-0.8-2.5-2.5-3-5-3c-12.8,0.1-25.6,0.1-38.4,0.1c-1.3,0-2.7,0.2-4-0.2
		c-2.6-0.7-4.8-2.7-4.6-5.2c0.2-2.2,3.1-1,4.7-1c16-0.1,31.9,0.1,47.9-0.2c4.7-0.1,6.8,1.1,6.4,6c-0.1,1.4,0.5,2.9,0.8,4.3
		c0.7,5.2,5.7,6.4,7.7,8.6C323.5,372.4,318.3,371.3,317.7,366.1z"/>
	<path class="st3" d="M378.7,393.9c-0.4-1.4-0.5-1.5-0.5-1.7c-1.6-10.9,0.7-19.6,12.3-23.9c3.8-1.4,6.9-4.7,6.8-9.6
		c0-2.1,1.5-2.6,3.4-2.6c18,0,36,0,53.9,0c3.2,0,2.8,1.3,1.5,3.3c-1.4,2.3-3.5,2.8-6,2.7c-12.8-0.1-25.6,0-38.4-0.2
		c-4.3-0.1-7,1.3-9,5.3c-2.7,5.5-7.5,10.2-13.4,11.1c-7.8,1.2-9.6,5.8-10.4,12.1C378.9,391.2,378.9,391.8,378.7,393.9z"/>
	<path class="st4" d="M236.7,368.4c-26,0-51.1,0-76.1,0c0,0.6,0,1.2,0,1.8c25.5,0,50.9,0,77.3,0c-2,3.3-4.1,2.6-5.9,2.6
		c-25,0.1-49.9,0.1-74.9,0.1c-3.5,0-6.5-1.3-9.1-3.5c-1.1-0.9-2.1-2-1.7-3.4c0.5-1.8,2.3-1,3.4-1c14.2-0.1,28.3,0,42.5,0
		c12.7,0,25.3,0,38,0C232.2,365.1,234.5,364.6,236.7,368.4z"/>
	<path class="st4" d="M554.6,368.2c-25,0-50.1,0-75.9,0c1.4-3.2,3.3-3.2,5-3.2c27.5,0,54.9,0,82.4,0c1,0,2.5-0.6,2.9,1.1
		c0.3,1.2-0.5,2.3-1.4,3c-2.7,2.3-5.7,3.7-9.5,3.7c-24.8-0.1-49.6,0-74.4-0.1c-1.8,0-4,0.9-5.7-2.3c25.9,0,51.3,0,76.7,0
		C554.7,369.8,554.7,369,554.6,368.2z"/>
	<path class="st5" d="M515.7,410c-20.8,0-41.7,0-63.2,0c1.9-3.1,3.7-2.4,5.3-2.4c22-0.1,43.9-0.1,65.9-0.1c1.5,0,3.7-0.8,4.2,1.4
		c0.5,2-1,3.4-2.6,4.5c-3.3,2.3-7.3,2.4-11.1,2.4c-20.5,0.2-40.9,0.2-61.4,0.2c-1.8,0-3.8-0.3-3.6-2.4c0.2-2,2.4-1.3,3.8-1.3
		c19.1-0.1,38.3-0.1,57.4-0.2c1.8,0,3.6,0.4,5.3-0.5C515.7,411.2,515.7,410.6,515.7,410z"/>
	<path class="st4" d="M262,410.1c-20.8,0-41.7,0-62.5,0c0,0.6,0,1.3,0,1.9c1.7,0.1,3.4,0.2,5.1,0.2c18.5,0,37,0.1,55.5,0.1
		c1.2,0,2.3,0,3.5,0c1.2,0.1,2.6,0.1,2.5,1.7c-0.1,1.4-1.5,1-2.4,1.1c-5.3,0.2-10.6,0.6-16,0.6c-17.1,0.1-34.3,0.7-51.4-0.5
		c-2-0.1-4.1-0.1-5.7-1.3c-1.8-1.3-3.8-2.9-3.1-5.2c0.7-2.3,3.1-1.3,4.8-1.3c21.7,0,43.3,0,65,0c1.6,0,3.3-0.4,4.7,0.6
		C261.9,408.8,261.9,409.4,262,410.1z"/>
	<path class="st6" d="M183.2,362.4c-12.5,0-25,0-37.4,0c-3.1,0-6-0.3-7.8-3.3c-1.2-1.9-1-3.1,1.6-3.2c1.5,0,3,0,4.5,0
		c24,0,47.9,0,71.9-0.1c3.1,0,5.5,0.7,7.4,3.2c0.6,0.8,1.6,1.5,1.1,2.6c-0.5,1.1-1.7,0.7-2.7,0.7c-9,0-18,0-27,0
		C190.8,362.4,187,362.4,183.2,362.4C183.2,362.4,183.2,362.4,183.2,362.4z"/>
	<path class="st6" d="M536.2,356c12.6,0,25.3,0,37.9,0c1.4,0,3.3-0.7,4,1.1c0.8,2-1.4,2.8-2.5,3.8c-1.8,1.7-4.3,1.5-6.6,1.5
		c-24.1,0-48.2,0-72.3-0.2c-1.8,0-5.2,1.6-5.2-1.4c0-2.6,2.5-4.9,5.9-4.9c3.8,0.1,7.6,0,11.5,0C517.9,356,527.1,356,536.2,356
		C536.2,356,536.2,356,536.2,356z"/>
	<path class="st7" d="M532.4,399.9c-13,0-24.9,0-36.9,0c-9.8,0-19.6,0-29.5,0c-1.5,0-3.9,0.8-4-1.6c0-1.9,2.2-1.5,3.7-1.5
		c23,0,45.9-0.1,68.9-0.1c1.3,0,2.9-0.4,3.3,1.4c0.5,2-0.4,3.8-2,4.8c-3,1.9-6.4,2.9-10,2.7c-21.1-0.8-42.3-0.4-63.4-0.6
		c-0.5,0-1,0.1-1.5,0c-1.3-0.2-3.5,0.5-3.4-1.6c0.1-1.6,2.1-1.1,3.4-1.1c12.7,0,25.3,0,38,0c9.2,0,18.3,0,27.5-0.1
		C528.1,402.2,530.1,402.9,532.4,399.9z"/>
	<path class="st8" d="M183.7,399.9c1.5,2.8,3.6,2.3,5.4,2.3c21,0.1,42,0.1,63,0.1c1.3,0,2.7,0,4,0.1c0.9,0,1.8,0.4,1.9,1.3
		c0.1,1-0.8,1.3-1.7,1.4c-1.3,0.1-2.7,0-4,0.1c-21,0.1-42-0.3-63,0.6c-3.4,0.1-6.6-0.8-9.6-2.4c-1.9-1-3-2.8-2.4-5
		c0.6-2.3,2.7-1.4,4.2-1.4c22.2,0,44.3,0,66.5,0c1.8,0,4.8-0.9,4.9,1.7c0,1.9-3,1.4-4.7,1.4c-8.3,0-16.7,0-25,0
		C210,399.9,196.8,399.9,183.7,399.9z"/>
	<path class="st9" d="M337.3,450.9c3.5-2.8,1.8-6.7,1.4-9.9c-0.2-1.8-1.6-0.2-2.1,0.9c-0.4,0.8-0.8,1.5-1.8,1.1
		c-1.1-0.4-0.8-1.3-0.7-2.1c0.3-2.6,0.7-5.3,1.1-7.9c0.1-0.7-0.2-1.8,1-1.9c1.1-0.1,1.2,0.8,1.4,1.6c0.2,1.1,0.2,2.6,1.9,2.1
		c1.2-0.4,0.8-1.7,0.8-2.6c0-2-0.1-4-0.3-6c-0.1-1.2,0.5-3.1-1.5-3c-1.7,0.1-1.5,1.8-1.4,3.2c0.1,0.6,0,1.2-0.5,1.9
		c-1.8-2.7-2.6-6.3-0.7-8.6c2-2.3,5-0.3,6.9,1.5c2.2,2.1,5.2,3.5,6.3,6.7c-1.6,1.6-0.7,3.7-1,5.2c0.1-1.6-0.5-3.6,0.8-5.4
		c1.2,0.1,1.8,1.1,1.9,2c1.1,12.4,0.8,24.4-7.4,35.2c-3.9-4.2-6.7-8.6-7.4-14.1C336.4,450.8,336.8,450.7,337.3,450.9z"/>
	<path class="st10" d="M545.6,381.7c-1.5-2.6-3.6-2.2-5.4-2.2c-20.3-0.1-40.6-0.1-60.9-0.1c-0.5,0-1,0.1-1.5,0
		c-1.6-0.4-4.4,1.2-4.4-1.3c0-2,2.7-1.1,4.2-1.1c11-0.1,22-0.1,33-0.1c14.5,0,29-0.1,43.5-0.1c1.3,0,3.4-0.9,3.9,1.1
		c0.4,1.8-1,3-2.6,3.9c-3.8,2-7.8,2.7-12.1,2.7c-22.5,0-45-0.1-67.4-0.2c-1.5,0-3.4,0.6-4.7-2.5
		C496.2,381.7,520.9,381.7,545.6,381.7z"/>
	<path class="st11" d="M379.1,451.2c-1.4,6.3-3,9.3-7.6,14c-3.9-5.7-7-11.6-6.8-18.8c0-1.8,0-3.7-0.4-5.5
		c-1.6-7.7-0.1-14.1,6.9-18.6c2.4-1.6,4.8-4.9,7.7-2.7c2.9,2.3,0.6,5.9,0.6,9.2c-1.1-0.5-1.4-0.5-1.6-0.8c-1.1-1.4,0.9-4.7-1.4-4.5
		c-2.5,0.1-0.7,3.2-1.2,5c-0.2,0.8-0.3,1.7-0.2,2.5c0.1,1.4-0.9,3.4,0.9,3.9c2,0.5,1.2-1.8,1.7-2.8c0.3-0.7,0.8-1,1.6-0.8
		c0.9,0.2,0.8,1,0.8,1.6c0.3,2.1,0.5,4.3,0.7,6.4c0.1,1.2,1.2,2.9-0.2,3.6c-2.2,1.1-1.7-1.9-3.5-2.8c-0.6,3.9-2.5,7.4,0.9,10.8
		C378.4,450.7,378.7,450.8,379.1,451.2z"/>
	<path class="st10" d="M169.6,381.7c24.7,0,49.4,0,74.3,0c-0.3,3.1-2.2,2.5-3.5,2.5c-23,0.1-46,0.1-69,0.1c-4,0-7.9-0.8-11.5-2.8
		c-1.5-0.8-3-2.1-2.5-3.9c0.4-1.6,2.3-1,3.5-1c26,0,52,0.1,77.9,0.2c1.2,0,3.3-0.5,3.4,1.1c0.1,2.4-2.2,1.4-3.5,1.4
		c-20.8,0.1-41.6,0.1-62.5,0.2c-2.2,0-4.5-0.3-6.7,0.6C169.6,380.6,169.6,381.1,169.6,381.7z"/>
	<path class="st11" d="M357.2,491.1c-1.1-1.9-2.7-2-4.7-1.9c-2.5,0.2-3.1-1.2-1.3-2.9c2.1-2,2-4.5,1.9-6.9
		c-0.3-13.7,1.7-27.3,2.5-41.3c1.7,0.4,3.6,4,4.9-1.7c0.4,0.6,0.9,1.1,1.3,1.7c0,7.1,0.4,14.1-0.1,21.2c-0.5,7.3,0.6,14.5,0.5,21.8
		c-0.1,5.5,0.8,5.7,5.5,3.3c1.7,3.6,0.7,5.3-3.4,5.6c-2.1,0.1-4.2,1.1-5.2,3.3C357,493.7,358,491.6,357.2,491.1z"/>
	<path class="st12" d="M249.5,391.7c-1.4,3.2-3.1,2.6-4.7,2.6c-22,0.1-44,0.2-66,0.3c-3.7,0-7.4-0.2-10.4-2.7
		c-1.1-0.9-1.8-2.1-1.4-3.5c0.3-1.3,1.6-1,2.5-1c25,0.1,50,0.1,75,0.2c0.4,0,0.9,0.3,1.3,1.7c-22.3,0-44.6,0-66.9,0
		c0,0.8,0,1.6,0,2.3C202.4,391.7,225.9,391.7,249.5,391.7z"/>
	<path class="st12" d="M536.4,389.8c-22.2,0-44.4,0-66.8,0c0.5-2.9,2.1-2.2,3.2-2.2c24-0.1,47.9-0.1,71.9-0.1c1.2,0,3-0.7,3.5,1
		c0.4,1.6-0.7,2.8-1.9,3.8c-2.2,1.6-4.8,2.3-7.5,2.3c-23.5-0.1-46.9-0.1-70.4-0.2c-0.9,0-2,0.3-2.9-2.1c23.8,0,47.3,0,70.7,0
		C536.3,391.4,536.3,390.6,536.4,389.8z"/>
	<path class="st11" d="M372.7,407.9c-0.7-0.3-1.5-0.3-1.9-0.7c-3.7-4.1-7.2-6.3-10.8,0.3c-1,1.8-2.3,0.4-3.1-0.6
		c-2.8-3.7-5.6-5.1-9.1-0.7c-1.8,2.2-3.1,0.7-4.5-0.6c-3.8-3.7-5.7-8.7-6.1-16.1c2.5,0.3,3.4,2.4,4.7,3.9c2.9,3.3,6,4.3,9.3,1
		c2.3-2.3,3.8-2.1,5.9,0.4c3.6,4,5.9,3.8,9.6,0.1c2.8-2.8,4.9-2.4,6.4,1.4C374.7,400,374.1,403.9,372.7,407.9z"/>
	<path class="st13" d="M357.8,419.3c-1.9-0.1-1.9-0.1-5.9-3.3c-1.6-1.3-3.1-2.9-5-0.6c-3,3.6-4.1,2.2-4.2-1.7c0-0.6-0.3-1.2-0.4-1.9
		c-2.1,0.5-0.3,2.6-2.1,3.6c0-3,0-5.8,0-8.7c1.5-0.2,2.3,1.4,3.4,2.1c2.5,1.7,4.6,1.9,6.3-0.8c1.8-2.9,3.2-1.9,4.8,0.1
		c2.2,2.8,4.7,4.4,7.8,1c1.1-1.2,2.1-3.8,4.2-1.7c1.9,1.8,6.3,2.1,4.5,6.6c-0.3,0.9-0.2,1.9-0.3,4c-5.6-6.3-9-0.3-13.2,1.2
		c0.1-0.3,0-0.6-0.1-0.9C357.7,418.7,357.8,419,357.8,419.3z"/>
	<path class="st3" d="M257.1,362.4c-9.2,0-17.3,0-25.4,0c-1.9,0-3-1.4-4.2-2.4c-0.8-0.7-2-1.5-1.6-2.9c0.4-1.6,1.9-1.1,3-1.1
		c6.8,0,13.7,0.1,20.5,0C253.3,355.8,254.6,358.8,257.1,362.4z"/>
	<path class="st6" d="M475.8,356c3.7,0,7.3,0,11,0c1,0,2.2-0.1,2.4,1.2c0.1,0.7-0.5,1.6-1,2.1c-1.8,2.1-4.1,3.1-7,3.1
		c-5.6-0.1-11.3,0.1-16.9-0.1c-1.6-0.1-4.8,1.5-4.6-1.4c0.1-2.1,1.8-5,5.3-4.9C468.5,356.2,472.1,356,475.8,356z"/>
	<path class="st10" d="M288.8,395.7c-1.8,7.2-8.9,9.2-14.1,13.9c4.6,1.1,7.3-1.3,9.8-3.4c2.4-2,4.4-4.5,6.6-6.8
		c0.7-0.7,1.3-1.6,2.4-0.7c0.9,0.7,0.5,1.4,0,2.1c-4,6.1-9.1,11-16.4,12.9c-2.3,0.6-4.8,0.1-6.5-1.6c-1.5-1.5-2.5-4.1,0-4.9
		C277.8,405,283.2,400.3,288.8,395.7z"/>
	<path class="st14" d="M440.4,409.9c-5-5.1-12.5-6.8-14.8-14.1c2.7-0.1,3.3,1.7,4.5,2.7c3.8,3.5,7.9,6.6,13,8.1
		c1.3,0.4,2.7,0.7,2.8,2.4c0.1,1.6-0.7,2.9-2.1,3.7c-2.4,1.4-5,1.6-7.7,0.6c-6.2-2.3-10.7-6.6-14.3-11.9c-0.5-0.7-1.6-1.5-0.4-2.5
		c1.4-1.1,2-0.1,2.8,0.9c2.4,3,5,5.8,8.2,8C434.6,409.2,436.9,410.4,440.4,409.9z"/>
	<path class="st14" d="M270.8,366.2c-8,5.1-15.6,8.1-24.4,7.9c-2.1-0.1-3.8-1.1-5.2-2.6c-1.1-1.3-1.2-2.7-0.7-4.2
		c0.5-1.7,1.8-2.2,3.5-2.2c3.5,0.1,7,0,10.4,0c0.2,1.2-0.7,1.1-1.1,1.4c-1.5,1-5.2,0.7-4.5,2.8c0.8,2.7,4.1,1.1,6.1,0.5
		c3-0.8,5.8-2.5,8.7-3.5C265.5,365.7,267.5,364.4,270.8,366.2z"/>
	<path class="st14" d="M294.9,429c-2.3,0-4.4-0.3-5.3-2.8c-0.9-2.8,1.7-3.2,3.2-4.3c4.4-3.1,7.8-7.2,10.9-11.6
		c0.6-0.9,1.2-2.4,2.6-1.1c1,1,0,1.8-0.6,2.5c-3.1,3.7-6.3,7.3-9.5,10.9c-0.6,0.7-1.6,1.5-0.7,2.5c1,1.1,1.8,0,2.5-0.5
		c4.6-3.6,9.3-7,12.1-12.4c0.6-1.1,1-2.5,2.4-1.7c1.6,0.8,0.2,2-0.2,2.9c-2.2,4.5-4.8,8.8-8.8,12C301,427.6,298.3,429.2,294.9,429z"
		/>
	<path class="st7" d="M385.4,384.7c3.9,2.6,5.3,7,8.1,10.3c1.8,2.2,3.6,4.4,5.5,6.5c0.8,0.9,2,1.5,3.1,0.6c1.2-1,0.2-2.2-0.4-3
		c-3.5-4.8-8.1-8.8-11.3-13.9c-0.5-0.8-1.5-1.3-1.1-2.5c2-0.7,2.2,1.1,2.8,2.1c3.5,5.3,7.5,10.2,12.5,14.2c2.2,1.8,3.3,4,1.9,6.5
		c-1.4,2.3-4,1.5-5.9,0.6C391.8,401.5,387.5,393.8,385.4,384.7z"/>
	<path class="st14" d="M410.8,365.1c6.7,3.6,12.8,6.9,18.9,10.3c1.4,0.8,3.1,1.7,2.5,3.8c-0.5,1.8-2.1,2.5-3.8,2.9
		c-2.7,0.7-5.2-0.1-7.7-1.3c-4.4-2.1-8-5.4-11.9-8.2c-1-0.7-2.6-1.5-1.3-3.1c1.1-1.3,2.1,0.1,3,0.7c3.1,2,6,4.3,9.2,6
		c1.6,0.9,4,3.5,5.5,0.9c1.1-2-2-3-3.6-4c-2.6-1.5-5.3-2.7-7.9-4.2C412.4,368.4,410.9,368,410.8,365.1z"/>
	<path class="st10" d="M419.1,429.1c-4.6-0.2-8.2-3.8-11.3-7.7c-2-2.4-3.3-5.3-4.9-8.1c-0.5-0.8-1.4-1.8-0.2-2.6
		c1.5-0.9,2,0.4,2.5,1.5c2.5,5.3,7.2,8.6,11.6,12.1c0.8,0.6,1.7,2.2,2.9,1c1.2-1.2-0.2-2.1-0.9-2.9c-2.9-3.4-5.9-6.7-8.8-10.2
		c-0.7-0.9-2.6-1.8-0.8-3.1c1.4-1,2,0.6,2.6,1.4c3.4,5,7.2,9.6,12.6,12.6c1.4,0.8,1.8,1.8,1.1,3.3
		C424.4,428.9,422.2,429,419.1,429.1z"/>
	<path class="st7" d="M269.3,370c-4.3,6.1-12.1,6.7-17.3,11.5c7.7,0.3,14.1-3.7,21.6-7.5c-4.8,7.2-15.8,12-22.2,10.5
		c-2.6-0.6-4.7-1.7-4.6-4.9c0.1-3.1,2.2-3.7,4.8-3.9C257.9,375.1,263.5,372.4,269.3,370z"/>
	<path class="st10" d="M460.7,365.1c3.5,0,7,0,10.4,0c1.3,0,2.7-0.1,3.4,1.5c0.7,1.6,0.6,3.3-0.5,4.7c-1.2,1.5-2.8,2.3-4.6,2.8
		c-6.2,1.4-20.1-3.3-24.2-8.4c3.3-1.2,5.9,0.6,8.5,1.7c3.2,1.4,6.4,2.9,9.9,3.2c1.2,0.1,2.7,0.3,3-1c0.3-1.4-1.2-1.8-2.2-2.2
		c-1.2-0.5-2.5-0.9-3.7-1.3C460.7,365.7,460.7,365.4,460.7,365.1z"/>
	<path class="st7" d="M428.3,390.4c5.9,5,11.3,9.8,19.1,10.3c-3.8-2.7-7.8-5.2-11.5-8c-1.5-1.1-4.2-3-3.1-4.4c1.8-2.2,3.2,1.1,4.6,2
		c3.8,2.4,7.6,4.6,11.8,6.3c2.3,0.9,4,2.8,3.2,5.4c-0.7,2.5-3.2,3.3-5.2,2.8c-7.7-1.9-14.4-5.7-19-12.5
		C428,392,428.3,391.4,428.3,390.4z"/>
	<path class="st10" d="M324.6,383.4c-1.8,5.4-5.9,9-9.3,13.2c-1.3,1.5-4.1,3.7-2.3,5.2c2.3,2,4.1-1.2,5.4-2.8
		c3.1-3.9,5.7-8.2,8.5-12.3c0.6-0.8,1-1.9,2.2-1.3c0.9,0.4,0.8,1.4,0.4,2.2c-3.1,7.3-6.9,14.1-14.4,17.9c-2.1,1.1-4.9,2.6-6.7-0.2
		c-1.7-2.6,0-4.7,2-6.5C315.9,394.2,320.2,388.8,324.6,383.4z"/>
	<path class="st10" d="M268.3,401.8c7.4-1.5,12.8-6.5,18.4-11.2c0.9,1.6-0.2,2.7-1,3.7c-4.5,5.1-10.1,8.6-16.6,10.5
		c-2.6,0.7-5.1,0.2-6.2-2.6c-1.2-3,1.1-4.4,3.2-5.3c4.8-2.3,9.5-4.8,13.6-8.1c0.7-0.6,1.5-1.7,2.5-0.7c1.1,1-0.1,1.8-0.7,2.5
		c-1.8,2.5-4.5,3.9-6.9,5.6c-2.3,1.6-4.6,3-6.9,4.6C267.9,400.9,268.1,401.4,268.3,401.8z"/>
	<path class="st14" d="M303.6,365.6c-1.2,4.1-5,4.8-7.8,6.7c-2.2,1.4-7,2.3-5.4,5c1.5,2.7,4.8-0.9,7.1-2.1c2.9-1.6,5.5-3.7,8.2-5.6
		c0.9-0.6,1.8-1,2.6,0.1c0.7,0.9,0.1,1.6-0.6,2c-4.9,3.3-9.2,7.7-14.9,9.8c-1.2,0.4-2.6,0.7-3.9,0.8c-2.4,0.1-5-0.5-5.8-2.9
		c-1-2.8,1.8-3.7,3.5-4.6C292.1,371.6,297.9,368.6,303.6,365.6z"/>
	<path class="st14" d="M394,380.2c2.8,3,5.5,6,8.3,8.9c1.4,1.5,2.7,3,4.2,4.2c1.4,1.1,3.2,3.8,4.9,1.8c1.7-1.9-1.2-3.3-2.5-4.6
		c-3.8-3.8-8.4-6.8-11.3-12.3c2.6,0,3.1,1.9,4.1,2.9c3.3,3.3,6.6,6.6,10.5,9.1c2.7,1.8,5,4.4,3.1,7.4c-2.1,3.5-5.6,2.1-8.4,0.2
		c-6.4-4.2-9.8-10.8-14.4-16.6C393.1,381,393.6,380.6,394,380.2z"/>
	<path class="st10" d="M455.2,391c-5.3-4.7-13.3-5.2-16-12.3c5.9,3.7,11.9,7.1,18.8,8.4c1.7,0.3,2.5,1.5,2.5,3.2
		c0,1.8-1,3.1-2.6,3.9c-3.8,2-19.2-4.2-20.6-8.4c-0.1-0.4-0.1-1.1,0.1-1.3c0.7-0.8,1.4-0.3,2.2,0.2c3,1.8,5.9,3.7,9,5.3
		C450.3,390.9,452.2,392,455.2,391z"/>
	<path class="st10" d="M276.7,377.4c-1.3,5.2-4.6,6.6-7.6,8.2c-3,1.6-6,3.3-8.7,5.4c4.9,0.5,8.6-2.3,12.6-4.4
		c1.6-0.8,3.4-3.8,4.9-1.7c1.1,1.5-1.8,3.1-3.3,4.3c-3.9,3-8.6,4.5-13.2,5.7c-2.8,0.8-5.8-0.3-6.5-3.8c-0.7-3.6,2-3.8,4.5-4.4
		C265.5,385.1,270.8,382,276.7,377.4z"/>
	<path class="st10" d="M321.4,381.6c-3.5,5.8-6.9,11.6-12.4,15.8c-1.2,0.9-2.6,1.5-4,2c-2,0.6-4.1,0.5-5.4-1.4
		c-1.4-2-0.6-4.3,0.9-5.5c5.5-4.5,11.1-9,16.1-14.1c-1.6,4.8-5.6,7.5-8.8,10.8c-1.7,1.8-6.3,3.4-3.8,6.1c1.8,1.9,4.7-1.9,6.5-3.8
		C314,388,316.9,384,321.4,381.6z"/>
	<path class="st5" d="M442.3,374.5c6.9,3,13.1,7.3,20.9,6.9c-4.7-4.6-11.9-5-16.4-10c1.5-1.1,2.8,0.3,4.1,0.9
		c4.2,2,8.5,3.9,13.2,4.1c2.2,0.1,4,0.5,4.1,3.2c0.1,2.6-1.5,4-3.8,4.6c-7.5,1.7-13.6-1.6-19.4-5.5
		C443.9,377.9,442.2,377.1,442.3,374.5z"/>
	<path class="st4" d="M427.8,416.8c-3.3-3.9-6.4-7.6-9.5-11.3c-0.7-0.9-2-1.7-0.7-2.9c1.4-1.4,2,0.2,2.6,1c4,5,8.3,9.5,14.2,12.3
		c2.9,1.3,1.6,2.9,0.1,4.1c-1.8,1.4-4,1.4-6.2,0.8c-8-2.2-12.3-8.1-15.7-15.1C417.6,409.5,420.4,416.7,427.8,416.8z"/>
	<path class="st4" d="M287.4,416.2c4.2,0.7,4.2,0.7,14.7-10.6c-1.1,6.9-10.6,15.5-17.4,15.5c-2.2,0-4.6-0.4-5.4-2.8
		c-0.9-2.7,2-2.5,3.3-3.4c4.7-3,8.6-6.8,12-11.1c0.6-0.8,1-2.5,2.5-1.5c1.7,1.2,0.4,2.2-0.5,3.2
		C293.6,409.1,290.4,412.7,287.4,416.2z"/>
	<path class="st14" d="M378.1,482.5c-4.6-5.9-8.7-4.7-12.8-0.7c-0.9-5.1-1.6-9.6,1.5-13.8c0.8-1.1,1.5-2.4,3-0.9
		c0.2,0.2,0.5,0.5,0.8,0.5c2.7,0.6,6.6-2.8,7.8,2.1c0.7,2.8,0.2,5.9,0.1,8.9C378.5,479.5,378.3,480.2,378.1,482.5z"/>
	<path class="st4" d="M307.6,374.9c-2.5,5.6-8.8,7.1-12.2,13c4.7-0.7,6.7-3.9,9.6-5.7c2.8-1.7,5.3-4.1,8.3-5.8
		c-4.3,5.8-8.7,11.5-15.9,13.9c-2,0.7-4.2,1.1-5.5-0.8c-1.6-2.1,0.4-4,1.8-5C298.1,381.2,302.9,378.1,307.6,374.9z"/>
	<path class="st8" d="M306.6,431.2c8.6-0.6,9.6-9.7,15-14.5c-0.3,6.1-8.5,16.4-13.8,17.6c-2.3,0.5-5.1,0.7-6.3-1.6
		c-1.2-2.3,1.8-2.7,3-3.9c3.9-3.7,7-7.9,9.8-12.5c0.5-0.8,0.6-2.8,2.2-1.9c1.8,0.9,0.5,2.2-0.2,3.3
		C313.6,422.5,309.9,426.6,306.6,431.2z"/>
	<path class="st5" d="M380.3,394.3c4.4,4.7,5.6,10.5,11.5,14.2c-1.7-7.8-8.8-11.6-9.2-19.5c2.5,1.9,2.8,4.3,3.8,6.1
		c2.3,3.9,4.9,7.5,8.2,10.6c1.8,1.7,3,4.1,1.4,6.1c-2,2.4-4.3,0.7-6-0.9C385.3,406.7,380.9,402.2,380.3,394.3z"/>
	<path class="st14" d="M297.6,365.5c-5.2,3.2-9.8,5.6-14.8,7.3c-3.2,1-6.3,0.3-8.7-2.1c-1.1-1.1-1.9-2.2-0.9-3.9
		c1.4-2.5,3.8-1.5,5.8-1.7c2.6-0.2,0.9,1.3,1.1,2.3c0.6,3.1,2.8,1.5,4,0.7C287.9,365.5,292,364.3,297.6,365.5z"/>
	<path class="st15" d="M417,365.8c6-1.5,10-0.4,13.9,2.1c1.5,0.9,4.6,3.2,3.7-1.8c-0.2-1.5,1-1.1,1.6-1c2,0.1,4.4-0.9,5.8,1.7
		c0.7,1.4,0.4,2.6-0.6,3.6c-2.7,2.8-6.1,3.6-9.6,2.1C427.2,370.7,422.7,368.4,417,365.8z"/>
	<path class="st8" d="M393.3,417.2c5.4,4.4,6.9,13,15.2,14.2c-2.9-4.9-7-8.7-9.7-13.6c-0.6-1.1-2-2.3-0.2-3.3
		c1.7-0.9,1.8,1.1,2.3,1.9c3.1,5.2,6.6,10,11.4,13.7c0.7,0.6,2,0.9,1.6,2.2c-0.4,1.2-1.4,1.8-2.6,2.1c-2.6,0.5-5,0.1-7.1-1.5
		C398.9,428.8,395.4,423.5,393.3,417.2z"/>
	<path class="st8" d="M334.2,394.4c0.2,6.6-6.5,16.7-11.7,18.1c-2.5,0.7-4.4-0.1-3.8-3.3c0.2-0.9,0.5-2.1,1.1-2.7
		c5-4.9,8.7-10.7,11.8-17.8c1.4,3.8-0.7,5.8-2,7.9c-1.4,2.4-3.2,4.6-4.8,7c-0.6,1-2.3,2.3-1,3.3c1.6,1.2,2.6-0.8,3.4-1.9
		C329.6,401.8,331.7,398.3,334.2,394.4z"/>
	<path class="st8" d="M401.8,376.1c5.5,4.3,11.1,8.1,17.1,11.6c-2.2-5.3-7.7-7.1-11.2-11c3.9,0,14.7,6.9,15.9,10.5
		c1.2,3.8-1.7,3.8-3.9,3.5c-3.5-0.4-6.5-2.4-9.2-4.7C406.9,383.3,404,380,401.8,376.1z"/>
	<path class="st10" d="M349.9,482.3c-4-5.3-7.6-3.8-11.4-0.5c0-4.3-0.1-8,0-11.7c0.1-2.2,0.5-3.3,3.7-2.5c8.2,2,8.6,2,8.1,11.6
		C350.3,479.8,350.2,480.5,349.9,482.3z"/>
	<path class="st16" d="M385.4,423.1c2.9,3.8,4.7,8.4,8.1,11.9c1.1,1.1,2.4,3.1,4,1.5c1.4-1.4-0.7-2.6-1.6-3.6
		c-3.8-4.8-7.1-9.8-10-15.7c2.7,0.5,2.9,2.4,3.7,3.7c3.2,5.1,6.6,10,11.4,13.8c1,0.8,2.5,1.4,1.9,3.1c-0.6,1.4-2,1.6-3.4,1.8
		c-2.7,0.4-4.9-0.7-6.6-2.7C389.5,432.9,386.9,428.3,385.4,423.1z"/>
	<path class="st17" d="M329.7,423c-1.7,5.6-4.2,10.7-8.5,14.8c-2,1.9-4.3,2.4-6.9,1.7c-2-0.5-3.3-1.9-1.4-3.5
		c6.2-5.3,10.9-11.9,15.3-18.7c-1.8,5.9-5.3,10.8-9,15.5c-0.9,1.1-3.3,2.5-1.3,4c1.5,1.2,2.9-0.9,4-2
		C325.2,431.3,326.9,426.8,329.7,423z"/>
	<path class="st18" d="M357.3,436.8c0-3.1,0-5.3,0-7.3c-1.8-1.3-1.5,3.3-3.4,0.8c-0.8-1.1-1.7-2.4,0-3.3c1.7-0.9,2.7-4.1,5.3-2
		c2,1.6,3.5,3.6,1.8,6.4C360,432.9,360,435.1,357.3,436.8z"/>
	<path class="st16" d="M383.9,430.9c1.9,2.8,3.4,5,5,7.1c0.9,1.2,1.4,2.2,0.2,3.5c-1,1.1-2.2,2.3-3.8,2c-1.7-0.4-1.3-2.1-1.5-3.3
		C383.5,437.3,382.9,434.6,383.9,430.9z"/>
	<path class="st19" d="M331.3,430.5c0.8,4.1,0.5,7,0,9.8c-0.3,1.5,0.1,3.8-2.6,3.1c-2.4-0.6-3.9-2.4-2.6-4.8
		C327.3,436.1,329.1,433.9,331.3,430.5z"/>
	<path class="st20" d="M378.1,404.3c2.6,3.3,4.5,5.3,6,7.6c1.2,1.9,0.8,4.1-1.3,5.1c-2.6,1.3-3.8-0.9-4.1-2.8
		C378.1,411.5,378.3,408.6,378.1,404.3z"/>
	<path class="st15" d="M341.9,486.9c-0.1-2.4-0.6-5.1,2.4-5.3c2.1-0.1,3.2,1.8,2.9,4.2c-0.3,2.3,0.6,5.5-3,5.6
		C340.6,491.6,342.6,488.3,341.9,486.9z"/>
	<path class="st16" d="M351.2,426.1c-0.1-1.9-0.2-3.6-0.3-5.4c-1.6,0.2-3.2,2.4-4.5-0.2c-0.6-1.3,0.4-1.8,1-2.4
		c1.9-1.7,2.9,0.3,4.1,1.2C354,421.4,357.5,423.4,351.2,426.1z"/>
	<path class="st21" d="M363.7,425.9c-1.3-1.1-3.7-2.1-3.3-3.9c0.3-1.5,2.6-2.8,4.2-3.9c1.4-0.9,2.4,0.6,3.5,1.2
		c0.6,0.4,0.9,1,0.4,1.6c-0.2,0.3-1,0.5-1.2,0.4c-3.8-3.8-2.5,0.3-2.6,1.7C364.6,424,365.2,425,363.7,425.9z"/>
	<path class="st22" d="M335.1,406.9c0,3.5,0,5.6,0,7.6c0,0.9,0.3,2.1-0.9,2.6c-1,0.4-2,0.2-2.7-0.7c-0.8-1-1.2-2.1-0.6-3.2
		C331.9,411.5,333.1,409.9,335.1,406.9z"/>
	<path class="st23" d="M370.9,389.4c3.1-3.1,0.4-4.4-1.8-6c1.9,0.4,3.5-0.6,5.6-1.6c0.5,3.5,0.8,6.6,0.2,9.9
		C372.7,392.1,372.1,390.2,370.9,389.4z"/>
	<path class="st19" d="M336.6,492.3c1.7,0,2.9,0.6,2.9,2.2c0,1.8-1.3,2.6-2.9,2.6c-1.8-0.1-3.6-1.4-3.6-2.7
		C332.9,492.5,335.3,492.7,336.6,492.3z"/>
	<path class="st7" d="M371,482c3.7,0.7,4.6,2.8,4,5.8c-0.2,1.2-1.2,1.7-2.2,1.2C369.7,487.3,371.3,484.5,371,482z"/>
	<path class="st16" d="M383.2,494.2c-0.1,1.9-1.2,2.6-2.7,2.6c-1.9-0.1-2.4-1.4-2.4-3.1c0-1.6,0.9-2,2.2-1.8
		C381.8,492.2,383.4,492.3,383.2,494.2z"/>
	<path class="st20" d="M380.9,456.3c-0.2,2.4-0.3,4.9-0.6,7.3c-0.1,1.1-0.1,2.6-1.9,2.1c-1.2-0.4-1.9-1.2-1.3-2.6c1-2.3,2-4.7,3-7.1
		C380.4,456.1,380.7,456.2,380.9,456.3z"/>
	<path class="st24" d="M376,494.5c0,1.7-0.9,2.4-2.5,2.3c-1.3,0-2.3-0.8-2.2-2.1c0.1-1.7,0.9-2.7,2.8-2.6
		C375.7,492.3,376.1,493.2,376,494.5z"/>
	<path class="st25" d="M377.1,340.2c-0.5-0.5-0.9-0.7-0.8-0.9c0.1-2.4,0.3-4.9,2.4-6.6c0.6-0.4,1.3,0.1,1.4,0.9
		C380.4,336.3,379.4,338.4,377.1,340.2z"/>
	<path class="st26" d="M357.2,491.1c0.6,0.7,1.2,1.3,1.8,2c0.2,3.9,4.7,0.3,5.5,3.2C358.4,498.3,357.5,497.7,357.2,491.1z"/>
	<path class="st27" d="M368.5,496.2c-1.8-1.2-3.3-2.3-5.1-3.6c1.6-1.6,3.3-1.5,4.8-0.6C369.7,493,369.2,494.5,368.5,496.2z"/>
	<path class="st28" d="M389.5,498.8c-1.8-2.1-4.1-2.3-3.5-4.7c0.2-0.7,1-1.1,1.6-0.7C389.1,494.4,390.1,495.7,389.5,498.8z"/>
	<path class="st29" d="M334.9,466.5c0.4-2.3,0.7-3.9,0.9-5.5C339.2,463.9,339.2,463.9,334.9,466.5z"/>
	<path class="st30" d="M350.8,458.1c0.5,2.9,1.1,4.8-0.3,6.6c-0.1,0.1-1.3-0.4-1.5-0.8C348,461.7,349.5,460.4,350.8,458.1z"/>
	<path class="st31" d="M364.7,458.1c0.7,2.9,4,4.8-0.4,6.8C363.7,462.7,363.6,460.9,364.7,458.1z"/>
	<path class="st32" d="M379.1,451.2c-0.4-0.1-0.8-0.1-1.2-0.2c0.7-1.4-0.5-3.3,1.4-4.7C380.5,448.1,380.3,449.6,379.1,451.2z"/>
	<path class="st33" d="M337.3,450.9c-0.4,0.1-0.8,0.2-1.3,0.2c-1.3-1.4-1-3-0.7-4.9C338,447.3,336.5,449.6,337.3,450.9z"/>
	<path d="M256,552.1c0-0.5-0.1-1,0-1.5c0.6-4.3-1.9-9.4,1.3-12.9c2.5-2.8,23,0.5,26.5,3.4c5.2,4.3,6.3,10,5,16.3
		c-1.1,5.7-4.8,8.8-11.4,9.3c-6.1,0.5-12.3,0.2-18.5,0.4c-2.2,0.1-2.9-0.9-2.9-3C256.1,560.1,256,556.1,256,552.1z"/>
	<path d="M266.6,507.9c2.3,0,4.7-0.1,7,0c6.2,0.2,9.2,2.9,9.7,8.4c0.6,6.5-1.7,9.9-7.8,11.3c-5.7,1.3-11.6,0.3-17.4,0.5
		c-1.9,0.1-2.1-1.2-2.1-2.6c0-5,0.1-10,0-15c0-1.9,0.7-2.7,2.6-2.7C261.3,508,264,507.9,266.6,507.9
		C266.6,507.9,266.6,507.9,266.6,507.9z"/>
	<path d="M306,608.6c-0.2,3.6-1,7.8-3.9,11.3c-3.4,4.2-7.9,6-13.2,5.2c-8-1.2-13.3-9.8-12.1-19.5c1.1-9.4,7.2-15.1,15.6-14.6
		C300.2,591.5,305.9,598.6,306,608.6z"/>
	<path d="M402.3,606.7c0.2-5.5,2.4-11.4,9.1-14.6c6.6-3.2,14.3-0.4,17.9,6.2c2.8,5.1,3.2,10.4,1.6,15.9c-2.3,7.6-9,12.1-16.2,10.9
		C407.4,623.9,402.3,616.8,402.3,606.7z"/>
	<path class="st6" d="M364.3,608.2c0-3.2,0-6.3,0-9.5c0.1-7.5-1.3-6.7,7-6.7c10.3,0.1,16.1,5.9,16.1,16.1c0.1,9.5-6,15.6-15.9,16
		c-7.3,0.3-7.3,0.3-7.3-7C364.3,614.2,364.3,611.2,364.3,608.2z"/>
	<path class="st34" d="M365.4,356.2c-1.7,4.5-4.1,5.3-7.4,2.7c-0.8-0.7-1.2-2.2-2.7-0.9c-4.6,3.9-7.4,2.5-8.7-3
		c-0.1-0.4-0.8-0.6-1-1c-0.1-0.2,0.1-0.6,0.2-1.1c0.4,0,1-0.2,1.3,0c1.1,0.7,7.1,1.7,8.5,1.3c1.3-0.4,2.4-0.1,3.1,1
		C360.4,357.6,362.2,359.4,365.4,356.2z"/>
	<path class="st35" d="M317.7,366.1c4.4,4.1,8.5,8.4,15.3,11.5c-5.4,0.3-15.8-6.2-16.7-9.4c-0.4-1.4,0.8-1.6,1.6-2
		C317.8,366.1,317.7,366.1,317.7,366.1z"/>
	<path class="st36" d="M352.2,354.1c-1.5-3.2-1.7-6.3-0.1-10.6C353.9,347.7,353.1,350.9,352.2,354.1z"/>
	<path class="st1" d="M361.2,355.8c-2.2-3.5-2.1-6-1.3-8.5c0-0.1,1,0,1.2,0.2C362.9,349.9,361.2,352.2,361.2,355.8z"/>
	<path class="st37" d="M362.5,384.2c0.5,0.7,0.9,0.9,0.9,1.1c0,2.2,0.9,4.5-0.4,6.6c-0.1,0.1-1.1-0.1-1.2-0.3
		C360.9,389.2,360.8,386.8,362.5,384.2z"/>
	<path class="st38" d="M351.6,367.4c-2.5-1.6-2.3-3.7-1.6-6.7C352.5,363.1,352,365.3,351.6,367.4z"/>
	<path class="st39" d="M347.1,392.5c-1.4-3.5-1.2-5.7-0.5-8.4C349,386.6,348.4,388.8,347.1,392.5z"/>
	<path class="st40" d="M358.3,371.6c1.5,2.9,1.1,4.9,0.7,7.6C356.3,376.5,356.9,374.5,358.3,371.6z"/>
	<path class="st41" d="M370.6,378c-0.9-2.7-1.5-4.3-0.6-6c0.1-0.1,1-0.1,1.3,0.1C372.7,373.8,372,375.3,370.6,378z"/>
	<path class="st42" d="M363,367.4c-1.5-1.8-1.7-3.3-0.7-4.8c0.1-0.2,1.1-0.3,1.2-0.2C364.5,364,364.1,365.5,363,367.4z"/>
	<path class="st43" d="M398.7,367.2c-3.7,4.6-8.2,8.2-14.1,9.5C389,373.1,393.3,369.3,398.7,367.2z"/>
	<path class="st44" d="M348.9,428c0.2,3.5,0.5,6.9,0.7,10.4c0,1.1,0.4,2.6-1.3,2.6c-1.2,0-1.5-1.4-1.2-2.3c0.8-3.5-2.5-7.8,2-10.6
		C349.1,428.1,348.9,428,348.9,428z"/>
	<path class="st45" d="M343,445.4c1.3,4.6,1.7,9.3,0.2,14C341.4,454.8,341.8,450.1,343,445.4z"/>
	<path class="st34" d="M372.6,445c2,4.2,1.4,8.8,1.3,13.3c0,0.9-0.8,1.5-1.7,1.4c-1.1-0.1-1.2-1.1-1.2-1.9c0-4.3,0-8.5,0-12.8
		C371.5,445,372,445,372.6,445z"/>
	<path class="st46" d="M367.8,428.6c1,3.6,0.1,7.4,0.2,11c0,0.8-0.5,1.8-1.4,1.7c-0.9-0.1-1.4-0.9-1.3-1.8c0.3-3.7,0.6-7.4,0.9-11
		C366.7,428.6,367.2,428.6,367.8,428.6z"/>
	<path class="st47" d="M359.9,487.3c-3.7-2.8-2.7-6.4-2.5-9.9c0-0.4,0.8-1.2,1.2-1.2c0.9,0.1,1.2,1,1.3,1.8
		C359.9,481.2,359.9,484.3,359.9,487.3z"/>
	<path class="st48" d="M357.9,459.1c1.5,4.3,1.8,8.5,0.4,12.8C356.4,467.7,356.7,463.4,357.9,459.1z"/>
	<path class="st0" d="M357.4,451.9c0-2.9,0-5.9,0-10C359.6,445.9,359.4,448.9,357.4,451.9z"/>
	<path class="st46" d="M358,398.3c0.7,0.2,0.9,0.2,1,0.3c1.8,1.9,1.5,4.2,0.9,6.4c-0.1,0.2-1,0.5-1.2,0.4
		C356.9,403.3,357.1,401,358,398.3z"/>
	<path class="st49" d="M347.9,401.3c-0.4,1.2-0.1,3-1.7,2.6c-1.7-0.3-1-2.1-1-3.3c-0.1-1,0.3-2.4,1.3-2.3
		C348.4,398.5,347.5,400.4,347.9,401.3z"/>
	<path class="st50" d="M370.9,397c0.7,0.4,0.9,0.5,0.9,0.6c0.9,2.2,0.9,4.4-0.1,6.5c-0.1,0.2-1.1,0.2-1.2,0
		C369.4,401.8,369.6,399.6,370.9,397z"/>
	<path class="st51" d="M357.8,419.3c-1.6-1.9-2.5-3.9-0.9-6.3c0.4-0.6,1.3-0.8,1.7-0.2c1.4,2.3,0.5,4.4-0.8,6.5
		C357.6,419.4,357.8,419.3,357.8,419.3z"/>
	<path class="st52" d="M367.6,469.5c1.7,2.9,1.9,5.4,0.6,7.8c-0.4,0.7-1.2,0.5-1.5-0.2C365.6,474.5,365.9,472.1,367.6,469.5z"/>
	<path class="st48" d="M374.9,469.5c0.6,2.6,0.6,5.1-0.4,8.1C372.4,473.3,372.5,472.6,374.9,469.5z"/>
	<path class="st49" d="M347.3,469.3c2.2,2.7,2.2,5.2,1.2,7.7c-0.2,0.7-1.2,0.9-1.5,0.2C345.6,474.9,346,472.4,347.3,469.3z"/>
	<path class="st0" d="M341,477c-1.3-2.4-1.4-4.8-0.5-7.8C342.6,472.1,342.4,474.5,341,477z"/>
</g>
</svg>
