<?xml version="1.0" encoding="utf-8"?>
<!-- Generator: Adobe Illustrator 21.1.0, SVG Export Plug-In . SVG Version: 6.00 Build 0)  -->
<svg version="1.1" id="Layer_1" xmlns="http://www.w3.org/2000/svg" xmlns:xlink="http://www.w3.org/1999/xlink" x="0px" y="0px"
	 viewBox="0 0 700 965" style="enable-background:new 0 0 700 965;" xml:space="preserve">
<style type="text/css">
	.st0{fill:#FEFEFE;}
	.st1{fill:#FDFCFD;}
	.st2{fill:#6E1C75;}
	.st3{fill:#6D1B75;}
	.st4{fill:#6E1C76;}
	.st5{fill:#73257B;}
	.st6{fill:#B5B4DC;}
	.st7{fill:#BCBBE0;}
	.st8{fill:#BBBAE1;}
	.st9{fill:#E7E5E7;}
	.st10{fill:#C0C0E3;}
	.st11{fill:#ACABD2;}
	.st12{fill:#6F1E77;}
	.st13{fill:#B9B8E0;}
	.st14{fill:#BDBCE2;}
	.st15{fill:#BCBCE1;}
	.st16{fill:#FDFDFD;}
	.st17{fill:#FBFBFC;}
	.st18{fill:#FCFCFC;}
	.st19{fill:#F9F9FA;}
</style>
<g>
	<path class="st0" d="M348.7,694c-112.7,0-225.5-0.1-338.2,0.2c-6.8,0-8.4-1.3-8.3-8.3c0.3-132,0.3-264.1,0-396.1
		c0-6.8,1.3-8.3,8.3-8.3c226.3,0.2,452.5,0.2,678.8,0c6.8,0,8.4,1.3,8.3,8.3c-0.3,132-0.3,264.1,0,396.1c0,6.8-1.3,8.4-8.3,8.3
		C575.7,693.9,462.2,694,348.7,694z"/>
	<path class="st1" d="M581.5,534.1c2.7,4.1,1.4,9.1,2.8,13.4c2.9,9-2,9.2-8.7,10c-15.9,1.9-31.8-1.5-47.6-0.3
		c-0.2-10-2.6-20.4,6.4-29.2c-4,0.1-7.4-0.3-10.9-0.8c-2.3-0.8-4.5-1.6-6.8-2.4c-4.1,10-3.7,20.1-0.1,30.1c-5.6,1.7-8.3,8-14.4,9.1
		c-0.4-12.9-1.4-25.8,0.7-38.6c4.4-7.8,1.1-11.7-6.6-14c-4.8-1.4-9.3-3.2-15.2-1.1c3.3,4.4,7.4,2.9,11.2,2.9c6,0,11.8,0.3,11.6,8.7
		c-1.6,6-5.4,6.1-10.7,5c-9.5-2-15.1,2-16.4,10.7c-1.1,7.5,5.2,13.5,14.4,14.1c3.5,0.2,9.7-3.3,9.4,4.1c-0.3,5.8-5.3,7.3-10.6,8.5
		c-4.4,1-8.5-5.2-12.6-0.2c-31.6-0.8-63.2-4.6-94.8,0c0.7-11.9,7.1-21.7,11.9-32.3c-0.8,1.1-1,2.2-1.7,3.1
		c-3.3,4.3-3.2,13.3-9.9,12.3c-5.6-0.8-6.6-8.8-8.7-14c-1.1-2.8-2.7-5.6-1.5-8.9c0.6-2.6,10.3,2.1,4.7-6.7c-2.8-4.4,5.3-5.8,8.7-8.7
		c-12.7,1.5-13,1.9-12.1,13.6c-5.2,8.9,2,15.1,5.3,21.7c6.7,13.4,6,16.1-8.2,19.8c-9.9-4.8-19.6-10.8-30.9-2.8
		c-1.8,1.3-5.3,0.4-8,0.4c-30.3,0.2-60.7-1.1-91,1.3c-6.4,0.5-13.2-5.7-18.6-10.8c-1.4-1.3-2.3-3.1-3.6-4.5
		c-4.7-5.4-11.9-7.2-16.3-2.8c-4.8,4.6,1.4,9.2,5,12.9c0.7,0.8,1.2,1.8,1.6,4c-11.5-7.5-24.3-2.4-35.4-1.9
		c-14.6,0.6-18.7-6.7-24.7-14.9c-2.9-4-8.9-2.8-11-7.5c11.9-8,19.5-7.1,32.5,4.4c2.1,1.8,3.7,4.6,6.6,3.4c4.8-2-0.8-4.1-0.3-6.2
		c1.2-5.1,3.2-10.8,9.4-9.3c10.1,2.5,20.3-2.4,30.5,1.6c4.3,1.7,9.9,0.9,14.6-1.7c2.3-1.3,4.7-2.9,7.5-1.1c11.4,7.6,15.8-3.7,21.4-9
		c4.1-3.9-4.9-12.2-14.3-13.5c-6.2-0.8-13.1,2.8-18.6-2.7c3.5-3.2,7.9-2.6,12.1-2.6c10.2,0,20-1.2,29-6.6c7.2-4.3,10-0.9,10.3,6.1
		c0.5,13.3-4.5,24-15,32.2c-3.7,2.9-7.9,4.8-11.3,8.4c8.7,0.1,16-3.8,22.2-9.6c9.6-9,15.8-20.1,16.5-33.5c0.8-14.6,0.3-29.3,0.2-44
		c0-3.9-0.1-8.2-5.4-8.7c-5.2-0.5-6.3,3.2-7,7.3c-0.6,3.3-0.3,7.3-5,8c0.6-9.2-3.6-11.6-11.9-8.6c-4.7,1.7-9.9,2.3-10.8-4
		c-0.8-5.8,3.7-7,9-9.1c12.7-5.1,24.6,0.8,36.8,0.4c4.7,6.6,4.1,14.7,6,22.1c6.8,27,25.1,40.8,53.2,39.5
		c23.1-1.1,41.1-18.8,44.9-43.9c1-6.7,0.5-11.8-7.8-11.9c-20.8-0.3-41.5-0.3-62.3,0.8c12.9,2.8,25.9,1.5,38.8,1.8
		c17.3,0.4,20.6,4.7,15.8,21.1c-2.7,9.2-7.5,16.9-15.3,22.5c-14.4,10.3-30.6,8.7-42.6-4.3c-6.7-7.3-11.5-15.9-12.2-25.7
		c-1.3-19.6-1.6-39.2-0.1-58.9c6.6,3.4,16.4,22.7,13.6,29.2c-3.3,7.8,1.1,7.7,6.2,7.7c19.3,0,38.6,0,57.9,0c3.9,0,8,0.3,8.2-5.5
		c0.1-5.6-2.6-6.7-7.4-4.8c-2.6,1-4.7-0.4-5.8-2.5c-3-6-5-5.1-8.5,0.1c-6.2,9.1-15.1-1.7-22.5,2c-1.4,0.7-4.2-0.5-6.6,0.2
		c-14.4,4.1-18.9,0.1-16-14.4c0.7-3.7,3.3-5.1,6.7-5.1c4.6,0,10.2-1.5,13.7,0.6c12.1,7.2,24.1,2.6,36.4,1.8c7.7-0.5,9.7-10.5,17.9-9
		c3.4,4.8,2.6,10.3,2.6,15.6c0.1,20.7,0,41.5,0.1,62.2c0,3.5-0.1,6.9,0.8,10.3c0.7,2.5,2.2,4,4.9,3.9c2.7,0,4.1-1.6,4.8-4.1
		c0.9-3.4,0.8-6.9,0.8-10.3c0-20.7-0.1-41.5,0.1-62.2c0-5.3-0.7-10.8,2.8-15.6c5.8,4,2,9.9,3.1,14.9c0.5,2.3,0.3,4.8,3.4,5.1
		c2.2,0.3,4.7-1,4.6-2.6c-0.7-7.7,5.4-5.6,9.2-6.7c9.7-2.8,19.7-0.1,29.4-1.6c2.3-0.3,5.1,0.7,5,3.5c-0.2,2.7-3,3.2-5.4,3.2
		c-5.3,0.1-9.1,0.5-13.2,6.1c-5.6,7.7-3.6-4.5-8.3-4.5c-1.8,9.2-8.2,13-17.7,12.5c-2.5-0.2-6.3-0.6-6.2,3.2c0,4.6,4.3,3.5,7.1,3.6
		c22,0.1,44,0.3,66,0c11.5-0.2,23,1.1,34.5-1.4c8.8-1.9,10.5,8.1,12.3,12.7c1.5,3.9-6,7.5-11.8,7.4c-2.6-12.7-11.6-13.5-22.5-13.2
		c-22.7,0.6-45.5,0.1-68.3,0.2c-11.5,0.1-13.4,2.5-12.2,13.8c2,18.5,18.9,36.9,37.5,41.2c22.1,5,42.7-3.5,54.1-22.1
		c2.4-4,2.7-10,9-10.8c6.3,6.6,11.8,5.5,17.2-1.4c4.7-6,10.7-10.8,12.9-18.8c1.9-6.6,8.7-8.3,14.1-11.1c12.4-6.4,25.8-3.2,38.7-2.7
		c5.1,0.2,9.7,5.1,9.5,11.4c-0.2,6.5-5.4,6.5-10.2,6.5c-4,0-7.6-1-4.9,5.9c1.6,4.2-4.1,3.4-6.6,3.2c-9.8-0.8-12.3,5-15.5,13.1
		c-4.3,10.8-6.8,23-16.8,31c-5.1,4.1-9.6,8.3,2.4,9.8c8.8,1.1,10.5,7.6,5.6,15.7c-9.1-4.1-18.3-6.1-27.9-1.7c-1.9-1.3-3-3.2-3.9-5.2
		c-0.2-0.3-0.4-0.6-0.4-1c-0.2-0.9-1.4-1.4-1.4-1.2c-1,8.2-0.7,16.4-0.3,24.6c0.2,5.4,4.8,1.2,7,2.6c5,4.4,11,4.8,17.2,4.2
		c2.7-0.2,5.6-0.3,5.9-3.9c0.3-3.1-1.2-5-4.2-5.9c-2.9-0.9-5.8-1.8-8.7-2.8c-4.7-1.6-7-4.8-5.5-9.7c1.7-5.2,6.4-4.8,10.5-4.2
		C575.2,526.1,577.7,530.9,581.5,534.1z"/>
	<path class="st2" d="M314.8,402.2c4.1,8.8,1.5,18.2,2,27.3c0.7,12.3-1,24.7,2.3,36.8c5.5,19.8,20.2,31.2,36.5,28.4
		c15-2.5,29.1-21.9,29.1-39c0-6.3-3.8-5.6-7.6-5.6c-15,0-30.1,0.1-45.1,0c-3.8,0-9.5,1.8-9.4-5.1c0.1-6.1,5.4-4.3,8.8-4.4
		c21.2-0.1,42.4,0.2,63.6-0.2c7-0.1,9.4,2.3,9.5,9.3c0.4,27.5-19.9,51.5-46.7,54.5c-28.7,3.2-54-15.3-59-43.4
		c-1.3-7.2-1.5-14.5-2.3-21.8c0.2-8.3,1.2-16.7,0.5-24.9c-0.8-9.5,2.6-13.3,12-11.8C311,402.7,312.9,402.3,314.8,402.2z"/>
	<path class="st3" d="M182.6,466.8c-12.5,27.8-31.3,40.3-56.9,37.7c-25.4-2.5-45.9-23.5-47-49c-0.6-15,0.1-30.1-0.4-45.1
		c-0.2-7.1,2.8-8.2,8.9-8.1c6.1,0.1,10.3,0.3,10,8.4c-0.5,13.5-0.3,27,0.1,40.5c0.4,12.5,2.9,24.5,12.2,34
		c14,14.3,34.1,12.9,45.8-3.3c1.3-1.9,2.5-3.9,3.5-6c10.9-21.8,8.5-25.8-15.2-25.7c-11.2,0-22.4-0.2-33.5,0.2
		c-6.3,0.3-8.3-2.5-8-8.2c1.9-2.9,4.8-1.8,7.4-1.8c21.6-0.1,43.1-0.1,64.7,0c10.2,0,13.4,3.4,11.4,13.2
		C184.7,457.9,185.3,462.8,182.6,466.8z"/>
	<path class="st3" d="M273.6,460.5c0.7-3.4,2.1-6.8,1.9-10.1c-0.4-7.3,2-10,9.8-10.1c8.3,0,9.5,3.6,9.3,10.5
		c-0.4,15.4,0.3,30.8-0.5,46.2c-1.2,23.6-19.5,45-40.9,48.5c-3.2,0.5-8.3,3.4-9.7-2.4c-1.2-4.8,3.8-5,6.7-6.2
		c19.3-8.5,26.4-20.2,25-44.1c-14.6,12.7-31.3,12.3-48.1,10.7c-22-7.7-35.1-23.1-39.4-46c-3.3-5.4-3.8-10.7,0.4-15.8
		c17.4-2.9,17.5-2.9,19.7,14c0.8,6.5,2,12.9,4.9,18.9c5.9,12.2,14.7,20.8,29.3,20.5c14.5-0.2,23.1-9.1,28.6-21.4
		C272.5,469.6,274.4,465.3,273.6,460.5z"/>
	<path class="st4" d="M535.1,466.8c-15.7,32.4-38,44.3-67,35.6c-22.9-6.9-39.5-31.2-38.1-54.9c0.3-5.8,2.7-7,7.8-7
		c30.5,0.1,60.9-0.1,91.4-0.1c14.2,0,5.3,11.6,8.3,17.2C535.8,460.5,535,463.5,535.1,466.8z"/>
	<path class="st5" d="M425.5,402.4c2.2,30.4,0.4,60.8,1,91.1c0.1,7.5-5.4,5.8-9.8,6.1c-5.1,0.3-8.9-0.2-8.8-7.1
		c0.5-30,0.5-60,0.7-90C414.3,402.5,419.9,402.4,425.5,402.4z"/>
	<path class="st6" d="M477.2,564.2c-0.8-2.4-3.6-5.2-1.2-7.3c3-2.7,4.1,1.7,6.2,2.8c7.3,4,13.6,4.1,17.1-6.1
		c-3.9,0.4-7.2,1.1-10.4,1c-6.6-0.3-11.6-3.2-14.4-9.6c-3-6.9-0.6-12.8,3.8-17.9c4.1-4.8,9.6-6.3,15.5-3.1c3.6,2,6.4,1.7,8.9-1.4
		c0.7-0.9,1.3-0.9,1.8,0.2c0.2,13.8,2.6,27.7-2.3,41.1C493.9,565.9,485.6,568.8,477.2,564.2z"/>
	<path class="st7" d="M553.8,527.4c9.8-7.3,19.1-6.7,27.8,2c0,1.5-0.1,3.1-0.1,4.6c-5.6,1-6.9-5.9-11.5-6.5
		c-3.2-0.4-7.4-1.7-8.9,2.7c-1.6,4.8,2.1,5.7,5.8,6.3c2.6,0.5,5.2,1.4,7.8,1.9c5.1,0.9,7.1,4,6.8,9c-0.3,5.2-3.4,7.8-8.2,7.5
		c-7.1-0.4-15.9,3.6-19.6-6.8c-1.3-1.4-1.4-2.9-0.7-4.6c6.7-4.9,9.3,5.9,16.5,3.5c-3-3-6.9-2.7-9.7-4.4
		C553.7,539.2,548.5,535.3,553.8,527.4z"/>
	<path class="st8" d="M373.3,524.8c3,7,6,14.1,9.5,22.3c6.6-7.4,7.5-17.2,15-22.8c-2.5,14.4-9.9,26.8-15.3,40
		c-3.9,2.1-7.8,2.9-11.7-0.1c11.7-5.1,12-12.1,4.5-21.7c-3.2-4-4.6-9.6-6.4-14.5c-1.2-3.3,0.3-5.1,3.9-5c0.6,0.3,0.9,0.6,0.9,1.1
		C373.6,524.6,373.4,524.8,373.3,524.8z"/>
	<path class="st9" d="M188.2,441.8c-0.1,5.3-0.3,10.6-0.4,15.8c-3.7,1.9-0.8,7.6-5.2,9.2c2.7-25.9,2.7-26.2-23.2-25.8
		c-19.1,0.3-38.2-1.7-57.3,1.2c1.1-3.3,3.8-3.2,6.5-3.2c23.3,0,46.5,0,69.8-0.1C182.1,438.9,185.1,440.3,188.2,441.8z"/>
	<path class="st10" d="M523.5,527.2c4.8-6.5,12.2,1.1,19-6.2c-2.4,9.7-11.8,9.9-12,17.4c-0.2,6.3,1.6,13-2.5,18.8
		c-7.1-4.5-3.5-11.6-4.2-17.5C523.3,535.5,523.6,531.3,523.5,527.2z"/>
	<path class="st11" d="M516.6,554.9c-6.8-5.7-6.7-24.7,0.1-30.1C516.7,534.8,516.7,544.9,516.6,554.9z"/>
	<path class="st12" d="M549.2,488c10.7-5,14.6-15.4,19.5-24.8c12-22.8,26-29.4,50.4-23.5c2.7,0.6,4.1,1.5,4.1,4.4
		c0,2.7-1.1,4.9-3.9,4.4c-25.6-4-32.2,15.2-41.1,32.5c-10.2,19.9-32,28.3-54.3,21.9c-2.6-0.7-4.1-1.9-4.1-4.6c0-4,3.1-3.8,5.7-3.9
		c8.4-0.4,17-0.1,23.8-6.4L549.2,488z"/>
	<path class="st13" d="M306.1,515.6c-0.4,5.2-1.7,9.9,7.3,7.5c8.8-2.4,15.5,2.6,18.9,11.5c4.6-9.7,12.1-13.9,22.4-11.4
		c8,1.9,12.6,8.1,12.9,15.9c0.3,6.8-3.4,13.7-10,15.3c-9.3,2.2-19.6,3.2-24.8-10.6c-5.5,15.2-17.1,11-27.3,11
		c-2.7,0-4.7-1.4-4.5-4.1c1-13.2-3.3-26.7,2.4-39.6C305.6,511.8,306.9,513.1,306.1,515.6z"/>
	<path class="st0" d="M410.1,522.2c4.5-5.9-9.3-9.9-1.6-16.1c5.6-4.5,11.1,1.4,16.7,0.2c2.2-0.5,5.1,0.2,6.7-1
		c11.9-8.4,20.9-1,31.3,5c-5.3,4.7-10.8,2.4-15.7,2.8c-5.5,0.5-11.6-1.6-12.7,7.5c-0.7,5.5-7.9,0.7-10.7,4.2
		C419,525.8,414.2,525.7,410.1,522.2z"/>
	<path class="st14" d="M469.2,554.2c-7.8-3-14,1.6-20.3,1c-4.3-0.4-8.7-0.9-10.5-5.5c-1.7-4.3-0.6-8.6,3.4-11.2
		c3.6-2.4,3.9-4.3,1.6-8.2c-2.5-4.2-0.2-8.2,3.7-10.9c3.6-2.5,7.2-2,10.5,1c3.6,3.3,4.2,6.9,1.9,11.4c-2.8,5.6-2.4,5.4,3.6,8
		C468.9,542.5,462.3,550.8,469.2,554.2z"/>
	<path class="st15" d="M410.1,522.2c4.8,0.1,9.6,0.1,14,2.6c0.9,2.8,4.9,4.2,3.5,8.5c-5.6,1.3-7-6.8-12.5-6.1
		c-3.1,0.4-6.5-0.1-7.6,3.7c-1.4,4.5,2.2,4.9,5.2,5.6c1.5,0.3,3,0.8,4.5,1.1c6.1,1.3,13,2.1,11.5,11c-1.2,7.6-8.2,8.3-13.4,7.9
		c-6.4-0.5-15.3-0.9-13.5-13.1c5.7,3.8,9.2,11.4,17.1,7.4c2.1-1.1,4.3-2.1,4.1-4.8c-0.2-2.6-2.7-2.1-4.5-2.6
		c-1.9-0.5-3.6-1.4-5.5-1.7c-5.8-0.7-10.8-2.5-11.8-9C400,526,406.1,524.9,410.1,522.2z"/>
	<path class="st0" d="M306.1,515.6c-0.9-1.5-1.8-3.1-2.7-4.6c9.5-11.9,18.2-12.2,27.6-1c1.3,1.5,2.4,3,1.1,5
		c-1.3,2.2-3.6,3.2-5.8,2.3C319.8,514.6,312.9,515.9,306.1,515.6z"/>
	<path class="st0" d="M504.5,522.9c-0.6,0-1.2-0.1-1.8-0.2c-0.8-7.9-6.4-7.7-11.9-6.5c-3.4,0.7-6.6,2.7-9.7-0.3
		c-2.1-2-6.4-2.7-5.6-6.5c0.8-4.1,4.9-2.5,7.7-3.1c8.6-1.8,15.7,2.9,22.8,5.9C512.6,515,507.6,519.5,504.5,522.9z"/>
	<path class="st10" d="M553.7,543.6c0,1.5-0.1,3-0.1,4.6c-3.4,0.8-2.9,7.5-7.4,5.5c-3.3-1.4-1.7-5.5-1.8-8.4
		c-0.2-8.8-0.2-17.6,0-26.4c0-2.4-1.1-6.4,2.5-6.6c4-0.3,4.1,3.7,4.3,6.8c0.1,1.1,0.1,2.3,0.2,3.4
		C553.1,529.4,552.8,536.6,553.7,543.6z"/>
	<path class="st0" d="M373.3,524.8c-0.3-0.6-0.4-1.2-0.5-1.9c0-2-0.4-3.8-2.2-5c-5.9-4-4-6.1,1.6-8c3.3-1.1,6.3-2.8,9.4-4.5
		c4.1-2.3,8.4-1.6,9.8,2.4c1.9,5.3-3.7,4.4-6.5,5.2c-2.6,0.8-5.8,0.8-6.1,4.1c-0.3,3.3,3.1,2.5,5.1,3.3c3.4,1.3,2.1,3.5,1,5.6
		c-1.4,2.6-3.2,3.1-5.3,0.7C377.9,524.7,375.5,524.9,373.3,524.8z"/>
	<path class="st0" d="M549.3,487.9c-6.4,0-12.7,0-21.7,0c7.7-8,12-17.9,22.7-12.8c6.9,3.3-0.8,8.5-1.2,12.9
		C549.2,488,549.3,487.9,549.3,487.9z"/>
	<path class="st0" d="M553.7,543.6c-4.9-6.6-1.6-14.1-2.4-21.1c2,1,2.3,2.9,2.5,4.9c-1.8,11.3,6.3,13.1,14.4,15.3
		c2.6,0.7,8.7-1,7,4.6c-1.3,4.2-5.8,4.9-10.7,3.9C559.6,550.1,559.1,543.4,553.7,543.6z"/>
	<path class="st0" d="M522.5,517.8c-0.5-0.1-3.8,0.2-6.4-1.1c-2.7-1.4-4.8-4.7-3.4-7.8c1.9-4.1,4.4-0.5,6.4,0.6
		c3.2,1.9,6.7,1,10.1,1.4c2.6,0.4,7.1-1.6,6.9,3.3c-0.1,3-3.6,3.5-6.4,3.5C528.1,517.9,526.6,517.8,522.5,517.8z"/>
	<path class="st0" d="M279.9,553.1c-0.1,1.6-0.2,3.2-2.3,3.2c-2.2,0-3.4-1.6-3.8-3.6c-0.5-2.2,0.2-4.1,2.7-3.7
		C278.5,549.2,279.7,551,279.9,553.1z"/>
	<path class="st16" d="M484.3,450c8.1,0,16.2,0.5,24.2-0.1c9.1-0.7,10.8,3.1,8.5,10.8c-0.5,1.8-0.7,3.8-1.2,5.6
		c-5.4,18.5-20.4,31.5-34.7,30.1c-15.4-1.5-30.7-20.9-31.7-39.4c-0.3-6,2.1-7.2,7.2-7.1C465.8,450.1,475,450,484.3,450z"/>
	<path class="st17" d="M479.5,541c-0.4-7.6,1.5-13,8.7-13.5c7.7-0.5,11.2,5.3,11.1,11.6c-0.1,4.9-2,11.4-9.2,10.7
		C484.5,549.3,477.9,548.5,479.5,541z"/>
	<path class="st18" d="M338,537.3c0.1-5.6,5-9.7,12.2-9.7c6.8,0,11.3,3.8,11.3,11.6c0,8.3-5,12.4-12,12.4
		C343.1,551.4,338.1,547.2,338,537.3z"/>
	<path class="st18" d="M326.8,541.2c0.4,5.6-2.5,9.6-10,9.3c-7.3-0.2-11.5-3.1-11.1-11.2c0.3-7.3,2.8-12.1,10.7-12
		C324.2,527.5,326.8,532.6,326.8,541.2z"/>
	<path class="st19" d="M456,545.4c0.3,4.7-2.5,5.9-5.1,5.8c-3.2-0.1-7.6,0.3-8.1-4.4c-0.4-3.4,2.1-6.2,5-6.9
		C452.8,538.7,452.9,544.7,456,545.4z"/>
</g>
</svg>
