<?xml version="1.0" encoding="utf-8"?>
<!-- Generator: Adobe Illustrator 21.1.0, SVG Export Plug-In . SVG Version: 6.00 Build 0)  -->
<svg version="1.1" id="Layer_1" xmlns="http://www.w3.org/2000/svg" xmlns:xlink="http://www.w3.org/1999/xlink" x="0px" y="0px"
	 viewBox="0 0 700 965" style="enable-background:new 0 0 700 965;" xml:space="preserve">
<style type="text/css">
	.st0{fill:#FDFDFD;}
	.st1{fill:#010101;}
	.st2{fill:#020202;}
	.st3{fill:#FEFEFE;}
	.st4{fill:#F6F6F6;}
	.st5{fill:#FAFAFA;}
	.st6{fill:#F8F8F8;}
</style>
<g>
	<path class="st0" d="M1,483.3c0-118.9,0-237.9-0.1-356.8c0-3.6,0.8-4.5,4.5-4.5c230.4,0.1,460.8,0.1,691.2,0c3.6,0,4.5,0.8,4.5,4.5
		c-0.1,237.9-0.1,475.7,0,713.6c0,3.6-0.8,4.5-4.5,4.5c-230.4-0.1-460.8-0.1-691.2,0c-3.6,0-4.5-0.8-4.5-4.5
		C1,721.1,1,602.2,1,483.3z"/>
	<path d="M284.9,416.8c0-24.6,0.1-49.2-0.1-73.9c0-3.6,0.5-5,4.6-4.9c17.5,0.3,35,0.2,52.5,0c3.3,0,4.4,0.8,4.3,4.2
		c-0.1,11.1,0,11.1-10.9,11.1c-11,0-22,0.1-33-0.1c-2.9,0-3.8,0.7-3.8,3.7c0.1,39.8,0.1,79.7,0,119.5c0,2.8,0.9,3.5,3.6,3.5
		c13.4-0.1,26.9,0,40.3-0.1c2.9,0,3.9,0.5,3.9,3.7c0,11.7,0.2,11.7-11.4,11.7c-15.1,0-30.1-0.1-45.2,0.1c-3.6,0-4.9-0.6-4.9-4.7
		C285.1,466,284.9,441.4,284.9,416.8z"/>
	<path d="M421.9,416.9c0,24.6-0.1,49.2,0.1,73.9c0,3.5-0.6,4.7-4.4,4.6c-17.7-0.2-35.3-0.2-53,0c-3.2,0-4-0.9-4-4
		c0.1-11.3-0.1-11.3,11.2-11.3c11,0,22-0.1,33,0.1c2.8,0,3.5-0.8,3.5-3.5c-0.1-39.8-0.1-79.7,0-119.5c0-3.2-1-3.7-3.9-3.7
		c-13.3,0.1-26.6,0-39.8,0.1c-3.1,0-4.1-0.7-4-4c0.1-11.4-0.1-11.4,11.2-11.4c15.2,0,30.4,0.1,45.7-0.1c3.6,0,4.6,0.8,4.5,4.5
		C421.8,367.3,421.9,392.1,421.9,416.9z"/>
	<path d="M307.1,417c0-16.7,0.1-33.4-0.1-50c-0.1-4,1.2-4.8,4.9-4.7c10.2,0.2,20.4,0.2,30.6,0c3.1-0.1,3.8,0.9,3.8,3.8
		c-0.1,16.4-0.1,32.7,0,49.1c0,2.6-0.5,3.7-3.4,3.6c-5.5-0.2-11,0.1-16.5-0.1c-3.5-0.2-4.7,0.6-4.6,4.4c0.3,15.1,0,30.1,0.2,45.2
		c0,3.2-0.4,4.5-4.1,4.4c-10.7-0.2-10.7,0-10.7-10.9C307.1,446.8,307.1,431.9,307.1,417z"/>
	<path d="M399.7,417.5c0,17-0.1,34,0.1,51c0,3.1-0.6,4.1-3.9,4.1c-10.8-0.1-10.8,0.1-10.8-10.7c0-13-0.2-25.9,0.1-38.9
		c0.1-3.8-1.1-4.6-4.6-4.4c-5.5,0.3-11,0-16.5,0.1c-2.3,0-3.5-0.2-3.4-3c0.1-16.7,0.1-33.4,0-50c0-3.1,1.3-3.3,3.7-3.3
		c10.5,0.1,21.1,0.2,31.6-0.1c3.5-0.1,3.9,1.3,3.8,4.2C399.6,383.5,399.7,400.5,399.7,417.5z"/>
	<path class="st1" d="M114.8,567.6c9.5-0.4,18.6-1.6,27.7,0.4c3.6,0.8,5.9,3,7.4,6.4c3,7.1,2.9,17.3-5.4,23.4
		c-1.1,0.8-1.5,1.2-0.8,2.6c3.6,7,7.1,14.1,10.5,21.3c0.7,1.6,2.5,2,3.6,3.7c-3.9,1.2-7.7,0.4-11.4,0.5c-1.9,0-2.1-1.8-2.7-3
		c-3.3-6.8-6.6-13.7-9.9-20.5c-0.6-1.2-0.8-3.2-2.8-2.7c-1.7,0.5-0.9,2.2-0.9,3.4c-0.1,4.5,0,9.1-0.1,13.6c-0.1,3.9-0.1,7.6,5.5,8
		c-0.2,0.4-0.3,0.8-0.5,1.2c-3.2,0-6.4,0-9.7,0c-3.4,0-6.7,0-10.1,0c6.8-2,5.2-7.4,5.2-12c0.1-12.6-0.1-25.3,0.1-37.9
		C120.6,571.9,120.2,568.4,114.8,567.6z"/>
	<path d="M205.7,596.8c-0.1-9.2,1.6-17,7-23.5c8.2-10,23.2-9.7,31.2,0.4c9.4,12.1,8.7,35.8-1.3,47.2c-8.3,9.4-23.7,8.5-30.6-2
		C207.3,612,205.5,604.3,205.7,596.8z"/>
	<path class="st1" d="M522.1,624.6c5.1,0,6-3.1,6-7.1c-0.1-13.6-0.1-27.2,0.1-40.8c0.1-4.6-0.3-8.4-6.2-8.7c1.1-1.9,2.5-1.3,3.7-1.3
		c9.2,0,18.5,0.1,27.7-0.1c3-0.1,4.4,0.5,4.2,3.9c-0.3,4.3-0.1,8.7-0.1,13.7c-1.9-1.7-1.7-3.6-2.1-5.1c-2-7.3-7.9-10.7-15.3-9.1
		c-2,0.4-1.6,1.7-1.6,2.9c0,5.8-0.1,11.7,0,17.5c0,1-0.7,2.4,0.8,3c1.3,0.5,2.5-0.2,3.6-1c2.2-1.7,3-4.2,3.6-6.7
		c0.4-1.8,0.7-3.6,2.1-5.4c0,5,0,10.1,0,15.1c0,5.2,0,10.3,0,16.1c-2-1.6-1.6-3.4-1.9-5c-0.5-2.4-1.1-4.8-2.9-6.5
		c-1.2-1.2-2.7-2.2-4.3-1.7c-1.9,0.6-0.9,2.5-0.9,3.8c-0.1,5,0.1,10,0,15.1c-0.1,4.1,1.9,5.4,5.6,5.4c5.8,0.1,10-2.4,12.6-7.5
		c1.2-2.4,2-5.1,3.8-7.7c-0.2,3-0.4,5.9-0.7,8.9c-1,9.4-1.1,9.4-10.4,9.4c-9,0-17.9,0-26.9,0C522.3,625.5,522.2,625.1,522.1,624.6z"
		/>
	<path class="st1" d="M304.4,625.6c-7,0-13.9,0-20.9,0c6.1-1.3,5.6-5.9,5.6-10.3c0-12.6,0-25.3,0-37.9c0-4.3,1-9.3-6.3-9.8
		c9.7-0.5,18.9-2.3,27.8,0.8c8.1,2.9,10.8,15.3,6,23.8c-2.9,5.2-7.2,7.4-12.6,7.1c-4.5-0.2-5.5,1.5-5.1,5.6
		c0.4,3.7,0.2,7.4,0.1,11.2C298.7,620.5,299.2,624.3,304.4,625.6z"/>
	<path class="st1" d="M391.6,564.8c0,7.7,0,14.2,0,20.8c-2,0.1-1.4-1.5-1.8-2.4c-1.1-2.5-2-5.2-3.3-7.5c-2.5-4.3-6-7.3-11.5-6.5
		c-5.1,0.7-7.2,4.6-8.5,8.9c-3.4,11.8-3.4,23.7-0.7,35.5c1.8,7.9,6.9,11.4,13,10.1c2.3-0.5,3.7-1.5,3.5-4.3
		c-0.2-3.1-0.1-6.2-0.1-9.2c0-3.6-0.3-6.9-4.8-8.2c6.2,0,12.5,0,18.7,0c-5.4,2.3-4.4,7-4.4,11.2c0,10.8-0.9,11.9-11.8,13.9
		c-9.5,1.7-17.7-2-22.1-11.2c-6.6-13.7-6.2-27.7,1.6-40.8c5.8-9.6,14.7-11.9,24.6-7.1C388.5,570.1,388.5,570.1,391.6,564.8z"/>
	<path class="st1" d="M398.6,566.8c4.6,0,9.2-0.1,13.7,0c1.9,0.1,2.3,2.1,3,3.4c6.1,10.5,12.5,21,18.3,33c0-10.9,0.1-20.6,0-30.3
		c0-3.4-3.2-4-5.6-5.7c4.6,0,9.2,0,13.8,0c-6.6,2.8-5.3,8.6-5.4,13.8c0,13.8,0,27.5,0,41.3c0,1.5,0,3.1,0,4.6
		c-10.9-15.1-19.3-31.4-29.3-48.4c0,14.3,0,27.2,0,40c0,3.7,2.5,5.6,5.7,7c-4.7,0-9.4,0-14.1,0c7.2-2.6,5.6-8.6,5.7-14
		c0-10.2-0.1-20.4,0.1-30.6c0.1-5.5,0.2-10.8-6.9-13C398.1,567.6,398.3,567.2,398.6,566.8z"/>
	<path class="st1" d="M65.9,566c0,6.5,0,13,0,19.5c-0.2,0-0.4,0.1-0.6,0.1c-1.1-2.9-2-6-3.4-8.7c-2.2-4.2-5.5-7.4-10.6-7.3
		c-5.1,0-8.6,3.2-10.4,7.6c-5.2,13-5.1,26.3,0,39.2c3,7.6,11.1,9,17.7,4c2.5-1.9,4.2-4.4,6.3-7c1.1,2.9,0.2,5-1.5,7
		c-9.1,10.4-24.4,9.3-31.9-2.3c-8-12.5-7.4-31.7,1.4-43.5c6.8-9.1,15.3-11.3,25.5-6.3C62,569.9,64.4,570.3,65.9,566z"/>
	<path class="st1" d="M606.3,624.5c6.6,0.3,6.4-3.7,6.4-7.8c0-13.6-0.1-27.2,0.1-40.7c0.1-4.5-0.8-7.6-5.8-8.7c7.5,0,14.9,0,22.4,0
		c-6.7,0.4-6.2,5.2-6.2,9.6c0,12.3-0.1,24.6,0.1,36.9c0,3.1-1.6,7.3,3,8.7c5.8,1.8,11.4-0.2,14.2-4.6c2.4-3.7,2.9-8.1,4.8-12.1
		c0.8,6.4-0.4,12.8-0.8,19.2c-0.1,1.3-1.5,1-2.4,1c-10.5,0-21,0-31.5,0c-1.1,0-2.2-0.1-3.4-0.2C606.9,625.3,606.6,624.9,606.3,624.5
		z"/>
	<path class="st1" d="M162.4,624.6c5.4,0,6.1-3.3,6.1-7.4c-0.1-13.7-0.1-27.5,0-41.2c0-4.3-0.2-8-5.8-8.7c7.4,0,14.9,0,22.3,0
		c-7.2,0.7-6,6.1-6,10.8c0,12-0.1,23.9,0,35.9c0,3-1.3,6.9,2.8,8.4c5,1.9,11.2,0,14-4c2.2-3.1,3-6.7,4.1-10.3c0.2-0.8,0-2,1.9-2.6
		c-0.5,6.5-0.9,12.6-1.4,18.8c-0.1,1.2-0.8,1.6-1.9,1.6c-11.9,0-23.8,0-35.7,0C162.6,625.5,162.5,625.1,162.4,624.6z"/>
	<path class="st2" d="M510.1,625.7c-7.1,0-14.2,0-21.2,0c6.6-1.3,5.6-6.5,5.6-11c0-13,0.1-25.9-0.1-38.9c0-1.8,1.6-4.7-1.4-5.4
		c-2.9-0.7-5.9,0-7.8,2.6c-2.1,2.8-2.8,6.1-3.3,9.5c-0.4,0-0.8,0-1.2-0.1c0-4.8-0.1-9.6,0-14.4c0-1.6,1.6-1.3,2.6-1.3
		c10.9,0,21.7,0,32.6,0c1.2,0,2.5,0,2.5,1.5c0.1,4.7,0,9.4-0.8,14.2c-0.9-2.5-1.6-5.1-2.7-7.5c-0.8-1.9-2.1-3.6-4.3-4.4
		c-4.5-1.5-6.1-0.4-6.1,4.3c0,13.8,0,27.5,0,41.3C504.7,620.5,504.5,624.6,510.1,625.7z"/>
	<path class="st1" d="M482.8,625.8c-6.6,0-13.2,0-20.3,0c1.8-2.2,6.4-1.7,4.9-5.9c-1-2.7-1.1-6-2.7-8.2c-3.4-4.7-8.8-2-13.2-1.9
		c-4.3,0.1-3.5,5-4.3,7.9c-1.1,3.8,0.1,6.8,5.8,6.5c-0.4,0.4-0.7,0.8-1.1,1.2c-4.4,0-8.8,0-13.5,0c8.1-8.2,9-19.5,12.6-29.5
		c3.5-9.8,6.3-19.9,10.5-29.9c3.1,9.6,6.1,19.3,9.2,28.9c2.5,8,5.1,16,7.5,24C479.1,621.5,480.7,623.6,482.8,625.8z"/>
	<path class="st1" d="M88.8,565.9c3.1,9.8,6.2,19.5,9.3,29.3c2.5,7.8,4.9,15.7,7.3,23.6c0.8,2.7,2.3,4.9,4.8,6.7
		c-6.6,0-13.3,0-20.3,0c1.5-2,6.3-1.3,4.7-5.7c-1-2.5-1-5.6-2.4-7.8c-3.3-5.4-8.8-2.1-13.1-2.2c-5.2-0.1-3.7,5.5-4.8,8.6
		c-1.5,4.1,1.9,5.5,5.2,7.1c-4.6,0-9.1,0-14.7,0c5.3-3.2,6.6-7.9,8.1-12.6c4.8-14.9,9.5-29.8,14.3-44.7
		C87.5,567.4,87.3,566.4,88.8,565.9z"/>
	<path d="M564.5,624.6c5.2,0,6-3.3,6-7.1c0-14.2,0-28.5,0-42.7c0-4.1-1.6-6.5-5.8-7.4c7.4,0,14.8,0,22.2,0c-7.3,1-6.3,6.6-6.3,11.6
		c0,11.5-0.1,23,0.1,34.5c0.1,3.2-1.5,7.7,3.3,9.1c6.1,1.8,11.6-0.4,14.3-5.2c1-1.8,1.7-3.8,2.4-5.8c0.7-1.9,1.1-3.9,1.6-5.8
		c0.4,0.1,0.8,0.1,1.2,0.2c-0.6,6.4-1.1,12.7-1.7,19.1c-0.1,1-1.1,1-1.9,1c-11.7,0-23.5,0-35.2,0
		C564.7,625.5,564.6,625.1,564.5,624.6z"/>
	<path class="st2" d="M653.5,567.1c7.2,0,14.5,0,21.7,0c-6.6,1.2-5.7,6.3-5.7,10.8c0,12.9,0.1,25.9-0.1,38.8c0,4.3,0.5,7.8,5.7,8.7
		c-7.2,0-14.4,0-21.6,0c5.9-0.6,5.6-4.9,5.6-9c0-13.6-0.1-27.2,0.1-40.7c0-4.3-0.9-7.4-6.3-7.3C653.1,567.9,653.3,567.5,653.5,567.1
		z"/>
	<path class="st1" d="M326.3,567.2c7.2,0,14.5,0,21.7,0c-6,1.2-5.7,5.8-5.7,10.2c0,13.1,0,26.2,0,39.3c0,4.1,0.1,8,5.6,8.9
		c-7.1,0-14.3,0-21.4,0c5.9-1,5.6-5.3,5.6-9.6c0-13.3,0-26.5,0-39.8c0-4.2-0.2-8.1-6.6-7.7C325.8,568,326,567.6,326.3,567.2z"/>
	<path class="st3" d="M319.7,390.4c0-4.4-0.6-8.8,0.1-13.1c1-6.3,6.2-1.5,9.3-2.7c1.6-0.6,4.6-1.3,4.4,2.8c-0.2,8.7-0.2,17.5,0,26.2
		c0,2.7-1,3.1-3.4,3.2c-10.5,0.2-10.5,0.3-10.5-10.1C319.8,394.6,319.8,392.5,319.7,390.4z"/>
	<path class="st3" d="M387.1,390.9c0,4.2-0.1,8.4,0.1,12.6c0.1,2.6-0.8,3.2-3.3,3.3c-10.6,0.2-10.6,0.3-10.6-10
		c0-6.3,0.2-12.6-0.1-18.9c-0.1-2.9,0.9-3.4,3.6-3.4c10.3-0.1,10.3-0.2,10.3,10.2C387.1,386.7,387.1,388.8,387.1,390.9z"/>
	<path class="st0" d="M130,582.4c0-3.1,0.2-6.2-0.1-9.2c-0.2-2.8,1-3.3,3.4-3.1c1.7,0.1,3.3,0.4,4.5,1.5c4.7,4.2,4.1,9.8,3.8,15.3
		c-0.3,5.1-4.1,7.4-8,9.2c-1.9,0.9-3.8,0.4-3.7-2.6C130.1,589.9,130,586.2,130,582.4z"/>
	<path class="st3" d="M239.1,597.2c0.1,6.3-0.2,12.7-2.2,18.7c-1.4,4.1-3.4,7.9-8.5,8c-5.4,0.1-7.8-3.6-9-8
		c-3.6-12.9-3.5-25.9,0-38.8c1.2-4.3,3.5-8.2,8.9-8.1c5.5,0.1,7.4,4.2,8.7,8.4C239,583.9,239.3,590.5,239.1,597.2z"/>
	<path class="st4" d="M308.2,581.6c-0.1,6.6-0.7,11.4-6.3,14.1c-2.4,1.2-3.1,0.1-3.1-1.7c-0.1-7.2,0-14.5-0.1-21.7
		c0-2.3,1.4-2.2,2.9-1.9c3.4,0.7,5.2,3.1,5.9,6.3C308,578.7,308.1,580.8,308.2,581.6z"/>
	<path class="st5" d="M457,585.4c2.1,7,3.8,12.7,5.5,18.5c0.3,1,0.9,2.3-1,2.4c-3.1,0-6.1,0-9.2,0c-1.5,0-1.4-1-1.1-2
		C453,598.4,454.8,592.6,457,585.4z"/>
	<path class="st6" d="M90.4,606.1c-4.4,0-8.2,0-12.3,0c2-6.6,3.9-13,6.2-20.8C86.5,593,88.4,599.4,90.4,606.1z"/>
</g>
</svg>
