<?xml version="1.0" encoding="utf-8"?>
<!-- Generator: Adobe Illustrator 21.1.0, SVG Export Plug-In . SVG Version: 6.00 Build 0)  -->
<svg version="1.1" id="Layer_1" xmlns="http://www.w3.org/2000/svg" xmlns:xlink="http://www.w3.org/1999/xlink" x="0px" y="0px"
	 viewBox="0 0 700 965" style="enable-background:new 0 0 700 965;" xml:space="preserve">
<style type="text/css">
	.st0{fill:#1A171B;stroke:#1A171B;stroke-width:0.75;}
</style>
<path class="st0" d="M21.3,339.4h2.9c4.9,0.9,7.3,2.7,7.3,5.3c-0.3,0.7-0.9,1.3-1.6,1.6h-1.6c-1.3-1.9-3.5-3.1-5.8-3.2
	c-6.8,2.4-10.2,4.6-10.2,6.5C6.9,360,4.2,374.1,4.2,392v6.9c0.3,14.6,1.9,29.2,4.9,43.5c1.9,12.4,4.7,20.9,8.2,25.3
	c2.9,3.1,6.8,5.1,11,5.8c4,0,8.4-3,13.1-9h1.2c0.6,0.2,1.1,0.6,1.2,1.2v0.9c0,2.5-3,5.6-9,9.4c-2.2,1-4.5,1.6-6.9,1.6h-0.5
	c-4.8-0.9-9.2-3.1-12.7-6.5c-4.8-3.9-9.1-19.3-12.7-46.4c-1.7-9.6-2.3-19.3-2-29v-2.4c0.5-27.5,5-44.5,13.5-51
	C16,340.9,18.6,339.9,21.3,339.4z"/>
<path class="st0" d="M95.7,338.4h0.4c3.9,1.8,7.2,6.6,9.9,14.5c7.5,23.4,13.1,53.3,16.7,89.7c2.2,10.2,3.4,20.6,3.6,31.1
	c-0.5,1-1.6,1.5-2.8,1.3c-1.1-2.1-2.7-12.9-4.9-32.4c-0.6-2.1-2-11.1-4.1-27l-3.2-0.4c-14.7,1.4-22,2.9-22,4.5v15.8l-2.8,37.7
	c0.6,0.8,0.9,1.7,0.9,2.6c-0.3,0.8-1,1.5-1.8,1.8c-2.4,0-3.6-1.5-3.6-4.5c2.2-28.7,3.2-46,3.2-51.8c-0.3-3.7-0.4-7.5-0.4-11.3
	c0.2-20.8,1.8-41.6,4.8-62.3C91.1,341.5,93.1,338.4,95.7,338.4z M95.7,343.8c-3.9,15.2-5.8,34.9-5.8,59.1c-0.5,3.3-0.6,6.6-0.4,9.9
	v1.3c8.1-2.3,16.4-3.5,24.8-3.6V410c0-8.3-4.5-28-13.6-59C98.7,346.8,97,344.4,95.7,343.8L95.7,343.8z"/>
<path class="st0" d="M175.7,327.1h0.8c2.2,1.5,4.7,2.3,7.3,2.4c5.4,2.3,9.8,6.3,12.7,11.4c4.6,11.2,6.9,19.5,6.9,24.9v4.1
	c0,17.8-5.2,30.7-15.5,38.8c12,2.9,18.9,17,20.8,42.4v15.6c0,2.3,0.1,5.7,0.4,10.2l-1.2,0.8h-1.2l-1.6-1.2
	c-0.3-5.4-0.4-9.5-0.4-12.2v-14.7c-0.3-11.1-3.5-22-9.4-31.4c-4.4-4.1-8.2-6.1-11.4-6.1h-0.4c0.3,5.8,0.4,10.2,0.4,13.1v15.5
	c0.5,13.5,0.8,21.2,0.8,22.8v0.8c-0.4,1-1.4,1.6-2.4,1.6c-0.8-0.3-1.5-0.9-2-1.6l0.4-2.9c-0.5-11.5-0.8-19.1-0.8-22.8V414
	c-1.1,0-2.1-0.6-2.4-1.6v-1.2c0.3-0.9,1.1-1.5,2-1.6c-1.4-37.3-3.1-64.4-5.3-81.2L175.7,327.1z M179,332.9
	c1.6,19.9,3.1,44.5,4.5,73.8c10.6-7.2,15.9-18.8,15.9-34.8v-5.8c0-7.1-3-16.2-9-27.3c-4.5-4.1-7.9-6.1-10.2-6.1H179V332.9z"/>
<path class="st0" d="M253.6,327.1h0.8c2.2,1.5,4.7,2.3,7.3,2.4c5.4,2.3,9.8,6.3,12.7,11.4c4.6,11.2,6.9,19.5,6.9,24.9v4.1
	c0,17.8-5.2,30.7-15.5,38.8c12,2.9,18.9,17,20.8,42.4v15.6c0,2.3,0.1,5.7,0.4,10.2l-1.2,0.8h-1.2l-1.6-1.2
	c-0.3-5.4-0.4-9.5-0.4-12.2v-14.7c-0.3-11.1-3.5-22-9.4-31.4c-4.4-4.1-8.2-6.1-11.4-6.1h-0.4c0.3,5.8,0.4,10.2,0.4,13.1v15.5
	c0.5,13.5,0.8,21.2,0.8,22.8v0.8c-0.4,1-1.4,1.6-2.4,1.6c-0.8-0.3-1.5-0.9-2-1.6l0.4-2.9c-0.5-11.5-0.8-19.1-0.8-22.8V414
	c-1.1,0-2.1-0.6-2.4-1.6v-1.2c0.3-0.9,1.1-1.5,2-1.6c-1.4-37.3-3.1-64.4-5.3-81.2L253.6,327.1z M256.9,332.9
	c1.6,19.9,3.1,44.5,4.5,73.8c10.6-7.2,15.9-18.8,15.9-34.8v-5.8c0-7.1-3-16.2-9-27.3c-4.5-4.1-7.9-6.1-10.2-6.1h-1.2V332.9z"/>
<path class="st0" d="M337.2,335.7c3,1.1,6.2,1.7,9.4,1.6c5.4-0.3,9.1-0.4,11-0.4l0.8,1.2v1.6c-0.2,0.6-0.6,1.1-1.2,1.2
	c-1.5,0-5.3,0.1-11.4,0.4l-4.9-0.4c0.9,7.4,1.4,14.9,1.2,22.4c-1.6,23.7-2.4,37.7-2.4,42c0,0.7,5.7,1.5,17.1,2.4l1.2,1.6v0.8
	c-0.4,0.8-1.2,1.4-2,1.6c-5.5-0.9-11.1-1.3-16.7-1.2c-1.6,26.5-2.4,44.7-2.4,54.7v7.3c0,0.4,0.3,0.8,0.8,0.8c0,0,0,0,0.1,0h0.3
	l15.5-1.6v0.4l0.8-0.4h1.6c0.7,0.3,1.3,0.9,1.6,1.6v0.8c-0.3,0.7-0.9,1.3-1.6,1.6h-4.1l-12.7,1.6c-0.4-0.2-0.8-0.4-1.2-0.4l-0.8,0.4
	c-2.4,0.1-4.4-1.7-4.5-4.1c0-0.3,0-0.5,0-0.8v-6.9c0-11.4,1.8-45.6,5.3-102.4v-1.6c0-12.7-0.8-20.8-2.4-24.5
	C335.8,336.5,336.4,335.9,337.2,335.7z M358.8,311.9h0.5c1.3-0.2,2.6,0.7,2.8,2.1c0,0.2,0,0.5,0,0.7c0,0.9-3.3,2.8-9.9,5.6
	c-5.8,3-9.4,4.9-10.9,5.8c-0.3,0.1-0.7,0.2-1,0.2h-0.5c-1.2,0.1-2.3-0.7-2.4-2c0,0,0-0.1,0-0.1V324c0-1.5,5-4.6,14.9-9.4
	C354.2,313.4,356.5,312.5,358.8,311.9L358.8,311.9z"/>
<path class="st0" d="M405.9,336.2c1.6,0.5,10.3,22.3,26.1,65.4h1.1c0-2.9,6.8-23.9,20.3-63.1h1.2l1,1.9v4.1
	c-0.8,24.4-1.1,44.9-1.1,61.7c0,6.5,1.2,29.8,3.6,70.1l-2.4,1.2c-1.6,0-3.1-22.2-4.7-66.5v-49.8h-1.1c-9.9,30.7-15.4,46.5-16.6,47.4
	c-2.4-0.1-9.9-18-22.5-53.4h-1.2v1.2l5.8,117.6l-2.4,1.2c-1.2,0.1-2.2-0.7-2.4-1.8c0-0.2,0-0.4,0-0.6c-2.4-71.1-4.8-116.2-7.1-135.4
	L405.9,336.2z"/>
<path class="st0" d="M513.7,337l0.8,0.4c0.2,0,0.4-0.1,0.4-0.3c0,0,0-0.1,0-0.1c8.7,0.8,13.1,1.8,13.1,2.9v0.4c-0.2,1.1-1,1.9-2,2
	l-11.8-1.2c-0.8,0-3.5,0.1-8.2,0.4l0.4,4.9c0,4.4,0.7,22.4,2,53.9h2.9c1.8,0,3.6-0.1,5.3-0.4c6.1,0.5,10.6,0.8,13.5,0.8l1.2,1.6v1.2
	c0,0.8-0.5,1.2-1.6,1.2c-2.4,0-6.3-0.3-11.8-0.8c-3.7,0.3-6.8,0.4-9.4,0.4v1.6c0,19.2,1,41.3,2.9,66.5c0.2,0,0.4,0.1,0.4,0.3
	c0,0,0,0.1,0,0.1c10.3-0.5,16.4-0.8,18.4-0.8c1.1,0.3,2,1,2.4,2v0.4c-0.3,0.7-0.9,1.3-1.6,1.6c-10.3,0.3-16.6,0.5-18.8,0.8
	c-2.5,0.2-4.7-1.6-5-4.1c0-0.4,0-0.8,0-1.3c-1.9-26-2.9-47.6-2.9-64.9v-13.1c-1.4-23.9-2-40.1-2-48.5c-0.8-4.1-1.2-6.3-1.2-6.5
	l1.6-1.2h4.5C508.8,337.4,510.9,337.3,513.7,337z"/>
<path class="st0" d="M575.2,336.8c1.5,0,7.6,18.5,18.5,55.6c1.6,8.8,8.2,30.8,19.8,66.1h1.1v-3.4c-1.6-33.1-2.4-51.6-2.4-55.7
	c0-1.2,0.2-5.4,0.5-12.4c0-0.8,0-2.4,0-4.8c0.5-5.5,0.8-9.8,0.8-12.9v-29c-0.1-1.2,0.9-2.3,2.1-2.3c0,0,0.1,0,0.1,0l2.4,1.2
	c-0.8,15.5-1.1,27.1-1.1,34.8v11.6c0,23.7,0.7,54.2,2.2,91.6l-2.2,1.1c-1.6,0-11.2-30.1-29-90.4l-10.7-36.8l-0.8-1.3v2.2
	c0.5,5.8,0.7,10.3,0.7,13.5v3.5c-0.5,15.1-0.8,25.7-0.8,31.7c-0.3,25.1,0.9,50.3,3.5,75.3h-2.4c-1.1,0.2-2.1-0.6-2.2-1.7
	c0-0.2,0-0.4,0-0.6c-1.6-23.7-2.4-45-2.4-63.8v-70.8C573,337.8,573.9,336.9,575.2,336.8z"/>
<path class="st0" d="M698.8,344.9l1.2,1.4v1c0,1.2-3.8,1.7-11.4,1.7h-11.4c-0.6,0.2-1.1,0.8-1.2,1.4l0.8,18.7
	c-0.3,1.7-0.4,2.7-0.4,2.9c2.5,41.1,3.7,70.6,3.7,88.4c0.2,0.3,0.4,0.7,0.4,1.1c-0.2,0.3-0.4,0.6-0.4,1l0.4,2.4
	c-0.1,0.7-0.6,1.2-1.2,1.4h-1.6c-0.7-0.3-1.2-0.8-1.6-1.4c0-0.5,0.1-1.8,0.4-3.9c0-5.8-1.2-35.2-3.7-88.1c0-8.6-0.3-16.5-0.8-23.6
	l-0.8-0.4h-1.2l-13.1,1.1c-0.8-0.9-1.2-2-1.2-3.2c0.3-0.7,0.9-1.2,1.6-1.4c1.1,0.3,2.2,0.6,3.3,0.7c5.2-0.5,8.9-0.7,11-0.7h16.7
	C691.8,345.6,695.3,345.4,698.8,344.9z"/>
<path class="st0" d="M177.9,511.9c8.4,0,13.6,8.8,15.5,26.5v7.7c-2,11.1-6.5,21.5-13.1,30.6c-0.9,0.9-1.7,1.8-2.4,2.9v0.4
	c5.7,2.2,10.5,6.4,13.5,11.8c3.6,5.4,6,13.7,7.3,24.9c0.4,12.6-2.7,25-9,35.9c-2.9,3.7-6.9,6.4-11.4,7.7h-0.8
	c-3.9,0-5.8-4.6-5.8-13.9c-3.3-46.9-4.9-82.9-4.9-108.1c-0.5-7.4-1.4-14.3-2.4-20.8C168,514.2,172.8,512.2,177.9,511.9z
	 M168.9,519.7c2.5,24.1,3.6,48.3,3.3,72.5c1.1,12.8,2.4,33.6,4.1,62.4l1.6,1.6c5.5-2.2,9.8-6.6,11.8-12.2c3.2-8.8,4.9-18,4.9-27.3
	c-2.2-13.1-4-19.6-5.3-19.6c-2.3-5.8-6.7-10.6-12.2-13.5c-2,0.2-3.9-0.8-4.9-2.4V580c8.5-9.3,14.4-20.7,17.1-33v-6.5
	c-1.4-16.3-5.2-24.5-11.4-24.5C174.5,515.9,171.3,517.3,168.9,519.7L168.9,519.7z"/>
<path class="st0" d="M284.8,519.8l0.8,0.4c0.2,0,0.4-0.1,0.4-0.3c0,0,0-0.1,0-0.1c8.7,0.8,13.1,1.8,13.1,2.9v0.4c-0.2,1.1-1,1.9-2,2
	l-11.8-1.2c-0.8,0-3.5,0.1-8.2,0.4l0.4,4.9c0,4.4,0.7,22.4,2,53.9h2.9c1.8,0,3.6-0.1,5.3-0.4c6.1,0.5,10.6,0.8,13.5,0.8l1.2,1.6v1.2
	c0,0.8-0.5,1.2-1.6,1.2c-2.4,0-6.3-0.3-11.8-0.8c-3.7,0.3-6.8,0.4-9.4,0.4v1.6c0,19.2,1,41.3,2.9,66.5c0.2,0,0.4,0.1,0.4,0.3
	c0,0,0,0.1,0,0.1c10.3-0.5,16.4-0.8,18.4-0.8c1.1,0.3,2,1,2.4,2v0.4c-0.3,0.7-0.9,1.3-1.6,1.6c-10.3,0.3-16.6,0.5-18.8,0.8
	c-2.5,0.2-4.7-1.6-5-4.1c0-0.4,0-0.8,0-1.3c-1.9-26-2.9-47.6-2.9-64.9v-13.1c-1.4-23.9-2-40.1-2-48.5c-0.8-4.1-1.2-6.3-1.2-6.5
	l1.6-1.2h4.5C279.9,520.2,282.1,520.1,284.8,519.8z"/>
<path class="st0" d="M382.7,521.2h0.4c3.9,1.8,7.2,6.6,9.9,14.5c7.5,23.4,13.1,53.3,16.7,89.7c2.2,10.2,3.4,20.6,3.6,31
	c-0.5,1-1.6,1.5-2.8,1.3c-1.1-2.1-2.7-12.9-4.9-32.4c-0.6-2.1-2-11.1-4.1-27l-3.2-0.4c-14.7,1.4-22,2.9-22,4.5v15.8l-2.8,37.7
	c0.6,0.8,0.9,1.7,0.9,2.6c-0.3,0.8-1,1.5-1.8,1.8c-2.4,0-3.6-1.5-3.6-4.5c2.1-28.7,3.2-46,3.2-51.8c-0.3-3.7-0.4-7.5-0.4-11.3
	c0.2-20.8,1.9-41.5,4.9-62.1C378.1,524.3,380.1,521.2,382.7,521.2z M382.7,526.6c-3.9,15.2-5.8,34.9-5.8,59.1
	c-0.5,3.3-0.6,6.6-0.4,9.9v1.3c8.1-2.3,16.4-3.5,24.8-3.6v-0.5c0-8.3-4.5-28-13.6-59C385.7,529.6,384,527.2,382.7,526.6L382.7,526.6
	z"/>
<path class="st0" d="M493.5,516.9h0.8c1.3,0.6,2.1,1.9,2,3.2v2c2.5,44.3,5.4,79.9,9,106.9c2.4,18.2,6.1,27.3,11,27.3
	c3.3-1.1,5.4-4.3,5.3-7.7c0-10.7-1.1-37.6-3.2-80.8c0.3-7.9,0.4-15.5,0.4-22.8v-9.8l-0.4-2.4l0.4-0.8c-0.3-3.7-0.7-7.5-1.2-11.4
	l1.6-1.2h1.2c1.2,0,2,3.8,2.4,11.4c0,0.5-0.1,0.8-0.4,0.8c0.3,4.1,0.4,7.1,0.4,9v13.1l-0.4,2.4c0,0.2,0.1,0.4,0.3,0.4
	c0,0,0.1,0,0.1,0c-0.3,3.2-0.4,5.5-0.4,6.9v1.6c2.2,47.3,3.2,75.2,3.2,83.7c-0.8,7.9-4.3,11.8-10.6,11.8c-7.4,0-12.2-13.1-14.7-39.2
	c-3-23.2-5.9-57.6-8.7-103.2L493.5,516.9z"/>
</svg>
