<?xml version="1.0" encoding="utf-8"?>
<!-- Generator: Adobe Illustrator 21.1.0, SVG Export Plug-In . SVG Version: 6.00 Build 0)  -->
<svg version="1.1" id="Layer_1" xmlns="http://www.w3.org/2000/svg" xmlns:xlink="http://www.w3.org/1999/xlink" x="0px" y="0px"
	 viewBox="0 0 700 965" style="enable-background:new 0 0 700 965;" xml:space="preserve">
<style type="text/css">
	.st0{fill:#FEFEFE;}
	.st1{fill:#9A9A9A;}
	.st2{fill:#B4B4B4;}
	.st3{fill:#9F9F9F;}
	.st4{fill:#929292;}
	.st5{fill:#CDCDCD;}
	.st6{fill:#949494;}
	.st7{fill:#A3A3A3;}
	.st8{fill:#C5C5C5;}
	.st9{fill:#A4A4A4;}
	.st10{fill:#8B8B8B;}
	.st11{fill:#B3B3B3;}
	.st12{fill:#969696;}
	.st13{fill:#C8C8C8;}
	.st14{fill:#939393;}
	.st15{fill:#BFBFBF;}
	.st16{fill:#A1A1A1;}
	.st17{fill:#D2D2D2;}
	.st18{fill:#707070;}
	.st19{fill:#B0B0B0;}
	.st20{fill:#CCCCCC;}
	.st21{fill:#8A8A8A;}
	.st22{fill:#ABABAB;}
	.st23{fill:#A2A2A2;}
	.st24{fill:#C0C0C0;}
	.st25{fill:#B8B8B8;}
	.st26{fill:#757575;}
	.st27{fill:#999999;}
	.st28{fill:#7B7B7B;}
	.st29{fill:#777777;}
	.st30{fill:#919191;}
	.st31{fill:#808080;}
	.st32{fill:#9C9C9C;}
	.st33{fill:#B5B5B5;}
	.st34{fill:#828282;}
	.st35{fill:#898989;}
	.st36{fill:#909090;}
	.st37{fill:#818181;}
	.st38{fill:#7A7A7A;}
	.st39{fill:#787878;}
	.st40{fill:#9B9B9B;}
	.st41{fill:#B2B2B2;}
	.st42{fill:#AFAFAF;}
	.st43{fill:#A5A5A5;}
	.st44{fill:#D5D5D5;}
	.st45{fill:#868686;}
	.st46{fill:#C3C3C3;}
	.st47{fill:#BCBCBC;}
	.st48{fill:#737373;}
</style>
<g>
	<path class="st0" d="M262.9,658.5c-85.1,0-170.2-0.1-255.3,0.1c-5,0-6.2-1.1-6.2-6.2c0.2-86.7,0.1-173.4,0.1-260.1
		c0.7-0.5,1.4-0.5,2.1,0c8.1,22.5,26.7,31,47.9,35.9c5.1,2.3,4.7,5.5,1.8,9.5c-5.4,7.5-10.5,15.3-15.4,23.2
		c-9.3,14.9-14.6,30.8-13.7,48.7c0.6,11.5,5,20.7,13.8,27.9c8.4,6,18,8.4,28.1,9.1c38.2,1.4,69.6-12.9,95.2-40.7
		c8.3-10.3,15.1-21.2,11-35.4c-5.6-13.7-20.2-20.5-37.5-17.5c-31.5,5.4-52,25.1-67,51.7c-2.7,4.9-6.7,9.5-6.5,15.6
		c9.3-16.8,20.8-31.8,35.3-44.4c14.3-12.5,30.2-21.1,50.1-19.5c4.9,0.4,9.5,1.2,13.6,4.1c4.4,4,8.6,8.2,9.3,14.6
		c1.6,14.3-5.9,24.9-15.2,34c-24.2,23.7-53.4,36.3-87.6,35.2c-11.6-0.3-22-4.5-29.3-14.4c-2.9-5.1-4.4-10.5-4.2-16.3
		c0.6-15.4,6.9-28.7,14.8-41.5c8.8-13.2,18.7-25.5,29.2-37.3c2.8-3.1,6.1-3.9,10-4.3c31.1-2.7,61.5-8.8,90.5-20.9
		c26-10.8,50-24.5,69.3-45.5c8-8.8,14-18.4,11.7-31.1c-3.5-8.3-10.5-10.9-18.7-11.1c-22.2-0.5-42.4,6.7-61.8,16.7
		c-25.6,12.1-48.5,28.4-70.3,46.2c-13.3,10.8-26.1,22.2-37.9,34.7c-5,5.3-10.9,6.2-17.6,5c-10.7-1.9-20.5-6-29.9-11.4
		c-10.3-8.3-16.2-18.6-15.2-32.3c2.3-24.3,18.3-38.6,37.7-49.5c24.1-13.6,50.1-18.9,78-15.7c9.1,1,18.3,3.2,27.5,2.6
		c-19.9-5.9-40.2-7.2-60.6-5.3c-18.3,1.7-36,6.1-51.9,16c-14.5,9-26.1,20.5-32.2,36.9c-0.8,2.2-0.5,5.7-4.4,5.7c0-21,0-41.9,0-62.9
		c231.5,0,462.9,0,694.4-0.2c6,0,7.4,1.4,7.4,7.4c-0.2,112.1-0.2,224.2,0,336.3c0,5.5-1.1,6.6-6.6,6.6c-135.5-0.2-271-0.2-406.5-0.2
		c-0.5-0.7-0.5-1.4,0-2.1c24.3-6.7,44-21.1,62.3-37.8c6.3-5.8,12.8-11.2,18.7-17.4c17.7-19.1,34.6-38.8,49.9-59.8
		c23.4-30.2,46-61,69.3-91.4c1-1.3,2.1-2.5,2.5-4c-6.5-3.9-11.7-1.4-15.8,3.7c-6.1,7.5-11.7,15.4-17.7,23
		c-16.2,20.1-34.1,38.6-54.3,54.7c-7.4,5.9-15.5,10.7-24.2,14.3c-4.5,1.8-9.1,3.5-14.1,1.7c-3.2-1.9-4.2-4.9-4.1-8.4
		c3.9-13.9,14.3-23.7,22.6-34.8c13.5-18.3,27.8-36,41.3-54.3c-8-3.1-12.9-2.3-17.3,3.3c-10.5,13.4-21.3,26.6-31.1,40.6
		c-15.6,21.5-35.1,38.5-58.4,51.2c-3.7,2-7.6,4.1-12.1,2.2c-2.7-1.6-4.3-3.9-4.5-7.1c0.9-8,6-14,10.3-20.3
		c4.7-7,10.2-13.6,15.1-20.5c15.9-20.9,31.5-42,46.9-63.2c4.3-5.9,9.2-8.1,16.3-8.1c32.4,0.2,64.9,0.2,97.3-0.1c2.7,0,6.5,2,8.1-2.3
		c-2.7-1.9-5.8-1-8.6-1c-29.2,0.1-58.4,0.1-87.6,0.1c-3.7,0-7.5,0.5-11.1-1.2c-4.1-3.8,0-6.3,1.7-8.9c4.7-7.2,10.8-13.3,14.8-20.9
		c-9.2-3.2-13.3-2.2-18.7,4.8c-4.4,5.7-9,11.4-12.8,17.5c-3.8,6.1-8.9,8.9-16.1,8.4c-4-0.3-8.1-0.3-12.1,0.2c-1.8,0.2-4,0-4,2.7
		c4.8,2.1,9.8,0.3,14.7,1.2c5.6,1,4.4,4.2,2.3,7.5c-3.3,5.1-7.2,9.9-10.9,14.8c-9.2,12.1-18,24.4-26.9,36.7
		c-14.6,23.5-37.3,37.9-59.4,53c-5.7,3.9-11.9,6.3-18.9,3.7c-1.5-0.9-2.4-2.2-2.9-3.8c-1.1-4.5,1.7-7.7,3.8-10.9
		c12.9-19.3,27.7-37.3,41.3-56.1c5.9-8,12.7-15.5,17.6-24.2c-7.5-1.9-13.4-0.3-18.3,6.2c-3.7,5-5.8,4.2-8-1.9
		c-2.9-8.1-7.1-10.6-16-9.5c-9.1,1.2-18,3.7-26.1,7.9c-27.8,14.2-51.6,32.8-65.9,61.5c-4,7.9-6.9,16.4-4.9,25.6
		c1,3.1,2.3,6.1,5.5,7.6c14.2,6.5,26-1.2,38.1-6.7c9.9-4.4,16.6-13.5,26.4-18.1c3.9,1.8,1.9,5,1.7,7.7c-0.2,3.7-2.2,7.2-0.9,11
		c0.6,2.5,1.4,4.8,4,6c7.9,2.5,15.3,1.1,22.6-2.4c10.7-5.2,20.1-12.3,29.3-19.7c2.1-1.6,3.6-4,6.6-4.2c3.7,2.3,2,5.5,1.3,8.4
		c-1.2,4.9-2,9.7-0.8,14.6c0.7,2.1,1.7,4.1,3.6,5.4c6.6,4.3,13,1.3,19-1.1c12.3-4.9,22.8-12.7,32.4-21.6c5.2-2,4.5,1.7,4.3,4.6
		c-0.2,6.1-1.6,12.3,3.3,17.4c11.1,6.8,20.6,0.2,30-4.2c8.4-3.9,15.9-9.6,22.9-15.9c1.6-1.4,3.1-2.9,5.4-3.2
		c1.3,0.1,2.3,0.6,2.9,1.8c0.2,0.8,0.2,1.6,0.1,2.4c-13.2,22.5-30.2,42.2-46.7,62.3c-18.1,17.4-34.3,36.8-55,51.5
		c-11.1,8-22.6,15.3-36.4,18c-11,1.3-21.1-0.3-28.9-9.4c-0.9-1-2.2-2-3.1-0.3c-0.7,1.3,0.5,2.4,1.4,3.4
		C255.6,654.2,261.9,653.2,262.9,658.5z"/>
	<path class="st1" d="M1.6,371.5c13.7-39.3,44.7-54.5,82.8-59.8c21.5-3,42.8-1.2,63.9,3.5c2.7,0.6,5.9,0.3,7.7,3.2
		c-3.2,2.3-6.6,1.4-10,0.6c-11.2-2.4-22.6-3.4-34-3.9c-18.5-0.7-36.5,2.9-54,9.3c-27.6,6.7-48.2,29.9-51.5,57.9
		c-0.4,3.7-0.6,7.6-3.7,10.4c-0.5,0.1-1,0-1.4-0.3C1.6,385.4,1.6,378.4,1.6,371.5z"/>
	<path class="st2" d="M251.7,651.9c-2.8-2.6-5-5.8-1.1-8.6c3.5-2.5,4.8,1.5,6.6,3.6c7,8.2,16.6,8.8,26.5,8.3
		c2.2-1.1,4.4-0.8,6.6-0.3c0.7,0.8,0.7,1.6,0.1,2.4c0.1,0.4,0.1,0.8-0.1,1.2c-2.7,0-5.4,0-8.1,0
		C271.7,658.1,261.4,656.1,251.7,651.9z"/>
	<path class="st3" d="M251.7,651.9c0.1-1.1,0.9-2.8,1.5-2.3c8.7,6.4,19.3,6.4,29.1,9c-6.5,0-12.9,0-19.4,0
		C259.4,655.9,254.5,655.6,251.7,651.9z"/>
	<path class="st4" d="M695.7,347c3.7,2.7,5.8,6.5,5.8,10.9c0.1,17.6,0,35.3-0.1,52.9c0,0.9-0.8,1.9-1.3,2.8
		c-2.1-12.5-0.4-25.1-0.9-37.6c-0.2-4.5,0.1-8.9-0.1-14.1c0.1,15.8,0.1,30.9,0,46c-0.1,9.6-4.9,16.1-14.1,16.4
		c-18.5,0.6-37,1.4-55.4-1.1c-2.5-0.3-4.4-1.9-6.9-2.1c-3.6-1.9-4.9-5.2-5.2-9c-3.2-17.7,1.5-34.3,7.3-50.6c1.9-5.4,6-7.5,11.4-5.1
		c3.7,1.6,7.7,2.1,11.5,3c3.4,5.9-1.4,7.3-5,9.4c-1.7,0.4-3.1-0.3-4.5-1.1c-1.8-1-3.1-3.9-5.3-2.7c-2.6,1.5-1.8,4.7-1.8,7.3
		c0.1,6.9,5.7,11.2,8.3,16.8c-0.8,3.9-4.2,3-6.8,3.7c-2,0.6-5.6-1-5.3,3.3c2,2.6,4.4,4.8,6.5,7.2c3.4,3.9,6.4,5.6,10.1,0.2
		c1.9-2.7,4.9-3,8-1.6c5.1,2.2,9.5,1,13.2-2.9c2.2-2.3,4.9-2.8,7.9-3.3c9.5-1.6,15.5-8,17.6-18.8c-4.4,1.8-8.8,3.1-13,4.4
		c-1.5,0.5-3.3,1.1-4.5-0.3c-1.6-1.9-0.3-4.2,1-4.9c6.8-3.8,4-9.1,2.8-14.3c-2.9-5.5-8.5-5-13.4-6.2c-2.5-0.6-6.7,1.3-6.8-3.8
		C669.5,349.3,682,344,695.7,347z"/>
	<path class="st5" d="M162.8,536.1c-4-9.7,0.1-18.5,3.9-26.9c11.3-25,31.6-41.5,53.8-56.1c11.8-7.7,24.8-12.5,38.7-15.2
		c12.4-2.4,19,2.2,20.7,14.5c2.2,1,3-1.1,3.5-2.2c5.2-10.4,14.4-7.9,23-7.5c0.1,0,0.3,0.4,0.3,0.6c0,0.2-0.3,0.5-0.4,0.7
		c-3.4,2.3-5.1,6.5-9.2,8.1c-14.5,9.4-26.4,21.4-37.2,34.7c-3.7,4.6-7.8,8.7-12.1,12.8c-2.1,2-4.1,4.5-7.6,2.7
		c-0.9-3.9,2.3-5.6,4.3-7.9c7.8-9.1,16.1-17.8,21.9-28.3c3.4-6.1,6.6-12.5,0.7-19.1c-2.6-3.9-6.1-2.5-9.4-1.5
		c-11.4,3.2-20.9,9.8-29.4,17.6c-18.3,16.8-36.1,34.3-50.2,55c-0.8,1.1-1.7,2.1-2.6,3C169.7,524.8,167.8,531.8,162.8,536.1z"/>
	<path class="st6" d="M367.7,542.4c14.9-0.4,26.4-8.6,37.3-17.2c26.9-21.4,49.2-47.1,69.4-74.8c5.3-7.3,13.2-10.3,21.6-7.9
		c3.1,0.9,0.6,2.2-0.2,3.2c-11.2,9.4-18.4,22.2-27.3,33.5c-16,20.4-31.2,41.5-46.8,62.3c-6.9,8.5-13.2,17.5-20.2,25.9
		c-1.7,2-2.8,5.7-6.8,3.9c-0.2-7.5,4.8-12.7,8.2-18.5c5.7-9.6,12.8-18.3,17.9-28.3c0-0.4,0.1-0.9,0.3-1.3c0.7-1.9,0.5-4.2,2.4-5.7
		c0.1-0.1,0-0.3,0-0.5c-0.2,0.1-0.4,0.2-0.7,0.3c-10.7,7.5-20,16.8-31.7,22.7c-5.2,2.6-10.2,5.5-16.3,5.7
		C371.9,545.7,368.5,546.8,367.7,542.4z"/>
	<path class="st7" d="M24.1,412.1c9.1,4.6,18.3,8.6,28.4,10.6c6.8,1.3,12,0.4,17.2-5c29.4-30.5,62.3-56.5,99.5-76.8
		c2.6-1.4,5.3-2.4,8-3.6c0.5,0.6,0.7,1.3,0.6,2.1c-3.6,5.1-9.5,6.8-14.5,9.6c-22.5,12.7-42.7,28.6-61.8,45.8
		c-7.8,7-13.6,15.2-10.3,26.7c0.9,1.2,2.1,2,3.2,3c0.9,1.3,1.7,2.6,0.3,4.1c-16.2,0.7-23.3,13.5-32.1,24.1c-1.8,2.1-2.7,5.6-6.7,4.2
		c-5.7-6.7-7.7-13.6-1.4-21.2c1.4-1.7,1.7-3.9-0.5-5.6c-6.4-4-14.2-4-20.7-7.4C29.1,420.5,22.7,419.5,24.1,412.1z"/>
	<path class="st8" d="M388.8,416.7c2.5,3,6,1.6,9,1.6c32.7,0.1,65.4-0.1,98.1,0.1c1.9,0,6.8-3.1,5.9,3.1c-4.8,2.1-9.8,2.1-14.9,2.3
		c-32.7,1.2-65.3,1.1-98,0.6c-9.9-0.1-11.7,7.9-16.6,13c-14.6,13.6-32.1,24.3-43.8,41.1c-1.6,2.3-3.8,5.5-7.8,4.1
		c10.9-17.2,23.8-33,35.7-49.4c1.2-1.7,6-3.7,1.6-7.1c-0.6-1.8,0.4-2.9,1.8-3.8c6.8-0.1,12.1-3.2,16.6-8.1c5-5.6,11.5-9.4,16.6-14.8
		c1.4-1.5,3.1-3,5.6-2.3c2.2,5.6-3.5,7.7-5.3,11.4C391.8,411.2,388.8,413.1,388.8,416.7z"/>
	<path class="st9" d="M648.4,360.1c-4.2,1.6-8,1.7-11.9-1.3c-5.2-4.1-8.7-1.3-10.1,3.9c-4.4,16.2-11.2,32-8.8,49.4
		c-2.6-5.9-1-12.1-1.1-18.2c-0.3-10.7-0.2-21.4,0.1-32.1c0.3-13,7.1-19.9,20-19.5c16.6,0.5,33.1-2.8,49.6-0.3c3.8,0.6,7.4,1.4,9.5,5
		c-13.1,2.2-26.2,4.5-39.2,6.7C654.8,357.1,651.8,358.9,648.4,360.1z"/>
	<path class="st10" d="M56.4,456.9c6.6-4.8,11-11.8,15.4-18.2c6-8.7,14.1-10.4,23.3-10.8c8.3-4.6,17.7-3.4,26.6-5.1
		c38.2-7.3,73.8-20.7,105-44.3c10.5-7.9,19.8-17.3,26.5-28.8c2.2-2.8,2.4-6.3,3.3-9.6c0.8-2.7,0.3-6.6,4.5-7.2
		c2.4,12.9-3.6,22.8-11.7,31.9c-25.3,28.1-58.1,43.2-93.1,55c-22.3,7.5-45.3,10.8-68.6,12.7c-4.4,0.4-7.3,1.9-10.2,5.2
		c-10,11.3-19.1,23.1-27.8,35.4c-2.4,0.3-2.5-1.5-2.7-3.1C49.7,465.1,50.2,459,56.4,456.9z"/>
	<path class="st11" d="M320.7,482.6c6-2.9,9.2-8.7,13.1-13.6c10.1-12.5,24-20.6,35.6-31.4c1.5,1.5,0.7,2.9-0.3,4.3
		c-11.2,14.6-21.6,29.9-34,43.7c-15.5,10.1-28.9,22.9-43.5,34.3c-11.8,9.2-23,19.3-38.1,23c-3.6-0.5-8.3,2.1-9.9-3.7
		c6.8,1.4,12.6-0.8,18.2-4.4c16.3-10.4,31.3-22.4,45.8-35C313,494.8,314.8,487.1,320.7,482.6z"/>
	<path class="st12" d="M559.8,439.1c7.1,1.7,9.7,6.7,9.6,13.4c1.9,0.6,2.8-0.7,3.3-1.7c4.9-10.9,14.3-8.5,23-7.9
		c0.1,0,0.2,0.4,0.2,0.5c0,0.3-0.2,0.5-0.3,0.7c-12.4,10.8-19.9,25.4-29.9,38.1c-4.3,5.4-8.4,11-12.4,16.6c-1.2,1.7-2,4.8-5.4,3
		c-1.3-12,3.3-22.3,8.9-32.4c3.2-5.7,5.5-11.6,3.1-18.2c-0.9-1.5-2-2.9-2.8-4.5c-2.9-4.3-8-1.1-11.5-3.5c-0.7-0.6-0.9-1.3-0.7-2.1
		C549.5,437.6,554.9,439.8,559.8,439.1z"/>
	<path class="st13" d="M167.9,474.7c-0.4-5.8-5.5-8.7-8.3-13c-2.5-3.8-6.6-4.3-10.5-4.8c-20.7-2.3-37.5,5.9-52.4,19.3
		c-13.8,12.5-25.6,26.6-33.6,43.6c-0.8,1.7-2,3.1-3.3,4.5c-3.2-0.6-2.8-2.4-1.8-4.7c12.5-27.9,29.5-51.8,58.8-63.8
		c15.6-6.4,32-9.3,47.6,1c4.7,3.1,9,6.8,9.7,13c-1,4.9,2.4,10.4-2.2,14.7C167.4,482.6,169.8,477.8,167.9,474.7z"/>
	<path class="st14" d="M333.9,484.4c11-14,22-28,33-41.9c1.2-1.5,2.5-2.8,2.5-4.9c7.5-15,20.7-15.4,35.1-14.7
		c17.9,0.8,35.9,0.4,53.8-0.1c13.8-0.4,27.7-1.7,41.5-2.5c0.6,0,1.3,0.8,1.9,1.2c-1.7,4.8-5.5,4.9-9.8,4.9
		c-34.1-0.1-68.2,0-102.3-0.3c-5.1,0-8.2,1.6-11.3,5.7c-16.2,22.1-32.7,43.9-49.1,65.7c-1.2-0.3-2.1-1-2.6-2.2
		C325.6,489.5,331.9,488.3,333.9,484.4z"/>
	<path class="st9" d="M308.1,542.3c12.5-0.8,21.7-8.5,31-15.6c14.2-10.9,27.3-23,37.9-37.7c10.9-11.4,19.3-25,30.3-36.4
		c4.5-4.7,9.3-9.2,16.8-5.9c1.4,5.2-3.2,7.5-5.5,10.6c-4,5.3-7.6,10.9-12.4,15.5c-12.5,10.5-25.9,19.9-35.9,33.2
		c-5.1,6.9-12.9,11.2-19.3,16.9c-10.7,10.5-22.3,19.4-37.3,22.6C311.2,545.5,308,546.5,308.1,542.3z"/>
	<path class="st6" d="M350,521.5c8.8-7.7,18.1-14.7,25.3-24.3c8-10.5,19.6-17.2,29.5-25.7c2.3,4-1.6,5.9-3.3,8.1
		c-10.4,13.9-21.9,27.1-31.7,41.4c-2.7,3.9-7,7.5-5.4,13.4c-0.1,3.2,0.7,6,3.3,8.1c2.3,2.7,5.4,1.2,8.1,1.6c-1.8,5.2-6,2.8-9.3,2.8
		c-2.3,0-4.5-1.6-7-1.2c-7.2-5.4-4.6-13-4.1-19.9c0.2-2.2,1.2-3.8-2.1-2.5C352.1,523.1,350.7,522.8,350,521.5z"/>
	<path class="st9" d="M561.2,448.9c3.2,5,2.7,10.6,0.3,15.2c-6.4,12-11.5,24.4-13.1,38c0.8,4.3-2.9,6.5-4.7,9.4
		c-2.3,3.8-5.9,6.8-6.5,11.5c-1.7,3.8-3.4,7.5-5.1,11.3c-4,1.3-5,0.9-4.4-3.8c0.7-4.9-0.3-8.9-3.3-12.6c-0.5,0.1-1.1,0.2-1.6,0.4
		c-1.6-0.1-3-0.5-3.8-2.1c0.1-3.9,3.2-5.9,5.6-8.2c5-5.1,9.9-10.2,13-16.8c3.7-5.5,7.8-10.8,12-15.9
		C555.9,467.6,558.3,458.2,561.2,448.9z"/>
	<path class="st15" d="M37.1,539.2c-16.1-11.7-16.6-28.5-14.2-45.6c1.7-12.2,6.2-23.8,14-33.7c2.2,2,1.8,4.5,0.8,6.7
		c-4.2,8.8-3.6,17.7-0.5,26.7c-0.3,6.7-4.5,13-1.9,20c-0.1,5.7,1.9,10.9,3.7,16.2c-0.4,2.9,2.3,5.1,1.8,8
		C39.9,538.8,38.5,539.1,37.1,539.2z"/>
	<path class="st16" d="M559.8,439.1c-4.4,3.5-10.3-0.3-14.7,3.3c-3.1,3.4-7.6,3.6-11.5,5.2c-28.2,11-50.8,29.1-67.9,54.1
		c-5,7.3-6.6,15.7-6,24.5c0.2,2.6,0.1,5.5,3.5,6.5c1.9,2.1,1.8,5.4,4.6,6.9c2.6,1.6,6.4,0.3,8.3,3.4c-3.3,4.8-8,2.8-12.2,2.3
		c-3.1-0.4-6-2.1-9.1-2.7c-6-7.7-4.3-16.4-2.1-24.6c4.7-17.4,15.4-31.1,28.6-42.9c18.3-16.5,38.2-30.4,62.8-36
		C549.4,437.6,554.7,436.6,559.8,439.1z"/>
	<path class="st17" d="M40.3,537.6c-0.6-2.7-5.8-4.7-1.3-8.2c14.9,15.6,33.6,15.1,52.4,11c26.8-5.8,50.2-17.8,67.7-39.9
		c6.2-7.8,9.2-16.1,8.9-25.9c2.1,2.9,2.9,6.2,3.1,9.7c3.3,5.4-1.6,8.9-3.2,13.2c-1.2,3.2-3.3,6.2-5.8,8.6
		c-20.1,22.8-45.7,35.4-75.2,40.8c-2.4,0.4-4.8,0.2-7.2,0.2c-11.3,0.4-22.4,0.1-33-4.6C44.1,541.6,40.6,541.5,40.3,537.6z"/>
	<path class="st18" d="M56.5,323.1c28.9-11.4,58.5-11.7,88.4-5.6c3.8,0.8,7.5,0.6,11.2,0.9c-1,6.2-5.5,3-8.2,2.5
		c-18.8-3.3-37.6-5.3-56.7-2.7c-25.3,3.5-48,12.8-66.3,31.2c-8.8,8.8-14.5,19.1-15.6,31.8c-0.6,1.1-0.2,3.1-1.8,3.1
		c-2.4,0.1-1.9-2.2-1.8-3.6c0.6-12.7,5.4-23.6,14-33C29.9,336.4,42.5,328.8,56.5,323.1z"/>
	<path class="st19" d="M35.5,494c-4.6-10-4.4-19.8,0.9-29.5c0.7-1.3,0.4-3.1,0.6-4.6c4.1-8.5,9.8-16,15.3-23.5c2.2-3,3-4.9-0.9-6.6
		c1-1.2,2.1-1.1,3.3-0.4c3,2.7,2,5.8,0.7,8.6c-2.3,4.9-6,9.7,0.7,14.3c0.8,0.6,0.3,3,0.4,4.6c-2.7,4.3-5.4,8.6-8,13
		c-2.1,8.6-8.2,15.4-10.8,23.8C37.4,494.3,36.3,494.3,35.5,494z"/>
	<path class="st20" d="M398.5,397.3c-7.8,6.9-15.6,13.7-23.3,20.8c-4.5,4.1-9.2,7.2-15.7,5.1c-6.7,2.9-13.7,0.9-20.6,1.6
		c0.5-5.2,4-7.2,8.3-6.3c16.6,3.5,26.6-4.7,33.7-18.4c1.1-2.1,3-3.8,4.4-5.7c5.5-7.6,15.5-11,24.2-8.1c1.9,0.6,1.4,1.9,0.3,3
		C405,390.5,404.6,397.8,398.5,397.3z"/>
	<path class="st21" d="M54.7,429.4c-1.1,0.1-2.2,0.2-3.3,0.4c-15.1-2.6-29-7.6-39.6-19.3c-4.6-5.1-8-10.7-8.7-17.7
		C5.2,378.7,5,363.8,14.6,352c11.1-13.6,24.1-24.7,41.8-28.9c-8.6,5.8-18.4,9.6-26.4,16.4c-12.2,10.3-21.4,22.3-23.4,38.7
		c-0.1,0.7-2.9,6.3,2.7,3c-0.5,12.9,5.5,22.7,14.8,30.9c3.7,9.1,12.6,9.7,20.2,12.4C47.9,425.8,52.4,425.2,54.7,429.4z"/>
	<path class="st22" d="M420.8,524.5c-1.5,9.6-8.9,16-13.3,24c-4.2,7.6-8.8,15-12.4,23c-0.1,6-5.3,8.8-8.3,12.7
		c-3.5,4.5-7.7,8.6-11.5,13c-5.6,4.1-8.8,10.4-14.2,14.7c-2.3,1.9-4.1,5.2-8,3.4c-1.3-3.7,1.3-5.9,3.1-8.4
		c5.4-7.5,12.7-13.4,17.8-21.2C390.5,566,405.9,545.4,420.8,524.5z"/>
	<path class="st23" d="M333.9,484.4c0,5-6.4,6.3-6.5,11.1c-0.1,5.2-4.5,7.8-7.1,11.4c-4.2,5.9-8.5,11.7-12.6,17.5
		c-5.4,4.5-5.6,12.4-11.1,16.8c-2.8-5.1-1.3-10.2-0.4-15.4c0.6-3,3.2-5.8,1.3-9.1c-2.4,0.3-4.2,3.7-7.1,1.6
		C305,507.1,318,493.9,333.9,484.4z"/>
	<path class="st24" d="M374,585.7c-3.2,8.9-10.8,14.6-16.1,22c-1.7,2.4-3.5,4.6-4.6,7.3c0.9,2.6-0.9,4.1-2.5,5.4
		c-15.2,13.6-31.4,25.8-50.5,33.5c-3.1,1.2-6.3,3.3-9.9,1.4c-2.2,0-4.5-0.1-6.7-0.1c28.9-8.8,49.9-28.9,70.5-49.7
		C360.8,598.9,367.4,592.3,374,585.7z"/>
	<path class="st25" d="M233.7,537.9c-3.4-4.9,0.6-9.5,0.4-14.3c-0.1-1.8,2.4-3.8-0.3-5.5c-1.7,0-3.1-0.4-3.6-2.2
		c0.1-2.3,1.6-4,3.3-5.3c12.1-9.7,24.1-19.4,36.6-28.6c1.3-0.9,2.7-1.8,4.4-1.1c1.5,2.3,0.1,4.1-1.2,5.7
		c-8.6,10.7-16.4,22.1-25.4,32.5C241.7,524.4,240.2,533,233.7,537.9z"/>
	<path class="st26" d="M420.9,540.8c21.2-30.9,44.6-60.1,67.1-90.1c1.9-2.5,3.9-5.3,7.8-4.9c-24.4,32.2-48.8,64.5-73.2,96.7
		C421.1,542.9,420.5,542.3,420.9,540.8z"/>
	<path class="st27" d="M59.9,524.4c14.5-30.6,33.9-56.3,67.6-67.7c8.1-2.7,16.5-1.8,24.7-0.8c3.1,0.4,7.3,1,7.5,5.8
		c-24-9.1-43.4,0.5-61.3,15.3c-14,11.6-24.9,25.9-33.5,41.9C63.7,521.1,63.6,524.5,59.9,524.4z"/>
	<path class="st7" d="M261.1,332.8c-4,5.2-1.1,12.9-6.3,17.7c-1.5-0.8-2.2-2.1-2.6-3.6c1.4-7-0.8-12.9-5.3-18.2
		c-6.2-5.6-13.5-3.6-20.5-2.7c-10.6,1.3-20.6,5.3-30.7,8.7c-6.5-0.1-11.4,6.6-18.4,4.6c0-0.7-0.1-1.4-0.1-2
		c19.7-10.8,40.4-17.7,63.2-17.1C251.4,320.3,257.9,324.4,261.1,332.8z"/>
	<path class="st28" d="M364.4,534.3c-3.8-1.5-3.9-1.5-1.8-5.2c5.7-10.2,13.1-19.3,20.3-28.6c7.4-9.6,16.4-18.1,22-29
		c7-7.6,13.6-15.6,19.3-24.2c2.3-4,3.5-4.3,5.1-1.4c-17,22.3-33.9,44.7-51.1,67C373,519.6,368.2,526.6,364.4,534.3z"/>
	<path class="st29" d="M622.8,421.1c19.3,1.8,38.7,2.2,58.1,2c12.1-0.2,17.6-5.5,17.6-17.7c0-15,0-29.9,1.7-44.9
		c0,17.7,0,35.4,0,53.2c-2.9,8.9-9.4,12.4-18.4,12.4c-15.3,0-30.6,0-45.9,0C630.8,426.1,626.3,424.9,622.8,421.1z"/>
	<path class="st30" d="M290.4,655.4c13-2.1,23.8-9.1,34.3-16.3c10.3-7,20.1-14.8,28.5-24.1c6.6-2.2,10.1-7.9,14.3-12.8
		c2-2.4,3.7-5,6.7-6.5c2.4,3-1.3,4.2-1.8,6.3c-18.3,19.6-38.1,37.3-62.4,49.3c-6.2,3.1-12.6,5.8-19.7,6
		C290.4,656.7,290.4,656,290.4,655.4z"/>
	<path class="st31" d="M537.1,523.1c-3.1-2.9,0.1-4.8,1.3-6.7c3.1-4.9,6.6-9.5,10-14.3c12.7-15.1,23.2-31.7,34.9-47.5
		c3.3-4.4,6-9.6,12.3-10.5c-17.1,23.1-34.2,46.2-51.2,69.3C542,516.7,539.5,519.9,537.1,523.1z"/>
	<path class="st32" d="M80.7,545.8c29.9-3.1,55.5-15.1,76.5-36.7c1.3-1.3,2.7-2.5,4.1-3.8c1.5-0.3,2.3,0.2,1.8,1.8
		c-25.8,28.8-58,43-96.8,41.5c0.5-3.8,3.5-1.8,5.3-2.1C74.6,546,77.7,547.2,80.7,545.8z"/>
	<path class="st8" d="M533.8,539.5c12.1,0.9,20.7-6.7,29.4-13.1c11.2-8.2,21.8-17.2,32.6-26c2.6-2.1,4.9-5,7.2,0.1
		c-16.1,15.1-32.5,29.8-52.5,39.9c-3.6,1.8-7.1,3.6-11.3,3.5C536.6,543.6,532.7,544.6,533.8,539.5z"/>
	<path class="st4" d="M246.8,518.2c8.7-12.7,20-23.5,27.5-37.1c2.3-5.8,4.9-11.3,11.4-13.7c1.2,0.4,2.1,1,1.5,2.5
		c-13.3,18.2-26.6,36.3-39.7,54.6c-2.4,3.4-5.4,6.8-5.5,11.4c-5.7-2-2.6-5.9-1.3-8.7C242.1,524,244.6,521.1,246.8,518.2z"/>
	<path class="st6" d="M540.4,542.5c13.7-2.7,23.9-11.7,34.6-19.7c7.7-5.8,14.8-12.4,22.1-18.7c1.8-1.5,3.2-3.7,6-3.6
		c-2,7.1-8.6,9.9-13.4,14.3C578,525.5,565.5,535.2,551,542c-7.6,3.5-15.4,6.2-23.8,2.2c0.3-3.8,2.8-3.3,5-2.3
		C535,543.2,537.5,543.9,540.4,542.5z"/>
	<path class="st33" d="M429.3,445.8c-2.5-2.3-3.3,1.4-5.1,1.4c-12.3-1.2-17.3,8.8-24,15.9c-7.9,8.4-13.3,19.1-23.2,25.8
		c10-15.7,22.7-29.5,33.7-44.5c1.5-2,17.8-3.4,19.9-1.6C432,444.1,430.3,445.1,429.3,445.8z"/>
	<path class="st34" d="M372.5,602c-1.6-2.7,2.7-3.8,1.8-6.3c7-8.1,14-16.2,20.9-24.3c8-6.6,13.1-15.7,19.5-23.7c2-2.4,3.1-5.6,6.2-7
		c0.6,0.6,1.1,1.1,1.7,1.7C407.7,563.8,390.9,583.6,372.5,602z"/>
	<path class="st35" d="M454.9,542.3c4.1-2.3,7.3,1.8,11.1,1.6c3.3-0.2,6.9,1.3,9.9-1.4c3.5-3.6,8.6-4.1,12.9-6.1
		c8.3-3.9,15.8-8.8,22.5-14.9c2.3-2.1,4.8-4.3,8.1-4.9c1.4,0,2.6,0.3,3.3,1.7c-13.4,14.1-29.1,24.1-48.4,28
		C467.3,547.8,460.6,547.2,454.9,542.3z"/>
	<path class="st36" d="M230.6,516.6c1.3,0,2.5,0.2,3.1,1.5c-13.4,13.9-29,24.1-48.2,28.2c-6.2,1.3-12.1,1-17.7-2.5
		c1-4.1,4.2-3.1,6.7-2.6c5.6,1.1,10.9,0.5,16.1-1.6c11.9-3.3,21.7-10.2,31-17.9C224.5,519.6,226.9,517,230.6,516.6z"/>
	<path class="st37" d="M290.4,518.3c2.4-0.5,4.7-1.1,7.1-1.6c-12.4,12-26,22.1-42.4,27.9c-5.9,2.1-12,2.6-17.8-0.8
		c0.7-4,3.5-2.8,6-2.5c3.9,0.4,7.7,1.1,11.5-0.4C268.6,536.3,279.6,527.4,290.4,518.3z"/>
	<path class="st38" d="M359.6,545.7c2.6-3.4,5.3,0.1,8-0.2c2.8-0.2,5.9,1,8.3-1.5c13.2-2.7,23.5-10.6,33.9-18.6
		c4.7-3.7,8.5-8.8,14.7-10.5c0.1,3.6-2.9,4.7-5.2,6.4c-13.3,11.5-27,22.5-44.7,26.6C369.3,549.2,364.1,549.6,359.6,545.7z"/>
	<path class="st39" d="M350,521.5c1.4,0.1,2.8,0.3,3.4,1.9c-11.3,11.6-24.3,20.5-40.2,24.7c-4.7,1.2-9.4,1.5-13.3-2.4
		c1-4.3,3.9-3,6.5-1.9c2.7,1.1,5.3,1.8,8.1,0.3C328.6,540.1,339.8,531.5,350,521.5z"/>
	<path class="st25" d="M192,540.9c-5.4,3.7-11.4,3.8-17.5,2.4c-2.3-0.5-4.6-1.8-6.6,0.5c-3.6-1.3-4.5-4.5-5.1-7.8
		c2.4-6.4,5.2-12.5,11.5-16.2c2.2,3.6,0,6.6-1.3,9.6c-0.4,1-0.8,2-1.4,2.9c1-0.4,1.1-2.2,2.7-1.5c2.4,5.2,4,11.4,12.1,8.2
		C188.5,538.9,190.5,539,192,540.9z"/>
	<path class="st2" d="M540.4,542.5c-3.8,4.6-9.2-2.5-13.1,1.7c-7.7-4.3-4.3-11.5-4.4-17.7c-0.1-2.8,0.9-5.7,1.4-8.5
		c6.3,4.1,6.1,4.1,5.1,11.4c-0.2,1.6-3.1,5.9,2.5,5c0.3,1.8,0.1,3.8,1.8,5.1C534.6,543.5,537.9,542,540.4,542.5z"/>
	<path class="st31" d="M306.5,523.1c7-9.2,13.9-18.4,20.9-27.5c0.6,0.7,1.3,1.4,1.9,2.1c-8.2,12.7-19.1,23.8-24.6,38.3
		c-3.6-0.5-2.9-3-2.2-5.2C303.4,527.9,304.9,525.4,306.5,523.1z"/>
	<path class="st40" d="M35.5,494c4.2-8.1,7.4-16.8,12.9-24.2c0,1.3,0.2,2.5,1.5,3.2c-7,12.6-13.9,25.3-14.6,40.3
		c-4.6-0.8-2.2-3.7-1.8-6C34.2,502.8,34.8,498.4,35.5,494z"/>
	<path class="st7" d="M254.9,540.9c-5.3,4.1-12.2-0.8-17.6,2.9c-3-0.8-3.4-3.3-3.7-5.9c3.5-7.1,6.6-14.5,13.1-19.7
		c-0.3,3.6-3.1,5.8-4.7,8.7c-1.8,3.1-2.9,6,0,9.1c0.5,1,1.1,2,1.6,3C246.9,542.6,251.2,540.1,254.9,540.9z"/>
	<path class="st41" d="M163.1,507.1c-0.6-0.6-1.2-1.2-1.8-1.8c4-6.6,8.8-12.9,9.7-20.9c3.9-4.2-0.7-10.2,3.1-14.5
		C179.3,485,171.9,496.2,163.1,507.1z"/>
	<path class="st30" d="M306.5,523.1c0.3,4.4-6,7.9-1.8,12.8c-0.1,2.8,1.7,4.6,3.4,6.4c1.6,2.6,4.2,1.4,6.4,1.8
		c-4.4,4.8-10.1-2.2-14.6,1.6c-1.8-1-3.2-2.3-3.4-4.5C299,534.7,301,527.9,306.5,523.1z"/>
	<path class="st42" d="M80.7,545.8c-4.3,3.7-10.1-0.7-14.4,2.9c-10.6-0.4-20.7-2.6-29.2-9.4c0.7-1.3,1.9-1.6,3.2-1.6
		C52.7,545.7,66.6,545.9,80.7,545.8z"/>
	<path class="st16" d="M398.5,397.3c4.5-1.7,5.3-8.4,11.3-8.1c-6.7,9.3-13.2,18.9-21,27.4c-3.1-2.6-0.8-4.6,0.9-6.6
		C393,406.1,396.8,402.4,398.5,397.3z"/>
	<path class="st23" d="M287.2,470c-0.6-0.6-1.2-1.2-1.8-1.9c-2-5.3,3.1-7.2,5.1-10.6c1.6-2.7,4.2-4.8,6.4-7c3.5-1.7,5-6.1,9.4-6.5
		C300.9,453.4,294.2,461.8,287.2,470z"/>
	<path class="st43" d="M338.9,424.8c6.7-3.3,13.7-1.1,20.6-1.6c-0.5,1-1,2-1.5,3C351.6,425.7,345.1,427.9,338.9,424.8z"/>
	<path class="st44" d="M419.3,521.4c1.7-2.1,3.4-4.3,5.2-6.4c0.7,0.4,3.2-1.9,2.1,0.9c-1.1,2.7-3.6,4.9-5.5,7.3
		C420.5,522.6,419.9,522,419.3,521.4z"/>
	<path class="st0" d="M638.7,389.1c-7.6-5.9-10.7-13.7-9-23.2c0.3-1.9,0-4.7,2.5-5.3c2-0.5,3,1.9,4.4,3c1.8,1.5,3.6,3,5.4,4.5
		c2.9-0.8,4.1,1.9,6,3.2c-0.4-12,9.3-19.2,20.7-15.2c3.2,1.1,6.6,2.3,8.7,5.4c1.2,0.3,3.6,0.1,2.7,1.8c-2.2,4.3,1,7,3,10.6
		c-4.3,0.6-8.5,1-9.2,6.4c6.6-1.5,12.8-3.6,19.2-7.1c0.3,8-2.6,13.9-7.8,19c-7.3,7.3-19.1,5.5-26.4,12.9c-1,1-4.7,0.7-6.1-0.4
		c-4.7-3.4-7.2-1.1-9.6,2.7c-2.3,3.8-4.8,4.8-7.8,0.5c-2.9-4.3-8.6-6.5-9.6-12.3c2.6-2.6,6-2.6,9.3-3.3
		C637,392.1,639.6,392.4,638.7,389.1z"/>
	<path class="st45" d="M677.4,361.5c-0.8,0.1-1.8,0.4-2.3,0.1c-15.7-8.7-21.1-6.7-27.4,10.8c-2-1.5-3.8-2.9-5.7-4.3
		c2.3-2.5,6.5-3.6,6.4-8c1.7-3.4,4.9-4.9,8-6.5c7.4-1.2,14.2,1.5,21,3.5C681.6,358.5,678.5,360.1,677.4,361.5z"/>
	<path class="st37" d="M638.7,389.1c3.5,3.1,0.4,4.2-1.8,4.7c-3.6,0.9-7.4,1.3-11.1,1.8c-1.1-0.1-4,1.7-2.3-1.4
		c1.4-2.5,4.6-3.3,7.7-3.5C633.8,390.6,636.7,391.6,638.7,389.1z"/>
	<path class="st0" d="M185.4,540.8c-8.8,2.8-11,1-11.5-9.6c-1.3-5,1.6-9,4.1-12.5c19.3-27,41.3-51.3,69.7-69.2
		c5.9-3.7,12.4-7.9,20.1-3.8c5.6,3.5,5.7,8.2,3.7,13.9c-4.8,13.9-15.4,23.7-24.2,34.7c-2.2,2.7-4.6,5.2-6.9,7.8
		C225.8,520.4,209.3,535.9,185.4,540.8z"/>
	<path class="st46" d="M185.4,540.8c22.3-7.2,38.7-22.9,54.9-38.7c2.8,0.1,4.3-1.9,6-3.6c9.1-9,17.3-18.9,25.7-28.6
		c7-8,16.1-13.5,24.9-19.4c-2,7.1-9.1,10.8-11.5,17.6c-3.7,4.3-7.4,8.7-11.1,13c-13,10-26,20-38.9,30.2c-1.8,1.4-3.2,3.5-4.7,5.3
		c-11.5,10.3-23,20.5-38.6,24.2C189.8,540.8,187.6,540.8,185.4,540.8z"/>
	<path class="st32" d="M267.7,445.7c-12.4-1.2-21.7,5.7-30.5,12.5c-21.6,16.7-40.3,36.3-56,58.6c-3.1,4.4-5.8,9-7.3,14.3
		c-0.7,1.1-1.3,2.1-2.3,3.6c-2-5.7,2.2-9.9,2.7-14.8c17.1-24.2,37.2-45.6,60.2-64.2c7.1-5.7,15-10.6,24.1-12.5
		C261.7,442.5,266.1,439.9,267.7,445.7z"/>
	<path class="st0" d="M248.1,328.2c6.3,5.1,7.8,11.5,5.1,19.1c-3.2,13.2-13.5,21.3-23.2,28.8c-36.3,28-77.8,43.5-123.2,48.6
		c-4.4,0.5-8.8,3.1-13.3,0.1c-1.3-0.2-2.7-0.3-3.3-1.7c-0.5-0.8-0.5-1.5,0-2.3c9-9.9,18-19.9,27.8-29c24.8-23,50.6-44.7,82-58.5
		c11.8-5.2,24-8.8,37.1-8.6C241.1,324.7,245,325.2,248.1,328.2z"/>
	<path class="st27" d="M90.4,421.7c0.1,0.5,0,0.9-0.2,1.3c-2.7-6.9-2.4-13.4,1.5-19.9c5-8.2,13-13.5,19.9-19.7
		c19.8-17.8,42.2-32,65.8-44.2c6.2-1.4,11.1-6.2,17.8-6.4c0.3,4.1-3.5,4.3-5.8,5.6c-21.5,11.3-40.3,26.2-58.4,42.2
		C116.4,393.3,103.3,407.4,90.4,421.7z"/>
	<path class="st47" d="M93.5,424.7c43.1-3.9,83.5-16.2,120.3-39.2c15.9-9.9,29.6-22,39.4-38.3c1.3,0.7,1.5,1.9,1.6,3.2
		c-10.2,18-25.8,30.6-43.1,40.9c-35.9,21.4-74.7,33.9-116.6,36.5C94.6,426.8,94.1,425.8,93.5,424.7z"/>
	<path class="st0" d="M466.1,540.7c-3.3-1.7-3.3-4.9-3.5-8c-1.6-2.4-0.3-4.7,0.4-7c17.4-29.5,40.5-53.6,68.5-73.3
		c4.4-3.1,9.2-5.6,14.3-7.2c4-1.3,8.2-2.6,12.2,0.4c1.1,1,2.2,2.1,3.3,3.1c2,9.7-3,17.2-7.9,24.5c-4.5,6.6-9.7,12.8-14.5,19.1
		c-11.2,12.7-22.1,25.6-35.9,35.6c-8.3,6-17.3,10.8-27.4,13.1C472.5,541.9,469.2,542.4,466.1,540.7z"/>
	<path class="st36" d="M464.4,526.2c-0.6,2.2-1.2,4.3-1.8,6.5c-2.1,2.4-3.9,3.2-4.4-0.9c-1.3-9.4-1.5-19,3.6-27.2
		c19.7-31.4,47-53,83.3-62.3c0.6,0,1.1,0.1,1.7,0.1c0.4,3.6-3,3.4-4.9,4.2c-11.9,5.8-22.5,13.3-31.8,22.7
		c-12.5,12.5-25.5,24.5-35.8,39C470.3,514,465.8,519.2,464.4,526.2z"/>
	<path class="st48" d="M464.4,526.2c-2.7-2.3-0.7-4.1,0.5-6.2c17.7-29,41.4-52.1,68.9-71.6c3.8-2.7,8.6-4,12.9-6
		c3.6,1.3,9-3.2,11.1,3.3c-9.8-1.4-17.9,3-25.4,8.3C504.8,473.3,482.4,497.7,464.4,526.2z"/>
	<path class="st33" d="M466.1,540.7c18.7-0.3,32.5-10.8,45.6-22.3c9.4-8.2,18-17.3,27-26c-3.8,10.2-13.4,15.7-19.4,24.2
		c-12.3,12.3-25.9,22.5-43.5,25.8C472.7,541.8,468.9,543.8,466.1,540.7z"/>
	<path class="st29" d="M90.4,421.7c2.8-8.5,10.2-13.8,15.9-19.7c25.5-26.1,52.2-50.9,85.7-67c1.2-0.6,2.1-1.5,3.2-2.3
		c13.9-5.1,27.8-10.2,43-9.6c6.2,0.3,8.3,1.3,10,5c-15.6-4.4-30.3-0.7-44.4,5.5c-36.5,15.9-66,41.5-94,69.2
		C103.4,409.2,98.5,417.1,90.4,421.7z"/>
	<path class="st23" d="M665.8,369.6c-0.3,2-1.1,3.1-2.6,3.2c-1.9,0.2-3-1-3.1-2.9c0-1.5,1-2.6,2.4-2.7
		C664.6,367,665.1,368.7,665.8,369.6z"/>
</g>
</svg>
