<?xml version="1.0" encoding="utf-8"?>
<!-- Generator: Adobe Illustrator 21.1.0, SVG Export Plug-In . SVG Version: 6.00 Build 0)  -->
<svg version="1.1" id="Layer_1" xmlns="http://www.w3.org/2000/svg" xmlns:xlink="http://www.w3.org/1999/xlink" x="0px" y="0px"
	 viewBox="0 0 900 596" style="enable-background:new 0 0 900 596;" xml:space="preserve">
<style type="text/css">
	.st0{fill:#FDFDFD;}
	.st1{fill:#39393A;}
	.st2{fill:#39393B;}
	.st3{fill:#383739;}
	.st4{fill:#95979A;}
	.st5{fill:#FFFFFF;}
	.st6{fill:#FDFEFE;}
	.st7{fill:#F1F2F2;}
	.st8{fill:#FBFBFB;}
</style>
<g>
	<path class="st0" d="M450.3,411.1c-149.5,0-299,0-448.5,0c-1.3,0-1.6-0.3-1.6-1.6c0-63,0-126,0-189c0-1.3,0.3-1.6,1.6-1.6
		c299,0,597.9,0,896.9,0c1.3,0,1.6,0.3,1.6,1.6c0,63,0,126,0,189c0,1.3-0.3,1.6-1.6,1.6C749.3,411.1,599.8,411.1,450.3,411.1z"/>
	<path class="st1" d="M502.6,253.3c6.9,0,13.8,0,20.7,0c6.4,0,12.6,1.1,18.3,4.2c2.8,1.5,5.2,3.5,7.3,5.9c5.1,6,4.5,16.6-0.8,22.5
		c-4.6,5.1-10.4,7.2-17,8.3c-7.6,1.3-15.2,1.4-22.9,1.4c-2.4,0-2.4,0-2.6,2.4c-0.7,7.3-0.2,14.5,0.1,21.7c0.1,2.4,0.4,4.8,0.4,7.2
		c0,2.7,1.4,4.1,3.7,4.9c2.9,1.1,6,1.1,9.1,1.3c0.6,0,1.7-0.6,1.7,0.8c0,1.2-1,0.7-1.6,0.7c-13,0-26.1,0-39.1,0c-0.2,0-0.5,0-0.7,0
		c-0.4,0-0.9,0.1-0.9-0.5c0-0.6,0.4-0.8,0.9-0.8c1.7-0.1,3.4-0.4,5.1-0.6c3.5-0.5,5-2.8,5.8-5.9c0.3-1.3,0.3-2.6,0.3-3.9
		c0-18.9,0-37.7,0-56.6c0-1.8,0.1-3.7,0.1-5.5c0-2.8-1-4.2-3.7-5.1c-2.7-0.8-5.4-1.2-8.2-1.4c-0.5,0-1.6,0.6-1.5-0.6
		c0-1,1-0.6,1.5-0.6c8,0,16,0,24,0C502.6,253.2,502.6,253.2,502.6,253.3z"/>
	<path class="st1" d="M79.5,267.5c0,5.2,0,10.4,0,15.6c0,0.5,0.4,1.4-0.7,1.4c-0.9,0-1.4-0.2-1.7-1.2c-1.4-6.7-3.6-13.2-7.3-19.1
		c-3.3-5.4-7.5-9.7-13.8-11.6c-7.2-2.2-13.2-0.3-18.4,4.7c-5,4.8-7.1,11-8.4,17.6c-2.7,13.9-2.6,27.8-0.1,41.7
		c0.8,4.6,3.1,8.7,6,12.3c2.6,3.2,6.1,5,10.3,5.6c5.6,0.8,11.1,1,16.3-1.4c8.4-3.8,12.8-10.8,15-19.4c0.6-2.2,0.9-4.5,0.9-6.8
		c0-1.3,0.9-0.9,1.6-0.9c0.7-0.1,1,0.1,1,0.9c-0.4,11.7-4.8,21.1-15,27.4c-4.1,2.5-8.6,3.2-13.3,3.3c-16.9,0.3-32.9-10.2-39.2-25.7
		C10,305,9.7,297.8,10,290.5c0.5-11.5,4.7-21.3,13-29.3c6.7-6.4,14.3-10.8,23.7-11.8c6.5-0.7,12.7,0.5,18.5,3.8c1.7,1,3.4,2.1,5.2,3
		c2.8,1.5,5.3,0.5,6.5-2.4c0.3-0.7,0.5-1.5,0.6-2.3c0.1-0.9,0.5-1.1,1.3-1.1c1,0.1,0.7,0.8,0.7,1.4
		C79.5,257.1,79.5,262.3,79.5,267.5z"/>
	<path class="st1" d="M432.1,392.2c0-28.6,0.1-57.1,0-85.7c0-1.4,0.4-2.2,1.5-2.9c2.3-1.5,4.5-3.1,7-4.3c1-0.5,1.9-0.4,2.7,0.3
		c2.2,2,3.5,4.3,3.1,7.5c-1.7,12.6-3.3,25.1-5,37.7c-1.7,12.5-3.3,25-5,37.5c-0.9,6.5-1.7,12.9-2.5,19.4c-0.2,1.8-0.9,3.3-1.9,4.8
		c-1.7-1.4-2-3.3-2.3-5.2c-3.1-22.7-6.3-45.5-9.3-68.2c-1.3-9.3-2.8-18.6-3.4-28c-0.1-1.5-0.5-3.2,1.3-4.1c1.9-1.1,3.8-1.8,5.9-0.4
		c2,1.3,4.1,2.4,6.3,3.4c1.2,0.6,1.5,1.3,1.5,2.5c0,26.9,0,53.7,0,80.6c0,1.7,0,3.4,0,5.1c0.2,3.2,0.1,6.3,0.1,9.5
		c-0.6,0.4-0.6-0.1-0.6-0.5c-0.2-1.3,0-2.6-0.4-3.8c-1.3-13.7-3.2-27.3-4.9-41c-1.9-15.3-3.8-30.6-5.7-45.9
		c-0.1-0.8-0.2-1.5-0.6-2.3c3.8,30.2,7,60.4,11.4,90.6c-0.1,0.9,0.1,1.8,0.2,2.7c0.1,0.7,0.4,0.5,0.6,0
		C432.1,398.4,431.9,395.3,432.1,392.2z"/>
	<path class="st1" d="M259,274.5c0.4-0.4,0.8-0.3,1.1-0.3c11.5,0,23.1,0,34.6,0.1c4,0,7.9,0.8,11.5,2.8c6,3.4,8.4,8.9,6.9,15.3
		c-1.1,4.3-4,6.7-7.9,8.3c-3.2,1.2-6.6,1.6-10.3,2.2c0.7,0.5,1.4,0.5,2,0.6c0.6,0.1,1.2,0.2,1.9,0.3c2.9,0.5,5.6,1.3,8.1,3
		c3.5,2.4,5.1,5.7,5.2,9.9c0.1,2.7-0.1,5.5,0.3,8.2c0.4,2.6,1.6,4.7,3.5,6.5c1.1,1,2.1,0.9,3.3,0.2c1.9-1.3,3.2-3,3.9-5.2
		c0.1-0.5,0.1-1.4,0.8-1.2c1,0.2,0.5,1,0.3,1.5c-1.1,4.1-3.2,7.5-7.6,8.4c-4.3,1-8.6,0.4-12.5-2.1c-1.7-1.1-2.6-2.8-3.1-4.7
		c-1.5-5-1.4-10-1.3-15.1c0.1-3.7-2.2-6.9-5.8-8c-1.3-0.4-2.6-0.7-4-0.9c-3-0.5-6-0.3-9.1-0.4c-0.9,0-1.2,0.2-1.2,1.1
		c-0.3,8.3-0.2,16.7,0.1,25c0,1.1,0.7,1.6,1.5,2.1c2.2,1.2,4.7,1.4,7.1,1.7c0.5,0.1,1.2-0.1,1.1,0.7c-0.1,0.7-0.7,0.4-1.1,0.4
		c-9.2,0-18.4,0-27.6-0.1c-0.4,0-1.2,0.4-1.2-0.5c0-0.6,0.7-0.5,1.1-0.5c0.7-0.1,1.5-0.1,2.2-0.3c3.8-0.6,5.5-2.2,5.5-6.1
		c0.1-14,0.8-28,0-42c-0.1-2.2-0.5-4.3-0.7-6.5c-0.1-1.6-1-2.5-2.5-2.8c-1.6-0.4-3.1-0.6-4.7-0.8C260,275.1,259.3,275.3,259,274.5z"
		/>
	<path class="st1" d="M364.9,286.7c0.2,10.6,0.1,21-0.2,31.4c-1-1-1.3-2.3-1.6-3.5c-1.8-7.1-7.9-11.2-14.8-11.5
		c-2.6-0.1-2.5-0.2-2.6,2.4c-0.2,7.8-0.2,15.5,0.3,23.3c0.1,1.9,0.8,2.9,2.8,3.6c4.4,1.6,8.6,0.6,12.8-0.3
		c8.6-1.8,14.2-7.1,17.1-15.4c0.6-1.6,1.2-3.2,1.7-4.8c0.2-0.7,0.5-1.3,1.2-1.2c0.9,0.1,0.4,0.9,0.4,1.4c0,7,0,13.9,0,20.9
		c0,1.2-0.2,1.8-1.6,1.7c-17.8-0.1-35.7,0-53.5,0c-0.3,0-0.7,0.1-1,0c-0.4-0.1-1.2,0.3-1.2-0.4c0-0.7,0.7-0.5,1.2-0.6
		c1.7-0.3,3.4-0.4,5-1c1.4-0.5,2.2-1.4,2.6-2.9c0.5-2.1,0.7-4.3,0.7-6.5c0-13.9-0.1-27.9-0.1-41.8c0-3.3-0.7-4.2-3.8-5.1
		c-1.5-0.4-3-0.7-4.5-1c-0.4-0.1-1.1-0.1-1.1-0.6c0-0.8,0.8-0.5,1.2-0.5c11.8,0,23.5,0,35.3,0c5.7,0,11.4,0,17.1-0.1
		c1.2,0,1.5,0.3,1.5,1.5c-0.1,6.2,0,12.5-0.1,18.7c0,0.5,0.4,1.3-0.6,1.3c-0.9,0-0.7-0.7-0.8-1.2c-0.9-4.9-3.2-8.9-6.9-12.3
		c-5.2-4.7-11.1-7.1-18.1-6.9c-2.4,0.1-4.4,1-6.3,2.4c-1.2,0.9-1.3,2.4-1.3,3.8c-0.1,6.3-0.1,12.7-0.1,19c0,0.5-0.1,1,0.8,1
		c3-0.1,5.9-0.2,8.7-1.3c5-1.9,7.7-5.6,8.4-10.9c0.1-0.8,0.3-1.5,0.5-2.3C364.1,286.9,364.2,286.9,364.9,286.7z"/>
	<path class="st1" d="M112.7,334.6c-9,0-17.9,0-26.9,0c-0.1,0-0.1,0-0.2,0c-0.5-0.2-1.5,0.4-1.5-0.4c0-0.7,0.9-0.4,1.5-0.4
		c1.5-0.1,3.1-0.3,4.6-0.7c2.9-0.8,3.6-1.8,3.6-4.8c0.1-14.7,0.3-29.4,0.5-44.1c0.1-6.4-1.6-8.2-7.9-8.9c-0.1,0-0.1,0-0.2,0
		c-0.5-0.3-1.7,0.3-1.7-0.6c0-0.9,1.1-0.4,1.7-0.4c17.2,0,34.4,0,51.6,0c1.3,0,1.7,0.3,1.7,1.6c0.1,6.1,0.3,12.2,0.4,18.3
		c0,0.5,0.5,1.3-0.6,1.5c-1,0.1-0.9-0.6-1-1.2c-1.2-5.3-3.5-10-7.7-13.6c-5.5-4.6-11.9-5.6-18.8-5c-0.6,0.1-1.3,0.1-1.9,0.2
		c-2.3,0.6-4.3,1.4-4.2,4.6c0.2,6.5,0.1,12.9,0.1,19.4c0,1.1,0.3,1.4,1.4,1.4c2.5-0.1,4.9-0.3,7.3-1c5.4-1.7,8.1-5.5,8.8-10.9
		c0.1-0.7,0.2-1.4,0.3-2c0-0.3,0.1-0.7,0.6-0.7c0.7,0,0.5,0.5,0.5,0.9c0,2.5,0,5,0,7.5c0,7.3,0,14.6,0,21.9c0,0.4,0.3,1.2-0.5,1.2
		c-0.6,0-0.4-0.7-0.5-1.1c-0.7-7.4-6.1-13-13.6-14.1c-4.2-0.6-4.2-0.6-4.3,3.6c0,6.5,0,12.9-0.1,19.4c-0.1,5.3,1.6,7.7,7.9,7.3
		c5.1-0.3,10.2-1,14.8-3.8c6.7-4.1,10.9-10,12-17.8c0-0.2,0.1-0.3,0.1-0.5c0.1-0.6,0.4-0.9,1-0.8c0.7,0,0.7,0.5,0.6,0.9
		c-0.2,7.4-0.3,14.7-0.5,22.1c0,1.2-0.7,1.1-1.5,1.1C131,334.6,121.8,334.6,112.7,334.6z"/>
	<path class="st1" d="M707.8,335c-16.5,0-30-13.8-30-30.8c0-17,13.4-30.9,30.1-31c16.5-0.1,30.1,13.9,30.1,30.9
		C738,321.2,724.6,335,707.8,335z"/>
	<path class="st1" d="M193.2,274.1c0,7.4,0,14.4,0,21.4c0,0.3,0.2,0.8-0.2,0.9c-0.4,0.1-0.8-0.1-1-0.5c-0.6-1.2-1.2-2.5-1.6-3.8
		c-1.5-4.4-3.6-8.5-6.9-11.9c-5.3-5.4-13.6-6.5-20.1-2.5c-3,1.9-5.4,4.3-5.2,8.2c0.2,3.9,2.4,6.4,5.7,8.1c4,2.1,8.4,2.8,12.7,3.8
		c3.7,0.9,7.4,1.9,10.9,3.5c6.9,3.2,10.7,9.5,10.1,16.3c-0.5,5.3-3,9.4-6.9,12.7c-6.3,5.4-13.7,6-21.4,4.4c-3.3-0.7-6.3-2.1-9-4
		c-0.2-0.2-0.5-0.3-0.7-0.5c-3.7-2.4-6.2-1.3-7,3c-0.2,0.9-0.3,1.6-1.6,1.5c0-0.5,0-1,0-1.5c0-8,0-16,0-24c0-0.4-0.5-1.2,0.5-1.3
		c0.9-0.1,0.8,0.7,1,1.3c1.1,4.7,2.5,9.3,5.1,13.4c5.5,8.7,12.6,12.5,22.1,10.8c6.8-1.2,9.3-3.7,10.1-9.2c0.5-3.3-1.2-5.8-3.4-7.8
		c-3.6-3.3-8-5-12.7-5.9c-5.9-1.1-11.5-3.2-16.4-6.9c-5.8-4.4-7.9-11-5.5-17.4c1.8-4.9,5.3-8.3,10.1-10.3c8-3.4,15.8-3.6,23.1,2
		c2.7,2.1,4.5,1.5,6-1.5C191.5,275.6,192,274.8,193.2,274.1z"/>
	<path class="st1" d="M832.7,302.9c0,8.3,0,16.6,0,24.9c0,2.8,1.4,4.5,4.2,5.1c1.9,0.4,3.8,0.6,5.8,0.7c0.5,0,1.3-0.2,1.2,0.6
		c0,0.7-0.8,0.4-1.3,0.4c-7.1,0-14.2,0-21.3,0c-3.3,0-6.6,0-9.9,0c-0.7,0-1.8,0.5-1.9-0.4c-0.1-1,1.2-0.5,1.8-0.6
		c1.5-0.2,3-0.3,4.4-0.6c3.3-0.9,4.8-2.7,4.8-6.1c0-16.7,0-33.4,0.1-50.1c0-1.1-0.3-1.5-1.4-1.5c-5.6,0-9.9,2.1-12.7,7.1
		c-2.6,4.7-3.7,9.8-4.9,14.9c-0.1,0.5,0.1,1.4-0.7,1.3c-0.8,0-0.8-0.8-0.8-1.5c-0.1-7.3-0.1-14.6-0.2-21.9c0-1.3,0.7-1.2,1.5-1.2
		c9,0,18.1,0,27.1,0c7.8,0,15.5,0,23.3-0.1c1.2,0,1.5,0.4,1.5,1.5c0,6.7,0,13.4,0,20.1c0,0.3,0,0.7,0,1c0,0.7-0.3,1.5-1,1.6
		c-0.8,0.1-0.7-0.8-0.8-1.4c-1.1-4.1-2-8.2-3.6-12.1c-2.6-6.2-6.9-9.6-13.8-9.4c-1.2,0-1.5,0.3-1.5,1.5
		C832.8,285.6,832.7,294.3,832.7,302.9C832.7,302.9,832.7,302.9,832.7,302.9z"/>
	<path class="st1" d="M774.1,302.8c0,8.3,0,16.6,0,24.9c0,2.9,1.2,4.5,4.1,5.2c1.9,0.5,3.9,0.6,5.9,0.7c0.4,0,1.1-0.1,1.1,0.5
		c0,0.7-0.7,0.5-1,0.5c-10.7,0-21.5,0-32.2,0c-0.4,0-1.2,0.3-1.2-0.5c0-0.7,0.8-0.5,1.3-0.5c1.8-0.1,3.7-0.2,5.4-0.8
		c3.2-1,4.4-2.6,4.4-5.9c0-16.6,0.1-33.3,0.2-49.9c0-1.4-0.5-1.7-1.8-1.7c-5.4,0-9.5,2.1-12.2,6.8c-2.7,4.7-3.9,10-5.1,15.2
		c-0.3,1.5-0.4,1.6-0.8,1.4c-0.7-0.3-0.8-0.9-0.8-1.6c0-7.1-0.1-14.3-0.2-21.4c0-1.3,0.3-1.6,1.6-1.6c16.7,0,33.5,0,50.2,0
		c1.2,0,1.6,0.3,1.6,1.5c0,6.9,0.1,13.7,0.1,20.6c0,0.4-0.1,0.9-0.2,1.3c-0.2,0.5-0.4,1.1-1,1c-0.5-0.1-0.4-0.7-0.5-1.2
		c-1-4-1.9-8.1-3.4-12c-2.5-6.4-6.8-10.1-14-9.9c-1.2,0-1.5,0.3-1.5,1.5C774.1,285.6,774.1,294.2,774.1,302.8z"/>
	<path class="st1" d="M563.7,334.6c0-1.1,0.5-1.4,1.4-1.4c0.8,0,1.7-0.1,2.5-0.3c2.8-0.5,4.2-2.6,3.7-5.4c-0.3-1.6-0.8-3.2-1.5-4.7
		c-1.3-3.1-2.7-6.2-3.9-9.3c-0.4-0.9-0.8-1.3-1.9-1.3c-4,0-8,0-12-0.1c-0.8,0-1.1,0.3-1.4,0.9c-1.4,3.5-2.5,7.1-3.2,10.8
		c-0.3,1.6-0.2,3.3,0.4,4.9c0.8,2.2,2.2,3.7,4.7,4.2c1.3,0.3,2.8,0.2,4,1.1c-0.3,0.7-0.8,0.4-1.2,0.4c-7.5,0-15.1,0.1-22.6,0
		c-0.4,0-1.2,0.5-1.3-0.5c0-0.8,0.6-0.8,1.2-0.9c4.6-0.7,7.7-3.5,9.9-7.4c4-7.2,6.6-15,9.3-22.7c3.5-9.8,6.9-19.7,10.4-29.5
		c0.2-0.5,0.1-1.3,1-1.4c1-0.1,1,0.8,1.2,1.4c6.3,16.4,12.6,32.7,18.9,49.1c0.9,2.4,2.1,4.7,3.2,7c1.3,2.6,3.3,4,6.3,3.8
		c0.6,0,0.9,0.1,0.9,0.6c0.1,0.9-0.6,0.5-0.9,0.5C583.2,334.6,573.5,334.6,563.7,334.6z"/>
	<path class="st1" d="M242.9,334.7c-4.6,0-9.1,0-13.7,0c-0.4,0-1.3,0.5-1.3-0.5c0-0.9,0.7-0.8,1.3-0.9c0.9-0.1,1.8-0.2,2.7-0.3
		c2.6-0.5,4-2.6,3.5-5.1c-0.3-1.6-0.7-3.1-1.4-4.6c-1.4-3.2-2.8-6.5-4.1-9.8c-0.3-0.8-0.6-1.2-1.6-1.2c-4.1,0.1-8.2,0-12.3,0
		c-0.6,0-1.1,0.1-1.3,0.8c-1.4,3.7-2.7,7.5-3.3,11.5c-0.2,1.1,0,2.3,0.3,3.4c0.7,2.7,2.2,4.8,5.3,5.1c1,0.1,2,0.4,3,0.6
		c0.3,0.1,0.5,0.2,0.5,0.6c0,0.4-0.3,0.5-0.6,0.5c-0.2,0-0.5,0-0.7,0c-7.5,0-15,0-22.5,0c-0.4,0-1.2,0.3-1.3-0.4
		c-0.1-0.6,0.4-0.9,1.1-1c5.1-0.6,8.2-4,10.5-8.2c3.6-6.8,6-14,8.6-21.2c3.6-10,7-20,10.5-30c0.2-0.7,0.2-1.6,1.2-1.6
		c1,0,1,1,1.3,1.6c4.4,11.7,8.7,23.4,13.5,34.9c2.9,6.9,4.9,14.2,8.5,20.9c1.4,2.6,3.4,4.1,6.4,3.9c0.6-0.1,0.8,0.1,0.8,0.7
		c0,0.8-0.6,0.5-1,0.5C252.3,334.7,247.6,334.7,242.9,334.7C242.9,334.7,242.9,334.7,242.9,334.7z"/>
	<path class="st1" d="M434.4,287.8c6.8,0.1,13.6,0,20.4-0.3c2.1-0.1,4.2,0.1,6.3,0.4c5.1,0.6,7.4,3.8,7.7,9.1
		c0.3,4.3-1.3,8.2-3.9,11.6c-2.6,3.5-5.5,6.8-8.3,10.2c-0.3,0.3-0.5,0.9-1,0.8c-0.7-0.1-0.4-0.8-0.5-1.3c-0.7-3.5-1.2-7.1-1.4-10.7
		c-0.1-1,0.3-1.6,1.2-2c0.6-0.2,1.1-0.5,1.7-0.8c4.1-2.1,4.5-6.7,0.7-9.4c-2.9-2-6.2-2.2-9.5-1.5c-3.1,0.6-5.9,1.8-8.3,3.8
		c-2.1,1.6-4.2,3.2-6.2,4.9c-1,0.8-1.7,0.7-2.7,0.1c-3.8-2.5-7.7-4.7-12.3-5.3c-2.6-0.3-5.3-0.1-7.9-0.2c-1.7-0.1-3.3-0.1-5-0.2
		c-4.5-0.4-6.8-2.7-7.2-7.2c-0.1-1.8,0-3.5,0.4-5.3c0.7-3.1,2.5-5,5.6-5.8c3.6-0.9,7.1-0.7,10.7-0.6c0.6,0,0.9,0.3,1,0.9
		c0,0.3,0.2,0.5,0.2,0.8c0.8,3.8,0.7,4.1-3.2,4.1c-1.3,0-2.5,0-3.8,0.2c-1.4,0.2-1.5,1.1-1.5,2.2c0.1,1.2,0.8,1.4,1.9,1.4
		c4.1,0,8.2,0,12.3,0C426.2,287.8,430.3,287.8,434.4,287.8z"/>
	<path class="st1" d="M640.3,285.5c0,3.5,0,7.1,0,10.6c0,0.5,0.5,1.4-0.5,1.5c-0.9,0.1-1.3-0.4-1.5-1.3c-0.7-2.3-1.5-4.7-2.4-7
		c-1.6-4.2-3.5-8.2-7-11.2c-5.8-5.1-13.2-5.2-18.7,0.9c-0.8,0.9-1.3,2-1.8,3.1c-3.6,9-4.7,18.4-3.9,28.1c0.4,5.2,0.8,10.3,3.2,15.1
		c1.9,4,4.4,7.1,9.2,7.9c5.5,0.9,10.6,0,14.9-3.8c4.2-3.7,6.2-8.5,6.9-14c0.1-0.7,0.2-1.4,0.2-2c0-0.8,0.6-0.7,1.1-0.7
		c0.6,0,0.8,0.3,0.8,0.8c-0.1,12.1-8.8,21.7-19.4,21.9c-14.8,0.3-27.5-9.4-30.1-23.7c-2.6-14.3,3.5-29.7,16.7-36.4
		c7.2-3.7,14.6-3.5,21.7,0.8c1.2,0.7,2.3,1.4,3.7,1.8c2.5,0.7,3.5,0.2,4.7-2.1c0.4-0.8,0.4-2.5,1.6-2.2c1.1,0.2,0.4,1.8,0.5,2.7
		c0.1,3.1,0,6.2,0,9.3C640.1,285.5,640.2,285.5,640.3,285.5z"/>
	<path class="st1" d="M654.4,304.7c0-7.3,0-14.5,0-21.8c0-5.2-1.1-6.9-7.2-7.6c-0.8-0.1-2.2,0.3-2.1-0.6c0-0.9,1.4-0.4,2.2-0.4
		c8.9,0,17.7,0,26.6,0c0.3,0,0.7,0,1,0c0.4,0,0.9-0.1,0.9,0.5c0,0.4-0.4,0.5-0.8,0.5c-1.1,0.2-2.3,0.3-3.4,0.5
		c-3.3,0.7-3.9,1.3-4.5,4.6c-0.8,4.8-0.7,9.7-0.7,14.5c0.1,11.3,0.2,22.6,0.4,33.9c0,2.3,0.5,3,2.8,3.6c1.6,0.4,3.2,0.7,4.8,1.1
		c0.5,0.1,1.4-0.1,1.3,0.7c-0.1,0.8-0.9,0.4-1.4,0.4c-8.6,0-17.1,0-25.7,0c-1,0-1.9,0-2.9,0c-0.3,0-0.8,0-0.8-0.4
		c0-0.5,0.4-0.4,0.8-0.5c0.7,0,1.4-0.1,2.1-0.1c3.8-0.4,6.5-3.2,6.5-7c0-7.3,0-14.6,0-21.9C654.3,304.7,654.4,304.7,654.4,304.7z"/>
	<path class="st1" d="M873.5,274.2c4.7,0,9.4,0,14.1,0c0.4,0,1.2-0.3,1.2,0.5c0,0.7-0.8,0.5-1.2,0.6c-7.4,1-7.4,1.7-7.8,8.4
		c-0.9,15.1,0.1,30.3,0,45.4c0,1.8,0.8,2.9,2.6,3.2c1.8,0.3,3.6,0.8,5.3,1.2c0.4,0.1,1.1,0,1,0.6c-0.1,0.8-0.8,0.5-1.2,0.5
		c-8.7,0-17.5,0-26.2,0.1c-0.9,0-1.8,0-2.7,0c-0.3,0-0.6,0-0.7-0.4c-0.1-0.5,0.3-0.5,0.7-0.6c0.6,0,1.1,0,1.7-0.1
		c4.2-0.2,7-3.2,7-7.5c0-14.1,0.1-28.2,0.1-42.3c0-0.5,0-0.9,0-1.4c-0.1-5-1.9-6.8-6.9-7.3c-0.9-0.1-2.5,0.5-2.4-0.7
		c0-1,1.6-0.4,2.5-0.4c2.2-0.1,4.3,0,6.5,0C869.3,274.2,871.4,274.2,873.5,274.2C873.5,274.2,873.5,274.2,873.5,274.2z"/>
	<path class="st2" d="M441.8,266.8c0,4.8,0,9.6,0,14.4c0,1.5-0.3,3.1-0.4,4.6c-0.1,0.9-0.5,1.1-1.3,1.1c-5.4,0-10.7-0.1-16.1,0
		c-1.4,0-1.3-0.8-1.3-1.6c-0.3-7.2-0.4-14.4-0.3-21.6c0-4.4,0.1-8.8,0.1-13.2c0-0.9,0.2-1.5,0.9-2c1.4-1.1,2.8-2.4,4.1-3.6
		c0.7-0.6,1.1-0.7,1.7,0.1c0.9,1.1,1.7,2.9,2.9,2.8c1.1,0,1.9-1.8,2.7-2.9c0.6-0.8,1-0.7,1.6-0.1c0.1,0.1,0.2,0.2,0.2,0.2
		c4.2,2.5,5.5,6.2,5,10.9c-0.4,3.6-0.1,7.2-0.1,10.8C441.7,266.8,441.7,266.8,441.8,266.8z"/>
	<path class="st3" d="M432,222.9c2.7,4.7,5.3,9.2,7.9,13.7c0.4,0.7,0.4,1.3-0.2,2c-2.3,2.6-4.6,5.2-6.8,7.9
		c-0.6,0.7-0.9,0.8-1.5,0.1c-2.3-2.8-4.7-5.6-7.2-8.3c-0.5-0.5-0.5-0.9-0.2-1.5C426.7,232.3,429.2,227.7,432,222.9z"/>
	<path class="st4" d="M431.8,401.9c0-3.2,0-6.5,0-9.7c0.1,0,0.2,0,0.2,0C432.2,395.4,432.4,398.7,431.8,401.9L431.8,401.9z"/>
	<path class="st5" d="M513.5,293.5c-2.2,0-4.3,0-6.5,0c-0.9,0-1.2-0.2-1.2-1.1c0-10.3,0-20.7,0.1-31c0-3.6,2-5.6,5.5-5.8
		c4.6-0.3,9.1-0.5,13.6,0.6c5.7,1.4,9.2,4.9,10.4,10.7c0.9,4.4,1.3,8.7,0.3,13.2c-1.8,8.3-7.1,12.9-15.6,13.4
		C518,293.5,515.7,293.4,513.5,293.5C513.5,293.4,513.5,293.4,513.5,293.5z"/>
	<path class="st0" d="M430.8,399.1c-2.1-11.3-3.2-22.7-4.7-34.1c-1.4-10.6-2.6-21.3-4-31.9c-1-8-2-16-3-24c-0.1-0.7-1-2.1,0.4-2.3
		c1.5-0.3,0.9,1.3,1,2c1.7,13.6,3.4,27.2,5.1,40.8c1.5,12.4,3.1,24.8,4.6,37.2c0.4,3.5,0.6,7.1,0.9,10.6
		C431.2,398,431.7,398.7,430.8,399.1z"/>
	<path class="st4" d="M430.8,399.1c0.6-0.5,0.1-1.2,0.4-1.7c0.5,1,0.2,2.1,0.3,3.1c0,0.5-0.2,1,0.3,1.4c0,0,0,0,0,0
		c-0.2,0.3-0.5,0.3-0.6,0C431.1,400.9,431,400,430.8,399.1z"/>
	<path class="st5" d="M279.7,289.7c0.1-2.9-0.3-6.7,0.1-10.4c0.2-2.3,1.3-3.4,3.6-3.5c3.5-0.1,7.1-0.2,10.6,0.6
		c3.9,0.9,6.4,3.1,7.2,7.1c0.8,4,0.8,8-0.7,11.9c-1.6,4.2-4.6,6.2-8.9,6.6c-3.5,0.4-7.1,0.4-10.6,0.4c-1.1,0-1.3-0.5-1.3-1.4
		C279.8,297.5,279.7,294,279.7,289.7z"/>
	<path class="st5" d="M725.4,302.8c0.2,7.1-0.4,14.1-3,20.9c-1.8,4.6-4.6,8.2-9.5,9.6c-6.7,1.9-13.2-1.1-16.5-7.5
		c-2-3.9-2.9-8-3.4-12.3c-0.9-8.8-0.9-17.7,1.3-26.4c1.5-5.8,4.5-10.3,10.6-12.1c6.2-1.8,13.5,1.6,17.1,7.8
		c2.4,4.2,3.1,8.8,3.4,13.5C725.5,298.5,725.4,300.6,725.4,302.8z"/>
	<path class="st5" d="M551.5,310.4c1.9-6.1,3.8-12,5.7-18c0.1,0,0.3,0,0.4,0c2,5.1,3.9,10.3,5.9,15.4c1,2.6,1,2.6-1.9,2.6
		C558.3,310.4,555,310.4,551.5,310.4z"/>
	<path class="st5" d="M228.5,310.3c-4.4,0-8.5,0-12.9,0c1.9-6.1,3.8-12,5.7-17.9c0.1,0,0.2,0,0.4,0
		C224,298.3,226.2,304.3,228.5,310.3z"/>
	<path class="st6" d="M418.9,290.8c8.4,0,16.5,0,25.1,0c-2,0.9-3.7,0.9-5.3,1.3c-2,0.5-4.1,0.9-6.2,1.4c-0.7,0.2-1.5,0.3-2.2,0.1
		c-3.6-0.7-7.2-1.5-10.9-2.2C419.4,291.3,419.3,291.1,418.9,290.8z"/>
	<path class="st7" d="M429.1,248c0.1,1.1-0.6,1.7-1,2.2c-1.8,2-2.5,4.4-2.5,7.1c0,7,0,13.9-0.1,20.9c0,1.9,0,3.9,0,5.8
		c0,0.4,0.3,1.2-0.5,1.2c-0.7,0-0.5-0.8-0.5-1.2c0-7.2,0-14.4,0-21.6c0-1.7,0-3.3,0.1-5C424.7,252.9,425.8,250.7,429.1,248z"/>
	<path class="st8" d="M432.1,240.8c-3.2-2.6-1.4-5.3-0.1-8C434.4,235.9,434.4,237.8,432.1,240.8z"/>
</g>
</svg>
