<?xml version="1.0" encoding="utf-8"?>
<!-- Generator: Adobe Illustrator 21.1.0, SVG Export Plug-In . SVG Version: 6.00 Build 0)  -->
<svg version="1.1" id="Layer_1" xmlns="http://www.w3.org/2000/svg" xmlns:xlink="http://www.w3.org/1999/xlink" x="0px" y="0px"
	 viewBox="0 0 900 596" style="enable-background:new 0 0 900 596;" xml:space="preserve">
<style type="text/css">
	.st0{fill:#FEFEFE;}
	.st1{fill:#2C2824;}
	.st2{fill:#2C2825;}
	.st3{fill:#282420;}
	.st4{fill:#2A2723;}
	.st5{fill:#292622;}
	.st6{fill:#2A2623;}
	.st7{fill:#292522;}
	.st8{fill:#282521;}
	.st9{fill:#2B2723;}
	.st10{fill:#2B2824;}
	.st11{fill:#25221E;}
	.st12{fill:#090602;}
	.st13{fill:#0A0703;}
	.st14{fill:#26231F;}
	.st15{fill:#0B0602;}
	.st16{fill:#0B0603;}
	.st17{fill:#1C1915;}
	.st18{fill:#2B2724;}
	.st19{fill:#0A0602;}
	.st20{fill:#110F0A;}
	.st21{fill:#080501;}
	.st22{fill:#272421;}
	.st23{fill:#060400;}
	.st24{fill:#E8E7E7;}
	.st25{fill:#FBFBFB;}
	.st26{fill:#FAFAFA;}
	.st27{fill:#EDEDED;}
	.st28{fill:#F0F0EF;}
	.st29{fill:#F2F2F2;}
	.st30{fill:#0E0906;}
	.st31{fill:#FDFDFD;}
</style>
<g>
	<path class="st0" d="M450.2,597.2c-108.8,0-217.7,0-326.5,0.1c-4.6,0-5.4-0.8-5.4-4.9c0.1-195.5,0.1-391,0-586.5
		c0-4.1,0.9-4.9,5.4-4.9c218.1,0.1,436.2,0.1,654.4,0c4.6,0,5.4,0.8,5.4,4.9c-0.1,195.5-0.1,391,0,586.5c0,4.1-0.9,4.9-5.4,4.9
		C668.7,597.2,559.4,597.2,450.2,597.2z"/>
	<path class="st1" d="M367.2,259.9c14.4-18.2,33.2-29.3,58.8-29.5c6-0.1,11.9,1.1,17.5,2.9c11.7,3.7,16.8,13.4,13.3,24.5
		c-2.5,8.1-8.2,14.4-14.1,20.6c-8,8.3-17.7,14.8-28,20.7c-15.6,9-31.8,10.3-48.8,4.6c-8-2.7-15-2.5-22,1.8c-1.3,0.8-2.7,1.4-4.1,1.9
		c-2.2,0.8-3.2-1.1-4.3-2.1c-1.4-1.3,0.3-2.1,1.2-2.8c7.9-5.9,13.5-15.4,26.3-13.8c2.1,0.3,3-1.4,4.2-2.5
		c5.2-5.1,10.2-10.4,15.7-15.4c10.4-9.5,18.3-21.3,33.6-28.3c-16.1-1-26.4,5.8-36.2,13.6c-3.9,0.4-5.4,3.5-7.8,5.5
		C369,264.6,367.5,264.1,367.2,259.9z"/>
	<path class="st2" d="M568.1,239.9c-9.4,13.5-18.3,26.4-27.2,39.3c0.8,0.5,1.1,0.8,1.4,0.9c2.2,0.6,5.8,0,5.7,2.9
		c0,3.1-3.4,5.2-6.4,5.1c-5.7-0.2-7.6,3.2-9.9,6.5c-0.7,1-1.6,2.1-0.6,3.2c1,1.1,2.5,0.4,3.7,0.1c0.6-0.1,1.3-0.3,1.9-0.5
		c1.7-0.6,3.8-1.1,4.7,0.6c1.2,2.2-1.3,3-2.8,3.9c-2.8,1.6-5.7,3.1-8.6,4.6c-4.6,2.4-9.2,4.7-13.8,7.2c-2.1,1.1-4.2,2.6-6.5,0.5
		c-2-1.8-1.8-4-0.7-6.1c2.2-4.3,4.4-8.7,6.8-12.9c1.3-2.2,1.1-3.1-1.6-4.3c-6.1-2.7-11.1-2.3-16.2,2.2c-9,7.9-19,14.9-29.5,21.1
		c-4.6,2.8-9.5,5.1-15,6.2c-2.9,0.6-5.8,0.6-8-1.6c-2.3-2.3-1.5-4.8-0.4-7.3c1.4-3.2,3.4-6.1,6.3-8.3c5.9-4.5,11.9-8.9,17.9-13.2
		c1.4-1,2.9-2,4.6-0.3c1.9,1.9,0.1,2.8-1.2,3.8c-2.9,2.4-6,4.7-8.8,7.2c-1.6,1.4-3.3,3.2-1.5,5.1c1.4,1.4,3.8,1,5.5-0.1
		c7.8-4.5,15.6-9.1,23.3-13.8c1-0.6,2.4-2.2,2.2-2.7c-3.3-5.8,2.4-5.7,5.6-7c16.8-7.2,29.4-18.9,41.8-30.8
		C551.2,241.5,551.1,241.4,568.1,239.9z"/>
	<path class="st3" d="M639.4,349.6c0-1.6-0.5-3.3,0.1-4.7c1.8-4.1-4.6-11.2,3.3-12.2c18.1-2.4,25.2,1.1,27.9,11.1
		c4,14.5-3.6,23.2-20.1,23.2c-11.2,0-11.2,0-11.2-10.2C639.4,354.4,639.4,352,639.4,349.6z"/>
	<path class="st4" d="M501.5,331.7c4.2,0.3,9,0.7,11.9,4.5c1.2,1.6,3.7,3.9,1.1,5.4c-1.6,0.9-5,1.6-6.7-1.5
		c-1.9-3.5-5.7-3.2-9.3-2.8c-2.1,0.2-4,1.1-4.3,3.1c-0.4,2.2,1.5,3.2,3.5,3.8c3.1,0.9,6.4,1.7,9.5,2.5c5.9,1.5,9.8,4.7,9.8,10.5
		c-0.1,5.4-4.5,9-11.9,10.1c-7.8,1.1-14.3-1-17.2-6c-0.9-1.5-3.3-3.7-0.7-5.1c2.1-1.1,5.1-2,6.8,1.8c2,4.4,6.6,4.7,11.3,3.6
		c2.5-0.6,4.4-2.1,4.4-4.6c0-2.4-1.9-3.4-4.2-4c-2.5-0.7-5.1-1.2-7.7-1.9c-7.9-2.2-11.4-5.9-10.4-11.1
		C488.2,335,493.6,331.8,501.5,331.7z"/>
	<path class="st5" d="M680.9,332.6c6.2,0,12.3-0.1,18.5-0.1c5.8,0.1,9.8,2.6,10.6,7.9c0.8,5.1-1.7,8.8-7.5,10.4
		c-0.6,0.2-1.1,0.5-2,1c5.5,4.1,8.6,9.4,12.1,14.7c-5.6,1.6-9.1,0.1-11.6-4.2c-1.6-2.8-3.8-5.3-6-7.8c-1.8-2.1-4.5-2.6-7.2-2
		c-3.1,0.7-1.3,3.3-1.6,5c-0.3,1.5-0.2,3.2,0,4.7c0.5,5.3-2.1,6-6.7,3.7c2.2-0.8,0.7-2.3,0.8-3.5
		C680.7,352.5,679.5,342.6,680.9,332.6z"/>
	<path class="st6" d="M538.2,331.7c4.1,0.3,8.6,0.8,11.5,4.4c1.3,1.6,3.9,3.8,1.4,5.5c-1.6,1.1-5.1,1.6-6.8-1.3
		c-1.9-3.2-5.2-3.4-8.6-3c-2.2,0.2-4.6,0.7-5,3.1c-0.4,2.5,1.8,3.4,3.9,4.1c3.1,0.9,6.4,1.6,9.5,2.5c5.9,1.7,9.7,5,9,10.9
		c-0.6,5.8-4.8,8.5-10.9,9.5c-8.6,1.4-15.8-1.2-18.5-6.9c-0.6-1.4-2.9-3.5,0.3-4.3c1.9-0.5,4.2-1.6,6.1,1.4
		c2.9,4.8,8.2,5.9,12.8,3.8c1.9-0.9,3.2-2.3,3.3-4.2c0.1-2-1.5-3.3-3.5-3.9c-2.7-0.8-5.5-1.4-8.3-2.1c-7.9-2.2-11.3-5.7-10.5-11
		C524.5,335,530.1,331.6,538.2,331.7z"/>
	<path class="st5" d="M477.5,350.5c-4.8,2-9.9,0.8-14.8,0.8c-4.6-0.1-4.4,2.1-4.2,4.8c0.2,2.5-1.3,5.8,4.1,5.5c4.6-0.3,9.3,0,14-0.1
		c2.3,0,3.8,0.2,3.8,2.8c0,2.7-1.7,2.7-3.9,2.7c-7.3,0-14.6-0.1-21.9,0c-2.6,0-3.5-0.8-3.5-3.1c0.1-9.5,0.1-19.1,0-28.6
		c0-2.4,1.2-3,3.6-3c7.1,0.1,14.2,0.1,21.3,0c2.4,0,3.7,0.4,3.6,2.9c-0.1,2.4-1.7,2.4-3.6,2.4c-4.2,0-8.4,0.2-12.6-0.1
		c-3.6-0.2-5.1,0.7-5,4.2c0.1,3.3,0.9,4.5,4.8,4.4c4.7,0,9.6-1,14.2,0.6c-5.3,1.3-10.6,0.2-16,0.6c-0.9,0.1,0.4,1.3-0.1,0.6
		c4.9-1.2,9.7-0.7,14.6,0.5c-4.7,2-10,0.8-14.1,1.3C466.6,350.2,472.1,349.2,477.5,350.5z"/>
	<path class="st5" d="M355.2,350.5c-4.8,2-9.9,0.8-14.8,0.8c-4.5-0.1-4.5,2.1-4.2,4.8c0.2,2.5-1.4,5.9,4,5.5c4.6-0.3,9.3,0,13.9-0.1
		c2.1,0,3.9-0.1,4,2.6c0.1,2.5-1.2,2.9-3.6,2.9c-7.3-0.1-14.6-0.1-21.9,0c-2.9,0.1-3.8-0.8-3.8-3.4c0.1-9.3,0.1-18.6,0-28
		c0-2.6,1.1-3.4,3.9-3.3c6.9,0.1,13.7,0,20.6,0c2,0,4-0.4,4.1,2.4c0.1,3.3-2.2,2.8-4.4,2.8c-4,0-8,0.2-11.9-0.1
		c-3.7-0.2-5,0.8-5,4.3c0,3.3,0.9,4.4,4.8,4.4c4.7,0,9.5-1,14.2,0.6c-5.3,1.3-10.6,0.2-15.9,0.6c-0.9,0.1,0.4,1.3-0.1,0.6
		c4.9-1.2,9.7-0.7,14.6,0.3c-4.6,2.5-10,0.7-14,1.4C344.3,350.2,349.8,349.2,355.2,350.5z"/>
	<path class="st5" d="M602.4,332.6c3.3-0.9,5.2,0.2,6.9,2.8c4.2,6.6,8.8,13,14.4,19.3c0-6.2,0-12.5,0-18.7c0-2.1-0.1-3.8,3.3-3.8
		c3.4,0,3.3,1.6,3.3,3.8c-0.1,8.7,0.1,17.5-0.1,26.2c0,1.6,1.6,4.3-2.1,4.7c-2.6,0.3-5.1,0.3-6.8-2.4c-3.8-6-8.1-11.8-12.1-17.7
		c-0.5-0.8-0.7-1.9-3-1.9c0,6.6,0,13.2,0,19.8c-2.5,1.3-4.9,0.6-4.9-1.8C601.5,352.9,599.6,342.7,602.4,332.6z"/>
	<path class="st4" d="M161.4,366.9c4.8-11.1,9.3-21.2,13.5-31.3c1-2.4,2.3-3.3,5.3-3.3c2.8,0,4.3,0.7,5.4,3.2
		c4.4,10.3,9.1,20.5,13.7,31c-4.8,1.3-8.3,0.9-9.4-4.1c-0.6-2.7-2.3-3.8-5.6-3.6c-6.2,0.3-13.3-1.9-15.2,6.8
		C168.5,368.4,164.6,366.6,161.4,366.9z"/>
	<path class="st7" d="M226.7,364.9c-4.7-6.6-9.4-13.2-15.3-21.4c0,7.6-0.1,13.6,0,19.5c0,2.4,0.1,4.2-3.7,4.1
		c-3.6-0.1-3.1-2.1-3.1-4c0-8.7-0.1-17.4,0.1-26.1c0-1.6-1.5-4.3,2.2-4.6c2.7-0.2,5-0.1,6.7,2.5c4.3,6.8,9,13.4,14.7,19.8
		c0-6.2,0.1-12.4-0.1-18.5c-0.1-3.1,0.8-4.6,4.5-3.6c2.5,4.1,1,8.5,1.3,12.8c0.3,4.9,0.2,9.9,0,14.8
		C233.8,365.7,233,366.1,226.7,364.9z"/>
	<path class="st6" d="M412.7,366.5c-5.4,1.4-8.6,0.3-9.5-4.2c-0.6-2.9-2.6-3.7-5.7-3.5c-5.9,0.4-12.9-2.1-14.7,6.5
		c-0.7,3.3-4.7,1.3-7.9,1.5c4.7-10.9,9.3-21.4,13.7-31.9c1-2.4,2.7-2.7,5.1-2.6c2.4,0,4.1,0.2,5.2,2.6
		C403.2,345.4,407.9,355.8,412.7,366.5z"/>
	<path class="st6" d="M594.7,366.5c-5.4,1.4-8.5,0.3-9.5-4.2c-0.6-2.9-2.6-3.7-5.7-3.5c-5.9,0.4-12.9-2.1-14.7,6.5
		c-0.7,3.2-4.7,1.3-7.9,1.5c4.7-10.9,9.3-21.4,13.7-31.9c1-2.4,2.7-2.6,5.1-2.6c2.4,0,4.1,0.3,5.1,2.7
		C585.3,345.5,590,355.9,594.7,366.5z"/>
	<path class="st8" d="M287.4,362.2c2.1,3.4,1.3,4.9-3.3,4.8c-6.9-0.2-13.7-0.2-20.6,0c-3.6,0.1-4.4-1.1-4.4-4.1
		c0.2-8.9,0.2-17.8,0-26.8c0-2.6,0.3-4,3.8-3.9c6.8,0.2,13.7,0.1,20.6,0.1c2.1,0,3.9-0.2,3.9,2.6c0,2.8-1.7,2.7-3.8,2.6
		c-4.2,0-8.4,0.2-12.6-0.1c-3.6-0.2-5,0.7-5,4.2c0.1,3.3,1,4.6,4.9,4.4c4-0.3,8,0,11.9-0.1c2.1,0,3.3,0.5,3.2,2.7
		c0,2.2-1.1,2.7-3.2,2.7c-3.3-0.1-6.6,0-10,0c-6.3,0-8.6,3.1-6.7,8.5c0.8,2.3,2.7,1.5,4.3,1.7C276.1,361.9,281.9,360.7,287.4,362.2
		c-6,1.7-12.2,0.3-17.8,0.8c5,0.2,10.6-0.2,17.3,0.3c-4.7,2.3-11.9,2.7-22,1.8c5.7,0.2,11.5,0,17.2,0.3
		C285.2,365.6,286.3,364.2,287.4,362.2z"/>
	<path class="st6" d="M127.6,332.6c4.4-0.1,8.8-0.3,13.2-0.2c9.7,0.2,14.6,3.9,16.4,12.4c2.2,10-1.3,17.4-9.7,20.9
		c-5.3,0.2-10.6,0.3-15.8,0.2c-2.7-0.1-4.8-0.6-4.7-3.7C127.4,352.4,126.2,342.5,127.6,332.6z"/>
	<path class="st9" d="M756.7,366.1c-5-5.2-8.1-11.6-12.5-17.2c-1.2-1.5-1.4-3.8-4-4.3c-1.9,4.4,0,9-0.8,13.5
		c-0.4,2.5,1.5,6.8-2.6,6.8c-3.8,0-1.7-4.2-1.9-6.4c-0.3-6.3,0.1-12.6-0.2-18.9c-0.2-4.3,1.4-6.4,6.2-6.1
		c4.4,6.3,8.8,12.6,13.3,18.9c0.9,1.2,1.1,3.1,3.5,2.9c2.2-4.9,0.5-10,1-15c0.3-2.5-0.6-5.1,0.6-7.6c0.9,0,1.8,0,2.7,0
		c1.4,9.9,0.3,19.9,0.6,29.8C762.8,366.4,759.3,365.7,756.7,366.1z"/>
	<path class="st10" d="M295.8,349.6c0-4.6,0.1-9.1,0-13.7c-0.1-2.6,1-3.3,3.9-3.3c3,0,3.7,1,3.6,3.5c-0.2,7.1,0.1,14.3-0.1,21.4
		c-0.1,3.1,0.8,4.3,4.4,4c3.5-0.3,7.1-0.1,10.6,0c2.1,0,4.6-0.7,4.7,2.6c0.1,3.1-2,3-4.3,2.9c-1.1-0.1-2.2,0.1-3.3,0
		c-6.3-0.5-14.7,2.6-18.3-1.2c-3-3.3-0.6-10.6-0.6-16.1C296.1,349.6,295.9,349.6,295.8,349.6z"/>
	<path class="st11" d="M718.2,349.4c0-4.4,0.1-8.7,0-13.1c-0.1-2.4,0-4.1,3.7-4c3.3,0.1,3.4,1.5,3.3,3.7c-0.1,9.1,0,18.2,0,27.3
		c0,2.1,0.1,3.7-3.3,3.8c-3.7,0.1-3.8-1.6-3.7-4C718.3,358.5,718.2,353.9,718.2,349.4z"/>
	<path class="st2" d="M779.3,332.8c2.4,6.7,0.5,13.5,1,20.2c0.2,3.3-0.1,6.7,0.1,10.1c0.1,2.5-0.3,4-3.8,4c-3.4,0-3.9-1.3-3.9-3.9
		c0.1-8.9,0.3-17.8-0.1-26.7c-0.2-4.1,1.6-4.8,5.4-3.9c1.4,9.8,0.3,19.7,0.6,29.6c0,1.1,0.1,2.6-1.7,2.7c-2.3,0.2-2.2-1.6-2.2-2.9
		c-0.1-5.7,0-11.4-0.2-17c0.5,4.9-0.2,9.8,0.2,14.7c0.1,1.9-1.5,5.2,2.1,5.1c3.1,0,1.7-3.1,1.8-4.9c0.1-7.9,0.1-15.9,0.1-23.8
		C778.7,335.1,778.5,333.9,779.3,332.8z"/>
	<path class="st12" d="M248.7,332.6c1.8-0.2,2.2,0.7,2.2,2.1c0,9.7-0.1,19.4,0,29.2c0,2.3-0.8,3.2-3.4,3c-1.9-0.1-3.6,0.1-3.6-2.3
		c0.1-10.3,0-20.6,0.1-31c0-1,1.1-1.1,2-1c2.8,5.1,0.8,10.5,1.3,15.7c0.3,2.5,0,5.1,0,6.4C248.4,348.3,245.7,340.3,248.7,332.6z"/>
	<path class="st2" d="M418.8,333.7c6.5-1.9,6.7-1.8,6.7,3.6c0,6.7,0.2,13.4-0.1,20.1c-0.1,3.4,1.2,4.2,4.8,4.2
		c4.7,0,9.5-1.1,14.1,0.7c-5.1,1.4-10.2,0.2-14.2,0.6c3.4,0.6,8.1-0.7,13.1,0.7c-2.3,3.3-5.7,2.2-8.4,2.2
		c-15.1,0.2-15.1,0.1-15.1-13.4c0-4.4-0.1-8.7,0.1-13.1c0.1-1.7-1.2-4.7,2.1-4.7c2.7,0,1.7,2.8,1.8,4.4c0.1,5.1,0.2,10.3,0,15.4
		c0.1-5.2-0.3-10.3,0.2-15.4C424.1,335.3,422,334.3,418.8,333.7z"/>
	<path class="st13" d="M418.8,333.7c3.7-0.2,5.7,0.7,5.5,4.6c-0.4,7.1-0.1,14.2-1.4,21.4c0-8,0-16,0-24c-3,0.1-2.5,1.6-2.5,2.6
		c-0.1,7.3,0,14.7,0,22c0,2.3,0,4.5,3.6,4.4c5.9-0.1,11.8,0,17.7-1.1c-4.8,0-9.6,0-14.4,0c0-0.5,0-0.9,0-1.4c5.7,0,11.4,0,17.1,0
		c1.5,3,1.1,4.9-3.3,4.5c-0.4,0-0.9,0-1.3,0c-7-0.4-16.3,2.7-20.3-1.2c-3.5-3.4-1-11.7-1-17.8C418.4,343.2,418.6,338.5,418.8,333.7z
		"/>
	<path class="st6" d="M432.4,311.1c-3.8-0.2-3.6-3.4-4.9-5.5c-1.4-2.2,0.3-3.3,2.3-3.9c2.5-0.8,5-1.4,7.4-2.3
		c4.9-1.8,5.9,1.2,7.4,4.2c2,4-1.6,4.2-4.1,5C438,309.5,435.3,310.2,432.4,311.1z"/>
	<path class="st8" d="M559.5,312.8c-3.3,4.1-8.7,4.5-13.1,5.4c-4.5,0.9-5.7-4.1-5.3-5.9c1.3-5.4,7.8-4.6,12.2-5.7
		C557.7,305.4,557,310.4,559.5,312.8z"/>
	<path class="st14" d="M740.9,333.4c-4.3,1.1-5.8,3.5-5.6,7.6c0.4,7.6,0.1,15.3,0.1,24.5c3.8-4.1,2-7.5,2.7-10.5
		c0.7-3.5-2-7.5,2.1-10.4c0,6.3,0,12.7,0.1,19c0.1,2.5-0.7,3.5-3.7,3.5c-3.2,0-2.9-1.8-2.9-3.5c0-8.7,0.3-17.4-0.1-26.1
		C733.4,331.5,736.2,331.3,740.9,333.4z"/>
	<path class="st15" d="M226.7,364.9c5,0.6,6.3-1.5,6.1-5.8c-0.3-8.8-0.1-17.6-0.1-26.4c1.7-0.2,2.2,0.4,2.2,2
		c-0.1,9.7-0.1,19.4-0.1,29.2c0,1.1,0.5,2.8-1.3,2.9C231.1,366.9,228.1,368,226.7,364.9z"/>
	<path class="st16" d="M602.4,332.6c0,9.1,0,18.3,0,27.4c0,2.5-0.2,5,3.9,4.7c0.4,3.4-2.5,1.8-4.1,2.1c-1.3,0.2-2-0.7-2-1.8
		c0.1-10.7,0.2-21.4,0.4-32C600.7,332.9,601.8,332.8,602.4,332.6z"/>
	<path class="st17" d="M127.6,332.6c0,9.1,0.2,18.1-0.1,27.2c-0.1,3.9,1.5,5,5.7,5.1c4.7,0,9.6-1.2,14.2,0.8
		c-6.2,2.1-12.6,0.9-18.9,1.2c-2,0.1-2.8-0.6-2.8-2.4c0-10.2,0-20.5,0.1-30.7C125.9,333,126.6,332.5,127.6,332.6z"/>
	<path class="st18" d="M248.7,332.6c-0.1,10.2-0.2,20.5-0.4,30.7c0,0.2-0.6,0.4-2.3,1.4c0-11.2,0-21.7,0-32.1
		C246.9,332.6,247.8,332.6,248.7,332.6z"/>
	<path class="st19" d="M779.3,332.8c0,9.1,0,18.2-0.2,27.3c-0.1,1.9,1.8,5.6-2.6,5.4c-4.2-0.2-2.2-3.7-2.3-5.7
		c-0.3-5.9-0.1-11.8,1.4-17.7c0,7.3,0,14.6,0,21.9c0.8,0,1.6,0,2.4,0c0-10.5,0-20.9,0-31.4C778.4,332.7,778.9,332.7,779.3,332.8z"/>
	<path class="st20" d="M756.7,366.1c4.8-1.2,5.7-4,5.5-8.2c-0.4-8.4-0.1-16.8-0.1-25.2c3,0.7,1.6,2.9,1.6,4.3
		c0.1,8.3-0.2,16.6,0.2,24.8C764.1,367.3,761.7,368.1,756.7,366.1z"/>
	<path class="st19" d="M355.2,350.5c-5.7,0-11.4,0-17.1,0c0-0.4,0-0.8,0-1.2c4.8,0,9.6,0,14.4,0c0-0.4,0-0.7,0-1.1
		c-4.8,0-9.5,0-14.3,0c0-0.5,0-0.9,0-1.4c5.6,0,11.3,0,16.9,0C356.3,348,356.1,349.3,355.2,350.5z"/>
	<path class="st19" d="M477.5,350.5c-5.7,0-11.4,0-17.1,0c0-0.4,0-0.8,0-1.2c4.8,0,9.6,0,14.4,0c0-0.4,0-0.7,0-1.1
		c-4.8,0-9.5,0-14.3,0c0-0.5,0-0.9,0-1.4c5.6,0,11.3,0,16.9,0C478.6,348,478.5,349.3,477.5,350.5z"/>
	<path class="st21" d="M680.9,332.6c0.2,10.4,0.3,20.8,0.6,31.2c0,0.4,1.8,0.7,2.8,1c-1.3,1.7-3.3,0.7-4.8,1.1
		c-0.1-10.5-0.3-21-0.4-31.5C679,333.4,679.4,332.6,680.9,332.6z"/>
	<path class="st22" d="M367.2,259.9c1.2,1.5,1.6,4,4.8,1.2c2.2-2,3.4-6.3,8.3-4.9c-4.6,3.8-9.2,7.6-14.2,11.6
		C366.2,265.1,365.2,262.4,367.2,259.9z"/>
	<path class="st23" d="M759.4,332.6c0,5.7,0.1,11.5,0,17.2c0,1.8,0.9,4-1.6,5.3c-0.1-6.5-0.2-13-0.3-19.5
		C757.4,334.4,756.9,332.7,759.4,332.6z"/>
	<path class="st0" d="M393.2,297.1c-5.4-0.4-10.6-1.4-15.7-2.9c-3.7-1.1-4.7-2.9-1.7-5.6c16.4-14.2,32.7-28.5,49.3-42.5
		c4.4-3.7,9.6-2.6,13,1.9c2.4,3.1,2.8,6.6,2.4,10.2c-1.9,14.9-20.6,34-36.8,37.4C400.2,296.4,396.7,296.6,393.2,297.1z"/>
	<path class="st24" d="M520.8,277.2c3.8-3,7.6-6,11.5-9C528.6,271.6,530.4,280.4,520.8,277.2z"/>
	<path class="st25" d="M646.6,349.8c0-1.6-0.4-3.3,0.1-4.7c1-2.6-3.4-7.2,3.7-7.5c7.9-0.3,12.3,1.7,13.2,6.9
		c0.7,3.7,0.8,7.5-0.2,11.2c-1.2,4.7-11.4,8.3-15.8,5.6c-1.4-0.8-0.9-2.1-1-3.2C646.6,355.3,646.6,352.6,646.6,349.8z"/>
	<path class="st26" d="M692.7,347.1c-4.6,0.9-7.3-0.2-6.7-5.6c0.3-3.2,1.4-4.2,4.7-3.9c2,0.2,4,0,6,0c3.5,0.1,6.2,1.3,6.1,4.8
		c-0.1,3.5-2.7,4.7-6.3,4.6C695.4,347,694.3,347.1,692.7,347.1z"/>
	<path class="st27" d="M180.1,339.3c1.6,3.9,2.4,6.6,3.8,8.9c3.1,5.2,0.3,5.5-4.6,5.6c-4.9,0.1-5.1-1.4-3.4-4.7
		C177.4,346.4,178.3,343.6,180.1,339.3z"/>
	<path class="st28" d="M393.5,339.2c1.8,4.1,2.7,6.9,4.2,9.4c2.5,4.4,0.6,5.2-4.1,5.1c-4.2-0.1-6.5-0.4-4-4.8
		C390.9,346.4,391.7,343.5,393.5,339.2z"/>
	<path class="st29" d="M581.4,353.4c-12.6,0.2-13.7,3.5-6.1-12.7c2.5,1.5,2.3,4.1,3.3,6.2C579.6,348.8,580.4,350.8,581.4,353.4z"/>
	<path class="st30" d="M287.4,362.2c-0.2,2.1-0.8,3.7-3.9,3.7c-7.2-0.1-14.3,0-21.5-1c7.4,0,14.8,0,22.3,0c0-0.4,0-0.7,0-1.1
		c-5.6,0-11.3,0-16.9,0c0-0.5,0-1,0-1.5C274.1,362.2,280.8,362.2,287.4,362.2C287.4,362.2,287.4,362.2,287.4,362.2z"/>
	<path class="st31" d="M132.8,349.2c0-1.4-0.4-2.9,0.1-4.1c0.9-2.5-2.7-6.7,3.1-7.4c7.4-0.9,12.5,1.3,13.8,6.3
		c1.1,4.1,1.1,8.2-0.3,12.3c-1.5,4.2-11.8,7.5-15.7,5.1c-1.3-0.8-0.9-2.1-0.9-3.3C132.8,355.1,132.8,352.2,132.8,349.2z"/>
</g>
</svg>
