<?xml version="1.0" encoding="utf-8"?>
<!-- Generator: Adobe Illustrator 21.1.0, SVG Export Plug-In . SVG Version: 6.00 Build 0)  -->
<svg version="1.1" id="Layer_1" xmlns="http://www.w3.org/2000/svg" xmlns:xlink="http://www.w3.org/1999/xlink" x="0px" y="0px"
	 viewBox="0 0 900 596" style="enable-background:new 0 0 900 596;" xml:space="preserve">
<style type="text/css">
	.st0{fill:#FEFEFE;}
	.st1{fill:#2B2A29;}
</style>
<g>
	<path class="st0" d="M0.9,355.6c0-39.2,0-78.4-0.1-117.6c0-3.3,0.7-4,4-4c219.7,0.1,439.4,0.1,659.1,0.1c0,2.2-1.9,2-3.2,2.2
		c-26.2,4.9-44.2,33.2-44.2,57.8c0,13,1.3,25.5,7.8,37c14.5,25.6,41.1,35.1,66.8,24.8c14.3-5.8,24.3-16.7,29.7-30.9
		c9.2-24.4,7.4-47.9-8.8-69.1c-7.8-10.2-17.8-17.3-30.9-19.6c-1.3-0.2-3.2,0.1-3.2-2.1c27,0,54,0,81,0c-0.3,2.5-2.6,2.4-4.2,3
		c-20.3,7.7-27.7,33.7-14.2,50.7c3.8,4.8,9.1,7.8,14.8,10c9.8,3.9,19.5,8.1,27.7,15c11.5,9.7,13.2,27.1,3.5,38.7
		c-6,7.2-18.9,9.5-28.9,5.5c-11.5-4.6-17.5-13.8-20.9-25.1c-1-3.3-1.7-6.8-2.6-10.2c0.2,11.4,1.4,22.8-0.7,33.7
		c1.1,0.7,1.4,0.7,1.6,0.4c5.3-6.6,6.1-6.8,14.6-1.7c9.4,5.6,19.4,7.2,30,4c10.3-3.1,17.1-10.1,21.2-19.7c3.5-8.3,4.4-17,2.6-25.9
		c-1.5-7.2-5.4-12.9-11.3-17.2c-7-5.1-15-8-22.9-11c-6.4-2.4-12.3-5.5-17.6-9.8c-7.8-6.2-10.1-14.2-6.9-23.9
		c2.8-8.6,10.3-13.6,19.7-14.3c17.5-1.2,27.9,10.2,30.2,26c0.2,1.1-0.2,2.3,1.3,4.1c-0.4-5.4-1.2-10-0.8-14.6
		c0.4-4.6,1.1-9.3,1.2-14.1c-1.5,0.2-1.8,1.5-2.5,2.3c-1.5,1.7-3.4,2.5-5.5,1.7c-5.4-1.9-10.6-4.3-16-6.2c-0.6-0.2-0.8-0.8-0.7-1.4
		c42.1,0,84.2,0,126.4-0.1c2.6,0,3.2,0.5,3.2,3.2c-0.1,29.2-0.1,58.4-0.1,87.6c-1.8,1.4-2.2,3.4-2.6,5.4c-0.8,3.6-2.1,7-3.8,10.3
		c-3.1,6.1-8,10.1-14.5,12c-10.4,3-21.2,3.1-31.9,2.5c-5.5-0.3-7.8-3.4-8.4-8.9c-1.6-14.9-0.8-29.9-0.9-44.8c0-5.2,1.4-6.5,6.5-6.7
		c18.6-0.7,20.9,4.7,23.2,19.4c-0.8-12.9-1.4-25.8,0.1-38.8c-0.9,2.4-1.2,4.8-1.9,7.2c-2,7.1-6.1,10.6-13.5,11.1
		c-2.5,0.2-5,0.1-7.5,0.1c-5.5-0.2-6.8-1.4-6.9-6.8c-0.2-8.4,0-16.7,0-25.1c0-5-0.1-10,0-15c0.1-4.8,1-5.9,5.7-5.9
		c8.3,0,16.7-0.6,25,1.2c10.1,2.2,16.4,8,19.1,17.9c0.2,0.7,0.3,1.4,0.6,2.1c0.1,0.1,0.2,0.2,0.5,0.6c0.1-6.9,0.2-13.5-0.6-20.2
		c-0.4-3.4-1.9-4.6-5.1-4.3c-18.9,1.8-37.8,0.4-56.7,0.8c-4,0.1-7.9-0.5-11.9-0.7c0.2,1.5,1.5,1.5,2.3,1.8c3.5,1.4,5.2,4.1,5.8,7.7
		c0.3,2.2,0.4,4.4,0.4,6.6c0,29,0,58.1,0,87.1c0,0.6,0-0.1,0,0.4c-0.1,9.8-1.2,11.5-9.7,15c24.6-0.1,49.4,0,74.3-0.1
		c0.9,0,1.8,0,2.6,0.1c6.8,0.5,7.2,0.2,7.5-6.9c0.1-2.1-0.1-4.1,0.2-6.2c0.2-1.4,0-3.1,2.1-3.3c0,6.9-0.1,13.8,0.1,20.7
		c0,1.9-0.4,2.6-2.3,2.2c-0.6-0.1-1.2,0-1.8,0c-297.2,0-594.4,0-891.6,0.1c-3.7,0-5.2-0.8-4.4-4.5c2.7-2.3,6-2,9.2-2.2
		c14.8-0.6,29.6,1,44.4,0.9c24.6-0.1,44.6-15.3,50.6-39.1c3.8-15.2,3.6-30.5-1.7-45.5c-6.1-17.2-18.3-28-35.8-32.8
		c-10.3-2.8-20.8-3-31.4-2c-8.6,0.8-17.3,0.8-25.9-0.1c-1.4-0.1-2.9-0.7-4.9,0.4c8.6,2.5,9.1,9.1,9.1,16.1c-0.1,28.6,0,57.2,0,85.9
		c0,3.1-0.1,6.2-1,9.1C11.7,355.4,6.4,357.8,0.9,355.6z"/>
	<path class="st1" d="M0.9,355.6c10-0.6,12.3-2.6,12.3-12.4c0.1-30.4,0.1-60.7,0-91.1c0-8.2-0.7-9-9.1-11.9
		c-1.3-0.4-1.5-1.1-1.5-2.2c0-1.7,1.2-1.4,2.2-1.3c18,2.6,36-1.3,54,0.7c27.6,3.1,47.2,23.2,49.6,50.9c1.2,13,0.8,25.9-4.4,38
		c-8.6,20.2-24,31.2-45.9,32.8c-7.5,0.5-14.9,0.1-22.4-0.6c-11.6-1.1-23.1-0.9-34.7,0.5C0.9,357.9,0.9,356.8,0.9,355.6z"/>
	<path class="st1" d="M678.1,234.1c2.9,0.8,5.9,1.3,8.7,2.3c19.4,6.6,31.6,20.5,37.2,39.6c6.5,22,4.5,43.4-9.4,62.4
		c-22.6,30.9-65.6,30.3-87.7-1c-19.6-27.8-14.5-69.9,11.2-91.4c7.1-5.9,15.2-9.9,24.4-11.2c0.6-0.1,1.2-0.1,1.4-0.8
		C668.7,234.1,673.4,234.1,678.1,234.1z"/>
	<path class="st1" d="M900.9,340.6c-1.9,4.7-0.8,9.7-1.3,14.5c-0.3,2.9-0.9,3.9-4.1,3.7c-27.3-1.5-54.5-1.4-81.8-0.1
		c-1.3,0.1-3.2,1-3.3-1.5c-0.2-2.5,1.9-1.7,3.1-1.9c7-1.3,8.9-2.9,9-10.1c0.2-31.7,0.1-63.4,0-95.1c0-6.7-1.6-8.3-8.3-9.8
		c-1.4-0.3-2.5-0.4-2.3-2.3c0.2-2.3,1.9-1.4,3-1.3c17,1.4,34,0.8,51,0.7c7.2,0,14.4-0.5,21.5-0.8c1.7-0.1,3.1-0.2,3.1,2.3
		c0.1,8.2,0.6,16.4,0.8,24.6c0,1,0.6,2.6-1.3,2.6c-1.5,0.1-1.4-1.1-1.6-2.1c-3.5-18.6-14.1-20.7-27.2-22c-5.8-0.6-11.7-0.2-17.6-0.4
		c-2.7-0.1-3.1,1-3.1,3.3c0.1,14.7,0.1,29.3,0,44c0,2.1,0.3,3.3,2.8,3.1c3.4-0.2,6.8,0.1,10.1-0.1c6.8-0.4,10.5-3.4,12-10
		c0.7-2.8,0.9-5.8,1.2-8.7c0.2-1.4,0.7-2.2,2.2-2.1c1.6,0.1,1.1,1.4,1.2,2.3c0.1,0.4,0,0.9,0,1.3c-0.9,13.2-0.8,26.4-0.1,39.6
		c0.1,1.1,1.2,3.2-1.3,3.4c-2.3,0.2-1.8-1.8-2-3.1c-0.3-2.5-0.5-5-1-7.4c-1.5-8-4.6-10.8-12.6-11.5c-12.6-1.1-12.6-1.1-12.6,11.3
		c0,12.6,0,25.2,0.3,37.8c0.2,6.9,2,8.5,8.9,8.7c8.7,0.3,17.3-0.1,25.9-1.5c10.4-1.7,16.9-7.5,19.9-17.4c0.8-2.7,1.4-5.4,2-8.1
		c0.4-2,1.4-2.8,3.4-2C900.9,330.1,900.9,335.3,900.9,340.6z"/>
	<path class="st1" d="M771.4,234.1c5.1,2,10.3,3.8,15.3,6.1c3.6,1.6,5.9,0.9,7.3-2.7c0.5-1.4,1.1-2.5,2.8-2.1c2.1,0.5,1,2.2,0.8,3.2
		c-1.4,8.4-1.5,16.9-1,25.4c0.1,1.5,1.8,4.4-1.3,4.5c-2.7,0.2-1.6-2.7-1.7-4.1c-0.5-4-1.3-7.8-2.8-11.5c-5.4-13-20.5-19.1-33.7-14
		c-11.8,4.6-18.2,23.5-6,33.8c5.7,4.8,12.2,7.9,19,10.7c5.1,2.1,10.3,4.1,15.3,6.5c16.6,8.1,23.2,19.9,19,41.1
		c-5.2,26.3-31.3,37.7-54.6,24.5c-0.5-0.3-1-0.6-1.5-0.9c-7.5-4.3-7.5-4.3-12.5,2.8c-0.7,0.9-1.2,1.7-2.4,1.3
		c-1.2-0.3-0.9-1.4-0.8-2.2c1.4-11.9,0.8-23.7,0.1-35.6c-0.1-1.1-0.5-2.5,1.4-2.5c1.8,0,1.6,1.4,1.8,2.5c0.7,5.4,1.8,10.7,3.9,15.7
		c5.2,12,13.4,20.1,27.2,21.1c13.6,1,23.4-7.6,24.8-21.1c0.9-9.2-2.2-16.6-9.1-22.7c-6-5.3-13-8.9-20.3-12c-3-1.3-6-2.4-8.9-3.6
		c-14.5-6.2-21.4-17.2-20.7-32.4c0.7-14.2,10-26.2,23.8-30.7c0.9-0.3,2.2,0.1,2.6-1.2C763.2,234.1,767.3,234.1,771.4,234.1z"/>
	<path class="st1" d="M215.7,254.8c0,11.7,0,23.4,0,35.1c0,15.7,0,31.4,0,47.1c0,2.2,0,4.4,0.3,6.6c1.2,9.4,2.4,10.6,11.9,11.9
		c1.1,0.1,2.5-0.3,2.5,1.6c0,2.2-1.5,1.7-2.8,1.7c-34.5-0.2-68.9-1.5-103.4-0.6c-4.4,0.1-8.8,0.4-13.2,0.7c-1.2,0.1-2-0.1-2.1-1.5
		c-0.1-1.3,0.5-1.8,1.7-1.9c9.8-0.6,10.4-4.3,10.5-12.9c0.3-29.9,0.3-59.9,0-89.8c-0.1-9.1-1.2-11.4-9-12.5c-1.6-0.2-1.9-1-1.8-2.3
		c0.1-1.6,1.3-1.3,2.3-1.2c5.1,0.3,10.3,0.8,15.4,0.8c18.9,0.1,37.9,0.6,56.8-0.8c3.5-0.3,4.4,0.7,4.4,4.2c0,7.5,0.5,15,0.7,22.4
		c0,1,0.8,2.6-1,2.9c-1.9,0.4-2-1.2-2.3-2.5c-3.7-15.2-9.7-20.2-26.2-21.6c-6.3-0.5-12.6-0.2-18.9-0.5c-2.2-0.1-2.7,0.8-2.6,2.8
		c0.1,15,0,29.9,0,44.9c0,1.2-0.4,2.8,1.8,2.7c4.5-0.2,9.1,0.4,13.6-0.4c4.8-0.8,8-3.6,9.2-8.3c0.8-3.1,1.2-6.3,1.7-9.5
		c0.2-1.2-0.4-2.9,1.9-2.7c2.1,0.2,1.4,1.9,1.4,3c-0.8,11.7-0.7,23.5-0.3,35.2c0.1,2.1,0.2,4.1,0.4,6.2c0.1,1.4-0.1,2.3-1.8,2.3
		c-1.6,0-1.3-1.1-1.5-2.1c-0.5-3.6-0.9-7.3-1.7-10.8c-1-5-4.2-7.8-9.3-8.6c-4.4-0.8-8.8-0.3-13.2-0.5c-1.8-0.1-2.2,0.8-2.2,2.4
		c0.1,15.7-0.1,31.4,0.3,47.1c0.1,6.3,1.9,8,7.4,8.3c10.1,0.6,20.2,0.3,30.2-2c8-1.8,13.3-6.5,16.1-14.1c1-2.9,1.6-5.9,2.8-8.8
		c0.6-1.4-0.4-4.3,2.2-4.1c2.8,0.3,1.2,2.9,1.2,4.3c-0.2,7.5-0.4,15-1,22.4c-0.4,4.1,1.1,4.5,4.6,3.8c4.8-0.9,7.6-3.3,8.2-8.3
		c0.7-5.3,0.9-10.5,0.9-15.8c0-25.4,0-50.8,0-76.2c0-8.6-4.2-13.4-12.8-14.7c-0.7-0.1-1.5-0.1-2.2-0.2c-1.5-0.1-1.4-1.2-1.4-2.2
		c0-1.3,1.1-1.2,1.9-1.1c9.1,0.5,18.2,1,27.3,0.4c2.2-0.1,2.7,2,3.7,3.4c18.9,27.1,37.7,54.1,56.5,81.2c0.8,1.2,1.6,2.3,2.7,3.7
		c0.7-25.5,1.2-50.5-0.3-75.5c-0.4-7.3-3-9.1-10.4-9.9c-1.4-0.1-3.7,0.7-3.6-2c0.2-2.7,2.5-1.4,3.7-1.3c17,0.4,34,0.7,51,0.3
		c2.6-0.1,3.6,1.3,4.8,3c18.8,27.1,37.6,54.2,56.5,81.3c0.9,1.3,1.8,2.5,3.5,4.7c0-2.4,0-3.8,0-5.2c0-19.8,0-39.6,0-59.4
		c0-3.7-0.3-7.3-0.7-11c-0.9-7.6-3-9.5-10.5-10.3c-1.4-0.1-3.7,0.8-3.5-1.9c0.2-2.7,2.5-1.4,3.7-1.4c17.7,0.4,35.5,1.7,53.2,0
		c1.1-0.1,2.7-0.9,2.8,1.5c0.1,2-1.2,1.9-2.5,2.2c-6.1,1.8-7.7,4.6-5,10c8.9,17.9,18.1,35.6,27.2,53.4c1.5-0.8,1.6-2.1,2.1-3.1
		c6.1-13.5,12.1-27,18-40.5c1.2-2.8,2.4-5.7,3.2-8.6c1.8-6.7,0.1-9.4-6.7-11.2c-1.4-0.4-3.7,0.2-3.1-2.5c0.6-2.7,2.6-1.1,3.9-1
		c7.3,0.7,14.6,0.8,22-0.1c1.1-0.1,2.7-1.2,3.1,1.1c0.3,1.9-1,2.1-2.3,2.4c-5.9,1.7-9,6.3-11.6,11.3c-6.6,12.3-11.1,25.5-17.6,37.8
		c-7,13.2-10.2,26.9-8.7,41.8c0.5,5.1-0.4,10.3,0.6,15.4c1,5.5,2.8,7.2,8.3,8c1.2,0.2,2.3,0.3,3.5,0.3c1.4,0.1,2.6,0.2,2.5,2.2
		c-0.1,2.2-1.5,1.7-2.8,1.6c-11.6-1.1-23.2-1.1-34.7-0.5c-2.5,0.1-5,0.3-7.5,0.6c-1.3,0.1-2.4,0.2-2.4-1.6c0-1.4,0.3-2.2,1.9-2.3
		c1.6-0.1,3.2-0.1,4.8-0.4c4.2-0.6,6.8-2.7,7.4-7.3c1.2-10.1,0.3-20.2,0.7-30.3c0.2-4.8-1-9-3.3-13.3c-9.1-16.7-17.9-33.6-26.8-50.4
		c-1.8-3.4-3.6-6.7-6.3-9.5c-3.2-3.2-5.9-2.8-7.4,1.6c-1.8,4.9-1.8,10.1-1.8,15.2c0,32,0,64,0,96c0,1.5,0.4,3.1-0.6,5.1
		c-25-35.9-49.8-71.5-74.7-107.2c-1.1,1.4-0.6,2.6-0.6,3.7c0,25.8,0,51.7,0,77.5c0,3.2,0.1,6.5,0.5,9.7c1.1,7.6,3,9.3,10.6,10.3
		c1.3,0.2,3.8-1,3.4,1.9c-0.3,2.6-2.5,1.3-3.9,1.2c-8.7-0.5-17.3-0.5-26,0.1c-1.2,0.1-3.1,1.2-3.3-1.4c-0.2-2.6,1.9-1.7,3.1-1.8
		c8.2-1,10.4-3.1,11.1-11.3c0.3-4.1,0.4-8.2,0.4-12.3c0-26.4-0.1-52.8,0.1-79.3c0-5.3-2.9-8.2-6.7-10.4c-4.2-2.4-8.9-3.1-13.4-0.4
		c-3,1.8-3.7,4.9-4,7.9c-0.5,4.4-0.7,8.8-0.7,13.2c-0.1,31.1,0,62.2,0,93.3c0,1.6,0,3.2,0,4.8c-0.3,0.1-0.5,0.2-0.8,0.4
		c-24.8-35.6-49.6-71.2-74.4-106.8C216.3,254.7,216,254.7,215.7,254.8z"/>
	<path class="st1" d="M568.5,295.1c0.3,0.4,0.3,0.6,0.4,0.6c16.3,4.3,24.7,15.7,28.5,31.4c1.5,6.4,3.7,12.7,5.8,18.9
		c2.3,6.6,6.2,9.2,13.2,9.5c1,0,3-1.3,2.8,1.3c-0.1,1.6-0.6,3.3-2.8,3.2c-5.3-0.1-10.6,0.2-15.8-0.3c-8.1-0.7-13.2-5.7-16.4-12.9
		c-4-9.4-5.4-19.4-7.2-29.4c0-0.1,0-0.3-0.1-0.4c-3.1-16.7-8.7-20.9-25.7-19.5c-2,0.2-2.7,0.6-2.7,2.8c0.1,15.1,0,30.2,0.2,45.3
		c0.1,7.1,1.5,8.4,8.6,9.9c1.3,0.3,3.8-0.7,3.5,2c-0.3,3.2-2.8,1.3-4.1,1.2c-11.6-0.8-23.2-0.8-34.7,0.1c-1.3,0.1-3.5,1.4-3.7-1.4
		c-0.2-2.5,2-1.6,3.2-1.8c7-1.3,8.5-2.7,8.9-9.7c0.9-16.7,0.3-33.5,0.4-50.2c0-15,0.5-29.9-0.3-44.9c-0.4-7.3-1.4-8.4-8.4-10.2
		c-1.2-0.3-2.2-0.3-2.2-2c0-1.5,0.7-1.8,1.9-1.7c17.9,2.4,35.8-1.9,53.6,0.1c19.3,2.2,30.1,17.7,25.4,36.4
		c-3.2,12.9-13.2,17.8-24.9,20.6C573.4,294.4,571,294.6,568.5,295.1z"/>
	<path class="st0" d="M31,292.7c0-15.8,0.1-31.7-0.1-47.5c0-3.4,0.9-4.7,4.2-4.9c5.9-0.2,11.7-0.7,17.6,0.2
		c15.9,2.4,26.7,11.4,31.3,26.6c6.7,21.8,6.3,43.8-1.5,65.2c-6.7,18.2-22.7,26.6-41.8,23.5c-6.2-1-8.2-3.1-9.1-9.4
		c-1.2-8.3-0.5-16.7-0.6-25C30.9,311.8,31,302.2,31,292.7z"/>
	<path class="st0" d="M636,297.8c0.4-13.1,0.8-26,5.2-38.4c6.2-17.7,21.1-25.6,39.4-21c9.6,2.4,15.6,8.8,19.4,17.6
		c3.7,8.6,5.1,17.7,5.7,26.9c1.1,16.4,1.1,32.9-3.1,48.9c-3.3,12.3-9.5,22.4-23,25c-17,3.4-31.9-1.9-38.6-21.2
		C636.8,323.4,636.4,310.5,636,297.8z"/>
	<path class="st0" d="M548.5,267.1c0-7.3,0.2-14.6-0.1-22c-0.1-3.3,1-4.2,4-4.5c6.5-0.6,12.9-0.5,19.1,1.4
		c6.3,1.9,10.5,6.1,12.4,12.5c2.1,7,2.2,14.1,0.2,21.2c-3.1,11.4-11.8,15.8-22.4,17.3c-13.3,1.8-13.3,1.7-13.3-11.4
		C548.5,276.7,548.5,271.9,548.5,267.1z"/>
</g>
</svg>
