<?xml version="1.0" encoding="utf-8"?>
<!-- Generator: Adobe Illustrator 21.1.0, SVG Export Plug-In . SVG Version: 6.00 Build 0)  -->
<svg version="1.1" id="Layer_1" xmlns="http://www.w3.org/2000/svg" xmlns:xlink="http://www.w3.org/1999/xlink" x="0px" y="0px"
	 viewBox="0 0 900 596" style="enable-background:new 0 0 900 596;" xml:space="preserve">
<style type="text/css">
	.st0{fill:#FFFFFF;}
</style>
<path d="M426.4,419h-68.2v-73.6h48.5V305h-48.5v-68.2h68.2v-40.4H310.6v263h115.8V419z M720.9,419h-68.2v-73.6h48.5V305h-48.5v-68.2
	h68.2v-40.4H605.1v263h115.8V419z M747.8,196.4v263h115.8V419h-68.2V196.4H747.8z M224.4,196.4H272v263.1h-47.6V196.4z M164.3,215.2
	c-11.6-11-34.1-18.4-60.2-18.9H55.6v263.1h57.5c31.1,0.1,44.2-11.1,54.8-22.4c18.4-22.3,21.2-48.5,21.5-115.8
	C189.1,233.3,175.1,226.7,164.3,215.2L164.3,215.2z"/>
<path class="st0" d="M138.2,373.3c0.4,43.3-16.5,46.1-35,45.8V236.8c31.6,0.2,35.4,19.9,35,41.3
	C138.2,278.1,139.5,370.7,138.2,373.3z"/>
<path d="M488.4,384h-43.1c-0.4,26.5-0.4,81.2,64.6,80.8c65,0.4,68.2-55.3,68.2-69.1c0-14.2,1.4-45.5-40.4-79
	c-16.2-13.7-28.8-22.6-41.3-36.8c-11.8-14.8-9-23.2-9-29.6c0-5.8,5.6-19.3,18.9-19.8c12.9,0.4,20.4,13.5,19.8,39.5H571
	c1.6-25-6.4-78.8-63.7-79c-57.7,0.2-65.2,52.1-66.4,69.1c-0.6,17.6,2.2,46.6,52.1,86.2c16.1,13.7,40.4,28.6,41.3,52.1
	c-0.1,18.7-12.6,27.5-19.8,27.8C506.6,425.9,488.4,425.9,488.4,384L488.4,384z M853.8,224c7.8,0.2,14.4-5.9,14.6-13.7
	s-5.9-14.4-13.7-14.6c-0.3,0-0.6,0-0.9,0c-7.8,0.3-13.9,6.8-13.7,14.6C840.4,217.8,846.4,223.8,853.8,224z M853.8,222.1
	c-6.9,0-12-5.4-12-12.3c0-6.9,5-12.3,12-12.3c6.9,0,11.9,5.4,11.9,12.3C865.7,216.8,860.7,222.1,853.8,222.1z M856.1,210.4
	c2.8-0.1,5-1.2,5-4.3c0-2.6-1.4-4.2-5.6-4.2h-6.9v15.8h1.9v-7.3h3.5l4.5,7.3h2.3C860.9,217.7,856.1,210.4,856.1,210.4z M850.5,208.9
	v-5.6h4.5c1.9,0,4,0.3,4,2.8c0,3.2-3.3,2.8-5.5,2.8H850.5z"/>
</svg>
