<?xml version="1.0" encoding="utf-8"?>
<!-- Generator: Adobe Illustrator 21.1.0, SVG Export Plug-In . SVG Version: 6.00 Build 0)  -->
<svg version="1.1" id="Layer_1" xmlns="http://www.w3.org/2000/svg" xmlns:xlink="http://www.w3.org/1999/xlink" x="0px" y="0px"
	 viewBox="0 0 700 965" style="enable-background:new 0 0 700 965;" xml:space="preserve">
<style type="text/css">
	.st0{fill:#FEFEFE;}
	.st1{fill:#0A0A0A;}
	.st2{fill:#111111;}
	.st3{fill:#121212;}
	.st4{fill:#090909;}
	.st5{fill:#0F0F0F;}
	.st6{fill:#0B0B0B;}
	.st7{fill:#0D0D0D;}
	.st8{fill:#0E0E0E;}
	.st9{fill:#F0F0F0;}
	.st10{fill:#F8F8F8;}
	.st11{fill:#FCFCFC;}
	.st12{fill:#FBFBFB;}
	.st13{fill:#E2E2E2;}
	.st14{fill:#E5E5E5;}
	.st15{fill:#E6E6E6;}
</style>
<g>
	<path class="st0" d="M351.5,165.5c114.9,0,229.7,0,344.6-0.1c4.8,0,5.7,0.9,5.7,5.7c-0.2,209.2-0.2,418.4,0,627.6
		c0,4.8-0.9,5.7-5.7,5.7c-229.7-0.2-459.4-0.2-689.1,0c-4.8,0-5.7-0.9-5.7-5.7c0.2-209.2,0.2-418.4,0-627.6c0-4.8,0.9-5.7,5.7-5.7
		C121.8,165.5,236.7,165.5,351.5,165.5z"/>
	<path d="M79.7,477.4c0-14.4,0.1-28.9-0.1-43.3c-0.1-4.2,0.5-6,5.5-6c22.6,0.3,45.2,0,67.8,0.2c9.6,0.1,18.9,2.1,27.7,6
		c18.9,8.3,29.1,26.3,26.9,46.6c-2.4,22.3-17.6,39.5-38.6,43.7c-10.1,2-20.3,2.5-30.5,2.6c-17,0.1-34-0.4-51,0.2
		c-6.8,0.2-7.9-2.1-7.7-8.2C80,505.4,79.7,491.4,79.7,477.4z"/>
	<path d="M373.6,463.4c0,20.2-0.2,38.7,0.1,57.3c0.1,4.9-0.7,7.2-6.3,6.7c-5.8-0.6-11.6-0.3-17.4-0.1c-3.5,0.2-4.8-0.6-4.8-4.5
		c0.2-30,0.2-60.1,0-90.1c0-3.7,1.1-4.4,4.7-4.7c11.7-0.9,21.6,1.1,31,9.8c20.2,18.9,42.6,35.2,63.8,54.9c0-3.2,0-5.8,0-8.5
		c0-17,0.1-34-0.1-51c0-3.7,0.7-5.4,4.9-5.2c6.5,0.4,13,0.2,19.6,0c3.2-0.1,4.9,0.2,4.9,4.4c-0.2,30-0.2,60.1,0,90.1
		c0,3.7-1.2,4.9-4.8,4.7c-5.1-0.3-10.2-0.2-15.4,0c-2.5,0.1-4.5-0.8-6.3-2.3c-22.3-18.3-44.6-36.5-66.9-54.8
		C378.6,468.6,376.9,466.7,373.6,463.4z"/>
	<path d="M240.5,465.1c14.7-9.1,29.1-17.1,42.4-26.5c11.5-8.2,23.5-12.3,37.6-10.6c6,0.7,12.1,0.1,20.1,0.1
		c-23.1,15.2-44.8,29.6-67.2,44.3c23,18,45.7,35.7,70,54.6c-13.4,0-24.9,0-36.4,0c-2.8,0-4.6-2-6.6-3.5
		c-15.1-11.3-30.1-22.6-45.1-33.9c-2.1-1.6-3.8-4.6-7.1-1.9c-3.2,2.6-8.1,3.2-7.7,9.4c0.6,8.1-0.1,16.3,0.2,24.4
		c0.1,4.1-0.6,5.9-5.3,5.6c-6.5-0.4-13-0.3-19.6,0c-3.6,0.1-4.8-0.8-4.8-4.6c0.1-30,0.1-60.1,0-90.1c0-3.2,0.7-4.5,4.2-4.4
		c7,0.3,14,0.3,21,0c4.1-0.2,4.5,1.5,4.4,4.9C240.4,443.3,240.5,453.7,240.5,465.1z"/>
	<path d="M476.4,428.3c10.6,0,21.2,0,31.8,0c2.5,0,3.6,2,5,3.4c8.9,8.8,17.9,17.6,26.6,26.7c2.6,2.8,4.1,3.2,6.9,0.2
		c8.7-9.1,17.8-17.8,26.5-26.8c2.4-2.5,4.9-3.7,8.5-3.6c9.5,0.3,19,0.1,30.5,0.1c-9.7,9.6-18.3,17.9-26.7,26.3
		c-8.1,8-16.1,16.2-24.3,24.1c-2.5,2.5-3.5,5-3.5,8.5c0.2,11.6-0.1,23.3,0.2,34.9c0.1,3.8-0.7,5.4-4.9,5.2c-6.3-0.4-12.6-0.3-18.9,0
		c-4.3,0.2-5.6-1.1-5.5-5.4c0.3-11.4-0.1-22.8,0.2-34.2c0.1-4.1-1.2-6.9-4.1-9.7c-16.5-15.9-32.8-32.1-49.2-48.2
		C475.8,429.3,476.1,428.8,476.4,428.3z"/>
	<path class="st1" d="M473,555.4c4.1-3.9,2.5-11,8.9-13.5c-2.1,5.4-4.1,10.9-6.2,16.3c-0.5,1.2-0.5,3-2.5,2.8
		c-1.7-0.2-1.9-1.7-2.4-3c-1.4-3.9-2.9-7.8-4.7-12.4c-1.4,4-2.4,7.3-3.8,10.4c-0.8,1.7-0.4,4.9-3.1,4.9c-3,0-2.7-3.3-3.6-5.2
		c-1.9-4.5-3.4-9.1-5.6-15c7,3.4,5.1,11,9.3,14.8c1.5-3.9,3.1-7.7,4.4-11.6c0.5-1.4,0.7-2.7,2.6-2.4c1.5,0.2,1.6,1.2,2,2.4
		C469.9,547.6,471.4,551.5,473,555.4z"/>
	<path class="st2" d="M358.5,544.1c-1.2,6.2,0.6,11.7-2,16.9c-2.2-6-1.9-12.4-1-18.4c0.4-2.8,4.1-1.3,6.1,0.4
		c4.6,4.1,9.1,8.4,15.1,13.9c0-5.3,0-9.1,0-12.8c0-1.2,0.1-2.4,1.6-2.6c2.2-0.2,1.8,1.5,1.8,2.8c0,4.4,0.1,8.8,0,13.2
		c0,1.3,0.5,2.9-1.4,3.4c-1.6,0.4-2.6-0.6-3.6-1.5C369.8,554.5,364.5,549.7,358.5,544.1z"/>
	<path class="st3" d="M142.8,544.4c-1.2,6.1,0.4,11.6-2.2,16.7c-2.2-6-2.1-12.3-1.2-18.2c0.5-3.3,4-1.5,5.9,0.2
		c4.8,4.3,9.6,8.6,14.8,13.4c1.4-5.3-0.5-10.4,2.1-15.1c2.1,6,1.8,12.3,1.1,18.3c-0.4,3.2-3.1,0.9-4.6-0.4
		C153.6,554.5,148.5,549.8,142.8,544.4z"/>
	<path class="st4" d="M320.9,560.9c-4.7,0.5-5.7-3-7.7-4.9c-1.9-1.6-3.1-3.6-6.2-3.7c-4.3-0.1-7.3,0.2-6.3,5.7
		c0.2,1,0.3,2.3-2.8,3.5c0-6.7,0-12.8,0-19c0-0.2,0.2-0.4,0.4-0.5c1.8-2.1,20.4-0.5,21.7,2c2.7,5.2-1.3,6.8-5.6,8.6
		C316.5,555.3,318.5,557.8,320.9,560.9z"/>
	<path class="st5" d="M89.1,541.3c10.5,0,15.5,3.3,15.4,9.9c-0.2,6.6-5.3,9.4-15.7,10c-7.1,0.4-10.4-1.4-8.9-8.9
		c0.1-0.4,0-0.9,0-1.4C79.8,541.3,79.8,541.3,89.1,541.3z"/>
	<path class="st6" d="M170.8,560.8c-2.2-5.8-2-11.9-1.2-17.6c0.6-3.9,4.2-1.8,6.3-0.1c4.9,4.3,9.6,8.7,14.9,13.5
		c1.4-5.4-0.6-10.7,2-15.3c2.3,5.9,1.9,12.1,1.2,17.9c-0.5,4-3.6,1-5-0.2c-5.3-4.7-10.4-9.6-16.1-15
		C171.6,550.3,173.5,555.8,170.8,560.8z"/>
	<path class="st5" d="M418.7,556.8c1-6-0.6-10.8,2-15.3c1.9,6.1,1.8,12.4,0.9,18.4c-0.4,2.7-3.4,0.6-4.8-0.7
		c-5.3-4.8-10.4-9.7-16.8-15.8c0,6.8,0,12.2,0,17.5c-0.7,0-1.4,0.1-2,0.1c-1.5-6-1.2-12.4-0.2-18.4c0.5-2.8,4.1-1.1,6.1,0.6
		C408.5,547.5,413.3,551.8,418.7,556.8z"/>
	<path class="st4" d="M552.5,561.1c-1.3-5.9-0.4-11.6-0.6-17.3c-0.1-1.2,0.2-2.5,1.7-2.5c5.8,0.1,11.6,0,17.3,0.6
		c1.8,0.2,3.5,1.8,3.8,4.4c0.4,4.5-4,4.4-6.2,6.7c2,2.5,4,4.9,6.1,7.4c-4.2,1.4-4.9-2.2-6.8-3.9c-1.8-1.6-2.8-4.3-5.9-4.3
		c-3.9,0-8.3-0.8-7,5.6C555,559.1,555,560.4,552.5,561.1z"/>
	<path class="st1" d="M119.6,561.3c-1.9,0.1-5.1-0.4-8-2.2c-4.7-3-5.6-7.4-3.5-12.1c2.3-5.2,7.5-6.1,12.4-6.1
		c5.2-0.1,10.5,0.7,13.2,6C137.6,554.4,131.5,561.3,119.6,561.3z"/>
	<path class="st4" d="M533.6,561.3c-3,0-6.1-0.1-8.7-1.8c-2.4-1.5-4.5-3.2-4.9-6.3c-0.5-4,0.2-7.6,3.8-9.8c5.8-3.5,11.9-3.4,18-0.8
		c3.9,1.7,5.6,4.9,5.6,8.9C547.3,557.4,541.8,561.2,533.6,561.3z"/>
	<path class="st4" d="M252.7,548.9c2.4,2.2,4.4,4.1,6.4,6c1.9,1.7,3.7,3.5,6,5.6c-5.1,1.4-6.4-3.2-9.3-4.7c-2.6-1.4-3.4-6.1-7.7-4.3
		c-3.9,1.6-5.5,4.5-5,8.7c0,0.2-0.6,0.6-1.9,1.6c0-7.2,0-13.7,0-20.6c4,2.4,0.9,6.3,2.5,9.5c6.5-1.8,10.8-8.7,20.1-9.6
		C259.2,544.3,256.1,546.5,252.7,548.9z"/>
	<path class="st7" d="M583.2,550.9c7.2-2.1,11.5-9.1,20.8-9.8c-4.7,3.2-7.9,5.3-11.4,7.7c4.4,4,8.4,7.7,12.9,11.8
		c-6,1.2-7.7-3.6-10.7-6.1c-6.2-5.1-9.8-4.1-11.6,3.9c-0.2,1.1,0.2,2.5-1.6,2.4c-1.6-0.1-1.4-1.6-1.4-2.7c0-4.7,0-9.3,0-14
		c0-1-0.5-2.6,1.2-2.7c2.2-0.1,1.7,1.7,1.7,3C583.2,546.5,583.2,548.5,583.2,550.9z"/>
	<path class="st1" d="M445.4,551.7c-3.7,0-7.3,0.1-11,0c-2.5-0.1-3.7,0.6-3.8,3.5c-0.1,3.1,1.4,3.2,3.8,3.4c4.8,0.3,9.8-1,14.5,0.7
		c0,0.6,0,1.2,0,1.8c-6.3,0-12.6,0-18.8,0c-1.9,0-2.3-1.2-2.3-2.7c0-4.9,0-9.8,0-14.7c0-1.9,1-2.3,2.6-2.3c6,0,11.9,0,17.9,0.6
		c-4.4,2.3-9.2,1.1-13.7,1.3c-2.4,0.1-3.9,0.4-3.9,3.4c0,3.3,2,3.1,4.1,3.1c3.6,0,7.3,0,10.9,0C445.5,550.4,445.5,551,445.4,551.7z"
		/>
	<path class="st4" d="M266.9,560.4c3.5-5.8,6.9-11.6,10.7-17.2c2.2-3.3,4.5-2.3,6.4,0.8c3.3,5.5,6.7,10.9,9.9,17.2
		C284.9,552.9,276.2,553.2,266.9,560.4z"/>
	<path class="st4" d="M225,560.3c-9.3-7.4-17.8-7.4-27,0c3.5-5.7,6.8-11.6,10.6-17.1c2.2-3.3,4.6-2.3,6.4,0.7
		C218.4,549.3,221.7,554.8,225,560.3z"/>
	<path class="st4" d="M350.3,561.5c-8.3-8.6-16.6-8.3-25.8-1.1c3.7-6,7.2-12.2,11.1-18.1c1.3-2,3.8-1.5,5.2,0.6
		c3.7,5.7,7.2,11.5,10.7,17.3C351.1,560.7,350.7,561.1,350.3,561.5z"/>
	<path class="st8" d="M492.3,541.8c4-1.5,5.6,1.6,7.1,3.5c4.2,5.6,7.7,4.8,11.7-0.2c1.5-1.9,3.2-4.9,7.1-3c-1.8,1.7-3.5,3.2-5.1,4.8
		c-3.5,3.3-7.8,6-6.6,11.9c0.2,0.9,0,1.9-1.2,2.1c-1,0.1-1.9-0.5-1.7-1.6C504.9,550.3,496.2,547.8,492.3,541.8z"/>
	<path class="st0" d="M109.1,477c0-7.2,0.2-14.5-0.1-21.7c-0.1-3.8,0.7-5.3,4.9-5.2c13,0.4,26.1,0,39.1,0.5
		c15.2,0.6,23.9,9.5,24.7,24.6c0.9,16-5.8,24.4-21.4,27.2c-14.6,2.7-29.3,0.7-43.9,1.4c-3.7,0.2-3.4-2.1-3.4-4.5
		C109.2,491.9,109.1,484.4,109.1,477z"/>
	<path class="st9" d="M308.3,549.9c-1.6,0-3.3-0.1-4.9,0c-2,0.1-3-0.6-2.8-2.8c0.2-1.9-0.1-3.9,2.7-3.8c3.5,0.1,7,0.2,10.4,0.5
		c1.8,0.2,4.1,0.4,3.9,2.9c-0.1,2.7-2.2,3.2-4.5,3.2C311.5,549.9,309.9,549.9,308.3,549.9z"/>
	<path class="st10" d="M88.9,558.5c-3.1,0.3-7.4,0.7-6-5.6c0.8-3.6-3.5-10.4,5.3-9.5c5.3,0.5,11.9-0.9,12.7,7.2
		C101.5,556.1,98.1,558.3,88.9,558.5z"/>
	<path class="st9" d="M562.3,549.9c-1.6,0-3.2,0-4.8,0c-1.4,0-2.9,0-2.7-2.1c0.1-1.5-0.7-4,1.2-4.2c4.8-0.6,9.6-0.8,14.3,1
		c1.2,0.5,1.7,1.8,1.3,2.8c-0.4,0.9-1.5,2-2.4,2.1c-2.2,0.4-4.6,0.3-6.9,0.4C562.3,549.9,562.3,549.9,562.3,549.9z"/>
	<path class="st11" d="M131.5,551c0,5-4.3,8.4-10.7,8.3c-6.4-0.1-10.8-3.5-10.4-8.5c0.5-6.3,5.2-7.6,10.3-7.8
		C127.1,542.6,131.4,546,131.5,551z"/>
	<path class="st12" d="M533.4,542.9c6.4,0,10.7,3.3,10.6,8.3c-0.2,6.6-5.2,7.6-10.1,8c-6.1,0.5-10.8-3.1-11-7.9
		C522.6,546.3,526.9,542.9,533.4,542.9z"/>
	<path class="st13" d="M286,553.5c-3.7,0-7.1,0-11.5,0c2.1-3.5,3.8-6.4,5.6-9.6C283.2,546.7,284.8,549.9,286,553.5z"/>
	<path class="st14" d="M211.4,542.7c2.1,4.6,4.7,7,5.3,10.8c-3.7,0-7,0-10.6,0C206.7,549.7,209.6,547.3,211.4,542.7z"/>
	<path class="st15" d="M343.9,553.6c-4.2,0-7.6,0-11.8,0c1.9-3.4,3.5-6.3,5.3-9.6C340.5,546.4,341.7,549.7,343.9,553.6z"/>
</g>
</svg>
