<?xml version="1.0" encoding="utf-8"?>
<!-- Generator: Adobe Illustrator 21.1.0, SVG Export Plug-In . SVG Version: 6.00 Build 0)  -->
<svg version="1.1" id="Layer_1" xmlns="http://www.w3.org/2000/svg" xmlns:xlink="http://www.w3.org/1999/xlink" x="0px" y="0px"
	 viewBox="0 0 700 965" style="enable-background:new 0 0 700 965;" xml:space="preserve">
<style type="text/css">
	.st0{fill:#231F20;}
</style>
<g id="Livello_2">
	<g id="Livello_1-2">
		<path class="st0" d="M78.5,424.1c-11.4-8.2-21.5-10.9-42.8-10.9H3V523c7.6,0.1,14.9,0.1,22.4,0.1c19.8,0,26.2-0.4,34-2.1
			c9.1-2,17.5-6.6,24-13.2c10.3-10,16.2-24.5,16.2-40.1C99.6,449.9,91.8,434.1,78.5,424.1z M50,500.1c-5.2,0.9-8.1,1.2-17.5,1.2H24
			v-66.6c2.9-0.1,4.8-0.1,6.2-0.1c18,0,27.9,2.5,36.3,8.9c7.6,5.7,11.5,14.1,11.5,24.5C78.1,484.6,67.5,496.8,50,500.1z"/>
		<path class="st0" d="M446.7,424.1c-11.4-8.2-21.5-10.9-42.8-10.9h-32.7V523c7.6,0.1,14.9,0.1,22.4,0.1c19.8,0,26.2-0.4,34-2.1
			c9.1-2,17.5-6.6,24-13.2c10.4-10,16.2-24.5,16.2-40.1C467.8,449.9,460,434.1,446.7,424.1z M418.3,500.1c-5.2,0.9-8.1,1.2-17.5,1.2
			h-8.5v-66.6c2.9-0.1,4.8-0.1,6.2-0.1c18,0,27.9,2.5,36.3,8.9c7.6,5.7,11.6,14.1,11.6,24.5C446.3,484.6,435.7,496.8,418.3,500.1z"
			/>
		<path class="st0" d="M680.7,420.3c-9.2-5.4-18.3-7-36.7-7h-37.4V523h20.8v-29.4h20.8c17.8,0,28.9-3.4,38-11.8
			c7.9-7.3,11.9-16.9,11.9-28.7C698,439,691.6,426.7,680.7,420.3z M669.2,467.1c-5.1,4-11.9,5.6-21.7,5.6h-20.1v-38.5h18.5
			c10.4,0,15,0.8,20.3,3.4c6.1,2.9,9.9,9,9.9,15.7C676.2,458.8,673.6,463.9,669.2,467.1L669.2,467.1z"/>
		<path class="st0" d="M171.1,411.2c-32.9,0-58.2,24.6-58.2,56.7c0,32.3,25.6,57.3,58.7,57.3s58.2-24.6,58.2-56.8
			S204.2,411.2,171.1,411.2z M171.6,506.9c-21.1,0-38.1-17.5-38.1-39.3c-0.3-20.7,16.2-37.7,36.8-38c0.3,0,0.6,0,0.9,0
			c21.6,0,37.7,16.4,37.7,38.4C209,490,192.4,506.9,171.6,506.9z"/>
		<path class="st0" d="M564.5,413.3v55.5c0,15.8-0.6,19.1-5,25.5c-9,13.1-26.8,16.4-39.9,7.5c-2.9-2-5.5-4.5-7.5-7.5
			c-4.5-6.2-5.4-11.3-5.4-25v-56h-21v56.1c0,20.3,2.1,27.9,11.1,38.3c19.3,21.6,52.5,23.5,74.1,4.1c1.4-1.2,2.7-2.5,3.9-3.9
			c8.6-9.9,10.7-18,10.7-38.4v-56.2H564.5z"/>
		<polygon class="st0" points="326.4,491.7 265.5,413.3 246.9,413.3 246.9,523 267.9,523 267.9,447.2 326.8,523 347.4,523 
			347.4,413.3 326.4,413.3 		"/>
	</g>
</g>
</svg>
