<?xml version="1.0" encoding="utf-8"?>
<!-- Generator: Adobe Illustrator 21.1.0, SVG Export Plug-In . SVG Version: 6.00 Build 0)  -->
<svg version="1.1" id="Layer_1" xmlns="http://www.w3.org/2000/svg" xmlns:xlink="http://www.w3.org/1999/xlink" x="0px" y="0px"
	 viewBox="0 0 900 596" style="enable-background:new 0 0 900 596;" xml:space="preserve">
<style type="text/css">
	.st0{fill:#FEFEFE;}
	.st1{fill:#252122;}
	.st2{fill:#242021;}
	.st3{fill:#262324;}
	.st4{fill:#282425;}
	.st5{fill:#FDFDFD;}
</style>
<g>
	<path class="st0" d="M455.9,599c-110.2,0-220.5,0-330.7,0.1c-5,0-6.1-0.9-6.1-6.1c0.2-195.1,0.2-390.3,0-585.4
		c0-5.9,1.8-6.3,6.7-6.3c220.7,0.1,441.4,0.1,662.1,0c5.3,0,6.5,1,6.5,6.4c-0.2,194.9-0.2,389.8,0,584.7c0,6-1.8,6.7-7,6.7
		C676.8,598.9,566.3,599,455.9,599z"/>
	<path class="st1" d="M247.2,272.5c7.3,0.8,16.8-1.4,26.1,1.5c4.9,1.5,7.4,4.6,8.4,9.3c0.3,1.5,1.8,3.6-0.8,4.3
		c-1.7,0.5-3.8,1.1-5-1.5c-2.9-6-8.2-7.7-14.4-7.7c-10.4,0.1-20.8,0-31.3,0c-2.5,0-4.8,0.1-7.2,1.4c-3.5,2-5.9,4.3-5.4,8.6
		c0.5,4.6,4,6.3,7.7,6.6c8.4,0.6,16.9,0.9,25.3,0.6c7-0.3,13.9,0.1,20.8,0.8c7.1,0.7,11,4.7,11.8,11.8c0.9,8.8-2.5,15.1-9.5,17.1
		c-9.5,2.6-19.2,1-28.9,1.1c-7.9,0.1-15.8,0.9-23.6-1.6c-5.2-1.7-7.6-5.2-8.5-10.1c-0.3-1.5-0.6-3.1,1.2-3.8
		c1.7-0.6,3.8-0.7,4.5,1.3c2.7,8.1,9.3,8.3,16.1,8.3c9.4,0,18.9,0,28.3,0c1.2,0,2.5,0.1,3.7-0.1c5.3-1.2,10.1-3.3,9.9-9.8
		c-0.2-6.4-5.1-8.1-10.2-8.3c-12.9-0.3-25.8,0.1-38.6-0.2c-11.7-0.3-17.2-6.4-16.1-17.3c0.8-7.8,5.2-12.1,13-12.4
		C231.3,272.3,238.3,272.5,247.2,272.5z"/>
	<path class="st2" d="M327.5,272.4c6.4,0,12.9-0.1,19.3,0c10.6,0.3,14.3,3.4,15.7,13.8c1.3,9.4,1.1,18.8-0.2,28.1
		c-1,7.2-5,11.6-12,11.7c-14.9,0.4-29.7,0.4-44.6,0.1c-7.7-0.2-12.2-4.9-13.1-12.6c-1.1-9.6-1.2-19.3,0.1-28.9
		c1.1-8.6,4.9-11.6,14-12.3c0.5,0,1,0,1.5,0C314.7,272.4,321.1,272.4,327.5,272.4z"/>
	<path class="st1" d="M524.7,298.7c0-7.2,0-14.4,0-21.6c0-2.1-0.6-4.8,2.9-4.7c17.3,0.7,34.7-1.9,51.9,1.5
		c9.8,1.9,14.1,10.9,9.5,19.7c-1.5,3-1.7,4.2,0.8,6.5c2.6,2.4,4.2,22.5,2.6,25.2c-1,1.7-2.5,1.2-3.9,1.2c-2-0.1-2.3-1.5-2.3-3.1
		c0-4.5-0.2-8.9,0-13.4c0.3-5.4-2.4-8-7.4-8.1c-14.4-0.3-28.7-0.4-43.1-0.7c-3.1-0.1-3.8,1.5-3.7,4.1c0.2,5.7,0.3,11.4,0.6,17.1
		c0.2,3.3-1.2,4.2-4.4,4.2c-3.1,0-3.7-1.4-3.7-4.1C524.8,314.6,524.7,306.7,524.7,298.7z"/>
	<path class="st3" d="M694.9,326.6c-7.7,0-15.4-0.1-23,0.1c-3.4,0.1-4.8-0.8-4.7-4.5c0.2-15.1,0.1-30.2,0.1-45.3
		c0-1.9-0.5-4.3,2.7-4.1c18.3,0.8,36.6-1.8,54.8,1.6c6.6,1.2,10.1,5.2,10.3,11.7c0.3,8.7,0.6,17.4,0,26c-0.6,9.5-6,14.1-16.3,14.5
		C710.8,326.8,702.9,326.5,694.9,326.6C694.9,326.5,694.9,326.6,694.9,326.6z"/>
	<path class="st1" d="M163.3,326.6c-7.4,0-14.9-0.1-22.3,0.1c-3.6,0.1-5.3-0.7-5.3-4.9c0.2-14.9,0.1-29.8,0.1-44.7
		c0-2.3-0.2-4.6,3.2-4.4c17.6,0.7,35.2-1.6,52.7,1.3c8.7,1.4,11.8,5.3,12,14.1c0.2,6.9,0.1,13.9,0,20.9
		c-0.2,11.6-5.7,17.2-17.4,17.6C178.7,326.8,171,326.6,163.3,326.6z"/>
	<path class="st2" d="M630.2,326.6c-7.2,0-14.4-0.2-21.6,0.1c-3.6,0.1-5.3-0.5-5.2-4.7c0.3-14.9,0.2-29.8,0-44.7
		c0-3.5,0.9-4.7,4.5-4.6c14.9,0.2,29.8,0,44.7,0.1c1.9,0,4.6-1.1,4.8,2.7c0.2,4.3-2.9,3.2-5.1,3.2c-11.9,0.1-23.8,0.3-35.7-0.1
		c-4.6-0.1-5.8,1.1-5.8,5.7c0.2,12-0.1,12,12.1,12c9.4,0,18.9-0.1,28.3,0.1c1.9,0,4.8-1.3,5.1,2.4c0.3,3.9-2.5,3.5-5,3.5
		c-11.4,0-22.8,0.2-34.3-0.1c-4.6-0.1-6.4,0.8-6.3,6c0.2,12.5,0,12.5,12.3,12.5c9.2,0,18.4-0.1,27.6,0.1c2.4,0.1,6.7-2.1,6.6,3.1
		c-0.1,4.6-4,2.6-6.2,2.6C644.1,326.7,637.1,326.6,630.2,326.6z"/>
	<path class="st1" d="M446.4,325.9c1.1-1.4,2.1-2.5,2.8-3.7c7.2-13,14.5-26,21.6-39.2c1.8-3.5,5-5.8,6.7-9.4
		c1.4-2.8,10.8-1.7,12.4,1.3c8.7,16.7,18.5,32.6,28.2,48.7c0.4,0.6,0.3,1.4,0.5,2.2c-5.6,2.1-9,0.3-10.7-5.2
		c-1.6-5.2-5-6.9-10.5-6.6c-9.6,0.5-19.3,0.4-28.9,0.1c-5.3-0.2-9.1,1.5-11,6.5C455.4,325.8,452.1,328,446.4,325.9z"/>
	<path class="st1" d="M407.9,326.5c-7.1-0.9-16.1,1.5-24.9-1.4c-5.7-1.9-8.4-5.6-9.1-11.3c-1.4-12.6,0.4-25.2-0.3-37.9
		c-0.1-2.7,1-3.4,3.5-3.3c2.5,0.1,4.1,0.6,4,3.8c-0.2,10.4-0.1,20.8-0.1,31.3c0,10.1,2.3,12.4,12.1,12.4c10.9,0,21.8,0.1,32.7,0
		c10-0.1,12-2.3,12-12.3c0-10.2,0-20.3,0-30.5c0-2-0.8-4.5,2.9-4.6c3.6-0.1,3.3,2,3.3,4.3c-0.1,11.4,0.2,22.8-0.3,34.2
		c-0.4,10.8-5,15.1-15.8,15.4C422.1,326.7,415.9,326.5,407.9,326.5z"/>
	<path class="st4" d="M746.5,296.5c8.6,0,16.8-0.1,24.9,0c1.7,0,4.4-1,4.5,2.2c0.2,3.3-2.5,2.5-4.3,2.5c-7.7,0.1-15.4,0.3-23-0.1
		c-2.3-0.1-6.5,2.5-6.6-2.9c-0.1-4.5-0.5-9.4,5.4-10.6c3.4-0.7,6.9-0.6,10.3-0.8c3.5-0.2,6.9-0.3,10.4-0.6c2.4-0.2,3.4-1.9,3.4-4.1
		c0-2.4-0.7-5.2-3.3-4.8c-7.3,1.1-15.7-4.3-21.9,3.5c-0.7,0.9-1.9,0.8-2.6,0.1c-0.6-0.6-1-1.8-0.8-2.7c0.7-3.7,3.2-5.4,6.8-5.5
		c6.2-0.1,12.4-0.2,18.6,0c5.6,0.2,7.6,3.9,7.7,8.9c0.1,5-1.6,8.9-7.3,9.3c-4.9,0.3-9.9,0.2-14.8,0.4
		C751.1,291.5,747.7,291.1,746.5,296.5z"/>
	<path class="st0" d="M327.9,278.6c5.7,0,11.4-0.1,17.1,0c7.2,0.2,13.1,4,12,12.2c-0.7,5.8-0.1,11.9-0.2,17.8
		c-0.1,7.8-3.1,10.9-11,11.4c-14.3,0.9-14.3,0.9-14.3-13.6c0-2.7,0-5.4,0-8.2c0-3.4-2.4-3-4.7-3.1c-2.5-0.2-3.6,0.7-3.6,3.3
		c0.1,5.7-0.2,11.4,0.1,17.1c0.2,3.6-1.2,4.8-4.7,4.5c-3.2-0.3-6.4,0.1-9.7-0.1c-7.1-0.4-10.7-4-10.8-11.1c-0.1-6.2-0.1-12.4,0-18.6
		c0.1-8.2,3.3-11.5,11.8-11.7C316,278.5,321.9,278.6,327.9,278.6z"/>
	<path class="st0" d="M555.8,295.3c-5.2,0-8.9,0-12.6,0c-11.7,0-13.3-2.2-11.3-14.1c0.5-3,2.1-2.8,4.1-2.8c12.3,0,24.7,0.1,37,0
		c3.2,0,5.8,1.4,8.2,2.9c4.7,2.9,4.3,9-0.7,11.7C572.1,297.4,563,294.1,555.8,295.3z"/>
	<path class="st0" d="M698.1,278.4c6.5,0,12.9-0.2,19.4,0.1c7.7,0.3,11.4,4.3,11.4,12c0,6.2,0,12.4,0,18.6
		c-0.1,7.1-4.3,12.1-11.5,12.4c-12.9,0.4-25.8,0.1-38.7,0.2c-3.2,0-4.4-1.1-4.4-4.3c0.1-11.7,0.2-23.3,0-35c-0.1-3.5,1.6-4.1,4.5-4
		C685.2,278.5,691.6,278.4,698.1,278.4z"/>
	<path class="st0" d="M166.7,278.4c6.5,0,12.9-0.2,19.4,0.1c8.6,0.4,11.5,3.4,11.8,11.9c0.2,6.2,0.2,12.4,0,18.6
		c-0.4,8.7-3.5,12.2-12.3,12.5c-12.9,0.4-25.8,0-38.7,0.2c-3.4,0-4.1-1.5-4.1-4.5c0.1-11.4,0.2-22.8,0-34.2c-0.1-3.6,1-4.8,4.6-4.6
		C153.8,278.6,160.2,278.4,166.7,278.4z"/>
	<path class="st5" d="M499.4,307.6c-10.8,0-20.4,0-30.1,0c-0.9,0-1.8-0.4-3.1-0.6c3.3-10.8,11.8-18.3,15.6-28.8
		C489.7,286.7,494,296.7,499.4,307.6z"/>
</g>
</svg>
