<?xml version="1.0" encoding="utf-8"?>
<!-- Generator: Adobe Illustrator 21.1.0, SVG Export Plug-In . SVG Version: 6.00 Build 0)  -->
<svg version="1.1" id="Layer_1" xmlns="http://www.w3.org/2000/svg" xmlns:xlink="http://www.w3.org/1999/xlink" x="0px" y="0px"
	 viewBox="0 0 700 965" style="enable-background:new 0 0 700 965;" xml:space="preserve">
<style type="text/css">
	.st0{fill:#FDFDFD;}
	.st1{fill:#F7F7F7;}
	.st2{fill:#F2F2F2;}
	.st3{fill:#E9E9E9;}
	.st4{fill:#F6F6F6;}
	.st5{fill:#ECECEC;}
	.st6{fill:#030303;}
	.st7{fill:#020202;}
	.st8{fill:#F1F1F1;}
	.st9{fill:#F4F4F4;}
	.st10{fill:#EDEDED;}
	.st11{fill:#E4E4E4;}
	.st12{fill:#DEDEDE;}
	.st13{fill:#EBEBEB;}
	.st14{fill:#E0E0E0;}
	.st15{fill:#DFDFDF;}
	.st16{fill:#EFEFEF;}
	.st17{fill:#E8E8E8;}
	.st18{fill:#CDCDCD;}
	.st19{fill:#E5E5E5;}
</style>
<g>
	<path class="st0" d="M2,531.9C2,428,2,324,2,220.1c0-3,0.5-3.8,3.7-3.8c230.4,0.1,460.9,0.1,691.3,0c3.4,0,3.9,0.8,3.9,4
		c-0.1,174.9-0.1,349.7,0,524.6c0,3.2-0.5,4-3.9,4c-230.4-0.1-460.9-0.1-691.3,0c-3.1,0-3.7-0.8-3.7-3.8C2,675.1,2,605.2,2,535.2
		c0.4-0.3-0.2,0,0.2-0.3c3.4-2.1,13.5,1.7,14.4,5.5c0.3,1.5,0.6,2.9,1.3,4.3c2.2,4.3,2.2,4.4-1.9,7.3c-0.5,0.3-0.7,0.7-1.1,1.1
		c4-3.4,6-3.2,8.6,1.1c0.2,0.3,0.1,1,0.5,1c5.8-0.9,7.7,6.4,13.5,6.2c3.1-0.1,2.7,3.2,3,5.3c0.5,3.2-0.2,5.8-3.4,7.5
		c2-0.3,3.2-4.1,5.5-1.5c1.7,1.9,4.3,4.1,3.1,7c-1.7,4.1-5.7,1.6-9.1,2.5c1.2,1.1,2.6,2.7,1.3,3.9c-2.1,2-1.9,6-5.6,6.5
		c-1.1,0.2-2.2,0.1-3.2,0.3c-3,0.5-3.8,2.1-2.6,5c0.2,0.4,0.3,0.8,0.6,1.1c1.8,2.2,2.9,4.5,0.2,6.7c-1.4,1.2-5.5-0.3-7.1-2.4
		c-0.4-0.5-0.5-1.3-0.9-1.8c-0.3-0.4-0.9-0.8-1.4-0.4c-0.7,0.5-0.4,1.2,0.1,1.7c0.7,0.7,1.8,0.7,2.5,1.2c2.4,1.6,5.7,1.7,7.1,4.9
		c0.5,1.1,1.8,1,2.9,0.8c1.4-0.2,2.8,0.2,3.7,1.2c1.2,1.2,2.3,1.2,3.9,1c2.8-0.4,4.3,1.1,4,4c-0.2,2.4-0.5,4.6,2.1,6
		c1,0.6,1.4,2.1,0.8,2.9c-1.8,2.8-2.6,6.1-4.9,8.6c-2.2,2.5-4.8,3-7.5,0.8c-1-0.8-2-1.1-3.7-0.6c3.8,0.9,7.9,1.3,8.5,5.6
		c0.5,3.9-3.1,5.8-5.8,7.7c-1.9,1.3-1.6,1.7-0.3,3.2c1.9,2.3,2,5.9,4.7,7.9c0.7,0.6,1.2,1.6,2.1,1.9c4.8,1.5,7.6,5.6,11.1,8.7
		c2.8,2.4,6,1.1,9,1.7c2.9,0.6,6.2,0,9.1-2.4c2.8-2.4,6.7-1,10.2-0.5c0.4,0.1,0.7,0.3,1,0.5c1,1.9,2.3,2.8,4.5,2.1
		c2-0.6,2.9-1.7,2.8-3.9c-0.1-2,0.9-3.3,2.9-3.8c1.7-0.4,3.3,0.1,4.2,1.7c2.5,3.9,5.3,6.4,10.6,4.6c2.4-0.8,5.4-0.4,7.9,0.8
		c2.6,1.3,4.3,0.5,6-1.6c3.4-4.3,9.6-4.9,13.8-1.2c1.5,1.3,3.2,1.3,4.9,1.8c7.1,2.1,13.5,2.2,19.6-2.7c2.3-1.8,5.2-0.1,7.8-0.2
		c2.4-0.2,5,0.8,7.2-0.8c2-0.5,2.8-1.6,3-3.8c0.3-3.5,1.8-4.3,5.5-3.8c0.4,0.2,0.7,0.5,0.9,0.8c0.5,3.2,3.3,5.1,4.7,7.8
		c2.1,3.7,6,3.9,9.3,3.8c3.8-0.1,7.6-1.1,11.5-0.5c2.1,0.3,4.3,0.2,6.1-1.2c0.7-0.5,1.5-0.6,2.3-0.4c6.3,1.9,13,1.4,19.4,2
		c3.2,0.3,6-1.4,7.5-4.6c0.6-1.2,0.9-2.5,1.4-3.8c2.1-6.1,6.9-9.2,13.4-8.5c0.9,0.1,2.1,0.9,2.3-0.5c0.2-1.5-1.1-1.6-2.2-1.7
		c-0.8-0.1-1.6,0-2.4-0.2c-3-0.6-4.3-2.5-3.5-5.6c1.1-4.4,0.4-6.2-3.3-8.5c-3.4-2.2-6.8-4.4-8.6-8.4c-0.9-1.9-6-3.3-8.3-2.5
		c-1.5,0.5-3.5,0.5-4.5,1.2c-3.8,2.4-7.9,0.3-11.7,1.5c-1.8,0.6-3-0.6-4.2-1.8c-3.8-4.1-4.6-4.1-9.1-0.8c-0.4,0.3-0.9,1-1.3,0.9
		c-4.1-0.9-8.3,1.9-12.4-0.2c-3-1.5-6.4-0.9-9.6-1.2c-4.7-0.4-9.3-6.5-7.4-10.9c1-2.3,2.2-4.7,3.7-6.7c1.7-2.3,3.9-3.3,7.1-2.8
		c-1.4-2-2.5-3.8-3.5-5.6c-1.4-2.5-0.2-5.3,2.5-5.6c2.3-0.2,4.8-0.8,6.7,0.7c-4-2.1-4.7-7.2-8.3-10c-0.6-0.5-0.7-1.8-0.2-2.3
		c2.8-2.6,1.7-6.3,3-9.3c0.1-0.6,0.2-1.1,0.3-1.7c0.4-1.4,0.6-2.9,1.9-4c1.8-1.5,2.6-3,0.5-5.1c-1-1-0.5-2.5,0.6-3.2
		c3.1-1.8,5.6-4.9,9.6-4.8c1,0,1.8-0.4,2.7-0.8c4.5-2,8.6,0.5,7.3,5c-1.6,5.6,2.7,8.4,4.1,12.5c0.4,1.2,1.4,1,2-0.1
		c1.2-1.4,0.8-3.3,1.8-4.8c1.6-2.2,1.1-5,2.1-7.3c1.8-4,4.8-4.6,8.3-1.9c2.9,2.3,3.2,6.1,5.3,8.9c1.2,0.8,1.3,2.6,2.9,2.9
		c2.8-0.6,2.1-2.9,2.2-4.6c0.4-6.9,1.2-7.8,8.2-8.3c1.4-0.1,2.7-0.1,4.1,0c4.3,0.3,5.3,1.3,5.6,5.8c0.1,1.4,0,2.7,0.1,4.1
		c0.2,1.3,0.1,2.9,2.1,2.8c1-0.6,1.9-1.4,2.4-2.4c0.3-0.7,0.4-1.6,0.9-2.2c0.9-1.1,1.7-2.6,3.5-2.3c1.9,0.4,2.9,1.8,3.3,3.6
		c0.3,1.3-0.1,2.7,1.3,3.6c0.4,0.2,0.8,0.5,1.2,0.8c0.8,0.4,1.6,0.3,2.3-0.2c0.7-0.6,1.3-1.3,2.1-1.8c1.9-1.6,2.9-5.1,6.5-3.6
		c2.3,0.9,1.7,4.2,4.2,5c2.4-0.6,2-2.6,2.1-4.3c0.1-3.7-0.1-7.3,0.2-11c0.1-1.5,0.3-3.1,2-3.6c1.8-0.5,2.8,0.8,3.6,2.1
		c2.6,4.3,5.4,8.4,7.8,12.8c0.9,1.5,1.6,3.1,3.2,4.1c2.4,1.2,4,0.7,5.1-1.9c0.7-1.7,2.1-3.1,3.1-4.7c1.8-2.9,4.4-1.6,6.8-0.5
		c1.4,1.6,2.4,3.6,4.1,5c3.1,2.5,6.7,4.1,10.6,3c3.7-1.1,7.3-2.4,11.3-1.5c0.6-0.4,1.1-0.9,1.7-1.2c2.3-1.8,1.7-4.6,2.1-6.8
		c0.9-5.2,1.6-10.4,0.1-15.9c-0.9-3.4-3.5-5-5.3-7.3c-1.1-1.4-3.2,0.3-4.6-0.6c-1-0.6-2.1-0.6-3.1-1.2c-6.1-3.8-12.5-2.4-18.8-0.8
		c-0.8,0.2-1.8,0.4-2.4,0c-3.4-2.6-7.4-0.8-11-1.7c-5-1.1-10.1-1.7-15.1-2.6c-1.9-0.3-3.6-0.8-5.6-0.4c-1.6,0.3-3.3,0.2-4.7-0.7
		c-0.5-0.3-0.9-0.7-1.5-0.7c-9.7,1-19.1-2.6-28.8-2.2c-1.1,0-2.2,0.2-3,1c-2.5,2.7-5.1,2-7.6,0c-1.6-1.3-3.5-2.5-5.1-1.2
		c-4.7,3.9-10.1,2.6-15.2,2.3c-3.7-0.2-7.3-0.4-10.9,0.1c-5.8,0.8-11.3-1.4-16.9-2.1c-3.1-0.4-5.8-0.1-8,1.4
		c-4.5,3.2-9.7,2.6-14.5,2.6c-9.9,0-19.7-2.3-29.6-3.3c-1.1-0.1-2.3-0.5-3.2,0.2c-4.1,2.8-8.6,1.8-13,1.6c-1.5,0-2.4,0.2-3.5,1.1
		c-2.2,1.8-4.6,3-7.3,0.7c-1.2-0.9-2.5-0.7-3.9-0.5c-4.2,0.8-8.4,0.8-12.5-0.4c-2.4-0.7-4.6-0.6-7.1,0.3c-3.3,1.3-6.7,2.3-10.2,0.1
		c-1.1-0.7-2.4-0.6-3.6-0.2c-2.4,0.8-4.7,1-7-0.4c-1.7-1-3.5-0.4-5,0.5c-2.2,1.4-4.6,1.8-7,1.4c-4.1-0.6-8.5-0.5-11.9,0.9
		c-3.5,1.5-7.4,2.9-10.1,6.1c-3.3,3.9-6.2,4.1-10,0.8c-3.2-2.8-7.5-2.8-11.2-4.3C4.2,533.5,3,533,2,531.9z"/>
	<path class="st1" d="M182.3,572c-1.4,3,0.4,5.8,1,8.6c-1.4,0.4-3.1-1.2-3.8,0.4c-0.8,1.8,1.4,1.9,2.2,2.9c0.6,0.9,1.5,1.7,1.8,2.6
		c1.3,3.4,3.6,5.4,7.2,5.7c0.9,0.1,2.1,0.2,2.3,1.4c0.2,1.5-1.1,1.7-2.1,2c-2,0.6-3.9,1.5-5.9-0.6c-1.3-1.4-3.6-0.7-5.5-0.6
		c-1.4,0.1-1.6,1.4-0.8,2.5c1.7,2.4,2.6,5.5,5.8,6.5c1,0.3,2.4,0.7,1.9,2.1c-0.5,1.3-1.9,1.4-3.2,1.1c-0.9-0.2-1.8-0.6-2.7-0.9
		c-1.7-0.5-3.2-0.3-4.6,0.9c-3.1,2.6-4.7,9.9-3,13.5c0.5,1,1.3,2.1,2.4,1.8c3.1-0.9,6.1,1.4,9.2,0.1c0.3-0.1,0.9-0.1,1.2,0.1
		c3.3,2.7,5.8,2.8,7.8-1.6c0.5-1.2,1.9-0.5,1.9,0.6c0.2,5,2.7,2.7,4.3,1.2c4.2-3.8,6.4-3.8,10.5,0.7c1.5,1.6,2.6,3.8,4.5,0.3
		c0.7-1.3,2.7-1.3,3.4,0.2c1.3,2.4,2,1.9,3.8,0.4c2.8-2.4,6.9-1.4,9.9-1c3.5,0.5,8.7-0.3,9.9,5.6c0.3,1.4,2.3,2.8,3.8,3.5
		c4.1,2.1,7.4,4.6,8.2,9.6c0.2,1.3,1.1,2.1-0.6,2.9c-0.7,0.3-1.7,0.6-1.4,1.7c0.3,1.1,1.3,1.3,2.2,1.4c0.8,0.1,1.8,0.2,2.4-0.3
		c3.5-2.7,4.8-1.6,4.5,2.5c0,0.6,0.3,1.3,0.6,1.9c0.4,1,2.6,1.5,1.3,2.9c-1,1.1-2.7,1-4.2,0.6c-8.4-2.5-11.4-0.8-14.1,7.9
		c-1.2,3.9-7.4,7.8-11.6,7.4c-6-0.6-12.3-2.4-18-1.3c-6,1.1-11.8-0.7-17.5,0.9c-3.8,1.1-7.2-0.3-10.7-1c-1.7-0.4-2.2-1.9-2.6-3.4
		c1-1,2.1-1.5,3.5-1.4c3.6,1.3,7.2,1.4,11,0.8c1.7,0,3.1,1.8,5,0.7c1.2-0.4,2.5-0.6,3.3-1.7c0.8-1.1,2-1.7,3.1-2.6
		c1.6-1.4,3.4-1.4,4.4,0.5c0.9,1.7,2.5,1.9,3.8,2.7c5.5,1.2,10.9,0.7,16.4,0.3c-0.1-2-1.2-1.9-2.1-2c-1.8-0.2-3.5-0.1-5.3-0.1
		c-5.9-0.2-7.1-1.6-6.6-7.5c0.3-2.9,1.8-4.3,4.7-4.6c2.6-0.2,5.3,0.3,8.6-0.9c-3-1.4-5.5-0.8-7.9-1c-4.2-0.3-5.5-1.7-5.5-5.9
		c0-4.1,1.1-5.1,5.4-5.4c2.8-0.2,5.7,0.4,8.3-1.6c-5.8-1.5-11.8-0.9-17.7-0.7c-1.2,0.1-2,0.5-2.3,1.9c-0.4,2.1-2.2,2.6-4,2.7
		c-1.8,0.1-2.3-1.2-3-2.6c-1.5-2.8-4.9-4.4-7.3-4.9c-4.5-1-9.9-2.2-13.7,2.3c-2.3,1.5-5.2,2-5.8,5.8c-0.3,1.8-3.3,2.2-5.1,0.5
		c-1.9-1.9-4-3.6-4.7-6.5c-0.2-1-0.4-2.4-1.9-2.2c-1.4,0.2-1.2,1.5-1.4,2.6c-0.2,5.4,0.1,10.9-0.2,16.3c-0.1,1.6,0,3.5-1.9,4.1
		c-2.2,0.7-3.2-1.1-4.1-2.6c-2.7-4.2-5.2-8.6-7.8-12.9c-1.1-1.8-2.3-3.6-4.7-3.1c-2.6,0.5-2.5,2.9-2.6,4.9c-0.1,5.8,0,11.7,0,17.5
		c0,1.3,0,2.7,1.1,3.9c1.8-0.7,1.3-2.2,1.4-3.4c0-3.5-0.1-7.1,0.1-10.6c0.1-1.7,0.4-3.3,2.4-3.8c1.9-0.4,3,0.6,3.9,2.2
		c2.9,4.9,5.8,9.8,8.8,14.6c0.9,1.4,1.6,2.9-0.1,4.4c-2.7-0.3-4.9,2.8-7.8,1.2c-0.8-0.4-1.1,0.5-1.6,0.9c-5.1,3.7-10.1,3.9-16.2,1.6
		c-4.9-1.8-10-4.1-15.5-4.1c-1.8,0-2.6,1.3-3.2,2.8c-1.4,3.4-3.8,4.1-6.9,2.3c-3.3-1.8-7-2.2-10.3-1.1c-5.1,1.8-7.6-0.9-10.2-4.2
		c-0.7-0.9-1.1-2.4-2.6-2c-1.5,0.3-1.6,1.7-1.7,2.9c-0.5,3-2.7,4.6-5.2,5c-2.4,0.4-4-1.3-4.4-3.8c3.6-2.3,4.5-5.7,4.5-9.8
		c-0.1-5.6,1-6.5,6.8-6.7c0.4,0,0.8,0,1.2,0c8.5,0,10.1-0.4,9.9,8.9c0,1.3-0.1,3.2,1.6,3.2c1.7,0,1.6-2,1.6-3.3
		c-0.1-6.6-0.7-13.3-0.9-19.9c0-0.7-0.3-1.3-1.2-1.7c-1.4,1.2-1,2.9-1.2,4.4c-0.3,4.8-0.7,5.3-5.4,5.9c-2.5,0.3-5.1,0.9-7.7,0.7
		c-2.9-0.3-4.4-1.7-4.7-4.6c-0.2-2.1,0.5-4.4-1.2-6.5c-1.7,1.1-1.4,2.8-1.4,4.3c-0.1,6.5,0,13-0.1,19.5c0,2,0.1,4.1-1.8,5.6
		c-2.3,0.4-4.5,1.1-6.8,0.4c-1.3-0.3-2.6-0.1-3.2,1.2c-1.5,3-3.9,2.6-6.6,2.3c-2.9-0.4-5.8-1.5-8.8-0.2c-0.5,0.2-1.7,0.1-1.9-0.2
		c-1.8-3.7-7-3.6-8.5-7.6c-0.1-0.2-0.3-0.6-0.5-0.6c-4.7-0.3-6.6-4.8-10.1-6.7c-2.9-1.6-3.5-2.4-0.7-4.8c-1.2-0.4-1.9-0.7-2.7-0.9
		c-1.4-0.5-2.3-1.5-2-3.1c0.3-1.6,1-3.1,2.8-2.9c2.6,0.2,4-1.4,5.5-3c0.9-0.9,1.7-1.9,0.9-3.2c-0.7-1.3-1.5-2.7-3.3-2.5
		c-0.3,0-0.5,0.1-0.8,0.1c-7.4-0.3-7.5-0.4-3.9-8c1.8,4.2,4.7,2.5,7.4,1.4c1.1,1.4-1.7,2.9,0.3,4.1c0.8,0.5,1.6,0,2.3-0.5
		c1.4-1.1,3.2-1.9,2.4-4.2c-0.7-1.8-0.3-2.8,1.7-3.2c2-0.4,2.6-1.9,1.1-3.2c-2.1-1.8-2.3-3.8-2.1-6.2c0.2-2.2-0.4-3.6-3-2.7
		c-1.4,0.5-2.3-0.1-3.3-0.9c-1.3-1-2.5-1.4-4-0.1c-1.8,1.5-3.4,0.3-3.8-1.3c-1.5-5.3-5.6-6.1-10.1-6.3c-2.6-0.1-3.8-0.6-2-3.2
		c0.4-0.5,0.5-1.3,0.6-1.9c0.2-1.2-0.5-3.1,1.7-2.9c1.9,0.2,4.3,0.1,4.9,2.8c0.2,0.9,0.3,1.9,0.7,2.7c0.8,1.6,2.4,2.6,4,1.5
		c1.7-1.1,0.3-2.3-0.4-3.4c-0.7-1.1-1.5-2.3-2.1-3.5c-1.4-3.3,0.9-6.6,4.4-6.5c2.8,0.1,5.5,0.3,6.3-3.4c0.2-0.9,1.4-1.6,2.3-2.5
		c-1.5-0.9-3-1.7-4.4-2.6c-0.8-0.5-1.6-1.2-1.2-2.3c0.5-1.3,1.8-1.4,2.7-0.9c2.3,1.1,4.8,0.5,7.2,1.1c1,0.3,2.3,0.4,3-0.6
		c0.9-1.2-0.4-1.9-0.9-2.8c-1-2.2-1.9-4.4-4.8-1.7c-1,0.9-2.7,0.5-3.6-0.8c-1-1.3-1.6-2.9-1.3-4.6c0-0.3,0.5-0.7,0.8-0.7
		c0.9,0,1.3,0.8,1.7,1.5c0.4,0.8,0.4,2.1,1.8,1.8c1.1-0.3,1-1.5,1.2-2.4c1-5.3-0.8-7.4-5.9-6.5c-1.9,0.3-2.8-0.2-3.3-1.9
		c-0.5-2-1.4-3.6-3.6-3.9c-0.9-0.1-2.4-0.9-2,1.2c0.2,0.9,1,2-0.6,2.2c-0.8,0.1-1.8-0.6-2.5-1.1c-1-0.8-0.5-1.7,0.1-2.5
		c1.8-2.2,0.6-3.5-1.6-4.2c-1.1-0.4-2.2-0.2-2.9,0.8c-0.8,1.1,0.1,1.7,0.8,2.4c0.6,0.5,1.4,1.1,0.6,2c-0.7,0.7-1.5,0.3-2.2-0.1
		c-2.5-1.4-3.1-5-0.7-6.9c2.2-1.8,1.7-3,1.1-5.6c-1.3-5.7-4.7-8-9.9-8.7c-1.5-0.2-2.3-2.6-4.3-1.6c0-1.1,0-2.2,0-3.3
		c5.1-0.8,10.1,1.3,13.7,3.7c5.7,3.9,8.8,3.1,11.8-2.4c0.5-0.9,1.6-0.9,2.6-0.8c0.8,0.1,2,0,2.2-0.7c0.9-3.8,2.7-5.1,6.2-2.6
		c6.4-2.7,14,1.6,20.1-3.3c1.3-1.1,3.4-2.1,4.5,1c0.5,1.5,2,1,3.1,0.4c2.6-1.3,4.9-1.1,7.2,0.6c1.2,0.9,2.6,0.9,3.9,0.4
		c6.4-2.3,12.8-0.8,19.3-0.7c1.4,0,2.7,0.2,4-0.3c2.5-1,4.9-2.9,6.6,1.2c0.5,1.2,1.9,0.3,2.9-0.2c0.9-0.5,1.6-1.1,0.9-2.2
		c-0.6-1-1.5-2.3,0-3.2c1.4-0.8,2.6,0.1,3.6,1c3.5,3.1,9,2.9,12.5-0.4c0.4-0.3,1-0.8,1.3-0.7c3,0.9,6,2.6,9.2,0.5
		c4.1,3.5,9.5,1.2,14,3.1c4.3,1.7,9.2,0.1,13.7,0.6c5.6,0.5,10.1-2.7,15.1-3.4c4-0.6,8.1,0,12,1.1c4.2,1.1,8.3,1.4,12.4-0.1
		c1.2-0.4,2.3-0.3,3.5-0.1c6,0.9,12,3,17.7-1.6c2.4-1.9,5.2-0.9,7.2,1.4c1.8,2,3.5,2.3,5.5,0.3c2.6-2.7,5.9-1.1,8.9-1.2
		c2.4-0.1,4.8,0.4,7.3,0.7c1.9,0.2,4,1.4,4.4-2.1c0.2-1.4,1.4-0.6,2,0.3c3.1,4.8,3.2,4.8,8.2,1.9c1.6-0.9,2.6-0.3,3.4,0.9
		c1,1.3,2.2,2.5,3.7,1.8c6.2-2.5,11.5,2,17.5,2c2.8,0,5.8,1.1,8.7,0.6c2.4-0.3,4.5-0.8,6.2,1.5c0.5,0.7,1.6,0.9,2.2,0.3
		c3.6-2.9,7.6-1,11.5-0.9c0.7-0.6,0.2-1.2,0-1.8c-0.4-1.1-0.5-2.2,0.8-2.7c1.4-0.5,2.6,0.1,3,1.4c1.7,5.3,5.8,6,10.6,7.1
		c2.5,0.6,7.6,1.4,7.5,6.5c0,0.1,0,0.3,0.1,0.4c2.4,3.7,2.9,6.4,1.7,10.6c-1.2,3.9-1.9,7.9-2.2,12c-0.1,1.5-0.5,2.9-1.5,4.1
		c-2.4-3.1-1.4-6.9-2.4-10.4c-0.7-2.6-0.8-5.3-2.6-7.5c-1.2-1.5-0.1-2.8,0.3-4.2c0.2-0.7,0.7-1.3,0.7-2c0.5-3.4-2.3-3.5-4.3-4.5
		c-5.4-1.7-10.7-2.1-15.7,1c-1.3,0.9-2.5,2-3.4,3.3c-0.9,1-1.6,2.1-2,3.3c-1.4,1.5-2.9,3.1-5.2,2.2c-2.3-0.9-2.2-3.4-2.3-5.3
		c-0.1-2.1-0.6-3.7-2.5-4.7c-1.2-0.7-2.3-0.5-3.2,0.5c-0.6,0.7-0.9,1.6-1.5,2.3c-3.6,3.9-3.6,3.9-8.1,1.3c-0.6-0.3-1.3-0.3-1.9-0.5
		c-0.4-0.2-0.7-0.4-0.9-0.7c-3.2-3.5-6.7-5.8-11.7-3.9c-2.4,0.8-4.2,0.2-6.1-1.6c-2.8-2.7-6-2.1-8,1.1c-1.8,3-4.1,1.4-6.4,0.7
		c-0.4-0.1-0.8-0.2-1.1-0.3c-0.4-0.1-0.8-0.2-1.1-0.4c-1.7-2.1-3.3-2.2-5.2-0.1c-4.8,5.2-5.4,5.2-11.5,1.2c-0.5-0.3-1-0.4-1.5-0.6
		c-0.4-0.1-0.8-0.2-1.1-0.3c-0.4-0.2-0.7-0.4-0.9-0.8c-0.8-1.5-2.7-2-3.7-1.3c-3.2,2.2-6.5,1-9.5,0.4c-5.9-1.3-11.7-0.5-17.6-0.4
		c-2.7,0-5.4,0.5-7.7,2.2c-0.9,0.7-1.9,0.9-3.1,0.8c-0.4,0.1-0.8,0.1-1.2,0.1c-2.3-0.3-4.3-1.6-6.4,1.6c-1,1.6-4.2,4.7-7.8,3.3
		c-0.9-0.7-1.7-1.4-2.7-1.8c-0.4-0.4-0.6-0.8-0.8-1.2c-0.2-0.2-0.3-0.4-0.5-0.6c-0.5-0.4-0.9-0.9-1.1-1.4c-0.6-2.4-1.5-3.9-4.1-1.8
		c-4.3,3.5-9,1.9-13.4,0.3c-5.3-2-10.5-0.1-15.7-0.4c-0.8,0-1.2,1-1.7,1.6c-0.3,0.3-0.6,0.5-1,0.7c-1.6,0.9-3.2,1.4-4.5-0.3
		c-1-1.2-2.1-0.7-3.2-0.6c-0.6,0-1.1,0-1.7,0c-3.1-0.8-6.4-0.6-9.3-2.3c-0.5-0.3-1.2-0.4-1.5-0.1c-3,2.5-6.8,1-10,2.2
		c-1.5,0.2-3,0.2-4.4,0.9c-1.2,0-2.1-0.8-3.2-1.2c-3.7-1.9-5.8,1-8.1,2.8c-1.5,1.1,1,2.3,0.8,3.6c-0.1,1.2-0.7,1.9-1.8,2.2
		c-4.5,1.8-6.2-2.7-9.2-4.1c-0.9-0.6-1.8-1.2-2.7-1.7c-0.5-0.1-0.9-0.3-1.4-0.5c-1.7-0.9-3.4-0.1-5.1,0c-3.7-0.5-7.5-0.5-11.1-1.4
		c-2.7-0.7-5.3-0.7-8,0c-3.1,0.8-6.1,0.8-9.1-0.2c-0.3-0.3-0.6-0.7-0.9-1c0.3,0.3,0.5,0.6,0.7,1c2.9,8.3,0.8,17.2,3,25.5
		c0.3,1.2,0.2,2.4,0.6,3.6c0.2,0.5,0.4,1,0.9,1.4c2.1,1.6,14.7,1.8,16.9,0.2c0.2-0.1,0.1-0.5-0.1-0.8c-2.3-2-4.5-3.7-8-2.5
		c-1.9,0.7-4.3,0.3-5-2.3c-0.7-2.5,1-3.7,3-4.5c2.9-1.1,6-1.5,8.8-2.8c0.7-0.2,1.4-0.5,1.9-1c1.9-1.6,1.4-3.3,0.3-5
		c-1.2-2.1-1.7-4.3,0.6-5.7c2.4-1.4,4.5-0.6,6,2c1.1,2,2.6,3.8,2.6,6.2c0,1.4,0.7,2.6,1.5,3.7c1.6,2.5,3.3,5,3.8,8
		c0.4,2.2,2,3.4,3.8,4.4c2.9,1.9,4.7,0.6,6.1-2.1c0.9-1.8,1.5-3.7,2.4-5.6c0.8-1.7,1.9-3,3.8-3.2c0.8-0.1,1.5-0.5,2-1.2
		c0.9-1.4,2-2.6,3.9-2.1c2,0.5,2.5,2.2,2.9,3.9c0.3,1.2,0.5,2.4,0.8,3.5c0.9,2.6,1.9,5.2,3.3,7.7c5,2.7,10.5,1.7,15.8,2.4
		c1.7,0.2,2.5-1.4,3.1-2.8c0.5-1.4,1.1-2.7,1.9-4c1.4-2.4,3.8-2.6,5.5-0.3c1.1,1.4,2.2,2.7,3.6,3.7c1.8,0.5,2.2-0.6,2.2-2
		c0-1.6,0.3-3.3,0.2-4.9c-0.2-2.2,0.2-4.2,2.4-5c2.2-0.8,4.5-0.8,6.5,0.9c3.2,2.6,5.4,6,8,9.2c0.9,1.1,2.3,3.2,3.2-0.2
		c0.5-2.6,1.2-5-2.1-6.4c-1-0.4-1.1-1.9-0.2-2.8c1.9-1.9,3.7-3.9,6.2-5.2c1.8-0.9,3.4-0.5,5.3,0.6c5,2.9,5.8,8.3,7.9,12.9
		c0.4,0.8,0.4,1.9,0.9,2.7c0.2,0.2,0.5,0.5,0.7,0.7C180.1,569.8,181.7,570.3,182.3,572z"/>
	<path d="M359.8,421c-1.8,2.7-4.3,3.6-7.6,3.5c-6.6-0.2-13.2-0.2-19.8,0c-3.1,0.1-5.1-0.9-6.6-3.4c-6.3-7.6-8.9-17.1-12.7-25.9
		c-7.8-18.3-15.3-36.8-22.9-55.3c-1-2.4-1.5-5.1-3.3-7.5c-1.1,1.8-0.7,3.5-0.7,5c0,24-0.1,48,0,72c0,4.3-1.2,8.3-1.7,12.4
		c-0.1,1.2-1.1,1.8-1.9,2.5c-9.9,1-19.9,0.3-29.8,0.6c-1.7,0-2.5-1.4-3.6-2.3c-1.2-4.5-2.1-9-2.1-13.6c0-19.3,0.2-38.6-0.1-57.9
		c-0.2-13.3-0.3-26.6-0.2-39.8c0-11.1-0.5-22.2,0.1-33.3c0.4-7.4,0.5-14.9-0.1-22.4c-0.4-4.7,2.5-8.3,7.3-8.5
		c7.6-0.3,15.2-0.3,22.8,0c3.5,0.2,7-0.4,10.5,0.1c2.6,0.4,4.3,1.3,5.7,3.9c5.4,10.4,9.2,21.4,13.7,32.2
		c8.9,21.6,17.8,43.2,26.5,64.9c2.2,5.4,4.4,10.8,6.7,16.2c0.6,1.3,0.9,3.2,2.7,3.2c1.8,0,2.3-1.8,2.8-3.1c3.6-9.1,7.3-18.1,11-27.2
		c11.2-27.6,21.9-55.3,33.2-82.8c3.2-7.9,5.2-7.9,12.9-8.1c9.1-0.2,18.2-0.4,27.3,0c5.2,0.2,8.7,3.6,8.5,8.9
		c-0.3,10.4-0.8,20.9-0.4,31.3c1.4,38.2,0.5,76.3,0.7,114.5c0,6.1-0.9,12.2-1.4,18.2c-0.2,2.3-1.2,3.8-3.1,4.9
		c-3.8,0-7.6,0.1-11.4,0.1c-3.3,1.2-6.7,1.5-10.1,0.6c-0.8-0.2-1.6-0.2-2.4-0.1c-8,1.2-9.9-2.4-11.3-9.1c-0.4-1.7-0.1-3.5-0.1-5.3
		c0-24.4,0-48.9,0-73.3c0-1.6,0.1-3.2-0.3-5.2c-1.4,1-1.7,2.3-2.1,3.5c-9.9,24.1-19.6,48.3-29.2,72.5
		C365.2,412.6,363.3,417.3,359.8,421z"/>
	<path d="M154.4,350c-13.3,0.9-26.6,0.3-39.9,0.6c-2.4,0.1-4.9,0.1-7.3,0.2c-6.4,0.6-12.8,1.1-19.3,0.8c-3.4-0.2-6.6,0.6-9.9,1.1
		c-1.4,0.2-2.2,1.4-2.5,2.8c-1,4.7-1.1,9.4-0.7,14.1c0.5,5.4,0.8,10.8,1,16.1c0.2,6.1,1.9,7.9,8.2,8c16.8,0.1,33.5,0,50.3-0.8
		c4.8-0.2,9.3,1.3,14.1,1.2c1.3,0,2.7,0.1,4,0c8.4-0.5,11.3,2.3,10.8,10.8c-0.3,5.2-1,10.4-1,15.6c0,1.4-0.3,2.7-1.5,3.6
		c-1.3,1.1-2.9,1.2-4.6,1.2c-37,0.2-74,0.4-111,0.7c-2.6,0-4.8-0.3-6.4-2.6c-0.7-9.5-3.4-18.8-1.3-28.5c0.7-3.4-0.4-7.4-0.1-11.2
		c0.7-8.4-0.1-16.9,0.4-25.4c0.3-5.7-0.8-11.7-0.9-17.5c-0.3-11.3-0.1-22.5-0.1-33.8c0-2.6,1.1-4.9,0.9-7.6
		c-0.9-10.5-0.5-21.1-0.9-31.6c-0.1-3.7-0.1-7.3,0-11c0.2-5.3,2.3-7.2,7.8-8.1c6.2-1,12.4-0.8,18.6-0.8c25-0.2,50-0.1,75,0
		c5.9,0,11.7,0.1,17.6,0.5c3.8,0.3,5.5,2.3,6.4,5.5c0.8,2.9,1,6,0.7,8.9c-0.5,4.7-0.7,9.4-1.1,14.1c-0.2,2.7-2,3.8-4.5,3.7
		c-10.4-0.4-20.8-0.3-31.2,0.1c-11.1,0.4-22.3-0.4-33.3,1.2c-3.1,0.5-6.3,0.4-9.5,0.6c-8.5,0.5-9.5,5-8.6,12.6c0.5,4.5,1,8.9,1,13.4
		c0,7,2.1,9.3,9.2,9.4c14.5,0.1,29.1-0.1,43.6,0.1c7.7,0.1,15.5-0.2,23.1,1.1c4.6,0.8,4.9,2.3,6.1,6.9c1.8,6.7-0.8,13.1-0.2,19.6
		C157.5,347.9,156.2,349.1,154.4,350z"/>
	<path d="M657.6,274.2c3.7,6.9,7.3,13.8,8.5,21.7c0.6,4-0.3,5.3-4.2,5.4c-8.5,0.1-17,0-25.5,0.1c-2.5,0.1-4-1.3-5.5-2.8
		c-1.5-1.3-3-2.8-3.7-4.6c-3-7.7-9.6-10.7-16.6-13c-15.3-4.9-30.1-2.8-43.9,4.7c-4.6,2.5-9.1,6.3-10.8,11.9c-0.2,0.5,0.2,0-0.2,0.3
		c-4.3,3.5-4,9.2-6.3,13.6c-1.4,2.6-0.2,6-1.4,8.6c-2.7,6.1-1.8,12.5-1.5,18.6c0.3,8.1,1.7,16.2,4.1,24
		c7.2,23.6,24.5,31.1,41.6,31.7c7.8,0.3,15.4-0.9,22.6-4.3c6.8-3.3,10.9-8.9,14-15.2c3.2-6.4,4.3-7.3,11.6-6.4
		c0.8,0.1,1.6,0.2,2.4-0.1c6.5-2.2,13.1-1.3,19.7-0.5c4.2,0.5,4.9,2.4,5.1,6.5c0.3,6.3-2.1,11.8-4.7,17c-1.5,3-3.3,6.4-6.6,8.3
		c-8.7,12.3-20.7,19.8-35,23.7c-19,5.2-38.2,5.1-56.9-1.1c-25.2-8.3-41.8-25.7-49.5-50.9c-8.6-28.2-7.4-56.2,5.1-83.3
		c0.1-0.2,0.1-0.5,0.2-0.8c5.3-11,12.5-20.4,22.9-27l-0.1,0c0.9-2,2.4-3.1,4.5-4c3.7-1.4,7.2-3.3,11-4.3c0.2,0.1,0.4,0,0.6-0.2
		c6.9-3.7,14.3-5.5,22-5.6c12-0.9,23.9-0.9,35.7,1.7c8.9,0.8,16.7,4.3,23.9,9.5c0.8,0.3,1.6,0.7,2.3,1
		C649.2,262.5,653.6,268.2,657.6,274.2z"/>
	<path class="st2" d="M434.2,424.3c1.7-1.7,2.4-3.6,2.4-6.2c-0.2-53.8-0.4-107.6-0.3-161.4c0-8.1-2.2-8.6-8.6-8.5
		c-9.4,0.1-18.8,0-28.1-0.1c-3.7-0.1-5.7,1.6-7,4.9c-15.6,38.8-31.2,77.5-46.8,116.3c-0.3,0.8-0.6,1.5-1,2.3c-0.4,1-0.7,2.2-2.1,2.2
		c-1.4,0-1.6-1.3-2-2.3c-2.5-5.7-4.9-11.5-7.3-17.3c-12.3-30.2-24.5-60.3-36.8-90.5c-1.5-3.6-3-7.3-4.5-10.9c-1.1-2.6-2.8-4-5.9-3.9
		c-10.6,0.2-21.2,0.1-31.8,0.1c-3.9,0-5.6,1.8-5.6,5.8c0.1,54.6,0.2,109.2,0.3,163.9c0,1.4,0.1,2.7,0.2,4.1
		c-1.3-0.8-1.6-2.1-1.7-3.5c-0.3-2.4-1.6-4.4-3.4-5.8c-2.2-1.8-4-1.7-4,1.8c-5.1-1.3-5.5-6.9-9.1-9.7c-1.8-1.4,0.4-2.1,1.6-2.5
		c1.4-0.5,3.1-0.7,3.4-2.5c0.4-2-1.1-2.8-2.7-3.6c-1-0.5-1.9-1.4-1.4-2.6c0.5-1.2,1.6-0.6,2.5-0.6c1.6,0.1,4.2,1.3,4.2-1.4
		c0-2.1-2.7-1.6-4.4-1.8c-0.5-0.1-1,0.2-1.6,0.4c-0.9,0.2-2,0.7-2.4-0.6c-0.4-1.2,0.8-1.5,1.6-1.9c1.3-0.6,3.4-1.1,2.4-2.9
		c-1.1-2-2.8-0.7-4.2,0.3c-0.7,0.5-1.4,1.7-2.4,0.5c-0.7-0.8-0.1-1.9,0.4-2.6c0.6-0.7,1.3-1.4,2-2c3.3-2.5,3.4-4.8,0.1-7.3
		c-0.7-0.5-1.4-0.9-1.1-1.9c0.4-1.2,1.5-1.1,2.4-0.8c3,0.9,4.3,3.5,6.1,5.7c-0.2-3.7-1.7-6.9-3.2-10.1c-0.4-0.9-2.7-1.1-1.4-2.8
		c1.1-1.3,2.4-2.2,4.3-1.2c0.3,0.2,0.8,0.2,2.4,0.5c-2.7-3.1-3.4-6.5-6.7-7.8c-3.9-1.6-4.7-2.9-2.9-6.6c0.8-1.7,1-3.4,1.1-5.1
		c0.1-1,0.3-1.9,1.3-2.4c2.3-1.1,3.2-2.1,0.3-3.6c-0.9-0.5-1.2-1.5-0.8-2.5c0.3-0.8,0.9-0.9,1.7-0.7c0.8,0.1,1.9,1,2.4-0.5
		c0.3-0.8-0.2-1.6-0.8-2.2c-0.8-0.9-1.8-1.3-2.9-0.7c-1.1,0.5-2,1.4-3.2,1.8c-1,0.4-2.3,1-3,0c-1-1.5,0.2-3,0.9-4.1
		c2.8-4.6,2.4-5.5-3.5-6.4c-0.2-1.2,0.8-1.3,1.5-1.4c3.1-0.5,2.9-1.8,1-3.7c-0.6-0.5-1.4-1.2-0.9-2.1c0.7-1.1,1.7-0.3,2.5,0
		c1.3,0.4,2.9,1.4,3.7,0c0.9-1.5-1-2.3-1.8-3.2c-0.9-1-1.8-2-2-3.5c-0.5-2.7-0.3-4.7,3.4-4c1,0.2,2.3,0.7,2.8-0.8
		c0.4-1.1,0.4-2.2-0.9-2.8c-0.7-0.3-1.9-0.2-1.3-1.5c0.4-0.9,1.5-1.2,2.5-1c0.8,0.2,1.4,0.8,2.2,1.1c1.3,0.5,2-0.5,2.7-1.3
		c0.3-0.4,0.6-1.1,0.4-1.5c-0.7-1.3-1.6,0-2.4-0.1c-2.7-0.4-6.4,0.5-5.9-4.3c0-0.5-0.2-1.2-0.6-1.4c-4-2.2-1.4-3.8,0.4-5.5
		c1.5-1.5,2.9-3.2,4.4-4.7c0.8-0.8,0.8-1.5-0.1-2c-2.9-1.8-2.8-3.7,0.2-5.6c-1.9-1.4-2.7,0.2-3.8,0.7c-1.1,0.6-2.2,1.2-3.4,0.3
		c-1-0.8-0.7-1.9-0.4-3c0.9-2.7,1.6-5.1-2.7-5.9c-1.2-0.2-2.2-4.1-2.3-6.3c-0.1-2.3,2.2-1.1,3.6-1.2c1.9-0.1,2-1,1-2.4
		c-0.8-1-1.1-2.1,0.4-2.6c1.3-0.5,2,0.4,2.4,1.6c0.6,2.5,2.7,3.8,4.7,6c0.4-2.8-0.6-5-0.9-7c-0.4-3.7,2.8-5.4,2.8-8.6
		c0-1.3,2-0.8,3.5,1.4c1,1.5,1.5,3.3,3.8,3.1c3.3-0.2,4.2-1.9,3-5.8c2.6,0.5,4.7,0.3,7-1.5c1.8-1.5,5.2-0.9,7.6,0.2
		c1.9,0.9,3.5,1.2,5.4,0.7c0.4-0.1,0.8-0.3,1.2-0.2c7.3,1.3,14.8,1.1,22,2.9c1.2,0.3,2.5,0.8,3,2c1.2,3.2,3.9-0.9,5.1,1.1
		c1.2,2-2.1,3.5-0.8,5.6c0.4,0.6,0.9,1,1.7,1c0.8-0.1,1.2-0.6,1.3-1.3c0.1-1.2,0.5-2.1,1.6-2.6c0.8-0.4,1.6-1.2,2.6-0.5
		c0.7,0.6,0.7,1.6,0.3,2.3c-1.4,2.8-0.8,4.5,2.5,5.4c1.5,0.4,2.1,1.3,1.4,3.4c-1.1,3.3,0.5,5.5,3.5,8c3.2,2.7,6.1,4.8,10.1,5.5
		c0.3,0.1,0.7,0.6,0.7,0.9c-0.4,3.7,1.7,2.9,3.8,2c1-0.4,2.1-1,3.1-0.2c1.3,1-0.2,1.9-0.4,2.8c-1,5.6-4.1,9.3-9.7,10.9
		c-1.2,0.3-2.4,1.3-1.6,2.7c0.6,1.2,1.9,0.7,2.9,0.3c1.8-0.7,3.6-1.3,5.3-2c2.2-1,10.9,1.9,11.8,4.1c0.8,1.9,0,3-2,2.8
		c-2-0.3-3.9-1-5.9-1.3c-1.8-0.3-2.5,0.3-1.9,2.3c1.2,3.7,4.1,4.9,8,3.9c2.5-0.7,5.5,0.1,5.5-4c0-0.7,1.4-0.5,2.2-0.2
		c2.3,0.8,4.5,1.7,6.4,3.6c1.1-2.1-0.2-2.8-1.1-3.7c-0.5-0.5-1.7-0.9-1.2-1.8c0.3-0.6,1.3-0.8,2.1-1c0.8-0.2,1.9-0.4,2.4,0
		c3.8,3.6,7.6-0.3,11.4,0.1c0.8,0.1,1.7-0.6,1.6-1.5c-0.1-1.1-1-0.9-1.9-1c-1.3-0.1-2.7-0.1-4-0.3c-2-0.4-3.8-1.3-4.2-3.4
		c-0.5-2.4,1.8-3.5,3.2-4.8c1-1,2.6-1,3.3,0.8c0.3,0.9,0.1,2.1,1.6,1.8c1-0.2,1.9-0.8,2-1.8c0.5-3.6,2.3-3.5,4.8-1.9
		c0.7,0.4,1.5,1.1,2.1,0c0.5-0.9-0.2-1.6-0.9-2c-2.3-1.3-1.8-2.1,0.2-3.2c2.9-1.6,0.9-3.1-0.3-4.5c-1-1-2-3.8-3.5-0.4
		c-0.4,1-1.2,0.9-2,0.4c-1-0.8-1.7-1.8-1.6-3.1c0.1-1.1,0.8-1.8,1.9-1.7c1.9,0.1,3.7,0.6,5.5,1.4c1.5,0.7,2.9,0.6,4.2-0.6
		c1.3-1.2,1.2-2.7,0.4-4.1c-1.3-2.4-0.5-4,1.7-5.4c1.7-1.1,3.4-2.5,2.1-5c-0.3-0.6-0.4-1.4,0.2-1.9c7.3-5.6,13.5-13.2,24.5-11.4
		c3.1,0.5,6.5-0.4,9.6-1.2c3.1-0.8,6.1-0.9,9.1,0.1c2.9,1,5.8,1.3,8.7-0.2c0.6-0.3,1.5-0.6,2-0.3c3.4,1.7,7.3,1.6,10.9,2.6
		c0.9,0.2,2.1,0.5,2,1.7c-0.2,1.2-1.5,0.9-2.4,1c-0.5,0.1-1.1,0-1.6,0.2c-1.6,0.5-4.3-1.1-4.6,0.9c-0.2,1.2,2.3,3.1,4,4.1
		c1.5,0.9,3.6,2.1,5.2,0.1c2.1-2.7,2.6-1.9,3.4,0.9c0.6,2,2,3.6,2.3,5.9c0.3,2.1,2.1,3.2,4.3,1.6c0.8-0.6,1.4-1.2,2.5-1.2
		c0.9,0.1,1.7,0.3,1.9,1.2c0.3,1-0.4,1.5-1.3,1.7c-2.4,0.5-4.7,2.1-7.4,0.6c-1.3-0.7-3.5-1.8-4.5-0.4c-1.4,1.9,0.3,2.5,2.1,2.4
		c0.7,0,1.3-0.4,2.2,0.4c-2.6,3.3-0.1,5.3,2.2,7.2c3.2,2.5,6.5,1.2,9.6-0.1c1.2-0.5,2.1-1.7,3.7-1.2c1.6,0.6,4,1,3.9,3
		c-0.1,2-2.4,1.1-3.7,1.4c-3.7,0.8-7.1,1.9-9.1,5.8c-1.6-6.4-8.7-5-12-10.3c-0.1,3.5,1.9,4.5,2.6,6.1c0.4,0.8,1.4,1.5,0.4,2.5
		c-0.7,0.7-1.5,0.4-2.3,0.2c-1.1-0.3-2.3-2.1-3.1-0.6c-0.8,1.6,1.1,2.5,2.3,3.4c1.3,1,2.8,0.9,4.3,0.7c0.7-0.1,1.5,0,1.6,0.9
		c0.2,0.9-0.6,1.1-1.3,1.2c-1.2,0.3-2.7,0.5-2,2.3c0.5,1.4,1.8,2.3,3.2,1.9c2.2-0.6,4.2-0.4,6.3,0.3c2,0.6,2.3-1.2,2.9-2.6
		c1.2-2.7,4-5.3,6.2-3.1c2.5,2.6,3.7,6.7,6.3,9.7c0.7,0.8-0.4,2-1.8,1.9c-0.8,0-1.6-0.1-2.4-0.2c-6.3-0.3-6.3-0.3-6.7,6
		c-0.1,1.8-1.3,2.2-2.6,2.7c-1,0.4-2.2,0.7-3.1-0.2c-1.2-1.2-0.2-2.2,0.5-3.2c1.9-3,0.4-4.7-3.2-6.4c2.1,4.8-0.5,6.1-3.8,7.1
		c-0.9,0.3-2.1,0.4-2.3,1.5c-0.2,1.3,1.1,1.8,2,2.3c4.6,2.5,8.1,7,13.8,7.8c1.9,0.3,3.4,0.7,2.8-2c-0.2-0.8-0.6-1.7,0.4-2.1
		c1.2-0.4,2.3,0.4,2.6,1.4c0.6,1.6,1.2,2.9,2.9,3.7c0.7,0.3,1.3,1.2,0.8,2.1c-0.5,0.9-1.5,0.6-2.1,0.2c-2.1-1.4-4.2-1.4-6.6-0.5
		c-4.9,1.9-5,1.8-2.5,6.6c0.6,1.2,0.4,2-0.5,2.8c-1.6,1.4-3.1,3.1-5.2,3.9c-0.9,0.4-1.7,1.1-1.2,2.2c0.4,1,1.4,1.3,2.4,1.1
		c0.3,0,0.5-0.2,0.8-0.3c1.1-0.5,2.5-1.2,3.3,0c1.3,1.9-2.1,1.3-1.8,2.9c0.1,0.1,0.3,0.5,0.3,0.5c3.5-0.8,4.7,0.1,3.5,3.9
		c-0.8,2.5-1.8,3.1-4.1,2.3c-2.8-1-5.5-2.2-9.2-1.4c4.7,2.8,8.4,7,14.4,4.5c0.5-0.2,1.1-0.1,1.6-0.1c1.1-0.1,2.5-0.4,2.6,1.2
		c0.1,1.5-1.4,1.5-2.4,1.4c-3.2-0.3-6,1-9.1,1.6c1.1,2.2,3.4,1.6,4.6,2.8c1,0.9,3.4,1.1,2.6,3c-0.7,1.5-2.4,0.2-3.7-0.1
		c-3.1-0.8-5.9-3-9.4-1.9c-1.5,0.5-3.6,0.2-3.3,2.6c0.3,2.4,2.2,1.3,3.5,1.4c3.7,0.2,6.7,1.6,8.3,5.7c-2.6,0-4.5-1.2-6.4-2
		c-1.3-0.5-2.6-1-3.8-0.1c-1.1,0.8-0.3,1.7,0,2.6c0.6,1.4,1.2,3.1,3.1,2.6c2.5-0.7,3.6,0.3,5,2.2c2.3,3.2,3.1,0.2,4.2-1.9
		c2.1,2.7,1.3,5.1,0.2,7.3c-0.6,1.2-2.8,2.1-0.2,3.3c1.8,0.8,3.7,1.6,4.9-0.9c0.6-1.2,1.4-2.6,1.2-3.8c-0.5-2.4-1.6-4.5,1.6-6.2
		c1-0.5-0.6-1.4-1.4-1.7c-1-0.4-2.9-0.3-1.8-2.2c0.8-1.4,2.4-2.4,3.7-0.9c2.2,2.3,5.3,4.5,2.7,8.6c-1.3,2.1-2.2,4.3,0.9,6.6
		c1.3,1,0.6,4.6,2.1,6.9c0.7,1.1-1.3,1.3-2.2,1.6c-1.3,0.4-1.6-0.1-1.5-1.5c0.2-5.4-0.3-5.6-5.1-3.1c-2.7,1.4-5.3,0.4-7.7-0.8
		c-3.4-1.6-7.4,0.1-8.1,3.6c-0.2,1.2,3.5,3.7,5.2,3.1c2-0.6,3.8-1,5,1c0.7,1.1,0.1,2.2-0.8,2.8c-2.1,1.3-4.4,1-6-0.8
		c-3-3.3-5.1-2-7.1,0.9c-1.5,1.6-2.9,0.2-4.3,0c1.4,0.2,2.9,1.6,4.3,0c2.3,2.4,3.7,5.2,4.5,8.9c-2.5-0.6-5.2-1.9-5.8,2
		c0,0.2-0.8,0.6-1,0.5c-4.1-1.4-4.3,2.7-5.6,4.5c-1.4,2-4.2,3.8-2.6,7.4C440.3,416.8,436.7,422.9,434.2,424.3z"/>
	<path class="st3" d="M154.4,350c1.7-1.7,2.3-3.7,2.2-6.2c-0.2-6.1,0-12.2-0.1-18.3c-0.1-4.7-1.1-5.7-5.8-5.7
		c-23.4,0-46.7,0.1-70.1,0.2c-6,0-6.7-0.6-6.7-6.4c0-8.7,0-17.4,0-26.1c0-6.1,0.8-6.9,7.1-6.9c24.6-0.1,49.2-0.3,73.8-0.4
		c5.9,0,6.6-0.7,6.6-6.5c0-6.1,0-12.2-0.1-18.3c-0.1-4.2-1.5-5.7-5.6-5.7c-36.8,0.1-73.6,0.3-110.4,0.5c-5.8,0-6.8,1.1-6.8,7.1
		c0.1,55.4,0.2,110.8,0.3,166.3c-1.7-7.9-4.1-15.6-7.4-23c-1.2-2.7,1.5-3.5,3-4.6c1.5-1.2,2.6-1.9,0.6-3.6c-1.3-1.1-1.1-2.7-0.6-4.2
		c1.6-5.3,1.3-10.8,1.8-16.2c0.2-2.7-0.2-5.3-2.6-7.3c-1-0.8-2-2.2-1.9-3.8c5,0.5,4.6,0.5,4.3-5.2c-0.1-3-0.5-5.9-0.7-8.8
		c0-0.5,0.2-1.2-0.1-1.6c-1.6-3.4-2.2-6.6-1.8-10.6c0.7-7.8-0.4-15.6,0.6-23.5c0.4-3.3-1-6.9,2.3-9.5c-2.7-2.9,1.6-6.5-1.5-9.9
		c-2-2.3,0.7-6.3,0.6-9.7c-0.1-3.8-0.1-7.6-2-11.1c-1.1-2-2.6-3.3-4.8-4.1c-3-1.2-3.3-2.5-1.7-5.8c1.1,1.8,1.4,4.9,4.3,3.4
		c2.5-1.3,3.7-3.5,2.3-6.5c-0.5-1.2-2.4-2.5-1.1-3.5c1.8-1.4,2.8-3.5,4.9-4.7c4.2-2.3,8.9-2.9,13.4-3.9c3.6-0.9,7.7,0.4,11.7,0.1
		c3.3-0.2,6.5-0.2,9-2.8c1.1-1.1,2.6-1.1,4.2-0.6c7.6,2.2,15.2,2.1,23.2,1.4c6.3-0.6,12.8-0.7,19.2-0.6c6.5,0.1,12.7,2.9,19.2,1.2
		c1.4-0.4,2.4,0.3,3.5,0.8c4.8,2.2,10.1-0.1,15.1,1.9c3.9,1.5,7.7,4.6,8.4,8.9c0.3,1.9,0.5,3.6,2.5,4.8c2.1,1.3,1.3,2.9-0.5,3.6
		c-2.6,1-3,3.2-2.9,5.3c0.1,2.1-0.2,3.9-0.7,5.8c-1.5,5.7-1.4,5.8-7.1,5.8c-9.9,0-19.8-0.7-29.6,0.3c-9.4,1-18.7-1-27.9,0.6
		c-5.6,1-11.3,1-16.8,2.8c-5.6,1.8-7.4,6.8-4.8,12.1c1.7,3.5,1.8,7.7,1.8,11.6c0,1.3-0.2,2.8,1.3,2.9c3.6,0.1,7,2.3,10.8,1
		c1.9-0.7,4-0.9,6-0.5c2.3,0.4,4.2-0.1,6.1-1.5c1.7-1.3,3.5-2.4,4.1,1.4c0.3,2,2.4,3.1,4.2,0.8c1.3-1.7,2.6-1.4,3.8-0.4
		c5.1,4.4,11.4,2.7,17.1,3.3c7.9,0.9,16.1,0.4,23.6,4.1c2.2,1.1,4.6,2.7,3.5,6c-0.1,0.4-0.2,1,0,1.2c4.1,2.7,1.3,6.1,0.8,9.1
		c-0.6,3.5-1.5,6.9-1.6,10.4C157.6,348.1,157.1,350.2,154.4,350z"/>
	<path class="st4" d="M359.8,421c3.6-9.2,7.2-18.4,10.9-27.6c8.8-21.8,17.6-43.5,26.4-65.2c0.6-1.4,0.7-4,2.6-3.5
		c1.8,0.4,0.9,2.8,0.9,4.3c0.2,29.3,0.3,58.6,0.4,88c0,6.3,1,7.2,7.4,7.2c4.7,0,9.5,0.2,14.2,0.3c-2.8,2.6-6.1,3-9.5,1.7
		c-3-1.2-5.8,0.6-9.1-0.6c-4.3-1.7-5.2-5.9-8.3-8.4c-4.4-3.5-9-5.1-14.4-5.2c-1.3,0-2.7-0.2-4-0.5c-1.7-0.4-2.8-0.9-3.4,1.7
		c-0.5,2.1-3,1.8-4.9,2c-1.8,0.1-4.3-1.5-3.8,2.8C365.7,419.9,361.8,420,359.8,421z"/>
	<path class="st5" d="M656.1,399.8c5.1-7.8,8.9-16,10.2-25.3c0.5-3.6-0.7-5.4-4.5-5.4c-8.6,0-17.1,0.1-25.7,0.1
		c-2.5,0-4.2,1.1-4.9,3.4c-2.8,8.6-7.7,15.5-16,19.6c-9.1,4.5-18.9,5.1-28.6,3.8c-20.2-2.6-32.9-14.3-38.3-33.8
		c-5.3-19.3-5.3-38.7,2-57.5c6.9-17.9,20.7-26.9,39.7-28c11.1-0.7,21.6,0.6,30.9,7.5c5,3.7,8.3,8.5,10,14.4c-4-0.8-6.6-3.5-7.3-7.2
		c-0.5-2.7-2.7-2.2-3.9-3.5c-1.3-1.3-2.1-2.2-4.5-1.2c-3,1.3-5.8-1.5-8.4-2.9c-2.9-1.5-5.6-2.4-8.9-2.4c-9.8,0.1-19.5,0.4-28.5,4.8
		c-4.2,2-7,5.8-10.6,8.5c-0.6,0.5-1.1,1.8-0.9,2.6c0.6,3-0.3,4.5-3.5,4.9c-1.9,0.2-2.1,1.8-1.5,3.5c0.8,2.4,0.6,4.4-1.4,6.3
		c-3.1,3,0.1,6.7-0.8,10c-0.1,0.5,0.9,1.6-0.1,2.1c-5,2.4-2.8,6-1.7,9.4c0.3,1,0.3,1.9-0.1,2.7c-1,1.8-1.1,2.9,1.4,3.4
		c1,0.2,2.3,1,0.7,2.2c-2.5,2-1.4,4.9-0.2,6.2c2.6,2.8,2,5.8,1.5,8.6c-0.6,4,0.7,7.6,1.6,11.1c1.8,7.3,11,11.2,18.1,8.5
		c1-0.4,1.5-0.1,1.9,0.7c1.2,2.3,3.5,3.5,5.1,5.4c2.1,2.4,6.1,1.1,8.4-1.2c2.2-2.2,3.6-2.9,6.4-0.7c1.9,1.5,4.2,3,6.9,3.2
		c0.9,0,2.1,0.8,2.5-0.4c0.5-1.4-0.7-1.8-1.8-2.2c-0.6-0.2-1.3-0.3-1.6-1.7c2.5,0.5,5.1-1.3,7.4,0.5c2.3,1.8,3,0.4,3.8-1.4
		c0.2-0.5,0.3-1.1,0.6-1.5c0.8-1.4,2-2.7,3.5-1.9c1.6,1,0.2,2.4-0.4,3.5c-0.3,0.5-0.7,0.8-1,1.3c-0.5,0.9-1.8,2-0.5,2.8
		c1.3,0.8,1.8-0.7,2.1-1.7c1.1-3.6,4.1-5.2,7.3-5.6c4.3-0.5,6.6-3.4,8.6-6.5c1.5-2.2,3.1-2.9,5.4-2.2c2.9,0.9,5.6,0.6,8.3-0.7
		c2.3-1.1,4.5-0.7,7-0.5c4.1,0.3,8.2,0.4,12.2,1.8c3.2,1.1,6.2,1.9,4.6,6.7c-0.8,2.5,1.2,5.4,0.8,8.3c-0.1,0.5,0.3,1.3,0.1,1.6
		c-3.1,3.2-3.6,8.1-7.2,11c-0.5,0.4-1.5,0.9-1.5,1.2C661.2,400.1,658.3,399.6,656.1,399.8z"/>
	<path class="st2" d="M282.6,424.3c1.8-1.7,1.6-3.9,1.6-6.1c0-29.6-0.1-59.2-0.1-88.9c0-0.4-0.1-0.8,0-1.2c0.2-1.1-0.6-2.8,1.1-3
		c1.5-0.2,1.7,1.5,2.2,2.5c1.1,2.5,2.2,5,3.2,7.5c11.5,28,23.1,55.9,34.6,83.9c0.3,0.6,0.3,1.3,0.5,2c-2.4-1.6-4.2-4.1-7.1-5.1
		c-0.2-0.1-0.5-0.4-0.7-0.4c-4.3,0.2-8.1-3.6-11.3-3.3c-5.2,0.6-9.6,1-13.9-2.2c-0.2-0.2-1.2,0.2-1.4,0.5c-0.6,1,0.1,1.8,0.7,2.5
		c0.8,0.9,2.1,1.7,1.1,3c-0.9,1.2-1.9,0.1-2.8-0.4c-2.2-1.3-2.7,0.6-3.7,1.8C284.9,419.4,286.1,423.3,282.6,424.3z"/>
	<path class="st6" d="M383.4,714c-6.5,0.3-11.3-3.2-14.7-8.4c-7.7-11.7-21.4-10.2-28.6,0.2c-8.2,11.9-22,11.7-31.2,0.4
		c-1.3-1.6-2.5-3.3-4-4.6c-7-6.1-16.2-5.3-22.5,1.7c-2.4,2.7-4.1,5.9-7.3,8.1c-8.4,5.8-19.1,4.2-25.3-3.9c-2.6-3.4-5.3-6.9-9.6-8.4
		c-6.9-2.5-13.8-0.6-18.2,5.3c-3.9,5.2-8,9.9-15.1,10.7c-6.8,0.7-12.5-0.8-16.6-6.8c-1.4-2-2.9-4-4.7-5.6
		c-6.8-6.3-16.8-5.6-22.8,1.4c-1.5,1.7-2.8,3.7-4.3,5.4c-7.9,8.6-20.8,8.2-28.1-0.8c-1.7-2.1-3.3-4.4-5.4-6.1
		c-8-6.6-17.5-4.7-24.5,4.7c-6,8.1-14.6,10.8-23.3,7.2c-3.1-1.3-5.6-3.3-7.5-6c-2-2.9-4.2-5.7-7.4-7.5c-6.5-3.5-13.9-2.2-19.3,3.4
		c-0.9,1-1.7,3.1-3.5,1.5c-1.7-1.5,0.3-2.7,1.1-3.6c6.8-8.5,20.8-8.6,28.1-0.3c1.3,1.5,2.5,3.2,3.8,4.8c7,8.3,18.2,8.1,24.8-0.6
		c3.5-4.6,7.2-9,13.2-10.2c8.1-1.6,14.7,1,19.7,7.6c2.1,2.7,4.1,5.4,7.2,7c7.5,3.9,14.9,2,20.4-5.2c2.2-2.9,4.5-5.8,7.7-7.7
		c8.6-5,19.2-2.4,25.1,6.1c7.6,10.9,18.4,11.3,26.9,1c3.1-3.8,6.4-7.4,11.2-9c8.2-2.8,16,0.1,22.3,8.3c7.9,10.2,18.3,10.4,26.5,0.3
		c3.8-4.7,7.8-9,14.3-9.8c7.1-0.9,12.7,1.6,17.3,6.9c1,1.1,1.8,2.4,2.8,3.5c7.6,8.8,18.7,8.3,25.6-1.1c3.5-4.8,7.6-8.9,13.9-9.7
		c7.9-1,14.1,1.9,18.7,8.3c4.3,6,9.6,9.5,17.3,7.8c3.6-0.8,6.3-2.9,8.8-5.5c0.8-0.8,1.6-2.3,3-1.1c1.6,1.4,0.1,2.4-0.7,3.4
		C394.6,711.6,389.7,714.1,383.4,714z"/>
	<path class="st6" d="M382.3,506.7c-4.8,0-9.7-2.4-13.5-7.1c-1.4-1.8-2.7-3.8-4.3-5.4c-7.2-6.8-17.4-5.6-23.3,2.5
		c-2.6,3.6-5.5,7-9.9,8.7c-8.5,3.4-17.3,1.1-22.8-6.2c-0.8-1.1-1.6-2.2-2.5-3.2c-6.7-8-17.8-7.9-24.2,0.4c-2.5,3.3-4.8,6.6-8.5,8.6
		c-9.2,5.1-19.1,2.5-25.7-6.7c-5.6-7.8-13.2-9.9-20.9-5.9c-3,1.6-5,4.2-6.8,6.9c-6.7,10.1-23,12.2-31.2,0.6c-1.5-2.2-3.2-4.4-5.4-6
		c-7-5.1-15.6-3.8-21.2,3.2c-2.7,3.4-5.2,6.9-9.2,9c-8.6,4.3-18.4,2.1-24.3-5.8c-2.1-2.7-4.1-5.5-7.1-7.2
		c-7.1-3.9-15.2-1.7-20.3,5.4c-3.8,5.4-8.6,9.4-15.5,10c-8,0.6-13.7-3.1-18.2-9.4c-5.3-7.5-12.8-9.5-20.2-5.7
		c-2.1,1.1-3.7,2.8-5.2,4.5c-0.8,0.9-1.5,2.2-2.9,1.1c-1.8-1.3-0.3-2.4,0.4-3.4c6.8-9.5,21.6-9.7,29.3-0.4c1.6,2,3,4.3,4.9,6
		c7.5,6.6,18.8,5.4,23.9-3.6c6.7-11.6,24.5-13.2,33-0.7c7.9,11.6,20.2,10.8,28.2-0.9c7.6-11.1,23.5-11.1,31-0.2
		c8,11.6,19.8,12.1,28.1,0.4c6.5-9.2,16.7-10.5,24.7-7c3.4,1.5,5.6,4.2,7.6,7.1c7.3,10.5,20.4,10.8,27.2,0
		c7.2-11.5,25.1-13,32.6-0.3c5.6,9.6,21,11,28-0.5c6-9.8,18.9-11.6,27.7-4.8c2.2,1.7,3.5,4.1,5.2,6.2c6.2,8.3,17.9,8.9,24.6,1
		c1-1.2,1.9-2.7,3.5-1.2c1.6,1.5-0.4,2.4-1,3.3C395.2,503.8,388.8,506.6,382.3,506.7z"/>
	<path class="st3" d="M160.8,424.2c1.6-3.4,0.8-6.9,0.9-10.4c0.1-4.5-0.1-9,0-13.4c0.1-3.8-1.8-5.3-5.5-5.3
		c-19.4,0.2-38.8,0.3-58.2,0.4c-6.2,0-12.5,0-18.7,0.1c-3.5,0.1-5.3-1.6-5.3-5.1c-0.1-11.7-0.1-23.3-0.1-35c0-2.7,1.4-4.6,4-4.7
		c9.8-0.1,19.5,0,29.3,0c-1.8,1.2-3.9,1-5.9,1.2c-6.3,0.5-12.7,0.7-19,1.4c-3.7,0.4-6.9,5.8-6.8,9.5c0.2,5.1,2.1,9.9,2.1,15
		c0,1.4,0.6,2.6,1.6,3.6c0.5,0.5,1,1,1.2,1.6c0.3,1.1-2.3,2.5,0.1,3.2c2.1,0.6,4.4,2.3,6.6,0.7c4.5-3.2,8.9-2.4,13.4-0.3
		c3,1.4,6.1,2.3,9.4,0.5c0.4-0.2,1.2-0.5,1.5-0.2c3.6,2.6,8,1.8,11.8,2.8c5.4,1.5,10.3-0.2,15.4,0.3c1.4,0.1,2.6,0.4,3.8,1.1
		c3.9,2.4,8,3,12.2,0.8c1.1-0.6,1.9-0.6,3-0.1c4.8,2.5,8.4,9,6.9,15.2c-1,3.9-2,8.1-1.7,12.3C162.8,421.3,162.8,423.2,160.8,424.2z"
		/>
	<path class="st6" d="M298.5,536.8c1.9-0.2,3.8-0.5,5.7-0.7c1.5,0.3,1.9,1.6,1.9,2.7c-0.1,5.3,1.1,10.5,1.4,15.8
		c0.2,4.9-2,9.4-1.7,14.3c0.1,1.2-0.6,1.8-1.7,1.7c-2.3-0.1-4.6,0.5-6.8-0.3c-4.1-6.8-8.1-13.6-12.5-20.9c-1.3,2.4-0.7,4.5-0.8,6.5
		c-0.1,3.2-0.3,6.5,0,9.7c0.4,3.7-0.5,5.7-4.6,5.4c-1.5-0.4-2.8-0.5-3-2.8c-0.9-8.6-0.7-17.3-0.7-25.9c0-2.2-1-5.2,2.5-6
		c4.8-1.1,7.3-0.1,9.3,3.3c0.3,0.6,0.6,1.2,1,1.7c3.9,2.4,6.1,6.2,7.8,10.1c0.8-4.2,0.7-8.5,1.4-12.7
		C297.7,538,297.4,537.1,298.5,536.8z"/>
	<path class="st7" d="M163.6,666.4c-3.9-6.7-7.9-13.4-11.8-20.1c-0.3,0.1-0.7,0.2-1,0.3c0,5.8-0.1,11.5,0.1,17.3
		c0.1,3.2-1.3,3.8-4.1,3.7c-2.9-0.1-2.8-1.9-2.8-3.9c0-8.4-0.1-16.8-0.1-25.2c0-1.7-1-4.4,1.7-4.7c2.8-0.3,6.2-1.5,8.2,2.4
		c2.6,5,5.7,9.8,8.6,14.7c0.7,1.1,1.5,2.1,2.9,4.2c0-7.8,0-14.3,0-20.9c1.4-1.8,3.3-2.6,5.5-1.9c2,0.6,1.7,2.6,2.3,4.3
		c2.5,8.1,1.5,16.3,0.9,24.4c-0.1,2.2-0.6,4.3-1.7,6.2C169.3,667,166.3,668.1,163.6,666.4z"/>
	<path class="st7" d="M342,545.1c-0.3,0.5-0.5,1-0.8,1.6c-3.6,1.4-7,2.3-10.2-1.2c-1.1-1.2-3-1.2-4.6-0.9c-3.4,0.6-5.7,3.6-5.9,7.8
		c-0.3,4.7,1.6,8.3,4.8,9.4c1.2,0.4,1.3,0.4,4.1-1c-4.6-0.8-6.1-3.5-5.4-7.6c0.3-2,1.3-3.2,3.4-3.4c2.3-0.3,4.6-0.3,6.9-0.2
		c7.2,0.4,8.3,1.5,8.2,8.7c-0.1,4,0.7,8-0.5,12c-2.2,0.1-4.6,1.3-6-1.5c-0.5-0.9-1.1-0.1-1.7,0.1c-9.6,4.1-15.4,2.3-21.6-6.7
		c-5-5.2-4.2-10.7-0.8-16.3c0.6-1.1,1.1-2.2,1.7-3.3c1.1-1.7,2.2-3.3,4.1-4.1c5.6-3.7,11.5-3,17.5-1.5
		C339.3,538.1,341.1,541.2,342,545.1z"/>
	<path class="st7" d="M198.1,667.2c-3.7,0.8-7.4,0.5-11.1-0.7c-4.2-1.3-6.7-4.3-8-8.4c0.1-0.2,0-0.4-0.2-0.5
		c-3.8-4.2-3.4-11.7,0-16.3c2.3-3.1,4.8-5.9,7.9-8c9.4-3.5,17.5-1.3,22.5,6.9c1.3,2.1,0.4,4.6-2.1,5.1c-2.9,0.6-5.6,0.5-8-1.8
		c-2.3-2.1-5-2.7-7.9-1.1c-3.1,1.8-4.5,5.8-3.7,10.1c0.6,3.2,2.1,5.6,5.5,6.4c0.8,0.2,1.6,0.2,2.3-0.5c0.3-1.2-0.8-1.3-1.5-1.5
		c-3.6-1.1-3.1-4-2.9-6.7c0.2-2.9,2.3-3.4,4.6-3.5c3.7-0.1,7.3-0.2,11,0.1c2.5,0.2,3.9,1.6,4.2,4.1c0.7,5.8-0.3,11.2-2.9,16.4
		c-1.4,0-2.8,0-4.2-0.1C201.9,666.2,200,666.6,198.1,667.2z"/>
	<path class="st8" d="M191.1,536.9c5.7-2.9,12.1-2.2,18.2-2.9c2.2-0.2,4.3,0.2,6.4,0.2c4.8-0.1,9.5,2.3,14.3,0.1
		c1.8-0.8,3.8,0.2,4.2,2.7c-1,2.1-4,1.6-4.9,3.7c-2.7,6.5-1.6,13.2-1.8,19.9c-0.1,1.6,0.7,3.6-1.2,4.8c-2.2-2-2-5.5-4.5-7.5
		c-1.5-1.2-2.8-2.7-4.9-1.8c-2,0.8-2.1,2.7-2.4,4.3c-0.3,1.7,0,3.5-1,5c-1.7-0.7-1.3-2.2-1.3-3.5c0-4.8,0-9.5,0-14.3
		c0-2.5,0.3-4.5,3.5-4.8c1.4-0.1,2.8-1.1,3.9-2c-0.1-2-0.1-2-4.1-2.3c-5.5-1.8-10.8-0.7-16,1c-0.2,2.3,1.7,1.8,2.7,1.8
		c3.7,0.1,4.9,2.1,4.9,5.5c0,4.6,0.3,9.3,0,13.9c-0.3,4.5,0.8,8,5.2,9.9c0.1,0.2,0.2,0.4,0.2,0.5c-1,2.3-2.9,2.2-4.8,1.7
		c-1.8-0.5-3.2-1.7-3.3-3.7c-0.1-2.5-1.1-4.4-2.7-6.2c-1.2-1.4-1.8-3-0.3-4.7c1.5-1.8,0.7-3.3-0.6-4.6c-1.5-1.5-2.7-0.3-3.7,0.8
		c-0.7,0.7-1.6,1-2.6,0.8c-3.8-1-5.8,2.8-9.1,3.5c-1.7,0.4-0.2,1.6,0.9,1.8c2.3,0.5,3,2.2,1.1,3.3c-3.1,1.8-3.3,4.7-4.3,7.4
		c-0.2-0.1-0.4-0.2-0.6-0.3c-2.5-4.9-2.3-10.1-0.1-14.9C185.4,549.6,189.5,543.8,191.1,536.9z"/>
	<path class="st7" d="M227.1,537.6c2.3-1.5,4.7-0.6,7.1-0.6l0,0c2.5,2,1.2,5.1,2,7.6c1.1,3.4,2.8,5,6.3,4.8c3.6-0.3,3.7-3,4-5.5
		c0.3-2.6-0.2-5.4,2.1-7.5c2.2-1.1,4.2-0.6,6.2,0.6l0,0c1.1,1,1.3,2.3,1.3,3.7c0,9.8,0.3,19.6-0.8,29.4c-0.1,0.4-0.3,0.7-0.6,1
		c-0.7,0-1.4-0.1-2,0c-3.5,0.5-5.1-0.8-4.6-4.5c0.1-0.4,0-0.8,0-1.2c-0.4-2.8,1.3-6.7-0.9-8.1c-3-1.8-7.1-0.5-10.8-0.4
		c-1.7,0.1-1.8,1.3-1.8,2.6c0,2.3-0.2,4.6,0.1,6.9c0.5,3.8-1,5.2-4.7,4.7c-0.7-0.1-1.4-0.1-2-0.1c-0.6-1.4-1.2-2.7-1.2-4.2
		c-0.1-8.7,0.3-17.4-0.2-26.2C226.4,539.7,226.4,538.5,227.1,537.6z"/>
	<path class="st8" d="M255.6,536.8c2.6,0.8,4.6,1.3,6-2.2c1.2-3,5-3,7.9-0.4c1.9,1.7,3.8,2.9,6.4,2.6c0.7,9,0.8,18,0,27
		c-2.9-0.1-4.2,2-5.5,4.1c-2.1-0.9-1.3-2.7-1.4-4.2c-0.3-6.4,0.9-12.9-0.8-19.3c-0.3-1.3-0.4-2.7-1.3-3.7c-0.6-0.4-1.1-0.3-1.6,0.2
		c-2.1,4.5-3.2,9-2.2,14.1c0.8,4.2,0.2,8.6,0.2,13c0,1-0.2,1.9-1.2,2.3c-1.2-1.2-1-2.7-1.2-4.2c-0.2-1.6,0.6-4-1.9-4.2
		c-2.4-0.2-1.7,2.3-2.4,3.5c-1.9,0.1-1.3-1.4-1.3-2.3c-0.1-3,0-6,0-8.9c0.7-2.7,0.8-5.5,0.4-8.3
		C256.1,542.9,254.7,539.9,255.6,536.8z"/>
	<path class="st9" d="M341.9,570.2c0-4.9-0.1-9.8,0.1-14.7c0.2-3.3-1.2-4.3-4.3-4.1c-2.8,0.2-5.7,0.2-8.6,0.1
		c-2.4-0.1-3.4,0.6-3.4,3.2c0,2.5,0.8,3.5,3.3,3.3c0.5-0.1,1.1-0.1,1.6,0c1.3,0.4,3.4-1,3.7,1.1c0.3,1.8-0.9,3.4-2.7,4.2
		c-3.6,1.7-7,1.7-10.2-1.2c-5-4.5-4.4-14.9,1.2-18.7c3.3-2.2,7.1-2.4,9.8,0.2c2.7,2.6,5.4,3.2,8.7,2.9c-0.2,1.2-1.7,1.1-2.7,2.2
		c4.8,1.8,4.5,5.8,4.4,9.6c-0.1,3.1,0,6.2,0,9.3C342.6,568.6,342.2,569.4,341.9,570.2z"/>
	<path class="st7" d="M262.9,536.8c2.1,0,4.2,0,6.4,0c1.2,1.4,0.7,3.2,0.7,4.7c-0.1,8.6-0.1,17.3-0.1,25.9c0,1.3,0.3,2.8-1.2,3.6
		c-1.8,0-3.6-0.1-5.5-0.1c-0.2-0.2-0.5-0.4-0.5-0.6C262.9,559.2,261.3,548,262.9,536.8z"/>
	<path class="st10" d="M187.4,633.9c-7.3,4.5-10.5,11.5-9.1,20c0.2,1.2,0.4,2.4,0.5,3.6c-2.1,0.3-3.6,1.7-3.5,3.6
		c0.1,2.8-1.5,4.3-3.1,6.1c0.9-10.5,0.2-21,0.4-31.5c0-1.8-1.1-2.3-2.6-2.2c-1.6,0.1-3.3-0.2-4.7,0.8c0.3-2.4,1.7-3.8,4.1-3.4
		c2.3,0.4,4.1,1.8,4.1,4.3c0,2.5,1.6,3.6,3.3,4.7c1,0.6,2.7,0.7,2.5-0.6c-0.8-4.8,3.4-3.8,5.5-5.3
		C185.6,633.3,186.5,633,187.4,633.9z"/>
	<path class="st10" d="M311.8,545.8c-1.2,5.5-1.3,10.9,0.8,16.3c-3.3-1.3-5.3,0-6.2,3.8c-1.4,5.8-3.6,6.8-9.2,4.5
		c8.5,0.7,8.4,0.7,8.4-7.9c0-7.3,0-14.6,0-21.9c0-1.6,0.3-3.3-1.3-4.4c4.4,1.2,2.7,5,3.2,7.8c0.2,1.3,0.2,2.9,1.6,3.5
		C310.4,548.2,310.9,546.5,311.8,545.8z"/>
	<path class="st11" d="M308.5,617.7c-1-0.3-2.5,0.2-3-0.8c-0.7-1.5,1-1.6,1.8-2c1.2-0.7,0.7-1.9,1-2.9c1-3.2,3.9-4.2,6.1-2.3
		c0.7,0.6,1.1,1.2,0.9,2.1C315.2,613,309.8,617.7,308.5,617.7z"/>
	<path class="st12" d="M542.8,260.5c-5.8,5.6-12.3,10.6-16.8,17.5c-2.1,3.2-4.1,6.3-6.2,9.5c-0.5-4.9,3.8-7.4,5.7-11
		c3-5.9,8.4-9.9,13.1-14.5C539.9,260.8,541.4,260.7,542.8,260.5z"/>
	<path class="st13" d="M275.9,563.8c0-9,0-18,0-27c4.7-2.9,10.4-2.7,13.1,4.8c0.3,0.4,0.2,0.8-0.2,1.2c-0.8-1.2-1.8-2.4-2.4-3.7
		c-1.8-3.8-5.1-2.5-7.9-2.2c-2.9,0.2-1.7,3-1.7,4.6c-0.1,8.7,0.1,17.3,0.1,26c0,1.9,0.4,3.1,2.4,3.6c-2.3,0.7-3.3-0.3-3.3-2.5
		C276,567,276,565.4,275.9,563.8z"/>
	<path class="st12" d="M640.5,257.8c-7.6-4-15.6-7.1-23.9-9.5c5.1,0.4,10.6-0.6,15.1,2.3C634.9,252.6,637.6,255.4,640.5,257.8z"/>
	<path class="st14" d="M558.3,252.3c-5.2,2.7-10.4,5.5-15.6,8.2c-0.5-2.9,0.4-4.5,3.5-5.2C550.3,254.4,554,252.1,558.3,252.3z"/>
	<path class="st14" d="M581,246.5c-7.5,1.4-14.9,3.1-22,5.6c-1-1-0.7-1.6,0.6-1.9c6-1.6,11.9-3.7,18-4.7
		C578.8,245.3,579.9,246,581,246.5z"/>
	<path class="st10" d="M262.9,536.8c-0.5,11.4-0.6,22.8,0.2,34.2c-0.4-0.2-0.7-0.4-1.1-0.7c-0.1-6,0.2-11.9-0.6-17.9
		C260.7,547.2,261.7,542,262.9,536.8z"/>
	<path class="st10" d="M222.9,542.3c-1.6,2.7-4.5,2.6-6.8,2.5c-2.2,0-2.4,0.6-2.6,2.3c-0.6,6.1-0.3,12.2-0.2,18.3
		c-0.2,1.9,0.2,3.9-0.9,5.7c0,0-0.2-0.2-0.2-0.2c-1.7-1.4-1.8-3.3-1.8-5.2c-0.1-6.1-0.2-12.2,0-18.3c0.2-5,1.1-5.9,6.1-6
		C218.7,541.4,220.9,541.2,222.9,542.3z"/>
	<path class="st10" d="M268.6,571.1c0.9-0.8,1-1.9,1-3c-0.1-10.4-0.2-20.8-0.3-31.2c1.3,1.9,1.4,4,1.3,6.2c-0.2,3.2-0.9,6.5,1,9.5
		c0.2,0.4,0.3,1.2,0.1,1.5c-2.6,4.4-1,9.2-1.2,13.9C270.3,569.2,270.2,570.6,268.6,571.1z"/>
	<path class="st10" d="M255.8,553c0.1,4.2-1,8.4,0.8,12.5c-1.3,1.6,0.2,4.2-1.9,5.6c1.1-4.8,0.4-9.6,0.4-14.4
		c0-6.6-0.2-13.2-0.4-19.7c0.3,0,0.6,0,0.9,0c0.3,3,0.5,6,0.8,9C255.5,548.1,257.1,550.7,255.8,553z"/>
	<path class="st15" d="M657.6,274.2c-4.5-5.5-9.7-10.4-14.8-15.4c4.6-0.4,5.9,4,8.5,6.2C654.2,267.3,656.4,270.5,657.6,274.2z"/>
	<path class="st10" d="M227.1,537.6c0.1,9.1,0.1,18.3,0.3,27.4c0,2,0.3,4,0.5,6c-1.7-1.6-1.6-3.6-1.7-5.7
		c-0.4-7.8,0.8-15.6-0.7-23.3C225.2,540.4,226.2,539,227.1,537.6z"/>
	<path class="st10" d="M179.1,658.1c2.1,3.4,4.4,6.5,8,8.4c-1.1-0.3-2.1-0.6-3.2-0.8C181.3,663.8,179,661.7,179.1,658.1z"/>
	<path class="st8" d="M182.3,572c-2.1-0.7-4.7,1.5-6.5-1c2.3-2.4,4.7-2.1,7.1-0.1c0,0,0.2,0.2,0.2,0.2
		C182.8,571.4,182.5,571.7,182.3,572z"/>
	<path class="st7" d="M72.2,607.6c0-1,0.6-2.5-0.5-2.9c-1.3-0.4-1.6,1.2-2,2.1c-1.5,3.5-3,7-4.2,10.6c-0.8,2.3-2.3,2.6-4.4,2.7
		c-2.1,0.1-3.2-0.7-4-2.6c-1.9-4.8-4-9.5-6.9-14.1c0,4.3-0.1,8.6,0,13c0.1,2.3-0.2,3.9-3.2,3.9c-2.8,0-3.9-0.8-3.8-3.7
		c0.1-8.7-0.1-17.4,0-26.1c0-1.5-1-4.1,1.9-4.1c2.5,0,5.8-1.7,7.3,2.2c2.7,6.8,5.6,13.5,8.8,21.3c2-4.7,3.6-8.5,5.1-12.3
		c1-2.5,1.9-5.1,3-7.6c1.6-3.8,4.5-5.1,8.4-3.9c1.6,0.5,1.6,1.6,1.6,2.8c0,9.4,0.2,18.7,0.1,28.1c-0.1,5.1-4.1,2.3-6.4,2.9
		C71.7,615.9,73.3,611.7,72.2,607.6z"/>
	<path class="st7" d="M162.6,567.2c-0.6,1.4,1.1,3.6-1.5,4.4c-2.6,0.8-3.8-0.5-5.2-2.4c-2.2-3.2-4.7-6.2-7.1-9.3
		c-1.5-1.9-3.6-2-5.5-1.5c-2.3,0.6-1,2.7-1.3,4.2c-0.2,0.9-0.2,1.9-0.2,2.8c0.2,6.4,0.2,6.4-5.9,6.6c-2.4-3.3-2.3-7.4-2.7-11.2
		c-0.6-5.8-0.2-11.6-0.1-17.5c0-2.1,0.7-4,2.1-5.5l-0.1,0.1c0.6-0.6,1.3-1.2,2.1-1.2c7.2-0.2,14.5-1.7,21.5,1.4
		c2.3,0.8,3.8,2.5,5,4.6c0.2,0.4,0.3,0.8,0.3,1.3c0.1,2.3,0.1,4.6,0,7c-1,2.6-2.7,4.7-5,6.2c-1.8,1.2-1.4,2-0.1,3
		C161.2,561.8,162.4,564.2,162.6,567.2z"/>
	<path class="st6" d="M132.8,619.9c-2.7,0.1-6.1-0.5-9.2-2.6c-1.7-1.2-3.2-2.8-3.4-4.9c-0.1-1.3-1.8-3.7,0.8-4.1
		c1.9-0.3,4.5-1.5,6,1.6c1.9,4,8.3,5.3,11.9,2.8c1.2-0.8,1.8-2,1.6-3.5c-0.2-1.8-1.2-3-3-3.4c-3.2-0.8-6.4-1.4-9.5-2.2
		c-6-1.6-8.2-4.3-8-9.6c0.2-4.5,3.4-7.6,8.9-8.4c3.8-0.6,7.6-0.5,11.3,0.8c2,0.7,3.9,1.6,4.7,3.6c0.7,1.7,2.5,4.3,0.4,5.3
		c-1.8,0.9-4.9,1.7-6.7-1.6c-1.5-2.8-7.8-3.4-10.2-1.4c-2,1.7-1.2,4.5,1.9,5.5c3.2,1,6.6,1.4,9.9,2.4c6.4,1.9,9.1,6.7,7,12.8
		c-1.7,5-6.2,6-10.7,6.8C135.6,620.1,134.6,619.9,132.8,619.9z"/>
	<path class="st7" d="M67.2,566.6c-0.6,5.5-0.6,5.5-6.6,5.5c-4.5,0-8.9-0.2-13.4,0.1c-2.9,0.2-4.3-0.8-4.4-3.7
		c-1.1-5.6-0.2-11.3-0.5-16.9c-0.2-3.2,0.3-6.4-0.6-9.7c-0.7-2.6,0.7-4.6,3.6-4.7c6.5-0.2,13-0.1,19.5-0.1c2.5,0,3,2.1,3.5,3.8
		c0.5,1.9-0.9,2.8-2.5,3.6c-2.7,1.2-5.4,1.6-8.3,1.7c-1,0-2.4,0.2-2.3,1.6c0.1,1.2,1.3,1.2,2.2,1.4c1.3,0.2,2.7,0.2,4.1,0.2
		c2.2,0.1,4,0.8,4.8,3.1c0.7,2.1,0.3,4-1.6,5.3c-0.8,0-1.5,0.1-2.3,0.1c-2.7,0.9-5.6,0.6-8.4,0.9c-2.5,0.3-3.6,1.7-3.4,4.1
		c0.3,2.5,2.2,2.4,4,2.3C58.9,565.2,63.2,565,67.2,566.6z"/>
	<path class="st8" d="M187.4,633.9c-0.9,0-1.8-0.1-2.7-0.1c4.5-4.3,12.7-4.9,17.8-1.3c2.1,1.5,4.8,1.9,6.3,4.8
		c0.9,1.7,2.9,0.5,3.6-1.3c0.6-1.7,1.5-2.9,3.5-2.9c1.3,1.2,1.7,2.7,1.7,4.4c0.2,8.6,0.1,17.2,0,25.9c0,1.4-0.2,2.7-1,3.9
		c-0.2-0.1-0.5-0.2-0.7-0.3c-2.2-0.9-1.7-4.8-4.4-4.5c-2.3,0.2-1,4.1-3.4,4.8c1.6-5.5,0.5-11,0.7-16.5c0-1.6-1-2-2.4-2
		c-3.7,0-7.3,0.1-11,0c-2.6-0.1-2.6,1.6-2.7,3.5c-0.1,2.1,0.7,3.1,2.8,2.9c0.7,0,1.4-0.2,2,0c1.3,0.3,3.4-1,3.8,1.1
		c0.3,1.6-0.9,3-2.4,4c-3.8,2.5-9.5,1.4-11.8-2.6c-2.7-4.7-2.8-9.6-0.1-14.3c3-5.2,9.9-5.9,13.7-1.3c2,2.5,4.4,1.7,6.6,1.6
		c1.8-0.1,1-1.6,0.7-2.5c-1.6-4.4-4.8-7-9.5-7.9C194.8,632.4,191,632.9,187.4,633.9z"/>
	<path class="st7" d="M78,667.9c-0.9-10.4-0.2-20.9-0.5-31.3c-0.1-2.5,1.4-2.9,3.4-2.8c1.8,0.1,3.6,0,3.6,2.7c0,2.7,0.1,5.4,0,8.1
		c-0.1,2.2,0.8,2.7,2.9,2.8c10.3,0.5,10.4,0.6,10.7-9.9c0.1-2.8,1-3.7,3.8-3.8c3-0.1,3.3,1.4,3.3,3.7c0,8.9,0,17.9,0.1,26.8
		c0,2.2-0.2,3.6-3,3.5c-2.6-0.1-4.3-0.5-4-3.5c0.1-0.9,0.1-1.9-0.1-2.8c-0.3-2.6,1.4-6.6-1.1-7.5c-3.4-1.2-7.5-0.4-11.3-0.2
		c-1.2,0-1.2,1.3-1.2,2.2c0,1.9,0,3.8,0,5.7C84.5,667.9,84.5,667.9,78,667.9C78,667.9,78,667.9,78,667.9z"/>
	<path class="st7" d="M216.6,667.2c-0.3-0.6-1-1.1-1-1.7c0-10.8-0.8-21.6,0.3-32.4c6.4,0,12.7-0.1,19.1-0.1c2.2,0,4.4-0.4,4.4,3.1
		c0,3.6-2.3,2.9-4.4,3c-3.3,0-6.5,0.2-9.8,0.1c-2.9-0.1-2.8,1.7-2.9,3.7c0,2.1,0.2,3.8,3,3.6c3-0.1,6,0,8.9-0.1c2.1,0,4-0.2,4,3
		c0,3-1.5,3.3-3.9,3.2c-3.1-0.1-6.2,0.1-9.3,0c-3.5-0.1-2.5,2.5-2.6,4.3c-0.1,1.8-0.6,4,2.6,3.8c3.7-0.2,7.3,0.1,11-0.1
		c2.4-0.1,3.5,0.7,3.5,3.2c0,2.4-1.2,3-3.3,3C229.6,667,223.1,667.1,216.6,667.2z"/>
	<path class="st7" d="M113.9,598.7c0,3.7,0.2,7.3,0,11c-0.3,5-3.6,8.5-8.3,9.8c-2.1,0.6-4.3,0.7-6.4,0.6c-7.1-0.3-11.5-4.1-12-11.2
		c-0.4-6.6-0.2-13.3-0.3-19.9c-0.1-3.1,1.8-3,4-3.1c2.5-0.1,3.3,1.1,3.3,3.4c-0.1,5.7,0,11.4,0.1,17.1c0,5.1,2.2,7.8,6.3,7.8
		c4.2,0,6.5-2.5,6.6-7.5c0.1-5.8,0.1-11.7,0-17.5c-0.1-2.9,1.4-3.3,3.8-3.4c2.4-0.1,3.5,0.7,3.4,3.3c-0.1,3.2,0,6.5,0,9.8
		C114.1,598.7,114,598.7,113.9,598.7z"/>
	<path class="st6" d="M123.7,660.5c-3.8-0.8-6.9,0.4-7.9,5.4c-0.5,2.4-2.7,1.9-4.4,1.7c-2-0.2-1.5-1.9-1.7-3.2
		c-0.2-1.8,0.4-3.5,1.1-5.1c2.9-7.3,5.8-14.6,8.5-22c0.9-2.4,2.1-3.7,5-3.7c2.7,0,4.2,0.8,5.1,3.4c2.9,7.6,6,15.1,9,22.7
		c0.6,1.4,0.9,2.9,0.8,4.4c-0.1,1.4,0.7,3.3-1.7,3.4c-1.7,0.1-3.3,0.3-4.4-1.9C130.6,660.3,130.5,660.4,123.7,660.5z"/>
	<path class="st8" d="M135.1,537.7c-0.1,10.5-0.1,21-0.2,31.5c0,1,0.3,1.9,0.9,2.6c-2.1-0.8-1.7-2.9-2.3-4.4
		c-0.5-1.1-0.8-2.5-2.3-2.4c-1.7,0.1-1.6,1.6-1.8,2.7c-1.1,5.9-2.6,6.5-8.8,5.4c-3.9-0.7-8.1-0.3-12.1-0.3c-1.3,0-2.7,0.5-3.8-0.8
		c0.1-0.2,0.2-0.4,0.3-0.6c1.3-1.5,3.1-1.4,4.9-1.5c3.1-0.1,6.2,0,9.4-0.1c1.4,0,3,0.4,4.1-1.4c-2.1-1.6-4.4-0.9-6.6-1
		c-5.9-0.3-8.3-4-6.2-9.6c0.7-1.8,2.1-2.3,3.8-2.5c2.4-0.3,4.9,0.2,8.2-1c-3-1.2-5.3-0.7-7.5-1c-3.5-0.4-5.4-2.2-5.5-5.3
		c-0.2-3.6,1.5-5.4,5.1-5.9c3.6-0.4,7.4,0.8,10.7-1.4c1.2-1.1,1.9-2.5,2.2-4.1c1.2-1.4,2.4-1.6,3.6-0.1
		C132.3,537.9,133.6,538.3,135.1,537.7z"/>
	<path class="st6" d="M59.6,633.6c3.3-0.1,7.4,1.3,10.2,5.3c1,1.5,2.9,3.9,0.9,5.2c-1.7,1.1-4.8,1.4-6.5-1.1c-0.8-1.2-1.7-2-3.1-2.5
		c-4.8-1.7-9.4,0.2-11.4,4.9c-1.8,4.2-1.6,8.5,0.4,12.6c2.5,5.2,10.7,6,14,1.3c1.9-2.7,4.2-2,6.4-1.9c1.8,0.1,1.1,1.5,0.9,2.5
		c-1.2,4.9-7.3,8.9-13.7,8.9c-9.9-0.1-16.6-7.5-16.3-18.3C41.6,640.1,48.3,633.3,59.6,633.6z"/>
	<path class="st7" d="M94.6,558.7c-2.5,2.5-3,5.9-4.3,9c-1.9,4.9-3.9,5.7-9.2,3.4c-3.4-5.6-5.3-12-7.8-18c-1.2-2.8-2.1-5.7-3.6-8.3
		c-1.4-2.4-1.3-4.5,0.8-6.3c1.3-2.2,3.2-0.6,4.8-0.8c0.3-0.3,0.7-0.3,1.1-0.1c0.9,2,2,3.9,3.7,5.3c0.9,2.2,1.7,4.4,3.1,6.4
		c0.7,1.4,0.5,2.9,0.6,4.4c0.1,0.8,0.6,1.5,1.5,1.6c1,0.1,1.5-0.8,1.6-1.5c0.8-5.9,4.3-10.8,5.7-16.4c0.5-0.4,1.1-0.7,1.8-0.8
		c5.5,0.3,6.4,1.1,6.6,6.1c0.1,1.4-0.5,2.6-0.4,4c-0.3,2.4-3.3,3.7-2.7,6.4C97.8,555.5,96.7,557.3,94.6,558.7z"/>
	<path class="st7" d="M182.9,570.9c-2.4,0.7-4.7,0.6-7.1,0.1l0,0.1c-1.5-3.3,0-6.8-1-10.3c-0.8-2.8-1.9-5-4.1-6.8
		c-3.5-2.9-5.3-6.7-6-11.1c0.5-5.9,1.4-6.8,6.5-6c0.7,0.4,1,1.1,1.1,1.8c0.2,0.8,0.9,0.8,1.5,0.7c0.6,0.2,0.6,0.4,0,0.6
		c-0.7,0.3-0.6,0.6-0.1,1c1.7,0.8,2.2,2.9,4,3.6c0.4,0.3,0.8,0.4,1.2,0.5c0.2-0.2,0.5-0.2,0.7-0.2c0.4-0.3,0.7-0.6,1-0.9
		c1.3-1.8,4.2-2.3,4.2-5.1c1.5-2.9,3.7-3.4,6.4-1.9c0,0,0,0,0,0c1.5,2.1,1.1,4.4,0.4,6.6c-0.3,1-0.8,2.1-1.4,2.9
		C184.7,553.7,181.7,561.7,182.9,570.9z"/>
	<path class="st7" d="M164.4,585.5c3.7,0,7.3,0.1,11,0c2.2-0.1,2.8,1.1,2.9,3c0.2,2.2-1,2.7-2.9,2.8c-7.7,0.7-7.7,0.7-7.7,8.6
		c0,5.4-0.1,10.8,0,16.3c0.1,2.5-0.8,3.3-3.3,3.4c-2.5,0-3.7-0.5-3.7-3.4c0.1-6.6-0.2-13.3,0-19.9c0.1-3.5-0.8-5.5-4.7-4.8
		c-0.9,0.2-1.9,0-2.8,0.1c-2.3,0.2-3-0.9-3-3.1c0-2.1,0.9-2.9,2.9-2.8C156.8,585.6,160.6,585.6,164.4,585.5
		C164.4,585.5,164.4,585.5,164.4,585.5z"/>
	<path class="st16" d="M70.6,538.5c0.1,7.8,4.1,14.5,6.5,21.6c1.3,3.7,2.7,7.4,4.1,11c-0.8-0.7-2-1.4-2.2-2.3
		c-1.6-5.8-5.3-10.6-6.8-16.4c-0.7-2.6-1.6-4.9-3.8-6.5c-0.8-0.6-1.7-0.9-2.6-0.2c-0.8,0.6-0.5,1.4-0.3,2.2c0.4,1.2,0.4,2.6,1.1,3.4
		c2.5,3.2,1.1,5.1-1.9,6.6c2.5-4.9,1.6-6.5-3.4-6.5c-2.3,0-4.6-0.2-6.9,0c-3,0.3-4.4-0.5-4.4-3.9c-0.1-3.8,2.2-3.3,4.5-3.3
		c3.1,0,6.2-0.2,9.4-0.1c2.4,0.1,3-1.1,3.1-3.3c0.1-2.3-0.8-3.1-3.1-3.1c-5.7,0.1-11.4,0.2-17.1,0.1c-2.8,0-3.7,1.1-3.7,3.9
		c0.1,8.9-0.1,17.9-0.1,26.9c-1.8-4.5-0.5-9.3-0.9-14c-0.4-4.4,0.7-8.8-1.2-13.1c-0.5-1,0.3-2.6,0.5-3.9h0
		C51,536.4,60.9,535.5,70.6,538.5z"/>
	<path class="st8" d="M172.3,538.7c-0.3-0.2-0.5-0.5-0.8-0.7c-1.7-1.3-3.7-1.3-5.1-0.1c-1.5,1.4-1.5,3.5-0.5,5.5
		c1.6,3.1,3.2,6.1,5.5,8.7c5.2,5.5,4.1,12.4,4.3,19.1c-1.7-3.9-0.7-8.3-2.6-12.2c-1.5-3.1-4.1-4.9-7.1-5.4c-3.2-0.6-4.9,2.4-6.8,4.4
		c-1.2,1.2,0.4,1.4,1,2c2,2,3.3,4.3,2.3,7.2c-1-3-3.3-5.2-5.2-7.6c-1-1.3-1.1-1.9,0.5-2.7c2.2-1.2,3.6-3.1,4.5-5.4
		c1.5-2.7,1.3-5.4,0.1-8.1l0,0.1c0-2.2-1.6-3.2-3.2-4.1c-7.9-3.3-16.1-1.7-24.3-1.5c0.5-1,1.2-2.2,2.3-2.2
		c5.2,0.1,10.2-2.6,15.5-0.4c5.3,2.2,10.8,3.7,15.7-1.4c0.6-0.7,1.5-0.7,2.2-0.1C172.3,535,173,536.6,172.3,538.7z"/>
	<path class="st8" d="M254.8,536.9c-2.1,0-4.2,0-6.3,0c-1.6,3-0.4,6.3-0.8,9.4c-0.3,1.9-0.9,2.8-2.8,3.2c-2.3,0.5-4.5,0.4-6.8,0.4
		c-1.7,0-2.7-0.9-2.9-2.7c-0.3-3.5-0.7-6.9,0-10.4c1.1,0.3,2.4,0.5,3.4,1c3.2,1.8,5.7,2.8,8.4-1.3C249.1,533.5,252,534,254.8,536.9z
		"/>
	<path class="st8" d="M94.6,558.7c-0.5-2.2,1.4-3.7,1.9-5.6c2.6-1.5,1.2-4.6,2.5-6.6c0.1-1.1,0.3-2.1,0.4-3.2c2.1-1.5-0.1-4,1.3-5.7
		c1.2-1.3,2.6-1.1,4.1-0.8c0.1,0.1,0.3,0.2,0.4,0.4c0.1,0.3,0.2,0.7,0.2,1c-0.1,0.5-0.3,1-0.4,1.6c-0.7,2.5-0.5,5.1-0.5,7.6
		c0,0.6,0,1.1,0,1.7c0,2.8-0.2,5.7,0.4,8.5c0.2,1.8,1.2,3.9-1.6,4.5c-0.2-0.5-0.5-1-0.6-1.5c-1.2-5.3-1.2-5.3-5.6-2.1
		C96.2,559,95.4,558.9,94.6,558.7z"/>
	<path class="st8" d="M80.9,549.9c-0.8-2.1-2.2-4-2.3-6.4c-0.6-1.2-0.3-2.1,0.9-2.7c1.9,0.1,3.7,0.3,4.7,2.5
		c0.6,1.4,2.1,1.6,3.5,1.6c1.9,3.5,1.1,9.2-1.8,11.2c-1.5,1-2.2,0-2.7-1.2C82.4,553.3,82.1,551.4,80.9,549.9z"/>
	<path class="st16" d="M80.9,549.9c0.5,0.6,1,1.2,1.6,1.8c1,1,0.8,4.1,2.5,3.2c1.6-0.8,3.6-3,2.9-5.6c-0.4-1.5-0.5-2.9-0.2-4.3
		c0.8-0.3,1.3-0.8,1.6-1.6c-1.4-3.9,1.4-4.3,4.1-4.9c-2,7.5-5,14.6-7.9,22.7C83,557.1,82,553.5,80.9,549.9z"/>
	<path class="st10" d="M288.9,542.8c0.1-0.4,0.1-0.8,0.2-1.2c1.1-0.4,2.1-0.5,3,0.4c2.4,2.5,3.8,1.2,5.1-1.1c0.9,3.5,0.4,7,0.3,10.4
		c-0.1,1.9-1.3,2.7-3,1.1C292.7,549.2,290.8,546,288.9,542.8z"/>
	<path class="st8" d="M191.2,536.9c-2.4,0.2-5.1-0.1-5.8,3.2c-1.1,1.8-2.3,3.5-3.2,5.5c-0.3,0.4-0.6,0.7-0.9,1.1
		c-1,2.1-2.5,1.6-4.1,0.8c-0.8-0.2-0.8-0.8-0.8-1.5c-0.3-1.2-2-2.3,0.1-3.4c2.4-2.6,6.4-2.5,8.6-5.8
		C186.4,534.8,189.2,534.9,191.2,536.9z"/>
	<path class="st16" d="M67.2,566.6c-4.5-1.5-9.1-0.6-13.7-0.5c-4,0.1-3.3-2.4-3.5-4.7c-0.3-2.7,0.7-3.6,3.4-3.4
		c3,0.2,5.9,0.1,8.9,0.1c-2.2,1.5-4.7,1.8-7.3,2c-1.7,0.1-4,0.2-3.6,2.7c0.4,2.1,2.4,1.4,4.1,1.5C59.6,564.4,63.8,563.5,67.2,566.6z
		"/>
	<path class="st10" d="M235.2,536.8c0.1,2.4,0.1,4.9,0.3,7.3c0.2,2.5,0.7,4.9,4,5.1c4.7,0.2,6.7-1.1,7.5-4.6c0.6-2.6-1-5.5,1.4-7.8
		c-0.8,3.3-0.1,6.7-0.5,10.1c-0.8,6.7-6.1,2.5-9.2,3.5c-2.3,0.7-4.5,0.2-4.3-3.3c0.2-3.4-0.1-6.7-0.2-10.1
		C234.6,536.9,234.9,536.9,235.2,536.8z"/>
	<path class="st8" d="M93.3,538.4c-1.9,1.2-3.2,2.9-4.1,4.9c-2.1,0.3-2.4-1.3-2.6-2.8c-0.1-1.3,0.6-2.1,2-2.6c3.1-1,5.8-4.2,9.5-2
		c-0.6,2.6-2.9,0.4-4.1,1.5C93.9,537.8,93.6,538.1,93.3,538.4z"/>
	<path class="st17" d="M103.8,538.5c0.3-0.3,0.5-0.7,0.8-1c0.2,0.1,0.5,0.3,0.7,0.4c1.5,1.5,1.4,3.5,1.4,5.4
		c0.1,7.6,0.1,15.2,0,22.8c0,2,0,4.1-1.8,5.6c0,0-0.2,0.3-0.2,0.3c-1.4-3.2-0.6-6.7-1.6-9.9c0.9-1.6,0.4-3.3,0-4.9
		c0.6-2.7,0.5-5.4,0-8.2c0-0.5,0-1.1,0-1.6C103.7,544.5,103,541.4,103.8,538.5z"/>
	<path class="st8" d="M104.8,536.8c1-1.3,2.4-1.6,4-1.3c0.9,0.2,2.1,0.5,2.7,0.1c5.1-3,9.7,0.6,14.6,1.1c-0.2,0.2-0.3,0.6-0.5,0.6
		C118.6,538.3,111.6,539.1,104.8,536.8L104.8,536.8z"/>
	<path class="st0" d="M23.3,548.9c-0.4-0.2-1.4-0.4-1.5-0.9c-0.9-2.7,3.6-3,2.9-6c-0.1-0.3,2.1,0.4,2.9,1.2c0.6,0.6,1,1.6,0.2,2.1
		C26.2,546.4,25.7,548.7,23.3,548.9z"/>
	<path class="st17" d="M104.8,536.8c7.1-0.1,14.2-0.1,21.2-0.2c0.5,0,1,0.1,1.6,0.1c2.1,2,2.1,4.2,0.7,6.6c-2.2-2.7-5.2-3.7-8.6-3.6
		c-3.2,0.1-6.5,0-9.7,0c-1.9,0-3.8-0.2-5.1-1.9c0,0-0.2-0.2-0.2-0.2C104.7,537.3,104.7,537,104.8,536.8z"/>
	<path class="st13" d="M294.5,552.4c2.5,0.4,2.6-1.3,2.6-3c0-2.8,0-5.6,0-8.5c0-1.5,0-3,1.3-4c0,6.8,0,13.6,0,21.4
		C296.1,556,295.4,554.1,294.5,552.4z"/>
	<path class="st0" d="M41.2,537.6c-1.5-0.3-4.1,0.5-3.9-1.5c0.2-2.6,3.4-2.4,5.8-4.4C42.4,534.5,41,535.8,41.2,537.6
		C41.2,537.6,41.2,537.6,41.2,537.6z"/>
	<path class="st0" d="M174,575.6c-1.2,1.4-2.2,2.8-3.6,3.8c-0.7,0.5-1.6-0.4-1.4-1.3c0.4-1.6,1.2-3.1,3-3.4
		C172.9,574.5,173.6,575,174,575.6z"/>
	<path class="st0" d="M233.7,628.8c-1.3-0.3-2.8-0.4-2.6-2c0.1-1.3,1.5-1.3,2.6-1.3c1.2,0,2.1,0.5,2,1.9
		C235.5,628.6,234.5,628.7,233.7,628.8z"/>
	<path class="st9" d="M342,545.1c-1.6-3.3-3.8-6.1-6.8-8.2C339.8,537.8,341.6,539.9,342,545.1z"/>
	<path class="st0" d="M248.2,650.6c-0.9,0-1.6-0.3-1.7-1.3c-0.2-1,0.6-1.4,1.5-1.4c0.9,0,1.6,0.4,1.6,1.4
		C249.4,650.2,248.9,650.6,248.2,650.6z"/>
	<path class="st17" d="M94.2,537.5c1.4-0.5,2.7-1,4.1-1.5c0.8,0.5,1.6,1.1,2.4,1.6c-0.1,2,0.5,4.1-1.3,5.7
		C99.9,537.6,99.9,537.6,94.2,537.5z"/>
	<path class="st18" d="M72.2,607.6c1.2,4-0.3,8.3,0.9,12.3C70.9,616,72.2,611.7,72.2,607.6z"/>
	<path class="st0" d="M83,529.2c1.2-0.8,2.2-1.1,3.1-0.1c0.4,0.4,0.3,1.1-0.2,1.4C84.8,531.1,84,530.4,83,529.2z"/>
	<path class="st13" d="M176.5,542.5c0,1.1,0,2.3-0.1,3.4c-1.2-1.5-2.5-2.9-2.8-4.9C174.9,541.1,175.8,541.6,176.5,542.5z"/>
	<path class="st0" d="M38.3,610.3c-0.1,0.7-0.5,1-1.1,0.7c-0.4-0.2-0.8-0.6-1-1.1c-0.2-0.6,0.2-1,0.8-0.9
		C37.8,609.1,38.2,609.6,38.3,610.3z"/>
	<path class="st8" d="M198.1,667.2c1.9-0.5,3.8-4.3,5.7,0C201.9,667.7,200,667.4,198.1,667.2z"/>
	<path class="st8" d="M75.9,537.7l-0.3,0.1l-0.2-0.1c0.2-0.9,0.2-2.1,1.5-1.7c1.1,0.3,1.5,1.3,0.9,2.5
		C76.9,539,76.6,537.9,75.9,537.7z"/>
	<path class="st16" d="M75.9,537.7c0.7,0.2,1.3,0.5,2,0.7c0.5,0.8,1.1,1.6,1.6,2.4c-0.3,0.9-0.6,1.8-0.9,2.7
		C77.7,541.6,76.8,539.7,75.9,537.7z"/>
	<path class="st10" d="M317.6,538.5c-1.4,1.4-2.7,2.7-4.1,4.1C314,540.3,315,538.5,317.6,538.5z"/>
	<path class="st0" d="M243.7,528.3c-0.2,0.2-0.4,0.5-0.7,0.6c-0.5,0.1-1.1-0.2-1.1-0.8c0-0.2,0.4-0.7,0.7-0.7
		C243.1,527.2,243.5,527.5,243.7,528.3z"/>
	<path class="st0" d="M180.6,526.5c0,0.8-0.4,1.2-1,1.3c-0.6,0.1-1-0.3-0.9-0.9c0.1-0.6,0.5-1,1.1-0.9
		C180.1,526,180.4,526.4,180.6,526.5z"/>
	<path class="st13" d="M173.8,540c0-0.2,0-0.4,0-0.6l0.2,0.3L173.8,540z"/>
	<path class="st0" d="M452.2,376.9c-0.8-0.3-4.2,0.7-1.4-2.5c1.5-1.7-0.4-2.6-1-3.8c-0.4-0.8-1-1.8-0.2-2.6c0.8-0.9,1.8-0.4,2.6,0
		c1,0.5,2,1,2.8,1.6c1.5,1.2,4.6,2.2,3.6,4.1C457.9,375.5,455.4,377.2,452.2,376.9z"/>
	<path class="st0" d="M459,320.6c-2.8,2.6-4.4,6.6-9.1,6.3C453.4,325.3,454.3,320.3,459,320.6z"/>
	<path class="st0" d="M237.6,354.6c-1.1-0.1-3.9-5.7-3.3-6.6c0.6-0.8,1.4-1,2.1-0.4c1.7,1.6,2,3.9,2.4,6.1
		C238.8,354.3,238.2,354.7,237.6,354.6z"/>
	<path class="st0" d="M449.7,390.9c-0.2,1.4-0.7,2.3-2.4,1.9c-1.8-0.4-4.6-2.4-6-4.8C444.4,388.5,446.8,390.7,449.7,390.9
		C449.7,390.9,449.7,390.9,449.7,390.9z"/>
	<path class="st0" d="M315.4,280.4c-0.7-0.1-1.3-0.5-1.2-1.3c0-0.8,0.6-1.2,1.3-1.2c0.9,0,1.6,0.5,1.4,1.5
		C316.8,280.1,316.1,280.4,315.4,280.4z"/>
	<path class="st0" d="M449,383.7c0,0.8-0.5,1.2-1.2,1.2c-0.7,0-1.4-0.2-1.5-1c-0.1-0.9,0.5-1.5,1.4-1.5
		C448.5,382.4,448.8,383,449,383.7z"/>
	<path class="st0" d="M444.9,399.3c-0.1,0.6-0.5,1-1.1,1c-0.9,0-1.5-0.5-1.5-1.4c0-0.6,0.6-0.8,1.2-0.7
		C444.2,398.2,444.8,398.4,444.9,399.3z"/>
	<path class="st0" d="M240.3,281.9c0,0.6-0.4,1-1,1c-0.6,0-1.1-0.3-1-0.9c0-0.3,0.5-0.7,0.8-0.8C239.7,281,240.1,281.3,240.3,281.9z
		"/>
	<path class="st0" d="M240.4,406.1c0,0,0.3,0.5,0.4,1c0.2,0.6-0.1,1.2-0.7,1.1c-0.4,0-1-0.5-1.2-0.9
		C238.7,406.8,239,406.3,240.4,406.1z"/>
	<path class="st0" d="M321.2,283.6c0.1,0.2,0.5,0.5,0.5,0.8c0,0.6-0.5,0.9-1.1,0.8c-0.3,0-0.7-0.5-0.7-0.7
		C320,283.9,320.5,283.7,321.2,283.6z"/>
	<path class="st0" d="M571.1,381.9c1.4,0.2,1.8,1.1,1.9,2.2c-0.3,0.1-0.6,0.4-0.7,0.3C571.2,383.9,570.4,383.3,571.1,381.9z"/>
	<path class="st6" d="M222.9,542.3c-2.2,1.6-4.7,0.9-7,0.8c-2.7-0.1-3.4,1-3.4,3.5c0,8.1-0.1,16.1-0.2,24.2
		c-0.8,0.1-1.6,0.1-2.4,0.2c-3.6,0.6-4.8-0.8-4.7-4.4c0.2-6.5-0.2-13,0-19.5c0.1-3-0.8-4.3-3.9-3.9c-0.9,0.1-1.9,0-2.8,0
		c-1.9-0.1-3.9,0.4-4-2.7c-0.1-2.5,0.7-3.9,3.3-3.8c6.2-0.5,12.5-0.7,18.7-0.1c2.2,0.4,5.1-2.1,6.5,2
		C223.5,540.2,222.5,541.2,222.9,542.3z"/>
	<path class="st10" d="M216.5,536.7c-6.2,0-12.5,0-18.7,0.1c5.5-1.7,11.2-0.2,16.8-1.3C215,535.4,215.8,536.3,216.5,536.7z"/>
	<path class="st10" d="M255.8,553c-0.1-2.4-0.6-4.9,0.7-7.2C256.7,548.2,257.9,550.8,255.8,553z"/>
	<path class="st3" d="M147.3,551.7c-1.8-0.5-5.4,1.9-5.6-3.3c-0.1-3.8,1-5.3,4.8-4.7c1.7,0.2,3.5,0,5.3,0.1c2.6,0.1,4.1,1.5,4.1,4.1
		c-0.1,2.3-1.6,3.7-3.9,3.8C150.5,551.7,149.2,551.7,147.3,551.7z"/>
	<path class="st19" d="M162.5,543.4c2.1,2.7,2.3,5.4-0.1,8.1C163.2,548.7,163,546.1,162.5,543.4z"/>
	<path class="st19" d="M159.3,539.3c1.9,0.7,4.4,1,3.2,4.1C161.4,542.1,160.4,540.7,159.3,539.3z"/>
	<path class="st14" d="M124.7,643.6c1,2.3,1.7,3.8,2.4,5.5c2,5.2,1.3,6-4.3,5.5c-1.7-0.2-2.5-0.5-1.8-2.5
		C121.9,649.4,122.7,646.7,124.7,643.6z"/>
	<path class="st7" d="M104.8,537.7c6.7-0.1,13.5-0.1,20.2-0.2c4.8-0.1,2.8,3.5,3.2,5.8c-4.4,1.1-8.9,0.4-13.4,0.5
		c-3,0-3.2,1.6-3.2,3.9c-0.1,2.3,0.5,3.6,3.1,3.5c2.7-0.1,5.4,0,8.2,0c2.2,0,4.7-0.6,4.6,3.2c0,3.6-2.3,3-4.4,3
		c-2.7,0-5.4,0.2-8.1,0c-3-0.2-3.4,1.4-3.3,3.8c0.1,2.1-0.5,4.5,3.1,4.3c3.4-0.2,6.8,0.1,10.2,0c2,0,3.5,0.2,3.4,2.7
		c-0.1,2.2-0.4,3.6-3.1,3.6c-6.8-0.2-13.6-0.1-20.4-0.1C104.4,560.3,104.3,549,104.8,537.7z"/>
	<path class="st16" d="M99,546.5c0.7,2.8,1.8,5.7-2.5,6.6C96.5,550.6,96.7,548.1,99,546.5z"/>
	<path class="st19" d="M166,543.3c-1.7-1.6-1.9-3.7-0.5-5.3c1.7-1.9,4-1.8,6.1-0.1C166.5,536.8,166.5,536.8,166,543.3z"/>
	<path class="st13" d="M177.3,547.4c1.4-0.3,2.7-0.6,4.1-0.8c0.1,1.5-0.8,3-1.9,3.3C178.2,550.2,177.8,548.4,177.3,547.4z"/>
	<path class="st13" d="M182.2,545.5c0.2-2.3,1.2-4.1,3.2-5.5C184.9,542.2,183.7,544,182.2,545.5z"/>
	<path class="st16" d="M103.8,538.5c-0.1,3,0.6,6-0.7,8.9C102.6,544.4,102.2,541.4,103.8,538.5z"/>
	<path class="st16" d="M103.1,549c1.1,2.7,1.1,5.4,0,8.2C103.1,554.5,103.1,551.8,103.1,549z"/>
</g>
</svg>
