<?xml version="1.0" encoding="utf-8"?>
<!-- Generator: Adobe Illustrator 21.1.0, SVG Export Plug-In . SVG Version: 6.00 Build 0)  -->
<svg version="1.1" id="Layer_1" xmlns="http://www.w3.org/2000/svg" xmlns:xlink="http://www.w3.org/1999/xlink" x="0px" y="0px"
	 viewBox="0 0 700 965" style="enable-background:new 0 0 700 965;" xml:space="preserve">
<style type="text/css">
	.st0{fill:#FEFEFE;}
	.st1{fill:#020000;}
	.st2{fill:#030101;}
	.st3{fill:#FDFDFD;}
</style>
<g>
	<path class="st0" d="M351.2,308.2c115.1,0,230.2,0,345.3-0.1c4,0,4.8,0.8,4.8,4.8c-0.1,113.6-0.1,227.1,0,340.7
		c0,4-0.8,4.8-4.8,4.8c-230.2-0.1-460.4-0.1-690.7,0c-4,0-4.8-0.8-4.8-4.8c0.1-113.6,0.1-227.1,0-340.7c0-4,0.8-4.8,4.8-4.8
		C120.9,308.2,236.1,308.2,351.2,308.2z"/>
	<path class="st1" d="M270.8,359.5c8.9,0,17.9,0.1,26.8-0.1c3.2-0.1,4.4,0.7,4.3,4.2c-0.2,8.9-0.2,17.9,0,26.8
		c0.1,3.4-1,4.7-4.3,4.1c-4.8-0.9-5.7,1.3-5.6,5.7c0.2,16.9,0,33.8,0.2,50.7c0,3.9-1.1,4.9-4.9,4.8c-11.5-0.2-22.9-0.3-34.4,0
		c-4.1,0.1-4.7-1.4-4.6-5c0.2-17.3,0-34.6,0.2-51.9c0-3.6-0.9-5.1-4.5-4.4c-3.5,0.6-4.7-0.6-4.6-4.4c0.3-8.9,0.2-17.9,0-26.8
		c-0.1-3.1,1-4,4-3.9C252.5,359.6,261.7,359.5,270.8,359.5z"/>
	<path class="st1" d="M432.1,359.5c8.9,0,17.9,0.1,26.8-0.1c3-0.1,4,0.8,4,3.9c-0.2,8.9-0.3,17.9,0,26.8c0.1,3.7-1.2,5-4.6,4.3
		c-4.6-0.9-5.3,1.4-5.3,5.5c0.2,16.9-0.1,33.8,0.2,50.7c0.1,4.2-1.2,5.2-5.2,5.1c-11.1-0.3-22.1-0.3-33.2,0
		c-4.2,0.1-5.6-0.7-5.5-5.3c0.3-16.9,0-33.8,0.2-50.7c0-3.7-0.3-6.1-4.8-5.3c-3.3,0.6-4.3-0.7-4.3-4.1c0.2-8.9,0.2-17.9,0-26.8
		c-0.1-3.4,1.1-4.2,4.3-4.1C413.9,359.6,423,359.5,432.1,359.5z"/>
	<path class="st1" d="M483.8,517.6c15.2-17.6,39.8-14.5,46.2,0.2c8.7-11.4,20.2-14.2,33.5-11.2c8.9,2,14.4,7.5,15.5,16.7
		c1.5,13.2,0.4,26.4,0.6,39.6c0.1,5.6-0.2,11.3,0.1,16.9c0.2,3.4-1,4.6-4.3,4.2c-1.3-0.2-2.7-0.2-4.1,0c-3.6,0.5-4.6-0.8-4.5-4.4
		c0.2-13.8,0.1-27.6,0.1-41.4c0-1.4,0-2.7,0-4.1c-0.2-12-4.3-17-14.1-17.3c-12-0.3-20.3,6.3-20.6,17.3c-0.4,14.8-0.6,29.6,0,44.3
		c0.3,6.6-3.3,5.4-7.1,5.6c-4,0.2-6.2-0.2-6-5.3c0.4-14.2,0.2-28.4,0.1-42.6c0-13.9-3.7-19.1-13.7-19.3
		c-11.6-0.2-20.9,8.5-21.1,20.2c-0.3,14-0.3,28,0.1,42c0.2,5-2.1,5.3-5.8,4.9c-3.2-0.3-7.3,1.8-7.2-4.8c0.4-22.2,0.3-44.3,0-66.5
		c-0.1-4.5,1.3-5.7,5.5-5.4c3.6,0.3,7.8-0.8,6.7,5.3C483.4,513.9,483.7,515.3,483.8,517.6z"/>
	<path class="st1" d="M351.5,399c9.5,0,19,0.1,28.5-0.1c3-0.1,4,0.7,3.9,3.8c-0.2,9.9-0.3,19.8,0,29.7c0.1,4.1-1.4,5.2-5,4.6
		c-5.2-0.9-6.9,1.1-6.7,6.5c0.4,12,0.1,12-11.8,12c-8.7,0-17.5-0.2-26.2,0.1c-3.7,0.1-4.9-1-4.4-4.6c0.2-1.5,0-3.1,0-4.7
		c0-8.3,0-8.4-8.4-9.3c-2.3-0.3-2.9-1.1-2.9-3.3c0.1-10.5,0.1-21,0-31.4c-0.1-3,1.2-3.5,3.8-3.5C332.1,399.1,341.8,399,351.5,399z"
		/>
	<path class="st1" d="M439.5,575c-10.3,10-22.2,12.3-35.4,9.6c-9.6-1.9-15.3-8.2-16.4-17.9c-1.2-9.8,3-17.9,11.7-22.1
		c7.3-3.5,15.3-4.3,23.1-5.6c3.1-0.5,6.2-0.8,9.2-1.6c3.9-1,7.5-2.7,7.8-7.5c0.4-4.8-1.1-9.2-5.7-11.2c-8.5-3.6-17-3.3-25.2,1.2
		c-2.3,1.3-3.3,3.7-4.4,6c-0.8,1.6,0.7,4.5-2.1,4.8c-3.4,0.4-7,0.3-10.4-0.1c-1.6-0.2-0.8-2.4-0.6-3.5c1.5-9.4,6.8-16,15.8-19.2
		c10.2-3.6,20.6-3.7,31-0.8c9.7,2.7,14,8.6,14.2,19.4c0.2,13-0.1,26,0.2,39.1c0.1,4-1.5,9.7,6.3,8.7c2.3-0.3,1.4,2.4,1.3,3.6
		c-0.3,2.4,1.6,5.4-2.4,6.8C448.9,587.8,442.6,584.7,439.5,575z"/>
	<path class="st1" d="M52.5,549.5c-8,0-16,0.3-23.9-0.1c-4.3-0.2-4.7,1.4-4.3,5c1.2,10.1,8.1,18.1,17.8,19.6
		c9.7,1.5,20.7,0.3,24.9-11.8c0.8-2.2,10.7-3.9,12.4-2.2c1.3,1.2,0.1,2.6-0.2,3.7c-3.3,12.9-14.7,21.2-29.7,21.8
		c-26.1,1.1-43.2-20-38.5-47.5c4-23.5,22.1-36.6,44.2-31.8c12.5,2.7,22.4,14.1,25.2,29c2.6,14.1,2.6,14.1-11.6,14.1
		C63.3,549.5,57.9,549.5,52.5,549.5z"/>
	<path class="st1" d="M308.3,549.5c-8.2,0-16.3,0.1-24.5-0.1c-2.9-0.1-4.1,0.5-3.8,3.8c1.2,17.2,21.5,27.5,36.2,18.2
		c2.7-1.7,4.6-4.1,6-7c1.8-3.9,9.2-6.6,12.8-4.7c2.1,1.1,0.7,2.7,0.4,4c-3.7,13.2-14.5,21.2-29.6,21.9
		c-25.1,1.1-40.8-16.7-38.9-43.9c1.8-25,21-40.3,44.4-35.4c13.7,2.9,23.9,16,25.9,33c0,0.2,0,0.4,0,0.6c0.9,9.5,0.9,9.5-8.4,9.5
		C321.9,549.5,315.1,549.5,308.3,549.5z"/>
	<path class="st1" d="M659.9,585.8c-8.1-0.3-15.4-1.1-22-5c-6.7-3.9-10-10.1-11.2-17.5c-0.4-2.5,0.2-3.6,2.9-3.4
		c1.9,0.2,3.9,0.2,5.8,0c2.4-0.2,3.7,0.3,4.2,3.2c1,5.2,4.7,8.4,9.7,9.9c6.8,2.1,13.8,2.1,20.7,0.2c4.7-1.3,7.9-4,8.2-9.3
		c0.3-5.1-2.5-7.8-6.8-9.8c-6.4-3-13.4-4-20.1-5.6c-4.5-1.1-9-2.3-13.1-4.6c-12.7-7.1-13.7-23.7-2.1-32.4
		c10.3-7.7,31.9-8.2,42.7-0.9c5.7,3.9,8.2,9.6,9.3,16.1c0.4,2.3-0.4,3.1-2.7,3c-4.9-0.1-9.3,0.9-12-6c-3.4-8.4-23.3-9.6-29.7-2.8
		c-3.3,3.6-2.9,8.4,1.2,11.7c3.9,3.1,8.7,4,13.4,5.3c6.4,1.7,12.9,2.9,19.1,5c8.1,2.8,13.7,8.1,14.3,17.2
		c0.6,9.7-3.5,16.8-12.2,21.4C673.2,584.9,666.2,585.3,659.9,585.8z"/>
	<path class="st1" d="M106.4,519.4c8.7-12.6,19.8-15.6,32.9-13.1c10.8,2.1,17.2,8.7,18.2,19.7c1.7,18.2,0.3,36.5,0.7,54.8
		c0.1,2.6-1.1,3.2-3.5,3.3c-9.2,0.6-9.2,0.7-9.2-8.5c0-13.4,0-26.8,0-40.2c0-10.5-3.2-16-10.4-18c-9.2-2.6-19.8,1.5-24.4,9.3
		c-2.4,4.1-3.4,8.6-3.4,13.4c0,13-0.1,26,0,39.1c0,3.5-0.5,5.2-4.6,5c-8.2-0.2-8.2,0.1-8.2-8.3c0-21.2,0.3-42.4-0.2-63.6
		c-0.1-6.1,3.2-4.6,6.5-4.9c3.8-0.3,6.6,0.1,5.6,5C106.1,514.1,106.4,515.9,106.4,519.4z"/>
	<path class="st1" d="M182,546.2c0-7.8-0.2-15.5,0.1-23.3c0.1-3.4-0.7-5.2-4.4-4.5c-1.1,0.2-2.4-0.2-3.5,0.1
		c-4.6,0.9-5.4-1.3-5.3-5.4c0.1-3.8,0.2-6,5.1-5.7c7.9,0.5,8,0.1,8-7.7c0-2.3,0-4.7,0-7c0-8.1,3.1-10.3,11-8.3
		c2.4,0.6,1.7,2.2,1.7,3.5c0.1,5,0.2,10.1,0,15.1c-0.2,3.5,0.8,5.1,4.5,4.5c1.5-0.2,3.1,0.2,4.6-0.1c5.2-0.9,6.5,1.1,6.3,6.2
		c-0.1,4.3-1.5,5-5.3,4.9c-10.1-0.2-10.1,0-10.1,9.8c0,11.6,0,23.3,0,34.9c0,9,0.6,9.8,9.5,9.6c4.2-0.1,5.9,0.6,5.9,5.5
		c0.1,5.2-1.7,5.8-6.3,5.8c-19.7-0.2-22-2.3-22-22.2C182,556.7,182,551.4,182,546.2z"/>
	<path class="st1" d="M235.5,523.3c5.4-9.6,11.5-16.1,21.3-17.3c2.3-0.3,6-3.3,6.9,1.7c1.6,8.3,0.2,11-5.1,11.5
		c-12.7,1.2-20.4,9-21.9,22.3c-1.3,12.4-0.8,24.8-0.5,37.2c0.2,6.2-3.3,4.9-6.9,5.2c-4.1,0.3-6.1-0.4-6-5.4
		c0.3-22.1,0.4-44.3,0-66.4c-0.1-6,3.3-4.6,6.5-4.8c3.8-0.3,6.4,0.2,5.7,5.1C235.2,515.4,235.5,518.5,235.5,523.3z"/>
	<path class="st1" d="M611.8,545.7c0,11.3-0.3,22.5,0.1,33.8c0.2,5.7-3.4,4.4-6.4,4.4c-2.9,0-6.5,1.6-6.5-4.3
		c0.3-22.7,0.2-45.4,0-68.1c0-3.4,1.1-4.1,4.3-4.1c8.4,0,8.4-0.2,8.4,8.1C611.8,525.6,611.8,535.7,611.8,545.7z"/>
	<path class="st2" d="M599.2,485c0.5-1.9-1.4-5.6,1.1-6.5c3.1-1.1,6.8-0.4,10.3-0.3c1.5,0.1,1.2,1.7,1.2,2.8c0,1.9-0.2,3.9,0.1,5.8
		c0.9,5.6-1.2,7.4-6.8,6.8C599.2,493.2,599.2,493.6,599.2,485z"/>
	<path class="st3" d="M439.5,544.8c0,3-0.2,5.2,0,7.3c1.9,19.8-17.9,25-30.8,21.4c-4.2-1.2-7-4.1-7.4-8.7c-0.6-5.4,1.3-9.5,6-12.2
		c4.7-2.7,10-3.1,15.1-3.8C428,547.9,433.6,547.4,439.5,544.8z"/>
	<path class="st0" d="M46,538.2c-5.8,0-11.6-0.3-17.4,0.1c-4.6,0.3-4.7-1.7-3.8-5.1c2.6-10.2,11-16.5,21.8-16.4
		c10.1,0.2,18.5,7.1,20.8,17c0.7,3.1,0.4,4.6-3.4,4.4C58,538,52,538.2,46,538.2z"/>
	<path class="st0" d="M302.1,538.2c-6,0-12-0.2-18,0.1c-4.1,0.2-4.3-1.2-3.4-4.7c2.9-10.8,10.9-17,22-16.8
		c10.3,0.2,18.6,7.4,20.8,17.7c0.6,2.8,0.3,3.8-2.8,3.7C314.5,538.1,308.3,538.2,302.1,538.2z"/>
</g>
</svg>
