<?xml version="1.0" encoding="utf-8"?>
<!-- Generator: Adobe Illustrator 21.1.0, SVG Export Plug-In . SVG Version: 6.00 Build 0)  -->
<svg version="1.1" id="Layer_1" xmlns="http://www.w3.org/2000/svg" xmlns:xlink="http://www.w3.org/1999/xlink" x="0px" y="0px"
	 viewBox="0 0 900 596" style="enable-background:new 0 0 900 596;" xml:space="preserve">
<style type="text/css">
	.st0{fill:#FDFDFD;}
	.st1{fill:#030303;}
</style>
<g>
	<path class="st0" d="M451.2,394.1c-149.5,0-299,0-448.4,0c-1.4,0-1.7-0.3-1.7-1.7c0-62.2,0-124.3,0-186.5c0-1.4,0.3-1.7,1.7-1.7
		c299,0,597.9,0,896.9,0c1.4,0,1.7,0.3,1.7,1.7c0,62.2,0,124.3,0,186.5c0,1.4-0.3,1.7-1.7,1.7C750.1,394.1,600.7,394.1,451.2,394.1z
		 M451.1,302.3C451.1,302.3,451.1,302.3,451.1,302.3c141.8,0,283.5,0,425.3,0c0.5,0,1,0,1.5,0c0.8,0.1,1.1-0.2,1-1
		c-0.1-1.4,0-2.8,0-4.2c0-2.4,0-2.4-2.4-2.4c-282.4,0-564.9,0-847.3,0c-1.8,0-4.3-0.6-5.3,0.3c-1.2,1.1-0.2,3.6-0.4,5.4
		c-0.2,1.6,0.4,2,2,2c24.4-0.1,48.7-0.1,73.1-0.1C216,302.3,333.6,302.3,451.1,302.3z M348.1,238.8c0,0.9,0,1.2,0,1.6
		c0,10.1,0,20.2,0,30.3c0,4.3-0.9,5.3-5.1,6c-2.3,0.4-4.5,0.3-6.8,0.4c-0.5,0-1-0.1-1.1,0.6c-0.1,0.9,0.6,0.7,1.1,0.7
		c0.2,0,0.5,0,0.7,0c24.2,0,48.3,0,72.5,0c0.5,0,1.5,0.5,1.5-0.7c0-1.1-1-0.7-1.6-0.7c-3.4-0.1-6.7-0.1-10-1.1
		c-0.5-0.2-1.1-0.2-1.5-0.8c-1.3-1.7,0.2-2.8,1-3.7c2.6-2.7,5.4-5.1,8.2-7.6c0.7-0.6,1.5-1,2.5-1c14.2,0,28.4,0,42.6,0
		c1,0,1.8,0.3,2.4,1c2.4,2.6,5,5,7.5,7.5c0.8,0.8,1.9,1.8,1.5,3c-0.4,1.4-1.7,1.7-3,2c-0.4,0.1-0.8,0.1-1.3,0.2
		c-2.1,0.1-4.1,0.3-6.2,0.4c-0.6,0-1.1,0.1-1.1,0.9c0.1,0.8,0.7,0.5,1.1,0.6c0.1,0,0.2,0,0.4,0c14.3,0,28.6,0,42.9,0
		c0.2,0,0.5,0,0.7,0c0.4,0,0.7-0.1,0.7-0.6c0-0.5-0.1-0.8-0.7-0.9c-0.7,0-1.3,0-2-0.1c-4.5-0.2-8.9-0.9-12.7-3.7
		c-1.5-1.1-3-2.1-4.2-3.4c-4.2-4-8.3-8.2-12.4-12.3c-2.2-2.2-4.5-4.2-6.7-6.4c-4.1-4-8.1-8-12.1-12.1c-2.5-2.5-5-4.9-7.4-7.4
		c-2.3-2.4-5.1-2.4-7.5,0c-4.4,4.3-8.8,8.5-13.3,12.7c-2.1,2-4.3,4-6.5,6c-4.5,4.3-9,8.5-13.4,12.8c-2.2,2.2-4.4,4.4-6.7,6.5
		c-2.6,2.5-5.5,4.9-8.9,5.9c-5.8,1.6-11.8,1.8-17.8,0.8c-2.6-0.4-3.7-1.8-4.1-4.4c-0.1-0.8-0.2-1.6-0.2-2.4c0-10,0-19.9,0-29.9
		c0-1,0.1-2.1,0.3-3.1c0.3-2.1,1.4-3.2,3.5-3.6c2.6-0.4,5.2-0.5,7.9-0.6c0.6,0,1.4,0.4,1.4-0.8c0-1.1-0.8-0.9-1.4-0.9
		c-8,0-15.9,0-23.9,0c-0.8,0-1.4,0.2-1.9,0.8c-1.9,2.2-3.7,4.4-5.6,6.6c-4.7,5.2-9.4,10.5-14,15.8c-3.9,4.4-7.9,8.7-11.7,13.3
		c-0.5,0.7-0.9,0.6-1.4,0c-1.9-2.2-3.7-4.4-5.7-6.5c-3.6-4-7.3-7.9-10.8-11.9c-5.1-5.7-10.2-11.5-15.4-17.3
		c-0.4-0.5-0.9-0.7-1.6-0.7c-8.1,0-16.2,0-24.2,0c-0.7,0-1.2,0-1.2,0.9c0,0.9,0.6,0.8,1.1,0.8c2.1,0.1,4.2,0.1,6.2,0.3
		c4,0.5,5.8,2.1,5.8,5.7c0.1,10.8,0,21.5,0,32.3c0,3.7-1.7,5.2-4.9,5.6c-8,0.9-15.9,0.6-23.6-1.7c-4.6-1.3-8.8-3.4-13-5.7
		c-3-1.7-6-3.5-9.1-5c-4.4-2.2-8.5-4.8-12.9-6.8c-0.9-0.4-1.6-0.9-2.2-1.7c5-0.8,9.8-1.1,14.6-2.4c4.4-1.2,8.7-2.2,12-5.7
		c2.6-2.7,2.3-6.2-0.5-8.8c-2.2-2-4.9-2.8-7.4-3.9c-3.9-1.7-8.1-2-12.2-2.8c-3.5-0.7-7.2-0.7-10.8-0.8c-19.7-0.4-39.4-0.3-59.1-0.2
		c-0.6,0-1.4-0.3-1.4,0.9c0,1.2,0.8,0.8,1.4,0.8c3.4,0,6.9,0,10.2,0.6c4.4,0.8,5.7,2.2,5.7,6.8c0,9.9,0,19.8,0,29.7
		c0,0.6-0.1,1.2-0.2,1.8c-0.4,3-1.5,4.1-4.4,4.8c-3.7,0.9-7.5,0.8-11.3,0.8c-0.6,0-1.5-0.4-1.5,0.8c0,1.1,0.9,0.6,1.4,0.6
		c16.2,0,32.3,0,48.5,0c0.5,0,1.6,0.5,1.5-0.7c0-1.1-1-0.7-1.6-0.7c-3.8-0.1-7.7,0.2-11.5-0.8c-2.4-0.6-3.8-2.2-4.1-4.7
		c-0.4-4.6,0-9.3-0.1-13.9c0-1.2,0.7-1.1,1.4-1.1c2.9,0,5.9,0,8.8,0c1.4,0,2.6,0.3,3.9,0.9c2.9,1.5,5.7,3.2,8.6,4.7
		c3.3,1.7,6.5,3.5,9.8,5.3c4.2,2.3,8.5,4.4,12.7,6.8c1.9,1.1,3.9,2.1,5.9,3.2c0.9,0.5,1.6,1.1,2.7,1.1c20.1,0,40.1,0,60.2,0
		c0.5,0,1.3,0.4,1.3-0.7c0-1-0.8-0.7-1.4-0.7c-2.1-0.1-4.3,0.1-6.4-0.3c-4.1-0.8-5.3-2.1-5.3-6.4c0-9.9,0-19.8,0-29.7
		c0-0.5,0-0.9,0-1.3c0.5-0.2,0.6,0,0.8,0.2c2.5,2.8,5.2,5.6,7.6,8.5c4.5,5.3,9.3,10.5,14,15.6c1.8,2,3.6,3.9,5.3,5.9
		c2.4,2.9,5.1,5.6,7.5,8.5c0.7,0.8,2.4,0.9,3.1,0c2.4-2.7,4.9-5.3,7.3-8c4.5-5.3,9.2-10.3,13.8-15.5c1.8-2,3.7-4,5.5-6
		C342.3,245.4,345,242.3,348.1,238.8z M655.6,241.6c1.6,0.3,2.6,1.2,3.8,1.8c5.6,2.5,11,5.4,16.5,8.1c3.7,1.9,7.5,3.7,11.3,5.5
		c3.4,1.7,6.9,3.4,10.3,5.1c3.8,1.8,7.5,3.6,11.3,5.5c3.4,1.7,6.9,3.4,10.3,5.1c3.8,1.9,7.7,3.6,11.4,5.6c0.9,0.5,1.9,0.8,3,0.9
		c1.5,0.1,1.9-0.2,1.9-1.8c-0.1-12.2,0-24.4,0-36.5c0-1.1,0-2.2,0.1-3.3c0.4-2.8,1.2-3.6,4-4.2c3.6-0.7,7.3-0.6,11-0.7
		c0.6,0,1.6,0.5,1.5-0.9c0-1.3-1-0.8-1.6-0.8c-12.5,0-25,0-37.4,0c-0.6,0-1.6-0.5-1.6,0.9c0,1.3,1,0.8,1.6,0.8
		c3.7,0,7.5-0.1,11.1,0.9c2.9,0.8,3.5,1.4,3.5,4.5c0.1,5.3,0.1,10.5,0.2,15.8c0,4.1,0,8.2,0,12.4c-1.9-0.5-3.3-1.5-4.9-2.2
		c-3.7-1.7-7.3-3.6-10.9-5.4c-3.7-1.9-7.4-3.7-11.1-5.5c-5.1-2.6-10.3-5.2-15.4-7.7c-3.6-1.8-7.3-3.7-11-5.4c-4.9-2.3-9.5-5-14.5-7
		c-0.3-0.1-0.6-0.2-0.8-0.4c-1.2-1.3-2.7-1.5-4.3-1.5c-4.5,0-8.9,0-13.4,0c-18.6,0-37.2,0-55.8,0c-0.6,0-1.6-0.4-1.5,0.9
		c0.1,1.2,0.9,0.7,1.5,0.8c3.7,0.1,7.3,0,10.9,0.9c3.1,0.8,3.7,1.5,3.8,4.7c0.1,2.7,0.1,5.4,0.1,8.1c0,6.6,0,13.3,0,20.2
		c-3.7-1.8-7.1-3.6-10.6-5.3c-5.5-2.8-11-5.5-16.5-8.3c-3.3-1.6-6.5-3.3-9.8-4.9c-5.6-2.8-11.3-5.5-16.9-8.4c-2.7-1.4-5.5-2.5-8.1-4
		c-2.1-1.2-4.5-1.8-6.5-3.2c-1.7-1.1-3.3-1.6-5.2-1.6c-8.7,0-17.4,0-26.1,0c-0.8,0-1.6,0-2.4,0c-0.6,0-1.1,0-1.1,0.8
		c0,0.7,0.3,1,1,0.9c0.5,0,1.1,0,1.7,0c6.5,0.3,13,0.6,18.9,3.9c1,0.6,1.5,1.1,1.5,2.3c-0.1,10.2,0,20.3,0,30.5
		c0,0.8-0.1,1.6-0.2,2.4c-0.4,2.9-1.3,3.8-4.1,4.5c-3.6,0.8-7.2,0.8-10.8,0.8c-0.6,0-1.3-0.3-1.3,0.8c0,1.1,0.8,0.6,1.3,0.6
		c12.4,0,24.8,0,37.3,0c0.5,0,1,0,1.5,0c0.3,0,0.6-0.1,0.6-0.5c0-0.4,0-0.8-0.5-0.8c-0.5-0.1-1.1-0.1-1.6-0.1
		c-3.3,0-6.6,0.1-9.9-0.7c-2.9-0.7-4-1.9-4.3-4.8c-0.4-3.7-0.1-7.5-0.2-11.2c0-6.3,0-12.6,0-19c1.5,0.4,2.6,1.2,3.8,1.8
		c5.7,2.6,11.3,5.5,16.9,8.4c3.5,1.8,7.1,3.5,10.6,5.2c5.8,3,11.7,5.8,17.6,8.6c2.6,1.3,5.3,2.3,7.8,3.8c1.8,1,3.7,1.7,5.5,2.6
		c4.4,2.2,8.8,4.5,13.3,6.7c0.7,0.4,1.5,0.5,2.3,0.6c1.6,0.2,2.1-0.3,2.1-2.1c-0.1-12.7-0.1-25.5,0-38.2c0-4,1.4-5.3,4.7-5.7
		c4.6-0.6,9.2-0.8,13.7-0.5c5.9,0.4,11.9,0.1,17.4,3c3.4,1.8,3.5,1.5,3.6,5.3c0,9.8,0,19.6,0,29.4c0,2-0.3,3.9-1.9,5
		c-1.2,0.9-2.9,0.9-4.4,1.2c-3,0.5-6,0.4-9,0.4c-0.5,0-1,0-1,0.7c0,0.8,0.5,0.7,1,0.7c0.2,0,0.5,0,0.7,0c12.4,0,24.7,0,37.1,0
		c0.4,0,0.7,0,1.1,0c0.4,0,0.7-0.2,0.6-0.6c0-0.4,0-0.8-0.6-0.8c-0.7,0-1.5,0-2.2,0c-3.2,0-6.5,0.1-9.7-0.8
		c-2.4-0.7-3.7-2.2-3.8-4.7c-0.1-3-0.1-6-0.1-9C655.6,255.6,655.6,248.7,655.6,241.6z M409.9,343.8c5.8-0.7,11.6-1.1,17.2-2.9
		c2.7-0.9,5.4-2,7.5-3.8c3.7-3.1,4-6.7-0.1-10.2c-3.1-2.7-7-3.7-10.8-4.6c-6.8-1.6-13.8-2.2-20.7-2.3c-18-0.2-36.1-0.1-54.1-0.1
		c-0.5,0-1.3-0.4-1.4,0.6c-0.1,1.2,0.9,0.8,1.4,0.8c3.1,0.1,6.1,0,9.2,0.4c4.5,0.6,6.1,2.7,6.1,7c0,6.5,0,13,0,19.5
		c0,3.7,0,7.5,0,11.2c-0.1,2.7-1.3,4.2-3.9,4.9c-3.6,1-7.4,0.8-11.1,1c-0.6,0-1.6-0.5-1.7,0.8c-0.1,1.3,0.9,0.9,1.5,0.9
		c15.5,0,31,0,46.4,0c0.5,0,1.4,0.5,1.5-0.7c0.1-1.2-0.8-1-1.5-1c-3.3-0.1-6.6,0.1-9.9-0.5c-3.9-0.7-5.2-2.1-5.3-6.1
		c-0.1-4.1,0-8.2-0.1-12.3c0-1,0.2-1.3,1.2-1.2c3.1,0.1,6.1,0.1,9.2,0c1.1,0,2.2,0.1,3.1,0.7c2.5,1.5,5.1,2.8,7.6,4.3
		c3.1,1.9,6.4,3.5,9.5,5.4c4.1,2.4,8.3,4.5,12.4,6.9c1.8,1,3.7,1.8,5.3,3c1.4,1,2.7,1.4,4.3,1.4c5.6,0,11.1,0,16.7,0
		c3.7,0,7.3,0,11,0c0.6,0,1.3,0.3,1.3-0.8c0.1-1-0.6-1-1.3-1c-0.5,0-1.1-0.1-1.6-0.1c-6.8,0-13.2-1.5-19.5-4.1
		c-0.3-0.1-0.6-0.2-0.8-0.3c-5.2-3-10.5-5.9-15.7-8.9c-4-2.2-7.8-4.9-12-6.7C410.4,344.8,410.2,344.4,409.9,343.8z M816.9,230
		c-2.9-0.1-7.2,0.1-11.5,0.6c-4.3,0.4-8.5,0.9-12.7,1.9c-6.5,1.5-12.8,3.3-18.8,6.2c-4,1.9-7.6,4.3-10.4,7.8
		c-5,6.1-3.2,14.1,1.9,19.1c3.2,3.1,7.1,5.3,11.1,7.1c6.3,2.7,13,4.1,19.7,5.4c2.8,0.6,5.7,0.8,8.6,0.9c12.1,0.7,24.1,0.9,36.1-1.6
		c6.4-1.3,12.6-3.1,18.6-5.7c4.8-2.1,9-4.8,12.5-8.7c3.1-3.5,4-9.5,2-13.7c-2.1-4.6-5.9-7.3-10-9.7c-3.5-2.1-7.4-3.5-11.2-4.8
		c-3.7-1.3-7.6-2.2-11.4-3C833.7,230.3,826,230,816.9,230z M820.7,367.6c5-0.2,13.1-0.2,21.2-2.1c6.6-1.5,13.1-3.1,19.2-6.2
		c4.2-2.1,8-4.6,10.8-8.5c2.7-3.6,3.4-9.2,1.1-13.5c-2.4-4.6-6.6-7.2-10.8-9.7c-4.1-2.4-8.7-3.7-13.2-5.2c-3.7-1.3-7.7-1.9-11.5-2.4
		c-13.3-1.7-26.7-1.9-40.1,0.5c-7.5,1.4-14.8,3-21.7,6.3c-4.1,1.9-7.9,4.3-10.9,7.8c-5.4,6.2-3.7,14.1,1.2,19.1
		c3.1,3.1,6.8,5.3,10.7,7c6,2.7,12.5,4.3,18.9,5.4C802.9,367.5,810.2,367.7,820.7,367.6z M657.9,330.3c0.6-0.2,1,0,1.3,0.3
		c2.2,1.8,5,2.5,7.5,3.8c3.3,1.8,6.7,3.4,10.1,5.1c5.5,2.7,11,5.4,16.4,8.2c3.3,1.7,6.6,3.4,9.9,5c6.4,3,12.6,6.3,18.9,9.4
		c2.7,1.3,5.5,2.6,8.1,4.1c1.4,0.8,3,1.6,4.8,1.6c1.4,0,1.8-0.3,1.8-1.8c-0.1-10.2,0-20.3,0-30.5c0-2.8,0-5.6,0-8.4
		c0-1.7,0.6-2.9,2.1-3.9c2-1.3,4.1-1.4,6.2-1.6c2.2-0.2,4.5-0.1,6.8-0.1c0.5,0,1.1,0.1,1.1-0.8c0-0.9-0.7-0.6-1.2-0.7
		c-0.1,0-0.2,0-0.4,0c-12.4,0-24.8,0-37.3,0c-0.3,0-0.6,0-0.9,0c-0.3,0-0.6,0.2-0.6,0.5c0,0.4,0,0.8,0.5,0.8c0.4,0.1,0.9,0,1.3,0
		c3.7,0.1,7.4-0.1,10.9,0.9c1.8,0.5,3,1.7,3.4,3.6c0.4,1.8,0.2,3.5,0.2,5.3c0,7.9,0,15.8,0,23.7c-0.3,0-0.5,0-0.7,0
		c-3.7-1.6-7.2-3.5-10.8-5.3c-3.5-1.8-6.9-3.5-10.4-5.2c-5.5-2.7-10.9-5.4-16.4-8.2c-3.6-1.8-7.2-3.6-10.8-5.4
		c-4.8-2.3-9.3-5-14.3-7c-0.4-0.2-0.8-0.5-1.2-0.7c-2.8-1.2-5.3-3.1-8.7-3.1c-8.8,0.2-17.6,0.1-26.4,0.1c-0.4,0-0.7,0-1.1,0
		c-0.4,0-0.7,0.1-0.7,0.6c0,0.5,0.1,0.8,0.7,0.9c0.5,0,1,0.1,1.5,0c6.5-0.2,12.6,1.4,18.6,3.8c1.1,0.4,1.8,1,1.8,2.3
		c0,10.4-0.1,20.8,0,31.2c0,4.2-1.7,5.5-5.2,6.1c-3.2,0.6-6.5,0.4-9.7,0.5c-0.6,0-1.4-0.2-1.4,0.9c0,1.2,0.8,0.8,1.4,0.8
		c12.5,0,25,0,37.4,0c0.6,0,1.4,0.4,1.5-0.8c0-1.3-0.9-0.9-1.5-0.9c-3.4-0.1-6.7,0.1-10.1-0.5c-3.6-0.6-4.8-2.6-4.7-5.8
		c0-6.1,0-12.2,0-18.4C657.9,337.2,657.9,333.7,657.9,330.3z M131,266.4c-1.4,0-2.9-0.5-3.8,0.5c-1.3,1.4-2.9,2.1-4.3,3.1
		c-4.9,3.2-10.6,4.8-16.3,5.4c-11.5,1.2-23,0.6-34.5,0.6c-1.8,0-3.6,0-5.3-0.3c-2.4-0.3-3.7-1.7-3.6-4.1c0.1-4.5,0-9.1,0-13.6
		c0-3.2,0-3.2,3.1-3.1c10.6,0.1,21.3-0.4,31.9,0.4c4.3,0.3,8.1,1.3,9.5,6.2c0.4,1.4,1.8,0.5,2.7,0.7c1,0.2,0.8-0.7,0.8-1.3
		c0-4.8,0-9.5,0-14.3c0-0.6,0.4-1.7-0.9-1.5c-0.9,0.1-2.2-0.8-2.6,1c-0.3,1.5-0.8,3-2.4,3.7c-1.6,0.7-3,1.6-4.8,1.8
		c-2.8,0.4-5.6,0.7-8.4,0.7c-9.2,0-18.4,0-27.5,0.1c-1.1,0-1.4-0.3-1.4-1.4c0.1-4.6,0-9.3,0-13.9c0-3.5,0-3.5,3.5-3.5
		c13.5,0.1,27-0.4,40.5,0.4c4.4,0.2,8.2,1.9,10.5,5.8c0.9,1.5,1.7,2,3.3,1.9c1.1-0.1,1.3-0.4,1.2-1.4c-0.4-2.5-0.8-5-0.9-7.4
		c-0.1-1.7-0.7-2.1-2.3-2c-29.3,0-58.6,0-87.9,0c-0.3,0-0.6,0-0.9,0c-0.7,0-1.2,0-1.2,0.9c0,1.1,0.6,0.8,1.2,0.8
		c3.8,0,7.6,0.1,11.4,0.6c2.9,0.4,4.3,1.1,4.4,5.1c0.1,10.9,0,21.8,0.1,32.7c0,3.3-1.3,4.8-4.6,5.4c-3.7,0.6-7.4,0.7-11.1,0.7
		c-0.5,0-1.2-0.3-1.2,0.6c-0.1,1.1,0.7,0.7,1.3,0.8c0.2,0,0.5,0,0.7,0c27.7,0,55.3,0,83,0c2,0,3.9,0,5.9,0c0.6,0,1.2,0,1.7-0.5
		c2.2-2.6,4.5-5,6.5-7.7C128.9,269,130.6,268.2,131,266.4z M286.3,367C286.3,367,286.3,367,286.3,367c14.3,0,28.5,0,42.8,0
		c0.8,0,1.6,0.1,2.2-0.6c2.9-3.4,5.9-6.9,8.8-10.3c0.2-0.2,0.4-0.5,0.3-0.8c-0.1-0.4-0.5-0.3-0.8-0.3c-1.2-0.1-2.4,0.1-3.5,0.8
		c-2.6,1.7-5.2,3.5-7.9,4.9c-3.3,1.8-7.1,2.4-10.7,2.8c-12.9,1.3-25.8,0.9-38.7,0.5c-2.5-0.1-4.3-1.4-4.2-4.5
		c0.1-4.9,0.1-9.8,0-14.7c0-1.2,0.4-1.4,1.5-1.4c3,0.1,6,0,9,0c7.5,0.1,15.1-0.4,22.6,0.4c4.3,0.4,8.8,1,10.2,6.3
		c0.4,1.3,1.9,0.5,2.9,0.5c1,0,0.6-0.9,0.6-1.4c0-4.4,0-8.8,0-13.2c0-0.6,0.5-1.7-0.8-1.6c-1,0.1-2.4-0.8-2.8,1
		c-0.3,1.4-1.3,2.3-2.4,3.1c-1.8,1.4-4,1.6-6.1,1.9c-11.2,1.1-22.4,0.3-33.6,0.6c-0.9,0-1.1-0.4-1.1-1.2c0-5.3,0-10.6,0-16
		c0-0.9,0.2-1.3,1.2-1.3c13.6,0.4,27.2-0.7,40.8,0.6c4.8,0.4,9.2,1.4,11.5,6.5c0.6,1.3,2.1,0.6,3.2,0.5c0.9-0.1,0.3-1.1,0.2-1.6
		c-0.3-2.4-0.7-4.7-0.9-7.1c-0.1-1.3-0.6-1.6-1.8-1.6c-28.5,0-57,0-85.5,0.1c-0.5,0-1.5-0.5-1.5,0.6c0,1.3,1,0.8,1.6,0.8
		c3.4,0.2,6.7-0.2,10.1,0.5c3.1,0.6,4.8,2.4,4.9,5.4c0.1,11,0.1,22,0,33c0,2.6-1.1,3.8-3.6,4.2c-3.9,0.7-7.9,0.9-11.9,0.8
		c-0.6,0-1.2,0-1.1,0.8c0,0.4-0.2,0.9,0.5,0.9c0.4,0,0.9,0,1.3,0C257.9,367,272.1,367,286.3,367z M72.9,367.8
		c10.6-0.4,18.2-0.1,25.6-2.4c3.6-1.1,6.9-2.5,10.2-4.2c1.3-0.7,2.4-1.8,3.3-3.1c1.1-1.5,1.4-3.3,0.7-5.2c-0.7-2-2.3-3.2-3.8-4.4
		c-3.1-2.4-6.8-3.3-10.4-4.4c-4.2-1.3-8.6-1.8-12.9-3.1c-3.3-1-6.7-1.4-10.1-2.3c-4.1-1.2-8.4-1.9-12.5-3.1
		c-3.3-0.9-6.5-1.9-9.6-3.1c-1.7-0.7-3-2-3.1-3.9c-0.1-1.9,1.6-2.9,3-3.6c3.9-1.8,8-3.2,12.3-3.4c7.9-0.5,15.5,0.5,23.1,2.4
		c6,1.5,10.8,4.2,13.1,10.3c0.5,1.4,1.9,0.6,2.9,0.7c1.1,0.1,0.7-0.9,0.7-1.5c0-4.3,0-8.7,0-13c0-0.6,0.4-1.6-0.5-1.7
		c-1-0.1-2.5-0.7-3.2,0.5c-1.1,1.9-2.8,2.1-4.7,2.1c-4.5,0-8.8-1.1-13.2-1.7c-11.1-1.3-22.1-1.8-33,1.2c-4.2,1.2-8.2,2.5-11.7,5.3
		c-4.7,3.8-2.2,8.8,1.4,11.1c3.6,2.3,7.7,3.1,11.5,4.6c3.4,1.3,7,1.7,10.5,2.8c3.7,1.2,7.6,1.6,11.3,2.5c4.4,1.1,8.9,1.8,13.3,3.1
		c3,0.9,5.8,2.1,8.3,3.8c3.3,2.3,2.8,4.8-0.2,6.7c-2.4,1.5-5.3,2.6-8.1,3c-11.3,1.6-22.6,1.6-33.7-1.7c-5.6-1.7-10.2-4.3-12.5-9.9
		c-0.6-1.4-1.9-0.5-2.9-0.6c-1-0.1-0.6,0.9-0.6,1.4c0,4.5,0,8.9,0,13.4c0,0.5-0.3,1.2,0.6,1.2c1.2-0.1,2.5,0.3,3.5-0.9
		c1.1-1.4,2.8-1.8,4.5-1.7c2.5,0.2,5,0.6,7.5,1C61.3,367,68.6,368.2,72.9,367.8z M232.3,356.1c-1.6-0.8-2.9-0.6-4.4,0.1
		c-3.1,1.6-6.2,3.1-9.4,4.5c-3.5,1.5-7.2,2.3-10.9,2.8c-11.8,1.7-23.7,1.9-35.5-0.5c-3.9-0.8-7.8-1.5-11.5-3.2
		c-2.4-1.1-4.6-2.4-6.7-3.9c-1.2-0.9-2.4-2-3.2-3.2c-4.5-6.5-2.9-14.3,1.1-19.6c2.9-3.8,7-5.9,11.3-7.8c3.6-1.6,7.6-2.2,11.5-2.7
		c10.7-1.3,21.4-1.8,32,0.7c2.9,0.7,5.8,1,8.5,2.3c4.5,2.1,8.5,4.8,11.6,8.8c0.7,0.9,1.8,0.5,2.7,0.5c0.6,0,0.4-0.7,0.3-1.1
		c-0.8-4.7-1.6-9.4-2.4-14.1c-0.1-0.4,0-0.9-0.7-0.9c-1.3,0-2.6-0.3-3.4,1.1c-0.6,1-1.5,1.3-2.5,1.6c-1.8,0.7-3.7,0.7-5.6,0.5
		c-5.2-0.5-10.2-2.3-15.4-2.6c-11.2-0.7-22.3-1.1-33.3,1.2c-4.1,0.9-8.2,1.5-12.2,2.6c-5.7,1.5-11.2,3.5-16,6.9
		c-2.8,2-5.5,4.1-7.3,7.1c-3.4,5.5-2.5,11.5,1.5,16c2.9,3.3,6.6,5.7,10.6,7.6c5.8,2.7,12.1,4.3,18.4,5.4c10.5,1.8,21.1,1.7,31.7,1.4
		c5.8-0.2,11.5-0.4,17.2-2c3.2-0.9,6.4-1.5,9.6-2.7C224.2,361.1,228.3,358.9,232.3,356.1z M471.6,319.9
		C471.6,319.9,471.6,319.9,471.6,319.9c-7.3,0-14.7,0-22,0c-0.5,0-1.3-0.4-1.4,0.6c0,1,0.8,0.8,1.3,0.8c1.8,0.2,3.7,0.3,5.5,0.4
		c1.4,0.1,2.8,0.3,4.1,0.8c4.2,1.6,7.1,5.1,10.3,8c4.7,4.2,9.2,8.6,13.8,12.9c2.1,2,4.3,3.9,6.4,5.9c3.4,3.2,6.8,6.4,10.2,9.6
		c2.5,2.4,5.1,4.7,7.6,7.2c1.9,2,5.3,1.9,7.1,0.1c4.1-4.3,8.3-8.4,12.4-12.5c2.1-2.1,4.4-4.2,6.5-6.3c4.2-4.1,8.3-8.3,12.5-12.5
		c2.1-2.1,4.4-4.1,6.5-6.3c3.1-3.4,6.8-5.8,11.4-6.7c1.5-0.3,3-0.3,4.6-0.5c0.6-0.1,1.7,0.4,1.6-0.9c-0.1-1.1-1-0.6-1.6-0.6
		c-10.8,0-21.5,0-32.3,0c-0.2,0-0.5,0-0.7,0c-0.5,0-0.8,0.1-0.8,0.7c0,0.5,0.2,0.8,0.7,0.8c1.5,0.1,2.9,0.2,4.4,0.4
		c1.3,0.1,2.6,0.2,3.8,0.5c3.3,0.9,3.8,2.6,1.6,5.2c-1.4,1.7-2.9,3.2-4.4,4.7c-3,3-6.1,5.9-9.2,8.9c-4.3,4.3-8.6,8.6-12.9,12.8
		c-0.9,0.9-1.6,2.5-2.9,2.7c-1.4,0.1-2.1-1.6-3.1-2.5c-3.4-3-6.8-6.1-10.2-9.2c-4.8-4.4-9.5-8.8-14.3-13.3c-1.7-1.6-3.4-3.4-5-5.2
		c-0.6-0.7-1.6-1.8-0.4-2.9c0.9-0.8,1.8-1.5,3.1-1.6c2.5-0.2,5-0.4,7.5-0.7c0.6-0.1,1.7,0.4,1.6-0.9c-0.1-1.1-1.1-0.6-1.6-0.6
		C486.1,319.8,478.8,319.9,471.6,319.9z M601.2,319.9c-7.8,0-15.7,0-23.5,0c-0.5,0-1.3-0.4-1.3,0.7c0,1.1,0.8,0.7,1.3,0.7
		c3,0,6-0.2,9,0.4c5.4,1,6.1,2.1,6.1,6.9c0,9.8,0,19.7,0,29.5c0,0.9,0,1.7-0.1,2.6c-0.4,1.8-1.2,3.2-3.2,3.7
		c-3.8,0.9-7.7,0.7-11.5,0.8c-0.6,0-1.4-0.4-1.5,0.8c-0.1,1.3,0.9,0.9,1.5,0.9c15.5,0,30.9,0,46.4,0c0.6,0,1.6,0.5,1.6-0.8
		c0-1.3-1-0.8-1.6-0.9c-3.8-0.1-7.6-0.2-11.3-0.9c-2.6-0.5-3.4-1.7-3.7-4.2c-0.1-0.7-0.1-1.3-0.1-2c0-9.7,0-19.4,0-29.2
		c0-1.1,0.2-2.2,0.3-3.3c0.1-0.9,0.6-1.6,1.3-2.1c1.4-1.1,3-1.7,4.8-2c2.9-0.5,5.9-0.3,8.8-0.4c0.6,0,1.7,0.5,1.6-0.8
		c-0.1-1.1-1-0.6-1.6-0.6C616.6,319.9,608.9,319.9,601.2,319.9z"/>
	<path class="st1" d="M451.1,302.3c-117.5,0-235.1,0-352.6,0c-24.4,0-48.7,0-73.1,0.1c-1.6,0-2.2-0.3-2-2c0.2-1.9-0.8-4.4,0.4-5.4
		c1-0.9,3.5-0.3,5.3-0.3c282.4,0,564.9,0,847.3,0c2.4,0,2.4,0,2.4,2.4c0,1.4,0,2.8,0,4.2c0,0.8-0.2,1.1-1,1c-0.5-0.1-1,0-1.5,0
		C734.6,302.3,592.9,302.3,451.1,302.3C451.1,302.3,451.1,302.3,451.1,302.3z"/>
	<path class="st1" d="M348.1,238.8c-3.1,3.5-5.8,6.6-8.6,9.7c-1.8,2-3.6,4-5.5,6c-4.6,5.1-9.3,10.2-13.8,15.5
		c-2.4,2.7-4.9,5.3-7.3,8c-0.8,0.9-2.5,0.8-3.1,0c-2.4-3-5.1-5.6-7.5-8.5c-1.7-2-3.5-4-5.3-5.9c-4.7-5.2-9.4-10.3-14-15.6
		c-2.5-2.9-5.1-5.7-7.6-8.5c-0.2-0.2-0.3-0.4-0.8-0.2c0,0.4,0,0.9,0,1.3c0,9.9,0,19.8,0,29.7c0,4.3,1.2,5.6,5.3,6.4
		c2.1,0.4,4.3,0.2,6.4,0.3c0.5,0,1.3-0.3,1.4,0.7c0,1.1-0.8,0.7-1.3,0.7c-20.1,0-40.1,0-60.2,0c-1.1,0-1.8-0.6-2.7-1.1
		c-1.9-1.1-3.9-2.1-5.9-3.2c-4.2-2.3-8.5-4.4-12.7-6.8c-3.2-1.8-6.5-3.6-9.8-5.3c-2.9-1.5-5.7-3.3-8.6-4.7c-1.2-0.6-2.5-0.9-3.9-0.9
		c-2.9,0-5.9,0-8.8,0c-0.7,0-1.5-0.1-1.4,1.1c0.1,4.6-0.3,9.3,0.1,13.9c0.2,2.5,1.6,4.1,4.1,4.7c3.8,1,7.7,0.7,11.5,0.8
		c0.6,0,1.5-0.4,1.6,0.7c0,1.1-1,0.7-1.5,0.7c-16.2,0-32.3,0-48.5,0c-0.5,0-1.4,0.4-1.4-0.6c0-1.1,0.9-0.8,1.5-0.8
		c3.8,0,7.6,0.1,11.3-0.8c2.9-0.7,3.9-1.8,4.4-4.8c0.1-0.6,0.2-1.2,0.2-1.8c0-9.9,0-19.8,0-29.7c0-4.5-1.2-6-5.7-6.8
		c-3.4-0.6-6.8-0.5-10.2-0.6c-0.6,0-1.4,0.3-1.4-0.8c0-1.2,0.8-0.9,1.4-0.9c19.7,0,39.4-0.2,59.1,0.2c3.6,0.1,7.3,0.1,10.8,0.8
		c4.1,0.8,8.4,1.1,12.2,2.8c2.5,1.1,5.2,1.9,7.4,3.9c2.8,2.5,3,6,0.5,8.8c-3.3,3.5-7.6,4.5-12,5.7c-4.8,1.4-9.7,1.6-14.6,2.4
		c0.6,0.8,1.3,1.3,2.2,1.7c4.4,2.1,8.5,4.7,12.9,6.8c3.1,1.6,6.1,3.3,9.1,5c4.1,2.4,8.4,4.4,13,5.7c7.8,2.3,15.7,2.6,23.6,1.7
		c3.2-0.4,4.9-1.9,4.9-5.6c0-10.8,0-21.5,0-32.3c0-3.6-1.7-5.2-5.8-5.7c-2.1-0.2-4.1-0.2-6.2-0.3c-0.5,0-1.1,0.1-1.1-0.8
		c0-0.9,0.5-0.9,1.2-0.9c8.1,0,16.2,0,24.2,0c0.7,0,1.2,0.2,1.6,0.7c5.1,5.8,10.2,11.5,15.4,17.3c3.6,4,7.3,7.9,10.8,11.9
		c1.9,2.1,3.8,4.3,5.7,6.5c0.5,0.6,0.9,0.7,1.4,0c3.8-4.5,7.8-8.8,11.7-13.3c4.7-5.3,9.3-10.6,14-15.8c1.9-2.1,3.8-4.4,5.6-6.6
		c0.5-0.6,1.1-0.8,1.9-0.8c8,0,15.9,0,23.9,0c0.6,0,1.4-0.3,1.4,0.9c0,1.2-0.9,0.8-1.4,0.8c-2.6,0.1-5.2,0.1-7.9,0.6
		c-2.1,0.4-3.3,1.5-3.5,3.6c-0.1,1-0.3,2.1-0.3,3.1c0,10,0,19.9,0,29.9c0,0.8,0.1,1.6,0.2,2.4c0.3,2.6,1.5,4,4.1,4.4
		c6,0.9,12,0.8,17.8-0.8c3.5-1,6.3-3.4,8.9-5.9c2.3-2.1,4.5-4.4,6.7-6.5c4.5-4.3,8.9-8.5,13.4-12.8c2.1-2,4.3-4,6.5-6
		c4.4-4.2,8.9-8.4,13.3-12.7c2.4-2.4,5.2-2.4,7.5,0c2.4,2.5,4.9,4.9,7.4,7.4c4,4,8.1,8.1,12.1,12.1c2.2,2.2,4.5,4.2,6.7,6.4
		c4.2,4.1,8.2,8.2,12.4,12.3c1.3,1.2,2.8,2.3,4.2,3.4c3.8,2.8,8.2,3.5,12.7,3.7c0.7,0,1.3,0.1,2,0.1c0.6,0,0.7,0.4,0.7,0.9
		c0,0.5-0.3,0.6-0.7,0.6c-0.2,0-0.5,0-0.7,0c-14.3,0-28.6,0-42.9,0c-0.1,0-0.2,0-0.4,0c-0.4-0.1-1.1,0.2-1.1-0.6
		c-0.1-0.8,0.5-0.8,1.1-0.9c2.1-0.1,4.2-0.2,6.2-0.4c0.4,0,0.9-0.1,1.3-0.2c1.3-0.3,2.6-0.7,3-2c0.3-1.3-0.7-2.2-1.5-3
		c-2.5-2.5-5.1-4.9-7.5-7.5c-0.6-0.7-1.4-1-2.4-1c-14.2,0-28.4,0-42.6,0c-1,0-1.8,0.4-2.5,1c-2.8,2.5-5.6,4.9-8.2,7.6
		c-0.8,0.8-2.4,1.9-1,3.7c0.4,0.6,1,0.6,1.5,0.8c3.3,1.1,6.6,1,10,1.1c0.6,0,1.5-0.4,1.6,0.7c0,1.2-1,0.7-1.5,0.7
		c-24.2,0-48.3,0-72.5,0c-0.2,0-0.5,0-0.7,0c-0.5,0-1.2,0.2-1.1-0.7c0-0.8,0.6-0.6,1.1-0.6c2.3-0.1,4.5,0,6.8-0.4
		c4.2-0.8,5.1-1.7,5.1-6c0-10.1,0-20.2,0-30.3C348.1,240,348.1,239.6,348.1,238.8z M181.3,254.1c5.9,0.2,11.6-1,17.4-1.9
		c3.8-0.6,7.3-2.2,10.5-4.4c3.3-2.2,2.7-6.6-0.4-8.9c-3.2-2.4-7-3.5-10.8-4.2c-8.1-1.6-16.3-1.1-24.5-0.4c-0.9,0.1-1.1,0.3-1.1,1.2
		c0,5.8,0.1,11.6,0,17.4c0,0.9,0.2,1.3,1.2,1.3C176.2,254.1,178.7,254.1,181.3,254.1z M411.5,260c13,0,25.8,0,38.8,0
		c-3.5-3.5-6.9-7-10.3-10.4c-2.4-2.4-4.8-4.7-7.1-7.1c-1.4-1.4-2.1-1.5-3.5,0c-4.4,4.5-9.1,8.8-13.6,13.1
		C414.4,257,412.6,258,411.5,260z"/>
	<path class="st1" d="M655.6,241.6c0,7.1,0,14.1,0,21.1c0,3,0,6,0.1,9c0.1,2.5,1.4,4,3.8,4.7c3.2,0.9,6.4,0.7,9.7,0.8
		c0.7,0,1.5,0,2.2,0c0.5,0,0.5,0.4,0.6,0.8c0,0.5-0.2,0.6-0.6,0.6c-0.4,0-0.7,0-1.1,0c-12.4,0-24.7,0-37.1,0c-0.2,0-0.5,0-0.7,0
		c-0.5,0-1,0.1-1-0.7c0-0.7,0.5-0.7,1-0.7c3,0,6,0.1,9-0.4c1.5-0.2,3.2-0.3,4.4-1.2c1.7-1.2,1.9-3.1,1.9-5c0-9.8,0-19.6,0-29.4
		c0-3.8-0.2-3.5-3.6-5.3c-5.5-2.9-11.5-2.6-17.4-3c-4.6-0.3-9.2-0.1-13.7,0.5c-3.3,0.5-4.6,1.7-4.7,5.7c0,12.7,0,25.5,0,38.2
		c0,1.7-0.5,2.3-2.1,2.1c-0.8-0.1-1.6-0.2-2.3-0.6c-4.4-2.2-8.8-4.5-13.3-6.7c-1.8-0.9-3.7-1.6-5.5-2.6c-2.5-1.4-5.2-2.5-7.8-3.8
		c-5.9-2.9-11.8-5.7-17.6-8.6c-3.5-1.8-7.1-3.5-10.6-5.2c-5.6-2.8-11.2-5.7-16.9-8.4c-1.2-0.6-2.3-1.4-3.8-1.8c0,6.4,0,12.7,0,19
		c0,3.7-0.2,7.5,0.2,11.2c0.3,2.9,1.4,4.2,4.3,4.8c3.2,0.7,6.6,0.6,9.9,0.7c0.6,0,1.1,0,1.6,0.1c0.5,0.1,0.5,0.5,0.5,0.8
		c0,0.4-0.3,0.5-0.6,0.5c-0.5,0-1,0-1.5,0c-12.4,0-24.8,0-37.3,0c-0.5,0-1.3,0.5-1.3-0.6c0-1,0.8-0.8,1.3-0.8c3.6,0,7.2,0,10.8-0.8
		c2.8-0.6,3.7-1.6,4.1-4.5c0.1-0.8,0.2-1.6,0.2-2.4c0-10.2,0-20.3,0-30.5c0-1.2-0.4-1.7-1.5-2.3c-5.9-3.3-12.4-3.6-18.9-3.9
		c-0.5,0-1.1-0.1-1.7,0c-0.7,0-1-0.2-1-0.9c0-0.8,0.5-0.8,1.1-0.8c0.8,0,1.6,0,2.4,0c8.7,0,17.4,0,26.1,0c1.9,0,3.6,0.4,5.2,1.6
		c2,1.3,4.4,1.9,6.5,3.2c2.6,1.5,5.4,2.6,8.1,4c5.6,2.9,11.2,5.6,16.9,8.4c3.3,1.6,6.5,3.3,9.8,4.9c5.5,2.8,11,5.5,16.5,8.3
		c3.5,1.7,6.9,3.5,10.6,5.3c0-6.9,0-13.5,0-20.2c0-2.7,0-5.4-0.1-8.1c-0.1-3.2-0.7-3.9-3.8-4.7c-3.6-0.9-7.3-0.8-10.9-0.9
		c-0.6,0-1.4,0.4-1.5-0.8c-0.1-1.3,0.9-0.9,1.5-0.9c18.6,0,37.2,0,55.8,0c4.5,0,8.9,0,13.4,0c1.6,0,3.1,0.2,4.3,1.5
		c0.2,0.2,0.5,0.3,0.8,0.4c5,2,9.6,4.7,14.5,7c3.7,1.7,7.3,3.6,11,5.4c5.1,2.6,10.3,5.2,15.4,7.7c3.7,1.8,7.4,3.7,11.1,5.5
		c3.6,1.8,7.3,3.7,10.9,5.4c1.6,0.7,3,1.8,4.9,2.2c0-4.2,0-8.3,0-12.4c0-5.3-0.1-10.5-0.2-15.8c-0.1-3-0.7-3.7-3.5-4.5
		c-3.6-1-7.4-0.9-11.1-0.9c-0.6,0-1.6,0.5-1.6-0.8c0-1.3,1-0.9,1.6-0.9c12.5,0,25,0,37.4,0c0.6,0,1.6-0.5,1.6,0.8
		c0,1.3-0.9,0.9-1.5,0.9c-3.7,0.1-7.3,0-11,0.7c-2.8,0.6-3.6,1.4-4,4.2c-0.2,1.1-0.1,2.2-0.1,3.3c0,12.2,0,24.4,0,36.5
		c0,1.6-0.5,2-1.9,1.8c-1.1-0.1-2.1-0.4-3-0.9c-3.7-2.1-7.6-3.8-11.4-5.6c-3.4-1.7-6.9-3.4-10.3-5.1c-3.7-1.9-7.5-3.7-11.3-5.5
		c-3.4-1.7-6.9-3.4-10.3-5.1c-3.8-1.9-7.6-3.7-11.3-5.5c-5.5-2.7-10.9-5.5-16.5-8.1C658.2,242.8,657.2,241.9,655.6,241.6z"/>
	<path class="st1" d="M409.9,343.8c0.3,0.5,0.5,1,1.1,1.2c4.2,1.9,8,4.5,12,6.7c5.3,2.9,10.5,5.9,15.7,8.9c0.3,0.1,0.6,0.2,0.8,0.3
		c6.2,2.6,12.7,4.1,19.5,4.1c0.5,0,1.1,0,1.6,0.1c0.7,0,1.4,0,1.3,1c-0.1,1-0.8,0.8-1.3,0.8c-3.7,0-7.3,0-11,0c-5.6,0-11.1,0-16.7,0
		c-1.6,0-2.9-0.4-4.3-1.4c-1.6-1.2-3.5-2-5.3-3c-4.1-2.4-8.3-4.5-12.4-6.9c-3.2-1.8-6.4-3.5-9.5-5.4c-2.5-1.5-5.1-2.8-7.6-4.3
		c-1-0.6-2-0.7-3.1-0.7c-3.1,0-6.1,0-9.2,0c-1,0-1.2,0.3-1.2,1.2c0.1,4.1,0,8.2,0.1,12.3c0.1,4,1.3,5.4,5.3,6.1
		c3.3,0.6,6.6,0.4,9.9,0.5c0.7,0,1.6-0.2,1.5,1c-0.1,1.2-1,0.7-1.5,0.7c-15.5,0-31,0-46.4,0c-0.6,0-1.6,0.4-1.5-0.9
		c0.1-1.3,1.1-0.8,1.7-0.8c3.7-0.1,7.5,0.1,11.1-1c2.6-0.7,3.8-2.2,3.9-4.9c0.1-3.7,0-7.5,0-11.2c0-6.5,0-13,0-19.5
		c0-4.3-1.6-6.4-6.1-7c-3-0.4-6.1-0.3-9.2-0.4c-0.6,0-1.5,0.4-1.4-0.8c0.1-1,0.9-0.6,1.4-0.6c18,0,36.1-0.1,54.1,0.1
		c6.9,0.1,13.9,0.7,20.7,2.3c3.8,0.9,7.7,1.9,10.8,4.6c4.1,3.5,3.8,7.1,0.1,10.2c-2.2,1.8-4.8,2.9-7.5,3.8
		C421.5,342.8,415.7,343.1,409.9,343.8z M380.3,333c0,2.7,0,5.5,0,8.2c0,1.1,0.1,1.6,1.4,1.6c7.4-0.2,14.8,0,22.2-1.5
		c3.9-0.8,7.7-1.8,11-3.9c3.3-2,4-5,2.3-7.8c-1.4-2.3-3.7-3.3-5.9-4.3c-3.9-1.6-8.1-2.1-12.2-2.6c-5.9-0.7-11.9,0.2-17.8,0.8
		c-0.9,0.1-1.1,0.4-1.1,1.2C380.3,327.5,380.3,330.2,380.3,333z"/>
	<path class="st1" d="M816.9,230c9.1,0,16.8,0.4,24.3,1.9c3.9,0.7,7.7,1.7,11.4,3c3.8,1.3,7.7,2.7,11.2,4.8c4.1,2.4,7.9,5.2,10,9.7
		c1.9,4.2,1.1,10.2-2,13.7c-3.5,3.9-7.7,6.5-12.5,8.7c-6,2.7-12.2,4.4-18.6,5.7c-12,2.4-24,2.3-36.1,1.6c-2.9-0.2-5.8-0.4-8.6-0.9
		c-6.7-1.3-13.4-2.8-19.7-5.4c-4.1-1.7-7.9-3.9-11.1-7.1c-5.1-4.9-6.9-13-1.9-19.1c2.8-3.5,6.4-5.9,10.4-7.8
		c6-2.9,12.4-4.7,18.8-6.2c4.2-1,8.5-1.5,12.7-1.9C809.7,230.1,813.9,229.9,816.9,230z M818,232.7c-9,0.1-17.4,0.5-25.1,4.3
		c-3.3,1.6-6.3,3.5-8.7,6.4c-5.8,6.9-5.1,17.8,2,24.4c4.6,4.3,10.3,6.9,16.3,8c11.4,2,22.8,2.2,34-1.1c2.8-0.8,5.6-1.6,8.3-3
		c4.9-2.6,8.3-6.2,9.6-11.6c1.6-6.7,0.3-12.8-4.4-17.8c-3.9-4.2-9.1-6.4-14.5-7.8C829.6,232.9,823.5,232.8,818,232.7z"/>
	<path class="st1" d="M820.7,367.6c-10.5,0.1-17.8-0.1-25-1.5c-6.5-1.2-12.9-2.8-18.9-5.4c-3.9-1.7-7.7-3.9-10.7-7
		c-4.9-5-6.6-12.9-1.2-19.1c3-3.5,6.8-5.8,10.9-7.8c6.9-3.3,14.2-4.9,21.7-6.3c13.4-2.4,26.7-2.2,40.1-0.5c3.8,0.5,7.8,1.2,11.5,2.4
		c4.5,1.5,9.1,2.8,13.2,5.2c4.2,2.5,8.4,5.1,10.8,9.7c2.3,4.3,1.6,9.8-1.1,13.5c-2.8,3.8-6.7,6.3-10.8,8.5
		c-6.1,3.1-12.6,4.7-19.2,6.2C833.8,367.4,825.7,367.4,820.7,367.6z M816.6,321.6c-1.9,0.1-5,0.4-8.2,0.4c-3.2,0.1-6.2,1.2-9.2,1.8
		c-4.7,1-8.8,3.1-12.5,6.2c-2,1.7-3.7,3.7-4.6,6.2c-3.3,9.5-0.1,16.8,6.8,22.3c3.7,2.9,8.1,4.6,12.5,5.4c12.8,2.3,25.7,2.5,38.3-1.8
		c3.3-1.1,6.2-2.7,8.9-4.8c4.1-3.2,5.8-7.6,6-12.5c0.3-10.3-5.7-16-13.5-19.5c-3.3-1.5-7.1-2-10.7-2.7
		C826.3,321.6,822,321.7,816.6,321.6z"/>
	<path class="st1" d="M657.9,330.3c0,3.4,0,6.9,0,10.4c0,6.1,0,12.2,0,18.4c0,3.1,1.2,5.1,4.7,5.8c3.3,0.6,6.7,0.4,10.1,0.5
		c0.7,0,1.6-0.3,1.5,0.9c0,1.2-0.9,0.8-1.5,0.8c-12.5,0-25,0-37.4,0c-0.6,0-1.4,0.4-1.4-0.8c0-1.1,0.8-0.9,1.4-0.9
		c3.2-0.1,6.5,0.1,9.7-0.5c3.5-0.6,5.2-2,5.2-6.1c-0.1-10.4,0-20.8,0-31.2c0-1.4-0.7-1.9-1.8-2.3c-6-2.4-12.1-4-18.6-3.8
		c-0.5,0-1,0-1.5,0c-0.6,0-0.7-0.4-0.7-0.9c0-0.5,0.3-0.6,0.7-0.6c0.4,0,0.7,0,1.1,0c8.8,0,17.6,0.1,26.4-0.1
		c3.4-0.1,5.9,1.8,8.7,3.1c0.4,0.2,0.8,0.5,1.2,0.7c4.9,2,9.5,4.7,14.3,7c3.6,1.7,7.2,3.5,10.8,5.4c5.4,2.8,10.9,5.6,16.4,8.2
		c3.5,1.7,7,3.5,10.4,5.2c3.6,1.8,7.1,3.7,10.8,5.3c0.2,0.1,0.3,0,0.7,0c0-7.9,0-15.8,0-23.7c0-1.8,0.1-3.5-0.2-5.3
		c-0.4-1.9-1.6-3.1-3.4-3.6c-3.6-1-7.3-0.8-10.9-0.9c-0.4,0-0.9,0-1.3,0c-0.5-0.1-0.5-0.5-0.5-0.8c0-0.4,0.2-0.5,0.6-0.5
		c0.3,0,0.6,0,0.9,0c12.4,0,24.8,0,37.3,0c0.1,0,0.2,0,0.4,0c0.5,0.1,1.2-0.3,1.2,0.7c0,0.9-0.6,0.8-1.1,0.8c-2.3,0-4.5-0.1-6.8,0.1
		c-2.1,0.2-4.3,0.3-6.2,1.6c-1.5,1-2.1,2.3-2.1,3.9c0,2.8,0,5.6,0,8.4c0,10.2,0,20.3,0,30.5c0,1.5-0.5,1.8-1.8,1.8
		c-1.8,0-3.4-0.7-4.8-1.6c-2.6-1.5-5.4-2.8-8.1-4.1c-6.3-3-12.5-6.4-18.9-9.4c-3.4-1.6-6.7-3.3-9.9-5c-5.4-2.8-10.9-5.4-16.4-8.2
		c-3.4-1.7-6.8-3.3-10.1-5.1c-2.5-1.4-5.2-2.1-7.5-3.8C658.9,330.3,658.5,330,657.9,330.3z"/>
	<path class="st1" d="M131,266.4c-0.4,1.8-2,2.5-3,3.8c-2,2.7-4.3,5.1-6.5,7.7c-0.5,0.6-1.1,0.5-1.7,0.5c-2,0-3.9,0-5.9,0
		c-27.7,0-55.3,0-83,0c-0.2,0-0.5,0-0.7,0c-0.5-0.1-1.3,0.3-1.3-0.8c0.1-0.9,0.7-0.6,1.2-0.6c3.7,0,7.4-0.1,11.1-0.7
		c3.3-0.5,4.6-2,4.6-5.4c0-10.9,0.1-21.8-0.1-32.7c0-4-1.4-4.7-4.4-5.1c-3.8-0.5-7.6-0.5-11.4-0.6c-0.6,0-1.2,0.2-1.2-0.8
		c0-0.9,0.5-0.9,1.2-0.9c0.3,0,0.6,0,0.9,0c29.3,0,58.6,0,87.9,0c1.6,0,2.2,0.3,2.3,2c0.1,2.5,0.5,5,0.9,7.4c0.1,1,0,1.3-1.2,1.4
		c-1.6,0.1-2.4-0.4-3.3-1.9c-2.3-3.9-6.1-5.5-10.5-5.8c-13.5-0.7-27-0.3-40.5-0.4c-3.5,0-3.5,0-3.5,3.5c0,4.6,0,9.3,0,13.9
		c0,1.2,0.3,1.4,1.4,1.4c9.2-0.1,18.4,0,27.5-0.1c2.8,0,5.6-0.3,8.4-0.7c1.8-0.2,3.3-1.1,4.8-1.8c1.5-0.7,2-2.3,2.4-3.7
		c0.4-1.8,1.7-0.9,2.6-1c1.3-0.2,0.9,0.9,0.9,1.5c0,4.8,0,9.5,0,14.3c0,0.6,0.2,1.4-0.8,1.3c-0.9-0.2-2.3,0.7-2.7-0.7
		c-1.4-4.9-5.2-5.9-9.5-6.2c-10.6-0.8-21.3-0.3-31.9-0.4c-3.1,0-3.1,0-3.1,3.1c0,4.5,0.1,9.1,0,13.6c-0.1,2.4,1.2,3.8,3.6,4.1
		c1.7,0.2,3.5,0.3,5.3,0.3c11.5,0,23,0.6,34.5-0.6c5.7-0.6,11.4-2.2,16.3-5.4c1.5-1,3.1-1.7,4.3-3.1
		C128.1,265.9,129.6,266.4,131,266.4z"/>
	<path class="st1" d="M286.3,367c-14.2,0-28.4,0-42.6,0c-0.4,0-0.9,0-1.3,0c-0.7,0-0.5-0.5-0.5-0.9c-0.1-0.8,0.5-0.8,1.1-0.8
		c4,0.1,7.9-0.1,11.9-0.8c2.5-0.4,3.6-1.6,3.6-4.2c0.1-11,0.1-22,0-33c0-3-1.8-4.8-4.9-5.4c-3.3-0.6-6.7-0.3-10.1-0.5
		c-0.6,0-1.7,0.5-1.6-0.8c0-1.1,1-0.6,1.5-0.6c28.5,0,57,0,85.5-0.1c1.2,0,1.7,0.3,1.8,1.6c0.2,2.4,0.6,4.7,0.9,7.1
		c0.1,0.6,0.7,1.5-0.2,1.6c-1,0.1-2.5,0.8-3.2-0.5c-2.3-5-6.7-6-11.5-6.5c-13.6-1.2-27.2-0.2-40.8-0.6c-1,0-1.2,0.4-1.2,1.3
		c0,5.3,0,10.6,0,16c0,0.8,0.2,1.2,1.1,1.2c11.2-0.3,22.4,0.6,33.6-0.6c2.1-0.2,4.3-0.4,6.1-1.9c1.1-0.9,2-1.7,2.4-3.1
		c0.4-1.8,1.8-1,2.8-1c1.2-0.1,0.8,1,0.8,1.6c0,4.4,0,8.8,0,13.2c0,0.5,0.4,1.5-0.6,1.4c-1,0-2.6,0.7-2.9-0.5
		c-1.5-5.4-5.9-5.9-10.2-6.3c-7.5-0.7-15-0.3-22.6-0.4c-3,0-6,0-9,0c-1.1,0-1.5,0.2-1.5,1.4c0.1,4.9,0.1,9.8,0,14.7
		c-0.1,3.1,1.7,4.4,4.2,4.5c12.9,0.4,25.8,0.9,38.7-0.5c3.6-0.4,7.4-1,10.7-2.8c2.7-1.5,5.3-3.2,7.9-4.9c1.1-0.7,2.2-0.9,3.5-0.8
		c0.3,0,0.6-0.1,0.8,0.3c0.1,0.3-0.1,0.6-0.3,0.8c-3,3.4-5.9,6.8-8.8,10.3c-0.6,0.7-1.4,0.6-2.2,0.6C314.8,367,300.5,367,286.3,367
		C286.3,367,286.3,367,286.3,367z"/>
	<path class="st1" d="M72.9,367.8c-4.4,0.4-11.6-0.8-18.9-1.8c-2.5-0.3-5-0.8-7.5-1c-1.8-0.1-3.4,0.2-4.5,1.7
		c-1,1.3-2.3,0.9-3.5,0.9c-1,0-0.6-0.7-0.6-1.2c0-4.5,0-8.9,0-13.4c0-0.5-0.4-1.5,0.6-1.4c1,0.1,2.4-0.7,2.9,0.6
		c2.3,5.7,6.9,8.3,12.5,9.9c11.1,3.3,22.4,3.3,33.7,1.7c2.8-0.4,5.7-1.4,8.1-3c3-1.9,3.5-4.4,0.2-6.7c-2.5-1.7-5.3-2.9-8.3-3.8
		c-4.4-1.3-8.9-2-13.3-3.1c-3.8-1-7.7-1.3-11.3-2.5c-3.5-1.2-7.1-1.5-10.5-2.8c-3.8-1.5-8-2.3-11.5-4.6c-3.7-2.3-6.1-7.3-1.4-11.1
		c3.5-2.8,7.5-4.1,11.7-5.3c10.9-3.1,22-2.6,33-1.2c4.4,0.5,8.7,1.6,13.2,1.7c1.9,0,3.6-0.1,4.7-2.1c0.7-1.2,2.1-0.6,3.2-0.5
		c0.9,0.1,0.4,1.1,0.5,1.7c0,4.3,0,8.7,0,13c0,0.6,0.4,1.6-0.7,1.5c-1-0.1-2.4,0.7-2.9-0.7c-2.3-6.1-7.1-8.8-13.1-10.3
		c-7.6-1.9-15.3-2.9-23.1-2.4c-4.4,0.3-8.4,1.6-12.3,3.4c-1.4,0.6-3,1.7-3,3.6c0.1,1.9,1.4,3.2,3.1,3.9c3.1,1.3,6.3,2.2,9.6,3.1
		c4.1,1.1,8.4,1.9,12.5,3.1c3.3,0.9,6.8,1.3,10.1,2.3c4.2,1.3,8.7,1.8,12.9,3.1c3.6,1.1,7.3,2,10.4,4.4c1.6,1.2,3.1,2.4,3.8,4.4
		c0.7,1.9,0.4,3.7-0.7,5.2c-0.9,1.2-1.9,2.3-3.3,3.1c-3.3,1.7-6.6,3.1-10.2,4.2C91.1,367.7,83.6,367.5,72.9,367.8z"/>
	<path class="st1" d="M232.3,356.1c-3.9,2.9-8.1,5-12.6,6.7c-3.1,1.2-6.4,1.7-9.6,2.7c-5.6,1.7-11.4,1.8-17.2,2
		c-10.6,0.4-21.2,0.4-31.7-1.4c-6.3-1.1-12.5-2.7-18.4-5.4c-4-1.9-7.6-4.3-10.6-7.6c-4-4.5-4.9-10.5-1.5-16c1.9-3,4.6-5.1,7.3-7.1
		c4.8-3.5,10.2-5.5,16-6.9c4.1-1,8.2-1.7,12.2-2.6c11.1-2.3,22.2-1.9,33.3-1.2c5.2,0.3,10.2,2.1,15.4,2.6c1.9,0.2,3.8,0.2,5.6-0.5
		c1-0.3,1.9-0.7,2.5-1.6c0.8-1.3,2.2-1.1,3.4-1.1c0.7,0,0.6,0.5,0.7,0.9c0.8,4.7,1.6,9.4,2.4,14.1c0.1,0.4,0.3,1-0.3,1.1
		c-0.9,0.1-2,0.5-2.7-0.5c-3-4-7.1-6.7-11.6-8.8c-2.6-1.2-5.6-1.6-8.5-2.3c-10.6-2.5-21.3-2-32-0.7c-3.9,0.5-7.8,1.1-11.5,2.7
		c-4.2,1.8-8.4,4-11.3,7.8c-4.1,5.3-5.6,13.1-1.1,19.6c0.8,1.2,2,2.3,3.2,3.2c2.1,1.5,4.3,2.8,6.7,3.9c3.7,1.7,7.6,2.4,11.5,3.2
		c11.8,2.4,23.7,2.2,35.5,0.5c3.6-0.5,7.4-1.4,10.9-2.8c3.2-1.3,6.3-2.9,9.4-4.5C229.3,355.4,230.7,355.2,232.3,356.1z"/>
	<path class="st1" d="M471.6,319.9c7.3,0,14.6,0,21.8,0c0.5,0,1.5-0.5,1.6,0.6c0.1,1.3-0.9,0.8-1.6,0.9c-2.5,0.3-5,0.5-7.5,0.7
		c-1.3,0.1-2.3,0.8-3.1,1.6c-1.1,1.1-0.2,2.1,0.4,2.9c1.6,1.8,3.2,3.6,5,5.2c4.7,4.5,9.5,8.9,14.3,13.3c3.4,3.1,6.7,6.2,10.2,9.2
		c1,0.9,1.7,2.6,3.1,2.5c1.3-0.1,1.9-1.7,2.9-2.7c4.3-4.2,8.6-8.6,12.9-12.8c3-3,6.1-6,9.2-8.9c1.5-1.5,3.1-3,4.4-4.7
		c2.2-2.7,1.7-4.3-1.6-5.2c-1.2-0.3-2.5-0.4-3.8-0.5c-1.5-0.2-2.9-0.3-4.4-0.4c-0.5,0-0.7-0.3-0.7-0.8c0-0.6,0.3-0.7,0.8-0.7
		c0.2,0,0.5,0,0.7,0c10.8,0,21.5,0,32.3,0c0.5,0,1.5-0.5,1.6,0.6c0.1,1.2-1,0.8-1.6,0.9c-1.5,0.2-3.1,0.2-4.6,0.5
		c-4.6,0.9-8.3,3.3-11.4,6.7c-2,2.2-4.3,4.2-6.5,6.3c-4.2,4.1-8.3,8.3-12.5,12.5c-2.1,2.1-4.4,4.2-6.5,6.3
		c-4.2,4.1-8.4,8.3-12.4,12.5c-1.8,1.9-5.2,1.9-7.1-0.1c-2.4-2.5-5-4.8-7.6-7.2c-3.4-3.2-6.8-6.4-10.2-9.6c-2.1-2-4.3-3.9-6.4-5.9
		c-4.6-4.3-9.2-8.7-13.8-12.9c-3.2-2.9-6.1-6.4-10.3-8c-1.3-0.5-2.7-0.7-4.1-0.8c-1.8-0.1-3.7-0.2-5.5-0.4c-0.6,0-1.3,0.1-1.3-0.8
		c0-1.1,0.9-0.6,1.4-0.6C456.9,319.9,464.2,319.9,471.6,319.9C471.6,319.9,471.6,319.9,471.6,319.9z"/>
	<path class="st1" d="M601.2,319.9c7.7,0,15.4,0,23.1,0c0.5,0,1.5-0.5,1.6,0.6c0.1,1.3-1,0.8-1.6,0.8c-2.9,0.1-5.9-0.1-8.8,0.4
		c-1.8,0.3-3.3,0.9-4.8,2c-0.7,0.5-1.2,1.2-1.3,2.1c-0.1,1.1-0.3,2.2-0.3,3.3c0,9.7,0,19.4,0,29.2c0,0.7,0,1.3,0.1,2
		c0.3,2.5,1.2,3.7,3.7,4.2c3.8,0.7,7.5,0.7,11.3,0.9c0.6,0,1.6-0.5,1.6,0.9c0,1.3-1,0.8-1.6,0.8c-15.5,0-30.9,0-46.4,0
		c-0.6,0-1.6,0.4-1.5-0.9c0-1.2,0.9-0.7,1.5-0.8c3.8-0.2,7.7,0.1,11.5-0.8c2.1-0.5,2.8-1.9,3.2-3.7c0.2-0.8,0.1-1.7,0.1-2.6
		c0-9.8,0-19.7,0-29.5c0-4.8-0.7-6-6.1-6.9c-3-0.5-6-0.3-9-0.4c-0.5,0-1.3,0.3-1.3-0.7c0-1.1,0.8-0.7,1.3-0.7
		C585.5,319.9,593.3,319.9,601.2,319.9z"/>
	<path class="st0" d="M181.3,254.1c-2.6,0-5.1,0-7.7,0c-1,0-1.2-0.3-1.2-1.3c0-5.8,0-11.6,0-17.4c0-0.9,0.3-1.1,1.1-1.2
		c8.2-0.7,16.4-1.2,24.5,0.4c3.8,0.7,7.5,1.8,10.8,4.2c3.1,2.3,3.7,6.6,0.4,8.9c-3.2,2.2-6.7,3.8-10.5,4.4
		C192.9,253.2,187.2,254.4,181.3,254.1z"/>
	<path class="st0" d="M411.5,260c1.1-2,2.9-3.1,4.3-4.5c4.5-4.4,9.2-8.7,13.6-13.1c1.4-1.4,2.1-1.4,3.5,0c2.3,2.4,4.7,4.8,7.1,7.1
		c3.4,3.4,6.8,6.9,10.3,10.4C437.4,260,424.6,260,411.5,260z"/>
	<path class="st0" d="M380.3,333c0-2.7,0-5.5,0-8.2c0-0.8,0.2-1.2,1.1-1.2c5.9-0.6,11.9-1.5,17.8-0.8c4.1,0.5,8.4,1,12.2,2.6
		c2.2,0.9,4.5,2,5.9,4.3c1.7,2.9,0.9,5.8-2.3,7.8c-3.4,2.1-7.2,3-11,3.9c-7.3,1.5-14.7,1.3-22.2,1.5c-1.3,0-1.5-0.5-1.4-1.6
		C380.3,338.5,380.3,335.7,380.3,333z"/>
	<path class="st0" d="M818,232.7c5.5,0.1,11.6,0.2,17.5,1.8c5.4,1.4,10.7,3.6,14.5,7.8c4.7,5,6,11.2,4.4,17.8
		c-1.3,5.4-4.7,9-9.6,11.6c-2.7,1.4-5.5,2.1-8.3,3c-11.3,3.3-22.7,3.1-34,1.1c-6.1-1-11.7-3.7-16.3-8c-7-6.5-7.8-17.5-2-24.4
		c2.4-2.9,5.5-4.8,8.7-6.4C800.6,233.1,809,232.8,818,232.7z"/>
	<path class="st0" d="M816.6,321.6c5.4,0.1,9.6,0.1,13.8,0.9c3.6,0.7,7.4,1.2,10.7,2.7c7.8,3.5,13.8,9.2,13.5,19.5
		c-0.2,5-1.9,9.3-6,12.5c-2.7,2.2-5.7,3.7-8.9,4.8c-12.6,4.3-25.4,4.1-38.3,1.8c-4.4-0.8-8.8-2.4-12.5-5.4
		c-6.9-5.5-10.1-12.8-6.8-22.3c0.9-2.5,2.6-4.5,4.6-6.2c3.6-3.1,7.8-5.2,12.5-6.2c3.1-0.6,6-1.7,9.2-1.8
		C811.6,321.9,814.7,321.7,816.6,321.6z"/>
</g>
</svg>
