<?xml version="1.0" encoding="utf-8"?>
<!-- Generator: Adobe Illustrator 21.1.0, SVG Export Plug-In . SVG Version: 6.00 Build 0)  -->
<svg version="1.1" id="Layer_1" xmlns="http://www.w3.org/2000/svg" xmlns:xlink="http://www.w3.org/1999/xlink" x="0px" y="0px"
	 viewBox="0 0 700 965" style="enable-background:new 0 0 700 965;" xml:space="preserve">
<style type="text/css">
	.st0{display:none;fill:#FDFDFD;}
	.st1{fill:#231F21;}
	.st2{fill:#241F21;}
	.st3{fill:#6A6A6A;}
	.st4{fill:#6D6D6D;}
	.st5{fill:#595959;}
	.st6{fill:#6E6E6E;}
	.st7{fill:#5B5B5B;}
	.st8{fill:#686868;}
	.st9{fill:#FBFBFB;}
	.st10{fill:#FCFCFC;}
	.st11{fill:#F1F1F1;}
</style>
<path class="st0" d="M351.5,657.5c-115.8,0-231.6,0-347.4,0.1c-2.2,0-2.7-0.5-2.7-2.7C1.5,540,1.5,425,1.5,310.1
	c0-2.2,0.5-2.7,2.7-2.7c231.6,0.1,463.2,0.1,694.7,0c2.2,0,2.7,0.5,2.7,2.7c-0.1,114.9-0.1,229.8,0,344.7c0,2.2-0.5,2.7-2.7,2.7
	C583.1,657.5,467.3,657.5,351.5,657.5z"/>
<path class="st1" d="M532.8,370.5c-42.7,0-80.7,1.3-118.7-0.5c-20.2-1-25.3,6.2-23.6,24.7c1.1,11.8,5.4,26.1-17.1,25.7
	c-17.9-0.3-25-4.3-22.9-23.1c2.4-21.6-8.7-49.5,4.3-63.6c13.3-14.4,41.4-4,63-4.4c43-0.9,86-0.2,129-0.4c36.3-0.2,47,19.2,28,52.4
	c-10.9,19-22.7,37.5-34.1,56.2c-19.8,32.6-39.5,65.3-59.5,97.8c-7.9,12.8-35.7,21.4-48.5,14.5c-12.1-6.6-0.2-13,2.3-17.2
	c27.3-46.1,55.6-91.6,83.5-137.4C522.5,388.5,526.4,381.6,532.8,370.5z"/>
<path class="st2" d="M139.7,370.5c37.7,61.8,72.2,118.6,106.9,175.6c-36.1,10.6-43.1,8.1-61.2-21.4c-28.4-46.5-56.7-93-84.9-139.5
	c-3-4.9-6.4-9.6-8.3-14.9c-10.2-29.2-1.5-41.4,28.9-41.3c60.9,0.1,121.7,0.6,182.6-0.3c15.3-0.2,19.9,4.3,19,19.2
	c-1.1,17.8-1.3,35.9,0.1,53.7c1.2,15.9-5.3,19-19.5,18.7c-13.3-0.3-20.8-1.2-20.5-18.1c0.6-31.6-0.6-31.6-32.1-31.6
	C215.3,370.5,179.9,370.5,139.7,370.5z"/>
<path class="st3" d="M456.6,635.8c-34.2-19.1-54.6-18.9-68,2.3c-11.3-18.7-4.6-37.2-2.1-54.9c0.9-6.7,9.1-8.3,16-8.2
	c8.1,0.1,16.2,0,24.2,0c34.8,0.1,42,9.4,28.1,41.8C451,625.5,463.6,629.1,456.6,635.8z"/>
<path class="st4" d="M324.8,575c6.7,0,11.6,0.4,16.4-0.1c23.1-2.4,32.3,7.4,31.1,30.9c-1.5,29.1-4.1,33-31.7,33.3
	c-7.3,0.1-14.6,0-21.8,0c-34.3-0.1-47.3-17.1-36.2-49.4C290.4,566.8,311.2,577.7,324.8,575z"/>
<path class="st3" d="M567.7,639.6c-8.5-16.8-2.8-31.6-5.7-45.6c-1.3,0-3.1-0.6-4,0.1c-13.9,10.6-23.1,33.5-39.7,32.1
	c-13.4-1.1-25.4-19.3-38.7-30.4c-6.5,13.7,2.4,28.4-8.6,43.7c-6.9-21-3.8-39.1-3.2-56.6c0.3-9.2,7.7-6.4,12.2-2.3
	c8.9,8.2,17.9,16.5,25.8,25.7c9.1,10.6,16.4,13.3,26.2,0.5c7.3-9.5,16.8-17.5,25.7-25.8c8.1-7.5,13.5-5.3,13.2,5.7
	C570.4,603.2,573.3,619.8,567.7,639.6z"/>
<path class="st5" d="M695.2,635.8c-38.2-24-76.1-24.8-115.3,0.3c-0.8-21.9,20.1-27.2,31.6-39.1c25.6-26.6,25.9-26,51.8-0.6
	c11.9,11.7,24.5,22.7,36.7,34.1C698.4,632.3,696.8,634.1,695.2,635.8z"/>
<path class="st6" d="M6,637.9c-10.4-18.5-4.4-36-2.9-53c0.5-6,5.8-9.7,12.2-9.8c20.6-0.1,41.2,0,61.8,2.5
	c-14.6,11.6-31.3,5.2-47,6.9c-9.2,1-20-2.6-19.5,13.6c0.4,14.7,10.3,11.1,18.6,12.1c12.7,1.4,26.4-3.4,41.5,4.8
	C49.1,629.6,18.7,605.1,6,637.9z"/>
<path class="st7" d="M83.9,639.8c14.4-30.6,39.8-42.2,56.5-61.8c3.7-4.3,9.3-3,13,0.7c17.8,18.1,35.4,36.5,52.4,56.3
	C166.3,612.9,127.7,610.2,83.9,639.8z"/>
<path class="st8" d="M274,635.5c-3.4,1.8-4.7,3-6.2,3.1c-56.2,5.2-62.2-1.5-52-61.2c9,8.4,5.9,18.6,4.8,26.4
	c-3.3,22.6,6.3,28.5,26.9,26.1C255.4,629,264.8,626.3,274,635.5z"/>
<path class="st9" d="M419.5,613.8c-10-2.3-27.6,7.6-25.6-16.2c0.7-8.8,2.9-13.7,12.5-13.3c8.9,0.4,17.8,0.3,26.7,0.1
	c10.8-0.3,20,1.7,19.6,15.1c-0.3,13.5-10.1,14.6-20.5,14.3C428.1,613.7,424.1,613.8,419.5,613.8z"/>
<path class="st10" d="M327.3,584.5c35.2-0.1,39.9,4.1,36.3,30.1c-1.3,9.8-5.7,14.7-15.5,14.8c-13.8,0.1-27.5,0.1-41.3,0
	c-17.8-0.1-14.7-13.3-15.1-24.4c-0.5-11.6,0.7-21.6,16.2-20.6C314.4,584.9,320.9,584.5,327.3,584.5z"/>
<path class="st11" d="M613.5,609c24-26.6,19.5-34.2,47.2,0C644.7,609,630.3,609,613.5,609z"/>
<path class="st11" d="M169.6,610c-15,0-29.1,0-43.6,0C141.8,578.2,145.8,578.1,169.6,610z"/>
</svg>
