<?xml version="1.0" encoding="utf-8"?>
<!-- Generator: Adobe Illustrator 21.1.0, SVG Export Plug-In . SVG Version: 6.00 Build 0)  -->
<svg version="1.1" id="Layer_1" xmlns="http://www.w3.org/2000/svg" xmlns:xlink="http://www.w3.org/1999/xlink" x="0px" y="0px"
	 viewBox="0 0 700 965" style="enable-background:new 0 0 700 965;" xml:space="preserve">
<style type="text/css">
	.st0{display:none;fill:#F4F4F4;}
	.st1{fill:#1E1E1C;}
	.st2{fill:#1F1F1D;}
	.st3{fill:#1E1F1D;}
	.st4{fill:#F3F2F2;}
	.st5{fill:#F3F3F3;}
</style>
<g>
	<path class="st0" d="M351,251c115.3,0,230.7,0,346-0.1c3.4,0,4.1,0.7,4.1,4.1c-0.1,152-0.1,304,0,456c0,3.4-0.7,4.1-4.1,4.1
		c-230.7-0.1-461.3-0.1-692,0c-3.4,0-4.1-0.7-4.1-4.1C1,559,1,407,0.9,255c0-3.4,0.7-4.1,4.1-4.1C120.3,251,235.7,251,351,251z"/>
	<path class="st1" d="M336.4,572.1c-10.2,6.6-18.6,13.5-28.2,18.1c-21.3,10.1-35.5,1.4-37.3-22.3c-1.2-16.2,3.9-30.7,14.4-42.8
		c21.6-25.1,48.3-42.4,81-49.4c11.3-2.4,22.9-4.4,31.6,6.3c4.3,5.3,7.9,3.5,11.7-0.1c4.7-4.6,10.5-5.9,16.6-6
		c5.2,0,12.1-1.4,14.8,3.4c3.4,6.2-4,9-7.4,12.5c-22.3,22.4-45.9,43.5-64,69.7c-3.7,5.3-10.5,11.6-6.1,17.8
		c5.1,7.2,13.2,2.6,20.2,0.2c32.5-11.4,58.4-32.6,83.3-55.3c19.4-17.7,39.6-34.6,64-44.9c10.8-4.6,23.8-10.4,32.9,2.6
		c8.9,12.5,0.9,23.4-7.3,32.4c-15.4,16.8-32.1,32.5-47.7,49.2c-4,4.3-12.7,8.7-6.5,16.4c4.9,6,12.6,3.5,18.9,1.3
		c11.6-4,20.9-11.9,30.1-19.8c29-25.1,57.8-50.3,86.8-75.3c7.8-6.7,15.9-12.8,30.7-6.7c-31.5,36.1-66.9,67.4-96,109.3
		c52.5-7.2,89-36.7,126.6-68.6c1.6,12.5-5.4,15.7-9.9,19.7c-31,27.7-65.9,48.7-107.3,56.6c-12.2,2.4-20.3,8.2-27.6,17.7
		c-24.2,31.4-49.4,62.1-79.6,88.2c-9.2,8-19,15.2-30.5,19.4c-20.8,7.7-36.7-6.3-32.3-28.2c2.8-13.6,10.5-24.6,20.2-34.2
		c26.3-25.9,58.1-42.8,91.8-57c8.3-3.5,18.7-4.8,21.7-18.6c-10.6,3.4-20,7.1-29.7,9.2c-11.4,2.5-23.4,3-31.4-7.7
		c-8-10.6-4.1-21.7,1.3-32.2c10.5-20.4,30-32.3,45.4-48.1c4.3-4.4,14.8-8.2,9.9-14.9c-5.3-7.2-13.5,0.3-19.5,3.6
		c-22,12.1-40.1,29.2-58.8,45.6c-24.3,21.5-49.8,41.1-81.1,51.3C357.9,598.4,349.1,594.7,336.4,572.1z"/>
	<path class="st2" d="M369.4,430.4c-18.6,17.6-41.4,25.4-66.2,26.6c-11.9,0.6-19.6,4.4-26.8,13.9c-38.3,50.4-85.9,88.6-146.6,108.9
		C88.8,593.6,48.1,595.6,9,573.6c-3.7-2.1-9.9-3.2-8.8-9.3c0.5-2.9,3.4-6,6-7.7c6.3-3.9,7.6,3.3,10.4,6
		c22.6,21.2,50.1,24.2,77.3,15.6c66.4-20.9,116-65.8,159.6-118.2c9.9-11.9-1-13.1-8.8-14.5c-16.5-2.9-32.7,3.2-53.6,3.1
		c23.2-12.5,43.7-19,65.3-13.5c13.2,3.4,19.2-1.3,26.5-10.8c26-34.3,53.4-67.6,85.6-96.4c16.4-14.7,33.6-28.3,57-31
		c-55.6,28.4-89.9,76.7-121.5,127.6c-2.7,4.3-8.7,8.8-5.7,14.1c3.5,6.1,10.9,2.8,16.5,2.8C333.6,441.5,350.7,432.4,369.4,430.4z"/>
	<path class="st3" d="M587,245.1c-25,28.4-59,35.2-94.2,37.8c-46,3.4-91-4.9-136.1-13.1c-45.2-8.2-90.8-11.3-136.3-2.5
		c-44.2,8.5-78.5,30.5-94.8,75.4c-7.7-20.4-0.2-42.5,21.8-58.2c31.9-22.8,68.2-34,107.1-37.1c83.6-6.6,166.6,3.1,249.7,9.6
		C533.3,259.3,559.8,254.5,587,245.1z"/>
	<path class="st4" d="M526.8,615.3c-22.2,32.9-43.7,65.7-74.1,91.1c-6.6,5.5-14.8,14-24.5,5.2c-9.2-8.3-6.1-18.4-1.1-27.6
		c9.2-17,24.2-28.3,39.8-38.8C485.3,632.6,504.7,621.6,526.8,615.3z"/>
	<path class="st5" d="M392.5,494.1c-1.6,2.5-3.3,6.3-6,9.2c-19.9,21.9-39.8,43.8-60.1,65.3c-4,4.3-9.6,7.2-14.7,10.5
		c-5.2,3.4-11.2,6.3-16.5,1.4c-5.5-5-2.7-11.6,0.1-16.8c18.1-33.4,43.4-59.7,78.3-75.6C385.9,482.5,392.7,485.1,392.5,494.1z"/>
</g>
</svg>
