<?xml version="1.0" encoding="utf-8"?>
<!-- Generator: Adobe Illustrator 21.1.0, SVG Export Plug-In . SVG Version: 6.00 Build 0)  -->
<svg version="1.1" id="Layer_1" xmlns="http://www.w3.org/2000/svg" xmlns:xlink="http://www.w3.org/1999/xlink" x="0px" y="0px"
	 viewBox="0 0 700 965" style="enable-background:new 0 0 700 965;" xml:space="preserve">
<style type="text/css">
	.st0{fill:#FEFEFE;}
	.st1{fill:#0E245E;}
	.st2{fill:#052C68;}
	.st3{fill:#052C69;}
	.st4{fill:#07366E;}
	.st5{fill:#03457C;}
	.st6{fill:#04427F;}
	.st7{fill:#04477E;}
	.st8{fill:#034579;}
	.st9{fill:#072564;}
	.st10{fill:#99A7C6;}
	.st11{fill:#062060;}
	.st12{fill:#073973;}
	.st13{fill:#083A74;}
	.st14{fill:#09316D;}
	.st15{fill:#082E69;}
	.st16{fill:#153A66;}
	.st17{fill:#2F4F7C;}
	.st18{fill:#184070;}
	.st19{fill:#193A6B;}
	.st20{fill:#1D507C;}
	.st21{fill:#1B3C6D;}
	.st22{fill:#07356E;}
	.st23{fill:#20497C;}
	.st24{fill:#EDF6F7;}
	.st25{fill:#253A72;}
	.st26{fill:#264875;}
	.st27{fill:#1D4770;}
	.st28{fill:#C8DFE8;}
	.st29{fill:#557FA1;}
	.st30{fill:#153563;}
	.st31{fill:#092B65;}
	.st32{fill:#193B6E;}
	.st33{fill:#275081;}
	.st34{fill:#BEE5FC;}
	.st35{fill:#345D85;}
	.st36{fill:#6F8EB2;}
	.st37{fill:#1D376E;}
	.st38{fill:#E2F0F3;}
	.st39{fill:#E4F1F5;}
</style>
<g>
	<path class="st0" d="M1.4,482.9c0-114.9,0-229.9-0.1-344.8c0-4.5,0.5-5.9,5.6-5.9c230.1,0.2,460.2,0.2,690.3,0
		c4.5,0,5.3,1.1,5.3,5.4c-0.1,230.1-0.1,460.2,0.1,690.3c0,5.2-1.6,5.5-6,5.5c-229.9-0.1-459.7-0.1-689.6,0c-4.9,0-5.7-1.1-5.7-5.8
		C1.4,712.8,1.4,597.9,1.4,482.9z"/>
	<path class="st1" d="M81.5,528c160.1,0,320.2,0,480.3,0c6.5,0,13.1-0.1,19.6-0.1c3.9,0,6.3,1.1,3.1,5.3c-2.1,1.5-4.5,0.8-6.8,0.8
		c-163.3,0-326.5,0-489.8,0c-1.9,0-3.9,0.5-5.6-0.2C79.4,532.6,77.3,530.6,81.5,528z"/>
	<path class="st2" d="M575,513.9c-5.5,1.6-11.1,0.4-16.6,0.4c-24.5,0.2-49,0-73.5,0.3c-4.4,0.1-5.5-1.1-5.5-5.4
		c0.2-17.7,0.2-35.5,0-53.2c-0.1-4.4,0.7-6,5.8-6c28.5,0.3,56.9,0.2,85.4,0c4.4,0,5.9,1.1,5.6,5.5c-0.3,3.7,0.8,8.2-5.6,6.4
		c-7.6-1.6-15.3-0.5-23-0.6c-14.2-0.2-28.5-0.1-42.7,0c-3.5,0-6.6-0.2-9.8-2.6c-4.9-3.5-9-1.1-9.2,5.1c-0.3,12.4-0.3,24.8,0,37.1
		c0.1,5.9,1.8,7,7.5,5c3-1.1,5.9-1.1,8.9-1.1c21.5,0,43,0,64.4,0C576,504.7,576,504.7,575,513.9z"/>
	<path class="st3" d="M311.5,513.9c-7.6,0.2-15.3,0.4-22.9,0.5c-22.7,0.1-45.3,0-68,0.2c-4,0-5.3-0.9-5.2-5.1
		c0.3-17.7,0.3-35.5,0-53.3c-0.1-5.2,1.7-6.3,6.5-6.2c28.5,0.2,57,0.1,85.5-0.1c4.5,0,5.7,1.5,5.5,5.6c-0.2,3.9,0.4,8.1-5.8,6.3
		c-2.1-1.4-4.5-0.7-6.8-0.7c-19.9-0.1-39.7,0-59.6,0c-3.3,0-6.2-0.3-9.3-2.3c-5-3.3-8.9-1.3-9.1,4.5c-0.4,12.6-0.3,25.2,0,37.8
		c0.1,5.5,2,6.8,6.3,4.1c3.8-2.4,7.3-0.5,10.8-0.6c21.3-0.2,42.5-0.1,63.8-0.1C312.4,504.7,312.4,504.7,311.5,513.9z"/>
	<path class="st4" d="M347.2,513.9c-3.6,0-2.1-2.6-2.1-4.4c1.8-1.2,1.9-3,1.9-4.9c0-22.3,0-44.6,0-66.8c0-1-0.2-1.8-1-2.5
		c-1.7-4.3-0.2-5.9,4.3-5.9c32.6,0.1,65.2,0.1,97.8,0.1c2,0,5.3-0.4,4.8,2.4c-0.6,3.5,3.4,8.6-2.9,10.4c-2.1-1.5-4.5-0.7-6.8-0.7
		c-23.8-0.1-47.6,0-71.4,0c-3,0-5.8-0.2-8.6-2.1c-6.4-4.6-9.6-3.1-9.5,4.6c0.4,19.6-0.1,39.2,0.9,58.8c0.9-4.2,0.7-8.4,0.7-12.7
		c0.1-2.8-0.1-5.6,0.9-8.3c0.8-2.3,2.3-4.6,4.9-4.1c2.3,0.5,1.2,3.2,1.2,4.8c-0.2,10.5,0.7,20.9-0.4,31.4l0,0
		C357,514.7,352.1,514.7,347.2,513.9z"/>
	<path class="st5" d="M183.6,442.2c-25.6,0.1-51.2,0.4-76.9,0.1c-6.3-0.1-9.3,1.3-7.8,8c0.3,1.3,0.3,2.8,0,4.2
		c-1.5,7.3,1,11.1,8.9,10.3c1.4,0.7-2.6,2.2,0.4,2.5c2.1,0.2,4.9-0.1,5.1,2.4c0.2,2.8-2.7,3.4-5,3.8c-0.9,0.2-1.8,0.2-4.1,0.9
		c11.8,0.4,22.2-0.9,32.7-0.4c5.6,0.2,11.2-0.4,16.7,0.6c2.7,0.5,5.6,0.4,7.6,2.8c-9.7,1.8-19.4,0.4-29.1,0.7
		c-9.1,0.2-18.2,0.2-27.2-0.1c-4.8-0.2-6.6,1.1-6.2,6.3c0.7,9,0.4,18.1,0.6,27.2c0,1-0.2,1.8-1.3,2.1c-2.6-1.9-2.9-4.5-2.8-7.5
		c0.1-5.4,0-10.7,0-16.1c-0.1,5.1,0,10.2-0.1,15.3c-0.1,2.5-0.6,4.7-3.6,5.1c-3.3,0.4-5-1.7-5-4.5c-0.7-22.6-0.7-45.1,0-67.7
		c0.1-1.6,1-3.1,2.5-4c6.5-2.1,13.4-0.4,20-1.9c2.2-0.5,4.9,0.4,5,3.5c0.1,3.2-2.5,3.4-4.9,3.5c21.3-1.2,42.6-0.4,64-0.6
		c2.8,0,5.6-0.2,8.3,0.7C182.8,440,183.9,440.6,183.6,442.2z"/>
	<path class="st6" d="M575,513.9c1.1-7.1-2-8.9-9-8.7c-18.6,0.5-37.3,0-55.9,0.3c-5.7,0.1-11.5-1.5-17,3.5c-4.2,3.8-9.3,0.1-9.4-5.8
		c0-14.2,0-28.4,0-42.7c0-2.5-0.5-6.1,3.3-5.4c3.8,0.7,9.4-3.9,11.2,3.2c0.9,3.7,3.7,2.1,5.6,2.1c19.8,0.1,39.6,0.1,59.4,0.1
		c2.5,0,5.2-0.9,7.3,1.3c-22.6,0.1-45.3,0.4-67.9,0.1c-5.9-0.1-6.9,1.8-6.9,7.1c0,5.2,0.7,7.5,6.8,7.3c13.5-0.5,27.1-0.2,40.6-0.2
		c8.8,0,10,1.9,6.5,10.7c-2.2-6.2-6.5-7.9-12.9-7.5c-9.1,0.6-18.2,0-27.3,0.2c-3,0.1-8.4-1.5-8.5,1.9c-0.1,3.9,5.3,2.1,8.2,2.2
		c10,0.3,20.1,0,30.1,0.2c2.8,0.1,6.3-0.8,7.5,3.2c-14.7,0.1-29.4,0.4-44.1,0.1c-5.2-0.1-7,1.1-6.7,6.5c0.5,10.9-1.9,10.6,10.5,10.5
		c20.8-0.2,41.5-0.1,62.3-0.1C576.9,504,577.8,505.4,575,513.9z"/>
	<path class="st7" d="M311.5,513.9c1.1-7.1-2-8.9-9-8.7c-22.6,0.5-45.2,0.2-67.8,0c-1.8,0-2.8-0.3-3.7,1.7c-1.8,3.9-5.6,2.8-8.6,2.3
		c-3.2-0.6-2.1-3.7-2.1-5.8c-0.1-14-0.1-28,0-42c0-2.3-1-5.5,3.1-5.8c3.6-0.3,8.6-2.7,10.2,1c2.1,4.8,5.2,3.9,8.4,3.9
		c19.3,0.1,38.7,0,58,0.1c2.5,0,5.2-0.9,7.3,1.4c-22.6,0.1-45.1,0.3-67.7,0.1c-5.4,0-7.2,1.1-7.1,6.9c0.1,5.7,1.3,7.6,7.3,7.4
		c13.7-0.5,27.5-0.2,41.2-0.2c1.8,0,3.8-0.8,5.1,1.2c-2.4,2.5-5.6,2-8.5,2.1c-10.5,0.1-21,0-31.4,0c-1.2,0-2.4-0.2-3.5,0
		c-2.3,0.4-6.2-1.2-6.2,2.3c0,2.7,3.8,1.9,5.9,1.9c10.5,0.1,21-0.1,31.4,0.1c2.9,0.1,6.8-1.2,8.1,3.2c-14.2,0.1-28.4,0.3-42.6,0.2
		c-4.4,0-7.6,0.4-6.5,5.9c0.8,4.5-3.3,11.4,6.5,11.2c22.2-0.4,44.3-0.2,66.5-0.2C313.5,503.9,314.9,506.1,311.5,513.9z"/>
	<path class="st8" d="M361.9,513.9c0-11.7,0-23.3,0-35.2c-3.9,0.9-4.5,3.3-4.4,6.3c0.1,5.8,0.1,11.7,0,17.5c0,2.4,0.9,6.2-2.6,6.2
		c-4.1,0.1-2.9-4-3-6.5c-0.1-16.1-0.2-32.2,0-48.3c0.1-4.4-1.6-8.6-0.2-13.1c0.8-2.5-0.4-6,3.4-6.7c3.6-0.6,7.5-0.1,9.3,3.1
		c2.1,3.6,4.9,3.7,8.2,3.6c23.3,0,46.7-0.1,70,0c2.4,0,5.2-0.9,7.2,1.4c-26.5,0.1-52.9,0.3-79.4,0c-5.7-0.1-8.4,1.2-7.3,7.3
		c0.9,5-1.5,10.2,1.3,15c1.5,3.1,4.4,2.1,6.8,2.2c10.7,0.1,21.5,0,32.2,0.1c1.9,0,3.7-0.1,5.6,0.1c2.5,0.3,6,0,6,3.4
		c0,3.3-3.6,3.2-6,3.3c-10.7,0.4-21.5,0.1-32.2,0.2c-3.3,0-6.7-0.1-8.4,3.6c-4.3,0.2-5.8,2.2-5.5,6.7c0.5,8.7,0.5,17.5,0.6,26.2
		C363.8,511.8,364.5,513.7,361.9,513.9z"/>
	<path class="st9" d="M527.2,437.8c-14.2,0-28.4,0-42.6,0c-3.2,0-6.3,0.3-6.4-4.2c-0.1-4.7,3.2-4.2,6.3-4.2c28.2,0,56.4,0,84.5,0
		c2.9,0,6.3-0.8,6.4,4c0,4.8-3.2,4.2-6.3,4.2C555.2,437.8,541.2,437.8,527.2,437.8z"/>
	<path class="st10" d="M81.5,528c-2.6,2.6-2.3,4.6,1.5,5.1c2.8,0.3,5.6,0,8.4,0c163.4,0,326.9,0.1,490.3,0.1c0.9,0,1.9,0.1,2.8,0.1
		c-2,2.5-4.8,1.4-7.2,1.4c-163.3,0.1-326.6,0.1-490,0.1c-2.3,0-4.7,0-6.9-0.6c-2-0.5-4.6-1.2-4.1-3.9
		C76.9,527.7,79.3,527.5,81.5,528z"/>
	<path class="st11" d="M183.6,442.2c-0.4-0.5-0.9-1-1.3-1.5c-1.2-5-4.4-6.3-9.3-6.3c-15.6,0.2-31.2,0.1-46.8,0.1
		c-9.7,0-19.4-2.1-29.1-0.8c-2.5,0.3-5.2-0.2-7.4,1.4c-1.9,1.6-1.4,3.8-1.4,5.9c0,20.7-0.1,41.4,0.1,62.1c0,2.2-1.4,5.9,2.6,6
		c4.1,0.1,2.8-3.5,2.9-5.8C94,496,94,488.5,95,481c3.3,10.7-0.1,22,3.2,32.6c-1.3,0.5-2.5,1.2-3.8,1.4c-9.3,1.5-10.4,0.5-10.3-8.9
		c0.1-25,0.2-50.1,0.4-75.1c1.2-0.9,2.7-0.7,4.1-0.7c32.5,0,65.1,0,97.6,0c1.2,0,2.3,0,3.4,0.5l0,0c0.2,3.3,0.3,6.6-0.2,9.9
		C187.7,442.6,185.9,443.2,183.6,442.2z"/>
	<path class="st12" d="M161.3,477.4c-20.1-3.6-40.5,0.2-61-1.7c1.9-7.4,9.5-1.2,12.5-6.4c-4.4-0.3-8.4-0.5-13.2-0.8
		c2.4-3.8,6.5-1,8.3-3.7c17-0.2,34-0.4,50.9-0.6c2.9,0,4.7,1.2,4,4.2C162.2,471.3,164.6,474.9,161.3,477.4z"/>
	<path class="st13" d="M368.6,477.4c-4.4-4.9-1.2-5.7,3.2-5.7c11.9-0.1,23.8,0,35.7,0c2.2,0,4.5,0.5,7.1-1.1
		c-2.2-2.3-4.6-1.6-6.7-1.6c-13.3-0.1-26.6,0-39.9-0.1c-2.5,0-6.9,0.9-3.4-4.2c18.8-0.2,37.6-0.3,56.3-0.6c3.5,0,5.6,1,4.9,4.8
		c-0.5,2.8,1.4,6-1.4,8.5c-8.7,1.7-17.5,0.6-26.2,0.6C388.4,477.9,378.5,478.7,368.6,477.4L368.6,477.4z"/>
	<path class="st14" d="M281.8,487c-2.2-2.1-4.9-1.2-7.3-1.2c-11.7-0.1-23.4-0.5-35,0.1c-5.5,0.3-7.3-2.1-7-6.4
		c0.3-4.5,4.4-2,6.6-2.1c15.6-0.3,31.3-0.2,46.9-0.2C286.5,481.3,290.7,487,281.8,487z"/>
	<path class="st15" d="M546.7,486.9c-2.7-2.2-5.8-1.1-8.7-1.2c-12.1-0.1-24.2,0-36.3-0.2c-1.8,0-5,1.7-4.7-2.9
		c0.2-3.5,0.7-5.5,4.9-5.5c14.2,0.2,28.4,0.2,42.6,0c8.1-0.1,4.1,6,5.1,9.5C548.7,486.8,547.7,486.9,546.7,486.9z"/>
	<path class="st16" d="M499.1,550c-4.7,7.9-12.3,8.4-16.6,1c-0.9-1.6-1.1-3.7-3.7-3.1c-2.1,0.5-3.9,1.3-4.1,4
		c-0.1,1.7,0.3,4.4-2.6,3.9c-2.4-0.5-1.7-2.9-1.6-4.7c0.1-1.2,0.2-2.3,0.2-3.5c0.2-9.8,1.3-10.5,9.7-5.3c2.4,1.5,3.3-0.4,4.7-1.2
		c4.8-3,9.1-3.1,12.6,2.1C498.8,545.2,501.6,547.1,499.1,550z"/>
	<path class="st17" d="M370.3,543.2c-0.2-1.2-0.4-2.5,1.1-2.8c2.2-0.5,1.8,1.2,2,2.6c0.5,3.5-2.6,8.9,3.5,9.6
		c5.4,0.6,4.5-5.3,6.3-8.4c1.1-1.9,1-5,4.2-4.8c2.8,0.2,2.1,3.2,3.3,4.8c1.8,2.3,1.1,7.4,4.3,7.3c3.8-0.1,0.9-5.2,2.9-7.4
		c4.2,2.9,0.1,7,1.4,10.3c-0.5,1.5-2,1.5-2.9,1.1c-7.9-4-15.6,1.4-23.4,0.3c-3-1.6-3.3-4.3-2.7-7.2
		C370.7,546.8,371.3,545,370.3,543.2z"/>
	<path class="st18" d="M433.5,550.6c-1.8,5.2-5.9,6.4-10.6,5.2c-3.5-0.8-6.1-3.5-6.4-7.3c-0.3-4.1,1.6-7.4,5.4-8.8
		c5-1.9,9-0.2,11.5,4.7C434.8,546.4,434.8,548.5,433.5,550.6z"/>
	<path class="st19" d="M367.3,551.2c-2.9,5.1-7.3,6.3-12.3,3.8c-3.8-2-6-5.5-4.3-9.9c1.9-5,6.1-6.7,11.2-6c2.9,0.4,4.8,1.8,3.9,5.2
		c-2,2.5-4.8,0.1-7,1.1c-1.1,0.5-2.3,1.1-1.8,2.4c0.8,2,1.9,1.1,2.9,0c2.7-3,5.3-1.6,7.7,0.5l-0.3,0.6
		C368.1,549.7,368,550.5,367.3,551.2z"/>
	<path class="st20" d="M516,541.7c2.8,0.5,6.8-5.3,8.4,2.2c0.4,2.1,3,0.3,3.3-2c0.2-1.3,0.8-2.4,2.1-2.2c1.8,0.2,1.7,1.8,1.7,3.2
		c0,3.2,0,6.5,0.1,9.7c0,1.2-0.2,2.4-1.6,2.7c-1.4,0.2-1.9-0.9-2.3-2c-0.4-1.4,0.4-3.8-1.9-3.8c-2.6,0-2.2,2.4-2.4,4.2
		c-0.2,1.8-1.6,2-3.1,2.1c-0.5-0.4-1.6-0.8-1.6-1.2c0.1-5.4-2.7-8.8-7.2-11.2C512.5,541.7,514.2,541.7,516,541.7z"/>
	<path class="st21" d="M516,541.7c-0.9,1.8-2.6,1.4-4.2,1.5c-1,1.7-4.2,2.3-3.5,4.8c0.6,2.3,3.1,1.3,4.9,1.4
		c2.3,0.1,4.4,0.6,4.2,3.4c-0.2,2.4-2.1,3.6-4.4,3.6c-2.3,0.1-4.6,0.7-6.8-0.5c-3-1.2-3.4-5.5-7-5.9c-0.4-2.3-0.9-4.7-1.3-7
		c2,2.4,3.2,1.7,5.1-0.5C506.7,538.1,511.3,537.1,516,541.7z"/>
	<path class="st22" d="M189.4,430.9c-35,0-70.1,0.1-105.1,0.1c0.6-2.4,2.5-1.5,4-1.5c32,0,64.1,0,96.1,0.1
		C186.2,429.5,188.3,428.7,189.4,430.9z"/>
	<path class="st23" d="M450.9,548.1c1-3.4-2.7-9.2,4.9-9.1c4.1,0.1,6,2.2,5.3,6.3c-0.2,1.3-1.6,2.8-1.2,3.9c2.9,8.5-6.5,2.4-7.4,6.3
		C448.6,553.7,452,550.5,450.9,548.1z"/>
	<path class="st24" d="M506.1,555.9c2.1,0,4.2,0.2,6.3-0.1c2.1-0.3,4.6-1.4,4.1-3.7c-0.6-2.6-2.9-1.2-4.6-0.6
		c-3.5,1.2-6.7-0.2-7-3.6c-0.4-4.3,3.3-5,6.9-4.8c0.8,0.4,1.7,1.4,2.3,1.2c5.6-1.5,6.4,1.4,5.2,5.7c-0.7,2.3-0.2,4,1,5.7
		C515.5,556.7,510.8,558.9,506.1,555.9z"/>
	<path class="st25" d="M399.2,554.4c-3.4-3,0.5-7.1-1.4-10.3c0-1.8-0.4-3.8,1.9-4.6c1.3-0.4,2.2,0.3,2.8,1.4c1,1.7,0,5.3,3.5,4.8
		c2.8-0.4,0.9-4.3,3.2-5.5c2.6,3,3.2,6.4,1.4,10c-2.8,2-4.8,7.3-9.3,1.6C400.5,550.5,399.8,553.3,399.2,554.4z"/>
	<path class="st26" d="M542.7,542c-0.3,1.3-3.7,1.3-2.2,2.3c5.8,3.6-0.1,4.2-1.4,6.2c0.6,2.4,4.4,1.3,4.8,4.4
		c-2.5,2.3-6.6,2.2-7.9,0.5c-3.2-4-1-9.3-1.1-14c-0.1-2.7,2.7-2.5,4.9-2.1C540.7,540.2,543.6,539.1,542.7,542z"/>
	<path class="st8" d="M346.1,435.3c2.5,1.6,1.6,4.2,1.6,6.4c0.1,20.5,0.1,41,0,61.5c0,2.3,1.3,5.4-2.5,6.3c1.3-18.5,0.2-37,0.6-55.5
		C345.8,447.8,345.9,441.6,346.1,435.3z"/>
	<path class="st27" d="M565.2,540.7c3.3-0.6,7-4.5,9.6,1.1c-1.9,0.9-5,1.3-1.5,4.4c1.2,1-0.5,1.9-1.2,2.7c-1.1,0.7-1.9,1.5-0.7,2.7
		c1.2,1.1,4.5,0.5,3.6,3.2c-0.9,2.5-3.6,1.2-5.6,1.3c-0.9,0-1.8-0.3-2.7-0.5C564.7,550.7,566.4,545.5,565.2,540.7z"/>
	<path class="st8" d="M368.6,477.4c18.6,0,37.3-0.1,55.9-0.1c-2.7,2.3-5.8,0.9-8.7,0.9C400.1,477.7,384.3,479.1,368.6,477.4z"/>
	<path class="st28" d="M367.5,548.3c-2.2,0.9-7.7-5.5-6.7,3.2c0.2,1.7-3.1,0.3-4.5-0.6c-2.2-1.4-3.2-3.2-1.3-5.8
		c3.3-4.5,7.1-1.2,10.7-0.8C366.4,545.7,366.9,547,367.5,548.3z"/>
	<path class="st29" d="M433.5,550.6c0-2.1,0-4.2,0-6.3c3.8,0.3,1.1-6,5.3-5.2c4.6,2.8,3.3,7,2.7,11.1c-0.3,2.4-3.6,0.6-4,2.8
		C436,552.4,435.7,549.9,433.5,550.6z"/>
	<path class="st30" d="M410.7,550.2c-0.5-3.3-0.9-6.7-1.4-10c2.8-1.6,3.7,0.1,3.9,2.5c0.3,2.5,0.5,5,0.8,7.5c0.2,1.8,2.7,4.5-0.3,5
		C410.3,555.8,411.2,552.1,410.7,550.2z"/>
	<path class="st31" d="M553.8,541.9c-4.4,2.8-2,7-2.4,10.7c-0.1,1.4-0.1,3-2,2.9c-1.8-0.1-2-1.5-1.9-3c0.2-3.8,1.1-7.7-2.1-10.8
		C548.3,538.7,551.1,538.2,553.8,541.9z"/>
	<path class="st32" d="M437.5,553c-0.4-3.1,0.8-3.2,3-1.7c0.9-0.9,1.4-2,1.8-3.1c0.4-2,0.2-4.2,1-6.1c0.6-1.5,1.4-3.2,3.5-1.4
		c-1.6,3.2-0.9,6.7-0.8,10c0,2.6-0.6,4.5-3.3,5.2C440.2,556.5,438.2,555.7,437.5,553z"/>
	<path class="st33" d="M553.8,541.9c-2.7-2.3-5.6-2.3-8.4-0.2c-0.9,0.1-1.8,0.2-2.8,0.3c-1-0.9-1.9-1.9-2.9-2.8c7,0,13.9,0,20.9-0.1
		c0.4,0.3,0.5,0.6,0.5,0.9c0,0.4-0.1,0.6-0.2,0.6c-1.1,0.9-2.4,1.6-3.7,2.3c-0.3,0.1-0.6,0.2-0.8,0.2
		C555.6,542.8,554.7,542.4,553.8,541.9z"/>
	<path class="st34" d="M443.2,550.2c-0.6,1.1-1.6,1.2-2.7,1c-1.6-3.9,1.3-8.5-1.8-12.2c1.5,0.1,3.1,0.2,4.6,0.2
		C443.8,543,444.1,546.6,443.2,550.2z"/>
	<path class="st33" d="M560.8,543.2c0.1,3.2,0.2,6.4,0.3,9.6c0,1.5-0.5,2.8-2.2,2.8c-1.8,0-2.2-1.3-2.2-2.8c0-3.2-0.1-6.4-0.1-9.6
		c0,0,0.5-0.4,0.5-0.4c3.5,2.5,0.4,6.3,1.9,9.2c0.2,0.9,1.5-0.3,0.6,0.1c-0.3,0.2-0.6,0-0.6-0.3
		C559.5,548.9,556.5,545.3,560.8,543.2z"/>
	<path class="st35" d="M367.3,551.2c0-0.8,0-1.5,0-2.3c2.3-1.2,2.5-3.6,3-5.8c3,3.7-0.3,8.8,2.7,12.6
		C369.1,556.7,369.1,552.8,367.3,551.2z"/>
	<path class="st36" d="M561,540.2c-0.1-0.4-0.2-0.7-0.3-1c1.8-0.3,3.2,0.5,4.5,1.5c2.4,4.8,0.3,10,1.4,14.9
		c-3.1-1.9-1.4-4.9-1.5-7.4c-0.2-2.6-0.2-4.9-2.9-6.3C561.6,541.4,560.8,541.2,561,540.2z"/>
	<path class="st31" d="M561,540.2c0.4,0.5,0.8,1.1,1.2,1.6c-0.5,0.5-0.9,0.9-1.4,1.4c-3.2,2.7-0.4,6.6-2,10
		c-1.7-3.4,0.7-7.3-1.8-10.3C556.7,539.5,559.5,540.7,561,540.2z"/>
	<path class="st36" d="M572,548.8c0.2-0.8,0.7-2.1,0.4-2.4c-5.9-4.9-0.2-4,2.3-4.7c1.2,1.2-3.3,0.9-0.5,3.2
		C577.3,547.5,575.4,549,572,548.8z"/>
	<path class="st22" d="M189.3,440.7c-1.5-3.3-1.2-6.6,0.2-9.9C190.8,434.2,191.2,437.5,189.3,440.7z"/>
	<path class="st29" d="M443.2,550.2c0.1-3.6,0.1-7.3,0.2-10.9c1.4-0.2,2.9-0.9,3.4,1.3c-2.2-0.1-2.6,1.2-2.6,3.1
		C444.2,545.9,445.1,548.3,443.2,550.2z"/>
	<path class="st37" d="M347.2,513.9c4.9,0,9.8,0,14.7,0C357,515.1,352.1,515.1,347.2,513.9z"/>
	<path class="st22" d="M89.7,435.2c1.5-3.2,4.5-2.8,7.2-2.8c26.7,0,53.4,0,80.1,0c7.3,0,7.7,0.8,5.3,8.3c-27.3,0-54.5,0-83.2,0
		c3.8-4.1,7.4-2.1,10.5-2.7c1.5-0.3,3.7,0.1,3.4-2.4c-0.3-2.3-2.5-2.1-3.9-1.7C102.8,436,96.2,435,89.7,435.2z"/>
	<path class="st38" d="M496.1,547.4c-0.6,2.9-2.4,4.6-5.3,4.5c-2.8,0-5.2-1.3-5.4-4.4c-0.2-3.2,2.4-4.3,5.1-4.5
		C493.5,542.8,495.3,544.6,496.1,547.4z"/>
	<path class="st39" d="M425.3,542.9c2.7,0.5,5.2,1.7,5.2,4.7c-0.1,2.9-2.4,4.5-5.2,4.5c-2.5-0.1-4.6-1.6-4.8-4.2
		C420.3,544.8,422.5,543.4,425.3,542.9z"/>
</g>
</svg>
