<?xml version="1.0" encoding="utf-8"?>
<!-- Generator: Adobe Illustrator 21.1.0, SVG Export Plug-In . SVG Version: 6.00 Build 0)  -->
<svg version="1.1" id="Layer_1" xmlns="http://www.w3.org/2000/svg" xmlns:xlink="http://www.w3.org/1999/xlink" x="0px" y="0px"
	 viewBox="0 0 700 965" style="enable-background:new 0 0 700 965;" xml:space="preserve">
<style type="text/css">
	.st0{fill:#FEFEFE;}
	.st1{fill:#231F20;}
	.st2{fill:#FDFDFD;}
	.st3{fill:#262223;}
	.st4{fill:#292526;}
	.st5{fill:#272324;}
	.st6{fill:#FCFCFC;}
	.st7{fill:#2A2627;}
	.st8{fill:#FAFAFA;}
	.st9{fill:#282425;}
	.st10{fill:#252122;}
	.st11{fill:#2D292A;}
	.st12{fill:#2B2828;}
	.st13{fill:#2C2829;}
	.st14{fill:#F7F7F7;}
	.st15{fill:#848282;}
	.st16{fill:#2F2B2C;}
	.st17{fill:#363334;}
	.st18{fill:#888686;}
	.st19{fill:#575354;}
	.st20{fill:#8A8989;}
	.st21{fill:#7D7A7B;}
	.st22{fill:#FEFDFD;}
</style>
<g>
	<path class="st0" d="M698,342.1c3.3,0.1,6.2-1.2,6.2,4.9c-0.3,92.2-0.3,184.4,0,276.6c0,7.8-4.6,5.1-7.8,5.1
		c-219,0.1-437.9,0.1-656.9,0.1c-10.5,0-21.1-0.4-31.6,0.2c-5.2,0.3-6-1.5-5.9-6.2C2.1,584.6,2,546.4,2,508.2
		c3.2-2.9,7.2-2.8,11.2-2.8c13.8-0.1,27.6-0.1,41.8-0.2c-7.3-0.3-10.1-4.3-10.2-11c-0.2-20.4-0.4-40.8,0.1-61.2
		c0.2-8.6,3.6-10.9,12.2-9.7c9.8,1.4,17.2,6.1,21.1,15.6c1.3,3.2,2.5,6.5,3.7,9.8c0.4-16.6,0.4-33,0.3-50.7
		c-3.9,12.9-10.9,21.3-23.5,23.4c-9.7,1.6-13.6-1.5-13.9-11.4c-0.4-17.8-0.2-35.5-0.1-53.3c0.1-7.7,3.6-11.5,11.4-11.5
		c6.3,0,12.5-0.1,18.8,0c29.9,0,40,8.2,46.6,37.4c0.3-9.4,0.2-18.8,0.3-28.2c0-4.3-0.3-8.6,2.9-12.2c2,0,4,0,5.9,0
		c2.6,3.4,6.3,2.8,9.9,3.1c10.7,0.7,12.6,2.6,12.7,14.3c0.2,35.6,0.1,71.1,0.1,106.7c0,8.6,0.1,17.1-0.1,25.7
		c-0.2,7.5-2.9,12.8-11.4,13.2c34.1,0.3,68.2,0.2,102.3,0.3c7.9,0,10.4-3.5,10.2-10.8c-0.3-10.2-0.4-20.4,0.8-30.7
		c-1.8,4.2-2.6,8.6-3.9,12.9c-5.4,18-15.1,26.3-33.9,28.1c-11.1,1.1-22.4,0.4-33.6,0.3c-6.9-0.1-10.3-3.7-10.4-10.5
		c-0.3-20.7-0.6-41.5,0.1-62.2c0.3-7.9,3.8-10.2,11.8-9.1c15.3,2,22.8,11.9,26.7,25.9c0.8-16.7,0.7-33.4,0-50.4
		c-4,10.9-9.6,19.6-21.8,22.3c-12.1,2.6-16.7-0.5-16.9-13c-0.3-16.5-0.3-32.9,0-49.4c0.2-11.1,2.4-13.3,13.5-13.4
		c10.2-0.1,20.4-0.7,30.6,0.5c15.1,1.7,25.8,9,30.4,24.2c0.9,3,1.9,6.1,3.8,10.1c1.3-7.6,0.1-13.7-0.6-19.9
		c-0.7-6.1-2.1-12.5,2.2-18.1c4,0,7.9,0,11.9,0c2,2.6,4.9,2.8,7.9,3.1c12.6,1.2,14.5,3.2,14.6,16c0.2,28,0.1,56,0.1,84
		c0,15.5,0.1,31-0.1,46.5c-0.1,8.2-3.4,13.3-12.3,13.4c14.8,0.3,29.6,0.3,43.9,0.3c-11.5-2.2-13.2-3.9-13.3-16
		c-0.2-18.4-0.2-36.9,0-55.3c0.1-11.4,2.1-13.2,13.2-13.6c30.7-1.2,41.3,8.7,41.7,39.6c0.1,7.9,0.4,15.8,2.1,23.6
		c5,22,18,29.6,40.2,23.3c-14.8-2.7-18.8-7-20-22.1c-0.8-9.8,0.4-19.7-2.1-29.5c-3.6-13.9-10.9-24.5-24.6-30.1c-2.4-1-5.9-2-5.9-4.6
		c-0.1-3.5,3.9-3.9,6.6-5c3.1-1.2,6.3-2,9.3-3.4c14-6.9,21.2-17.5,20.7-33.9c-0.4-15.4-6-25.9-21-30.8c-2.6-0.8-6.1-1.2-6-5.3
		c19.1,0,38.2,0,57.3,0c2.8,3.8,7.1,3.1,10.9,3.1c7.6,0.1,11.6,3.4,11.6,11.3c0.1,45.8,0.1,91.5,0,137.3c0,7.8-3.7,11.6-11.6,11.3
		c14.7,0.3,29.4,0.3,44.4,0.1c-8.8-0.2-12.5-5-12.5-13.3c-0.1-20.1-0.1-40.2,0-60.2c0-7.9,4-11.3,11.6-11.2c4.9,0,9.9-0.2,14.8,0.1
		c12.1,0.7,21.8,8.3,25.3,20c2.1,7,3.3,14.1,3.2,21.4c0,4.9-0.2,9.9,0.3,14.8c2.6,26.1,16,35.8,41.8,29.9c-6.1-0.5-11.7-2-15.7-6.9
		c-4.1-4.9-4.4-10.9-4.3-16.8c0.3-9.9-0.8-19.7-3-29.4c-2.6-12.1-9.3-20.8-20.3-26.4c-3.4-1.7-9.1-2.6-8.9-6.7
		c0.3-4.8,6.4-4.7,10.1-6.2c20.1-7.8,28.2-20.8,25.6-41.3c-1.5-12.1-7.4-20.8-19.5-24.9c-3.4-1.1-8.3-0.6-9-5.9
		c20.4,0,40.9,0,61.3,0c2.6,3.4,6.3,2.8,9.9,3.1c10.7,0.7,12.6,2.6,12.7,14.3c0.2,33.9,0.1,67.9,0.1,101.8c0,9.9,0.2,19.8-0.1,29.6
		c-0.3,11.5-1.4,12.7-12.6,14.4c32.5-0.1,65.2,0.1,97.9,0c14.7-0.1,14.6-0.1,15.8-14.3c0.7-8.8,2.6-17.6,0.8-26.7
		c-2.2,6.9-3.6,14-6.8,20.5c-5.3,10.8-13.2,17.5-25.6,19.2c-13.2,1.8-26.3,1.1-39.5,1.1c-6.3,0-9.9-3.3-10-9.7
		c-0.5-21.1-0.5-42.2,0-63.2c0.2-7.1,4.3-9.9,11.1-9c15.2,2.1,24.2,10.9,27.7,25.9c0.4-16.6,0.5-33.1,0.4-52.2
		c-4.2,14.6-11.8,22.7-24.8,24.7c-10.4,1.6-14.3-1.2-14.6-11.7c-0.4-16.5,0-32.9-0.2-49.4c-0.1-8.5,1.6-15.1,11.8-15.9
		c1.3-0.1,2.1-1.5,3.1-2.4c8.6,0,17.1,0,25.7,0c1.9,2.6,4.8,3.5,7.6,4c15.5,2.7,23.2,13.3,27.9,27.1c0.7,2,0.6,4.5,3.2,6.7
		c0.3-9,0-17.3,0.2-25.7C695.5,350,694.7,345.6,698,342.1z"/>
	<path class="st1" d="M512.1,342.1c0.1,0.3,0.2,0.8,0.4,0.9c24.8,7.1,31.5,14.9,31.5,36.6c0,20-10.4,32.4-32.6,38.7
		c-1.9,0.5-3.8,0.9-6.7,1.5c2.1,1,3.4,2,4.9,2.4c16.9,5,24.8,17.3,28.1,33.6c2,10.1,2.1,20.3,2.3,30.5c0.3,13.8,5.7,18.2,19.3,16.6
		c2.1-0.2,5.4-3.1,6.2,1.7c0.7,4-2.9,3.8-5.1,4.5c-27.4,9.1-46.5-3.8-48-32.8c-0.5-10.2-0.2-20.4-2.2-30.5
		c-3.2-16.3-11.1-23-27.9-23.2c-19.5-0.2-19.5-0.2-19.5,19.3c0,16.8,0.4,33.6-0.2,50.4c-0.3,7.6,2,10.2,9.3,9.1c2.3-0.3,4.6,0,6.9,0
		c2.4,0,3.7,0.9,3.5,3.5c-0.2,2-1.4,2.8-3.2,2.8c-19.1,0-38.2,0-57.3,0c-2.4,0-3.8-1.2-3.6-3.6c0.2-2.8,2.4-2.5,4.3-2.8
		c4.8-0.7,11.4,2.5,13.9-1.7c2.3-4,1-10.2,1-15.5c0-40.9-0.3-81.7,0.3-122.6c0.2-10.3-1.5-15.7-13-13.4c-5,1-7.2-1.6-7.5-6.2
		C448.9,342.1,480.5,342.1,512.1,342.1z"/>
	<path class="st1" d="M359.9,342.1c0.4,0.5,0.6,1.3,1.1,1.5c21.7,6.1,28.8,14.4,29.4,34.6c0.5,18.9-8.9,32.2-27.4,38.6
		c-3.7,1.3-7.6,2.1-13.1,3.6c30.1,7.2,35.3,29.4,36.2,54.3c0.2,4.6,0.1,9.2,0.5,13.8c1.1,12,6.3,16.1,18.3,14.7
		c2.3-0.2,5.5-2.9,6.8,0.8c1.5,4.3-2.7,4.5-5.3,5.3c-26.2,8.6-44-2.8-47.2-30.4c-1.4-11.4-0.2-23-2.8-34.4
		c-3.6-15.2-11.2-21.7-26.9-21.9c-20.3-0.3-20.3-0.3-20.3,19.7c0,16.8,0.3,33.6-0.2,50.4c-0.2,6.9,1.8,9.8,8.8,8.8
		c1.9-0.3,3.9-0.1,5.9,0c2.3,0,4.9-0.2,4.8,3.2c-0.1,3.4-2.7,3.1-5,3.1c-12.2,0-24.4,0-36.5,0c-5.9,0-11.9,0-17.8,0
		c-2.5,0-4.7-0.4-4.4-3.6c0.2-2.8,2.4-2.5,4.3-2.7c15-2,15-2.1,15-17.2c0-42.1-0.2-84.3,0.2-126.4c0.1-8-2.3-10.3-10-9.7
		c-3.7,0.3-11.2,3.6-9.2-6C296.6,342.1,328.2,342.1,359.9,342.1z"/>
	<path class="st1" d="M253.1,342.1c0.5,13.2,1.1,26.3,1.6,39.5c0.1,2.1,1,5-2.5,5.4c-3.3,0.4-3.4-2.5-4.1-4.5
		c-11.4-32.7-13.4-34.2-47.8-34c-8.1,0-18.7-3.7-23.8,1.6c-5,5.2-1.3,15.7-1.5,23.9c-0.2,12.5,0.4,25.1-0.2,37.6
		c-0.3,7,2.4,8.2,8.5,7.7c14.6-1.2,21.9-7.7,25.5-22.9c0.6-2.4-1.4-7,3.5-6.7c4.8,0.3,2.7,4.5,2.8,7c0.2,18.1,0.2,36.3,0,54.4
		c0,2.6,1.9,6.8-2.5,7.3c-4.8,0.6-3.2-4.1-3.8-6.5c-4.1-18.6-11-25.1-26.9-26.1c-5.1-0.3-7.1,1.1-7,6.4c0.2,21.1,0.2,42.2,0,63.3
		c0,4.7,1.7,6.3,6.4,6.3c12.5-0.2,25.1,0.3,37.6-0.3c16.2-0.7,24.6-8.2,29.5-25.6c1.6-5.7,2.4-11.6,3.6-17.4c0.4-2,1.1-3.9,3.7-3.7
		c2.8,0.2,2.9,2.2,2.8,4.2c-0.5,14.8-1.1,29.6-1.5,44.5c-0.1,4.4-2.6,4.5-5.9,4.5c-38.6,0-77.1,0-115.7,0c-2.2,0-5,0.5-5.2-2.9
		c-0.2-4.3,3.2-3.3,5.6-3.4c2.6-0.1,5.3-0.2,7.9,0c4.9,0.4,6.1-1.9,6.1-6.4c-0.1-46.8-0.2-93.6,0-140.4c0-8.7-5.8-5.6-10.1-6.4
		c-3.9-0.7-11.2,3.2-9.4-6.2C171.4,342.1,212.2,342.1,253.1,342.1z"/>
	<path class="st1" d="M630.8,342.1c-0.2,3.3-0.1,6.9-5.2,6.1c-5.8-1-7.1,1.7-7,7.1c0.3,19.1,0.4,38.2,0,57.3c-0.1,6.1,2.2,7,7.4,6.7
		c15.5-1,23.4-8.1,26.5-24.1c0.4-2.3-0.8-5.9,3.5-5.6c4.3,0.3,2.5,4,2.5,6.2c0.1,18.8,0.2,37.6,0,56.3c0,2.2,1.7,6-2.3,6.3
		c-4.9,0.4-3.3-3.9-3.7-6.5c-3.3-17.9-10.7-25.1-26.7-26.3c-4.8-0.4-7.1,0.4-7.1,6.1c0.3,21.1,0.3,42.2,0,63.3
		c-0.1,5.2,1.6,6.9,6.7,6.7c10.5-0.3,21.1,0,31.6-0.1c21.1-0.2,29.9-7,35.2-27.2c1.3-5.1,2.3-10.3,3.4-15.4c0.5-2.3,0.6-4.7,4-4.3
		c2.9,0.3,2.4,2.6,2.4,4.4c-0.5,14.8-1.2,29.6-1.6,44.5c-0.1,4.4-2.7,4.4-5.9,4.4c-38.6,0-77.1,0-115.7-0.1c-2.2,0-4.9,0.7-5.2-2.8
		c-0.3-4.3,3-3.4,5.4-3.6c14.2-1,14.2-1,14.2-15.8c0-42.8-0.2-85.7,0.2-128.5c0.1-7.4-1.7-9.8-9.2-9.3c-3.9,0.3-11.6,4.2-10.7-5.8
		C592.6,342.1,611.7,342.1,630.8,342.1z"/>
	<path class="st1" d="M124.6,342.1c0.2,14.2,0.5,28.3,0.5,42.5c0,2.8,2.4,7.6-2.5,8c-3.6,0.3-3.2-4.2-3.8-7
		c-0.6-2.9-1.2-5.8-1.9-8.7c-5.5-21.9-13.4-28.2-36-28.5c-9.2-0.1-18.5,0.2-27.7-0.1c-4.7-0.2-6.3,1.4-6.3,6.2
		c0.2,19.8,0.3,39.5,0,59.3c-0.1,5.4,2.3,5.7,6.5,5.6c14.9-0.4,23.1-7.8,25.7-23.4c0.4-2.6-1.1-6.9,3.8-6.2c3.9,0.5,2.1,4.2,2.2,6.5
		c0.2,18.1,0.2,36.2,0,54.4c0,2.6,2.6,7.6-2.8,7.7c-4.4,0.1-2.8-4.4-3.2-7c-2.8-16.7-8.7-23-23-25.3c-6.7-1.1-9.4,0.2-9.2,7.8
		c0.5,19.8,0.5,39.5,0,59.3c-0.2,7.1,2.2,9.6,8.9,8.6c1.6-0.2,3.3-0.1,4.9,0c2.2,0.1,5.1-0.6,5.2,2.9c0.1,4-3.1,3.5-5.6,3.5
		c-15.5,0-31,0-46.5,0c-3.9,0-7.9,0.2-11.8,0.3c0-2,0-4,0-5.9c1-0.8,2.1-1.6,3.4-2c13.3-4.1,13.3-4.1,13.3-18.6
		c0-37.8,0-75.5,0-113.3c0-14.3,0-14.3-13.3-18.3c-1.3-0.4-2.3-1.2-3.4-2c-1-4.9,1-6.1,5.9-6.1C46.8,342.2,85.7,342.1,124.6,342.1z"
		/>
	<path class="st2" d="M2,348.1c19.6,1,19.6,1,19.6,20.6c0,40.2-0.4,80.3,0.3,120.4c0.2,10.7-3.2,13.9-13.1,12.5
		c-2.2-0.3-4.5,0.4-6.8,0.7C2,450.9,2,399.5,2,348.1z"/>
	<path class="st3" d="M698,342.1c0,12.7,0.1,25.5,0,38.2c0,2.2,1.7,5.9-2.4,6.3c-3.8,0.4-3.3-3.1-4-5.5c-1.5-5-3.1-10-4.9-14.9
		c-4.4-11.3-13.1-16.9-24.9-17.6c-4.8-0.3-6.6-1.8-5.3-6.5C670.3,342.1,684.2,342.1,698,342.1z"/>
	<path class="st4" d="M260.9,620.8c0.5-19.9,2.5-39.9-1.1-59.8c-0.9-4.9,2.1-4.7,5.1-4.8c6.9-0.1,13.8,0,21,0.2
		c-8.6-0.2-11.7,3.5-11.3,12.2c0.7,14.5,0.1,29,0.3,43.4c0,3.1-1.4,6.6,1.5,9.3C271.1,624.9,265.9,625.9,260.9,620.8z"/>
	<path class="st5" d="M213.8,569.4c-0.4-6.1-3.3-10.4-9.7-12.5c0.9-0.4,1.4-0.7,1.8-0.7c22.1,0.1,21.8,0.1,29.6,20.8
		c3.3,8.8,6.3,17.7,10.4,26.2c2.9,6.1-2.5,13.5-5.8,23.3c-8.4-23.6-15.8-44.5-24-67.3c-0.4,4.7-0.7,7.4-0.9,10.2
		C214.8,570.4,214.3,570.4,213.8,569.4z"/>
	<path class="st6" d="M486.5,622.7c-3.9,4.1-7.9,2-11.9,0.2c-7.6-13.8-7.5-27.7-0.1-41.5c4.6-1.7,9.3,0.4,13.9,0
		C498.8,592.3,497.8,614.3,486.5,622.7z"/>
	<path class="st7" d="M332.6,621.3c1.2-20.4,2.4-40.9-0.6-61.3c-0.6-3.9,3-3.5,5-3.9c3.7-0.8,7-1,6.8,4.9
		c-0.4,12.8-0.2,25.6-0.1,38.4c0,7.2,0.2,14.4,0.3,21.6C339.9,624.9,337.2,624.9,332.6,621.3z"/>
	<path class="st8" d="M423.6,589.3c2.7-3.7,5-7.9,9.7-9.8c3.2,1.5,7.1,2.3,8.1,6.4c3,12.1,5.1,24.2-1.4,36
		c-6.4,2.5-12.7,4.4-18.3-1.6C420.1,609.7,417.4,599.2,423.6,589.3z"/>
	<path class="st9" d="M300,620.5c-1-12.6,3.4-25.4-2.3-38c-1.2-2.6,4.2-2.6,6.9-3c4-0.7,5.9,0.4,5.8,5c-0.2,12.1,0.1,24.2,0.2,36.3
		C306.9,625.7,303.3,626,300,620.5z"/>
	<path class="st10" d="M423.6,589.3c0,10.5-0.1,21-0.1,31.4c-3.5,5.1-6.9,5.1-10.4,0c-1-12.7,3.3-25.6-2.4-38.1
		c-0.8-1.7,1.7-3.4,3.7-2.9c3,0.7,7.5-3.2,8.8,2.6C423.6,584.6,423.5,587,423.6,589.3z"/>
	<path class="st11" d="M439.2,621.2c1.8-10.7,0.7-21.5,0.6-32.3c0-4.9-3.4-6.9-6.6-9.4c12.9,0,16.6,3.5,16.9,15.9
		c0.2,8.5,0.4,17.1,0.5,25.6C446.4,624.9,443.7,624.9,439.2,621.2z"/>
	<path class="st12" d="M381.6,599.2c1.7-4,1.5-8.3,1.7-12.5c0.1-1.7-3.9-4.2,0.6-5.3c2.9-0.7,5.1,0.2,6.9,2.5
		c1.9,2.5,2.1,5.4,2.1,8.4c0,7.6,0,15.1,0.1,22.7c0,3.8,0,7.7,6.1,8.9c-7.4,2-12.5,1.2-15.8-4.7C379.5,612.8,380.9,606,381.6,599.2z
		"/>
	<path class="st13" d="M474.5,581.4c-3.5,13.8-3.7,27.7,0.1,41.5c-10-3-13.6-10.7-13.8-20.2C460.6,592.7,464.4,584.9,474.5,581.4z"
		/>
	<path class="st10" d="M486.5,622.7c9.3-13.4,6.8-27.3,1.9-41.3c10.6,3.3,15.8,11.5,14.6,23.1C502.1,614.9,495.9,621.7,486.5,622.7z
		"/>
	<path class="st14" d="M381.6,619.3c-2.6,3.3-6.2,4.8-10.2,5.4c-8.7-7.6-8.4-16.1,0.8-22.9c10.1-2.9,10.5-2.7,10.4,7.2
		C382.5,612.4,383.6,616,381.6,619.3z"/>
	<path class="st7" d="M371.6,602.9c-5.8,7.2-5.2,14.5-0.3,21.8c-7,0.4-12.9-1.5-13.3-9.5c-0.6-9.2,4.9-13.6,13.8-14.2
		c0.6,0.5,0.8,0.9,0.5,1.3C372,602.7,371.8,602.9,371.6,602.9z"/>
	<path class="st15" d="M300,620.5c3.4,3.7,6.9,3.6,10.6,0.3c2.7,0.9,5.4,1.9,9.5,3.3c-24,0-46.7,0-71.7,0c5.6-1.5,9.1-2.5,12.6-3.4
		c5.1,3.6,10.3,2.7,15.6,0.6C284.3,622.2,292.3,625.3,300,620.5z"/>
	<path class="st16" d="M215.3,609.1c1.3,6.6,3.5,12.5,13.6,14.9c-9.9,0-17,0-26.4,0c8.2-3.2,11.2-8.2,11.4-14.9
		C214.4,608.2,214.8,608.2,215.3,609.1z"/>
	<path class="st17" d="M310.5,561.3c-0.3,3.7-2.2,6.2-6.1,6.1c-3.4-0.1-5.5-2.2-5.6-5.6c-0.1-3.9,2.1-6.2,6-6.1
		C308.2,555.7,309.9,558,310.5,561.3z"/>
	<path class="st18" d="M439.2,621.2c3.9,2.8,7.7,3,11.5-0.1c2.1,0.8,4.3,1.6,8.3,3.1c-19,0-36.1,0-54.3,0c3.3-1.4,5.8-2.4,8.3-3.4
		c3.5,3.4,7,3.5,10.4,0C428.6,623.8,433.9,623.8,439.2,621.2z"/>
	<path class="st4" d="M366.1,595.5c-3.9-0.7-5.1-3.3-4.7-7.1c0.3-3.2,2.2-5.3,5-6.6c0.8,3.6,5.9,4.9,5.2,9.4
		C371.2,594.4,369.2,595.5,366.1,595.5z"/>
	<path class="st19" d="M215.3,609.1l-0.7,0l-0.7,0c0-13.2-0.1-26.5-0.1-39.7c0.5,0.1,1,0.1,1.5,0
		C215.3,582.7,215.3,595.9,215.3,609.1z"/>
	<path class="st20" d="M332.6,621.3c3.9,2.5,7.7,3.1,11.5-0.3c2.7,0.9,5.4,1.8,10,3.3c-10.9,0-20,0-30.8,0
		C327.2,623,329.9,622.1,332.6,621.3z"/>
	<path class="st21" d="M371.6,602.9c-0.1-0.6-0.1-1.2,0.2-1.8c2.8-3.2,6.5-1.6,9.9-1.9c4.8,6.3,1.1,13.4,1.7,20
		c-0.6,0-1.2,0.1-1.8,0.1c0.2-2.9,0.4-5.7,0.6-8.6C382.6,600.3,381.8,599.8,371.6,602.9z"/>
	<path class="st0" d="M462.9,381.9c0-8.9,0.2-17.8-0.1-26.6c-0.2-4.8,0.8-7.3,6.4-7c8.5,0.4,17.1-0.2,25.7,0.3
		c13.1,0.7,19.3,6.2,21,19c1.2,9.1,1.5,18.4,0.2,27.6c-1.9,13.6-9.2,20.3-23,21c-7.9,0.4-15.8-0.2-23.7,0.2
		c-5.3,0.3-6.8-1.8-6.6-6.8C463.1,400.3,462.9,391.1,462.9,381.9z"/>
	<path class="st22" d="M309.1,381.9c0-8.9,0.2-17.8-0.1-26.6c-0.1-4.9,1-7.3,6.5-7c8.9,0.4,17.8-0.2,26.6,0.4
		c12.2,0.8,17.7,6,19.7,18c1.7,10.1,2.2,20.3,0,30.4c-2.5,12-8.6,18-20.6,18.8c-8.8,0.6-17.8,0.2-26.6,0.4c-4.3,0.1-5.8-1.6-5.7-5.8
		C309.2,401,309.1,391.5,309.1,381.9z"/>
</g>
</svg>
