<?xml version="1.0" encoding="utf-8"?>
<!-- Generator: Adobe Illustrator 21.1.0, SVG Export Plug-In . SVG Version: 6.00 Build 0)  -->
<svg version="1.1" id="Layer_1" xmlns="http://www.w3.org/2000/svg" xmlns:xlink="http://www.w3.org/1999/xlink" x="0px" y="0px"
	 viewBox="0 0 700 965" style="enable-background:new 0 0 700 965;" xml:space="preserve">
<style type="text/css">
	.st0{display:none;fill:#FEFEFE;}
	.st1{fill:#C22861;}
	.st2{fill:#C12861;}
	.st3{fill:#C12862;}
	.st4{fill:#C22963;}
	.st5{fill:#C22961;}
	.st6{fill:#C12961;}
	.st7{fill:#C12962;}
	.st8{fill:#C22962;}
	.st9{fill:#C22A63;}
	.st10{fill:#C33468;}
	.st11{fill:#C13166;}
	.st12{fill:#FEFEFE;}
</style>
<g>
	<path class="st0" d="M350.9,782c-169.2,0-338.3,0-507.5,0.1c-3.9,0-4.5-1.1-4.5-4.7c0.1-196,0.1-392,0-588c0-3.9,1.1-4.5,4.7-4.5
		c338.2,0.1,676.3,0.1,1014.5,0c4.4,0,5,1.2,5,5.2c-0.1,195.8-0.1,391.7,0,587.5c0,3.9-1.1,4.5-4.7,4.5
		C689.3,782,520.1,782,350.9,782z"/>
	<path class="st1" d="M409.6,570.7c8.2-36.7,16.4-73.3,24.3-109.9c1.2-5.6,3-8.3,9-7.3c4.8,0.8,11.2-2,14,1.2
		c2.4,2.8,0.8,9,0.8,13.7c0,42.1-0.1,84.3,0.1,126.4c0,4.8-1.1,6.2-5.9,6.1c-4.5-0.1-6.2-0.7-6.1-5.9c0.2-41.1,0.1-82.1,0.1-123.2
		c0-1.9,0-3.8,0-5.7c-0.4-0.1-0.8-0.1-1.2-0.2c-0.9,3.9-1.9,7.8-2.8,11.8c-8.5,38.9-17.1,77.9-25.6,116.8c-1.2,5.5-6.9,8.4-12,6
		c-2-0.9-1.8-3-2.2-4.7c-9.4-42.1-18.8-84.2-28.2-126.3c-0.3-1.2-0.6-2.4-1.1-4.3c-1.7,1.9-1.1,3.7-1.1,5.3c0,41.4,0,82.8,0,124.3
		c0,5.1-5.5,8.2-10.2,5.7c-1.9-1-1.2-2.9-1.2-4.4c-0.1-17.8-0.2-35.6-0.2-53.4c0-27.6,0.1-55.2-0.1-82.8c0-4.7,0.8-7.1,6.1-6.5
		c5.2,0.6,11.8-1.5,15.4,1c3.9,2.8,3.1,9.9,4.3,15.2c7.3,33.1,14.6,66.2,21.9,99.3C408.1,569.5,408.1,570.3,409.6,570.7z"/>
	<path class="st1" d="M560.5,588.3c0-2,0-3.9,0-5.9c0-41.1,0.1-82.1-0.1-123.2c0-4.3,0.7-6.2,5.5-5.9c4,0.3,6.6,0,6.5,5.6
		c-0.2,45.6-0.2,91.2-0.1,136.8c0,3.7-0.8,5.3-4.8,5c-5.6-0.4-12.5,1.6-16.5-1c-4.1-2.7-3.3-10.2-4.5-15.7
		c-8.5-37.8-16.9-75.7-25.3-113.5c-0.3-1.5-0.3-3.2-2.3-5.2c0,2.5,0,4.4,0,6.2c0,41.2-0.1,82.5,0.1,123.7c0,4.8-1.6,5.6-5.8,5.5
		c-4.3-0.1-6.3-0.5-6.3-5.8c0.3-45.2,0.2-90.5,0-135.7c0-5,1.4-6.4,6.1-5.9c5.4,0.6,12.4-2.2,15.8,1.1c3.3,3.2,3,10.1,4.2,15.4
		c8.5,38.8,17.1,77.5,25.6,116.3c0.1,0.7,0.5,1.3,0.7,2C559.8,588.3,560.1,588.3,560.5,588.3z"/>
	<path class="st1" d="M104.9,523.8c10.3,6.1,13.5,15.2,13.1,26.5c-0.5,15.2-0.4,30.5,0,45.8c0.2,5.4-2.7,4.7-6,4.7
		c-3.3,0-6.2,0.7-6.1-4.7c0.4-16.5,0.2-33,0.1-49.6c0-8.5-8-16.8-16.6-16.7c-5.9,0-13.5-2.6-17.3,1.1c-3.3,3.2-0.9,10.7-0.9,16.3
		c-0.1,16.3-0.2,32.7,0.1,49c0.1,4.1-1.4,5-5,4.6c-3.1-0.4-6.8,1.4-6.7-4.6c0.2-46.1,0-92.2-0.1-138.4c0-3.3,1.1-4.4,4.4-4.3
		c10.2,0.2,20.3-0.1,30.5,0.1c11.9,0.2,21.9,9.9,22.4,21.8c0.3,9.6,0.3,19.3,0,28.9C116.3,512.5,111.9,518.8,104.9,523.8z"/>
	<path class="st1" d="M344.8,527.9c0,15.6,0,31.2,0,46.8c-0.1,16-11.4,27.6-27.3,27.7c-18.1,0.2-30.7-10.5-30.8-27.1
		c-0.2-31.9-0.2-63.9,0-95.8c0.1-16.8,12.4-27.4,30.7-27.2c15.9,0.2,27.2,11.6,27.4,27.6c0,0.4,0,0.7,0,1.1
		C344.8,496.7,344.8,512.3,344.8,527.9z"/>
	<path class="st1" d="M164.6,453.2c9.7,0,9.8,0,11.6,9.6c8.2,44.2,16.3,88.4,24.2,132.6c0.3,1.4,3.2,5.3-1.4,5.1
		c-3.4-0.2-8.8,3.2-10-3.6c-1.9-10.2-4-20.3-5.6-30.5c-0.5-3.1-1.4-4.3-4.7-4.3c-9.4,0.2-18.9,0.3-28.3,0c-3.4-0.1-4.2,1.3-4.7,4.2
		c-1.7,10.2-3.7,20.3-5.6,30.5c-0.3,1.4,0.4,3.7-2.1,3.8c-3.2,0.1-6.6,0.9-9.6-0.5c-1-0.4-0.1-2,0-3c8-44.2,16-88.5,24-132.7
		c0.1-0.4,0.2-0.7,0.2-1.1C154.4,453.2,154.4,453.2,164.6,453.2z"/>
	<path class="st2" d="M619,453.5c9.7,0,9.7,0,11.3,9.2c8.2,44.6,16.4,89.1,24.6,133.7c0.3,1.7,2.2,5.1-1.7,4.8
		c-3.3-0.3-8.5,3.2-9.8-3.2c-2-10.1-3.9-20.3-5.6-30.5c-0.6-3.5-1.5-5.4-5.7-5.2c-8.9,0.4-17.8,0.3-26.7,0c-3.7-0.1-5.1,1.1-5.6,4.7
		c-1.6,10.2-3.7,20.3-5.4,30.5c-1.2,7.1-6.7,3.4-10,3.5c-3.9,0.1-1.7-3.4-1.4-5.3c8.1-44.9,16.2-89.9,24.3-134.8
		C608.6,453.5,608.5,453.5,619,453.5z"/>
	<path class="st1" d="M223.8,527.6c0,15.3,0,30.5,0,45.8c0,11.2,6.3,17.3,17.6,17.3c10.9,0,16.9-6.2,16.9-17.4
		c0-6.9,0.1-13.8,0-20.7c-0.1-2.8,0.4-4.2,3.8-4.3c8.4-0.2,8.4-0.4,8.4,8.2c0,6.2,0.1,12.4,0,18.5c-0.4,16.9-12.4,27.6-30.5,27.5
		c-15.9-0.1-27.8-11.8-27.8-27.9c-0.1-31.4-0.2-62.8,0-94.3c0.1-16.3,11.7-27.8,27.8-27.9c18.3-0.2,30,10.3,30.5,27.4
		c0.2,5.6-0.3,11.3,0.1,16.9c0.4,4.8-2.6,4.2-5.5,4.1c-3-0.1-6.9,1.4-6.5-4.3c0.4-5.6,0.2-11.3,0-16.9c-0.4-9.9-7.3-15.5-18.5-15.4
		c-9.6,0.1-16.2,6.5-16.3,16C223.7,496,223.8,511.8,223.8,527.6z"/>
	<path class="st3" d="M0.1,526.8c0-22.7,0.1-45.4-0.1-68.1c0-3.9,0.7-5.4,5-5.3c12.9,0.3,25.8,0.4,38.7,0c5.3-0.1,4.2,3.1,4.2,6
		c-0.1,2.7,1.5,6.3-4,6.1c-9.2-0.4-18.5,0.1-27.8-0.2c-3.4-0.1-4.3,1-4.2,4.3c0.2,13.3,0.2,26.5,0,39.8c-0.1,3.8,1.3,4.6,4.7,4.5
		c7.3-0.2,14.5,0.2,21.8-0.2c5.6-0.3,4.2,3.3,4.4,6.4c0.3,3.4,0.1,5.8-4.7,5.6c-7.2-0.4-14.5,0.1-21.8-0.2c-3.7-0.1-4.6,1.1-4.5,4.7
		c0.2,21.8-0.1,43.6,0.2,65.4c0.1,5.8-2.9,5.1-6.6,5.3c-4.2,0.3-5.5-1-5.4-5.3C0.2,572.6,0.1,549.7,0.1,526.8z"/>
	<path class="st2" d="M678,488c8-10.8,7.4-22.3,2.6-33.6c-8.2-19.2-22.1-33.6-40.1-43.8c-12.3-7-25.3-12.8-37.7-19.5
		c-14.4-7.9-26.7-18.3-34.5-33.1c-6.8-12.8-8.2-26.2-2.4-39.8c1.4-3.4,3.2-6.6,6.4-8.5c4.3-2.5,10.2-1.3,13.3,2.6
		c3,3.7,2.8,9.5-0.2,13.1c-3.3,3.8-9.1,4.8-13.4,2.2c-1.2-0.7-2.2-1.9-3.7-3.2c-2.9,8.4-1.3,15.9,2.6,23.1c6.6,12.1,16.6,21,28,28.4
		c12,7.8,25,13.9,37.5,21c18.3,10.4,34.3,23.2,43.9,42.6c5.5,11.2,9.7,22.8,6.5,35.6C685.6,480.4,683.3,485.4,678,488z"/>
	<path class="st4" d="M476.5,527.3c0-22.9,0.2-45.7-0.1-68.6c-0.1-5.2,2.2-5.2,6.1-5.3c4.2-0.1,6,0.6,6,5.5
		c-0.2,45.6-0.2,91.1,0,136.7c0,6-3.2,4.9-6.7,5.2c-4.4,0.4-5.4-1.2-5.3-5.4C476.6,572.7,476.5,550,476.5,527.3z"/>
	<path class="st5" d="M464.7,410.2c-5.3-0.1-9.5-0.8-13.5-2.7c-7.8-3.7-10.3-10.8-6.5-18.5c3.1-6.3,8.5-10.3,14.3-13.8
		c21.5-12.9,45.1-16.2,69.6-15.3c12.3,0.5,24.6,1.4,37.8,4.8c-14.9,0.2-28.7-0.3-42.3,1.3c-18.6,2.2-37,5.2-53.5,14.8
		c-2.2,1.3-4.3,2.7-6.2,4.3c-8.9,7.6-9.2,14-1.4,22.6C463.3,408.4,463.7,409,464.7,410.2z"/>
	<path class="st6" d="M590.3,351.5c12.8-19.9,28.1-37.6,47.6-51.2c11.9-8.3,24.9-14,39.2-16.4c1.1-0.2,2.2-0.3,3.2-0.4
		c9.6-0.5,16.2,2.6,18.8,8.9c2.5,6.1-0.6,14.4-7.7,20.7c-0.1-1.6-0.2-3-0.3-4.3c-1.1-9.4-7.2-14.1-16.5-12.9
		c-16.7,2.2-30.7,10.6-44,20.2C616,326.4,603,338.7,590.3,351.5z"/>
	<path class="st7" d="M562.9,660.5c-4.8,0.6-7.9-0.8-10.2-4.4c-2.4-3.8-2.1-7.1,0-11.1c3.5-6.4,8.2-11.9,12-18c0.6-1,2-2.1,0.8-3.3
		c-1.1-1.1-2.4,0-3.4,0.7c-9.7,7.1-18.5,15.2-25.9,24.7c-3.3,4.2-6.8,4.6-12.1,3.7c6.7-9.7,13-18.9,19.8-28.9
		c-3.5-0.3-5.2,1.4-6.9,2.8c-8.8,7.2-17.6,14.5-24.4,23.7c-3,4-6.7,3.1-11.5,2.6c7-10,13.8-19.2,19.9-28.8c3-4.7,6.6-6.3,12.6-5.7
		c-3.9,5.7-7.6,10.9-11.2,16.1c0.1,0.2,0.3,0.3,0.4,0.5c3.1-2.7,6.3-5.3,9.3-8c4.2-3.8,8.8-7.1,14.2-8.8c2.1-0.7,4.9-1.5,6.5,1
		c1.3,2.1,0,4.1-1.2,6c-1.8,2.6-3.4,5.3-4.8,8.3c6.4-5.6,12.5-11.4,20.4-14.7c1.3-0.5,2.7-1.2,4.1-1.4c4.9-0.4,6.7,1.9,4.2,6.2
		c-3.3,5.6-7.1,11-10.9,16.2c-1.1,1.5-2,3-2.9,4.5C558,649.9,557,655.3,562.9,660.5z"/>
	<path class="st6" d="M630.1,660.7c-5.6,0-9.2-1.4-11.4-5.6c-2.5-4.8-1-9.2,1.6-13.2c3.9-5.8,8.6-11,12-17.7
		c-3.5-0.5-5.6,1.3-7.6,2.9c-8.3,6.5-16,13.5-22.6,21.7c-3.3,4.1-7,5.1-12.4,3.8c1.4-1.9,2.5-3.4,3.6-4.9c-0.2-0.2-0.3-0.5-0.5-0.7
		c-2.5,1.4-5,2.7-7.4,4.1c-0.9,0.5-1.8,1.3-2.8,1.7c-3.8,1.3-8.2,3-11.3-0.2c-3.4-3.6,0.3-7.3,2.2-10.2c4.5-7,9.6-13.6,14.4-20.3
		c0.8-1.2,1.7-2.6,3.2-2.7c2.2-0.2,5.1-2,6.6,0.1c1.2,1.8-1.4,3.4-2.6,4.9c-5.2,6.5-10,13.3-14.3,20.4c-0.9,1.4-2.8,3.1-1.2,4.8
		c1.6,1.7,3.5-0.2,4.9-0.9c10.7-5.6,18.5-14.3,24.7-24.5c1.1-1.8,2.3-3.8,4-5c2.1-1.5,5.4-2.1,7.2-0.4c1.6,1.4-1.1,3.3-2.2,4.9
		c-2.5,3.7-5.1,7.4-7.2,11.5c3.1-2.7,6.3-5.4,9.4-8.1c4.1-3.6,8.8-6.4,13.8-8.3c2-0.8,4.5-1.5,6.2,0.1c1.7,1.6,1,4.1,0.3,6.2
		c-1.3,3.6-4,6.4-6.1,9.5c-2.5,3.6-4.8,7.2-7.2,10.8C624.1,650.6,624.8,655.6,630.1,660.7z"/>
	<path class="st8" d="M594.1,358.4c18.1-20.1,38.1-37.7,65.6-44c6.2-1.4,12.5-2.5,18.9-1.1c11.5,2.6,14.6,11.3,7.4,20.7
		c-1.4,1.8-3.1,3.3-4.7,5c-0.6-0.6-0.8-0.7-0.8-0.8c-0.3-13.9-4.9-17.7-19.2-15.2c-18.5,3.2-34.3,12.5-49.6,22.7
		C605.6,349.6,599.9,354.1,594.1,358.4z"/>
	<path class="st7" d="M565.7,371.1c-11.6,2.4-23.4,4-34.9,7.1c-12.5,3.4-24.6,7.4-35.4,14.7c-2.2,1.5-4.4,3.2-6.4,5.1
		c-8.3,7.9-8.1,12.9,0.5,20.6c0.3,0.3,0.5,0.8,1,1.6c-5.5,1.1-10.4,0.2-14.9-2.2c-4.8-2.5-6.2-8.6-3.8-14.4c2.1-5,6-8.5,10.1-11.9
		c14-11.3,30.5-16.4,47.9-19C541.7,371,553.7,370.4,565.7,371.1z"/>
	<path class="st9" d="M669,634c1.1,2.6-0.4,3.4-1.4,4.3c-5.3,4.9-10.7,9.8-17.2,13.1c-1.1,0.6-2.2,1.2-3.4,1.6
		c-3.5,1.3-7.5,2.2-10.2-0.7c-2.9-3.2,0.2-6.6,2-9.3c4.6-7.1,9.8-13.9,14.8-20.8c0.7-1,1.6-2.2,2.6-2.6c2.3-0.9,5.5-2.3,7.2-0.5
		c1.9,2-1.3,3.8-2.4,5.2c-5.2,6.5-9.9,13.3-14.3,20.4c-0.9,1.4-2.3,3-1.2,4.4c1.5,1.9,3.4,0.3,4.9-0.5
		C657.4,645,662.9,639.5,669,634z"/>
	<path class="st10" d="M672.4,607c-0.8,4.5-2.9,6.6-6.7,6.7c-2.1,0.1-3.9-0.8-3.5-3c0.7-3.6,3.6-5.2,7.1-5.6
		C671.1,604.9,672.5,605.6,672.4,607z"/>
	<path class="st11" d="M599.7,613.7c-1.9-0.1-3.6-0.9-3.1-3.2c0.9-3.6,3.6-5.2,7.1-5.4c1.8-0.1,3.2,0.8,2.8,2.9
		C605.8,611.7,603.4,613.5,599.7,613.7z"/>
	<path class="st12" d="M71.1,491.3c0-7.2,0.1-14.5-0.1-21.7c-0.1-3.2,0.6-4.6,4.1-4.4c6,0.3,12,0,17.9,0.1
		c6.5,0.1,11.4,4.7,11.5,11.2c0.2,8.9,0.2,17.8,0,26.6c-0.2,7.7-7.5,14.7-15.2,14.8c-4.9,0.1-9.8-0.1-14.7,0.1
		c-2.9,0.1-3.8-1-3.7-3.8C71.2,506.5,71.1,498.9,71.1,491.3z"/>
	<path class="st12" d="M333.1,527.5c0,15.3,0,30.5,0,45.8c0,11.1-5.9,17.4-16.3,17.4c-12,0.1-18.3-5.7-18.3-17.2
		c-0.1-30.9-0.1-61.8,0-92.7c0-10.8,6.8-16.8,18.4-16.6c10.3,0.1,16.3,6.3,16.3,16.9C333.1,496.6,333.1,512,333.1,527.5z"/>
	<path class="st12" d="M164.9,464.8c2.5,13.5,5,27,7.4,40.5c2.4,13.2,4.6,26.4,7.2,39.5c0.8,4.1,0.6,5.9-4.4,5.6
		c-7.8-0.4-15.6-0.1-23.4-0.1c-2,0-3.3,0.1-2.8-2.9c5-27.6,9.8-55.2,14.6-82.8C164.1,464.7,164.5,464.8,164.9,464.8z"/>
	<path class="st12" d="M619,464.1c4.7,25.8,9.1,50,13.5,74.2c0.4,2.3,0.5,4.7,1.3,6.9c1.6,4.6,0.1,6-4.6,5.8
		c-7.6-0.3-15.2-0.2-22.9-0.2c-2.7,0-3.3-1-2.8-3.6c4.8-26.6,9.4-53.1,14.1-79.7C617.6,466.9,618,466.3,619,464.1z"/>
</g>
</svg>
