<?xml version="1.0" encoding="utf-8"?>
<!-- Generator: Adobe Illustrator 21.1.0, SVG Export Plug-In . SVG Version: 6.00 Build 0)  -->
<svg version="1.1" id="Layer_1" xmlns="http://www.w3.org/2000/svg" xmlns:xlink="http://www.w3.org/1999/xlink" x="0px" y="0px"
	 viewBox="0 0 700 965" style="enable-background:new 0 0 700 965;" xml:space="preserve">
<style type="text/css">
	.st0{fill:#FFFFFF;}
	.st1{fill:#565656;}
	.st2{fill:#020202;}
	.st3{fill:#FEFEFE;}
	.st4{fill:#FDFDFD;}
</style>
<g>
	<path class="st0" d="M698.6,491.8c0,108.9,0,217.8,0,326.8c-119.7,0-239.4,0-359.2,0c0.1-1.6,1.6-1.7,2.5-2.1
		c12.8-5.5,13.5-23.8,4.7-31.7c-8.9-8-24.1-4.4-28.2,6.9c-3,8.5-1.3,16.4,4.9,22.1c1.5,1.3,3.1,2.4,5,3.1c0.8,0.3,2.1,0.3,2,1.7
		c-109.9,0-219.9,0-329.8,0c0-110.3,0-220.6,0-330.9c2.1,0.1,2,1.9,2.4,3.3c3.3,11.3,6.6,22.7,10.4,33.9c1,3,2.2,6,4.2,8.5
		c2.7,3.6,6.2,6.1,10.8,7c1.3,0.2,2.6,0.5,3.6,1.4c4.7,4.5,9.4,8.9,10.9,15.6c3,13.6,7.7,26.5,13.6,39.1c0.6,1.4,2,3.3,0.3,4.3
		c-1.7,1-3-0.9-4.1-2.2c-3.7-4.6-7-9.4-8.3-15.3c-1.5-6.5-3.9-12.7-6.7-18.8c-4-8.5-10.4-15-17.7-20.6c-2.2-1.7-4.3-3.5-6.8-4.7
		c-0.7,0.6-0.3,1.2-0.2,1.7c3.9,13.7,8.2,27.2,14,40.2c1.9,4.3,4.4,8.2,7.9,11.5c2.7,2.5,5.7,4,9.4,4c2.5,0,4.3,1,6.2,2.5
		c8.4,6.3,14,14.5,18.1,24c0.5,1.1,1.2,2.3,0.4,3.4c-1,1.2-2.4,0.6-3.6,0.3c-5.5-1.3-9.8-3.9-12.4-9.3c-2-4.1-4.8-7.8-7.3-11.6
		C42,600.5,37,597.1,31,595c-3.8-1.4-7.6-2.3-11.6-3c-0.7-0.1-1.5-0.5-1.9,0.2c-0.5,0.7,0.2,1.3,0.5,1.9c4.3,7.9,9.4,15.2,15.3,22
		c2.9,3.4,5.9,6.7,9.4,9.5c1.7,1.3,3.3,2,5.4,2.1c3.2,0.1,6.4-0.5,9.5-0.7c7.7-0.3,13.7,2.5,18.4,8.6c5.2,6.8,10,13.9,14.3,21.3
		c0.5,0.9,1.4,2,0.5,3c-1,1.1-2.2,0.3-3.3-0.2c-1.7-0.7-2.8-2.2-3.9-3.6c-3.9-5.3-8-10.4-12.6-15.1c-2.9-2.9-6.2-4.3-10.1-4.5
		c-5.2-0.4-10.4,0.2-15.4,1.6c-2.9,0.8-3.2,1.8-1.1,4.1c3.2,3.3,6.4,6.5,9.7,9.7c2.4,2.3,4.1,4.8,5,8c0.3,1.1,0.8,2,1.2,3.1
		c2.3,5.6,3.7,6.3,9.6,4.8c4.9-1.3,9.8-2.8,14.4-5.1c2.6-1.3,4.7-1,6.8,0.9c3.6,3.2,7.8,5.9,10.4,10.6c0.3-1.6-0.4-2.5-0.9-3.4
		c-4.2-7.7-5.5-16.3-8.1-24.5c-1.7-5.3-0.9-11-0.1-16.6c1.4-10,0.3-19.9-2.8-29.4c-3.3-10.1-6.3-20.3-8.9-30.6
		c-0.2-0.9-0.4-1.7-0.9-3.3c-0.9,4-1.7,7.3-2.2,10.6c-0.6,3.3-1.3,6.7-1.5,10c-0.4,8.7-0.3,17.4,1.3,26.1
		c1.7,9.3,5.6,17.6,10.5,25.5c3.4,5.6,5.5,11.4,5.7,17.9c0,0.9,0.4,2-0.7,2.4c-1,0.4-1.6-0.6-2-1.4c-5.3-11-13.3-20.3-19.7-30.6
		c-4.1-6.7-5.6-13.6-2.2-21.3c3.6-8.2,3.3-16.8,2.6-25.5c-0.9-11.5-4.1-22.6-4.6-34.2c-4.3,7.3-6.7,15.2-7.8,23.6
		c-1.6,11.9,1.6,23.1,4.6,34.3c0.4,1.5,1.1,3,1.4,4.6c0.2,0.9,0.2,1.9-0.9,2.3c-0.9,0.3-1.5-0.4-1.9-1.1c-1.2-1.9-2.2-4-3.1-6.1
		c-4.2-9.6-8.1-19.3-11.3-29.2c-0.9-2.7-1.2-5.4-1.2-8.2c0-2.1,0.6-4,2.2-5.3c8.5-6.7,10.8-15.9,11.2-26.2
		c0.2-5.1-0.1-10.1-0.2-15.1c-0.1-4.2,0.3-8.3,1.3-13.1c-2.2,1.7-3.8,3.2-5.1,5c-6.8,8.8-11.4,18.5-11.6,29.7
		c-0.1,5.4,0.7,10.7,1.9,15.9c0.3,1.3,0.6,2.5,0.6,3.8c0,0.7-0.2,1.4-1,1.7c-0.8,0.2-1.3-0.4-1.6-1c-0.4-0.7-0.6-1.5-0.8-2.2
		c-3.2-9.7-4.1-19.8-5.1-29.9c-0.3-3.1-0.6-6.1-0.9-9.2c-0.3-2.8,0.4-5.1,2.4-7.1c1.6-1.6,3.1-3,5-4.2c5.6-3.6,9-8.6,9.9-15.3
		c0.4-3.4,1.1-6.9,1-10.4c-0.2-6.7,0.4-13.4,2.4-20.2c-5.8,4-10.7,8.4-14.7,13.9c-3.8,5.4-4.9,11.7-5.2,18.1
		c-0.2,5.2,0,10.3-0.1,15.5c0,1,0,2-0.2,3c-0.2,0.9-0.6,1.8-1.6,1.9c-1.2,0.1-1.5-0.9-1.7-1.7c-0.6-2.5-1-5.1-1-7.7
		c0-11.3,0-22.7,0-34c0-4.6,0.9-5.1,5.3-5.5c7.2-0.6,13-3.9,16.1-10.7c2.8-6.3,5.7-12.5,9.3-18.3c1.3-2.1,1-2.5-1.4-2.5
		c-11.3-0.1-20.5,6.8-23.6,17.6c-0.9,3.2-1.6,6.4-2.6,9.5c-0.2,0.8-0.5,2-1.6,1.8c-0.8-0.2-0.9-1.3-0.9-2.1
		c-0.1-6.4,0.8-12.7,1.5-19c0.2-2.3,0.5-4.6,1.4-6.7c1.1-2.6,2.4-3.2,5.2-2.7c7.1,1.4,12.7-0.8,16.9-6.8c1.5-2.2,2.8-4.6,3.7-7.2
		c1.6-4.5,3.5-8.9,6.1-12.9c1.3-2.1,1.1-2.6-1.4-2.6c-7.9-0.1-14.7,2.2-19.4,9.1c-2.6,3.8-4.6,7.9-5.8,12.4c-0.4,1.5-0.6,4-2.8,3.4
		c-1.8-0.5-1-2.7-0.7-4.2c2-8,3.8-16,6.1-24c1.4-4.9,2.9-5.4,7.2-2.8c4.8,2.9,9.7,3.3,14.8,0.8c1.6-0.8,3.1-1.8,4.5-3
		c4.2-3.6,7.6-8.1,12.5-11c-6.2-5.4-16.6-6.7-23.6-3.2c-3.1,1.5-4.9,4.3-6.8,7c-1.2,1.6-2.3,3.3-3.7,4.7c-0.4,0.4-0.9,0.9-1.6,0.5
		c-0.6-0.3-0.6-1-0.5-1.6c0-0.7,0.2-1.4,0.4-2c1.9-5.4,4-10.8,6.6-16c0.6-1.2,1.3-2.5,2.3-3.5c2.3-2.4,4.6-2.5,6.9-0.1
		c1.5,1.6,3.2,3,5.2,3.9c5.8,2.7,11.8,1.3,15.9-3.6c2.2-2.7,3.9-5.8,5.6-8.8c1.1-1.9,2.2-3.8,4-5.2c1.5-1.2,1.3-1.9-0.4-2.6
		c-8.1-3.1-16.1-3.2-24,0.8c-1.1,0.6-2.3,1.7-3.5,0.5c-1.1-1.1-0.5-2.5,0-3.6c1.3-2.7,2.9-5.2,4.8-7.5c1.3-1.6,3.2-2,5.1-2
		c2.2,0,4.4-0.5,6.5-0.9c3.5-0.6,6.3-2.5,8.5-5.1c6-7.1,9.1-15.6,10.5-24.6c0.1-0.8,0.5-2-0.6-2.4c-0.8-0.3-1.4,0.6-1.9,1.1
		c-3.3,3.5-7.6,5.5-11.7,7.7c-6.7,3.7-11.4,8.9-13.6,16.2c-1.4,4.8-3.8,9.1-6.5,13.3c-2.8,4.3-5.2,9-7.7,13.5
		c-0.9,1.7-1.8,3.3-3,4.8c-0.4,0.6-1,1.1-1.8,0.9c-0.8-0.2-0.9-1-0.9-1.7c0.2-2.7,0.2-5.4,1.7-7.8c5.3-8.5,7.3-17.7,7.2-27.6
		c-0.1-7.1-0.5-14.3,0.6-21.4c0.1-0.6,0.5-1.5-0.3-1.9c-0.7-0.4-1.4,0.2-1.9,0.6c-2.6,1.9-4.4,4.4-5.5,7.3
		c-4.7,11.6-5.8,23.6-3.2,36c1.9,9.2,2.1,18.3-1.1,27.3c-1,3-2,6.1-3.1,9c-0.3,0.8-0.7,1.8-1.8,1.8c-1.1,0-1.5-0.9-1.8-1.8
		c-1.7-6.3-3.4-12.3-1.6-19.2c5-19.5,3.9-29-3.8-50c-0.7,2.9-1.2,5.4-1.6,7.8c-1.9,10.9-4.2,21.7-3.8,32.8
		c0.2,6.3,1.9,11.9,6.1,16.7c1.1,1.2,1.8,2.6,2.2,4.2c1.1,3.7,2,7.5,2.8,11.3c0.5,2.4,0.6,4.8-0.1,7.1c-3.5,11.2-6.2,22.6-8.5,34.1
		c-0.1,0.6-0.2,1.2-0.4,1.7c-0.5,1.4-0.3,3.8-2.3,3.7c-1.8-0.2-1.5-2.6-1.7-4c-0.6-3.6,0.4-7.1,1.2-10.6c2.4-10,4.4-20,4-30.3
		c-0.4-10.7-3.3-20.8-8.5-30.1c-0.8-1.3-1.6-2.7-3-3.5c-0.6,0.4-0.6,0.8-0.6,1.1c0.2,9.8-1,19.6-1.2,29.4
		c-0.3,13.6,2.3,26.7,6.4,39.6c1.6,5.2,2.6,10.3,2.7,15.8c0.1,4.8,0.6,9.5,0.5,14.3c0,1.1,0.2,2.4-1.1,2.9c-1.4,0.5-2.2-0.8-2.7-1.8
		c-2.6-4.3-4.6-8.7-4.4-14c0.3-9.3,0.1-18.7-3.2-27.6c-2.8-7.4-6.9-14.1-11.2-20.6c-0.3,13.7,0.7,27.3,3,40.8
		c0.3,1.6,0.6,3.1,0.9,4.7c0.8,4.2,2.6,7.5,7.3,8.4c2,0.4,3.2,1.9,4.1,3.6c1.8,3.3,3.7,6.6,5.6,9.9c0.4,0.8,0.9,1.6,1,2.5
		c0.3,6.1,0.6,12.3-0.2,18.4c-0.1,0.9-0.1,2.3-1.3,2.4c-1.3,0.1-1.6-1.3-2-2.3c-2.4-7.5-5.3-14.8-8-22.2
		c-2.7-7.1-7.2-13.2-10.9-20.3c0.8,13.3,1.9,26.1,2.9,38.8c0.8,9.8,5.5,17.4,11.9,24.4c1.1,1.3,2.3,2.6,3.6,3.6
		c5,3.8,7.2,8.9,7.7,15.1c0.5,5.8,1.8,11.6,2.2,17.4c0.1,1.2,0.4,2.5-0.9,3.2c-1.4,0.7-2.2-0.5-3-1.3c-2.8-2.6-5-5.6-6-9.4
		c-1.7-6.4-3.7-12.8-5.5-19.2c-1.3-4.5-3.5-8.4-6.6-11.9c-5.3-5.8-11-11.2-16.8-16.5c0-113.5,0-227,0-340.5c112.3,0,224.7,0,337,0
		c0.2,0.4,0.1,0.7-0.2,0.9c-0.5,0.3-1.1,0.5-1.7,0.5c-1.3,0.1-2.4,0.4-2.5,2c-0.1,1.5-0.1,3.2,1.5,3.9c1.9,0.8,2.6,2.1,2.5,3.9
		c-0.3,8,0.9,15.9,0.6,23.8c-0.1,2.2,0,4.3-2.6,5.5c-1.7,0.8-1.1,2.8-0.8,4.3c0.3,1.4,1.6,1.3,2.7,1.3c3.1,0.2,6.2-0.1,9.2-0.6
		c1.2-0.2,2.9,0.3,3.1-1.5c0.2-1.7,0.2-3.6-1.6-4.4c-1.7-0.8-2.3-2.1-2.2-3.8c0.3-8.1-0.8-16.1-0.6-24.1c0-2.1,0-4.2,2.5-5.1
		c1.2-0.5,1-1.8,1-2.9c0.1-1.3-0.5-2.6,0.3-3.8c6.6,0,13.2,0,19.8,0c-0.2,1.9-2,1.7-3.2,2.2c-7.2,3.2-9.9,11.9-5.6,18.3
		c2,2.9,5,4.4,8.4,5.4c3.4,1,7,1.4,10.5,2.6c3.9,1.3,5.2,3,5.1,6.4c-0.1,2.3-1.1,3.9-3.1,5c-5.9,3.1-13.1,0.9-16.6-5
		c-0.7-1.2-1.1-2.5-2.7-3c-3.3-0.9-4.7,0-5.3,3.4c-0.5,2.5-0.3,5-0.4,7.4c-0.1,1.1-0.6,2.6,1.2,2.8c1.6,0.2,3.4,0.7,4.6-1
		c1.8-2.6,1.8-2.6,4.5-0.6c4.7,3.7,9.9,5,15.7,3.4c5.6-1.6,9.6-6.2,10.1-11.7c0.5-6.1-2.1-10.9-7.6-13.6c-2.9-1.4-5.9-2.3-9.1-2.8
		c-2.1-0.3-4.1-0.7-6-1.6c-1.9-0.9-3.3-2.2-3.4-4.5c0-2.2,1.2-3.7,3-4.8c4.6-2.7,11.3-1.1,14.8,3.9c1.5,2.2,3.1,3.5,5.9,3.1
		c1.2-0.2,1.9-0.6,1.9-1.8c0-2.5,0.7-4.9,0.7-7.4c0-1.5-0.2-2.8-2.1-2.9c-1.5-0.1-3.2-0.8-3.7,1.7c-0.2,1.4-1.3,1.9-2.4,1
		c-2.6-2.3-5.5-3.8-8.7-5c-0.3-0.1-0.3-0.5-0.2-0.8c107.9,0,215.9,0,323.8,0c0,114.5,0,229,0,343.5c-1,1.9-2.5,3.3-4.1,4.7
		c-3.9,3.2-7.3,7-10.9,10.6c-4.6,4.6-7,10.3-8.6,16.4c-1.5,5.7-3.2,11.3-4.8,16.9c-1,3.6-3.5,6.2-5.9,8.8c-0.7,0.7-1.7,1.4-2.7,0.9
		c-0.9-0.4-0.9-1.5-0.9-2.4c0.1-5.8,1.3-11.4,2-17.1c0-0.4,0,0.1,0-0.3c0.2-6.6,3.1-11.8,8.2-16.2c3.7-3.2,6.5-7.2,9.4-11.2
		c3.9-5.4,5.1-11.5,5.7-17.9c1.3-12.4,2.1-24.8,2.9-37c-8.8,12.5-13.9,26.9-18.8,41.5c-0.4,1.1-0.5,2.8-1.9,2.7
		c-1.5-0.2-1.5-1.9-1.6-3.2c-0.4-4.3-0.6-8.5-0.7-12.8c0-3.2,0.6-6.1,2.4-8.8c1.1-1.7,2-3.4,2.9-5.2c1.9-3.7,4.1-6.9,8.6-7.9
		c2.8-0.6,3.8-3.4,4.3-6c1.5-6.6,2.5-13.3,3.2-20c0.9-8.8,1.1-17.6,1.5-27.2c-1.4,1.6-2.1,2.8-2.9,4c-5.4,8.9-10.7,17.8-11.6,28.4
		c-0.5,6-1.2,12.1-0.8,18.1c0.3,4.9-2.5,8.7-4.7,12.7c-0.4,0.7-1.1,1.3-2,1.1c-0.8-0.2-1.2-1-1.4-1.8c-0.3-1.3-0.4-2.6-0.2-3.9
		c1-5.6,0.3-11.3,1-16.9c0.5-3.5,1.3-6.8,2.4-10.1c4-12.2,6.5-24.7,6.4-37.5c-0.1-11-0.5-22-1.5-33.2c-1.4,0.8-2,1.9-2.7,2.9
		c-4.9,8.2-7.7,17.2-8.8,26.7c-1.4,12.2,1.2,23.9,4,35.6c1,4,1,8.1,0.6,12.1c-0.1,0.9-0.4,2-1.3,2.1c-1.1,0.2-1.4-1-1.7-1.8
		c-0.7-2.3-1.3-4.6-1.8-6.9c-1.8-9.7-4.1-19.2-7.1-28.6c-1.3-3.9-1.5-7.7-0.5-11.7c0.9-3.3,1.6-6.6,2.5-9.8c0.4-1.3,0.8-2.5,1.7-3.4
		c5.9-6.3,7.2-14.1,6.6-22.2c-0.9-11.8-3-23.4-5.7-35.4c-5.3,14-9.1,27.8-5.6,42.5c0.6,2.6,0.8,5.3,1.7,7.9
		c2.2,6.4,0.4,12.4-1.4,18.4c-0.3,1-0.8,2.3-2,2.3c-1.2,0-1.4-1.3-1.8-2.1c-3.8-9.6-6.7-19.4-5.4-29.9c0.7-5,2.5-9.8,2.6-14.9
		c0.4-10.7-1-21-6.4-30.5c-0.9-1.7-2.2-3.1-3.8-4.1c-1.4-0.8-2.4-0.6-2.2,1.3c1.2,10-0.2,20.1,1.1,30c0.9,6.6,2.9,12.8,6.4,18.4
		c1.5,2.4,2.1,4.9,1.9,7.7c-0.1,1,0.1,2.3-1,2.6c-1.1,0.2-1.6-1-2.1-1.8c-2-3.1-3.7-6.4-5.5-9.6c-2.4-4.3-4.8-8.5-7.5-12.5
		c-1.6-2.4-2.4-5.3-3.2-8c-2.4-7.7-7-13.5-14.3-17.1c-4.7-2.3-9.2-5.1-12.8-9.2c-1.3,1.2-0.9,2.5-0.8,3.6c1.3,8.9,4.4,17,10.4,24
		c3.7,4.3,8.6,5.8,13.8,6c3.8,0.1,6.2,1.5,8.1,4.5c1.2,1.9,2.6,3.8,3.2,6c0.2,1,0.4,2.1-0.4,2.8c-0.9,0.9-1.9,0.1-2.7-0.3
		c-7.8-4.2-15.8-4.3-24-1.3c-2.6,1-2.6,1-0.7,2.9c2.3,2.3,3.7,5.2,5.3,7.9c1.3,2.1,2.5,4.3,4.2,6.2c5.7,6.4,14.6,6.4,20.5,0.2
		c3.3-3.5,5.2-3.5,7.9,0.6c4.2,6.1,6.6,13.1,8.8,20.1c0.2,0.6,0.4,1.5-0.3,1.9c-0.9,0.5-1.5-0.2-2.1-0.7c-1.5-1.4-2.7-2.9-3.7-4.7
		c-4.5-8.2-11.8-9.3-20-8.3c-3.2,0.4-5.9,1.9-8.6,3.3c-1.2,0.6-1.8,1.4-0.3,2.4c4.3,2.8,7.5,6.8,11.4,10.1c6.3,5.5,12.7,6,19.7,1.8
		c3.1-1.9,5-1.4,6.1,2.2c2.7,8.3,4.6,16.9,6.6,25.4c0,0.2,0.1,0.4,0.1,0.6c0,1.3,0.4,3-1,3.4c-1.7,0.5-1.9-1.5-2.2-2.6
		c-2-6.2-4.3-12.1-9.2-16.8c-4.7-4.5-10.4-5.6-16.5-5.5c-2,0-2.2,1-1.2,2.5c3,4.6,5,9.7,7,14.8c1.3,3.4,3.4,6.3,6.1,8.7
		c3.7,3.5,8,4.6,13,3.5c3.7-0.8,5.1-0.1,6.2,3.6c1,3.4,1.2,6.8,1.6,10.3c0.5,4.5,0.6,9.1,1.2,13.6c0,0.2,0,0.4,0,0.6
		c-0.1,0.9,0.1,2.1-1,2.3c-1,0.2-1.4-0.9-1.7-1.7c-0.4-1.2-0.6-2.5-1-3.7c-1.3-4.2-2.1-8.4-4.4-12.3c-2.8-4.9-6.9-7.9-12.1-9.5
		c-3-1-6.1-1.7-9.4-1.6c-1.4,0-1.9,0.6-1.1,1.9c3.9,6.3,6.6,13.2,10,19.6c3.4,6.4,9.1,10.2,16.8,9.9c2.5-0.1,3.9,1.1,3.8,3.8
		c0,5.1,0.8,10.1,0.7,15.2c-0.1,7.9,0.4,15.9-0.6,23.8c-0.2,1.5-0.3,3-0.7,4.4c-0.2,0.9-0.6,1.8-1.7,1.8c-1.3,0.1-1.7-1-1.9-1.9
		c-0.5-2.8-0.5-5.6-0.1-8.3c1-7.1,0-14.1-1.6-21c-1.5-6-5.6-10.5-9.9-14.6c-2.3-2.3-4.8-4.5-8.2-6.5c3.2,10.1,1.4,20.2,3.2,30.1
		c1.2,6.4,3.8,11.7,9.5,15.2c1.1,0.7,2,1.6,3.1,2.4c4.1,2.9,5.4,6.7,4.6,11.7c-1,6.6-1.5,13.2-2.2,19.8c-0.6,6.2-2.5,12-4.1,18
		c-0.2,0.9-0.7,2.2-1.9,2c-1.2-0.2-1.1-1.6-1-2.5c0.3-3.8,1.3-7.4,1.9-11.2c1.7-10.7-1-20.5-6.1-29.8c-2.2-3.9-4.5-7.8-7.9-10.8
		c-0.5-0.4-0.9-1.1-1.8-0.9c1.5,12.4-0.5,25,1.7,37.3c1.1,5.8,3.6,10.9,8.3,14.4c4.3,3.2,5.1,7.1,3.7,11.8c-2.2,7.6-4.8,15-7.8,22.2
		c-2.1,5-4.1,10.1-6.6,15c-0.6,1.3-1.3,3.3-3,2.5c-1.4-0.6-0.6-2.5-0.2-3.8c2.2-6.9,4.1-13.9,5.2-21.1c2.2-14.2-0.6-27.4-7.6-40.6
		c-0.5,6.4-0.9,12.2-2.1,18c-1.6,7.7-2.3,15.5-2.9,23.3c-0.5,6.1,0.2,12.2,2.6,17.9c4,9.4,2.2,17.8-3.6,25.8
		c-4.2,5.8-8.2,11.7-12.2,17.7c-2,2.9-3.4,6.1-5.1,9.1c-0.5,0.8-1,2-2.2,1.6c-0.9-0.3-0.9-1.5-0.8-2.4c0.5-4.8,1.1-9.4,3.6-13.7
		c5-8.6,9.9-17.2,12.1-27.1c3.4-15.5,2.3-30.8-1.3-46c-0.2-0.9-0.3-1.7-0.7-2.5c-3.1,11-5.6,22.2-9.6,33c-2,5.2-2.4,10.8-3.2,16.3
		c-0.9,6.6,0.1,13,0.9,19.5c0.6,5,0,9.9-1.8,14.7c-2.9,7.9-3.7,16.4-8.3,23.8c3.1-4,7-7.1,10.8-10.3c2.1-1.8,4.1-2.2,6.8-0.9
		c4.8,2.4,9.9,4.1,15.2,5.3c5.1,1.1,6.9,0.4,8.4-4.5c2.3-7.4,6.8-12.9,12.8-17.5c1.7-1.4,2.9-3.2,4.3-4.9c1.1-1.3,0.6-2.2-0.9-2.6
		c-7-1.9-14.1-2.9-21.3-0.9c-4.2,1.2-6.7,4.9-9.5,7.9c-3.4,3.7-6.2,7.8-9.2,11.7c-1,1.3-2,2.5-3.7,2.9c-0.9,0.3-2,0.9-2.8,0.1
		c-0.8-0.9-0.1-1.9,0.4-2.7c1-1.8,2.1-3.6,3.2-5.4c3.4-5.3,7-10.4,10.6-15.5c5.8-8.4,14-10.6,23.3-9c5.7,1,10-0.6,13.9-4.6
		c8.2-8.3,15.1-17.4,20.9-27.5c0.3-0.5,0.6-1,0.8-1.6c0.6-1.2,0.3-2-1.2-1.8c-10.2,1.8-19.8,4.6-26.3,13.7
		c-3.3,4.7-6.4,9.6-9.4,14.5c-2.9,4.9-7.8,5.8-12.6,7c-1.8,0.5-2.5-0.8-1.6-3c1.5-3.7,3.5-7.1,5.3-10.7c3.2-6.6,8.9-10.8,14.3-15.4
		c1-0.8,2.2-1.4,3.6-1.4c6.8,0.2,11.1-3.8,14.7-8.8c4-5.4,6.3-11.8,8.5-18c3.7-10.2,7.1-20.5,10.1-31.4c-1.8,0.8-3.1,1.9-4.4,2.9
		c-8,5.7-15.3,12.2-19.9,21.1c-3.5,6.6-6,13.7-7.7,21c-1.4,5.9-4.7,10.7-8.5,15.2c-0.4,0.5-0.8,0.9-1.3,1.2
		c-0.8,0.6-1.7,1.3-2.7,0.7c-1.2-0.7-0.6-1.8-0.3-2.7c0.9-2.8,2.5-5.4,3.7-8.1c4.5-10.1,8.1-20.5,10.2-31.4
		c1.1-5.5,4.5-9.4,7.9-13.4c2.2-2.5,4.7-4.3,8.2-5.1c6.3-1.4,10-5.9,12.3-11.6c4-10.3,6.9-21,10.1-31.5c0.6-1.9,1.1-3.8,1.6-5.7
		C697.2,493.1,697.1,491.9,698.6,491.8z"/>
	<path d="M698.6,491.8c-0.8,2.6-1.6,5.2-2.4,7.8c-2.8,9.6-5.7,19.2-9,28.7c-0.7,1.9-1.4,3.7-2.3,5.5c-2.8,5.5-7,9.1-13.1,10.2
		c-2.1,0.4-3.7,1.3-5.1,2.8c-2.7,2.8-5,5.9-7.3,9.1c-0.5,0.7-0.8,1.6-1,2.4c-2.9,14.2-7.6,27.7-13.9,40.8c-0.6,1.3-1.4,2.6-1.6,4.2
		c1.1,0.4,1.8-0.2,2.3-0.9c3.6-4.4,7.6-8.7,9-14.5c1.5-6,3.6-11.8,5.8-17.5c2.4-6.2,6-11.6,10.6-16.4c5.3-5.5,11.2-10.1,17.6-14
		c0.5,0.3,0.5,0.5,0.4,0.8c-3.7,13.1-7.7,26.1-12.9,38.7c-1.7,4.1-3.5,8.2-6.1,11.9c-1.8,2.6-4,5-6.7,6.7c-2.4,1.5-5,2.5-7.9,2.2
		c-1.5-0.2-2.7,0.3-3.8,1.2c-3.6,3-7.1,6.1-10.4,9.4c-0.5,0.5-0.9,1.1-1.3,1.6c-2.9,4.7-5.6,9.6-7.8,14.7c-0.3,0.6-0.4,1.3-0.6,2
		c0.8,0.5,1.6,0.2,2.4,0c8.6-2.5,8.6-2.5,13.3-10.2c2.4-3.9,4.9-7.7,7.5-11.5c2.8-4,6.5-7,10.9-9c6-2.8,12.3-4.4,19-5.1
		c0,0.5,0,0.8-0.1,1.1c-6.5,12.4-14.6,23.7-25,33.2c-4.5,4.1-4.6,4.2-10.7,3.5c-3-0.3-6-0.5-9-0.4c-5,0.1-9.3,1.8-12.7,5.6
		c-3.9,4.4-7.3,9.2-10.5,14.1c-2.5,3.9-4.9,7.9-7.6,12.2c2.7-0.3,4.5-0.9,6-3c3.8-5.5,8.1-10.6,12.5-15.6c3.5-4,7.8-5.6,13-5.7
		c4.4-0.1,8.8,0.3,13.1,1.2c1.3,0.3,2.5,0.6,3.7,1.1c1.5,0.6,1.6,1.2,0.8,2.5c-0.9,1.5-2.2,2.8-3.4,4.1c-2.6,2.5-5.1,5-7.8,7.4
		c-2.3,2.1-3.8,4.5-4.8,7.4c-0.9,2.5-1.8,5-3.1,7.4c-1,1.9-2.5,2.8-4.6,2.4c-1.5-0.3-3-0.4-4.4-0.8c-5.4-1.4-10.7-3.2-15.6-5.8
		c-1.3-0.7-2.1-0.5-3.2,0.3c-4.7,3.9-9.9,7.5-12.8,13.4c-1.2-2.4-1.3-2.4-0.3-4.1c2.4-4.1,4.2-8.5,5.1-13.2c0.4-2.3,1.2-4.6,2.1-6.8
		c2.6-6.5,3.3-13.3,2.1-20.2c-2-12.1-0.4-23.9,3.7-35.4c3.4-9.7,5.8-19.6,8.3-29.5c0.3-1,0.5-2.1,0.9-3.4c1.1,2,1.3,4,1.8,5.9
		c2.1,9.2,3.7,18.5,3.3,28c-0.5,12.6-2.7,24.9-9.3,36c-1.7,2.9-3.2,6-4.9,8.8c-2.9,4.9-3.5,10.2-3.8,15.6c0.7,0.2,0.8-0.3,1-0.6
		c3.6-7.4,8.2-14,12.9-20.7c2.4-3.3,4.6-6.7,6.9-10.1c2.8-4.1,4-8.6,4.1-13.5c0-1.8-0.3-3.6-1.1-5.2c-3.5-8-4.3-16.4-3.6-25.1
		c0.6-8.5,2.3-16.9,3.5-25.4c0.7-4.6,1.1-9.3,1.6-13.9c1.1,0.3,1.2,1.3,1.6,2c7.6,14,9.8,28.8,6.5,44.4c-1.3,6-2.7,12-4.8,17.8
		c-0.3,0.8-0.7,1.7-0.1,2.6c1.3-0.4,1.6-1.7,2.1-2.7c3.5-7.5,6.8-15,9.6-22.8c1.6-4.3,3-8.6,4.5-12.9c0.4-1.2,0.8-2.5,0.9-3.8
		c0.3-3.2-0.3-5.9-3.2-8.1c-6.4-4.9-9.2-11.7-9.9-19.6c-0.5-5.2-0.6-10.3-0.6-15.5c0.1-6.6,0.7-13.3-1.4-20.1c1.9,0.4,3,1.4,4,2.4
		c2.9,2.8,5.2,6,7.2,9.5c5.1,8.8,8.3,18,7.5,28.3c-0.4,4.3-1.1,8.5-2,12.6c-0.3,1.4-0.6,2.8-0.3,4.4c1-0.4,1-1.2,1.3-1.9
		c2.3-7.4,4-14.9,4.7-22.7c0.4-5.3,1-10.7,1.7-16c0.5-3.9-0.2-7-3.5-9.4c-1.5-1.1-2.9-2.4-4.5-3.5c-4.7-3.1-7.6-7.4-8.8-12.9
		c-1.2-5.5-1.5-11-1.5-16.6c0-5.6-0.6-11.1-2.4-16.4c-0.1-0.3,0-0.6,0-1c1.3,0.3,2.3,1.1,3.3,1.8c3.5,2.5,6.6,5.5,9.5,8.6
		c5,5.2,7.7,11.5,8.5,18.6c0.5,4.9,0.9,9.9,0.3,14.9c-0.3,2.1-0.1,4.2-0.1,6.3c0,1.2,0.2,2.3,0.9,3.4c1.2-0.3,1.2-1.3,1.4-2.1
		c0.7-3.6,1.1-7.3,1.1-11c0.1-10.5,0-21.1-0.4-31.6c0-0.6,0-1.2-0.1-1.8c-0.2-1.3-1.2-2-2.5-1.9c-8.3,0.4-16-4-18.8-11.3
		c-2.6-6.8-6-13.2-9.9-19.3c-1.3-2-1.1-2.3,1.3-2.3c5.6,0.1,11.1,1.2,16,4.1c5,2.9,7.8,7.6,9.6,12.8c1.2,3.6,2,7.3,3,10.9
		c0.1,0.5,0.1,1.2,1,1.5c0.3-3.1-0.3-6.1-0.5-9c-0.3-4.9-0.7-9.9-1.6-14.8c-0.1-0.8-0.3-1.6-0.5-2.3c-0.9-3.5-1.8-3.9-5.3-3
		c-4.8,1.3-9.1,0.2-12.9-2.8c-3-2.4-5.3-5.5-6.7-9c-2.6-6.3-4.9-12.8-9.3-18.6c3.2-1.2,6.2-0.9,9.1-0.5c10.5,1.2,15.9,8.3,19.5,17.2
		c0.8,1.9,1.3,4,2,5.9c0.3,0.8,0.4,1.7,1.4,2.3c0.7-1.5,0.4-2.9,0.1-4.1c-2-8.4-4.1-16.8-6.5-25.1c-0.2-0.6-0.3-1.2-0.6-1.7
		c-0.7-1.3-1.6-1.6-3-0.9c-0.5,0.3-1,0.7-1.5,1c-5.5,3.8-12,3.9-17.7,0.4c-2.5-1.5-4.6-3.5-6.6-5.6c-3.1-3.1-6-6.4-10.6-8.5
		c3.7-2.2,6.8-4.4,10.7-5.2c4-0.8,7.9-0.9,11.9,0c3.6,0.8,6.6,2.7,8.7,5.8c1.5,2.2,3.1,4.4,4.8,6.5c0.4,0.6,0.8,1.4,1.9,1.5
		c-0.1-0.6-0.2-1.2-0.4-1.7c-2-6-4.3-11.9-7.3-17.6c-0.7-1.3-1.5-2.6-2.6-3.6c-2-1.7-2.9-1.7-4.6,0.3c-2.3,2.9-5.3,4.8-9,5.6
		c-4.6,1-8.7,0-12.1-3.3c-2.9-2.8-4.9-6.2-6.8-9.7c-1.7-3.2-3.7-6.1-7.1-8c3.2-2.1,6.5-2.9,9.9-3.7c6.1-1.3,11.9-0.2,17.5,2.2
		c0.9,0.4,1.5,0.9,2.2,1.5c0.9,0.7,1.4,0.4,1.5-0.7c0.1-1.1-0.3-2.2-0.8-3.1c-1.3-2.5-3-4.7-4.7-6.9c-0.8-1-1.7-1.2-2.9-1.2
		c-3-0.1-5.9-0.7-8.9-1.2c-2.3-0.4-4.1-1.4-5.8-2.9c-3.5-3.1-6.1-6.8-8.1-11c-2.3-4.7-3.9-9.6-4.8-14.7c-0.6-3-0.4-4.3,0.6-6.4
		c1.5,0.8,2.6,2.2,3.8,3.3c1.7,1.7,3.6,3.1,5.7,4.2c3.5,1.9,6.9,3.9,10.2,6.2c2.7,1.9,4.8,4.2,6.1,7.2c0.8,1.7,1.7,3.4,2.3,5.2
		c1.7,5.5,4.5,10.5,7.6,15.4c3.1,4.9,5.7,10,8.6,15c0.6,1,1.2,2,2,2.9c0.3-3.3,0.6-6.5-1.5-9.5c-4-5.8-5.8-12.4-6.6-19.3
		c-0.6-4.8-0.6-9.7-0.4-14.6c0.2-5.9-0.1-11.9-1-18c2.2-0.4,3.6,0.7,4.9,1.8c1.9,1.6,3.2,3.8,4.3,6c2.7,5.5,4,11.4,4.7,17.4
		c0.9,8,0.6,15.9-1.9,23.6c-0.3,0.8-0.2,1.6-0.3,2.4c-0.5,12-0.5,12,3.1,23.3c0.9,2.8,1.7,5.7,3,8.4c1.2,0,1.2-1,1.4-1.7
		c1.2-3.8,2.1-7.7,2.5-11.6c0.2-1.5,0-2.9-0.4-4.4c-1.8-6.4-3-13-3.6-19.6c-0.7-6.6,0.6-13.1,2.3-19.4c1.5-5.4,3.1-10.8,5.8-16
		c0.6,2.8,1.3,5.6,1.8,8.4c1.8,9.4,3.4,18.8,4.1,28.3c0.3,4.3,0.1,8.5-0.9,12.7c-0.9,3.9-2.6,7.5-5.5,10.4c-0.9,0.9-1.4,1.9-1.8,3.1
		c-1.2,4.2-2.2,8.4-3.1,12.7c-0.5,2.2-0.4,4.4,0.3,6.5c3.9,11.8,6.4,23.9,9,36.1c0.3,1.2,0.3,2.6,1.6,3.7c0.9-3.8,1.2-7.5,0.4-11.3
		c-1.6-7-3.2-13.9-4.2-21c-2-14.2,0.1-27.7,6.3-40.6c1.5-3.1,3.3-6.1,6.5-8.5c0.1,2.7,0.2,4.9,0.3,7.1c0.3,6.3,0.5,12.7,0.9,19
		c1.2,16.5-1.6,32.5-6.6,48.1c-1.1,3.4-2,6.8-2.1,10.4c-0.2,5.6-0.5,11.1-0.7,16.7c-0.1,1.4-0.1,2.7,0.5,4c0.7,0,1-0.5,1.2-0.9
		c0.6-1,1.2-2.1,1.8-3.1c2.3-3.8,3.2-7.7,3-12.2c-0.3-6.3,0.4-12.5,1.1-18.7c0.5-4.3,2-8.3,3.8-12.2c2.9-6.2,6.4-12.1,10.3-17.8
		c0.3-0.4,0.4-0.9,1.3-1c0,2.5,0.1,5.1,0,7.6c-0.4,9.7-0.7,19.5-2.2,29.1c-0.7,4.3-1.3,8.6-2.3,12.9c-0.8,3.4-2.6,5.8-6.1,6.6
		c-2.5,0.6-4.1,1.9-5.3,4.3c-1.7,3.5-3.7,6.8-5.7,10.1c-0.6,1.1-1,2.1-1,3.4c0,5.4,0.1,10.7,0.6,16.1c0.1,0.9,0.1,1.8,0.9,2.8
		c5.3-16.4,11-32.5,21.4-47.1c-0.1,3-0.2,5.6-0.4,8.2c-0.7,9.3-1.4,18.6-2.2,27.9c-0.3,3.7-0.8,7.3-1.3,10.9c-0.6,3.7-2.3,7-4.3,10
		c-4.1,6.2-9.1,11.6-14.5,16.6c-1.3,1.2-2.1,2.5-2.4,4.3c-1,7.2-2.1,14.3-3.1,21.5c-0.2,1.6,0,3.2,0,4.8c0.1,0.1,0.4,0.2,0.5,0.2
		c3.3-2.4,6-5.3,7.2-9.2c2.3-7.5,4.5-15,6.6-22.6c0.9-3.1,2.5-5.8,4.5-8.3c4.7-5.7,10.1-10.7,15.5-15.7c0.9-0.8,1.8-1.5,2.7-2.3
		C698.6,490.6,698.6,491.2,698.6,491.8z"/>
	<path d="M0.6,487.1c0.9-0.1,1.5,0.5,2.1,1c5.7,5,11.2,10.2,16.2,15.9c2.7,3,4.6,6.4,5.7,10.3c1.9,7,4,13.9,6,20.9
		c1,3.6,4.1,7.7,7.5,10c1.1-0.7,0.6-1.8,0.6-2.7c-0.7-7.4-2-14.8-3-22.1c-0.4-2.9-1.5-5.1-3.7-7.1c-3.7-3.2-6.8-7-10-10.7
		c-5.1-6.1-8.1-13-8.8-21.1c-1.1-12.9-2.1-25.7-2.9-38.6c0-0.6-0.3-1.3,0.2-2c10.3,14.1,15.8,30.2,21.1,46.5c0.2,0,0.4,0,0.6,0
		c0.2-1.6,0.5-3.2,0.6-4.7c0.2-4.5,0.3-8.9,0.4-13.4c0.1-1.4-0.3-2.7-1-4c-2.2-3.8-4.4-7.6-6.5-11.4c-0.7-1.2-1.5-2.1-2.9-2.3
		c-0.4-0.1-0.8-0.3-1.1-0.4c-3.9-0.9-5.9-3.4-6.7-7.2c-1.3-5.9-2.3-11.9-2.9-17.9c-1.1-9.8-1.5-19.6-1.4-29.5c0-0.6,0.1-1.1,0.1-1.6
		c0.7-0.1,0.8,0.4,1,0.7c3.9,5.7,7.3,11.6,10.3,17.8c3.3,6.8,4.3,14,4.7,21.4c0.2,4.6,0.2,9.1,0.3,13.7c0,0.7-0.2,1.4,0.1,2.1
		c1.5,3.3,2.9,6.8,5,9.8c0.2,0.3,0.4,0.4,0.9,0.3c0.6-0.6,0.4-1.4,0.4-2.1c0.2-7.3-0.5-14.5-0.8-21.7c-0.1-1.6-0.6-3.1-1.1-4.6
		c-4.9-14.7-8.1-29.7-7.6-45.3c0.4-10.3,1.2-20.6,1.2-30.8c1-0.4,1.4,0.3,1.9,0.8c2.3,2.2,3.9,5,5.2,7.9c6.2,13.3,8,27.1,5.7,41.6
		c-1,6.3-2.4,12.5-3.8,18.7c-0.9,4.2-0.8,7.1,0.3,11.6c1.2-0.6,1.2-1.8,1.4-2.7c1.1-5,2.2-10.1,3.2-15.1c1.3-6.6,3.3-13.1,5.4-19.5
		c1.3-3.9,1.3-7.8,0.3-11.7c-0.5-1.9-1-3.8-1.5-5.8c-0.7-3.1-1.9-5.9-4.1-8.4c-3.5-4-4.7-9.1-5.1-14.4c-0.5-6.8,0.4-13.5,1.4-20.2
		c1.1-7.4,2.5-14.7,4-22c0.1-0.7,0.1-1.4,1-1.9c3.7,9.9,7.2,19.8,7.7,30.4c0.3,6.4-1,12.6-2.3,18.9c-0.3,1.5-0.5,3-1,4.3
		c-1.1,2.8-1,5.6-0.4,8.5c0.8,3.7,1.4,7.4,3,11c0.8-0.4,1-1,1.2-1.7c1.8-5.5,3.6-10.9,5.3-16.4c0.2-0.7,0.3-1.6,0.3-2.4
		c-0.1-4.1-0.2-8.1-0.2-12.2c0-0.9-0.3-1.7-0.5-2.6c-3.5-13.2-2.6-26.2,2.5-38.8c0.9-2.3,2.2-4.5,3.9-6.3c1.5-1.6,3.2-2.9,5.7-3
		c0.6,1.4-0.2,2.8-0.3,4.1c-0.6,5-0.6,9.9-0.5,14.9c0.2,7.3,0.1,14.5-1.9,21.6c-1.1,4-2.6,8-5,11.4c-2.2,3-1.8,6.2-2,9.9
		c1.4-0.8,1.7-1.9,2.3-2.8c4.3-7.5,8.2-15.2,13.2-22.3c0.6-0.8,0.8-1.8,1.1-2.8c1.1-3.3,2.3-6.5,3.7-9.7c1.7-3.7,4.1-6.8,7.6-9
		c2.5-1.6,5-3.2,7.7-4.6c3.3-1.8,6.3-3.9,8.8-6.5c0.7-0.7,1.2-1.6,2.4-1.9c0.9,1,1,2.3,0.9,3.5c-1.3,10-4.6,19-11.4,26.7
		c-3.5,3.9-8,5-12.8,5.6c-0.2,0-0.4,0.1-0.6,0.1c-4.5-0.7-6.9,1.9-8.9,5.4c-1.1,1.9-2.4,3.7-2.7,5.9c-0.1,0.5,0,1,0.6,1.2
		c0.4,0.2,0.8-0.1,1.1-0.3c7.1-4.6,14.7-5.1,22.6-3c2.3,0.6,4.5,1.5,7.1,2.9c-4.6,2.3-6.4,6.5-8.6,10.5c-1.1,1.9-2.3,3.7-3.7,5.4
		c-6.1,7.2-16.2,7.3-22.4,0.2c-2.4-2.7-3.8-2.7-6,0.1c-0.6,0.7-1,1.5-1.5,2.2c-3.2,6-5.7,12.2-7.7,18.7c-0.1,0.3,0,0.6-0.1,1.1
		c1.2-0.6,1.8-1.6,2.5-2.5c1.2-1.6,2.5-3.1,3.5-4.8c3-4.9,7.6-6.7,13.1-7.2c6.8-0.5,12.8,1.3,18.2,5.5c-0.1,0.8-0.9,0.9-1.4,1.2
		c-2.7,1.6-4.9,3.7-7.1,5.9c-2.1,2.2-4.2,4.3-6.6,6.1c-6.4,4.7-13,4.8-19.7,0.3c-2.6-1.8-3.6-1.5-4.5,1.6
		c-2.7,8.7-4.8,17.6-6.9,26.5c-0.2,0.9-0.3,1.9,0.2,2.8c1,0.2,1.1-0.6,1.3-1.1c0.6-1.8,1.2-3.6,1.7-5.4c0.8-2.7,2.1-5.1,3.5-7.5
		c4.9-8.5,12.5-11.8,22-11.5c1.1,0,2.2,0.2,3.2,0.8c-0.1,1.1-0.9,1.8-1.4,2.6c-2.4,3.9-4.5,8-5.9,12.3c-1.4,4.1-3.4,7.9-6.4,11
		c-4.4,4.5-9.6,6.2-15.8,4.3c-2-0.6-3.2-0.1-3.9,2c-0.8,2.1-1,4.4-1.3,6.7c-0.8,6.1-1.3,12.2-1.6,18.4c0,0.7-0.2,1.5,0.4,2.5
		c1.1-2.4,1.5-4.8,2.1-7.2c1-3.5,1.9-7.1,3.7-10.3c3-5.3,7.4-8.8,13.3-10.4c3.5-0.9,6.9-1.8,10.6-1.7c1.9,0.1,2.1,0.5,1.1,2.1
		c-4.1,6.3-7.3,12.9-10.2,19.8c-2.9,6.8-8.6,10.2-15.8,11.3c-0.8,0.1-1.6,0-2.4-0.1c-2.1-0.3-3,0.3-3.2,2.4
		c-0.1,1.2-0.1,2.4-0.1,3.6c0,11.1-0.6,22.2,0,33.4c0.1,2.4,0.4,4.7,1,7.1c0.1,0.6,0.2,1.4,1.1,1.7c1.1-0.7,0.9-1.9,1-2.9
		c0.2-3-0.1-6-0.2-8.9c-0.3-6.6,0-13.1,1.8-19.5c0.6-2,1.3-4,2.4-5.7c4.2-6.6,9.8-11.7,16.2-16c0.3-0.2,0.7-0.3,1.1-0.5
		c0.3,1-0.2,1.8-0.4,2.6c-1.2,4.4-1.9,8.9-1.9,13.5c0,5.7-0.3,11.3-1.3,16.9c-1.1,6-4,10.7-9.2,14c-2,1.3-3.7,3-5.5,4.6
		c-2,1.8-2.6,3.8-2.3,6.4c0.9,7.8,1.7,15.6,2.5,23.4c0.6,6,2.5,11.6,4,17.4c0.2,0.6,0.1,1.4,1.3,1.7c0.4-1,0.1-2-0.1-3
		c-0.9-4.6-1.9-9.1-2.2-13.8c-0.5-7.2,0.5-14,3.4-20.6c2.3-5.3,5.1-10.4,8.8-14.8c1.6-2,3.4-3.8,5.9-5c0.3,1.7-0.4,3.1-0.6,4.5
		c-0.6,4-0.7,8.1-0.5,12.2c0.3,6.9,0.1,13.7-0.7,20.5c-0.8,6.8-3.5,12.6-8.7,17.1c-0.2,0.2-0.4,0.4-0.7,0.6c-4.4,2.8-4.2,7-3,11.1
		c3.9,12.6,8.7,24.9,14.4,36.8c0.4,0.9,0.8,2,1.8,2.6c1.1-1,0.4-2,0.1-2.8c-2.5-7.3-4.4-14.8-5.5-22.5c-2.1-14.5,0.7-28,7.9-40.7
		c0.2-0.3,0.4-0.7,1.1-0.9c0.2,2.3,0.5,4.6,0.7,6.9c0.5,6.6,1.8,13,2.8,19.4c1.1,7.2,1.8,14.4,1.6,21.7c-0.1,4.9-1,9.7-3,14.2
		c-3.3,7.4-1.9,14.2,2.2,20.7c2.4,3.9,5.1,7.6,7.7,11.3c4.4,6.2,8.7,12.6,12.1,19.5c0.2,0.4,0.3,1,0.9,1.1
		c0.4-5.2-1.1-11.5-3.5-15.8c-2-3.5-3.9-7.2-5.9-10.7c-5.1-8.9-7.1-18.7-8.1-28.7c-1.2-13.1,0.9-25.9,4.2-38.6
		c0-0.1,0.2-0.3,0.3-0.4c0.8,0.4,0.7,1.1,0.9,1.8c2.3,9,4.5,18.1,7.4,27c1.5,4.6,3.4,9.1,4.2,13.9c1.4,8.9,2.2,17.7,0.6,26.7
		c-1,5.7-0.4,11.5,1.7,17c1.6,4.2,2.9,8.5,3.7,12.9c0.6,3.1,2.4,5.6,3.8,8.3c0.7,1.4,1.1,2.7,0.4,4.4c-1.2-0.6-1.6-1.7-2.2-2.7
		c-3-4.6-7.6-7.5-11.7-11c-0.9-0.8-1.6-0.3-2.4,0.1c-5.4,2.7-11,4.8-16.8,6c-6.3,1.3-6.6,1.3-9.4-4.6c0-0.1-0.1-0.2-0.1-0.3
		c-1.6-6.7-5.7-11.6-10.9-15.9c-2.3-1.9-4.4-4-6.2-6.5c-1.6-2.2-1.4-2.9,1-3.7c7.1-2.1,14.3-2.8,21.6-1.3c2.4,0.5,4.3,2,6,3.7
		c5,4.9,9.2,10.5,13.3,16.1c2.1,2.8,2.1,2.9,6,3.7c0.4-0.2,0.1-0.5,0-0.7c-4.4-7.6-9-15-14.5-21.9c-0.8-1-1.7-2-2.5-3
		c-3.6-4.5-8.5-6.3-14.2-6.4c-3.5,0-7,0.3-10.4,0.8c-2.7,0.3-4.8-0.5-6.8-2.3c-9.1-8-16.6-17.5-22.8-27.8c-1.5-2.4-2.8-5-4.3-7.6
		c2.2-0.4,3.9,0.2,5.6,0.5c3.7,0.6,7.4,1.7,10.9,3c5.9,2.3,10.8,5.8,14.4,11.2c3.1,4.6,6.1,9.3,9,14.1c1.4,2.3,3.1,4.1,5.8,4.8
		c1.7,0.4,3.4,1.2,5,1.8c0.8,0.3,1.7,0.6,2.7,0.2c0.1-1.2-0.5-2.1-1-3c-2.1-4.5-4.4-8.9-7-13.2c-0.4-0.7-0.8-1.4-1.4-1.9
		c-3.5-3.5-7.2-6.9-11.1-10c-0.9-0.7-1.8-1.1-3-1c-4.4,0.5-7.9-1.5-11.1-4.3c-2.9-2.6-5-5.9-6.8-9.3c-2.8-5.4-4.9-11.1-6.9-16.8
		c-3.2-9.1-6.1-18.3-8.7-27.5c-0.2-0.7-0.6-1.5-0.3-2.4c2.4,1.2,4.5,2.7,6.5,4.3c6.8,5,13,10.6,17.6,17.7c3.8,5.8,5.8,12.4,8,18.9
		c0.5,1.5,1,3,1.3,4.6c1.1,6.2,4.7,11.1,8.5,15.8c0.8,1.1,1.7,2.3,3.3,2.4c0.5-1.5-0.5-2.7-1-3.9c-3.8-8.1-7.3-16.3-9.9-24.9
		c-1.5-5-2.9-10.1-4-15.3c-0.4-1.9-1.1-3.6-2.3-5.1c-2.1-2.8-4.2-5.6-6.6-8c-1.1-1.2-2.4-2-4.1-2.3c-7-1.1-11.6-5.4-14.4-11.7
		c-1.8-3.9-3-8-4.2-12.1c-2.8-9.1-5.5-18.2-8.2-27.4c-0.3-0.9-0.3-2-1.3-2.5C0.6,487.5,0.6,487.3,0.6,487.1z"/>
	<path d="M374.7,146.6c0.5,0.7,1.2,0.5,1.9,0.7c3.3,0.9,5.9,2.8,8.1,5.3c0.9-0.8,0.7-1.7,0.7-2.6c0-1.4,0.7-1.7,1.9-1.4
		c1.7,0.4,4.1-0.4,5.1,0.8c1.2,1.3,0.2,3.6,0.1,5.4c-0.1,2.2-0.4,4.3-0.5,6.5c0,1.2-0.5,1.6-1.6,1.5c-0.5-0.1-1-0.1-1.5-0.1
		c-2.6,0.1-4.5-0.6-5.9-3.2c-2.3-4.3-8-6.1-12.5-4.6c-1.3,0.4-2.4,1.1-3.2,2.1c-1.8,2.2-1.3,4.9,1.2,6.2c2.1,1.1,4.3,1.4,6.6,1.8
		c2.4,0.5,4.9,1,7.2,1.8c8,2.9,12,9.8,10.1,17.2c-1.9,7.5-9.5,12.3-17.4,11.2c-4.2-0.6-7.8-2.3-10.8-5.3c-0.3-0.4-0.7-0.7-1.1-1
		c-0.1,0-0.2,0-0.4,0c-0.2,1.3-0.4,2.6-0.6,4.1c-2,0.2-4-0.1-6-0.2c-1.2,0-1.7-0.4-1.6-1.8c0.4-4,0.7-8.1,0.9-12.2
		c0.1-1.2,0.5-1.6,1.6-1.4c0.5,0.1,1,0.1,1.5,0.1c3-0.2,4.9,0.6,6.4,3.7c2.3,5,8.9,7.1,14.1,5.2c2.6-0.9,4.1-2.9,4.2-5.2
		c0.1-2.4-1.2-4.1-4.1-5.3c-2.6-1-5.4-1.4-8.1-2c-2-0.4-4.1-0.9-6-1.8c-5.2-2.4-8.1-6.3-8.1-12.1c0-5.8,3.1-9.6,8.1-12.1
		c1.1-0.6,2.5-0.6,3.5-1.5C370.7,146.6,372.7,146.6,374.7,146.6z"/>
	<path d="M330.4,818.6c-0.2-0.6-0.8-0.5-1.2-0.7c-9.5-3-13.7-12-12.9-20.5c0.6-6.8,3.6-12.4,9.8-15.7c11.4-6.2,25.6,1.3,27.1,14.3
		c0.5,4.2,0.1,8.3-1.8,12.2c-2.2,4.5-5.5,7.7-10.2,9.5c-0.6,0.2-1.4,0-1.8,0.9C336.4,818.6,333.4,818.6,330.4,818.6z"/>
	<path d="M349,146.6c0.5,2.4,0.4,4.9,0.5,7.3c-0.3,0.2-0.4,0.4-0.5,0.4c-3,0.3-3,0.3-2.9,3.2c0.2,8.6,0.5,17.3,0.6,25.9
		c0,1.6,0.5,2.4,2.2,2.1c1.2-0.2,1.6,0.3,1.6,1.5c0,1.6,0.1,3.2,0.2,4.8c0.1,1-0.4,1.4-1.4,1.4c-4.7,0.1-9.4,0.3-14,0.5
		c-1.4,0.1-1.7-0.6-1.7-1.8c0-1.4,0-2.8-0.1-4.2c-0.1-1.2,0.3-1.9,1.7-1.7c1.8,0.3,2.1-0.7,2-2.2c-0.3-9-0.5-18.1-0.7-27.1
		c0-1.5-0.5-2.1-1.9-1.8c-1.7,0.3-2-0.7-2-2c0-0.2,0-0.4,0-0.6c0-1.6-0.8-3.6,0.2-4.6c1.1-1.1,3.2-0.4,4.8-0.5
		c2.8-0.7,5.7,0.3,8.5-0.5C347,146.6,348,146.6,349,146.6z"/>
	<path class="st1" d="M346,146.6c-2.8,1.1-5.6,0.7-8.5,0.5c0.1-0.2,0.1-0.3,0.1-0.5C340.4,146.6,343.2,146.6,346,146.6z"/>
	<path d="M190,607.7c-2.3-1.3-4.4-2.5-6.6-3.6c-1.1-0.6-1.1-1.6-1.4-2.5c-3-11-6-22-9-33c-1-3.6-2-7.3-3-10.9
		c-0.2-0.6-0.4-1.1-0.5-1.7c-0.2-0.8-0.8-0.8-1.4-0.7c-0.5,0.1-0.9,0.3-1,0.9c0,0.5-0.1,1-0.1,1.5c-0.4,16.8-0.9,33.6-1.4,50.3
		c-0.1,1.7,0.4,2.9,1.9,3.6c3.7,1.6,4.7,4.2,4.4,8.2c-0.6,8.2-0.6,16.5-0.9,24.7c-1,0.4-1.3-0.4-1.7-0.8
		c-9.3-8.5-17.7-17.8-25.6-27.5c-0.6-0.8-1.3-1.5-1.3-2.6c0-7,0-14.1,0-21.7c2.1,1.7,3.8,3,5.5,4.4c0.8-0.7,0.5-1.4,0.5-2
		c0.2-21.9,0.4-43.7,0.6-65.6c0-0.4,0-0.8,0-1.2c0.2-1.2-0.2-1.9-1.6-1.7c-1,0.1-2-0.1-3,0c-1.5,0.1-2.1-0.4-2.1-2
		c0.1-4.7,0-9.3,0-14c0-2.6,0.1-5.2,0-7.8c0-1.3,0.4-1.7,1.7-1.7c8.1,0,16.2,0.1,24.2,0c1.7,0,1.9,1,2.3,2.1
		c3.7,10.8,7,21.7,10.1,32.7c2.1,7.4,4.2,14.9,6.2,22.4c1.3-0.2,1.2-1.3,1.4-2c7-17.2,13.8-34.5,19.9-52c0.2-0.5,0.4-0.9,0.5-1.4
		c0.3-1.4,1.1-1.8,2.6-1.8c7.1,0.1,14.2,0,21.2,0c4.4,0,4.4,0,4.4-4.3c0-14.2,0-28.4,0-42.6c0-14.1,6.6-24.2,19.2-30.5
		c1.4-0.7,2-1.3,1.9-2.9c-0.2-2.1,0-4.2-0.2-6.3c-0.1-1.3,0.5-1.7,1.7-1.8c1.6-0.1,3.2-0.4,4.8-0.5c1.2-0.1,1.5-0.6,1.5-1.7
		c-0.1-3.1-0.1-6.2-0.2-9.2c-0.6-20.9-1.2-41.7-1.8-62.6c-0.4-12-0.7-24-1.1-36.2c-2.8,0.1-5.2,1.7-8.1,2c-0.1-0.5-0.1-0.8-0.2-1.2
		c-0.4-13.8-0.8-27.6-1.3-41.4c-0.1-2.2,0.7-3.1,2.6-3.9c15.2-6.8,30.8-12.5,47.3-15.5c5.3-1,10.6-1.7,15.9-2.6
		c1.7-0.3,2.7,0.2,3.6,1.7c5.8,9.9,11.6,19.7,17.5,29.5c0.8,1.3,1.2,2.6,1.2,4.2c0,18.6,0,37.2,0.2,55.7c0,2-0.5,3.6-1.4,5.3
		c-3.2,5.4-6.2,10.9-9.4,16.3c-0.8,1.4-1.1,2.7-0.7,4.5c3.8,16.4,7.6,32.9,11.3,49.3c0.4,1.7,1,2.4,2.7,2.1c0.6-0.1,1.2-0.1,1.8,0
		c1.5,0.1,3.3-0.7,4.3,0.4c0.9,1,0.3,2.8,0.3,4.3c0.1,2,0.1,4,0,6c0,1.1,0.4,1.4,1.4,1.4c4.5,0,9,0,13.5,0c1.1,0,1.4-0.4,1.4-1.4
		c0-3,0-6,0-8.9c0-1.3,0.3-1.8,1.7-1.7c1.4,0.1,2.8,0.1,4.2,0.1c2.3,0,2.3,0,2.3-2.2c0.1-5.6,0.1-11.1,0.1-16.7
		c0.1-19.6,0.1-39.1,0.2-58.7c0.1-12.9,0.2-25.8,0.3-38.7c0-2.3,0-2.4-2.4-2.5c-1.5-0.1-3-0.2-4.5-0.2c-1.2,0-1.7-0.4-1.7-1.7
		c0.1-7.8,0.1-15.7,0.1-23.5c0-8.1,0-16.3,0.1-24.4c0-2.2,0-2.2,2-2.1c12.1,0.6,24.1,1.6,36,3.8c14.8,2.8,28.8,7.7,42.6,13.6
		c2.2,0.9,4.4,2,6.6,2.8c1.3,0.5,1.7,1.3,1.7,2.7c-0.4,11.4-0.7,22.8-1.1,34.3c-0.2,6.1-0.4,12.1-0.6,18.2c0,0.6,0,1.2-0.4,1.9
		c-1.8-0.5-3.6-1-5.3-1.5c-6.5-1.8-13.1-3.5-19.7-4.8c-1.5-0.3-2-0.8-1.9-2.3c0.2-2.6,0.1-5.2,0.2-7.7c0.1-1.1-0.3-1.6-1.4-1.8
		c-7.1-1.3-14.3-2.6-21.2-3.9c-0.9,0.6-0.6,1.2-0.7,1.8c-0.1,8.4-0.3,16.9-0.4,25.3c0,2.5-0.5,2.3,2.4,2.7c6.4,1,12.8,1.9,19.2,3.2
		c2,0.4,4.7,0.2,5.9,1.6c1.2,1.4,0.3,4,0.3,6.1c-0.3,12.4-0.7,24.8-1.1,37.2c0,0.6,0.1,1.2-0.4,1.9c-8.8-0.9-17.8-1.9-26.9-2.8
		c-0.5,2.4-0.3,4.7-0.3,6.9c-0.3,9.9-0.5,19.9-0.5,29.8c0,2.6,0,2.6,2.5,2.7c6.1,0.2,12.2,0.4,18.2,0.7c1.5,0.1,2.1-0.3,2.1-1.9
		c-0.1-3.2,0.1-6.4,0.1-9.5c0.1-2.2,0.1-2.3,2.1-2c7.7,0.9,15.4,1.8,23.2,2.6c2,0.2,2.1,0.3,2,2.3c-0.3,6.5-0.6,13.1-1,19.6
		c-0.1,1.8,0.2,2.8,2,3.7c5.6,2.9,9.9,7.2,13.1,12.7c0.3,0.6,0.5,1.3,1.5,1.8c0.3-10.1,0.6-20,0.9-30c2.8-0.4,5.3,0.9,8,0.5
		c0.2-4.2,0.4-8.3,0.6-12.5c0.9-27.3,1.8-54.6,2.8-81.9c0.1-1.5-0.4-2.1-1.8-2.6c-1.7-0.5-3.3-1.4-5-1.9c-1.1-0.3-1.4-1-1.3-2
		c0.1-0.7,0-1.4,0.1-2.1c0.4-13,0.9-26,1.3-39c0.5-0.3,1-0.1,1.4,0.2c19.8,12.3,39.2,25.2,57.2,40.1c4.7,3.9,8.2,8.3,10.3,14.1
		c3,8.4,6.7,16.6,10.1,24.8c0.6,1.5,1,3,1,4.6c0,25.3,0,50.7,0.1,76c0,1.9-0.5,3.3-1.9,4.7c-6.3,6-12.4,12.1-17.8,18.9
		c-1.1,1.3-2.2,1.4-3.7,1.4c-18.9,0-37.7,0.1-56.6,0.1c-3.6,0-3.2-0.4-3.2,3.1c0,14.6-0.1,29.2,0,43.8c0.1,7.3-1.8,13.9-6.1,19.8
		c-0.7,1-0.9,1.9-0.9,3c0.3,6,0.5,11.9,0.7,17.9c0.1,2.4,0.1,2.5-2.3,2.8c-1.6,0.2-3.2,0.4-4.7,0.6c-2.1,0.3-2.1,0.3-2,2.3
		c0.8,26.9,1.5,53.8,2.3,80.7c0.3,10.3,0.6,20.7,0.9,31c0,0.7,0.1,1.4,0.1,2.1c1,0.1,1.8-0.3,2.6-0.6c4.6-1.6,9.2-3.2,13.8-4.8
		c3.3-1.2,3.3-1.2,3.2-4.7c-0.3-7.8-0.6-15.7-0.8-23.5c-0.1-2.5-0.1-2.5,2.3-3.3c6.6-2.1,13-4.9,19.6-8.2c0.2,3.1,0.4,5.9,0.5,8.8
		c0.8,18.1,1.5,36.1,2.3,54.2c0.1,1.6-0.4,2.5-1.7,3.4c-21.3,14.4-44.2,25.3-69.1,31.9c-0.6,0.2-1.1,0.4-1.9,0.2
		c-0.1-4.4-0.3-8.8-0.4-13.3c-0.3-9.8-0.5-19.7-0.8-29.5c-0.1-2.3,0-2.3,2.3-2.8c1.6-0.4,3.8-0.1,4.6-1.4c0.7-1.2,0.2-3.1,0.2-4.7
		c-0.7-30.4-1.3-60.8-2.1-91.2c-0.2-7.2-0.4-14.3-0.4-21.5c0-2.4-0.1-2.4-2.5-2.2c-4.6,0.5-4.5,0.5-4.7-4.1c-0.1-2.5-0.3-5-0.3-7.4
		c0-1.5-0.6-1.8-2-1.8c-5.6,0.1-11.2,0-16.8,0c-8.8,0-17.6,0-26.3,0c-2.3,0-2.3,0-2.3,2.3c0,3.8,0,7.6,0.1,11.3
		c0,2.4,0.1,2.4-2.5,2.5c-2.2,0.1-4.4,0.2-6.7,0.3c0,3.9,0,7.5,0,11.2c0.1,21.9,0.1,43.7,0.2,65.6c0.1,16.6,0.2,33.2,0.3,49.8
		c0,1.5,0.4,1.9,1.9,1.7c5.5-0.5,10.9-0.9,16.4-1.5c2.2-0.2,2.2-0.3,2.2-2.5c-0.1-9.8-0.2-19.7-0.4-29.5c0-1.4,0.4-2,1.7-2.1
		c7.1-0.8,14.2-2.2,21.4-3.4c0.6,3.6,0.5,7.2,0.5,10.7c0.5,21.4,0.9,42.7,1.3,64.1c0,0.5,0,1,0,1.5c0.3,1.6-0.5,2.2-2,2.5
		c-20.9,4.9-42,7.5-63.5,5.7c-3.2-0.3-6.4-0.5-9.5-0.7c-1.5,0-1.8-0.6-1.8-2c0.1-5.8,0.1-11.5,0.1-17.3c0.1-8.3,0.1-16.7,0.2-25
		c0-0.7,0.1-1.4,0.1-2.1c-0.1-1.4,0.3-2,1.9-1.8c1.3,0.2,2.6,0.2,3.9,0.3c1.3,0.2,1.7-0.5,1.7-1.7c0-5.3,0-10.5,0-15.8
		c0.1-16.7,0.1-33.4,0.2-50.1c0.1-18.1,0.2-36.2,0.4-54.2c0-0.7,0-1.4,0-2.1c0.1-1.1-0.4-1.6-1.5-1.6c-1.2,0-2.4-0.2-3.6-0.1
		c-1.5,0.1-2.1-0.5-2-2c0.1-4.1,0-8.1,0.1-12.2c0.1-1.7-0.5-2-2-2c-3.8,0.1-7.6,0.1-11.4,0c-1.5,0-1.9,0.5-1.9,1.9
		c0,7.3-0.1,14.5-0.2,21.8c0,0.7-0.1,1.4,0,2.1c0.1,1.5-0.5,1.9-1.9,1.8c-5-0.4-10-0.6-14.9-1c-0.5,0-1-0.1-1.5-0.2
		c-1.4-0.3-3.3,0.5-4.2-0.7c-0.9-1.1-0.1-2.9-0.2-4.4c-0.1-1.7,0-3.4,0.1-5.1c0.1-1.2-0.3-1.8-1.6-1.9c-5.9-0.4-11.7-0.9-17.7-1.3
		c-0.6,2-0.3,4-0.4,5.9c-0.2,8.6-0.4,17.3-0.6,25.9c0,2.2-0.1,2.3,2.1,2.5c6.4,0.7,12.9,1.4,19.3,1.9c1.5,0.1,2,0.6,2,2.1
		c-0.3,15.6-0.6,31.2-0.8,46.8c0,0.2-0.1,0.4-0.3,0.9c-7.7-1.3-15.4-2.6-23.1-3.9c-0.8,0.8-0.5,1.9-0.5,2.8
		c-0.3,10.7-0.6,21.4-0.8,32.2c-0.1,2.3,0,2.3,2.4,2.8c5.1,1.1,10.1,2.2,15.2,3.3c0.8,0.2,1.6,0.4,2.8,0.1c0-3.5,0-7,0-10.6
		c0-0.3,0-0.6,0-0.9c0.1-3.2,0-3.2,3.1-2.8c6.1,0.8,12.2,1.6,18.4,2.3c2.2,0.2,2.3,0.1,2.2,2.5c-0.1,9.5-0.3,19.1-0.4,28.6
		c-0.1,9.6-0.2,19.3-0.3,28.9c0,0.6,0,1.2,0,1.8c0,1.2-0.6,1.4-1.7,1.3c-11.1-1.7-22.2-3.6-33.1-6.7c-13.5-3.8-26.2-9.4-38.8-15.3
		c-1.1-0.5-1.6-1.2-1.6-2.5c0.6-12.9,1.2-25.8,1.7-38.7c0-0.1,0.1-0.2,0.2-0.4c2.2,0.1,4,1.5,6.3,1.8c0.6-1,0.4-2.2,0.5-3.4
		c0.5-15.6,0.9-31.2,1.4-46.8c0.6-18.3,1.2-36.5,1.7-54.8c0.1-2.9,0-5.8,0.1-8.6c0-1.1-0.3-1.7-1.4-1.7c-0.7-0.1-1.4-0.2-2.1-0.3
		c-3.8-0.3-3.2-0.2-3.1-3.7c0.1-3.3,0.3-6.5,0.4-9.8c0.1-1.1,0-2-1.1-2.8c-5.3-3.7-9.1-8.6-11.4-14.6c-0.1-0.3-0.3-0.5-0.8-0.4
		c0,5.2,0,10.4,0,15.6c0,3.4,0,6.8,0,10.1c0,2,0,2-2.2,2.1c-1.9,0-3.8,0.1-5.7,0c-1.4-0.1-1.9,0.4-1.9,1.9c-0.1,3.7-0.3,7.3-0.4,11
		c-0.7,20.6-1.4,41.3-2.1,61.9c-0.3,9.3-0.7,18.7-1,28c-0.1,3.3,0,2.6,2.3,3.7c1.4,0.7,3.5,0.6,4.1,2.1c0.5,1.3,0.1,2.9,0.1,4.4
		c-0.5,12.1-0.9,24.2-1.4,36.3c-0.8,0.5-1.4-0.2-1.9-0.5c-10.5-5.7-20.3-12.3-29.7-19.4c-1-0.8-1.6-1.5-1.5-2.9
		c0.5-10.2,0.9-20.4,1.3-30.7c0-0.9-0.1-1.8,0.6-2.8c2,1,4,2.1,6.1,3.2c0.6-0.8,0.4-1.6,0.5-2.3c0.6-15.3,1.1-30.6,1.7-45.9
		c0.3-5.9,0.9-11.9,1.4-17.8c0.1-1,0.2-2,0.3-3c0.1-0.7,0-1.4-1-1.6c-0.8-0.2-1.3,0.1-1.6,0.9c-0.2,0.6-0.4,1.1-0.6,1.7
		c-4.9,12.6-9.7,25.2-14.6,37.8C190.8,605.9,190.5,606.7,190,607.7z"/>
	<path d="M239.4,267c0.4,15,0.9,29.9,1.3,44.8c0.1,2.3,0.1,4.6,0.2,6.8c0,0.8-0.1,1.3-0.9,1.6c-9.2,3.3-17.9,7.7-27.2,11.9
		c-0.5-3.8-0.2-7.4-0.5-11c-1-0.3-1.6,0.4-2.3,0.7c-5.8,3.1-11.5,6.3-17.4,9.3c-1.7,0.9-2.1,1.9-2.1,3.7c0.3,7.4,0.5,14.9,0.7,22.3
		c0,0.7,0.1,1.4,0.2,2.4c8.1-3.3,16.1-6.6,23.8-9.8c0.6,0.6,0.6,1,0.6,1.3c0.4,11,0.8,22,1.2,33c0.1,2.7,0.1,2.7-2.5,3.3
		c-6.6,1.6-13.1,3.2-19.7,4.9c-2.4,0.6-2.4,0.6-2.4,3.1c0.2,7.9,0.4,15.9,0.6,23.8c0,0.5-0.1,1,0.4,1.5c1.7-0.2,3.6-0.4,5.5-0.6
		c1.3-0.2,1.9,0.3,1.8,1.6c0,0.4,0,0.8,0,1.2c0.3,8.8,0.6,17.7,0.9,26.5c0.1,2.3,0.1,2.3-2.2,2.3c-12.5,0-24.9,0-37.4,0
		c-2.3,0-2.3,0-2.3-2.3c0-7,0-13.9,0-20.9c0-2.1,0-2.1,2.3-2.5c1.4-0.2,2.7-0.5,4.1-0.7c0.9-0.1,1.4-0.6,1.4-1.6c0-0.4,0-0.8,0-1.2
		c0-24.3,0-48.7,0-73c0-0.7,0.2-1.4-0.4-2.3c-2.3,1.6-4.6,3.3-6.9,4.9c-0.8-0.8-0.5-1.7-0.5-2.4c0-8.1,0-16.3-0.1-24.4
		c0-1.9,0.6-3.1,1.9-4.4c15.3-14.4,31.9-26.9,49.8-37.9c8.5-5.2,17-10.3,25.5-15.5C237.8,267.4,238.3,266.9,239.4,267z"/>
	<path d="M510.1,585.3c0-18,0-35.9,0-53.9c0-1.9,0.3-3.7,1.2-5.4c3.9-7.9,7.9-15.8,12-23.6c0.9-1.6,1.9-2.2,3.7-2.2
		c9.4,0.1,18.7,0.1,28.1,0c1.6,0,2.5,0.4,3.5,1.7c4.1,5.7,8.4,11.1,13.1,16.2c1,1,1.2,2.1,1.2,3.5c0,8.1,0,16.3,0,24.4
		c0,16.3,0,32.6,0,48.9c0,1.6-0.2,3.1-0.7,4.7c-2.8,8.7-5.5,17.4-8.2,26.1c-0.4,1.3-0.9,2.3-1.9,3.3c-10.4,9.6-20.7,19.2-31.5,28.3
		c-2.1,1.8-1.6,2-3.8,0c-4.5-4-9.3-7.5-13.6-11.7c-2-2-2.9-4.1-2.9-7.1c0.1-17.8,0.1-35.5,0.1-53.3
		C510.3,585.3,510.2,585.3,510.1,585.3z"/>
	<path d="M147,699.8c-1-0.9-1.8-1.6-2.9-2.5c1.5-2.2,3.1-4.3,5-6.3c4.1,3.3,8.2,6.5,12.2,9.7c1,0.8,0.9,1.7,0.7,2.7
		c-1.3,7.4-2.5,14.9-3.8,22.3c-0.9,5.1-1.7,10.2-2.6,15.3c-0.1,0.7-0.3,1.4,0.1,2.4c6-7.5,11.9-14.8,17.7-22.1
		c-0.1-0.2-0.1-0.5-0.2-0.6c-2.6-2.3-2.6-2.3-0.4-5.1c0.9-1.1,1.7-2.2,2.7-3.4c4.2,3.3,8.2,6.5,12.2,9.7c0.9,0.7,0.7,1.2,0.1,2
		c-1,1.2-2.1,2.4-3,3.7c-0.9,1.4-1.8,1.3-2.8,0.2c-0.3-0.4-0.8-0.6-1.5-1.1c-8.5,10.6-17,21.2-25.6,32c-3.3-2.6-6.5-5.2-9.7-7.7
		c-1.3-1-0.7-2.2-0.5-3.3c0.8-5.1,1.7-10.2,2.6-15.3c1.3-7.6,2.6-15.2,3.9-22.9c-1.2,0.2-1.5,1.1-2,1.8c-4.7,5.9-9.5,11.8-14.2,17.7
		c-1.6,2-1.6,2,0.4,3.8c0.2,0.2,0.4,0.4,0.7,0.8c-1.6,2-3.2,4-4.9,6.2c-4.4-3.5-8.7-6.9-13-10.3c1.3-2.3,3.2-4.1,4.6-6.1
		c1.5,0.1,2,1.5,3.6,1.9C133.3,716.8,140.1,708.3,147,699.8z"/>
	<path d="M580.5,244c1.7-1.6,3.5-3.2,5.4-5c2.6,2.8,5.2,5.5,7.8,8.3c3.3,3.5,3.3,3.5,1.7,8.2c-3.3,10-6.6,20-9.9,29.9
		c-0.3,1-1,2-0.6,3.5c6.7-6.2,13.2-12.2,19.8-18.3c-0.9-1-1.6-1.8-2.4-2.7c1.6-2,3.5-3.5,5.5-5.3c3.4,3.6,6.7,7.2,10,10.7
		c0.7,0.8,0.6,1.3-0.1,2c-1.5,1.3-2.9,2.7-4.3,4c-0.3-0.1-0.6-0.1-0.7-0.3c-2.2-2.1-2.2-2.1-4.3-0.1c-8.7,8-17.4,16.1-26.4,24.3
		c-2.7-2.9-5.4-5.8-8.1-8.7c-0.8-0.9-0.3-1.6,0-2.5c2.8-8.5,5.6-17,8.3-25.5c1.1-3.3,2.1-6.6,3.2-10c-1.3,0.4-1.8,1.2-2.5,1.9
		c-5.1,4.7-10.2,9.4-15.3,14.2c-1.9,1.7-1.8,1.7-0.2,3.6c0.2,0.2,0.4,0.5,0.7,0.9c-1.8,1.7-3.6,3.3-5.5,5.1
		c-3.5-3.7-6.8-7.3-10.1-10.8c-0.7-0.7-0.4-1.2,0.2-1.7c1-0.9,2-1.9,3.1-2.8c1.4-1.2,1.4-1.9,3,0c0.3,0.4,0.7,0.7,1,1
		c0.8-0.2,1.3-0.8,1.8-1.2c6.4-5.9,12.9-11.9,19.3-17.8c1.9-1.7,1.9-1.8,0.2-3.8C580.8,244.7,580.7,244.4,580.5,244z"/>
	<path d="M435.8,197.1c1.3,0.4,2.3,0.7,3.5,1.1c-0.6,2.4-1.1,4.7-1.7,7.3c-3.7-0.8-7.3-1.6-10.8-2.4c-0.1,0-0.2,0-0.3-0.1
		c-1.7-0.6-4.1-0.1-4.9-1.6c-0.8-1.4,0.5-3.4,0.9-5.1c0.1-0.6,0.1-1.2,0.5-1.7c3.5,0.4,3.5,0.4,4.3-3.4c0.5-2.2,0.9-4.5,1.5-6.7
		c0.3-1.1,0.2-1.7-1-1.9c-4.6-1-9.1-2.1-13.7-3.1c-1-0.2-1.5,0.1-1.7,1.1c-0.6,3-1.2,6-2,9c-0.4,1.4-0.1,2.1,1.3,2.2
		c1.7,0.1,1.9,0.9,1.4,2.4c-0.6,1.7-0.2,4.1-1.5,5c-1.3,0.9-3.4-0.4-5.1-0.7c-3.3-0.7-6.6-1.5-9.9-2.2c-1-0.2-1.3-0.7-1.1-1.6
		c0.5-2,0.7-4.1,1.5-6c3.6,0.5,3.6,0.5,4.4-3c1.9-8.3,3.7-16.7,5.7-25c0.3-1.4,0.2-2.1-1.3-2.2c-1.4-0.1-2.1-0.7-1.5-2.3
		c0.6-1.7,0.2-4.1,1.5-5c1.3-0.9,3.4,0.4,5.1,0.7c3.1,0.7,6.2,1.3,9.3,2.1c1.8,0.4,2,0.6,1.5,2.4c-0.4,1.7-0.6,3.5-1.3,5.1
		c-3.6-0.3-3.6-0.3-4.4,3.4c-0.4,1.6-0.7,3.3-1.1,4.9c-0.4,1.3-0.1,2,1.3,2.3c4.4,0.9,8.7,2,13.1,3c1.1,0.3,1.6-0.1,1.8-1.2
		c0.6-3,1.4-6,2.1-9c-1.2-0.4-2.2-0.7-3.2-1c-0.1-0.3-0.3-0.5-0.2-0.6c0.7-2.1,0.1-5.2,2-6.3c1.7-1,4.2,0.6,6.3,1.1
		c2.6,0.5,5.3,1.2,7.9,1.8c1.9,0.4,1.9,0.5,1.5,2.4c-0.4,1.7-0.9,3.4-1.3,5.1c-3.6-0.3-3.6-0.3-4.4,3.1
		C439.9,179.3,437.9,188.1,435.8,197.1z"/>
	<path d="M277.5,176.7c7.5,1.9,10.9,6.5,10.5,13.7c-0.2,3.5-1.8,6.2-4.4,8.5c-2.1,1.8-4.5,2.9-7.1,3.6c-7.3,2-14.6,3.9-21.9,5.9
		c-2.1,0.6-2.1,0.5-2.8-1.7c-0.1-0.5-0.3-0.9-0.4-1.4c-0.9-3.5-0.9-3.5,2.4-4.9c-2.7-9.9-5.4-19.8-8-29.7c-3.5,0.6-3.5,0.6-4.3-2.5
		c-1.2-4.2-1.2-4.2,3.1-5.3c6.7-1.8,13.5-3.6,20.2-5.2c3.2-0.8,6.5-0.9,9.6,0.8c4.6,2.6,6.6,6.7,6.5,11.9c0,1.5-0.7,2.9-1.6,4.1
		C278.8,175.1,278.2,175.8,277.5,176.7z"/>
	<path d="M502.3,190.4c-3-2.1-3-2.1-1.2-5.1c0.7-1.1,1.3-2.2,2-3.2c0.9,0,1.4,0.4,2,0.8c5.4,3.1,10.9,6.3,16.3,9.4
		c1.8,1,3.5,2.2,5.1,3.7c5.9,5.5,8.2,12.1,6.2,20c-1.6,6.3-4.9,11.7-9.8,16c-5.7,4.9-12.2,6-19.2,3.3c-1.4-0.5-2.8-1.2-4-1.9
		c-6-3.4-11.9-6.8-17.9-10.3c-1.8-1.1-1.8-1.1-0.8-2.9c0.4-0.8,0.9-1.6,1.3-2.3c1.3-2.2,1.3-2.3,3.6-1.2c1.2,0.5,1.4-0.2,1.8-0.9
		c1.5-2.7,3.1-5.3,4.6-8C495.5,202.1,498.9,196.3,502.3,190.4z"/>
	<path d="M252.1,773.6c-3.2-1.6-3.2-1.6-1.9-5c1.3-3.3,1.3-3.3,4.4-2c3.2,1.2,6.3,2.5,9.5,3.6c1.1,0.4,1.4,0.9,0.9,2
		c-0.5,1.1-0.9,2.2-1.3,3.3c-0.5,1.4-0.9,2.4-2.7,1.4c-1.3-0.8-1.8,0.3-2.3,1.1c-3.5,4.8-7,9.6-10.6,14.4c-1.8,2.5-3.7,4.9-5.4,7.5
		c-0.9,1.4-1.8,1.4-3.2,0.8c-1.7-0.8-3.5-1.4-5.3-2.1c-2.1-0.8-2-0.8-1.7-3c1-7.6,2.1-15.3,3.1-23c-1.2,0.6-1.6,1.7-2.2,2.5
		c-3.8,5.6-7.6,11.2-11.3,16.8c-0.8,1.2-1.5,1.6-2.9,1c-1.9-0.9-3.8-1.6-5.8-2.3c-1.4-0.5-1.8-1.2-1.7-2.6c0.6-5,1-10.1,1.5-15.1
		c0.4-4.1,0.8-8.3,1.4-12.4c0.1-1.1-0.2-1.7-1.2-2c-1.6-0.3-1.5-1.2-0.9-2.4c0.8-1.6,1.1-3.4,2.2-5c4.2,1.6,8.4,3.3,12.6,4.8
		c1,0.4,1.1,1,0.7,1.8c-0.3,0.7-0.6,1.5-0.9,2.2c-1.2,3.2-1.2,3.2-4.8,2.1c-1,6.8-1.9,13.6-2.9,20.3c0.2,0.1,0.4,0.1,0.6,0.2
		c0.5-0.8,1-1.6,1.6-2.4c4.2-6.5,8.5-12.9,12.7-19.5c0.9-1.3,1.6-1.7,3.1-1c1.6,0.8,3.3,1.5,5,2c1.8,0.5,2.1,1.4,1.8,3
		c-0.9,5.5-1.8,11-2.7,16.4c-0.5,3-0.9,6-1,9.2C244.4,784.9,248.2,779.3,252.1,773.6z"/>
	<path d="M475.4,745.7c-0.7-1.8-1.2-3.2-1.8-4.8c2.3-1,4.5-1.9,6.7-2.9c1-0.5,1.4-0.1,1.8,0.8c1.9,4.4,3.7,8.8,5.7,13.1
		c0.4,0.9,0.2,1.4-0.8,1.8c-1.9,0.7-3.7,1.5-5.5,2.4c-1.1,0.6-1.8,0.3-2.6-0.5c-2.6-2.5-5.7-3.9-9.4-3.9c-7,0.1-12.3,5.6-11.8,12.6
		c0.4,5.9,2.5,11.2,6.2,15.8c3.8,4.7,8.8,6.3,13.8,4.5c5.1-1.9,7.9-5.6,8.1-11c0.1-2.2,0.7-3.4,2.9-4.1c2.2-0.7,4.2-1.7,6.3-2.6
		c2.2,11.8-2.7,20.1-11.1,24.5c-9.8,5.2-20.1,4-27.4-3.7c-7.3-7.7-10.6-17-8.5-27.6c1.7-8.9,9.5-15.6,18.6-16.4
		C469.5,743.3,472.3,744.3,475.4,745.7z"/>
	<path d="M485.9,190c-0.9-0.3-1.4-0.4-2-0.7c-1.6-0.7-3.9-1-4.8-2.2c-1-1.4,0.8-3.2,1.4-4.9c0.4-1.2,0.1-1.8-1-2.2
		c-3.5-1.3-7.1-2.7-10.6-4.1c-1.1-0.4-1.6-0.2-2,0.9c-1.1,2.9-2.2,5.7-3.4,8.8c4.6,1.8,9,3.5,13.5,5.3c-0.9,2.4-1.6,4.6-2.8,6.7
		c-2.3-0.1-4.3-1.4-6.4-2.1c-1.9-0.7-3.7-1.4-5.6-2.2c-1.1-0.5-1.7-0.6-2.2,0.8c-1.1,3-2.2,5.9-3.5,8.9c-0.4,1-0.2,1.4,0.7,1.8
		c3.9,1.5,7.8,3,11.7,4.5c0.9,0.4,1.3,0,1.5-0.8c0.6-1.6,1.2-3.1,1.8-4.7c0.3-0.8,0.7-1.4,1.7-0.9c2.1,0.9,4.2,1.7,6.5,2.6
		c-1.9,4.8-3.7,9.5-5.6,14.3c-5.3-2.1-10.4-4.1-15.5-6.1c-5.6-2.2-11.1-4.3-16.7-6.5c-2-0.8-2-0.8-1.3-2.7c0.6-1.7,1.3-3.3,1.9-4.9
		c0.4-0.1,0.6-0.1,0.7-0.1c2.9,1.1,2.9,1.1,4.1-1.8c3.1-7.9,6.2-15.9,9.4-23.8c0.8-2.1,0.8-2.2-1.1-3c-1.4-0.5-1.3-1.2-0.9-2.3
		c0.5-1.1,0.9-2.2,1.3-3.3c0.9-2.1,0.9-2.1,2.9-1.3c6,2.3,12.1,4.7,18.1,7c3.8,1.5,7.6,3,11.4,4.4c1.3,0.5,1.6,1.1,1.1,2.4
		C489,182.1,487.5,185.9,485.9,190z"/>
	<path d="M108.6,244.9c3.6,3.3,7.1,6.5,10.8,9.9c-1.8,1.9-3.4,3.7-5.3,5.8c-1.4-1.2-2.7-2.4-3.9-3.6c-0.7-0.7-1.3-1-2.2-0.1
		c-2.7,3-5.4,5.9-8.1,8.7c-0.6,0.7-0.5,1.2,0.1,1.7c2.1,1.9,4.1,3.7,6.1,5.7c0.9,0.9,1.5,0.5,2.2-0.2c2.2-2.4,4.5-4.8,6.7-7.2
		c0.7-0.7,1.3-1.5,2-2.3c2.1,1.8,4,3.4,5.7,5.3c-3.2,3.5-6.4,6.9-9.8,10.6c3,2.8,6,5.5,9.2,8.5c3.2-3.4,6.3-6.8,9.4-10.1
		c0.6-0.7,0.5-1.2-0.1-1.7c-1.5-1.4-3.1-2.8-4.7-4.3c1.7-2.2,3.6-4.1,5.6-6.1c3.8,3.5,7.5,6.9,11.3,10.4c-1.7,1.8-3.2,3.5-4.8,5.2
		c-6.2,6.7-12.4,13.4-18.7,20.1c-1.5,1.6-1.5,1.5-3,0.2c-0.5-0.5-1-0.9-1.5-1.4c-2.5-2.3-2.5-2.3-0.1-5.2
		c-7.6-6.9-15.1-13.9-22.7-20.8c-1.3,0.4-1.6,1.8-3,2.2c-1.7-1.5-3.4-3.1-5.4-5C92.5,262.3,100.5,253.7,108.6,244.9z"/>
	<path d="M141.2,222.2c-0.8-1-1.5-2-2.3-3c0.1-0.2,0.2-0.4,0.3-0.5c1.7-1.4,3.2-3,5.1-4.1c1.8,1.2,2.9,3.2,4.3,4.8
		c1.6,1.8,3,3.7,4.6,5.6c-1.6,1.3-3.2,2.5-4.6,3.9c-1.1,1-2.1,0.2-3-0.1c-4.7-1.5-8.6-0.1-12,3.3c-1.3,1.3-2.1,2.9-2.2,4.8
		c-0.2,3.4,2.4,5.4,5.6,4.4c1.6-0.5,3-1.5,4.5-2.4c2-1.2,4-2.5,6.1-3.7c1.8-1,3.8-1.8,5.9-2.1c5.8-0.8,10.7,0.7,14.1,5.7
		c3.4,5.1,3.7,10.5,0.7,15.8c-3.2,5.7-8.2,8.7-14.8,9c-1,0-2,0-3.1,0c0.4,1.6,1.8,2.3,2.5,3.8c-1.8,1.7-3.7,3.3-5.9,4.8
		c-3-3.6-5.9-7.2-8.8-10.7c-0.8-0.9-0.7-1.5,0.2-2.2c0.4-0.3,0.8-0.6,1.2-0.9c2.1-2.2,4-2.9,7.2-1.6c5.3,2,11.6-1.2,13.9-6.3
		c1-2.2,1-4.4-0.7-6.4c-1.6-1.8-3.6-2.1-6.3-1c-2.3,0.9-4.2,2.2-6.2,3.5c-2.2,1.4-4.4,2.8-6.8,3.6c-5.2,1.7-10.1,1.1-14.1-3
		c-4-4.1-4.7-9-2.7-14.3c2.3-6,8.6-10.4,15-10.4C139.5,222.4,140.3,222.7,141.2,222.2z"/>
	<path d="M400.8,789.4c3.2-4.5,6-8.3,8.7-12.2c1.4-2,2.8-3.4,5.4-3.5c1.5-0.1,2.9-0.5,4.4-0.8c0.9,2,0.9,4.1,1.4,6.1
		c0.2,0.7-0.3,1.2-0.9,1.2c-2.5-0.1-3.6,1.8-4.8,3.4c-0.9,1.3-2.7,2.3-2.5,3.8c0.1,1.5,1.9,2.5,2.9,3.6c2.8,3.1,5.6,6.2,8.4,9.3
		c0.9,1,1.7,1.9,3.3,1.4c0.9-0.3,1.4,0.1,1.6,1.1c0.3,1.8,0.7,3.7,1.1,5.7c-2.6,0.5-5,1-7.4,1.5c-1.2,0.3-1.8-0.5-2.5-1.3
		c-3.7-4.2-7.4-8.3-11.1-12.5c-0.5-0.6-1.1-1.1-1.8-1.9c-1.1,1.3-2.1,2.6-3.1,3.7c-0.9,1-1.2,2-0.8,3.3c0.2,0.6,0.2,1.2,0.4,1.7
		c0.2,0.9,0.2,1.9,0.7,2.5c0.6,0.7,1.7,0.1,2.5-0.1c0.8-0.2,1.1,0.2,1.3,0.8c0.1,0.2,0.1,0.4,0.1,0.6c1.4,5.6,1.4,5.6-4.4,6.6
		c-2.9,0.5-5.9,1.1-8.8,1.7c-1.1,0.2-1.7,0.1-1.8-1.2c-0.1-1.2-0.3-2.4-0.7-3.5c-0.5-1.5-0.5-2.5,1.4-2.7c1.2-0.1,0.9-1,0.7-1.8
		c-1.1-5.8-2.2-11.7-3.3-17.6c-0.9-4.9-1.9-9.7-2.8-14.6c-0.3-1.5-0.5-2.6-2.4-2c-1.4,0.5-1.8-0.4-1.8-1.5c-0.1-1.8-1.5-3.7-0.5-5.1
		c0.9-1.2,3.1-0.8,4.8-1.2c1.7-0.4,3.3-0.7,5-1c2-0.4,2.1-0.4,2.5,1.7c1.3,6.5,2.5,13.1,3.7,19.6C400.1,786,400.4,787.3,400.8,789.4
		z"/>
	<path d="M245.7,203.1c0.9,2,1.7,3.8,2.6,5.6c0.5,1.1,0.2,1.6-0.8,2c-2.4,1-4.7,2.1-7.1,3.2c-1,0.4-1.6,0.3-2.3-0.5
		c-1.6-1.9-3.3-3.7-4.9-5.7c-0.7-0.9-1.4-1.1-2.5-0.6c-4,1.8-8,3.6-12,5.3c-1.1,0.5-1.5,1.1-1.3,2.3c0.4,2.3,0.6,4.7,1,7.1
		c0.2,1.3-0.1,2-1.4,2.5c-2.4,0.9-4.7,2.1-7.1,3.2c-0.9,0.4-1.5,0.4-1.8-0.6c-0.4-1-0.9-2-1.3-3c-0.3-0.8-0.9-1.7-0.9-2.5
		c0-1.1,1.3-1,2.1-1.4c0.8-0.4,0.8-1,0.7-1.8c-0.8-8-1.6-16-2.4-24c-0.5-4.5-0.9-9.1-1.4-13.6c-0.1-1.3,0.2-2,1.5-2.5
		c2.4-1,4.8-2,7.1-3.2c1.2-0.6,2-0.3,2.8,0.6c3.6,4,7.2,7.9,10.8,11.9c4.3,4.7,8.6,9.3,12.9,14.1C241.5,203.5,243,205.3,245.7,203.1
		z"/>
	<path d="M189.4,207c-1.6-2.7-3.2-5.1-4.6-7.6c-0.6-1.1-1.3-1.4-2.3-0.6c-1.1,0.8-2.5,1.3-3.5,2.4c5,8.1,10,16.2,15,24.3
		c0.4,0.6,0.7,1.2,1,1.5c0.5,0.4,0.8,0.2,1,0.1c2.9-1.7,2.9-1.7,4.6,1c2.3,3.8,2.3,3.8-1.6,6.2c-3.4,2.1-6.8,4.1-10.2,6.2
		c-1.1,0.7-1.7,0.6-2.3-0.6c-0.9-1.7-1.9-3.2-2.9-4.8c0.7-1.4,2.4-1.4,3.1-2.6c-1.4-2.7-14.5-24.1-16.1-26.1c-0.2-0.2-0.3-0.1-0.5,0
		c-1.4,0.9-3.6,1.4-4,2.8c-0.4,1.5,1.4,2.9,2.2,4.3c0.8,1.6,2.8,3,2.3,4.6c-0.4,1.3-2.6,1.9-4,2.8c-0.6,0.4-1.2,0.7-2.1,1.2
		c-1.4-2.3-2.8-4.5-4.2-6.8c-1.4-2.3-2.8-4.6-4.2-6.8c-1.1-1.8-1.5-1.7,0.8-3.1c6.1-3.7,12.2-7.5,18.4-11.2
		c3.7-2.3,7.5-4.5,11.3-6.9c1.9,2.3,3.2,4.9,4.7,7.3c1.4,2.3,2.8,4.6,4.2,6.8c0.6,1,0.6,1.5-0.5,2.1
		C193.1,204.7,191.5,205.8,189.4,207z"/>
	<path d="M555.4,698.7c1,1.2,1.9,2.2,2.8,3.3c1.6,1.9,1.7,2,0.1,3.8c-0.7,0.8-0.3,1.4,0,2.2c1.8,4.4,3.5,8.9,5.3,13.3
		c3,7.5,5.8,15,8.9,22.4c1.3,3.1,0.7,5.6-1.6,7.8c-1.7,1.7-3.6,3.2-5.5,4.6c-1.1,0.8-1.8,0.9-2.7-0.2c-1.1-1.5-2.4-2.9-3.8-4.5
		c1-0.9,2-1.7,3-2.6c2.8-2.4,2.5-5.8-0.8-7.7c-2.9-1.7-5.9-3.2-8.9-4.9c-5.5-3-11-6-16.5-9c-1-0.6-1.9-1-2.9,0.1
		c-0.7,0.9-1.4,0.9-2.1-0.1c-1.1-1.5-3.3-2.7-3.3-4.4c0-1.6,2.4-2.5,3.7-3.6c2.5-2.2,5-4.2,7.7-6.5c1.6,1.9,3.2,3.7,4.9,5.7
		c-0.9,0.6-1.6,1.1-2.7,1.9c5.8,3.4,11.1,6.5,17.2,10c-2.6-6.3-4.9-11.9-7.2-17.5c-0.3,0-0.6-0.1-0.7-0.1c-2.1,1.4-2.1,1.4-3.6-0.4
		c-1-1.1-1.9-2.3-3-3.6C547.6,705.3,551.4,702,555.4,698.7z"/>
	<path d="M181.5,755.2c-2.6,4.6-2.1,9.3,1.5,12.1c2.8,2.1,5.8,2.8,8.9,0.7c1.3-0.9,2.3-0.7,3.5,0c2,1.3,4.1,2.4,6.4,3.7
		c-2.9,3.6-6.7,5.3-11.1,5.5c-7.3,0.4-16.9-4.3-19.2-14c-2.6-10.9,5.9-23.6,17-25c10.1-1.3,22.1,6.7,19.6,21.1
		c-0.4,2.6-1.5,4.9-2.6,7.3c-0.7,1.4-1.3,1.3-2.5,0.6c-6.3-3.6-12.6-7.2-18.9-10.8C183.3,756,182.5,755.3,181.5,755.2z"/>
	<path d="M299.1,783.1c1-0.4,1.3-1.4,1.9-2.2c3-4.2,6-8.4,8.9-12.7c0.7-1,1.4-1.4,2.7-1.1c2.8,0.6,5.7,0.9,8.8,1.4
		c-0.4,2.3-0.8,4.4-1,6.5c-0.1,1.1-0.6,1.5-1.6,1.2c-1.9-0.6-2.9,0.5-3.9,1.9c-3.7,5.1-7.5,10.1-11.3,15c-0.9,1.2-1.5,2.5-1.8,4
		c-0.4,2.6-0.7,5.1-1.2,7.6c-0.3,1.4,0.1,1.9,1.5,2.2c2,0.4,2,0.5,1.7,2.5c-0.2,1.5-0.5,2.9-0.7,4.4c-0.1,1-0.6,1.3-1.6,1.2
		c-5-0.8-10-1.6-15-2.4c-0.9-0.1-1.1-0.6-1-1.4c0.2-1.4,0.4-2.7,0.6-4.1c0.4-2.3,0.4-2.4,2.9-2.2c1,0.1,1.5-0.2,1.6-1.2
		c0.5-3.2,1-6.5,1.5-9.7c0.1-0.9-0.2-1.7-0.5-2.6c-2-6.1-4-12.2-6-18.4c-0.5-1.5-1-2.5-2.7-2.5c-1.3,0-1.7-0.6-1.4-1.9
		c0.4-1.4,0.7-2.9,0.8-4.4c0.1-1.8,1-1.9,2.3-1.6c2.2,0.4,4.3,0.9,6.5,1c1.6,0.1,2.2,0.9,2.6,2.3c1.5,5.2,3.1,10.4,4.7,15.7
		C298.6,782.1,298.5,782.8,299.1,783.1z"/>
	<path d="M294.3,190.5c3.5-0.8,3.5-0.8,3-4.5c-1.1-8.4-2.2-16.7-3.2-25.1c-0.2-1.5-0.6-2.2-2.2-1.8c-1.3,0.3-1.8-0.2-1.9-1.5
		c-0.1-1.8-1-3.8-0.5-5.3c0.7-1.8,3.2-0.9,4.9-1.2c3.3-0.6,6.7-0.9,10.1-1.4c1-0.2,1.5,0.1,1.6,1.1c0.2,1.8,0.5,3.5,0.7,5.3
		c0.2,1.3-0.9,1.1-1.6,1.2c-1.7,0-1.9,0.9-1.7,2.3c1.2,9,2.4,17.9,3.4,26.9c0.2,1.6,0.7,2,2.3,1.8c3.1-0.5,6.1-0.9,9.2-1.2
		c1.1-0.1,1.4-0.5,1.2-1.5c-0.2-1.7-0.4-3.3-0.6-5c-0.1-0.8,0.1-1.4,1-1.4c0.2,0,0.4,0,0.6-0.1c2.1-0.4,4.1-0.6,6.2-0.7
		c0.8,1.9,0.8,4,1.1,6.1c0.4,2.4,0.5,4.7,1,7.1c0.3,1.4,0,1.9-1.5,2.1c-7.5,0.9-15,1.9-22.5,2.9c-2.7,0.3-5.3,0.7-8,1.1
		c-1.2,0.2-1.8,0-2-1.4C294.7,194.4,294.3,192.5,294.3,190.5z"/>
	<path d="M541.3,749.4c0.8,0.5,1.1,1.2,1.5,1.9c2.7,3.9,2.7,3.9-1.3,6.7c-1.4,1-2.8,1.9-4.3,2.7c-4.1,2-7.2,1.2-9.8-2.6
		c-3.8-5.6-7.6-11.2-11.4-16.8c-0.4-0.6-0.6-1.2-1.5-1.7c-1,0.7-2.1,1.4-3.6,2.3c-1.4-2-2.7-3.9-4-5.8c1-1.3,2.6-1.7,3.6-3
		c-2.1-3.1-4.2-6.2-6.4-9.5c2.2-2,4.8-3.4,7.5-5.3c2.2,3.2,4.4,6.4,6.7,9.7c1.7-1.1,3.4-2.2,5-3.3c0.7-0.5,1.2-0.5,1.7,0.3
		c1.1,1.7,2.2,3.3,3.4,5c-2,1.4-3.8,2.7-5.9,4.2c0.7,1.1,1.4,2.1,2.1,3.2c2.7,4,5.4,8.1,8.2,12.1c2,2.8,3.2,3,6.2,1.2
		C539.8,750.2,540.4,749.5,541.3,749.4z"/>
	<path d="M578.3,233c-1.4,1.6-2.6,3-3.7,4.4c-0.9,1.3-1.8,1.4-2.8,0.2c-0.3-0.3-0.6-0.5-1.2-1c-6.7,7.9-13.3,15.7-19.9,23.5
		c0.5,1.2,1.7,1.6,2.4,2.7c-1.3,1.6-2.7,3.3-4.1,4.9c-0.5,0.6-0.9,0.6-1.5,0.1c-3.7-3.2-7.5-6.3-11.2-9.4c-0.7-0.6-0.8-1.1-0.2-1.7
		c1.4-1.6,2.7-3.2,4-4.7c3.2,2.1,3.2,2.1,5.6-0.7c5.1-6.1,10.3-12.2,15.4-18.2c0.7-0.8,1.4-1.7,2.1-2.5c-2.6-2.6-2.6-2.6-0.3-5.3
		c0.8-1,1.7-1.9,2.7-3.1C569.7,225.8,573.9,229.3,578.3,233z"/>
	<path d="M370.6,784.7c0.8-0.4,1-0.8,1.2-1.2c2.3-4.2,6.1-5.4,10.6-4.9c0.8,0.1,1.3,0.3,1.3,1.2c0.1,2.5,0.7,4.9,0.4,7.7
		c-1.9-0.2-3.7-0.3-5.6,0c-4.8,1-7.4,4.3-7.1,9.1c0.3,3.7,0.5,7.3,0.8,11c0.2,2.2,0.2,2.2,2.3,2.2c0.4,0,0.8,0,1.2,0
		c0.9-0.1,1.2,0.4,1.2,1.3c0,0.6,0.1,1.2,0.1,1.8c0.2,4.3,0.2,4.3-4.2,4.6c-3.7,0.2-7.4,0.4-11,0.8c-1.3,0.1-1.8-0.4-1.8-1.6
		c0-0.9-0.2-1.8-0.2-2.7c-0.2-2.5-0.2-2.6,2.3-3c0.9-0.2,1.1-0.7,1.1-1.4c-0.5-6.6-1.1-13.2-1.5-19.9c-0.1-1.4-0.8-1.4-1.8-1.3
		c-1.6,0.3-2.1-0.5-2-2c0-1.3-0.1-2.6-0.3-3.9c-0.2-1.1,0.3-1.4,1.3-1.5c3.3-0.2,6.6-0.4,9.8-0.7c1.3-0.1,1.8,0.3,1.8,1.6
		C370.4,782.7,370.5,783.6,370.6,784.7z"/>
	<path d="M522.1,770.1c-4.7,2.7-9.2,5.2-13.8,7.8c-1.6-1.9-2.5-4.1-3.7-6c0.8-1.1,2-1.2,2.8-2.1c-0.4-1.5-1.4-2.7-2.2-4.1
		c-2.5-4.4-5-8.8-7.5-13.2c-1.2-2.1-0.9-2.7-3.5-1.1c-0.2,0.1-0.5,0.2-0.7,0.3c-0.2-0.1-0.3-0.1-0.3-0.2c-1.2-1.8-3.2-3.8-2.9-5.7
		c0.3-1.8,3.2-2.3,4.9-3.4c1.8-1.1,3.6-2.1,5.4-3.1c1.2,1.4,1.9,2.9,2.7,4.4c3.7,6.4,7.4,12.9,11.1,19.4c0.7,1.3,1.3,2.5,3,1.1
		c0.8-0.6,1.2,0,1.6,0.6C520,766.5,521,768.1,522.1,770.1z"/>
	<path class="st2" d="M498.3,734.8c-2.8,1.6-5.2,2.9-7.6,4.3c-0.9,0.5-1.5,0.5-1.9-0.5c0-0.1-0.1-0.2-0.2-0.3c-1.1-2-2.2-4-3.3-6
		c1.5-1.8,3.8-2.4,5.7-3.7c0.6-0.4,1.2-0.6,1.8-1c0.8-0.5,1.2-0.3,1.7,0.4C495.7,730.3,497,732.5,498.3,734.8z"/>
	<path class="st0" d="M343.6,798.7c0,2.9-0.5,5.5-1.9,7.9c-1.6,2.8-4.2,4.2-7.4,4.1c-3.1-0.1-5.5-1.7-6.8-4.5
		c-2.3-4.9-2.2-9.9,0.5-14.5c3.2-5.5,10.4-5.5,13.8-0.1C343.1,793.8,343.7,796.3,343.6,798.7z"/>
	<path class="st0" d="M353.5,526.3c-27.7,0-55.5,0-83.2,0c-11.8,0-22.1-7.4-25.7-18.3c-0.9-2.9-1.2-5.8-1.2-8.8
		c0-15.4,0.1-30.8,0-46.2c-0.1-15.2,10.8-24.2,20.8-26.4c2.2-0.5,4.5-0.7,6.8-0.7c55.2,0,110.3,0,165.5,0c12.9,0,23.4,8,26.6,19.9
		c0.6,2.2,0.8,4.5,0.8,6.8c0,15.7,0,31.4,0,47.1c0,14.9-11.8,26.6-26.8,26.7C409.1,526.4,381.3,526.3,353.5,526.3z"/>
	<path class="st0" d="M524.7,417.8c-1.5,0.4-2.7-0.2-4-0.5c-5.3-1-10.5-2.1-15.8-3.2c-2.2-0.5-2.3-0.5-2.2-2.7
		c0.6-17.7,1.1-35.3,1.7-53c0.3-10.1,0.6-20.2,0.9-30.4c0-1.1,0-2.1,0-3c0.9-0.4,1.3-0.1,1.7,0.1c6.1,3.5,12.2,7.1,18.4,10.6
		c1.2,0.7,1.6,1.4,1.6,2.8c-0.6,19.1-1.1,38.1-1.6,57.2c-0.2,6.4-0.3,12.7-0.5,19.1C524.8,415.9,524.7,416.9,524.7,417.8z"/>
	<path class="st0" d="M314.4,289.4c0.3,4.3,0.7,8.8,1,13.4c0.4,5.3,0.7,10.7,1.1,16c0.1,1.3-0.1,2.5-0.8,3.7c-2.1,3.3-4,6.6-6,10
		c-0.6,1-1.2,1.6-2.5,1.6c-5.6,0.1-11.1,0.3-16.7,0.6c-1.5,0.1-2.1-0.2-2.1-1.9c0.1-12.8,0-25.6,0-38.4c0-1.1,0.2-1.8,1.5-2
		c7.6-1,15.2-2.1,22.8-3.2C313.2,289,313.7,288.8,314.4,289.4z"/>
	<path class="st0" d="M315.6,408.5c-0.5,0.2-0.7,0.3-0.9,0.3c-3.5,0.3-3.5,0.3-3.5,3.8c0,1.9,0,3.8,0.1,5.7c0.1,1.2-0.4,1.6-1.6,1.5
		c-3.2-0.1-6.4-0.1-9.6,0c-1.2,0-1.5-0.6-1.5-1.6c0-2.4-0.1-4.8-0.1-7.2c0-1.2-0.5-1.6-1.6-1.5c-0.1,0-0.2,0-0.3,0
		c-1.3-0.1-2.8,0.7-3.7-0.3c-0.8-0.9-0.3-2.5-0.3-3.8c-0.2-10.4-0.4-20.9-0.6-31.3c0-0.9-0.2-1.8,0.3-2.9c3.7-0.4,7.6-0.7,11.5-1.1
		c1.6-0.2,1.8,0.8,2,1.9c1.8,6.9,3.7,13.8,5.5,20.7C312.8,397.9,314.2,403.1,315.6,408.5z"/>
	<path class="st0" d="M532.3,618.1c0-0.8,0-1.7,0-2.5c0-25.5,0-51,0-76.5c0-0.6,0-1.2,0-1.8c0-0.8,0.3-1.3,1.1-1.5
		c6-1.4,12-2.8,17.9-4.2c0.6,1.2,0.4,2.2,0.4,3.2c0,22.1,0,44.3,0.1,66.4c0,2-0.5,3.3-2.1,4.5c-5,3.6-9.8,7.4-14.8,11.1
		C534.2,617.3,533.7,618.2,532.3,618.1z"/>
	<path class="st3" d="M271.2,183.2c3.5,0,6,1.7,6.8,4.5c0.8,2.7-0.7,5.7-3.6,7.1c-3.3,1.5-6.9,2-10.3,3c-0.7,0.2-1.1-0.2-1.3-0.9
		c-0.9-3.4-1.8-6.7-2.7-10.1c-0.2-0.6,0-1,0.5-1.1C264.3,184.8,267.8,183.6,271.2,183.2z"/>
	<path class="st3" d="M265,165.5c4.1,0,6.2,1.4,6.7,4c0.5,2.7-0.8,5.3-3.7,6.4c-3,1.1-6.1,1.8-9.2,2.7c-0.8,0.2-1.1-0.3-1.3-0.9
		c-0.8-2.9-1.5-5.8-2.4-8.6c-0.2-0.8,0-1.2,0.7-1.3C259.3,167,262.5,165.8,265,165.5z"/>
	<path class="st0" d="M495.1,222c5.2-9,10.3-17.8,15.6-26.9c3.3,1.8,6.6,3.4,9.2,6c3.2,3.2,4.2,7,3.1,11.2c-1.2,4.6-3.4,8.7-6.9,12
		c-4.1,3.9-8.7,4.5-13.7,1.9C500,224.9,497.6,223.4,495.1,222z"/>
	<path class="st4" d="M214.2,185.5c4.3,5,8.6,10,13.1,15.3c-3.8,1.7-7.3,3.3-11.1,4.9c-0.9-6.8-1.8-13.4-2.6-20
		C213.8,185.6,214,185.6,214.2,185.5z"/>
	<path class="st4" d="M198.8,757.3c-4.5-2.6-8.9-5.1-13.4-7.7c2.8-3.6,7-4.4,10.6-2.2C199.6,749.6,200.6,752.9,198.8,757.3z"/>
	<path d="M283.9,468.3c3.8-5.8,7.5-11.6,11.3-17.4c-2.6-0.7-2.6-0.7-2.6-3.1c0-2.9,0-5.8,0-8.6c0-1.2,0.1-1.8,1.6-1.8
		c6.8,0.1,13.6,0,20.4,0c1.2,0,1.5,0.5,1.5,1.6c0,3.4,0,6.8,0,10.1c0,1-0.4,1.4-1.4,1.4c-0.4,0-0.8,0.1-1.2,0
		c-1.7-0.3-2.5,0.6-3.3,1.9c-4,6.2-8,12.3-12,18.5c-0.9,1.4-1.8,2.9-2.8,4.2c-0.8,1.1-0.9,2-0.1,3.2c5.1,7.6,10,15.3,15,23
		c0.8,1.2,1.6,1.8,3.1,1.8c2.2-0.1,2.2,0.1,2.2,2.3c0,3.1,0,6.2,0,9.2c0,1.2-0.4,1.5-1.6,1.5c-6.8,0-13.6,0-20.4,0
		c-1.2,0-1.6-0.5-1.5-1.6c0-3.2,0.1-6.4,0-9.5c-0.1-1.6,0.4-2.2,2-2c0.3,0,0.6-0.1,1.2-0.3c-2.9-4.5-5.8-8.9-8.8-13.5
		c-2,2.2-3.6,4.3-3.2,7.3c0.2,1.6,0.1,3.2,0,4.8c-0.1,1.3,0.5,1.8,1.8,1.7c0.4,0,0.8,0,1.2,0c2.2,0.1,2.2,0.1,2.2,2.1
		c0,3.1,0,6.2,0,9.2c0,1.2-0.3,1.8-1.6,1.8c-6.8,0-13.6,0-20.4,0c-1,0-1.5-0.3-1.4-1.4c0-3.5,0-7,0-10.4c0-1.1,0.5-1.3,1.5-1.3
		c1.1,0,2.2,0.2,3.2-0.2c0.5-0.8,0.3-1.8,0.3-2.6c0-15.6,0-31.2,0-46.8c0-0.3,0-0.6,0-0.9c0.3-1.6-0.5-2.1-2-2c-0.6,0.1-1.2,0-1.8,0
		c-0.9,0-1.2-0.5-1.2-1.3c0-3.5,0-7,0-10.4c0-1,0.4-1.4,1.4-1.4c6.9,0,13.8,0,20.7,0c0.8,0,1.4,0.2,1.3,1.2c0,3.6,0,7.2,0,10.7
		c0,0.9-0.5,1.2-1.3,1.2c-0.1,0-0.2,0-0.3,0c-3.6,0.3-3.6,0.3-3.6,3.8c0,4.1,0,8.1,0,12.2C283.3,466.9,283.1,467.5,283.9,468.3z"/>
	<path d="M348.9,503.3c0.7-0.5,1.3-0.4,1.9-0.4c3.4,0,3.1,0.2,3.1-3c0-15.5,0-31,0-46.5c0-0.5,0-1,0-1.5c0.1-1-0.3-1.5-1.3-1.5
		c-1.2,0-2.7,0.5-3.4-0.4c-0.8-1-0.2-2.5-0.3-3.8c0-2.4,0.1-4.8,0-7.2c-0.1-1.5,0.5-1.8,1.9-1.8c5.9,0.1,11.8,0,17.7,0
		c4.7,0,9.4,0.1,14.1,0c1.6,0,2.8,0.5,3.9,1.6c2.3,2.5,4.7,4.8,7.2,7.2c1.1,1,1.6,2.1,1.6,3.6c-0.1,18,0,36,0,54
		c0,1.4-0.3,2.4-1.4,3.4c-2.6,2.5-5.1,5-7.6,7.6c-1,1-2,1.4-3.4,1.4c-10.5,0-20.9,0-31.4,0c-2.4,0-2.4,0-2.4-2.4
		C348.9,510.1,348.9,506.6,348.9,503.3z"/>
	<path d="M416,450.4c0,6.3,0,12.1,0,18c0,1.2,0.4,1.5,1.6,1.5c4.5,0,9,0.1,13.5-0.1c1.6,0,2.8,0.5,3.9,1.6c2.5,2.7,5.2,5.2,7.9,7.7
		c0.9,0.9,1.3,1.8,1.3,3.1c-0.1,7.2-0.1,14.3,0,21.5c0,1.2-0.4,2.1-1.2,2.9c-2.8,2.7-5.5,5.4-8.2,8.2c-0.8,0.9-1.7,1.1-2.9,1.1
		c-5.6,0-11.2-0.1-16.8,0c-1.3,0-2.2-0.4-3.1-1.4c-2.6-2.6-5.2-5.2-7.8-7.8c-0.8-0.8-1.3-1.6-1.3-2.8c0.1-3.3,0.1-6.6,0-9.8
		c0-1.3,0.5-1.7,1.7-1.7c3.2,0.1,6.4,0.1,9.6,0c1.7-0.1,2,0.6,2,2.1c-0.1,2.3,0,4.6,0,6.9c0,1,0.3,1.4,1.3,1.4c4,0,8,0,12,0
		c1.2,0,1.6-0.5,1.5-1.6c0-5.5-0.1-10.9,0-16.4c0-1.5-0.6-1.8-2-1.8c-4.4,0.1-8.8-0.1-13.2,0.1c-1.9,0.1-3.2-0.5-4.4-1.9
		c-2.3-2.5-4.7-4.8-7.2-7.2c-0.9-0.9-1.4-1.8-1.4-3.1c0.1-7.2,0.1-14.3,0-21.5c0-1.3,0.4-2.2,1.3-3.1c2.7-2.5,5.3-5.2,7.8-7.8
		c0.9-0.9,1.8-1.4,3.1-1.3c5.6,0.1,11.2,0.1,16.8,0c1.2,0,2.1,0.3,2.9,1.2c2.7,2.8,5.5,5.5,8.2,8.2c0.7,0.7,1.2,1.5,1.2,2.6
		c-0.1,3.3-0.1,6.6,0,9.8c0,1.3-0.5,1.7-1.7,1.7c-3.3-0.1-6.6-0.1-9.9,0c-1.4,0-1.7-0.5-1.7-1.8c0.1-2.3,0-4.6,0-6.9
		c0-1.3-0.4-1.8-1.7-1.8C424.8,450.4,420.6,450.4,416,450.4z"/>
	<path d="M332.3,516c-3.2,0-6.4-0.1-9.6,0c-1.6,0.1-2-0.5-2-2.1c0.1-3.1,0.1-6.2,0-9.2c0-1.4,0.4-1.9,1.9-1.9c3.2,0,3.2-0.1,3.2-3.4
		c0-15.2,0-30.4,0-45.6c0-0.7,0-1.4,0-2.1c0.1-1.1-0.5-1.3-1.4-1.4c-1.2-0.1-2.6,0.6-3.4-0.4c-0.7-0.9-0.2-2.3-0.2-3.5
		c0-2.6,0-5.2,0-7.7c0-1,0.3-1.4,1.4-1.4c6.9,0,13.8,0,20.6,0c1.2,0,1.5,0.6,1.5,1.7c0,3.3-0.1,6.6,0,9.8c0,1.4-0.6,1.6-1.8,1.7
		c-3.4,0.1-3.4,0.2-3.4,3.6c0,15.1,0,30.2,0,45.3c0,0.7,0,1.4,0,2.1c0,0.9,0.3,1.5,1.4,1.5c0.1,0,0.2,0,0.3,0
		c3.6,0.3,3.6,0.3,3.6,3.7c0,2.5-0.1,5,0,7.4c0.1,1.7-0.6,2-2.1,2C338.9,515.9,335.6,516,332.3,516z"/>
	<path class="st3" d="M382,476.6c0,8,0,16.1,0,24.1c0,2.1,0,2.1-2.2,2.1c-3.5,0-7,0-10.5,0c-2.2,0-2.2-0.1-2.3-2.1
		c0-16.1,0-32.2,0-48.3c0-2,0.1-2.1,2.2-2.1c3.4,0,6.8,0,10.2,0c2.6,0,2.5-0.2,2.5,2.4C382,460.7,382,468.7,382,476.6z"/>
</g>
</svg>
