<?xml version="1.0" encoding="utf-8"?>
<!-- Generator: Adobe Illustrator 21.1.0, SVG Export Plug-In . SVG Version: 6.00 Build 0)  -->
<svg version="1.1" id="Layer_1" xmlns="http://www.w3.org/2000/svg" xmlns:xlink="http://www.w3.org/1999/xlink" x="0px" y="0px"
	 viewBox="0 0 700 965" style="enable-background:new 0 0 700 965;" xml:space="preserve">
<style type="text/css">
	.st0{display:none;fill:#FDFDFD;}
	.st1{fill:#DDC13E;}
	.st2{fill:#DDC13F;}
	.st3{fill:#DDC23F;}
	.st4{fill:#DDC240;}
	.st5{fill:#DEC241;}
	.st6{fill:#E8D68D;}
	.st7{fill:#FEFEFD;}
</style>
<g>
	<path class="st0" d="M350.6,716.1c-115.7,0-231.4,0-347.1,0.1c-2.4,0-3-0.5-3-3c0.1-153.6,0.1-307.2,0-460.8c0-2.4,0.5-3,3-3
		c231.4,0.1,462.8,0.1,694.2,0c2.4,0,3,0.5,3,3c-0.1,153.6-0.1,307.2,0,460.8c0,2.4-0.5,3-3,3C582,716.1,466.3,716.1,350.6,716.1z"
		/>
	<path class="st1" d="M129.5,458.1c-10.3,2.7-16.6,0.8-21.8-7.4c-6.6-10.5-14.6-20.1-22.1-30.2c2.5-1.8,4.9-0.9,7.2-1.1
		c9.7-0.7,16.4-7.5,16-16.4c-0.4-8.7-6.2-13.4-16.6-13.5c-10.8,0-11.3,0.3-11.4,10.8c-0.1,13.5-0.1,27-0.1,40.5
		c0.1,13,0.1,13,12,17.7c-11.6,0-21.4,0-31.3,0c0.1-0.5,0.1-1.3,0.2-1.3c8.3,0.1,9.5-4.9,9.4-12c-0.4-15.2-0.2-30.3-0.1-45.5
		c0-6.7,0.7-13.7-9.6-11.8c0.1-1.2,0.2-2,0.2-2.1c14.2-1,28.4-1.6,42.4,0.2c10.1,1.3,14.3,5.3,15.2,12.2c1.2,8.6-2.9,16.1-11.3,20.2
		c-2.7,1.3-5.4,2.5-8.1,3.7c1.8,2.8,3.4,5.6,5.3,8.3c5.4,7.2,10.9,14.3,16.2,21.6C123.2,454.5,125.7,456.1,129.5,458.1z"/>
	<path class="st2" d="M485,397c0,18.5,0.3,34.9-0.1,51.2c-0.2,7.1,4.9,7.9,9.5,10.3c-7.8,0-15.7,0-23.5,0c10.8-1.3,9.3-9.4,9.3-16.4
		c0.1-13.7,0-27.5,0.1-41.2c0-7,0.6-14.1-12.1-13c11.2-5,19.7-3.3,25.2,3.6c12.4,15.5,24.8,31.1,37.3,46.6c2.2,2.7,4.6,5.3,8.5,9.7
		c0-6.2,0-10.2,0-14.3c0-10.2,0-20.4,0-30.6c0-12.1-0.1-12.1-11.7-17c9.9,0,18,0,26.2,0c-0.1,0.6-0.2,1.4-0.3,1.4
		c-7.8,0-9.4,4.4-9.2,11.4c0.5,18,0.3,36,0.3,54c0,2.4,1.6,6.4-0.9,7c-3.1,0.8-7.1,0.1-9.6-3c-4.4-5.3-9-10.4-13.3-15.7
		C509.1,427,497.7,412.8,485,397z"/>
	<path class="st1" d="M282.8,424.4c0,9.4-0.3,18.8,0.1,28.1c0.2,6.1,6.8,2.3,10.3,5.9c-10.6,0-20.3,0-30.1,0
		c0.3-0.7,0.5-1.5,0.6-1.5c8,0.4,9.5-4,9.3-11.1c-0.4-14.7-0.1-29.4-0.1-44.1c0-11.5-0.1-11.5-9.6-15.2c5.2-2,23.1-2,29.1-0.1
		c-0.5,2-2.2,1.5-3.4,1.5c-4.7-0.1-6.2,2.4-6.1,6.7c0.1,8.3,0,16.6,0,26.1c6.9-4.2,11.7-9.6,16.3-14.9c5.5-6.4,12.6-11.6,16.8-19.1
		c1.4-2.5,3.8-1.5,5.7-1.4c3.9,0,8-0.7,13.5,1.1c-17.9,4.2-26.3,18.7-38.6,28.3c-3.3,2.6-3.7,4.4-0.2,7.6
		c11.5,10.2,22.7,20.8,33.9,31.4c1.9,1.8,4.6,2.2,8,5.4c-8.5-0.3-15.1,2.3-21.3-4.2c-9-9.4-18.7-18.1-28.2-27.1
		C287.1,426.3,286.1,424.2,282.8,424.4z"/>
	<path class="st3" d="M132.2,385.2c9.1,0,18.2,0,27.3,0c8.1,0,16.1,0.1,24.2-0.1c3.8-0.1,6.1,0.5,4.3,5.1c-0.4,1.1-0.3,2.4-0.6,3.5
		c-0.6,2.3,1.3,6.4-1.9,6.6c-3.8,0.2-2-4-2.3-6.2c-0.4-3.4-3.1-3.4-5.1-3.9c-7-1.4-14.1-0.7-21.2-0.6c-3.1,0.1-4.1,1.7-3.9,4.6
		c0.1,2.8,0.1,5.7,0,8.5c-0.3,17-0.3,16.7,16.4,16.8c7.4,0,8.7-4,9.2-10.2c2.6,8.2,1.8,16,0.8,24c-2.9-3.6-1.7-10.3-8.9-9.8
		c-4.9,0.4-9.9,0.1-14.9,0.1c-2.7,0-2.8,2-2.8,4c0,7.6,0.2,15.2,0.1,22.7c0,3.6,2,4.4,4.9,4.5c5.7,0,11.4-0.1,17.1,0.1
		c6.5,0.2,11.2-1.6,11.5-9.1c0.1-1.3,0.6-2.8,3.3-3.8c1.6,5.7-0.6,11-1.1,16.2c0,0.4-2,0.9-3.1,0.9c-16.8,0-33.6,0-50.5-0.1
		c-0.5,0-1-0.7-3.1-2.4c11.8,1.1,10.3-6.2,10.4-12.5c0.1-14,0.1-28,0-41.9c0-7.2,1.6-15.7-11.5-14.4
		C131.2,387,131.7,386.1,132.2,385.2z"/>
	<path class="st3" d="M245.1,409.9c0,7.8,0,15.6,0,24.7c-3.6-3.7-1.2-9.3-5.9-10.3c-6.1-1.3-12.3-0.5-18.4-0.5
		c-2.8,0-2.6,2.3-2.6,4.1c0,7.3,0.2,14.7,0.1,22c-0.1,3.8,1.7,5,5.1,5c5.2,0,10.4-0.1,15.6,0c6.7,0.2,12.5-0.7,12.8-9.3
		c0-1.3,0.6-3.2,2.3-3.1c2.6,0.2,1.6,2.5,1.5,3.9c-0.2,3.3-0.9,6.6-1.1,9.9c-0.1,2.2-1.2,2.9-3.1,2.9c-17.4,0-34.8,0-52.9-0.8
		c12.3-1.9,9-10.9,9.1-17.9c0.2-12.6,0.1-25.1,0.1-37.7c0-11.9-0.1-11.9-10.1-16.1c0.7-2.3,2.7-1.4,4.1-1.5
		c15.6-0.1,31.3,0.1,46.9-0.1c4.8-0.1,6.6,1.1,4.6,6c-0.4,1.1-0.2,2.4-0.4,3.5c-0.5,2.1,1.2,5.8-2,5.8c-3.3,0.1-2-3.7-2.1-5.7
		c-0.2-3.3-2.3-3.8-4.7-4.3c-7.3-1.6-14.6-0.8-21.9-0.7c-2.6,0.1-3.8,1.3-3.8,4c0,7.3,0,14.7-0.1,22c0,2.8,1.3,3.7,3.9,3.6
		c2.6-0.1,5.2,0,7.8,0C240.9,419.4,240.9,419.4,245.1,409.9z"/>
	<path class="st3" d="M452.9,434.9c-3.6-4.2-1.1-9.8-6.2-10.7c-6.3-1.1-12.8-0.8-19.1-0.2c-2,0.2-1.5,2.7-1.5,4.2
		c0,7.3,0.2,14.7,0.1,22c-0.1,3.5,1.7,4.6,4.7,4.6c4.7,0,9.5-0.1,14.2,0.1c7.7,0.4,14.3-0.4,14.9-10.3c0.1-1,0.7-2.3,2.9-2.1
		c1.7,4.9-0.7,9.8-0.8,14.8c-0.1,1.9-1.9,1.8-3.3,1.8c-17-0.1-34.1-0.2-51.1-0.3c-0.3,0-0.5-0.6-1.2-1.5c10.7-0.2,9-7.8,9-14.4
		c0.1-14,0-28,0-41.9c0-7,0.9-14.8-10.6-12.9c1.5-4,4-2.8,5.7-2.8c15.2-0.1,30.3,0.1,45.5-0.2c5.3-0.1,6.9,1.3,4.9,6.3
		c-0.2,0.4-0.1,1-0.2,1.4c-0.8,2.5,1.2,7.1-1.9,7.4c-4.3,0.4-1.8-4.3-2.5-6.6c-0.7-2.4-2.5-2.6-4.2-3.1c-7.5-1.8-15.1-1-22.6-0.8
		c-2.3,0.1-3.4,1.3-3.4,3.6c0,7.3,0,14.7-0.2,22c-0.1,3.2,1.4,4.2,4.3,4c1.9-0.1,3.8,0,5.7,0c11.9,0,11.9,0,17-11.4
		C452.9,417.6,452.9,425.3,452.9,434.9z"/>
	<path class="st2" d="M30.3,458.6c-10,0-20.1,0-30.1,0c13.4-0.6,10.4-10.4,10.5-18.1c0.1-12.3,0.1-24.6,0-37c0-12.8,0-12.8-10.7-17
		c1.5-1.9,3.5-1.2,5.2-1.3c14.2-0.1,28.4,0.1,42.7-0.1c4.6-0.1,6.8,1.1,5.3,5.9c-0.9,3.1-0.1,6.6-1.8,9.5c-0.6-0.1-1.2-0.1-1.5-0.3
		c-2.2-2.8,0.7-8-4.6-9.4c-7.5-2-15-1.7-22.5-0.6c-2.1,0.3-2,2.4-2,4c-0.1,3.6-0.4,7.1-0.2,10.7c0.3,4.6-2.3,11.3,1.2,13.4
		c5,3,11.9,1.1,18.1,0.7c2.5-0.2,3.5-1.8,4-4.2c0.4-1.9-0.1-4.4,3.6-5.4c0,7.5,0,14.6,0,21.7c0,1-0.3,2-1.4,2.1
		c-1.6,0.2-2.1-1.1-2-2.3c0.6-7.7-4.7-7.3-9.9-7.4c-13.7,0-13.7-0.1-13.7,13.8c0,2.1,0,4.3,0,6.4C20.8,454.9,20.8,454.9,30.3,458.6z
		"/>
	<path class="st1" d="M628.3,448.6c0.7,3.3-0.9,4.9-2.8,5.9c-15.3,8.1-30.9,8.5-46.2,0.5c-13.5-7.1-19.3-19.2-19.1-34
		c0.3-21.5,16.6-36.2,40.4-37.1c8.1-0.3,15.9,1.6,23.8,3c3.1,0.6,4.3,2.1,3.1,5.5c-1.3,3.6-0.1,7.9-4.3,13.4c0.3-8.8-1.6-14.1-9-16
		c-6.1-1.5-12.1-2.2-18.3-1.3c-13.2,1.8-23.2,12.5-24.5,25.7c-1.4,14.1,1.7,26.7,14.2,34.9C599.6,458.2,613.9,456.6,628.3,448.6z"/>
	<path class="st1" d="M631,388.8c13.3-6.8,15.9-6.4,22.1,3.6c5.9,9.4,11.2,19.2,17.3,29.8c6.5-11.1,12.9-21.4,18.8-32.1
		c2.5-4.5,5.3-6.1,10.8-4c-8.5,11.2-16.1,22.5-23.3,34.2c-6.3,10.2-3.9,21.1-3.1,31.8c0.4,5.8,6.8,2.7,10.8,6.2
		c-11.2,0-21.2,0-32.3,0c11.5-4.7,11.3-4.7,11.7-18c0.2-7.6-1.2-14.5-5.4-20.9c-4.5-6.9-8.7-14.1-13.2-21.1
		C642.3,393.7,638.8,389.5,631,388.8z"/>
	<path class="st3" d="M340.1,385.6c10,0,20,0,30.1,0c-0.2,0.8-0.1,1.6-0.3,1.6c-10,2.4-10.1,2.4-10.1,13.2c0,16.1,0.3,32.3,0,48.4
		c-0.1,5.1,1.6,6.6,6.4,6.2c4.2-0.4,8.5,0,12.8-0.1c12.1-0.1,12.5-0.5,16.9-11.7c0.4-1,0.7-2.3,3.2-2c-0.4,5.2-0.8,10.4-1.4,15.6
		c-0.3,2.7-2.5,2.4-4.4,2.4c-16.1,0-32.2,0-49.9,0c8.9-7.6,6.2-16.6,6.5-24.9c0.3-10.9,0.2-21.8,0-32.7
		C349.8,389.9,349.6,389.9,340.1,385.6z"/>
	<path class="st4" d="M351.5,530.3c4.5-10.3,2.9-37.1-3-41.1c8.7,0,16.6-0.5,24.4,0.1c11,1,17,7.1,17.8,16.8
		c0.9,10.3-5.5,20-15.3,22.9c-1.8,0.5-3.7,1.2-5.5,1.2C363.9,530.4,358,530.3,351.5,530.3z"/>
	<path class="st4" d="M251.3,509.5c0.1-13,9.3-21.8,22.8-21.8c12.8,0,21.4,8.3,21.3,20.4c0,13.6-10.3,23.9-23.7,23.7
		C259.4,531.6,251.2,522.6,251.3,509.5z"/>
	<path class="st4" d="M416.1,487.7c12.8-0.1,21.5,8,21.7,20.1c0.1,13.6-10,24-23.4,24c-12.4-0.1-20.7-8.9-20.7-22.1
		C393.7,496.7,402.7,487.8,416.1,487.7z"/>
	<path class="st5" d="M335.7,522.3c-0.8-11.1,4.8-22.9-1.8-33c2.4,0,6.4,0,10.4,0c-4.6,1.2-4.7,4.5-4.6,8.3
		c0.1,11.1,0,22.2-0.9,34.1c-12.7-9.3-20.4-23.3-31.4-34.5c-2.6,18.4-1.3,29.5,4.2,33c-4.3,0-8.2,0-12.3,0
		c6.9-4.4,6.9-36.2,0.1-40.6c6.3-1.8,10.5,0.7,14.3,5.9c6.4,8.8,13.6,17,20.5,25.5C334.5,521.5,335.1,521.8,335.7,522.3z"/>
	<path class="st5" d="M452.4,530.2c-2.8,0-6.6,0-10.4,0c6.5-4.7,6.3-36.5-0.4-40.6c6.3-2,10.4,0.4,14.2,5.5c7,9.4,14.6,18.4,22.4,28
		c3.2-17,1.6-30.4-4.1-33.8c4.3,0,8.2,0,13.6,0c-4.4,1.4-5.8,3.5-5.7,7.1c0.3,9.7,0.1,19.4,0.1,29.1c0,1.8,1.1,4.4-0.7,5.2
		c-2.3,1-4.3-0.9-5.9-2.9c-6.7-8.3-13.5-16.5-20.3-24.7c-1.6-2-3.3-3.9-5.7-5.7C450.7,508.4,445.2,520,452.4,530.2z"/>
	<path class="st5" d="M248.7,524.8c0.5,4.1-0.8,5.9-5.5,5.7c-7.8-0.4-15.6-0.1-23.6-0.1c3.5-7.3,2.4-14.8,1.9-22
		c-0.5-6.4,4.1-14.5-4.4-19.1c4.5,0,9.5,0,15.7,0c-3.8,1.3-5.8,2.5-5.7,6.1c0.3,9.2,0.2,18.4,0,27.6c-0.1,3.3,1,4.8,4.4,4.5
		c3.1-0.2,6.1-0.1,9.2-0.1c4.6,0,6.1-2.8,6.5-6.8C250.9,521,248.7,523.3,248.7,524.8z"/>
	<path class="st6" d="M248.7,524.8c-0.5-1.4,0.2-3.2-1.4-4.2c0.2-1.1,1.4-1.7,1.9-1C250.3,521.3,250,523.2,248.7,524.8z"/>
	<path class="st7" d="M359.2,509.7c0-1.9-0.4-3.9,0.1-5.7c1-4-3.3-10.2,3.7-11.9c8.4-2.1,17.1,1.9,20.1,8.5
		c6.3,14-2.8,27.4-18.1,27.1c-4.5-0.1-5.8-1.8-5.7-5.9C359.5,517.7,359.3,513.7,359.2,509.7C359.3,509.7,359.3,509.7,359.2,509.7z"
		/>
	<path class="st7" d="M289.6,510.4c-0.1,11.6-6.1,18.8-15.8,18.6c-10-0.2-16.8-9-16.6-21.5c0.1-10.6,6.1-17,15.8-16.9
		C283,490.7,289.6,498.6,289.6,510.4z"/>
	<path class="st7" d="M399.5,507.5c0.1-10.6,6.1-17.1,15.7-17c10.1,0.1,16.8,8,16.8,19.7c0,11.6-6.1,18.8-15.7,18.7
		C406.2,528.8,399.3,520,399.5,507.5z"/>
</g>
</svg>
