<?xml version="1.0" encoding="utf-8"?>
<!-- Generator: Adobe Illustrator 21.1.0, SVG Export Plug-In . SVG Version: 6.00 Build 0)  -->
<svg version="1.1" id="Layer_1" xmlns="http://www.w3.org/2000/svg" xmlns:xlink="http://www.w3.org/1999/xlink" x="0px" y="0px"
	 viewBox="0 0 700 965" style="enable-background:new 0 0 700 965;" xml:space="preserve">
<style type="text/css">
	.st0{fill:#FEFEFE;}
	.st1{fill:#1E1D1B;}
	.st2{fill:#131312;}
	.st3{fill:#030302;}
	.st4{fill:#010101;}
	.st5{fill:#010000;}
</style>
<g>
	<path class="st0" d="M1.4,485.5c0-114.8,0-229.5-0.1-344.3c0-4.8,0.9-5.7,5.7-5.7c229.1,0.2,458.2,0.2,687.2,0
		c4.8,0,5.7,0.9,5.7,5.7c-0.2,229.5-0.2,459.1,0,688.6c0,4.8-0.9,5.7-5.7,5.7c-229.1-0.2-458.2-0.2-687.2,0c-4.8,0-5.7-0.9-5.7-5.7
		C1.4,715,1.4,600.2,1.4,485.5z"/>
	<path class="st1" d="M550.8,528.4c3.9,3.3,7,7.3,9.9,11.5c4.4,6.6,3.5,13.8-2.1,18.7c-5.4,4.7-12.3,4.7-18.1-1.1
		c-8.9-9.1-17.3-18.7-25.9-28.1c-7.9-8.5-15.8-17-23.8-25.4c-1.3-1.4-2.1-3.5-5.1-2.3c-2.9,1.2-2.8,3.1-2.8,5.5
		c0.3,13,0.5,26,0.9,38.9c0.2,4.7-0.9,8.7-3.9,12.2c-3.8,4.3-8.5,6.6-14.3,4.9c-5.4-1.5-7.3-6.1-8-11.1c-0.4-2.7-0.2-5.5-0.2-8.3
		c1.7-9.6-0.1-19.3,0.3-29c0.7-18,1.1-36.1-0.4-54.1c-0.7-8.1,1.5-16.1,0.1-24.2c0.1-2.5-0.1-5,0.4-7.5c1-5.1,3.8-9,9.1-9.9
		c5.9-1.1,10.7,0.9,13.8,6.3c2,11.7,0.5,23.5,0.9,35.2c0.1,2.9-0.3,5.8,0.3,8.7c0.2,0.9,1.6-0.1,0.8,0.1c-0.2,0.1-0.4,0-0.4-0.2
		c-0.8-13.4-1.4-26.9,0.3-40.3c2.2,9.8,0.5,19.8,0.8,29.7c0.1,4.4,0,8.7,0,13.9c12.1-7,21.6-15.9,29.8-26.4
		c5.3-6.8,10.6-13.5,16-20.1c3.1-3.7,7.2-5.9,12.1-6c5.3-0.1,9.5,2.1,12,6.8c2.9,5.6,1.6,11-1.9,15.7c-8.9,11.9-17.4,24.1-28.6,34
		c-3.8,3.3-10.4,6.4-10.2,10.5c0.2,3.9,6.2,7.5,9.6,11.3c1.1,1.2,2,2.5,3,3.8c1,4.6,5.2,6.8,8.2,9.7
		C539.1,517.6,544,524,550.8,528.4z"/>
	<path class="st1" d="M168.5,556.5c-2.2,6.2-6.4,10-13.2,9.9c-6.4-0.1-9.7-4.2-11.5-9.9c1.1-15.3,0.2-30.6,0.5-45.9
		c0.1-2.5-0.6-5.1-0.1-6.2c0,8.5,0.2,18.3-0.1,28.1c-0.2,7.6,1,15.3-0.7,22.8c-2.1-9.4-0.5-18.9-0.9-28.3c-0.3-5.8-0.1-11.6,0-17.4
		c0-5,0.3-9.8-3.7-14.1c-3.2-3.4-3-8.4-0.5-12.5c7.6-12.4,5-25.3,1.4-37.9c-3.1-11.1-1.6-17.1,7.3-20.6c0.6-0.2,1.4-0.1,2.1-0.1
		c17.9-0.6,35.7-1.1,53.6-0.8c-6.9-0.6-13.8,1-20.7-1c10.1-1.2,20.2-0.8,30.3-2.2c11-1.4,17.7,3.4,18.7,11.7
		c1,8.2-5.5,14.4-16.5,15.7c-14.3-1.4-28.7,0-43.1-0.6c-0.9,0.3,0.3,1.7-0.2,0.9c-0.1-0.2,0-0.4,0.4-0.4c9.8-0.4,19.6-1.3,29.3,0.5
		c-8.7,1.5-17.6,0.7-26.4,0.7c-5.2,0-6.1,1.8-5.6,6.5c0.6,5.3,0.7,10.7,0.6,16c-0.1,3.5,0.7,4.8,4.5,4.8c11.2-0.2,22.3-0.5,33.1-3.4
		c5.7-1.5,11.1-1,15.5,3.3c6.9,6.6,6,15.5-2.3,20.3c-6.3,3.7-13.4,5.2-20.5,6c-8.3,1-16.7,1.4-25,0.8c-4.3-0.3-5.5,1-5.4,5.3
		c0.3,13.2,0.1,26.5,0.1,39.7c0,2.5,0.8,5.1-1.1,7.4c-1.6-15.8-0.6-31.7-0.5-47.6c0-0.5,0-0.7-0.5-0.6
		C168.6,523.6,167.2,540.1,168.5,556.5z"/>
	<path class="st1" d="M384.8,478c1.1-5.5,1.9-10.8,3.3-15.9c2.2-8.1,8.1-12.5,15.1-11.5c6.8,1,9.9,5.5,10.6,11.9
		c0.8,6.8-1.3,13.2-2.9,20.4c4.9-2.4,9.1-4.8,13.5-6.5c7-2.8,13.5-0.6,17.1,5.1c3.4,5.6,2.1,11.2-4.1,16.4c-2.8,2.4-6,4.4-9.1,6.4
		c-2.9,1.8-6,3.3-9.2,5c2.3,3.1,4.4,5.8,6.3,8.7c3.5,5.5,2.8,11.8-1.6,16.5c-4.7,5-9.9,4.2-15.2,1.3c-6.3-3.3-10.3-9.1-15-14.4
		c-4.9,4.9-9.5,9.8-15.8,12.6c-7.3,3.3-14.1,2.2-17.8-2.6c-4.2-5.4-3.6-12.9,2.1-19c3.1-3.4,6.7-6.3,10.6-9.8
		c-4-3.5-7.9-7.1-12-10.5c-3.8-3.2-5.7-7.4-5.9-12.2c-0.4-8.8,6-13.7,14.5-11.7C375.4,469.8,379.6,474.1,384.8,478z"/>
	<path class="st1" d="M311.9,509.2c2.6,3.6,4.8,6.3,6.7,9.2c3.7,5.7,2.3,11.1-1.8,16c-4.2,5-9.3,4.5-14.5,2
		c-6.7-3.2-11-9.1-15.7-14.7c-4.5,4.2-8.5,8.7-13.9,11.6c-8,4.3-15.7,3.7-19.7-1.5c-4.3-5.6-3.2-13.7,3-20.1c2.9-3,6.2-5.6,9.7-8.7
		c-4.1-3.6-8.1-7.1-12.1-10.6c-4.2-3.6-6-8.1-5.6-13.6c0.5-7.9,6-11.9,13.8-10.4c6.4,1.3,10.8,5.8,16.1,9.7c1.2-5.6,2-10.8,3.4-15.8
		c2.3-8.3,7.9-12.5,15-11.6c6.9,0.8,10.4,5.8,10.7,14.7c0.2,6.3-2.1,12.2-3.1,18.8c4.9-2.4,9.1-4.8,13.5-6.6
		c6.9-2.8,13.6-0.6,17.1,5.1c3.4,5.5,2.1,11.4-4,16.5C325.1,503.5,319.3,507.4,311.9,509.2z"/>
	<path d="M457.3,436.7c1.9,1.6,1.3,3.8,1.3,5.8c0,31.9,0,63.7,0,95.6c0,2,0.6,4.2-1.3,5.9c-1.9-19.1-0.6-38.3-0.6-57.5
		C456.7,469.9,455.3,453.3,457.3,436.7z"/>
	<path class="st2" d="M182.1,422.5c7.1,0,14.2,0,21.3,0c0,0.6,0,1.1,0,1.7c-4,0-7.9,0-11.9,0c-11.7,0-23.4-0.3-35.1,1.3
		c-2.3,0.3-5.1,1-7.2-1.2C160,421.3,171.1,422.6,182.1,422.5z"/>
	<path d="M143.5,555.3c0-18.1,0-36.1,0-54.2c0.6,18.5,3,37,0.3,55.4C143.5,556.1,143.4,555.7,143.5,555.3z"/>
	<path class="st3" d="M550.8,528.4c-4.4-1.1-24.7-21.1-26-25.6c0-0.1,0.3-0.3,0.4-0.5C533.7,511,542.2,519.7,550.8,528.4z"/>
	<path d="M168.5,556.5c-2.3-2.9-1.1-6.2-1.1-9.4c-0.1-14-0.1-28.1,1.4-42.1c0,16.8,0,33.5,0,50.3
		C168.9,555.8,168.8,556.2,168.5,556.5z"/>
	<path class="st4" d="M482.6,429.2c0,14.1,0,28.1,0,42.2c-0.6,0-1.3,0-1.9,0c0-15.3,0-30.6,0-45.8
		C481.7,426.6,482.5,427.7,482.6,429.2z"/>
	<path class="st5" d="M201.1,448c-10.3,0-20.7,0-31,0c0-0.6,0-1.2,0-1.7c14.8,1.1,29.7-1.6,44.5,1.4
		C210.1,447.8,205.6,447.9,201.1,448z"/>
</g>
</svg>
