<?xml version="1.0" encoding="utf-8"?>
<!-- Generator: Adobe Illustrator 21.1.0, SVG Export Plug-In . SVG Version: 6.00 Build 0)  -->
<svg version="1.1" id="Layer_1" xmlns="http://www.w3.org/2000/svg" xmlns:xlink="http://www.w3.org/1999/xlink" x="0px" y="0px"
	 viewBox="0 0 700 965" style="enable-background:new 0 0 700 965;" xml:space="preserve">
<style type="text/css">
	.st0{fill:#FEFEFE;}
	.st1{fill:#A4A5A7;}
	.st2{fill:#020202;}
	.st3{fill:#E7E7E7;}
	.st4{fill:#DEDEDE;}
</style>
<g>
	<path class="st0" d="M702,567c0,6,2.3,14.3-0.7,17.3c-3,3-11.3,0.7-17.3,0.7c-223.3,0-446.7-0.1-670,0.3c-10.3,0-14.2-2-12.1-12.3
		c0.4-1.9,0.1-4,0.1-6c7.2-5.2,15.5-2.4,23.3-3.1c3-0.2,6-0.2,9,0c7.6,0.5,10.8-2.7,10.7-10.4c-0.3-15.3-0.2-30.6,0-46
		c0.2-13,2.2-15,15.1-15.6c13.6-0.6,19.6-10.6,14.1-23.3c-1.9-4.3-5.7-4.4-9.2-4.3c-20.9,0.6-20-4.6-19.9-21.9
		c0.1-14.2,2-16.1,16.1-16.5c2.3-0.1,4.7,0,7-0.1c1.7-0.1,3.7,0.2,4.9-0.8c7.6-7,3.1-16.1,3.6-24.3c0.3-6-4.7-6.4-9.2-6.5
		c-17-0.2-34,0-51-0.1c-4.9,0-10.1,0.6-14.3-3.1c-1.8-6.9,2.6-6.1,7-6c63,0.1,126,0,189,0c165.3,0,330.7,0,496,0c4,0,9.9-2.1,8,6
		c-7.2,5.1-15.5,2.5-23.3,2.9c-10.5,0.6-11.5,1.1-11.6,11.5c-0.2,14.7,0,29.3-0.1,44c0,1.7,0.1,3.4-0.2,5c-0.5,3.1,0.2,7.7-3.8,8.2
		c-3.8,0.4-5-3.9-6.1-6.9c-5.8-16.3-12-32.5-17.4-49c-3-9.3-8.2-13.2-18.3-12.8c-21.4,0.7-20.3-1.6-20.3,20c0,45,0,90,0,135
		c0,15.1,0.2,15.2,14.8,15.3c1.7,0,3.3,0,5,0c11.1-0.2,12-1.1,12.2-12c0.2-15.7,0-31.3,0.1-47c0-2.3,0-4.7,0.3-7
		c0.4-2.6,0.5-6.1,3.4-6.7c3.5-0.8,5.2,2.5,6.4,5.2c5,11.3,8.9,23,13.6,34.4c0.9,2.2,1.8,4.3,2.4,6.6c4.4,18.2,12.4,31.5,34.6,26.7
		C696.6,563.6,699.6,564.9,702,567z"/>
	<path class="st1" d="M702,567c-1.3,0-2.7,0-4,0c-10-0.2-22.1,3-29.3-1.5c-8.2-5.1-8.8-18.5-12.8-28.3
		c-5.9-14.7-11.5-29.6-17.2-44.6c-3.9,1.3-2.2,4.1-2.2,5.9c-0.2,20.3-0.2,40.6,0,60.9c0.1,5.5-1.5,7.9-7.3,7.6c-8-0.4-16-0.3-24,0
		c-5.3,0.2-6.9-1.9-6.9-7c0.1-53.9,0.1-107.9,0-161.8c0-5.7,2-7.2,7.6-7.4c30.9-1,30.8-1.2,41.1,28c5,14.3,10.2,28.5,17.4,42.4
		c0-20.1,0.3-40.1-0.2-60.2c-0.2-7.7,1.7-10.8,9.9-10.2c9.3,0.7,18.6,0.2,28,0.2C702,449.7,702,508.3,702,567z"/>
	<path class="st1" d="M2,391c23.3,0,46.6,0.2,70-0.1c6.5-0.1,8.9,1.9,8.5,8.5c-0.5,7.6-0.3,15.3,0,23c0.2,5.3-2,7.3-7.1,6.8
		c-0.7-0.1-1.3,0-2,0c-25,0.5-24.8,0.5-23.4,25.5c0.3,5.3,2.3,7.2,7.2,6.7c1-0.1,2-0.1,3,0c6.3,1.1,16.1-3.5,18.4,2.7
		c3,8.3,1.3,18.3,0.9,27.6c-0.2,4.2-4.6,2.8-7.3,3c-22,0.9-22,0.9-22,22.7c0,13-0.5,26,0.2,39c0.4,8-1.6,11.3-10.3,10.8
		C26,566.4,14,567,2,567C2,508.3,2,449.7,2,391z"/>
	<path class="st1" d="M200.2,464.5c0,18.3-1,36.7,0.2,55c2,31.2-20.4,48.2-44,52.8c-25,5-52.2-8.2-61.9-29.9
		c-3.2-7.1-3.9-14.8-4-22.4c-0.2-39.6,0.1-79.3-0.2-118.9c-0.1-7.9,2.4-10.7,10.3-10.1c9.3,0.6,18.7,0.7,28,0
		c8.3-0.7,9.8,2.8,9.8,10.3c-0.3,41.3-0.2,82.6-0.1,123.9c0,4-0.3,8,1.5,11.8c1.4,2.9,3.1,5.5,6.5,5.3c3.3-0.2,5.4-2.6,5.8-5.9
		c0.7-5.3,1.5-10.6,1.5-15.8c0.1-40,0.3-80-0.1-119.9c-0.1-7.5,2.2-9.9,9.6-9.5c9.6,0.6,19.3,0.5,29,0c6.8-0.4,8.4,2.3,8.3,8.7
		C200,421.2,200.2,442.9,200.2,464.5z"/>
	<path class="st1" d="M536,464c0-21.3,0.2-42.6-0.1-63.9c-0.1-6.7,1.4-9.6,8.7-9.2c10.3,0.6,20.7,0.4,31,0c5.9-0.2,8.2,1.5,8.2,7.8
		c-0.2,41.6,0.1,83.3-0.2,124.9c-0.1,19.9-10.1,34.4-27.5,43c-20.2,9.9-40.7,8.9-60-2.9c-14.8-9-22.1-22.4-22.1-39.9
		c0.1-41,0.2-81.9-0.1-122.9c-0.1-7.8,1.9-10.6,10-10c9.3,0.7,18.7,0.6,28,0c7.2-0.4,8.9,2.4,8.9,9.2c-0.3,41-0.1,81.9-0.1,122.9
		c0,4.3,0.1,8.6,1.4,12.8c1.1,3.4,2.8,6.4,6.7,6.4c4.3-0.1,6.5-3.3,7-7.2c0.6-3.9,0.4-8,0.5-12C536,503.3,536,483.7,536,464z"/>
	<path class="st1" d="M282,464.8c0-21.7,0.2-43.2-0.1-64.8c-0.1-6.7,1.5-9.8,8.8-9.1c9.2,0.9,21-3.8,27,1.8
		c6.1,5.7,1.5,17.7,1.9,26.9c0.4,7.6-0.1,15.3,0.1,23c0.3,8.4-0.6,16.3-4.6,24c-5.1,9.6-5.3,20.5-0.5,29.9c4.9,9.8,5.3,19.7,5.1,30
		c-0.1,11.3-0.2,22.7,0,34c0.1,4.6-1.5,6.9-6.3,6.4c-0.3,0-0.7,0-1,0c-27.3,1.3-27.3,1.3-37.2-24.1c-6.4-16.4-12.7-32.9-19.1-49.3
		c-0.1-0.3-0.4-0.4-2-1.9c0,18.9,0,36.5,0,54.2c0,21.2,0,21.2-21.4,21.2c-16.6,0-16.6,0-16.6-17c0-49.3,0.2-98.6-0.2-147.9
		c-0.1-8.3,1.4-11.5,10.7-11.3c27.5,0.6,27.6,0.1,36.9,25.8c5.8,15.9,11.3,31.9,17,47.9C280.6,464.6,281.1,464.6,282,464.8z"/>
	<path class="st1" d="M423.7,391c10.7,0,21.3,0.3,32-0.1c5.9-0.2,8.9,1.5,8,7.8c0,0.3,0,0.7,0,1c-0.1,9,2.8,19.8-1.2,26.5
		c-4.7,7.7-16.4,2.1-25.1,3c-4.9,0.5-7.6,1.9-7.2,7.1c0,0.7,0,1.3,0,2c-0.7,22.4-0.7,22.7,21.7,23c6.8,0.1,8.7,2.5,8.2,8.8
		c-0.6,7.6,2.2,17.1-1.4,22.4c-4.1,6.1-14.2,1.9-21.6,2.2c-6.1,0.2-7,3-7,8.1c0.2,18.7-0.2,37.3,0.2,56c0.1,6.6-1.9,8.8-8.5,8.5
		c-10.3-0.5-20.7-0.3-31-0.1c-4.7,0.1-6.6-1.5-6.5-6.3c0.2-14.7,0.1-29.3,0.1-44c0-3.9,2.2-6.8,4.2-9.9c10.7-16.5,10.9-33-0.3-49.4
		c-2-3-4-5.9-4-9.9c0.2-16.7,0.2-33.3,0-50c-0.1-5.6,2.5-6.7,7.3-6.6C402.4,391.2,413,391,423.7,391z"/>
	<path class="st2" d="M374.4,482.8c-6.6,6.7-13.4,11.8-3.3,18.6c-1,0.9-1.6,2-2.2,2c-7-0.5-13.6-1.5-20.9,1.3
		c-5.9,2.3-11.2-2.5-14.4-8.1c-2.9-5.1-1.7-10.1,2.2-13.6c4.2-3.6,4.4-7.2,3.5-12.1c-0.9-5.5,2-9.8,7.4-11.5
		c5.1-1.7,9.8-0.3,13.4,3.9c3.8,4.4,3.3,8.8,0.5,13.7c-1.2,2.2-6.2,3.2-3.2,7c2.6,3.3,4.4-1.4,6.9-1.3
		C367,482.9,369.6,482.8,374.4,482.8z"/>
	<path class="st3" d="M352.3,490.7c0.2,3.5-2,4.4-4.3,4.9c-2.6,0.7-4.8-0.1-4.9-3.2c-0.1-2.8,1.4-5.3,4.4-5.7
		C350.3,486.5,350.8,489.6,352.3,490.7z"/>
	<path class="st4" d="M351.1,466.7c2.4-0.2,4,1.2,4.1,3.2c0.2,2.2-0.7,4.6-3.6,4.9c-2.4,0.3-3.7-1.2-4-3.3
		C347.4,469.1,348.2,467.1,351.1,466.7z"/>
</g>
</svg>
