<?xml version="1.0" encoding="utf-8"?>
<!-- Generator: Adobe Illustrator 21.1.0, SVG Export Plug-In . SVG Version: 6.00 Build 0)  -->
<svg version="1.1" id="Layer_1" xmlns="http://www.w3.org/2000/svg" xmlns:xlink="http://www.w3.org/1999/xlink" x="0px" y="0px"
	 viewBox="0 0 700 965" style="enable-background:new 0 0 700 965;" xml:space="preserve">
<style type="text/css">
	.st0{fill:#FEFEFE;}
	.st1{fill:#242222;}
	.st2{fill:#252223;}
	.st3{fill:#222021;}
	.st4{fill:#221F20;}
	.st5{fill:#1F1D1E;}
	.st6{fill:#242323;}
	.st7{fill:#2C2B2B;}
	.st8{fill:#252525;}
	.st9{fill:#626262;}
	.st10{fill:#403F40;}
	.st11{fill:#353535;}
	.st12{fill:#1C1C1C;}
	.st13{fill:#202020;}
	.st14{fill:#070707;}
	.st15{fill:#2C2C2C;}
	.st16{fill:#262626;}
	.st17{fill:#282828;}
	.st18{fill:#5C5B5B;}
	.st19{fill:#434242;}
	.st20{fill:#A3A3A3;}
	.st21{fill:#1D1D1D;}
	.st22{fill:#4E4E4E;}
	.st23{fill:#2F2F2F;}
	.st24{fill:#808080;}
	.st25{fill:#919191;}
	.st26{fill:#1F1F1F;}
	.st27{fill:#181818;}
	.st28{fill:#666666;}
	.st29{fill:#F8F8F8;}
</style>
<g>
	<path class="st0" d="M351.6,831.7c-113.7,0-227.4-0.1-341,0.2c-6.2,0-7-1.6-7-7.3c0.2-227.4,0.2-454.7,0-682.1c0-6.2,1.6-7,7.3-7
		c227.4,0.2,454.7,0.2,682.1,0c6.2,0,7,1.6,7,7.3c-0.2,227.4-0.2,454.7,0,682.1c0,6.2-1.6,7-7.3,7
		C579,831.7,465.3,831.7,351.6,831.7z"/>
	<path class="st1" d="M508.3,488.7c-1.1,0-2.3,0-3.4,0c-3.8-1.3-7.8-0.3-11.6-0.6c-1.7-0.2-4.3,0.9-4-2.5c3.4-4.6,2.2-10,2.3-15
		c0.1-8.6,0-17.3,0-25.9c0-5.5,0.3-11.1-8-14.4c9.2,0,15.8,0,23.5,0c-5.8,4.3-6.1,9.9-5.9,15.8c0.2,8.9,0.2,17.9,0,26.8
		c-0.1,6.2,1.8,11.2,7.2,14.6c0.6,0.3,0.8,0.6,0.6,0.9C508.7,488.5,508.5,488.7,508.3,488.7z"/>
	<path class="st2" d="M388.2,485.4c4.1-8.8,1.4-18.2,2-27.3c0.4-5.5-0.1-11,0.1-16.4c0.2-4.7-1.4-8.4-7.3-11.4c8.8,0,15.5,0,22.3,0
		c-7.2,7.8-8,44.7-1.2,54.9C400,489.2,392.9,489.3,388.2,485.4z"/>
	<path class="st3" d="M212.3,438.2c0.9-3,1.6-6,4.5-8.9c10.9,19.5,15,41.6,27.7,59c-5.9,0-13.5,0-21,0c11-7.3,0.9-14.6-0.5-22.1
		c-1.4-0.9-2.9-1.8-3.6-3.4c-2.6-6.1-5.2-12.2-7.4-18.4C211.8,442.3,211.4,440.2,212.3,438.2z"/>
	<path class="st4" d="M99.4,489.2c-13.7-1.8-20.9-8.9-23.2-22.6c-2.4-14.7,4-28.9,15.7-34.6c2.3-1.1,4.9-1.7,7.3-2.5
		c1.8-0.4,2.4,0.3,1.9,2c-19.4,12.3-20.3,41.9-1.7,55.9c0.4,0.4,0.5,0.8,0.4,1.2C99.7,489,99.5,489.2,99.4,489.2z"/>
	<path class="st5" d="M593.4,479.3c-0.1-11.6-0.2-23.1-0.4-34.7c0-4.1,0.2-8.2-2.8-11.5c3.6-4.6,8-2.3,12.2-1.6
		c0,5.5-0.1,11-0.1,16.5c0,10.6,0,10.6,10.4,8.2c0.7,1.7-0.5,2.4-1.7,3.1c-7.2-1.9-9.7,0.8-8.8,8.2c0.8,6.5-1,13.4,5.3,18.2
		c-4.2,4.9-9.9,2.8-14.3,1.7C589.8,486.6,593.6,482.2,593.4,479.3z"/>
	<path class="st6" d="M325.6,464.7c-4.5,0.3-9.1,1-13.6,0.7c-5.9-0.4-6.6,2.4-5.7,7.2c1.6,8.7,6.5,13.7,15.5,14.2
		c1.9-0.7,2.2,0.2,2,1.9c-13,1.8-20.5-1.3-24-9.7c-3.9-9.4-1-18.4,8.2-25.3c1.5-0.4,2.3,0.4,2.7,1.7c-0.6,4.2,1.6,5.2,5.4,5.4
		c3.8,0.2,5.8-3.3,9.3-3.3C327.9,459.8,327.5,462.3,325.6,464.7z"/>
	<path class="st7" d="M99.4,489.2c0-0.6,0-1.2,0-1.8c5.1,2.2,10,2,14.7-1.1c7.1-4.7,7-13.3-0.9-19.3c7.3,0,13.9,0,20.8,0
		c-0.5,2.6-4.4,2.7-4.8,5.9c-0.5,3.6,1.7,8.7-1.3,10.5c-5.8,3.4-12.2,6.6-19.3,6.8C105.5,490.2,102.2,491.3,99.4,489.2z"/>
	<path class="st8" d="M593.4,479.3c0,8.9,2.5,10,14.1,6.3c14.1,4,21.1,1.2,27.3-11.2c0.2,0.1,0.5,0.2,0.5,0.3
		c1.1,14.3,1.1,14.2-13,14.1c-11.8-0.1-23.6,0-37.6,0C589.8,486,592.4,483.3,593.4,479.3z"/>
	<path class="st9" d="M212.3,438.2c0.7,1.9,1.3,3.7,2,5.6c-0.2,0.2-0.4,0.4-0.5,0.7c-1.4,4.4-4.4,8.8-3.8,13.1
		c0.8,6.2,8.4,1.2,11.2,5.2c0.6,1.2,1.2,2.4,1.9,3.5c-1.4-0.1-2.8-0.2-4.2-0.4c-9.4-1.4-17.3-0.2-19.9,10.9c-0.7,1-1.3,1-2,0
		C201.7,463.8,206.2,450.7,212.3,438.2z"/>
	<path class="st10" d="M388.2,485.4c5.3,2.9,10.6,3.2,15.9-0.2c6.8,3,13.6,2.6,20.4-0.1c4.8,0.4,6-2.4,5.6-6.5
		c0.5-1.9,1.1-3.8,1.6-5.8c0.5,0,0.9,0,1.4,0c0,4.3,0,8.6,0,12.9c0,2.7-1.7,3.3-4,3.3c-15.2,0-30.4,0-45.9-1.2
		C384.9,487,386.6,486.2,388.2,485.4z"/>
	<path class="st11" d="M398,552c5.1-7.6,2.1-10.6-2.9-13.1c-5-2.5-6.5-6.2-1.8-12.8c-0.8,7,3.2,8.3,6.8,10.5
		C407.1,540.6,407,544.9,398,552z"/>
	<path class="st12" d="M379.3,538.3c0-2.9,0.5-5.8-0.1-8.5c-0.7-2.7-0.6-3.7,2.4-3.6c3.6,0,2.1,2,2,3.9c-0.3,5.4-0.2,10.9,0,16.3
		c0.1,1.7,2.1,3.8-1.7,3.9c-3.9,0.2-2.8-2-2.5-4.3C379.6,543.4,379.4,540.8,379.3,538.3C379.4,538.3,379.3,538.3,379.3,538.3z"/>
	<path class="st8" d="M336.4,532.4c0.1-1.9-0.8-4.1,2.6-5.9c3.4,7.7,6.7,15.3,10.1,23c-9.3,3.2-4.4-6.5-8-8.2
		C338.6,538.8,335.2,536.9,336.4,532.4z"/>
	<path class="st13" d="M309.9,537.5c0-2.6,0.1-5.1,0-7.7c-0.1-1.5-1.5-3.5,1.5-3.6c2.5-0.1,2.4,1.7,2.5,3.5c0.2,6,0.1,11.9,0.7,17.9
		c0.2,2.1-0.4,2.6-1.9,2.7c-1.5,0-3.5,0.5-3-2.5c0.5-3.4,0.4-6.8,0.6-10.2C310.1,537.5,310,537.5,309.9,537.5z"/>
	<path class="st14" d="M359.9,539.8c-2.5,2.5,3.9,9.7-2.1,9.6c-5.3-0.1,0-6.8-1.3-10.5c-1-2.9-0.4-6.3-0.7-9.4
		c-0.1-1.4-0.8-2.9,1.3-3.3c1.7-0.3,2.8,0.8,2.8,2.5C360,532.2,359.9,535.7,359.9,539.8z"/>
	<path class="st15" d="M197,476.8c0.7,0,1.3,0,2,0c-0.6,4.4-1,8.6,3.9,11.6c-4.9,0-9.7,0-16.6,0C192.5,485.7,194.8,481.3,197,476.8z
		"/>
	<path class="st16" d="M364.6,526.8c5.7,0.8,8.4,4.2,6.6,6.1c-5.9,6.6,0.2,11.2,2,17.2c-7.5-0.4-7.8-7.2-9.3-10.9
		C362.9,536.4,371,532.6,364.6,526.8z"/>
	<path class="st17" d="M115.1,429.8c3.6-0.5,6.1,4,10.4,1.9c2.9-1.5,2,1.7,2.1,2.9c0.2,4,0.1,7.9,0.1,13.8
		c-3.8-7.3-6.2-13.7-12.5-16.9c-0.4-0.4-0.6-0.7-0.5-1.1C114.8,430,115,429.8,115.1,429.8z"/>
	<path class="st18" d="M602.4,431.6c-4.1,0.5-8.5-1.8-12.2,1.6c-1.3-0.6-2.5-1.3-3.8-1.9c14.6-0.2,29.1-3.8,43.6,0.3
		c-1.8,2.4-4.7,0.5-6.8,1.7C616.4,431.1,609.4,431.4,602.4,431.6z"/>
	<path class="st19" d="M508.3,488.7c0-0.4,0-0.9,0-1.3c5.8-0.2,11.7,0,17.3-2.1c5.6,1,5.8-2.7,5.7-6.6c0.6-2,1.2-4,1.9-6.2
		c0.9,0.6,1.2,0.8,1.2,0.9c1,15.9,1,15.9-14.9,15.6C515.7,488.9,512,488.8,508.3,488.7z"/>
	<path class="st20" d="M336.4,532.4c1.5,3,3.1,5.9,4.6,8.9c-6.9,0.3-6.9,0.3-10.9,6.1C331.6,542.2,331.8,536.5,336.4,532.4z"/>
	<path class="st21" d="M325.6,464.7c-0.2-2.5,0.8-5.2-1.7-7.1c-2.4-0.1-4-1.1-4.3-3.7c0.4-1.3,0.9-2.3,2.6-1.6
		c3.5,1.9,6.9,3.9,8.2,8.1C331.9,465.4,329.7,466.1,325.6,464.7z"/>
	<path class="st22" d="M322.9,443.3c-2-0.6-4-1.4-3.9-3.8c0.1-2.6,1.6-4.4,4.4-4.1c2.2,0.2,3.6,1.8,3.5,4.1
		C326.7,441.8,324.9,442.8,322.9,443.3z"/>
	<path class="st23" d="M308.1,435.3c2.5,0.7,4,1.8,3.8,4.2c-0.2,2.4-1.8,3.5-4,3.4c-2.3-0.1-3.6-1.6-3.4-4
		C304.6,436.5,306.5,435.8,308.1,435.3z"/>
	<path class="st21" d="M611,459.3c0.6-1,1.1-2,1.7-3.1c1.8-1.3,1.6-4.5,4.6-4.9c2.1,4.1-1,7.5-1.8,11.1
		C615.3,463,612.6,460.3,611,459.3z"/>
	<path class="st12" d="M430.2,478.6c2.4,2.7,2.3,5.9,0,8.1c-1.5,1.4-4.2,1-5.6-1.5C426.4,482.9,428.3,480.7,430.2,478.6z"/>
	<path class="st12" d="M319.2,538.2c3-4,3.1-7.4,0.1-11.6c4.7,0.7,6.4,2.5,6.5,5.7C326,535.6,324.6,537.7,319.2,538.2z"/>
	<path class="st24" d="M115.1,429.8c-0.1,0.6-0.1,1.1,0,1.7c-4.7-0.9-9.3-1.2-14-0.1c-0.6-0.7-1.3-1.3-1.9-2
		C104.6,427.1,109.9,426.8,115.1,429.8z"/>
	<path class="st25" d="M322.2,452.4c-0.7,0.7-1.3,1.3-2,2c-3.4,0.9-6.7,2.6-10.3,1.4c-0.6-0.7-1.2-1.4-1.8-2.1
		C312.5,450.6,317.1,449.1,322.2,452.4z"/>
	<path class="st26" d="M531.3,478.6c2.2,2.6,2.3,5.6,0.2,7.8c-1.7,1.7-4.3,1.3-5.8-1.2C527.5,483,529.4,480.8,531.3,478.6z"/>
	<path class="st19" d="M489.2,485.5c4.6,4.3,11-0.6,15.6,3.1c-6.5,0-13,0-21.7,0C486.2,487.1,487.7,486.3,489.2,485.5z"/>
	<path class="st27" d="M623.2,433.3c1.7-3.1,4.4-1.6,6.8-1.7c0.1,3,0.3,6,0.4,8.9C627.9,437.8,626,435.1,623.2,433.3z"/>
	<path class="st28" d="M323.8,488.7c-0.7-0.6-1.3-1.2-2-1.9c3.4-1.8,7.3-2.9,9.5-6.6C330.9,484.9,328.4,487.7,323.8,488.7z"/>
	<path class="st29" d="M221.1,462.7c-17.1,0.3-17.1,0.3-10.2-15.5c0.7-1.6,1.1-3.3,3.3-3.4C216.6,450.1,218.8,456.4,221.1,462.7z"/>
	<path class="st29" d="M309.8,455.7c3.3-1.8,6.5-3.6,10.3-1.4c1.2,1.1,2.5,2.2,3.7,3.3c-0.4,1.9,1.9,5.3-1.8,5.5
		c-5,0.3-10.5,1.8-14.9-1C305.4,461,308.1,457.7,309.8,455.7z"/>
</g>
</svg>
