<?xml version="1.0" encoding="utf-8"?>
<!-- Generator: Adobe Illustrator 21.1.0, SVG Export Plug-In . SVG Version: 6.00 Build 0)  -->
<svg version="1.1" id="Layer_1" xmlns="http://www.w3.org/2000/svg" xmlns:xlink="http://www.w3.org/1999/xlink" x="0px" y="0px"
	 viewBox="0 0 700 965" style="enable-background:new 0 0 700 965;" xml:space="preserve">
<path d="M274.2,523.7c-79,1.1-138.9,8.7-189.1,45.2C65.9,551.6,42.6,538,9.5,530L0,442.9c21.4,1,57.8,9.1,87.4,27.9
	c48.6-35.1,113-38.7,204.4-39.7L274.2,523.7z M369,524.8c-53.8,0-62.5-6.5-62.4-48.4c0.1-40.8,14.9-47.6,62.2-47.6
	c45,0,60.5,2.9,60.5,30.3h-29.5c-1.9-6.7-3-9.4-28-9.4h-6.6c-19.1,0-30.4,1.3-30.4,21.3v11.5c0,20.2,12.9,21.5,29.8,21.5h7.6
	c23.8,0,29.2-2.8,29.2-11.4v-3.9h-31.3v-17.4h59.1v21C429.3,519.5,408.6,524.8,369,524.8z M544.6,523.7l-12.3-22.3h-55l-12,22.3
	h-28.2l52-93.7h32.4l53.2,93.7H544.6z M504.6,451l-17.9,33h36.1L504.6,451z M639.8,524.8c-34.5,0-58.3-1.1-59.4-28.9h28.2
	c1,6,5.2,8.6,25.8,8.6h13.8c17.8,0,23.8-1.8,23.8-9c0-6-4.3-7-20.5-7.4l-22.7-0.6c-24.4-0.6-46.7-3.2-46.7-28.6c0-26,21.8-30,56-30
	c38.1,0,55.8,3.8,56.8,29.3h-28.5c-1.1-7.6-6.7-8.8-23.7-8.8h-12.6c-15.5,0-20.1,3.2-20.1,8.8c0,5.7,4.2,7.9,21.9,8.3l18.1,0.4
	c36,0.8,49.9,3.9,49.9,28.2C700,526.5,662,524.8,639.8,524.8z"/>
</svg>
