<?xml version="1.0" encoding="utf-8"?>
<!-- Generator: Adobe Illustrator 21.1.0, SVG Export Plug-In . SVG Version: 6.00 Build 0)  -->
<svg version="1.1" id="Layer_1" xmlns="http://www.w3.org/2000/svg" xmlns:xlink="http://www.w3.org/1999/xlink" x="0px" y="0px"
	 viewBox="0 0 700 965" style="enable-background:new 0 0 700 965;" xml:space="preserve">
<style type="text/css">
	.st0{fill:#FEFEFE;}
	.st1{fill:#010101;}
	.st2{fill:#020202;}
	.st3{fill:#D5D5D5;}
	.st4{fill:#FDFDFD;}
	.st5{fill:#FCFCFC;}
	.st6{fill:#FBFBFB;}
	.st7{fill:#F9F9F9;}
</style>
<g>
	<path class="st0" d="M354.1,831.2c-114.8,0-229.5,0-344.3,0.1c-4.8,0-5.7-0.9-5.7-5.7c0.2-229.1,0.2-458.2,0-687.2
		c0-4.8,0.9-5.7,5.7-5.7c229.5,0.2,459.1,0.2,688.6,0c4.8,0,5.7,0.9,5.7,5.7c-0.2,229.1-0.2,458.2,0,687.2c0,4.8-0.9,5.7-5.7,5.7
		C583.6,831.1,468.8,831.2,354.1,831.2z"/>
	<path d="M105.7,438.6c21.4-15.1,46-20.6,70.5-26.7c9.4-2.4,18.9-4.3,28.5-5.6c12.3-1.8,22,2.3,28.7,12.4c3.5,5.3,6.2,4.8,11.1,2
		c8.8-5.1,18-9.5,27.3-13.5c11.1-4.8,20.3,2.5,21.7,17.2c6.5-2.3,11.2-7.2,17.3-9.9c10.3-4.7,19.4-2.4,28.4,2.8
		c2.5,1.4,5.1,3.4,3.8,6.6c-1.1,2.6-4,3.5-6.9,3.6c-6.6,0.3-13.1-0.1-19.6,2.2c-13.5,4.7-22.5,15-30,25.8
		c-17.5,24.9-32,51.8-46.2,78.7c-3.4,6.5-8,12.2-10.7,19.1c-1.3,3.2-4.7,6-9.2,4c-4.7-2.1-7.1-6-5-10.6c6-13.2,9.7-27.3,16.8-40.1
		c13.9-25,27.7-50,41.5-75c1.5-2.7,3.8-6,2.1-8.2c-2.2-2.8-5.7,0.2-8,1.3c-7.9,3.8-15.5,8.3-23.1,12.5c-2.1,1.2-3.5,2.9-3.5,5.6
		c-0.2,12.3-6.3,22-12.8,32.1c-8.2,12.9-16.4,25.6-26.4,37.1c-27.5,31.5-59.1,57.9-97.1,75.7c-13.3,6.2-27.2,10.8-42.8,8.4
		c-15.5-2.4-24.6-10.9-25.7-28.1c-1.4-21,3.5-40.8,13.1-59.5c1.5-3,2.1-5.7,1.8-9.2c-1-11.8,5.3-21.7,13.4-28.4
		c15.9-13.2,23.5-31.8,34.9-47.9c12.6-17.7,25.1-35.2,40.9-50.5c13.8-13.3,28.2-25.8,42.9-38c8.4-7,16.5-15.1,27.8-17.1
		c9.1-1.6,18.4-1.3,26.6,4.3c6.9,4.6,9.3,11.2,9,19.1c-0.5,12.2-5.8,22.7-12.2,32.7c-2.6,4.1-7,6.4-11.9,3.5
		c-5.4-3.2-3.8-6.8-0.9-11.5c4.9-8,9.7-16.4,9-26.5c-0.5-7.6-5.2-10.7-12.7-9.6c-12.5,1.8-21.4,10.1-29.8,17.9
		c-10.7,9.9-21.8,19.3-32.1,29.5c-17.6,17.3-34.3,35.4-46.8,56.9C107.9,435.3,106.8,436.9,105.7,438.6z"/>
	<path d="M503.1,449.1c-8.8,18.3-22.4,33.3-35.7,48.1c-9.7,10.8-17.8,23.6-31,31.1c-7.3,4.2-14,5.4-21.3,0.6
		c-8.4-5.5-6.7-13.7-4.7-21c5.2-19,12.3-37.3,21.9-54.5c2.8-5.1,5.1-10.4,6.2-16.1c0.3-1.5,1.3-3.4-0.4-4.5c-1.7-1-3.7-0.6-5.2,0.6
		c-2.4,1.8-5,3.5-6.9,5.8c-2.7,3.1-5.5,5.4-9.7,6.1c-3.1,0.6-4.9,3.2-6.7,5.7c-12.5,18.2-20.9,38.4-27.9,59.2
		c-2.7,8.1-5.5,16.1-7.4,24.4c-1.1,4.6-3.4,7.6-8.9,5.4c-5.9-2.4-8.1-6.7-6.3-11.8c5.2-14.3,10-28.7,15.5-42.9
		c3.4-8.7,7.7-17,11.9-26.4c-8.5,1.7-12.9,5.6-17.2,12.7c-9.7,16.2-19.1,32.6-30.6,47.7c-5.6,7.3-10.4,15.5-18.3,20.6
		c-11.9,7.6-23.3,16.5-38.4,17.1c-6.6,0.2-12.9-0.9-18.8-3.6c-12-5.5-12.4-23.2-3.8-31.2c5.4-5,10.2-10.5,16.1-15.1
		c8.7-6.7,16-15,26.2-20c16.1-8,31.6-17.1,46.9-26.5c3.2-1.9,9.1-3.2,7.5-7.4c-2.1-5.7-7-1.5-10.7-0.5
		c-13.9,4.1-25.2,12.5-35.3,22.6c-3.2,3.2-6.1,5.3-10.9,3.8c-5.6-1.8-7.5-6.1-4-10.8c11.1-14.9,26.5-23.3,44-28.4
		c6.3-1.8,12.4-4.8,19.4-3.1c4.5,1.1,8.5,3,10.6,7c1.9,3.6,3.8,3,6.6,1.4c14.5-8.3,28.4-17.2,38.6-30.9c3.7-4.9,8.2-5,13.2-0.7
		c1.9,1.7,3.3,3.6,6.4,3.1c16.4-2.3,24.4,7.3,19.7,24.4c-2.7,9.7-7.3,18.8-11.8,27.9c-6.5,13.2-13.1,26.5-16,41.2
		c-0.4,1.9-2.1,4.3,0.4,5.6c2.3,1.2,3.8-1.2,5.2-2.5c15.7-14.1,29.1-30.2,41.3-47.4c6.8-9.7,13.8-19.4,20.7-29
		c1.6-2.2,3.4-4.6,6.6-3.7c3.9,1.1,7.5,2.7,7.3,7.8C508,444.6,505.6,446.9,503.1,449.1z"/>
	<path d="M508.8,440.9c7.9-19.4,15.7-38.9,23.9-58.2c1.2-2.9,1-4-1.3-6.2c-5.3-5-3.3-11.9,3.9-12.6c5.1-0.5,6.8-3,8.6-7.2
		c6.5-14.7,10.8-30.3,18.2-44.6c1.7-3.3,9.6-7,13-5.3c4.9,2.6,5.3,6.5,2.7,11.1c-9.4,16.2-13.7,34.6-22.7,51.7
		c14.7,4.9,29.3,8.6,44.6,10.4c19.9,2.3,39.7,4.4,59.6-0.1c5.2-1.2,8.9,0.7,10,5.9c1.1,5.6-2.7,7.8-7.6,8.8c-21,4-42,2.9-63.1,0.3
		c-15-1.8-29.7-5.5-44-10c-4.3-1.3-5.4,0-7,3.5c-9.7,21.2-18.5,42.8-26.8,64.6c-6.4,16.7-12.5,33.6-18.6,50.4
		c-1.1,3-1.4,6.3-1.6,9.5c-1.1,14.9,11,19.1,21.8,15.2c14.9-5.4,26.9-14.7,36-28.2c12.8-19.2,22.1-39.5,26-62.3
		c0.8-4.5,3.4-7.9,8.7-6.8c4.7,0.9,6.8,4.1,5.9,8.7c-6.4,34.9-20.6,65.8-47.7,89.6c-7.5,6.6-16.7,10.9-26.3,13.7
		c-24,7-43.9-11.4-38.7-35.9c2.8-13.4,8-26.1,12.9-38.9c2.2-5.6,4.6-11.1,5.9-17.1C504.5,446.9,507,444,508.8,440.9z"/>
	<path class="st1" d="M293.8,622.9c-10.4-10.2-9.5-14.2,4.5-20.9c-5.2-4.3-8.8-9.4-9-16.3c-0.2-5.7,1.2-11,4.8-15.6
		c6.4-8.4,16.1-10.7,25.3-5.3c3.9,2.3,7.5,4.4,12.2,3.4c2.2-0.5,4.2-0.1,4.4,2.9c0.2,2.9-0.9,4.6-4,4c-4.6-0.8-3.8,1.5-3.4,4.7
		c1.8,14.1-7.1,24.4-21.2,25.1c-4.1,0.2-9.9-0.4-9.9,4.8c0,5.2,5.7,4.9,9.9,5c4.2,0.1,8.4,0,12.5,0.3c12.5,0.9,18.5,10,14.4,22
		c-3.3,9.7-15.2,18.4-25.6,18.6c-2.8,0.1-5.6,0-8.3,0c-8.5,0-14.9-4.2-17.4-11.1c-2.4-6.7,0-13.1,7.1-18.7
		C291,624.8,292.2,624.1,293.8,622.9z"/>
	<path class="st1" d="M565.9,560.2c2.4,2.9,0.2,5.6,1.6,7.9c0.3,0,0.6,0.1,0.7-0.1c6.6-5.8,13.8-9.9,22.7-5.2
		c8.6,4.5,9,12.7,8.9,21.1c-0.1,7.4,0,14.9,0,22.3c0,4.4,0.7,8.4,6.1,9.4c1.2,0.2,3,0.5,2.7,2.5c-0.4,1.9-2.1,1.6-3.4,1.4
		c-6.7-0.7-13.4-0.6-20.2,0c-1.3,0.1-3,0.4-3.3-1.5c-0.2-1.5,1.1-1.9,2.2-2.2c3.9-1,5.2-3.8,5.2-7.3c0.1-9.7,0.1-19.5-0.2-29.2
		c-0.1-4.4-1.9-8.4-6.5-9.8c-4.7-1.5-9.1-0.4-12.9,3.1c-1.8,1.7-2.6,3.5-2.6,6.1c0.2,9.5,0.1,19,0.1,28.6c0,4,0.6,7.5,5.2,8.6
		c1.1,0.3,2.4,0.7,2,2.3c-0.4,1.9-2.1,1.6-3.3,1.4c-6.5-0.6-13-0.7-19.5,0c-1.5,0.2-3.6,0.7-3.9-1.6c-0.2-1.8,1.7-2,2.9-2.3
		c4.5-1,5.7-4.3,5.7-8.3c0-9.3,0-18.6,0-27.9c0-3.5-0.9-6.5-4.8-7.4c-1.1-0.3-2.4-0.4-2.5-1.9c-0.1-1.3,0.9-2,2.1-2.3
		C556.5,566.4,561.5,563.8,565.9,560.2z"/>
	<path class="st1" d="M540,592.3c-0.1,18.9-11.3,31-27.9,29.9c-15.8-1.1-25.7-16.9-23-36.5c2.3-16.6,15.5-26.8,30.6-23.8
		C531.8,564.4,540.1,576.8,540,592.3z"/>
	<path class="st2" d="M379.1,592.3c0,5.8-0.2,11.6,0.1,17.4c0.2,4.1,1.4,7.3,6.4,4c1-0.7,2-1.5,2.8-0.1c0.3,0.6,0.1,1.8-0.2,2.6
		c-2.7,6.1-11.8,8-16.3,3c-2.3-2.5-2.9-2.6-5.6-0.5c-7.2,5.8-16.3,5.4-20.6-0.2c-5-6.5-3.2-15.1,4.6-21.2c4.2-3.3,9.1-5.5,14.1-7.4
		c2.8-1.1,5.8-1.4,5.4-5.8c-0.5-5.6,1.9-12-4.1-15.9c-4-2.7-9.5,0.1-10.4,5.3c-0.5,2.5-0.5,5.1-2.3,7.1c-1.6,1.8-3.7,3.1-6.1,1.7
		c-2.3-1.3-2.8-3.5-2.2-6c1.7-6.9,15.5-15.4,23.6-14.4c7.7,1,11.6,7,11.5,17.8c-0.1,4.2,0,8.3,0,12.5
		C379.4,592.3,379.3,592.3,379.1,592.3z"/>
	<path class="st2" d="M479.8,610.4c-2.2,5.4-6.5,8.9-12.1,10.6c-5.5,1.7-8.2,3.3-2.4,8.3c3.8,3.3,4.4,8.1,2.1,12.8
		c-2.4,4.9-6.5,7-11.9,6.8c-2.5-0.1-4.5-0.9-5.6-3.4c-0.8-1.7-0.3-3.3,1.2-4.3c2.4-1.6,3.8,0.5,5.4,1.6c1.6,1.1,3.1,2.5,4.8,0.6
		c1.4-1.5,1.4-3.4,0.4-5.2c-0.6-1-1-2.3-1.9-2.8c-6.2-3.4-5.3-7.6-1-12.7c-8.5-2.4-14.7-7.3-18.3-14.9c-3.5-7.4-4-15.2-2.7-23.2
		c2.5-15.9,15.5-25.5,30.3-22.5c4.4,0.9,8.6,2.6,10.8,6.8c1.5,2.9,1.6,6.1-1.8,7.9c-3.1,1.6-5.5-0.1-6.8-2.9c-2-4.3-3.6-8.9-9.7-8
		c-6.5,1-9.1,5.9-10.5,11.5c-2,8.2-2.6,16.6-0.1,24.8c4,13.4,15.3,16.8,26.4,8.1c0.7-0.5,1.4-0.9,2.2-1.4
		C478.9,609.4,479.3,609.9,479.8,610.4z"/>
	<path class="st2" d="M413,569.5c4.1-2.8,6.7-6.6,11.3-7.6c5.3-1.2,9.6,2.4,8.7,7.5c-0.8,4.6-4,6-8.7,3.7c-6.7-3.3-11.1-0.5-11.2,7
		c-0.1,8.6,0,17.2,0,25.7c0,5,1.1,9.3,6.9,10.5c1.5,0.3,2.9,0.8,2.5,2.6c-0.3,1.8-2,1.7-3.4,1.5c-6.9-0.9-13.9-1-20.8,0
		c-1.3,0.2-3.1,0.3-3.5-1.4c-0.5-1.8,1.1-2.3,2.5-2.6c4.9-1.1,5.8-4.6,5.8-8.9c0-8.8-0.1-17.6,0-26.4c0-3.9-0.5-7.2-5.1-8.6
		c-3.7-1.1-2.1-3,0.3-3.9c3.9-1.5,7.8-3,11.1-5.6c1-0.8,1.8-2.3,3.4-1.3c1.2,0.8,0.6,2.1,0.5,3.2C413.2,566.2,413.1,567.5,413,569.5
		z"/>
	<path class="st3" d="M508.8,440.9c0.3,4-2.7,6.7-4,10c-0.6-0.6-1.2-1.2-1.7-1.8c0.7-3.2,2.2-5.9,4.4-8.3
		C507.9,440.8,508.4,440.8,508.8,440.9z"/>
	<path class="st4" d="M224.4,447.8c0,5.4-2.3,9-4.2,12.5c-22.7,39.8-53.8,71.8-90.7,98.6c-15.9,11.5-33.5,19.4-52.3,24.7
		c-11.2,3.2-22.8-1.2-25.3-16c-3.3-20.2,3-38.2,11.3-56c1.1-2.4,3.1-3.4,5.7-3.2c8.9,0.5,17.2-1.6,25.7-4.5
		c22.7-7.8,44.2-18.6,66.6-27.2C182.6,468.4,203.1,458.1,224.4,447.8z"/>
	<path class="st4" d="M224,430.6c-0.1,1.1-1.8,1.4-3.2,2.2c-21.8,12.3-44.3,23-67.4,32.5c-15.3,6.3-30.4,13.1-46,18.7
		c-9.2,3.3-18.2,7.6-27.8,10.1c-2,0.5-4.2,1.6-5.7-0.5c-1.3-1.9,0.6-3.5,1.4-5c7.7-15.6,20.2-25.9,34.3-35.9
		c22.7-16,48.1-23.6,74.4-30.1c8.1-2,16.3-3.2,24.6-4.3C214.4,417.6,224,425,224,430.6z"/>
	<path class="st4" d="M345.2,479.4c-8.3,16.6-17.1,32.6-30.2,45.5c-10.2,10.1-22.2,16.9-36.7,18.6c-2.8,0.3-6.1,0.4-7.4-2.2
		c-1.3-2.5-1.1-5.7,0.7-8.6c5.1-8.6,13.8-13.5,20.5-20.5C306.9,496.6,328.7,492.4,345.2,479.4z"/>
	<path class="st5" d="M307.9,650.5c-6.8,0.1-12.4-2.2-15.4-8.6c-2.4-5-1.7-10,2.1-14.2c1.2-1.4,2.4-3.1,4.6-2.5
		c6.4,1.8,12.9,0.6,19.4,1.2c3.8,0.3,7.6,0.8,9.2,5c1.5,4.1,0.5,7.9-2.1,11.1C321.2,648.1,315,650.4,307.9,650.5z"/>
	<path class="st6" d="M318.5,582.9c-0.3,4.2-0.4,8.4-2.1,12.3c-1.4,3.2-3.8,5.4-7.4,5.3c-3.9-0.1-6.6-2.4-7.6-6
		c-2-7.3-1.9-14.7,0.4-21.9c1.2-3.8,3.6-6.5,8.1-6.3c4.4,0.2,6.6,3.2,7.5,7.1C318,576.4,318.1,579.7,318.5,582.9z"/>
	<path class="st4" d="M528.8,592.1c-0.1,6.3-0.4,12.6-3.4,18.3c-2.3,4.4-5.5,7.5-10.8,7.6c-5.3,0.1-9-2.8-10.9-7.3
		c-5.4-12.5-5.4-25.3,0.2-37.8c1.9-4.2,5.3-7.1,10.3-7.2c5.3-0.1,8.6,3,10.9,7.4C528.2,579.1,528.7,585.6,528.8,592.1z"/>
	<path class="st7" d="M369.2,593.3c0,4.9,0.2,9.7,0,14.5c-0.2,4.9-5.2,9.2-9.8,8.5c-5.2-0.7-5.6-4.9-5.6-8.9
		C353.6,600.2,358.9,595.4,369.2,593.3z"/>
</g>
</svg>
