<?xml version="1.0" encoding="utf-8"?>
<!-- Generator: Adobe Illustrator 21.1.0, SVG Export Plug-In . SVG Version: 6.00 Build 0)  -->
<svg version="1.1" id="Layer_1" xmlns="http://www.w3.org/2000/svg" xmlns:xlink="http://www.w3.org/1999/xlink" x="0px" y="0px"
	 viewBox="0 0 900 596" style="enable-background:new 0 0 900 596;" xml:space="preserve">
<style type="text/css">
	.st0{fill:#FDFDFD;}
	.st1{fill:#151210;}
	.st2{fill:#02569B;}
	.st3{fill:#01559B;}
	.st4{fill:#02569A;}
	.st5{fill:#02559A;}
	.st6{fill:#025599;}
	.st7{fill:#0D0A0C;}
	.st8{fill:#03569B;}
	.st9{fill:#03569A;}
	.st10{fill:#08589B;}
	.st11{fill:#FDCF00;}
	.st12{fill:#3B2E0C;}
	.st13{fill:#422F08;}
	.st14{fill:#FCFDFD;}
	.st15{fill:#FCFCFC;}
	.st16{fill:#FBFCFC;}
	.st17{fill:#FCFCFD;}
	.st18{fill:#2A250F;}
	.st19{fill:#20190F;}
</style>
<g>
	<path class="st0" d="M450.5,455.5c-148.1,0-296.2,0-444.3,0.1c-4.2,0-5.2-0.9-5.2-5.1c0.1-101,0.1-202.1,0-303.1
		c0-3.6,0.4-4.7,4.5-4.7c297.1,0.1,594.2,0.1,891.4,0c3.4,0,4.3,0.7,4.3,4.3c-0.1,101.4-0.1,202.8,0,304.2c0,4.2-1.3,4.4-4.8,4.4
		C747.8,455.5,599.1,455.5,450.5,455.5z"/>
	<path class="st1" d="M566.3,312.8c-7.4,1.7-14.9,1.5-22.3,0.7c-1.5-0.1-2.8-0.6-4.4-0.2c-3.6,0.8-7.6,0.5-7.9-3.7
		c-0.2-3.9,2.8-6.8,7-7.6c1.1-0.2,2.2,0.2,3.4,0.1c2.3-0.2,3.6-1.9,4.7-3.7c1.2-2-0.6-3.2-1.8-4.1c-10.4-7.6-20.5-15.5-30.3-24
		c-1.7-1.5-4-0.8-5.9-0.1c-9.6,3.6-19.2,7.1-28.6,11.2c-6.3,2.7-12.4,5.2-19.4,4.1c-2-0.3-4.1-0.2-5.8,1.3c-1.6,1.4-3.9,1.6-5.9,1.6
		c-16.3-0.5-32,5.3-48.4,4c-10.8-0.8-13.9,2.4-13.9,13.1c0,4.9-1.7,6.4-6.1,7.7c-8.2,2.4-16.3,3.6-24.8,2.1
		c-2.9-0.5-3.9-1.3-2.1-4.3c2.8-4.8,4.9-9.4,12-8.8c3.5,0.3,4-3.2,2.4-6.2c-2.1-3.9-5.7-6.4-9.1-9c-4.6-3.5-9.6-6.6-13.6-10.8
		c-5.2-5.5-7.4-11.9-4.9-19.5c1-3,1.5-6.2,2.1-9.3c1-5.1-0.4-9.2-5.3-11.8c-2.9-1.5-5.1-3.5-5.6-7.1c-0.5-3.6-3.8-4-6.6-3.8
		c-3.9,0.3-7.8,1-11.6,2c-6,1.5-11.9,0.9-17.9,0.3c-5.8-0.6-8.9-5.5-11.6-9.8c-1.8-2.8,1.6-4.8,4-5.5c8.9-2.7,16.5-7.7,24.4-12.3
		c5.2-3,8.1-7.7,11.2-12.2c9.4-13.4,23.2-15,37.8-14.9c1.7,0,3.2,0.7,4.4,2.1c7,7.6,13.9,15.2,19.1,24.2c2.2,3.9,4.1,7.7,3.7,12.6
		c-0.3,4.9,6.9,10.7,12.8,11.4c3.9,0.4,7.9-0.8,11.6,1.1c-0.8,1.3-2.2,1.7-3.5,2.2c-5.4,0.5-10.6,3.2-16.1-0.9
		c-3.8-2.9-6.6-6-7.8-10.5c-1-3.8-1.9-7.6-3.2-11.4c-0.6-1.8-1-3.8-2.3-5.1c-5.9-5.8-9.5-13.4-15.7-18.8c-2.9-2.5-6.1-3.7-9.8-3.3
		c-7.1,0.8-14.1,2.3-20.3,6.1c-1.8,1.1-3.8,2.1-4.5,4.1c-1.4,3.9-5.1,6-7.1,9.2c-4.5,6.9-11.2,10.1-18.3,13
		c-3.8,1.6-7.4,3.7-10.4,6.6c-1.5,1.5-3,3.1-1.7,5.4c1.1,1.9,3.1,1.6,5,1.7c8.3,0.7,15.2-3.3,22.3-6.4c2.7-1.2,5.2-2.2,7.5,0.8
		c1.9,2.4,3.6,0.6,5.3-0.5c4-2.5,5.1-7.3,8.5-10.3c1.4,0.1,1.8,1.2,2,2.3c-0.6,5.6-4.8,9.7-5.9,15c-0.3,1.6-1.7,3.3-0.4,4.8
		c1.4,1.5,3.2,0.3,4.7-0.1c2-0.5,4-1.2,6-1.5c12.1-1.6,17.5-10.4,22-20.2c1.2-2.6,0-5.2-0.6-7.7c-0.8-3.1-1.4-6.2-0.1-9.4
		c0.4-0.8,0.7-1.9,1.7-2c1.2-0.2,1.8,0.8,1.9,1.6c1,7.3,5.5,14.5,0.6,22.1c-2.3,3.6-3.4,7.9-5.1,11.9c-1.1,2.6-2.3,5-5.1,6.4
		c-1.8,0.8-3,4.8-2.6,6.8c0.5,2.1-1,2.8-2.5,2.9c-6.5,0.3-9.1,4.2-9.9,10.1c-0.4,3.2-2.8,5.6-3.3,8.9c-1,7.7,2,14,7.2,19.3
		c3.8,3.9,8.3,7,14.5,9.4c-2.3-2.8-4.9-4.3-5.5-7c-0.3-1.3-0.7-2.8,0.6-3.6c1-0.6,2.2,0,3.1,0.7c8.9,5.9,15.2,21.7,7.2,32.6
		c-1.5,2-3.3,2-5.5,2.4c4.6,1.2,8.1,0.1,11.8-3.8c2.7-2.9,4.4-5.9,1.7-10c-1.2-1.9-0.6-4.1,2.2-4.6c1.3-0.2,2.6-0.5,3.1-2
		c0.1-0.4-0.1-0.8-0.5-0.8c-2.1-0.2-5,1.1-5.8-1.8c-0.7-2.3,1.8-3.6,3.3-4.7c3.1-2.2,5.9-4.3,2.5-8.4c-0.9-1.1-0.7-2.5,0.6-3.5
		c1.7-1.3,3.8-2,5.8-1.2c3.5,1.4,6.4,3.9,9.8,5.4c1.1,0.5,1.6,1.7,0.9,2.9c-0.8,1.3-2.1,1.3-3.5,1.3c-1.4,0-3.2-1.6-4.2-0.1
		c-1.2,1.8-1.4,4.2-1.6,6.5c-0.2,2.1,1.5,2.4,3,2.4c8.9-0.3,18,1.3,26.7-2.1c6-2.4,12.6-0.8,18.9-2c6.3-1.2,12.5-2.1,18.5-4.4
		c3.7-1.4,7.6-2.1,11.5-2.5c6.8-0.8,13.2-2.9,18.9-6.7c4-2.6,9-1.8,13-4.5c1.7-1.1,3.6-1.9,5.1-3.4c0.5-0.3,1-0.4,1.6-0.3
		c5.4,2.5,9.3,6.9,13.7,10.6c9.1,7.6,18.8,13.4,31.3,13.3c5.2-0.1,6.5,1.6,7,6.7c0.5,5.1-1.8,9.5-2.8,14.2c-0.9,4.3-4.4,0.7-7,1.5
		c3.8,3.7,8.1,0.7,11.7,1.7C564.8,311.1,565.8,311.6,566.3,312.8z"/>
	<path class="st2" d="M545.3,405.9c1,5.8-1.4,10.6-4.9,14.8c-3.7,4.6-8.7,6.3-14.6,5c-5.6-1.3-9.7-4.8-13-9.2
		c-2.3-3.1-3.8-3.5-6.5-0.3c-6.3,7.1-14.2,11-23.9,9.7c-12.1-1.6-19.3-13.5-16.2-26.7c2.5-10.4,8.8-18.2,17.5-23.9
		c4.2-2.7,4.4-5.3,3-9.5c-2-6-3.4-12.3-2.3-18.8c0.2-1.1,0.3-2.2,0.6-3.3c2-7.6,6.5-13.2,14.3-15c6-1.4,11.7-0.2,15.6,5.2
		c5,7,4.8,14.4,1,21.8c-2.6,5.2-7,8.8-11.8,11.8c-2.9,1.8-3.9,3.2-2,6.5c4.3,7.9,8.2,16,12.5,24.4c4.8-6.4,8.1-12.9,9.5-20.1
		c0.8-4.1,0.9-8.3-3.1-11.2c-0.9-0.6-1.4-1.2-1.1-2.3c0.4-1.1,1.4-1,2.3-1c6.2,0,12.4,0,18.6,0c1,0,2.1,0.2,2.3,1.2
		c0.3,1.5-1,1.8-2.1,1.9c-4.7,0.7-6.9,4-8.8,7.9c-4.1,8.6-7.9,17.4-13.1,25.4c-0.6,0.9-1.3,1.8-1,3.1c1.3,5.3,12.2,12.6,17.7,11.9
		C541.1,414.3,542.6,409.6,545.3,405.9z"/>
	<path class="st3" d="M62.2,330.2c-10.5,6.4-10.5,6.4-10.5,19.7c0,6.7,0.1,13.5-0.1,20.2c-0.1,3,0.9,3.9,3.8,3.8c9-0.2,18-0.2,27,0
		c3.3,0.1,4.2-1.1,4.1-4.2c-0.2-7.3-0.1-14.6-0.1-21.9c0-12.2,0-12.2-10.7-16c0.1-2.1,1.7-1.6,2.9-1.6c8.6,0,17.2,0,25.9,0
		c1.2,0,3-0.7,3.3,1.1c0.3,2-1.7,1.5-2.8,1.6c-5.2,0.7-7.4,3.8-7.4,8.9c0,23.4,0.1,46.9-0.1,70.3c0,5.9,2.8,8.5,8.2,9.3
		c1,0.1,2.4,0,2.2,1.7c-0.1,1-1,1-1.7,1c-10.2,0-20.3,0-30.2,0c-0.5-1.9,0.1-2.4,0.9-2.6c8.7-2.1,9.5-3.1,9.6-12.1
		c0-8.8-0.1-17.6,0.1-26.4c0.1-3.1-0.8-4.2-4.1-4.2c-9,0.2-18,0.2-27,0c-2.9,0-3.9,0.7-3.8,3.8c0.2,9.6,0.2,19.1,0,28.7
		c-0.1,5.7,2.1,9.4,8.1,10c1,0.1,2.4-0.1,2.6,1.5c0.1,0.9-0.7,1.3-1.5,1.3c-10.2,0-20.3,0-31.1,0c0.7-1.5,0.8-2.2,1.1-2.3
		c9.4-2.7,9.9-3.1,9.9-13c0.1-21,0-42,0-63c0-6.5-0.2-12.8-9.1-13.1c-0.8,0-1.4-0.4-1.3-1.4c0.1-1,1-1.1,1.7-1.1
		C42.2,330.2,52.2,330.2,62.2,330.2z"/>
	<path class="st4" d="M580,332.1c0.9-1.2,1.1-1.7,1.3-1.7c14.2-0.4,28.5-1.3,42.6,0.7c11.3,1.7,18.4,8.8,20.1,19.1
		c1.8,10.6-1.5,19.2-11,25c-0.3,0.2-0.4,0.6-0.6,0.9c15.1,7.1,19.9,21.2,12.1,35.6c-4.8,8.8-12.8,11.8-22,12.1
		c-12.9,0.4-25.9,0.2-38.8,0.3c-1.2,0-3.1,0.6-3.1-1.3c0-1.9,1.9-1.3,3.1-1.5c4.7-0.7,6.9-3.5,7-8c0.8-24.2,0.7-48.4,0-72.5
		C590.6,334,585.6,333,580,332.1z"/>
	<path class="st4" d="M218.2,370.8c16.6-16,23.2-15.9,30.2,0.3c2.3-2.6,4.3-5.3,6.7-7.5c9.2-8.6,19.7-5.5,23.1,6.6
		c1.4,5,0.9,10,1,15.1c0.1,8.6-0.1,17.2,0.1,25.9c0.1,4.4-0.2,9.4,6.2,10.2c0.8,0.1,1.4,0.7,1.3,1.5c-0.1,1.3-1.2,1.3-2.1,1.3
		c-6.7,0-13.5,0-20.2,0c-0.9,0-2,0.2-2.2-1.1c-0.2-1.3,0.7-1.6,1.6-1.7c5.5-0.6,6.1-4.5,6.1-9c-0.1-10.9,0-21.7-0.1-32.6
		c-0.1-8.4-2.8-12.3-8.3-12.3c-6.7,0-12.9,6.4-12.8,13.3c0.1,10.5,0.1,21,0,31.5c0,4.5,0.5,8.3,6,9.1c0.9,0.1,2,0.3,1.8,1.6
		c-0.2,1.3-1.3,1.2-2.2,1.2c-6.9,0-13.9,0-20.8,0c-0.9,0-2.1,0.2-2.2-1c-0.2-1.6,1.2-1.7,2.2-1.8c4.4-0.6,5.9-3.5,5.9-7.5
		c0-11.2,0-22.5,0-33.7c0-0.7-0.1-1.5-0.2-2.2c-1.1-7.4-4.2-11-9.2-10.7c-5.9,0.4-12,6.7-12,12.6c0,11.1,0,22.1,0,33.2
		c0,4.3,0.6,8,5.9,8.4c0.9,0.1,2,0.2,2.1,1.4c0.1,1.3-1,1.4-1.9,1.4c-6.9,0-13.9,0-20.8,0c-1,0-2-0.1-2.1-1.3
		c-0.1-1.1,0.9-1.6,1.8-1.7c4.8-0.6,5.2-4.1,5.2-7.9c0-12.6,0.1-25.1,0-37.7c0-4,0.1-8.5-6.3-6.9c-0.7,0.2-1.5-0.2-1.7-1
		c-0.3-1,0.6-1.3,1.1-1.6c1.4-0.9,2.9-1.6,4.4-2.4C217.5,357.3,217.5,357.3,218.2,370.8z"/>
	<path class="st5" d="M767.5,422.3c10.6-1.2,9.2-8,9.3-14.1c0-11,0.1-22.1-0.1-33.1c-0.1-3.6,0-8.2-6.1-6.4
		c-0.8,0.2-1.5-0.1-1.8-0.9c-0.5-1.2,0.4-1.7,1.3-2.1c4.1-2.2,8.3-4.3,12.5-6.4c2.4-1.2,4-0.9,3.8,2.3c-0.1,2.8,0,5.6,0,9.3
		c2.9-3.1,5-5.8,7.6-8c8.4-7.4,17.2-5,21,5.6c1.3,3.8,1.6,7.7,1.6,11.6c0.1,10.7,0.1,21.3,0.2,32c0,4.3,0.2,8.5,5.9,9.1
		c0.9,0.1,1.8,0.7,1.5,1.9c-0.3,1.2-1.5,1-2.3,1c-6.7,0-13.5,0-20.2,0c-1,0-2.5,0.2-2.5-1.3c0-1.6,1.5-1.3,2.6-1.4
		c3.9-0.5,5.3-3.1,5.4-6.7c0.4-12.9,0.9-25.8-0.4-38.7c-0.9-8.7-7.2-11-14.4-5.8c-3.9,2.9-6.3,6.2-6.1,11.7
		c0.6,10.3,0.2,20.6,0.2,30.9c0,4.3,0.9,7.9,6,8.5c0.9,0.1,2,0.3,2,1.5c0,1.3-1.1,1.3-2,1.3c-7.3,0-14.6-0.1-21.9-0.2
		C769.9,423.9,769.4,423.4,767.5,422.3z"/>
	<path class="st5" d="M363,370.9c2.7-3,4.8-5.6,7.2-7.9c8.4-7.6,17.8-4.9,21.2,6c1.8,5.8,1.6,11.8,1.7,17.8c0.2,8.6,0,17.2,0.1,25.8
		c0,4,0.2,8.1,5.8,8.6c0.9,0.1,1.9,0.6,1.6,1.8c-0.3,1.2-1.4,1.1-2.2,1.1c-6.7,0-13.5,0-20.2,0c-0.9,0-2,0.3-2.3-1
		c-0.3-1.7,1.1-1.7,2.1-1.9c4.5-0.6,5.7-3.6,5.7-7.6c0-11.4,0-22.8-0.2-34.3c-0.2-8.7-2.7-12-7.9-11.9c-6.2,0.1-12.7,6.8-12.7,13.2
		c0,11,0.2,22.1,0.3,33.1c0,4.1,1.2,6.9,5.7,7.5c1,0.1,2.5,0.1,2.2,1.8c-0.3,1.5-1.8,1.1-2.8,1.1c-6.6,0-13.1,0-19.7,0
		c-1,0-2.5,0.4-2.6-1.2c-0.1-1.6,1.4-1.5,2.5-1.6c3.7-0.7,4.8-3.4,4.8-6.6c0.1-13.7,0.1-27.3-0.1-41c0-3.4-1-6.6-5.8-5
		c-0.8,0.3-1.5,0.2-1.9-0.6c-0.4-1.1,0.3-1.7,1.1-2.2c1.3-0.7,2.6-1.4,4-2.1C362.2,357.4,362.2,357.4,363,370.9z"/>
	<path class="st6" d="M735.4,412.2c0.3,5.5-6.2,13-11.3,12.9c-5.9-0.1-5.2-5.4-6.8-9.3c-2.5,2.2-4.8,4.3-7.2,6.3
		c-7.3,5.9-16.2,3.3-19.3-5.5c-3.4-9.5-0.3-18.7,8.9-24.9c4.6-3.1,9.7-5.7,14.7-8.1c2.5-1.2,3.8-2.5,3.5-5.5c-0.3-3-0.2-6-1.3-8.8
		c-1.5-4.1-4.5-6.6-9-5.9c-4.6,0.7-6.5,3.9-6.7,8.3c-0.1,1.9,0.1,3.8-0.2,5.6c-0.5,2.3-1.7,4.2-4.6,4c-2.7-0.2-4-2-4.3-4.4
		c-0.6-3.9,0.5-7.4,2.6-10.7c4.1-6.3,13-9.1,21.6-6.9c7.6,2,10.9,6.3,11.1,15.3c0.3,11.2,0.3,22.5,0.5,33.7c0,2.5-1.1,5.8,1.6,7.3
		C732.2,417.3,733,412.8,735.4,412.2z"/>
	<path class="st4" d="M340.6,392.2c-0.4,7.8-2.2,15.8-6.7,22.9c-9.2,14.6-28.1,14.3-36.7-0.7c-8.5-15-8-30.2,0.7-44.8
		c8.9-14.9,27.5-14.7,36.8,0.1C339,376.4,340.5,383.9,340.6,392.2z"/>
	<path class="st5" d="M160.5,412.1c0,5.5-5.9,12.6-10.9,13c-4.2,0.3-5.9-1.8-7-9.5c-2.7,2.3-5,4.6-7.6,6.6
		c-7.9,6.1-16.4,3.4-19.4-6.1c-3-9.4-0.1-17.9,8.7-24c4.6-3.2,9.7-5.6,14.6-8.3c4.2-2.2,5.2-6.8,2.8-14c-1.5-4.4-4.5-7.1-9.3-6.3
		c-5.2,0.9-6.7,4.8-6.4,9.6c0.1,1.6-0.1,3.4-0.5,5c-0.6,2.1-2,3.6-4.6,3.3c-2.4-0.3-3.7-1.7-4-4c-0.5-3.4,0-6.7,1.7-9.8
		c4-7.1,12.8-10.4,22-8.2c7.7,1.9,11.3,6.5,11.4,15.8c0.2,10.9,0,21.7,0.1,32.6c0,2.9-1,6.7,2.1,8.2
		C157.1,417.2,158,412.8,160.5,412.1z"/>
	<path class="st7" d="M566.3,312.8c-0.9-0.4-1.8-0.8-2.6-1.1c3.9-7.2,8.2-14.2,10.8-22.2c0.9-2.9,0.6-4.7-2.7-6.1
		c-9.3-4-11.9-16-5.3-24c5.7-6.9,5.9-9.7,1.6-17.5c-1.4-2.5-3-4.7-4.4-7.2c-1.2-2.3-1.1-4.5,1.3-5.8c2.4-1.3,4.3-0.5,5.7,1.9
		c2.5,4.2,4.4,8.6,5.5,13.5c1.9,8.2,4.1,16.3,8,23.9c5.3,10.3,14.5,15.9,24.7,21.4c-4-3.9-7.3-7.7-11.3-10.8
		c-3.6-2.8-5.4-6.7-6.9-10.8c-4.2-11.7-9.7-22.7-15-33.9c-2.2-4.6-5.1-7.1-10.4-6.7c-7,0.6-13.8-0.5-20.6-2c-13.9-3.1-28-2.4-42-2.4
		c-20.8,0-41.4,2.1-61.9,5.2c-9,1.4-17.4,1.5-26.1-0.7c-2-0.5-4.1-0.7-5.1-3c1.2-0.3,2.5-0.6,3.7-1c23.4,3,46.2-2.4,69.2-4.9
		c19.1-2.1,37.9-2.5,57,1.2c9.5,1.8,19,4.4,28.9,3.9c5.6-0.3,9,3.4,11.2,7.9c5.6,11.4,11.3,22.6,15.6,34.6
		c2.1,5.8,5.8,10.5,11.2,14.3c5.3,3.8,11,7.8,13.3,15.1c-5.6,0.7-10.2-1.2-14.7-3.3c-12.6-5.9-22.8-14.1-26.6-28.4
		c-1.1-4.1-4.6-4.9-7.7-1.8c-2.9,2.9-4,10.6-2.2,14.4c1.2,2.6,3.5,2.5,5.8,2.3c4.5-0.3,6.1,1.6,5.5,6.1c-1.5,9.7-5.7,18.5-10.3,27
		C568.7,313.1,567.4,313,566.3,312.8z"/>
	<path class="st8" d="M870.9,398.6c1.6,15.7-10.7,28.9-23.1,26.7c-7.7-1.3-12.3-6.6-15-13.1c-6-14.4-5.8-28.9,1.7-42.8
		c4.8-8.8,14.6-12.8,22.8-10.1c8.5,2.7,15.2,13.4,14.6,22.6c-0.2,3-2,2.6-3.8,2.6c-9,0-18,0.2-27-0.1c-3.5-0.1-4.6,1-4.2,4.4
		c0.7,7.4,2.4,14.4,7.6,20.1c7.8,8.4,18.3,6.7,23.3-3.5C868.6,403.7,869.4,401.9,870.9,398.6z"/>
	<path class="st4" d="M675.4,371.2c0,13.1,0,26.2,0,39.4c0,4.9-0.3,10.2,6.7,10.8c0.8,0.1,1.5,0.6,1.4,1.5c-0.1,1.3-1.2,1.2-2.1,1.2
		c-6.9,0-13.9,0-20.8,0c-0.9,0-2,0-2.1-1.2c-0.1-1.1,1-1.6,1.9-1.7c4.4-0.5,5.5-3.5,5.5-7.2c0-24.6,0.1-49.1,0-73.7
		c0-3.4-1.3-6-5.5-5c-1,0.2-1.9,0.5-2.2-0.9c-0.3-1.2,0.7-1.6,1.5-2c3.7-1.9,7.4-3.7,11-5.7c3.9-2.1,4.8-0.6,4.8,3.3
		C675.4,343.8,675.4,357.5,675.4,371.2z"/>
	<path class="st9" d="M179.7,370.2c2.9-3.4,4.7-6.9,7.8-9.4c2.9-2.4,6-3,9.2-0.4c3.2,2.7,3.6,6.2,2.1,9.6c-1.7,3.8-4.9,4.2-7.7,1.2
		c-4.2-4.6-6.4-2.2-8.7,1.8c-1.9,3.3-2.9,6.7-2.9,10.6c0.2,9,0,18,0.1,27c0,4.9,0.6,9.6,6.8,10.5c1,0.1,1.9,0.7,1.8,1.8
		c-0.1,1.2-1.2,1.2-2.1,1.2c-7.3,0-14.6,0-21.9,0c-0.7,0-1.6,0-1.8-0.9c-0.3-1.3,0.5-1.7,1.5-1.8c5.8-0.8,6.3-4.8,6.2-9.5
		c-0.1-12,0-24-0.1-35.9c0-4.2,0.2-8.9-6.5-7.2c-0.8,0.2-1.6-0.1-1.5-1.1c0.1-0.6,0.6-1.4,1.1-1.7c4.3-2.3,8.6-4.6,12.9-6.7
		c2.7-1.3,3.7-0.1,3.6,2.7C179.6,364.7,179.7,367.4,179.7,370.2z"/>
	<path class="st4" d="M419.7,340.2c0,5.2,0.2,10.3-0.1,15.4c-0.2,3.8,0.8,5.7,4.9,5c1.3-0.2,2.6,0,3.9,0c1.7,0,3.4-0.1,3.3,2.5
		c-0.1,2.2-1.5,2.1-3.1,2.3c-9,1.2-9,1.2-9,10.4c0,10.1,0,20.2,0,30.3c0,2,0.1,4.1,0.5,6.1c0.4,2.1,1.5,3.9,3.8,4.3
		c2,0.4,3.5-0.7,4.9-2.1c0.9-1,1.1-2.9,3-3c0,6.3-4.3,12-10.1,13.1c-4.5,0.9-7.6-1.1-9.7-5c-1.6-3.1-1.7-6.5-1.7-9.8
		c0-12.9-0.1-25.8,0.1-38.7c0-3.8-0.2-6.7-5.2-5.8c-1.6,0.3-4.5-0.7-2.1-2.5c7.8-5.9,12-14,14.7-23.2
		C418.5,339.8,419.1,340,419.7,340.2z"/>
	<path class="st5" d="M757.6,387.5c0,8.2-0.1,16.5,0,24.7c0.1,4.1,0.1,8.5,5.9,9.1c0.9,0.1,1.7,0.7,1.5,1.9c-0.2,1-1,1-1.8,1
		c-6.9,0-13.8,0-20.8,0c-0.9,0-2-0.1-2-1.4c0-1.2,1.2-1.3,2-1.4c4.6-0.6,5.5-3.9,5.5-7.7c0-13.1,0-26.2-0.2-39.3
		c0-3.6-0.7-7-5.8-5.7c-0.8,0.2-1.5,0.3-1.8-0.6c-0.4-1.1,0.3-1.8,1.1-2.2c4.3-2.3,8.5-4.7,12.9-6.7c3-1.4,3.3,0.8,3.3,3.1
		C757.5,370.6,757.6,379.1,757.6,387.5z"/>
	<path class="st10" d="M758.4,333c-0.6,3.3-1.3,6.6-5.4,6.5c-4.3,0-5.7-3.2-5.7-6.8c0-3.5,1.3-6.9,5.7-6.8
		C757.3,326.1,758,329.5,758.4,333z"/>
	<path class="st11" d="M409.5,224.6c12,4.5,24.1,4,36.4,1.4c8.2-1.7,16.6-2.4,25.1-2c5.1,0.2,10.3-1.9,15.5-2.2
		c20.8-1.3,41.5-1.3,62,2.9c6,1.2,12.2,2.4,18.4,1.6c4.7-0.6,7.3,1.5,9.1,5.6c5,11.4,11.6,22.2,15.3,34.2
		c2.1,6.8,6.6,11.5,11.8,15.9c3.5,2.9,7.1,5.9,10,11c-16.6-6.4-28.7-15.8-34-32.2c-2-6.2-3.7-12.5-5.3-18.9
		c-0.9-3.6-2.9-6.7-4.2-10.1c-1.2-3-3-2.4-4.9-1.5c-2.5,1.2-0.9,2.8,0,4.1c3,4.1,6,8.1,7.4,13.1c1.2,4.5,1.5,8.5-3.3,11.8
		c-4.7,3.3-5.5,8.6-4.1,14.1c1.3,4.9,3.4,8.7,9.2,8.9c2.2,0.1,3.8,1.5,3.1,3.7c-2.6,8.6-6,16.9-11,24.4c-0.5,0.7-1.6,0.9-2.4,1.3
		c-5.2,0.6-10.4,1.5-15.8-2.2c3.5,0.4,5.2-8.2,9.5,0.1c-0.4-6.5,3.5-11.2,2.8-17.1c-0.4-3.3-0.9-4.7-4.5-4.5
		c-13.6,0.5-24.5-5.4-33.9-14.6c-3.9-3.7-9-6-12.5-10.1c-1.4-1.8-1.2-4.1-2.5-6.4c0.9,2.3,1.6,4.2,1.5,6.3c0.2,2.1-0.3,3.6-2.7,4.1
		c-2.8,0.6-6.1,0.1-7.4,3.8c-0.1,0.3-0.8,0.6-0.9,0.5c-5.1-4.2-7.3,1.9-10.7,3.2c-5.8,2.1-11.7,3.5-17.8,4.6
		c-9.9,1.8-19.3,6-29.4,6.8c-15.2,1.3-30.2,5-45.6,4c-3.3-0.2-3.7-1.5-3-4.2c0.7-2.9,2.6-5.7,1-9.1c3.3,0,6.1,3.2,9.7,0.8
		c-4.5-1-7.3-4.5-11.1-6.2c-1.2-0.6-3.6,0.1-4.7,1.1c-1.7,1.4,0.5,2.5,1.1,3.6c1.6,2.8,4.3,5.4-1.8,6.4c-2.2,0.4-2.9,4.1-6,5.3
		c3.7,2.5,6,0.4,8.9-0.6c-1.6,2.7,0.3,8.3-6.2,6.8c-1-0.2-1.3,0.2-1.5,1.1c-0.2,1.2-0.2,2.4,1.2,2.7c3.5,0.7,2.1,2.7,1.3,4.6
		c-3.1,8-9.4,12.4-16.5,11.5c-1.2-0.2-2.9,0.2-3-1.7c0-1.1,0.2-2.3,0.8-3.2c1.1-1.6,2.2-0.6,3.2,0.3c0.9,0.8,2.7,1.4,2.8,0.3
		c0.6-5.1,5.8-8.4,4-15c-2.2-7.9-5.5-14-12.4-18.8c-0.4,4.1,1.6,6.1,4.6,7.7c1.4,0.7,3.4,1.7,2.3,3.8c-1.7,3.2-2.4-0.4-3.6-0.8
		c-7.6-2.3-13.5-7-17.8-13.6c-4.7-7.3-5.7-14.8-1.2-22.6c0.3-0.5,0.5-1,0.7-1.5c1.2-3.2,0.1-7.3,3.5-9.7c2.8-2,6.4-1.7,9.9-2.5
		c-1.6-3.1-4.8-0.4-6.5-2.5c1.3-4,5.8,0.3,7.3-2.7c-0.4-1.8-2.1,0.6-2.5-0.7c-0.4-1.1,0.5-2,1.3-2.1c6.3-1,7-6.3,8.8-10.9
		c0.7-1.9,1.2-4.1,2.4-5.6c6.7-8.1,0.4-16.3,0.6-24.4c-2.6,3.7-2,7.6-0.6,11.4c1.6,4-0.1,7.1-1.4,10.9c-5.2,15.3-19,16.5-31.2,20.5
		c-4,1.3-4.4-1.7-3.6-4.7c1.8-6.1,4.3-11.9,7.6-17.4c0.5-6.5,4.2-11.8,6.3-17.7c0.8-2.2,2.3-4.1,2.6-5.8c-3.8,6.3-5.1,14.5-9.9,21
		c-1.7,5.6-5.3,9.9-10.2,12.9c-1.6,1-4.2,3.1-4.6-1.4c-0.3-2.7-2.1-2.5-4.1-1.5c-4.9,2.3-9.6,5.2-14.8,6.6
		c-4.4,1.2-9.4,1.6-13.9,0.9c-4.6-0.7-5-6-0.9-9.5c5.3-4.5,11.5-7.9,18-10c3.4-1.1,5.4-2.7,7.4-5.3c2.1-2.7,4-5.9,7.4-7.4
		c0.6-0.3,1.5-0.9,1.5-1.4c0.8-7.7,7.2-9.3,12.7-11.8c1.7-0.8,3.5-1.4,5.3-1.9c14.7-3.3,18.9-3.6,28.8,12.6c0.6,0.9,0.9,2.3,1.7,2.8
		c7.1,3.9,9.2,10.9,10.2,17.8c1.2,8.2,5.5,13.3,12.4,16.9c1.6,0.9,3,0.1,4.3-0.4C404.7,224.9,407,224.3,409.5,224.6z"/>
	<path class="st12" d="M341.2,205.9c3.8-8.8,6.4-18.2,12.9-25.7c-4,9.4-7.9,18.8-11.9,28.1C341.9,207.5,341.5,206.7,341.2,205.9z"/>
	<path class="st13" d="M508.3,263.1c-1.4-2-1.6-4.4-1.7-6.8c2.5,1.6,2.3,4.4,2.8,6.8c0,0-0.5,0-0.5,0L508.3,263.1z"/>
	<path class="st14" d="M490.3,376.2c4.4,10.9,9.4,20.5,14.9,29.9c0.8,1.3,1.6,2.5,0.2,4c-4.7,4.6-9.6,8.7-16.7,7.2
		c-6.5-1.4-9.4-6.2-10.8-12.3C475.1,392.7,480.9,384.1,490.3,376.2z"/>
	<path class="st15" d="M511.9,346.4c-0.3,6.6-4.6,12.7-11.2,17.3c-1.6,1.1-2.7,1-3.3-1.1c-1.9-6.1-4-12.1-3.5-18.6
		c0.5-6.3,4.5-10.7,9.5-10.6C508.5,333.5,511.9,338.1,511.9,346.4z"/>
	<path class="st0" d="M601.8,397.6c0-4.9,0.2-9.7-0.1-14.6c-0.2-3.3,0.8-4.9,4.3-4.7c3.5,0.2,7.1,0,10.6,0.4
		c12.1,1.4,19.7,10.7,18.5,22.4c-1.1,11.6-9.8,18.5-22.3,17.7c-11.1-0.7-11.1-0.7-11.1-11.8C601.8,404,601.8,400.8,601.8,397.6z"/>
	<path class="st0" d="M601.8,354.2c0-4.5,0.3-9-0.1-13.4c-0.3-3.6,1.1-4.9,4.5-5.4c18.7-3,30.8,10.1,25.1,27.1
		c-2.1,6.2-6.4,9.4-12.7,10.2c-0.4,0-0.7,0.2-1.1,0.2c-13.7,2.2-15.6,0.5-15.6-13.1C601.8,358,601.8,356.1,601.8,354.2z"/>
	<path class="st15" d="M718,386.7c0,7.5,0.1,14.2,0,20.9c-0.1,3.7-6.1,9.2-10.4,9.4c-4.6,0.2-6.5-3.1-7.8-6.7c-2-5.6,0-12,4.9-16.1
		C708.4,391.1,712.7,389,718,386.7z"/>
	<path class="st0" d="M330.1,397.8c-0.2,3.9,0,9.3-2,14.2c-1.7,4.3-4.1,8.2-9.4,8.5c-5.2,0.4-8.5-2.6-10.8-6.8
		c-5.7-10.4-6.9-21.6-5.8-33.2c0.2-2.6,0.9-5.2,1.7-7.6c1.5-5,4.4-9,10-9.4c5.5-0.4,8.8,3.4,11.3,7.9
		C329.3,379.3,330,387.9,330.1,397.8z"/>
	<path class="st16" d="M142.8,386.7c0,6.7,0,12.7,0,18.6c0,5.5-5,11.2-10.4,11.7c-2.7,0.3-4.6-1.2-6.1-3.3
		c-4.1-5.6-3.1-13.7,2.3-18.8C132.5,391.3,137.1,389.1,142.8,386.7z"/>
	<path class="st17" d="M848.6,380.3c-1.3,0-2.6,0-3.9,0c-9.1,0-9.5-0.7-5.5-8.8c2.9-5.8,7.7-8.6,12.4-7.2c4.9,1.5,9.1,8.5,8.6,13.9
		c-0.2,1.9-1.2,2.1-2.6,2.1C854.6,380.3,851.6,380.3,848.6,380.3z"/>
	<path class="st18" d="M333.3,194.3c-1.9,3.6,1.1,10.4-6.2,9.4c-2.6-0.4-5.2-2.9-6.1-5.5c-0.8-2.3,6-5.9,10-5.7
		C332.7,192.5,333.4,193.1,333.3,194.3z"/>
	<path class="st19" d="M372,262.7c4.7-1.3,8.4-2.7,12.6-1.5c1,0.3,2.1-0.2,2.4,1.3c0.3,1.7-0.9,2.8-1.5,4.1
		c-0.5,1.1-1.8,0.1-2.3-0.4C380.2,263.7,376.4,263.8,372,262.7z"/>
</g>
</svg>
