<?xml version="1.0" encoding="utf-8"?>
<!-- Generator: Adobe Illustrator 21.1.0, SVG Export Plug-In . SVG Version: 6.00 Build 0)  -->
<svg version="1.1" id="Layer_1" xmlns="http://www.w3.org/2000/svg" xmlns:xlink="http://www.w3.org/1999/xlink" x="0px" y="0px"
	 viewBox="0 0 700 965" style="enable-background:new 0 0 700 965;" xml:space="preserve">
<style type="text/css">
	.st0{fill:#183029;}
</style>
<path class="st0" d="M82.8,501.7c2.1,11.2,10.9,20,22.5,20c9.2,0,13.6-3.6,20.9-8.6c3.4,4.1,3.8,2.7-0.2,6.3c-8.6,7.6-15,10-23.9,10
	c-18.1,0-28.8-14.2-28.8-31.3c0-17.4,12.4-31.1,29.6-31.1c13.5,0,24,9.8,25.8,23.1L82.8,501.7z M118.6,487.6
	c-1.3-9-8.4-16.1-17.9-16.1c-13.6,0-21.1,13.5-18.7,26L118.6,487.6z M0,528.4v-5h7.9V446H0v-5h26.3v5h-8v27.1h36.7V446h-8v-5h26.4v5
	h-7.9v77.4h7.9v5H47.1v-5h8v-44.6H18.4v44.6h8v5L0,528.4L0,528.4z M663.3,512.9c5.1,5.1,11.3,10.9,19.1,10.9
	c5.3,0,10.3-4.1,10.3-9.8c0-9.1-7.7-10.5-15.2-14.1c-9.5-4.5-15.3-7-15.3-16.8c0-10.9,9.1-16.1,18.9-16.1c6.3,0,12.6,2.7,17.4,5.8
	l-4.8,5.8c-5-2.7-9.9-7-15.9-7c-4.4,0-8.4,3-8.4,7.3c0,8.4,7.2,9.8,13.6,12.6c9.2,4.1,17,7.1,17,17.3c0,12.1-9.8,20.7-21.8,20.7
	c-8.6,0-14.8-3.4-21.1-8.8L663.3,512.9z M646.5,486.1c2.8-1.4,5.8-3.8,5.9-7.6l-0.7,0.2c-3.6,0-6.4-2-6.4-5.9c0-3.2,1.9-7,5.9-7
	c4.8,0,7.2,5.2,7.2,8.8c0,6.6-4.6,13.1-10.2,14.9L646.5,486.1z M585,528.4v-4.5h6.8v-49.3l-6.8,2.2v-4.5l16.4-5.4v10.2
	c6.1-4.7,12.7-10.2,21-10.2c13.5,0,19.1,7.8,19.1,20.5v36.4h7v4.5h-23v-4.5h6.4v-34.8c0-6.3-0.6-14.9-11.8-14.9
	c-8.3,0-12.7,4-18.8,8.9v40.8h6.7v4.5H585z M553.7,525c15.2,0,20.3-10.6,20.3-23.7c0-14.3-8-29.8-23.7-29.8
	c-13.5,0-20.9,10.9-20.9,23.4C529.5,509.1,537.7,525,553.7,525z M584.3,498.2c0,18-14.4,31.2-32.5,31.2c-18.1,0-32.5-13.2-32.5-31.2
	c0-18.1,14.4-31.3,32.5-31.3C569.9,467,584.3,480.2,584.3,498.2z M490.1,470.1c6.5-2.3,12-9.2,13.9-16l3.2,0.9v13h13.1l-0.7,5.6
	h-12.4v41.6c0,6.2,1.5,8.2,6.1,8.2c2.4,0,5-0.8,7.4-2.6l2.4,2.6c-3.2,3.8-9.5,6-14.3,6c-8.4,0-11.2-2.3-11.2-13.2v-42.8h-7.5
	L490.1,470.1L490.1,470.1z M455.1,470.1c6.5-2.3,12-9.2,13.9-16l3.2,0.9v13h13.2l-0.8,5.6h-12.4v41.6c0,6.2,1.6,8.2,6.2,8.2
	c2.4,0,4.9-0.8,7.4-2.6l2.5,2.6c-3.2,3.8-9.5,6-14.4,6c-8.4,0-11.3-2.3-11.3-13.2v-42.8h-7.5L455.1,470.1L455.1,470.1z M427.5,525
	c15.2,0,20.3-10.6,20.3-23.7c0-14.3-7.9-29.8-23.7-29.8c-13.4,0-20.8,10.9-20.8,23.4C403.3,509.1,411.4,525,427.5,525z M458,498.2
	c0,18-14.3,31.2-32.5,31.2c-18.1,0-32.4-13.2-32.4-31.2c0-18.1,14.3-31.3,32.4-31.3C443.7,467,458,480.2,458,498.2z M389.5,445.4
	l3.8,3.8l-17.5,16.3l-3.8-3.8c2.4-2.2,3.2-4,3.2-7.2c0-7.7-8-10.5-15.7-10.5c-21.4,0-31.4,18.8-31.4,38.8c0,21,14.2,39.3,34.3,39.3
	c10.6,0,19.9-3.8,27.1-11.6l3.8,4.2c-8.4,10.5-19.8,15.6-33.2,15.6c-26.6,0-42.5-19.9-42.5-46.3c0-23.7,18.7-45.2,42.4-45.2
	c10.4,0,18.1,3.2,26.1,9.7L389.5,445.4z M273.2,517.1l18.7-39.8l-2.2,0.4c-3.4,0-7-0.6-10.3-1.8c-3-1-6.7-2-10-2
	c-5.2,0-9.7,2.3-13.3,5.9L273.2,517.1z M302.3,469.3l-31,65.8c-4,8.4-8.6,19.2-18.5,19.2c-3,0-6-0.8-8.6-2.4l3.4-9.5
	c2,0.6,3.8,1.1,5.9,1.1c7,0,9.4-3.9,12-9.9l2.8-6.2l-24.3-52.5l-6.6,3.1l-1.5-3.6l14.5-7.4c1,2.8,2,6.2,3.7,9.1
	c5.6-4.5,11.9-9.1,19.4-9.1c2.6,0,5.6,0.6,8.6,1.3c2.8,0.6,5.8,0.9,7.9,0.9c3.4,0,6.7-0.2,9.4-2.2L302.3,469.3z M194.8,528.4v-4.5
	h6.7v-49.3l-6.5,2.3v-4.5L210,467v11c2-4.6,4.4-11,10.6-11c3.8,0,6.7,2.6,9.1,4.1l3-4.8l3.2,2.8l-7.8,12.7c-2-2.4-5.2-5.2-8.8-5.2
	c-7,0-8.1,7.2-8.1,17v30.2h8.4v4.5L194.8,528.4L194.8,528.4z M127.9,528.4v-4.5h6.8v-49.3l-6.8,2.2v-4.5l16.3-5.4v10.2
	c6.2-4.7,12.7-10.2,21-10.2c13.5,0,19.2,7.8,19.2,20.5v36.4h7v4.5h-23v-4.5h6.3v-34.8c0-6.3-0.5-14.9-11.7-14.9
	c-8.3,0-12.8,4-18.9,8.9v40.8h6.7v4.5H127.9z"/>
</svg>
