<?xml version="1.0" encoding="utf-8"?>
<!-- Generator: Adobe Illustrator 21.1.0, SVG Export Plug-In . SVG Version: 6.00 Build 0)  -->
<svg version="1.1" id="Layer_1" xmlns="http://www.w3.org/2000/svg" xmlns:xlink="http://www.w3.org/1999/xlink" x="0px" y="0px"
	 viewBox="0 0 700 965" style="enable-background:new 0 0 700 965;" xml:space="preserve">
<style type="text/css">
	.st0{fill:#EBF5F6;}
	.st1{fill:#010101;}
	.st2{fill:#F0F8F7;}
	.st3{fill:#F0F6F6;}
	.st4{fill:#EEF7F6;}
	.st5{fill:#F6FEFE;}
	.st6{fill:#EDFBFA;}
	.st7{fill:#F7FDFD;}
	.st8{fill:#F4FCFC;}
	.st9{fill:#EDFAF9;}
	.st10{fill:#F3FBFB;}
	.st11{fill:#F7FEFE;}
	.st12{fill:#F8FEFE;}
	.st13{fill:#F4FDFE;}
	.st14{fill:#F6FDFE;}
	.st15{fill:#F5FBFB;}
	.st16{fill:#F9FEFE;}
	.st17{fill:#FAFDFC;}
	.st18{fill:#F3FDFE;}
	.st19{fill:#F0F9F9;}
	.st20{fill:#F4FDFD;}
	.st21{fill:#F4FEFD;}
	.st22{fill:#F8FDFD;}
	.st23{fill:#F5FCFE;}
	.st24{fill:#F5FDFE;}
	.st25{fill:#FAFDFD;}
	.st26{fill:#F8FEFD;}
	.st27{fill:#F5FDFD;}
	.st28{fill:#F6FDFD;}
	.st29{fill:#F5FEFE;}
	.st30{fill:#F9FDFE;}
	.st31{fill:#F2FAFC;}
	.st32{fill:#F3FDFD;}
</style>
<g>
	<path class="st0" d="M350.8,727.7c-114.1,0-228.3,0-342.4,0.1c-2.5,0-3.1-0.6-3.1-3.1c0.1-161,0.1-321.9,0-482.9
		c0-2.5,0.6-3.1,3.1-3.1c228.5,0.1,457,0.1,685.5,0c2.5,0,3.1,0.6,3.1,3.1c-0.1,161-0.1,321.9,0,482.9c0,2.5-0.6,3.1-3.1,3.1
		C579.5,727.7,465.1,727.7,350.8,727.7z"/>
	<path class="st1" d="M601.5,492c-4-0.8-8-0.2-12-0.3c-1.6,0-2.1-0.4-2.1-2.1c-0.3-7.9-0.4-7.9,7.4-7.9c5.7,0,11.5,0.1,17.2-0.1
		c2.5-0.1,3,0.8,3,3.1c0.4,19.9-13,35-32.8,36.9c-11.5,1.1-22.6-0.2-31.9-7.8c-14.1-11.6-17.3-27-13.8-43.9
		c3.2-15.4,12.8-25.7,28.3-29.4c12.7-3.1,24.9-2,34.9,7.8c1.4-0.1,1-1.1,1.1-1.9c0.2-1.8-0.6-3.6,0.4-5.4c2.7-0.9,5.6-0.2,8.3-0.4
		c1.4-0.1,1.6,0.7,1.6,1.9c0,7.3,0,14.6,0,21.9c0,1.4-0.4,2.1-1.9,2c-0.6-0.1-1.1-0.1-1.7,0c-4.6,0.7-7.5-0.6-10-5.2
		c-3.5-6.6-9.7-10.3-17.5-10.9c-2.5,0.2-4.9,0.3-7.4,0c-11.1,0.3-21.3,9.1-24.1,21c-1.5,6.2-1.5,12.5,0,18.7c3.3,13.8,15,22,30,21.3
		c5.5-0.2,10.7-1.3,15.2-4.7c4.6-3.5,7.5-8,7.9-13.9c-0.2-0.1-0.3-0.2-0.3-0.4C601.4,492.1,601.4,492,601.5,492z"/>
	<path class="st1" d="M340.3,520.4c-11.7,0-23.4-0.1-35,0c-2,0-3.2-0.1-2.9-2.6c0.3-2.4-0.7-5.6,0.5-7.2c1.3-1.7,4.6-0.4,7-0.6
		c0.5-0.1,1-0.3,1.5-0.4c-0.2-19.6-0.2-39.2,0-58.8c-2.2-1-4.6-0.2-6.9-0.5c-0.8-0.1-2,0.5-2.1-1c-0.1-2.6,0-5.2,0-7.8
		c0-0.9,0.7-1,1.4-1c13,0.4,26.1-1.2,39.1,0.9c12.2,2,18.3,11.7,15.9,23.8c-0.9,4.3-3.2,7.6-6.8,10.1c-1.3,0.9-2.6,1.6-3.9,2.4
		c0.2,0.3,0.2,0.5,0.4,0.6c10.5,3.8,15.3,10.4,15,20.6c-0.3,10.7-5.4,17-16.4,20.2c-0.3,0.1-0.6,0.3-0.9,0.5
		C344.3,520.7,342.3,520.7,340.3,520.4z"/>
	<path class="st1" d="M467.1,450.8c-2.1-1.2-4.3-0.5-6.4-0.4c-2.4,0.1-3-0.8-2.8-3c0.2-2.2,0-4.4,0-6.6l0,0
		c14.4-0.1,28.8-1.4,43.1,0.7c14.6,2.1,21.4,15.8,15.1,29.3c-2.3,5-6.4,8-11.5,9.7c-1,0.3-2.3,0.2-1.4,2.1
		c4.3,8.9,8.5,17.8,12.7,26.7c0.3,0,0.4,0.1,0.3,0.4c2,1.1,4.2,0.5,6.2,0.4c2.2-0.1,2.5,0.7,2.5,2.7c0,7.7,0,7.2-7.5,7.9
		c-6.6,0.6-9.9-1.5-12.4-7.8c-3.8-9.7-8.7-19-13.1-28.4c-0.8-1.8-1.7-2.6-3.7-2.4c-3,0.3-6.9-1.2-8.8,0.6c-1.9,1.8-0.5,5.8-0.6,8.8
		c-0.1,5.4,0,10.8-0.1,16.2c0,1.7,0.2,2.7,2.3,2.6c2.3-0.1,5.4-1.1,6.8,0.4c1.5,1.6,0.2,4.7,0.5,7.2c0.3,2.3-0.6,2.8-2.8,2.7
		c-8.3-0.1-16.7-0.1-25,0c-2.3,0-2.8-0.7-2.8-2.8c0-7.4-0.1-7.4,7.4-7.6c0.6,0,1.4,0.3,1.8-0.5c-0.2-0.3-0.1-0.5,0.1-0.7
		c0-19.1,0-38.3,0-57.4c-0.2-0.1-0.3-0.3-0.2-0.4C467,450.8,467,450.8,467.1,450.8z"/>
	<path class="st1" d="M287.6,520.3c-20.8,0-41.6,0-62.5,0.1c-2,0-3.1-0.3-2.7-2.5c0-0.2,0-0.4,0-0.7c0-7,0-7.1,6.8-7.1
		c2.1,0,2.7-0.6,2.7-2.7c-0.1-18.2-0.1-36.5,0-54.7c0-1.9-0.5-2.5-2.5-2.5c-7.1-0.1-7-0.2-7-7.3c0-1.9,0.4-2.5,2.4-2.5
		c20.1,0.1,40.3,0.1,60.4,0c1.9,0,2.5,0.5,2.5,2.4c-0.1,6.3-0.1,12.6,0,18.9c0,1.9-0.4,2.5-2.4,2.5c-7.3,0.1-7.3,0.2-7.3-7
		c0-7,0-7-7-7c-8.2,0-16.4,0.1-24.7-0.1c-2.6-0.1-3.2,0.8-3.1,3.2c0.2,6,0.2,11.9,0,17.9c-0.1,2.8,0.9,3.3,3.4,3.2
		c8.2-0.1,16.4,0,24.6-0.1c2.2,0,3.2,0.3,3.1,2.9c-0.1,6.8,0,6.8-6.9,6.8c-7.2,0-14.4,0.1-21.6,0c-2.1,0-2.7,0.5-2.7,2.7
		c0.1,6.9,0.1,13.7,0,20.6c0,1.9,0.2,2.8,2.5,2.8c9.9-0.1,19.8-0.1,29.7,0c2.2,0,2.6-0.8,2.6-2.7c-0.1-3.5,0-7-0.1-10.5
		c0-1.6,0.4-2.1,2.1-2.2c7.6-0.3,7.6-0.4,7.6,7.1C287.7,507.9,287.6,514.1,287.6,520.3C287.6,520.3,287.6,520.3,287.6,520.3z"/>
	<path class="st1" d="M443.5,495.8c-0.6,7.1-0.2,14.1-0.2,21.2c0,2.5-0.4,3.4-3.2,3.4c-19.7-0.1-39.4-0.1-59.1,0
		c-2.2,0-3.3-0.4-3-2.9c0.3-2.3-0.7-5.3,0.4-6.9c1.2-1.7,4.4-0.6,6.7-0.6c1.9,0,2.5-0.6,2.5-2.5c-0.1-18.2-0.1-36.5,0-54.7
		c0-2-0.5-2.7-2.6-2.7c-7.1,0-7-0.1-7-7.3c0-1.8,0.4-2.5,2.4-2.5c20.1,0.1,40.3,0.1,60.4,0c1.8,0,2.5,0.4,2.5,2.4
		c-0.1,6.4-0.1,12.8,0,19.2c0,1.5-0.4,2.1-2.1,2.2c-7.7,0.4-7.7,0.5-7.7-7.3c0-6.7,0-6.7-6.6-6.7c-8.2,0-16.4,0-24.6,0
		c-1,0-2.2-0.6-3.1,0.5c0.2,0.3,0.2,0.5-0.1,0.7c0,7,0,14.1-0.2,21.1c-0.1,2.2,1.2,1.9,2.5,1.9c8.4,0,16.8,0,25.2,0
		c1.2,0,2.5-0.5,3.5,0.6c0.6,2.7,0.5,5.4,0,8.1c-0.8,1.5-2.2,0.9-3.3,0.9c-8.2,0.1-16.3,0-24.5,0.1c-1,0-2.2-0.5-3.2,0.4
		c0.2,0.3,0.1,0.5-0.1,0.7c0,7.9,0,15.8,0,23.6c0.2,0.1,0.3,0.3,0.3,0.4c0,0.2-0.1,0.3-0.1,0.3c0.6,0.9,1.4,0.5,2.2,0.5
		c9.8,0,19.6,0,29.4,0.1c2.1,0,3-0.4,2.9-2.7c-0.2-3.5,0-7-0.1-10.5c0-1.6,0.4-2.3,2.1-2.1c2.6,0.3,5.4-0.7,7.9,0.7
		c0.3,0.1,0.4,0.1,0.3,0.2C443.7,495.7,443.6,495.8,443.5,495.8z"/>
	<path class="st1" d="M174.1,510.8c11.7-1.5,19-8.7,23.4-19c1.5-3.4,2.4-3.5,5.2-1.7c6.8,4.3,6.9,4.2,3.2,11.4
		c-7.7,14.9-24.1,22.7-42.2,20c-16.4-2.5-29.3-14.9-32.1-31.2c-2.1-12-1-23.6,5.9-34c11.6-17.5,31.4-19.7,45.9-15.3
		c5.1,1.5,9.1,4.8,13.1,9.6c0-3,0.2-5.3,0-7.5c-0.2-2.2,0.6-2.9,2.6-2.5c2.5,0.4,5.1-0.9,7.5,0.8c0.8,6.8,0.2,13.6,0.3,20.4
		c0,1.3,0.4,2.7-0.4,3.9c-3.3,1.2-6.6,0.3-10,0.5c-1,0.1-1.2-0.9-1.5-1.6c-6.4-13.1-18.2-16.7-30.4-14.1
		c-12.3,2.6-20.6,13.1-21.4,26.6c-0.6,9.5,1.1,18.4,7.8,25.7c4.4,4.8,9.8,7.9,16.5,8.1C169.6,510.5,171.9,510.4,174.1,510.8z"/>
	<path class="st1" d="M118,519.5c-0.3,0.5-0.7,0.9-1.3,0.9c-9.8-0.1-19.7,0.3-29.5-0.2c-0.8-3.3-0.6-6.7-0.1-10
		c2.1-1,4.4-0.4,6.6-0.5c1.9,0,2.5-0.8,2.5-2.6c0-17.9-0.1-35.7,0-53.6c0-2.2-1-2.6-2.8-2.6c-2.1,0-4.3,0.5-6.3-0.5
		c-0.5-3-0.6-6,0-8.9l0.2-0.2l-0.1-0.2c0.7-1.2,2-0.9,3-0.9c8.7,0,17.4-0.2,26.1,0.2c1,0,2.2,0,2.1,1.5c-0.1,2.7,0.5,5.5-0.4,8.2
		c-2.5,0.8-5.1,0.3-7.7,0.3c-1.6,0-2.2,0.5-2.1,2.1c0,18.5,0,37.1,0,55.6c0,1.7,0.6,2.1,2.2,2.1c2.6,0.1,5.2-0.5,7.7,0.4
		C118.7,513.4,118.7,516.4,118,519.5z"/>
	<path class="st2" d="M311.4,450.7c0.6,0.5,0.4,1.2,0.4,1.9c0,18.4,0,36.7,0,55.1c0,0.6,0.3,1.4-0.4,1.8c-2.7,0-5.4,0-8,0
		c0-0.2,0-0.5,0-0.7c1.3,0,2.7-0.1,4,0c2.8,0.4,3.4-0.9,3.4-3.5c-0.1-16.8-0.1-33.5,0-50.3c0-2.5-0.5-3.7-3.1-3.5
		c-2,0.1-4.8,0.6-5.7-0.4c-1.6-1.8-0.4-4.7-0.6-7.1c-0.1-1.1,0-2.2,0.7-3.3c0,2.5,0.1,5,0,7.5c-0.1,1.9,0.7,2.6,2.6,2.6
		C306.7,450.7,309,450.7,311.4,450.7z"/>
	<path class="st3" d="M87.1,449.9c2.3,0.8,4.7,0.3,7,0.3c1.7,0,2.6,0.3,2.6,2.3c-0.1,18.4-0.1,36.8,0,55.2c0,1.7-0.5,2.3-2.3,2.3
		c-2.4,0-4.9-0.5-7.3,0.4c-0.4-0.2-0.4-0.5-0.1-0.8c1.9-1.5,4.1-0.6,6.2-0.7c1.8-0.1,2.7-0.4,2.7-2.5c-0.1-17.5-0.1-35.1,0-52.6
		c0-2-0.9-2.4-2.7-2.5c-2.1-0.1-4.3,0.8-6.2-0.7C86.7,450.4,86.7,450.1,87.1,449.9z"/>
	<path class="st4" d="M385.5,450.9c1.8,0.1,1.4,1.5,1.4,2.5c0,17.8,0,35.5,0.1,53.3c0,2.2-0.6,3.1-2.9,2.9c-1.9-0.1-3.9,0-5.9-0.7
		c1.9,0,3.8-0.1,5.6,0c1.7,0.1,2.4-0.6,2.4-2.3c0-17.8,0-35.5,0-53.3c0-0.7-0.1-1.3-0.7-1.8c-0.2-0.1-0.2-0.2-0.2-0.3
		C385.4,451,385.4,450.9,385.5,450.9z"/>
	<path class="st5" d="M379,439.5c21.6,0,43.2,0,64.8,0c0,0.1,0,0.3,0,0.4c-21.6,0-43.3,0-64.9,0C378.9,439.8,379,439.6,379,439.5z"
		/>
	<path class="st6" d="M442.7,521.6c-21.5,0-42.9,0-64.4,0c0-0.1,0-0.2,0-0.3c21.5,0,43,0,64.5,0
		C442.8,521.4,442.8,521.5,442.7,521.6z"/>
	<path class="st5" d="M222.9,439.5c21.1,0,42.1,0,63.2,0c0,0.1,0,0.2,0,0.2c-21.1,0-42.1,0-63.2,0
		C222.9,439.6,222.9,439.5,222.9,439.5z"/>
	<path class="st6" d="M287.6,521c-0.1,0.4-0.2,0.9-0.8,0.9c-19.5-0.1-39.1-0.2-58.6-0.3c-0.2,0-0.4-0.1-0.6-0.7
		C247.6,521,267.6,521,287.6,521L287.6,521z"/>
	<path class="st7" d="M118,449.9c-0.1-2.5-0.1-4.9-0.1-7.4c0-1.1,0-2-1.5-2c-9.7,0.3-19.5-0.5-29.2,0.4c-0.1-0.9,0.2-1.6,1.3-1.6
		c8.3,0.6,16.7,0.6,25,0c1.4,1.5,4.3-1,5,1.3c0.9,3,0.5,6.3,0.1,9.5c0,0-0.2,0.1-0.3,0C118.1,450,118,449.9,118,449.9z"/>
	<path class="st8" d="M457.9,440.7c-0.8-2.3,1.1-1.3,1.8-1.3c6.9-0.1,13.7-0.1,20.6-0.1c5.4,0,10.7,0,16.1,0c0,0.2,0,0.4,0,0.7
		c-7.6,0-15.2,0-22.9,0c-4.2,0-8.3,0-12.5,0C459.9,440,458.6,439.5,457.9,440.7C457.8,440.7,457.9,440.7,457.9,440.7z"/>
	<path class="st9" d="M340.3,521c-0.6,0.7-1.4,0.7-2.1,0.7c-11.9,0.1-23.7,0.2-35.6,0.2c-0.6,0-0.7-0.5-0.8-0.9l0,0
		C314.6,521,327.5,521,340.3,521z"/>
	<path class="st10" d="M303.3,439.4c11.4,0,22.8,0,34.2,0c0,0.1,0,0.2,0,0.3c-11.4,0-22.8,0-34.2,0
		C303.3,439.7,303.3,439.5,303.3,439.4z"/>
	<path class="st11" d="M399.2,509.5c-0.1-0.1-0.1-0.3-0.2-0.4c0-0.1,0-0.2,0.1-0.2c11,0,22,0,33,0c0,0.2,0,0.4,0,0.7
		C421.1,509.5,410.2,509.5,399.2,509.5z"/>
	<path class="st11" d="M399.1,451.4c0-0.2,0.1-0.4,0.1-0.7c11,0,21.9,0,32.9,0c0,0.2,0,0.4,0,0.7
		C421.1,451.4,410.1,451.4,399.1,451.4z"/>
	<path class="st6" d="M488.1,521.7c-9.8,0-19.6,0-29.4,0c0-0.2,0-0.3,0-0.5c9.8,0,19.6,0,29.4,0
		C488.1,521.4,488.1,521.6,488.1,521.7z"/>
	<path class="st12" d="M399.1,485.2c0-0.2,0.1-0.4,0.1-0.7c9.8,0,19.5,0,29.3,0c0,0.2,0,0.4,0,0.7
		C418.7,485.2,408.9,485.2,399.1,485.2z"/>
	<path class="st13" d="M287.6,521c0-0.2,0-0.4,0-0.7c0,0,0,0,0,0c1.2-1,0.7-2.3,0.7-3.5c0-7.1,0-14.3,0.6-21.4c0,8.1,0,16.2,0,24.3
		C288.9,520.5,288.3,520.9,287.6,521C287.6,521,287.6,521,287.6,521z"/>
	<path class="st5" d="M588.9,480.6c8,0,16.1,0,24.1,0c0,0.1,0,0.2,0,0.3c-8,0-16.1,0-24.1,0C588.9,480.8,588.9,480.7,588.9,480.6z"
		/>
	<path class="st5" d="M113.3,439.3c-0.5,0.6-1.1,0.7-1.8,0.7c-7.1,0-14.3,0-21.4,0c-0.7,0-1.3-0.1-1.8-0.7
		C96.7,439.3,105,439.3,113.3,439.3z"/>
	<path class="st12" d="M443.5,495.8l-0.2-0.2c0,0,0.1-0.2,0.1-0.2c0.4,0,1,0,1,0.6c0,7.6,0,15.2,0,22.8c-0.3,0-0.7,0-1,0
		C443.5,511.1,443.5,503.4,443.5,495.8z"/>
	<path class="st14" d="M206.5,465.6c0-8.1,0-16.2,0.1-24.3c0.6,0.4,0.7,1.1,0.7,1.8c0,6.9,0,13.9,0,20.8
		C207.2,464.5,207.1,465.2,206.5,465.6z"/>
	<path class="st12" d="M443.8,462.7c0-6.9,0-13.8,0-20.6c0.1,0,0.2,0,0.3,0c0,6.9,0,13.8,0,20.7
		C444.1,462.7,443.9,462.7,443.8,462.7z"/>
	<path class="st13" d="M288.4,463.4c0-6.6,0-13.2,0-19.8c0.1,0,0.2,0,0.3,0c0,6.6,0,13.3,0,19.9
		C288.6,463.4,288.5,463.4,288.4,463.4z"/>
	<path class="st15" d="M601.1,440.9c0,2.9,0,5.9,0,8.8c-0.9-0.2-1.2-0.9-1.5-1.6c1-2.1,0.7-4.3,0.5-6.4c-0.1-0.9,0.1-1.5,0.9-1.8
		l0,0C601,440.3,601.1,440.6,601.1,440.9z"/>
	<path class="st16" d="M601.5,492c0.1,0.1,0.2,0.3,0.2,0.4c0,0.1,0,0.2-0.1,0.3c-3.9,0-7.8,0-11.7,0c-1.1,0-2.3,0.4-3.1-0.7
		c0,0,0,0,0,0C591.7,492,596.6,492,601.5,492z"/>
	<path class="st17" d="M87,509.6c0,0.3,0.1,0.5,0.1,0.8c0,3.2,0,6.5,0,9.7c-0.2,0.1-0.4,0.1-0.6,0.2C86.4,516.7,85.7,513.1,87,509.6
		z"/>
	<path class="st11" d="M118,519.5c-0.3-3-0.3-6,0-9c1-0.6,0.8,0.3,0.8,0.7c0,3,0,6,0,9c0,0-0.2,0.1-0.2,0.1
		C118.3,520,118.1,519.7,118,519.5z"/>
	<path class="st18" d="M489.1,519.6c0-3.1,0-6.1,0-9C489.9,512.3,490,514.6,489.1,519.6z"/>
	<path class="st9" d="M340.3,520.4c2-0.3,3.9-0.5,5.9-0.8c0.4,0.1,0.9,0.1,1.8,0.2c-2.7,1.5-5.2,1.2-7.7,1.2
		C340.3,520.8,340.3,520.6,340.3,520.4z"/>
	<path class="st19" d="M176.1,438.4c-3.3,0-6.6,0-9.9,0c0-0.1,0-0.2,0-0.3c3.3,0,6.6,0,9.9,0C176.1,438.2,176.1,438.3,176.1,438.4z"
		/>
	<path class="st12" d="M221.9,510.4c0,3.1,0,6.2,0,9.2c-0.1,0-0.2,0-0.3,0c0-3.1,0-6.1,0-9.2C221.7,510.4,221.8,510.4,221.9,510.4z"
		/>
	<path class="st20" d="M377.2,440.7c0,3.1,0,6.1,0,9.2c-0.1,0-0.2,0-0.2,0c0-3.1,0-6.1,0-9.2C377.1,440.7,377.2,440.7,377.2,440.7z"
		/>
	<path class="st21" d="M301.8,521c-1.5-3.3-0.3-6.7,0-10C301.8,514.3,301.8,517.6,301.8,521C301.8,521,301.8,521,301.8,521z"/>
	<path class="st11" d="M516.1,509.5l-0.3-0.1l0-0.3c2.9-0.8,5.9,0,8.8,0.4C521.7,509.5,518.9,509.5,516.1,509.5z"/>
	<path class="st22" d="M221.6,450c0-2.8,0-5.7,0-8.5c0.1,0,0.2,0,0.2,0c0,2.8,0,5.7,0,8.5C221.8,450,221.7,450,221.6,450z"/>
	<path class="st23" d="M430.2,483.2c0-2.7,0-5.4,0-8.1c0.5-0.1,1.4-0.4,1.4-0.3C429.8,477.4,431.7,480.6,430.2,483.2z"/>
	<path class="st5" d="M601,439.9c3.1-1.4,6.2-0.3,9.4,0C607.3,440,604.1,440,601,439.9C601,440,601,439.9,601,439.9z"/>
	<path class="st24" d="M586.8,492c-1.4-3.1-0.3-6.3,0-9.4C586.8,485.7,586.8,488.8,586.8,492C586.8,491.9,586.8,492,586.8,492z"/>
	<path class="st25" d="M87.1,449.9c0,0.3-0.1,0.6-0.1,0.8c-1-3.1-1.1-6.3,0.1-9.4C87.1,444.1,87.1,447,87.1,449.9z"/>
	<path class="st26" d="M467.2,508.8c0,0.2-0.1,0.4-0.1,0.7c-2.8,0-5.7,0-8.5,0c0-0.2,0-0.4,0-0.7
		C461.4,508.8,464.3,508.8,467.2,508.8z"/>
	<path class="st27" d="M277.3,455.8c0,2.5,0,5.1,0,7.6c-0.1,0-0.2,0-0.3,0c0-2.6,0-5.3,0-7.9C277.1,455.6,277.2,455.7,277.3,455.8z"
		/>
	<path class="st28" d="M467.1,450.8c0.1,0.1,0.1,0.3,0.2,0.4c0,0.1,0,0.2-0.1,0.2c-2.9,0-5.8,0-8.6,0c0-0.2,0-0.4,0-0.7
		C461.4,450.8,464.2,450.8,467.1,450.8z"/>
	<path class="st29" d="M377.2,511c0,2.6,0,5.3,0,7.9c-0.1,0-0.2,0-0.3,0c0-2.6,0-5.3,0-7.9C377,511,377.1,511,377.2,511z"/>
	<path class="st5" d="M205.1,439.8c-2.6,0-5.3,0-7.9,0c0-0.1,0-0.2,0-0.3c2.6,0,5.2,0,7.8,0C205,439.6,205,439.7,205.1,439.8z"/>
	<path class="st22" d="M572.6,450.1c2.5-0.6,4.9-0.5,7.4,0C577.6,451.1,575.1,451.2,572.6,450.1z"/>
	<path class="st11" d="M385.5,450.9c0,0.2,0.1,0.4,0.1,0.5c-2.2,0-4.4,0-6.5,0c0-0.2,0-0.4,0-0.5
		C381.2,450.9,383.3,450.9,385.5,450.9z"/>
	<path class="st30" d="M174.1,510.8c-2.2,0.5-4.5,0.6-6.7,0C169.6,509.8,171.9,509.9,174.1,510.8z"/>
	<path class="st0" d="M338.3,483.9c9.8,0.9,15.3,7.9,12.8,16.8c-1.6,6-6.4,8.5-12,9.3c-5,0.7-10.1,0.3-15.1,0.2
		c-0.2,0-0.4-0.4-0.5-0.7c0.4-0.1,0.6-0.6,0.5-0.9c-0.3-0.6-0.2-1.3-0.2-2c0-6.6,0.1-13.2,0-19.8c0-2.2,0.7-3,2.9-3
		C330.5,483.8,334.4,484.1,338.3,483.9z"/>
	<path class="st0" d="M323.3,462.2c0-3.3,0-6.5,0-9.8c0-1.4,0.2-2.3,2-2.2c4,0.2,8.1-0.2,12.1,0.5c6.5,1.2,10.2,5.2,10.4,11.3
		c0.1,6.1-3,9.8-9.8,11.3c-4.3,0.9-8.7,0.4-13.1,0.6c-1.6,0.1-1.5-0.8-1.5-1.9C323.3,468.8,323.3,465.5,323.3,462.2z"/>
	<path class="st31" d="M338.3,483.9c-3.3,1.4-6.8,0.6-10.2,0.5c-3.3-0.1-4.2,1-4,4.2c0.2,5.4,0.2,10.7,0,16.1
		c-0.1,3,0.4,4.9,3.9,4.8c-1.5,0-3,0-4.5,0c-0.2-8.6-0.3-17.1,0.1-25.7c4.4-0.6,8.7-0.4,13.1-0.1
		C337.2,483.8,337.7,483.9,338.3,483.9z"/>
	<path class="st0" d="M336.6,483.8c-4.4,0-8.7,0-13.1,0.1C327.9,482.9,332.2,483,336.6,483.8z"/>
	<path class="st0" d="M492.2,450.1c9,0.1,13.6,3.8,13.7,11.3c0.1,5.4-2.2,8.6-7.4,10.3c-6,1.9-12.3,1.2-18.4,1.4
		c-1,0-1.4-0.4-1.4-1.4c0-7.1,0.1-14.2,0.1-21.3c0-0.1,0.4-0.2,0.5-0.3c0.8,6.4,0.1,12.8,0.3,19c0-5,0.1-10.2,0-15.4
		c0-2.5,0.8-3.5,3.5-3.3C486.2,450.5,489.3,450.8,492.2,450.1z"/>
	<path class="st32" d="M492.2,450.1c-2.8,1.3-5.8,0.7-8.6,0.5c-3-0.2-3.6,1.2-3.6,3.6c0,4.6,0,9.2,0,13.8c0,0.7,0.3,1.5-0.7,2.5
		c0-7,0-13.7,0-20.5C483.7,449.8,488,449.8,492.2,450.1z"/>
</g>
</svg>
