<?xml version="1.0" encoding="utf-8"?>
<!-- Generator: Adobe Illustrator 21.1.0, SVG Export Plug-In . SVG Version: 6.00 Build 0)  -->
<svg version="1.1" id="Layer_1" xmlns="http://www.w3.org/2000/svg" xmlns:xlink="http://www.w3.org/1999/xlink" x="0px" y="0px"
	 viewBox="0 0 700 965" style="enable-background:new 0 0 700 965;" xml:space="preserve">
<style type="text/css">
	.st0{fill:#FEFEFE;}
	.st1{fill:#020202;}
	.st2{fill:#030303;}
	.st3{fill:#040404;}
	.st4{fill:#090909;}
	.st5{fill:#0C0C0C;}
	.st6{fill:#131313;}
	.st7{fill:#5F5F5F;}
	.st8{fill:#141414;}
	.st9{fill:#1D1D1D;}
	.st10{fill:#CDCDCD;}
	.st11{fill:#E1E1E1;}
	.st12{fill:#EFEFEF;}
	.st13{fill:#DBDBDB;}
	.st14{fill:#CBCBCB;}
	.st15{fill:#1C1C1C;}
	.st16{fill:#FCFCFC;}
	.st17{fill:#FDFDFD;}
	.st18{fill:#FBFBFB;}
	.st19{fill:#F9F9F9;}
	.st20{fill:#F8F8F8;}
	.st21{fill:#F4F4F4;}
	.st22{fill:#F6F6F6;}
	.st23{fill:#EBEBEB;}
	.st24{fill:#F5F5F5;}
	.st25{fill:#FAFAFA;}
	.st26{fill:#E6E6E6;}
	.st27{fill:#EAEAEA;}
	.st28{fill:#E8E8E8;}
	.st29{fill:#D3D3D3;}
	.st30{fill:#ECECEC;}
	.st31{fill:#A3A3A3;}
	.st32{fill:#676767;}
	.st33{fill:#F0F0F0;}
	.st34{fill:#E5E5E5;}
	.st35{fill:#F2F2F2;}
	.st36{fill:#9F9F9F;}
	.st37{fill:#E2E2E2;}
	.st38{fill:#DCDCDC;}
	.st39{fill:#E0E0E0;}
	.st40{fill:#C4C4C4;}
	.st41{fill:#A6A6A6;}
	.st42{fill:#F3F3F3;}
	.st43{fill:#D1D1D1;}
	.st44{fill:#D9D9D9;}
	.st45{fill:#BFBFBF;}
	.st46{fill:#E9E9E9;}
	.st47{fill:#595959;}
	.st48{fill:#C5C5C5;}
	.st49{fill:#BBBBBB;}
	.st50{fill:#C3C3C3;}
	.st51{fill:#DEDEDE;}
	.st52{fill:#464646;}
	.st53{fill:#A4A4A4;}
	.st54{fill:#C7C7C7;}
	.st55{fill:#D4D4D4;}
	.st56{fill:#F1F1F1;}
	.st57{fill:#DFDFDF;}
	.st58{fill:#D7D7D7;}
	.st59{fill:#EDEDED;}
	.st60{fill:#8E8E8E;}
	.st61{fill:#848484;}
	.st62{fill:#EEEEEE;}
	.st63{fill:#828282;}
	.st64{fill:#6E6E6E;}
	.st65{fill:#101010;}
	.st66{fill:#1F1F1F;}
	.st67{fill:#0E0E0E;}
	.st68{fill:#050505;}
	.st69{fill:#E4E4E4;}
	.st70{fill:#D2D2D2;}
</style>
<g>
	<path class="st0" d="M1.4,482.2c0-114.7,0-229.4-0.1-344.1c0-4.7,0.7-5.8,5.6-5.8c228.2,0.2,456.5,0.2,684.7,0
		c5.3,0,5.9,1.5,5.9,6.2c-0.1,229.6-0.1,459.3,0,688.9c0,4.9-0.8,6.2-6,6.2c-228-0.2-456-0.2-684,0c-5.5,0-6.3-1.5-6.3-6.6
		C1.4,712,1.4,597.1,1.4,482.2z"/>
	<path class="st1" d="M412.1,416.8c4.6,2.2,9.3,4.4,13.9,6.8c1.2,0.7,1.9,3.2,3.7,1.4c1.1-1.1,0.3-2.6-0.8-3.7c-1-1-2.4-2.2-1-3.4
		c1.7-1.6,3.5,0.3,3.8,1.4c3.3,9.6,10.8,4,16.3,4.2c2.9,0.1,0.9-3.1,0.2-4.9c4.6-2,5.5,0.3,4.9,4.3c-0.3,0.3-0.6,0.6-0.8,0.8
		c-4.8,3.7-10.5,3.3-16,4.3c-9.3,1.8-15.4-4-22.6-7.1c-8.2-3.5-9-3-8.9,5.7c0.1,3.6-0.9,7.5-4.5,7.6c-7.2,0.2-11.9,6.6-19,6.8
		c-0.7,0-1.8,0.2-1.9,0.5c-4.2,12.9-13.6,4.3-20.7,5.3c-7.4,1.1-15.5-0.8-22,4.6c-1.9,1.5-3.5,4.1-6.5,2c-0.9-0.7-2-0.7-1.7,0.6
		c0.6,3.6-3.3,4.1-4.6,7.3c3.6,0.2,7,0.3,10.3,0.7c4.1,0.6,6.2,2.9,3.4,6.7c-6.4,8.4-13.2,16.6-20,24.8c-2.3,2.8-5.9,2.4-9.1,2
		c-2.3-0.3-4.5-0.9-6.8-1.2c-8.8-1.3-14.7,1.5-18.8,10.2c-6.5,13.9-13.4,27.6-18.6,42.1c-0.5,1.5-0.5,3.7-3.5,4.9
		c2.4-12.8,9.2-23.3,12.3-35c-0.3-3.6,2.8-6.2,2.7-9.8c5.1-7.9,10.2-15.8,15.4-23.8c0.9-3.2,3.1-5.5,5.2-7.5c-2.3,1.6-3.4,4.9-6.6,6
		c-17.9,18.8-29.4,41.7-40.6,64.8c-0.8,1.7-1.6,3.3-2.5,5c-0.2,0.3-0.7,0.4-1.5,0.8c-0.7-3.6,1.2-6.3,2.6-9
		c7.7-15.7,16.1-31,25.9-45.4c3-4.4,2.9-6.8-2.9-6.5c-11.1,0.7-21.4-3.6-32.2-4.8c-4.1-0.4-6.5,0.7-8.4,4.3
		c-3.8,7.4-7.9,14.8-12,22.1c-1.1,2-2.6,5.7-3.5-0.2c3-8.4,7.8-15.9,11.6-22.2c-4.3,5.3-6.7,13.5-11.8,20.1c-5.8,1.9-2.5-2-1.8-3.3
		c3.4-6.5,7-12.9,10-19.6c-6.3,5.7-8.8,14-14.4,20.2c1-6.3,4.7-11.4,7.6-16.8c1.6-2.9,4.8-5.8-1.4-7.3c-1.4-0.3-2.4-2.2-2.5-4
		c-0.2-5,8.4-14,13.4-13.9c5,0.1,10.1,0.8,6.4-7.1c-0.5-1.1,0.6-3.1,1.3-4.5c3.1-6.3,6.3-12.4,9.4-18.7c1.5-3,4.2-5.7,1.9-9.6
		c-0.9-1.5,0.7-3.1,1.6-4.4c2.2-3,4.3-6.1,6.6-9c3.9-4.9,5.7-9,2-15.9c-6.9-13-2.6-25.3,7.2-35.8c-0.8-0.6-1.2-1.3-1.8-1.3
		c-11.2-0.4-11.2-0.4-8.9-11.8c1.1-5.5,2.1-11,1.9-16.6c-0.1-2.9,0.3-6-3-8.4c7.6-1.4,11-7.1,16-10.7c1.8-1.3,1.4-3.1,0.3-4.9
		c-1.4-2.4-0.1-5-0.1-7.6c9.8-0.8,19.7-0.2,29.6-0.3c2.5,0.6,5.1,0.7,7.7,0.6c4.6,1.2,9.5,0.3,13.4,0.9c-2.1-0.5-5-0.1-7.9-0.2
		c-3.8-0.5-7.6-0.6-11.4-1c-7.6-0.8-15.3-0.1-22.9-0.4c-2.5-0.1-5.2,0.6-7.3-1.4c3.1-6.9,9.4-12.2,10.2-20.3c0.3-2.7,3.3-3,5.6-3.1
		c10-0.5,20-0.9,30-1.6c1.1-0.1,1.3,0.1,2,0.8c2.9,2.8,3,2.7,3.9-2c5.6,7.4,8.7,8,18.1,4c1.2-0.5,2.7-0.3,4.1-0.4
		c2.3-0.2,4.1-1.4,4.9-3.4c2.8-6.8-2.7-10.7-5.9-15.4c-2.5-3.6-5.9-4-9.8-2.1c-4.8,2.4-10.2,2.9-15.4,3.1c-4.2,0.2-5.8,3.1-7.9,6
		c-2.5-1.4,0.4-7.6-4.5-5.8c-3.7,1.4-4.8,5.2-1.3,9.9c-4.5-1.1-5.7-3-5-5.8c0.9-3.6,3.2-7.5,6.7-6.9c4.6,0.7,8.6-3.7,13.4-0.7
		c1.6,1,3.2-1.9,4-3.9c1.9-4.8,5.3-5.8,10.5-5.7c7.1,0,14.2,0.5,21,1.6c11,1.9,23.9-1,31.5,11.4c1.8,2.9,3.7,5.3,3,8.8
		c-1.3,6.1-0.1,11.2,5.8,14.4c1.5,0.8,3.7,2.6,3.7,3.9c-0.2,7,7.5,9.9,8,16.4c0,0.6,0.8,1.5,1.2,1.5c9-0.2,10.6,8.7,15.8,13.1
		c4.9,4,3.5,10-3,17.2c5.2-2.2,10,7,15.5-0.2c2.6,5.2,9.7,1.9,11.5,4.8c3.1,4.8,5.2,6.8,10,3c0.4-0.3,0.8-0.4,1.2-0.6
		c3.1,7,8.6,0,9.7,0.8c6.7,4.8,17.4-2.2,22.1,7.8c0.6,1.3,4.3,2.2,4.4-0.1c0.1-4.4,2.5-4,5.3-4.1c2.1-0.1,0.1-3.1,2.5-3.9
		c2.1,2.5,2,4.8-0.8,6.8c-3.8,2.7-6.8,8.7-12.8,4.5c-7.7-5.4-15.4-7.3-24.7-3.7c-4.6,1.8-10.8-1.3-14.1-3.7
		c-8.1-5.8-17.1-5-25.7-6.6c-3.6-0.7-6.3-1.7-7.7-4.8c-1.6-3.6,1.4-4.9,3.7-6.4c2.5-1.5,3.1-5,1.7-6c-4.5-3.2-6-8.3-9-12.3
		c-1.2-1.5-3.6-2.2-5.8-1.6c-3.9,1-6.8,1.1-4.8-4.4c0.2-0.6,0.4-1.9,0.1-2c-6.7-3-5.4-10.7-8.9-15.5c-1.7-2.3-4.1-2.6-6.8-1.7
		c-3.5,1.2-3.5,1-7.5,0c1.3-2.9,6.5-2,6-4.6c-0.9-5.6,0-11.4-1.1-16.4c-1-4.3-6.8-7.8-10.9-11.1c-1.8-1.4-4.4-0.4-7.5,2.3
		c1.3,0.7,2.4,1,3.3,1.7c8.2,6.3,8.3,12.5,0.6,19.6c-0.5,0.5-1.3,0.8-1.6,1.3c-1.3,2.4-2.4,6.2-5.7,3.2c-1.1-1,1.3-6.4,3.2-6.8
		c5.6-1.2,1.5-8.3,6.3-9.4c0,0-0.1-0.8-0.2-1.3c-1.3-3.8-16.2-12.7-19.8-11.5c-1.9,0.6-3.1,0.3-4.4-0.9c-2.8-2.6-5.5-1.5-8.7,0.5
		c4.1,2.8,7.1,6.3,9.4,10.7c5.3,10,4.2,14.4-5.9,18.9c4,5.3,5,5.4,12.9,1c-0.6,3.8-0.6,3.8-6.6,7c2.8,5.1,6.8,4.3,12.4,0.9
		c-1.6,5.2-3.5,7-7.4,6c-3.4-1-6.4-2.8-8.2-6c-3.8-6.7-10.8-6.3-16.9-6.4c-2.6-0.1-4,4.4-3.1,7.4c1,3.5,1.5,7.3,4.1,10.3
		c2.8,3.2,3.3,4.8-1.1,8.4c-6.5,5.4-11.9,12.6-16.1,20c-2.1,3.7-2.1,8.6-5.5,12.1c-1,1-0.9,4.4,1.9,3.3c2.9-1.2,6.6-0.2,8.5-2.2
		c6.6-6.7,12.5-5.8,18.6,1.5c2.4-6.1,3.3-11.8,8.1-15.3c2-1.5,0.4-3.5,0.4-5.2c0.1-1.9-0.3-3.8,2.1-4.6c1.7-0.6,3.3-0.4,4.6,0.8
		c1.5,1.4,1.7,3.2,1.3,5.2c-1.7,8.2,0.5,11.5,8.7,12.7c20,2.8,38.2,11,56.8,18.3c2.1,0.8,3.6,1.9,3.4,4.6c-0.2,3-1.8,4.1-4.6,3.8
		c-3.8-0.4-3.3,2.6-3.5,4.7c-0.3,2.7,1.3,4.6,3.9,4.8c4.8,0.4,9.7-0.4,14.5,1.2c1.7,0.6,2.5-0.8,2.7-2.3c0.3-2.5,0.8-5.2,0.4-7.7
		c-1.5-9.1-1.3-9.9,7.9-9.9c23.6,0,45.7,6.8,67.1,16c4.8,2.1,6.9,4.8,3.6,10.9c-3.7,6.9-4.7,15.1-5.9,22.9c-0.5,3.4,0.5,5.5,3.9,7
		c3.1,1.5,6.8,3.3,5.1,9c-2.9-3.3-4.6-7.2-8.9-7.8c-2.2-0.3-4.2-0.1-5.8,1.6c-2.2,2.3-3.6,1.8-5.5-0.6c-4.6-5.9-9-0.9-13.8-0.3
		c-3.3,0.4-6.7-8.4-12.9-3.3c-2.2,1.8-4,0.4-6,0.3c-7.7-0.1-15.3-6.3-23.3,0c-2,1.5-6.7,1.7-9.2,1.5c-4.1-0.3-7.7,4.2-11.6,0.9
		c-0.8,1.1-1.7,2.1-2.5,3.2C414.1,415.4,411.4,414.1,412.1,416.8z"/>
	<path class="st1" d="M630.7,590c-0.3,15.5-4.1,29.9-13.6,42.5c-16.7,22.2-44.5,22.4-61.5,0.5c-18.4-23.7-18.4-61.8,0.1-85.5
		c16.9-21.6,44.3-21.6,61.1,0.1C626.3,560,630.3,574.4,630.7,590z"/>
	<path class="st2" d="M118.9,645.7c-6.2,0.4-12.2,0.7-18.2,1.1c-1.7,0.1-3.7,0-4.1-1.8c-0.5-2.5,1.9-3.2,3.6-3.3
		c8.9-0.1,10.2-5.4,10.2-13c-0.3-26.6-0.3-53.3,0-79.9c0.1-6.9-1.9-10.7-9-11c-1.9-0.1-4.9,0.2-4.6-2.8c0.2-2.2,2.9-1.8,4.7-1.7
		c11.8,0.6,23.6,0.5,35.5,0c1.5-0.1,3.7-0.7,3.9,1.7c0.2,2.1-1.7,2.6-3.4,2.6c-8.9-0.2-9.7,5.3-9.6,12.5c0.3,26.6,0.3,53.3,0,79.9
		c-0.1,7.1,1.7,11.1,9.1,11.8c1.8,0.2,5,0.3,4.6,3c-0.4,2.4-3.3,2-5.3,1.9C130.3,646.4,124.5,646.1,118.9,645.7z"/>
	<path class="st1" d="M301.6,646.1c-9.4,0-18.8,0-28.1,0c9.6-3.3,7.2-11.1,7.2-17.7c0.1-14.5-0.1-29,0.1-43.4
		c0.1-5.7,0.3-11-7.2-11.3c-0.1-2.7,1.5-2.5,2.8-2.6c10,0,19.9-0.4,29.9,0.1c14.1,0.6,22.8,13.6,17.7,25.9
		c-2.7,6.4-8.2,9.2-14.8,11.3c10.4,10.8,10.4,27.3,21.6,37.3c-9.8,3.7-15.3,1.6-19.7-8c-3.5-7.6-7-15.2-10.4-22.9
		c-1.2-2.7-2.6-5.2-6.1-4.2c-3.3,0.9-2.1,3.7-2.1,5.9c-0.1,4.2,0.1,8.4-0.1,12.6c-0.3,7.5-1.1,15,10.7,15.4
		C302.6,644.9,302.1,645.5,301.6,646.1z"/>
	<path class="st2" d="M334.1,573c1.2-2.7,3.2-1.8,4.9-1.8c11.8-0.1,23.6,0.1,35.4-0.2c4.5-0.1,6.5,1.1,6.1,5.8
		c-0.4,4.5,0.6,9.1-0.7,13.6c-3.3-0.7-3.2-3.2-4.1-4.9c-1.3-2.2-2.2-4.7-3.8-6.6c-4.3-4.9-10.4-5.5-16-3.9c-4.8,1.4-1.8,6.4-2.3,9.8
		c-0.5,3.4-0.4,7,0,10.5c0.3,2.8-2.2,7.4,2.5,8.1c4.8,0.7,10.5,1.8,13-4.8c0.6-1.6,0.8-3.7,3.7-4.7c0,8.5,0,16.8,0,25.5
		c-3.4-1.1-3.2-4-3.9-6.1c-1-3-2.2-5.4-5.9-5.9c-8.5-1-9.4-0.3-9.4,8.5c0,5.1-0.1,10.3,0,15.4c0.1,4.3-1,9.2,4.7,11.2
		c6.1,2.1,13.2-0.2,16.4-5.8c2.2-3.7,3.7-7.9,6.5-11.7c1.7,6.6,1.7,13.3,0.8,19.9c-0.3,2.3-3,1.7-4.7,1.8c-13,0-25.9,0-38.9,0
		c-1.5,0-3.7,0.8-4.2-1.3c-0.6-2.4,1.6-2.4,3.1-2.6c3.4-0.6,4.4-2.8,4.4-6c-0.1-18.9-0.3-37.8,0.1-56.7
		C341.7,574.2,336.3,575.5,334.1,573z"/>
	<path class="st2" d="M526,622.5c0-11.5,0.1-22.7,0-33.9c-0.1-6.6,1.9-14.3-9.7-15c0.5-0.5,1.1-1.1,1.6-1.6c6.1,0,12.2,0,18.3,0
		c-10,3.7-6.6,12.3-6.7,19.3c-0.2,17,0,34.1-0.1,51.1c0,2,0.8,4.8-1.8,5.4c-2.5,0.6-3.3-2.1-4.2-3.8c-10.4-18.9-20.8-37.8-32.2-58.3
		c0,18.6-0.1,35.5,0,52.4c0,5.7,6.4,4.3,9.8,8.1c-8,0-14.9,0-21.9,0c10.2-3.2,8-11.4,8.1-18.5c0.1-14,0-28,0-42c0-5.4,1.9-12-9-11.8
		c10.9-5.1,18.6-2.9,22.8,5c7.2,13.6,14.4,27.1,21.7,40.6C523.4,620.5,523.4,622.3,526,622.5z"/>
	<path class="st2" d="M398,585.5c0,18.5,0,35.2,0,51.9c0,6,6,5.3,8.8,8.7c-7,0-13.9,0-20.9,0c10-2.6,8.2-10.4,8.2-17.2
		c0.1-14.5-0.1-28.9,0.1-43.4c0.1-5.8,0.5-11.3-7.9-12.3c10-4.4,17.3-2.2,21.6,5.8c7.3,13.5,14.5,27.1,21.8,40.6
		c0.6,1.1,0.6,2.8,3,2.9c0-13.9,0-27.8,0-41.7c0-5.3-4.7-5.9-7.8-8.9c6.1,0,12.1,0,18.2,0c-8.9,3.1-6.6,10.6-6.6,16.9
		c-0.1,17.7,0,35.5-0.1,53.2c0,2,0.8,4.8-1.6,5.6c-3.1,1-3.6-2.2-4.6-4.1C419.7,624.7,409.3,605.9,398,585.5z"/>
	<path class="st3" d="M267,592.6c-3.4-2.9-3.4-5.9-4.3-8.3c-1-2.8-1.7-5.9-4.4-7.7c-2-1.4-4.4-1.9-6.6-1c-2.2,0.9-1.4,3.2-1.4,5
		c-0.1,15.9,0,31.8,0,47.6c0,12.2,0,12.2,9.2,17c-4.1,1.9-26.3,2-30.5,0c9.2-5.2,9.2-5.2,9.2-17.2c0-15.4,0-30.8-0.1-46.2
		c0-2.1,1.2-5.1-1.6-6.2c-3.1-1.2-5.8,0.3-8.1,2.6c-3.7,3.8-5.1,9.2-9.6,14.9c0-10,2.3-17.8,3.6-27.8c3.8,6.8,8.5,6.4,13.2,6.3
		c7.4-0.2,14.8,0,22.3-0.1c2.1,0,4.2,0.3,5.9-1.4c1.2-1.1,1.9-4,4.2-2.4c0.9,0.6,0.7,3.1,0.6,4.6C268.3,578.7,267.7,585,267,592.6z"
		/>
	<path class="st2" d="M146.6,571.8c9.1,0,18.2,0,27.4,0c-0.1,0.7-0.1,1.5-0.1,1.5c-7.9,0.9-8.6,6.1-8.4,12.8
		c0.4,15.9,0.1,31.7,0.1,47.6c0,3.5-0.4,7.4,3.7,8.9c4.4,1.5,8.1-0.3,11.3-3.6c3.6-3.7,4-9.3,8.7-13.2c0,6.1,0.1,12.1,0,18.2
		c-0.1,2.5-2.1,2.7-4.1,2.7c-11.8,0-23.6,0-35.4,0c-1.3,0-3.1,0.4-3.3-1.6c-0.1-1.3,1.2-2,2.3-2.1c5.3-0.7,5-4.8,5-8.5
		c0.1-17.7-0.3-35.5,0.2-53.2C154.2,575.3,149.7,574.9,146.6,571.8z"/>
	<path class="st3" d="M477.4,646.1c-11.3,0-20.9,0-30.7,0c0.5-2.8,2.3-2.9,3.8-3.1c3.8-0.5,4.8-2.9,4.8-6.4
		c-0.1-18.7-0.3-37.3,0.1-55.9c0.2-6.8-5.5-5.5-10.3-8.7c11.2,0,20.8,0,30.3,0c-0.1,0.4-0.1,1.1-0.2,1.2c-7.5,0.9-8.3,5.8-8.1,12.3
		c0.4,14.7,0.1,29.4,0.1,44.1C467.4,640.2,467.4,640.2,477.4,646.1z"/>
	<path class="st4" d="M374.4,282.4c2.8,3.9,3.1,7.3-2.2,8.8c-2.2,0.7-3.4,2.4-4.8,3.8c-2.2,2-2.5,3.9,0.9,5.1
		c1.1,0.4,2.2,0.7,3.1,1.3c2.1,1.5,4.3,3.9,6.6,1.6c2.2-2.2-3-3.2-1.8-6.1c5.4,0.3,8.9,7,15.6,4.2c-1.2,4.3-3.3,5.2-6.5,3.6
		c-1.3-0.6-2.9-2.6-3.9-0.1c-0.8,1.9,0.3,3.6,2.1,4.7c0.6,0.3,1.2,0.9,1.8,0.9c4.5,0.2,6.8,2.9,10,5.9c4.5,4.3,8.5,10.6,16.2,10.3
		c0.4,0,1.4,0.9,1.3,1.2c-0.2,0.8-0.6,2-1.2,2.2c-2.7,1.1-5-0.1-7.1-1.7c-5.2-4-10.6-7.3-15.3-12.5c-3.3-3.7-9.6-7-15.3-9.2
		c-3.7-1.4-7.1-3.3-10.2-5.5c-2.5-1.8-6.7-3.9-0.3-8.4C366.9,290.2,374.2,289.4,374.4,282.4z"/>
	<path class="st5" d="M449.7,414c4.1,0,8.3-0.9,11.6,3c1.4,1.7,4,3,6.8,2c1.3-2.7-5.1-2-2.2-4.8c1.6-1.6,4.6-0.5,5.6,1
		c1.9,2.9,4.9,0.4,6.7,2.2c1.8,1.8,6.9-0.4,5.3,6.1c-0.9,3.5,6.1,3.5,9.1,4.8c5.2,2.3,11.7,0.8,17.1-2.4c1.2-0.7-0.3-4.4,2.6-2.5
		c2.2,1.4,0.6,3.2-0.2,4.9c-0.1,0.2,0.3,0.7,0.5,1.1c3,0.1,3.5-3.5,6.7-4.5c-0.2,3.7-2.7,6.5-4.9,6.5c-5.1-0.1-9.8,3.1-15.3,1.2
		c-4.2-1.4-9-1.3-13-3.9c-7.8-5.1-17.4-3.6-25.5-7.3C456.1,420.4,451.5,419.3,449.7,414z"/>
	<path class="st6" d="M469.1,335.5c-3.4-0.8-6.4-4.4-10.5-1.3c-1.1,0.8-2.9-1-3.9-2.3c-2.1-2.5-4.2-4.4-7.6-2.2
		c-0.4,0.2-1.2,0.5-1.2,0.5c-2.8-7-9.7-1.8-13.9-4.7c-0.7-0.5-1.6-1-2.4-0.9c-1.6,0.1-4.1,2.2-4.3-0.8c-0.1-2.1,2.5-2.8,4.9-2.4
		c9.6,1.6,19.1,2.9,27.9,8.2c3.1,1.9,8.9-1,11.2,4.6C470.1,334.6,470,335.1,469.1,335.5z"/>
	<path class="st7" d="M459.9,421.1c2,3.5,8,6.9,0.9,10.8c-6.4,3.5-8.9,0.9-8.5-8.1c0,0-0.1,0.2-0.1,0.2
		C454.1,421.1,456.2,418.9,459.9,421.1z"/>
	<path class="st8" d="M469.1,335.5c0-0.5,0.1-1,0.1-1.5c6-0.3,11.9,0.3,17.6-3.1c3.7-2.2,6.8,2.4,10.4,3.1c-0.2,2.2-1.8,2.2-2.5,1.8
		c-5.4-3.5-9.1,1.7-13.5,2.3C477.3,338.5,472.5,339.4,469.1,335.5z"/>
	<path class="st9" d="M275.6,506.7c1.5,4-0.4,6.9-2.7,9.8c-6.3,7.3-8.1,17.2-14.5,24.5C262.9,529,268.3,517.4,275.6,506.7z"/>
	<path class="st10" d="M296.5,300.4c-10.2-0.4-20.4,0.9-30.5-0.8c0.4-0.6,0.7-1.2,1.1-1.7c10.4,0.1,20.8-0.7,31.2,1.1
		C298.2,300,297.2,300,296.5,300.4z"/>
	<path class="st11" d="M214.2,510.4c4.1-11.1,10.6-20.8,18.6-29.7c-6.1,10.6-12.2,21.2-18.4,31.8
		C214.4,511.8,214.3,511.1,214.2,510.4z"/>
	<path class="st12" d="M459.9,421.1c-2.6,1-5.1,1.9-7.7,2.9c0-2.8,0.7-6-3.9-5.4c0.5-1.5,0.9-3.1,1.4-4.6c3.1,3.3,8.5,3,11,7.2
		C460.4,421.3,460.2,421.2,459.9,421.1z"/>
	<path class="st13" d="M289.6,481.5c4.4-5.2,8.6-10.5,15.2-13.3c-4.6,4.9-9.2,9.8-13.8,14.7C290.5,482.5,290,482,289.6,481.5z"/>
	<path class="st14" d="M412.1,416.8c-1.8-1.5-3.7-0.9-5.7-0.6c-1.2,0.2-2.1-1-2-2.3c0.1-1.5,1.5-1.6,2.6-1.4
		c2.7,0.4,4.9,2.7,7.8,1.9C413.9,415.2,413,416,412.1,416.8z"/>
	<path class="st15" d="M495.5,424.3c2.8-0.1,4.7-1.9,6.8-0.7c0.3,0.2,0.2,2-0.3,2.4C499.9,427.8,497.9,427.2,495.5,424.3z"/>
	<path class="st16" d="M497.3,401.3c-8.4-1.5-18.4-3.3-28.5-5.2c-1.5-0.3-2.4-0.9-2.2-2.8c0.8-8.3,1.5-16.7,2.1-25
		c0.3-3.6,1.3-5,5.2-3.7c10.4,3.2,20.7,6.6,30.8,10.8c3,1.3,3.6,2.9,2.8,5.9c-1.5,5.6-2.7,11.3-3.8,17
		C503.3,401.3,501.7,402.3,497.3,401.3z"/>
	<path class="st16" d="M305.2,385c0,10.7-10.1,20.3-21.4,20.4c-11.4,0-21.6-10-21.5-21.3c0.1-11.7,10.4-21.9,21.9-21.7
		C295.7,362.7,305.1,372.9,305.2,385z"/>
	<path class="st17" d="M323.6,305.4c-5.9,7.3-11,13.8-16.2,20.1c-0.8,1-2.3,1.9-3.5,2c-5.2,0-20.9-6.3-23-13.3
		c-1.1-3.7,3.4-11.6,7.2-11.4C299.5,303.5,310.9,304.5,323.6,305.4z"/>
	<path class="st16" d="M343.7,365.6c19.4-0.8,28.5,10,33.3,25c1.4,4.2,0.7,7.5-5,6.7c-0.7-0.1-1.4,0-2.1,0c-4.4-0.1-9.3,0.9-13-0.7
		c-4.3-1.8-0.9-7.6-2.9-11.3c-1.7-3.3-2.8-6.9-4.1-10.3C348.6,371.5,346.2,368.6,343.7,365.6z"/>
	<path class="st18" d="M392.7,399.6c-1.8-0.2-4.5-0.5-7.3-0.7c-4.2-0.4-5.8-3.2-4.9-6.8c2.8-11.5,2.2-23.2,2.6-34.8
		c0.2-5.7,2.1-6.3,6.6-4.2c3.2,1.4,6.5,2.5,9.8,3.6c9.6,3.3,9.6,3.3,8.4,13c-0.8,6.2-1.8,12.4-2.3,18.7
		C404.5,401.4,404.9,398.1,392.7,399.6z"/>
	<path class="st19" d="M276.1,359.7c-16.4,9.3-21.2,22.8-13.2,36.5c5.6,9.6,16.4,13.8,28.3,10.9c10.5-2.6,17.4-10.4,18-20.4
		c0.7-12.2-4.9-21.3-15.5-25.4c-1.5-0.6-4.7,0.2-3.9-2.6c0.9-3,3.4-2,5.7-1c13.4,5.5,21,21.8,16.3,35.2c-4.8,13.8-21.3,22-35.7,17.8
		c-10.6-3.1-18-9.9-20.5-20.7c-2.4-10,0.9-18.8,8-26.2C266.7,360.5,270.4,358.5,276.1,359.7z"/>
	<path class="st17" d="M306.6,407.4c12.9-20.6,12.6-32.5-1.9-48.4c7.4,1.3,12.8,3.8,17.1,8.1c6.8,6.9,10,15.5,10.2,25.2
		c0.1,3.2-0.9,4.9-4.5,5.6c-5,1-11.9-1.2-13.2,7.5C314.2,406.9,309.7,407.7,306.6,407.4z"/>
	<path class="st16" d="M309.8,295.2c-10.6,0-21.3,0-31.9,0c-1.5,0-3.6,0.9-4.4-0.7c-1-2,1.1-3.3,2-4.8c3.3-5.7,7.9-7.8,14.7-7.3
		c8.3,0.6,16.6,0.8,24.9,2.3c1.9,0.3,4.4,0,5.2,2.7c0.8,2.9,2.8,6.3,2,8.5c-1.1,2.8-4.9,0.6-7.6,0.7c-1.6,0.1-3.2-0.2-4.8-0.3
		C309.8,295.9,309.8,295.5,309.8,295.2z"/>
	<path class="st20" d="M447.5,361c23.6,2.3,19-0.8,17.6,19.7c-0.3,3.9-1,7.8-1.4,11.8c-0.2,2.3-1.3,3.7-3.5,3.1
		c-2.7-0.7-7,1.2-7.9-2.1c-0.8-2.9,2.8-4.9,5-6.9c1.7-1.6,5.3-1.2,5.1-4.8c-0.2-3.9-3.6-3.1-5.7-3.7c-4.4-1.3-2.6-4.4-2-6.8
		c1-4.3-0.1-6.2-4.8-6.9c-4.5-0.6-6.3,0.6-6.7,5.1c-0.2,2.4,0.5,6.1-4.3,5.1c-3.9-0.8-2.8-3.4-2.5-5.9
		C437.3,360.8,437.3,360.8,447.5,361z"/>
	<path class="st16" d="M452.7,384.9c-1.7,2.9-3,5-4.3,7.2c-1.9,3.3-0.8,8.8-5.3,9.8c-5.2,1.2-10.5-0.6-15.5-2.1
		c-3.5-1-4.1-11.2-0.6-14.5c3.1-2.9,6.5-5.4,11.5-3.7C442.7,383.2,447.3,383.8,452.7,384.9z"/>
	<path class="st20" d="M376,432.4c6.3,0.7,10.6-3.4,15-6.8c1-0.7,1.2-2.4,3-1.9c4,1.1,4.7-0.2,2.9-3.8c-0.5-1-0.4-2.4,1.3-2.5
		c1.2-0.1,1.4,1,1.6,1.9c0.3,1.6,0.6,3.3,0.4,4.8c-0.3,2.4,2.2,5-0.5,7.1c-3,2.4-5-1.2-7.6-1.4c-2.5,5.9-8,8.8-13.7,6.8
		c-3.8-1.3-4,0.2-3.1,3.1c0.8,2.5,0.7,4.6-1.9,6c-2.3,1.2-4.2,0.3-5.4-1.6c-1.3-2.1-2.3-1-4.2-0.9c-5.5,0.3-11-0.5-16.5,1.2
		c-0.7,0.2-3.4-1.7-1.6-3.5c2.6-2.7,5.5-6.3,9.9-4.2c2.6,1.3,4.1,1.1,6.1-0.7c1.3-1.2,3.3-1.5,4.5-0.5c5.1,4.5,6.4-0.2,8.3-3.3
		C375.1,431.8,375.5,431.8,376,432.4z"/>
	<path class="st21" d="M246.2,474.7c-1.5-0.6-4.4,0.4-3.9-2.5c0.3-2,2.3-1.4,4-1.4c5.8-0.1,11,1.1,14.4,6.2c1.4,2.2,2.7,1.2,4,0.5
		c6.4-3.5,13.2-1.3,19.8-1.4c3.9-0.1,4.7,1.1,2.1,4.9c-3.3,4.9-6.3,6.1-12.5,4.8c-10.3-2.2-20.7-5.1-31.4-4.8
		c-1.9,0.1-4.9,0.5-4.8-2.4c0.2-2.8,3-3,5.5-2.7c2.2,1.3,4.3-0.6,6.3-0.2C248.6,475.9,247.3,475.7,246.2,474.7z"/>
	<path class="st22" d="M379.2,348.1c0.5,11.2,1.5,22.4-1,33.8c-1.9-4.7-8.6-6.4-7-13.3c0.5-2.3-3.3-2.6-5.4-3.3
		c-3.3-1.2-8.1,0-9.7-4c-1.9-4.8-1-10.1-0.4-15.2c0.1-1,0.6-1.9,1.7-1.8c1,0.1,1.6,0.9,1.6,1.9c0,3-0.1,6-0.2,9
		c-0.1,1.4-0.9,3.5-0.4,3.9c4.5,3.8,10.1,0.7,15.2,2.1c2.6,0.7,2.5-2.7,2.8-4.7C376.8,353.7,375.9,350.5,379.2,348.1z"/>
	<path class="st20" d="M320.3,361.6c14.6,3.2,25.7,16.6,26,29.7c0.1,3.9-1,6.2-5.5,6c-4-0.1-4.8-1.8-4.7-5.7
		c0.1-10-3.9-18.5-10.8-25.6C324.1,364.8,322.7,363.7,320.3,361.6z"/>
	<path class="st23" d="M307.4,439.5c-0.6,4.7,4.8,9.6,0.9,13.6c-3.1,3.1-8.1,4.3-12.3,6.3c-7.9,3.9-16,7.5-23.6,12
		c-5.6,3.3-10.3,3.2-14.8-1.4c-0.1-1.1-0.1-2.1,1.4-1.2c4.2,2.4,8,2,12.3-0.3c8.3-4.5,16.9-8.5,25.5-12.5
		c10.4-4.9,10.4-4.8,8.9-16.5C306.3,439,306.9,439,307.4,439.5z"/>
	<path class="st24" d="M285.6,415.7c1.6-0.1,3.3-0.6,4.8-0.4c1.9,0.2,5.5-3.3,5.5,1.9c0,3.6,0.6,8-5.1,8.1c-2.8,0-5.6-0.1-8.3-0.5
		c-2.4-0.4-6,0.5-5.4-4.3c0.5-4.1,2.3-5.9,6.4-5C284.2,415.6,284.9,415.6,285.6,415.7z"/>
	<path class="st25" d="M264.7,424.4c-1.7-1-6.3,1.8-5.4-3.1c0.7-4.2-0.3-9.6,3.9-12.3c2.1-1.4,9.9,6.4,9.8,9.3
		C272.8,423.9,272.1,424.5,264.7,424.4z"/>
	<path class="st12" d="M502.1,407.9c-1,0.4-2.4,1.4-3.1,1c-6.5-3-13.5-2.6-20.4-3.3c-3.3-0.3-6.3-2.9-10-1.5c-1.7,0.6-2.6,0-2.5-1.9
		c0.1-1.6,0.6-3.1,2.3-2.7C479.7,401.6,491.3,401.9,502.1,407.9z"/>
	<path class="st12" d="M362.5,350.5c0.7-1.6-2.6-6.3,3.1-5.6c3.5,0.5,8,0.4,7.5,6.6c-0.4,4,0,6.9-5.7,6.8
		C361.3,358.3,362.1,354.9,362.5,350.5z"/>
	<path class="st21" d="M280,337.7c1.9,4.8,0.4,8.9-0.6,13c-0.3,1.1-17.1,1.2-18.9,0.3c-1.9-1-1.9-1-1.3-9.4
		C268.3,351.2,273.8,350.4,280,337.7z"/>
	<path class="st12" d="M271.7,434.4c3.2,9,2.8,18.1,2.1,27.2c-0.1,1.7-1.6,3-3.4,2.6c-1.8-0.4-1.2-2.2-1.1-3.5
		C270.1,451.9,270.9,443.2,271.7,434.4z"/>
	<path class="st24" d="M311.4,456.1c-9.7,11.9-13.9,13.9-25.7,12.1C294.1,462.6,302.9,459.6,311.4,456.1z"/>
	<path class="st24" d="M261.8,321.7c6.8-10.2,13.1-11.2,17.6-4.1c1.6,2.5,2.1,4.2-1.9,4.2C272.7,321.7,267.9,321.7,261.8,321.7z"/>
	<path class="st26" d="M296.2,429.8c-15.5,0.2-30.9,0.4-46.3-1c-0.6-0.1-1.1-0.6-1.5-2.4c17.4,0.7,34.8,1.4,52.2,2.1
		C299.9,431.7,297.9,430,296.2,429.8z"/>
	<path class="st27" d="M321.2,281.3c-13.3-2-26.8-1.6-40.3-3C294.5,276.2,307.9,277.1,321.2,281.3z"/>
	<path class="st28" d="M255.6,434.4c3.1,8.4,0.9,16.5-0.2,24.7c-0.1,1-0.4,2.6-1.9,2.3c-2-0.4-2.3-1.9-2-3.7
		C252.8,449.9,254.2,442.2,255.6,434.4z"/>
	<path class="st29" d="M266.1,434.5c-0.9,10.3-1.7,20.6-2.6,30.9c-0.7-0.1-1.3-0.1-2-0.2c-1.4-10.5,1-20.7,2.1-31
		C264.5,434.4,265.3,434.4,266.1,434.5z"/>
	<path class="st22" d="M275.1,338.3c-0.8,3-1.8,6.1-5.6,5.9c-3.4-0.2-5.5-2.4-5.4-5.9c0.2-3.4,2.2-5.6,5.8-5.4
		C273,333.1,274.8,335.1,275.1,338.3z"/>
	<path class="st28" d="M290,455.3c-1.6-6.2-1.6-11.7-1.8-17.3c-0.1-1.4-0.3-3,1.6-3.3c0.7-0.1,1.8,0.4,2.3,1
		C294.8,439.3,293.8,450.8,290,455.3z"/>
	<path class="st30" d="M297.5,343.1c0.6-1.3-2.5-5.9,1.6-6.1c3.5-0.2,2.6,4,2.2,6.7c-0.3,2.2,1,3.9,2.1,5.7c0.8,1.3,2.3,2.9,0.8,4.3
		c-0.8,0.7-2.6,0.4-3.9,0.3c-2-0.1-2.7-1.4-2.7-3.3C297.5,348.5,297.5,346.4,297.5,343.1z"/>
	<path class="st31" d="M467.6,358.4c12.2,2.5,23.8,6.8,34.9,12.7c-12.1-3.8-24.2-7.6-36.3-11.4C466.1,358.8,467,358.8,467.6,358.4z"
		/>
	<path class="st32" d="M366.1,401.2c-10.4,3-20.6,1.2-30.7,2c0-0.7-0.1-1.3-0.1-2C345.4,401.2,355.6,401.2,366.1,401.2z"/>
	<path class="st33" d="M343.1,355c1.3,0.1,2.5,0.1,3.6,0.4c2.3,0.6,5.7,0.7,5.3,4.2c-0.6,4.2-3.7,2-6,1.7c-1.1-0.1-2.3-0.3-3.4-0.5
		c-2.2-0.4-5.4-0.2-5.3-3.2C337.3,353.8,341.1,355.9,343.1,355z"/>
	<path class="st26" d="M327.5,431.4c-0.1-3.2-1.2-6.9,4-5.9c2.7,0.5,5.2,1.8,4.8,4.8c-0.6,4.2-4.2,5.6-7.7,5.4
		C324.4,435.6,328,432.6,327.5,431.4z"/>
	<path class="st34" d="M267.7,324.6c2.5,0.2,5.1,0.4,7.6,0.7c1.3,0.1,3,0,3.1,1.9c0,1.1-0.4,2.3-1,3.3c-1.2,1.9-2.3,0.2-3.3-0.5
		c-2.5-1.8-5.2-1.5-8-0.9c-1.5,0.3-2.6,3.2-4.4,0.9c-0.8-1-1.2-2.8-0.8-3.9c0.7-2.3,3-1.6,4.8-1.6
		C266.3,324.5,267,324.6,267.7,324.6z"/>
	<path class="st35" d="M347.8,347.6c-2.1-2.6-7.6,2.4-8.7-3.2c-1-5.1,3.4-4,6-3.9c3,0.1,7-0.2,7,4.8
		C352.1,348.1,350.3,348.2,347.8,347.6z"/>
	<path class="st36" d="M285.1,355.2c-9.9,3.2-28.9,2.1-31.7-2.4c10.4,2.2,20.6,1.7,30.8,1.4C284.6,354.4,284.9,354.7,285.1,355.2z"
		/>
	<path class="st14" d="M259,468.8c-0.5,0.4-0.9,0.8-1.4,1.2c-5.3-2.8-10.5-5.8-15.9-8.2c-5.3-2.4-6.9-5.6-3.4-10.6
		c1.4-2,1.6-4.8,4-6.1c1.2,1,0.2,1.8-0.1,2.5c-4,9.6-4,9.6,5.4,14.8C251.5,464.5,255.2,466.7,259,468.8z"/>
	<path class="st12" d="M283,447.8c-1.3,3.3,3.3,9.3-1.7,10.3c-2.7,0.5-0.8-6.6-1.6-10.3c-0.8-3.6-0.6-7.3-0.9-11
		c-0.1-1,0.1-1.9,1.1-2.3c1.5-0.5,2.3,0.8,2.4,1.8C282.6,440,282.7,443.7,283,447.8z"/>
	<path class="st21" d="M383,407.1c2.6-5.2,7.1-6,20.6-3.5C400.1,406.1,391.2,407.6,383,407.1z"/>
	<path class="st33" d="M292.8,345c-0.4,1.4,2.6,6.7-0.7,6.9c-4.6,0.2-2.2-5.3-2.8-8.3c-0.5-2.5-0.4-5.1-0.5-7.6
		c0-1.4-0.1-3.1,1.8-3.1c1.7,0,2.1,1.5,2.2,3C292.8,338.4,292.8,340.9,292.8,345z"/>
	<path class="st37" d="M325.3,352.1c0.1,2.7,0.4,5.5-3.6,5.1c-1.6-0.2-4.5,0.4-3.6-2.6c0.9-3-0.3-8,4.3-8.4
		C325.9,345.8,325.2,349.6,325.3,352.1z"/>
	<path class="st19" d="M456.4,398.5c2.4,0.8,6.5-1.7,6.9,3.3c0.4,4.1-2.8,2.8-4.7,2.6c-3.3-0.4-8.5,1-8.9-3.5
		C449.3,397.1,454,399.3,456.4,398.5z"/>
	<path class="st38" d="M222,477.9c-1.7-0.6-4.3,0-4.4-2.4c-0.1-1.9,1.7-3.2,3.5-3.7c1.6-0.4,5.5,1.3,1.9-2.8
		c-0.6-0.7,1.5-1.5,2.5-1.1c1.3,0.5,4.1,0.4,3.5,2.3C227.9,473.7,226.3,477.2,222,477.9z"/>
	<path class="st39" d="M309.5,484.5c-5.2-0.3-6.1,5.6-10.5,3.8c-1.2-0.5-3-1.4-3.1-2.2c-0.2-2.5,2.3-3.8,3.6-5.5
		c1.1-1.5,2.2-1.1,2.9,0.6C303.5,483.6,306.2,482.3,309.5,484.5z"/>
	<path class="st40" d="M285.1,355.2c-0.3-0.3-0.6-0.7-1-1c-0.1-6.6-0.2-13.2-0.4-19.8c0.6-0.7,1.2-0.7,1.8-0.2
		C286.5,341.2,287.6,348.2,285.1,355.2z"/>
	<path class="st41" d="M413.6,358.1c-8-3.6-16.7-5.5-24.3-9.8c0.2-0.5,0.4-1.1,0.6-1.6c8.2,3.3,16.5,6.6,24.7,9.9
		C414.3,357.1,413.9,357.6,413.6,358.1z"/>
	<path class="st42" d="M376,432.4c-0.5,0-0.9,0-1.4,0c-5.3-3.9-5.8-8.1-1.5-15.7C377.3,421.5,372.4,427.8,376,432.4z"/>
	<path class="st28" d="M467.6,358.4c-0.5,0.4-1,0.9-1.4,1.3c-9.6-0.6-19.2-1.2-28.8-1.9C447.5,355.7,457.5,356.6,467.6,358.4z"/>
	<path class="st34" d="M257.1,413.1c-0.5,2.9-0.8,5.8-1.5,8.6c-0.7,2.7-3.3,2.5-5,1.7c-2.4-1.2-0.1-2.7,0.6-3.8
		c1.5-2.5,3.3-4.8,5-7.1C256.5,412.7,256.8,412.9,257.1,413.1z"/>
	<path class="st43" d="M236.5,467.6c-4.1,6.2-8.2,12.4-12.3,18.5c-0.5-0.4-1.1-0.7-1.6-1.1c3.8-6.3,7.7-12.5,12.8-18
		C235.4,467,235.9,467.3,236.5,467.6z"/>
	<path class="st33" d="M328.5,352.9c0.9-1.8-1.5-5.7,1.7-5.5c3.7,0.2,2.2,4.3,2.4,6.9c0.1,1.7,0.8,4.4-1.9,4.2
		C327,358.2,328.8,355,328.5,352.9z"/>
	<path class="st44" d="M247.2,443.8c1.4,4.7-0.3,7.7-0.8,10.8c-0.2,1.3-0.4,3-2.5,2.1c-1.3-0.6-2.3-1.8-1.6-3.4
		C243.7,450.5,245.3,447.7,247.2,443.8z"/>
	<path class="st45" d="M344,374.1c5.6,5.5,6.9,12.3,6,19.7C347.4,387.5,347.8,380.1,344,374.1z"/>
	<path class="st46" d="M321.9,462.9c2.7,1.5,9-1.1,8.7,2.8c-0.2,3.3-6-0.6-9.4,0.4c-1.2,0.3-3.7,0.6-3.5-1.8
		C317.9,462,320,462.8,321.9,462.9z"/>
	<path class="st47" d="M310.2,299.4c4.4-0.6,8.5,0.8,12.6,2.3c-6.1,0.5-12.1,0.9-18.1-0.7C306.1,298.8,308.6,300.8,310.2,299.4z"/>
	<path class="st48" d="M265.5,487.9c-7.3,1-11.9-1.6-16.7-3.3C254.1,483.6,258.9,484.7,265.5,487.9z"/>
	<path class="st30" d="M317.2,436.5c7.1-5.5,7.1-6.3,0.4-11.5c4.7-0.1,7.1,1.2,7.3,4.4C325.1,433.7,323.1,436.3,317.2,436.5z"/>
	<path class="st49" d="M296.2,429.8c1.4-0.4,2.9-0.9,4.3-1.3c8.7-0.4,4.6,7.4,6.9,11c-0.6,0-1.2,0-1.8,0
		C304.9,433.9,302.5,430,296.2,429.8z"/>
	<path class="st40" d="M294.2,472.3c-6.4,4.2-11.2,0-16.1-0.3C283,472.9,287.8,470.7,294.2,472.3z"/>
	<path class="st23" d="M451,370.4c-0.5,3.8-0.6,6.1-3.5,6c-2.2-0.1-2.4-1.7-2.1-3.5c0.2-1.7-0.3-4.2,2.3-4.3
		C449.6,368.4,451.2,369.6,451,370.4z"/>
	<path class="st11" d="M367.9,341c5.5,0,10.8,0.7,16.8,4.4C377.8,345,372.8,343.4,367.9,341z"/>
	<path class="st50" d="M298.8,435.5c2.2,4.1,3,8.3,2.1,12.8C298.3,444.4,297.6,440.1,298.8,435.5z"/>
	<path class="st51" d="M332.4,248.7c-2.9,2-4.6,5.1-8.1,3.8c-1.2-0.5-1.2-1.7-0.4-2.8C326,246.8,328.5,246.2,332.4,248.7z"/>
	<path class="st14" d="M328.4,343.5c-1.4-2.9-6.2,1.1-7.4-3.1c-0.3-1.1,1.6-2.3,3.1-2c2.7,0.5,5.3,1.5,6.6,4.1
		C331.2,343.4,330,343.9,328.4,343.5z"/>
	<path class="st52" d="M246.2,474.7c4,0.4,7.9,0.9,11.9,1.3c-0.1,0.9-0.2,1.7-0.2,2.6c-4.8-2.1-9.8,0-14.5-2.6
		C244.4,475.6,245.3,475.2,246.2,474.7z"/>
	<path class="st53" d="M317.3,467.6c3.3,0.3,7.1-1.7,10.6,2.1c-5.2,1.8-10-0.9-14.5,0.9C312.4,466.5,315.8,468.3,317.3,467.6z"/>
	<path class="st54" d="M307.7,488.5c-0.2-1.7,1.1-1.4,1.7-1.8c1.6-1.4,2.4-4.1,5.3-3.2c0.9,0.3,1.5,1.3,0.6,2.1
		C313.3,487.2,311.8,490.6,307.7,488.5z"/>
	<path class="st28" d="M323.6,476.7c-3.8,2.9-7.2,0.4-10.7-0.6C316.6,474.2,320.1,476.1,323.6,476.7z"/>
	<path class="st55" d="M350.8,352.8c-4.2-0.8-8.6,0-13-0.4C342.3,349.6,342.9,349.6,350.8,352.8z"/>
	<path class="st54" d="M314.7,489.9c2.1-2.2,4.1-4.4,6.7-7.1C320.7,487.9,320.7,487.9,314.7,489.9z"/>
	<path class="st56" d="M339,336.1c4.2-1.9,7.2-1,11.5,1C346,338.5,343,338.7,339,336.1z"/>
	<path class="st51" d="M322.1,442.7c2.7,3.1,2.8,6.1,0,9C322.1,448.7,322.1,445.7,322.1,442.7z"/>
	<path class="st57" d="M317.3,467.6c-1.3,1-2.6,2-3.9,3c-0.1,2.2-1.5,2.9-3.2,2c-1.8-0.9-0.7-2.1,0.3-3.2
		C312.4,467.3,314.3,465.6,317.3,467.6z"/>
	<path class="st58" d="M305.9,480.1c2.5-1.6,5.1-1.7,8.4-0.6C311.2,482.2,308.5,480.8,305.9,480.1z"/>
	<path class="st59" d="M350.5,428.6c-1.3-4.2-1.7-8.3,2.6-12.7C352,421.1,351.3,424.8,350.5,428.6z"/>
	<path class="st60" d="M319,403c3.6-2.2,6.4-1.4,10.6-1.2C325.7,404,323,404.9,319,403z"/>
	<path class="st61" d="M445,379.7c-4,1.5-6.6-0.9-9.5-1.4C438.6,377.6,441.6,376.9,445,379.7z"/>
	<path class="st62" d="M317.8,450.4c0-2.4,0-4.9,0-7.3C320.2,445.6,319.5,448,317.8,450.4z"/>
	<path class="st55" d="M285.6,334.2c-0.6,0.1-1.2,0.1-1.8,0.2c-4.3-3.3,1.1-4.3,0.8-8.4C286.9,330,285.7,332.1,285.6,334.2z"/>
	<path class="st63" d="M447.1,380.4c3.3-2.2,5.1-0.1,7.1,0.9C452,382.3,449.8,382.4,447.1,380.4z"/>
	<path class="st59" d="M354.4,422.5c1.5,3.3,1.2,6.5,0,11.1C352.4,429,353.9,425.8,354.4,422.5z"/>
	<path class="st64" d="M334.4,442.3c1.2,0.7,1.2,1.8,1.1,3c-0.1,1-0.8,1.9-1.8,1.2c-0.6-0.4-0.7-1.6-0.8-2.4
		C332.8,443.2,333,442.2,334.4,442.3z"/>
	<path class="st43" d="M310.2,299.4c-1.8,0.5-3.7,1-5.5,1.5c-2.7-0.2-5.4-0.3-8.2-0.5c0.6-0.5,1.2-1,1.8-1.5
		C302.3,299.1,306.2,299.3,310.2,299.4z"/>
	<path class="st0" d="M611.2,587.4c0,13.2-1.4,23.3-4.3,33.2c-1.4,4.7-3.2,9.3-5.8,13.4c-8.5,13.4-21.7,13.5-29.7-0.3
		c-9.6-16.5-11.3-34.9-9.7-53.5c0.9-11.2,3.3-22.1,8.9-32.1c3.5-6.1,8-11.3,15.5-11.5c7.9-0.1,12.6,5.3,16,11.7
		C609,561.3,610.8,575.6,611.2,587.4z"/>
	<path class="st17" d="M292.4,591.1c0-3,0-6.1,0-9.1c0.1-6.2,3.3-8.6,9.4-7.1c7.6,1.9,11.9,10.8,10,20.5c-1.4,7.6-8.2,12.1-16.1,11
		c-2.8-0.4-3.4-1.7-3.4-4.2C292.5,598.5,292.4,594.8,292.4,591.1z"/>
	<path class="st65" d="M476.3,380.9c1.3-2.3-1.9-8.1,3.1-8.8c2.4-0.3,8.7,1,7.5,6.7c-0.7,3.2,1.8,8.8-4.1,9.2
		C479.3,388.3,474.9,387.6,476.3,380.9z"/>
	<path class="st66" d="M491.2,386.2c0.9-3.2-1.5-8.8,4.2-9c2.8-0.1,8.5,0.1,7.2,5.9c-0.9,3.7,0.3,9.8-6.6,9.2
		C492.7,392.1,489,391.5,491.2,386.2z"/>
	<path class="st67" d="M298.5,383.4c0.1,7.8-6.7,15.2-14.2,15.3c-7.7,0.1-15.2-6.8-15.4-14.2c-0.2-7.7,7-14.8,15.3-15
		C291.9,369.2,298.4,375.5,298.5,383.4z"/>
	<path class="st68" d="M386,373.7c0.5-4.9,1-9.7,1.5-14.6c0.2-1.3-0.1-3,1.6-3.5c3.8-1.2,13.3,6,13.3,9.9c0,5.5-1,11,0.9,16.6
		c1.1,3.4-0.8,5.5-5,5.4C387.7,387.2,385.3,384.6,386,373.7z"/>
	<path class="st6" d="M269.6,478.9c4.7,0,9.5,0,16.2,0c-6.7,3.3-11.6,1.4-16.5,1.8C269.4,480.1,269.5,479.5,269.6,478.9z"/>
	<path class="st34" d="M478.8,380.2c0.5-1.2-0.7-3.7,2-3.5c2.6,0.2,3.4,2.1,3,4.5c-0.2,1.5-0.1,3.6-2.4,3.5
		C478.3,384.7,478.7,382.3,478.8,380.2z"/>
	<path class="st42" d="M493.6,384.7c0.7-1.2-0.7-4.2,2.6-3.5c2,0.4,3.3,1.8,2.5,4.2c-0.6,1.8,0.3,4.9-2.9,4.5
		C492.9,389.6,493.7,386.9,493.6,384.7z"/>
	<path class="st17" d="M284.3,395.8c-5.8,0-11.3-5.3-11.5-11c-0.2-6.9,4.3-12,10.8-12c6.8-0.1,11.7,4.5,11.8,11
		C295.5,390.3,290.4,395.7,284.3,395.8z"/>
	<path class="st69" d="M398,371.4c0.6,2.5,2.3,5-0.1,7.3c-0.3,0.3-1.5,0.1-1.8-0.3C394.1,375.5,396.4,373.5,398,371.4z"/>
	<path class="st70" d="M389.8,382.1c4.9-2.2,7.4-1,10.6,1.4C396.4,385.5,393.9,383.6,389.8,382.1z"/>
</g>
</svg>
