<?xml version="1.0" encoding="utf-8"?>
<!-- Generator: Adobe Illustrator 21.1.0, SVG Export Plug-In . SVG Version: 6.00 Build 0)  -->
<svg version="1.1" id="Layer_1" xmlns="http://www.w3.org/2000/svg" xmlns:xlink="http://www.w3.org/1999/xlink" x="0px" y="0px"
	 viewBox="0 0 700 965" style="enable-background:new 0 0 700 965;" xml:space="preserve">
<style type="text/css">
	.st0{display:none;fill:#FEFEFE;}
	.st1{fill:#010101;}
	.st2{fill:#050505;}
	.st3{fill:#060606;}
	.st4{fill:#0F0F0F;}
	.st5{fill:#131313;}
	.st6{fill:#292929;}
	.st7{fill:#FDFDFD;}
	.st8{fill:#E7E7E7;}
	.st9{fill:#E1E1E1;}
	.st10{fill:#E8E8E8;}
	.st11{fill:#D3D3D3;}
</style>
<g>
	<path class="st0" d="M351,583c-102.6,0-205.3,0-307.9,0.1c-3.3,0-4.2-0.5-4.2-4c0.1-64,0.1-128,0-191.9c0-3.2,0.3-4.2,4-4.2
		c205.8,0.1,411.5,0.1,617.3,0c3,0,3.9,0.5,3.9,3.8c-0.1,64.1-0.1,128.3,0,192.4c0,3.7-1.1,3.9-4.2,3.9C556.9,583,453.9,583,351,583
		z"/>
	<path d="M268.4,479.8c8.5-16.3,10.7-34,15.6-50.7c15.6-53.4,30.3-107,44.8-160.7c2.9-10.8,7.2-14.6,19.1-14.4
		c74.1,0.8,148.2,0.3,222.3,0.8c31.1,0.2,61.4,4.6,84.8,28.3c39.4,39.9,31.9,97.3-16.1,126.2c-1.9,1.1-3.7,2.3-6.9,4.4
		c9.4,4.4,18.2,7.5,26,12.4c31,19.4,44.2,47.9,39.4,83.9c-5.2,38.4-34.2,70.4-70.1,79.1c-13,3.2-26.1,5.2-39.6,5.2
		c-66.3,0.2-132.5,0.4-198.8,1.3c-12.4,0.2-14.4-4.2-14.3-15.4c0.5-74.7,0.3-149.3,0.3-224c0-4.2-0.6-8.3-3.9-12.8
		c-7.3,27.5-14.7,54.9-22,82.4c-14.1,52.6-28.3,105.2-42,158c-2.2,8.4-5.8,12.8-14.7,11.7c-0.5-0.1-1.1,0-1.7,0
		c-19.3-1.2-43.7,7.8-56.5-4c-11.8-10.9-11.7-34.8-16.6-53c-16.3-60.7-32.5-121.5-48.8-182.2c-1.4-5.2-3.6-10.2-5.8-16.3
		c-4,5.5-2.6,10.5-2.6,15c0,74.7-0.1,149.3,0.7,224c0.1,13.3-3.1,18.1-16.7,16.8c-12.1-1.2-24.6-1.2-36.7-0.1
		c-12.5,1.1-16.1-3-16-15.8c0.7-75.8,0.4-151.6,0.4-227.3c0-27.9,0.5-55.7-0.5-83.6c-0.4-12.3,3.9-15,15.2-14.7
		c27.3,0.7,54.6,0.7,81.9,0c10.8-0.3,15.4,2.8,18.3,13.6c18.9,69.8,38.6,139.3,58.1,208.9C265.2,477.5,266.3,478,268.4,479.8z"/>
	<path class="st1" d="M3.1,424.4c0-51.8,0.4-103.6-0.3-155.4c-0.2-11.7,3-15.5,14.8-14.8c15.5,1,31.2,0.7,46.8,0
		c9.3-0.4,12.5,2.2,12.4,12.1c-0.4,105.3-0.4,210.5-0.1,315.8c0,9.9-2.1,14.2-12.9,13.6c-15.5-0.9-31.2-1-46.8-0.2
		c-11,0.6-14.3-2.9-14.2-14C3.4,529.1,3.1,476.7,3.1,424.4z"/>
	<path class="st2" d="M166.6,651.3c-8.8,18-10.7,32.9-14.6,47.1c-1.7,6.3-2.7,11.4-11.3,11.2c-8.2-0.2-11.5-3.2-13.1-11.4
		c-3.1-15.5-7.6-30.7-12.9-46c-5.2,14-1.6,28.3-2.5,42.4c-0.4,6.7,3.1,15.1-9.4,14.7c-11.2-0.4-8.4-7.6-8.4-13.9
		c0-20-0.3-40.1,0.1-60.1c0.1-5.6-4.9-15,6.9-14.7c9.5,0.3,21.6-5.6,25.4,10.5c3.3,13.8,5.2,28.2,14.1,44.5
		c5-17.7,9.7-32.1,13.2-46.8c3.6-15.2,15-6.6,22.9-8.2c9.8-2,8.5,5.8,8.5,11.7c-0.1,22.3-0.5,44.5-0.2,66.8c0.1,6.8-1.3,10.3-9,10.2
		c-7.1-0.2-9.9-2.7-9.7-10C166.9,685,166.6,670.5,166.6,651.3z"/>
	<path class="st2" d="M253.7,666.2c0-3.2,0-3.8,0-4.3c1.3-13.6-6.1-34.8,3-39.2c14.7-7.1,34.8-4,52.3-0.9c17,3,23,18.2,13.8,32.8
		c-3.3,5.3-4.4,8.2,0.8,12.3c9.1,7.3,10.4,16.7,5.8,26.9c-4.6,10.1-13.2,14.5-24,15.1c-1.7,0.1-3.3,0.1-5,0
		c-14.9-0.6-33.9,6.2-43.5-2.4C246.8,697.6,255.6,678.3,253.7,666.2z"/>
	<path class="st3" d="M655.9,672.1c0-13.3,0.1-26.9-0.1-40.4c-0.1-6.5-0.6-12,9-11.7c8.5,0.3,9.6,4.2,9.4,11.6
		c-0.5,21.1,0.1,42.2,0,63.3c0,5,3.6,12.2-4.8,13.8c-7.6,1.4-15.1,1.9-20.1-7c-7.1-12.5-15.4-24.4-23.3-36.4
		c-1.7-2.6-2.8-6.2-8.5-5.9c0,13-0.7,26.1,0.2,39.1c0.6,8.5-2.6,10.9-10.2,10.9c-7.8,0-8.7-4.2-8.6-10.8c0.4-21.7,0-43.3,0.4-65
		c0.1-4.7-3.8-12,5.5-12.8c6.5-0.6,13-1.7,17.4,5.9c8.2,13.8,17.3,27.1,26,40.6C649.7,669.4,649.8,672.8,655.9,672.1z"/>
	<path class="st2" d="M409,669.8c8,7.8,15.3,15.5,20.2,24.9c2.2,4.3,11.1,8.7,4.6,13.3c-5,3.6-14.2,3.5-19.9-2.3
		c-3.8-3.9-6.4-9-9.7-13.4c-4-5.3-8.2-10.4-12.5-15.5c-4-4.7-9.6-6.5-15-4.3c-5.1,2.1-2.7,7.7-2.9,11.9c-0.3,5-0.2,10,0.2,15
		c0.5,7-2.1,10.2-9.5,9.9c-6.4-0.2-10.3-1.4-10.2-9.2c0.4-23.9,0.5-47.7,0.1-71.6c-0.1-7.3,3.3-8.2,9.1-8.1
		c11.1,0.2,22.2,0.5,33.3-0.1c15.8-0.8,29.7,2.5,34.2,19.5C435.3,656.9,423.4,664.4,409,669.8z"/>
	<path class="st2" d="M489.3,707.6c10.6-25.8,20.7-50.4,30.6-74.9c2.8-6.9,5-12.4,14.7-12.8c10.5-0.4,13.4,5.5,16.5,12.8
		c8.7,21,17.7,41.8,25.9,63c1.5,3.8,8.7,9.3,1.6,12.5c-6,2.7-16.3,4.3-18.6-4.6c-6.3-23.7-24.7-12.2-38.2-14.4
		c-4.9-0.8-6.2,3.8-7.4,7.5C510.3,709.6,501.7,712,489.3,707.6z"/>
	<path class="st4" d="M27.5,665.1c0,11.6-0.5,23.3,0.1,34.8c0.4,7.8-3.4,9.4-9.8,9.6c-6.4,0.2-10.4-0.9-10.2-8.9
		C8,676.8,8,653,7.6,629.2c-0.2-7.6,2.9-9.5,9.7-9.6c7.7-0.1,11,2.3,10.5,10.6C27,641.8,27.5,653.5,27.5,665.1z"/>
	<path class="st5" d="M454.7,662.2c0-11.1,0.4-22.2-0.1-33.2c-0.4-7.7,3.3-9.5,9.9-9.6c6.6-0.1,10.3,1.6,10.2,9.3
		c-0.3,23.8-0.4,47.6,0,71.4c0.1,7.4-2.8,10-9.7,9.6c-6.1-0.3-10.7-1.3-10.4-9.3c0.4-12.7,0.1-25.4,0.1-38.2
		C454.5,662.2,454.6,662.2,454.7,662.2z"/>
	<path class="st6" d="M70.1,633.8c0,7.3-1.8,13.5-7.1,18.2c-3.2,2.9-6.7,7.4-11.1,3.7c-4.2-3.5-0.6-6.5,2.6-9.2c3.4-2.9,4.8-6-0.2-9
		c-6.8-4.1-6.1-10.9-2.8-15.7c2.8-4.2,9.3-3.1,13.9-1.7C73,622.3,68.9,629.3,70.1,633.8z"/>
	<path class="st7" d="M527,537.4c-15.6,0-31.2-0.4-46.7,0.2c-8.8,0.3-13.1-1.4-12.8-11.6c0.7-22.2,0.1-44.5,0.3-66.8
		c0-5.2-1.8-12.3,7.2-11.8c37.7,1.8,75.8-4.3,113,4.4c23.4,5.4,34.7,20.7,34.1,42.8c-0.6,21.2-13.8,37.8-36.8,40.7
		c-19.1,2.4-38.8,0.5-58.2,0.5C527,536.3,527,536.9,527,537.4z"/>
	<path class="st7" d="M526.4,311.6c17.4,1.9,37.5-2.3,57.2,4c16,5.1,23.6,16.2,24.9,31.8c1.4,16.7-6.6,29-21.5,36.2
		c-8.6,4.1-17.9,6.1-27.5,6.2c-26.7,0.2-53.4-0.1-80.1,0.6c-10,0.3-12.2-3.4-11.9-12.6c0.6-18.3,0.6-36.7,0-55.1
		c-0.3-8.9,2.5-11.6,11.3-11.2C493.9,312.1,508.9,311.6,526.4,311.6z"/>
	<path class="st8" d="M289.9,693.9c-7.1-1.5-18.5,4.9-17.5-11.5c0.5-8.3,1.7-13.7,10.6-11.8c10,2.1,26.3-6.6,28.1,11.4
		C312.6,696.8,298.6,692,289.9,693.9z"/>
	<path class="st9" d="M288.8,635.3c8.2,0.7,20.1-2.4,19.3,10c-0.8,13.2-13.5,10.1-22.5,10.9c-8.4,0.8-13.7-1-13.4-11.5
		C272.8,631.2,282.6,636.7,288.8,635.3z"/>
	<path class="st10" d="M390.8,658c-7.9-1.1-18.2,4.5-18-10.5c0.1-9.6,3.3-13.6,12.5-11.8c9.2,1.8,23.9-5.9,25.5,10.2
		C412.2,660.6,398.6,656.4,390.8,658z"/>
	<path class="st11" d="M532.7,644.9c9.6,5.5,8.7,15.7,13.3,22.8c1.5,2.2-0.5,5.9-3.5,6.2c-4.9,0.4-10,0.4-14.7-0.6
		c-4.1-0.9-3.8-4.9-2.6-8.2C527.5,658.5,530,652,532.7,644.9z"/>
</g>
</svg>
