<?xml version="1.0" encoding="utf-8"?>
<!-- Generator: Adobe Illustrator 21.1.0, SVG Export Plug-In . SVG Version: 6.00 Build 0)  -->
<svg version="1.1" id="Layer_1" xmlns="http://www.w3.org/2000/svg" xmlns:xlink="http://www.w3.org/1999/xlink" x="0px" y="0px"
	 viewBox="0 0 700 965" style="enable-background:new 0 0 700 965;" xml:space="preserve">
<style type="text/css">
	.st0{fill:#FFFFFF;}
</style>
<g>
	<path class="st0" d="M1.4,380c0-1.9,0-3.8,0-5.7c233.7,0,467.4,0,701.3,0c0,74.1,0,148.3,0,222.6c-233.7,0-467.5,0-701.3,0
		c0-3.2,0-6.5,0-9.9c10,0,19.9,0,29.8,0c0-11.5,0-21.9,0-32.7c-3.8-0.2-7.2-0.4-10.7-0.6c0-47.1,0-93.7,0-140.7c3.8,0,7,0,10.6,0
		c0-11.1,0-21.7,0-32.9C21,380,11.2,380,1.4,380z M243.4,454.9c0.4,0,0.8,0,1.1,0c0,44.4,0,88.8,0,133.2c7,0,13.1,0,19.5,0
		c0-69.4,0-138.5,0-207.8c-10.4,0-20.4,0-31.6,0c-2.5,38.3-4.9,76.5-7.3,114.7c-0.4,0-0.8,0-1.2,0.1c-2-38.2-4-76.4-6-114.7
		c-10.9,0-21.3,0-32,0c0,69.4,0,138.5,0,207.5c6.3,0,12.1,0,18.5,0c0-42.7,0-85,0-127.2c2.2,22.9,4,45.8,5.5,68.7
		c1.2,18,1.8,36,3.1,54c0.1,1.8,2.7,4.6,4.4,4.8c5.4,0.6,10.9,0.2,16.5,0.2C237,543.4,240.2,499.2,243.4,454.9z M403,380
		c0,70,0,139,0,208.1c7.6,0,14.7,0,22.3,0c0-30.9,0-61.5,0-92c0.8-0.3,1.5-0.5,2.3-0.8c1.2,3,3.3,5.9,3.5,8.9
		c0.8,13.8,1.2,27.6,1.6,41.3c0.4,14.2,0.6,28.3,0.9,42.5c9.3,0,17,0,23.6,0c-0.5-17-1.1-33.6-1.4-50.1c-0.2-10.3,0.8-20.7-0.3-30.9
		c-1-9.9-0.3-20.5-8.1-28.8c-1.2-1.3-0.4-5,0.3-7.4c1.3-4.2,4.1-7.9,5-12.1c4.4-19.6,3.7-39.4,0.1-59.1
		c-1.5-8.3-10.3-19.3-16.4-19.4C425.4,379.8,414.4,380,403,380z M614.5,457.6c5.7,0,11.3,0.4,16.6-0.2c2-0.2,5.3-3,5.3-4.7
		c0.1-22.2,2.3-44.6-6.9-65.8c-1.1-2.5-2.6-5.5-4.8-6.8c-15.1-9.3-27.9-5.1-35.6,11.4c-6.7,14.4-6.6,30-6.8,45.1
		c-0.5,37,0.3,74,1.3,111c0.4,15.4,0.9,31.1,14.1,42.7c4.8,4.2,16.2,7.2,21.3,3.1c8-6.4,13.5-15,14.5-25.1
		c1.7-17.7,2.2-35.5,3.1-53.2c0.2-3.2,0-6.5,0-9.5c-8.2,0-15.3,0-22.5,0c-1.8,17.3,1.8,34.5-2.5,51.6c-6-1.6-5.1-5.9-5.1-9.7
		c0-40.7-0.1-81.4,0.1-122.1c0-5,1-9.9,1.6-14.9c0.7,0,1.3,0,2,0C617.5,425.2,611.6,441.4,614.5,457.6z M368.4,454.6
		c0-13.1,0-25.6,0-38.9c7.2,0,14,0,20.8,0c0-12.2,0-23.6,0-35.3c-14.8,0-29.2,0-43.7,0c0,69.5,0,138.5,0,207.4c15,0,29.4,0,43.6,0
		c0-11.5,0-22.4,0-34.1c-7.2,0-14,0-20.6,0c0-21.5,0-42.1,0-63.3c7.2,0,13.8,0,20.5,0c0-12.1,0-23.7,0-35.8
		C381.9,454.6,375.3,454.6,368.4,454.6z M526.6,380.3c0,69.6,0,138.6,0,207.5c15,0,29.4,0,43.6,0c0-11.5,0-22.4,0-34.1
		c-7.2,0-14,0-20.8,0c0-21.3,0-41.8,0-63.1c7.1,0,13.9,0,20.7,0c0-12.4,0-23.9,0-36c-7.1,0-13.7,0-20.6,0c0-13.1,0-25.6,0-38.9
		c7.2,0,14,0,20.8,0c0-12.2,0-23.6,0-35.3C555.7,380.3,541.4,380.3,526.6,380.3z M304.3,413.3c0.7-0.1,1.4-0.3,2.1-0.4
		c1.3,1.9,3.8,3.8,3.8,5.8c0.3,17,0.5,34.1,0,51.1c-0.2,5.9-2.7,9.9-10.7,9.6c-15.3-0.5-21,6.4-20.8,21.2c0.1,6.7,0,13.4,0,20.1
		c0,10,0,19.9,0,29.7c8.7,0,16.5,0,24.4,0c0-10.6,0.2-20.7-0.1-30.7c-0.2-5.4,1.5-6.8,7-7.9c6.6-1.3,13.3-3.7,17.8-10.6
		c6.2-9.7,6-20.5,6.6-30.9c1.1-17.2,0.7-34.5,0.1-51.7c-0.3-9.8-1.7-19.5-6.9-28.3c-3.8-6.4-9.1-10-16.4-10.3
		c-5-0.2-10.1-0.2-15.1,0c-7.4,0.2-12.7,4.3-14.6,10.9c-1.9,6.7-2.5,13.8-2.7,20.8c-0.4,11.4-0.1,22.8-0.1,35.3
		c8.8-1.7,16.4-3.1,25.5-4.8C304.3,432.7,304.3,423,304.3,413.3z M470.5,380.3c0,69.6,0,138.7,0,207.5c7.8,0,15,0,22.8,0
		c0-32.1,0-63.6,0-95.9c6.8,0,13.1,0,19.3,0c0-11.9,0-23,0-34.6c-6.7,0-12.8,0-19.1,0c0-14,0-27.5,0-41.8c6.8,0,13.1,0,19.3,0
		c0-12.2,0-23.6,0-35.3C498.6,380.3,484.8,380.3,470.5,380.3z M701.1,380.5c-17.4,0-34.2,0-50.8,0c0,12.1,0,23.7,0,35.7
		c4.8,0,9,0,13.9,0c0,57.6,0,114.6,0,171.7c8,0,15.2,0,23.2,0c0-57.6,0-114.6,0-172.2c4.9,0,9.2,0,13.7,0
		C701.1,403.8,701.1,392.4,701.1,380.5z M101.7,553.6c-4.3,0.2-8.2,0.4-12,0.6c0,11.2,0,21.8,0,32.7c7,0,13.4,0,19.9,0
		c9.7,0,9.8,0,9.8-10.1c0-63,0-126,0-189c0-2.5,0-5,0-7.5c-10.5,0-20,0-29.7,0c0,10,0,19.7,0,30.1c4.4,0,8.3,0,12.1,0
		C101.7,458.6,101.7,505.9,101.7,553.6z M170.7,380.5c-7.3,0-14.1,0-20.7,0c0,58.1,0,115.6,0,173c7.2,0,13.8,0,20.7,0
		C170.7,495.8,170.7,438.4,170.7,380.5z M50.7,380.3c0,45.4,0,90.5,0,135.7c7.2,0,13.9,0,20.7,0c0-45.6,0-90.6,0-135.7
		C64.2,380.3,57.6,380.3,50.7,380.3z M50.6,586.5c7.3,0,14.1,0,20.7,0c0-15.4,0-30.3,0-45.1c-7.2,0-13.8,0-20.7,0
		C50.6,556.4,50.6,571.2,50.6,586.5z M279.1,588.4c6.9,0,13.1,0.3,19.3-0.2c1.7-0.2,4.6-2.8,4.7-4.4c0.5-8.8,0.2-17.5,0.2-26.5
		c-8.4,0-16.2,0-24.2,0C279.1,567.6,279.1,577.6,279.1,588.4z M170.6,588.1c0-10,0-19.6,0-29.3c-7.2,0-14,0-20.6,0
		c0,10.1,0,19.8,0,29.3C157.2,588.1,163.8,588.1,170.6,588.1z"/>
	<path d="M1.4,380c9.8,0,19.5,0,29.8,0c0,11.2,0,21.8,0,32.9c-3.5,0-6.8,0-10.6,0c0,47,0,93.6,0,140.7c3.4,0.2,6.9,0.4,10.7,0.6
		c0,10.8,0,21.3,0,32.7c-9.9,0-19.9,0-29.8,0C1.4,518,1.4,449,1.4,380z"/>
	<path d="M243.4,454.9c-3.2,44.3-6.4,88.6-9.6,133.5c-5.6,0-11.1,0.4-16.5-0.2c-1.7-0.2-4.3-3-4.4-4.8c-1.3-18-1.9-36-3.1-54
		c-1.5-22.9-3.3-45.8-5.5-68.7c0,42.2,0,84.4,0,127.2c-6.4,0-12.2,0-18.5,0c0-69.1,0-138.1,0-207.5c10.7,0,21.1,0,32,0
		c2,38.2,4,76.4,6,114.7c0.4,0,0.8,0,1.2-0.1c2.4-38.2,4.9-76.4,7.3-114.7c11.2,0,21.1,0,31.6,0c0,69.3,0,138.4,0,207.8
		c-6.4,0-12.5,0-19.5,0c0-44.4,0-88.8,0-133.2C244.2,454.9,243.8,454.9,243.4,454.9z"/>
	<path d="M403,380c11.5,0,22.4-0.2,33.4,0.1c6,0.2,14.8,11.1,16.4,19.4c3.6,19.7,4.3,39.4-0.1,59.1c-0.9,4.2-3.7,8-5,12.1
		c-0.8,2.3-1.5,6.1-0.3,7.4c7.8,8.3,7.1,18.9,8.1,28.8c1,10.2,0.1,20.6,0.3,30.9c0.3,16.6,0.9,33.1,1.4,50.1c-6.6,0-14.3,0-23.6,0
		c-0.3-14.1-0.5-28.3-0.9-42.5c-0.4-13.8-0.7-27.6-1.6-41.3c-0.2-3-2.3-5.9-3.5-8.9c-0.8,0.3-1.5,0.5-2.3,0.8c0,30.6,0,61.1,0,92
		c-7.6,0-14.7,0-22.3,0C403,519,403,450,403,380z M425.9,463.4c9.4-14.3,8.9-47.2,0-50.1C425.9,429.4,425.9,445.4,425.9,463.4z"/>
	<path d="M614.5,457.6c-2.9-16.2,3-32.4-4.2-47.2c-0.7,0-1.3,0-2,0c-0.6,5-1.6,9.9-1.6,14.9c-0.1,40.7-0.1,81.4-0.1,122.1
		c0,3.8-0.9,8.1,5.1,9.7c4.2-17.1,0.6-34.3,2.5-51.6c7.2,0,14.3,0,22.5,0c0,3.1,0.1,6.3,0,9.5c-0.9,17.8-1.4,35.6-3.1,53.2
		c-1,10.1-6.5,18.7-14.5,25.1c-5.1,4.1-16.5,1.2-21.3-3.1c-13.2-11.7-13.7-27.3-14.1-42.7c-1-37-1.7-74-1.3-111
		c0.2-15.1,0.1-30.7,6.8-45.1c7.6-16.5,20.5-20.7,35.6-11.4c2.2,1.4,3.7,4.3,4.8,6.8c9.2,21.2,7.1,43.6,6.9,65.8
		c0,1.6-3.3,4.4-5.3,4.7C625.7,458,620.2,457.6,614.5,457.6z"/>
	<path d="M368.4,454.6c6.9,0,13.5,0,20.6,0c0,12.1,0,23.7,0,35.8c-6.6,0-13.3,0-20.5,0c0,21.2,0,41.9,0,63.3c6.6,0,13.4,0,20.6,0
		c0,11.7,0,22.6,0,34.1c-14.2,0-28.7,0-43.6,0c0-68.9,0-137.9,0-207.4c14.5,0,28.9,0,43.7,0c0,11.7,0,23.1,0,35.3
		c-6.8,0-13.6,0-20.8,0C368.4,429,368.4,441.5,368.4,454.6z"/>
	<path d="M526.6,380.3c14.8,0,29.1,0,43.7,0c0,11.7,0,23.1,0,35.3c-6.8,0-13.6,0-20.8,0c0,13.3,0,25.8,0,38.9c6.9,0,13.5,0,20.6,0
		c0,12.1,0,23.7,0,36c-6.8,0-13.6,0-20.7,0c0,21.3,0,41.8,0,63.1c6.8,0,13.6,0,20.8,0c0,11.7,0,22.6,0,34.1c-14.2,0-28.7,0-43.6,0
		C526.6,519,526.6,449.9,526.6,380.3z"/>
	<path d="M304.3,413.3c0,9.7,0,19.4,0,28.9c-9.1,1.7-16.7,3.1-25.5,4.8c0-12.5-0.3-23.9,0.1-35.3c0.3-7,0.8-14.2,2.7-20.8
		c1.9-6.6,7.3-10.7,14.6-10.9c5-0.2,10.1-0.2,15.1,0c7.3,0.3,12.6,3.9,16.4,10.3c5.2,8.8,6.6,18.5,6.9,28.3
		c0.5,17.2,0.9,34.5-0.1,51.7c-0.6,10.4-0.4,21.2-6.6,30.9c-4.4,6.9-11.2,9.2-17.8,10.6c-5.6,1.1-7.2,2.5-7,7.9
		c0.3,10,0.1,20.1,0.1,30.7c-8,0-15.7,0-24.4,0c0-9.8,0-19.7,0-29.7c0-6.7,0.1-13.4,0-20.1c-0.2-14.8,5.5-21.7,20.8-21.2
		c7.9,0.2,10.5-3.7,10.7-9.6c0.5-17,0.3-34.1,0-51.1c0-2-2.5-3.9-3.8-5.8C305.8,413,305,413.2,304.3,413.3z"/>
	<path d="M470.5,380.3c14.3,0,28.1,0,42.2,0c0,11.7,0,23.1,0,35.3c-6.2,0-12.5,0-19.3,0c0,14.3,0,27.7,0,41.8c6.3,0,12.4,0,19.1,0
		c0,11.6,0,22.7,0,34.6c-6.2,0-12.5,0-19.3,0c0,32.3,0,63.8,0,95.9c-7.7,0-15,0-22.8,0C470.5,519,470.5,449.9,470.5,380.3z"/>
	<path d="M701.1,380.5c0,11.9,0,23.3,0,35.2c-4.5,0-8.8,0-13.7,0c0,57.6,0,114.6,0,172.2c-8,0-15.2,0-23.2,0c0-57.1,0-114.1,0-171.7
		c-4.9,0-9.1,0-13.9,0c0-12.1,0-23.6,0-35.7C666.9,380.5,683.7,380.5,701.1,380.5z"/>
	<path d="M101.7,553.6c0-47.7,0-95,0-143.1c-3.9,0-7.8,0-12.1,0c0-10.4,0-20.1,0-30.1c9.7,0,19.2,0,29.7,0c0,2.5,0,5,0,7.5
		c0,63,0,126,0,189c0,10.1,0,10.1-9.8,10.1c-6.5,0-12.9,0-19.9,0c0-10.9,0-21.5,0-32.7C93.5,554,97.4,553.8,101.7,553.6z"/>
	<path d="M170.7,380.5c0,57.9,0,115.3,0,173c-6.9,0-13.5,0-20.7,0c0-57.4,0-114.9,0-173C156.6,380.5,163.4,380.5,170.7,380.5z"/>
	<path d="M50.7,380.3c6.9,0,13.5,0,20.7,0c0,45.1,0,90.2,0,135.7c-6.7,0-13.5,0-20.7,0C50.7,470.8,50.7,425.8,50.7,380.3z"/>
	<path d="M50.6,586.5c0-15.3,0-30,0-45.1c6.9,0,13.5,0,20.7,0c0,14.8,0,29.7,0,45.1C64.7,586.5,57.9,586.5,50.6,586.5z"/>
	<path d="M279.1,588.4c0-10.8,0-20.8,0-31.2c8,0,15.7,0,24.2,0c0,9,0.2,17.8-0.2,26.5c-0.1,1.6-2.9,4.3-4.7,4.4
		C292.3,588.7,286,588.4,279.1,588.4z"/>
	<path d="M170.6,588.1c-6.9,0-13.5,0-20.6,0c0-9.6,0-19.2,0-29.3c6.6,0,13.4,0,20.6,0C170.6,568.4,170.6,578.1,170.6,588.1z"/>
	<path class="st0" d="M425.9,463.4c0-17.9,0-34,0-50.1C434.8,416.2,435.3,449,425.9,463.4z"/>
</g>
</svg>
