<?xml version="1.0" encoding="utf-8"?>
<!-- Generator: Adobe Illustrator 21.1.0, SVG Export Plug-In . SVG Version: 6.00 Build 0)  -->
<svg version="1.1" id="Layer_1" xmlns="http://www.w3.org/2000/svg" xmlns:xlink="http://www.w3.org/1999/xlink" x="0px" y="0px"
	 viewBox="0 0 900 596" style="enable-background:new 0 0 900 596;" xml:space="preserve">
<style type="text/css">
	.st0{fill:#FEFEFE;}
	.st1{fill:#00275E;}
	.st2{fill:#D3003B;}
	.st3{fill:#1B3D6E;}
	.st4{fill:#01275E;}
	.st5{fill:#D3013C;}
	.st6{fill:#02285F;}
	.st7{fill:#02285E;}
	.st8{fill:#01285E;}
	.st9{fill:#052B61;}
	.st10{fill:#042A60;}
	.st11{fill:#082E63;}
	.st12{fill:#062C61;}
	.st13{fill:#03295F;}
	.st14{fill:#1A3D6E;}
	.st15{fill:#FDFDFD;}
	.st16{fill:#F2F4F6;}
	.st17{fill:#EDF0F3;}
	.st18{fill:#E8ECF0;}
</style>
<g>
	<path class="st0" d="M451.5,431.7c-148.2,0-296.5,0-444.7,0.1c-4.7,0-5.6-1-5.6-5.6c0.2-84.6,0.2-169.2,0-253.9
		c0-4.5,0.7-5.7,5.5-5.7c296.5,0.2,593,0.1,889.5,0c4.4,0,5.3,0.9,5.2,5.3c-0.2,84.8-0.2,169.7,0,254.5c0,4.3-0.7,5.3-5.2,5.3
		C748,431.7,599.7,431.7,451.5,431.7z"/>
	<path class="st1" d="M22.5,386.8c0-21.4,0-41.3,0-61.2c0-2.4,1.4-3.3,3.1-4.3c31.4-18.3,62.7-36.6,94.1-54.9
		c0.1-0.1,0.4,0.1,1.2,0.3c0,9.4,0,18.9,0,28.4c0,14.8-0.1,29.5,0,44.3c0.1,10.4,7.3,16.7,17.5,15.7c5.7-0.5,10.7-2.6,15.5-5.6
		c18-11.1,36-22.1,54-33.2c1.8,1.8,1,3.8,1,5.6c0.1,17.3-0.1,34.7,0.1,52c0,3.4-0.9,5.4-4,7.1c-13.7,7.4-27.1,15.4-40.9,22.6
		c-34.2,17.9-81.4-2.2-92.1-39.2c-1.2-4.3-2.5-4.5-6.1-2.4C51.9,370.3,37.7,378.1,22.5,386.8z"/>
	<path class="st2" d="M127.1,298.2c0-12.4-0.2-24.8,0.1-37.3c0.1-5.4-0.8-6.3-5.7-3.4c-23,13.7-46.2,26.9-69.1,40.6
		c-5,3-6.8,2.6-8.9-3c-11.1-28.6-4.1-62.3,17.6-83c23.2-22.2,56.2-27.7,85.6-14.5c27.6,12.5,45,41.3,43.7,72.4
		c-1.4,34.2-25.7,63.4-58.6,70.8c-3.8,0.9-4.8,0.3-4.8-3.6C127.2,324.3,127.1,311.2,127.1,298.2z"/>
	<path class="st2" d="M876.2,223.4c-6.9,14.2-13.4,27.6-20,40.9c-5.2,10.6-5.3,10.6,6.2,10.8c1.2,0,2.4,0.1,4.6,0.2
		c-4.6,9.3-8.9,18-13.2,26.8c-1.1,2.3-3.2,1.7-5.1,1.7c-12.4,0-24.8,0.1-37.3,0c-4.6,0-9.1-0.6-11.9-4.9c-1.6-2.4-2.3-1.1-3.5,0.3
		c-1.9,2.1-4.4,3.5-7.2,3.9c-9.8,1.2-19.7,1.6-29.4-0.2c-9.5-1.8-15.3-11.6-11.7-22.1c5.4-15.9,12.1-31.5,21.8-45.4
		c5.2-7.4,13.1-11.8,22.5-11.9C819.7,223.2,847.3,223.4,876.2,223.4z"/>
	<path class="st2" d="M323.6,303.8c13-26.6,25.4-52,37.8-77.6c1.3-2.6,3-3.1,5.5-3.1c24.6,0.1,49.2-0.1,73.8,0.1
		c10.4,0.1,15.5,8.1,11,17.6c-9.4,19.9-19.2,39.6-28.7,59.4c-1.2,2.4-2.5,3.6-5.3,3.5c-12-0.1-24-0.1-36,0.1
		c-4.6,0.1-3.6-1.8-2.3-4.5c6.4-13,12.9-26,19.1-39.1c1-2.1,4.4-4.5,1.1-7.1c-2.6-2-11.1,0.1-12.4,2.8c-7,14.2-14.1,28.3-20.7,42.6
		c-1.9,4.2-4.3,5.5-8.7,5.4C346.9,303.6,335.8,303.8,323.6,303.8z"/>
	<path class="st2" d="M496.7,258.8c4.8-10.2,9.8-20.3,14.4-30.6c1.6-3.6,3.5-5.1,7.6-5c12.5,0.3,25.1,0.1,38.6,0.1
		c-4.4,9-8.4,17.2-12.4,25.4c-5.7,11.7-11.4,23.4-17.3,35c-6.8,13.3-17.2,20.8-32.7,20.3c-10.3-0.4-20.5-0.2-30.8,0
		c-3.8,0.1-5.3-0.9-5.4-4.8c-0.7-23.9-1.5-47.9-2.4-71.8c-0.1-3.6,1.4-4.2,4.5-4.1c10.1,0.1,20.1,0.2,30.2,0c4-0.1,4.5,1.6,4.4,4.9
		c-0.2,10.2-0.1,20.3-0.1,30.5C495.7,258.6,496.2,258.7,496.7,258.8z"/>
	<path class="st2" d="M766.6,197c-3.5,7.3-6.3,13.9-9.8,20.2c-2.8,5-1.3,6.5,3.9,6.1c2.1-0.2,4.2,0,7.5,0
		c-4.7,9.6-9.1,18.6-13.4,27.5c-1.4,2.9-4.1,2.4-6.2,2c-7.5-1.4-11.5,2-13.7,8.7c-0.8,2.4-2.3,4.6-3.4,6.9c-2.5,5.5-1.8,6.6,4.4,6.8
		c7,0.2,7,0.2,4,6.3c-2.9,5.7-5.9,11.4-8.5,17.2c-1.7,3.7-3.8,5.6-8.2,5.4c-9-0.4-18,0.1-27-0.2c-15.5-0.6-20.8-9.9-13.9-23.8
		c12.9-26,25.9-52,38.6-78.1c1.8-3.6,3.7-4.9,7.7-4.8C741,197.2,753.3,197,766.6,197z"/>
	<path class="st2" d="M703.3,223.2c-4.7,9.6-9,18.6-13.3,27.6c-1.1,2.2-3,2-4.9,2c-6.8,0-13.7,0.2-20.5-0.1
		c-4.3-0.2-6.8,1.5-8.5,5.3c-1.6,3.7-3.5,7.3-5.4,10.9c-2.5,4.6-0.8,6.2,4,6.2c7.4-0.1,14.9,0,23.4,0c-4.7,9.4-9.1,18.1-13.4,26.8
		c-1.1,2.3-3.1,1.9-5,1.9c-14.8,0-29.5,0.2-44.3-0.1c-16.4-0.4-21.7-9.6-14.5-24.3c5.9-12.1,11.8-24.2,17.9-36.1
		c6.7-13.1,17.1-20.3,32.3-20.1C668.2,223.4,685.3,223.2,703.3,223.2z"/>
	<path class="st2" d="M328.3,275.1c-4.6,9.3-8.9,17.9-13,26.5c-1.1,2.3-2.8,2.3-4.8,2.3c-10.1,0-20.1,0.4-30.2-0.1
		c-15.6-0.7-20.8-10-13.9-23.9c8.4-17,17-34,25.2-51.1c1.9-4,4-5.7,8.6-5.6c10.9,0.4,21.8,0.4,32.7,0c6.3-0.2,5.5,2,3.4,6.1
		c-6.3,12.4-12.4,24.8-18.6,37.3c-4,8-3.7,8.5,5.2,8.6C324.5,275.1,325.9,275.1,328.3,275.1z"/>
	<path class="st2" d="M610.7,223.2c-6.2,12.7-12.1,24.7-18,36.8c-0.3,0.6-0.6,1.1-0.9,1.7c-6.1,12.2-6.1,12.2,7.7,14.1
		c-4.3,8.7-8.6,17.3-12.7,25.9c-1.1,2.3-2.9,2.2-4.8,2.2c-10.1,0-20.1,0.2-30.2-0.1c-15.1-0.6-20.6-10-14-23.4
		c8.6-17.4,17.3-34.8,25.7-52.3c1.7-3.5,3.7-4.9,7.8-4.9C584.1,223.4,596.9,223.2,610.7,223.2z"/>
	<path class="st3" d="M564.9,328.9c-98.7,0-197.5,0-296.2-0.1c-2.3,0-6.6,1.3-6.7-1.2c0-4.1,4.3-2.1,6.7-2.1
		c197.7-0.1,395.4-0.1,593.1-0.1c0.6,0,1.3-0.1,1.9,0c1.9,0.4,5.2-1.3,5.2,1.8c0,3.1-3.4,1.5-5.2,1.5
		C764.1,328.9,664.5,328.9,564.9,328.9z"/>
	<path class="st4" d="M869.2,404.5c-1.9,2.7-4.2,1.7-6.1,1.7c-198.4,0-396.7,0-595.1,0c-1.3,0-2.6,0-3.9-0.1c-0.9,0-1.8-0.2-1.9-1.2
		c-0.1-1.5,1-1.6,2.1-1.7c1.5,0,3,0,4.5,0c197.7,0,395.4,0,593.1,0C864.2,403.3,866.7,402.5,869.2,404.5z"/>
	<path class="st5" d="M296.2,219.6c3.7-7.4,6.9-14,10.2-20.6c0.9-1.9,2.6-1.9,4.3-1.9c12.2,0,24.4,0.1,36.5,0c3.2,0,4.6,0.7,2.5,3.9
		c-0.2,0.4-0.4,0.8-0.5,1.2c-3.8,14.6-12.7,20.2-27.8,17.8C313.5,218.5,305.3,219.6,296.2,219.6z"/>
	<path class="st5" d="M567.6,219.6c3.7-7.4,6.9-13.9,10-20.3c0.9-1.8,2.2-2.3,4.1-2.3c12.4,0.1,24.8,0.1,37.2,0
		c2.8,0,4.3,0.6,2.4,3.6c-0.1,0.2-0.2,0.4-0.3,0.6c-8,18.4-8,18.4-27.9,18.4C585,219.6,576.9,219.6,567.6,219.6z"/>
	<path class="st6" d="M752.2,339.3c2.9,4.5,3,7.9,3.2,10.9c0.3,5.3,2.9,6.3,7.4,5.9c3.4-0.3,6.8-0.1,11-0.1
		c-2.3,4.5-6.1,5.9-9.4,7.7c-4.6,2.5-6.6,5.3-4.7,10.6c1,2.7,1,5.7,1.4,8.8c-6.1-0.9-8.9-8.6-14.6-7.3c-4.8,1.1-9.1,5-14.6,6.6
		c1.7-3.5,3.1-7.2,5.1-10.6c1.9-3.1,1.7-5.2-1.3-7.4c-2.8-2.1-5.2-4.7-7.9-8.2C742.5,360.1,749,352.5,752.2,339.3z"/>
	<path class="st6" d="M775.5,355.2c14.9,5,21.1-3,24.3-15.4c0.9,1.1,1.1,1.2,1.1,1.4c0.6,12.8,6.6,18.6,20.7,14.6
		c-2.9,4.3-6.3,6.2-9.7,8c-4.4,2.2-6.4,5-4.7,10.1c0.9,2.8,1,5.8,1.4,8.6c-1.1,0.9-2,0.5-2.5-0.1c-7.4-8.1-15-7.5-22.8-0.6
		c-0.7,0.7-1.8,0.9-4.5,2.2c1.9-4.1,2.7-7.1,4.4-9.5c3.8-5.2,2.8-9-2.5-12.4C779,361,777,359.5,775.5,355.2z"/>
	<path class="st6" d="M307.3,356.9c-2.5,3.4-6.1,5.4-9.6,7.1c-4.9,2.3-5.5,5.7-4.4,10.4c0.6,2.7,0.9,5.4,1.4,8.7
		c-5.9-1.3-9-8.1-14-7.4c-4.9,0.8-9.3,4.9-14.5,8c0.2-4.8,2.5-8.2,4.3-11.4c2.1-3.7,1.7-5.9-1.7-8.4c-2.5-1.8-5.2-3.7-6.7-6.6
		c0.3-0.4,0.7-1,0.9-1c12.2,2.6,19.1-2.9,22.3-14.3c0.1-0.5,0.8-0.8,1.4-1.4c2.6,5,0.4,12,4.6,14.9
		C295.5,358.2,301.7,355,307.3,356.9z"/>
	<path class="st7" d="M355.4,357.3c-2.5,3.2-6.2,5-9.6,7c-3.7,2.2-5.8,4.3-4.1,9c1.1,2.9,1,6.2,1.4,9.4c-1.9,1-3.1-0.4-3.9-1.3
		c-6.4-6.9-12.8-6.6-19.6-0.6c-1.3,1.1-2.9,2.5-5.1,2c1.3-5.4,6.1-9.9,6-14.5c-0.1-4.8-7.5-6.7-10.4-11.6c5.9-1.7,12.8,1.9,16.9-1.8
		c3.8-3.4,5.2-9.5,8-15.1c0.6,1.7,1,2.4,1.2,3.2c1.3,4.2,0.1,10.3,3.4,12.4c3.2,2.1,8.7,0.6,13.1,0.8
		C353.6,356.1,354.9,355.7,355.4,357.3z"/>
	<path class="st6" d="M357.7,355.1c14.6,5,21-2.5,24-15.2c0.5,0.3,0.9,0.5,1.4,0.8c0.8,3.6,2,7.1,2.3,10.7c0.3,4,2,5.1,5.7,4.8
		c3.9-0.3,7.9-0.1,13.2-0.1c-3.8,4.4-7.6,6.3-11.2,8.4c-3.5,2.1-5.6,4-4,8.5c1.1,3.1,1.1,6.6,1.6,10c-0.6,0-0.9,0.1-1,0
		c-8.7-8.6-17.5-7.9-26.3-0.2c-0.2,0.2-0.8-0.1-1.8-0.3c1.8-3.7,3.2-7.4,5.2-10.7c1.9-3.1,1.6-5.1-1.3-7.4
		C362.8,362.1,359.3,360.3,357.7,355.1z"/>
	<path class="st6" d="M704.9,340.6c2.5,5.2,0.1,12.4,4.8,14.9c4,2.1,9.9,0.4,16.3,0.4c-3,4.3-6.5,6-9.7,7.6c-5.1,2.5-6.7,6-5,11.3
		c0.8,2.4,1.3,5,0.8,7.9c-5.4-1.1-8.5-8-13.4-7.1c-4.9,0.8-9.3,4.9-14.4,7.9c-0.1-4.8,2.4-8,4.3-11.3c2.1-3.7,1.9-6-1.7-8.4
		c-2.6-1.7-4.7-4.2-6.9-6.3c1.4-2.5,3.5-1.8,4.8-1.5c9.1,1.8,14.4-2,16.9-10.7C702.1,343.8,702.6,341.8,704.9,340.6z"/>
	<path class="st6" d="M847.9,340.5c2.4,1.9,2.1,4.5,2.2,6.7c0.3,7.1,3.4,10.2,10.7,8.9c2.4-0.4,5-0.1,8.8-0.1
		c-3.1,4.2-6.7,6.1-10,7.8c-4.4,2.3-6.2,5-4.7,10.1c0.8,2.7,1.9,5.7,1,9c-5.4-1.1-8.4-8.1-13.4-7.3c-4.9,0.8-9.2,4.9-14.5,7.9
		c-0.1-4.6,2.2-7.7,4-10.8c2.2-3.7,2.4-6.3-1.6-9c-2.6-1.7-4.7-4.2-6.8-6.2c0.9-2.1,2.4-1.7,3.5-1.5c10,2.1,16-2.1,18.7-11.7
		C846.2,343,847.2,341.8,847.9,340.5z"/>
	<path class="st8" d="M430.4,340.5c2.1,3.3,2.3,7.1,2.7,10.6c0.4,4.5,2.5,5.2,6.2,5c3.8-0.2,7.5-0.1,12.7-0.1
		c-3.4,4.2-6.9,6.1-10.4,7.9c-4.5,2.3-6,5.1-4.6,10.1c0.8,2.7,2,5.7,1,8.9c-5.4-1.2-8.4-8.2-13.6-7.4c-4.9,0.8-9.2,4.9-14.6,8
		c0.1-4.5,2.2-7.3,3.9-10c2.6-4.3,2.7-7.4-1.9-10.5c-2.2-1.5-6.3-3.3-5.2-6.2c0.8-2.1,5.1-1.1,7.7-0.7c6.1,0.8,9.5-1.5,11.3-7.3
		C426.7,345.9,427.9,342.9,430.4,340.5z"/>
	<path class="st9" d="M521.8,365.9c0-4.9,0-9.7,0-14.6c0-2-0.2-3.9,2.8-3.8c3.1,0,2.6,2.2,2.6,4c0,9.6,0.1,19.2,0,28.8
		c0,1.4,1.1,3.7-1.7,4c-2.4,0.3-3.9-0.4-4.8-3c-1.6-4.9-3.6-9.8-6.5-14.5c0,4.6,0,9.1,0,13.7c0,2,0.2,3.9-2.8,3.9
		c-2.9,0-2.9-1.8-2.9-3.8c0-9.8,0-19.6,0-29.5c0-1.8-0.1-3.5,2.4-3.6c1.9-0.1,3.1,0.4,3.8,2.5c1.9,5.4,3.9,10.7,5.9,16.1
		C521,366,521.4,365.9,521.8,365.9z"/>
	<path class="st6" d="M619.7,365.8c0-3.9-0.1-7.7,0-11.6c0.2-4.3,2.8-6.7,6.9-7.1c4.3-0.4,8,1.3,8.6,5.8c1.1,8.5,1.1,17.1,0.1,25.6
		c-0.6,4.7-3.9,6.4-8.3,6.2c-4.5-0.3-7.1-2.8-7.3-7.4C619.6,373.5,619.7,369.7,619.7,365.8z"/>
	<path class="st10" d="M484.9,347c5.4,0.4,8.7,2.7,9.4,8.1c0.2,1.4,0.5,3.3-1.7,3.3c-1.4,0.1-3.3,0.7-3.7-1.4
		c-0.5-2.7-1.5-4.6-4.5-4c-2,0.4-2.2,2.2-2.4,4.1c-0.2,3.1,1.5,4.4,4.2,5.5c7.8,3.3,10,8.3,7.7,16.2c-1.3,4.4-4.3,6.1-8.6,6.1
		c-4.6-0.1-7.8-2.2-8.9-6.7c-0.4-1.4-1.3-3.6,1.3-4.1c1.5-0.3,3.6-0.9,4.1,1.7c0.4,2.6,1.8,3.8,4.5,3.4c1.8-0.3,2.5-1.5,2.6-3.1
		c0.1-2.5,0.8-5.3-1.9-6.9c-2-1.2-4.4-1.7-6.4-2.9c-4.4-2.9-4.8-7.2-3.7-11.9C477.6,349.6,480.6,347.4,484.9,347z"/>
	<path class="st11" d="M537.2,366.4c0,3,0,6,0,9c0,1.5,0.1,3.1,1.9,3.6c1.6,0.4,3.3-0.2,3.5-1.9c0.5-3.3,2.7-4.1,4.9-2.9
		c2.7,1.5,1,4.2,0.1,6.2c-1.8,3.8-5.2,4.8-9.1,4.4c-3.8-0.4-6.6-2.6-7-6.4c-0.8-8.3-1-16.7,0.1-24.9c0.6-4.6,4.3-6.7,9-6.4
		c4.4,0.3,7.1,2.8,8,7c0.3,1.5,0.9,3.6-1.7,4.1c-1.7,0.3-3.5,0.3-3.9-2.1c-0.4-2.2-1.5-3.7-4-3c-2.1,0.6-1.8,2.6-1.8,4.3
		C537.2,360.4,537.2,363.4,537.2,366.4z"/>
	<path class="st12" d="M552.8,365.7c0-3.2-0.2-6.4,0.1-9.6c0.3-2.8-1.8-7.2,1.3-8.1c4.1-1.3,8.9-0.5,13.4-0.3
		c1.5,0.1,1.6,1.9,1.3,3.2c-0.3,2.1-2.1,1.6-3.5,1.9c-2.8,0.6-7.3-2.3-7.3,4c0,4.4,0.2,7.7,6,6.6c1.6-0.3,3.6-0.3,3.5,2.3
		c0,2.3-1.3,3.1-3.3,2.8c-5.1-0.8-6.3,1.3-6.3,6.3c0,5.6,3.5,4,6.4,4.2c1.9,0.2,4.6-1,4.5,2.7c0,3.6-2.6,2.6-4.6,2.7
		c-11.6,0.4-11.6,0.4-11.6-11C552.8,370.8,552.8,368.2,552.8,365.7z"/>
	<path class="st10" d="M638.9,373.6c-0.2-8.9,4.7-16.3,7.2-24.3c0.8-2.5,3.2-2,5-1.6c3.1,0.8,0.6,2.8,0.3,4.1
		c-0.5,2.3-1.4,4.5-2.5,6.6c-1.3,2.6-1.3,3.7,2,4.8c5.4,1.8,3.9,7,4,11.1c0.2,3.8,0,7.9-4.3,10C644,387.3,639,382.8,638.9,373.6z"/>
	<path class="st13" d="M602.5,383.8c1-2.8,1.9-5.4,3-8c1.3-3.2,3-5.5-2.3-7.5c-5.2-2-3.8-17.7,1.3-20.3c5.1-2.6,10.8,0.3,11.6,5.9
		c1.6,10.6-3.6,19.6-7,28.9C608,385.5,605.2,384.3,602.5,383.8z"/>
	<path class="st14" d="M503.9,366.3c0,4.9,0,9.8,0,14.7c0,1.8,0,3.4-2.5,3.5c-2.6,0.1-3.3-1.1-3.3-3.5c0.1-10,0.1-20.1,0-30.1
		c0-2.3,0.7-3.7,3.3-3.5c2.4,0.1,2.6,1.7,2.6,3.5C503.9,356,503.9,361.1,503.9,366.3z"/>
	<path class="st1" d="M582.3,356.6c-1.4-3.9,0.1-6.1,2.9-7.9c2-1.3,4.1-1.7,6.1-1.1c2.6,0.8,1.3,3.3,1.3,5c0.1,9.2,0.1,18.4,0,27.6
		c0,1.7,0.9,4-2.3,4.2c-3.5,0.2-3-2.1-3-4.2c0-6.8-0.2-13.7,0.1-20.5C587.6,355,586.6,353.3,582.3,356.6z"/>
	<path class="st15" d="M817.9,253.2c-3.3,6.7-6.2,12.8-9.3,18.8c-1.6,3.1-10.6,4.4-12.9,2.1c-1.1-1.1-0.9-2.3-0.3-3.5
		c1.2-2.5,2.3-5,3.5-7.5C804.4,252.2,804.4,252.2,817.9,253.2z"/>
	<path class="st16" d="M630,366.1c0,3.2,0,6.4,0,9.6c0,1.6-0.2,3.2-2.2,3.3c-1.9,0.2-2.7-1.1-2.8-2.8c-0.1-6.9-0.1-13.7,0-20.6
		c0-1.7,1-2.9,2.8-2.7c1.5,0.2,2,1.4,2.1,2.8C630,359.2,630,362.6,630,366.1z"/>
	<path class="st17" d="M649.4,373.1c-0.6,2.3,1.1,5.8-2.4,5.8c-3.6,0-2.7-3.5-2.7-5.8c-0.1-2.2-0.5-5.4,2.7-5.3
		C650.5,367.9,648.7,371.4,649.4,373.1z"/>
	<path class="st18" d="M610.8,358.9c-0.3,2.2,0.9,5.6-2.8,5.2c-3.2-0.3-2.3-3.5-2.3-5.7c0-2.1-0.9-5.5,2.5-5.4
		C612.2,353.2,610.2,356.9,610.8,358.9z"/>
</g>
</svg>
