<?xml version="1.0" encoding="utf-8"?>
<!-- Generator: Adobe Illustrator 21.1.0, SVG Export Plug-In . SVG Version: 6.00 Build 0)  -->
<svg version="1.1" id="Layer_1" xmlns="http://www.w3.org/2000/svg" xmlns:xlink="http://www.w3.org/1999/xlink" x="0px" y="0px"
	 viewBox="0 0 700 965" style="enable-background:new 0 0 700 965;" xml:space="preserve">
<style type="text/css">
	.st0{fill:#FDFDFD;}
	.st1{fill:#020202;}
	.st2{fill:#FEFEFE;}
</style>
<g>
	<path class="st0" d="M351.9,830.9c-115,0-230.1,0-345.1,0.1c-3.2,0-4-0.7-4-4c0.1-230.1,0.1-460.1,0-690.2c0-3.2,0.7-4,4-4
		c230.1,0.1,460.1,0.1,690.2,0c3.2,0,4,0.7,4,4c-0.1,230.1-0.1,460.1,0,690.2c0,3.2-0.7,4-4,4C581.9,830.8,466.9,830.9,351.9,830.9z
		"/>
	<path d="M33.9,579.3c1.2-10.1,2.5-20.4,7.2-30c6.6-13.3,16.2-23.7,27.6-32.8c12.4-10,25.8-18.7,38.6-28.2c1.5-1.1,2.3-0.9,3.6-0.3
		c5.4,2.5,10.7,5.5,16.3,7.2c9.8,2.9,19.8,5.4,30.2,3.2c1.1-0.2,2.3-0.1,3.4,0c0.7,0,1.5-0.2,1.7,0.8c0.1,0.7,0.1,1.2-0.7,1.8
		c-8.7,6.9-17.4,13.8-26.1,20.7c-1,0.8-2.5,1.4-2.4,2.7c0.1,1.6,2.1,1.2,3.1,1.5c13,4,23.7,10.8,29.2,23.8
		c3.1,7.2,4.1,14.7,3.2,22.9c-2.4,20.4-13.8,34.3-30.1,45.2c-11.4,7.6-24,11.8-37.5,13.9c-7.6,1.1-15.2,1.5-22.6,0.6
		c-9.3-1.1-17.8-4.9-25.3-10.9c-9.7-7.8-15.3-17.9-18.2-29.7C34.3,587.6,34.3,583.6,33.9,579.3z"/>
	<path d="M184.5,398.7c4.7-7.8,18.6-8.8,29.9-3.4c0-7.5-3.2-13.2-8.7-17.8c-5.6-4.7-12.6-5-19.9-6.2c6-7,12.7-9.9,21.3-7.9
		c2,0.5,4.3-0.3,6.2,1c3.1,2.1,4.4,0.3,4.7-2.4c1.6-15.1,11.4-24.5,22.6-33c1.7-1.3,3.3-2.5,5.1-3.9c-2.4-1.2-3.8,0.9-5.5,1.4
		c-9.9,2.7-19.6,2.3-29.5-0.6c-8-2.3-15.7-5.9-24.4-5.5c-5.1,0.3-9.1,3.7-8.9,7.6c0.2,2.2,1.1,3.5,3.2,2.4c1.7-0.8,3.4-0.4,5-0.5
		c3.3-0.3,6.2,0.5,7.5,4.1c1.2,3.2,1.1,6.3-1,9.2c-2.3,3.1-5.6,4.5-9.2,3.7c-8.9-1.8-12.3-9-11-18.4c1.5-10.6,8-16.5,16.6-21
		c11.4-6,23.3-5.1,35.2-2.4c9.9,2.2,19.8,4.9,30,5.7c8.3,0.7,16.3-2.2,24.1-4.8c2.4-0.8,4.7-1.7,7-2.6c2.3,3.2,0.8,5.4-1.8,7.7
		c-11.3,9.7-15.7,22.3-16.1,37c-0.2,6.1-1.2,12.3-0.5,18.3c1.1,9.6,0.8,19.2,0.6,28.7c-0.2,11.2-1.7,22.4-6.9,32.5
		c-8.3,16.3-20.8,28.8-36.5,37.8c-10.1,5.8-21,7.4-32.4,3.5c-4.3-1.5-8.7-2.9-13-4.3c-5.5-1.8-9.8-0.2-13.2,4.9
		c-0.9,1.3-1.8,2.5-2.8,3.7c-0.4,0.5-0.1,2.2-1.9,1.1c-1.2-0.7-1.4-1.4-1.1-2.3c3.1-9.7,6.4-19.6,17-23.8c4.4-1.7,9.2-2.7,14.2-2.1
		c6.5,0.8,12.9,2.6,19.3,3.8c6.6,1.2,11.4-2.7,12.5-9.3c3.2-18.5-9.9-32.6-24.9-38.2C193.3,400.7,188.8,400.3,184.5,398.7z"/>
	<path d="M396.8,363.5c7.1-4.8,12.9-10.5,19.3-15.4c1.2-0.9,2.5-1.8,3.7-2.8c5.6-4.8,5.7-4.9,10.8,0.6c5.6,6.1,8.4,13.5,8.5,21.7
		c0.3,18.6,0.4,37.1,0,55.7c-0.3,14.7-8.1,25.5-20.1,33.3c-10.1,6.6-21.5,10.2-33.1,13c-0.8,0.2-2.3,0.9-2.8-1
		c-0.4-1.9,0.9-2.6,2.1-3.1c7.8-3,15.4-6.6,22.1-11.5c6-4.4,9.5-10.7,10.2-18.1c2.1-22,0.4-44.2,0.9-66.3c0.1-3.9-2.3-6.5-4.9-9
		c-1.2-1.1-2.1-0.9-3.3,0.1c-4,3.3-8.1,6.5-12.2,9.7c-1.2,0.9-1.2,2.1-1.2,3.4c0,16.3,0.1,32.5-0.1,48.8c0,2.6,1.3,4,2.9,5.3
		c3.4,2.7,3.4,5.1-0.2,7.5c-4.5,3.1-8.1,7.2-11.9,11.1c-1.5,1.5-2.7,1.3-3.8,0.1c-4.4-4.5-9.2-8.5-14-12.5c-1.5-1.2-0.6-2.5,0.4-3.1
		c6.2-3.9,6-9.9,5.9-16.2c-0.2-17.8-0.2-35.7,0-53.5c0-3.1-0.6-4.2-3.9-4c-7.4,0.3-7.2,0-7.5-7.2c-0.2-3.9,0.8-5.1,4.8-4.9
		c6.5,0.4,6.7,0.1,6.5-6.4c-0.2-5.1,0.3-10.2-0.6-15.3c-0.8-4.4-3.1-7.7-5.7-10.9c-0.6-0.7-1.8-1.1-1.2-2.4c0.9-1.7,2.1-0.4,2.9-0.2
		c3.7,1.1,7.5,2.3,10.3,5.2c1.7,1.8,2.7,1.7,4.4-0.1c4.3-4.8,9.6-8,16.1-9.2c1.4-0.3,3.2-0.9,4,0.2c1,1.4-0.6,2.6-1.7,3.5
		c-5.3,4.5-7.7,10.3-7.6,17.2C396.9,338.9,396.8,351,396.8,363.5z"/>
	<path d="M471.4,447.9c-5-4.6-9.9-9.4-15-14c-1.5-1.4-1.7-2.3,0-3.5c4.5-3.2,5.5-7.5,5.3-13c-0.4-14.7-0.2-29.4-0.1-44.1
		c0-2.9-0.6-5.7-1.2-8.3c-0.5-1.9-1.1-6.1-5.3-2.7c-1.8,1.4-2.9-1.1-4.1-2.1c-1.5-1.2-0.1-2,0.6-2.7c5.1-5.1,10.2-10.2,15.2-15.3
		c1-1,2-1.7,3.4-0.7c6.3,4.5,11.3,9.8,11.2,18.1c0,1.4,0.8,2.4,1.1,3.6c4.4-1.9,7.2-5.9,10.8-8.7c4.4-3.4,8.3-7.4,12.2-11.3
		c1.8-1.7,3.3-1.8,4.6,0.2c3,4.8,7.8,8,11.4,12.3c2.4-1.9,4-4.5,6.8-5.8c1-0.5,1.4-2.9,3.2-0.8c1.3,1.5,2.6,2.5,1,4.7
		c-2.1,2.9-3.8,6.1-5.9,9c-1.3,1.8-1.9,3.6-1.9,5.8c0.1,17.3,0.1,34.6,0,51.8c0,2.3,0.5,4.3,1.8,5.9c1,1.2,2.2,4,4.6,1.2
		c1.9-2.3,3.1-0.3,4.6,0.8c2,1.6,0.7,2.6-0.5,3.7c-5.6,5-11.3,10-16.8,15.1c-1.3,1.2-2.2,0.3-2.9-0.2c-7.9-5-11.4-12.5-11.5-21.6
		c-0.2-17.7-0.1-35.4-0.1-53.1c0-2.5-5.8-10.5-8.1-11.3c-1.1-0.4-1.5,0.6-2.1,1c-3.5,2.6-6.9,5.2-10.4,7.8c-1.1,0.8-0.9,2-0.9,3.1
		c0,16.7,0.1,33.4,0,50.1c0,3.2,2.3,4.7,3.9,6.7c1.8,2.1,1.4,3.2-0.4,5C481.3,439.3,476.7,443.9,471.4,447.9z"/>
	<path d="M505.8,543.4c6-6,11.5-11.1,16.5-16.5c2.3-2.5,4-1.7,6.1-0.1c6.9,5.1,10.3,11.9,10.1,20.5c3.3-0.8,5.3-3.5,7.6-5.4
		c5.3-4.4,10.2-9.2,15-14.1c2.3-2.4,3.8-2.3,5.8,0.1c2.9,3.5,6.8,6.1,9.2,10.1c1,1.7,2.4,2.3,4,0.3c1.1-1.5,2.5-2.8,4-4
		c1-0.8,1.9-3.5,3.4-1.8c1.1,1.3,4.4,3.1,1.2,5.8c-0.9,0.8-1.5,2-2.2,3c-4.4,5.5-6.1,11.6-5.8,18.8c0.5,14.4,0.2,28.8,0.1,43.2
		c0,2.6,0.8,4.7,2,6.7c1.1,1.8,2.5,3.2,4.8,1.4c2.3-1.9,3.5,0.2,4.8,1.6c1.7,1.9-0.6,2.5-1.4,3.3c-5,5.2-10.6,9.8-16.1,14.5
		c-1,0.9-1.3,1-2.6,0.1c-7.2-4.8-10.7-11.2-11.4-19.9c-1.5-18.6-0.2-37.3-0.7-55.9c-0.1-2.4-5.2-9.6-7.5-10.2
		c-0.8-0.2-1.6,0-2.3,0.6c-1.6,1.4-3.1,3-4.9,4c-6.2,3.5-7.3,8.7-7,15.4c0.5,12.9,0.3,25.9,0.1,38.8c-0.1,3.7,1.1,6.6,3.7,9
		c2.4,2.2,2.4,3.8-0.1,6c-4.2,3.7-8,7.8-11.9,11.9c-1,1.1-1.5,1.1-2.9,0.2c-4-2.7-6.8-6.6-10.3-9.6c-1.2-1-2-2.3-3.5-3
		c-2.1-0.9-2.3-2.7-0.4-4c5.1-3.3,5.1-8.2,5-13.5c-0.2-15.8-0.1-31.7,0-47.5c0-2.5-0.7-4.7-1.8-6.8c-1-1.8-1.7-2.7-4-0.8
		C508.8,548.3,508.9,543,505.8,543.4z"/>
	<path d="M667.2,578c0,10.8-0.1,21.6,0.1,32.4c0,3.1-0.3,5.1-3.8,6.3c-9.5,3.2-18.6,7.5-26,14.7c-1.4,1.4-2.3-0.1-3.2-0.6
		c-4.5-2.7-8.9-5.6-13.5-8.3c-6-3.5-12.8-5.3-19.4-7.5c-2.9-1-4.5-1.5-1.4-4.3c3.5-3.1,4.1-7.5,4.1-11.9c0-17.7,0-35.4,0.1-53.1
		c0-1.2-1-2.8,1.7-3.5c10.3-2.8,19-8.7,26.7-15.9c1.6-1.4,2.5-1.4,4.3-0.2c7.5,5,14.9,10.2,23.7,12.8c6.6,2,6.6,2.1,6.6,9.3
		C667.2,558.1,667.2,568.1,667.2,578z"/>
	<path d="M284.3,429.7c4.8-4.1,6.3-9,6.2-14.4c0-17.8,0.1-35.7-0.1-53.5c0-2.5,0.8-3.5,2.9-4.1c9.9-2.9,18.3-8.1,25.6-15.3
		c1.5-1.5,2.5-1.5,4.3-0.2c7.4,5.1,15,10.1,23.7,12.8c6.6,2,6.5,2.1,6.5,9.3c0,21-0.1,42,0.1,63c0,2.9-0.8,4.5-3.5,5.4
		c-9.3,3-18.1,7.2-25.4,13.9c-1.6,1.5-2.6,1.3-4.2,0.3c-2.2-1.5-4.6-2.7-6.7-4.2C305.1,436.1,294.7,433.4,284.3,429.7z"/>
	<path d="M189.3,533.6c6.6,0.6,12.6-0.7,18.1-3.7c0.7-0.4,1.7-0.7,2.1-1.3c2.9-4.4,6.5-3.6,10.6-1.9c6.4,2.6,13,4.9,19.4,7.4
		c2.4,0.9,4.4,1.2,6.2-1c1.1-1.2,2.5-2.8,4.2-1.5c1.9,1.4-0.1,2.8-0.7,3.9c-4,6.7-5.8,13.7-5.5,21.6c0.5,15.7,0.2,31.4,0.1,47
		c0,1.9,0.3,3.6,1.2,5.3c1.2,2.4,2.9,3.5,5.2,1.8c2.5-1.9,3.7,0,4.9,1.4c1.5,1.8-0.8,2.3-1.5,3.1c-4.9,4.8-10,9.3-14.8,14.2
		c-2.2,2.2-3.8,0.8-5.5-0.4c-6.9-4.9-9.9-11.6-10.3-21.8c-7.4,6.8-14.7,13.3-21.8,19.9c-4.8,4.5-5.7,4.6-10.3,0.1
		c-7.7-7.4-11.8-16.4-11.6-26.9c0.1-9.2,3.3-17.6,8.4-25.3c2.4-3.6,5-6.9,8.1-9.8c2.4-2.3,3.4-4.6,1.9-8.3
		C194.5,549.9,192.1,541.9,189.3,533.6z"/>
	<path d="M438.4,533.7c8.9,0.3,16.8-0.9,22.7-7.7c1.1-1.3,2.4-1,3.9-0.5c7.9,2.9,16.2,5.1,23.8,8.7c3.7,1.8,5-0.7,7.2-1.7
		c1.1-0.5,2.1-2.1,3.2-1.1c1.1,1,0.5,2.7-0.4,3.9c-5.6,7.6-6.4,16.2-6.2,25.3c0.3,14.4,0.1,28.8,0.1,43.2c0,2.7,0.5,5.3,2.5,7.3
		c1.3,1.2,2.4,2,4,0.4c2.4-2.4,3.5,0.2,4.8,1.5c2,2-0.5,2.7-1.4,3.6c-4.7,4.3-9.7,8.3-14.2,12.8c-2.6,2.6-4.4,2-6.8,0.1
		c-6.8-5.4-9.1-12.8-9.7-21.5c-4,3.3-7.2,6.9-10.9,9.9c-4.7,3.7-8.9,8-13.2,12.2c-1.7,1.6-3.7,2.1-5.3,0.7
		c-8.9-7.7-14.6-17.4-14.4-29.1c0.1-9.6,3.5-18.8,9.2-26.8c2.6-3.7,5.3-7.4,8.7-10.4c1.7-1.5,2-2.9,1.2-5.2
		C444.1,550.9,441.4,542.4,438.4,533.7z"/>
	<path d="M366.4,490.5c-2.9,3.6-5.5,6.1-7.2,9.4c-2,3.8-3,7.8-3,12c0,29.2,0,58.4-0.1,87.6c0,2.6,0.8,4,2.7,5.5
		c3.1,2.4,6.7,4.1,9.6,6.8c1.4,1.3,2.6,0,3.6-1c1.8-1.7,3.4-2.7,5.6-0.2c1.3,1.5,1.1,2.2-0.2,3.5c-5.3,5.2-10.6,10.5-15.9,15.9
		c-1.5,1.5-2.6,1.9-4.3,0.2c-7.5-7.2-16.7-11.5-26.2-15.2c-2.5-1-3.2-1.6-1.1-3.6c3.6-3.4,4.7-7.8,4.7-12.6c0-28.8,0-57.5,0-86.3
		c0-5.4-1.7-10.1-5.4-14c-1-1.1-2.5-2.1-1.7-3.7c1.1-2,2.6,0,3.7,0.2c3.3,0.6,6.4,2.2,8.9,4.3c2.8,2.5,4.5,1.6,6.8-0.6
		C352,493.7,357.9,490.1,366.4,490.5z"/>
	<path d="M267.2,613.7c4.9-4.3,6.1-9.8,6.1-16c-0.1-28.1-0.2-56.1,0.1-84.2c0.1-6.4-2-11.5-5.8-16.1c-0.8-0.9-1.8-1.9-1-3
		c0.8-1.1,2,0,3,0.3c3.3,0.8,6.3,2.5,8.9,4.5c2.8,2.2,4.6,1.9,7.2-0.6c5.4-5,11.6-8.6,19.3-8.1c0.6,1.6-0.5,2.2-1.2,2.7
		c-7,5.5-8.7,13.3-8.8,21.4c-0.2,28.3-0.1,56.7-0.1,85c0,1.6,0,3.1,1.5,4.2c3.7,2.5,7.4,5,11,7.6c2.1,1.5,3.4,0,4.6-1.2
		c1.4-1.4,2.5-2.1,4.3-0.4c2,2,0.8,3.2-0.7,4.6c-5.1,5.1-10.2,10.1-15.3,15.3c-1.3,1.3-2.4,2.5-4.2,0.7
		c-7.2-7.4-16.2-11.7-25.7-15.3C269.4,614.7,268.4,614.2,267.2,613.7z"/>
	<path d="M389.9,580.6c0-9.2-0.2-18.4,0.1-27.6c0.1-4.2-1.2-7.4-4.2-10.1c-2.7-2.4-3.3-4,0.6-6.4c4.1-2.6,7.5-6.5,11.1-10
		c1.6-1.6,2.8-2,4.6-0.2c4.1,4,8.2,7.9,12.5,11.6c2.4,2.1,2.5,4.1,0.2,5.8c-3.1,2.3-3.3,5.2-3.3,8.7c0.1,17.2,0.1,34.5,0,51.7
		c0,2.4,0.4,4.6,1.9,6.3c1,1.2,2.3,3.8,4.6,1.1c1.9-2.3,3.1-0.2,4.5,0.9c2.1,1.7,0.6,2.7-0.6,3.7c-5.8,5-11.7,9.8-17.3,14.9
		c-1.2,1.1-2,0.7-2.8,0.2c-7.6-4.7-11.6-11.6-11.8-20.4C389.7,600.8,389.9,590.7,389.9,580.6z"/>
	<path class="st1" d="M420.8,493.1c-4.2,6.3-8,11.9-11.8,17.5c-1.4,2.1-3,4-4.3,6.2c-0.6,1-1,1.7-2.2,1.3c-1.1-0.4-0.8-1.5-0.7-2.2
		c0.8-4.8,1.5-9.6,2.6-14.3c2-8.5,2.1-8.5,11.2-8.5C417.1,493.1,418.4,493.1,420.8,493.1z"/>
	<path class="st2" d="M129.8,577c-7.9-0.6-14.9-2.1-21.4-5.5c-1.3-0.7-2-1.5-2-3.2c0.2-5.2,0.1-10.3,0-15.5c-0.1-2.3,0.8-3,3-3.7
		c13.4-4.1,26.6-1.2,35.8,10.1c2.3,2.9,2.7,6.6,4,9.9c0.4,0.9-0.2,0.7-0.6,1C142.7,573.8,136.3,576.3,129.8,577z"/>
	<path class="st2" d="M70.2,602.3c5.5-4.8,10.6-9.7,16.2-14.1c5.2-4,6-9.6,6.4-15.4c0.2-3.1,0.4-6.4,0-9.5c-0.9-6,1.4-9.3,7.5-10.4
		c0.8,0.4,0.3,1.4,0.3,2.1c0,20.9,0,41.7,0,62.6c0,2,0.7,3.5-2.9,2.6C86.3,617.6,78.1,610.6,70.2,602.3z"/>
	<path class="st2" d="M145.1,600.3c-6.4,10.1-15.9,15.8-26.8,19.6c-1,0.4-2.3,0.1-3.4,0.2c-2.6,0.3-6,2.2-7.7,0.5
		c-1.9-2-0.4-5.7-0.6-8.7c-0.1-0.7,0-1.4,0-2.2c0-10.1,0-10.3,9.8-12.6c8.9-2.2,17.8-1.9,26.4,1.8
		C143.6,599.2,144.4,599.8,145.1,600.3z"/>
	<path class="st2" d="M92.9,507.9c10.8,4.3,21.6,8.6,32.7,13.1c-11,8.9-21.7,17.5-32.7,26.4C92.9,534.2,92.9,521.2,92.9,507.9z"/>
	<path class="st2" d="M69.4,527.2c0,21.1,0,41.3,0,61.4c0,2.7-0.4,6.1-2.6,6.9c-2,0.7-2.5-2.9-3.5-4.6c-3.7-6.2-5.5-13.1-5.9-20.2
		c-0.5-9.4-0.9-18.9,2.4-28.2C61.8,537,64.6,532.1,69.4,527.2z"/>
	<path class="st0" d="M106.6,593.8c0-5.4,0-10.9,0-16.7c7,3.3,14.3,4.6,21.8,5c6.6,0.3,12.5-2.4,18.5-4.6c1.2-0.5,2.6-1.4,3.7-0.8
		c1.7,0.9,0.1,2.4,0.1,3.7c0.1,4-0.3,7.9-2,11.6c-0.6,1.2-0.9,3.1-3.3,2c-12-6.1-24.1-4.2-36.3-0.6
		C108.4,593.5,107.5,593.6,106.6,593.8z"/>
	<path class="st2" d="M219,457c10.7-7.3,14.4-17,15.5-28.5c1.3-13.3,0.4-26.6,0.7-39.9c0.2-12.4-0.5-24.9,1.9-37.1
		c1.1-5.7,4.1-11.2,7.6-15.6c5-6.3,10.8-12.3,19.3-15.7c-4.2,5.4-8.1,10.1-11.1,15.6c-3.6,6.6-5.6,13.7-6.3,21
		c-1.8,20-0.6,40.1-1.1,60.2c-0.2,9.1-1.7,18.2-6.5,26.1C234.7,450.1,228.4,455.1,219,457z"/>
	<path class="st2" d="M624.8,543.5c6.5,3.8,12.9,6,19,8.6c2.2,1,2.7,2,2.7,4.2c-0.1,17.3-0.1,34.5,0,51.8c0,3.4-0.8,3.9-3.8,2.5
		c-5-2.3-10.2-4.4-15.3-6.5c-1.5-0.6-2.6-1.3-2.6-3.3C624.9,581.9,624.8,563.1,624.8,543.5z"/>
	<path class="st2" d="M312.1,360.4c6.8,2.9,13.3,5.7,19.8,8.3c2,0.8,1.8,2.3,1.8,3.8c0,18.4,0,36.8,0,55.5
		c-7.1-2.3-13.7-5.3-20.3-8.2c-1.8-0.8-1.2-2-1.2-3.2C312.1,398,312.1,379.3,312.1,360.4z"/>
	<path class="st2" d="M223.1,590c1.6,6.2-0.4,12.2-7.3,16.3c-0.7,0.4-1.2,1.2-1.8,1.8c-5.3,5.3-5.5,5.5-9.8-0.6
		c-7.6-10.7-8.5-27.8-1.8-39.4c0.7-1.2,1.2-1.5,2.5-0.8c5.3,3,10.7,5.8,16.1,8.7c1.7,0.9,2.3,2.1,2.2,4
		C223,582.8,223.1,585.7,223.1,590z"/>
	<path class="st0" d="M195.8,538.6c8.9,3.5,16.9,6.7,25,9.6c1.9,0.7,2.4,1.5,2.4,3.3c0,6.6,0,13.2,0,20.1c-6.3-3.4-12.3-6.6-18.1-10
		c-2.4-1.4-2.2-4.4-3.1-6.7C199.8,549.9,198,544.7,195.8,538.6z"/>
	<path class="st2" d="M457.8,613c-5.9-6-9.3-12.8-10.6-20.7c-1.4-8.6,0.3-16.7,4.1-24.5c0.9-1.9,2.2-1.2,3.5-0.5
		c5,2.8,9.8,5.8,14.9,8.3c1.9,1,2.3,2.1,2.3,4c-0.1,4.5-0.4,9,0.1,13.3c0.6,5.3-1.4,9.1-5.4,12C463.3,607.4,460.7,610.3,457.8,613z"
		/>
	<path class="st2" d="M444.8,538.8c8.6,3.2,16.6,6.3,24.6,9.2c2.2,0.8,2.6,2.1,2.6,4.2c-0.1,6.3,0,12.6,0,19.3
		c-5.7-3.1-11.2-6.3-16.8-9.1c-2.5-1.2-2.6-3.4-3.4-5.4C449.5,551.2,447.3,545.3,444.8,538.8z"/>
</g>
</svg>
