<?xml version="1.0" encoding="utf-8"?>
<!-- Generator: Adobe Illustrator 21.1.0, SVG Export Plug-In . SVG Version: 6.00 Build 0)  -->
<svg version="1.1" id="Layer_1" xmlns="http://www.w3.org/2000/svg" xmlns:xlink="http://www.w3.org/1999/xlink" x="0px" y="0px"
	 viewBox="0 0 900 596" style="enable-background:new 0 0 900 596;" xml:space="preserve">
<style type="text/css">
	.st0{fill:#FFFFFF;}
	.st1{fill:#AAAAAA;}
	.st2{fill:#808080;}
	.st3{fill:#979090;}
</style>
<g>
	<path class="st0" d="M872.2,430.9c0,10.9,0,21.8,0,32.6c-137.8,0-275.5,0-413.3,0c-0.2-0.3-0.1-0.5,0.1-0.7c0.9-0.6,1.9-0.7,3-0.9
		c7.9-1.3,14.9-4.6,21.3-9.4c1.3-1,1.9-2.2,1.9-3.9c0-8.8,0-17.6,0-26.4c0-2.5-0.2-2.7-2.8-2.7c-8.8,0-17.6,0-26.4,0
		c-2.6,0-3,0.4-3.1,2.9c-0.1,3.1,0,6.2,0,9.4c0,1.6,0.7,2.3,2.3,2.3c3.4,0,6.7,0,10.1,0c3,0,3.4,0.4,3.4,3.5c0,0.2,0,0.5,0,0.7
		c0,5.8-0.3,6.2-5.8,7.9c-3.7,1.2-7.5,1.5-11.4,0.9c-10-1.5-17.1-9.5-17.8-19.6c-0.5-7,1.2-13.1,6.2-18.2c5.9-6,13-7,20.8-5
		c3.5,0.9,6.5,2.6,9.3,4.8c1.9,1.5,2.3,1.5,3.9-0.5c2.3-2.8,4.6-5.5,6.9-8.3c1.7-2.1,1.7-2.3-0.4-4c-6.5-5.1-13.9-7.6-22.1-8.2
		c-7.7-0.5-15.1,0.4-21.8,4c-12.9,7-19.7,17.7-20.1,32.5c-0.2,7.6,1.4,14.6,5.5,21c6.2,9.6,15.2,14.7,26.4,16.5
		c0.9,0.1,2.2-0.2,2.5,1.2c-140.5,0-281,0-421.4,0c0-30.3,0-60.5,0-90.7c0.2-0.2,0.5-0.3,0.7-0.5c1.2-0.4,2.4-0.2,3.6-0.2
		c18.9,0,37.7,0,56.6,0c3.6,0,3.7-0.1,3.7-3.6c0-3.9,0.1-7.8-0.4-11.7c-0.3-2.4-0.7-2.8-3.1-3c-4.3-0.3-8.6,0.4-12.9,0.5
		c-1.1,0-2.2,0-3.4,0c-8.6,0.1-11.4-7-10.1-12.9c0.5-2.4,0.5-4.3-1.3-6.2c-0.9-1-0.9-2.2-0.2-3.3c0.5-0.8,0.8-1.6,0.1-2.4
		c-1.7-1.9-1.4-4.1-0.8-6.4c0.1-0.2,0.1-0.5,0.2-0.7c1.4-4.6,1.4-4.6-2.6-7.4c-3.8-2.6-4.3-5.5-1.5-9.1c1.7-2.2,3.4-4.4,5-6.7
		c1.5-2.1,2.3-2,3.7,0.2c1.1,1.8,2.1,3.6,3.6,5c2.9,2.8,5.9,2.5,7.6-1.1c1.4-3.1,3.5-3.9,6.6-3.7c5,0.4,9.9-0.6,14.8-0.5
		c9.8,0.2,18.7,0.9,26.4,4.2c-1.6-1.7-3.7-2.6-5.9-3.4c-6.6-2.3-13.5-2.6-20.3-3.2c-5.5-0.5-11-0.7-16.5-1.3c-1.9-0.2-3.1-1-3.8-2.8
		c-1.3-3.6-3.9-5.9-7.5-7.2c-3.1-1.1-3.3-1.6-2.5-4.6c1.9-7.2,2.9-14.6,5.4-21.6c0.4-1.1,0.2-2-0.4-3c-3.1-5.2-1.7-9.4,3.9-11.9
		c3.3-1.5,6.9-2.2,10.4-2.7c5.7-0.8,4.9-0.4,4.9-5.7c0-32.7,0-65.4,0-98.1c0-1.3-0.1-2.6,0.2-3.8c0.1-0.3,0.3-0.5,0.5-0.7
		c28.6,0,57.3,0,85.9,0c0.2,0.2,0.2,0.4,0.1,0.7c-3.7,5.7-8.1,10.9-12.3,16.3c-10.9,14.1-21.8,28.2-32.7,42.3
		c-11.6,14.9-23.1,29.9-34.6,44.8c-0.8,1-1.6,1.9-2.3,3.3c3,0.3,5.8,0.1,8.6,0.1c8.4,0.2,16.7,0.8,24.9,2.9
		c8.1,2.1,15.3,5.7,21.2,11.7c4.9,4.9,7.8,10.8,9.1,17.6c1.7,8.3,2,16.6,0.4,25c-0.3,1.8-0.9,3.6-1.5,5.3c-0.9,2.4-0.9,2.4,1.6,3.4
		c4.7,1.9,9,4.5,12.8,7.9c6.5,5.7,10.8,12.8,13,21.1c2.9,10.6,2.7,21.3,0.3,32c-0.1,0.3-0.2,0.6-0.2,0.9c-0.8,3.4-0.7,3.6,2.7,3.6
		c30.3,0,60.6,0,90.9,0c3.3,0,3.5-0.2,4.5-3.1c4.2-12.2,8.6-24.3,12.8-36.4c1-2.7,1.5-3.1,4.3-3.1c26,0,52,0,78,0
		c2.3,0,3.6,0.8,4.3,2.9c0.5,1.5,1.1,3,1.6,4.5c3.7,10.7,7.4,21.3,11,32c1.1,3.2,1.3,3.3,4.6,3.3c39.8,0,79.5,0,119.3,0
		c3.3,0,3.4-0.2,3.4-3.6c0-23.5,0-47,0-70.5c0-1,0-1.9,0-2.9c0-1.8,0.9-2.6,2.7-2.6c9.3,0,18.6,0,27.8,0c2.1,0,3.3,1.3,4.4,2.9
		c7.3,10.4,14.7,20.8,22,31.1c9.9,14,19.9,27.9,29.6,41.9c1.9,2.7,4,3.8,7.3,3.8c79.2-0.1,158.4-0.2,237.6-0.1c4.4,0,4.4,0,4.4-4.5
		c0-14.6,0-29.3,0-43.9c0-3.8-0.1-3.9-3.9-3.9c-34.2,0-68.3,0-102.5,0c-5.4,0-5.4-0.1-5.4-5.5c0-58.8,0-117.6,0-176.4
		c0-1.3-0.1-2.6,0.2-3.8c0.1-0.3,0.3-0.5,0.5-0.8c40.5,0,81,0,121.4,0c0,95,0,190.1,0,285.1c-0.3,0.1-0.5,0.1-0.7-0.2
		c-0.7-2.2-1-4.5-1.7-6.7c-4-12.3-12.8-18.9-25.2-21.1c-2.8-0.5-5.6-0.6-8.4-0.6c-9,0-17.9,0-26.9,0c-3,0-3.1,0.1-3.1,3.1
		c0,21.6,0,43.2,0,64.8c0,3.1,0.2,3.2,3.3,3.2c10.1,0,20.2,0.2,30.2,0c17.5-0.5,29.4-11,31.4-27.9
		C871.1,432.1,870.9,431,872.2,430.9z"/>
	<path class="st0" d="M258.7,133.3c17.6,0,35.2,0,52.8,0c0.2,0.2,0.2,0.4,0.2,0.7c-2.9,8.3-6.1,16.5-9.2,24.7
		c-8.1,21.6-16.2,43.3-24.3,64.9c-7.6,20.3-15.2,40.6-22.8,60.9c-6.1,16.5-12.3,32.9-18.5,49.4c-0.4,1.1-0.5,2.7-1.9,2.9
		c-1.4,0.2-1.9-1.3-2.5-2.2c-19.3-27.3-38.6-54.6-57.9-81.8c-1.4-2-2.7-4-4.1-5.9c-1.2-1.5-1-2.7,0.2-4.2
		c10-12.5,20.1-25.1,30.1-37.6c18.5-23,36.9-46.1,55.3-69.1c0.5-0.6,0.9-1.1,1.4-1.6C258,133.8,258.4,133.6,258.7,133.3z"/>
	<path class="st0" d="M374.9,133.3c29.8,0,59.5,0,89.3,0c0.2,0.2,0.3,0.5,0.5,0.7c0.3,1,0.2,2.1,0.2,3.1c0,76.9,0,153.9,0,230.8
		c0,1.3,0.7,3.5-0.9,3.8c-1.3,0.2-1.5-2-2-3.2c-14.2-37.9-28.4-75.8-42.5-113.7c-9.5-25.4-19-50.8-28.5-76.2
		c-5.2-13.9-10.5-27.8-15.6-41.8c-0.3-0.9-0.8-1.8-0.7-2.8C374.6,133.8,374.7,133.5,374.9,133.3z"/>
	<path class="st0" d="M584.6,133.3c34.6,0,69.1,0,103.7,0c1,1.2,0.7,2.6,0.7,3.9c0,26,0,52,0,77.9c0,50.6,0,101.2,0,151.8
		c0,1.4,0.2,2.9-0.2,4.3c-0.7,1.4-1.4,0.5-2-0.1c-1.5-1.8-2.8-3.9-4.2-5.8c-13.8-19.4-27.6-39-41.4-58.4
		c-4.8-6.8-9.7-13.5-14.4-20.3c-0.9-1.3-2-2.7,0.2-4c4.5-2.5,8.8-5.2,12.7-8.5c9.9-8.3,16-19,19.7-31.2c2.5-8.3,3.5-16.8,4-25.5
		c0.7-10.7-0.2-21.2-3-31.6c-5.6-20.4-18.6-34.5-37.7-43c-10.2-4.6-21-7-32.2-7.9c-1.9-0.2-3.8-0.1-5.7-0.8
		C584.5,133.8,584.5,133.5,584.6,133.3z"/>
	<path d="M872.2,430.9c-0.4,0.4-0.4,1-0.4,1.6c-1.3,14.7-10.9,26.4-27.4,28.7c-2.5,0.4-4.9,0.5-7.4,0.5c-9.6,0-19.2,0-28.8,0
		c-0.6,0-1.1,0-1.7,0c-0.7,0-1-0.3-1-1c0-0.5,0-1,0-1.4c0-22.5,0-45.1,0-67.6c0-0.3,0-0.6,0-1c-0.1-1.1,0.2-1.6,1.4-1.6
		c11.2,0.1,22.4-0.2,33.6,0.2c8.4,0.3,16.1,3.1,22.3,9.2c5.4,5.5,8.3,12.2,9,19.9c0.4,0.6-0.1,1.4,0.4,2
		C872.2,423.8,872.2,427.4,872.2,430.9z"/>
	<path d="M450.7,463.5c-1.9-0.8-4-0.8-6-1.3c-17.9-4.1-29.3-18.5-29.1-36.8c0.1-18.1,11.7-33.1,29.3-36.9
		c14.2-3.1,27.3-0.5,38.6,9.6c-3.7,4.5-7.5,9-11.2,13.6c-1-0.8-2-1.5-2.9-2.3c-3.9-3-8.2-4.9-13.1-5.3c-7.8-0.7-13.9,2.2-18.3,8.6
		c-5,7.3-5.1,17.8-0.1,25.1c4.9,7.4,12.2,9.7,20.7,8.7c3-0.4,5.9-1.3,8.6-2.7c0.8-0.4,1.2-0.9,1.1-1.9c-0.1-2-0.1-4,0-6
		c0-1.1-0.4-1.3-1.4-1.3c-4.2,0-8.3,0-12.5,0c-1.8,0-1.9,0-1.9-1.8c0-4.2,0-8.3,0-12.5c0-1.1,0.3-1.5,1.5-1.5c10.1,0,20.1,0,30.2,0
		c1.3,0,1.6,0.5,1.6,1.7c0,9.8,0,19.7,0,29.5c0,1-0.3,1.6-1,2.2c-6.5,5.3-13.8,8.9-22.1,10.3c-1.2,0.2-2.4,0.4-3.6,0.6
		c-1.1,0.5-2.3-0.2-3.4,0.4C453.9,463.5,452.3,463.5,450.7,463.5z"/>
	<path class="st1" d="M29.9,372.7c-0.2,0-0.4,0.1-0.6,0.1c0-79.8,0-159.7,0-239.5c21.6,0,43.2,0,64.8,0c0,0.2,0,0.4-0.1,0.5
		c-1.3,1-2.8,0.7-4.2,0.7c-18.1,0-36.2,0-54.2,0c-0.6,0-1.3,0-1.9,0c-2.9,0-3.1,0.2-3.2,3.1c0,0.9,0,1.8,0,2.6
		c0,75.8,0,151.6,0,227.5C30.5,369.4,30.9,371.2,29.9,372.7z"/>
	<path class="st1" d="M688,371.8c0.5-1,0.3-2,0.3-3.1c0-77.3,0-154.6,0-231.9c0-1.2,0-2.4,0.1-3.6c20.8,0,41.6,0,62.4,0
		c0.1,0.2,0.1,0.3,0,0.5c-1.2,1-2.7,0.8-4.1,0.8c-17.6,0-35.2,0-52.8,0c-4.2,0-4.2,0-4.2,4.3c0,76,0,152,0,228
		c0,1.4,0.1,2.7-0.1,4.1c-0.1,0.7-0.3,1.5-1.2,1.6C687.9,372.5,687.8,372.2,688,371.8z"/>
	<path class="st1" d="M584.6,133.3c0,0.1,0,0.3,0,0.4c-1.3,1.2-2.9,0.8-4.3,0.8c-32.3,0-64.6,0-96.8,0c-5.1,0-10.2,0-15.3,0
		c-1,0-2.1,0.1-3.1-0.2c-0.3-0.1-0.6-0.3-0.8-0.5c0-0.2,0-0.4-0.1-0.5C504.3,133.3,544.5,133.3,584.6,133.3z"/>
	<path class="st1" d="M258.7,133.3c0,0.4,0.2,0.8-0.3,1c-1.1,0.2-2.2,0.3-3.3,0.3c-23.6,0-47.2,0-70.7,0c-1.5,0-3.1,0.4-4.3-0.8
		c0-0.1,0-0.3,0-0.4C206.2,133.3,232.5,133.3,258.7,133.3z"/>
	<path class="st1" d="M374.9,133.3c0,0.2,0,0.4,0,0.5c-0.6,0.5-1.3,0.6-2.1,0.6c-0.3,0-0.6,0-0.9,0.1c-19,0.1-38,0-57,0
		c-1.2,0-2.4,0.2-3.4-0.8c0-0.1,0-0.3,0-0.4C332.6,133.3,353.8,133.3,374.9,133.3z"/>
	<path class="st2" d="M455.5,463.5c1.1-0.6,2.2-0.5,3.4-0.4c0,0.1,0,0.3-0.1,0.4C457.8,463.5,456.6,463.5,455.5,463.5z"/>
	<path class="st3" d="M872.2,420.3c-0.5-0.6-0.6-1.3-0.4-2c0.1-0.1,0.3-0.1,0.4,0.1C872.2,419,872.2,419.7,872.2,420.3z"/>
	<path d="M311.5,133.7c0.9,0,1.8,0.1,2.6,0.1c18.6,0,37.2,0,55.7,0c0.9,0,1.8,0,2.6,0.1c0.6,0.6,0.7,1.3,1,2
		c4,11.2,8.4,22.3,12.6,33.4c4.2,11.3,8.3,22.6,12.6,33.9c7.6,20,14.9,40.1,22.5,60.2c7.4,19.6,14.6,39.2,22,58.8
		c5.2,13.7,10.3,27.4,15.4,41.1c0.9,2.5,1.8,5,2.6,7.5c0.4,1.3,0.2,1.9-1.4,1.9c-19,0-38.1,0-57.1,0c-1.3,0-1.9-0.5-2.3-1.6
		c-0.5-1.4-1.1-2.8-2-4.1c-0.8-1.2-0.5-2.7-1-4c-1.1-4-2.1-8-4.3-11.5c-0.3-0.8-0.2-1.7-0.6-2.4c-0.8-1.9-0.9-3.9-1.6-5.8
		c-0.8-2.2-1.2-4.5-3.5-5.8c-0.3-0.2-0.3-0.5-0.2-0.9c0.4-2.2,0-4.3-0.8-6.4c-0.7-1.7-1.6-2.1-3.1-1c-1,0.7-1.9,0.7-2.9,0.7
		c-25.2,0-50.4,0-75.6,0c-1.1,0-2-0.1-2.9-0.8c-1.2-0.9-2.1-0.6-2.7,0.9c-2.4,6.1-4.3,12.3-6.5,18.4c-1.2,3.3-2.2,6.6-3.7,9.8
		c-0.7,1.6-1.5,3.3-1.7,5c-0.3,3-2.3,5.4-3.1,8.3c-0.2,0.8-0.8,1.1-1.7,1.1c-0.5,0-1,0-1.4,0c-29.7,0-59.3,0-89,0
		c-3.1,0-3.3-0.2-2.7-3.3c0.5-2.7,1.2-5.3,1.4-8c0.2-2-0.1-3.8-0.7-5.8c-0.8-2.7-1.1-5.8,0.4-8.6c0.9-1.7,0.5-3.6,0-5.1
		c-0.9-2.6-0.8-5.3-1.6-7.9c-1.7-5.5-4.2-10.4-7.8-15c-2.3-3-5.2-5.2-7.9-7.5c-2.4-2.1-5.2-3.4-8.1-4.6c-3.1-1.3-3.4-1.8-2.6-5
		c0.6-2.4,1.1-4.8,1.5-7.3c0.2-1.4-0.1-2.5-0.7-3.8c-1-2.2-1-4.7,0.1-6.9c0.5-1.1,0.6-2,0.6-3.2c-0.1-4.9-1.4-9.5-2.7-14.1
		c-1-3.6-3-6.8-5.5-9.7c-1-1.1-2.6-0.6-3.7-1.4c-8.8-8.4-19.7-11.7-31.4-13c-7.4-0.8-14.8-1-22.3-0.8c-0.5,0-0.9,0.2-1.4-0.2
		c0.1-0.7,0.7-1.2,1.1-1.7C125,204.6,152,169.8,178.9,135c0.3-0.4,0.7-0.8,1.1-1.3c3.4,0,6.9,0,10.3,0c21.8,0,43.6,0,65.5,0
		c0.9,0,1.9-0.5,2.6,0.5c-14.5,18-28.9,36-43.4,54.1c-14.5,18.1-29,36.2-43.5,54.3c-1.7,2.1-1.7,2.1-0.2,4.1
		c20.8,29.4,41.5,58.7,62.3,88.1c0.4,0.6,0.8,1.3,1.5,1.8c0.7-0.5,0.7-1.3,1-1.9c24.8-66.4,49.7-132.8,74.5-199.2
		C310.8,134.9,310.9,134.2,311.5,133.7z"/>
	<path d="M398.9,366.6c1.5,1.2,1.8,3,2.3,4.6c0.3,0.8,0.7,1.2,1.5,1.2c0.3,0,0.6,0,1,0c18.6,0,37.1,0,55.7,0c0.5,0,0.9,0,1.4,0
		c0.5-0.7,0-1.2-0.2-1.6c-1.7-4.9-3.3-9.8-5.2-14.6c-1.8-4.4-3.3-8.9-5.1-13.3c-1.8-4.4-3.1-9-4.9-13.4c-2.2-5.5-4.3-11.1-6.4-16.7
		c-1.4-3.8-2.6-7.7-4.1-11.4c-1.3-3.1-2.3-6.3-3.6-9.3c-1.3-3.2-2.4-6.4-3.5-9.6c-0.6-1.6-1.2-3.1-1.8-4.7
		c-2.8-7.8-5.8-15.5-8.8-23.2c-1.9-4.8-3.5-9.7-5.4-14.5c-1.8-4.3-3.1-8.8-4.8-13.2c-1.3-3.1-2.3-6.2-3.6-9.3
		c-1.3-3.2-2.2-6.4-3.5-9.6c-1.3-3.1-2.4-6.2-3.6-9.4c-1.5-3.8-2.8-7.6-4.1-11.4c-1.1-3.1-2.4-6.2-3.6-9.3c-1.2-3.2-2.4-6.4-3.5-9.6
		c-0.6-1.6-1.2-3.1-1.8-4.7c-2.8-7.8-5.8-15.5-8.8-23.2c-0.6-1.5-1.5-2.9-1.4-4.5c-0.4-0.6-0.3-1.2,0-1.8c0.6,0,1.2,0,1.9,0
		c9.9,26.5,19.9,53.1,29.8,79.6c19.4,51.9,38.8,103.8,58.2,155.7c0.3,0.7,0.6,1.5,1.2,2.2c0-0.9,0.1-1.7,0.1-2.6
		c0-77.3,0-154.7,0-232c0-1,0-1.9,0.1-2.9c0.1,0,0.3,0,0.4,0c0.9,1,0.7,2.3,0.7,3.4c0,9.4,0,18.7,0,28.1c0,67.3,0,134.6,0,201.8
		c0,4.4,0,4.4,4.5,4.4c17.4,0,34.7,0,52.1,0c3.4,0,3.5-0.1,3.5-3.5c0-23,0-46.1,0-69.1c0-1.6-0.1-3.1-1.2-4.5
		c-0.9-1.1-0.8-2.4,0.2-3.5c1.1-1.1,2.4-1.1,3.5-0.2c1.3,1,2.7,1.2,4.3,1.2c6.8,0,13.6,0,20.4,0c1.3,0,2.5-0.1,3.7-0.8
		c2.3-1.5,3.4-1.2,5,1c5.4,7.3,10.5,14.7,15.8,22c12.3,17.3,24.5,34.6,36.8,51.9c4.7,6.7,3,5.5,10.8,5.6c18.3,0.1,36.6,0,55,0
		c0.6,0,1.3,0,1.9,0c1.9-0.1,2.1-0.4,1-1.9c-3-4.3-6.1-8.6-9.2-12.9c-16.3-22.9-32.5-45.8-48.7-68.7c-0.4-0.6-0.8-1.2-1.1-1.8
		c-0.5-1.1-0.6-2.2,0.3-3.1c0.9-0.9,2-0.9,3-0.1c-0.8,0.5-1.2,1-0.4,2c3.8,5.2,7.4,10.4,11.1,15.6c16.8,23.7,33.6,47.4,50.5,71.1
		c0.2,0.3,0.5,0.6,0.6,0.2c0.2-0.8,0.1-1.6,0.1-2.4c0-33.3,0-66.5,0-99.8c0-44.4,0-88.8,0-133.2c0-3.3-0.4-2.8,2.7-2.8
		c19.8,0,39.5,0,59.3,0c0.3,0.9,0.1,1.9,0.1,2.9c0,59.8,0,119.7,0,179.5c0,3,0,3,3.1,3c35,0,70.1,0,105.1,0c0.5,0,1,0,1.4,0
		c2.2,0,2-0.1,2,2.1c0,14.2,0,28.3,0,42.5c0,2.3,0,4.6,0,7c0,2.4,0.2,2.1-2.2,2.1c-0.5,0-1,0-1.4,0c-55.7,0-111.5,0-167.2,0
		c-24.8,0-49.6,0-74.4,0c-1.8,0-2.8-0.5-3.9-2c-17.8-25.3-35.8-50.5-53.6-75.8c-1.1-1.6-2.3-2.1-4.1-2.1c-8.9,0.1-17.8,0-26.6,0
		c-2.8,0-2.4-0.3-2.4,2.4c0,24.9,0,49.7,0,74.6c0,3.1,0.4,2.7-2.6,2.7c-40.7,0-81.4,0-122.1,0c-0.1,0-0.2,0-0.2,0
		c-2.4,0-2.4,0-3.1-2.2c-3.7-10.8-7.4-21.6-11.1-32.4c-0.2-0.4-0.4-0.9-0.3-1.4c0.1-0.1,0.3-0.1,0.4,0c2.2,0.7,3,2.4,3.7,4.5
		c0.8,2.5,1.3,5,2.1,7.5c0.6,0.7-0.1,1.7,0.5,2.4c1.1,0.8,1.4,2,1.8,3.2c1.1,2.7,2.1,5.4,2.5,8.3
		C398.7,363.9,397.4,365.6,398.9,366.6z"/>
	<path d="M29.9,372.7c0-29.8,0-59.6,0-89.5c0-48.9,0-97.7,0-146.6c0-3.3-0.4-2.9,3-2.9c19.4,0,38.9,0,58.3,0c1,0,1.9,0,2.9,0.1
		c0,0.8,0.1,1.6,0.1,2.4c0,34.2,0,68.5,0,102.7c0,0.3,0,0.6,0,1c0,1.8,0,1.7-1.8,1.9c-4.2,0.5-8.4,1-12.4,2.4
		c-2.4,0.9-4.7,2-6.1,4.4c-1.2,2.1-1.3,4.1,0.1,6c0.3,0.4,0.6,0.8,0.9,1.1c0.8,1.1,1.1,2.1,0.5,3.5c-2,5.2-2.9,10.8-4.2,16.2
		c-0.6,2.3-1.1,4.7-1.7,7c-0.3,0.9-0.1,1.3,0.8,1.6c1.3,0.4,2.5,1,3.8,1.6c3,1.3,4.8,3.6,5.8,6.7c0.5,1.7,1.4,2.3,3.2,2.4
		c7.7,0.5,15.5,1.2,23.2,1.8c5.1,0.4,10.1,1.5,15,3.1c2.3,0.8,4.3,2.1,6.1,3.7c0.4,0.3,0.8,0.7,0.5,1.2c-0.3,0.5-0.9,0.2-1.3,0.1
		c-0.2,0-0.3-0.1-0.5-0.1c-7.5-3.9-15.6-4.5-23.8-4.6c-6.9-0.1-13.9,0.3-20.9,0.4c-1,0-1.4,0.4-1.7,1.2c-0.6,1.3-1.2,2.6-2.1,3.8
		c-1.5,1.9-3.1,2.3-5.3,1.3c-1.7-0.8-3-2.1-4.1-3.6c-0.6-0.8-1.1-1.7-1.7-2.6c-0.5-0.8-0.9-1.7-1.4-2.5c-0.8,0-0.9,0.7-1.2,1.1
		c-1.9,2.6-3.8,5.2-5.7,7.7c-2.3,3-2,5.3,1.1,7.5c1.2,0.9,2.5,1.5,3.8,2c1.5,0.6,1.4,0.6,0.9,2.2c-0.6,1.8-1.2,3.6-1.7,5.5
		c-0.2,0.5-0.2,1.1-0.3,1.6c-0.2,1.6-0.1,3,1.6,3.8c1,0.5,1,1.2,0.1,2.1c-1.7,1.7-1.6,2.1-0.1,4c0.3,0.3,0.5,0.6,0.8,0.9
		c1,1.1,1.2,2.2,0.6,3.7c-1.8,4.5-0.7,8.7,2.9,11.9c0.8,0.7,1.7,1,2.8,1.2c3.7,0.6,7.3,0.3,11,0.2c2.9-0.1,5.8-0.2,8.6-0.3
		c0.8,0,1.6,0,2.4,0.3c0.9,0.3,1.4,0.8,1.5,1.9c0.1,5.4,0.2,10.9,0.3,16.3c0,1-0.4,1.3-1.3,1.2c-0.3,0-0.6,0-1,0
		c-20.2,0-40.3,0-60.5,0C31.2,372.8,30.5,372.7,29.9,372.7z"/>
	<path d="M211.9,435c6.1,8.7,12.3,17.3,18.6,26.2c0.6-1,0.3-1.9,0.3-2.7c0-22.2,0-44.5,0-66.7c0-2.7,0-2.7,2.6-2.7c4.5,0,9,0,13.4,0
		c2.8,0,2.8,0,2.8,2.7c0,13.2,0,26.4,0,39.6c0,4,0,8,0,12c0,1.9,0,2,1.9,2c9.7,0,19.4,0,29,0c0.6,0,1.1,0,1.7,0
		c0.9-0.1,1.3,0.3,1.3,1.2c0,4.6,0,9.3,0,13.9c0,0.8-0.2,1.2-1.1,1.2c-0.5,0-1,0-1.4,0c-23.5,0-47,0-70.5,0c-1.7,0-2.7-0.5-3.7-1.9
		c-4.7-6.8-9.6-13.4-14.2-20.2c-1.1-1.6-2.2-2.2-4.1-2c-1.6,0.1-3.2,0-4.8,0c-2.5,0-2.2-0.1-2.2,2.2c0,6,0,12,0,18
		c0,1.3,0.6,2.8-0.3,3.7c-0.9,0.8-2.4,0.3-3.7,0.3c-10.7,0-21.4,0-32.2,0c-2.5,0-2.5,0-3.3-2.3c-1.1-3.1-2.2-6.2-3.2-9.3
		c-0.4-1.2-0.9-1.4-2-1.4c-7.4,0-14.7,0.1-22.1,0c-1.3,0-1.8,0.4-2.2,1.6c-1,3.1-2.1,6.2-3.2,9.3c-0.8,2.2-0.8,2.2-3,2.2
		c-8.7,0-17.4,0-26.2,0c-1.4,0-2.3-0.5-3.1-1.6c-8.3-11.6-16.6-23.1-25-34.6c-0.4-0.6-0.9-1.2-1.8-2.3c0,1.3,0,2.1,0,2.9
		c0,11.2,0,22.4,0,33.6c0,2.2,0.2,2.1-2.1,2.1c-5,0-10.1,0-15.1,0c-2.8,0-2.5,0.3-2.5-2.4c0-19.5,0-39,0-58.6c0-3.4,0.1-6.7,0-10.1
		c0-1.3,0.5-1.6,1.7-1.6c5.4,0,10.9,0,16.3,0c1.6,0,1.6,0,1.7,1.8c0,9.6,0,19.2,0,28.8c0,0.8-0.1,1.6,0.2,2.5c0.7-0.4,1-1,1.4-1.6
		c7.7-9.9,15.4-19.8,23-29.8c0.9-1.2,1.8-1.7,3.4-1.7c6.6,0.1,13.1,0,19.7,0c0.6,0,1.2,0,1.9,0c-0.2,1-0.8,1.4-1.2,2
		c-8,10.1-16.1,20.1-24.1,30.2c-1.6,2-1.5,1.4-0.1,3.4c5.6,8,11.3,15.9,16.9,23.9c0.5,0.6,0.9,1.3,1.4,1.9c0.9-0.3,0.9-1.2,1.1-1.8
		c7.1-19,14.2-38,21.3-57c0.2-0.4,0.4-0.9,0.5-1.4c0.3-0.9,0.7-1.2,1.7-1.2c5.6,0,11.2,0.1,16.8,0c1.5,0,1.6,1,2,1.9
		c4,10.8,8.1,21.5,12.1,32.3c4.4,11.7,8.7,23.3,13.1,35c0.2,0.7,0.4,1.4,1.1,2.1c0.4-0.8,0.2-1.6,0.2-2.3c0-21.9,0-43.8,0-65.8
		c0-0.6,0.1-1.1,0-1.7c-0.2-1.3,0.4-1.6,1.6-1.6c11.7,0.1,23.4,0,35,0.1c4.6,0,9,1.1,13.1,3.3c6.3,3.3,9.7,8.7,10.7,15.6
		c0.7,4.9,0.4,9.7-1,14.5c-1.6,5.1-4.6,9.1-9.3,11.7C212.4,434.3,212.1,434.4,211.9,435z"/>
	<path d="M420.7,461.7c-6.3,0-12.4,0-18.5,0c-1,0-1.4-0.4-1.6-1.3c-1.1-3.3-2.2-6.5-3.3-9.7c-0.7-1.9-0.7-2-2.6-2
		c-7.1,0-14.2,0-21.4,0c-2,0-2,0-2.7,1.9c-1.1,3.2-2.3,6.3-3.3,9.5c-0.4,1.2-1,1.6-2.2,1.6c-5.5-0.1-11,0-16.6,0
		c-13.8,0-27.7,0-41.5,0c-0.5,0-1,0-1.4,0c-1.1,0.1-1.7-0.2-1.5-1.4c0.1-0.4,0-0.8,0-1.2c0-22.4,0-44.8,0-67.2
		c0-0.9-0.2-1.8,0.3-2.8c2.8,0,5.7,0,8.5,0c3,0,5.9,0,8.9,0c0.9,0,1.4,0.2,1.3,1.2c-0.1,0.6,0,1.1,0,1.7c0,16.8,0,33.6,0,50.4
		c0,0.4,0,0.8,0,1.2c0,1.9-0.1,1.8,1.8,1.8c8.9,0,17.8,0,26.6,0c1.5,0,2.1-0.5,2.6-1.8c6.4-17.3,12.9-34.6,19.3-51.8
		c1.2-3.2,0.3-2.6,3.8-2.7c4.8,0,9.6,0,14.4,0c2.1,0,2.1,0,2.8,2c6.7,18,13.5,36,20.2,54.1c1.9,5.1,3.8,10.2,5.7,15.3
		C420.5,460.7,420.6,461,420.7,461.7z"/>
	<path d="M621.1,461.6c-6.2,0-12.3,0-18.5,0.1c-1.1,0-1.5-0.7-2-1.4c-4.9-6.9-9.9-13.8-14.7-20.8c-1-1.5-2.1-2.2-3.9-2
		c-1.3,0.2-2.6,0-3.8,0c-1.7,0-1.7,0-1.7,1.7c0,6.6,0,13.1,0,19.7c0,2.7,0,2.7-2.6,2.7c-4.6,0-9.1,0-13.7,0c-2.6,0-2.6,0-2.6-2.5
		c0-8,0-16,0-24c0-14.4,0-28.8,0-43.2c0-0.5,0-1,0-1.4c-0.1-1.1,0.2-1.6,1.4-1.5c1.4,0.1,2.7,0,4.1,0c10.2,0,20.5,0,30.7,0.1
		c3.4,0,6.7,0.6,9.9,1.8c8.2,2.8,13,8.5,14.3,17c0.8,5.2,0.5,10.4-1.3,15.4c-1.1,3.1-2.6,6-5.3,8.1c-1.7,0.6-3.2,1.7-4.9,2.3
		c-1.8,0.6-2,2.1-0.8,4.1c1.7,2.8,3.7,5.4,5.6,8.1c3,4.2,6,8.5,9,12.7C621,459.4,622,460.3,621.1,461.6z"/>
	<path d="M492.1,425.4c0-11.2,0-22.4,0-33.6c0-0.5,0-1,0-1.4c-0.1-1.1,0.5-1.4,1.4-1.3c0.4,0,0.8,0,1.2,0c17.6,0,35.2,0,52.8,0
		c3,0,2.6-0.3,2.6,2.5c0,3.6,0,7.2,0,10.8c0,1.9,0,1.9-2,1.9c-11.4,0-22.7,0-34.1,0c-0.6,0-1.1,0-1.7,0c-0.9-0.1-1.3,0.3-1.2,1.2
		c0,3.4,0,6.9,0,10.3c0,0.8,0.3,1.2,1.1,1.1c0.6,0,1.1,0,1.7,0c10.2,0,20.5,0,30.7,0c2.3,0,2.1-0.1,2.1,2.1c0,3.6,0,7.2,0,10.8
		c0,1.8,0,1.8-1.9,1.8c-10.3,0-20.6,0-31,0c-2.7,0-2.7,0-2.7,2.8c0,2.7,0,5.4,0,8.2c0,2.7,0,2.7,2.6,2.7c11.4,0,22.9,0,34.3,0
		c3,0,3,0,3,3c0,3.9-0.1,7.8,0,11.8c0,1.3-0.5,1.6-1.6,1.6c-18.6,0-37.1,0-55.7,0c-1.7,0-1.7,0-1.7-1.9
		C492.1,448.3,492.1,436.8,492.1,425.4z"/>
	<path d="M682,425.3c0-11.2,0-22.4,0-33.6c0-0.6,0-1.1,0-1.7c0-0.7,0.3-1,1-1c0.5,0,1,0,1.4,0c17.7,0,35.3,0,53,0c0.4,0,0.8,0,1.2,0
		c1.1-0.1,1.3,0.5,1.3,1.4c0,3.9,0,7.8,0,11.8c0,2,0,2.1-2.1,2.1c-11.4,0-22.7,0-34.1,0c-3.3,0-2.8-0.3-2.9,2.8c0,2.6,0,5.3,0,7.9
		c0,1.9,0,1.9,2,1.9c10.2,0,20.5,0,30.7,0c3.5,0,3-0.5,3,3c0,3.3,0,6.6,0,9.8c0,1.8,0,1.8-1.9,1.8c-10.3,0-20.6,0-31,0
		c-3.3,0-2.8-0.3-2.9,2.8c0,3,0,5.9,0,8.9c0,2,0,2,2.1,2c11.8,0,23.5,0,35.3,0c3,0,2.7-0.4,2.7,2.7c0,3.8,0,7.5,0,11.3
		c0,2.6,0.4,2.4-2.5,2.4c-7.2,0-14.4,0-21.6,0c-10.8,0-21.6,0-32.4,0c-0.6,0-1.1,0-1.7,0c-0.6,0-0.9-0.3-0.9-0.9c0-0.6,0-1.1,0-1.7
		C682,447.8,682,436.6,682,425.3z"/>
	<path d="M621.1,461.6c0.2-1-0.5-1.7-1-2.4c-4.9-6.9-9.7-13.8-14.6-20.6c-0.6-0.8-0.9-1.7-1.1-2.6c-0.3-1,0-2,1-2.5
		c1.5-0.8,3.2-1.1,4.7-2.1c0.3-0.2,0.9,0,1.4,0c-1.5,1.9-3.9,2.7-6,4.1c6,8.5,12,17,18.2,25.6c0.6-0.9,0.3-1.7,0.3-2.4
		c0-22.3,0-44.6,0-67c0-3-0.4-2.6,2.7-2.6c16.1,0,32.2,0,48.2,0c0.5,0,1,0,1.4,0c0.9-0.1,1.3,0.2,1.3,1.2c0,4.2,0,8.5,0,12.7
		c0,0.9-0.2,1.4-1.2,1.3c-0.6,0-1.1,0-1.7,0c-9.9,0-19.8,0-29.8,0c-2,0-1.9-0.2-1.9,2c0,3.7,0,7.4,0,11c0,1.7,0,1.7,1.7,1.7
		c8.4,0,16.8,0,25.2,0c0.6,0,1.1,0,1.7,0c0.9-0.1,1.3,0.3,1.3,1.2c0,4.1,0,8.2,0,12.2c0,1.1-0.5,1.3-1.5,1.3c-3.8,0-7.5,0-11.3,0
		c-5,0-10.1,0-15.1,0c-2.2,0-2-0.2-2,2.1c0,7.9,0,15.8,0,23.8c0,2,0.3,2.1-2.1,2.1C634.4,461.6,627.8,461.6,621.1,461.6z"/>
	<path d="M747.5,425.4c0-11.1,0-22.2,0-33.4c0-0.6,0-1.1,0-1.7c-0.1-0.9,0.3-1.3,1.2-1.3c2.1,0,4.2,0,6.2,0c3.3,0,6.6,0,9.8,0
		c1.7,0,1.7,0,1.7,1.7c0,6.5,0,13,0,19.4c0,10.8,0,21.6,0,32.4c0,2.7,0,2.7,2.8,2.7c9.7,0,19.4,0,29,0c2,0,2,0,2,1.9
		c0,4.2,0,8.5,0,12.7c0,1.6,0,1.7-1.8,1.7c-16.4,0-32.8,0-49.2,0c-1.9,0-1.9,0-1.9-2C747.5,448.2,747.5,436.8,747.5,425.4z"/>
	<path d="M387.4,336.8c-0.1,0-0.3,0-0.4,0c-0.9-1.6-1.4-3.4-1.9-5.1c-0.4-1.4-1.2-2-2.6-1.8c-0.4,0.1-0.8,0-1.2,0
		c-25.7,0-51.3,0-77,0c-0.4,0-0.8,0-1.2,0c-2,0-2,0-2.7,1.9c-1.1,3.1-2.2,6.2-3.3,9.3c-3.5,9.9-7,19.9-10.5,29.8
		c-0.8,2.2-0.2,2-2.6,2c-31.9,0-63.8,0-95.7,0c-0.5,0-0.9,0-1.5,0c0.1-1.8,0.7-3.3,1.1-4.9c2.5-11.3,2.9-22.5-0.7-33.6
		c-4.2-13.1-12.7-22.1-25.4-27.2c-0.9-0.4-1.9-0.5-2.7-1.2c1.5-3.4,2.7-7,3.2-10.7c1.2-7.9,0.4-15.6-1.2-23.3
		c-1.3-6.5-4.7-11.8-9-16.6c0.7,0,1.4,0,2.2,0c1.2-0.1,1.9,0.6,2.7,1.5c1.8,1.9,2.3,4.7,4.2,6.5c0.3,0.3,0.5,0.7,0.5,1.1
		c0.4,2.3,1.4,4.5,1.6,6.9c0.1,1.6,1,3.1,1.2,4.8c0.1,0.7,0.2,1.4,0.1,2.1c-0.1,1,0,1.8,0.3,2.8c0.4,1.2,0.7,2.6-1,3.2
		c-0.5,0.2-0.7,0.6-0.7,1.1c0,1.3,0,2.6,0,3.8c0,0.5,0.1,1,0.6,1.2c1.5,0.4,1.4,1.7,1.2,2.7c-0.6,3.8-1.1,7.7-2.5,11.4
		c1.4,0.7,2.5,2,4.2,1.9c2.7,2.2,6.5,2.9,8.5,6c0.1,0.2,0.3,0.4,0.5,0.5c2.6,1,4.4,2.7,5.3,5.4c2.1,1.1,3.1,3.1,4.1,5.1
		c1.8,3.5,3.9,6.8,4.5,10.9c0.3,1.7,1.1,3.3,0.7,5.1c-0.1,0.4,0.2,0.6,0.4,0.8c0.8,0.6,0.6,1.4,0.7,2.2c0,0.7-0.1,1.5,0.2,2.1
		c0.6,1.6,0.3,2.7-1.1,3.8c-0.9,0.7-0.9,6.9,0,7.5c1.5,1.1,1.3,2.4,1.2,4c-0.4,4-1.2,7.8-2,11.7c-0.2,0.7,0.2,1.1,0.8,1.1
		c0.6,0,1.1,0,1.7,0c29.6,0,59.2,0,88.8,0c2.3,0,2.2,0,2.9-2.1c0.4-1.3,0.7-2.5,1.8-3.6c0.6-0.5,0.6-1.8,0.7-2.7
		c0.4-2.4,1.2-4.7,2.4-7c0.8-1.5,1-3.3,1.5-5c0.3-1,0.4-2.2,1.5-2.9c0.5-0.3,0.3-0.9,0.4-1.3c0.5-2.4,0.7-5,2.6-7
		c0.6-0.7,0.6-2.1,0.8-3.2c0.3-1.8,0.8-3.5,1.6-5c0.7-1.3,1.4-2.3,1.4-3.8c0-0.6,0.5-1,1.1-1c1,0,2.3-0.5,2.8,0.7
		c0.6,1.4,1.5,1.2,2.5,1.2c25,0,50.1,0,75.1,0c1,0,1.9,0.1,2.6-1.1c0.8-1.6,3.4-1,4.1,0.7c0.7,1.6,0.9,3.4,1.3,5.1
		C388.5,335.2,388.2,336.1,387.4,336.8z"/>
	<path d="M168.6,347.8c-2.5-4.3-5.9-7.7-8.4-11.8c-1.7-2.8-2.6-5.8-2.4-9.1c0.2-2.6,0.6-5.2,0.9-7.8c0.1-1.1,0.6-1.5,1.7-1.4
		c1.5,0.1,3,0.1,4.5,0.3c2.9,0.2,4.6,2,5.4,4.6c0.6,2.1,0.7,4.3,0.8,6.4c0.3,4.9,0.6,9.7-0.7,14.5
		C170,344.9,169.5,346.3,168.6,347.8z"/>
	<path d="M626.8,283c-1,0.2-2.3-0.5-3,0.9c-0.7,1.4,0.3,2.3,1,3.2c5.8,8.2,11.7,16.5,17.6,24.7c3.7,5.2,7.3,10.4,11,15.6
		c6.1,8.6,12.2,17.1,18.3,25.7c4.4,6.2,8.7,12.4,13,18.5c0,0.1,0,0.1,0,0.2c-0.4,0.7-1.1,0.4-1.7,0.4c-21.4,0-42.7,0-64.1,0
		c-1.1,0-1.7-0.3-2.4-1.3c-3.3-4.5-6.3-9.1-9.7-13.6c-3-4-5.7-8.2-8.6-12.3c-3.3-4.7-6.7-9.3-10-14c-2.9-4.1-5.8-8.2-8.6-12.3
		c-3.3-4.8-6.7-9.5-10.1-14.2c-1.9-2.5-3.7-5.1-5.4-7.8c-1.1-1.8-2.7-3.3-3.7-5.2c-0.7-1.4-2.4-1.5-3.4-0.2c-0.8,1-1.7,1.2-2.9,1.2
		c-7.8,0-15.5,0-23.3,0c-1.1,0-2.1,0-2.9-1.2c-0.7-1.1-2.2-1-3.1-0.1c-0.8,0.9-0.9,2.3,0.2,2.9c1.2,0.8,1.2,1.7,1.2,2.9
		c0,24.2,0,48.5,0,72.7c0,0.4,0,0.8,0,1.2c0,0.8-0.4,1.2-1.2,1.2c-0.6,0-1.3,0-1.9,0c-18.3,0-36.6,0-54.9,0c-3.7,0-3.4,0.3-3.4-3.3
		c0-78.4,0-156.8,0-235.1c0.9,0,1.7-0.1,2.6-0.1c37.3,0,74.6,0,111.9,0c1.8,0,3.7,0,5.5-0.1c13.4,0.7,26.5,3.1,38.8,8.7
		c21.5,9.8,34.5,26.3,39,49.5c2.1,10.8,2.1,21.6,1,32.5c-0.9,8.7-2.7,17.2-5.9,25.3c-5.6,14.1-15,24.9-28.4,32.3
		C628.4,282.4,627.7,282.9,626.8,283z"/>
	<path class="st0" d="M824.5,425.1c0-6,0-12,0-18c0-1.9-0.1-1.8,1.8-1.8c4,0.1,8-0.3,12,0.3c9.1,1.5,13.8,6.3,15,15.5
		c0.5,4.3,0.3,8.6-0.8,12.8c-1.4,5.4-4.9,8.8-10.2,10.3c-2.5,0.7-5.2,1.1-7.8,1.1c-2.8,0-5.6-0.1-8.4,0c-1.3,0-1.6-0.4-1.6-1.6
		C824.5,437.6,824.5,431.3,824.5,425.1z"/>
	<path d="M373,133.8c0,0.6,0,1.2,0,1.8c-0.7-0.5-0.4-1.2-0.5-1.8C372.6,133.8,372.8,133.8,373,133.8z"/>
	<path class="st0" d="M343.2,200c8.8,27.8,17.5,55.5,26.4,83.4c-18,0-35.9,0-54.1,0c9-27.9,18-55.7,27.1-83.5
		C342.8,200,343,200,343.2,200z"/>
	<path d="M398.9,366.6c-0.6-0.1-1-0.4-1-1.1c0-0.9,0-1.8,0-2.8c0.6,0.4,0.5,1.1,0.5,1.7C398.4,365.2,398.5,365.9,398.9,366.6z"/>
	<path d="M393.6,351.2c-0.8-0.7-0.4-1.6-0.5-2.4C393.9,349.5,393.5,350.4,393.6,351.2z"/>
	<path class="st0" d="M181.5,413.6c0-2.7,0-5.4,0-8.1c0-0.9,0.3-1.3,1.3-1.3c4.3,0.1,8.6-0.2,12.9,0.1c7.2,0.5,10.9,7,8.1,13.7
		c-1.3,3.1-3.9,4.5-7,4.7c-4.7,0.3-9.4,0.1-14.1,0.2c-1,0-1.1-0.5-1.1-1.3C181.5,418.9,181.5,416.2,181.5,413.6z"/>
	<path class="st0" d="M134,434.6c-0.5,0.1-0.8,0.1-1.1,0.1c-5,0-10.1,0-15.4,0c2.8-8.5,5.5-16.9,8.2-25.2c0.1,0,0.3,0,0.4,0.1
		C128.7,417.8,131.3,426.1,134,434.6z"/>
	<path class="st0" d="M384.3,409.6c2.6,8.3,5.2,16.6,7.9,25c-5.5,0-10.8,0-16.4,0c2.5-8.4,5.4-16.7,8-25
		C383.9,409.6,384.1,409.6,384.3,409.6z"/>
	<path class="st0" d="M576.5,413.5c0-2.6,0-5.3,0-7.9c0-1,0.3-1.4,1.4-1.4c4.1,0,8.3,0,12.4,0.1c1.4,0,2.7,0.3,4,0.8
		c2.4,1,4,2.8,4.8,5.3c0.5,1.7,0.6,3.5,0.4,5.2c-0.5,4.1-3.2,6.7-7.5,7.1c-4.8,0.4-9.6,0.1-14.4,0.2c-0.9,0-1-0.5-1-1.2
		C576.5,418.9,576.5,416.2,576.5,413.5z"/>
	<path class="st0" d="M526.5,213.9c0-9.5,0-19,0-28.5c0-1.9-0.1-1.9,1.8-1.9c13.9,0,27.8,0,41.7,0.1c4.7,0,9.4,0.8,13.8,2.5
		c8.7,3.3,14.3,9.4,16.7,18.4c1.7,6.5,1.8,13.1,0.3,19.7c-2.4,10.3-9.1,16.3-19.1,19c-4.1,1.1-8.3,1.6-12.6,1.6c-13.5,0-27,0-40.5,0
		c-0.2,0-0.3,0-0.5,0c-1.2,0.1-1.9-0.2-1.6-1.5c0.1-0.5,0-1,0-1.4C526.5,232.5,526.5,223.2,526.5,213.9z"/>
</g>
</svg>
