<?xml version="1.0" encoding="utf-8"?>
<!-- Generator: Adobe Illustrator 21.1.0, SVG Export Plug-In . SVG Version: 6.00 Build 0)  -->
<svg version="1.1" id="Layer_1" xmlns="http://www.w3.org/2000/svg" xmlns:xlink="http://www.w3.org/1999/xlink" x="0px" y="0px"
	 viewBox="0 0 700 965" style="enable-background:new 0 0 700 965;" xml:space="preserve">
<style type="text/css">
	.st0{fill:#FDFDFD;}
	.st1{fill:#1D1D1D;}
	.st2{fill:#1A1A1A;}
	.st3{fill:#1E1E1E;}
	.st4{fill:#232323;}
	.st5{fill:#5F5F5F;}
	.st6{fill:#5E5E5E;}
	.st7{fill:#5D5D5D;}
	.st8{fill:#686868;}
	.st9{fill:#2C2C2C;}
	.st10{fill:#5B5B5B;}
	.st11{fill:#3F3F3F;}
	.st12{fill:#FAFAFA;}
	.st13{fill:#EDEDED;}
	.st14{fill:#5C5C5C;}
	.st15{fill:#F9F9F9;}
	.st16{fill:#1F1F1F;}
	.st17{fill:#747474;}
	.st18{fill:#383838;}
	.st19{fill:#585858;}
	.st20{fill:#F0F0F0;}
	.st21{fill:#EFEFEF;}
	.st22{fill:#FCFCFC;}
	.st23{fill:#FBFBFB;}
</style>
<g>
	<path class="st0" d="M700.7,483.1c0,115.5,0,230.9,0.1,346.4c0,2.7-0.6,3.4-3.3,3.3c-231.1-0.1-462.3-0.1-693.4,0
		c-2.7,0-3.4-0.6-3.3-3.3c0.1-231.1,0.1-462.3,0-693.4c0-2.7,0.6-3.4,3.3-3.3c231.1,0.1,462.3,0.1,693.4,0c2.7,0,3.4,0.6,3.3,3.3
		C700.7,251.7,700.7,367.4,700.7,483.1z"/>
	<path class="st1" d="M599.5,610.9c0-17.5,0-34.5,0-52c3.6,1.5,7,2.9,10.2,4.4c9.9,4.4,19.7,8.9,29.6,13.2c1.8,0.8,2.5,1.7,2.5,3.8
		c-0.1,39.1-0.1,78.3,0,117.4c0,2.9-0.9,2.6-2.9,1.7c-38.5-16.9-77.7-31.9-117.7-44.8c-5.8-1.9-11.5-3.9-17.4-5.4
		c-2.5-0.7-2.9-1.8-2.9-4c0.1-21.4,0-42.8,0-64.2c0-2.4,0.4-3.3,3-2.4c3.9,1.3,7.9,2.2,12.1,3.4c0-3,0-5.7,0-8.4
		c0-80.1,0-160.2,0.1-240.2c0-3-0.6-4.9-3.8-5.2c-0.6-0.1-1.2-0.3-1.7-0.5c-3.4-1.1-8.3-0.6-10-3.3c-1.6-2.7-0.5-7.1-0.5-10.7
		c0-18.8,0-37.7-0.1-56.5c0-2.8,0.3-3.8,3.5-2.9c46.4,13.7,91.8,30.2,136.1,49.4c1.3,0.6,2.2,1.1,2.2,2.8
		c-0.1,37.5,0,75.1-0.1,112.6c0,0.2-0.2,0.4-0.4,0.9c-6.6-2.9-13.3-5.8-19.9-8.8c-6.6-2.9-13.1-5.9-19.7-8.6
		c-2.1-0.9-2.9-1.9-2.9-4.3c0.1-12.3,0-24.5,0.1-36.8c0-2.3-0.7-3.4-2.9-4.2c-11.2-4.1-22.3-8.3-33.4-12.6c-2.8-1.1-3.1-0.3-3.1,2.3
		c0.1,27.3,0.1,54.7,0,82c0,2.6,0.9,3.5,3.2,4.3c8.8,3.2,17.5,6.6,26.3,9.8c1.9,0.7,2.5,1.6,2.5,3.7c-0.1,22.5,0,45,0,67.4
		c0,0.2-0.2,0.4-0.4,0.9c-7.7-2.9-15.3-5.9-23-8.8c-2.7-1-5.8-3.5-8-2.2c-1.3,0.8-0.4,5.2-0.4,7.9c0,26.6,0,53.2-0.1,79.8
		c0,2.7,0.6,4,3.3,5C575,601.5,587,606.2,599.5,610.9z"/>
	<path class="st1" d="M251.5,280.1c0-10.6,0.1-21.1-0.1-31.7c0-2.7,0.4-3.9,3.5-4.4c19.5-2.8,39-4.9,58.6-7c2.6-0.3,3.2,0.4,3.2,3
		c-0.1,21.4-0.1,42.8,0,64.2c0,2.7-0.5,4-3.5,3.8c-2.2-0.1-3.7,0.1-3.2,3.4c4.9,34.1,9.7,68.3,14.5,102.4
		c6.6,46.6,13.1,93.3,19.6,140c0.3,2.3,1.1,2.7,3.2,2.7c5-0.1,5,0,5,5.1c0,20.4,0,40.8,0.1,61.2c0,2.7-0.6,3.5-3.4,3.6
		c-17.4,0.2-34.7,0.8-52,2.4c-2.4,0.2-2.8-0.5-2.8-2.7c0.1-21.3,0.1-42.5,0-63.8c0-3.1,1.5-3.2,3.7-3.4c5.4-0.5,5.5-0.6,4.8-5.9
		c-0.5-3.7-1.1-7.5-1.5-11.2c-0.2-1.9-0.8-2.5-2.7-2.2c-7.8,0.9-15.7,1.7-23.6,2.5c-1.5,0.2-2.4,0.7-2.6,2.3
		c-0.7,5.3-1.5,10.6-2.3,15.9c-0.3,1.7,0.4,1.7,1.8,1.6c2.5-0.1,5.6-2.2,7.1-0.3c1.3,1.6,0.4,4.9,0.4,7.4c0,19.2-0.1,38.4,0.1,57.6
		c0,2.9-0.5,4.1-3.8,4.6c-17.2,2.5-34.3,5.2-51.3,9.1c-2.6,0.6-3-0.2-3-2.6c0.1-20.9,0.1-41.8,0-62.7c0-2.6,1-3.6,3.2-3.7
		c4.1-0.1,4.9-2.4,5.3-6c5.4-44.2,11-88.4,16.4-132.7c4.5-35.9,8.9-71.8,13.3-107.7c0.1-1,0.2-1.9,0.4-2.9c1-6.8,1-6.9-5.7-6
		c-2.2,0.3-2.7-0.2-2.7-2.3c0.1-11.2,0-22.4,0-33.5C251.7,280.1,251.6,280.1,251.5,280.1z"/>
	<path class="st1" d="M129.1,345.5c-3.6,1.5-7.2,3-10.8,4.4c-1.7,0.6-2.5,1.3-2.5,3.3c0.1,22.6,0,45.2,0,67.8c0,0.2,0.2,0.4,0.5,0.8
		c9.9-27.1,19.7-54.1,29.7-81.6c-2.7,0.8-5,1.3-7.1,2.2c-2.5,1.1-3,0.3-3-2.2c0.1-20.9,0-41.8,0-62.7c0-6.2,0-6.2,5.8-8.1
		c20.2-6.6,40.7-12.1,61.2-17.7c2.5-0.7,3-0.1,3,2.5c-0.1,22-0.1,44,0,66c0,2.1-0.6,3.3-2.7,3.4c-7.1,0.1-9.7,4.4-12,10.6
		c-13.4,37.4-27.2,74.5-41,111.8c-0.8,2.1-0.8,3.8-0.1,5.9c14,39.8,27.9,79.7,41.7,119.6c1.2,3.4,2.5,4.3,5.9,3.1
		c2.5-0.9,6-2.4,7.5-1.3c1.8,1.2,0.5,5,0.5,7.6c0.1,19.4,0,38.9,0,58.3c0,1.5,0.5,3.1-1.8,3.7c-22.3,5.9-44.3,12.8-66.2,20.1
		c-1.6,0.8-1.8-0.2-1.8-1.5c-0.1-1.2,0.4-1.9,1.7-1.4c1.3,0.5,2-0.3,2.8-1.1c6.5-3.4,13.7-4.9,20.6-7.3c12.4-4.2,25.1-7.6,37.7-11.1
		c2.7-0.7,3.7-2.1,3.7-4.9c-0.1-18.3,0-36.7-0.1-55c0-3.4-0.6-3.8-4-3c-7.6,1.6-7.4,1.5-9.9-6c-6.9-20.2-14-40.4-21-60.6
		c-4.8-13.9-9.9-27.6-14.4-41.6c-1.9-5.9-4.6-11.5-6.4-17.4c-0.6-2.1-0.8-4,0-6c5.4-14.8,10.6-29.7,16.2-44.5c3.4-9,6.4-18.1,9.8-27
		c5.1-13.6,9.9-27.4,15.3-40.9c0.4-1,1-2,1.2-3.1c1.1-5.8,3.9-9.5,10.3-9.7c2.5-0.1,2.9-2.2,2.9-4.3c0-7.7,0-15.3,0-23
		c0-11.1,0-22.1,0-33.2c0-4.4-0.7-4.9-5-3.7c-17.3,4.5-34.3,9.8-51.4,14.8c-7.1,2.1-7.1,2.1-7.1,9.5c0,17.6,0,35.2,0,52.8
		c0,4.7,0,4.6,4.4,3.5c2-0.5,4.5-2.1,6.2-0.2c1.8,2-0.2,4.3-0.9,6.4c-5.5,15.2-11.1,30.3-16.6,45.5c-2.5,7.1-5.1,14.1-7.8,21.2
		c-2.5,6.6-4.9,13.2-7.1,19.9c-0.3,0.9-0.6,1.9-1,2.7c-0.4,0.9-1.1,1.7-2.2,1.5c-1.2-0.2-1.3-1.3-1.3-2.3c0.4-5.1,0.2-10.2,0.2-15.3
		c-0.1-21.3,0.1-42.5-0.1-63.8c0-3.2,1.4-5,4.1-6.1c3.6-1.5,7.4-2.3,10.8-4.3c0.9-1.3,0.5-2.8,0.5-4.3c0-19.9,0-39.8,0-59.7
		c0.4-1.5-0.8-0.9-1.4-1c-1-0.4-2.5-0.3-2.1-2.1c1.2-0.4,2.4-0.8,3.6-1.2c0.9-0.4,1.7-0.3,1.9,0.8c0.1,0.7,0.1,1.5,0.1,2.2
		c0,21.6,0,43.2,0,64.8C130.1,343.2,130.7,344.7,129.1,345.5z"/>
	<path class="st2" d="M383.2,353.8c-9.8-0.3-19.6-0.6-29.5-0.8c-2.6-0.1-2.1-1.7-2.1-3.2c0-17.5,0-35,0-52.5
		c0-19.1,0.1-38.1-0.1-57.2c0-2.7,0.5-3.5,3.3-3.4c44.6,2.4,88.8,7.7,132.6,15.8c2.9,0.5,3.9,1.3,3.9,4.5
		c-0.1,36.6-0.1,73.1,0,109.7c0,3.3-1,3.5-3.7,2.9c-9.7-2.2-19.4-4.4-29.2-6.2c-3.1-0.6-3.5-1.8-3.5-4.5c0.1-13.4,0-26.7,0.1-40.1
		c0-2.4-0.5-3.6-3.1-3.6c-2.9,0-5.7-1.2-8.6-0.8c-0.8,1.1-0.4,2.4-0.4,3.5c0,81.2,0,162.5,0,243.7c0,1.2-0.3,2.4,0.3,3.6
		c3.9,2,8.3,1.5,12.4,2.7c1.7,0.5,2.6,0.9,2.5,2.6c-0.1,21.3-0.1,42.7-0.2,64c-2.5-0.5-1.8-2.6-1.8-4c-0.1-9.3,0-18.6-0.1-27.9
		c-0.1-10,0.2-20.1-0.1-30.1c-3.2-3-7.4-2.7-11.2-3.5c-1.6-0.3-3.3-0.2-3.4-2.4c-0.6-2-0.5-4.1-0.5-6.2c0-80.7,0-161.3,0-242
		c0-2.1,0.2-4.1,0-6.2c0.8-2.3,2.6-1.8,4.3-1.6c3,0.3,6,0.9,9,1.6c3.8,0.9,4.6,1.9,4.4,5.9c-0.5,11.8-0.1,23.6-0.2,35.3
		c0,1.1,0,2.2,0.1,3.3c0.1,1.8,0.9,2.9,2.6,3.5c7.7,2.4,15.7,3.1,23.5,4.9c2.1,0.5,2.9-0.6,2.9-2.6c0-0.8,0-1.7,0-2.6
		c0-32.7,0-65.4,0-98c0-5.9-0.1-5.9-5.9-7c-22.2-4-44.6-7.5-67-9.9c-12.9-1.4-25.8-3.2-38.8-3.4c-7-0.1-14-1.5-21-1.2
		c-1.3,1.2-0.7,2.8-0.7,4.2c0,33.3,0,66.5,0,99.8c0,5.9,0.8,6.5,6.5,6c0.6-0.1,1.2-0.3,1.8-0.4c6.3-0.1,12.6,0.7,18.8,0.4
		c1.2-0.1,2.4,0.2,3.6-0.2c1.2-1.1,0.7-2.5,0.7-3.8c0-11.4,0-22.8,0-34.2c0-1.2-0.1-2.4,0.1-3.6c0.2-1,0.3-2.6,1.7-2.3
		c1.4,0.3,0.3,1.6,0.3,2.4c0,13.8,0,27.7,0,41.5C387.5,354.3,387.5,354.3,383.2,353.8z"/>
	<path class="st3" d="M124.6,275.4c0.3,1.2,1.8,0.8,2.3,1.7c-2.3,2.5-5.6,3.4-8.6,4.5c-16.3,6.1-32.2,13-48.2,19.9
		c-11.9,5.1-9.8,2.9-9.9,15.3c-0.1,16.3,0,32.6,0,48.8c0,4.1,0.1,4.1,3.8,2.7c2.4-0.9,4.7-2.1,7.1-2.9c3.1-1,4-0.4,4.4,2.7
		c0.1,1.3,0.1,2.7,0.1,4c0,81.3,0,162.6,0.1,243.9c0,5.5-1.4,9.2-6.9,10.7c-0.2,0.1-0.4,0.2-0.7,0.3c-9.5,4.5-8.8,2.7-8.5,14.2
		c0.2,6.3,0.7,12.6,0.7,18.9c-0.1,4.9-0.9,9.7-0.8,14.5c0.1,5.2,1.1,10.4,0.3,15.6c-0.5,2.9,0.6,3.4,3.4,2.1c8.1-3.5,16-7.7,24-11.4
		c13.2-6.1,26.6-12,40-17.6c0.6-0.2,1.1-0.2,1.6,0.1c0.8,0.6,0.6,1.5,0.7,2.3c-11.8,5.3-23.7,10.5-35.5,15.9
		c-11.7,5.4-23.3,11-34.8,16.7c-2.3,1.1-2.7,0.8-2.7-1.7c0-21.8,0-43.5-0.2-65.3c0-2.1,0.8-3,2.5-3.8c3.9-1.8,7.6-3.8,11.5-5.6
		c1.5-0.7,2-1.5,1.9-3.1c-0.1-1.2,0-2.4,0-3.6c0-81.1,0-162.1,0-243.2c0-3.8,0-3.8-3.6-2.2c-3.7,1.7-7.4,3.4-11.6,5.3
		c0-2.1,0-3.6,0-5.1c0-21.1,0-42.3-0.1-63.4c0-2.4,0.7-3.5,3-4.6C81.1,292.8,102.7,283.7,124.6,275.4z"/>
	<path class="st4" d="M456.4,571.7c0-0.1,0-0.3,0.1-0.3c0.1-0.1,0.3-0.2,0.4-0.4c0.1,1,0.2,2.1,0.2,3.1c0,18.7,0,37.5,0,56.2
		c0,1.4-0.6,2.9,0.8,4.1c1.1,3.4-0.2,3.9-3.3,3.3c-21.8-3.9-43.6-7-65.6-9.1c-2.9-0.3-3.8-1-3.8-4.1c0.1-20.9,0.2-41.8,0-62.7
		c0-3.2,0.9-3.8,3.9-3.4c3.2,0.4,7.4,2.3,9.5,0.4c2.2-2,0.7-6.4,0.7-9.8c0-78.6,0-157.2,0.1-235.8c0-3.5-0.6-5-4.5-5.2
		c-7.1-0.5-7.1-0.8-7.1,6.3c0,11.9,0,23.8,0,35.7c0,4.6,0,4.6-4.6,3.7c3.1,0.3,4.1-0.8,4.1-4.1c-0.2-14.3-0.1-28.6-0.1-43.2
		c-1.1,1.3-0.7,2.6-0.7,3.8c0,13.5,0,27,0,40.5c0,0.2-0.1,0.5-0.2,0.6c-0.1,0.1-0.4,0-0.6,0c-1.2-1.3-1.1-2.9-1.1-4.5
		c0-12.2-0.1-24.3,0-36.5c0-5.2,1.4-6.5,6.5-6.3c2.4,0.1,4.8,0.4,7.2,0.7c3.3,0.4,4.7,2.2,4.6,5.4c0,1.3,0,2.7,0,4
		c0,79.8,0,159.7,0,239.5c0,8.8-0.2,9-8.9,8.9c-4.9-0.1-4.9-0.1-4.9,4.7c0,17.4,0,34.7,0,52.1c0,5.2,0.1,5.2,5.1,5.8
		c18.4,2.5,36.9,4.3,55.2,7.9c1.1,0.2,2.2,0.4,3.3,0.4c1.4,0,2.3-0.6,2.5-2.1c0.2-1.3,0.2-2.7,0.2-4c0-16.6,0-33.3,0-49.9
		C455.3,575.6,454.9,573.5,456.4,571.7z"/>
	<path class="st3" d="M129.4,665.9c-1-0.4-0.5-1-0.3-1.6c-1.2-1.7-1-3.7-1-5.6c0-18.3,0-36.5-0.1-54.8c0-1.2,1.3-3.3-1.5-3.5
		c-3.2,2.3-7.1,3.1-10.6,4.8c-2.2,1.1-3.8-0.1-4-2.6c-0.2-1.6,0-3.2,0-4.7c0-15.2,0-30.3,0-45.5c0-2.8,0.2-5.6,1.1-8.3
		c3.2-9.9,6.4-19.9,10.1-29.7c0.3-0.9,0.4-2.1,1.7-2c1.1,0,1.5,1.1,2,1.9c1.1,2.3,1.9,4.7,2.6,7.2c4.5,15.9,10,31.5,14.6,47.3
		c1.6,5.4,3.3,10.9,5.5,16.2c0.5,1.2,0.8,2.5,0.9,3.9c0.2,2.2-0.7,3.7-2.9,4.4c-10.4,3.1-8.4,3.3-8.5,12.2c-0.1,16.4,0,32.8,0,49.2
		c0,2-0.1,3.9,1.9,5.2c-0.5,1.2-1.3,1.4-2.5,1.5c-0.7,0.1-1.2-1.8-1.7-0.1c-0.3,1,0.4,1.5,1.4,1.6c-1.2,0.9-2.2,1.4-2.2-0.8
		c0-2.2,0-4.4,0-6.6c0-19.4,0.1-38.9-0.1-58.3c0-2.6,0.6-3.8,3.2-4.6c8.5-2.7,8.3-2.8,5.6-11.3c-6.4-20.1-12.6-40.3-18.9-60.4
		c-0.1-0.3-0.2-0.6-0.6-1.6c-1.8,5.3-3.3,10.1-5.1,14.8c-3.3,8.5-4.6,17.2-4.3,26.3c0.4,12.6,0.2,25.3,0,37.9c0,3.1,0.9,3.1,3.2,2
		c2.7-1.3,5.6-2.3,8.4-3.5c1.2-0.5,2.4-1.1,3.3,0.4c-0.7,1.3-0.3,2.6-0.3,3.9c0,20.2,0,40.5,0,60.7c0,1.3,0.3,2.7-0.3,3.9l-0.2,0.2
		L129.4,665.9z"/>
	<path class="st5" d="M397.7,747.7c3.9-1.6,6.6-4.4,9.3-6.9c5.7-5.5,12.2-9.4,19.8-11.4c3.1-0.8,7.3,1.9,8.1,5
		c0.5,1.8,2.1,3.1,2.2,5.2c0.4,6.1-2.5,10.5-7,14c-2.3,1.7-5,2.9-7.7,3.9c-5.7,2.2-12.4-3-11.9-9.2c0.1-1.4,0.5-2.9,0.7-4.4
		c-2.7,1.3-4,3.9-6.3,5.6c-8.5,6.3-13.4,4.4-15.2-6.2c-3.7,2.9-6.1,6.6-9.3,9.6c-0.6,0.6-1.1,1.3-1.7,1.8c-2.6,1.9-5.2,4.4-8.8,2
		c-2.7-1.8-4.1-6.2-2.6-9.9c3-7.5,7.2-14.2,14.9-17.6c5.9-2.6,7.9-1.6,9.4,2.2c2.5-5.1,4.7-10,7.2-14.7c2.8-5.2,6.2-10.1,9.9-14.7
		c1.2-1.6,2.6-3.3,5.2-1.7c2.4,1.5,2.3,3.5,1.5,5.7c-3.2,8.8-7.4,17-13.3,24.3C398.6,734.7,396.9,740.7,397.7,747.7z"/>
	<path class="st5" d="M256,734.5c-1.7,3.4-3.5,6.8-5.4,10.6c9.2-0.7,18-0.1,26.7,1.5c2.3,0.4,4.1,1.7,5.5,3.3
		c1.6,1.9,0.8,4.1-0.6,5.7c-1.7,2-3.8,0.7-5.2-0.4c-8.2-5.8-17.2-6.9-26.9-5c-1.7,0.3-2.8,1.2-3.8,2.4c-2.8,3.3-5.7,6.5-10,8.2
		c-4.3,1.6-8.2,0.9-11.9-1.1c-3.4-1.9-3.3-4.7,0.2-6.4c2.8-1.4,5.7-2.6,8.8-3.3c2.3-0.5,4.8-1.2,6.2-3.4c4-6.8,9-13.1,12.1-21.2
		c-3.3,1.8-6.1,3.5-9.3,4.3c-1.4,0.4-2.8,1.9-4.2,0.1c-0.8-0.9-1.5-1.8-0.6-3.2c1.1-1.7,2.2-3.4,4.4-3.2c7.3,0.7,11.9-3,15.3-8.9
		c3.6-6.2,6.7-12.6,11.4-18c3.2-3.6,6.3-3.5,8.5,0.5c-0.7,1.9-1.4,0.1-2.1,0c-1.7-1.3-3.2-0.9-4.5,0.6c-3.6,4-6.8,8.4-8.8,13.3
		c-2.9,7.1-8.1,11.5-14.8,14.6c-1.3,0.6-2.5,0.7-3.9,0.4c-1.2-0.3-2.4-0.5-3.1,1.7c3.4-0.1,6.1-1.5,8.8-3c1.6-0.9,3.3-3.2,5-1.6
		c1.7,1.5-0.3,3.5-1,5.3c-2.4,6.4-7,11.6-10.1,17.7c-1.8,3.6-5.1,5-8.8,5.9c-2.4,0.6-4.7,1.4-6.7,2.8c-0.5,0.4-1.2,0.7-1.7,1.1
		c-1.2,1.8,0.5,2.1,1.4,2.6c3.3,1.7,6.6,1.6,9.7-0.3c2.3-1.4,4.6-2.9,6.1-5.1c3-4.5,7.4-5.4,12.3-5.8c8.3-0.6,15.9,1.3,22.8,5.8
		c0.8,0.5,1.7,1.3,2.6,0.2c0.8-1,0.3-2.1-0.5-2.9c-1.2-1.1-2.7-1.6-4.3-1.8c-7.6-1-15.2-1.9-22.9-1.5c-3.8,0.2-5.1-1.6-3.2-4.9
		c1.8-3,2-6.9,5.6-8.7C255.9,733.4,256.4,733.7,256,734.5z"/>
	<path class="st6" d="M344.9,740.3c-5.7,1.8-9.3,5.6-13,9c-2.7,2.4-5.7,4.4-8.4,6.7c-1.9,1.6-3.4,0.1-4.2-1.8
		c-1.3-3.2,0-5.9,2.1-8.3c1-1.2,2.3-2.1,3.1-4c-2.1,0.4-3.4,1.5-4.9,2.7c-0.8,0.7-1.6,2.1-3.1,1c-1.4-1.1-0.6-2.3-0.3-3.6
		c0.8-3,3.5-3.8,5.7-5.3c1-0.7,2.3-1,3.1-1.9c1.3-1.3,2.1-3.1,4.4-2.1c2.4,1,3.6,2.8,4,5.2c0.2,0.9,0,1.8,0,3.2
		c3.8-3.1,7.4-5.8,11.6-7.4c4.3-1.6,7.8,0.6,8,5.2c0.1,2.6,0.2,5.3-0.7,7.9c-0.4,1-0.3,2,0.6,2.6c1.1,0.8,1.7-0.2,2.4-0.8
		c2.9-2.4,5.7-4.8,8.6-7.1c0.5-0.4,1-1.1,1.9-0.7c1,0.5,0.8,1.3,0.8,2.2c0.1,3.3-2.6,4.8-4.5,6.7c-1.9,2-4.3,3.5-6.3,5.3
		c-2,1.8-4.2,2.3-6.7,1.2c-2.7-1.2-4-3.5-4.2-6.3C344.7,746.8,344.9,743.7,344.9,740.3z"/>
	<path class="st4" d="M443.3,565.1c-1.1-1.1-0.6-2.5-0.6-3.8c0-81.1,0-162.2,0-243.3c0-1.3-0.5-2.7,0.7-3.7c0,33.3,0,66.6,0.1,99.9
		c0,49,0,98,0,146.9C443.4,562.5,443.3,563.8,443.3,565.1z"/>
	<path class="st5" d="M484.1,744.5c1-0.7,1.9-1.5,2.9-2.2c1-0.6,2-2.5,3.3-1.2c1,0.9,0.9,2.9,0,4.1c-3.5,4.7-7.9,8.6-13,11.3
		c-3.3,1.7-7.9-2-8.2-6.4c-0.2-3.1,0-6.2,0-9.6c-5.6,1.3-9,5.1-12.6,8.4c-2.7,2.5-5.9,4.4-8.6,7c-1.8,1.7-4.6-0.2-4.8-3.2
		c-0.2-2.7,0.9-4.9,2.6-6.9c1-1.1,2.4-2,3-3.9c-2.5,0.4-3.9,2-5.6,3.3c-0.6,0.5-1.3,1.2-2.2,0.5c-0.8-0.7-1.3-1.5-0.9-2.5
		c0.8-2.1,1.6-4.4,4.2-5.1c0.3,0.3,0.4,0.6,0.4,0.9c-0.1,1.2-1.2,2-1.7,3.6c2-1.2,3.5-2.4,5.2-3.2c0.8-0.4,1.7-1.3,2.7-0.5
		c1,0.9,0.4,2,0.1,3c-0.5,1.6-1.5,3-2.7,4.3c-1.1,1.3-2.3,2.5-2.8,4.2c-0.3,1.1-0.5,2.3,0.6,3c1,0.7,1.9-0.1,2.6-0.8
		c3.5-3.2,7.5-5.7,10.9-9c2-2,4.4-3.4,7-4.5c2.6-1.2,3.7-0.5,4.2,2.4c0.4,2.4,0,4.8,0.4,7.2c0.5,2.3,1,4.6,3.6,5.4
		c2.5,0.8,4.1-0.8,5.7-2.3c2.4-2.3,5.4-4.1,7.6-7.3c-1.2-0.2-2.1,0.8-3,0.4C484.6,744.9,484.3,744.7,484.1,744.5z"/>
	<path class="st7" d="M287.2,743.5c-1.7,0.3-2.6,3.2-4.2,1.4c-1.4-1.6-0.7-3.6,1-5.1c5.4-5,11.5-8.7,18.7-10.5
		c3.2-0.8,6.9,1.9,8.1,5.3c0.7,1.9,2.1,3.4,2.1,5.7c0,7.2-4.5,13-13.3,16.6c-5.5,2.3-10.5,0.3-12.7-5.1
		C285.7,749.2,286.9,746.5,287.2,743.5z"/>
	<path class="st8" d="M275.7,696.4c0.6-0.1,0.5,1.6,1.4,0.7c1,3.2,0.1,6.2-1.7,8.8c-2.9,4.1-6.3,7.8-10.5,10.7
		c-1.9,1.3-2.4,3.3-3.1,5.1c-1.8,4.4-3.3,8.8-5.8,12.8c-0.2-0.3-0.4-0.6-0.6-0.9c-0.1-0.1-0.2-0.2-0.2-0.3
		c2.5-6.9,3.8-14.5,9.9-19.6c3.2-2.7,5.8-5.8,8.4-9c1.1-1.3,1.3-2.8,1-4.5c0-1.1,0.2-2.1,0.5-3.1
		C275.2,696.8,275.4,696.6,275.7,696.4z"/>
	<path class="st9" d="M129.1,345.5c0.7-1.1,0.7-2.3,0.7-3.5c0-21.5,0-43,0-64.5c0-1.3,0.6-3.1-1.6-3.4c1.6-1.2,2.5-1.3,2.5,1.2
		c0,22.5,0,45.1,0,67.6C130.7,344.1,131,345.5,129.1,345.5z"/>
	<path class="st9" d="M129.8,665.8c0-21.5,0-42.9,0-64.4c0-1.4-0.5-2.9,0.7-4.2c0.1,22.2,0.1,44.3,0.2,66.5
		C130.7,664.5,131,665.5,129.8,665.8z"/>
	<path class="st10" d="M444.1,738.9c0-0.3-0.1-0.6-0.1-0.9c2.1-1.7,4.8-2.6,6.6-4.9c1.5-1.8,3.3-0.5,4.7,0.7c2.1,1.8,2.6,4.2,2.1,7
		c3.2-1.9,5.6-4.8,9-5.8c0.7-0.4,0.9,0.1,1,0.7c-2.6,2.9-5.9,4.8-9,7c-1.8,1.3-3.2,0.4-3.3-1.9c0-1,0.2-1.9,0-2.9
		c-0.7-2.6-2.5-3.2-4.8-1.7C448.6,737.6,446.9,739.4,444.1,738.9z"/>
	<path class="st6" d="M467.4,735.5c-0.3-0.2-0.5-0.4-0.8-0.6c2.4-1.3,4.8-3.3,7.6-1.3c3,2,3.4,5.1,2.9,8.4c-0.3,1.6,0.2,3.4-0.8,4.9
		c-0.6,0.9-0.1,1.9,0.8,2.5c0.9,0.6,1.5-0.2,2.2-0.7c1.6-1.4,3.2-2.8,4.9-4.2c0.4,0.1,0.8,0.1,1.1,0.2c-0.7,3.6-3.6,5.3-6.5,6.7
		c-2.7,1.2-5.1-1.3-4.4-4.5c0.4-2.1,1-4.2,0.9-6.4c-0.2-4.1-1.6-5.2-5.7-4.6C468.7,735.9,468,736.2,467.4,735.5z"/>
	<path d="M589.1,511.7c-6-2.2-11.7-4.3-17.3-6.4c-3.9-1.4-7.7-2.8-11.5-4.3c-2.2-0.9-3.1-0.3-3.1,2.2c0,29.9,0,59.7-0.1,89.6
		c0,3.2,0.5,4.8,4.2,6.1c11.9,4,23.4,9,35.1,13.5c0.7,0.3,1.4,0.5,2,0.8c2.5,1,3.3,0.1,3.2-2.6c-0.1-14.2-0.1-28.4-0.1-42.6
		c0-0.9,0-1.7,0-2.6c-0.1-2.2,0.6-2.9,2.8-1.9c7.4,3.4,14.8,6.7,22.2,10c3.3,1.5,6.6,2.9,9.9,4.2c2,0.8,3.1,1.8,3.1,4.2
		c-0.1,37.1-0.1,74.1,0,111.2c0,3.2-1.2,3-3.4,2.1c-5.8-2.4-11.5-4.8-17.3-7.3c-14.5-6.1-29.1-11.8-43.8-17.3
		c-11.7-4.4-23.6-8.4-35.4-12.6c-10.2-3.6-20.6-6.8-31-10c-5.4-1.6-5.5-1.6-5.5-7.1c0-18.7,0.1-37.4-0.1-56.1c0-3.1,0.5-4.3,3.8-3.1
		c2.8,1.1,5.8,1.6,8.6,2.6c2.4,0.8,3-0.2,3-2.4c-0.1-2.7,0-5.3,0-8c0-80.9,0-161.8,0.1-242.8c0-3.2-1-4.7-4.1-5
		c-4-0.5-8.7-0.8-11.2-3.6c-2.6-2.9-0.8-7.6-0.9-11.6c-0.1-16.9,0-33.8-0.1-50.7c0-3.1,0.7-3.5,3.6-2.7c14.6,4.1,28.9,9.3,43.3,13.9
		c18.2,5.8,35.9,12.7,53.7,19.6c11.6,4.5,23.2,8.9,34.5,14.3c1.9,0.9,2,2.2,2,3.8c0,7.7,0,15.3,0,23c0,26.9,0,53.7,0,80.6
		c0,3-0.7,4-3.6,2.6c-10.1-4.9-20.2-9.4-30.6-13.6c-3.1-1.2-4.2-2.7-4-6.7c0.5-11.9,0.5-23.8,0-35.7c-0.1-2.1-1-2.8-2.5-3.3
		c-13.1-5-26.2-10-39.3-14.9c-0.9-0.4-2-1.2-2.1,1c-0.7,28.8-0.1,57.5-0.3,86.3c0,5.5,0,5.4,5.9,7.5c6.9,2.6,13.7,5.3,20.6,8.1
		c5.6,2.2,5.6,2.3,5.6,8.3c0,18.7,0,37.4,0,56.1C589.1,509.3,589.1,510.3,589.1,511.7z"/>
	<path d="M314.3,273.1c0,9.8,0,19.7,0,29.5c0,1.9,0.2,3.4-2.7,3c-3.9-0.5-4.5,0.5-3.8,5c2.4,17.1,4.8,34.3,7.3,51.4
		c1.3,8.9,2.6,17.9,3.9,26.8c0.9,6.8,2.1,13.5,2.8,20.3c1.8,16.2,4.5,32.3,6.7,48.5c1.4,10.5,2.9,21,4.5,31.5
		c1.3,8.7,2.7,17.4,3.4,26.2c0.6,7.1,2,14.1,3,21.1c0.9,5.7,1.9,11.4,2.6,17.1c0.4,3.3,1,6,5.3,5.1c2-0.4,2.8,0.5,2.8,2.6
		c-0.1,19.9-0.1,39.9,0,59.8c0,2.4-1.1,3.3-3.3,3.1c-9.1-0.5-18.2,0.6-27.2,0.8c-6.6,0.1-13.2,0.8-19.8,1.3c-2,0.2-2.9-0.2-2.9-2.4
		c0.1-19.9,0.1-39.9,0-59.8c0-3.5,2.7-2.7,4.3-3c5.3-1.3,5.3-1.1,4.4-6.5c-0.7-4.8-1.5-9.5-2.1-14.3c-0.3-2.5-1.1-3.5-4-3.1
		c-8.1,1.1-16.3,1.8-24.4,2.5c-3.2,0.3-4.9,1.3-5.3,5c-0.6,5.7-0.9,11.6-2.5,17.2c-0.5,1.9,0,2.8,2,2.7c0.7,0,1.5,0,2.2-0.1
		c5.7-0.5,5.7-0.5,5.7,5.6c0,18.2,0,36.5,0,54.7c0,2.5-0.3,3.6-3.4,4.1c-15.5,2.5-31,4.6-46.3,8.4c-2.6,0.6-3.7-0.2-3.6-3.1
		c0.1-19,0.1-37.9,0-56.9c0-2.6,0.5-4.1,3.6-4.1c2.3,0,3.7-0.8,4.1-4c1.6-10.7,2.5-21.5,4-32.2c1.5-10.3,2.7-20.7,4-31.1
		c1.2-9,2.2-18.1,3.2-27.2c1.5-13.8,3.4-27.5,5.2-41.3c1.6-12.7,3.3-25.3,4.9-38c1.3-10.6,2.5-21.3,3.8-31.9
		c1-8.1,2.6-16.2,3.3-24.4c0.7-9.2,2.4-18.2,3.3-27.4c0.3-3.2-0.9-3.8-3.6-3c-0.7,0.2-1.4,0.4-2.1,0.6c-2.1,0.5-3.4,0-3.1-2.5
		c0-0.1,0-0.2,0-0.4c-0.2-19.2-0.5-38.3-0.7-57.5c-0.1-5.9,0.9-6.6,6.7-7.3c8.6-1,17.2-2.5,25.8-3.3c8.3-0.8,16.4-2.3,24.7-2.5
		c2.6-0.1,3.3,0.8,3.3,3.3C314.2,253.2,314.3,263.1,314.3,273.1z"/>
	<path d="M140.7,659.8c-1.9,0.5-2.9,0.4-2.9-2.3c0.1-19.6,0.2-39.1,0-58.7c-0.1-5,4-4.8,6.6-5.8c5.7-2.3,5.9-3,3.7-8.8
		c-2.6-6.9-4.8-13.9-6.9-21c-3.7-12.6-7.8-25.1-11.8-37.7c-1.4-4.3-2.2-8.8-4.7-13c-2.9,8.6-5.7,16.9-8.6,25.1
		c-1.8,5.2-3.2,10.3-3.2,15.9c0.2,16.3,0,32.5-0.1,48.8c0,2.2,0.6,3.5,2.9,1.8c3.2-2.3,7.3-2.3,10.3-4.9c0.8-1.1,1.5-1.1,2.2,0
		c0.5,0.8,0.3,1.6,0.3,2.5c0,19.8,0,39.7,0,59.5c0,0.7,0.1,1.5-0.4,2.1c-4.3,3.6-9.7,4.7-14.6,6.8c-12.6,5.5-25.1,11.2-37.5,17.2
		c-5,2.4-10,4.8-14.9,7.3c-1.5,0.7-2.3,0.2-2.5-1.3c-0.1-1.2-0.4-2.4-0.3-3.6c0.5-11.2-0.1-22.4,0.5-33.7c0.4-7.1-0.1-14.3-0.6-21.4
		c-0.2-3.5,1.4-5.1,4.1-6.4c2.6-1.2,5.2-2.7,8-3.5c3.5-1.1,4.1-3.2,4.1-6.6c-0.1-83-0.1-166-0.1-249c0-4,0-4.1-3.8-2.6
		c-3.7,1.5-7.3,3-11.5,4.8c0-1.5,0-2.7,0-4c0-18.8,0.3-37.7-0.2-56.5c-0.1-5,1.9-7.1,5.9-8.7c12.7-5.2,25.4-10.6,38.2-15.8
		c7.9-3.2,15.9-6.3,23.9-9.4c0.5-0.1,1-0.8,1.5,0c0.6,0.9,0.3,1.9,0.3,2.8c0,20.2,0,40.4,0,60.7c0,0.9,0.3,2-0.4,2.8
		c-3,1.2-6.1,2.3-9.1,3.5c-5.1,2.1-5.5,1.3-5.5,7.6c0.2,20.5,0.1,41.1,0.1,61.6c0,5.4,0.5,10.9-0.3,16.3c-0.1,0.7-0.1,1.3,0.7,1.3
		c0.7,0,0.9-0.6,1.1-1.2c1.2-3.8,2.5-7.6,3.8-11.3c3.3-9.2,6.6-18.3,9.9-27.5c3.7-10.2,7.4-20.4,11.1-30.6
		c2.8-7.5,5.7-14.9,8.4-22.3c0.4-1.1,1.5-2.4,0.6-3.4c-0.8-0.9-2.2-0.2-3.4,0.1c-1.4,0.4-2.8,0.7-4.2,1.2c-3.6,1.5-3.7,1.4-3.7-2.6
		c0-5.2,0-10.4,0-15.7c0-14.7,0-29.4,0-44.1c0-2.1,0.2-3.3,2.7-4.2c6.5-2.2,13.1-4,19.6-6c9.7-3,19.3-6,29.2-8.4c3-0.7,6-1.7,9-2.6
		c4.4-1.3,5.1-0.9,5.1,3.7c0,8.6,0,17.3,0,25.9c0,10.6-0.2,21.1,0.1,31.7c0.1,3.7-1.2,5.6-4.6,5.6c-4.7,0.1-6.7,2.2-8.1,6.8
		c-3,9.7-7.3,18.9-10.6,28.5c-5,14.3-10.5,28.4-15.6,42.7c-3.3,9.2-6.5,18.4-10.3,27.5c-2.8,6.7-4.8,13.6-7.2,20.5
		c-0.3,0.9-0.1,1.6,0.2,2.4c7.1,20,14.2,40.1,21.2,60.2c5.6,16.1,11,32.2,16.7,48.2c2,5.8,4.4,11.5,6,17.5c0.5,1.9,1.8,2.2,3.3,1.5
		c1.1-0.5,2.1-0.9,3.4-1.1c5.6-1,5.6-1,5.6,4.8c0,18.3,0,36.7,0.1,55c0,2.7-0.6,4-3.5,4.8c-13.3,3.6-26.5,7.3-39.6,11.5
		C153.8,655,146.9,656.5,140.7,659.8z"/>
	<path class="st9" d="M128.3,343.4c0-22.1,0-44.2,0.1-66.3c0.7,0.5,0.7,1.2,0.7,1.9c0,21.1,0,42.2,0,63.4c0,0.3-0.1,0.7-0.2,1
		C128.8,343.5,128.5,343.4,128.3,343.4z"/>
	<path d="M456.4,571.7c0,19.7,0,39.4,0,59c0,4.3-0.8,4.9-4.9,4.1c-14.1-2.7-28.3-4.8-42.6-6.3c-6.2-0.7-12.4-2.1-18.7-2.2
		c-2.2,0-2.4-1.6-2.4-3.3c0-5.6,0-11.2,0-16.8c0-13.8,0-27.7,0-41.5c0-2.7-0.1-4,3.6-3.4c10.2,1.6,10.3,1.3,10.3-9.1
		c0-80.3,0-160.6,0.1-240.9c0-3.5-0.4-5.5-4.4-5.4c-2.5,0-5-0.7-7.5-0.7c-2.7,0-4.4,0.7-4.4,4.4c0.3,14,0.1,27.9,0.1,41.9
		c-7.8,0.2-15.6,0.1-23.4-0.6c-9,1.2-9,1.2-9-7.6c0-33.4,0-66.7,0-100.1c0-1.3-0.5-2.7,0.4-3.9c13.3,0.7,26.5,1.2,39.7,2.8
		c10.3,1.2,20.7,1.9,31,3.1c8.4,1,16.7,2.3,25,3.6c11.9,1.9,23.7,3.9,35.6,5.8c2.6,0.4,3.5,1.4,3.5,4c-0.1,35.1-0.1,70.2,0,105.3
		c0,2.6-0.6,3.3-3.4,2.6c-8.3-2-16.8-2.9-25.1-5.2c-2.2-0.6-3-1.5-2.9-3.7c0.1-13.3,0.2-26.7,0.3-40c0-2.4-0.2-3.8-3-4.1
		c-3.3-0.3-6.6-1.3-9.9-1.9c-1.1-0.2-2.4-0.5-3.4,0.6c0.5,0.6,0.4,1.4,0.4,2.1c0,82.5,0,164.9,0,247.4c0,1.9,0.1,3.9,0.3,5.8
		c3.3,0.6,6.5,1.3,9.8,1.8C453.6,569.4,455.4,569.7,456.4,571.7z"/>
	<path class="st4" d="M441.8,567.3c-1.1-1.1-0.7-2.5-0.7-3.8c0-83.8,0-167.6,0-251.4c0.6,0.1,1.2,0.2,1.2,1.1
		c-1.1,83.1-0.1,166.2-0.6,249.3C441.7,564.1,443.6,565.7,441.8,567.3z"/>
	<path class="st11" d="M353.8,239.2c0,20.2-0.1,40.3-0.1,60.5c0,15.4,0,30.8,0,46.3c0,4.8,0,4.8,4.6,4.8c1.3,0,2.7,0,4,0
		c-2.5,1.3-5.2,0.4-7.8,0.6c-1,0.1-1.5-0.6-1.5-1.6c0-0.6,0-1.2,0-1.8c0-35.5,0-71.1,0-106.6c0-0.7,0.1-1.4,0.2-2.1
		c0-0.1,0.2-0.1,0.3-0.1C353.5,239.1,353.6,239.2,353.8,239.2z"/>
	<path class="st9" d="M128.3,663.5c0-20.3,0-40.7,0-61c0-1.2,1.3-3.9-2.1-3.1c-0.6-1.4,0.5-1.3,1.3-1.4c0.8-0.1,1.5,0.2,1.5,1.1
		c0.1,1,0.1,1.9,0.1,2.9c0,20.7,0,41.5,0,62.2C128.8,664,128.5,663.8,128.3,663.5z"/>
	<path class="st12" d="M406.4,743c0.2,0.7,0.4,1.2,0.4,1.6c-0.1,2.4-5.6,6.8-9.1,7.2c-3.3,0.4-5-1.2-6.2-5.2
		c-0.5-1.8,0.3-4.6-1.7-5.1c-0.9-0.2-2.6,2.4-3.9,3.7c-3,3.1-6,6.3-9,9.3c-1.7,1.7-3.8,2.4-6,1.4c-2.4-1.1-3.2-3.7-3-5.8
		c0.6-6.7,8.8-19.5,18-20.5c2.2-0.2,3.4,0,4.2,2c0.7,1.9,1.7,1.8,2.7,0.1c1.2-2.1,2.1-4.3,3-6.6c3.4-7.8,8.1-14.8,13.1-21.5
		c0.9-1.2,1.8-3.3,4-2.3c2.4,1.1,1.7,3.2,1.1,5c-3.2,8.6-7.7,16.4-13.4,23.7c-3.8,4.9-5.7,11.1-4.2,17.6c0.4,1.6,0.9,1.6,2.2,1
		C401.6,747.3,403.6,744.9,406.4,743z"/>
	<path class="st12" d="M435.9,740.8c-0.1,6.6-5.1,12.2-13,15.3c-3.7,1.5-6.5,0.7-9.1-2.1c-1.7-1.9-2.8-3.9-1.9-6.6
		c0.5-1.5,1.2-3.2,0.9-4.5c-1.9-7.8,4.9-8.2,9.1-10.5c2.1-1.2,4.8-2.4,7.6-1.5C432.6,731.8,435.9,736.9,435.9,740.8z"/>
	<path class="st13" d="M410.9,739.1c1.3,2.8-1.1,3.4-2.3,4.7C407.6,741.7,407.6,741.7,410.9,739.1z"/>
	<path class="st12" d="M274.9,700.1c0.8,1.5,0.9,3-0.3,4.5c-2.9,3.6-5.6,7.4-9.5,10.1c-2,1.4-3.3,3-4.1,5.2
		c-1.8,4.6-3.8,9.1-5.7,13.7c-2.6,3-3.5,6.9-5.6,10.2c-1,1.7-0.3,2.6,1.6,2.4c8.5-0.7,16.9,0.2,25.2,1.4c1.9,0.3,3.3,1.3,4.7,2.5
		c1.5,1.3,1,2.9,0.3,4.3c-1,1.8-2.5,0.7-3.4,0.1c-2.1-1.4-4.1-2.7-6.5-3.7c-7.6-3.3-15.2-3.3-23-1.6c-1.8,0.4-2.5,1.8-3.5,2.9
		c-2.6,3-5.4,5.9-9.1,7.6c-3.8,1.7-7.4,0.8-10.8-0.9c-1-0.5-2.1-1.5-1.9-2.8c0.3-1.4,1.6-1.2,2.7-1.2c0,2.1,1.5,2.7,3.1,2.6
		c2.5-0.3,4.8-1.2,6.2-3.9c-3.3-0.4-5.9,2.4-8.9,1.2c1.2-2.4,3.8-2.6,5.8-3c5.6-1,8.8-4.3,11.5-9.2c3.1-5.6,6.7-10.8,9.3-16.7
		c0.3-0.8,0.8-1.4,0.6-2.4c-1.5-0.5-2.4,0.5-3.3,1.2c-2.7,1.9-5.5,3.4-8.8,3.9c-0.9,0.1-1.7,1.6-2.8,0.4c-0.5-0.6-0.5-1.3-0.1-2
		c0.7-1.2,1.7-2.1,3.1-2.1c7.1,0.3,12.8-3.2,16.3-9.5c3.5-6.3,6.7-12.7,11.5-18.1c1.7-1.9,3.6-3,5.9-0.6c-0.4,0.6-0.5,1.3-0.1,2
		c-4.2,0.9-4.9,4.8-7.1,8.1C271.6,704.7,272.8,701.9,274.9,700.1z"/>
	<path class="st14" d="M226.5,754.5c2.5-0.8,5.1-1.5,7.6-2.3c0.9-0.3,2.1-0.7,2.6,0.4c0.5,0.9-0.4,1.8-1,2.5
		c-2.2,2.6-6.6,3.6-9.5,2.4c-2.1-0.9-1.9-1.8-0.2-2.9C226.2,754.7,226.4,754.7,226.5,754.5z"/>
	<path class="st12" d="M317.3,745.1c-0.4-4.9,2.9-5.8,5.3-7.5c1-0.7,2.2-1.1,3.1-1.8c1.2-1.1,2-3,4.1-1.7c1.8,1.2,2.8,3,2.6,5.2
		c-0.1,1.1-1.5,2.6-0.1,3.3c1.4,0.8,2.3-1,3.3-1.7c3.2-2.4,6.3-4.9,10.2-6.2c3.1-1,5.9,0.4,6.1,3.5c0.2,2.6,0.5,5.4-0.6,7.9
		c-0.9,2-0.1,3.5,1.1,4.6c1.4,1.3,2.6-0.4,3.7-1.2c3.1-2.2,5.4-5.5,9.1-7.1c0.9,3.3-2,4.4-3.6,6.1c-2,2.1-4.4,3.8-6.7,5.6
		c-3.6,2.7-7.9,0.9-8.5-3.7c-0.4-2.9-0.6-5.7-0.4-8.6c0.1-2.5-0.7-3.2-3.3-2.1c-4.6,2.1-8,5.8-11.9,8.8c-2.5,1.9-4.9,4.1-7.4,6
		c-2.2,1.6-2.8-0.3-3.1-1.9c-0.6-2.8,1-5,2.9-6.7c2.1-1.9,2.9-4.3,4.1-7.4C323.3,740.4,320.3,742,317.3,745.1z"/>
	<path class="st15" d="M467.4,735.5c2.3-0.5,4.7-2.7,7-0.1c2.8,3.1,1.8,6.7,0.9,10c-0.6,2.2-0.6,4,0.9,5.2c1.7,1.4,2.9-0.7,4.3-1.5
		c2-1.1,3.1-3,4.6-4.5c1.3-0.7,2.5-1.4,3.9-2.1c0.8,3.5-2.2,4.6-3.8,6.4c-1.8,1.9-4.1,3.4-6.2,5.1c-3.7,2.9-8.2,1.1-8.7-3.6
		c-0.3-2.8-0.5-5.7-0.5-8.6c0-2.5-0.6-3.2-3.2-2c-4.3,1.9-7.4,5.4-11.1,8.1c-2.7,1.9-5.1,4.2-7.7,6.3c-0.6,0.5-1,1.6-2.1,1
		c-1-0.5-1.5-1.4-1.6-2.6c-0.3-2.7,1.1-4.7,2.9-6.4c2.1-1.9,2.9-4.3,4.2-7.3c-3.9,1.4-6.7,3.7-9.9,5.8c-0.2-2.8,1.2-4.4,2.9-5.8
		c2.4-1.3,5.1-2.1,6.9-4.5c1.2-1.6,2.6-0.7,3.7,0.4c1,1.1,1.5,2.3,1.8,3.8c0.2,1.4-1.9,3.1-0.1,3.9c1.6,0.7,2.6-1.3,3.8-2.2
		C462.5,738.7,465,737.1,467.4,735.5z"/>
	<path class="st15" d="M283.9,744.3c-0.3-1.4-0.3-2.3,0.5-3.1c5.4-5.3,11.6-9.3,19.1-10.5c1.7-0.3,6.3-0.7,6,4.4
		c-0.1,1.4,2,2.7,2.2,4.7c0.6,6.1-3.6,12.2-10.9,15.5c-5.6,2.5-7.5,2.1-11.1-1.3c-2.8-2.7-2-5.7-1.4-8.8c0.2-1.2,1.5-2.8,0.2-3.7
		c-1.3-0.8-2.1,1.2-3.3,1.7C284.7,743.4,284.5,743.8,283.9,744.3z"/>
	<path class="st5" d="M274.9,700.1c-1.6,3.9-3.9,6.5-7.7,8.8c1.1-4.8,3.3-8.5,6.5-11.6c0.6-0.6,1.9-0.6,1.9,1
		C275.4,698.9,275.2,699.5,274.9,700.1z"/>
	<path class="st16" d="M285.6,420.7c2.6,2.8,1.8,5.9,2.2,8.4c1.8,11.5,3.1,23.1,4.6,34.6c1,7.2,1.9,14.3,3.2,21.4c0.4,2,0,2.8-1.8,3
		c-5.1,0.7-10.3,1.3-15.4,1.8c-1.9,0.2-2.2-1.1-2-2.6c1.4-10,3-20,4.4-30c1.3-9.3,2.4-18.5,3.6-27.8
		C284.8,426.8,285.2,424,285.6,420.7z"/>
	<path class="st6" d="M390.8,735.5c-0.2,0.4-0.4,0.8-0.7,1.2c-3.8,5.8-8.5,10.8-14.2,14.9c-0.9,0.7-1.9,1.4-3,0.6
		c-1.2-0.9-1.4-2.2-0.9-3.6c2.3-6,8.2-13.8,16.1-14.4C389.4,734.2,390.5,733.8,390.8,735.5z"/>
	<path class="st17" d="M403.4,719.1c1.8-3.1,3.7-6.2,5.6-9.3c0.5-0.8,0.9-2.1,2.1-1.4c0.9,0.6,0.5,1.9,0.1,2.7
		c-1.7,3.6-3.7,7-6.6,9.9C403.6,720.7,403.7,719.8,403.4,719.1z"/>
	<path class="st18" d="M403.4,719.1c0.4,0.6,0.8,1.3,1.2,1.9c-1,1.3-2.1,2.5-3.4,4.1C400.5,722.3,403.4,721.2,403.4,719.1z"/>
	<path class="st19" d="M417,747.5c1.5-7.6,7.4-11.7,14.9-12.6c-2,2.2-3,4.3-0.4,6.4c0.1,0.1,0.1,0.5,0.2,0.7c0.5,4.2-8,13-12.2,12.8
		c-1.3-0.1-2.4-0.4-2.7-1.9C416.4,751.1,415.8,749.2,417,747.5c1,0.6,1.3,1.7,1.4,2.8c0.3,2.5,1.8,2.7,3.6,1.6c3-1.9,5.5-4.4,7-7.7
		c1-2.2-0.2-4-1.5-5.2c-1.5-1.4-2.9,0.3-4,1.3c-1.5,1.4-2.8,3-3.7,4.9C419.2,746.3,418.9,747.9,417,747.5z"/>
	<path class="st20" d="M226.1,756.4c4.1-2.1,6.2-2.8,9.5-2.9C233.1,756.4,230.3,757.3,226.1,756.4z"/>
	<path class="st14" d="M292.4,749.9c-0.2-5.7,4.8-12.1,10.5-13.6c0.6-0.1,1.1-0.6,1.6-0.7c1-0.3,1.9-1.8,2.8-0.6
		c0.8,1-0.8,1.5-1.2,2.2c-0.6,1-0.6,2,0.2,2.6c2,1.7,1.3,3.3,0.4,5.2c-1.7,3.6-4.2,6.5-7.5,8.5C294.6,756.4,292.5,755.2,292.4,749.9
		z"/>
	<path class="st21" d="M273.9,699c-0.3,2.2-1.3,4-3.3,5.6C270.5,701.7,272.7,700.6,273.9,699z"/>
	<path class="st22" d="M286.5,436.5c1,7,2,13.9,2.9,20.9c1.2,8.5,2.3,17.1,3.6,25.6c0.4,2.4,0,3.5-2.8,3.5c-2.8,0-5.6,0.3-8.3,0.8
		c-2.8,0.5-3-0.5-2.6-2.8c1.6-11.2,3.1-22.3,4.7-33.5c0.7-4.8,1.3-9.6,2-14.4C286.1,436.5,286.3,436.5,286.5,436.5z"/>
	<path class="st15" d="M389.5,735.4c-3.8,6.2-8.4,11-13.7,15c-0.6,0.5-1.4,1.4-2.2,0.6c-0.7-0.6-0.5-1.6-0.1-2.4
		C376.7,742,380.9,736.5,389.5,735.4z"/>
	<path class="st15" d="M417,747.5c1.6,0.1,1.4-1.4,1.8-2.3c0.9-2.3,2.4-4.2,4.3-5.7c1.5-1.2,4.3-3.4,5.1-1.8c0.9,1.9,3.8,4,1.5,7.3
		c-2.1,3-4.3,5.8-7.4,7.7c-3.2,2-4.7,1.1-4.5-2.6C417.8,749.1,417.4,748.3,417,747.5C417.1,747.4,417,747.5,417,747.5z"/>
	<path class="st23" d="M293.7,749.8c-0.3-4.9,3.9-10.1,7.7-12.1c0.9-0.5,3-0.3,3-0.3c-0.4,2.3,2.6,3.7,1.7,6
		c-1.8,4.4-4.8,7.9-9.2,9.8C293.4,754.8,293.7,752,293.7,749.8z"/>
</g>
</svg>
