<?xml version="1.0" encoding="utf-8"?>
<!-- Generator: Adobe Illustrator 21.1.0, SVG Export Plug-In . SVG Version: 6.00 Build 0)  -->
<svg version="1.1" id="Layer_1" xmlns="http://www.w3.org/2000/svg" xmlns:xlink="http://www.w3.org/1999/xlink" x="0px" y="0px"
	 viewBox="0 0 700 965" style="enable-background:new 0 0 700 965;" xml:space="preserve">
<style type="text/css">
	.st0{fill:#FDFDFD;}
	.st1{fill:#00F5FE;}
	.st2{fill:#6CFE00;}
	.st3{fill:#EFFE00;}
	.st4{fill:#FE9500;}
	.st5{fill:#FE0000;}
	.st6{fill:#FE00CB;}
	.st7{fill:#FEFEFE;}
</style>
<g>
	<path class="st0" d="M350.6,716.8c-115.7,0-231.4,0-347.1,0.1c-2.4,0-3-0.5-3-3c0.1-153.8,0.1-307.7,0-461.5c0-2.4,0.5-3,3-3
		c231.4,0.1,462.8,0.1,694.2,0c2.4,0,3,0.5,3,3c-0.1,153.8-0.1,307.7,0,461.5c0,2.4-0.5,3-3,3C582,716.8,466.3,716.8,350.6,716.8z"
		/>
	<path class="st1" d="M418,560.1c3.5,4,6.9,7.9,10.3,11.8c1,1.1,2.2,1.8,3.7,1.6c3.3-0.4,2,2.1,2.3,3.6c0.3,2-0.8,2.2-2.4,2.2
		c-11.5,0.2-11.5,0.3-18.4-8.9c-2.1-2.8-4.4-5.6-6.4-8.5c-1.1-1.6-2.5-1.7-3.9-1.3c-1.5,0.4-0.8,1.8-0.8,2.8c-0.1,1.8,0,3.7,0,5.5
		c-0.1,2.8,0.2,4.9,3.9,4.7c2.6-0.1,1.1,2.2,1.4,3.4c0.3,1.2,0.2,2.3-1.7,2.3c-6-0.1-12.1-0.1-18.1,0c-2.2,0-1.7-1.5-1.7-2.7
		c0.1-1.3-1-3.4,1.8-3.2c2.7,0.2,3.5-1.2,3.5-3.8c-0.1-7.9-0.1-15.8,0-23.6c0-2.5-0.7-4-3.5-3.7c-1.4,0.2-1.8-0.5-1.9-1.9
		c-0.4-5.3-0.4-5.4,4.9-5.3c8.9,0.2,17.9-0.6,26.8,0.4c7.1,0.8,11.5,4.8,12,10.6c0.5,6.3-2.8,10.7-9.8,13
		C419.4,559.5,418.9,559.8,418,560.1z"/>
	<path d="M269.5,478.9c5-4.7,9.5-8.9,13.9-13.1c0.5-0.4,1.1-0.9,0.9-1.6c-0.3-1-1.2-0.8-1.9-0.8c-3.6,0.2-1.6-2.5-2-3.9
		c-0.5-1.8,0.7-2,2.2-2c5.2,0.1,10.4,0,15.5,0c1.2,0,2.7-0.1,2.1,1.7c-0.4,1.4,1.8,4-1.7,4.1c-1.6,0.1-2.7,1.2-3.9,2.1
		c-3.1,2.7-6.1,5.4-9.3,8.1c-1.2,1-1.7,1.6-0.5,3c4.2,5.6,8.3,11.3,12.4,16.9c0.7,1,1.7,1.6,2.8,2.1c0.8,0.4,2.2-0.6,2.5,0.7
		c0.3,1.5,0.2,3,0,4.5c-0.2,1.2-1.4,0.7-2.2,0.7c-5.9,0-11.9,0-17.8,0c-1.5,0-2.7-0.1-2.2-2c0.4-1.4-1.6-4.1,2-3.9
		c2.2,0.1,2.9-0.6,1.5-2.6c-2.3-3.3-4.5-6.6-6.9-9.8c-0.4-0.6-0.6-1.9-1.9-0.8c-3.2,2.6-6.8,4.9-5.8,10.1c0.4,2,0.9,3.3,3.1,3.1
		c3.4-0.4,1.9,2.2,2.2,3.7c0.4,2-0.7,2.2-2.4,2.2c-5.7-0.1-11.4-0.1-17.2,0c-1.9,0-2.3-0.8-2-2.3c0.3-1.3-1.4-3.8,1.9-3.6
		c2.6,0.2,3.4-1.2,3.4-3.5c0-8.4,0-16.8,0-25.3c0-2.3-0.7-3.8-3.4-3.6c-3.5,0.2-1.6-2.5-2-3.9c-0.5-1.9,0.8-2,2.2-2
		c5.6,0,11.2,0.1,16.8,0c1.6,0,2.9,0,2.4,2.1c-0.3,1.4,1.4,4-2.1,3.7c-2.2-0.2-3.1,0.9-3.1,3.1C269.5,470.3,269.5,474.1,269.5,478.9
		z"/>
	<path d="M324.1,501.6c-5.6,0-11.2-0.1-16.8,0c-1.8,0-2.5-0.6-2-2.2c0.4-1.3-1.5-3.8,1.8-3.7c2.7,0.1,3.5-1.2,3.5-3.8
		c-0.1-8.3-0.1-16.6,0-24.9c0-2.5-0.7-3.9-3.5-3.7c-3.3,0.2-1.4-2.4-1.8-3.7c-0.5-1.6,0.3-2.2,2-2.2c10.9,0.1,21.8,0.1,32.7,0
		c1.5,0,2.3,0.4,2.8,1.9c1.1,3.5,2.4,6.9,3.7,10.3c0.5,1.2,0.6,2.2-1,2.3c-1.6,0.1-3.5,2.9-4.6,0.1c-3.5-8.4-10.5-8.5-17.9-8.2
		c-1.4,0.1-1.5,0.7-1.5,1.8c0.1,2-0.2,4.1,0.1,6.1c0.2,1.4-1.5,3.9,2,3.8c3.8-0.1,5.2-0.7,5-3.8c-0.3-3.3,1.7-2.6,3.5-2.8
		c2.6-0.3,2.4,1.3,2.4,3c0,4.5-0.1,9.1,0,13.6c0.1,1.9-0.6,2.6-2.4,2.3c-1.3-0.3-3.6,1.3-3.5-2c0-3.8-2.2-5.2-6-4.5
		c-1.1,0.2-1.1,0.8-1.1,1.6c0,3.3,0,6.7,0,10c0,1.5,0.8,2,2.2,2.1c8.8,0.8,15.8-1.5,19.2-10.5c1.1-2.8,2.8-0.1,4.3-0.1
		c1.4,0,2,0.8,1.4,2.4c-1.6,4.2-3.1,8.5-4.5,12.8c-0.5,1.5-1.3,1.9-2.8,1.9C335.5,501.5,329.8,501.6,324.1,501.6z"/>
	<path class="st2" d="M288.7,557.3c0,13.8-9.3,22.7-23.8,22.7c-14.1,0-23.4-9.1-23.4-22.8c0-13.6,9.7-22.6,24-22.6
		C279.3,534.7,288.7,543.9,288.7,557.3z"/>
	<path class="st3" d="M334.2,557.2c0-13.6,9.7-22.6,24.1-22.6c13.8,0,23.1,9.3,23,22.9c0,13.8-9.4,22.5-24.1,22.5
		C343.4,580,334.2,570.8,334.2,557.2z"/>
	<path class="st4" d="M458.2,580c-3.7-0.1-7.3-0.7-10.5-2.7c-1.3-0.8-2.2-1-2.9,0.8c-0.8,2.2-2.8,1-4.2,1.2
		c-1.5,0.2-1.2-1.3-1.3-2.1c-0.9-4.3-1.6-8.7-2.4-13c-0.2-1.3-0.5-2.5,1.3-2.5c1.7,0,3.6-2.4,4.9,0.5c1.7,3.6,4.3,6.5,7.7,8.5
		c3.7,2.2,7.6,3,11.8,1.5c1.6-0.6,2.8-1.6,3-3.4c0.1-1.9-0.9-3-2.5-3.8c-3.6-1.8-7.5-2.6-11.3-3.7c-2.8-0.8-5.5-1.8-8.1-3.2
		c-7.8-4.4-8.5-14.7-1.2-19.8c6-4.2,12.6-4.6,19.4-1.8c1.3,0.5,2.1,1.2,3.5-0.4c1.5-1.8,4.6-0.6,5.3,1.8c0.9,3.2,1.8,6.4,2.5,9.7
		c0.2,0.9,1.4,2.5-0.7,2.8c-1.8,0.2-3.6,2.6-5.4-0.1c-2.6-3.9-5.9-6.9-10.6-8c-2.1-0.5-4.3-0.6-6.4,0.3c-3,1.3-3.4,4-0.8,6
		c1.4,1.1,3,1.6,4.7,2.1c4,1.2,8.1,2.3,12,3.7c5.5,1.9,9.3,5.5,9.5,11.7c0.2,5.4-3.5,10.3-9.4,12.7C463.6,579.6,460.9,580,458.2,580
		z"/>
	<path class="st5" d="M193.5,559.1c0-18.5,15.6-29,31-22.9c1.2,0.5,1.9,1.1,3.1-0.5c1.3-1.6,4.5-0.4,5.1,1.7
		c1.1,3.8,2.2,7.7,3.1,11.5c0.2,0.9,1.5,2.4-0.7,2.6c-1.8,0.2-3.6,2.7-5.3-0.1c-1-1.6-1.9-3.1-3-4.6c-2.8-3.7-6.5-5.8-11.2-5
		c-4.9,0.8-7.8,4.1-9.1,8.7c-1.6,5.8-1.1,11.4,2.2,16.5c3.7,5.9,10.2,7.5,16.3,4.2c2.8-1.5,5.1-3.6,7.1-6c2.2-2.8,3.1,0.6,4.6,1.1
		c1.9,0.6,0.8,1.7,0.1,2.7c-8.4,11.1-22.4,14.4-32.8,7.7C196.9,572.1,193.6,565.3,193.5,559.1z"/>
	<path d="M373.9,476.8c2.5-3.9,4.8-7.4,6.9-11c1.1-1.9,0.2-2.6-1.7-2.5c-3.5,0.3-1.8-2.3-2.1-3.8c-0.5-2.1,0.9-2.1,2.4-2.1
		c4.2,0.1,8.4,0,12.6,0.1c1,0,2.9-0.7,2.4,1.4c-0.3,1.5,1.8,4.1-1.7,4.5c-1.8,0.2-2.8,1.5-3.7,2.9c-3.6,5.4-7.4,10.6-10.6,16.2
		c-2.2,3.7-1,8-0.6,12c0.1,1,1.3,1.4,2.3,1.3c3.7-0.5,2.4,2.2,2.6,4c0.3,2.7-1.8,1.8-3,1.9c-5.3,0.1-10.6,0-15.9,0
		c-1.6,0-3.1,0.1-2.7-2.2c0.3-1.5-1.1-4,2.3-3.6c1.1,0.1,2.4-0.2,2.6-1.4c0.6-3.8,1.6-7.8-0.6-11.3c-3.5-5.7-7.2-11.2-10.9-16.8
		c-0.7-1.1-1.4-2.6-2.7-2.6c-3.6,0-2.5-2.4-2.7-4.4c-0.1-1.4,0.4-1.8,1.8-1.8c6.1,0.1,12.3,0.1,18.4,0c2.2-0.1,2.1,1.2,1.8,2.4
		c-0.3,1.2,1.5,3.4-1.6,3.5c-3.1,0.1-3.4,0.8-1.8,3.5C369.7,470,371.7,473.1,373.9,476.8z"/>
	<path class="st6" d="M309.7,579.4c-4.9,0-9.7-0.1-14.6,0c-1.7,0-2.5-0.6-2.1-2.2c0.3-1.3-1.4-3.8,1.9-3.7c2.5,0.1,3.4-1.2,3.4-3.6
		c-0.1-8.3,0-16.6,0-24.9c0-2.6-0.7-4.1-3.7-3.9c-2.8,0.2-1.3-2.1-1.5-3.3c-0.2-1.3-0.3-2.5,1.8-2.5c5.9,0.1,11.9,0.1,17.8,0
		c2.1,0,2,1.3,1.8,2.5c-0.2,1.2,1.2,3.4-1.6,3.3c-3-0.2-3.7,1.4-3.6,4c0.1,8.2,0.1,16.4,0,24.6c-0.1,2.7,1,3.3,3.4,3.2
		c6.4-0.1,10.5-3.3,13-9c1-2.2,4.8-2.6,6.4-0.8c0.6,0.7,0,1.2-0.1,1.8c-1.5,4.3-3.1,8.5-4.5,12.8c-0.5,1.5-1.4,1.6-2.7,1.6
		C319.6,579.3,314.7,579.4,309.7,579.4z"/>
	<path class="st7" d="M402.3,548.6c0-5.6,0-5.6,5.6-5.6c2.4,0,4.7-0.2,7.1,0.6c2.2,0.8,3.4,2.3,3.6,4.5c0.2,2.1-0.6,3.9-2.4,5
		c-4.1,2.5-8.6,1.3-13,1.4c-0.8,0-0.8-0.8-0.8-1.5C402.3,551.7,402.3,550.1,402.3,548.6z"/>
	<path class="st7" d="M276.6,558.3c-0.1,2.9-0.6,6.5-2.7,9.7c-4.2,6.6-13.2,6.6-17.6,0.1c-3.9-6-3.5-16.7,0.8-22.4
		c4.1-5.4,12.1-5.3,16.2,0.1C275.5,548.6,276.6,552.6,276.6,558.3z"/>
	<path class="st7" d="M369.3,557.5c-0.2,3.9-0.7,7.6-2.9,10.8c-4.1,6.1-12.7,6.2-17,0.2c-4.3-6-4-17.5,0.8-23.2
		c4.2-5.1,12-4.8,16,0.5C368.7,549.4,369.1,553.4,369.3,557.5z"/>
</g>
</svg>
