<?xml version="1.0" encoding="utf-8"?>
<!-- Generator: Adobe Illustrator 21.1.0, SVG Export Plug-In . SVG Version: 6.00 Build 0)  -->
<svg version="1.1" id="Layer_1" xmlns="http://www.w3.org/2000/svg" xmlns:xlink="http://www.w3.org/1999/xlink" x="0px" y="0px"
	 viewBox="0 0 700 965" style="enable-background:new 0 0 700 965;" xml:space="preserve">
<style type="text/css">
	.st0{fill:#FEFEFE;}
	.st1{fill:#050407;}
	.st2{fill:#040406;}
	.st3{fill:#1A1A1C;}
	.st4{fill:#191919;}
	.st5{fill:#1A191B;}
	.st6{fill:#232326;}
	.st7{fill:#252527;}
	.st8{fill:#121214;}
	.st9{fill:#D0477B;}
	.st10{fill:#212121;}
	.st11{fill:#E64181;}
	.st12{fill:#C63A70;}
	.st13{fill:#EBEBEC;}
</style>
<g>
	<path class="st0" d="M356.2,831.2c-112.3,0-224.6-0.1-336.9,0.3c-9.5,0-11.4-1.9-11.4-11.4c0.3-224.6,0.3-449.2,0-673.8
		c0-9.5,1.9-11.4,11.4-11.4c224.6,0.3,449.2,0.3,673.8,0c9.5,0,11.4,1.9,11.4,11.4c-0.3,224.6-0.3,449.2,0,673.8
		c0,9.5-1.9,11.4-11.4,11.4C580.8,831,468.5,831.2,356.2,831.2z"/>
	<path class="st1" d="M465.7,338.1c0.5-13.7,7.3-24,17.6-32.3c32.4-26.2,78-28.3,111-5.3c32.7,22.7,48.6,73.4,35.3,110.8
		c-12.9,36.2-37.6,63.3-65.6,88.2c-13.4,12-26.9,23.9-39.6,36.7c-5.9,5.9-10.6,13.4-11.9,22.1c-1.4,9.5-6.2,7.8-11.9,4.3
		c-6.3-10.3-4.8-20.8-0.7-31.3c12.4-27.5,37.4-44.1,57.4-65c18.4-19.2,36.3-38.4,48.1-62.6c10.8-22.2,15.7-45.1,0.6-66.1
		c-17.6-24.4-43.1-33.2-73-26.5c-22.6,5.1-41.8,15.1-51.4,37.9c-1.5,3.5-3.6,6.5-6.8,8.6c-6.1,2.6-10.4,1.8-10.3-5.9
		C464.4,347.3,463.2,342.5,465.7,338.1z"/>
	<path class="st2" d="M322.6,469.1c5.7,13-1.9,32.3-15.3,39.8c-12.8,7.3-20.9,0-28.3-9.2c-1.3-1.6-2.5-3.4-3.8-5.1
		c-18-25.2-18-25.2-39.7-4.2c-3.4,3.3-7,6.5-10.5,9.7c-40.4,37-72.6,33.4-104-11.2c-2.2-3.2-3.1-9.2-8.8-7.2
		c-5.4,1.9-11.2,4.6-12.3,11.2c-0.7,4.6,0.1,9.5,0,14.2c-0.1,5.6,2.7,13.3-3.8,15.6c-5.5,2-10.6-3.7-15-7.5
		c-13-11.2-13.5-22.2-1.1-33.8c4.4-4.2,5.2-8.7,5.2-14.2c0-14.3,0.1-28.6,0.5-42.8c0.1-3.2-2.6-8.3,2.8-9.2c3.8-0.6,6.7,2.8,8.5,6.2
		c4,7.3,3.4,15.4,3.5,23.3c0.1,5.7,0,11.4,1.2,18.1c3.5-12.8,14.4-12.3,23.4-15c23.6-7.2,43.3-22,64.5-33.7c4.1-2.3,8.3-4.9,12.8-6
		c5.2-1.3,9.1,2,11.7,6.4c3,5.1-0.7,8-4.4,10.2c-22.1,13.2-41.3,31-66.9,38.9c-21.5,6.6-22.6,17.7-5.3,32.8
		c14.5,12.6,37.6,14.5,56.6,5c16.9-8.5,28.9-22.9,42.5-35.4c13.5-12.3,19-11.9,30.6,2.6c3.6,4.5,6.5,9.7,9.7,14.5
		c10.3,15.7,22.9,16.5,35.3,1.8C316.3,480.2,319.1,474.6,322.6,469.1z"/>
	<path class="st1" d="M465.7,338.1c3.8,5.1-8.2,19.8,9.9,16.3c6.3,8.1,4.4,17.1,2.7,26c-1.2,3.2-3.5,5.7-5.6,8.3
		c-2.2,2.5-2.6,5.7-3.8,8.6c-3.2,7.8-7.7,5.7-12,1.3c-3.8-3.8-5.1-9.2-7.5-13.9c-10-19.5-31.2-29.9-51.6-25.3
		c-19.4,4.3-35,24.4-35.9,45.1c-1.1,24.1,10.4,42.7,25.1,60c14.2,16.7,31.3,30,49.3,42.2c4.2,2.9,7.4,5.1,10.7-2.2
		c8.9-19.1,17.7-23.2,32.6-17.1c18.4,7.5,27.1,24.5,22,43.2c-9.6,19.4-12.8,20.7-36,14.7c-40.7-22.7-75.9-51.9-103.3-89.8
		c-14.5-19.9-20.5-42.9-17.6-67.6c5.3-44.7,47.4-64.9,85.5-41.4c12.3,7.6,21.7,18.1,31.7,31.2C464.8,363.5,459.4,350.1,465.7,338.1z
		"/>
	<path class="st3" d="M217.9,639.7c-0.4-7.9,0.2-16-1.5-23.7c-2.9-13.3,4.3-14.8,14.1-13.1c11.4,2,19.4,8.8,21.3,20.5
		c1.9,11.6-3.2,21.9-13.4,26.4c-9.5,4.2-14.4,8.6-12.6,19.3c0.5,3.2,1.2,8.8-3.8,8.8c-6.9,0.1-3.9-6.2-4.1-9.7
		C217.6,658.7,217.9,649.2,217.9,639.7z"/>
	<path class="st4" d="M477,641.4c2.1-14.6,3.4-24.3,4.9-34.1c0.4-2.7,1.4-5.5,4.7-4.7c1.6,0.4,3.8,3,3.7,4.4
		c-1.4,22.7-8.4,44.3-12.7,66.5c-0.4,1.9-2.8,3-5.2,2.2c-2.3-0.8-3.8-3-3-4.8c11.2-25.7-13.1-37.1-21.8-54.8c-2.3-4.7-11-9.9-5-14.2
		c6.1-4.5,8.7,5.2,11.9,9.1C461.4,619.5,467.6,628.6,477,641.4z"/>
	<path class="st5" d="M394.1,633.9c-1.1,11.5-7.5,16.1-16.3,16.4c-8.4,0.3-13.2-5.5-15-13.6c-1.7-7.9,4.2-20.2-11.8-20.1
		c-2,0-2.2-4.7-0.8-5c16.8-3.8,9.5-16.6,10.3-26.4c0.3-3.6-3.2-9.7,3-10.2c5.9-0.5,4.4,6,5,9.7c0.9,6.2,1.2,12.5,1.8,18.7
		c6,4.3,12-5.4,19.5,2.4c-14.1,5.9-27.1,14.2-17.1,31.3C379.1,647.8,385.7,634.7,394.1,633.9z"/>
	<path class="st6" d="M347.2,635.3c-7.6,18.4-25.5,22.5-37.4,11.2c-8.4-8-9.5-35.9-1.8-44.3c5.2-5.7,12-4.5,17.4-2.1
		c6.1,2.7,10.8,9.5,10.3,15.8c-0.4,5.5-7.4,5.6-12.9,5.8c-5,0.2-13-3-12,7.1c0.9,8.9,5.4,14.6,15.1,14.9
		C333.2,644,338.3,638.6,347.2,635.3z"/>
	<path class="st3" d="M391.8,612.6c25.3-5.8,10.8-27.1,19-39.4c8.8,5.9,3.8,14.4,4.3,21.3c0.4,6.2-0.9,12.2,8.6,10.4
		c2.9-0.6,6.8-1.8,7.4,2.9c0.5,4.3-3.4,4.9-6.3,5.3c-6.2,0.8-10.7,2.1-11.7,9.9c-2.4,17.7,1.6,20.9,21.5,14.4
		c-0.7,11.7-8.5,13.8-17,13.4c-9.2-0.4-11.9-7.2-12.2-15.5C405,626.2,409.8,614.3,391.8,612.6z"/>
	<path class="st7" d="M299.1,611.3c-19.9-0.4-23.3,3.4-21.6,21.7c0.4,4.2,1.1,8.3,1.4,12.5c0.1,2.1-0.3,4.4-3,4.7
		c-1.4,0.2-4-0.3-4.2-0.9c-3-13.2-6.8-26.4-7.8-39.7C263.4,603.9,291.7,603.7,299.1,611.3z"/>
	<path class="st8" d="M529.7,604.1c-0.4,7.8-3.3,12.8-10.2,12.7c-8.7-0.2-12.9-6.1-13.4-14.3c-0.5-7.3,3.2-12.8,10.7-12.3
		C525.2,590.8,528.7,597.4,529.7,604.1z"/>
	<path class="st9" d="M465.5,545.3c14.8,1.5,28.5,0.8,34.5-16.3c1.4-1.1,2.7-1.1,3.9,0.2c-4.5,10.8-4.7,22-3.4,33.4
		C488.3,558,476.2,553.2,465.5,545.3z"/>
	<path class="st10" d="M261,408c9.1,5,16.9,2.9,17.6,11.7c0.2,2.7-1.5,5.5-4.4,5.2C266.7,424.1,265.2,418,261,408z"/>
	<path class="st11" d="M503.9,529.3c-1.3-0.1-2.6-0.2-3.9-0.2c1.1-12.8-1.5-24.3-12.1-32.6c-7.7-6.1-16.2-10.3-26.3-6.2
		c-12.6,5-10.5,16.9-12.3,30.5c-38.5-27.6-78.5-50.7-90.4-99.5c-6.4-26.3,3.9-48.4,25.7-61c24.8-14.3,57.5-3.1,68.9,23.4
		c2.6,6,2.7,13.7,10.1,16.6c4.8-3.6-2-11.1,5.2-13.5c5.1,3.8,6.8,1.2,7.2-3.8c-0.1-9.5-0.2-19-0.3-28.5c7.5-42.2,77.5-66,119.4-35.1
		c22.9,16.9,31.1,45.9,19.9,73.5c-11.9,29.3-31,53.5-53.5,75.6C541.5,488.1,519.1,505.3,503.9,529.3z"/>
	<path class="st12" d="M485.2,514.6c-0.9,4.9-2,12.8-8.9,11c-3.9-1-12.5-1.6-12.6-7.6c-0.2-7.5,6-11.9,13.5-12.7
		C483.1,504.6,485.6,508.1,485.2,514.6z"/>
	<path class="st1" d="M475.9,382.9c2.4,4.6,3.4,9.4,1.7,14.6c-6.4-1-7.6-5.9-8.8-10.8C470.2,383.7,472.9,383.1,475.9,382.9z"/>
	<path class="st13" d="M230.9,611.4c8.3,2.6,13.8,7,12.8,16c-0.9,7.8-5.8,17.6-12.4,15.8c-10.8-2.9-3.1-15.2-5.7-23.1
		C224.3,616.2,225.2,611.6,230.9,611.4z"/>
</g>
</svg>
