<?xml version="1.0" encoding="utf-8"?>
<!-- Generator: Adobe Illustrator 21.1.0, SVG Export Plug-In . SVG Version: 6.00 Build 0)  -->
<svg version="1.1" id="Layer_1" xmlns="http://www.w3.org/2000/svg" xmlns:xlink="http://www.w3.org/1999/xlink" x="0px" y="0px"
	 viewBox="0 0 700 965" style="enable-background:new 0 0 700 965;" xml:space="preserve">
<style type="text/css">
	.st0{fill:#FEFEFE;}
	.st1{fill:#D5D0CE;}
	.st2{fill:#29221F;}
	.st3{fill:#402F27;}
	.st4{fill:#4E413B;}
	.st5{fill:#45342C;}
	.st6{fill:#191613;}
	.st7{fill:#302925;}
	.st8{fill:#3D2B23;}
	.st9{fill:#7E6D64;}
	.st10{fill:#4E3E37;}
	.st11{fill:#433833;}
	.st12{fill:#52423B;}
	.st13{fill:#F3F2F2;}
	.st14{fill:#F5F4F4;}
	.st15{fill:#47362E;}
	.st16{fill:#4A3932;}
	.st17{fill:#6C5C54;}
	.st18{fill:#43322A;}
	.st19{fill:#F9F9F8;}
	.st20{fill:#5B4C46;}
	.st21{fill:#584942;}
	.st22{fill:#3E3632;}
	.st23{fill:#655750;}
	.st24{fill:#84756E;}
	.st25{fill:#695E58;}
	.st26{fill:#554A45;}
	.st27{fill:#61544E;}
	.st28{fill:#433B38;}
	.st29{fill:#F2F2F2;}
	.st30{fill:#423A36;}
	.st31{fill:#FDFDFD;}
	.st32{fill:#39312D;}
	.st33{fill:#594A43;}
	.st34{fill:#594C45;}
	.st35{fill:#564740;}
	.st36{fill:#3D3532;}
	.st37{fill:#3F3734;}
	.st38{fill:#CCC7C5;}
	.st39{fill:#342B27;}
	.st40{fill:#AA9F9A;}
	.st41{fill:#8F7F78;}
	.st42{fill:#372F2B;}
	.st43{fill:#A3938B;}
	.st44{fill:#7A7876;}
	.st45{fill:#60524B;}
	.st46{fill:#312925;}
	.st47{fill:#5F514A;}
	.st48{fill:#524B48;}
	.st49{fill:#39312E;}
	.st50{fill:#848381;}
	.st51{fill:#6A6966;}
	.st52{fill:#62534D;}
	.st53{fill:#6F6E6B;}
	.st54{fill:#6C6A67;}
	.st55{fill:#6A6865;}
	.st56{fill:#C5BFBD;}
	.st57{fill:#888785;}
	.st58{fill:#FAFAFA;}
	.st59{fill:#8D8C8A;}
	.st60{fill:#958B87;}
	.st61{fill:#594943;}
	.st62{fill:#BCB6B3;}
	.st63{fill:#504946;}
	.st64{fill:#64625F;}
	.st65{fill:#615F5C;}
	.st66{fill:#3C332F;}
	.st67{fill:#62615E;}
	.st68{fill:#412F28;}
	.st69{fill:#413A36;}
	.st70{fill:#867B76;}
	.st71{fill:#676563;}
	.st72{fill:#433C38;}
	.st73{fill:#D0CFCF;}
	.st74{fill:#E1E0E0;}
	.st75{fill:#776B66;}
	.st76{fill:#D6D4D4;}
	.st77{fill:#676562;}
	.st78{fill:#453E3B;}
	.st79{fill:#827671;}
	.st80{fill:#F6F5F5;}
	.st81{fill:#544842;}
	.st82{fill:#64635F;}
	.st83{fill:#E0DFDF;}
	.st84{fill:#483730;}
	.st85{fill:#5F5D5A;}
	.st86{fill:#E2E1E1;}
	.st87{fill:#646260;}
	.st88{fill:#6E6C69;}
	.st89{fill:#3D3632;}
	.st90{fill:#443C39;}
	.st91{fill:#696764;}
	.st92{fill:#63615E;}
	.st93{fill:#4E4C48;}
	.st94{fill:#706E6B;}
	.st95{fill:#6F625C;}
	.st96{fill:#9E9591;}
	.st97{fill:#3C3431;}
	.st98{fill:#463B35;}
	.st99{fill:#71625C;}
	.st100{fill:#4D433E;}
	.st101{fill:#EDECEB;}
	.st102{fill:#EDEBEB;}
	.st103{fill:#A59B96;}
	.st104{fill:#BFB9B6;}
	.st105{fill:#776B65;}
	.st106{fill:#2C2622;}
	.st107{fill:#77675F;}
	.st108{fill:#F6F6F5;}
	.st109{fill:#4A3E38;}
	.st110{fill:#6A5B53;}
	.st111{fill:#EEEDED;}
	.st112{fill:#C8C4C3;}
	.st113{fill:#766963;}
	.st114{fill:#897971;}
	.st115{fill:#382F2A;}
	.st116{fill:#2E2723;}
	.st117{fill:#E7E4E3;}
	.st118{fill:#D0CCCA;}
	.st119{fill:#E5E5E5;}
	.st120{fill:#504039;}
	.st121{fill:#4D3D36;}
	.st122{fill:#E0DCDA;}
	.st123{fill:#7A716C;}
	.st124{fill:#F6F6F6;}
	.st125{fill:#ECECEC;}
</style>
<g>
	<path class="st0" d="M351.2,831.4c-114.1,0-228.2,0-342.2,0.1c-4.8,0-5.7-0.9-5.7-5.7c0.2-228.6,0.2-457.2,0-685.8
		c0-4.8,0.9-5.7,5.7-5.7c228.6,0.2,457.2,0.2,685.8,0c4.8,0,5.7,0.9,5.7,5.7c-0.2,228.6-0.2,457.2,0,685.8c0,4.8-0.9,5.7-5.7,5.7
		C580.3,831.4,465.7,831.4,351.2,831.4z"/>
	<path class="st1" d="M682.8,514.3c-159.3,0-318.5,0-477.8,0c0-0.4,0-0.9,0-1.3c159.3,0,318.5,0,477.8,0
		C682.8,513.4,682.8,513.8,682.8,514.3z"/>
	<path class="st2" d="M108,446.9c7.7-2.2,5.8-8.4,5.8-13.8c5.3-0.1,4.2,4.9,6.1,7.6c1.5-0.8,2.9-1.8,4.4-2.6
		c8.2-10.3,26.3-13.1,27.8-4.3c1.2,7.2,7.2,11.8,7.1,19.3c2.4-1.2,0.5-3.3,1.8-4.3c5.5,2.1,0.4,25.7-7.4,34
		c-2.3,0.1-2.7-1.7-2.8-3.2c-0.4-6.8-3.4-12.9-4.3-19.6c0.2-4-2.1-7.6-1.6-11.7c0.4-0.6,0.9-1,1.6-1.1c5.7,1.1,6.6,5.6,7.2,9
		c-1.2-3.3,1-9.4-6.1-10.8c-3.7,2.4-6,1.2-7.2-2.7c-0.4-1.7,2-4.7-1.5-5c-2.6-0.2-5.2,1.1-5.4,4.5c7.4,2.5,7.8,3.6,4.8,10.6
		c-0.4,0.5-0.9,1-1.5,1.3c-0.6,0.2-1.3,0.1-1.9-0.1c-1.9-1.1-0.2-3.2-1.2-4.7c-0.4,2.3-1,4.1-3.8,3.5c-3.5-1.6-6.5-5.5-11.3-2.5
		c1.4,1.4,5.1,0.1,4.9,3.5c-2.4,5.3-1,11-1.8,16.5c-0.4,3,2.6,3.5,4.1,5.1c0.8,3.5-2.2,4.3-4.1,5.5c-3.7,2.3-5.3,5.6-5.3,9.9
		c0,6,0.2,12-0.1,18c-0.1,2.3-0.1,4.9-3.2,5.4c-3.4,0.5-2.4-2.6-3.1-4.2c-1.6-3.7-3.6-7.4-2.5-11.8c-2.4,2.2-0.8,5.3-2.4,7.5
		c-1.2,1.7-2.2,4.3-4.2,0.7c-1.3-7.7-1.2-15.5-0.1-23.2c2.6-3.7,7.8-3,10.7-6.1c0.6,0.4,1.1,0.9,1.3,1.5c0.3,0.6,0.3,1.3,0.2,2
		c0.7-0.3,0.6-1.1,0.8-1.6c1.2-2.7-2,0.1-1.8-1.4c-1-0.8-2.2-1.4-2.5-2.8c-0.5-3,2.1-4.8,2.9-7.5c0.8-3,2-5.4-1-7.7
		c-3.1-2.4,1.4-6.4-1.9-8.8C109,449.6,107.5,448.7,108,446.9z"/>
	<path class="st3" d="M388,435.4c-7,0-13.9,0.2-20.9,0c-3.3-0.1-3.9,1.2-3.9,4.1c0,2.8,0,5.1,4,4.6c2.8-0.3,5.6,0.1,8.4,0
		c3.1-0.1,3.1,1.8,3.2,4.1c0.1,2.7-1.4,3-3.5,3c-1.9-0.1-3.8,0.2-5.6,0c-5.3-0.8-6.8,1.3-6.6,6.5c0.2,4.1,1.6,5.1,5.3,5
		c5.8-0.2,11.6-0.1,17.4-0.1c2.4,0,4.7-0.3,4.7,3.3c0.1,3.5-1.9,3.6-4.5,3.6c-8.8,0-17.6-0.1-26.5,0.1c-3.1,0.1-3.9-1.1-3.9-4.1
		c0.1-10.7,0.2-21.4,0-32.1c-0.1-4.4,2.2-5,5.7-4.7c6.5,0.4,13,1.4,19.4,2.3C383.8,431.3,387.6,430.8,388,435.4z"/>
	<path class="st4" d="M141.2,522.1c1.3,1.4,4.5,1.5,3.8,4.1c-0.5,2.1-2.7,3.1-4.8,3.5c-4.2,0.7-7.7,2.5-10.9,5.6
		c-2.4,2.3-5.9,2.2-9.2,2.3c-13.4,0.7-26.9,0.1-39.9,4.4c-1.2-2.9,1.1-3.7,2.9-3.9c2.4-0.3,0.3-2,1.1-2.6c1.4-1.3,3-2.4,4.7-3.2
		c1.4-0.4,2.6,0,3.7,0.8c8.2,0.2,16.4-1.2,22.8-0.9c-6.1,0.5-14.2-0.2-22.1,1.4c-3.3-1.8-3.9-4.5-2.2-7.5c1.7-3,4.3-1.3,6.7-1
		c5,0.6,10.3,2.6,15-1.4c0.4-0.5,0.9-0.9,1.5-1.2c7-0.3,13.9-0.5,20.7-2.6C137.3,519.1,139.5,520.3,141.2,522.1z"/>
	<path class="st5" d="M257.1,459c-2.4,1-2.9,3.5-3.9,5.5c-2.8,5.5-2.7,5.5-9.9,4c5.9-12,11.7-24,17.6-36c2.1-4.1,4.9-4.1,8-0.9
		c7.1,7.3,9.3,17.3,14.2,25.9c1.3,2.4-4.5,4.9-1.3,8.3c-1.3,0.3-3.3,1-3.5-0.7c-0.5-3.5-3.8-5.9-3.2-9.7c-0.3-1-1.5-1.2-1.9-2.1
		c-1-1.9-0.6-4.1-1.2-6.1c-0.8-3-3-5.2-5.9-4.8c-2.4,0.4-2.1,3.7-2.7,5.8c-0.6,1.8,1.1,2.8,2.2,4.1c2.1,4,1.3,6.2-3.6,6
		C260.2,458.5,258.6,458.2,257.1,459z"/>
	<path class="st6" d="M112.2,477.4c-2.6,2.6-3.9,8.2-9.5,4.1c-14-8.1-28.9-7.5-44-4.8c-2.3,0.4-4.5,1-6.8,0.2
		c-3.7-2.4-3.1-5.9-2.3-9.4c0.8-1.5,2.2-2.4,3.1-0.7c2.3,4.7,6,3.7,9.5,2.5c8.3-2.8,17-0.8,25.9-2.5c-3.3-0.3-5.9,1-8.6,0.7
		c-2.2-0.2-5.3,0.5-5.3-2.9c0-2.7,2.7-2.7,4.8-2.7c2.3,0,4.7,0.2,6.5-0.9c-2.6,0.3-6.3,2.9-7.5-2.4c1.1-2.8,4-3,6.2-4.1
		c0.6-0.2,1.2-0.2,1.9-0.2c2.7-0.1,5.4,0.3,8-0.6c2.8-1,5.5-2,8.3-3c0.8,0.7,1.1,1.7,1.1,2.7c-1.1,4.4-4.6,7.3-7,11.6
		c4.4,1,7.1,5.2,12,5.1c2.7,0,0.8,3.3,2.3,4.4C111.2,475.5,111.7,476.4,112.2,477.4L112.2,477.4z"/>
	<path class="st7" d="M29.8,524.6c-1.9-1-3.8-2.1-2.2-4.6c3.2-5,2.5-9.8-0.5-14.6c-0.5-0.9-0.7-2.3-0.5-3.3
		c1.2-7.1-1.8-12.9-5.6-18.7c2.4-1.2,3,2.5,4.6,1.5c1.9-1.2,0.9-3.4,1-5.1c0.2-10.4,0.2-20.8,0.4-31.2c0-2.1-1-5,2.8-5
		c4.3,0,8.9-1.9,12.7,1.9c2.8,5.3,2.6,10.7,0.7,16.1c-3.1,2.2-5.1,1.6-5.9-2.2c-0.4-2-0.1-4.2-2.7-7.6c-0.5,19.3,0.9,37.2-0.6,54.9
		c-1.3,3.7-0.5,7.6-1,11.4C32.6,520.6,31.9,523,29.8,524.6z"/>
	<path class="st2" d="M148.1,494.3c-4.3-3.2-9.2-1.7-13.7-1.4c-4,0.3-2,4.4-2.8,6.7c-0.7,0.3-1.6,0.4-1.9-0.2
		c-1.6-2.6-3.3-2.2-5.5-0.6c-0.8,0.6-2.2,0.4-3.3,0.3c-2.3-0.5-3.2-2-1.9-4c1.6-2.3,2.6-5.4,5.9-6.2c4.9,0.5,7.8-0.5,5-6.3
		c-0.8-1.6-0.7-3.5-1.6-5.2c-0.2-0.6-0.1-1.3,0.1-1.9c1.9-2.6,4.7-4.1,7.2-6.1c3.8-1,3.5-3.5,2.3-6.3c-0.5-3.2-2.9-6.3-0.7-9.7l0,0
		c0.4-0.3,0.9-0.3,1.2-0.5c1.6-1.3,1.6-5.8,5-3c2.5,2,3.2,5.5,0.6,7.8c-2.8,2.5,2.9,2.5,0.8,4.3c0.2-0.9-0.1-2,0.7-2.8
		c0.5-0.5,1.2-0.4,1.8,0.1c0.4,3.6,2.8,7.1,0.8,10.9c-1.8,2.8-5.6,2.8-7.8,5.3c2.5,4.1,6.8,0.6,9.6,2.7c3.2,3.8,2,8.6,3.1,12.9
		C153.9,495.3,150.7,495,148.1,494.3z"/>
	<path class="st8" d="M655.2,448.7c0-5.1,0.2-10.2-0.1-15.3c-0.2-3.7,0.6-5.5,4.8-5.3c7.9,0.3,15.8,0.1,23.6,0.2
		c1.6,0,4-0.8,4.2,2.1c0.2,3.5-2.6,2.6-4.4,2.6c-5.5,0.1-11.1,0.3-16.6,0c-4.5-0.3-6.5,0.5-6.6,5.9c-0.1,5.6,2.1,6.8,6.9,6.2
		c2.3-0.3,4.6-0.1,6.9,0c1.4,0,2.7,0.1,2.9,2.1c0.2,2.3-1.2,2.7-3,2.6c-1.2,0-2.3,0-3.5,0c-11,0-10.9,0-10.1,11.2
		c0.2,2.9,0.9,4,4.1,3.8c6.9-0.3,13.9-0.1,20.9-0.1c1.7,0,4-0.6,4.2,2.2c0.2,2.9-2.2,2.6-3.9,2.5c-3.4-0.2-6.7,0.6-10.2-1
		c-4.9-2.2-9.6,2-14.9,1.3c-4.3-0.5-5.6-1.6-5.3-5.8C655.5,459,655.2,453.8,655.2,448.7z"/>
	<path class="st5" d="M202.9,449.2c0-5.5,0-11,0-16.5c0-2.4,0-4.5,3.6-4.3c3.1,0.1,4.3,1.2,4,4c-0.3,3.5-0.4,7-1.1,10.6
		c-1.2,5.8,0.5,12.3,1.5,18.4c0.2,1.6,2.4,1.5,4.2,1.4c5.7-0.2,11.4-0.2,17.1-0.3c2.5-0.1,3.8,0.8,3.8,3.6c0.1,2.9-1.3,3.8-3.8,3.5
		c-8.4-1.2-16.7,0.1-25.1,0.1c-3.5,0-4.3-1.3-4.2-4.5C203.1,459.8,202.9,454.5,202.9,449.2C202.9,449.2,202.9,449.2,202.9,449.2z"/>
	<path class="st9" d="M42.3,461.9c-0.6-5.5,1.9-11.5-2-16.6c0.5-1,1.4-1.7,2.1-2.6c9.9,1.7,8.2,9.4,8.5,16.1c1.6,2.5,2.2,5,0,7.4
		c0.5,3.3-1.6,6.9,1.4,9.8c0.4,7.7,2.4,15.5-2.2,22.7c-8.7,3.8-10.7,2.3-10.1-6.9c0.5-7.1,0.3-14.2,0.4-21.3
		C40.5,467.5,40.2,464.5,42.3,461.9z"/>
	<path class="st10" d="M336.7,442.5c0.2,1.8-1.8,3.4,0.3,5.6c4.6,4.8,4.4,10.4,1.3,15.8c-2.9,5-7.7,5.9-13.1,5.1
		c-0.8-0.1-1.7-0.1-2.6-0.1c-1.6-1.6-2.3-3.4-1.7-5.6c1.5-1.7,3.8-1.4,5.8-2c2.5-0.8,4.1-2.4,4-5c-0.2-2.8-2.4-4.3-4.8-4.1
		c-5.3,0.5-10.6-1.6-15.8,0.6c-1.3,0.5-2.2,1.6-3.2,2.4c-2.8,2.4-4.3,1.4-5-1.8c0-1.9-2.3-3.7,0.9-5.7c2.2-1.4,3-4.9,2.1-8.1
		c0.5-1.6,0.3-3.9,3.1-2.6c2.1,3.8,5.3,5.3,9.6,5c2.7-0.2,5.5,0.2,8,1.2c2.2,0.8,4.4,3.8,6.5-0.5C332.9,441,335,440.9,336.7,442.5z"
		/>
	<path class="st11" d="M50.9,466.3c0-2.5,0-5,0-7.4c5.2,0.2,10.5,0.6,15.7,0.6c2.7,0,5.1-0.6,1.9-3.7c-2.3-2.2-2.8-5-3.7-7.8
		c2.4-1.4,4.7-0.8,5.7,1.5c1.7,4,5.4,5.9,8.4,8.5c2.3,5.6,6.3,0.6,9.7,1.5c-3.4,4.7-8.9,3-14.1,4.8c4.7,3.3,8.7,0.7,12.6,0.3
		c1.7-0.1,3.6-1.7,4.2,1.1c0.6,3-2.2,2.7-3.7,2.7c-6.1,0-12.2,2.1-18.4,0.7c-3-0.7-6.2,1.3-8.2,2.2
		C54.3,474.7,52.4,471.5,50.9,466.3z"/>
	<path class="st12" d="M410.6,441.1c3.7,4,1.8,8.9,1.6,13.3c-0.3,6,1,9.1,7.9,8.1c4.3-0.6,8.7-0.2,13.1-0.2c2.4,0,4.6,0,4.8,3.5
		c0.2,3.3-1.6,3.8-4.3,3.8c-8.1,0-16.2-0.1-24.3,0.1c-3.2,0.1-4.6-0.8-4.4-4.3c0.2-7.2,0.2-14.4-0.1-21.6c-0.2-4.2,2.1-3,4.3-2.6
		C409.5,440.4,410.1,440.4,410.6,441.1z"/>
	<path class="st13" d="M466.3,428.5c1.5-1.1,3-0.7,4.4,0.2c2.2,2.5,5.4,2.3,8.2,3.1c5.3,2.2,6.6,6.3,5.1,11.5
		c-1.8,3.9-5.1,5.2-9.1,5.3c-4.6,0.1-9.3,0.3-13.9-0.1c-1.2-0.2-2.4-0.6-3.3-1.3c-2.1-2.6-1.7-5.7-1.7-8.7c0-4.3,1.6-7.2,6.2-7.7
		C463.9,430.6,465.4,430.2,466.3,428.5z"/>
	<path class="st14" d="M308.8,451c5.9-2.4,12,0,18-0.4c2.9-0.2,6.4,1.5,6.1,5.8c-0.2,4.3-2.1,6.9-6.7,6.8c-1.6,0-3.2,0.2-4.8,0.3
		c-3.5,0.4-1.2,4.1-3.1,5.4c-1-0.1-2.1-0.2-3.1-0.2c-2.3-2.5-5.9-3.9-7.3-7.3C305.9,457.8,306.9,454.3,308.8,451z"/>
	<path class="st15" d="M626.6,451.9c0,4.2,0.1,8.4-0.1,12.5c-0.1,1.9,1.6,5.2-2.6,5c-3.6-0.2-2.7-3.3-2.7-5.4c-0.2-4.4,0-8.8,0-13.2
		c0.1-6.6,1.7-13.4-2.6-19.5c-1.3-1.9,0.8-2.9,2.4-2.9c6.7-0.2,13.4-0.1,20.2-0.2c1.5,0,2.7,0.4,2.8,2.2c0.1,1.8-0.9,2.5-2.5,2.6
		c-4.6,0.2-9.2,0.2-13.9,0.4c-0.3,0-0.8,0.6-0.8,1c-0.1,5.8,0,11.6,0,17.4C626.8,451.9,626.7,451.9,626.6,451.9z"/>
	<path class="st16" d="M579.1,470.3c-14.8,1.6-19.7-2.7-19.6-17.2c0-6.9-0.1-13.9-0.1-20.8c0-1.7-0.7-3.9,2.3-4.1
		c3.1-0.2,3.2,1.9,3.2,4.1c0,7.2,0.1,14.4,0,21.5c-0.2,9.9,0.7,11,10.2,11.8c1.4,0.1,2.8,0.3,4.1,0.4
		C580.3,467.5,580.2,468.9,579.1,470.3z"/>
	<path class="st17" d="M121.9,498.2c0.5-0.9,1.4-0.8,2.2-1.1c3.7-1.5,4.4-1.3,7.5,2.5c0.7,6.2-0.5,12.9,4.3,18.2
		c-4,4.4-9.2,3.2-14.1,3.2C118.6,513.4,116.5,505.8,121.9,498.2z"/>
	<path class="st18" d="M460.6,446.8c4.8-0.1,9.6-0.3,14.4-0.3c3.5,0,6.4-0.7,8-4.1c1.6-1.4,2.1-4.9,5.5-2.8c0.7,3.6-0.6,7.4-3.3,8.5
		c-7.3,3.1-4.2,6.9-1.7,11.1c0.9,1.5,1.6,3.2,2.5,4.9c-2.6,1.4-5.4,0.8-6.1-1.3c-3.3-10.6-11.3-12.3-20.8-12
		C457.7,448.8,458.9,447.7,460.6,446.8z"/>
	<path class="st19" d="M325.1,445.1c-3.2-1.4-6.5-1.8-10-1.3c-5.2,0.7-8.1-1.3-8-6.9c-2.1-1.5-5.2-1.2-6.6-3.7
		c1.6-6.9,5.1-8.1,12.5-4.3c-0.2,1.1-1,1.5-2,1.6c-0.6,0.1-1.5-0.1-1.9,0.4c-0.8,1.1,0.3,1.5,1,1.8c2.1,1,4.3-0.1,6.5,0.4
		c4.4,1.2,9.5-0.8,13.3,3C333.8,442,330,443.9,325.1,445.1z"/>
	<path class="st20" d="M579.1,470.3c0-1.4,0-2.8,0-4.2c0.2-0.1,0.3-0.3,0.6-0.4c9-2.9,9.2-3.6,2.7-10.2c4.1,1.2,6,1.1,6-3.9
		c0-5-1.5-10.1,0.4-15c2.7,0.3,3,3,4.5,4.5c0.8,5.5,1.1,11,0.4,16.5C592.4,467.1,588.9,470.2,579.1,470.3z"/>
	<path class="st10" d="M543.3,439.4c2.8,0.7,3.1,3.1,3.4,5.4c1.5,11.5-6,27-21.9,25.9c-1.8-0.1-3.7-0.3-5.5-0.5
		c-0.9-0.9-0.8-1.8-0.3-2.9c1.3-1.8,3.3-2.6,5.3-2.9c10.2-1.4,15.4-7.3,16.2-17.4c1-1.6,1-3.3,0.6-5.1
		C540.7,440.5,540.8,438.6,543.3,439.4z"/>
	<path class="st21" d="M543.3,439.4c-1.5,0.9-1.7,1.8-0.3,3.2c2.1,2.1,1.6,3.6-1.4,4.1c-1.6-0.7-2.2-2.2-3-3.6
		c-4.8-8.9-12.8-11.1-21.6-6c-2,1.2-3.6,3.8-6.6,2.5c-1-1.1-1.4-2.3-0.9-3.8c4.1-6.6,10.7-9.9,18.2-8.2
		C534.6,429,541.9,430.6,543.3,439.4z"/>
	<path class="st22" d="M40.8,545.8c-11.3-1.7-21.9-5.5-32.5-9.4c-5.2-1.9-3.4-4.5,0.7-6.1c6.6-0.4,11.7,4.9,18.1,5.1
		c5.2,0.4,9.3,4.2,14.6,4.7c1.8,0.1,3.5,0.5,4.2,2.4c0.1,0.7,0,1.4-0.3,2.1C44.3,546,42.8,546.8,40.8,545.8z"/>
	<path class="st23" d="M78.9,458.1c-4.7,0.1-7.9-1.6-9.1-6.5c-0.6-2.4-2.1-4-5-3.6c6.9-1.1,13.8-3.1,20.9-1.2c3.2,2.8,3,5.6-0.1,8.3
		C83.5,456.3,81.6,458.2,78.9,458.1z"/>
	<path class="st24" d="M41.1,541.4c-5.1,0.4-8.7-4.2-13.7-4.3c-3.1-4-6.4-7.7-12.1-7.7c-0.9,0-1.5-1-0.9-2.1
		c5.4-2.3,11.2-0.6,16.7-1.3c2.1,1.1,3.2,3.7,6,3.6c1.3,0.3,2.3,1,3,2.1c0.2,3.6,4.7,4,5.5,7.2C45.3,541.9,42.2,539.9,41.1,541.4z"
		/>
	<path class="st18" d="M466.3,428.5c0.7,1.6,3.6,3.3-0.3,4.5c-2.7,0.8-6.9-1.9-8.1,1.4c-1.3,3.7-0.9,8.1,0,12.2
		c-0.3,2.7,0.9,6.1-3.2,7.2c-2.1-0.2-2.5-1.6-2.5-3.4c0-3,0-6-0.1-9C452,427.6,452,427.6,466.3,428.5z"/>
	<path class="st25" d="M148.1,494.3c1.6-0.4,4.7,0.1,4-2.3c-1.4-4.4,0.5-9.8-3.8-13.3c-2.6-2.6-1.4-5.8-1.4-8.8
		c2.2-3.5-0.4-7.1-0.1-10.6c0.2-0.2,0.4-0.4,0.7-0.5c0.3,0.1,0.5,0.3,0.8,0.4c1.9,7.9,3.7,15.8,5.6,23.7c-1.2,9.9,1.3,19.5,2.4,29.2
		c0.5,4,1.9,7.9-0.2,12.2c-1.1-7.6-2.7-15.1-3.2-22.7C152.5,497.6,151.3,495.6,148.1,494.3z"/>
	<path class="st26" d="M42.4,442.7c1.6,2.7-0.4,2.5-2.1,2.6c-3.3-2.1-7.6,2.2-10.5-1.7c1.9-6.4,4-12.7,7.9-18.4
		c3.9,2.3,2.6,6.2,2.8,9.7C40.7,437.6,38.4,440.9,42.4,442.7z"/>
	<path class="st27" d="M40.8,545.8c1.5-0.5,3-1.1,4.4-1.6c4.7-3.4,10.3-0.8,15.4-2.3c2.6-0.7,5.3-1.1,7.7-2.3
		c2.1-0.6,4.4,0.3,6.4-0.9c3.3-0.7,5.5-4.9,9.6-2.8c-0.3,0.9,3.8,2-0.2,2.9c-1.7,0.4-3.5,1.1-4,3.2
		C67.5,548.8,54.2,548.1,40.8,545.8z"/>
	<path class="st28" d="M554.3,541.5c-1.1,2.4-0.5,4.5,1.3,6.6c-3.8,1-6.5,1.9-5.6-4.1c0.6-3.8,1.1-8.1-1.6-12.6c3.3,0,6-0.2,8.7,0
		c3.6,0.3,6.3,2.6,4.3,5.9c-3.2,5.3,1.1,7.2,3.4,10.6c-6.6,2.6-6.2-4.7-9.4-6.7c-0.9-1.3,0.6-2.5,0.1-3.8
		C555.5,539.1,554.8,540.3,554.3,541.5z"/>
	<path class="st29" d="M279.4,548.7c-6.8,2.1-8.9,1.7-10.2-1.7c3.8-1.6,1.2-4.8,1.8-7.2c0.6-2.5-1.1-6,2.6-7.1
		c2.8-0.8,5.7-0.2,7.8,1.9c2.5,2.5,2.9,5.8,1.6,9C282.2,545.6,279.9,546.5,279.4,548.7z"/>
	<path class="st28" d="M514.4,547.1c0.5-5.1,1.6-10.2-1.4-15.6c4.8,1.2,11.1-3.1,13.7,3.3c3.6,8.7,2.3,11.8-3.8,14.6
		c-3.9-1.1,0.5-4-1.5-5.7c-2.1,1.1,0.9,4.7-2.1,5.2C517.6,549.1,515.2,550.2,514.4,547.1z"/>
	<path class="st22" d="M404.2,538.2c5.6,0.3,4.5-9.1,11-6.2c-7.4,6.6-7.4,6.6,0.6,16.2c-3.5,0.1-3.5,0.1-10.4-6.6
		c-2.9,2.2-0.1,4.4,0.1,6.6c-3.8,1-5.2,0.2-4.9-4.1c0.3-3.8,1.7-8.2-1.6-11.8C406.2,528.8,403.5,535.2,404.2,538.2z"/>
	<path class="st30" d="M227.9,541.5c-2.6,2.5,0.2,4.5,0.8,6.7c-4.4,1.7-5.8,0.6-5.3-4.3c0.4-3.8,1.4-8.1-1.9-12.3
		c3.4,0,6.4-0.2,9.4,0.1c3.4,0.3,5.6,2.9,4,5.7c-2.9,5.2,0.6,7.5,3.5,10.7c-6.7,2.9-6.1-4.7-9.4-6.5c-0.6-1.5,0.9-3.1,0-4.7
		C228.4,538.3,229.1,540.1,227.9,541.5z"/>
	<path class="st31" d="M519,467.5c0.1,0.9,0.2,1.9,0.3,2.8c-3.1,0.3-6.2-0.4-9.3,1.7c-3.5,2.4-5.6-1.1-8-3.1c-2.5-2.1-3-4.1-0.8-6.4
		c2.1-2.2-0.1-5.7,2.8-7.5c3.1,0.3,2.9,3.1,3.8,5c0.9,2,0.4,4.8,3.4,5.4c2.4,0.4,4.7,1.2,7.1,1.6C518.5,467.2,518.8,467.3,519,467.5
		z"/>
	<path class="st32" d="M279.4,548.7c-2.7-1.5,0.1-2,0.6-2.7c2.7-3.7,2.7-7.3,0-10.8c-1.3-1.8-3.3-2.8-5.5-2.3
		c-2.4,0.6-1.7,3-1.7,4.7c-0.1,2.5,0.2,5.1,0,7.6c-0.1,1.2,2.9,2.1,0.3,3.1c-1.3,0.5-3.3,1-4-1.4c0.3-4.9,1.4-9.9-1.1-15.2
		c5.6,0.5,12.6-2.9,16.2,4.2C287.1,541.2,284.5,545.8,279.4,548.7z"/>
	<path class="st33" d="M325.1,445.1c2.6-2.1,7.1-3.2,4.4-8.1c-0.6-1.2-0.5-2.4-0.2-3.6c0.3-0.9,0.8-1.7,1.4-2.4
		c5.8,0.2,7.9,4.3,5.9,11.5c-4.8-0.9-4.1,3.9-6.2,6C328,448.5,327.8,444.7,325.1,445.1z"/>
	<path class="st34" d="M14.5,527.3c0.1,0.2,0.3,0.6,0.4,0.5c5.1-1.4,7.9,3.7,12.5,4.3c3.8,0.5,1.3,3.2,0.1,4.9
		c-6.8-0.5-12.5-3.9-18.4-6.8C10.3,528.3,12.1,527.3,14.5,527.3z"/>
	<path class="st35" d="M454.7,453.8c2.7-1.7,1.2-5.2,3.2-7.2c0.9,0.1,1.8,0.2,2.8,0.3c-0.5,1.3-0.9,2.7-1.4,4
		c-3.4,3-1.1,6.9-1.7,10.3c-0.5,2.9,2.7,8.3-2.9,8.2c-4.8-0.1-2.2-5-2.4-7.8C451.9,458.8,451.3,455.6,454.7,453.8z"/>
	<path class="st36" d="M260.2,548.9c-2.4-1-5.2,1.8-5.1-2.5c0.1-2.4-1.4-3.6-4-3.5c-2.6,0.1-4,1.3-3.3,3.9c0.7,2.6-1.2,2-2.2,1.9
		c-2-0.3-0.8-1.4-0.4-2.4c2-4.9,5.6-9,6.8-16.2C255,537.1,257.4,542.5,260.2,548.9z"/>
	<path class="st37" d="M353.7,545.2c2-4.3,4-8.6,6.6-14.4c2.7,6.1,4.8,10.9,6.9,15.7c0.7,1.5,0.2,2.2-1.3,2.1c-1.2,0-2.3,0.4-3-1.6
		C360.7,541.6,358.9,541.5,353.7,545.2z"/>
	<path class="st38" d="M388,435.4c-1.2-1.8-3.1-3-5.2-2.7c-7.6,0.9-14.1-3.4-21.4-4c4.7,0.6,9.4-3.5,14.1-0.1
		c2.9,1.2,6.1,1.2,8.3,1.5c-2.1-0.5-5.3-0.2-8.3-1.5c2.3-3.1,6.1-1.1,9.2-2.9C388.1,423.8,390.5,430.2,388,435.4z"/>
	<path class="st39" d="M303.2,541.5c-1.7-0.1-3.4-2.5-4.9-0.5c-1.1,1.4-1.1,3.8,0.1,5.2c2.3,2.8,4.8-0.5,9.1-0.2
		c-4.9,4.2-9.2,1.5-12.9,2.6c0-4.5-0.2-8.5,0.1-12.5c0.1-1.5-2.6-4.2,0.3-4.1c3.4,0,7.8-2.7,10.5,1.8c0.2,0.3-0.5,1.1-0.8,1.6
		c-1.1,0.3-2.3-0.2-3.7,0.3C302.6,537.2,305.2,538.6,303.2,541.5z"/>
	<path class="st40" d="M37,530.2c-3.5,1-4,0.6-5.7-4.2c-0.5-0.4-1-0.9-1.4-1.3c2.2-5.8,0.1-12.2,2.9-17.9c1.5-0.4,1.8,0.5,2,1.6
		c-0.3,5.2-0.4,10.5,0.1,15c0.9-1.2-0.8-3.7,0.4-5.6c0.6-0.4,1.2-0.4,1.9-0.2c1.3,4.2,3.6,7.3,8.1,8.2c0.7,1.8-0.5,2.3-1.8,2.9
		c-1.8,0.5-3.6,0.6-5.3,0.1C36.3,528.2,37.3,529.7,37,530.2z"/>
	<path class="st41" d="M121.9,520.6c4.7-0.9,9.3-1.9,14-2.8c2.4,0.7,4.5,1.6,5.2,4.3c-3.9-1.8-8,1.6-10.2,1.3
		c-5.9-0.9-11.7,2.8-17.2-0.1c-0.9-1.2-0.7-2.6-0.5-3.9c0.2-1.5,0.3-3.5,1.8-4.1c2-0.8,2.4,1.4,3.4,2.5
		C119.4,518.8,120.2,520.3,121.9,520.6z"/>
	<path class="st42" d="M381.5,541.5c-0.7,2.4-0.6,4.7,1.7,6.6c-5.3,1.8-6,0-5.5-4.4c0.5-3.9,1-8-1.5-11.7
		c12.9-0.7,14.2,0.1,11.7,6.6c-1,0.4-1.7-0.1-2.4-0.7C380.6,535.1,383.7,541.2,381.5,541.5z"/>
	<path class="st43" d="M124.4,438c-0.7,0.8-1.4,1.7-2,2.6c-0.9,1.3,0.6,4.3-2.4,4c-3-0.3-2.2-2.9-2-4.9c0.2-3.2-3.3-4.1-4.1-6.7
		C120.5,429.3,122.4,430.2,124.4,438z"/>
	<path class="st44" d="M528.3,489.4c-0.7,1.7-1.4,3.4-2.6,6.1c-2.5-4.4-3.8-8-4.7-12.8c3.7,1.5,2.7,4.6,4.6,6.1c2-1,1-4,2.8-5.3
		c2.7,0.5,1.3,3.9,3.6,4.8c2-1.1,0.7-4.6,3.9-5.1c0.4,4.2-2.4,7.2-3,10.9C529.1,494,530.8,490.4,528.3,489.4z"/>
	<path class="st42" d="M328.3,539.9c0.2,2.3,0.3,4.3,0.5,6.2c0.1,0.8,1.5,1.5,0.2,2.2c-0.5,0.3-1.3,0.2-2,0.1
		c-2-0.2-0.8-1.3-0.8-2.4c0.1-4.6,2.1-9.5-1.2-13.8c5-0.9,10.5,7.7,9.5,15.6c-2.6-0.1-2.3-2.5-3.2-4
		C330.5,542.7,330.4,541,328.3,539.9z"/>
	<path class="st45" d="M331,434.1c-0.5,1-1,1.9-1.4,2.9c-4.1-3.6-9.7,0.5-14-2.7c-1-1.8-6.3,0.4-4.1-4.4c0.5-0.3,1-0.6,1.5-0.9
		c2.2-0.2,4.3-0.5,6.5-0.7C323,430.7,327.9,430.7,331,434.1z"/>
	<path class="st46" d="M583.1,532.4c5.2,0,10.3,0,15.5,0c-6.4,0.7-8.2,4.1-6.3,12.9c0.2,1,2.1,1.9,0.8,2.7c-1,0.7-2.7,0.6-4,0.3
		c-2-0.4-0.4-1.7-0.4-2.6c0-2.5,0.1-5.1,0.1-7.6C588.8,532.8,588.8,532.8,583.1,532.4z"/>
	<path class="st46" d="M210.1,548.1c-4.3,1.7-5.6,0.3-4.7-4.1c0.3-1.5,0.1-3.2,0.1-4.9c0-6.1,0-6.1-5.7-6.7c5.1,0,10.3,0,15.4,0
		C208.4,533.8,206.7,538.8,210.1,548.1z"/>
	<path class="st47" d="M488.5,439.7c-1.8,0.9-3.7,1.9-5.5,2.8c0.7-4.8-1.1-8.1-5.7-9.9c-0.8-0.8-0.7-1.6,0.1-2.3
		C484,428.2,487.1,430.8,488.5,439.7z"/>
	<path class="st48" d="M343.3,538.2c0.3,2.9,0.4,5.4,0.7,7.9c0.1,1.1,2.1,2.6-0.7,2.6c-1.3,0-3.7,1.3-3.6-1.5
		c0.1-1.8,0.7-3.6,0.1-5.4c-1.1-3.1-2.8,1.6-3.1,0.1c-0.7-3,1.9-5.4,2.7-8.2c0.4-1.3,1.5-2.8,3-2.1
		C346.2,533.3,341.5,536.4,343.3,538.2z"/>
	<path class="st49" d="M495,545.3c-2.2,6.4-7.3,2.7-10.6,3.1c-3.8,0.4-1-3.4-1.4-5.2c-0.6-3.1-0.4-6.3-0.6-9.5
		c0-0.6-2.2-0.8-0.7-1.7c1.1-0.6,2.7-0.4,4-0.3c1.1,0.1,1.1,0.7,0.9,1.8c-0.4,2-0.4,4.1-0.4,6.2C486.1,548.3,486.7,548.7,495,545.3z
		"/>
	<path class="st50" d="M412.9,493.8c-0.2-3.8-3.1-8,0.9-10.7c1.5-1,4.4-0.9,5.4,1.3C421.8,490.3,414.5,490.2,412.9,493.8z"/>
	<path class="st51" d="M290.9,494.6c-3.3-1.6-2.5-3.9-3.9-5.4c-0.9,1.8-1.7,3.4-2.5,5c-3.3,0.2-1.8-4.2-4.4-4.4
		c-0.4,1.4-0.7,2.9-1.1,4.3c-1.8-3.8-0.5-7.2,1-11.4c1.5,2.9,2.7,5.1,4.1,7.7c1.4-2.6,2.5-4.7,4.4-8.1
		C289.4,487,290.1,490.4,290.9,494.6z"/>
	<path class="st52" d="M257.1,459c1.2-1.4,2.9-1.2,4.5-1.2c4.8,0,4-2.5,2.4-5.4c3.7-3.3,6.9-1.8,9.8,1.1c0.4,0.6,0.7,1.3,1.1,1.9
		c-1.3,3.7-4.3,3.9-7.6,3.7C263.9,459.1,260.5,459.1,257.1,459z"/>
	<path class="st53" d="M472.7,495.3c-3.6-0.6-6.7-2.1-6.7-6.4c0-3.8,2.2-5.9,6.1-6c3.8-0.2,6.4,1.6,6.8,5.3
		C479.3,492.4,476.5,494.4,472.7,495.3z"/>
	<path class="st54" d="M642.8,482.8c3.3,0.2,5.7,2.2,5.8,5.9c0.1,4-2.6,6.5-6.6,6.3c-3.8-0.2-6.5-2.4-6.2-6.7
		C636.1,484.5,638.5,482.8,642.8,482.8z"/>
	<path class="st55" d="M403.7,489.1c-0.7,3.9-3.2,6.2-7.1,5.9c-3.4-0.3-6.1-2.4-5.8-6.4c0.3-4.2,2.9-6,7-5.7
		C401.5,483.1,403.4,485.4,403.7,489.1z"/>
	<path class="st56" d="M308.8,451c0,3.7-0.1,7.4-0.1,11.1c-0.5,0.6-0.9,0.6-1.3-0.1c-1.4,0.9-2,2.9-4.1,2.9
		c-0.7-1.2-1.8-2.1-2.9-2.9c0.5-2.9,1-5.7,1.5-8.6C306.4,459.1,306,450.6,308.8,451z"/>
	<path class="st57" d="M344.5,494.1c-5.7,1.6-8.2,1.1-8.1-4.1c0.1-4.4-0.5-8.9,6.4-6.8c1.4,1.5-8.2,2.2-0.3,4.2c1,0.2,0.6,1.3,0,1.5
		C335.9,491.2,341.1,492.6,344.5,494.1z"/>
	<path class="st12" d="M410.6,441.1c-0.5,0-1,0-1.5,0c-2.1-3.3-5.8-5.9-4.2-10.7c0.6-1.8,1.4-2,2.9-1.9c0.7,0.5,0.5,1.4,0.8,2.1
		c0.5-0.6,0-1.5,0.5-2.1C413.2,429.7,413.9,435.2,410.6,441.1z"/>
	<path class="st58" d="M514.4,547.1c0.6,2.4,2.5,1.7,3.9,1.4c2.2-0.4,0.4-1.6,0.2-2.5c-0.4-2-1-4.3,1.2-5.6c1.7-1.1,3.3,0.3,4.3,1.4
		c1.8,2.2,1.2,4.2-1.2,5.8c-0.3,0.2,0.1,1.2,0.1,1.9c-2.9,0.1-5.8,0.6-8.5,0.2C511.9,549.3,513.7,548,514.4,547.1z"/>
	<path class="st59" d="M268.1,491.3c0.8,4.3-2.5,3.6-4.7,3.7c-2.6,0.2-3.8-1.6-3.4-4c0.4-2.7-1.8-6.5,1.9-7.9c2.3-1,5.6-1.3,6.5,2.7
		C264.6,487.5,263.2,489.3,268.1,491.3z"/>
	<path class="st60" d="M509.6,435.7c0.4,0.8,0.8,1.7,1.3,2.5c0.7,5.5-1.7,10.5-2.7,15.7c-2,1-3.2,0-4.1-1.8
		C501.5,445.2,507.3,441,509.6,435.7z"/>
	<path class="st61" d="M307.4,462c0.4,0.1,0.8,0.2,1.3,0.1c4.3,0.1,5.1,3.7,6.5,6.7C307.2,471.5,307.1,471.4,307.4,462z"/>
	<path class="st62" d="M504,452.2c1.2,0.9,2.4,1.7,4,1.5c2.1,0.7,2.8,2.4,3.3,4.3c-0.9,2.5,0.2,5.1-0.5,7.6
		c-0.3,1.1-0.3,2.8-0.8,3.1c-1.3,0.5-1.8-0.8-2.1-2c-1.2-3.9-2.6-7.7-3.9-11.6C504.1,454,504,453.1,504,452.2z"/>
	<path class="st63" d="M638.7,549c-3.7,0.1-5.9-0.4-5-4.5c0.5-2.4,1-5.7-0.2-7.4c-2.1-2.9-0.2-3.4,1.5-3.8c2.8-0.5,1.7,2,1.9,3.3
		C637.3,540.6,635.6,544.9,638.7,549z"/>
	<path class="st64" d="M316.9,488.5c0.2-2.6-1-5.9,3.7-5.6c3.8,0.2,6.2,1.8,6.3,5.8c0.1,4.1-2.2,5.5-6.1,5.8
		C315.6,494.9,317.2,491.2,316.9,488.5z"/>
	<path class="st65" d="M307,494.2c-3.2-3.7-6.1-4.4-9.5,1.5c0.2-5.8,3.1-8.8,4.3-13.2C304.8,486.3,306,489.9,307,494.2z"/>
	<path class="st58" d="M268.1,491.3c-1.6,0.6-3.7,2.5-4.8,0.6c-0.9-1.5-1-4.2-0.3-5.9c1.2-2.9,3.5,0.1,5.3-0.2
		C270.3,487.7,270.2,489.5,268.1,491.3z"/>
	<path class="st66" d="M85.6,455.1c0.8-2.8,1.1-5.5,0.1-8.3c2-1.4,4.3-1.5,6.4-1c2.5,0.6,2.4,2.1,0.5,3.6
		C89.4,450.2,91.3,457.4,85.6,455.1L85.6,455.1z"/>
	<path class="st67" d="M227.3,482.6c1.9,4,3.5,7.4,5.1,10.9c-3.6-2.4-6.7-4.1-9.8,0.9C223,490,224.8,486.5,227.3,482.6z"/>
	<path class="st68" d="M593.1,441.1c-2-1-3.3-2.6-4.5-4.5c-0.1-1.6-0.3-3.2-0.4-4.8c-0.1-2,0.2-3.7,2.9-3.5c2.9,0.2,2.3,2.1,2.2,4
		C593.3,435.2,593.2,438.2,593.1,441.1z"/>
	<path class="st69" d="M656,538.4c2.3,3.5,5.4,7-0.2,10.4c-2.8-1.7-2.1-6.1-5.6-7.3c-1.7-2.6-3.3-5.2,0.1-7.7
		C652.2,535.2,654.1,536.8,656,538.4z"/>
	<path class="st70" d="M331,434.1c-3.8-2-9.4-0.5-11.5-5.9c4.1-0.5,8.1-0.7,11.3,2.7C330.8,432,330.9,433,331,434.1z"/>
	<path class="st71" d="M580.7,494.4c0-4.1,0-7.3,0-11.7c3.3,6.3,6.3,5.9,9.3,0.2c0,4.2,0,7.5,0,11.2c-2.4-1.6-1-5.6-4.8-5.3
		C582,489,583,492.2,580.7,494.4z"/>
	<path class="st72" d="M386.6,537c0.5,0.5,0.9,1,1.4,1.6c-1.4,4.2,1.9,6.4,4.4,9.6c-6.8,2.1-6.3-5-9.5-7
		C382.1,538.1,383.9,537.2,386.6,537z"/>
	<path class="st73" d="M656,538.4c-3.9,1-5.7-0.7-5.7-4.6c0.9-2.9,3.2-2.7,4.9-1.4C657.1,533.8,657.7,536.1,656,538.4z"/>
	<path class="st74" d="M650.1,541.5c5,0,7,2.3,5.6,7.3c-1.9,1.8-3.8,1.7-5.6,0c-0.1-2.5-2.3-4.9,0.1-7.4L650.1,541.5z"/>
	<path class="st75" d="M300.5,433.2c1.7,2.2,6.8-1.8,6.6,3.7c-0.8,0.9-1.6,1.8-2.4,2.7C297.2,441.6,301.3,435.8,300.5,433.2z"/>
	<path class="st76" d="M303.2,541.5c0.1-1.3,0.6-3.5-0.9-3.5c-1.9,0.1-3.9,2.2-4.6-1.3c-0.2-1.2-0.6-3.1,1.2-3.4
		c2.2-0.5,4.7-0.9,5.7,2.1C304.2,537.4,305.7,539.9,303.2,541.5z"/>
	<path class="st77" d="M204,482.9c2.8,5.7,5.4,6,8.3,0.6c1,3.7,0.8,6.9,0.1,10.3c-2.3-1-0.3-4.8-3.9-5c-4.1-0.3-2,4-4.3,5
		C203.1,490.6,203.5,487.4,204,482.9z"/>
	<path class="st64" d="M566.1,494.5c-2.1-4,1.1-8.3-3.1-10.8c2.1-1.3,4.2-0.8,7.1-0.3C565.5,486,568.8,490.7,566.1,494.5z"/>
	<path class="st78" d="M687.9,545.6c0.5-1.5,0.8-3.1,1.6-4.4c2.3-3.7,1.6-6.2-3.1-7.4c2.7-1.6,5.3-2.2,6.9,0.3
		c1.4,2.1,0.5,4.5-1,6.4c-1.4,1.8-3,3.4-4.5,5.1L687.9,545.6z"/>
	<path class="st79" d="M318.2,469c0.8-2.6-2.6-3.6-2.5-6c2.1-1.7,3.8-0.4,5.6,0.6c0.4,1.8,0.8,3.6,1.3,5.4
		C321.1,469.3,319.7,470.7,318.2,469z"/>
	<path class="st80" d="M227.9,541.5c-0.1-0.9-0.1-1.8-0.4-2.6c-0.7-2-1.4-4,0.5-5.6c1-0.9,2.2-0.1,2.9,0.8c1.9,2.3,1,4.1-1.1,5.7
		c-0.4,0.3-0.5,1.1-0.8,1.7l-0.5,0L227.9,541.5z"/>
	<path class="st81" d="M102.6,453.6c-0.1-1-0.1-1.9-0.2-2.9c1.9-1.3,3.8-2.6,5.7-3.9c0.9,0.9,1.7,1.7,2.6,2.6
		C108.5,451.9,108.4,458.2,102.6,453.6z"/>
	<path class="st82" d="M453.4,494.2c-0.9-3.9-2.3-7.3-4.2-10.5c4.1,2.7,4.1,2.7,8.4-0.5C456.3,487.3,452.7,489.9,453.4,494.2z"/>
	<path class="st83" d="M386.6,537c-1.2,1.4-2.5,2.8-3.7,4.3c-0.5,0.1-0.9,0.2-1.4,0.2c-0.1-1.1-0.5-2.3-0.3-3.4
		c0.2-1.8-1.4-4.6,1.5-5.1C385.2,532.5,385.8,535.1,386.6,537z"/>
	<path class="st84" d="M607.4,428.6c4.1,0.6,7.1-1.9,9.6,1.2c0.4,0.4-0.4,2.6-1,2.9C612.4,434.2,610.8,431,607.4,428.6z"/>
	<path class="st85" d="M246.7,490c-0.9-0.7-1.8-1.4-2.7-2.1c-1.8,1.5,0,3.9-2,6.3c0-4,0-7.2,0-11.7c2.6,2.8,4.6,5.1,6.7,7.4
		C248,490.4,247.3,490.4,246.7,490z"/>
	<path class="st86" d="M554.3,541.5c-0.1-0.9-0.1-1.8-0.3-2.7c-0.4-2-1.1-4.1,0.7-5.6c0.8-0.7,2.3-0.1,3,0.8
		c1.5,2.2,1.1,4.2-1.2,5.7c-0.5,0.3-0.6,1.1-1,1.7l-0.6,0.1L554.3,541.5z"/>
	<path class="st87" d="M375.3,493.8c1.3-4.1-3.6-10.3,5.9-11.1c-2.6,1.9-3.1,3.3-1.6,4.5c1.1,0.9,1.1,1.4-0.1,1.4
		C376,488.8,378.1,492.7,375.3,493.8z"/>
	<path class="st88" d="M661.5,493c-0.3,1.7-1.4,2.1-2.1,0.7c-1.5-3.2-3.6-6.3-3.7-10.7c3.4,1.7,2.9,5,4.2,7.1
		C661.1,490.7,662.3,491.3,661.5,493z"/>
	<path class="st89" d="M673.7,538.5c0.1-7.3-4.3-1.9-6.9-2.5c1-5.5,5.7-3.6,7.8-2.8c3.3,1.2,1,3.8-0.4,5.7L673.7,538.5z"/>
	<path class="st90" d="M674.2,538.9c-0.5,2.7-1.1,5.3-1.6,8c-0.2,1.3,0.1,3.1-1.9,2.9c-2.4-0.3-1.5-2.4-1.3-3.8
		c0.5-2.9,2.1-5.4,4.2-7.5C673.7,538.5,674.2,538.9,674.2,538.9z"/>
	<path class="st71" d="M681.9,483.2c-5.6,2-4.1,3.5-0.4,4.9c-2.9,0.7-4,2.8-4.5,5.7C677.7,489.8,672.3,483.5,681.9,483.2z"/>
	<path class="st91" d="M492,494.5c-7.6-0.8-5.1-6.1-5.1-11.3C490.4,486.7,485.3,493.2,492,494.5z"/>
	<path class="st35" d="M477.4,430.3c0,0.8-0.1,1.5-0.1,2.3c-3.1,0.2-7,1.6-6.6-3.9C473,429,475.5,428.5,477.4,430.3z"/>
	<path class="st23" d="M85.6,455c2.2-0.2,4.3-0.7,3.9-3.6c-0.4-3.1,1.8-1.8,3.1-2c-0.2,1.6-3,4.1,1.4,4.3
		C91.3,454.8,88.9,458.1,85.6,455z"/>
	<path class="st92" d="M620.3,482.9c2.3,4.1-0.6,8.7,4.2,11.2C618.9,493.5,618.7,493,620.3,482.9z"/>
	<path class="st93" d="M246.7,490c0.7,0,1.3-0.1,2-0.1c2.8-1.3,0.2-4.3,2.4-6.4c0,3.6,0,6.9,0,10.4
		C248.9,493.3,247.9,491.5,246.7,490z"/>
	<path class="st94" d="M661.5,493c-0.5-1-1.1-2-1.6-3c2.7-1.4,1.5-5.2,5.9-7.7C664,486.8,662.8,489.9,661.5,493z"/>
	<path class="st95" d="M300.3,462c1.2-0.2,2.8-1,3.5-0.5c1.4,1-0.7,2.2-0.6,3.4c-0.8,1-1.6,2-2.9,3.7
		C300.3,465.9,300.3,463.9,300.3,462z"/>
	<path class="st69" d="M650.2,541.3c-0.2,2-0.8,3.9,1,5.6c1.7,1.6-0.3,1.4-1.1,1.8C647.3,546.2,645.1,543.7,650.2,541.3z"/>
	<path class="st96" d="M409,428.5c0.3,0.8,1,1.7,0.9,2.4c-0.3,1.4,0.5,3.4-1.6,4.1c-0.4,0.1-1,0-1.3-0.2c-1.6-1.6,0.1-2.9,0.5-4.3
		c0.2-0.6,0.1-1.3,0.2-2C408.1,428.2,408.6,428.2,409,428.5z"/>
	<path class="st97" d="M687.8,545.5c2.1,2.4,4.6-0.2,7.3,0.5c-2.4,4.5-6.2,2.8-9.1,2.2c-1.1-0.2-0.1-2.6,1.9-2.5
		C687.9,545.6,687.8,545.5,687.8,545.5z"/>
	<path class="st0" d="M45.3,526.2c-5.9,0.5-10.1-0.7-8.1-8.1c4.2-2.2,0.5-7.1,3.4-9.8c7.5,0.6,6.1-6.6,8.9-10.1
		c1.5-5,0.7-10.1,0.8-15.1c0-2.5-0.5-5.1,2-6.9c13.2-3.3,26.5-4.4,39.9-1.5c4.4,0.9,8.6,2,10.5,6.9c-0.2,8.8-0.4,17.6-0.6,26.5
		c-2.6,9.9-4.4,11.4-14.6,11.6c-6.4,0.1-12.8-0.6-18.9,2.2c-1.3,0.7-2.7,1.2-4.1,1.7C58.2,524.7,52.2,528.8,45.3,526.2z"/>
	<path class="st4" d="M67.2,520.4c6.2-3.2,12.9-2.4,19.5-2.6c5.8-0.2,12.9,1.5,12.4-8.3c0-0.5,1.9-1,2.9-1.6c2-1.8,3-4.1,2.5-6.7
		c-0.8-4.1,1.7-5.6,6.3-7.6c-2.6,7.3-0.3,13.4,1.9,19.6c1.7,0.2,2-1.3,2-3c0.1-4.6,0.5-9.3,0-13.8c-1.1-9.6,1.7-16.6,11.3-20.1
		c-0.5-0.5-0.7-1.1-0.4-1.7c0.5-0.5,1.1-0.7,1.8-0.6c1,0.5,1.5,1.2,1.5,2.3l0,0.4c-0.4,4.5-3.2,8.4-2.9,13.1
		c-3.6,1.1-3.6,5.3-6.4,7.1c0.7,0.4,1.5,0.8,2.2,1.2c-2.5,7.5-0.1,14.9,0,22.4c-5.7,3.9-4-3-6.4-3.8c-0.5,1.8-1.2,4.1-1.8,6.4
		c0,0-0.3,0.3-0.3,0.3c-5.5,1.4-10.6,3.3-16.1-1.1c-3.6-2.9-8.4-0.7-12.6,0.5c-0.7,0-1.4-0.1-2.1-0.3
		C77.5,521.6,71.9,524.1,67.2,520.4z"/>
	<path class="st98" d="M102.6,453.6c4.2,1.4,5.1-3.4,8.1-4.2c0.6,2.1,5.3,3.3,1.3,6.3c-0.4,0.3-0.4,1.7-0.2,1.8
		c4.7,2.7,4,5.5,2.8,10.6c-0.7,3.3-4.2,3.5-3.8,6.3c-1.7-4.3-7-2-9.7-5.4c-1.5-1.9-4.8-2.3-7.6-3.5
		C96.6,461.5,99.6,457.6,102.6,453.6z"/>
	<path class="st99" d="M126.7,474.6L126.7,474.6c-4.2,0.8-6.6-1.3-5.4-5.2c1.6-4.9-2.5-10.9,3.1-15c0.4-0.3-1.5,0-1.4-1.2
		c-1.6-3-6.1,2.6-7.1-2.3c-0.3-1.2,0.5-1.8,1.4-1.9c3.6-0.6,7.3-3.5,10.6,0.8c0.7,0.9,1.6,1.6,2.4,2.3c1.4,1.4,4.1,0.9,4.7,3.4
		c0.1,0.6,0.1,1.3,0.1,1.9c-0.1,3.6-2.3,6.7-1,11C135.3,472.9,130.7,474.3,126.7,474.6z"/>
	<path class="st100" d="M146.8,459.3c-2.1,1.4-0.6,4-1.8,5.6c-1.9,0,1.3-5.8-3.4-2.9c-0.2,0.1-1.2-2.7,0.6-3.8
		c3.2-1.8,2-4.2,0.9-6.5c-0.2-0.5-1-1.2-1.3-1.1c-0.5,0.1-1.4,1-1.3,1.3c2.2,6.5-1.8,2-3.2,1.8c2.8-8.8,2.7-9.1-5.9-10
		c2.8-4.4,6.3-3.4,10-1.4c1.4,2,2.5,5.4,5.6,1.6c1.3,1.2,1.4,2.6,0.4,4.1c-0.5,0-1,0.1-1.5,0.1c-1.2,3.9,3.4,7.1,1.4,11.2
		L146.8,459.3z"/>
	<path class="st101" d="M147.2,447.9c-0.1-1.4-0.2-2.7-0.4-4.1c2.3-2.6,4.2-2.3,5.7,0.8c2.4,4.8,3,10.1,3.6,15.4
		c0.2,1.4-0.2,3.1-1.9,3.2c-2.9,0.2-1.6-2.1-1.6-3.5C152.7,455,151.6,450.7,147.2,447.9z"/>
	<path class="st102" d="M141.3,442.3c-3.2,1.3-7.1-1.9-10,1.4c-1.6-4.5,2.3-5.7,4.9-7.2c2.1-1.2,5-1.9,6.9,0.6
		C144.7,439.3,142.7,440.8,141.3,442.3z"/>
	<path class="st103" d="M123,453.3c1.3,0,2.6,0,6.1,0c-10.9,3.6-3.5,11.6-7,16.9c-1.7,2.6,2.5,3.4,4.7,4.4c-0.2,0.6-0.5,1.3-0.7,1.9
		c-4.7-0.6-7.8-2-5.7-7.9C122.2,463.7,117.9,457.7,123,453.3z"/>
	<path class="st100" d="M137.2,453.6c0.9,3.4,1.7,6.7,2.6,10.1c-1.3,2.3-0.4,6.8-5.4,5.3c-1.3-4.2-1.1-8.5,0-12.7l0,0.1
		c0.7-0.8,0.3-2,1.1-2.7C136.1,453.7,136.7,453.7,137.2,453.6z"/>
	<path class="st104" d="M135.6,453.8c0.1,1.1,0.4,2.3-1.1,2.7c-0.7-1.7-1.8-2.6-3.9-2.5c-2.2,0-1-1-0.2-1.8c2.8,0.4,1.9-1.2,1.9-2.9
		c-0.1-1.9,0.7-4.1,3.1-3.6c3,0.7,1.1,2.8,0.7,4.4C135.7,451.3,134,452.4,135.6,453.8z"/>
	<path class="st98" d="M112.2,477.4c2.8,0.4,2.2-3.2,5.1-3.8c-1.2,4.4-1.7,8.6-5.8,11.5C111.7,482.2,111.9,479.8,112.2,477.4
		C112.2,477.4,112.2,477.4,112.2,477.4z"/>
	<path class="st105" d="M147.2,459.2c0.8-3.9-4.4-7-1.4-11.2c1,3.7,3.1,7.1,2.5,11.1C147.9,459.2,147.5,459.2,147.2,459.2z"/>
	<path class="st106" d="M84.3,521.9c6.1-3,11.6-4.4,17.6,1.4c1.9,1.9,7.6-0.9,11.5,0.2c0.9,1.6,2.4,3.7-1,3.9
		c-5,0.2-10.6,1.3-15.1-0.4c-9.7-3.7-4.5,3-4.8,6l-0.1,0c-1.3,0-2.7,0.1-4,0.1c-0.5,0.5-1.1,0.5-1.7,0.2c-1.2-0.9-2-2.4-1.1-3.5
		C88.1,526.6,85.6,524.4,84.3,521.9z"/>
	<path class="st107" d="M87.1,533c0.4,0,0.9,0,1.3,0.1c0.1,3-2.2,2.7-4.1,2.8c-3.8,0.3-6,4.3-10,4.2c-3.4-1.6-8.5-1.5-7.9-7.4
		C73.4,530.1,80.3,530,87.1,533z"/>
	<path class="st107" d="M92.5,533c6.2-1.2,12.4-1.6,18.6-1.2c2.4,0.1,4.4-0.6,6.3-2.3c1.1-0.9,2.9-1.6,4.5-0.8
		c0.5,0.2,1,1.2,0.9,1.7c-0.7,2.1-2.8,2.4-4.5,2.5c-4.4,0.3-8.8,0.6-13.2,0.1C100.8,532.6,96.6,536.5,92.5,533
		C92.4,533,92.5,533,92.5,533z"/>
	<path class="st108" d="M273.9,453.6c-3.2-1-6.4-2.3-9.8-1.1c-1.9-0.6-5.2-0.1-2.9-3.9c0.6-1,0.7-2.2,1.3-3.1
		c1.2-1.9-1.1-6.6,3.4-5.5c3.6,0.9,8.1,2,7.7,7.6C273.4,449.5,273.7,451.6,273.9,453.6z"/>
	<path class="st109" d="M49.5,498.2c0.4,11.2,0.4,11.2-9.5,11.5c-2.2,0.7-0.1,4.6-3.4,4.5c-3-1.1-3.5-3.3-2.8-6.1
		c-0.4-0.5-0.8-0.9-1.2-1.4c0-13.4,0-26.7-0.1-40.1c0-3,0.6-6-0.7-8.9c-2-4.6,1-6.6,4.4-8.6c0.6,3.7,4.1,6.5,2.5,10.9
		c-0.8,2.2,2,1.7,3.5,1.8c-0.2,11.3,0,22.6-0.7,33.8C41.1,502.7,46.8,497.5,49.5,498.2z"/>
	<path class="st110" d="M126,489.9c-3.4-5.3-0.4-9.2,2.9-13.1c3.2,2.5,4.1,6.9,4.7,9.9C134.2,490.1,130.5,493.3,126,489.9z"/>
	<path class="st111" d="M146.9,469.9c2.7,2.6,1.7,5.7,1.4,8.8c-1.8,0.5-3.5,1.2-5.3,1.3c-2.9,0.1-5-1.6-5.4-4.4
		c-0.4-3,2.6-1.7,4-2.5C143.4,472.1,145.1,470.9,146.9,469.9z"/>
	<path class="st103" d="M134.5,456.4c0.6,4.2-1.7,8.8,1.4,12.8c0.4,0.3,0.6,0.6,0.4,0.9c-0.2,0.3-0.3,0.5-0.5,0.5
		c-1,3.4-4.8,3.7-6.9,5.8c-0.7-0.6-1.5-1.2-2.2-1.8c2.5-1.9,7.1-1.6,6.4-6.7C132.4,462.2,132.5,462.2,134.5,456.4z"/>
	<path class="st112" d="M135.9,470.6c0-0.5,0-0.9,0-1.4c1.3-1.8,2.6-3.6,3.9-5.4C141.8,467.9,141.6,470.8,135.9,470.6z"/>
	<path class="st113" d="M311.5,429.9c-0.4,3.1,3.5,2.3,4.1,4.4c-2.2-1.1-4.9,3.3-7-0.6c-0.8-1.4-5,0-3.5-3.3
		C306.5,427.3,309.1,427.5,311.5,429.9z"/>
	<path class="st31" d="M510.9,457.9c-0.9-1.4-1.9-2.8-2.8-4.3c-2.4-5.7,1.7-10.3,2.8-15.4c0.8,0.9,1.6,0.6,2.4,0
		c12.8-10.3,24.3-6.9,28.4,8.4c-1,13.7-4,17-17.4,19.3c-1.8,0.3-3.5,1-5.2,1.5c0,0,0.2,0.1,0.2,0.1c0.7-2.4-1.6-2.2-2.7-3
		C514.1,462.8,511.9,460.9,510.9,457.9z"/>
	<path class="st114" d="M41.1,541.4c0.9-1.7,3.6-1,4.2-3.1c5.5-2.4,9.9,0,14.2,3.1c0.2,0.9-0.1,1.6-1,1.9c-4.4-0.4-8.9,1.2-13.2-0.9
		C44.1,541.2,42.5,541.5,41.1,541.4z"/>
	<path class="st115" d="M45.3,542.5c4.7,0,9.4,0,14,0c1-0.5,1.9-0.4,2.5,0.6c-5.4,2.4-11.1,0.5-16.6,1
		C45.3,543.6,45.3,543.1,45.3,542.5z"/>
	<path class="st116" d="M66.1,534.5c2.9,1.6,6.5,2.2,8.3,5.6c-1.8,2.7-3.6,0.2-5.5-0.1c-2.1,1.5-4.1,0.5-6.2,0.1
		c-5.5-1.5-11-3.2-16.5-4.6c-2.4-0.6-5.1-0.8-6.3-3.5c-1-0.6-1.9-1.2-2.9-1.8c0.4-0.9-3.9-2.1,0.1-2.7c1.7-0.3,3.6,0.1,5.4,0.2
		C50.2,530.4,58.9,529.6,66.1,534.5z"/>
	<path class="st117" d="M39.9,532c7.8,2.3,15.6,4.5,23.4,6.8c0,3.3-1.8,3.7-4.4,2.9c-4.5-1.1-9.1-2.2-13.6-3.3
		C44.1,535.7,36.8,538.2,39.9,532z"/>
	<path class="st118" d="M58.9,541.6c2-0.2,3.6-0.8,4.4-2.9c1.9,0.4,3.7,0.9,5.6,1.3c-1.1,3.8-4.7,2-7,3.1c-0.8-0.2-1.7-0.4-2.5-0.6
		C59.2,542.2,59.1,541.9,58.9,541.6z"/>
	<path class="st119" d="M520.5,532.9c1.9,0.3,2.8,1.4,3,3.2c0.2,2.1-1,2.9-2.9,2.8c-2.2-0.1-2.6-1.5-2.5-3.3
		C518.3,534.1,518.7,533,520.5,532.9z"/>
	<path class="st120" d="M510.9,457.9c2.9,2.1,4.8,5.3,8.3,6.7c2.4,0.9,0.6,2-0.1,3c-3.8,3.3-5.7-0.7-8.3-2.1
		C508,463,507.5,460.4,510.9,457.9z"/>
	<path class="st121" d="M375.6,428.5c3.5,0,6.9,0,10.4,0c1.6,0,2.8,0.6,2.4,2.4c-0.3,1.7-1.5,1.1-2.7,0.9
		C382.1,431.3,378.5,431.2,375.6,428.5L375.6,428.5z"/>
	<path class="st4" d="M66.1,534.5c-7.9-2.2-16.6-1.5-23.6-6.8c1-0.5,1.9-1,2.9-1.5c6.5-1.4,13-2.7,19.5-4.1c0.9,2.3,2.5,3.6,4.8,2.2
		c4.6-2.7,9.8-1.7,14.7-2.4c0,0,0,0,0,0c4.3,1.5,6,3.9,2.6,8c-0.9,1.1-0.2,2.1,0.2,3.1C80.1,533.9,72.9,531.5,66.1,534.5z"/>
	<path class="st122" d="M33.9,508.1c0.1,2.2,1,4.2,2.6,5.8c2.1,1.8,0.5,2.7-0.9,3.7c0,2.4,0,4.9,0,7.3
		C33.8,519.4,30.8,513.9,33.9,508.1z"/>
	<path class="st123" d="M35.6,517.6c0.3-1.2,0.6-2.5,0.9-3.7c2.4-0.4,1-4.1,3.6-4.3c2.9,4.2,3,7.3-2.9,8.4
		C36.7,517.9,36.1,517.8,35.6,517.6z"/>
	<path class="st124" d="M471.9,492.9c-2.4-0.4-4-1.9-3.7-4.6c0.3-2.1,1.8-3.9,4.2-3.8c2.6,0,4.4,1.8,4.3,4.3
		C476.6,491.3,474.9,493,471.9,492.9z"/>
	<path class="st58" d="M642.2,492.9c-2.8-0.4-4.4-1.7-4.3-4.2c0.1-2.7,1.7-4.4,4.4-4.3c2.7,0.2,4,2.2,3.8,4.9
		C645.9,491.9,644.1,492.8,642.2,492.9z"/>
	<path class="st29" d="M396.7,492.9c-2.5-0.4-4.2-2-3.9-4.7c0.3-2.2,1.8-3.9,4.2-3.8c2.7,0.1,4.4,1.9,4.3,4.4
		C401.4,491.4,399.6,493,396.7,492.9z"/>
	<path class="st125" d="M320.9,484.4c2.3,0.4,3.9,1.7,4.1,4c0.2,2.3-1,4.1-3.4,4.4c-2.6,0.4-3.1-1.4-2.9-3.5
		C318.9,487.5,317.7,485,320.9,484.4z"/>
	<path class="st106" d="M84.2,521.9c-5.1,3.5-11.5,2.1-17,4.5c-4,1.7-4.5-1.2-2.5-4.3c0.8-0.6,1.7-1.1,2.5-1.7
		C72.9,521.5,78.8,518.7,84.2,521.9z"/>
</g>
</svg>
