<?xml version="1.0" encoding="utf-8"?>
<!-- Generator: Adobe Illustrator 21.1.0, SVG Export Plug-In . SVG Version: 6.00 Build 0)  -->
<svg version="1.1" id="Layer_1" xmlns="http://www.w3.org/2000/svg" xmlns:xlink="http://www.w3.org/1999/xlink" x="0px" y="0px"
	 viewBox="0 0 900 596" style="enable-background:new 0 0 900 596;" xml:space="preserve">
<style type="text/css">
	.st0{fill:#FCFCFC;}
	.st1{fill:#545E67;}
	.st2{fill:#010201;}
	.st3{fill:#545F67;}
	.st4{fill:#535E67;}
	.st5{fill:#FBFBFB;}
	.st6{fill:#F8F8F7;}
	.st7{fill:#C81B15;}
	.st8{fill:#010301;}
	.st9{fill:#FDFDFD;}
	.st10{fill:#F8F8F8;}
	.st11{fill:#F2F3F3;}
	.st12{fill:#F2F4F3;}
	.st13{fill:#EFF0EF;}
	.st14{fill:#F0F2F2;}
	.st15{fill:#EEEFEE;}
	.st16{fill:#D5D8D5;}
	.st17{fill:#DEE0DF;}
	.st18{fill:#E1E3E0;}
	.st19{fill:#D8DBD8;}
	.st20{fill:#D5D7D6;}
	.st21{fill:#9BA19D;}
	.st22{fill:#020402;}
	.st23{fill:#1B1C1C;}
</style>
<g>
	<path class="st0" d="M534.6,579.7c-177.3,0-354.7,0-532,0c-1.8,0-2.2-0.4-2.2-2.2c0-186.3,0-372.7,0-559c0-1.8,0.4-2.2,2.2-2.2
		c299,0,598,0,897,0c1.8,0,2.2,0.4,2.2,2.2c0,186.3,0,372.7,0,559c0,1.8-0.4,2.2-2.2,2.2c-111.2,0-222.3,0-333.5,0
		c-0.3-1.1,0.6-1.6,1.3-2c5.2-3.5,8.3-8.7,10.8-14.2c4.3-9.2,8.6-18.4,13.1-27.5c1.4-2.7,2.4-5.6,4-8.2c4.5-7.3,11.1-12,18.6-15.6
		c3.4-1.7,6.8-3.2,10.2-4.7c0.9-0.4,2.1-1.4,3-0.3c0.8,0.9-0.2,1.9-0.6,2.8c-4.4,8.9-8.9,17.8-13.3,26.7c-0.4,0.8-0.8,1.7-1.3,2.5
		c-1.4,2.9-1.4,2.9,1.8,2.9c1.8,0,3.6-0.1,5.4,0c6.3,0.6,10.5-2.7,14-7.4c1.9-2.7,3.5-5.6,4.9-8.5c4.1-8.7,9.6-16.5,16.7-23
		c2.1-1.9,4.3-3.7,6.9-4.8c1-0.4,2.1-1,3,0.1c0.9,1,0.4,2.1,0,3.1c-3.1,6.4-6.1,12.8-9.3,19.2c-1.7,3.4-3.4,6.9-4.2,10.7
		c-0.3,1.3-0.4,2.6-0.4,4c0.1,4.3,2.3,6.9,6.5,7.6c6.5,1.2,12.7-0.4,18.8-2.5c4.6-1.6,8.9-3.7,13.2-6.1c1.9-1.1,2.4-0.9,2.8,1
		c1.7,7.3,6.1,8.6,13,7.3c6.3-1.1,11.7-4.3,17.1-7.5c5.3-3.1,10.3-6.8,15.2-10.6c0.2-0.2,0.5-0.4,0.7-0.6c0.8-0.5,1.6-1.5,2.4-0.9
		c0.9,0.7,0,1.7-0.4,2.6c-2.3,4.6-4.6,9.2-6.9,13.9c-1.2,2.3-1.1,2.5,1.4,2.5c4.7,0,9.4-0.1,14.1,0c2,0,3.1-0.7,4-2.5
		c4-8.2,7.6-16.6,11.9-24.7c3.8-7.2,9.1-12.9,16.5-16.4c2.2-1,4.4-1.5,6.8-1.8c2.6-0.3,3.4,0.8,2.2,3.1c-2.7,5.6-5.5,11.1-8.3,16.6
		c-1.7,3.4-3.2,6.8-4.3,10.4c-0.1,0.4-0.3,0.9-0.4,1.3c-2.7,9.7,3.6,16.7,13.6,15.2c6.3-0.9,12-3.3,17.6-6.2
		c2.6-1.3,5.1-2.8,7.6-4.2c1.9-1,2.4-0.8,3,1.2c0,0.1,0.1,0.3,0.1,0.5c2.1,7.4,5,9.2,12.5,8c5.9-1,11-4,16-7c6.2-3.7,12-8,17.5-12.6
		c2.1-1.8,1.9-4.9-0.4-6.4c-1-0.6-1.6,0.2-2.3,0.6c-4.4,3.1-9.1,5.9-13.9,8.2c-1.6,0.8-3.3,1.6-5,1.9c-2.2,0.4-3.2-0.7-2.4-2.8
		c0.2-0.4,0.4-0.9,0.6-1.3c7-13.8,13.5-27.9,20.6-41.6c0.2-0.4,0.4-0.8,0.6-1.3c0.7-1.3,0.3-1.9-1.1-1.9c-0.9,0-1.9,0-2.8,0
		c-4.2,0-8.4,0.1-12.7,0c-1.8,0-2.9,0.6-3.7,2.3c-4.7,9.7-9.7,19.3-14.3,29c-2.5,5.3-6.1,9.2-11,12.1c-5.8,3.4-11.7,6.3-18.4,7.4
		c-3.2,0.6-4.5-1-3.2-4c1.2-2.8,2.4-5.6,3.8-8.3c3.6-7,7-14.2,10.4-21.3c1.2-2.6,2.1-5.2,2.5-8c0.8-5.5-2.4-9.2-7.9-9.6
		c-7.6-0.5-14.3,1.8-20.8,5.5c-1,0.6-2.3,2-3.3,1.1c-1-0.9,0.3-2.3,0.8-3.3c1.3-2.7,1.2-2.8-1.8-2.8c-4.6,0-9.2,0.1-13.8,0
		c-2,0-3.1,0.7-4,2.5c-2.7,5.6-5.7,11-8.2,16.6c-2.6,5.7-6.6,10.2-11.3,14.2c-5.7,4.8-11.7,9.1-18.2,12.8c-2,1.1-4,2.2-6.2,2.7
		c-0.9,0.2-1.9,0.5-2.6-0.4c-0.7-0.9-0.2-1.8,0.1-2.7c0.3-0.7,0.7-1.4,1-2.1c6.9-13.7,13.4-27.5,20.4-41.2c1.1-2.3,1.1-2.4-1.6-2.4
		c-4.8,0-9.5,0.1-14.3,0c-2.1,0-3.3,0.7-4.2,2.6c-5,10.2-10.2,20.3-15.1,30.5c-1.5,3.1-3.6,5.5-6.4,7.4c-5.4,3.7-11.1,6.6-17.5,8.4
		c-0.4,0.1-0.7,0.3-1.1,0.3c-1.4,0.2-2.9,0.6-4-0.7c-1.1-1.3,0-2.5,0.5-3.7c4.8-10.4,10-20.7,14.6-31.2c0.8-1.8,1.3-3.6,1.6-5.6
		c0.3-3.2-1-5.5-3.6-7.1c-2.9-1.9-6-3.2-9.7-2.3c-5,1.2-9.8,2.5-14.4,4.9c-0.7,0.4-1.6,1.2-2.3,0.4c-0.6-0.7,0.1-1.6,0.5-2.4
		c6.5-12.5,13-25,19.2-37.6c1.1-2.3,2.6-4.5,3.7-6.8c0.5-1.1,0.3-1.6-0.9-1.6c-5.2,0-10.5,0-15.7,0c-1.3,0-2,0.8-2.5,1.8
		c-4.4,8.9-8.9,17.8-13.3,26.7c-4,8.1-8.1,16.2-12.2,24.3c-1.2,2.4-3.5,3.8-5.4,5.4c-6.4,5.6-13.6,9.7-22.2,10.9
		c-0.9,0.1-2,0.6-2.6-0.4c-0.6-0.8,0.1-1.7,0.4-2.4c2.8-5.7,5.5-11.4,8.2-17.1c0.4-0.8,0.8-1.5,1.1-2.3c0.7-1.8,0.5-2.3-1.4-2.3
		c-4.3,0-8.6,0-12.9,0c-0.9,0-1.7,0.1-2.4,0.7c-2.4,2.3-5.1,2-7.8,0.6c-5-2.5-10.1-2.9-15.5-1.3c-4.7,1.4-8.8,3.7-12.5,6.7
		c-7.2,5.6-13.3,12.4-18.2,20.1c-2.8,4.4-6.1,8.1-10.1,11.3c-4,3.2-7.9,6.4-12.3,9c-2.8,1.7-5.8,3.1-9.1,3.6
		c-3.2,0.5-5.9-1.6-6.3-4.8c-0.3-3.2,0.7-6.1,2.4-8.7c6.7-9.7,14.6-18.1,25.6-23.1c0.8-0.4,1.4-1,1.7-1.8c1.5-3.2,3.1-6.3,4.7-9.5
		c0.6-1.2,0.9-2.1-1.1-1.7c-8.3,1.4-16.5-0.2-24.7-1c-4.7-0.4-9.3-1-14-0.2c-5.7,0.9-10.1,3.9-14.3,7.6c-1.2,1.1-2.3,2.3-3.5,3.4
		c-1.3,1.2-2.4,1-3.2-0.5c-1.1-1.9-2.2-3.8-3.5-5.6c-2.8-3.6-6.4-5.1-10.9-5.5c-11.6-1-20.8,3.7-29.2,11c-2.3,2-4.4,4-6.3,6.3
		c-0.9,1.1-1.9,2.2-3.6,1.7c-1.5-0.5-1.7-1.9-1.9-3.3c-0.4-2.2-0.7-4.3-1.5-6.4c-2.4-6.9-8.4-10.6-15.6-9.5c-2.5,0.4-5,0.7-7.3,1.5
		c-0.7,0.2-1.4,0.6-2,0c-0.7-0.7-0.1-1.5,0.2-2.2c1.4-3.1,2.8-6.1,4.3-9.1c5.1-10.2,9.9-20.6,15.1-30.7c0.2-0.5,0.5-1,0.7-1.5
		c0.6-1.2,0.3-1.9-1.2-1.9c-5.2,0-10.5,0-15.7,0c-1.9,0-2.5,1.3-3.2,2.6c-5.6,11.2-11.2,22.4-16.8,33.6
		c-5.7,11.5-11.5,22.9-17.2,34.4c-1.3,2.6-2.9,4.6-5.3,6.3c-7.9,5.7-15.7,11.4-24,16.4c-1.3,0.8-2.6,1.5-4,2c-1.8,0.6-2.7-0.1-2.7-2
		c0-1.4,0.5-2.6,1-3.8c4.1-8.5,8.1-16.9,12-25.5c1.9-4.2,3.9-8.4,3.8-13.2c-0.1-4.4-2.2-6.5-6.6-6.8c-7.1-0.4-13.1,2.5-19.2,5.4
		c-2.4,1.2-4.8,2.7-7.1,4.1c-1.6,1-2.6,0.6-2.7-1.3c-0.5-6.6-6.6-9.2-12.3-8.5c-7,0.7-13.4,3.1-18.9,7.6c-0.2,0.1-0.4,0.3-0.6,0.4
		c-1,0.5-2.1,1.5-3.2,0.6c-1.1-1-0.1-2.2,0.3-3.2c2.2-4.7,2.2-4.6-2.9-4.6c-4.1,0-8.3,0.1-12.4,0c-1.8,0-2.7,0.7-3.3,2.3
		c-2,5.2-3.8,10.4-7,15.1c-4.7,6.7-10.6,12.1-17.1,16.9c-4.9,3.6-10.1,6.9-15.1,10.3c-0.8,0.5-1.7,1.5-2.7,0.7
		c-0.9-0.7-0.6-1.9-0.4-2.9c1-4.1,3.1-7.7,5-11.4c4.9-9.3,9.1-18.9,13.9-28.2c1.2-2.4,1-2.7-1.8-2.8c-4.4,0-8.8,0.1-13.1,0
		c-2.5-0.1-4.1,0.6-5.3,2.9c-1.5,2.7-3.2,3.2-5.4,1.5c-7.5-6-15.6-5.2-23.8-2.1c-6.9,2.6-12.1,7.6-16.9,13.1
		c-5.4,6.3-9.8,13.4-14.7,20.1c-4.6,6.4-10.5,11.3-17.9,14.3c-2.9,1.1-5.9,1.7-9,1.5c-4.5-0.3-7.8-2.5-10.3-6.1
		c-0.9-1.2-0.8-2.5-0.1-3.7c4.9-9.5,9.6-19,14.6-28.4c2.4-4.6,4.8-9.2,7.1-13.7c7.8-15.1,15.9-30,23.4-45.2
		c3.7-7.4,8.1-14.3,13.8-20.3c5.9-6.2,12.8-11,21.5-12.5c5.3-0.9,10.2,0.1,14.4,3.4c5.7,4.4,6.9,12.7,2.8,19.3
		c-3.4,5.4-8.1,9.5-13.6,12.7c-4.5,2.7-9.2,4.7-14.1,6.4c-0.6,0.2-1.4,0.2-1.5,0.9c-0.2,0.9,0.7,1.1,1.3,1.4
		c5.3,3.3,11.1,4.4,17.3,4c11-0.8,20.2-5.5,28.3-12.7c8-7.2,9.3-15.8,6.4-25.7c-3.6-12.3-12.4-18.4-24.6-19.9
		c-15.2-1.9-29.7,1.1-43.3,7.6c-11.9,5.7-21.2,14.8-29.3,25.2c-7,9-12.7,18.8-17.9,28.9c-7.8,15-14.3,30.6-22.1,45.6
		c-1.2,2.3-2.5,4.5-3.8,6.7c-0.8,1.4-1.9,2-3.5,1.5c-6.7-2.1-13.6-3.3-20.6-3.2c-17,0.1-32.5,4.6-44.2,17.8
		c-2.2,2.5-3.7,5.4-4.4,8.7c-0.7,3.6,0.4,6.4,3.3,8.7c4.1,3.2,8.8,4.8,13.7,5.9c9.6,2.2,19.2,2.2,28.9,0.9
		c10.8-1.4,21.1-4.6,30.4-10.4c1.7-1,3-0.9,4.5,0.3c1.6,1.4,3.3,2.6,5,3.9c7.7,6.1,16,6.6,24.7,2.5c4-1.9,7.8-4.3,11.5-6.9
		c0.6-0.4,1.1-0.9,1.7-1.3c3.8-2.8,5.6-2.4,7.8,1.7c1.1,2.1,2.2,4.2,3.9,5.8c3.6,3.5,7.9,4.2,12.6,3.3c4.4-0.9,8.3-2.8,12-5.1
		c0.9-0.6,1.8-1.2,2.7-1.8c1.8-1.1,2.4-0.9,3.1,1.1c0.3,1,0.6,1.9,1.1,2.8c1.3,2.2,3.1,3.4,5.8,3.3c2.3-0.1,4.5-0.7,6.5-1.7
		c5-2.3,9.5-5.4,14-8.6c6-4.4,12-8.8,18-13.1c1.1-0.8,2.3-2.5,3.5-1.5c1.1,0.9-0.4,2.4-0.9,3.5c-3,6.1-6,12.2-9.1,18.3
		c-1.1,2.1-1,2.2,1.3,2.2c5,0,10-0.1,15,0c1.9,0,2.9-0.8,3.8-2.4c5.1-9.4,9.4-19.3,14.8-28.5c3.3-5.7,7.5-10.6,13.7-13.5
		c2-0.9,4.1-1.5,6.3-1.5c2.6-0.1,3.4,1.1,2.3,3.5c-2.3,4.7-4.6,9.4-7,14.1c-4.4,8.6-8.5,17.4-12.8,26.1c-1,2-0.9,2.2,1.3,2.2
		c5.1,0,10.2,0,15.3,0c1.8,0,2.8-0.8,3.6-2.4c4-8.3,7.8-16.7,12.1-24.9c3.7-7,8.9-12.6,16.2-16.1c2.4-1.2,5-1.8,7.7-2.1
		c2.7-0.3,3.5,0.8,2.3,3.3c-3.4,6.9-7,13.8-10.4,20.8c-2,4.1-3.5,8.4-3.3,13.1c0.1,3.2,1.5,5.7,4.3,7.3c5.4,3.2,10.8,2.7,16.2,0.2
		c6.6-3.1,12.6-7.2,18.9-10.9c2.1-1.2,4.1-2.5,6.3-3.7c1.4-0.8,2.2-0.4,2.3,1.2c0.1,1.7,0.4,3.4,1,5.1c2.1,6,7.5,9.7,14.2,10.1
		c10.7,0.7,19.8-3,27.8-9.8c8.7-7.3,15.4-16.2,20.7-26.1c0.6-1,0.9-2.8,2.5-2.1c1.4,0.6,0.5,2.1,0.2,3.1c-2.4,8.1-3,16-0.2,24.2
		c2.1,6.1,6.5,9,12.4,10.1c8.2,1.5,15.5-1.3,22.1-5.8c12-8,19.4-19.4,22.5-33.4c0.8-3.5,1.6-6.6,4.6-8.8c2.1-1.5,4.5-2.5,7.1-3
		c4.5-0.8,8.9-0.5,13.2,1.1c2.7,1,2.8,2,0.6,3.9c-8.4,7.3-14.9,15.9-19.3,26.2c-1,2.5-1.7,5-2.1,7.7c-1.2,7.3,2.8,12.1,10.2,12.5
		c8.4,0.5,15.9-1.8,22.8-6.4c4-2.7,8.1-5.4,12.1-8.1c0.8-0.5,1.6-1.1,2.4-1.5c3.3-1.7,5.4-0.7,6.1,2.9c0.2,0.8,0.3,1.7,0.4,2.5
		c1.1,6.8,5.1,10.2,12,10.5c2.9,0.1,5.8-0.2,8.6-0.9c1.5-0.4,3-0.8,4.6-1.1c0.9-0.2,2.1-1,2.8-0.1c0.6,0.9-0.3,1.9-0.7,2.8
		c-1.9,3.9-3.8,7.7-5.7,11.6c-0.8,1.6-1.6,3.2-2.4,4.8c-4.4,8.7-13.6,11.6-21.5,10.7c-4.2-0.5-8.3-1.6-12.3-3.5
		c-0.2,1.3,0.4,2.3,0.8,3.2c1.3,2.7,3,5.1,5.2,7.2C533.7,578.2,534.7,578.6,534.6,579.7z"/>
	<path class="st1" d="M534.6,579.7c-4.3-3.5-7.4-7.7-8.9-13.3c1-0.4,1.6,0.3,2.4,0.6c5.9,2.5,12,3.9,18.5,2.8
		c5.2-0.9,9.5-3.4,12.3-7.9c4.1-6.6,7-13.9,10.9-21.2c-3.9,1.1-7.4,2.3-11.1,2.6c-2.7,0.3-5.3,0.4-7.9-0.2
		c-5.4-1.1-8.8-4.7-9.7-10.1c-0.2-1.2-0.3-2.5-0.6-3.7c-0.7-3-2.1-3.7-4.7-2.1c-3.1,1.9-6.2,4-9.2,6c-5.8,3.9-11.6,8-18.7,9.5
		c-4.2,0.9-8.5,1.3-12.8,0.4c-5.6-1.2-8.3-4.6-8.3-10.3c0-6.1,2.4-11.6,5.4-16.8c4.5-8,10-15.2,17.2-20.8c0.6-0.5,1.5-0.9,0.1-1.6
		c-6-2.8-16.2-3.1-22,2c-1.7,1.5-2.8,3.3-3.1,5.8c-2,14.6-13.9,34.8-34.1,40.8c-3.7,1.1-7.5,1.5-11.4,0.8c-6.3-1.2-11-4.3-13.2-10.8
		c-2.8-8.3-2.3-16.5,0.3-24.6c0.3-0.8,1.2-2,0.1-2.5c-1.1-0.5-1.3,1.1-1.7,1.8c-6.8,12.8-15.6,23.8-28,31.6
		c-6.9,4.4-14.7,5.8-22.7,4.8c-8.6-1-13.5-6.5-14.2-15.1c0-0.5-0.1-1.1-0.2-2c-4.7,2.9-9.2,5.6-13.8,8.3c-4,2.4-7.9,5.1-12.2,7
		c-5.9,2.7-11.8,3.5-17.7-0.3c-2.7-1.8-4.1-4.2-4.2-7.4c-0.2-4.5,1.2-8.7,3.1-12.6c3.5-7.3,7.1-14.4,10.7-21.7
		c0.3-0.7,1.2-1.4,0.6-2.1c-0.5-0.7-1.5-0.3-2.2-0.2c-8.5,0.8-14.6,5.7-19.6,12c-4.8,6.1-7.3,13.4-10.8,20.2
		c-1.9,3.8-3.7,7.6-5.5,11.4c-0.6,1.3-1.4,1.8-2.9,1.8c-5.7-0.1-11.4-0.1-17.1,0c-2.1,0-2.3-0.4-1.4-2.3
		c6.8-13.6,13.5-27.2,20.3-40.8c1.3-2.7,1.2-2.9-1.8-2.9c-4.9,0.1-8.8,2.5-12.2,5.8c-4.4,4.2-7.6,9.3-10.3,14.7
		c-4,7.9-8,15.8-11.9,23.7c-0.6,1.2-1.2,1.8-2.6,1.8c-5.9-0.1-11.9-0.1-17.8,0c-1.7,0-1.8-0.4-1.1-1.8c3.7-7.2,7.3-14.4,10.9-21.6
		c0.2-0.4,0.3-0.8,0.8-1.8c-6.8,4.9-13,9.5-19.2,14c-5.1,3.7-10.1,7.4-15.8,10.1c-1.4,0.7-2.9,1.3-4.4,1.7
		c-5.5,1.5-8.9-0.3-10.3-5.8c-0.6-2.2-1.1-2-2.8-0.9c-4.4,3.1-9.2,5.7-14.6,6.8c-6.9,1.4-12.3-1-15.9-7.1c-0.6-1-1.1-2.1-1.7-3.1
		c-1.9-3.1-3.1-3.4-6-1.2c-4.4,3.3-9,6.3-13.9,8.6c-8.9,4.3-17.2,3.7-25.1-2.5c-1.7-1.3-3.4-2.5-5-3.9c-1.4-1.2-2.4-1.2-4-0.2
		c-20.2,11.5-41.6,14.3-64.1,8.3c-2.9-0.8-5.6-2.1-8.1-3.7c-5.4-3.5-6.6-7.9-3.9-13.8c2.2-4.7,5.6-8.5,9.7-11.6
		c11.9-9.1,25.5-12.5,40.3-11.9c6.4,0.2,12.6,1.2,18.7,3.1c1.8,0.5,2.5,0,3.3-1.4c6.1-10.4,10.9-21.5,16-32.4
		c6.7-14.3,13.6-28.5,22.5-41.7c8.8-12.9,19-24.4,33.1-31.6c14.7-7.5,30.4-10.7,46.8-8.2c15.1,2.4,23.7,12.4,24.9,27.7
		c0.5,6-1.2,11.2-5.1,15.6c-9.9,11.1-22.1,16.9-37.2,16c-4.7-0.3-9-1.9-12.9-4.6c-0.6-0.4-1.7-0.7-1.6-1.5c0.1-0.9,1.2-0.8,1.9-1.1
		c6.3-2.2,12.4-4.9,17.9-8.7c4.2-2.9,7.9-6.2,10.4-10.7c5.9-10.5-0.2-21.4-12.2-21.8c-8-0.3-14.6,3.1-20.5,7.9
		c-7.7,6.2-13.2,14.1-17.7,22.8c-15.2,29.4-30.3,58.8-45.6,88.1c-1.3,2.5-1,4.1,0.8,6c3.5,3.7,7.8,4.8,12.6,4
		c7.9-1.4,14-5.9,19.3-11.7c4.8-5.4,8.4-11.7,12.7-17.4c4.6-6.2,9.5-12,16-16.4c5.1-3.4,10.6-5.2,16.7-5.6c5.1-0.3,9.5,1.2,13.5,4.4
		c2.3,1.8,3.5,1.7,4.6-0.8c1.4-3.1,3.5-3.5,6.5-3.4c4.8,0.2,9.5,0.1,14.3,0c2.1-0.1,2.2,0.6,1.3,2.3c-5.8,11.6-11.5,23.3-17.2,34.9
		c-1.3,2.6-2.7,5.3-2.4,8.8c1.7-1.1,3.1-2,4.5-2.9c6-3.9,11.8-7.9,17.4-12.3c9.4-7.5,16-16.9,19.4-28.4c0.6-1.9,1.5-2.3,3.4-2.3
		c5.5,0.1,11,0,16.4,0.1c2.5,0,2.5,0,1.4,2.2c-0.8,1.6-1.6,3.2-2.4,4.8c-0.2,0.4-0.4,1,0.1,1.3c0.3,0.1,0.8,0,1.1-0.2
		c1.2-0.7,2.3-1.5,3.5-2.4c6.5-4.6,13.7-7.3,21.8-6.6c5.6,0.5,8.5,3.5,9.2,9.2c0.1,0.4-0.1,1,0.6,1.4c4.1-2.7,8.4-5.2,13-7.2
		c4.6-2,9.2-3.6,14.3-3.4c5.4,0.2,8,2.9,7.8,8.3c-0.2,4.1-1.7,7.9-3.4,11.6c-4.1,8.9-8.3,17.7-12.5,26.5c-0.7,1.6-2.2,3.6-0.8,5
		c1.5,1.4,3.1-0.7,4.5-1.5c9.6-5.4,18.5-12,27.3-18.6c1.1-0.8,1.6-1.9,2.1-3c11.7-23.4,23.5-46.9,35.1-70.3c0.8-1.6,1.7-2.1,3.4-2.1
		c5.5,0.1,11,0.1,16.4,0c1.8,0,2.1,0.4,1.3,2c-6.5,13.3-13,26.6-19.5,39.8c-0.6,1.3-1.2,2.5-2,4.1c3-0.8,5.7-1.6,8.4-2
		c9.8-1.2,16.1,3.2,18.1,12.8c0.3,1.3,0.4,2.6,0.6,3.9c0.2,1.1,0.3,2.3,1.5,2.7c1.2,0.3,1.9-0.6,2.5-1.4c2.4-2.8,5-5.4,7.8-7.7
		c3.9-3.3,8.2-5.9,12.9-8c5.6-2.4,11.5-2.8,17.5-2c5.9,0.7,9.3,4.7,11.9,9.6c1.8,3.3,1.9,3.4,4.5,0.6c8.4-9.3,18.9-11.4,30.8-9.6
		c7.7,1.1,15.5,2.2,23.4,1.3c1.4-0.2,2.8-0.4,4.6-0.6c-1.1,2.4-2.2,4.4-3.1,6.5c-1.9,4.5-4.4,7.8-9.2,10.3
		c-8.8,4.7-15.7,12-21.1,20.5c-1.3,2-2.3,4.1-2.6,6.5c-0.5,4.4,2.4,7.1,6.8,6.1c3.9-0.9,7.2-3,10.5-5.2c5.4-3.7,10.3-7.9,15.1-12.2
		c0.9-0.8,1.4-1.8,2.1-2.8c6.4-10,13.7-19.2,23.8-25.9c4.3-2.9,8.9-4.9,14.1-5.4c4-0.4,7.8,0.4,11.3,2.2c2.6,1.4,5.2,2,7.3-0.8
		c0.5-0.7,1.3-0.4,2-0.5c4.9,0,9.9,0,14.8,0c1.8,0,2.2,0.3,1.4,2.1c-3.5,7.2-6.9,14.4-10.3,21.6c-0.1,0.3-0.2,0.6-0.4,1.1
		c6.2-0.4,11.7-2.4,16.9-5.5c4.4-2.6,8.2-6,11.9-9.5c0.7-0.7,1.1-1.5,1.5-2.3c8.3-16.6,16.7-33.3,24.9-49.9c0.8-1.6,1.6-2.1,3.4-2.1
		c5.8,0.1,11.7,0,18,0c-8.4,16.5-16.7,32.6-25.2,49.3c5.9-3.5,11.7-5.5,17.8-6.4c4.9-0.7,8.7,1.6,11.8,5c2.1,2.3,1.5,5.3,0.6,8.1
		c-1.9,5.7-4.9,11-7.4,16.5c-2.8,6.1-5.7,12.2-8.6,18.3c-0.4,0.8-1.3,1.7-0.7,2.6c0.8,1,2,0.6,3.1,0.4c5.5-1.1,10.5-3.6,15.3-6.3
		c4.7-2.7,8.4-6.2,10.7-11.3c4.5-10,9.7-19.6,14.5-29.4c0.7-1.4,1.5-2.1,3.2-2c5.6,0.1,11.3,0.1,16.9,0c2.4-0.1,2.1,0.8,1.3,2.4
		c-6.5,13.1-13,26.2-19.5,39.3c-0.9,1.8-1.8,3.6-2.7,5.5c-0.3,0.5-0.7,1.1-0.1,1.7c0.5,0.5,1,0.3,1.5,0.1c1-0.3,2-0.5,2.9-1
		c10.6-5.3,20.1-12.1,28.2-20.7c1.2-1.3,2.2-2.8,3-4.4c3.4-6.8,7-13.7,10.3-20.5c0.9-1.8,1.9-2.3,3.8-2.2c5.2,0.1,10.5,0,15.7,0
		c2.8,0,2.8,0,1.5,2.6c-0.7,1.3-1.3,2.6-2.2,4.5c5.2-3.2,10.1-5.7,15.4-6.9c3.1-0.7,6.2-1.1,9.3-0.8c6.1,0.5,9.2,4.6,8.3,10.6
		c-0.8,5.1-3.3,9.6-5.5,14.1c-3.5,7.3-7,14.5-10.6,21.7c-0.3,0.6-0.6,1.3-0.9,1.9c-0.9,2.5-0.1,3.5,2.5,3
		c9.3-1.9,17.6-5.9,24.7-12.2c2.4-2.1,3.4-5.2,4.8-8c4.8-9.6,9.6-19.2,14.3-28.8c0.6-1.3,1.3-1.9,2.8-1.9c5.8,0.1,11.6,0.1,17.4,0
		c2.1,0,1.9,0.7,1.2,2.1c-7.3,14.6-14.5,29.3-21.7,44c-0.4,0.8-1.4,1.6-0.6,2.5c0.8,1,1.9,0.3,2.9,0c6.7-2.4,12.6-6.2,18.3-10.3
		c1.6-1.2,2.3-1,3.2,0.7c2.4,4.3,2.5,4.3-1.3,7.3c-7.4,5.8-14.9,11.4-23.4,15.6c-3.4,1.7-6.9,3-10.6,3.6c-6.6,1-10.7-1.8-12.1-8.3
		c-0.2-0.8-0.1-1.7-0.7-2.5c-5,2.8-10,5.8-15.3,8.1c-4.6,1.9-9.2,3.5-14.3,3.4c-2,0-3.9-0.5-5.7-1.2c-5.5-2.4-7.5-6.4-6.4-12.5
		c1-5.5,3.4-10.4,5.8-15.3c2.6-5.2,5.2-10.3,7.8-15.5c0.3-0.6,1.1-1.2,0.6-1.9c-0.5-0.7-1.5-0.3-2.2-0.3c-5,0.4-9.2,2.5-12.9,5.6
		c-4.5,3.7-8,8.1-10.5,13.3c-3.9,8.2-7.9,16.3-11.7,24.6c-0.7,1.4-1.4,2-3,1.9c-5.5-0.1-11-0.1-16.4,0c-2.4,0.1-2.1-0.7-1.3-2.3
		c2.6-5.2,5.1-10.4,7.7-15.6c0.3-0.5,0.8-1,0.5-1.8c-6.8,5.4-13.8,10.6-21.5,14.8c-4.3,2.3-8.6,4.4-13.4,5.5
		c-1.5,0.3-2.9,0.5-4.4,0.5c-5,0-7.9-2.2-9.3-6.9c-0.3-0.9-0.4-1.8-0.7-2.9c-2.8,1.5-5.5,3-8.3,4.3c-6.2,2.9-12.6,5.1-19.5,5.5
		c-1.2,0.1-2.5,0.2-3.7,0.1c-7.7-0.6-10.8-4.8-9.3-12.4c1-4.8,3.4-9,5.5-13.4c2.7-5.7,5.5-11.3,8.2-16.9c0.4-0.8,1.1-1.8,0.3-2.6
		c-0.8-0.8-1.8-0.1-2.6,0.3c-4.3,2.1-7.6,5.4-10.8,8.8c-5,5.4-8.9,11.5-12,18.1c-2.2,4.6-4.6,9.1-8.3,12.7c-2.8,2.8-6,4.4-10.1,4.2
		c-2.7-0.1-5.5,0-8.2,0c-2.7,0-2.8,0-1.6-2.4c5.1-10.3,10.3-20.6,15.4-30.9c0.3-0.7,0.7-1.4,1.1-2.3c-1.2-0.1-2.1,0.6-2.9,0.9
		c-6.9,3.1-14,5.9-20.1,10.6c-4.5,3.5-7.9,7.8-10.3,12.9c-5.2,11.1-10.6,22.2-15.8,33.3c-2.6,5.6-6.2,10.5-11.4,14
		c-0.3,0.2-0.7,0.4-0.7,0.8C555.6,579.7,545.1,579.7,534.6,579.7z"/>
	<path class="st2" d="M304.9,143.1c-0.2-11.7,0.1-23.3,0.7-34.9c0.1-1.8,0.8-2.8,2.2-3.8c18.6-12.8,38.8-22.1,60-29.5
		c34.9-12.1,70.8-18.3,107.8-17.4c52.4,1.3,100.2,16.6,143,47.2c1.1,0.8,1.6,1.6,1.7,3.1c2.4,54.2-3.1,107.5-19.8,159.3
		c-12.1,37.5-29.7,72.1-54.9,102.6c-22.4,27.2-49.3,48.8-80.6,64.8c-1.4,0.7-2.4,0.5-3.7-0.1c-41.6-18.1-75.3-45.8-100.9-83.2
		c-19.7-28.8-32.9-60.5-41.7-94.1c-9-34.2-13.1-69.1-13.9-104.4C304.9,149.5,304.9,146.3,304.9,143.1z"/>
	<path class="st3" d="M852.2,450.1c0-7,5.8-12.6,12.8-12.5c6.8,0.1,12.3,5.8,12.3,12.8c-0.1,6.8-5.8,12.5-12.7,12.4
		C857.7,462.7,852.2,457.1,852.2,450.1z"/>
	<path class="st4" d="M750.8,450.1c0,7-5.6,12.7-12.6,12.7c-6.9,0-12.5-5.7-12.5-12.6c0-6.8,5.7-12.6,12.5-12.6
		C745.1,437.7,750.8,443.2,750.8,450.1z"/>
	<path class="st0" d="M172.8,527.5c0.1-1.4,0.3-3.3,0.9-5.1c3.5-11.6,9.2-22,16.9-31.3c1.3-1.6,2.8-2.9,4.6-3.9
		c2.8-1.5,5.2-0.2,5.4,3c0.1,1.8-0.2,3.6-0.8,5.3c-4.3,12-10.4,23.1-18.5,33c-0.7,0.9-1.6,1.7-2.5,2.4c-1.2,1-2.6,1.9-4.3,1.3
		C173.5,531.8,172.8,530.2,172.8,527.5z"/>
	<path class="st0" d="M377.9,528.5c0.1-2.3,0.8-5,1.8-7.6c4.1-10.7,9.5-20.7,17.1-29.4c1.3-1.5,2.9-2.9,4.8-3.7
		c2.9-1.3,5.3,0.2,5.1,3.4c-0.1,2.3-0.8,4.5-1.6,6.6c-4.5,10.9-10.2,21-17.5,30.4c-1.1,1.4-2.4,2.7-3.7,3.9c-1.2,1-2.5,2.1-4.2,1.4
		C377.9,532.5,377.9,530.8,377.9,528.5z"/>
	<path class="st0" d="M440.4,527.7c0.1-3,0.9-6,2-8.8c3.7-10,8.8-19.3,15.6-27.6c1.1-1.3,2.3-2.5,3.8-3.5c1.4-1,3-1.9,4.8-0.8
		c1.7,1,1.8,2.8,1.7,4.6c-0.1,1.2-0.3,2.3-0.7,3.4c-4.3,12.4-10.5,23.7-18.8,33.8c-0.6,0.7-1.3,1.4-2,2c-1.3,1.1-2.8,2.3-4.6,1.4
		C440.4,531.2,440.4,529.4,440.4,527.7z"/>
	<path class="st5" d="M557.4,527c0.4-5,2.4-9.9,4.6-14.8c3.4-7.2,7.2-14.2,12.4-20.4c1.6-1.9,3.2-3.6,5.4-4.8
		c2.9-1.5,5.1-0.1,5.3,3.1c0.1,2.4-0.5,4.7-1.3,6.9c-4.3,11-9.9,21.2-17.2,30.5c-1.1,1.3-2.4,2.5-3.7,3.6c-1.1,0.9-2.4,1.7-3.9,1
		c-1.5-0.7-1.6-2.2-1.7-3.6C557.4,528.2,557.4,527.8,557.4,527z"/>
	<path class="st0" d="M72.9,516.9c5.4,0.2,9.6,0.8,13.7,1.9c2.2,0.6,1.8,1.3,0.5,2.4c-4.2,3.7-9.1,6.1-14.3,7.8
		c-8.7,2.8-17.5,4.9-26.7,3.8c-2-0.2-3.8-0.8-5.5-1.8c-1.5-0.8-1.5-1.7-0.5-3c1.8-2.2,3.9-3.8,6.4-5.1
		C55.1,518.5,64.5,517.3,72.9,516.9z"/>
	<path class="st6" d="M311.6,146.8c-0.2-11.7,0.2-23.5,0.6-35.2c0.1-1.7,0.7-2.7,2-3.6c17.5-11.5,36.3-20.1,56.1-27
		c32.7-11.4,66.4-17.3,101-17c42.3,0.3,82.2,10.1,119.3,30.7c7.4,4.1,14.5,8.6,21.5,13.4c1.1,0.8,1.7,1.6,1.8,3
		c1.9,53-3.7,105-20.2,155.5c-11.5,35-27.9,67.4-51.1,96.2c-21.4,26.5-47.1,47.9-77.2,63.8c-1.6,0.8-2.8,0.7-4.3,0
		c-47.7-21.7-83.5-56-108.5-101.8c-16.9-31.1-27.3-64.4-33.6-99.1C314.1,199.7,311.9,173.3,311.6,146.8z"/>
	<path class="st7" d="M609.7,141.1c-0.9,45.6-8,90.1-23.6,133.1c-14.6,40-35.8,75.8-65.9,106.1c-16.3,16.4-34.6,30.2-54.8,41.5
		c-1.5,0.9-2.8,1.1-4.5,0.3c-40.4-19.1-72.4-47.6-96.2-85.3c-15.4-24.3-26.3-50.6-33.9-78.2c-12.8-46.3-16.3-93.5-14.7-141.3
		c0.1-4.3,1.7-6.6,5.2-8.8c21.2-12.8,44-22.1,67.8-28.9c27.2-7.7,54.9-11.7,83.1-11.3c37.4,0.4,73,8.4,106.6,25
		c10.1,5,19.7,10.8,29.1,17.1c1.4,1,1.9,2.1,1.9,3.7C609.7,123.1,609.7,132.1,609.7,141.1z"/>
	<path class="st8" d="M491.6,116.5c3.2,0.2,6.2,0.8,9.3,1.3c8.6,1.5,17,3.7,24,9.3c5.5,4.3,7.9,9.7,5.3,16.9
		c-1.7,4.7-1.3,9.3,0.6,13.9c3.3,7.7,7.2,15.2,8.6,23.7c1.3,7.9,1.8,15.8,1.5,23.8c-0.2,6.5-1.5,12.9-1.2,19.4
		c0.2,5.9,2.5,10.7,8.4,12.8c3.1,1.1,6.4,1.2,9.7,0.8c1.5-0.2,3.7-1,4.4,0.1c0.9,1.4-0.9,2.9-1.7,4.3c-2.6,4.2-6.6,6.1-11.3,6.5
		c-3.2,0.3-6.4,0.4-9.5-0.6c-0.7-0.2-1.7-0.5-2.2,0.2c-0.5,0.6,0.2,1.3,0.5,1.9c2.4,4.2,3,8.7,2.5,13.4c-0.8,7.8,0.5,15.4,2.1,23
		c1.1,4.9,1.8,9.8,1.8,14.9c0,1.5-0.5,2.1-1.9,2.3c-2.7,0.5-5.4,0.5-8.2,0.5c-1.9,0-2.7-0.7-2.8-2.8c-0.3-6.9-0.2-13.8-0.3-20.6
		c0-3.8-0.4-7.5-1.4-11.1c-0.7-2.7-2.1-5-4.2-6.9c-1.7-1.5-4.5-1.2-7,0.8c-6,4.7-9.3,11.2-11.3,18.4c-0.9,3.4-1.2,6.9-1.6,10.4
		c-0.6,4.5-2.4,5.9-6.2,6.3c-2.4,0.2-4.7,0.9-7.1,1.4c-3.9,0.7-7.9,0.8-11.8,0.1c-1.7-0.3-2.7-1.3-3.4-2.9c-1.3-3-2.8-5.9-4.2-8.9
		c-1.4-3-2.7-6-3.8-9.5c-1.3,1.7-1.6,3.3-2.1,4.9c-1.4,4.1-2.6,8.2-3.8,12.3c-1.7,5.8-3.3,6.1-9.7,5c-1.5-0.3-3-0.9-4.5-1.3
		c-2.9-0.7-3.5-0.2-4.4,2.8c-1.3,4.4-1.1,9-1.8,13.4c-0.3,1.9-0.6,3.8-1.3,5.7c-0.7,2-2.2,3-4.2,3.2c-3.5,0.3-7,0.4-10.5,0
		c-3.6-0.4-4.2-1.3-3.3-4.8c1.8-7.2,5.1-13.9,8.1-20.7c3-6.8,5.8-13.6,8.2-20.6c0.9-2.8,0.5-5-1.4-7c-3-3.1-5.5-6.5-7.1-10.6
		c-0.6-1.7-1.5-0.9-2.2,0c-2.1,2.5-3.4,5.4-4.6,8.4c-2.6,6.9-4.7,14.1-7.6,20.9c-1.8,4.3-4.2,8.2-7.9,11.1
		c-3.2,2.6-4.9,5.9-4.8,10.2c0.1,4.2-0.9,8.2-2.2,12.2c-1.6,5.1-5,7.2-10.6,6.6c-2.5-0.3-4.8-1.1-7-2.4c-2.1-1.4-2.4-2.5-1.1-4.6
		c3.8-6.1,7.7-12.3,11.5-18.4c4.5-7.4,7.4-15.4,9.7-23.7c3.9-14,5.3-28.5,7.5-42.8c2.1-13.4,5-26.7,9.1-39.6
		c3.1-9.8,7.1-19.3,12.4-28.2c6.5-10.9,15.3-19.3,26.9-24.7c7.8-3.6,15.7-6.4,24.4-6.3c6.5,0.1,12.5,2.2,18.5,4.6
		c4.4,1.7,8.8,2.4,13.4,0.6c5.3-2,7.5-6,3.5-10.7c-3.9-4.7-9.3-6.8-15.2-8.1c-7.3-1.5-14.8-0.7-22.2-1.4c-8-0.7-16.1-0.8-24-2.4
		c-2.8-0.6-5.6-1.4-8.1-2.8c-2-1.1-3.1-3.6-2.9-5.9c0.6-5.2,3.8-7.8,8.5-8.9c7.7-1.9,15.4-3.2,23.4-2.5c6.5,0.5,12.8,1.7,18.7,4.6
		c1.8,0.9,2,1.6,0.8,3.3C497.8,113.3,495,115.1,491.6,116.5z"/>
	<path class="st9" d="M528.2,239.9c1.7-0.7,4.2-0.3,4.5-2.4c0.4-2.1-1.8-3.1-3.4-4c-3.4-2-7.1-2.9-11-2.7c-1.3,0-2.2-0.2-3.2-1.1
		c-1-1-2.2-1.8-3.6-2.1c-1.2-0.3-2.4-0.3-3.2,0.9c-0.8,1.2-0.3,2.3,0.4,3.2c0.7,0.8,1.6,1.5,2.5,2.4c-2.3,0-4.4,0-6.6,0
		c-1.2,0-0.7-0.9-0.8-1.5c0-1.4,0.8-3.3-0.7-3.9c-1.6-0.7-2.4,1.3-3.4,2.3c-2.2,2.3-2.2,2.5-0.1,5c3,3.5,7,5.2,11.1,6.8
		c1.3,0.5,2.6,0.9,3.9,1.6c-3.8,0.7-7.7,0.3-11.5-0.2c-4.4-0.6-8.6-1.7-12-4.8c-1.9-1.7-3.2-3.6-3.1-6.3c0.2-5.6-1.2-7.2-7.7-7.9
		c-5.7-0.6-6.1,0.1-4.2,5.4c0.9,2.4,2.6,3.9,4.6,5.1c1,0.6,1.9,0.3,2.9,0c1.4-0.5,2.2,0.1,2,1.6c-0.7,5.1-1.9,10-6.5,13.2
		c-2.2,1.5-3.2,3.5-2.6,6c1,4.2,0.8,8.2-1.9,11.8c-0.5,0.6-0.8,1.5-0.6,2.6c2-0.3,3.4-1.4,4.6-2.9c1.1-1.4,2-3,3.1-4.4
		c0.5-0.7,0.9-2,2-1.6c1,0.4,0.4,1.5,0.3,2.3c-0.4,3.3-1,6.7-0.8,10c0,0.7,0,1.4,0.2,2.1c0.5,1.7,0.7,3.1-1.8,3.1
		c-1.1,0-1.1,0.8-0.7,1.7c1.4,2.6,2.2,5.5,4.8,7.6c-1.3,0.6-2.3,0.2-3.3,0.1c-1.4-0.2-2,0.1-1.9,1.7c0.1,1.2,0.7,3.4-0.4,3.6
		c-1.3,0.3-1.8-1.9-2.3-3.1c-3.8-9.3-8.1-18.3-12.7-27.2c-1-1.9-1.7-3.9-2.2-5.9c-0.4-1.5-0.6-3.1-0.5-4.7c0.3-4,5.7-13.9,8.9-16.3
		c1.2-1,1.8-2.2,1.4-3.7c-0.5-1.7-1.7-2.8-3.4-3.1c-2.3-0.4-4.5-0.2-6.8,0.3c-3.8,0.9-7.5,2.3-11.2,3.5c-3,1-5.5,0.3-7.6-2
		c-3.1-3.5-4.5-3.4-7.3,0.5c-1.4,2-3,3.6-5.2,4.6c-2.5,1.2-4.6,2-7-0.6c-2.3-2.6-5.3-1.4-5.9,2.1c-1.9,10.7-6,21.1-6.3,32.6
		c-1.2-1.4-1.1-2.4-1-3.5c2.9-26,7.5-51.7,17.2-76.2c4.6-11.6,10-22.7,19.4-31.3c9.9-9,21.7-14.6,35-17c4.4-0.8,8.7,0.3,12.9,1.8
		c7.4,2.7,14.9,4.5,22.9,4.9c2.7,0.1,4.2-1,5.4-3.2c3.3-6,1.1-14-4.9-17.7c-3.5-2.2-7.5-3.2-11.5-4c-7.2-1.5-14.5-2.4-21.8-3.3
		c-1-0.1-2-0.3-3.4-0.6c9.4-0.9,21.1-0.1,28.8,1.9c2.9,0.8,5.6,1.8,8.3,3.2c9.6,5,12.2,13.8,6.9,23.3c-1,1.8-2.2,3.4-2.7,5.8
		c-2.6-3.2-5.5-3.3-8.7-1.6c-1.6,0.9-2.2,2-0.9,3.3c2.7,2.5,3,5.3,2.3,8.8c-0.6,3.1,0.1,6.1,2.4,8.7c-2,0.4-3.7,2.1-5.7,0.3
		c-0.6-0.5-1,0.1-1.4,0.3c-3,1.4-4.7,0.8-6.1-2.3c-2-4.5-4-9-6-13.6c-0.3,0.3-0.4,0.5-0.4,0.5c2.7,7.7,3.6,15.8,5.1,23.8
		c1.4,7.8,3.6,15.5,6.8,22.9c3.1,7,8.1,12.6,13.3,18c1,1.1,2.5,1.2,3.9,1.5c1.2,0.2,2.2,0.5,2.8,1.8c3.6,8.4,10.6,11.9,19.3,12.7
		c2.2,0.2,4.4,0.2,6.6,0.4c0.6,0,1.4-0.3,1.7,0.4c0.3,0.8-0.6,1.2-1.1,1.6c-1.3,1.3-3,2-4.8,2.3C543.8,246.6,536,243.6,528.2,239.9z
		"/>
	<path class="st10" d="M433.9,305c2,0.3,3.5,1,5,1.8c0.8,0.4,0.5,1,0.3,1.6c-0.6,1.5-0.5,3.1,0.3,4.5c1.2,1.9,0.1,2.9-1.5,3.3
		c-2.9,0.6-5.8,0.9-8.8,1.4c-1,0.1-1.2-0.4-0.9-1.3c0.9-3.5,2-6.9,3.8-10C432.6,305.5,433.1,304.8,433.9,305z"/>
	<path class="st11" d="M536,261.2c-1.1-0.8-1.6-1.8-1.8-3c-0.2-1.1-0.5-2.1-0.8-3.2c-0.3-1-1-1.7-1.9-1.9c-1.2-0.3-1.1,1-1.7,1.6
		c-1.4,1.5-1.6,3.6-2.4,5.6c-1.7-1.6-1.6-3.3-1.1-5.1c0.9-3.1,2.6-5.8,4-8.7c0.4-0.9,0.9-1,1.5-0.2c0.4,0.5,1,0.9,1.2,1.4
		C535,251.9,537.7,256,536,261.2z"/>
	<path class="st12" d="M395.5,313.5c1.6-0.1,4.1,1.6,4.4,3.2c0.3,1.7-0.7,2.5-2.2,2.6c-1.2,0.1-2.5-0.1-3.7-0.3
		c-3.3-0.4-4,0.1-5.7,2.8c-0.5,0.8-0.8,2.7-2,1.9c-1.1-0.7,0.5-1.7,0.9-2.5c1-1.7,2.2-3.3,3.2-4.9
		C392.2,313.8,392.4,313.6,395.5,313.5z"/>
	<path class="st13" d="M411.9,280.4c-0.3,2.5-0.5,4.5-0.8,6.4c-0.2,1-0.5,2.1-1.8,2.1c-1.2,0-2-0.7-2.4-1.8
		c-0.5-1.4-0.2-2.8,0.2-4.1c0.3-1,0.6-1.9,1.1-2.8c0.4-0.7,0.1-2.3,1.4-2C410.8,278.4,412.3,279,411.9,280.4z"/>
	<path class="st14" d="M461.5,285.5c-0.1,1.2-0.4,2.4-0.1,3.8c0.2,1.4-1.2,2.1-2.2,2.3c-1.6,0.3-2.9-0.5-3.7-1.8
		c-0.7-1.1,0-1.9,0.9-2.6c1.2-0.9,2.2-1.9,3-3.2c0.3-0.5,0.4-1.6,1.3-1.3c0.7,0.2,0.8,1.1,0.8,1.8
		C461.5,284.8,461.5,285.1,461.5,285.5z"/>
	<path class="st15" d="M439.4,295.7c2.6-3.7-0.8-8.5,2.8-12.1c1.4,2.4,2.6,5,1.7,7.8C443.3,293.4,442.6,295.8,439.4,295.7z"/>
	<path class="st16" d="M460.9,116.8c2.1-3.2,7.5-2,16.4,0.1C471.5,117.5,466.3,117.5,460.9,116.8z"/>
	<path class="st17" d="M458.4,296.3c0.5,0.3,1.7-0.6,1.6,0.8c-0.1,1.7-0.8,3.1-2.9,3c-0.9,0-2.1,0.2-2.3-1
		C454.6,297.8,456.5,296.3,458.4,296.3z"/>
	<path class="st18" d="M435.9,319.7c-0.1,1.2-0.3,2.1-0.3,3c0,1.8-1.1,1.9-2.5,1.8c-1.3-0.1-1.4-0.6-1-1.7
		C432.6,321.7,433.8,320.7,435.9,319.7z"/>
	<path class="st19" d="M494.2,262.4c-0.5-0.3-1-0.6-1.3-1c-0.4-0.5,0-1,0.4-1.4c0.3-0.3,0.7-0.6,1.1-0.8c0.9-0.5,1.8-0.9,2.8-0.6
		c0.5,0.2,0.1,0.7-0.1,1C496.3,260.6,495.7,261.9,494.2,262.4z"/>
	<path class="st20" d="M533,297.5c1.9-0.3,3.5,0.4,5,1.3c0.8,0.5,0.2,1.3-0.2,1.8c-0.4,0.5-1,0.6-1.3,0
		C535.6,299.3,534.3,298.5,533,297.5z"/>
	<path class="st21" d="M522.1,238.3c-0.3,0.2-0.4,0.3-0.4,0.3c-1.2,0.1-2.2-0.4-3.1-1.3c-0.1-0.1,0.1-0.5,0.2-0.5
		C520.3,236.4,521.2,237.2,522.1,238.3z"/>
	<path class="st8" d="M487.6,203.4c2.1-1.5,3.6-2.6,5.2-3.7c2-1.3,3.9-1.5,5.8,0.1c0.9,0.8,1.4,0.7,1.9-0.3c0.9-1.9,1.8-1.4,2.8-0.1
		c1.5,1.9,2.5,4.2,3.5,6.3c2,4.1,2.9,8.8,5.9,12.5c0.5,0.6,0.3,0.9-0.3,1.2c-0.7,0.3-1.4,0.7-2.2,0.6c-4.7-0.1-9.3-0.8-13.6-2.9
		c-1.9-0.9-3.2-2.5-4.2-4.3c-0.2-0.4-0.5-0.9-0.1-1.3c0.4-0.4,0.7,0,1.1,0.2c2.1,0.9,4.5,0.5,6.7,1.3c1,0.4,1-0.3,1-0.9
		c0.1-2-2.3-5.9-4.2-6.7c-0.8-0.3-1.9,0-2-1.4c0-0.3-0.6-0.3-0.8-0.1C492,205.7,490.1,204.2,487.6,203.4z"/>
	<path class="st8" d="M445.5,206.1c-1.1,4.1,0.8,6.7,3.5,9c1.6,1.4,3.4,2.6,4.6,4.3c1.6,2.2,1,3.3-1.7,3.9c-2.6,0.6-5.1,1.4-7.6,2.2
		c-2.4,0.7-4.3,0-5.8-1.9c-0.9-1.1-2.3-2.3,0.4-3c0.7-0.2,1-0.6,0.2-1.3c-2.7-2.5-2.9-5.8-0.6-8.6
		C439.9,208.9,443.2,206.7,445.5,206.1z"/>
	<path class="st22" d="M496,192.9c-1.8-1.9-4.5-2-6.2-3.9c-0.9-1-2.3-1-3.5-0.9c-3.3,0.2-6.3-1.2-9.2-2.4c-1.4-0.6-1.3-1.4-0.2-2.2
		c3.5-2.6,7.2-4.6,11.5-5.6c2.4-0.5,3.6,0.6,4.5,3.2c0.2,0.6,0,1.4,0.5,1.8C497.1,185.6,494.3,189.7,496,192.9z"/>
	<path class="st23" d="M489.6,230.5c0.2-4.5,1.5-5.9,5-6.4c1.2-0.2,2.3-0.4,3.4-0.6c0.6-0.1,1.2-0.1,1.4,0.6
		c0.2,0.6-0.4,0.9-0.9,1.2c-0.1,0-0.1,0.1-0.2,0.1C495.1,226,492.2,227.4,489.6,230.5z"/>
</g>
</svg>
