<?xml version="1.0" encoding="utf-8"?>
<!-- Generator: Adobe Illustrator 21.1.0, SVG Export Plug-In . SVG Version: 6.00 Build 0)  -->
<svg version="1.1" id="Layer_1" xmlns="http://www.w3.org/2000/svg" xmlns:xlink="http://www.w3.org/1999/xlink" x="0px" y="0px"
	 viewBox="0 0 900 596" style="enable-background:new 0 0 900 596;" xml:space="preserve">
<style type="text/css">
	.st0{fill:#A7112E;}
	.st1{fill:#FEFEFE;}
</style>
<g>
	<path class="st0" d="M846,0.5c17.3,0,34.5,0.1,51.8-0.1c2.7,0,3.3,0.6,3,3.1c-0.2,1.7,0,3.5,0,5.2c-3.9,27.7-11.8,54.5-18,81.8
		c-8.7,38.5-17.9,76.8-26.9,115.2c-9.1,38.9-18.2,77.8-27.4,116.6c-3.3,14.1-6.6,28.2-9.9,42.3c-1.4,5.8-2.9,6.6-8.4,3.9
		c-5.8-2.9-11.2-6.5-16.9-9.6c-21.7-12-44.5-21.4-68.4-28.2c-19.1-5.4-38.6-8.9-58.4-10.7c-13-1.2-25.9-1.8-38.9-1.2
		c-21.8,1-43.4,3.7-64.8,8.6c-22.8,5.2-45,12.4-66.5,21.5c-12.9,5.4-25.4,11.6-37.5,18.7c-4.7,2.8-9.3,2.8-14.1,0.1
		c-28.9-16.4-59.5-28.8-91.7-37.2c-20-5.2-40.2-8.6-60.7-10.5c-13.1-1.2-26.2-1.9-39.3-1.2c-26,1.3-51.6,5.1-76.6,12.4
		c-21.9,6.4-42.9,15-63,25.7c-5.8,3.1-11.6,6.4-17.2,9.9c-8.3,5.1-10,4.4-12.2-4.9c-9.6-40.8-19.2-81.6-28.7-122.4
		c-7.5-31.8-14.9-63.7-22.4-95.5C23.8,106.5,15.2,69.1,6.2,31.7C3.9,21.9,1.8,12.1,0.8,2C1.1,1.5,0,0.4,1.5,0.5c0.9,0,1.7,0,2.6,0
		c243.1,0,486.3,0,729.4,0c1.5,1.6,0.6,3.3,0,4.9c-2.6,6.6-4,13.5-4.1,20.4c-0.1,7.8,1,15.7,4.1,23.1c9.5,22.7,26.6,35.5,50.9,38.2
		c16.7,1.8,32-2.9,44.9-14c15.3-13.1,21.9-30,21.2-49.8c-0.2-5.9-1.5-11.6-3.7-17.1C845.9,4.4,844.8,2.6,846,0.5z"/>
	<path class="st1" d="M0.8,2C4.2,13.1,6.3,24.5,9,35.7c20.7,88,41.3,176,62,264c5.1,21.7,10.2,43.5,15.3,65.2
		c1.2,5.1,1.2,5.1,5.5,2.4c31.5-19.8,65.3-34.2,101.7-42.4c32.6-7.4,65.6-9.6,99-6.7c51.4,4.5,99.7,19.4,145.2,43.6
		c3.9,2,7.7,4.2,11.4,6.5c1.8,1.2,3.2,1.2,5.1,0.1c29.1-17.4,60.2-30,92.8-38.8c40.8-11.1,82.2-15.2,124.3-10.9
		c50.1,5.1,96.4,21.6,139.1,48.1c5.3,3.3,5.3,3.3,6.7-2.8c26.7-113.9,53.4-227.8,80.2-341.6c1.1-4.5,1.5-9.3,3.6-13.6
		c0,119.4,0,238.7,0.1,358.1c0,2.8-0.6,3.4-3.4,3.4c-297.7-0.1-595.5-0.1-893.2,0c-2.8,0-3.4-0.6-3.4-3.4C0.8,245.3,0.8,123.6,0.8,2
		z"/>
	<path class="st0" d="M745.5,0.5c6.8,0,13.5,0,20.3,0c2,1.6,1.6,3.8,1.6,5.9c0,16.9,0,33.7,0,50.6c0,4.1,0.6,4.7,3.9,4.9
		c2.8,0.1,4.1-1,4.1-3.9c0-6.6-0.1-13.2,0-19.9c0.1-6,1-6.5,7-7c5.9-0.5,9.5,1.8,12.3,6.9c4,7.2,8.8,13.9,13,21
		c1.3,2.2,3.2,3.1,5.6,2.9c1.1-0.1,2.4,0.4,3-0.8c0.5-1-0.4-1.9-1-2.7c-3.4-4.9-6.4-10.1-9.8-15.1c-1.7-2.6-3.6-5.1-5-7.9
		c-1.7-3.5-1.2-4.8,2.6-6.1c1.2-0.4,2.4-0.6,3.6-1.1c9.6-3.7,11.4-12.1,10-21.3c-0.3-2.1-2-4.2-0.2-6.4c5.8,0,11.5,0,17.3,0
		c3.9,1.7,4.8,5.4,5.7,8.8c6,22,2.6,41.9-14,58.4c-9.2,9.1-20.6,13.6-33.7,14c-14.6,0.5-27.1-4.2-37.7-13.8
		c-9.3-8.5-14.5-19.5-16.3-32.1c-1.4-10-0.5-19.6,3.1-29.1C742,4.3,743.1,1.9,745.5,0.5z"/>
	<path class="st1" d="M745.5,0.5c-3.4,7.4-5.8,15-6.4,23.2C736.9,51.1,755.2,75,782,79.5c27.6,4.6,54-14.7,58.1-42.5
		c1.9-12.9,0.4-25.1-6-36.5c4,0,8,0,12,0c14.4,31.8,2.2,67.6-28.8,82.3c-21.5,10.2-43,8.7-62.6-4.7c-19.5-13.3-28-32.5-26.6-56
		c0.4-7.6,2.9-14.6,5.5-21.6C737.5,0.5,741.5,0.5,745.5,0.5z"/>
	<path class="st1" d="M816.8,0.5c1.9,4.6,2.6,9.3,2.3,14.2c-0.6,7.9-5.3,13.4-13.7,15.8c-1.5,0.4-3.1,0.8-5,1.2
		c6.8,10.5,13.4,20.8,20.5,31.7c-3.9,0-7.2-0.1-10.5,0c-1.8,0.1-2.3-1.2-3-2.3c-5.3-8.3-10.7-16.6-15.8-25c-1.7-2.7-3.4-4-6.8-3.8
		c-7.6,0.3-7.6,0.1-7.6,7.7c0,6.9-0.1,13.7,0.1,20.6c0,2.3-0.6,2.9-2.9,2.9c-8.4,0-8.3,0.1-8.4-8.3c0-18.2-0.1-36.5-0.2-54.7
		c3.8,0,7.5,0,11.3,0c1.4,1.1,1.6,2.7,1.6,4.4c0,4.1,0.1,8.2,0,12.3c0,2.7,0.9,4.3,3.9,4.1c5.5-0.3,11,0.7,16.4-0.6
		c4.3-1,6.6-3.6,7.1-7.6c0.6-4.9-0.8-7.4-5.2-9.7c-1.2-0.6-3-0.8-2.8-2.9C804.3,0.5,810.5,0.5,816.8,0.5z"/>
	<path class="st0" d="M798,0.5c0.9,0.3,1.9,0.6,2.8,0.9c5,1.7,7.1,4.9,7,10.5c-0.1,5.5-2.4,9-7.4,10.2c-7.1,1.8-14.4,0.8-21.5,1
		c-2.2,0.1-1.7-1.7-1.7-2.9c-0.1-6.6-0.1-13.2-0.1-19.8C784,0.5,791,0.5,798,0.5z"/>
	<path class="st1" d="M395,188.7c-6.2,14.3-15.1,25.7-29,31.3c-31.7,12.7-63.8,13.3-94.5-2.9c-41.4-21.9-37.9-74.8-15.5-97
		c10.6-10.5,23.4-16.4,37.8-19.3c19.5-4,39.1-4.1,58,2.6c25.4,9,41.6,26.4,46,53.5c0.7,4.2,0.3,8.5,0.6,12.7
		c0.2,3.1-0.6,4.2-4.1,4.2c-25.1-0.2-50.2-0.1-75.4-0.1c-7,0-14,0.2-21-0.1c-3.4-0.1-3.8,1-3.4,4c1.6,11.9,12.2,22.1,25.5,23.7
		c12.5,1.5,23.9-0.9,32.3-11.4c0.8-1,1.6-1.3,2.9-1.3C368.4,188.7,381.3,188.7,395,188.7z"/>
	<path class="st1" d="M767.2,137.1c-5.9,0-11.7,0-17.6,0c-1.5,0-2.3-0.2-2.8-2c-1.2-4.5-4.5-7.4-8.7-9.2c-10.4-4.4-21-3.9-31.5-0.7
		c-3.4,1.1-6.2,3.3-6.3,7.5c-0.1,4,2.7,5.7,5.8,7c8.1,3.5,16.9,4.1,25.5,5.5c12.4,2,25,3.7,36.7,8.5c9.8,4,18,9.7,21.6,20.4
		c4.5,13.6,0,28-11.8,38c-10.1,8.5-22.1,12.4-34.8,14.4c-17.7,2.8-35.3,3.1-52.7-1.8c-13.5-3.8-25-10.7-32.2-23.3
		c-1.9-3.3-3.2-6.7-3.8-10.5c-0.3-1.7,0.1-2.2,1.8-2.2c11.9,0.1,23.7,0,35.6,0c1,0,1.9,0,2.3,1.3c2.9,7.5,9,11.2,16.4,12.6
		c7.4,1.4,14.9,1.3,22.2-1.2c3.4-1.1,6.5-2.8,6.7-7.1c0.2-3.8-1.9-6.6-6.4-8.3c-8.1-3.1-16.8-3.3-25.3-4.8
		c-11.2-1.9-22.4-3.8-32.9-8.4c-12.1-5.2-21.5-12.9-22.7-27.2c-1.2-14.9,5.2-26.1,17.1-34.4c10.4-7.2,22.2-10.7,34.6-12.2
		c18.7-2.3,37.2-1,54.8,6.5c11.6,4.9,21.1,12.3,26.6,24c3.5,7.3,3.3,7.5-4.7,7.5C776.2,137.1,771.7,137.1,767.2,137.1z"/>
	<path class="st1" d="M482.8,178.6c5.7-12,11.2-23.5,16.7-34.9c6.3-13.2,12.6-26.3,18.8-39.5c1.1-2.3,2.3-3,4.8-3
		c9.5,0.2,19,0.1,28.5,0.1c4.5,0,4.5,0,2.6,3.9c-16.5,33.4-33.1,66.8-49.6,100.2c-2.8,5.7-5.7,11.4-8.5,17.1
		c-0.8,1.8-1.7,2.6-3.9,2.6c-13.2-0.1-26.5-0.1-39.7,0c-2.1,0-3.1-0.8-4-2.5c-21.3-39.4-42.6-78.8-64-118.1
		c-1.8-3.3-0.5-3.2,2.2-3.2c17.7,0.1,35.5,0.1,53.2,0c2.7,0,3.9,1,5.1,3.2C457.4,129,470,153.5,482.8,178.6z"/>
	<path class="st1" d="M120.5,163c0-19.4,0.1-38.8-0.1-58.1c0-2.7,0.6-3.6,3.5-3.6c15.2,0.1,30.5,0.2,45.7,0c3.3,0,4.2,0.7,4.2,4.1
		c-0.1,27.2,0,54.5-0.2,81.7c0,3.4,0.9,4.1,4.1,4.1c19-0.2,38,0,57-0.2c3.6,0,4.3,1.1,4.2,4.4c-0.2,8.7-0.2,17.5,0,26.2
		c0,2.5-0.8,3.1-3.2,3.1c-37.4-0.1-74.7-0.1-112.1,0c-2.6,0-3.3-0.7-3.3-3.3C120.6,202,120.5,182.5,120.5,163z"/>
	<path class="st1" d="M561.8,162.5c0-19.4,0-38.7-0.1-58.1c0-2.5,0.5-3.4,3.2-3.4c15,0.1,30,0.1,45,0c2.7,0,3.3,0.8,3.3,3.4
		c-0.1,39.1-0.1,78.2,0,117.3c0,2.4-0.5,3.2-3.1,3.2c-15.1-0.1-30.2-0.1-45.4,0c-2.5,0-3.1-0.7-3-3.1
		C561.8,202,561.8,182.2,561.8,162.5z"/>
	<path class="st1" d="M630,133c2.3-6,4.5-11.8,6.8-17.9c-4,0-7.6-0.1-11.2,0c-2.2,0.1-3.1-0.5-3-2.9c0.2-6.4,0.1-12.7,0-19.1
		c0-2.2,0.8-2.7,2.8-2.7c7.9,0.1,15.7,0.1,23.6,0c2.1,0,2.8,0.5,2.8,2.7c-0.1,7.1-0.1,14.2,0,21.3c0,1.7-0.6,2.8-1.7,3.9
		c-3.5,3.7-7.1,7.4-10.3,11.3C637.2,133,634.3,134.2,630,133z"/>
	<path class="st0" d="M319.2,148.9c-7.4,0-14.7,0-22.1,0c-1.6,0-2.9,0.2-2.8-2.3c0.6-12.4,10.6-22.2,23.2-22.4
		c15.2-0.3,25.6,7.8,26.8,20.9c0.3,2.8-0.1,4-3.4,3.9C333.7,148.7,326.5,148.9,319.2,148.9z"/>
</g>
</svg>
