<?xml version="1.0" encoding="utf-8"?>
<!-- Generator: Adobe Illustrator 21.1.0, SVG Export Plug-In . SVG Version: 6.00 Build 0)  -->
<svg version="1.1" id="Layer_1" xmlns="http://www.w3.org/2000/svg" xmlns:xlink="http://www.w3.org/1999/xlink" x="0px" y="0px"
	 viewBox="0 0 900 596" style="enable-background:new 0 0 900 596;" xml:space="preserve">
<style type="text/css">
	.st0{fill:#FEFEFE;}
	.st1{fill:#3D3836;}
	.st2{fill:#FDFDFD;}
</style>
<g>
	<path class="st0" d="M451.2,110.8c148.2,0,296.5,0,444.7-0.1c4.4,0,5.4,1,5.4,5.4c-0.1,122.8-0.1,245.6,0,368.3
		c0,4-0.8,4.8-4.8,4.8c-296.9-0.1-593.7-0.1-890.6,0c-4,0-4.8-0.8-4.8-4.8c0.1-123,0.1-246,0-368.9c0-4,0.8-4.8,4.8-4.8
		C154.3,110.8,302.7,110.8,451.2,110.8z"/>
	<path class="st1" d="M456.8,424.8c-4.1,23.9-23.5,36.6-49.4,33.4c-23.2-3-45.2-10.5-67.3-17.7c-20.6-6.7-41-14.2-62.5-17.6
		c-8.6-1.4-17.2-1.5-25.6,0.9c-9.1,2.5-15.5,8.6-19.9,17.5c-1.4-11.7,5.2-23.2,16.8-29.6c2.3-1.3,4-2.6,5.1-5.2
		c17.1-42.4,34.3-84.7,51.5-127c0.3-0.7,0.4-1.5,0.7-2.4c-3.8-0.9-7.5-1.7-11.2-2.8c-26.8-8-39-32.8-28.7-58.8
		c7.8-19.8,22.3-33.8,40.1-44.5c24-14.4,50.5-21.6,77.9-26c43.1-6.9,86.5-8,129.9-3.4c39.5,4.2,78,12.5,113.2,31.9
		c12.8,7.1,24.3,15.7,33.2,27.6c10,13.4,14,28.3,10.2,44.8c-1.4,6.1-4.2,11.4-10.1,14.4c-2.8,1.4-4.2,1.6-4-2.4
		c1.6-22.7-8.7-40-25.6-53.9c-21.5-17.7-47-26.9-73.7-33c-38.8-9-78.2-10.5-117.9-9c-30.6,1.2-60.9,4-90.5,12.4
		c-16.8,4.8-32.9,11.2-46.9,22c-12.3,9.5-21.4,21.1-24.3,36.8c-3.6,19.4,9.1,35.7,28.7,37.2c3.1,0.2,3.6-1.6,4.4-3.6
		c4.1-9.7,8-19.5,12.2-29.2c4.3-9.8,10.2-18.5,19-24.8c8.5-6.1,18-8.4,28.3-6.7c19.3,3.2,29.2,23,20.3,40.8
		c-4.2,8.5-11.1,14.5-19.2,19.3c-8.3,4.8-17.3,8.2-26.7,10.3c-2.8,0.6-4.3,1.9-5.4,4.6c-16.4,40.3-32.8,80.6-49.3,120.9
		c-1.9,4.5-1.5,5.9,3.9,6.6c27,3.3,53.1,11.3,79.4,17.7c20.4,5,40.9,9,62.1,6.6C443.1,431.9,450.4,430.5,456.8,424.8z"/>
	<path class="st1" d="M505.7,380.4c-4.3,4.5-8.6,8.6-13.9,11.7c-10,5.9-20.5,7.3-31.6,4c-5.2-1.6-10-4.2-12.4-9.2
		c-2-4.2-3.3-2.7-5.6-0.6c-9.4,8.6-20.4,12.9-33.3,11.2c-9.3-1.3-16.8-5.1-20.6-14.3c-2.4,0.3-3.5,2.5-5.1,3.8
		c-11,9.4-23.3,13.4-37.5,9.4c-14.1-4-19.5-14.7-14-28.1c7.1-17.4,14.4-34.6,22-51.7c7.6-17,24.3-27.5,41.4-26.7
		c0.7,2.5-1.1,4.4-2,6.3c-11.3,24.9-22.5,49.8-31.6,75.6c-1.4,4-3.9,8.6,0.3,11.9c4.2,3.3,9.1,1.2,13.2-1.3
		c8.1-4.9,13.8-11.9,17.5-20.7c6.2-14.7,12.4-29.5,19-44.1c7.2-16,19.6-25.5,37.1-27.9c1.6-0.2,3.7-1.2,4.8,0.6
		c0.9,1.5-0.6,3-1.2,4.3c-11.5,25-22.7,50.2-32.2,76c-1.6,4.3-4.4,9.5,0.2,13c4.6,3.6,9.8,0.9,14.2-1.8c7.5-4.8,12.3-11.8,15.8-19.9
		c11.9-27.8,24-55.6,36.1-83.3c6.9-15.7,19-24.9,36-27.6c1.9-0.3,3.8-0.8,5.8,0.1c0.2,2.5-1.3,4.4-2.3,6.5
		c-16.6,37.1-33.5,74-47.9,112c-0.4,1.1-0.8,2.2-1.2,3.3c-1.1,3.6-2.7,7.5,0.5,10.4c3.5,3.3,8,1.9,11.5-0.1
		c11.5-6.5,19.4-16.3,24.7-28.2c5.8-12.8,10.8-26,16.8-38.7c8.1-17.3,22.1-26.1,41.6-27.2c0.3,3.2-1.6,5.4-2.6,7.7
		c-10.8,23.8-21.4,47.7-30.4,72.3c-0.3,0.9-0.6,1.8-0.9,2.8c-1.3,3.9-3.4,8.3,0.4,11.4c4,3.3,8.7,1.4,12.7-0.9
		c8.2-4.7,14.1-11.6,17.8-20.4c6.3-14.7,12.5-29.5,19-44.1c7.2-16.3,19.6-26,37.3-28.5c1.6-0.2,3.7-1.2,4.9,0.5
		c0.9,1.4-0.5,2.9-1.2,4.3c-11.5,25.2-22.8,50.5-32.4,76.6c-0.4,1.1-0.8,2.2-1.1,3.3c-2.4,8.1,0.9,11.7,9.1,10.1
		c7-1.3,12.5-5.3,17.5-10.3c-1.3,10.9-11.9,20.8-24.5,22.9c-15.1,2.6-27-2.6-32.9-14.8c-8.7,8.6-18.4,15.1-31.2,15.3
		C519.1,398.1,510.8,393,505.7,380.4z"/>
	<path class="st2" d="M344.7,269.7c3.4-8.3,6.2-15.6,9.4-22.6c2.3-5.2,6.2-9,12-10.2c4.8-1,9,0.4,11.9,4.4c2.9,4.2,1.4,8.2-1.3,11.8
		c-2.5,3.3-5.8,5.8-9.3,7.8C360.5,264.8,353.4,267.8,344.7,269.7z"/>
</g>
</svg>
