<?xml version="1.0" encoding="utf-8"?>
<!-- Generator: Adobe Illustrator 21.1.0, SVG Export Plug-In . SVG Version: 6.00 Build 0)  -->
<svg version="1.1" id="Layer_1" xmlns="http://www.w3.org/2000/svg" xmlns:xlink="http://www.w3.org/1999/xlink" x="0px" y="0px"
	 viewBox="0 0 900 596" style="enable-background:new 0 0 900 596;" xml:space="preserve">
<style type="text/css">
	.st0{fill:#FEFEFE;}
	.st1{fill:#404040;}
	.st2{fill:#4B4B4B;}
	.st3{fill:#010101;}
	.st4{fill:#020202;}
	.st5{fill:#080808;}
	.st6{fill:#090909;}
	.st7{fill:#0D0D0D;}
	.st8{fill:#070707;}
	.st9{fill:#121212;}
	.st10{fill:#060606;}
	.st11{fill:#B3B3B3;}
	.st12{fill:#EBEBEB;}
	.st13{fill:#FCFCFC;}
	.st14{fill:#F8F8F8;}
	.st15{fill:#EFEFEF;}
	.st16{fill:#F4F4F4;}
	.st17{fill:#B8B8B8;}
</style>
<g>
	<path class="st0" d="M902.2,311.8c0,46.7-0.1,93.3,0.1,140c0,5.4-1.2,6.6-6.6,6.6c-295.7-0.2-591.4-0.2-887.1,0
		c-5.4,0-6.7-1.2-6.6-6.6c0.3-23,0.1-45.9,0.1-68.9c0.9-0.8,1.9-1.4,3-2c8.9-2,17.9-0.7,26.8-1c10.8-0.4,13.1-2.2,12.1-12.7
		c-3.9-40.4-0.9-81-1.9-121.4c-0.1-2.5-0.1-5,0.2-7.5c0.4-3.2,0.3-7.6,3.9-8c3.3-0.3,4.9,3.7,6,6.8c6.9,20,13.9,39.9,20.8,59.9
		c8.1,23.4,16.6,46.6,24.3,70.1c4.1,12.4,5.4,12.4,19.9,13c10.3,0.4,15.7-3.6,18.8-13.4c12.9-40.3,28-79.8,41.5-119.9
		c1.7-5,1.7-11.8,9.4-12.5c4.1,3.6,3.1,8.5,3.2,13c0.2,16.1,0,32.1,0.1,48.2c0.1,23.7-0.1,47.3,0.1,71c0.1,12.5,0.9,13.3,13.6,13.3
		c25.4,0,23.2,1.9,23.2-23.2c0.1-58.8,0-117.7,0-176.5c0-15.4-0.4-15.7-15.6-15.7c-8.6,0-17.2,0.2-25.8,0c-7.5-0.2-11.8,3-14.4,10.1
		c-8.9,23.9-16.9,48.1-25.2,72.1c-7.5,21.7-15.5,43.2-22.7,65c-1.2,3.5-1.9,8.7-6.8,8.4c-3.8-0.2-5-4.7-6.3-8
		c-7.7-19.3-13.9-39.2-20.9-58.8c-9.1-25.3-18.1-50.7-26.5-76.2c-3.3-10.1-9.1-13-19.1-12.8c-12.9,0.3-25.8,1.4-38.6-0.9
		c-1.1-0.6-2.2-1.3-3.1-2.1c0-17.2,0-17.2,17.2-17.2c291.1,0,582.2,0,873.3-0.2c8.4,0,9.8,2.2,9.7,10.1
		c-0.4,44.1-0.2,88.2-0.2,132.3c-5.9-0.8-5.3-6-6.4-9.7c-11.6-40.9-46-64.8-90.2-62.6c-35.6,1.8-68.9,33.4-75,71.9
		c-5.7,35.9,8.1,64.5,37,84.7c28.5,20,59.4,19.3,89.4,2.6c13-7.2,22.6-18.6,30.3-31.5c3.3-5.6,3.5-9.4-4.8-9.4
		c-14.3-0.2-27.1,0.3-39.7,11c-23.7,20.4-63,10-74.6-17.5c-5.3-12.6-3-16.4,10.6-16.5c37.3-0.2,74.6-0.1,111.9,0
		c2.9,0,5.7,0,8.5,0.9C900.3,310.4,901.3,311,902.2,311.8z"/>
	<path d="M899.8,311.3c-40.8,0.2-81.7,0.6-122.5,0.2c-9.6-0.1-10.6,2.6-7.7,10.7c10.7,29.7,55.8,38.2,77.7,13.9
		c5.2-5.8,10.1-7.6,17.3-7.3c10,0.4,20,0.1,30.1,0.1c-7.8,29.9-36.9,54.1-69.3,57.9c-45.8,5.3-84.9-21.9-96.4-67
		c-10.9-42.9,12.1-87.5,53.6-104c49.3-19.7,106.7,12.1,117.3,64.9c0.4,1.9-0.8,4.5,2.3,5.2c0,2.2,0,4.3,0,6.5
		C899.1,298.4,903.1,305.3,899.8,311.3z"/>
	<path class="st1" d="M4.4,382.5c-0.8,0.1-1.5,0.3-2.3,0.4c0-73.9,0-147.8,0-221.8c0.8,0.1,1.5,0.3,2.3,0.4
		c3.9,4.1,3.3,9.3,3.3,14.3c0.1,64.2,0.1,128.3,0,192.5C7.7,373.1,8.3,378.4,4.4,382.5z"/>
	<path class="st2" d="M899.8,311.3c1.3-6.2-1.9-13,2.3-18.9c0,6.5,0,12.9,0,19.4C901.4,311.6,900.6,311.5,899.8,311.3z"/>
	<path d="M4.4,382.5c0-73.7,0-147.3,0-221c15.4-0.1,30.9,0.2,46.2-0.6c7.8-0.4,11.2,2.3,13.7,9.6c15.7,46,31.8,91.9,47.9,137.7
		c1.3,3.6,1.5,7.8,5.3,11c16.9-48.7,34-97.1,50.3-145.8c3.2-9.6,7.6-13.5,17.9-12.6c12.5,1.1,25.1,0.6,37.6,0.1c5.8-0.2,7,1.8,7,7.3
		c-0.2,69.2-0.2,138.5,0,207.7c0,5.8-1.7,7.3-7.2,7.1c-9.7-0.4-19.4-0.5-29,0c-5.9,0.3-7.1-1.9-7-7.3c0.4-26.2,0.3-52.4,0.4-78.6
		c1.8-20.1,0.4-40.3,0.7-60.4c0-1.7-0.3-3.7-3-2.3c-16.4,46.8-33,93.6-49.1,140.6c-2.1,6.2-4.8,8.1-11.2,8.1
		c-24.8-0.1-24.8,0.1-33.2-23.7c-15-42.7-29.9-85.5-46.3-128.3c-0.2,2.8-0.6,5.7-0.6,8.5c0.4,44.4,0.8,88.8,1.6,133.2
		c0.1,7.6-1.2,11-9.8,10.2C26,382.1,15.2,382.6,4.4,382.5z"/>
	<path d="M376.4,232.5c0.8-17.6,0.8-17.6,17.5-17.6c21.7,0,21.7,0,21.7,21.4c0,45.9-0.1,91.8,0.1,137.7c0,6.7-1.2,9.9-8.6,8.9
		c-4.6-0.6-9.3-0.1-14-0.1c-15.6,0-15.6,0-16.4-17c-17,20.3-39,22.7-62.3,20.2c-23.5-2.6-42.9-13.2-57.6-31.8
		c-28.6-36.1-23.4-91.8,10.6-123C293.8,206.9,348.7,200.5,376.4,232.5z"/>
	<path d="M594.5,329c-12.2,37-42.9,58.2-82.4,58.1c-38.1-0.1-69.5-23.5-81.8-60.9c-15.5-47.2,11.1-98.3,58.7-112.8
		c44.4-13.5,94.9,14,108.2,58.9c0.4,1.4,0.9,2.7,1.3,4.1c7.6,34.1,6.6,35.4-27.6,35.4c-34.4,0-68.8,0-103.9,0
		c2.4,17,10.4,28.8,25.9,34.5c18.8,6.9,37.4,5.9,52-8.6c7.2-7.2,14-9.4,23.2-8.8C576.5,329.4,585.1,329,594.5,329z"/>
	<path d="M650.6,271.9c0,34.1-0.2,68.1,0.1,102.2c0.1,6.7-1.2,9.8-8.6,8.9c-9.8-1.2-23,4.2-28.7-2.2c-4.9-5.6-1.6-18.4-1.6-28
		c-0.1-60.6,0.1-121.2-0.2-181.7c0-7.9,1.6-10.9,9.9-10c9.2,0.9,21.6-3,27,1.7c6.2,5.4,1.9,18.1,2,27.6
		C650.8,217.4,650.6,244.6,650.6,271.9z"/>
	<path d="M714.8,299.8c0,25.1-0.2,50.2,0.1,75.3c0.1,5.8-1,8.4-7.5,7.9c-9.9-0.7-23.1,3.1-29.1-1.9c-6.3-5.3-1.8-18.8-1.9-28.7
		c-0.2-42.7,0.1-85.4-0.3-128.1c-0.1-7.4,1.6-10.4,9.3-9.5c9.5,1.1,22.2-4,27.7,2.1c4.7,5.2,1.5,17.7,1.5,26.9
		C714.9,262.4,714.8,281.1,714.8,299.8z"/>
	<path class="st3" d="M695.3,149.4c2.7,19,12.8,26.8,33.7,22.4c-19.2,8.9-23.2,21.3-13.8,38.3c-6.4-4.2-12.4-10.8-19.3-11.9
		c-6.5-1-11.3,8.6-21.4,11c11.4-17.6,6.4-29-10.3-37.1c7.5-0.4,17,1.8,22.1-1.9C691.5,166.2,692.4,156.5,695.3,149.4z"/>
	<path class="st4" d="M495.6,182.1c0.1,9.6-7.3,17.3-16.6,17.3c-9.1,0.1-17.2-8-17.2-17.1c0-9.5,7.5-16.9,17-17
		C488.9,165.3,495.5,172,495.6,182.1z"/>
	<path class="st4" d="M564.8,182.5c-0.2,9.6-7.9,17.2-17.2,17c-9.3-0.2-16.9-8.2-16.8-17.5c0.1-9.4,7.7-16.7,17.4-16.5
		C558,165.5,565,172.7,564.8,182.5z"/>
	<path class="st5" d="M581.7,426.1c0-3.6,0-7.1,0-10.7c0-2.4,0.7-4.3,3.6-4.2c3.1,0.1,2.9,2.6,2.9,4.6c0.1,11.1,0.1,22.2,0,33.2
		c0,2,0.4,4.4-2.7,4.8c-2.9,0.4-4.8-0.8-5.6-3.6c-1.7-6-3.4-12-6.7-17.8c0,5.8,0,11.7,0,17.5c0,1.8-0.1,3.6-2.6,3.8
		c-2.6,0.2-3.9-1-3.9-3.7c0-11.4,0-22.9,0-34.3c0-2.9,0.7-4.8,4.2-4.7c2.7,0.1,5,0.3,5.9,3.4c1.1,4,2.2,8.1,3.3,12.1
		C580.5,426.4,581.1,426.3,581.7,426.1z"/>
	<path class="st6" d="M305.7,432.4c0,4.3,0.4,8.6-0.1,12.8c-1.1,9.6-8.6,8.5-15.4,8.8c-8.4,0.4-5.5-5.6-5.7-9.5
		c-0.3-7.5-0.2-15-0.1-22.4c0.1-5.2-2.3-11.7,7.6-11.2c8.3,0.5,14.1,2,13.6,11.8C305.6,426,305.8,429.2,305.7,432.4
		C305.8,432.4,305.7,432.4,305.7,432.4z"/>
	<path class="st7" d="M598.5,431.8c0-3.2-0.5-6.5,0.1-9.6c0.8-4.2-4-11.3,6-11.3c8.6,0,15,1.5,15.1,11.7c0.1,6.8,0.2,13.5,0,20.3
		c-0.3,6.4-2.9,10.4-10.2,11.2c-8.4,0.8-12.8-1.1-11.1-10.5C599.1,439.8,598.5,435.8,598.5,431.8z"/>
	<path class="st5" d="M483.6,453.7c-6.8,1.7-8.7-1.2-8.3-7.8c0.6-8.6,0.1-17.2,0.2-25.8c0-4.3-1.7-9.8,6.3-9.1
		c6.5,0.5,14.2-0.5,13.6,9.1c-0.4,7.3,0.5,14.2,1.3,21.4C497.6,449.9,493.1,455.3,483.6,453.7z"/>
	<path class="st8" d="M506,431.9c0-3.6-0.1-7.1,0-10.7c0.1-5-1.9-10.7,7.3-10.3c8,0.4,14.5,2.2,12.9,11c-1.6,8.8,0.6,17.1,0.3,25.7
		c-0.1,2.3,2.2,6.1-2.9,6.3c-5.3,0.2-4.1-3.6-4.3-6.6c0-0.4,0-0.7,0-1.1c-0.5-3.3,1.4-8.9-3.2-8.9c-6.1,0-2,6-3.1,9.1
		c-0.9,2.6,2.1,7.1-3.3,7.4c-5.7,0.3-3.3-4.3-3.5-6.9C505.7,441.9,506,436.9,506,431.9z"/>
	<path class="st5" d="M557.6,448.8c0.1,2.1,0.9,4.3-1.3,4.9c-1.8,0.4-4.3,1.1-5.3-1.7c-2.8-8-6.1-8.9-9.5-0.4
		c-1.1,2.8-3.1,2.6-5.2,2.1c-2.7-0.7-1.3-2.8-1-4.3c1.7-11.3,3.6-22.5,5.1-33.8c0.5-3.8,2.6-4.4,5.8-4.5c3.4-0.1,5.3,0.8,5.9,4.4
		C553.9,426.7,555.8,437.9,557.6,448.8z"/>
	<path class="st8" d="M411,440.1c-5.2,4-0.8,14.5-12.4,13.6c1.4-4.3,2.2-8.3,4-11.8c4.2-7.9,1.7-15.1-0.9-22.6
		c-0.8-2.4-4.5-6.2,0.7-7.9c4.5-1.5,4.9,3,6.2,5.7c0.7,1.6,1,3.3,1.5,5c1-0.2,1.9-0.1,2.2-0.6c2.9-3.1,1.3-12,7.2-9.7
		c6.1,2.3,0.5,8.7-1.2,12.4c-3.8,8.4,0.8,15.2,2.7,22.5c0.6,2.3,3.6,5.4-0.3,7c-3.9,1.6-5.7-1.3-6.6-4.8
		C413.2,446.2,412.1,443.5,411,440.1z"/>
	<path class="st9" d="M315.3,431.5c0-2.9,0-5.7,0-8.6c0-12.2,2-13.8,14.5-11.9c2.3,0.4,4.3,0.5,4.4,3.4c0.1,3-1.9,3.3-4.2,3.3
		c-3.4,0-7.3-1-7.3,4.9c0,4.4,0.9,6.9,5.8,6.4c2.1-0.2,3.2,1.2,3.2,3.3c0,2.1-1.1,3.5-3.2,3.3c-6.1-0.6-5.7,3.4-5.8,7.5
		c-0.1,5.5,3.8,4,6.7,4.1c2.6,0.1,5.1-0.1,4.8,3.8c-0.2,3.2-2.6,2.6-4.6,2.9c-13.3,1.7-14.3,0.9-14.3-12.8
		C315.3,437.9,315.3,434.7,315.3,431.5z"/>
	<path class="st4" d="M370,430.8c0-5-0.1-10,0-15c0-2.1-0.1-4.4,3-4.6c3.9-0.3,3.8,2.3,3.8,4.9c0,8.6,0,17.1,0,25.7
		c0,2.6,0.2,5.6,3.5,5.5c3.5-0.1,2.9-3.5,2.9-5.8c0.1-8.2,0-16.4,0.1-24.6c0-2.2-1-5.3,3-5.6c3.8-0.3,3.8,2.4,3.8,4.9
		c0,9.6,0.1,19.3-0.2,28.9c-0.2,6.6-4.3,9.4-10.6,9.2c-6.1-0.2-9.1-3.5-9.2-9.5C369.9,440.1,370,435.5,370,430.8
		C370,430.8,370,430.8,370,430.8z"/>
	<path class="st10" d="M432.4,432.4c0-3.2,0-6.4,0-9.7c0-12.1,1.6-13.4,13.5-11.6c2.3,0.3,4.3,0.4,4.5,3.3c0.1,3.1-2,3.3-4.2,3.2
		c-3.7-0.1-7.1-0.5-7,5.2c0.1,4.4,0.9,6.8,5.8,6.4c2-0.2,3.3,1.2,3.2,3.3c-0.1,2.2-1.5,3.2-3.5,3c-6.5-0.6-5.2,4-5.4,7.8
		c-0.3,5.6,3.8,3.8,6.7,4c2.2,0.2,4.3,0,4.5,3.1c0.2,4.1-2.7,3.1-5.1,3.5c-9.4,1.5-15.2-0.6-13-11.9
		C432.9,438.9,432.4,435.6,432.4,432.4z"/>
	<path class="st9" d="M343.3,432.9c0-5.4,0-10.7,0-16.1c0-2.9,0-5.9,4.3-5.8c4.8,0.1,3.3,3.8,3.4,6.2c0.2,7.5,0.2,15,0,22.5
		c-0.1,4.5-0.4,8.8,6.4,7.6c2.1-0.4,4.2-0.1,4.4,3c0.2,4-2.6,3.3-5,3.6c-13.3,1.3-13.5,1.1-13.6-12.5
		C343.3,438.7,343.3,435.8,343.3,432.9z"/>
	<path class="st11" d="M185.3,234.4c-0.3-3,1.4-4.9,3.6-6.9c-1.3,23.3,2,46.5-1.3,69.6c-0.2-18-0.4-36-0.6-54
		C187,240.1,188.7,236.7,185.3,234.4z"/>
	<path class="st0" d="M769.3,279.3c8.6-23.2,24.8-33.8,49-32.5c19.5,1.1,34.3,13.1,39.3,32.5C828.3,279.3,799.1,279.3,769.3,279.3z"
		/>
	<path class="st0" d="M325.8,346.6c-26.8-0.2-47.3-21.9-46.9-49.6c0.4-26.2,21.7-47.5,47.4-47.3c25,0.3,46.6,23.2,46.6,49.6
		C372.8,325.2,351.4,346.7,325.8,346.6z"/>
	<path class="st0" d="M469,279.4c7-21.8,23.1-32.9,45.8-32.5c21.7,0.4,36.1,11.3,42.4,32.5C527.9,279.4,498.8,279.4,469,279.4z"/>
	<path class="st12" d="M292,432.3c1.8-4.8-2.5-13.6,3.2-13.7c6.7-0.1,3.5,8.7,3.5,13.4c0,5.1,3.3,14.5-3.4,14.5
		C289,446.4,294.3,437,292,432.3z"/>
	<path class="st13" d="M612.2,432.7c-2,4.8,2.8,13.6-3.5,13.7c-6.5,0.1-1.7-8.6-3.2-13c-0.1-0.3-0.1-0.7,0-1.1
		c1.2-4.8-2.6-13.9,2.8-13.7C615.6,419,609.7,428.1,612.2,432.7z"/>
	<path class="st14" d="M482.6,441.1c0.4-2.3-1-5.7,2.7-5.9c4.3-0.3,3.6,3.5,3.7,6.2c0.1,2.4,0.5,5.5-3,5.8
		C481.2,447.5,483.2,443.5,482.6,441.1z"/>
	<path class="st15" d="M488.8,422c0,3.5-0.5,6.1-3.8,6c-3.1-0.1-2.4-2.9-2.3-4.8c0.1-2.2-0.9-5.6,3.1-5.1
		C488.2,418.3,489,420.5,488.8,422z"/>
	<path class="st16" d="M512.7,424.1c0.6-2.4-1.3-6.4,3.4-6.2c3.4,0.1,3.1,3.4,3.1,5.8c0.1,2.8,0.1,6.3-3.8,6.2
		C511.5,429.9,513.2,426.3,512.7,424.1z"/>
	<path class="st17" d="M546.5,425.1c0.8,3.8,1.7,7.5,2.3,11.3c0.3,1.9-0.3,3.7-2.6,3.7c-2.1,0-3.2-1.5-2.9-3.5
		c0.5-3.8,1.2-7.6,1.8-11.4C545.6,425.2,546.1,425.2,546.5,425.1z"/>
</g>
</svg>
