<?xml version="1.0" encoding="utf-8"?>
<!-- Generator: Adobe Illustrator 21.1.0, SVG Export Plug-In . SVG Version: 6.00 Build 0)  -->
<svg version="1.1" id="Layer_1" xmlns="http://www.w3.org/2000/svg" xmlns:xlink="http://www.w3.org/1999/xlink" x="0px" y="0px"
	 viewBox="0 0 700 965" style="enable-background:new 0 0 700 965;" xml:space="preserve">
<style type="text/css">
	.st0{fill:#FEFEFE;}
	.st1{fill:#1F1F1F;}
	.st2{fill:#202020;}
	.st3{fill:#676767;}
	.st4{fill:#FDFDFD;}
	.st5{fill:#AAAAAA;}
</style>
<g>
	<path class="st0" d="M0.4,506.7c0-43.4,0-86.8,0-130.2c0-1.2,0.2-1.5,1.5-1.5c232.4,0,464.8,0,697.1,0c1.3,0,1.5,0.3,1.5,1.5
		c0,53.5,0,107,0,160.5c-3.1,4.5-6.7,8.5-11,11.9c-2.6,2.1-5.6,3.6-9.1,3.9c-3.7,0.3-5.7-2-7.6-4.5c-1.9-2.4-1.4-3.6,1.2-5.2
		c3.5-2.1,7.4-3.4,10.6-6c1.8-1.5,3.4-3.2,4.3-5.3c0.4-0.9,0.4-1.8-0.2-2.6c-3-4.4-7-7.1-12.5-7.4c-4.6-0.2-9.1-0.2-13.6,1
		c-7.1,2-12.9,5.9-16.9,12.3c-2.1,3.3-2.3,7.1-1.6,10.8c0.5,2.7,2.9,4.3,4.7,6.2c3.2,3.4,7.1,6.1,11.2,8.4c4.8,2.6,10,4.3,15.5,5
		c2.1,0.3,4.2,0.5,6.4,0.1c5.1-0.8,8-4.4,10.4-8.4c3-5,4.4-10.7,6.4-16.1c0.4-1.2,0.4-2.7,1.8-3.3c0,9.5,0,19,0,28.5
		c0,0.9-0.2,1.3-1.1,1.1c-0.2,0-0.5,0-0.7,0c-232.1,0-464.2,0-696.4,0c-1.6,0-1.9-0.4-1.9-1.9c0.1-14.7,0-29.5,0-44.2
		c1,0.2,0.8,1.1,0.8,1.7c0.5,4.6,1.8,9,4.2,12.9c1.8,2.9,3.7,3,6.3,1.5c0.9-0.5,1.4-1.4,1.6-2.3c0.8-2.8,1-5.6,1.1-8.5
		c0.2-5.2-0.5-10.4,0.7-15.5c0.7-3,2.4-5.1,5.3-6.3c2.3-0.9,3.4-0.7,5,1.2c2.9,3.2,5.4,6.8,7.8,10.3c2.7,4,5.2,8.2,8.3,12
		c1.2,1.5,1.2,1.5,2.4,0c2.8-3.5,5-7.3,7.3-11.1c3.5-5.7,6.9-11.5,10.9-16.8c1.9-2.6,4.2-4.9,6.4-7.3c1.8-1.9,3.7-1.7,5.1,0.6
		c2.3,3.6,2.6,7.5,1.4,11.6c-0.9,3-2,5.9-3.2,8.7c-2.7,6.4-2.7,12.9-0.5,19.4c1.6,4.8,4.4,9.1,7.5,13.1c3.6,4.7,7.5,9.3,11.1,14
		c0.5,0.6,1.1,1.2,1.3,2.3c-2.1-10.3-3.3-20.4-4.5-30.4c-0.9-7.1-1.4-14.3-2.1-21.4c-0.5-5.6-0.8-11.3-1.2-16.9
		c-0.5-6-0.6-12-1.4-18c-0.4-2.7-0.8-2.8-3.5-2.2c-3,0.6-5.8,1.4-8.3,3.4c-3,2.4-5.1,5.6-7,8.8c-2.4,4.1-4.2,8.5-6.5,12.7
		c-2.4,4.5-5,8.9-9.4,11.9c-1,0.7-2,1.3-3.2,1.8c-2.6,1.1-3.7,0.8-5.4-1.6c-2.8-3.9-4.6-8.3-6.1-12.8c-1.4-4.2-2.8-8.5-5-12.3
		c-1.2-2.1-2.5-4.2-4.4-5.8c-2.9-2.5-7.3-2.5-10.3,0c-3.9,3.3-6.4,7.5-8.4,12c-1.8,4.2-3.4,8.5-3.4,13.2
		C1.2,505.9,1.3,506.7,0.4,506.7z"/>
	<path class="st1" d="M0.4,506.7c0.7-1.2,0.5-2.5,0.5-3.7c0.2-4.6,2.3-8.5,4-12.6c1.8-4.3,4.6-7.9,8-11c2.6-2.4,8.3-2,10.8,0.5
		c5.2,5,7.2,11.7,9.4,18.2c1.6,4.6,3.4,9.1,6.3,13c1.4,2,2,2.2,4.4,1.3c3.8-1.5,6.7-4.3,9-7.6c4.1-5.9,6.6-12.8,10.2-19
		c3.4-5.9,7.5-11.3,15.1-12.1c0.1,0,0.2,0,0.4-0.1c3.3-1.2,3.9-1.1,4.3,3c1.3,15.3,2.2,30.6,3.6,45.9c1.3,13.3,2.8,26.5,5.4,39.6
		c0.1,0.5,0.3,1,0,1.7C88,558.7,83.9,554,80,549c-4.1-5.2-7.8-10.6-9.6-17.1c-1.9-6.8-1.2-13.2,1.7-19.5c1.4-3.1,2.6-6.3,3-9.7
		c0.5-3.4-0.3-6.5-2.4-9.3c-1-1.3-2-1.4-3.2-0.3c-4.6,4.3-8.4,9.3-11.7,14.7c-3,4.8-5.9,9.5-9,14.3c-1.6,2.5-3.3,5-5,7.5
		c-0.7,1.1-1.5,1.1-2.3,0.1c-4.4-6.5-8.8-12.9-13.3-19.4c-0.9-1.3-2-2.4-3-3.6c-2-2.2-5.8-1.8-7.8,0.7c-2.4,3-2.5,6.5-2.6,10
		c-0.2,4.9,0.3,9.8-0.4,14.6c-0.2,1.4-0.5,2.9-1,4.3c-1,2.9-5.4,3.8-7.4,1.5c-2.9-3.5-4.2-7.6-5-11.9c-0.3-1.5-0.5-3-0.8-4.5
		C0.4,516.5,0.4,511.6,0.4,506.7z"/>
	<path class="st1" d="M700.4,537.8c-2,4.2-3.1,8.8-4.8,13.1c-1.9,4.8-4,9.5-8.1,12.8c-2.7,2.2-6.2,2.9-9.7,2.5
		c-3.9-0.4-7.8-1-11.4-2.3c-7.3-2.7-13.6-6.8-19-12.4c-0.9-0.9-1.7-1.9-2.5-2.9c-1.4-1.7-1.8-3.6-1.8-5.8c0.1-5,2.1-9.1,5.6-12.6
		c3-3,6.4-5.1,10.3-6.8c6.2-2.7,12.7-2.7,19.1-2c4.5,0.5,7.9,3.3,10.6,7c1,1.3,1.1,2.7,0.3,4.2c-0.8,1.4-1.7,2.7-2.9,3.7
		c-1.7,1.4-3.4,2.9-5.5,3.7c-2.3,0.8-4.2,2.3-6.4,3.4c-2.9,1.5-3.1,2.4-1.1,5.1c3.1,4.1,7.9,4.7,12.4,2.2c5.6-3.1,9.4-8,13.5-12.6
		c0.4-0.4,0.8-0.7,1.2-1.1C700.4,537.3,700.4,537.6,700.4,537.8z"/>
	<path class="st1" d="M435.7,537.7c4.3,2.1,9.3,2.2,13.6,4.4c2.4,1.2,4.9,2.1,7.2,3.8c4.4,3.2,7,7.3,7.9,12.7
		c-1.1-1.5-2.5-2.7-3.7-4c-2.9-3.2-6.1-5.9-10-7.8c-2-1-2.8-0.8-3.9,1.1c-3.1,5.5-7.5,9.5-13.1,12.3c-2.3,1.2-4.7,2-7.1,3
		c-8.7,3.5-17.6,3.4-26.5,1.1c-4.5-1.2-8.8-3.3-12.2-6.4c-4.8-4.4-7.1-10.1-7.9-16.5c-1.2-9.8,1.1-18.8,6.7-26.9
		c2.3-3.3,4.9-6.2,7.8-8.9c4-3.7,8.4-6.9,13.1-9.8c3.5-2.2,7.2-4.1,10.8-6.1c4.6-2.6,9.6-4.1,14.5-5.8c3.2-1.1,6.4-2.3,9.6-3.3
		c1.2-0.4,1.5-0.2,1.3,1.1c-0.6,3.6-2.7,6.2-5.6,8.1c-2.2,1.4-4.5,2.6-6.9,3.5c-3.1,1.2-6.1,2.6-9,4.1c-4.5,2.2-7.6,6-10.3,10.1
		c-1.8,2.7-3.6,5.5-5.2,8.3c-4.4,7.4-7.4,15.3-7.7,24c-0.1,3.7,1.1,6.7,3.5,9.4c3,3.4,6.5,6,10.6,7.9c3.3,1.6,6.8,2,10.3,2.6
		c4.5,0.7,8-1,10.8-4.3c2.5-2.9,4.4-6.1,3.9-10.2c-0.2-1.9-0.8-3.7-1.9-5.3C435.9,539.1,435.4,538.7,435.7,537.7z"/>
	<path class="st1" d="M258,483.9c3.4,3.3,5.8,6.9,7.2,11.1c2.6,7.7,2.1,15.5,1.2,23.3c-1,8.4-2.8,16.7-3.5,25.1
		c-0.6,7.6,0,15.1,2.8,22.2c0.1,0.2,0.2,0.4,0,0.7c-3.2-1.1-5.6-3.4-7.7-5.9c-7.4-8.8-8.7-19.5-9.1-30.4
		c-0.5-13.2,1.5-25.9,5.8-38.4C255.6,489.1,256.5,486.5,258,483.9z"/>
	<path class="st1" d="M582.2,543.1c-2.5,4.2-5.1,7.6-8.6,10.4c-3.4,2.7-7,4.8-10.9,6.6c-2.7,1.2-5.6,1.8-8.3,3
		c-2.9,1.2-5.9,1.6-8.8,2.5c-1,0.3-1.6,0-2-0.9c-2.5-4.5-1.6-10.9,1.9-14.7c2.2-2.4,4.9-4.3,7.5-6.2c1.8-1.3,3.2-2.9,4.9-4.3
		c0.8-0.7,0.9-1.4,0.6-2.4c-1.2-3.5-3.9-6.1-6-9c-0.5-0.7-1.3-0.7-2-0.7c-2.8-0.2-5.3,0.5-7.5,2.4c-2.6,2.2-5.4,4.2-8.1,6.3
		c-0.2,0.2-0.5,0.3-0.8,0.4c-1.4,0.5-3.2,1.3-4.2,0.3c-0.8-0.8,0.4-2.4,1-3.6c2.9-6,7.4-10.2,13.8-12.5c3.7-1.3,7.3-1.9,11-1.3
		c4.6,0.8,8.6,2.7,11.6,6.4c0.6,0.7,0.9,1.6,0.9,2.7c0,5,1,9.7,4.3,13.6c1.4,1.7,3,3.8,5.8,3.3C579.6,545,580.5,543.8,582.2,543.1z"
		/>
	<path class="st1" d="M531.2,504c-4.3-0.2-8.3,1-12.1,2.5c-4.4,1.7-8.4,4.3-11.9,7.5c-2.4,2.2-4.6,4.4-6.7,6.8
		c-4.5,5.3-7.9,11.3-10.7,17.6c-2.5,5.7-4.8,11.5-7,17.4c-0.9,2.5-1.8,5-2.9,7.4c-1-12.5-2.3-25-0.1-37.5c1.2-7,3.9-13.5,8.8-18.8
		c1.5-1.6,3.1-3,5.1-4c3.8-2,7.8-3.4,12-4.4c4-1,7.9-1.3,11.8-0.5C522.4,499,527.3,500.1,531.2,504z"/>
	<path class="st1" d="M633,556.1c-5.7,3.8-12,6.1-18.6,7.6c-4.3,1-8.9,1.2-13-0.1c-8.2-2.7-12.3-9.1-13.2-17.4
		c-0.5-4.6-0.3-9.3,1.1-13.8c1.3-4.2,3.7-7.3,8.2-8.7c5.6-1.9,11.1-3.9,16.5-6.2c2.5-1,5-1.9,7.4-2.9c4.8-2,9.6-4.1,14.6-5.8
		c1.3-0.4,2.6-0.7,4-0.4c-0.7,2.3-2,4.2-3.4,5.9c-2.6,3.2-5.6,5.9-9.2,8c-4.5,2.7-9.3,4.7-14.1,6.7c-4.1,1.7-8,3.9-11.9,6
		c-1.1,0.6-1.8,1.6-1.9,2.9c-0.3,4.8,0.1,9.6,3.6,13.3c2.2,2.3,4.9,4.1,8.1,4.9c5.5,1.3,11,0.9,16.5,0.2c1.4-0.2,2.8-0.4,4.2-0.6
		C632.3,555.7,632.9,555.2,633,556.1z"/>
	<path class="st1" d="M333.2,543.2c-2.1,4-4.9,7.4-8.4,10.3c-5.4,4.5-11.5,7.5-18.1,9.7c-3.5,1.2-7,1.7-10.6,2.4
		c-1,0.2-1.6,0-1.9-1.1c-0.5-1.8-1-3.5-1.2-5.3c-0.5-3.8,1.4-6.6,3.8-9.2c2-2.2,4.5-4,6.8-5.8c1.7-1.3,3.2-2.8,4.9-4
		c1.3-0.9,1.2-2,0.8-3.3c-0.7-2.1-2.7-3.2-3.6-5.2c-0.1-0.3-0.3-0.5-0.5-0.8c-1.3-2.6-2.7-3.3-5.7-3.1c-3.6,0.2-6.1,2.6-8.8,4.6
		c-2.7,1.9-5.2,4.3-8.7,5c-1.3,0.3-1.6,0-1.3-1.3c0.6-2.8,2.1-5.2,3.8-7.4c3.8-4.9,8.7-7.7,14.9-8.4c1-0.1,1.9-0.7,2.9-0.7
		c4,0,7.9,0.9,11.3,2.8c3.1,1.8,5.7,4.1,5.7,8.3c0,4,1,7.8,3.5,11.1c1.1,1.6,2.6,2.7,4.3,3.4c1.7,0.7,3.6,0.8,4.7-1.2
		c0.3-0.5,0.6-0.9,0.9-1.4C332.9,542.8,333.1,543,333.2,543.2z"/>
	<path class="st1" d="M153.4,543.8c-0.4,2.3-1.9,3.5-2.9,4.9c-1.8,2.5-4.2,4.7-6.7,6.5c-5.1,3.7-10.8,6.1-16.9,8
		c-3.2,1-6.4,1.7-9.6,2.7c-1,0.3-1.6,0.1-2-0.9c-1.9-4.3-3.1-8.8,1.1-13.4c2-2.1,4-4.1,6.3-5.9c2.4-1.8,4.6-3.9,6.8-5.9
		c1.1-1,1-2.8-0.5-4.8c-1.5-1.9-3.3-3.6-3.8-6.1c-0.1-0.3-0.6-0.5-1-0.7c-3.3-1.2-6.2-0.9-9.1,1.4c-2.6,2.1-5.1,4.4-7.8,6.3
		c-1.4,1-3.1,1.4-4.8,1.5c-0.9,0-1.3-0.1-1.1-1.2c0.6-2.9,1.9-5.6,3.9-7.7c4-4.3,8.8-7.2,14.8-8.5c4.7-1.1,8.6,0.3,12.8,1.5
		c2.3,0.7,3.8,2.5,5.6,3.9c0.6,0.5,0.9,1.4,1,2.3c0.5,3.6,1,7.2,2.4,10.6c1.1,2.7,2.8,4.9,5,6.7c1.3,1,4.2,0.7,5.4-0.5
		C152.5,544.5,152.7,544.3,153.4,543.8z"/>
	<path class="st1" d="M164.9,559.9c0.2-9.2-1.9-18-1.4-26.9c0.1-2.5,0.6-4.9,1.2-7.4c0.3-1.1,0.7-1.5,1.7-0.6
		c2.3,2.1,4.1,4.5,5.4,7.4c1.4,3.3,2.7,6.5,4.1,9.9c3.6-3.2,6.5-7,9.9-10.3c3.1-2.9,6.6-5.1,11.3-4c1.1,0.3,1.7,0.7,1.8,2
		c0.2,3.6,1.6,7,3.1,10.2c1.8,4,4,7.8,5.3,12c1.2,3.9,1.2,7.9,0.1,11.8c-0.4,1.4-1.1,1.8-2.5,1.6c-5.2-0.8-8.2-4.3-10.6-8.5
		c-2.9-5.2-4.3-10.9-6-16.5c-0.6-2.1-0.7-2-2.8-1.1c-2.5,1.1-4.3,3.2-6,5.2c-3.4,4.1-6.3,8.7-10.6,12
		C167.6,557.6,166.5,558.7,164.9,559.9z"/>
	<path class="st1" d="M221,547.8c0.1-3.2,0-6.3-0.4-9.5c-0.3-1.7,0.1-2,1.8-1.6c1.8,0.4,3.4,1.4,5.3,1.4c0.7,0,0.7,0.5,0.8,1
		c1.4,7.9,2.9,15.8,4.3,23.7c0.1,0.7-0.2,1.2-0.8,1.5c-2.2,1.1-4.6,1.3-6.8,0.7c-1.8-0.5-2.3-2.7-2.9-4.4
		C220.8,556.5,221,552.2,221,547.8z"/>
	<path class="st2" d="M237,508.6c-1.2,0-2.5-0.5-3.1-1.8c-0.5-1.2,0.5-2.1,1.2-3c0.9-1.1,2.1-1.8,2.1-3.5c0-0.8,0.5-0.6,1-0.4
		c2,0.8,3.2,3.8,2.1,5.7C239.6,506.9,239.3,508.8,237,508.6z"/>
	<path class="st3" d="M633,556.1c-0.2-0.5-0.8-0.2-1.1-0.4c0.9-0.4,1.8-0.6,2.5-1.3c0.2-0.3,0.4-0.5,0.7-0.1
		c0.2,0.3,0.4,0.7-0.1,0.9C634.3,555.4,633.7,555.8,633,556.1z"/>
	<path class="st0" d="M670.3,540c-1.6-0.1-3.3-0.2-4.6-1.3c-1.3-1.1-1.3-2.4,0-4.1c1.5-2,3.5-3.5,6.1-3.8c2.1-0.3,4.2-0.5,6.3-0.7
		c0.5-0.1,1.2-0.3,1.1,0.7C678.9,534.4,675.3,540.4,670.3,540z"/>
	<path class="st4" d="M551.6,553.8c0-3,2.7-4.5,5.5-3c0.1,0.1,0.2,0.3,0.4,0.4c0.6,0.4,1.9,0.2,1.8,1.2c0,1.2-0.6,2.3-1.6,3.2
		c-0.8,0.6-1.7,1-2.6,1.2C552.5,557.3,551.5,556.4,551.6,553.8z"/>
	<path class="st4" d="M303.5,556.9c-0.5-0.4-0.7-1-0.9-1.5c-0.8-2.6,0-3.8,2.7-3.9c1,0,2.1,0,3.1,0.1c0.7,0.1,1.8,0.2,2,1.1
		c0.2,1-0.3,1.9-1.1,2.5c-1.1,0.9-2.4,1.4-3.8,1.7C304.8,557.3,304.1,557.3,303.5,556.9z"/>
	<path class="st5" d="M303.5,556.9c0.7,0,1.3,0,2,0C304.8,558,304.1,558.1,303.5,556.9z"/>
	<path class="st4" d="M123.2,554.7c0-2.7,0.6-3.2,3.1-3.3c1,0,1.9,0.1,2.9,0.4c0.7,0.3,1.9,0.2,2,1c0.1,0.9-0.5,1.8-1.2,2.5
		c-1.3,1.2-3.1,1.6-4.6,2.3c-1.1,0.5-1.6-0.1-1.9-1.1C123.2,555.8,123.2,555.2,123.2,554.7z"/>
</g>
</svg>
