<?xml version="1.0" encoding="utf-8"?>
<!-- Generator: Adobe Illustrator 21.1.0, SVG Export Plug-In . SVG Version: 6.00 Build 0)  -->
<svg version="1.1" id="Layer_1" xmlns="http://www.w3.org/2000/svg" xmlns:xlink="http://www.w3.org/1999/xlink" x="0px" y="0px"
	 viewBox="0 0 700 965" style="enable-background:new 0 0 700 965;" xml:space="preserve">
<style type="text/css">
	.st0{fill:#FCFCFC;}
	.st1{fill:#FEFEFE;}
</style>
<g>
	<path class="st0" d="M700.1,499.9c0,3.8,0,7.6,0,11.4c0,0.4-0.1,0.5-0.4,0.4c0,0-0.1,0-0.1,0c-232.9,0-465.8,0-698.8,0
		c-0.6,0-0.8-0.1-0.7-0.7c0-0.2,0-0.3,0-0.5c0.2-0.2,0.5-0.2,0.8-0.2c1.8,0,3.5,0,5.3,0c0.8,0,0.8,0,0.8-0.8c0-9.9,0-19.8,0-29.6
		c0-0.3,0-0.5,0-0.8c0.1-0.3,0.2-0.3,0.4-0.1c0.1,0.1,0.2,0.3,0.3,0.5c3.4,5.8,6.8,11.7,10.2,17.5c1.5,2.6,3,5.2,4.6,7.8
		c0.3,0.6,0.4,0.6,0.7,0c4.5-7.7,9-15.5,13.5-23.2c0.4-0.8,0.9-1.5,1.3-2.3c0.1-0.2,0.2-0.5,0.4-0.4c0.2,0.1,0.2,0.4,0.2,0.6
		c0,0.2,0,0.4,0,0.6c0,9.7,0,19.4,0,29.1c0,0.2,0,0.4,0,0.6c0,0.4,0.2,0.6,0.6,0.6c1.9,0,3.8,0,5.6,0c0.4,0,0.6-0.1,0.6-0.6
		c0-0.2,0-0.3,0-0.5c0-13.6,0-27.3,0-40.9c0-1,0-1-1-1c-2.1,0-4.2,0-6.3,0c-0.5,0-0.9,0.2-1.1,0.6c-2.4,4.1-4.9,8.1-7.3,12.2
		c-2.1,3.6-4.3,7.1-6.4,10.7c-0.6,1-0.7,1-1.3,0c-4.3-7.2-8.5-14.5-12.8-21.7c-0.2-0.4-0.5-0.8-0.7-1.3c-0.2-0.5-0.6-0.6-1.1-0.6
		c-2.2,0-4.4,0-6.6,0c-0.3,0-0.6,0.1-0.8-0.2c0-0.8,0-0.8,0.8-0.8c75.7,0,151.5,0,227.2,0c0,0.3-0.3,0.2-0.4,0.3
		c-3.2,0.3-6.2,1.1-9.1,2.5c-5.1,2.5-8.8,6.4-10.7,11.9c-1.1,3.2-1.5,6.4-1.2,9.8c0.3,4.8,2,9.2,5.3,12.8c1.6,1.8,3.5,3.2,5.6,4.4
		c2.9,1.6,6,2.6,9.3,3c2,0.2,4.1,0.3,6.1,0.2c2.3-0.2,4.6-0.4,6.9-1c4.3-1.1,8.1-3.1,11.4-6c0.5-0.4,1-0.9,1.5-1.4
		c0.4-0.5,0.4-0.5,0-0.9c-0.7-0.7-1.5-1.5-2.2-2.2c-0.6-0.5-1-1.2-1.6-1.7c-0.5-0.5-0.6-0.5-1.2,0c-1.5,1.2-3,2.4-4.7,3.4
		c-2.7,1.5-5.5,2.5-8.6,2.8c-1.2,0.1-2.4,0.2-3.6,0.2c-4.1-0.1-7.9-1-11.2-3.5c-3.2-2.4-4.9-5.7-5.4-9.7c-0.3-2.6-0.1-5.2,0.8-7.6
		c1.4-3.7,4-6.4,7.6-8c2.4-1.1,4.9-1.5,7.5-1.6c5.5-0.2,10.4,1.5,14.8,4.5c0.9,0.6,0.9,0.6,1.6-0.2c1.2-1.5,2.4-2.9,3.6-4.4
		c0.4-0.5,0.4-0.5-0.1-0.9c-4.4-3.1-9.2-5.1-14.6-5.8c-0.4,0-0.7-0.1-1.1-0.1c-0.2,0-0.4,0-0.4-0.3c77.4,0,154.7,0,232.1,0
		c0,0.3-0.3,0.2-0.5,0.3c-3.4,0.3-6.6,1.2-9.6,2.7c-2,1-3.8,2.3-5.4,3.9c-3.5,3.6-5.5,7.9-6,12.9c-0.4,4,0,7.9,1.5,11.6
		c1.9,4.5,5,7.9,9.4,10.3c3.3,1.8,6.8,2.7,10.5,3c4.6,0.4,9.1,0,13.4-1.5c3.6-1.2,6.9-3,9.8-5.6c0.5-0.5,1-0.9,1.5-1.4
		c0.3-0.3,0.3-0.5,0-0.8c-1.4-1.4-2.8-2.7-4.1-4.2c-0.3-0.3-0.6-0.1-0.8,0.1c-0.8,0.7-1.6,1.3-2.4,1.9c-1.9,1.3-3.9,2.5-6.1,3.3
		c-2.1,0.7-4.3,1-6.6,1.2c-1.9,0.1-3.7,0-5.6-0.3c-3.4-0.6-6.5-2-8.9-4.5c-2.2-2.3-3.5-5.1-3.9-8.3c-0.3-3-0.1-5.9,1.2-8.6
		c1.3-3,3.4-5.2,6.3-6.7c2.7-1.4,5.6-2,8.6-2.1c4.2-0.1,8.1,0.8,11.8,2.8c1.1,0.6,2.2,1.2,3.3,2c0.4,0.3,0.7,0.2,1-0.2
		c1.3-1.6,2.5-3.1,3.8-4.7c0.4-0.5,0.4-0.6-0.1-1c-4.2-3-8.9-5-14-5.7c-0.5-0.1-1-0.1-1.5-0.2c-0.2,0-0.5,0.1-0.5-0.3
		c21.6,0,43.1,0,64.7,0c0,0.3-0.3,0.2-0.4,0.3c-3.1,0.3-6.2,1.1-9,2.5c-3.6,1.8-6.6,4.3-8.8,7.8c-1.8,3-2.8,6.3-3.1,9.8
		c-0.3,3.8,0.2,7.4,1.6,10.9c0.9,2.2,2.1,4.2,3.7,5.9c3.9,4.2,8.8,6.4,14.4,7.2c1.7,0.3,3.4,0.4,5.1,0.4c4.1-0.1,8.2-0.7,11.9-2.6
		c6.9-3.4,10.9-9,11.9-16.6c0.6-4.2,0.1-8.3-1.6-12.3c-1.4-3.4-3.6-6.1-6.5-8.3c-3.8-2.8-8-4.3-12.7-4.7c-0.2,0-0.5,0.1-0.5-0.3
		c52.2,0,104.5,0,156.7,0c0.4,0,0.5,0.1,0.5,0.5c0,9.6,0,19.1,0,28.7c-0.3,0-0.2-0.3-0.3-0.4c-0.7-3.6-3.1-5.8-6.2-7.4
		c-2.7-1.3-5.6-1.8-8.5-2.3c-2.7-0.4-5.5-0.7-8.2-1c-2.3-0.2-4.6-0.5-6.9-1.2c-0.8-0.2-1.6-0.6-2.3-1c-2.6-1.4-2.8-4.6-0.4-6.3
		c1.2-0.9,2.6-1.3,4-1.6c1.5-0.3,3.1-0.4,4.7-0.5c3.4-0.2,6.7,0.3,9.9,1.2c2.3,0.7,4.4,1.7,6.3,3c0.2,0.1,0.4,0.3,0.6,0.4
		c0.3,0.3,0.6,0.2,0.8-0.1c0.5-0.6,0.9-1.3,1.4-1.9c0.8-1,1.6-2.1,2.3-3.1c0.4-0.5,0.4-0.6-0.2-1c-2.2-1.5-4.5-2.7-7-3.6
		c-2.8-1-5.7-1.6-8.7-1.8c-4.1-0.3-8.2-0.1-12.3,0.9c-2.7,0.7-5.2,1.7-7.4,3.5c-2.4,2.1-3.8,4.6-3.8,7.9c0,1.7,0.1,3.3,0.9,4.8
		c0.9,1.9,2.3,3.2,4.1,4.3c2.4,1.4,5,2.1,7.8,2.6c3.5,0.6,7.1,1,10.6,1.3c2.6,0.3,5.2,0.6,7.7,1.7c1,0.4,2,1,2.7,1.9
		c1.3,1.9,0.8,4.3-1.1,5.8c-1.2,1-2.5,1.6-4,2c-2.1,0.6-4.2,0.8-6.4,0.8c-2.5,0-4.9,0-7.4-0.5c-4.7-0.9-8.9-2.9-12.5-6
		c-1.2-1-0.9-0.8-1.7,0.2c-1.2,1.5-2.3,3-3.4,4.5c-0.4,0.6-0.4,0.7,0.1,1.1c2.9,2.4,6,4.3,9.5,5.5c3.1,1.1,6.4,1.8,9.7,2
		c5.2,0.3,10.4,0.1,15.5-1.6c2.8-1,5.4-2.4,7.4-4.7c1.2-1.3,1.9-2.8,2.4-4.5C699.8,500.3,699.8,500,700.1,499.9z"/>
	<path d="M0.1,467.3c2.6,0,5.1,0,7.7,0c0.4,0,0.7,0.2,0.9,0.5c1.2,2.1,2.4,4.1,3.6,6.2c1,1.7,2,3.4,3,5.1c1.2,2,2.4,4.1,3.6,6.1
		c1,1.7,2,3.4,2.9,5c0.2,0.4,0.5,0.8,0.8,1.3c0.2,0.3,0.3,0.2,0.4,0c0.6-1,1.2-2.1,1.8-3.1c1.4-2.3,2.8-4.6,4.1-6.8
		c1.4-2.3,2.7-4.6,4.1-6.9c1.2-2.1,2.6-4.1,3.7-6.2c0.5-1,1.2-1.2,2.3-1.2c2.1,0.1,4.1,0,6.2,0c0.5,0,0.6,0.1,0.6,0.6
		c0,10.7,0,21.3,0,32c0,3.3,0,6.7,0,10c0,0.6-0.2,0.7-0.7,0.7c-1.9,0-3.8,0-5.7,0c-0.6,0-0.8-0.1-0.8-0.7c0-10.1,0-20.2,0-30.3
		c0-0.2,0-0.4,0-0.8c-0.9,1.6-1.8,3.1-2.6,4.5c-1.4,2.5-2.9,4.9-4.4,7.4c-1.2,2-2.3,4.1-3.5,6.1c-1,1.7-2,3.4-3,5.2
		c-0.6,1.1-1.3,2.2-1.9,3.3c-0.1,0.1-0.1,0.3-0.3,0.3c-0.2,0-0.2-0.2-0.3-0.3c-1.8-3.1-3.7-6.2-5.5-9.4c-2-3.4-4-6.9-6-10.3
		c-1.3-2.2-2.6-4.5-4-6.8c0,0.4,0,0.6,0,0.8c0,10.1,0,20.3,0,30.4c0,0.5-0.1,0.7-0.7,0.7c-2.1,0-4.3,0-6.4,0
		C0.1,496.2,0.1,481.7,0.1,467.3z"/>
	<path d="M700.1,499.9c-0.3,1-0.6,2-1.1,3c-0.9,1.8-2.3,3.2-3.9,4.4c-2.7,2-5.7,3-8.9,3.7c-1.4,0.3-2.9,0.5-4.4,0.6
		c-2.3,0.2-4.5,0.2-6.8,0.1c-2-0.1-4-0.4-6-0.9c-2.8-0.6-5.4-1.5-7.9-2.8c-2-1-3.8-2.2-5.5-3.7c-0.1-0.1-0.2-0.1-0.2-0.1
		c-0.2-0.2-0.5-0.4-0.7-0.7c-0.2-0.4,0.2-0.6,0.4-0.8c1.4-1.9,2.8-3.8,4.2-5.7c2.1,2,4.4,3.7,7,4.9c2.1,1,4.4,1.7,6.7,2.1
		c2.7,0.5,5.4,0.5,8.2,0.4c2.2-0.1,4.3-0.4,6.4-1.1c1.6-0.6,3.1-1.5,4.1-3c1-1.6,0.5-4-1-5.1c-1.6-1.2-3.5-1.7-5.4-2.1
		c-1.9-0.4-3.8-0.6-5.7-0.7c-1.8-0.2-3.6-0.3-5.3-0.6c-2.9-0.5-5.8-0.8-8.6-1.9c-2.2-0.8-4.1-1.9-5.6-3.6c-1.2-1.3-1.9-2.9-2.1-4.6
		c-0.2-1.9-0.3-3.8,0.4-5.6c0.7-1.9,1.9-3.4,3.4-4.7c1.7-1.4,3.7-2.3,5.7-3c1.8-0.6,3.6-1,5.4-1.2c2-0.2,4-0.4,6-0.3
		c1.6,0.1,3.3,0.2,4.9,0.4c2.8,0.4,5.4,1.1,8,2.2c2.1,0.8,4,1.9,5.9,3.3c0.3,0.2,0.2,0.4,0.1,0.5c-1,1.4-2,2.8-3.1,4.1
		c-0.4,0.5-0.8,0.9-1.1,1.5c-0.2,0.4-0.4,0.3-0.7,0.1c-1.2-0.8-2.4-1.6-3.7-2.2c-2.1-1-4.3-1.7-6.5-2.1c-1.5-0.2-2.9-0.4-4.4-0.5
		c-2.9-0.1-5.8,0.1-8.6,1c-1.4,0.5-2.8,1.1-3.5,2.6c-0.8,1.6-0.3,3.7,1.4,4.6c1.6,0.9,3.3,1.4,5.1,1.7c2,0.3,3.9,0.5,5.9,0.7
		c1.6,0.1,3.3,0.3,4.9,0.6c2.9,0.5,5.8,0.9,8.5,1.9c2.2,0.8,4.2,2,5.7,3.7c1.2,1.4,2,3,2.2,4.8c0,0,0.1,0.1,0.1,0.1
		C700.1,497.1,700.1,498.5,700.1,499.9z"/>
	<path d="M542.9,466.5c0.4,0.3,1,0.1,1.4,0.2c3.7,0.5,7.1,1.7,10.3,3.6c1.8,1.1,3.3,2.4,4.7,3.9c1.6,1.8,2.8,3.8,3.7,6
		c0.7,1.7,1.1,3.4,1.4,5.1c0.2,1.6,0.4,3.2,0.2,4.9c-0.2,2.3-0.6,4.6-1.4,6.8c-0.9,2.3-2,4.4-3.6,6.3c-2,2.4-4.4,4.2-7.2,5.5
		c-2.2,1.1-4.6,1.8-7,2.2c-1.2,0.2-2.5,0.3-3.7,0.4c-0.8,0.1-1.7,0.1-2.5,0.1c-1.7-0.1-3.4-0.2-5.1-0.5c-2.6-0.5-5.1-1.4-7.5-2.6
		c-1.6-0.9-3.1-2-4.5-3.2c-1.9-1.7-3.3-3.6-4.4-5.9c-1-2-1.6-4-2-6.2c-0.3-1.8-0.4-3.6-0.3-5.4c0.2-2.6,0.7-5.2,1.7-7.7
		c1.2-2.8,2.9-5.2,5.1-7.3c1.3-1.2,2.7-2.2,4.2-3c1.9-1,3.9-1.8,6-2.3c1.4-0.3,2.7-0.6,4.2-0.7c0.1,0,0.2,0.1,0.3-0.1
		C538.9,466.5,540.9,466.5,542.9,466.5z"/>
	<path d="M472.2,466.5c0.4,0.3,0.9,0.2,1.3,0.2c3,0.4,5.9,1.2,8.7,2.4c1.9,0.8,3.7,1.9,5.5,3c0.3,0.2,0.6,0.5,0.9,0.6
		c0.5,0.2,0.5,0.5,0.2,0.9c-1.3,1.6-2.6,3.1-3.9,4.7c-0.2,0.3-0.4,0.7-0.7,0.7c-0.3,0-0.6-0.4-0.9-0.6c-2.7-1.8-5.7-3.3-8.9-4
		c-1.8-0.4-3.6-0.5-5.5-0.5c-3.1,0-6.1,0.7-8.9,2.1c-1.9,1-3.4,2.4-4.7,4.1c-1.2,1.7-2,3.6-2.4,5.6c-0.3,1.7-0.3,3.4-0.2,5.1
		c0.2,1.9,0.7,3.6,1.6,5.2c1.3,2.4,3.2,4.3,5.6,5.7c1.9,1.1,4,1.7,6.2,2c1.2,0.2,2.4,0.3,3.6,0.2c2.7-0.1,5.4-0.3,8-1.3
		c2.2-0.8,4.2-1.9,6.1-3.3c0.9-0.7,1.8-1.4,2.7-2.1c0.2-0.2,0.4-0.2,0.5,0c0.6,0.9,1.4,1.5,2.2,2.3c0.8,0.8,1.5,1.6,2.3,2.3
		c0.2,0.2,0.3,0.3,0,0.6c-2.1,2.1-4.4,3.9-7,5.3c-2.3,1.2-4.7,2.1-7.3,2.7c-1.4,0.3-2.8,0.6-4.2,0.6c-1.4,0.1-2.9,0.3-4.3,0.2
		c-4-0.1-7.9-0.8-11.5-2.6c-1.8-0.9-3.5-2-5.1-3.3c-1.9-1.6-3.4-3.5-4.6-5.7c-1.1-1.9-1.8-4-2.2-6.2c-0.5-2.3-0.5-4.6-0.3-6.9
		c0.2-3,1-5.9,2.4-8.6c0.9-1.6,1.9-3.1,3.1-4.4c1.9-2,4.1-3.6,6.6-4.8c2.1-1,4.2-1.7,6.5-2.1c0.9-0.2,1.9-0.4,2.8-0.4
		c0.1,0,0.2,0,0.2-0.1C468.2,466.5,470.2,466.5,472.2,466.5z"/>
	<path d="M234.1,466.5c0.4,0.3,0.9,0.2,1.4,0.2c4,0.5,7.7,1.7,11.2,3.6c1.3,0.7,2.6,1.5,3.9,2.4c0.4,0.3,0.3,0.4,0.1,0.7
		c-0.7,0.9-1.4,1.7-2.1,2.6c-0.7,0.9-1.4,1.7-2.1,2.6c-0.3,0.3-0.5,0.4-0.8,0.1c-1.5-1.1-3.1-2-4.8-2.8c-1.8-0.8-3.6-1.3-5.5-1.7
		c-2.1-0.4-4.2-0.4-6.2-0.3c-2,0.1-3.9,0.6-5.8,1.4c-1.8,0.7-3.4,1.7-4.7,3c-2.2,2.2-3.5,4.8-4,7.8c-0.2,1.4-0.3,2.7-0.2,4.1
		c0.3,3.1,1.3,5.9,3.3,8.3c2.4,2.8,5.5,4.3,9,5c1.5,0.3,3.1,0.5,4.6,0.4c2.7-0.1,5.4-0.3,8-1.3c2.3-0.8,4.3-2,6.3-3.5
		c0.8-0.6,1.6-1.3,2.4-1.9c0.2-0.2,0.4-0.2,0.6,0c1.4,1.6,3,3.1,4.5,4.6c0.2,0.2,0.1,0.3,0,0.5c-1.7,1.8-3.7,3.4-5.9,4.7
		c-1.8,1.1-3.7,2-5.7,2.6c-1.9,0.6-3.8,1.1-5.8,1.3c-1.9,0.2-3.8,0.4-5.7,0.3c-4.6-0.2-9-1.1-13-3.4c-2-1.1-3.8-2.5-5.3-4.2
		c-2.4-2.7-3.9-5.8-4.8-9.3c-0.6-2.5-0.7-5.1-0.5-7.7c0.2-2.6,0.8-5,1.9-7.4c1.2-2.9,3.1-5.3,5.5-7.3c2.9-2.5,6.4-4.1,10.1-4.9
		c1.3-0.3,2.7-0.6,4.1-0.6c0.1,0,0.2,0,0.2-0.1C230.1,466.5,232.1,466.5,234.1,466.5z"/>
	<path d="M588.8,488.9c0-7,0-14,0-21.1c0-0.6,0.2-0.6,0.7-0.6c8.3,0,16.7,0,25,0c2.6,0,5.1,0.2,7.6,1.1c2.5,0.9,4.5,2.5,5.8,4.9
		c0.6,1.2,0.9,2.5,1.1,3.9c0.2,1.7,0,3.3-0.6,5c-0.6,1.7-1.6,3.1-2.9,4.3c-0.4,0.4-0.4,0.5,0.1,0.7c2,0.9,3.5,2.3,4.4,4.3
		c0.5,1.1,0.8,2.3,1,3.6c0.2,1.2,0.2,2.3,0.1,3.5c-0.2,2.5-1,4.7-2.6,6.6c-2,2.4-4.6,3.6-7.5,4.4c-2.1,0.6-4.3,0.8-6.4,1
		c-1.9,0.1-3.8,0.1-5.7,0.1c-6.5,0-13,0-19.5,0c-0.6,0-0.6-0.2-0.6-0.7C588.8,502.9,588.8,495.9,588.8,488.9z"/>
	<path d="M183.5,510.6c-3,0-5.9,0-8.7,0c-0.2,0-0.3-0.1-0.4-0.3c-0.8-1.4-1.5-2.8-2.3-4.2c-1.5-2.8-3.1-5.6-4.6-8.4
		c-0.8-1.4-1.5-2.8-2.2-4.2c-0.2-0.3-0.3-0.4-0.7-0.4c-4.5,0-9,0-13.5,0c-0.4,0-0.5,0.2-0.5,0.5c0,5.5,0,10.9,0,16.4
		c0,0.5-0.1,0.6-0.6,0.6c-2.2,0-4.4,0-6.6,0c-0.5,0-0.6-0.1-0.6-0.6c0-14.1,0-28.1,0-42.2c0-0.4,0-0.6,0.5-0.6
		c8.4,0,16.8-0.1,25.2,0.1c3.4,0,6.6,0.9,9.4,2.8c2.4,1.7,3.9,4,4.5,6.8c0.4,1.5,0.4,3.1,0.3,4.6c-0.2,2.3-0.8,4.5-2.3,6.4
		c-0.9,1.3-2.2,2.2-3.5,2.9c-1,0.5-2.1,1-3.2,1.3c-0.5,0.1-0.4,0.3-0.2,0.6c0.9,1.6,1.8,3.3,2.8,4.9c1.2,2.2,2.5,4.4,3.7,6.6
		c0.8,1.5,1.7,3,2.5,4.6C182.9,509.5,183.2,510,183.5,510.6z"/>
	<path d="M417.3,510.6c-1.2,0-2.4,0-3.6,0c-0.4,0-0.5-0.1-0.7-0.4c-1.1-2.3-2.2-4.5-3.3-6.8c-0.7-1.6-1.6-3.1-2.2-4.7
		c-0.1-0.2-0.3-0.2-0.5-0.2c-0.8,0-1.6,0-2.3,0c-6,0-12,0-18,0c-0.4,0-0.6,0.1-0.8,0.5c-1.5,3.2-3.1,6.3-4.6,9.5
		c-0.1,0.1-0.1,0.3-0.2,0.4c-0.7,1.7-0.7,1.7-2.5,1.7c-1.9,0-3.8,0-5.6,0c-0.5,0-0.6-0.1-0.4-0.6c1.7-3.5,3.5-7,5.2-10.5
		c1-2.1,2.1-4.1,3.1-6.3c0.9-2,2-4,3-6.1c1-2.2,2.2-4.2,3.1-6.4c0.9-2.1,2-4.1,3-6.1c1-2.1,2.2-4.2,3.1-6.4c0.4-1,0.9-1.3,1.9-1.2
		c1.6,0.1,3.2,0,4.9,0c0.3,0,0.4,0.1,0.5,0.3c1.1,2.5,2.4,4.8,3.5,7.2c0.9,2,2,3.9,2.9,5.9c1,2.2,2.1,4.2,3.1,6.4
		c1,2.1,2.1,4.1,3,6.2c1,2.1,2.1,4.1,3.1,6.3c0.9,2.1,2,4.1,3,6.1c0.7,1.5,1.5,3,2.2,4.5c0.2,0.4,0.2,0.5-0.3,0.5
		C419.7,510.6,418.5,510.6,417.3,510.6z"/>
	<path d="M118.7,510.6c-2.7,0-5.4,0-8,0c-0.3,0-0.4-0.1-0.5-0.3c-1.3-3-2.8-5.8-4.2-8.8c-0.4-0.9-0.9-1.8-1.3-2.7
		c-0.1-0.2-0.2-0.3-0.5-0.3c-6.8,0-13.6,0-20.4,0c-0.3,0-0.4,0.1-0.5,0.4c-1.2,2.5-2.5,4.9-3.6,7.4c-0.6,1.3-1.3,2.6-1.9,3.9
		c-0.1,0.3-0.3,0.4-0.7,0.4c-2.3,0-4.5,0-6.8,0c-0.5,0-0.6-0.1-0.3-0.5c1.3-2.5,2.5-5.1,3.8-7.6c1-2.1,2.1-4.2,3.1-6.4
		c0.9-2,2-4,2.9-6c1-2.2,2.1-4.3,3.1-6.4c1-2.1,2.1-4.1,3.1-6.3c0.9-2.1,2-4.1,3-6.1c0.6-1.3,1.2-2.5,1.8-3.8
		c0.1-0.2,0.2-0.3,0.5-0.3c1.9,0,3.8,0,5.7,0c0.3,0,0.5,0.1,0.6,0.4c1.7,3.5,3.5,7,5.2,10.5c1,2,2,4,3,6.1c1,2.1,2.1,4.2,3.1,6.3
		c0.9,2.1,2,4.1,3,6.1c1,2.1,2.1,4.2,3.1,6.4c0.9,2.1,2,4.1,3,6.1C118.2,509.5,118.4,510,118.7,510.6z"/>
	<path d="M347.9,480.8c0,4,0,8,0,12c0,2.9-0.4,5.7-1.4,8.5c-0.6,1.6-1.4,3-2.4,4.3c-2.3,2.9-5.4,4.5-8.9,5.3
		c-1.2,0.3-2.4,0.4-3.7,0.5c-1.6,0.1-3.2,0.1-4.7,0.1c-3-0.1-5.9-0.7-8.6-2.2c-2.8-1.5-4.8-3.6-6.2-6.4c-0.9-1.8-1.3-3.7-1.6-5.7
		c-0.4-2.5-0.3-5.1-0.3-7.7c0-0.4,0.1-0.5,0.5-0.5c2.3,0,4.5,0,6.8,0c0.4,0,0.5,0.1,0.5,0.5c0,1-0.1,2,0,2.9
		c0.1,1.9,0.3,3.8,0.9,5.7c0.9,2.6,2.6,4.3,5.1,5.3c2.1,0.8,4.3,0.9,6.5,0.8c1.6-0.1,3.1-0.4,4.5-1.1c1.4-0.7,2.7-1.7,3.5-3.1
		c1-1.6,1.4-3.4,1.6-5.3c0.2-1.9,0.2-3.8,0.2-5.7c0-7,0-14.1,0-21.1c0-0.4,0.1-0.6,0.6-0.6c2.2,0,4.4,0,6.6,0c0.4,0,0.6,0.1,0.6,0.6
		C347.9,472.2,347.9,476.5,347.9,480.8z"/>
	<path class="st1" d="M539.9,473.9c2.3-0.1,4.4,0.2,6.5,0.9c2.6,0.9,4.8,2.2,6.6,4.2c1.7,1.9,2.8,4.2,3.3,6.8
		c0.2,1.1,0.4,2.2,0.3,3.3c-0.1,2.2-0.4,4.3-1.4,6.3c-1.5,3.2-3.8,5.5-7,6.9c-1.8,0.8-3.6,1.4-5.6,1.5c-1,0.1-2,0.2-2.9,0.2
		c-3.2-0.1-6.3-0.7-9.2-2.3c-3.5-2-5.8-5-6.8-9c-0.4-1.5-0.5-3-0.5-4.5c0.1-1.9,0.5-3.8,1.3-5.6c0.8-2,2.1-3.6,3.7-5
		c1.9-1.6,4-2.6,6.4-3.2C536.4,474,538.2,473.8,539.9,473.9z"/>
	<path class="st1" d="M606.4,491.5c3.1,0,6.2,0,9.3,0c1.7,0,3.4,0.2,5,1.1c1.4,0.8,2.3,2,2.6,3.6c0.2,1,0.1,2.1-0.2,3.1
		c-0.5,1.4-1.5,2.4-2.9,2.9c-1.6,0.7-3.3,0.9-5,1c-6,0.2-12.1,0-18.1,0.1c-0.4,0-0.4-0.1-0.4-0.4c0-3.6,0-7.2,0-10.8
		c0-0.4,0.1-0.5,0.5-0.5C600.1,491.5,603.2,491.5,606.4,491.5z"/>
	<path class="st1" d="M606.4,474.7c3.1,0,6.3,0,9.4,0c1.3,0,2.5,0.3,3.6,1.1c0.9,0.6,1.5,1.5,1.6,2.6c0.3,1.6-0.2,3.1-1.4,4.2
		c-0.8,0.7-1.7,1-2.7,1.2c-1.1,0.2-2.3,0.2-3.4,0.2c-5.5,0-10.9,0-16.4,0c-0.4,0-0.6-0.1-0.6-0.6c0-2.8,0-5.5,0-8.3
		c0-0.5,0.1-0.5,0.6-0.5C600.2,474.7,603.3,474.7,606.4,474.7z"/>
	<path class="st1" d="M159.4,485.7c-2.7,0-5.4,0-8.1,0c-0.4,0-0.6,0-0.6-0.5c0-3.3,0-6.6,0-9.9c0-0.4,0.1-0.5,0.5-0.5
		c4.9,0,9.8,0,14.7,0c1.9,0,3.9,0.1,5.7,0.9c1.7,0.8,2.9,2,3.2,4c0.2,1.2,0.1,2.2-0.5,3.2c-0.8,1.3-2.1,1.9-3.4,2.3
		c-1.4,0.4-2.8,0.5-4.2,0.5C164.2,485.7,161.8,485.7,159.4,485.7z"/>
	<path class="st1" d="M403.7,491.1c-4.7,0-9.3,0-14,0c2.3-4.7,4.6-9.5,7-14.3C399.1,481.6,401.4,486.3,403.7,491.1z"/>
	<path class="st1" d="M94,476.8c2.3,4.8,4.6,9.5,7,14.3c-4.7,0-9.3,0-13.9,0C89.3,486.4,91.6,481.6,94,476.8z"/>
</g>
</svg>
