<?xml version="1.0" encoding="utf-8"?>
<!-- Generator: Adobe Illustrator 21.1.0, SVG Export Plug-In . SVG Version: 6.00 Build 0)  -->
<svg version="1.1" id="Layer_1" xmlns="http://www.w3.org/2000/svg" xmlns:xlink="http://www.w3.org/1999/xlink" x="0px" y="0px"
	 viewBox="0 0 700 965" style="enable-background:new 0 0 700 965;" xml:space="preserve">
<style type="text/css">
	.st0{fill:#FEFEFE;}
	.st1{fill:#CC0637;}
	.st2{fill:#E5829B;}
	.st3{fill:#FCF5F6;}
	.st4{fill:#FDF8F9;}
	.st5{fill:#E5819A;}
	.st6{fill:#CC0737;}
	.st7{fill:#DD5778;}
</style>
<g>
	<path class="st0" d="M689.9,430.2c2.4,1.6,7.9-3.8,7.8,3.8c-0.2,34.2-0.1,68.3,0,102.5c0,4.2,0.2,7.4-5.6,6.2
		c-2.5-0.5-5.1-0.1-7.7-0.1c-221,0-442.1,0-663.1-0.3c-4.7,0-15.4,6.2-13.5-7.5c1.8-1.5,3.7-2.7,5.7-3.7c6.2-2.2,12.7-1.9,19.1-2
		c27.3-0.6,27.3-0.7,27.5-28.9c0-8.4-0.2-16.8,0.2-25.2c1.1-20.3,8-27.1,27.1-26.9c18.8,0.2,25.6,7.1,26.7,27.6
		c0.6,12.2,0.3,24.5,0.3,36.8c0,16.1,10.8,16.4,22.5,16.6c11.8,0.2,20.2-2.5,20-16.9c-0.2-13.5-0.7-27.1,0.4-40.7
		c1.4-17.2,8.9-23.5,26.6-23.4c17.6,0,25.1,6.4,26.7,23.5c1.2,13.5,0.6,27.1,0.6,40.6c0,16,10.5,16.7,22.3,16.8
		c11.7,0.1,20.5-2.4,20.2-16.8c-0.2-12.3,0.1-24.5,0-36.8c-0.2-26.9-2.4-29.2-28.3-34.7c-7.4-1.6-17.6,1-20.1-10.5
		c41.3,0,82.7,0,124,0c1.2,2.3,0.7,4.3-1.3,5.9c-3.8,2.6-8.2,3.5-12.6,4.8c-30.9,9.3-35,14.9-34.6,46.4c0.4,25.5,6.3,32.9,31.1,38.9
		c19.7,4.7,39.8,2.4,59.8,2.7c21.3,0.3,42.6,0.3,63.9,0c6.7-0.1,14.3,1.9,19.7-5.1c-4.2-8.6-12.1-6.2-18.6-6.3
		c-24.5-0.4-49-0.1-73.6-0.2c-5.8,0-11.7,0.3-17.4-0.5c-9.6-1.3-21.8-2.1-22-14.3c-0.2-14.1,13.1-11.8,22.1-12
		c29-0.7,58.1-0.1,87.1-0.4c7.4-0.1,15.3,0.8,22.5-5.2c-6.5-8.1-14.6-6.3-21.8-6.3c-27.1-0.3-54.2-0.1-81.3-0.1
		c-6.4,0-12.9,0.2-19.2-1.5c-5.3-1.4-9.7-3.8-10.1-10.1c-0.3-5.9,3-9.8,7.9-12.2c6.5-3.3,13.8-3.1,20.9-3.2c29-0.2,58.1,0,87.1-0.1
		c10.6,0,19.6-1.8,19.7-15.2c0.3-2.3,1.1-4.3,2.4-6.1c6.5,0,12.9,0,19.4,0c1.4,1.7,2.7,3.6,3.8,5.5c2.5,12.3,10.5,16.7,22.4,15.8
		c2.6-0.2-0.7,0,1.9,0c49.6-0.4,47.2-0.6,47.6,49.9c0.1,9-4.6,22,7,25.6c14.6,4.5,30.6,4.1,45.6-0.4c5.4-1.6,5-8.5,5.2-13.6
		c0.5-12.9,0.2-25.7,0.3-38.6c0.1-15,6.9-22.7,22.2-22.7c9,0,18-0.5,27-0.1c11.9,0.6,19.9-3.6,22.4-16
		C687.2,433.7,688.4,431.9,689.9,430.2z"/>
	<path class="st1" d="M205.4,430.2c10.4,7.6,23.3,3.5,34.7,7.4c12.3,4.2,20,9.2,19.2,24.1c-1.1,20.6-0.7,41.2-0.1,61.8
		c0.3,9.4-3.2,11.7-12.2,12.2c-41.6,2.2-41.6,2.5-41.6-38.4c0-6.4,0-12.9,0-19.3c-0.1-23.4-2.3-24.9-25-25.4
		c-14.5-0.3-19.3,5.1-18.5,19.3c1,17.3-0.1,34.8,0.4,52.2c0.2,8-2.1,12.4-10.8,11.5c-0.6-0.1-1.3,0-1.9,0
		c-41.1,2.4-41.1,2.4-41.1-38.6c0-6.4,0-12.9,0-19.3c0-23.2-2.3-24.8-25-24.9c-14.4-0.1-19.3,5.5-18.5,19.6
		c1,17.3-0.1,34.8,0.4,52.2c0.2,8.4-2.9,11.5-11.2,11.2c-14.1-0.6-28.3-0.6-42.5-0.9c-4.6-27.1-0.7-54.4-2-81.5
		c0.1-12,7.5-16.6,18.1-18.9c11.3-2.4,23.1-0.3,34.1-4.1c7.8,0,15.5,0,23.3,0c32.3,5.9,64.6,7,96.9,0
		C189.9,430.2,197.7,430.2,205.4,430.2z"/>
	<path class="st2" d="M480.7,434.2c0-1.3-0.1-2.7-0.1-4c69.8,0,139.5,0,209.3,0c0,1.3,0,2.6,0,3.9c-6.8,6.1-15.3,6.2-23.6,6.2
		c-54,0.2-107.9,0.2-161.9,0C496.1,440.2,487.5,440.3,480.7,434.2z"/>
	<path class="st3" d="M182.2,430.2c-32.3,12.7-64.6,12.2-96.9,0C117.6,430.2,149.9,430.2,182.2,430.2z"/>
	<path class="st2" d="M461.2,430.2c0.7,1.1,0.8,2.3,0.3,3.5c-5.2,6-12.4,6.3-19.4,6.4c-31.3,0.5-62.6,0.5-94,0
		c-7-0.1-14.2-0.4-19.2-6.7c0.1-1.1,0.2-2.2,0.5-3.2C373.4,430.2,417.3,430.2,461.2,430.2z"/>
	<path class="st4" d="M62,430.2c-8.6,8.1-20.4,2.8-30.2,7c-7.6,3.2-16,4.1-20.8,11.9c-0.8,2.1-1.8,2.4-3.2,0.5
		c-3.5-16.4,2.9-22,19.4-19.7C38.6,431.4,50.4,430.2,62,430.2z"/>
	<path class="st5" d="M7.8,449.5c1-0.7,2.1-0.9,3.2-0.5c0.3,28.5,0.5,57.1,0.8,85.6c-1.3,0-2.7,0.1-4,0.1
		C7.8,506.4,7.8,478,7.8,449.5z"/>
	<path class="st1" d="M329,433.4c44.2,0.1,88.4,0.2,132.6,0.3c3.4,23.6,3.4,23.6-19.4,23.6c-31,0-62,0-93,0c-4.5,0-9.1,0-13.5,0.6
		c-5.3,0.8-10.5,2.9-10.2,9.4c0.4,8.7,7.5,5.3,11.8,5.3c36.8,0.3,73.6,0.1,110.4,0.2c7,0,15.8-3.3,16,10c0.2,12.9-6.9,12.7-16,12.6
		c-35.5-0.2-71-0.3-106.6,0.1c-5.3,0.1-15-4.7-15.3,5.5c-0.2,9.3,8.9,9.6,16.1,9.7c27.8,0.2,55.5,0.1,83.3,0.1
		c9,0,18.1,0.6,27.1-0.2c10.1-0.8,13.5,2.5,13.2,12.9c-0.2,9.3-3.1,12.1-12.2,12c-40.7-0.5-81.4-0.1-122.1-0.6
		c-9.5-0.1-19.4-2-28.5-4.8c-17.5-5.3-30.2-15.1-26.8-36.3c0.2-1.3,0-2.6,0-3.9C275.8,445.7,283.7,437.3,329,433.4z"/>
	<path class="st6" d="M480.7,434.2c69.7,0,139.4-0.1,209.2-0.1c3.8,19.2-3.7,25.8-23.3,23.7c-15.1-1.7-35.6-5.3-44.7,2.5
		c-10.7,9.1-3.1,30.1-3.5,45.9c-0.6,29.4-0.2,29.4-29.6,29.4c-36.7,0-36.7,0-36.7-37.6c0-40.6,0-40.6-41.1-40.6
		c-3.2,0-6.5-0.5-9.6,0.1C481.6,461.1,476.6,451.7,480.7,434.2z"/>
	<path class="st7" d="M684.9,461.9c4.5-0.1,7,2.7,7.4,6.9c0.4,3.5-2.1,6.3-5.2,7.1c-4.3,1.1-7.6-1.2-8.4-5.6
		C677.7,465.8,680.7,463.3,684.9,461.9z"/>
</g>
</svg>
