<?xml version="1.0" encoding="utf-8"?>
<!-- Generator: Adobe Illustrator 21.1.0, SVG Export Plug-In . SVG Version: 6.00 Build 0)  -->
<svg version="1.1" id="Layer_1" xmlns="http://www.w3.org/2000/svg" xmlns:xlink="http://www.w3.org/1999/xlink" x="0px" y="0px"
	 viewBox="0 0 700 965" style="enable-background:new 0 0 700 965;" xml:space="preserve">
<style type="text/css">
	.st0{display:none;fill:#FDFDFD;}
	.st1{fill:#868580;}
	.st2{fill:#FEFEFE;}
</style>
<g>
	<path class="st0" d="M350.2,716.6c-115.8,0-231.7,0-347.5,0.1c-2.4,0-3-0.5-3-3c0.1-153.8,0.1-307.6,0-461.4c0-2.4,0.5-3,3-3
		c231.7,0.1,463.3,0.1,695,0c2.4,0,3,0.5,3,3c-0.1,153.8-0.1,307.6,0,461.4c0,2.4-0.5,3-3,3C581.9,716.6,466.1,716.6,350.2,716.6z"
		/>
	<path class="st1" d="M22.3,396.1c0,26.4-0.3,51,0.1,75.6c0.1,9,3.2,11.7,12.1,13.6c2.3,0.5,4.6,0.4,4,3.9c-0.5,3.5-3.1,2.1-4.8,2.1
		c-9.8,0.1-19.6,0.1-29.4,0c-1.9,0-4.3,0.8-4.4-2.7c-0.1-2.7,1.5-2.8,3.4-3.3c10.7-2.5,12.7-4.9,12.7-15.8c0.1-22,0-44.1,0-66.1
		c0-7.2-0.9-8.1-8.1-8.2c-1.7,0-3.4-0.1-5.1,0c-2.2,0.1-3-0.8-2.9-3c0.1-1.9,0.8-2.7,2.7-2.7c9.6,0,19.2,0.1,28.8,0
		c3.3,0,3.4,2.5,4.2,4.4c8.9,23.4,17.7,46.8,26.6,70.2c0.5,1.4,1.1,2.7,2.2,5.5c2.5-7.1,4.7-12.9,6.7-18.8
		c6.6-18.8,13.2-37.6,19.6-56.5c1.2-3.7,2.9-5,6.8-4.8c8.7,0.3,17.3,0.1,26,0.1c1.8,0,3.8-0.4,3.9,2.6c0.1,3.3-1.9,3-4,3.1
		c-12.4,0.5-12.4,0.5-12.4,13.3c0,22.4,0,44.9,0,67.3c0,8.6,1.2,9.8,9.8,9.9c1.1,0,2.3,0,3.4,0c1.9-0.1,3.2,0.2,3.3,2.7
		c0.1,2.7-1.4,3-3.6,3c-11.1,0-22.2,0-33.4,0c-2.4,0-4.9,0-7.3,0c-1.8,0-2.8-0.5-2.8-2.6c0-2.1,0.6-3.3,2.9-3.1c0.2,0,0.4,0,0.6,0
		c13-1,13-1,13-14c0-24.6,0-49.3,0-73.9c-0.3-0.1-0.6-0.2-0.9-0.3c-1.1,2.9-2.3,5.7-3.3,8.6c-9.4,26.8-18.7,53.6-28.1,80.4
		c-0.7,2.1-0.5,5.1-4.2,5c-3.3-0.1-3.2-2.8-3.9-4.7c-11-28.8-21.8-57.7-32.7-86.5C23.6,399.4,23.3,398.5,22.3,396.1z"/>
	<path class="st1" d="M573.2,437.8c6.9,2.2,12.9,3.9,18,7.6c13.3,9.6,13.1,28.5-0.4,37.8c-8,5.5-17,8-26.6,8.1
		c-16.6,0.2-33.1,0.1-49.7,0.1c-2.1,0-4.7,0.9-4.6-3c0.1-3.5,2.5-2.5,4.4-2.6c1.7-0.1,3.4,0,5.1-0.1c4.2-0.2,6.4-2,6.4-6.7
		c-0.1-25.4-0.1-50.8,0-76.2c0-5.3-2.4-7.6-7.5-7.5c-1.7,0-3.4-0.1-5.1,0c-1.9,0.1-3.2-0.3-3.2-2.7c0-2.2,0.8-3,3-3
		c20.3,0.6,40.7-1.6,60.9,1.2c14.5,2,22.5,12.3,21.3,25.7c-0.8,9.4-7.2,14.5-14.9,18.3C578.2,435.8,576.1,436.6,573.2,437.8z"/>
	<path class="st1" d="M350.2,439.9c15.8,3.2,19.3,15.7,22,28.9c0.9,4.2,2,8.4,4.1,12.3c0.9,1.7,2,3.5,4.1,3.5c2.4,0,3.6-2,4.2-4
		c0.8-2.7,1.4-5.4,1.9-8.2c0.3-1.6,0.8-2.4,2.5-2.3c1.3,0.1,2.3,0.4,2.2,1.9c-0.7,6.4-1.8,12.8-7.1,17.3c-4.8,3.9-10.2,4.5-15.9,2.3
		c-6.2-2.4-8.6-7.6-9.6-13.6c-1.1-6.9-1.8-13.8-3.1-20.6c-2-9.9-7.5-14.4-17.4-15.4c-0.9-0.1-1.9-0.1-2.8-0.1
		c-10.2,0.1-8.4-1.2-8.5,8.2c-0.1,9.2,0,18.5,0,27.7c0,7.6,0.7,8.2,8.5,8.2c1.7,0,3.4,0.1,5.1,0c2-0.1,2.5,1,2.5,2.8
		c0,1.8-0.5,2.8-2.5,2.8c-14.1,0-28.3,0-42.4,0c-1.9,0-2.6-0.9-2.6-2.7c0-1.7,0.3-3,2.4-2.9c0.6,0,1.1,0,1.7,0
		c12.6-0.5,12.6-0.5,12.6-13c0-22.8,0-45.6,0-68.4c0-8-1.2-8.8-9.1-9.3c-2.5-0.1-7.4,2.7-7.4-2.7c0-5.3,4.9-2.6,7.4-2.7
		c15.4-0.3,30.9-0.1,46.3-0.1c5.9,0,11.6,1,17,3.5c9.7,4.5,14.5,12.6,13.9,23.6c-0.6,10-6.4,16.2-15.4,19.5
		C360,437.9,355.1,438.7,350.2,439.9z"/>
	<path class="st1" d="M656.5,491.5c-12.4,0-24.9,0-37.3-0.1c-1.9,0-4.8,1.3-5-2.6c-0.1-3.9,2.6-2.9,4.7-2.9c9.1-0.3,9.9-1,9.9-10.2
		c0-23.9,0-47.9,0-71.8c0-7.4-1.1-8.4-8.5-8.5c-1.3,0-2.6,0-4,0c-1.8-0.1-2-1.3-2-2.7c0-1.4,0.1-2.7,1.9-2.8
		c1.1-0.1,2.3-0.1,3.4-0.1c23.6,0,47.1,0.1,70.7-0.1c4.2,0,5.4,1.1,5.4,5.3c0,8.3,0.8,16.5,1.1,24.8c0.1,1.5,0.8,3.6-1.9,3.8
		c-2.4,0.2-2.6-1.4-3-3.2c-1.1-4.8-2.3-9.5-4.7-13.8c-3.9-7.2-10-11-18.3-11.2c-6.4-0.1-12.8,0.1-19.2-0.1c-4.2-0.1-6.4,1.5-6.3,5.9
		c0.1,10.4,0.1,20.7-0.1,31.1c0,3.1,1.1,3.7,4,3.8c12.6,0.4,17.9-3.7,20.3-16.1c0.2-1.1,0.5-2.2,0.6-3.3c0.1-1.8,1.1-2.1,2.7-2.1
		c1.9,0,2.1,1.2,2.1,2.6c0,14.5,0,29,0,43.5c0,1.6-0.5,2.4-2.3,2.4c-1.6,0-2.4-0.7-2.5-2.3c-0.1-1.1-0.4-2.2-0.6-3.3
		c-2.3-12.3-8.5-16.9-21-15.9c-2.4,0.2-3.3,1-3.2,3.4c0.1,11.9,0.1,23.7,0,35.6c0,3.3,1.8,5,4.8,5.1c7.5,0.1,15.2,0.6,22.6-0.4
		c12.7-1.6,20.4-10.8,23.5-26.2c0.3-1.5,0.5-3,0.8-4.4c0.4-1.7,1.7-1.7,3.1-1.7c1.5,0,1.9,1,1.8,2.2c-0.5,11.3-0.9,22.6-1.4,33.9
		c-0.2,3.3-3,2.3-4.8,2.3C681.3,491.5,668.9,491.5,656.5,491.5z"/>
	<path class="st1" d="M495.7,440c-0.2,19.3-7.1,35.4-24,45.8c-21.3,13-47.5,7-60.9-13.9c-11.6-18.2-12.8-37.5-4-57.1
		c8-17.8,25.9-28.4,44.4-27.3c19,1.2,36.1,14.9,42,33.6C495,427.2,495.9,433.5,495.7,440z"/>
	<path class="st1" d="M216,441.4c-0.1,9.7,1,19.2,4.9,28.1c4.9,11,13.2,17.1,25.4,17.4c12.6,0.3,22.1-5.1,28.1-16.3
		c2-3.8,3.4-8,4.1-12.2c0.4-2.1,1.3-3.6,3.8-3c2.7,0.7,1.3,2.7,1.1,4.2c-2.8,14.6-9.8,26.2-24.7,30.9c-16.2,5.1-31.1,1.8-43.6-9.5
		c-24-21.8-21-66.9,5.4-85.8c13.9-9.9,30.8-10.5,45.5-0.9c3.9,2.6,5.7,2.2,7.1-2.1c0.3-1.1,1-2,1.5-3c0.6-1.5,1.8-1.7,3.2-1.6
		c1.8,0.1,2.1,1.5,2.1,2.8c0.6,11.8,1.1,23.7,1.6,35.5c0.1,1.2-0.1,2.2-1.7,2.3c-2,0.2-3.2-0.5-3.7-2.5c-1.4-5.5-3.4-10.8-6.1-15.7
		c-3.8-6.9-9-12.7-16.6-15.4c-12.6-4.5-25.7,1.4-31.7,14.4C216.9,419.2,216.2,430.2,216,441.4z"/>
	<path class="st1" d="M160,491.5c-6.6,0-13.2,0-19.8,0c-2.1,0-3.7-0.1-3.6-2.9c0-2.9,1.8-2.7,3.8-2.8c12.3-0.7,12.3-0.7,12.3-13
		c0-23,0-45.9,0-68.9c0-7.5-1-8.2-8.4-8.7c-2.6-0.2-7.4,2.7-7.4-2.7c0-5.4,4.9-2.6,7.4-2.7c11.7-0.3,23.3-0.1,35-0.1
		c2,0,4.2-0.5,4.2,2.9c0,3.4-2.4,2.7-4.3,2.8c-1.3,0.1-2.6,0-4,0c-6.7,0.1-7.8,1.2-7.8,8c0,24.7,0,49.3,0,74c0,7.5,1,8.2,8.4,8.7
		c2.6,0.2,7.4-2.7,7.4,2.7c0,5.4-4.8,2.5-7.4,2.7C170.6,491.8,165.3,491.5,160,491.5z"/>
	<path class="st2" d="M540.6,462.7c0-5.8,0.1-11.7,0-17.5c-0.1-2.7,0.9-3.6,3.6-3.6c6.6,0.2,13.2-0.2,19.7,0.1
		c12,0.5,20.1,8.9,20.6,21.1c0.6,13.2-6,21.4-19,22.7c-6.3,0.6-12.8,0.3-19.2,0.2c-3.7-0.1-5.9-2-5.8-6.1
		C540.7,474,540.6,468.3,540.6,462.7z"/>
	<path class="st2" d="M540.6,416.5c0-4.9,0.2-9.8-0.1-14.7c-0.2-4.2,2-6,5.6-6.2c7.2-0.5,14.4-0.7,21.4,1.1
		c5.4,1.4,9.6,4.7,10.7,10.5c3.4,16.6-2.3,30.1-21.4,29c-4.1-0.2-8.3-0.2-12.4,0c-2.9,0.1-4.1-0.7-3.9-3.8
		C540.7,427,540.6,421.8,540.6,416.5z"/>
	<path class="st2" d="M326.7,416.8c0-4.9,0.2-9.8-0.1-14.6c-0.2-4.3,1.6-6.4,5.7-6.6c6.9-0.3,13.9-0.6,20.7,1
		c1.6,0.4,3.3,1.1,4.6,2.1c7.1,5.4,7.1,13.2,6.5,21c-0.5,6.5-3.8,11.2-10,13.8c-8.1,3.4-16.6,2.6-25,2.7c-2.5,0-2.4-1.7-2.4-3.5
		C326.7,427.3,326.7,422,326.7,416.8z"/>
	<path class="st2" d="M478.4,440.9c0.2,10.4-0.8,20.7-5.5,30.2c-5.3,11-14.1,16.3-26.3,15.8c-10.6-0.4-20.5-7.7-23.9-18.5
		c-5.9-18.4-6-37.1-0.3-55.5c3.9-12.5,14-19.7,26-19.8c12-0.1,21.6,6.9,26.2,19.4C478,421.7,478.6,431.2,478.4,440.9z"/>
</g>
</svg>
