<?xml version="1.0" encoding="utf-8"?>
<!-- Generator: Adobe Illustrator 21.1.0, SVG Export Plug-In . SVG Version: 6.00 Build 0)  -->
<svg version="1.1" id="Layer_1" xmlns="http://www.w3.org/2000/svg" xmlns:xlink="http://www.w3.org/1999/xlink" x="0px" y="0px"
	 viewBox="0 0 700 965" style="enable-background:new 0 0 700 965;" xml:space="preserve">
<style type="text/css">
	.st0{fill:#FEFEFE;}
	.st1{fill:#E90404;}
	.st2{fill:#E90101;}
	.st3{fill:#E90202;}
	.st4{fill:#E90303;}
	.st5{fill:#EC2727;}
	.st6{fill:#EC2121;}
	.st7{fill:#EB1A1A;}
	.st8{fill:#EB1D1D;}
	.st9{fill:#EB1414;}
	.st10{fill:#EC2323;}
	.st11{fill:#EB1616;}
	.st12{fill:#EF4B4B;}
	.st13{fill:#EE3E3E;}
	.st14{fill:#EC2A2A;}
	.st15{fill:#EA0909;}
	.st16{fill:#EA1010;}
	.st17{fill:#EF4646;}
	.st18{fill:#EF4949;}
	.st19{fill:#EA0D0D;}
	.st20{fill:#EE3F3F;}
	.st21{fill:#EE3838;}
	.st22{fill:#ED3333;}
	.st23{fill:#EF4C4C;}
	.st24{fill:#EA0808;}
	.st25{fill:#EC1D1D;}
	.st26{fill:#EF4E4E;}
	.st27{fill:#EE3737;}
	.st28{fill:#EB1313;}
	.st29{fill:#EE4040;}
	.st30{fill:#EC2929;}
	.st31{fill:#FEFAFA;}
	.st32{fill:#FCE8E8;}
	.st33{fill:#FCEAEA;}
	.st34{fill:#FBDCDC;}
	.st35{fill:#FEFCFC;}
</style>
<g>
	<path class="st0" d="M702,441.5c0,46.6-0.1,93.3,0.1,139.9c0,4.9-0.8,6.3-6.1,6.3c-229.1-0.2-458.3-0.2-687.4,0
		c-5.7,0-6.8-1.2-6.7-6.8c0.2-63.2,0.3-126.4,0-189.6c0-7,1.1-8.9,8.7-8.9c229.8,0.3,459.6,0.2,689.5,0.2
		c-0.2,15.4,0.5,30.9-1.1,46.3c-0.7,6.7-1.7,11.6-9.9,12.3c-5.4,0.4-8.9,4.5-10.7,9.6c-1.4,4-1.7,8.3,2.5,10.8
		c4.3,2.5,7.7,0.2,10.5-3.2c2.8-3.4,4.2-7.6,5.8-11.7C698,444.4,698.2,441.1,702,441.5z"/>
	<path class="st1" d="M702,441.5c-2.4,5.7-4.5,11.7-7.4,17.2c-3.1,5.9-8.1,9.8-14.9,6.9c-7.2-3.1-6.3-9.4-4.3-15.6
		c2.5-7.5,7.1-12.6,15.4-12c5.1,0.4,5.4-1.7,5.5-5.6c0.3-13.2,0.8-26.3,1-39.5c0.1-3.7-0.3-7.3,2.7-10.2c4-0.3,1.9,2.8,1.9,4.1
		C702.1,405,702,423.3,702,441.5z"/>
	<path class="st2" d="M383.5,473.7C385,459,400,450,413,456.1c10.3,4.8,19.3,0.2,20.6-10.9c1-8.4,2.3-16.8,6.8-24.2
		c3.9-6.5,9.5-11.5,17.5-8.5c8.1,3.1,6.9,10.5,5.4,17.4c-2.5,10.8-9.4,18.5-17.6,25.3c-5.8,4.8-6.3,16.1-1.4,24.5
		c4.4,7.4,10.8,5.1,15.9,2.3c16.5-9,33.4-9.2,50.8-3.5c4.9,1.6,10,1.6,15.1,1.3c3-0.2,6.9-1.2,7.3,3.1c0.5,4.8-3.9,4.8-7.1,5.1
		c-7.5,0.8-14.8-1.2-21.9-3.2c-11.5-3.2-22.3-2.8-33.5,2.1c-25,10.8-33.3,6.1-38.4-20.5c-0.2-0.9-0.6-1.8-0.9-2.7
		c-6.7,0.8-9.6,3.5-9.7,11c-0.2,16.7-18.7,27.8-33.5,20.3c-4.7-2.4-5.4-1.8-7.8,2.3c-3.7,6.6-9.9,9.2-17.3,5.8
		c-8.3-3.9-8.2-12.7-0.7-19.9c3.3-3.2,10.8-2.9,10.4-8c-0.5-7.6-4.7-14.5-10.7-21.2c-2.4,10.8-5.6,20.1-13.7,26.7
		c-2.5,2-5.3,5.3-8.6,1.3c-2.9-3.6,0.7-5.3,2.8-7.3c9.4-8.9,12.8-19.6,9.4-32.2c-0.7-2.5-1.5-4.6,0.9-6.3c2.8-1.9,5.1-0.2,7.1,1.7
		c5.4,5.1,10.1,10.9,14.1,17.2C378,460.9,380.4,467.4,383.5,473.7z"/>
	<path class="st3" d="M327,486.7c-4.6,5.3-10.8,3.3-16.1,2.6c-16.5-2.1-32.8-2.5-49.2,1.1c-11.3,2.5-13.5,1.1-21-7.7
		c-0.5,0.4-1,0.7-1.3,1.1c-5.5,8.1-11.8,16-22.7,13.6c-10.5-2.3-12.6-12.1-14.3-21.2c-1-5.4-1.7-10.9-2.7-17.6
		c-4.2,6-3.8,12.3-5.7,17.8c-1.2,3.5-2.6,6.9-4.2,10.2c-1.2,2.5-3.2,4.8-6.2,4.3c-3.1-0.5-3.9-3.6-4.6-6.1
		c-2.3-8.8-1.7-18.1-5.3-27.5c-4.5,8.9-4,18.2-6.6,26.8c-1,3.3-0.5,8.3-5.8,8.1c-4.4-0.2-4.3-4.6-5-7.7c-2.3-9.4-4.4-18.9-7.4-28.6
		c-2.7,12.2-8.9,23.1-12,35.1c-0.8,3.2-1,7.7-5.8,6.3c-4.3-1.2-3.2-5.3-2.2-8.6c4-13.2,7.9-26.4,12-39.6c1.3-4.1,4.1-7.3,8.8-6.9
		c4.3,0.4,6,3.8,6.8,7.7c1.3,5.9,2.6,11.8,4.4,19.5c2.3-7.5,3.8-13.3,5.8-18.9c1.3-3.6,3.8-6.8,8-6.8c4.4,0,6.4,3.7,7.4,7.3
		c1.4,4.8,3.1,9.7,2.4,16.3c5-5.2,4.9-11.3,7.8-16c2.3-3.6,4.6-6.9,9.4-6.2c5.1,0.8,6.1,5,6.5,9.1c0.8,8.7,0.4,17.6,3.9,25.9
		c4.2,10.3,10,11.2,17,2.7c4.2-5,6.6-10.9,9-16.9c0.8-2.1,2.1-4.6,5-4.1c2.8,0.5,3.5,2.9,3.9,5.2c0.2,1.3,0.2,2.7,0.4,4
		c1.4,11.4,4,13.7,15.2,10.5c21.5-6.3,42.6-0.1,63.9,0.6C327.9,483.8,327.9,485.2,327,486.7z"/>
	<path class="st2" d="M111.7,496.6c-6.4,4.8-9.7-1.2-13.3-4.3c-2.7-2.3-4.2-6-6.3-9.3c-0.9,1.2-1.9,2.5-2.9,3.8
		c-2.7,3.5-5.6,7.4-10.7,6c-5.1-1.5-5.2-6.4-5.6-10.8c-0.8-9.7,0.6-19.6-2.3-29.9c-5.5,5.2-6.1,11.9-7.5,18.2
		c-0.9,3.9-1.3,8-2.2,11.9c-0.8,3.4-0.3,8.4-5.4,8.3c-5.3-0.2-4.3-5.1-4.6-8.6c-0.9-10.2-1.8-20.4-2.9-33.2
		c-5.4,10.6-4.7,19.9-7.1,28.4c-1.4,4.8-2.7,9.7-4.2,14.5c-0.7,2.3-1.7,4.7-4.7,4.4c-3.6-0.3-3.9-3.2-4.1-6
		c-0.7-9.4-0.9-18.9-3.5-28.1c-1.3-4.8-3.1-9.5-4.9-15.1c-5.3,4-5.8,8.8-5.4,13.8c0.6,7.7,1.5,15.4,2.2,23.2
		c0.2,2.1-0.1,4.2-2.7,4.7c-2.3,0.4-4.5-0.8-4.7-2.9c-1.1-14.2-7-28.6,1.3-42.5c2.2-3.6,4.7-6.9,9.3-6.7c4.7,0.3,7,4,8.4,7.8
		c2.1,5.7,3.6,11.5,5.5,17.6c3.8-4.2,2.9-9.9,4.7-14.7c1.9-5.3,3.6-11.2,10.1-10.9c6.2,0.2,6.6,6.8,8.2,11.4c0.7,1.8,0.7,3.9,1,6
		c4-1.8,4.6-6,7-8.6c6.6-7.3,10.9-6.7,14.1,2.8c3.4,10,2,20.6,4.4,31.6c2.8-5.8,5.7-11.5,8.5-17.3c1.3-2.7,2.3-6.2,6.2-5.2
		c3.9,1.1,3.3,4.5,2.7,7.6c-2.2,11.7,0.5,21.3,11.2,27.8C112.8,493.7,112.8,495.1,111.7,496.6z"/>
	<path class="st3" d="M615,443.5c-3.5-7-9-11.5-18.5-14.2c0,10.2,0,19.8,0,29.3c0,8.5-1.1,16.9-5.1,24.5c-3,5.7-6.6,11.6-14.5,10.3
		c-4.8-0.8-7.8-4.3-7.4-9.4c0.5-8.1,2.8-17.7,11.6-17.8c12.6-0.1,10.9-7.6,11.1-15c0.3-11.8,0.2-23.7,0.3-35.5
		c0-1.5-0.8-3.6,1.3-4.4c2.7-1,3.6,1.4,4.3,3.1c2.3,6,6.9,9.8,11.5,13.9c7.5,6.7,12,14.6,9,25.1C613,451.7,617.6,446.3,615,443.5z"
		/>
	<path class="st4" d="M646,409.8c4.6,15.6,29,21,18,45.4c-0.8-7.7,1.4-13.6-2.4-18.5c-3.4-4.3-7.4-7.6-14.4-8.9
		c0,11.5,0.2,22.5-0.1,33.5c-0.3,9.9-2,19.5-8.5,27.5c-3.4,4.1-7.6,6.8-13.3,3.9c-5.2-2.6-5.7-7-4.8-12c1.6-8.3,5.1-15.4,14.6-15.1
		c6.5,0.2,7.3-2.7,7.4-7.5c0.2-12.5,0.3-25,0.7-37.5C643.3,417.4,641.8,413.9,646,409.8z"/>
	<path class="st5" d="M349.4,522.5c2.3,6.3,2.1,12.8-8.5,12.1c-10-0.6-4.5-8.5-5.3-13c-0.7-4.2-1.7-10.1,6.2-9
		C346.8,513.3,351.1,514.5,349.4,522.5z"/>
	<path class="st6" d="M395.3,536.6c0-7.9,0-13.4,0-18.9c0-1.9-0.4-4.3,2.3-4.9c2.4-0.5,3.6,1.2,4.6,3.1c1.8,3.1,3.6,6.2,5.9,10.1
		c2.6-4.7-0.5-9.4,3.7-14.5c3,7.5,2.3,14.5,1.3,20.8c-0.7,4.4-4.6,2.8-6.6-0.1c-2.1-3-3.6-6.3-5.8-10.4
		C397.8,526,401.2,531,395.3,536.6z"/>
	<path class="st7" d="M474.3,534.4c-5.3,0-4.8-5.9-8.5-6.9c-2.6,1.6,0.3,5.5-3.4,6.8c-0.5-0.4-1.8-0.9-1.8-1.4
		c-0.3-4.4-0.6-8.7-0.4-13.1c0.1-2.4-1.4-5.8,2.3-6.9c3.4-0.9,6.8-0.2,9.5,2.2c2.2,2,3.4,5,1.2,7.1
		C467.9,527,475.5,529.7,474.3,534.4z"/>
	<path class="st8" d="M371.9,523.5c0.7-6.1,3.2-11.3,10.4-10.9c6.4,0.3,9.2,4.9,9.2,11.1c0,6.7-3,11.2-10.2,11
		C374.6,534.5,372.4,529.7,371.9,523.5z"/>
	<path class="st7" d="M369.9,534.2c-6.5,0.5-5.9-5.5-9.6-6.6c-3,1.1,0.7,6.4-5.8,6.6c0-6.1-0.3-12.2,0.1-18.3c0.3-4.9,4.4-3.4,7-2.9
		c3.9,0.7,8.6,3.7,6.3,7.1C364.3,525.7,367.4,529.3,369.9,534.2z"/>
	<path class="st9" d="M291.5,523c2-3.6-3.1-10.6,5.7-10.3c7,0.3,11.5,3.6,11.5,11.2c0,7.1-4.2,10.4-10.8,10.7
		C287.7,535,293.8,526.9,291.5,523z"/>
	<path class="st10" d="M424.6,517.8c-2.5-1.6-5.9,0.6-7.5-2.6c0.4-2.4,11.5-4.2,13.3-2c1.9,2.3,0.1,4.4-1.1,6.3
		c-2.1,3.4-4.3,6.7-6.4,9.9c2.7,2.5,6.6-0.4,8.8,3.6c-4.6,2.9-12.3,3.1-13.6,0.7C414.9,527.8,423.4,524.3,424.6,517.8z"/>
	<path class="st11" d="M271.5,523.7c-1.9,2.5-6.2,0.3-6.8,3.9c-0.9,5.3,6,1.4,6.9,6c-3.7,1.7-8.9,2.7-10.4-0.5
		c-2.7-5.7-2.4-12.9-0.2-18.6c1.4-3.6,6.8-1.9,10.5-1c0.2,5.7-6.6,1.7-6.8,6.1C265.8,522.4,269.9,520.2,271.5,523.7z"/>
	<path class="st12" d="M324.5,534c-4.6,0.7-10.3,3.3-11.6-1.5c-1.7-6.1-2.4-13.3,0.9-19.4c0.8-1.4,6.3-1.6,8.4-0.3
		c4.2,2.5,1.2,3.9-1.8,4.5c-1.3,0.2-2.7,0.1-3.2,1.8c0.9,3.1,5.3,0.5,6.3,4.4c0.1,3.9-7.1,0.3-6.5,4.9
		C317.7,532.3,323.1,528.9,324.5,534z"/>
	<path class="st10" d="M448.9,519c0.3,4,5.4,0.4,5.9,4.1c0.1,4-7,0.3-6.1,5.5c0.7,3.9,5.9,0.5,7.1,4.8c-3.8,2-9.1,2.9-10.7-0.2
		c-2.9-5.6-2.3-12.8-0.4-18.6c1.4-4.4,7-1.1,10.6-1.7C456.5,519.3,449.5,515.3,448.9,519z"/>
	<path class="st13" d="M353.9,555.6c-1.2-5.5,0.3-7.4,2.7-8.1c1.8-0.5,4.3-0.4,5.8,0.5c1.8,1.2,1,3.6-0.1,5.4
		c-0.5,0.9-1.9,1.8-1.7,2.4c0.9,2.7,8,6.4-0.6,7.3C353.1,563.9,354.2,557.2,353.9,555.6z"/>
	<path class="st14" d="M239.7,526.7c-0.1-0.3-0.2-0.7-0.4-0.9c-0.3-0.3-0.8-0.5-1.1-0.8c-1.6,2.9,1.1,6.7-3.1,10
		c-3-6.9-1.9-13.7-1.2-20.2c0.4-3.3,4-3.2,5.7-0.2c1.3,2.2,1.5,5.1,2.1,7.6C242.5,524.4,243.2,526.5,239.7,526.7z"/>
	<path class="st15" d="M289.6,532c-12.4,4.3-13.6,3.7-13.5-6.3c0.1-4.3-1.4-9.1,2.2-13.8C283.6,518.6,274.1,531.1,289.6,532z"/>
	<path class="st16" d="M247.3,520.2c0.9-3,0.3-7.8,5-7.2c4.9,0.7,2.5,5.4,2.7,8.3c0.2,4.2,1,8.5-1.3,13.4c-5.2-3.4,0-9.2-3.9-12
		C247.6,523.2,246.5,522.7,247.3,520.2z"/>
	<path class="st17" d="M334.8,552.3c0.8,2.3-7.9,3-1.3,6.5c-1.6,1.7-3.5,1.8-5.5,0.9c-3.7-1.7-4.1-5.1-3.4-8.5
		c0.6-2.9,2.8-4.7,5.9-4C332.9,547.9,334.8,549.4,334.8,552.3z"/>
	<path class="st18" d="M384.9,547c2.6,1,5.6,2.5,4.4,5.5c-1,2.6-3.4,6.1-5.7,6.6c-4.2,0.9-4-3.6-4.3-6.3
		C379,549.2,381.3,547.4,384.9,547z"/>
	<path class="st19" d="M436.5,513.1c2.8,9.6,2.7,13.9-0.4,22.4C433.4,526.9,433.8,520,436.5,513.1z"/>
	<path class="st19" d="M480.8,513c3.2,7,2.1,14.1,1.4,23.3C477.5,528.2,477.2,522.6,480.8,513z"/>
	<path class="st4" d="M226.4,513.2c3.2,6.9,2.8,13.7,0.1,20.7C223.6,527.2,223.8,520.3,226.4,513.2z"/>
	<path class="st20" d="M343.5,547.5c2.5,1.4,0.1,5.8,1.5,8.9c1.1,2.5-2.6,4-5.6,3.5c-1.1-0.2-3.2-1.7-1.7-2.2
		C344,555.8,329.1,546,343.5,547.5z"/>
	<path class="st21" d="M247.3,520.2c0.8,0.9,1.7,1.7,2.5,2.6c-0.5,1.5-0.9,3.1-1.5,4.6c-1.1,2.6-0.4,7-4.1,7
		c-4.2-0.1-3.4-4.8-4.5-7.6c1.7-1,1.7-2.8,2-4.4C247,531.3,244.7,518.9,247.3,520.2z"/>
	<path class="st22" d="M318.4,558.8c-2.8,0.9-6.8,2.5-7.9-0.8c-1.2-3.9-1.2-8.8,0.2-12.6c1.2-3.3,5.1-1.6,7.8-0.3
		c0.7,1.4,0,2.5-0.8,3.6c-2.1,2.1-2.6,4.3-0.2,6.5C318.3,556.3,319,557.4,318.4,558.8z"/>
	<path class="st23" d="M375.1,549c-5.7,1.5-6.3,6-5.7,12.5c-5.3-4.9-4.9-8.9-3.4-11.8C367.6,546.5,371.3,546.9,375.1,549z"/>
	<path class="st24" d="M247.6,449.7c-1.2,3.1-3.7,2.6-5.8,2.2c-2.5-0.5-6.1-0.8-6-4.1c0.1-4.1,3.8-2.9,6.2-2.8
		C244.8,445.1,246.9,446.6,247.6,449.7z"/>
	<path class="st25" d="M111.7,496.6c-0.1-1.4-0.1-2.8-0.2-4.3c0.3,0,0.7,0,1,0c3.4,0.4,7.2-3.3,10.2,1c0.9,1.3,0.3,2.5-0.7,3.6
		C118.5,500.7,115.2,496.3,111.7,496.6z"/>
	<path class="st26" d="M393.3,559.1c-1.8-5.5-4.9-12,6.7-11.5C396.5,551.2,395.5,555.4,393.3,559.1z"/>
	<path class="st27" d="M327,486.7c-0.2-1.4-0.3-2.8-0.5-4.2c1.2-0.5,2.4-1,3.5-1.6c2.1-1.1,4.3-2,6.1,0.3c0.5,0.6,0.6,1.9,0.3,2.7
		c-0.9,2.9-3.2,2.7-5.6,2.4C329.6,486.2,328.3,486.6,327,486.7z"/>
	<path class="st28" d="M99.4,441.1c-0.2,4-2.9,4.7-5.5,5.2c-2.4,0.4-3.7-1.2-3.6-3.4c0.1-2.9,2.3-3.9,4.7-4
		C97,438.6,98.8,439.3,99.4,441.1z"/>
	<path class="st29" d="M318.4,558.8c-0.8-0.7-1.7-1.4-2.5-2c-0.4-3.2-0.5-6.5,0.4-9.6c0.7-0.7,1.5-1.4,2.2-2.1
		C325,549.7,324.7,554.3,318.4,558.8z"/>
	<path class="st22" d="M615,443.5c3.7,2.5,0.5,7.3,3.5,10c-0.5,3.4-2,6.1-6.7,9.4C615.2,455.4,615.6,449.5,615,443.5z"/>
	<path class="st30" d="M350.2,560.8c-4.5-5-2.5-8.3-2.5-13.5C352.5,552,350.8,555.5,350.2,560.8z"/>
	<path class="st31" d="M413.2,471c0.7,10.8-6.3,18.6-15.5,17.8c-4.4-0.4-7-2.6-7.2-6.9c-0.3-4.4,1.5-6.2,6.5-6.5
		C402.2,475.1,407.3,472.7,413.2,471z"/>
	<path class="st32" d="M442.5,445.7c2-14.9,3.1-17.2,11.7-24.3C456.8,429.9,454.1,435.7,442.5,445.7z"/>
	<path class="st33" d="M374.7,486.1c1,4.9,0.5,8.9-4.8,10.5c-1.9,0.6-4.7,0.3-4.4-2.4C366.1,489.2,370.2,487.5,374.7,486.1z"/>
	<path class="st32" d="M387,523c-0.3,4-0.8,7.7-5.3,7.7c-3.9,0-4.6-3.2-4.6-6.5c-0.1-3.6,0.4-7.2,4.9-7.2
		C385.8,516.9,386.5,520.3,387,523z"/>
	<path class="st34" d="M298.4,516.9c4.1,0.8,5.7,2.9,5.9,6.3c0.1,3.8-1.1,6.8-5.1,7.3c-3.9,0.4-2.7-3.1-2.7-5
		C296.4,522.5,295,518.9,298.4,516.9z"/>
	<path class="st35" d="M316.3,547.1c3.3,3.3,2.9,6.5-0.4,9.6C311.9,553.4,311.5,550.2,316.3,547.1z"/>
</g>
</svg>
