<?xml version="1.0" encoding="utf-8"?>
<!-- Generator: Adobe Illustrator 21.1.0, SVG Export Plug-In . SVG Version: 6.00 Build 0)  -->
<svg version="1.1" id="Layer_1" xmlns="http://www.w3.org/2000/svg" xmlns:xlink="http://www.w3.org/1999/xlink" x="0px" y="0px"
	 viewBox="0 0 700 965" style="enable-background:new 0 0 700 965;" xml:space="preserve">
<style type="text/css">
	.st0{fill:#FDFDFD;}
	.st1{fill:#091C9C;}
	.st2{fill:#0A1D9D;}
	.st3{fill:#C8CCE8;}
	.st4{fill:#FEFEFE;}
	.st5{fill:#FDFDFE;}
	.st6{fill:#F9F9FC;}
</style>
<g>
	<path class="st0" d="M350.2,549.3c-116,0-232,0-348,0c-1.4,0-1.9-0.2-1.9-1.8c0.1-44.3,0-88.7,0-133c0-1.4,0.2-1.9,1.8-1.9
		c232.2,0,464.4,0,696.6,0c1.3,0,1.8,0.1,1.8,1.7c-0.1,44.4-0.1,88.8,0,133.2c0,1.6-0.5,1.8-1.9,1.8
		C582.4,549.3,466.3,549.3,350.2,549.3z"/>
	<path class="st1" d="M249.4,516.2c0.9,2.2,2.8,3.4,4.8,4.3c5.8,2.5,11.9,3.3,18.1,3.3c15.2,0,28.3-5.7,40.2-14.8
		c8.3-6.3,15.5-13.7,22.6-21.3c14.3-15.3,29.5-29.4,47.3-40.7c1.1-0.7,2.1-1.3,3.2-2c1.1-0.7,2.1-1.3,3.3-2
		c-5.6-4.7-11.9-7.8-18.7-9.7c-8.8-2.5-17.9-3.2-27-3.1c-15.4,0.3-30.4,2.8-44.8,8.6c-10.1,4.1-19,9.9-26,18.5
		c-3.4,4.2-5.8,8.9-6.4,14.4c-0.8,6.6,1.7,11.8,7.6,15c6.5,3.6,13.6,4.3,20.7,3.1c14.7-2.6,28-8.3,39.5-17.9c2.7-2.2,5-4.9,6.5-8.1
		c2.3-5.1,0.8-9.6-4.2-12.1c-5.5-2.8-11.3-2.4-17-1.2c-10.7,2.3-19.5,8-27.7,15c-4.4,3.8-8.3,8.1-11.9,12.7
		c-0.3,0.4-0.5,1.2-1.3,0.7c-0.8-0.5-0.3-0.9,0-1.4c8.6-11.2,18.7-20.6,31.8-26.2c7.5-3.2,15.4-4.8,23.5-2.9c5.8,1.4,9.3,5,9.9,9.9
		c0.4,3.2-0.7,6-2.3,8.6c-2.9,5-7.1,8.9-11.7,12.2c-12.1,8.5-25.5,13.4-40.4,13.2c-4.2-0.1-8.3-0.6-12.3-1.9
		c-10.8-3.5-15.2-11.4-12.5-22.4c2.1-8.5,7.4-14.9,14.1-20.2c9.1-7.2,19.5-11.7,30.6-14.7c18.8-5.1,37.7-6.8,57-3
		c9,1.8,17.3,5,24.3,11.2c0.9,0.8,1.4,0.3,2-0.1c4.4-2.7,8.8-5.3,13.5-7.3c0.6-0.3,1.2-0.5,1.8-0.7c0.7-0.3,1.3-0.5,1.6,0.4
		c0.3,0.8-0.5,0.8-0.9,0.9c-5.2,2-9.8,5.1-14.5,7.9c-1.1,0.6-1.1,1-0.3,2.1c7.1,9.5,5.7,20.7-3.4,28.3c-5.5,4.6-11.8,7.4-18.6,9.3
		c-1.4,0.4-1.9,0.6-1,2.2c3.5,6,3.2,12.3,0.7,18.6c-0.4,1-0.9,2-1.2,3.2c1.8-1.6,3.6-3.2,5.5-4.9c10.6-9.6,20.2-20.1,30.5-29.9
		c7.2-6.9,14.6-13.7,23.3-18.9c3.7-2.2,7.6-4.3,12.1-4.3c3.2,0,4.8,2.1,4.1,5.2c-0.8,3.8-3.3,6.6-5.8,9.2
		c-8.6,8.8-18.9,15.1-29.7,20.8c-4.5,2.4-9.2,4.5-14,6.4c-0.9,0.4-1.8,0.8-2.5,1.6c-7.1,7.5-14.1,15-20.7,22.9c-1.5,1.8-3,3.7-4,5.9
		c-0.5,1.1-0.8,2.2,0,3.2c0.8,1,2,1.2,3.2,1c1.2-0.2,2.2-0.7,3.3-1.3c4-2.2,7.7-4.9,11.2-7.7c6.7-5.3,13.5-10.3,20.3-15.5
		c2.2-1.7,4.3-2.3,6.9-2.1c1,0.1,2,0,3.1,0c-0.1,0.9-0.7,1.2-1.1,1.6c-5.9,5.9-11.9,11.8-17.9,17.7c-1.1,1.1-2.2,2.2-2.9,3.5
		c-0.5,0.9-0.8,1.9-0.2,2.8c0.7,0.9,1.7,1.2,2.8,1c2.1-0.3,4-1.3,5.8-2.4c5.7-3.7,10.7-8.3,15.7-12.9c3.4-3.1,6.8-6.3,10-9.6
		c1.3-1.3,2.6-1.8,4.4-1.7c1.6,0.1,3.1,0,4.8,0c-0.3,1-0.9,1.4-1.4,1.9c-6.2,6.6-12.4,13.2-18.6,19.7c-0.7,0.8-1.4,1.6-1.9,2.5
		c-0.8,1.5,0,2.7,1.7,2.5c0.9-0.1,1.8-0.5,2.6-0.9c3.7-2,7-4.5,10.2-7.1c6-4.7,12-9.5,18-14.2c2.1-1.7,4.3-3.3,6.7-4.5
		c3.7-1.8,6.3,0,6.1,4.1c-0.1,2-1,3.8-2,5.5c-0.6,1-1.3,2.1-1.8,3.3c2.3-1.7,4.7-3.5,7-5.2c3.6-2.7,7.3-5.2,11.4-7.1
		c1.2-0.6,2.4-1,3.7-1.2c3.9-0.5,6.4,2.3,5.2,6.1c-0.5,1.5-1.2,2.8-2,4c-0.5,0.8-1,1.6-1.2,2.7c1.5-1.2,3.1-2.3,4.6-3.5
		c3.5-2.7,7-5.4,10.9-7.5c1.7-0.9,3.5-1.6,5.4-1.9c3.8-0.5,6.3,1.9,5.7,5.7c-0.3,2-1.2,3.7-2.5,5.3c-2.7,3.4-6.2,6.1-9.3,9.1
		c-1.3,1.2-2.6,2.4-3.4,4c-0.4,0.8-0.7,1.6,0,2.4c0.6,0.7,1.4,0.9,2.3,0.6c1.8-0.5,3.3-1.3,4.8-2.3c6.2-4.2,12-8.8,17.4-13.9
		c6.2-5.9,13.6-9.6,22.1-10.9c1.1-0.2,2.1-0.1,3.1,0.1c2.4,0.4,3.3,1.3,3.7,3.7c0.1,0.5,0.2,1,0.3,2c1.2-1.4,2.2-2.4,3-3.6
		c0.8-1.2,1.8-1.6,3.2-1.5c1.6,0.1,3.3,0,5.1,0c-0.2,0.9-0.9,1.3-1.4,1.8c-5.6,5.6-11.2,11.1-16.3,17.3c-1.2,1.4-2.3,2.9-3.1,4.5
		c-0.5,0.9-0.9,1.9-0.2,2.6c0.7,0.7,1.8,0.2,2.6-0.2c1.5-0.9,3.1-1.8,4.5-2.9c8-6.2,16.1-12.2,23.4-19.2c0.9-0.9,1.2-1.4,0.4-2.6
		c-1.4-2.3-0.9-4.7,1-5.7c1.6-0.9,3.5-0.4,4.3,1.1c0.9,1.7,0.2,3.3-1.7,4.1c-0.4,0.2-0.8,0.3-1.6,0.6c2.6,1.5,5.1,1.3,7.4,0.4
		c1.6-0.6,2.4-0.3,3.5,0.9c2.2,2.5,2.2,2.4-0.1,4.8c-4.6,4.6-9.1,9.2-13.6,13.8c-0.7,0.7-1.3,1.5-1.9,2.3c-0.5,0.7-1.2,1.4-0.6,2.3
		c0.5,0.8,1.5,0.8,2.3,0.8c1.7-0.1,3.3-0.9,4.8-1.7c5.5-2.9,10.3-6.7,15.1-10.4c5.3-4.1,10.5-8.4,15.5-12.9c1.4-1.2,2.8-1.9,4.6-1.7
		c1.4,0.1,2.9,0,4.4,0c-0.1,0.9-0.7,1.2-1.1,1.7c-5.7,6.4-11.5,12.7-17.2,19.1c-0.9,1-1.6,2.1-2.1,3.3c-0.7,1.7,0.1,2.7,1.9,2.5
		c1.5-0.2,2.9-0.8,4.2-1.6c3.6-2,6.9-4.4,10.1-6.9c6.4-4.9,12.8-9.9,19.3-14.9c1.9-1.4,3.9-2.7,6.1-3.6c1.8-0.7,3.5-0.7,5,0.6
		c1.5,1.3,1.4,3,0.9,4.8c-0.6,2.1-1.9,3.9-2.9,5.9c0.6-0.5,1.2-0.9,1.7-1.4c4-3.3,8.1-6.6,12.8-8.8c2.1-1,4.2-1.9,6.6-1.5
		c3.6,0.6,5.1,3.2,4,6.6c-0.7,2.2-2.2,3.9-3.7,5.5c-2.7,2.8-5.8,5.2-8.7,7.7c-1.3,1.2-2.7,2.3-3.6,3.9c-0.5,0.9-0.9,1.8-0.1,2.7
		c0.8,0.9,1.7,0.9,2.7,0.5c1.4-0.6,2.8-1.3,4-2.1c6.4-4.3,12.6-8.9,18.2-14.2c5.8-5.5,12.5-9.5,20.5-10.7c1.6-0.3,3.3-0.3,4.2,1.3
		c1,1.6,0.4,3.2-0.5,4.7c-1.5,2.2-3.6,3.7-5.9,4.8c-4.4,2.2-9.1,3.5-13.9,4.4c-3.6,0.7-7.4,5-7.6,8.6c-0.2,2.3,1.7,3.9,4.4,3.5
		c3.6-0.5,6.8-2.1,9.9-3.8c4.9-2.6,9.3-5.9,13.7-9.4c0.3-0.2,0.6-0.5,0.9-0.7c0.4-0.3,0.7-0.7,1.1,0c0.4,0.5,0.1,0.8-0.3,1.1
		c-6.2,4.8-12.3,9.7-19.7,12.7c-1.6,0.6-3.2,1.1-5,1.3c-5.8,0.9-9.1-2.7-7.8-8.5c0.2-0.8,0.5-1.6,0.8-2.8c-0.7,0.5-1.2,0.9-1.7,1.2
		c-3.6,2.8-7.3,5.7-11.2,8.1c-1.3,0.8-2.6,1.5-4.1,1.9c-3,0.9-5.3-0.8-5.4-3.9c0-2.9,1.2-5.4,2.8-7.6c2.2-3,5.1-5.4,7.9-7.7
		c1.6-1.4,3.3-2.7,4.6-4.3c0.6-0.7,1.1-1.5,0.6-2.5c-0.6-0.9-1.5-1-2.4-0.9c-2.1,0.1-3.9,1-5.7,2c-5.4,2.9-10,6.8-14.6,10.8
		c-5,4.3-10.2,8.4-14.8,13.1c-0.4,0.4-0.7,0.7-1.3,0.7c-2.3,0-4.6,0-6.9,0c0.3-0.9,0.9-1.3,1.4-1.8c5.8-5.7,11.7-11.4,17.6-17.2
		c1.6-1.5,3-3.2,4.3-4.9c0.5-0.7,0.7-1.5,0.3-2.2c-0.5-0.9-1.5-0.5-2.2-0.2c-1.9,0.7-3.5,1.7-5.1,2.9c-7.6,5.8-15.2,11.6-22.8,17.4
		c-2.9,2.2-5.9,4.4-9.3,5.9c-1.8,0.8-3.7,1.3-5.8,0.7c-1.7-0.5-2.6-1.6-2.7-3.5c-0.1-2.3,0.8-4.4,2-6.3c2.6-4,5.9-7.3,9.1-10.7
		c-0.7-0.4-1,0.3-1.3,0.6c-6.2,5.4-12.8,10.3-19.5,15.1c-3,2.1-6.1,4.2-9.8,4.8c-0.8,0.1-1.6,0.2-2.4,0.2c-3.4-0.3-4.8-2.1-4.2-5.5
		c0.5-3.3,2.5-5.6,4.7-7.9c3.1-3.2,6.3-6.4,9.5-9.5c0.4-0.4,1-0.8,1.3-1.6c-2,0.2-3.9,0.5-5.9,0.1c-0.7-0.2-1.1,0.6-1.6,1
		c-8.1,7.3-17,13.8-25.6,20.6c-1.4,1.1-2.8,2.2-4.6,2.7c-3.4,0.9-5.4-0.7-5.3-4.1c0.1-1.9,0.8-3.5,1.8-5.7c-3,2.4-5.5,4.6-8.3,6.4
		c-2.4,1.5-4.9,2.9-7.7,3.4c-5.8,1.1-8.8-1.8-7.8-7.7c0.2-1,0.4-2,0.7-3.3c-3.1,2.4-6,4.7-9,6.9c-2,1.5-4,2.8-6.3,3.7
		c-2.2,0.9-4.5,1-6.3-0.7c-1.8-1.7-1.5-4-0.9-6.1c0.7-2.5,2.3-4.4,4-6.2c2.4-2.5,5.2-4.5,7.7-6.8c1.2-1,2.4-2.1,3.2-3.5
		c0.5-0.9,0.5-1.8-0.1-2.6c-0.6-0.9-1.5-0.9-2.5-0.7c-1.7,0.5-3.3,1.2-4.8,2.2c-8.8,5.4-16.6,12.1-24.3,19c-0.2,0.2-0.5,0.4-0.7,0.7
		c-3.2,4-7.3,5.8-12.6,4.3c0.1-0.5,0.8-0.9,1.3-1.4c5.2-5,10.4-9.9,15.6-14.9c1.8-1.7,3.5-3.6,4.7-5.8c0.6-1.1,1.2-2.3,0.2-3.5
		c-1-1.2-2.3-0.7-3.5-0.3c-3.7,1.4-6.8,3.7-10,6c-7.9,5.6-15.3,11.9-22.6,18.3c-1.6,1.4-3.2,2.1-5.3,1.9c-1.4-0.1-2.9,0-4.3,0
		c0-0.9,0.7-1.1,1-1.5c5.5-5.2,11.1-10.3,16.6-15.6c2-1.9,3.5-4.1,4.5-6.7c0.3-0.9,0.6-1.9-0.2-2.6c-0.8-0.7-1.7-0.1-2.4,0.4
		c-2,1.4-4,2.7-6,4.2c-7.4,5.7-14.8,11.5-22.2,17.2c-2.2,1.7-4.4,3.3-7,4.5c-1.5,0.7-3.1,1.1-4.8,0.6c-2.3-0.7-3.4-2.5-2.9-4.9
		c0.6-2.8,2.2-5,3.6-7.5c-0.4,0.3-0.8,0.5-1.1,0.8c-2.8,2.3-5.5,4.7-8.4,7c-2.7,2.2-5.7,4-9.3,4.7c-4.5,0.9-7.7-2.4-6.6-6.8
		c0.7-2.7,2.5-4.8,4.3-6.8c2-2.1,4-4.1,6.4-6.6c-1.6,0.6-2.3,1.4-3.2,2c-6.7,5-13.2,10.3-20.1,15c-2.1,1.4-4.2,2.7-6.7,3.2
		c-4.8,0.9-7.9-2.2-6.8-7c0.9-4.3,3.6-7.6,6.2-10.9c0.8-1.1,1.7-2.1,2.4-3.3c-3.5,2.9-7.1,5.8-10.6,8.8c-9.2,8-19.9,12.2-32.1,12.6
		c-1.5,0-3-0.2-4.5-0.7c-3.4-1.3-4.6-3.8-3.5-7.2c1.1-3.3,3.4-5.6,5.9-7.7c7.4-6.1,16-9.8,25.3-11.9c0.2,0,0.4-0.1,0.6-0.1
		c0.5,0.1,1.3-0.5,1.5,0.4c0.2,1-0.7,0.8-1.2,0.9c-3.2,0.6-6.3,1.4-9.3,2.6c-6.3,2.4-12,5.7-16.8,10.5c-1.7,1.7-3.3,3.6-3.9,6.1
		c-0.7,2.6,0.3,4.3,2.9,4.9c2.7,0.6,5.3,0.1,7.8-0.8c9.2-3.1,16.6-9,23.3-15.8c3.7-3.8,7-7.9,9.1-12.8c1.3-3.2,1.4-6.2-0.4-9.3
		c-0.6-1.1-1.3-1.4-2.6-1.1c-2.9,0.6-5.9,1-8.8,0.2c-0.4-0.1-0.9-0.3-1.3-0.4c-1.5-0.6-2.5-1.5-2.3-3.3c0.2-1.7,1.4-2.4,3-2.7
		c1.7-0.4,3.4-0.2,5.1,0.2c1.6,0.4,3.2,1,4.4,2.1c1.5,1.3,2.8,1.2,4.4,0.3c9.6-5.2,17.6-12.1,22.3-22.2c1.9-4.1,2-8.1-0.8-12
		c-0.9-1.2-1.4-1.5-2.7-0.6c-13,8.6-24.2,19-34.3,30.9c-6.8,8.1-13.3,16.4-21.2,23.5c-13.8,12.3-29.4,21.1-47.7,24.7
		c-10.3,2.1-20.7,2.2-30.8-1.3c-3.2-1.1-6.2-2.6-8.1-5.6c-1.2-1.9-1.4-4-0.2-6c1.2-2,2.9-3.2,5.3-3.1c2.2,0,3.9,1.2,4.6,3.1
		c0.6,1.7,0,3.1-1.2,4.3c-1.4,1.3-3.4,1.5-5.3,0.5C249.9,516.2,249.8,515.9,249.4,516.2z"/>
	<path class="st1" d="M150.8,511.2c-6.4,4.9-12.7,9.9-19.6,14c-4,2.3-8.1,4.2-12.8,4.2c-4.4,0-6.7-2.3-6.8-6.7
		c0-3.5,1.2-6.7,2.7-9.8c4.5-9.2,10.8-17,17.6-24.5c18.1-20.1,37.9-38.2,59.6-54.3c0.5-0.4,0.9-0.7,1.3-1.2
		c-4.9,1.4-9.4,3.6-13.9,5.9c-14.5,7.5-27.2,17.4-39,28.5c-14.3,13.3-27.1,28-40.4,42.2c-4.6,4.9-9,9.8-14,14.3
		c-2,1.8-4.1,3.5-6.6,4.7c-2.5,1.2-5.1,1.6-7.4-0.3c-2.2-1.8-2.2-4.4-1.7-6.9c0.8-3.7,2.7-6.8,4.7-9.9c5.2-8,11.3-15.2,17.8-22.2
		c18.8-20.5,38.8-39.6,61.4-55.9c0.2-0.1,0.4-0.3,0.7-0.6c-0.7-0.2-1.1,0-1.5,0.1c-11.9,3.5-22.4,9.7-32.4,16.9
		c-10.3,7.5-19.5,16.1-28.4,25.2c-12,12.4-23.7,25-36.4,36.6c-6.1,5.6-12.4,10.9-20.1,14.3c-7.7,3.4-15.8,4.9-24.1,2.9
		c-4.5-1.1-8.3-3.3-9.4-8.3c-1.1-4.7,2.7-8.4,7.2-7.3c2.9,0.7,4.3,3,3.6,5.6c-0.7,2.5-3,3.6-5.8,2.9c-0.6-0.2-1.4-1.1-1.8-0.3
		c-0.4,0.8,0.2,1.7,0.8,2.3c2.4,2.4,5.5,3.1,8.6,3.5c10.5,1.4,19.6-2.2,28-8c6.6-4.5,12.5-9.9,18.2-15.5
		c11.8-11.5,22.7-24,34.7-35.3c10.9-10.3,22.2-20.3,35.2-28c7.6-4.5,15.6-7.9,24.3-9.6c0.6-0.1,1.2-0.1,1.8-0.3
		c0.9-0.3,1.3,0.2,1.7,0.9c0.4,0.9-0.3,1-0.7,1.4c-5.1,4.2-10.1,8.5-14.9,13c-19.1,17.8-36.1,37.6-52.7,57.6
		c-4.8,5.8-9.7,11.5-13.8,17.8c-0.9,1.3-1.7,2.7-1.8,4.3c0,1.5,0.7,2.1,2.1,1.6c1.8-0.5,3.3-1.7,4.7-2.9c4.7-3.9,8.8-8.3,13-12.7
		c13.4-14,26-28.6,40-42c11.6-11.1,23.8-21.5,37.7-29.6c7-4.1,14.2-7.4,22.1-9.3c0.4-0.1,0.8-0.1,1.2-0.3c0.9-0.3,1.1,0.4,1.5,0.9
		c0.6,0.8-0.1,1-0.5,1.4c-26.8,22.7-49.4,49.4-72.2,76c-3.3,3.8-6.3,7.8-8.5,12.3c-0.8,1.6-1.8,3.3-0.6,5c1.3,1.8,3.2,1.4,5.1,1.2
		c5.2-0.8,9.7-3.2,14.1-5.9c7.7-4.6,14.6-10.4,21.5-16.1c2.2-1.9,4.4-2.9,7.3-2.6c1,0.1,1.9,0,2.9,0c0,0.9-0.6,1.2-1,1.6
		c-5.8,6.1-11.5,12.2-17.3,18.3c-0.9,0.9-1.5,2-2.3,3c-0.5,0.6-0.6,1.4-0.2,2.1c0.4,0.8,1.3,0.9,2.1,0.8c1.3-0.2,2.5-0.7,3.7-1.3
		c3.7-1.9,7.1-4.3,10.5-6.7c10.7-7.7,20.8-16,31-24.2c0.5-0.4,0.9-1.4,1.7-0.7c0.9,0.9,0,1.5-0.7,2c-0.2,0.1-0.3,0.3-0.5,0.4
		c-2.7,1.7-3.3,3.7-2.3,6.9c1.5,4.8,1.3,9.6-0.9,14.6c2.5-0.6,4.2-1.9,6-3.1c7.6-5.3,14.5-11.4,21.8-17.1c1.4-1.1,2.8-2.3,4.2-3.3
		c0.3-0.2,0.7-1,1.2-0.3c0.4,0.5,0.5,1-0.1,1.5c-0.8,0.6-1.5,1.3-2.3,1.9c-1.6,1.2-1.9,2.6-1.4,4.5c1.6,5.2,1.7,10.5-0.6,15.9
		c2.9-0.7,4.9-2.4,7.1-4c0.4-0.3,0.9-1.3,1.6-0.4c0.7,0.9-0.4,1.1-0.8,1.4c-2.7,2-5.3,4.1-8.7,5c-0.8,0.2-1.2,0.8-1.7,1.3
		c-6,5.2-12.9,7.9-20.9,6.6c-3.1-0.5-4.7-2.6-4.3-5.1c0.3-1.7,1.7-3,3.4-3c1.4,0,2.5,0.6,2.9,2.1c0.5,1.9-0.5,3.5-2.5,3.7
		c-0.5,0.1-1,0-1.9,0c1.8,1.4,3.5,1.9,5.4,1.3c8.4-2.5,14-7.9,16.7-16.2c1.1-3.1,1.6-6.4,1.6-9.7c-0.8-0.1-1.1,0.5-1.5,0.8
		c-6.6,5.1-13,10.5-20.1,15.1c-1.8,1.2-3.6,2.4-5.8,3c-0.8,0.2-1.2,0.8-1.7,1.2c-6.1,5.3-12.9,8-21.1,6.8c-2.1-0.3-3.9-1.3-4.4-3.7
		c-0.3-1.6,0.2-3,1.6-3.9c1.2-0.8,2.5-0.8,3.7,0.1c0.9,0.7,1.5,1.7,1.2,2.9c-0.3,1.2-1.1,1.9-2.3,2.2c-0.6,0.1-1.2,0.1-2,0.2
		c1.7,1.3,3.3,1.7,5.1,1.3c6.4-1.6,11.1-5.6,14.5-11.1c2.8-4.5,3.7-9.5,3.9-14.7c-1-0.1-1.4,0.6-1.9,1c-9.7,7.8-19.7,15.3-30,22.3
		c-2.5,1.7-5,3.2-8,3.7c-4.7,0.9-7.2-1.8-5.6-6.4c0.9-2.7,2.8-4.9,4.7-7c1.2-1.4,2.6-2.8,3.9-4.2c0.3-1.1,1.5-1.5,2.1-2.3
		C152.6,510.1,151.9,510.9,150.8,511.2z"/>
	<path class="st2" d="M619.1,481.2c0.9,0,1.1,0.4,1.3,0.7c3.5,3.8,3.5,3.7-0.3,7.3c-1.1,1-1.7,1.1-2.7-0.2c-2.6-3.2-2.7-3.2,0.3-6.1
		C618.2,482.3,618.7,481.6,619.1,481.2z"/>
	<path class="st2" d="M178.1,490.8c-0.2,0.2-0.3,0.4-0.5,0.6c-1.3,1.1-2.6,2.2-3.9,3.4c-0.5,0.5-0.9,0.4-1.3-0.1
		c-0.2-0.2-0.4-0.4-0.5-0.6c-0.8-1.1-2.9-2.3-2.4-3.2c0.9-1.7,2.8-2.9,4.3-4.3c0.1-0.1,0.4-0.1,0.5-0.1
		C175.6,487.9,176.8,489.3,178.1,490.8z"/>
	<path class="st3" d="M150.8,511.2c1.2-1.1,2.4-2.2,3.6-3.2c0.1,0.1,0.2,0.2,0.4,0.4c-1.2,1.1-2.4,2.2-3.5,3.3
		C151.1,511.5,151,511.4,150.8,511.2z"/>
	<path class="st4" d="M396.5,487.6c3.1-3.4,6.2-6.7,9.4-10.1c6.8-7.1,13.7-14.1,21.3-20.4c3.3-2.7,6.8-5.3,10.8-6.9
		c2-0.8,4.2-1.7,5.9,0.2c1.6,1.9,0.2,3.9-0.9,5.6c-2,3.4-4.8,6.1-7.8,8.6c-10.8,9.1-22.8,16.3-35.6,22.1c-0.9,0.4-1.8,0.7-2.7,1.1
		C396.7,487.8,396.6,487.7,396.5,487.6z"/>
	<path class="st4" d="M546.1,501.5c0,1.7-0.8,3.2-1.8,4.5c-6,7.1-12.9,13.2-21.2,17.5c-1.4,0.7-2.8,1.1-4.3,1.2
		c-2.7,0.1-3.9-1.6-2.9-4.1c0.5-1.2,1.2-2.3,2-3.4c4.9-6.4,10.8-11.7,17.6-16c2.3-1.4,4.7-2.8,7.5-2.6
		C545,498.6,546.1,499.6,546.1,501.5z"/>
	<path class="st5" d="M674.3,510.7c4.4-3.9,8.7-7.9,13.8-10.9c0.9-0.5,1.8-1,2.9-1.2c0.9-0.2,1.9-0.2,2.5,0.7c0.7,0.9,0.5,1.9,0,2.8
		c-0.7,1.3-1.8,2.3-3,3.1C685.6,508.3,680.1,509.9,674.3,510.7z"/>
	<path class="st6" d="M365.6,481.8c-3,0.6-5.6,0.9-8.1-0.1c-0.7-0.3-1.8-0.4-1.7-1.3c0.1-0.9,1.2-0.9,1.9-1
		C360.5,479.2,363,480.2,365.6,481.8z"/>
</g>
</svg>
