<?xml version="1.0" encoding="utf-8"?>
<!-- Generator: Adobe Illustrator 21.1.0, SVG Export Plug-In . SVG Version: 6.00 Build 0)  -->
<svg version="1.1" id="Layer_1" xmlns="http://www.w3.org/2000/svg" xmlns:xlink="http://www.w3.org/1999/xlink" x="0px" y="0px"
	 viewBox="0 0 700 965" style="enable-background:new 0 0 700 965;" xml:space="preserve">
<style type="text/css">
	.st0{display:none;fill:#FDFDFD;}
	.st1{fill:#080808;}
	.st2{fill:#171717;}
	.st3{fill:#0D0D0D;}
	.st4{fill:#0C0C0C;}
	.st5{fill:#EEEEEE;}
	.st6{fill:#101010;}
	.st7{fill:#ECECEC;}
	.st8{fill:#141414;}
	.st9{fill:#5D5D5D;}
	.st10{fill:#111111;}
	.st11{fill:#131313;}
	.st12{fill:#0E0E0E;}
	.st13{fill:#F9F9F9;}
	.st14{fill:#0B0B0B;}
	.st15{fill:#989898;}
	.st16{fill:#A0A0A0;}
	.st17{fill:#6E6E6E;}
	.st18{fill:#2B2B2B;}
	.st19{fill:#1F1F1F;}
	.st20{fill:#212121;}
	.st21{fill:#8B8B8B;}
	.st22{fill:#494949;}
	.st23{fill:#1D1D1D;}
	.st24{fill:#828282;}
	.st25{fill:#B6B6B6;}
	.st26{fill:#8F8F8F;}
	.st27{fill:#515151;}
	.st28{fill:#232323;}
	.st29{fill:#181818;}
	.st30{fill:#6A6A6A;}
	.st31{fill:#7E7E7E;}
	.st32{fill:#252525;}
	.st33{fill:#151515;}
	.st34{fill:#B2B2B2;}
	.st35{fill:#3B3B3B;}
	.st36{fill:#858585;}
	.st37{fill:#ACACAC;}
	.st38{fill:#4A4A4A;}
	.st39{fill:#AAAAAA;}
	.st40{fill:#A5A5A5;}
	.st41{fill:#2F2F2F;}
	.st42{fill:#FDFDFD;}
</style>
<g>
	<path class="st0" d="M350.1,717.4c-115.5,0-231,0-346.5,0.1c-2.4,0-3-0.5-3-3c0.1-153.6,0.1-307.3,0-460.9c0-2.4,0.5-3,3-3
		c231,0.1,462,0.1,693,0c2.4,0,3,0.5,3,3c-0.1,153.6-0.1,307.3,0,460.9c0,2.4-0.5,3-3,3C581.1,717.4,465.6,717.4,350.1,717.4z"/>
	<path class="st1" d="M471.6,508.2c11.1,0.8,21-4.4,31.7-6.2c11.4-1.9,22.6-3.8,34.1-2.9c13.4,1,22.8,13.2,17.9,23
		c-2.8,5.5-7.6,8.4-13.5,7.8c-5.8-0.6-10.2-4.5-13.3-9.2c-1.8-2.7,0.7-4.2,3.2-3.7c2.4,0.5,4.6,2.1,6.9,3.2c3.2,1.5,6.5,2.5,8.9-1.1
		c2.8-4.1,0.4-7.1-2.7-9.5c-7.5-5.7-16.2-4.3-24.6-3.3c-4.3,0.5-8.5,2.5-12.8,3.3c-7.8,1.5-15.2,1.5-15.3,13.6
		c-0.1,8.9-10.1,12.8-16.5,7.2c-8.1-7.1-16.4-4.5-25-3.7c-15.1,1.5-29.4,0.3-42.6-11.6c10.4-0.9,19.7-1.6,28.9-2.5
		c2.9-0.3,6-0.7,8.5-2c2.4-1.2,3.5-3.8,2.9-6.7c-0.6-3-3.2-2.6-5.3-2.7c-5.2-0.2-10.4-0.1-15.6-0.6c-2.8-0.2-5.1-2.4-5.2-5.1
		c-0.1-2.2,2.3-3.5,4.7-4c10.4-2.1,20.8-3.6,28.6,5.8c4,4.8,7.5,4.4,12.5,2c42-20.3,84.3-22.3,127.2-2.4
		c14.1,6.5,29.2,10.4,44.4,13.5c13.5,2.8,26.4,0,38.3-6.5c5.1-2.8,11-6.8,6.8-13.9c-3.8-6.4-9.9-8.3-17.4-5.5
		c-4.7,1.8-10.8,10-13.8,3.5c-2.8-6,7.4-6.8,12.1-8.8c10.9-4.7,20.8-1.2,25.6,7.8c4.1,7.7,1,16.4-9.6,22.9
		c-16,9.8-33.4,9.9-51.3,5.7c-18.4-4.4-35.7-11.6-53.4-18C540.5,484.6,505.3,488.9,471.6,508.2z"/>
	<path class="st1" d="M219.1,494.1c-31.2-12.6-61.9-9.8-92.6,2.5c-22.3,8.9-44.9,17.3-69.6,15.6c-11-0.8-22.3-1.7-30-11.5
		c-4.8-6.1-7.8-12.8-3.3-20.4c4.3-7.2,11.1-7.6,18.4-6.1c5.1,1.1,10.1,2.3,15,3.7c2.1,0.6,4.4,1.9,3.3,4.7c-0.9,2.3-2.6,2.8-5.4,1.9
		c-5.2-1.8-10.8-2.6-15.9-4.6c-4.3-1.6-7.1-0.2-9.8,2.7c-2.9,3.1-1.3,6.1,0.1,9.2c4.2,9.3,12.4,12.1,21.4,13.6
		c18.6,3.1,35.8-3.2,53.2-8.3c17.6-5.2,34.2-13.6,52.7-16.5c30.8-4.9,59.5,1.7,87.1,14.9c5.8,2.8,9.8,5.4,14.7-1.8
		c4.3-6.2,22.1-8,29-4.6c1.8,0.9,3.1,1.9,3.2,4c0.2,2.7-1.3,4.2-3.8,4.5c-4.8,0.5-9.6,0.6-14.3,1.3c-2.6,0.3-6.6-1.6-7.1,3
		c-0.5,4.5,2.8,7.2,6.5,7.7c7,0.9,14,0.8,21.1,1.2c3.5,0.2,7,0.4,11.9,0.6c-7,9.6-16.2,11.3-25,12.2c-8.4,0.9-17.2,0.7-25.5-0.7
		c-6-1-10.6-1-15.1,3.4c-3.3,3.2-7.4,5.3-12,2.2c-4.1-2.7-8-6.7-7-11.6c1.4-6.9-1.5-8.3-7.2-9.3c-7.2-1.3-14.2-3.8-21.4-5.4
		c-6.6-1.4-13.1-1.5-19.6,1.2c-5,2-9.2,5-6.8,10.6c2.4,5.8,7.5,3.3,11.3,1c3-1.8,6.1-4.5,8.3-0.2c1.7,3.3-2.5,4.7-4.5,6.6
		c-4.6,4.4-10.4,6.3-16.3,3.6c-5.4-2.5-8.1-7.7-7.6-13.7c0.5-7.5,5.4-12.2,11.9-14.6c8.9-3.3,18.2-2.5,27.4-1
		c6.9,1.2,13.8,2.4,20.7,3.6c6.3,1.3,12.9,1.4,19.2,3.6C229.8,500.2,224.3,497.4,219.1,494.1z"/>
	<path class="st2" d="M114.5,441.4c-4.9,2.1-9.8,4.3-14.6,6.4c23.9-21.7,28.4-53,41.7-79.6c-5.4,5.8-10.8,11.6-16.2,17.5l-0.8-0.7
		c0.4-9,2.3-15.1,13.3-18.6c8.9-2.8,14.2-14.4,25.6-18.8c-16.4,23.9-21,51.5-34.3,75.3C126.9,431.2,120.3,436,114.5,441.4z"/>
	<path class="st3" d="M355.2,530.5c-12.1,0.3-23.2-0.1-32.3-8c-6.2-5.4-10.7-11.9-4.6-20.1c3.8-5.1,18.3-4.1,23.7,1.1
		c2.9,2.8,1.4,4.6-1.4,5.7c-1.1,0.4-2.8-0.8-4.2-0.7c-4.3,0.1-10.8-4.8-12.4,1.7c-1.5,6.3,5.5,9.3,10.7,10.8
		c15.3,4.6,30.6,3.6,45.6-2.1c3.7-1.4,7.3-3.5,5.8-8c-1.5-4.6-5.3-2.3-8.5-1.5c-2.1,0.5-4.4,0.7-6.6,0.9c-2.2,0.2-3.7-1.1-4.2-2.9
		c-0.5-2,1.2-3.3,3-3.9c5.3-1.8,10.8-3.1,16.3-2c4.2,0.9,7.6,3.8,8.6,7.9c1.4,5.3-1.6,9.4-5.7,12.4
		C378.7,529.3,366.8,531.1,355.2,530.5z"/>
	<path class="st4" d="M477.9,414.9c14.5-6,21.2-19.8,30.9-30.7c5.4-6.1,10.7-12.1,17.2-17.1c2-0.8,3,0.3,3.7,1.9
		c0.1,6.5-4.9,10.3-8,15.1c-2.3,3.3-4.4,6.7-6.4,10.1c-4.9,2.2-7.9,6.2-10.6,10.7c-9.1,15.3-21.4,26.9-38.7,32.5
		c-3.2,1-6.2,2.4-9.5,0.8l0.4,0.3c6.8-4.4,14.3-7.9,18.8-15.1C476.5,420.6,476.7,417.6,477.9,414.9z"/>
	<path class="st5" d="M314.5,402.6c-1.5,4-5.1,7.3-4.4,12.1c0.1,10.2,0,20.1-9.1,27.6c-4.5,3.7-10.4,3.5-14.5,7.3
		c-8.1,1.3-12-3.3-14.1-10.2c1.5-5.1,5.7-7.3,10.1-9.3c4.3-1.9,7.7-4.2,7.7-9.5c6.9-7.3,13.7-14.5,20.6-21.8
		C312.2,399.9,313.5,401.1,314.5,402.6z"/>
	<path class="st6" d="M519.9,452.3c-20.8,8.5-41.3,2.5-61.9-1.1c-9.1-1.6-17.7-5.6-27.1-5.5c-5.8,1.7-10.9-2.8-16.6-1.8
		c-8.6-2.2-18-1-25.8-6.3c-1-1-1.1-2.1-0.3-3.2c17.5-1.9,34.6,2.1,51.6,5.1c6.2,1.1,11.5,0.7,17.1-0.9c0,0-0.3-0.3-0.4-0.3
		c0.8,4.3,3.5,6,7.8,6.8c18.5,3.7,36.8,8.4,55.9,7.4L519.9,452.3z"/>
	<path class="st4" d="M590.1,449c-6.5-5-7.5-12.4-0.2-20.3c14.3-15.6,26.2-32.9,38.6-49.8c4.1-5.6,8.2-8,15.1-6.3
		C626.8,398.9,603.4,420.6,590.1,449z"/>
	<path class="st3" d="M148.9,440.9c18.9-16.9,29.2-40.6,46.1-59.1c3.9-4.3,7.4-9.1,11-13.7c2-4.6,5.3-7.7,10.4-8.5
		c1.7,0.4,2.9,1.2,2.3,3.2c-16.8,17-25.7,39.6-41,57.7c-7.2,8.6-15.1,16.2-25.5,20.7C151,442.1,149.9,442,148.9,440.9z"/>
	<path class="st7" d="M236.3,447.8c-4.9-0.3-4.1-4-4.2-7.2c-3.6-6.3,1.4-8.2,5.5-10.3c4.1-2.1,9.2-3.2,8-9.6
		c6.8-5,12.4-11.2,17.9-17.5c1.7,0.9,1,2.9,2,4.1c0.1,2.3,0.1,4.6,0.2,6.9c-2.7,5.2,1.5,10.5-0.6,16.1
		C260.7,442,253.2,447,236.3,447.8z"/>
	<path class="st8" d="M404.1,418.5c-9.5-11.8-8.3-24.1-0.9-36c11.6-18.6,29.1-29.3,50-35c-14.8,8.4-29,17.6-39.1,31.6
		c-7.9,11.1-13.3,23-7.7,37.1C407,418.4,406,418.9,404.1,418.5z"/>
	<path class="st9" d="M218.7,362.9c-0.7-0.7-1.4-1.3-2.1-2c-0.7-0.6-0.7-1.2-0.2-1.9c0.2-0.3,0-0.7,0-1.1c-4.1,3.1-8.2,6.2-13.4,7.1
		c-17.2,9.6-29.2,24.9-42.9,38.4c-4.6,4.6-9.1,9.2-14,13.4c12.4-24.9,58.2-63.3,81.8-69.2c2.2,1.6,6.1,0.5,6.8,4.4
		C229.3,355.6,224,359.3,218.7,362.9z"/>
	<path class="st10" d="M520.2,452.6c-8.8-18.6,8.6-27.2,15.5-39.8c2.7-4.8,7.3-5.8,14.1-3.7c-7.6,9.8-14.8,19.2-21.9,28.6
		c-3.4,4.6-6.4,9.4,5,11.3c-6,1.5-9.5,2.4-13,3.3C519.9,452.3,520.2,452.6,520.2,452.6z"/>
	<path class="st11" d="M205.4,421c6.4-5.7,8.6-17.5,21.6-14.6c-5.6,15.2-23.5,23.2-24.2,41.4c-8.9-2.4-8-8.6-5.8-15.4
		C197.6,427,200.8,423.4,205.4,421z"/>
	<path class="st8" d="M578.5,409.1c-7.2,14.2-21.6,23.6-24.7,39.6c-8.6-3.1-10.4-8-4.6-15.2c5.4-6.6,10.9-13.1,15.7-20
		C568.4,408.5,572.4,407.3,578.5,409.1z"/>
	<path class="st6" d="M652.9,410.6c-6.6,14.1-21.8,22.7-24.5,39.4c-8.1-3.2-7.3-9.2-4.8-15.3C628.4,422.7,644.8,409.4,652.9,410.6z"
		/>
	<path class="st12" d="M655.8,449.8c-6.5-5.9-7.3-11.2-0.2-17.8c5-4.7,8.8-10.8,12.7-16.5c3.5-5.1,7.6-7.5,14.4-4.7
		c-7,11.4-17.1,20.3-22.7,32.3C657.3,444.5,661.9,450.4,655.8,449.8z"/>
	<path class="st13" d="M519.6,383c3-4.4,6.1-8.8,9.1-13.1c2.3-6.6,8.5-9.3,13.3-13.4c4.5-1.7,9.2-8.9,13.4-3.9
		c4.8,5.8-3,9.5-6.5,13.2c-3.7,4-7.1,8.7-12.6,10.6c-0.3,0.4-0.6,0.7-0.9,1c-3.5,3.8-6.9,7.7-11.8,9.6
		C519.6,388.5,517.8,387.4,519.6,383z"/>
	<path class="st14" d="M236.3,447.8c21.3-4.8,24.9-8.8,26.9-30.8c0.2-1.6,0.6-2.8,2.5-2.9c1.6,5,3.2,10,4.8,14.9
		c1.7,4,1.5,7.5-2.5,10.1C259.3,449,247.9,448.9,236.3,447.8z"/>
	<path class="st15" d="M435,405.4c22.8,7.3,47.9-5.3,60.7-30.2c1.3-2.4,1.2-5.9,4.3-7.2c2.1,1.8,1.4,3.6,0.6,5.2
		c-9.9,20-25.1,33.8-47.2,38.9c-7.6,1.8-15.7,1.4-20.4-6.9C433.8,404.2,434.5,404.3,435,405.4z"/>
	<path class="st16" d="M34.1,367.6c13.8-21.4,34.6-29.7,58.9-30.8c6.5-0.3,13.2,1,16.9,7.9c-0.7,1-1.5,1.2-2.5,0.5
		c-19.6-9.9-48.4-2.1-65.6,17.9c-1.9,2.2-3.6,4.7-5.4,7C34.9,369.8,34.8,368.5,34.1,367.6z"/>
	<path class="st17" d="M13.8,434.1c-1,6,1.8,9.4,9.8,10.7c14.4,2.4,28.4,1.5,41.7-5.1c3.6-1.8,7.2-3.5,10.8-5.3c1,0.7,2.4,1,2.6,2.5
		c-17,10.8-35.2,15.8-55.3,11.1c-6.9-1.6-13.2-4.4-16-11.8c0.9-1.7,0.6-4.4,3.2-4.9C12.7,431,13.9,431.9,13.8,434.1z"/>
	<path class="st11" d="M286.4,449.6c8.1-6.8,19.2-10.6,21.1-23.2c0.6-3.9-2.7-8.8,2.5-11.7c0.1,1.1,0,2.3,0.4,3.3
		c7.7,20.7,3.5,27.6-18.6,30.6C290,448.9,288.2,449.3,286.4,449.6z"/>
	<path class="st18" d="M78.8,436.9c-0.9-0.8-1.7-1.7-2.6-2.5c17.9-11.7,30.7-28.5,43.8-45c1.3-1.7,3-3,4.6-4.5
		c0.5,0,0.8,0.2,0.8,0.7C113.3,405.9,100.4,425.4,78.8,436.9z"/>
	<path class="st19" d="M245.5,420.7c1.9,0.3,4.3-0.3,4.3,3.1c-0.1,4.1-2.9,5.5-6,6.7c-5.1,2-12.1,1.7-11.8,10
		c-5.2-1.5-9.1-3.1-3.1-8.9C233.8,426.9,238.1,421.6,245.5,420.7z"/>
	<path class="st20" d="M268,439.1c0.8-3.4,1.6-6.7,2.5-10.1c1.5,2.4,3.3,4.6,5.5,1.1c3.3-5.5,9-7.1,14.2-9.5
		c5.3,3.9,3.8,8.3-1.2,9.5c-6.7,1.6-11,6.5-16.7,9.3C270.9,437.8,269.4,439,268,439.1z"/>
	<path class="st21" d="M114.5,441.4c3.7-7.1,8.9-13,14.6-18.5c2.2,4.6,4.5,1.7,6.9,0.2c2.5-1.6,3.3-6,9.3-4.5
		C135.6,428.2,126.6,436.8,114.5,441.4z"/>
	<path class="st22" d="M148.9,440.9c1.1,0.1,2.2,0.2,3.3,0.4c-0.5,2.5-5.4,1.6-4.3,5c0.8,2.6,3.6,1.2,5.5,1.4
		c2.5,0.2,4.9,0.1,7.4,0.1c0.5,0.5,0.7,1,0.4,1.4c-0.2,0.4-0.5,0.6-0.7,0.6c-14.4,1.6-28.6-3.4-43.3-1.1
		C127.5,443.8,139.6,448.3,148.9,440.9z"/>
	<path class="st23" d="M107.4,345.2c0.8-0.2,1.6-0.3,2.5-0.5c4.2,5.1,2.7,10.4-0.1,15.4c-2.8,5.1-5.5,10.1-5.2,16.8
		c-7.2-6.1-4.4-12-1.3-17.4C105.9,355,108.4,350.7,107.4,345.2z"/>
	<path class="st24" d="M404.1,418.5c0.8-0.7,1.5-1.5,2.3-2.2c14,15.6,32.1,11.1,52.1,9.1C435.7,434.8,415.8,431.8,404.1,418.5z"/>
	<path class="st25" d="M219.1,494.1c8.6,2.2,17.4,4,26.2,12.4c-12.3,0.9-20.5-4-29.1-7.2C219.5,498.8,222.8,498.4,219.1,494.1z"/>
	<path class="st26" d="M536.4,376.5c4.9-4.9,9.8-9.7,14.5-14.8c2.1-2.2,6-4.9,3.2-8.1c-2.2-2.6-5,1.1-7.5,2.2
		c-1.7,0.7-3.2,1.7-4.8,2.6c-1-0.4-1.8-1.1-2.2-2.1c0.2-0.3,0.3-0.7,0.6-0.9c5.6-3,12.4-9.9,17.5-3.5c5,6.3-3.7,10.8-7.6,14.9
		C546.4,370.8,543.4,376.7,536.4,376.5z"/>
	<path class="st27" d="M415.1,441c6.2-1.6,10.5,3.4,15.8,4.8c-18.8,2.5-37.7,6.4-56-2.5c0.4-0.4,0.8-0.7,1.2-1.1
		c11.8-0.4,23.5,0.2,35.2,1.2C413.5,443.6,415.4,444.2,415.1,441z"/>
	<path class="st28" d="M435,405.4l-0.9-0.4l-1,0.1c-3.5-8.5-1.1-14.8,6.1-15.7c2.8-0.4,6.3-1.2,7.2,2.9c0.9,4.1-1.6,6.9-5.2,6.7
		C436,398.8,433.4,399.6,435,405.4z"/>
	<path class="st29" d="M13.8,434.1c-3.8-4.5-4.4,1-6.3,2.1c-0.9-3-0.8-5.8,1.5-8.2c2.8-3,6-5.4,10.5-3.8c2.2,0.8,4,2.2,3.5,4.8
		C22,434.4,18.1,434.8,13.8,434.1z"/>
	<path class="st30" d="M258.9,345.3c11.8,1.3,20.3,7,24.5,18.6c-5.8-9.1-15.5-12-24.4-16.4c-0.8-0.5-1-1-0.8-1.5
		C258.4,345.6,258.6,345.3,258.9,345.3z"/>
	<path class="st31" d="M34.1,367.6c0.7,0.8,1.5,1.6,2.2,2.4c-3.9,10.7-4.3,20.6,7.1,27.8C29.9,392.8,27.5,384.1,34.1,367.6z"/>
	<path class="st32" d="M258.9,345.3c0.2,0.7,0.2,1.5,0.1,2.2c-8.3,0.6-17.1-2-24.3,4.5c-2.3-1.5-4.5-2.9-6.8-4.4
		C238,344,248.4,343.8,258.9,345.3z"/>
	<path class="st26" d="M519.6,383c0.1,3.2,0.9,5,4.4,2.5c3.8-2.8,7.6-5.4,11.4-8c-3.9,9-12.1,12.8-20.1,16.9
		C514.7,389.7,515.8,385.8,519.6,383z"/>
	<path class="st15" d="M500.6,358.9c-4.6-2.7-6.5-7.4-10.7-9.7c-3.7-2-9.2,0.1-11.5-5C492.5,344.5,497.3,347.5,500.6,358.9z"/>
	<path class="st33" d="M230.5,398.5c-4,0.6-6.7-0.8-6.4-2.8c0.5-4.5,4.5-6.4,8.5-7.2c2.5-0.5,4.4,1.3,4.1,3.7
		C236.3,396.4,232.4,397.4,230.5,398.5z"/>
	<path class="st34" d="M203,365c5.1-5.3,11.8-7.9,18.7-11.1c0.1,4.5-4.3,4.2-5.1,7c-3.6,2.4-7.1,4.8-10.7,7.3
		C205,367.1,204,366,203,365z"/>
	<path class="st35" d="M265.5,407.2c-3.4,0-0.9-2.9-2-4.1c3.6-3.8,5-10.2,12.7-9.9C275.8,400.6,267.4,401.6,265.5,407.2z"/>
	<path class="st36" d="M205.4,421c-2.8,3.8-5.7,7.6-8.5,11.4c-2.1-0.2-4.1-0.4-7.4-0.7C194.7,426.9,196.8,419.5,205.4,421z"/>
	<path class="st37" d="M655.8,449.8c3.8-0.7,0.6-5.9,4.2-6.7c0.3,4.5,1.7,7.4,6.8,4.7c2.9-1.5,5.7-3.3,8.5-5c0.3,0.4,0.7,0.8,1,1.2
		C670.4,448.9,665.1,456.3,655.8,449.8z"/>
	<path class="st37" d="M675.3,442.8c5.4-5.8,10.8-11.5,16.2-17.3c-1.8,9.2-8.4,14-15.2,18.5C676,443.5,675.7,443.1,675.3,442.8z"/>
	<path class="st24" d="M477.9,414.9c6.6,4.8,0.2,6.2-2.3,8.6c-3.4-5.7-7.8,2.2-12-1.5C468.6,419.6,473.3,417.2,477.9,414.9z"/>
	<path class="st38" d="M539.7,356.2c0.7,0.7,1.5,1.4,2.2,2.1c-4.4,3.8-8.8,7.7-13.1,11.5c-0.9-0.9-1.9-1.8-2.8-2.7
		C529.7,362.4,534.6,359.1,539.7,356.2z"/>
	<path class="st39" d="M160.6,449.7c0-0.7,0.1-1.3,0.3-2c5.2-4,12.1-3.2,17.6-6.5C173.9,447.1,167.4,448.7,160.6,449.7z"/>
	<path class="st40" d="M65.7,397.7c4.7-2,9.4-4,14.1-6C76.7,397.1,72.1,399.2,65.7,397.7z"/>
	<path class="st41" d="M314.5,402.6c-4.5,2-5.2,0.2-3.8-3.7c2.9-2.2,4.7-6.8,9.8-4.8C320.6,398.7,316.2,399.7,314.5,402.6z"/>
	<path class="st27" d="M388.2,434.4c0,0.7,0,1.4,0,2.1c-3.4,4.4-9.9,2.8-13.5,6.9c0,0,0.2-0.1,0.2-0.1c-4-2-3.5-4.4-0.3-6.4
		C378.8,434.2,383.3,432.9,388.2,434.4z"/>
	<path class="st42" d="M356.8,437.5c0.3-2.6,2.6-1.4,3.9-2c2.6,0.4,5.2,0.9,7.8,1.3c0.4,0.3,0.7,0.6,1.4,1.1
		C365.4,438.2,361.1,438.2,356.8,437.5z"/>
</g>
</svg>
