<?xml version="1.0" encoding="utf-8"?>
<!-- Generator: Adobe Illustrator 21.1.0, SVG Export Plug-In . SVG Version: 6.00 Build 0)  -->
<svg version="1.1" id="Layer_1" xmlns="http://www.w3.org/2000/svg" xmlns:xlink="http://www.w3.org/1999/xlink" x="0px" y="0px"
	 viewBox="0 0 700 965" style="enable-background:new 0 0 700 965;" xml:space="preserve">
<style type="text/css">
	.st0{fill:#FEFEFE;}
</style>
<g>
	<path class="st0" d="M1.2,323.3c231.6,0,463.2,0,694.7-0.1c4.4,0,5.4,1,5.4,5.4c-0.1,103.6-0.1,207.3,0,310.9c0,4-0.8,4.8-4.8,4.8
		c-230.2-0.1-460.4-0.1-690.7,0c-4,0-4.8-0.8-4.8-4.8C1.2,534.1,1.2,428.7,1.2,323.3z"/>
	<path d="M99.8,431c2-16.6,3.9-32,6.2-47.5c1.3-9.2,2.2-18.5,3.4-27.7c0.5-3.6,2-3.4,4.4-3.4c17.9,0,35.8,0.2,53.6-0.1
		c4.5-0.1,5.3,1.2,5.3,5.4c-0.2,45.5-0.1,91-0.1,136.5c0,12.8-0.1,25.7,0.1,38.5c0.1,3.3-0.9,4.2-4.2,4.2c-11.5-0.2-22.9-0.2-34.4,0
		c-3.8,0.1-4.8-1-4.7-4.8c0.2-32.1,0.1-64.1,0.1-96.2c0-1.9,0-3.8,0-5.8c-0.2,0-0.5,0-0.7-0.1c-1.3,10-2.6,20-3.9,30
		c-1.4,10.1-2.9,20.3-4.3,30.4c-1.4,10.2-2.7,20.3-3.8,30.5c-0.4,4-1.5,7.8-1.4,11.9c0.1,2.7-1.8,4-5,3.9
		c-6.6-0.3-13.3-0.6-19.8,0.1c-5.7,0.6-7.1-2.1-7.7-6.7c-2.7-20.1-5.4-40.2-8.2-60.3c-2-14-4.3-28-6.4-42.2c-1,1.9-0.5,3.9-0.5,5.8
		c0,32.7-0.1,65.3,0.1,98c0,4.4-1,5.5-5.4,5.4c-11.3-0.3-22.5-0.2-33.8,0c-3.3,0.1-4.1-0.9-4.1-4.2c0.1-58.7,0.1-117.4,0-176.1
		c0-3.3,0.8-4.2,4.1-4.2c18.3,0.2,36.5,0.2,54.8,0c3.4,0,4.9,1.3,5.3,4.3c2.3,17.7,4.4,35.4,7.2,53C96.9,416.5,96.8,423.6,99.8,431z
		"/>
	<path d="M645.6,421.9c-1.7,13.7-3.2,27.5-5.1,41.2c-1.8,12.9-3.9,25.8-5.7,38.8c-1.4,9.8-2.5,19.6-3.5,29.4
		c-0.4,3.8-1.4,5.9-5.8,5.7c-7.4-0.3-14.8-0.2-22.2,0c-2.6,0-3.4-0.5-3.8-3.4c-2.5-19-5.3-37.9-8.1-56.8c-2.5-16.6-5.1-33.3-8.1-50
		c0,1.9,0,3.9,0,5.8c0,33-0.1,66.1,0.1,99.1c0,4.5-1.2,5.4-5.5,5.3c-10.7-0.3-21.4-0.2-32.1,0c-3.2,0.1-4.7-0.3-4.7-4.2
		c0.2-58.7,0.1-117.4,0-176.1c0-3.4,1-4.1,4.2-4.1c17.9,0.1,35.8,0.2,53.7,0c3.1,0,4.7,1.1,5.1,3.9c2,14.5,3.9,28.9,5.9,43.4
		c1.5,10.6,3.2,21.2,5.5,31.7c2.1-17.4,4.1-34.7,6.2-52.1c1-7.9,2.5-15.7,3.4-23.6c0.3-2.5,0.8-3.2,3.3-3.2
		c18.9,0.1,37.7,0.2,56.6,0c3.9,0,3.2,2.2,3.2,4.5c0,15,0,29.9,0,44.9c0,43.2-0.1,86.3,0.1,129.5c0,4.5-1,5.8-5.6,5.7
		c-10.5-0.4-21-0.3-31.5,0c-4.1,0.1-5.1-1-5.1-5.1c0.2-35,0.1-70,0.1-105c0-1.7,0-3.3,0-5C646.1,421.9,645.8,421.9,645.6,421.9z"/>
	<path d="M455.4,524.1c-7.5,7.7-13.5,14-23.2,15.5c-14.2,2.2-26.5-1.2-37.5-10c-12.7-10.1-16.6-24-16.7-39.4
		c-0.1-29.4-0.2-58.7,0.1-88.1c0.1-11.1,0.6-22.3,7.4-32.1c8.8-12.7,21.2-19.5,36.1-20.8c12.6-1,25.5-1.2,37.8,4.2
		c15.8,7,25.9,17.8,28.5,35.3c1.4,9.4,0.8,18.9,1.1,28.3c0.1,3.1-0.4,4.4-4,4.4c-13.4-0.2-26.8-0.2-40.2,0c-3.3,0.1-3.9-1.2-3.7-4
		c0.8-9.7-0.9-19.2-1.1-28.9c-0.1-4.4-2.1-7.8-6.4-7.8c-4.3,0-6.2,3.4-6.5,7.8c-2.4,33.7-0.5,67.5-1.1,101.2
		c-0.1,4,1.1,7.9,1.4,11.9c0.2,3,2,5.9,6.3,6.1c4.5,0.2,6.6-2.5,7.2-5.9c2.1-11.2,1.2-22.7,1.4-34.1c0-3-2.2-2.3-3.7-2.1
		c-5.2,0.9-6.1-1.5-5.8-6.1c0.4-6,0.2-12.1,0-18.1c-0.1-2.9,0.5-4,3.7-4c16.1,0.2,32.3,0.1,48.4,0c2.9,0,4,0.5,4,3.7
		c-0.1,30.5-0.1,61,0,91.6c0,3.6-1.3,4.1-4.4,4c-6.8-0.2-13.6-0.5-20.4,0.1c-4.9,0.4-7.2-1.6-7.8-5.8
		C456,529.1,454.2,527.7,455.4,524.1z"/>
	<path d="M245.7,470.3c6.2,0,12.5,0.2,18.7-0.1c3.4-0.2,4.2,1.1,4.1,4.3c-0.2,8.2-0.1,16.3-0.1,24.5c0,4.1,0.9,7.7,5.7,8.6
		c5.2,1,8.4-1.3,9.5-6.5c2.5-11.7,1.6-26.5-12.7-35.7c-13-8.4-26.6-16-37.6-27.2c-7.5-7.7-10.9-17.2-11.4-27.5
		c-0.5-11-1.4-22.2,1.4-32.9c4.2-16,16.5-24.2,31.6-27.4c13.7-2.8,27.9-2.9,41.5,1c13.4,3.9,25.4,9.7,28.6,25.4
		c2,9.7,1.8,19.5,1.8,29.3c0,2.3-1.3,2.4-3,2.4c-13.2,0-26.4-0.1-39.7,0c-2.9,0-3-1.4-3-3.6c0.1-5.4-0.1-10.9,0.1-16.3
		c0.1-4.2-1.8-7.4-5.7-8c-4-0.6-7.6,2.6-7.8,6c-0.5,7.6-2.4,15.6,2.9,22.7c2.6,3.4,6.1,5.7,9.6,7.7c12.9,7.5,25.5,15.5,36.5,25.5
		c6,5.4,9.6,12.6,11.4,20.9c3.4,16.1,3.3,32.1,0.5,48c-2.5,14.1-13.9,21.2-26.5,25.1c-19.2,5.9-38.5,5.6-57-3.3
		c-13.3-6.4-19.5-17.3-21.3-31.8c-1.1-9.1-0.4-18.1-1-27.1c-0.2-3.4,1.1-4.2,4.2-4.1C233.2,470.5,239.4,470.3,245.7,470.3z"/>
	<path d="M353.5,583.5c0-8.5,0.1-17.1-0.1-25.6c0-2.7,0.6-3.7,3.5-3.6c7.2,0.2,14.4-0.1,21.5,0.1c5.9,0.1,11.1,5.3,11.2,11.2
		c0.2,12.4,0.2,24.8,0,37.2c-0.1,5.8-4.1,9.7-10,9.8c-7.6,0.2-15.1-0.1-22.7,0.1c-2.9,0.1-3.6-0.9-3.5-3.6
		C353.6,600.6,353.5,592,353.5,583.5z"/>
	<path d="M288.2,569c1.1-2.5,1.7-3.6,2.1-4.8c3.6-10.6,3.6-10.5,14.5-10c2.8,0.1,3.9,0.6,2.6,3.7c-1.3,3.1-1.5,6.7-3.1,9.5
		c-5.1,8.9-4,17.7-0.4,26.7c1.9,4.8,2.9,10,4.7,14.9c1.2,3.2,0.1,3.5-2.7,3.6c-13.8,0.7-13.8,0.8-17.5-15.8
		c-0.2,2.2-0.3,3.2-0.3,4.2c-0.1,12.3-1.8,13.6-14.1,11.6c-2.3-0.4-2.3-1.4-2.3-3.1c0-17.5,0.1-34.9,0-52.4c0-4.7,3.4-3.2,5.2-2.8
		c3.7,0.8,9.1-3.4,11,2.7C289,560.4,288.2,564.1,288.2,569z"/>
	<path d="M419.7,590.5c-3.9-2.7-6.5-4.7-9.2-6.5c-8.2-5.6-9.5-21.3-2.2-27.8c5.9-5.3,23.3-4.2,27.8,2.2c2.6,3.7,2.8,8.5,2.6,13.1
		c0,1.3-0.9,1.5-1.9,1.6c-1.2,0-2.3,0-3.5,0c-4.9-0.1-11.2,1.8-10.3-7c0.1-0.7-0.8-1.5-1.3-2.3c-3.5,3.8-3.2,7,1,10
		c2.3,1.7,4.5,3.4,7,4.7c11.1,5.4,11.7,19.9,8.3,28.8c-1.7,4.6-5.7,5.7-9.3,6.3c-4.6,0.7-9.4,1.1-14.2-0.6
		c-7.3-2.7-9.5-5.3-9.5-12.8c0-9.5,0-9.5,9.7-9.5C415.8,590.5,417,590.5,419.7,590.5z"/>
	<path d="M132.4,581.2c34.6,0,69.1,0,103.7,0c1.2,0,2.3,0,3.5,0c1.5,0,3.1-0.3,3.1,2.2c0,2.2-1,2.6-2.8,2.5c-1-0.1-1.9,0-2.9,0
		c-70.1,0-140.2,0-210.3,0c-0.8,0-1.6,0-2.3,0c-1.7,0-3.5,0.4-3.4-2.5c0.1-2.5,1.6-2.2,3.1-2.2c1.2,0,2.3,0,3.5,0
		C62.5,581.2,97.5,581.2,132.4,581.2z"/>
	<path d="M578.2,581.2c34.8,0,69.5,0,104.3,0c1.4,0,2.7,0,4.1,0c1.6,0,1.8,0.9,1.8,2.3c0,1.2,0,2.4-1.7,2.4c-1.4,0-2.7,0-4.1,0
		c-70.1,0-140.2,0-210.3,0c-1.2,0-2.3-0.1-3.5,0c-2,0.1-2.1-1-2.1-2.6c0-1.4,0.5-2.2,2-2.1c1.4,0,2.7,0,4.1,0
		C507.8,581.2,543,581.2,578.2,581.2z"/>
	<path d="M338.3,583.5c0,8.6-0.1,17.1,0.1,25.7c0.1,2.8-0.8,3.5-3.6,3.6c-12.8,0.4-12.8,0.5-12.8-12.4c0-14,0.1-28-0.1-42
		c0-3.3,0.9-4.1,4.2-4.2c12.2-0.1,12.2-0.2,12.2,11.8C338.3,571.9,338.3,577.7,338.3,583.5z"/>
	<path class="st0" d="M370.1,564.2c4.8,4.6,4.3,35.2,0,37.6C370.1,589.5,370.1,577.2,370.1,564.2z"/>
	<path class="st0" d="M420.5,591.8c2.7,1.8,4.1,8,2.4,10.3c-0.3,0.4-0.8,0.7-1.3,1.1c-0.6-0.8-1.3-1.4-1.6-2.3
		c-0.3-0.7-0.1-1.5-0.1-2.3C420.2,596.3,419.4,594,420.5,591.8z"/>
</g>
</svg>
