<?xml version="1.0" encoding="utf-8"?>
<!-- Generator: Adobe Illustrator 21.1.0, SVG Export Plug-In . SVG Version: 6.00 Build 0)  -->
<svg version="1.1" id="Layer_1" xmlns="http://www.w3.org/2000/svg" xmlns:xlink="http://www.w3.org/1999/xlink" x="0px" y="0px"
	 viewBox="0 0 700 965" style="enable-background:new 0 0 700 965;" xml:space="preserve">
<style type="text/css">
	.st0{fill:#FEFEFE;}
	.st1{fill:#231F20;}
	.st2{fill:#242021;}
	.st3{fill:#252122;}
	.st4{fill:#EC1924;}
	.st5{fill:#1A1516;}
	.st6{fill:#2E2A2B;}
	.st7{fill:#1B1617;}
	.st8{fill:#120D0E;}
	.st9{fill:#312D2E;}
	.st10{fill:#0B0607;}
	.st11{fill:#EA0511;}
	.st12{fill:#EC1E28;}
	.st13{fill:#1E191A;}
	.st14{fill:#EA020D;}
	.st15{fill:#FBFBFB;}
	.st16{fill:#2C2829;}
	.st17{fill:#0A0506;}
	.st18{fill:#FCFCFC;}
	.st19{fill:#161112;}
	.st20{fill:#F9F9F9;}
	.st21{fill:#1C1718;}
	.st22{fill:#130E0F;}
	.st23{fill:#EC1F29;}
	.st24{fill:#EC202A;}
	.st25{fill:#353132;}
	.st26{fill:#C5C4C4;}
	.st27{fill:#0F0A0B;}
	.st28{fill:#ED202A;}
	.st29{fill:#302C2D;}
	.st30{fill:#100B0C;}
	.st31{fill:#ED252F;}
	.st32{fill:#FAFAFA;}
	.st33{fill:#0E090A;}
	.st34{fill:#EF3A43;}
	.st35{fill:#181314;}
	.st36{fill:#EB0E19;}
	.st37{fill:#FEF9F9;}
	.st38{fill:#2E292A;}
	.st39{fill:#191415;}
	.st40{fill:#ED212C;}
	.st41{fill:#0C0708;}
	.st42{fill:#F8F8F8;}
	.st43{fill:#EB0712;}
	.st44{fill:#EB0914;}
	.st45{fill:#EC141F;}
	.st46{fill:#EE2E38;}
	.st47{fill:#474344;}
	.st48{fill:#EB0814;}
	.st49{fill:#EA030F;}
	.st50{fill:#110C0D;}
	.st51{fill:#151011;}
	.st52{fill:#ED242F;}
	.st53{fill:#1E1A1B;}
	.st54{fill:#EB0A15;}
	.st55{fill:#FBD4D6;}
	.st56{fill:#0D0809;}
	.st57{fill:#171213;}
	.st58{fill:#312D2D;}
	.st59{fill:#0D090A;}
	.st60{fill:#4A4647;}
	.st61{fill:#413D3E;}
	.st62{fill:#EE333C;}
	.st63{fill:#EF434C;}
	.st64{fill:#292526;}
	.st65{fill:#262223;}
	.st66{fill:#1D1819;}
	.st67{fill:#FDFDFD;}
	.st68{fill:#272324;}
	.st69{fill:#ED2933;}
	.st70{fill:#393536;}
</style>
<g>
	<path class="st0" d="M1.7,406.8c0-19.8,0-39.7,0-59.5c231.3,0,462.6,0,693.9-0.2c6.6,0,8.1,1.5,8,8c-0.3,86.9-0.2,173.8,0,260.7
		c0,5.2-1.1,6.3-6.3,6.3c-229.8-0.2-459.7-0.2-689.5,0c-5.2,0-6.3-1-6.3-6.3c0.2-69.1,0.1-138.2,0.1-207.4
		c11.2-5.4,12.2-4.7,15.9,10.3c0.8,6,0.3,12.1,0.5,18.1c-0.2,13.4,0.4,26.7-0.3,40.1c-0.2,1.1-0.5,2.2-1.1,3.2
		c-4.6,7.8-2.1,14.6,6.4,17.5c5.6,1.9,7.2-3.7,10.6-5.8c2.9-1.8,3.6-4.3,1.3-7.3c-1.7-2.1-2.3-4.6-2.4-7.3
		c-0.7-16.1,0.8-32.2-0.8-48.3c-0.6-2.4-0.7-4.8-0.2-7.2c1.1-3.7,3.4-6.5,6.4-8.8c0.8-0.8-0.2,0.3,0.7-0.5
		c11.8-11.3,16.8-10.1,22.8,5.5c0.6,19.8,0.6,39.6,0,59.4c-0.2,1.1-0.6,2.2-1.1,3.2c-4.1,7.8-2.6,11.9,5.8,15.9
		c3.6,1.7,12.2-2.6,14.3-7.2c0.5-1.1,1.1-2.3,0.5-3.3c-8.1-12.6-3-26.6-4.6-39.9c0-2.8,0-5.5-0.1-8.2c-1.8-12.5,2.3-22.4,12.4-30.1
		c2.5-2,4.9-3.3,7.7-1.7c3.2,1.8,6.9,3.7,4.4,8.5c-0.6,10.4-0.1,20.9-0.2,31.3c-0.1,10,0,19.9,0,29.9c0.3-20.5-0.4-41,0.4-61.5
		c0.7-1.1,1.6-1.3,2.7-0.6c2.6,3.3,1.9,7.1,2,10.8c0.2,17.9-0.3,35.8,0.3,53.6c1.3,3.7,1.6,7.8,3.3,11.4c3.9,8.2,5.6,8.6,13.2,3.4
		c1.6-1.3,3.9-2.1,3.2-5c-2.1-3.7-4-7.4-3.9-11.8c-0.3-13.7,0.2-27.3-0.3-40.9c-0.2-0.9-0.3-1.8-0.3-2.7c0.4-3.3,1.1-6.6,0.2-9.9
		c-0.1-0.8-0.1-1.6,0-2.4c0.6-3.1,0.9-6.2,0.3-9.3c-2.2-7.5-8.9-11.2-14.2-15.9c-1.9-1.7-4.4-1.2-6.4,0.3c-1.6,1.2-2.9,2.6-4.2,4
		c-3.9,4.7-8.7,8.5-12.8,13c-3,3.3-5.7,2.7-7.1-1.5c-1.5-4.1-3.2-8.1-5.7-11.7c-5-7.2-9.2-7.9-15.7-2.1
		c-5.8,5.2-11.6,10.5-17.6,15.5c-4.2,0.6-4.7-2.8-5.9-5.4c-0.4-1.2-0.7-2.4-0.9-3.6c-0.5-2.6-1.6-4.9-3.2-7c-3.5-4.5-6.9-5.1-11.5-1
		C11.8,399.8,9.2,406.5,1.7,406.8z"/>
	<path class="st1" d="M38.6,414c-1.7,2.4-3.4,4.8-5.1,7.2c-2.3,3-0.9,6.1-0.4,9.2c0.3,13.6,0,27.1,0.1,40.7c0,3.1-0.6,6.4,1.4,9.2
		c1.3,3.2,7.8,4.9,5,8.8c-3.6,5-9,11.6-14.1,12c-6.4,0.5-11.8-6.7-15.9-12c-3-3.9,3.3-6,5.5-8.9c3.2-6.6,0.9-13.5,1.3-20.3
		c0.4-7.2,0.1-14.5,0.1-21.8c-0.8-6.7,1.6-13.7-1.2-20.3c-0.5-1.6-1-3.2-1.3-4.8c-1.1-4.8-2.3-9.6-8.5-4.2c-1.4,1.3-2.6-0.2-3.9-0.3
		c0-0.6,0-1.2,0-1.8c4.2-4,8.4-7.9,12.6-11.9c7.7-7.4,9.8-7.3,15.9,1.4c1.5,2.1,3.1,4.2,2.8,7c-1.4,2.4-0.2,5.1-1,7.7
		c1-1.6-0.5-3.7,1.5-4.8c2.6,0.8-1.7,7.9,4.8,5.1C39.2,412.1,39.3,413,38.6,414z"/>
	<path class="st1" d="M440.8,485.4c-9.8,2.8-18.9,6.8-25.9,14.6c-2.3,2.6-4.6,1.2-7-0.2c-12-6.8-23.9-9.1-35.6,0.9
		c-1.5,1.3-3.6,2.2-5.5,0.3c-2.3-2.4-0.3-4.2,1.1-6c14.6-19.5,26.8-22.2,54.5-11.3c0-8.5-0.3-16.5,0.1-24.5
		c0.4-8.9-7.3-9.8-12.5-12.5c-4.2-2.2-5.3,3.6-6.5,5.9c-4.4,8.8-9.5,9.3-16.8,3.4c-4.2-3.4-9.7-5-13.6-9.1
		c1.1-10.6,0.3-21.2,0.5-31.9c0.1-3.2-0.3-6.4,2.5-8.8c7.4-4,14.9-8,19.9-15c2.6-3.6,5.1-2.5,8.2-1.1c7.2,3.1,14,7.2,22.1,7.7
		c4.8,0.3,9.5-0.1,12.6-4.4c3.1-4.4-0.4-7.4-2.8-10.7c-2.1-2.8-2-6-0.2-9c1.2-1.9,2.7-2.6,5.1-1.6c3.4,1.4,5.3,3.1,5.7,7.2
		c2,22.1-22.4,40.5-43,32.3c-2.7-1.1-5.3-2.4-7.9-3.6c-1,0.3-1.8-0.1-2.5-0.8c-0.9,0.4-0.2,1.5-0.8,2c-0.4,0.6-0.7,1.2-1.1,1.8
		c-0.7,2-0.2,3.7,1,5.2c0.5,0.7,0.8,1.4,1.1,2.1c0.6,4.8,0.3,9.7,0.3,14.5c-0.1,0.8-0.2,1.6-0.3,2.4c1.6,1.1,3.4,2.1,4.8,3.4
		c5.1,4.9,7.8,2.6,11.1-2.5c6.6-10.3,6.9-10.2,17.8-4c4.2,2.4,8.2,5.1,12.3,7.6c3.3,7.8,1.3,16,1.6,24
		C441.2,471,441.2,478.2,440.8,485.4z"/>
	<path class="st1" d="M38.6,414c-0.1-0.9-0.2-1.7-0.3-2.6c6-5.8,12.5-11.3,18-17.5c5.4-6.2,9.6-3.7,13.9,0.7
		c4.9,5.1,8,11.3,9.2,20.2c6.2-6.2,11.5-11.5,16.9-16.8c1.9-0.5,3-1.7,3.6-3.6c1.5-3.5,5.5-5.4,7.4-3c5.4,6.6,15.1,9.3,17,18.9
		c-1.8,3.7,0.1,7.8-1.5,11.5l0-0.3c1.1,3.6,1.1,7.2,0,10.8l0-0.3c1.6,12.3,0.3,24.7,0.7,37c0.1,3.1-0.5,6.3,0.6,9.4
		c0.2,4.4,3.7,7,5.5,10.5c-2.1,1.3-3.8,3-5.2,5.1c-3.7,1.8-6.1,8.3-10.1,6.2c-4.9-2.6-8.3-8.3-8.5-14.3c-0.1-1.4-0.9-2.3-0.8-3.6
		c-1.6-5.8-0.3-11.8-0.7-17.7c0.8-4.1,1.4-8.3,0.2-12.4c-0.3-1.4-0.3-2.8,0.2-4.1c0.8-10.2,0.4-20.4,0.2-30.6
		c-0.3-1.3-0.6-2.7-1.7-3.6c-0.5,0-1,0-1.6-0.2l0,0c-2.9-2.8-5.2-9.2-9.7-6.2c-5.9,3.9-12,9-13,17.1c-0.6,4.5-0.3,9.2-0.4,13.8
		c-1,2.9-1.2,5.8,0.1,8.6c0.1,7.6,0.3,15.1,0.2,22.7c-0.1,5.6-0.3,10.9,4.7,15c2.4,2,2.8,4.3-0.4,6.2c-0.2,0.1-0.4,0.4-0.6,0.6
		c-13.1,12.6-13.5,12.5-29.7-3.2c1.9-2.8,3.5-6,6.5-7.9c0.7-0.7,1.3-1.5,1.6-2.4c0.5-19.9,0.5-39.9,0-59.8c-0.4-0.9-0.9-1.7-1.7-2.3
		C51.4,404,50.2,403.9,38.6,414z"/>
	<path class="st2" d="M654.1,399.6c8.9-12.3,17.7-24.6,27.8-38.6c2,9.2,1.4,16.1,0.6,22.8c-1,7.8,2,9.9,9,8.8c2-0.3,4.1,0.1,6.1-0.1
		c4.5-0.4,4.6,2.6,4.2,5.6c-0.3,2.8,1.3,7-4.2,6.6c-0.3,0-0.6,0-0.9,0.1c-4.5,0.8-10.9-2.6-13.1,1c-2.3,3.9-1.1,10.1-1.1,15.3
		c-0.1,14.9,0.4,29.7-0.2,44.6c-0.3,7.6,1,13.5,7.8,17.7c5.3,3.2,5.7,6.7,0.2,10.2c-0.5,0.3-1,0.7-1.3,1.1
		c-5.5,6.9-9.7,6.7-17.1,0.7c-8.5-6.9-14.3-9.9-11.1-24.4c4.4-19.7,1.1-41.1,1.6-61.8c0.2-7.4-6.3-3-8.5-5.8c1.3-2,3-1.4,4.8-0.8
		C656.6,402.1,654.8,401.7,654.1,399.6z"/>
	<path class="st1" d="M481.6,413.7c3.2-2.4,6.4-4.8,9.6-7.2c2-1,2.1,0.3,2.2,1.7c-9.2,6.4-13.6,14.5-12.5,26.4
		c1.1,12.1,0.1,24.5,0,36.7c0,4.9-0.8,9.9,4.3,13.3c2.6,1.8,1.6,4-0.6,5.7c-0.9,0.7-1.7,1.6-2.6,2.4c-11,10.1-18,9.5-26.1-3.5
		c-3.6-5.7,3.8-7.1,5.9-10.7c2.4-8.6,0.5-17.4,1.1-26.1c-0.4-9.3,0.9-18.7-0.7-28c-0.1-13.6-0.2-27.3-0.2-40.9
		c-0.1-10.9,1.8-22.3-9.8-30.1c6.6-1.2,10,2.3,13.1,5.3c2.8,2.7,4.4,2.4,7.1,0c5.9-5.3,12.6-9.1,23.4-9.4
		c-8.4,6.9-12.8,14-14.3,22.7c-2,3.5-0.5,7.3-1,11C481.1,393.1,478.8,403.5,481.6,413.7z"/>
	<path class="st1" d="M294.5,392.6c4,0,8-0.1,12-0.1c3.6,0,7.6-1,7.3,5.2c-0.3,5.3-2,7.7-7.6,7c-3.9-0.4-8,0.1-12,0.3
		c-1.8,3.4-1.3,6.9-0.4,10.4c0.1,16.9,0.6,33.7,0.1,50.6c-0.3,8.3,2,14.2,9.5,18.1c4.2,2.2,5.2,5.1,0.5,8.1
		c-0.2,0.2-0.4,0.4-0.7,0.6c-10.2,9.4-10.2,9.4-20.7,0.9c-1.1-0.9-2.1-2.3-3.4-2.7c-12-3.4-11.1-9.8-4.4-17.8c2.2-7.3,1-14.9,1-22.3
		c-0.1-14.7,0.9-29.5-0.5-44.1c-1.6-4.6-6.9,0.1-8.8-3.6c1.8-1.7,4.3-0.1,6.4-1.3c1-0.2-0.4-1.9,0-0.8c0.2,0.5,0,0.7-0.4,0.8
		c-2.2,0.6-4.3,0.8-6.3-0.5c6.3-14.1,16.9-25.1,26.2-37c3.4,3.8,1.1,8.4,2,12.6c-0.1,1.7-0.1,3.5-0.2,5.2
		C292.8,385.8,292,389.3,294.5,392.6z"/>
	<path class="st1" d="M593,414.2c-3.6-8.9-3.9-9.1-14-5.5c5.3-7.5,12-12.3,17.5-18.3c2.1-2.2,3.1-0.6,4.9,0.5
		c6.5,3.8,9.4,9.9,11.4,17.1c3.1-2.6,5.7-4.8,8.3-7c1.2,1.2,1.3,2.5,0.2,3.9c-3.7,1.8-5.4,5.3-7.3,8.6c0.7,21.5,0,43,0.3,64.5
		c1,1,2.1,2,3.1,3c8.5,8.9,8.3,8.7-1.5,17.4c-3.5,3.2-5.8,3.5-9.4,0.1c-5-4.7-9.9-9.7-17.1-11.2c-3.5-0.7-4.5-2.9-1.6-5.4
		c3.4-2.9,3.5-7.2,5.2-10.8c2.6-13.3,0.7-26.7,1-40.1C594.1,425.4,595.7,419.6,593,414.2z"/>
	<path class="st1" d="M148.7,420.7c-0.6-3.4-1.1-6.8-1.9-10.2c-0.6-2.6-1.9-4.9-5.1-5.1c-1.7-0.1-3.6,3.4-5,0.4
		c-1.1-2.5,1.9-3.8,3.5-5.4c1.8-1.8,3.9-3.5,5.9-5.1c3.1-2.5,7.4-7.6,9-6.9c5,2.2,9.3,6.3,11.5,12c1.3,3.5,1.5,7.1,1.7,11.5
		c3.2-2.2,5.8-3.9,8.3-5.6c1.2,1,1.5,2.4,1.4,3.8c-8.6,9-8.1,20.2-7.7,31.4c0.3,8.1,0,16.1,0.1,24.2c0,2.8-0.6,5.9,2.6,7.7
		c2,0.9,4,1.8,3.7,4.5c-9.4,6.6-18.8,13.2-28.1,19.9c-5,3.6-9.6,7.6-10.3,14.3c-1,10.4,4.6,15.4,19.2,17.1c2.1,2,5.3-1,7.2,1.8
		c-14.8,4.7-28.1-1.9-30.9-15.3c-1.2-6,1-11.4,4.7-15.8c4.9-5.9,8.5-12.3,10.3-19.7c0.6-0.6,1.1-1.2,1.5-1.9
		c0.5-18.8,0.2-37.7,0.1-56.5C149.7,421.6,149.2,421.2,148.7,420.7z"/>
	<path class="st1" d="M524.9,483.7c0.4,8.5-3.9,15.1-9.1,20.9c-9.9,11.2-22.3,19.2-36.4,24.3c-1.5-0.6-2.8-1.3-1.7-3.3
		c1.1-0.8,2.2-1.8,3.4-2.4c17-8.3,26.4-21.2,25.1-40.8c-0.2-3.1-0.9-6.4,0.8-9.4c0.3,0.2,0.7,0.5,1,0.7c0.3,2.8,0.3,5.6,0.1,8.5
		c0.1-3.6,0.1-7.2,0.1-10.8c0-15.8,0.1-31.6-0.1-47.5c0-2.1,1.2-4.6-1.1-6.4c-2-5.2-4.2-10.3-10.1-12.2c-1.2-0.3-1.9-1.1-2.2-2.3
		c2.7-2.6,5.3-5.2,8.1-7.7c9.3-8.3,9-8,17.6,2.1c3.7,4.4,4.8,8.9,4.6,14.2c-1.1,10.4,0.6,20.9-1,31.3c-0.5,3.6-0.3,7.2-0.1,10.8
		c1.3,6.6,0.8,13.2,0.4,19.8C524,477.1,523.5,480.4,524.9,483.7z"/>
	<path class="st1" d="M545.6,412.1c-1.9-3.8-11-5.2-4.2-11.8c13.6-13.2,11.4-13,21.3-5.1c10.2,8.1,9.8,8.6,2.4,15
		c-3.5,5.9-1.3,12.4-1.6,18.7c-0.3,6-0.4,12.1,0,18.1c0.1,8.4,0.2,16.9,0.5,25.3c0.1,4,0.2,8.1,2.4,11.8c1.3,2.1,6.4,3.1,3.2,6.7
		c-3.7,4.1-7.7,9.2-12.5,10.4c-3.7,1-7.3-4.9-9.5-9c-1.1-2-2-4.2-1.4-6.7C545.6,461,546.6,436.6,545.6,412.1z"/>
	<path class="st2" d="M176.7,410.2c0-1.3-0.1-2.6-0.1-3.9c6.7-6.3,13.4-12.7,20.5-19.4c5.4,8.3,11.6,15.4,13,24.9
		c0.9,1.7-0.3,3.5-0.1,5.2c0.2,5.3-0.5,10.7,0.5,16c0.1,0.9,0,1.8-0.3,2.7c-1.8,13.9-10.2,23.8-20.4,32.4c-4.2,3.6-8.8,6.6-13.2,9.9
		c-1.2-1-2.3-2-3.5-3c-0.7-4.2,3-6,5-8.6c10.6-13.9,15.5-29,10-46.4C186.4,414.4,183.5,410,176.7,410.2z"/>
	<path class="st2" d="M621.3,404.8c-0.1-1.3-0.1-2.6-0.2-3.9c12.8-13.9,17.2-13.1,25.6,4.1c1.2,2.5,0.3,3.5-1,5.2
		c-10.8,13.1-10.7,13.1-20.6-0.6C623.8,407.9,622.5,406.4,621.3,404.8z"/>
	<path class="st3" d="M334.2,431.5c2.6-0.1,5.2-0.1,7.8-0.4c5.2-0.5,8.3,0.3,8.3,7.1c0,6.9-3.1,7.4-8.3,7
		c-5.5-0.4-10.9-0.3-16.4-0.3c-10.2-0.1-11.8-3.1-7-13.7C323.7,432.8,328.9,432.4,334.2,431.5z"/>
	<path class="st4" d="M509.1,580.3c4.7,3.8,6.4,8.3,3.8,14c-2.2-1.1-0.7-4.7-3.6-5.4c-2.1-1.1-3.5-4.9-6.3-3.2
		c-3.4,2.1-2.1,6-1.8,9.3c0.8,2.4,3.2,2.2,5,3c0.7,0.3,1.2,0.8,1.5,1.5c-0.4,4,2,7,3.7,10.3c1.5,3,4.1,6.2,0.7,10.5
		c-2.3-5-4.4-9.5-6.4-14c-1.2-2.7-2.4-5.3-6-5.2c-4.6,5.3,0.4,12.2-2.8,17.7c-3-12.7-0.4-25.7-1.5-38.5
		C500,578.3,504.5,578.5,509.1,580.3z"/>
	<path class="st5" d="M545.6,412.1c2.2,1.2,2.1,3.2,2.1,5.3c0,21.1,0,42.2,0,63.3c0,1.8-0.1,3.5-1.6,4.7c-2.4-12.6-0.8-25.3-1-37.9
		C544.9,435.7,545.4,423.9,545.6,412.1z"/>
	<path class="st6" d="M574.4,353.9c-3.7,6.5-7.3,13-11,19.5c-0.9,1.6-2.2,3.1-4.1,2c-1.5-0.8-1-2.6-0.7-3.9c1.1-5.1,2-10.3,3.5-15.3
		C564.3,349.1,569.8,354.5,574.4,353.9z"/>
	<path class="st7" d="M34.7,480.2c-4.7-1.2-3.1-5-3.1-7.9c-0.1-14.9-0.1-29.7-0.1-44.6c0.6-1,1.3-1,2-0.1
		C35.9,445.1,33.7,462.7,34.7,480.2z"/>
	<path class="st8" d="M190.6,618.6c-1.7-12.8-1.9-25.6,0.1-38.4c5,2,10.4-0.7,15.3,1.5c-1.4,0.3-2.7,0.9-4.1,0.9
		c-4.6,0.1-8.9-1.1-8.9,6.7c0.1,7.2,3.5,7.3,8.6,6.9c1.2-0.1,2.3,0,2.9,1.3c-3.2,2.2-7.2-0.6-10.3,1.8l0.3,0
		c-2.4,4.6-0.7,9.6-1.1,14.3C193.3,615.8,194.6,618.6,190.6,618.6z"/>
	<path class="st9" d="M372.6,596.7c5,5.7,2.8,13.5,5.6,19.8c0.2,0.4-0.6,1.7-1.1,1.9c-1.1,0.3-2.2,0-2.5-1.5
		c-0.5-2.2-1.1-4.5-1.4-6.7c-0.4-3.2-2.6-3-5-3.4c-4.3-0.6-6.2,1.5-7.4,5.1c-1.1-0.3-1.7-1-1.9-2.1c1.3-7.6,2.6-15.2,3.8-22.7
		c2.6-0.2,3.4,1.9,4.3,3.7c1.5,3.5-1.9,7.3,0.7,10.7c2.7,0.7,2.8-1.5,3.6-3C371.5,597.8,372,597.2,372.6,596.7z"/>
	<path class="st5" d="M440.8,485.4c-3.3-9.6-0.9-19.4-1.5-29.1c-0.3-5.5,0-11,0-16.5c0.9,0.7,2.4,1.3,2.4,2
		C441.7,456.3,443.7,470.9,440.8,485.4z"/>
	<path class="st1" d="M91,579.9c3.5,9.1,1.1,18.5,1.3,27.8c0.1,6.2,1.1,9.2,8,8.1c2-0.3,6.3-1.7,6.1,2.3c-0.2,3.5-4.3,1.6-6.4,1.6
		c-3.5-0.1-7.3,1.7-10.4-1.3c1.4-9.7,0.2-19.5,0.7-29.2C90.3,586.1,89.4,582.9,91,579.9z"/>
	<path class="st10" d="M266.5,579.9c0,13.2,0,26.3,0,39.5c-0.6,0-1.1,0-1.7,0c0-13.2,0-26.4,0-39.5
		C265.3,579.9,265.9,579.9,266.5,579.9z"/>
	<path class="st11" d="M468.6,619.2c0-13,0-26.1,0-39.1c0.5,0,1,0,1.5,0c0,13,0,26.1,0,39.1C469.6,619.2,469.1,619.2,468.6,619.2z"
		/>
	<path class="st8" d="M128.8,618.5c0-12.8,0-25.7,0-38.5c0.5,0,1.1,0,1.6,0c0,12.9,0,25.8,0,38.6
		C129.9,618.5,129.4,618.5,128.8,618.5z"/>
	<path class="st12" d="M575.3,614.9c2.7-9.7,0.8-19.6,1.5-29.3c0.1-1.9-1.4-5.4,2.2-5.3c2.6,0,1.7,3.1,1.7,4.9
		c0.1,7.8,0,15.6,0,23.4c0,2.7-0.1,5.3-3,6.6C576.9,615.8,576.1,615.7,575.3,614.9z"/>
	<path class="st13" d="M563.6,447c-3.8-11.6-1.5-23.4-1.2-35.1c0-0.6,1.8-1.1,2.8-1.7C563.1,422.4,566,434.8,563.6,447z"/>
	<path class="st2" d="M103.1,413.8c0.7,0.7,1.5,1.4,2.2,2.2c0.8,10.8,0.9,21.6,0,32.4c0,1.4,0,2.8,0,4.2c0.9,3.2,0.8,6.5,0.1,9.7
		c-0.1,6.7-0.3,13.3-0.4,20c-3.2-11.4-0.5-23-1-34.6C103.3,436.4,104.7,425.1,103.1,413.8z"/>
	<path class="st14" d="M563.6,614.9c-3.3-11.7-0.7-23.3-1.7-35c1.1,0,2.3,0,3.4,0c0,10.5,0,20.9,0,31.4
		C566.3,613.2,566.6,614.9,563.6,614.9z"/>
	<path class="st15" d="M101.6,413.6c-0.1,21.2-0.1,42.4-0.2,63.6c0,0.2-0.3,0.5-1.6,2.9c0-15.3-0.3-28.6,0.1-41.8
		C100.2,430.1,97.7,421.6,101.6,413.6C101.6,413.6,101.6,413.6,101.6,413.6z"/>
	<path class="st16" d="M164.4,527.5c2-2.8,3.9-5.7,5.9-8.5c1.9-2.7,4.3-4.3,7.3-1.9c2.7,2.1,1.5,4.8-0.2,6.9c-2.3,3-4.8,6-9.3,5.3
		C166.1,530.4,165.2,529,164.4,527.5z"/>
	<path class="st17" d="M275,406.8c2.8,3.3,1.4,7.2,1.4,10.8c0.2,15.6,0.1,31.1,0,46.7c0,3,1.2,6.4-1.8,8.9
		C274.7,451.1,274.9,428.9,275,406.8z"/>
	<path class="st17" d="M61.2,480.2c-0.6,0-1.2,0-1.8,0c0-21.5-0.1-43.1-0.1-64.6c0.7,0,1.3-0.1,2-0.1c2,13.2,0.7,26.5,0.8,39.8
		C62.1,463.6,63.2,472,61.2,480.2z"/>
	<path class="st18" d="M614.3,477.9c-2-0.9-1.9-2.6-1.9-4.4c0-18.8,0-37.6,0-56.4c0-1.4,0-2.9,1.6-3.7l0.4,0.5
		c1.2,20.9,1.2,41.9,0,62.8C614.3,477.1,614.3,477.5,614.3,477.9z"/>
	<path class="st19" d="M593,414.2c0.7-0.7,1.9-0.7,1.9,0.2c0.1,19.1,0.1,38.2,0.1,57.4c0,0.4-0.4,0.8-0.7,1.2
		c-0.4-0.6-0.8-1.3-1.2-1.9C593,452.1,593,433.2,593,414.2z"/>
	<path class="st20" d="M614.4,476.7c0-20.9,0-41.9,0-62.8c2.7,2.3,1.6,5.4,1.6,8.2c0.1,15.4,0.1,30.9,0,46.3
		C615.9,471.3,616.9,474.4,614.4,476.7z"/>
	<path class="st21" d="M523.3,443.5c0-7.9-0.1-15.7,0-23.6c0-2.8-0.9-5.9,2-8c1.7,10.6,1.6,21.2,0.1,31.8
		C524.6,444.5,523.9,444.5,523.3,443.5z"/>
	<path class="st3" d="M190.6,618.6c3.1-3.2,1-7.1,1.7-10.7c0.5-2.9-1.5-6.5,2.2-8.5c-0.3,2-0.6,4-0.9,5.9
		c-1.4,7.9,0.9,12.1,9.8,10.5c1.6-0.3,3.5-0.3,4.9,3.2C202.2,620.1,196.5,621,190.6,618.6z"/>
	<path class="st22" d="M507.3,417.7c0.7,1.6,1.9,3.1,1.9,4.7c0.1,17,0.1,33.9,0.1,50.9c-0.4,0.7-0.9,0.8-1.4,0.1l-0.8-0.3
		C507.2,454.6,507.2,436.1,507.3,417.7z"/>
	<path class="st23" d="M428.3,615.2c-6.2-13.4-4.5-28.4,4-35.1c0.8,0.6,2,0.7,2.3,2c-3.5,2.5-4.5,6.4-5.8,10.2
		c-1.4,4.7-1.4,9.3,0,14c0.7,2.9,1.4,5.8,2.1,8.6C430.1,615.8,429.3,615.9,428.3,615.2z"/>
	<path class="st24" d="M610.5,605c-4.1-4.9-11-6.6-13.9-12.8c-1.8-2.3-1.8-4.7,0-7c1.7-1.8,2-5.1,5.3-5.2c0.8,0.6,1.9,0.8,2.1,2
		c-5.2,4.6-5,8.7,0.3,13.6c2.2,2.1,6.8,2.2,6.6,6.7C611.6,603.3,611.4,604.2,610.5,605z"/>
	<path class="st15" d="M37.2,478c0-17.3,0-34.6,0-51.8c0.3,0,0.6,0,0.9,0c0,17.3,0,34.7,0,52C37.8,478.1,37.5,478.1,37.2,478z"/>
	<path class="st25" d="M304,614.8c0-0.6,0.3-1.1,0.7-1.5c1-2.9,1.3-5.9-0.2-8.7c-3.4-4.2-9.5-5.3-11.9-10.6c0.9-1.1-0.1-3.1,1.7-3.8
		c3.2,6.1,11.2,7.5,13.9,14.1c1,3.1,1.1,6.3,0,9.4c-0.5,0.5-1.1,1-1.6,1.6C305.6,615.9,304.7,615.7,304,614.8z"/>
	<path class="st26" d="M364.8,604.3c-3.2-4.8,1.8-9.2,0.6-13.9c-0.6-1.8-0.6-3.4,1.6-3.9c1.7-0.4,2.6,0.6,2.9,2.2
		c0.4,1.9-0.4,4,1.1,5.6c1.1,0.4,2,1,1.5,2.4c0.4,0.3,0.4,0.6,0.2,1C372.1,602.3,369.3,604.3,364.8,604.3z"/>
	<path class="st27" d="M157.7,618.4c-1.1-12.2-0.7-24.5-0.2-36.7c1-0.7,1.8-0.5,2.4,0.5c0.3,1.4,0.3,2.8,0.1,4.2
		c-0.7,6.7-0.1,12.1,9,10.3c1.4-0.3,2.8,0.4,2.4,2.4c-3.4,0.1-6.7,0.2-10.1,0.2c-2.6,4.4-0.6,9.3-1.3,13.9
		C159.8,615.2,161.4,618.1,157.7,618.4z"/>
	<path class="st2" d="M123.9,478.5c-3.1-12.2-0.7-24.6-1.4-36.9c-0.2-3.2,0-6.4,0.1-9.5C125.3,447.4,123,463,123.9,478.5z"/>
	<path class="st28" d="M528.7,607.6c-3.3-7.8-3.4-15.5,1.2-22.9c1.3,0.2,1.4,1.4,2,2.3c-0.7,6.5-1.3,12.9-2,19.4
		C529.7,607,529.3,607.4,528.7,607.6z"/>
	<path class="st29" d="M171.5,599.2c-0.2-0.2-0.4-0.5-0.6-0.6c-12-2.8-12-2.8-11.6-16.8c5.1-1.4,10.3-1.3,15.4-0.1
		c-1.4,2.3-3.6,0.9-5.4,1.2c-3.6,0.6-8.6-2.2-8.7,5.5c-0.1,6.6,1.9,8.6,8.2,7.8c1.6-0.2,4.4-1.1,4.2,2.4c0,0.2-0.3,0.4-0.5,0.4
		C172,599.1,171.7,599.1,171.5,599.2z"/>
	<path class="st30" d="M17.5,436.5c0,11.9,0.1,23.9,0,35.8c0,2.7,1.2,6-2.2,7.8c0.2-14.5,0.3-29.1,0.5-43.6
		C16.3,435.7,16.9,435.7,17.5,436.5z"/>
	<path class="st31" d="M528.7,607.6c0.4-0.4,0.8-0.8,1.2-1.2c3.2,4.8,4,14.3,13.6,7.1c0.9-0.7,2.3-0.2,2.5,1.3
		c0.4,2.9-3.4,1.6-3.9,3.7c-2.7,1.4-5.5,1.3-8.2,0.1C528.9,616.3,528.1,612.3,528.7,607.6z"/>
	<path class="st19" d="M376.1,406.3c-3.1,8.6-0.9,17.6-1.6,26.4c-0.4,4.7,1.4,9.7-1.3,14.2c-2.1-12.3-0.5-24.7-0.9-37.1
		C372.1,407.1,374,406.5,376.1,406.3z"/>
	<path class="st21" d="M523.3,475c0-7,0-14,0-21c0.6-1,1.4-1,2.1-0.1c1.6,7.1,1.6,14.2,0.1,21.3C524.7,476,523.9,476,523.3,475z"/>
	<path class="st32" d="M270,618c0-12.1,0-24.1,0-36.2c0.3,0,0.6,0,0.9,0c0,12.1,0,24.2,0,36.3C270.5,618.1,270.3,618.1,270,618z"/>
	<path class="st15" d="M186,618.4c0-12,0-24.1,0-36.1c0.2,0,0.5,0,0.7,0c0,12,0,24.1,0,36.1C186.4,618.4,186.2,618.4,186,618.4z"/>
	<path class="st33" d="M91,579.9c-1.1,12.8,1.6,25.8-1.5,38.5c-0.2-12.1-0.4-24.3-0.5-36.4C89,580.7,89.6,579.9,91,579.9z"/>
	<path class="st34" d="M563.6,614.9c0.6-1.2,1.2-2.4,1.8-3.6c2.1,4.5,5.5,5.5,10,3.6c0.8,0.1,1.6,0.2,2.4,0.2
		C573.6,622.3,569.2,622.2,563.6,614.9z"/>
	<path class="st35" d="M371.1,594.3c-2.6-0.9-1.3-3.3-2-5c-0.4-1-0.9-2.3-2.1-1.7c-0.8,0.4-1,1.8-1.5,2.8c-0.9-1.1-1.9-2.3-2.8-3.4
		c1.3-2.9,1.6-7.3,6.3-5.9c3.7,1,2,4.7,2.3,7.3C371.4,590.3,371.2,592.3,371.1,594.3z"/>
	<path class="st36" d="M600.3,618.5c-4.4-1.5-3.5-5.5-4.5-9c4.4,3.9,7.9,10.9,14.6,3.5c1.9-0.4,2.9,0.1,2.3,2.2
		c-1.1,1.1-2.3,2.3-3.4,3.4C606.3,619.6,603.3,619.9,600.3,618.5z"/>
	<path class="st33" d="M292,586.9c0.1-4.8,2.1-7.3,7.4-7c4.1,0.2,7.3,0.7,7.2,6.9c-4.5-3-9.1-7.4-12.2,0.3
		C293.5,587.8,292.7,587.7,292,586.9z"/>
	<path class="st32" d="M95.9,582c0,9.8,0,19.5,0,29.3c-0.3,0-0.6,0-0.9,0c0-9.7,0-19.4,0-29.1C95.3,582.2,95.6,582.1,95.9,582z"/>
	<path class="st32" d="M348.1,448.3c-9.7,0-19.4,0-29.1,0c0-0.2,0-0.5,0-0.7c9.7,0,19.4,0,29.1,0
		C348.1,447.8,348.1,448.1,348.1,448.3z"/>
	<path class="st37" d="M558.7,611c0-9.7,0-19.5,0-29.2c0.3,0,0.6,0,0.9,0c0,9.8,0,19.5,0,29.3C559.3,611.1,559,611,558.7,611z"/>
	<path class="st17" d="M481.6,413.7c-4.6-5.7-1.3-12.2-2-18.3c-0.5-4.9-0.1-9.9-0.1-14.8c0.5-0.8,1-0.8,1.5,0
		C481.2,391.6,481.4,402.6,481.6,413.7z"/>
	<path class="st38" d="M304,614.8c0.8,0.1,1.7,0.2,2.5,0.3c-0.9,1.1-1.7,2.2-2.6,3.3c-2.8,1.6-5.7,1.1-8.6,0.2
		c-4.9-4.7-4.9-4.7-2.7-11.6C294,614.7,297,618.7,304,614.8z"/>
	<path class="st39" d="M148.7,420.7c0.6,0,1.2,0,1.8,0c1.8,10.1,0.5,20.3,0.7,30.5c-0.4,1.2-1.3,1.6-2.4,1
		C148.8,441.7,148.7,431.2,148.7,420.7z"/>
	<path class="st40" d="M428.3,615.2c0.8-0.1,1.7-0.2,2.5-0.3c5.5,4.1,8.6-1.6,13.4-3.2c-0.4,4.8-3.4,6.9-7,8.2
		C432.8,621.4,430.4,618.4,428.3,615.2z"/>
	<path class="st41" d="M462.2,424.3c3.4,9.2,0.7,18.6,1.6,27.9c-0.5,0.8-1.1,0.8-1.6,0C462.1,442.9,462.1,433.6,462.2,424.3z"/>
	<path class="st42" d="M393.8,406.7c0.6,0.4,1.3,0.9,1.9,1.3c-1.4,9,2.2,18.5-2.3,27.3c0,0,0,0,0,0
		C394.1,425.7,389.9,416.1,393.8,406.7z"/>
	<path class="st7" d="M294.2,377.1c-3.7-3.7-1.1-8.4-2-12.6c1.9-2.4,2.9-0.9,2.9,1C295,369.3,296.1,373.3,294.2,377.1z"/>
	<path class="st8" d="M462.1,452.2c0.5,0,1.1,0,1.6,0c-1.1,8.7,2.4,17.7-1.9,26.2C461.5,469.7,460.9,461,462.1,452.2z"/>
	<path class="st43" d="M604.2,582c-0.7-0.7-1.4-1.3-2.1-2c8.1-1.7,9.4-0.8,10,7.1C608.2,587.2,608.4,581,604.2,582z"/>
	<path class="st3" d="M208.2,415.5c0.6-1.2,1.2-2.4,1.8-3.6c3.2,7.9,2.9,15.9,0.2,23.8c-0.1-0.9-0.2-1.8-0.3-2.7
		C207.6,427.3,210.7,421.2,208.2,415.5z"/>
	<path class="st44" d="M434.6,582.1c-0.8-0.7-1.5-1.3-2.3-2c5.9-3.7,8.8,0.5,11.9,4.4C439.9,587.2,438.1,581.5,434.6,582.1z"/>
	<path class="st29" d="M157.7,618.4c2.7-3.6,0.8-7.7,1.4-11.5c0.4-2.6-1.3-5.9,2.3-7.5c-2,6.6,1.3,13.7-2,20.2
		c-0.1,0.1-0.7,0.2-0.8,0C158.2,619.3,158,618.8,157.7,618.4z"/>
	<path class="st45" d="M510.7,589.2c3.8,0.4,1.1,3.6,2.1,5.1c-0.2,3.2-1.5,5.4-5.2,5.2l-0.3-0.3c-0.6-0.6-0.9-1.3-1-2.1
		C507,594,507.2,590.6,510.7,589.2z"/>
	<path class="st46" d="M612.7,615.3c-0.8-0.7-1.5-1.5-2.3-2.2c0-2.7,0.1-5.3,0.1-8c0.1-0.9,0.3-1.9,0.4-2.8
		C617.5,605.8,614.9,610.6,612.7,615.3z"/>
	<path class="st47" d="M358.8,609.8c0.6,0.7,1.3,1.4,1.9,2.1c0.1,0.6,0.4,1.2,0.2,1.6c-1.1,2.1,1.2,7-3.4,6.1
		c-3.8-0.8-0.5-4.2-0.6-6.5C356.8,611.8,357.1,610.3,358.8,609.8z"/>
	<path class="st48" d="M535.4,579.7c1.8-1.5,3.9-1.4,5.5-0.2c1.8,1.4,5.2,3.3,4.1,5.3c-2.4,4.2-2.7-2.9-5.3-1.7
		c-1,0.4-2.6-0.5-3.9-0.7C534.9,581.6,534.8,580.7,535.4,579.7z"/>
	<path class="st19" d="M17.5,436.5c-0.6,0-1.2,0-1.8,0c-1.3-6.2-0.8-12.5-0.3-18.7c4.2,1.6,1.6,5.2,1.9,7.7
		C17.9,429.1,17.5,432.8,17.5,436.5z"/>
	<path class="st32" d="M503.6,475.5c0,5.7,0,11.3,0,17c-0.3,0-0.6,0-0.9,0c0-5.7,0-11.4,0-17.1C503,475.4,503.3,475.5,503.6,475.5z"
		/>
	<path class="st49" d="M496.9,618.8c1.8-5.8-2.7-12.5,2.8-17.7c-0.5,6-0.9,12-1.4,18c0,0.1-0.4,0.2-0.6,0.2
		C497.4,619.2,497.1,619,496.9,618.8z"/>
	<path class="st10" d="M174.6,581.7c-5.1,0-10.3,0-15.4,0.1c-0.6,0-1.2,0-1.7,0C163.2,577.9,168.9,578,174.6,581.7z"/>
	<path class="st27" d="M334.2,431.5c-5.3,2.4-10.5,2.7-15.7-0.2C323.7,431.3,329,431.4,334.2,431.5z"/>
	<path class="st50" d="M206.1,581.8c-5.1-0.7-10.5,1.6-15.3-1.5C196,579.7,201.4,576.9,206.1,581.8z"/>
	<path class="st21" d="M164.4,527.5c1.3,0.6,2.5,1.2,3.8,1.9c-0.5,1.8-1.9,1.9-3.5,1.8c-2.4-0.5-5.3,0.8-7.2-1.8
		C159.8,528.7,162.1,528.1,164.4,527.5z"/>
	<path class="st51" d="M477.7,525.7c0.6,1.1,1.1,2.2,1.7,3.3c-2.1,1.4-5.2,3.8-6.5,0.9C471.5,526.9,475.4,526.3,477.7,525.7z"/>
	<path class="st39" d="M150.5,480.3l-0.8,0l-0.8,0c0-4.7,0-9.3,0-14c1-0.6,1.9-0.4,2.4,0.7C151.1,471.4,152.2,475.9,150.5,480.3z"/>
	<path class="st37" d="M596.7,585.2c0,2.3,0,4.7,0,7C591.8,589.9,591.8,587.5,596.7,585.2z"/>
	<path class="st52" d="M428.7,606.2c-2.7-4.7-2.7-9.3,0-14C428.7,596.9,428.7,601.6,428.7,606.2z"/>
	<path class="st53" d="M150.5,466.3c-0.6,0-1.1,0-1.7,0c-0.9-4.7-1-9.3,0-14c0.6,0,1.1,0,1.7,0C151.9,456.9,151.9,461.6,150.5,466.3
		z"/>
	<path class="st54" d="M535.4,579.7c0.1,0.9,0.2,1.8,0.3,2.7c-1.3,1.5-2.6,3-3.9,4.5c-0.7-0.8-1.3-1.5-2-2.3
		C530.7,581.8,532.2,579.8,535.4,579.7z"/>
	<path class="st55" d="M509.1,580.3c-4.6-1-9.2-1.3-13.7,0.1C500,576.7,504.5,577,509.1,580.3z"/>
	<path class="st39" d="M654.1,399.6c1.8,0.8,3.6,1.6,6.7,3c-3.1,0.4-5.1,0.7-7.1,1C652.4,402.1,652.2,400.7,654.1,399.6z"/>
	<path class="st56" d="M292,586.9c0.8,0.1,1.6,0.1,2.3,0.2c0,1,0,2,0,2.9c-0.6,1.3-1.1,2.5-1.7,3.8
		C291.5,591.6,290.2,589.4,292,586.9z"/>
	<path class="st17" d="M194.3,599.4c3-3.2,6.9-1.1,10.3-1.8C201.8,601.4,197.7,598.8,194.3,599.4z"/>
	<path class="st57" d="M525.4,453.9c-0.7,0-1.4,0.1-2.1,0.1c0-3.5,0-7,0-10.5c0.7,0,1.4,0.1,2.2,0.1
		C525.4,447.1,525.4,450.5,525.4,453.9z"/>
	<path class="st10" d="M293.8,415.4c-2.2-3.6-2.6-7,0.4-10.4C294,408.5,293.9,412,293.8,415.4z"/>
	<path class="st58" d="M495,403.2c0.7,0.8,1.5,1.5,2.2,2.3c-0.8,1.5-1.7,2.9-3.7,2.8c-0.7-0.6-1.5-1.1-2.2-1.7
		C492,404.8,493.3,403.8,495,403.2z"/>
	<path class="st35" d="M33.5,406.2c-0.3,1.9-0.5,3.9-1,8c-1.1-5.2-1.8-8.1,0.5-10.9C33.2,404.3,33.3,405.3,33.5,406.2z"/>
	<path class="st41" d="M294.5,392.6c-3.5-3.3-3-6.8-0.4-10.4C294.2,385.7,294.3,389.2,294.5,392.6z"/>
	<path class="st50" d="M481,380.5c-0.5,0-1,0-1.5,0c0.8-2.8-1.9-6.4,1.8-8.6C481.2,374.8,481.1,377.6,481,380.5z"/>
	<path class="st2" d="M122.6,421.8c0.5-3.8-1.5-8,1.5-11.5C124.1,414.2,124.4,418.1,122.6,421.8z"/>
	<path class="st2" d="M124.2,494.1c0.2-3.2,1.9-4.9,5.2-5.1C129,492,127.2,493.6,124.2,494.1z"/>
	<path class="st59" d="M78.6,447c-2.4-2.9-2.3-5.7-0.1-8.6C78.6,441.2,78.6,444.1,78.6,447z"/>
	<path class="st21" d="M266,401.5c2.3,0,4.5,0,7.3,0c-2.4,2.9-5,1.1-7.1,1.7c-0.2-0.4-0.4-0.7-0.5-1.1
		C265.7,401.9,265.9,401.7,266,401.5z"/>
	<path class="st60" d="M304.5,604.5c2.7,2.9,2.6,5.8,0.2,8.7C304.6,610.3,304.6,607.4,304.5,604.5z"/>
	<path class="st60" d="M308.1,613.5c0-3.1,0-6.3,0-9.4C310.4,607.3,310.3,610.4,308.1,613.5z"/>
	<path class="st2" d="M99.7,394.4c0.4,1.3,1.7,2.5,0.3,3.9c-1.3,1.3-2.6,0-3.9-0.3C97.3,396.8,98.5,395.6,99.7,394.4z"/>
	<path class="st2" d="M122.6,432.3c0-3.6,0-7.2,0-10.8C123.9,425.1,123.8,428.7,122.6,432.3z"/>
	<path class="st19" d="M523.3,475c0.7,0,1.5,0.1,2.2,0.1c0.8,2.9,0.1,5.7-0.6,8.6C522.1,481.2,523.7,477.9,523.3,475z"/>
	<path class="st51" d="M33.6,427.6c-0.7,0-1.4,0.1-2,0.1c0.8-2.1-2-5.4,2-6.6C33.5,423.3,33.5,425.5,33.6,427.6z"/>
	<path class="st61" d="M295.4,618.7c2.9-0.1,5.7-0.2,8.6-0.2C301.2,621.1,298.3,620.8,295.4,618.7z"/>
	<path class="st62" d="M533.7,618.5c2.7,0,5.5,0,8.2-0.1C539.2,621.2,536.5,620.7,533.7,618.5z"/>
	<path class="st63" d="M600.3,618.5c3,0.1,6,0.1,9,0.2C606.2,621.1,603.2,620.9,600.3,618.5z"/>
	<path class="st18" d="M393.8,406.7c-0.1,9.5-0.3,19-0.4,28.6c-3.2-5.8-0.6-12.1-1.6-18c-1.8-2.9-1.8-5.8,0-8.7
		C392.6,408.2,390.6,404.5,393.8,406.7z"/>
	<path class="st64" d="M390.3,417.2c-2.6-2.9-2.6-5.8,0-8.7C391.5,411.4,391.6,414.3,390.3,417.2z"/>
	<path class="st8" d="M390.3,417.2c0-2.9,0-5.8,0-8.7c0.5,0,0.9,0,1.4,0c0,2.9,0,5.8,0,8.7C391.2,417.2,390.7,417.2,390.3,417.2z"/>
	<path class="st65" d="M61.2,480.2c0-21.6,0-43.2,0-64.7c1.6,1.1,1.8,2.8,1.8,4.6c0,18.5,0,37,0,55.5
		C63,477.4,62.8,479.1,61.2,480.2z"/>
	<path class="st5" d="M105.3,448.4c0-10.8,0-21.6,0-32.4C107.7,426.7,107.7,437.6,105.3,448.4z"/>
	<path class="st5" d="M105.3,462.3c0-3.2,0-6.5-0.1-9.7C107.6,455.8,107.6,459.1,105.3,462.3z"/>
	<path class="st66" d="M479,466.3c0,4,0,8.1,0,12.1c-0.3,0-0.6,0-0.8,0c0-4,0-8.1,0-12.1C478.5,466.3,478.7,466.3,479,466.3z"/>
	<path class="st66" d="M296.1,401.8c3.8,0,7.7,0,11.5,0c0,0.3,0,0.6,0,0.8c-3.8,0-7.7,0-11.5,0C296.1,402.4,296.1,402.1,296.1,401.8
		z"/>
	<path class="st67" d="M176.7,410.2c4.1-3.9,6.9-4.2,10.1,1.6c11.3,19.9,6,45.2-13.7,63.2c-1.4,0.9-2.8,1.8-5.2,3.4
		c0-19.8-0.1-38.8,0.1-57.9C168.1,415.1,174.9,414.5,176.7,410.2z"/>
	<path class="st68" d="M150.5,466.3c0-4.7,0-9.3,0-14c0-10.5,0-21,0-31.5c0.1-0.3,0-0.7,0.2-0.8c0.3-0.3,0.7-0.5,1.1-0.8
		c0.2,0.5,0.5,1,0.5,1.4c0,19.6,0,39.2,0,58.7c0,0.3-0.1,0.7-0.3,0.7c-0.5,0.1-1,0.1-1.4,0.2C150.5,475.6,150.5,470.9,150.5,466.3z"
		/>
	<path class="st7" d="M507.8,473.3c0.5-0.1,0.9-0.1,1.4-0.1c0,3.4,0,6.8,0,10.2c-0.5,0-0.9,0.1-1.4,0.1
		C507.8,480.1,507.8,476.7,507.8,473.3z"/>
	<path class="st68" d="M208.2,415.5c3.6,5.5,1,11.7,1.7,17.5C206.5,427.5,209,421.3,208.2,415.5z"/>
	<path class="st7" d="M332.1,443.1c-3.8,0-7.7,0-11.5,0c0-0.3,0-0.6,0-0.8c3.8,0,7.7,0,11.5,0C332.1,442.6,332.1,442.8,332.1,443.1z
		"/>
	<path class="st55" d="M510.7,589.2c-1.2,2.8-0.8,6.1-3.2,8.4c-2.9,0.8-5.9,1.7-8.7-0.5c0-2-0.3-4.1,0.1-6.1c0.6-3-2.5-7.6,3.2-8.5
		C507.1,581.8,509.5,584.8,510.7,589.2z"/>
	<path class="st69" d="M498.9,597.1c2.9,0.2,5.8,0.3,8.7,0.5c0,0.5,0,1-0.1,1.5C504.5,598.8,501,600.8,498.9,597.1z"/>
	<path class="st50" d="M191.9,595.2c-1.5-4.1-1.2-6.8,0-9.6C191.9,588.2,191.9,590.9,191.9,595.2z"/>
	<path class="st70" d="M364.8,604.3c4.8,0.4,6.5-3,8-6.6C373.6,604,370.1,605.3,364.8,604.3z"/>
</g>
</svg>
