<?xml version="1.0" encoding="utf-8"?>
<!-- Generator: Adobe Illustrator 21.1.0, SVG Export Plug-In . SVG Version: 6.00 Build 0)  -->
<svg version="1.1" id="Layer_1" xmlns="http://www.w3.org/2000/svg" xmlns:xlink="http://www.w3.org/1999/xlink" x="0px" y="0px"
	 viewBox="0 0 700 965" style="enable-background:new 0 0 700 965;" xml:space="preserve">
<style type="text/css">
	.st0{fill:#404040;}
	.st1{fill:#2B2700;}
	.st2{fill:#3E3E3E;}
	.st3{fill:#2A2700;}
	.st4{fill:#2D2D2C;}
	.st5{fill:#2B2A2A;}
	.st6{fill:#242423;}
	.st7{fill:#2C2C2C;}
	.st8{fill:#2A2929;}
	.st9{fill:#292928;}
	.st10{fill:#2D2D2D;}
	.st11{fill:#313130;}
	.st12{fill:#252524;}
	.st13{fill:#333332;}
	.st14{fill:#2E2E2D;}
	.st15{fill:#282828;}
	.st16{fill:#3C3C3B;}
	.st17{fill:#262625;}
	.st18{fill:#282826;}
	.st19{fill:#262624;}
	.st20{fill:#040303;}
	.st21{fill:#2F2F2F;}
	.st22{fill:#3B3B3B;}
	.st23{fill:#3F3F3F;}
	.st24{fill:#272727;}
	.st25{fill:#020202;}
	.st26{fill:#2B2B2B;}
	.st27{fill:#292927;}
	.st28{fill:#010000;}
</style>
<g>
	<path class="st0" d="M683.5,964.8c-9.5,0-19,0-28.6,0c-1.8-2.5-1.7-6.1-1.7-9.7c0-20.1,0-40.2,0-60.3c0-59,0.3-118-0.1-177
		c-1.4-234.9-0.2-469.9-0.6-704.8c0-4.5-0.6-9.3,1.7-12.8c9.7,0,19.5,0,29.2,0c1.2,1.9,1.8,4.3,1.7,7.2c0,2.1,0,4.2,0,6.3
		c0,312.5,0,625.1,0,937.6C685.2,956,685.9,961.1,683.5,964.8z"/>
	<path class="st0" d="M15.7,0.2c9.7,0,19.5,0,29.2,0c1.2,1.9,1.8,4.3,1.7,7.2c0,2.1,0,4.2,0,6.3c0,219.9,0.4,439.8-0.2,659.6
		c-0.3,93.7-0.1,187.4-0.5,281.1c0,3.8,0.2,7.6-1.7,10.3c-9.5,0-19,0-28.6,0c-1.2-1.9-1.8-4.3-1.7-7.2c0-1.9,0-3.8,0-5.6
		c0-313,0-625.9,0-938.9C14,8.6,13.4,3.7,15.7,0.2z"/>
	<path d="M654.3,0.2c0.1,4,0.2,7.9,0.2,11.9c0,216.7-0.2,433.5,0.1,650.2c0.1,98.3,0.1,196.6,0.2,295c0,2.5,0.1,5,0.2,7.5
		c-10,0-19.9,0-29.9,0c-1.9-2-2.4-5.1-2.3-8.9c0.2-7.3-0.3-14.7,1.2-21.7c0.3-1.5,0.1-3.3,0.1-5c0-57.8,0-115.5,0.1-173.3
		c0-4.3-1-8.1-1.1-12.3c-0.4-9.8-0.4-19.6,0.8-29.3c0-0.4,0-0.9,0.1-1.2c2.5-5.5,1.3-10.7-0.2-16c-0.4-5.2-0.5-10.3,0.2-15.4
		c0.7-4.2,0.6-10.9-0.2-16.5c-0.2-1.6,0-3.2,0.1-4.9c0.1-7.5-0.1-15-0.5-22.4c-1-3.4,0.8-4.7,1.5-6.7c1.5-3.7,2-7.1,0.3-11.2
		c-1.8-4.3-2-9.4-1.6-14.6c0.1-1.5,0.5-3,0.4-4.6c-0.3-3.2,1-4.9,1.9-6.9c3.4-7.8,3.4-14.1,0-22c-0.9-2.1-2.2-3.8-1.9-7
		c-0.6-15.8-0.8-31.5,0.1-47.3c0.2-2.5-0.8-4.8-0.3-7.3c-0.1-2.3,0.2-4.3,1.1-6.2c4.8-11.1,4.8-14.2,0-26c-0.6-1.6-1.1-3.1-1-5.1
		c-0.7-10.5-0.2-20.8,0.5-31.3c0.8-11.4,1.1-23.2-0.4-34.7c-0.9-6.7-0.9-13.7-0.4-20.5c0.5-7.2,0.1-14.3-0.5-21.4
		c0.3-0.9,0.6-1.8,1-2.6c5.3-12.4,5.3-16.1,1.2-29.8c-2.9-9.8-2.1-20.7-1.1-31.2c0.3-3.1,0.6-6.1,0.6-9.2c0-85,0-169.9-0.1-254.9
		c0-9.5-1.6-18.9-1.3-28.6c0.1-3.8,0.5-6.9,2.4-8.9C635.2,0.2,644.8,0.2,654.3,0.2z"/>
	<path d="M44.2,964.8c0.1-3.5,0.2-7.1,0.2-10.6c0-71.8-0.1-143.5,0-215.3C45.1,495.6,44.6,252.3,44.8,9c0-2.9,0.1-5.8,0.2-8.8
		c9.5,0,19,0,28.6,0c1.2,1.9,1.8,4.3,1.7,7.2c0,1.9,0,3.7,0,5.6c0,100.5,0,201,0,301.5c0,4.6,0.1,9.2-0.6,13.7
		c-0.1,2.9-1.5,3.5-2.5,4.5c-3.6,3.3-5.3,8.7-5.6,16c-0.1,3.5-0.1,7.1-0.1,10.6c0,70.4,0,140.8,0,211.2c0,2.9,0,5.8,0.1,8.8
		c0.1,8.2,1.9,14.5,6,18.2c0.9,0.8,1.9,1.4,2.1,3.6c0.3,2.8,0.6,5.6,0.5,8.5c0.1,3.6,0.1,7.1,0.1,10.7c0,110.8,0,221.6,0,332.3
		c0,4.3,0.5,8.9-1.7,12.2C63.7,964.8,54,964.8,44.2,964.8z"/>
	<path d="M538,964.8c-9.7,0-19.5,0-29.2,0c-1.9-2-2.4-5.1-2.3-8.9c0.2-7.3-0.3-14.6,1.2-21.7c0.4-1.7,0.1-3.7,0.1-5.6
		c0-76.8,0-153.6,0.1-230.4c0-4.5-1-8.5-1.2-12.9c-0.3-8.9-0.5-17.8,0.8-26.6c0.5-5.3,0-10.6-0.5-15.8c-0.9-20.1-0.8-40.2,0.6-60.2
		c0.1-3.7,1.7-5.2,3-7c2.3-3.3,4.8-6.3,6.8-10.3c2.4-4.8,3.6-10.2,2.3-16.7c-1.2-6.2-3.9-8.9-7.3-9.9c-6-1.7-6.6-2-5.9-13
		c1.8-31.9,1.1-63.8,1.3-95.8c0.1-9.2-1.8-18-1.4-27.3c0.3-9.9,0.7-11.1,5.9-11.8c3.3-0.5,5.9-3,7.3-8.8c1.4-5.8,0.6-11.1-1.4-15.9
		c-1.9-4.5-4.3-8.1-7-10.9c-3.4-3.6-4.7-9-4.7-15.8c0-6.7-0.3-13.4,1-19.8c0.4-2,0.3-4.1,0.3-6.2c0-92.7,0-185.5-0.1-278.2
		c0-8.7-1.6-17.2-1.3-26.1c0.1-3.7,0.4-6.9,2.4-8.8c9.5,0,19,0,28.6,0c1.7,1.9,2.4,4.5,2.4,8.3c-0.2,7.9,0.4,15.9-1.2,23.6
		c-0.4,1.8-0.2,3.7-0.2,5.6c0,85.4,0,170.8,0,256.1c0,8.5,1.7,16.7,1.3,25.4c-0.3,6.1-0.7,11.8-3,16.7c-1.8,3.9-2.6,8.8-2.9,13.9
		c-0.2,3.8-0.2,7.5-0.2,11.3c0,69.3,0,138.5,0,207.8c0,10.5,0.4,20.5,4.6,28.6c1.1,2.1,1,5.3,1.2,8.1c0.3,11.2,0.4,22.2-0.9,33.4
		c-1.5,12.5,1.7,25,1.2,37.7c-0.1,3.3,0.1,6.6-0.1,9.9c0,2.5-0.8,5-0.1,7.5c0.8,3.1-0.7,4.2-1.7,5.2c-4.2,4.7-8.7,4.7-12.9,0.6
		c-4.1-4-6.9-10.3-7-19.3c-0.1-15,0-30.1-0.1-45.1c0-3.1,0.5-8.3-1.7-8.2c-2.2,0-1.6,5.2-1.6,8.4c-0.1,13.8-0.2,27.6,0,41.4
		c0.2,21.2,8.2,33.8,19.6,31.5c1.7-0.3,3.9-2.7,4.9,2.6c1.4,12.6,2.1,25.1,0.2,37.7c-0.3,2.1-0.2,4.1-0.2,6.2
		c0,57.5-0.1,114.9,0.1,172.4c0,9.5,1.6,18.9,1.3,28.5C540.2,959.7,539.8,962.8,538,964.8z"/>
	<path class="st1" d="M216.3,0.2c0.2,0,0.5,0,0.7,0c1.2,1.7,1.7,4,1.7,6.8c0,2.9,0,5.9,0,8.8c0,136.7,0,273.5,0,410.2
		c0,0.8-0.1,1.6,0.1,2.3c7.1-25.7,14.6-51,21.8-76.6c1.5-5.2,2.8-10.5,3.5-16.3c1.9-2.2,3.5-5.2,5.4-7.4c5.3-6.4,12.1-3.3,16,7.2
		c2.9,7.9,5.1,16.6,7.4,25.2c0.7,2.4,1.3,3.7,2.7,3.4c1.4,8.2,2.5,16.6,4.8,24.3c7,23.4,13.5,47.3,20.5,70.8
		c1.4,4.7,1.7,10.6,4.4,14c1,6.2,2.9,11.7,4.5,17.4c6.9,24.1,13.8,48.2,20.7,72.3c0.6,2.2,1,5.5,3.1,4.5c2.9-4.4,6.1-6.4,9.9-6.3
		c4.8,0.1,6.3-2.8,6.4-11.7c0.2-13,0.1-25.9,0.1-38.9c0-40.8,0-81.6,0-122.4c0-2.9,0.1-5.9-0.1-8.8c-0.3-6.8-1.6-9.6-5.3-9.9
		c-4.1-0.4-8.1-1-11-7.3c-0.3-0.7-1-0.8-1.6-1c-0.7-0.6-0.8-1.8-1-2.9c-1.2-8.4-1.3-16.7,0.9-24.6c4.7-8.5,10.5-8.9,16.5-8.4
		c4.5,0.4,9-0.2,13.5,0.3c6.6-0.5,13.3-0.6,19.9-0.1c3.6,0.3,7.2,0.6,10.9,0.5c1,10.3,2.1,20.7,0.5,31.1c-3.5,6.9-7.2,12.7-13,12.4
		c-5-0.3-6.5,2.8-6.5,12.1c-0.2,21.9,0,43.9-0.1,65.8c0,32.8,0,65.6,0,98.4c0,4.2,0,8.4,0.9,12.3c0.5,2.4,1.2,4,2.8,2.8
		c2.2-0.4,4.4,0.3,6.6,0.7c2.8,0.5,5.1,2.8,6.8,7.3c1.3,1.2,2.7,2.1,2.7,5.4c1.1,7.7,0.8,15.3-0.6,22.8c-1.2,1-2.3,1.8-3.3,3.5
		c-1.9,3.3-4.4,4.8-7.1,4.7c-6.7-0.1-13.3,0.2-20-0.2c-6.9,0.4-13.7,0-20.6,0.2c-3.4,0.1-6.1-3.2-8.8-6.1c-1.6-0.3-2.8,1.4-4,2.7
		c-3.2,3.3-6.5,5.1-9.9,1c-1.6-1.9-3.7,1-4.9-2.5c-3.3-10.5-6.6-21.1-9-32.4c-0.5-2.3-1.5-1.7-2.3-2.6c-1.8-13.1-5.6-24.5-9.1-36.1
		c-1.4-4.5-2.7-5.1-4-1.3c-4.7,13.4-10.5,25.6-13.7,40.8c-1.5,0.8-2.3,2.4-3.1,5c-2.5,8.5-5.2,16.7-8.7,23.8
		c-5.1,10.1-11.3,10.2-16.5,0.2c-1-2-2.2-3.1-3.5-4c-2.3-11.1-6.4-20.1-9.9-29.8c-4.3-11.8-8.6-23.5-12.9-35.3
		c-1.7-4.5-2.1-4.3-3.6,0.4c-2.6,2.2-3.2,7.1-4.3,11.3c-4.6,17.2-9.5,34.1-14.4,51.1c-2.8,9.9-7.1,14.9-13.3,12.9
		c-8.2-4-11.6-17.6-8.1-31.8c0.6-2.3,1.1-4.7,1.8-6.8c5-13.9,5.9-29.1,5.9-45.5c-0.2-169.3-0.1-338.5-0.1-507.8
		c0-4.3-0.5-8.9,1.7-12.2c0.2,0,0.5,0,0.7,0c1.2,1.9,1.8,4.3,1.7,7.3c-0.1,3.1,0,6.3,0,9.4c0,168.4,0,336.9,0,505.3
		c0,2.3-0.1,4.6,0.2,7.3c3.7-11.1,6.5-22.8,9.8-33.9c4.5-15.2,8.8-30.7,13.1-46.1c1.2-4.3,1.9-9,2-13.8c0.1-4.2,0.1-8.4,0.1-12.6
		c0-137,0-274.1,0-411.1C214.6,7.8,214.1,3.3,216.3,0.2z"/>
	<path d="M187.1,0.2c0,177.4,0,354.7,0.1,532.1c0,9.7-0.7,18.6-3.6,26.8c-1.2,3.5-2.1,7.4-3.2,11.1c-4.4,15.6-2.2,25.7,6.8,31.6
		c2.2,3,2.1,7.6,2.2,11.7c0.1,8.1,0.6,16.3-1.1,24.2c-0.4,1.8-0.2,3.7-0.2,5.6c0,94.5-0.1,188.9,0.1,283.4c0,9.7,1.6,19.3,1.3,29.2
		c-0.1,3.8-0.6,6.9-2.4,8.9c-9.7,0-19.5,0-29.2,0c-1.6-2.4-1.7-5.6-1.7-9.1c0-16.7,0-33.5,0-50.2c0-72.8,0-145.6,0-218.4
		c0-25.8,0.1-51.6,0.1-77.5c0-3.2,0.4-6.1,0.6-9.2c1.4-2.6,3.2-1.5,4.8-1.7c6.3-0.7,8.4-4.4,8.7-16.3c0.1-2.5,0.1-5,0.1-7.5
		c0-71.9,0-143.9,0-215.8c0-4,0.1-8-0.2-11.9c-0.7-9.5-3.6-14.4-8.8-15.2c-4.3-0.6-5-2.3-5.3-10.4c-0.3-9.7,1.3-19.1,1.3-28.6
		c0.1-85.3,0.1-170.6,0-256c0-9.3-1.7-18.4-1.3-27.9c0.1-3.8,0.5-6.9,2.4-8.9C168,0.2,177.5,0.2,187.1,0.2z"/>
	<path class="st1" d="M158.5,0.2c0,33.3-0.1,66.5-0.1,99.8c0,72.8,0,145.6,0,218.4c0,8.9,0,8.9,4.8,9.9c5,1,8.5,7.8,8.8,17
		c0.1,2.5,0.1,5,0.1,7.5c0,75.7,0,151.4,0,227.2c0,2.5,0,5,0,7.5c-0.3,10.4-2.3,14.1-8,14.3c-2,0.1-4.1,0.1-6.1,0.2
		c-1.2,2.4-2.8,3-4.5,3c-8.2-0.1-16.5,0.1-24.7-0.1c-9.8,0.2-19.6,0.3-29.4-0.1c-7.1,0.4-14.3,0.2-21.4,0.2c-1.7,0-3.3-0.3-4.4-3.1
		c-7.1-4.7-8.8-9.3-8.8-23.2c0-75.6,0-151.3,0-226.9c0-14.7,1.4-18.4,8.8-23.8c2.5-3.8,5-3.5,7.8,0.9c3.4,5.3,5.9,12.2,8.4,18.8
		c1.5,3.9,2.9,8,4.4,12c0.6,1.6,1.2,4.3,2.5,3.4c1.2-0.8,0.9-3.6,1-5.6c0.1-2.3,0-4.6,0-6.9c0-112.8,0-225.6,0-338.5
		c0-4.1-0.6-8.7,1.7-11.8c0.2,0,0.5,0,0.7,0c1.1,1.8,1.7,3.9,1.7,6.7c0,2.9,0,5.9,0,8.8c0,115.7,0.1,231.4-0.1,347
		c0,13,1.8,23.9,6,34.3c5.2,12.9,10,26.4,14.8,39.8c1.1,3.1,2.2,6.2,3.8,9.1c0.9-3.4,0.6-6.3,0.6-9.1c0-141.6,0-283.2,0-424.9
		c0-4.1-0.5-8.6,1.7-11.7c0.2,0,0.5,0,0.7,0c1.2,1.9,1.8,4.3,1.7,7.3c-0.1,2.9,0,5.9,0,8.8c0,141.2,0.1,282.4-0.1,423.6
		c0,13.2,1.6,24.6,6,35c3.2,7.6,5.9,15.8,8.9,23.7c0.9,2.3,1.7,5.9,3.5,5c1.9-1,1.4-4.8,1.4-7.6c0.1-27,0-54,0-81
		c0-22.6,0-45.2,0-67.8c0-5,0.5-9.7,2.2-13.5c2.6-5.9,3.3-12.6,3.3-19.9c0-26.4,0-52.7,0-79.1c0-74.5,0-149,0-223.4
		c0-4-0.4-8.2,1.7-11.1C158,0.2,158.3,0.2,158.5,0.2z"/>
	<path class="st1" d="M537.6,604.9c-0.2-2.5-0.3-5.1-1.5-6.9c-3.6-5.8-4.2-13.5-4.2-21.7c0-35.8,0-71.6,0-107.4
		c0-38.3,0-76.6,0-114.9c0-8.6,0.5-16.7,4.2-22.9c1.6-2.7,1.2-6.6,1.2-10.1c0-42.1,0-84.1,0-126.2c0-64.9,0-129.8-0.1-194.6
		c0.2,0,0.5,0,0.7,0c1.2,1.9,1.8,4.2,1.7,7.2c-0.1,2.7,0,5.4,0,8.2c0,96,0,192,0,288.1c0,20.8,0.2,21.3,11.7,21.3
		c2.4,0,4.8,0.2,7.1-0.1c4.5-0.5,6-3.4,6.3-11.7c0.1-3.3,0.1-6.7,0.1-10c0-97.1,0-194.1,0-291.2c0-4.1-0.4-8.5,1.7-11.5
		c0.2,0,0.5,0,0.7,0c1.2,1.9,1.8,4.2,1.7,7.2c-0.1,2.7,0,5.4,0,8.2c0,96,0,192,0,288c0,20.6,0.4,21.4,11.7,21.4
		c2.6,0,5.2,0.2,7.8-0.2c3.6-0.7,5-3.4,5.5-9.8c0.2-3.7,0.2-7.5,0.2-11.3c0-97.2,0-194.5,0-291.7c0-4.1-0.4-8.5,1.7-11.5
		c0.2,0,0.5,0,0.7,0c1.2,1.9,1.8,4.2,1.7,7.2c-0.1,2.7,0,5.4,0,8.2c0,96.4,0,192.9,0,289.3c0,18.7,0.7,20,10.8,20
		c2.9,0,5.9,0.3,8.8-0.2c3.6-0.6,5-3.2,5.4-9.8c0.2-3.5,0.1-7.1,0.1-10.7c0-97.5,0-195,0-292.5c0-4.1-0.4-8.5,1.7-11.5
		c0.2,0,0.5,0,0.7,0c0,64.8-0.1,129.7-0.1,194.5c0,41.8,0,83.7,0,125.5c0,5.6,0.5,10.4,2.5,15.1c3.4,8,3,16.8-0.5,24.6
		c-0.9,1.9-1.7,3.8-2.6,5.8c-1,5.6-3.1,9.8-5.3,13.9c-7.6,13.7-15,27.7-22.5,41.6c-0.8,0.3-1.6,0.2-2.3,1.8
		c-6.3,13.7-13.5,25.7-20.3,38.5c-0.4,0.8-0.8,1.5-1.2,2.3c-0.5,1.1-1.2,2.2-0.8,3.8c0.4,1.6,1.3,1.6,2.1,1.6
		c4.5,0.2,9.1,0.1,13.6,0.1c2.7,0,5.4,0.1,8.1,0.5c0.4,0,0.8-0.1,1.1-0.1c7.9-0.8,15.9-0.3,23.8-0.3c1.4,0,2.2,1.6,3.2,2.7
		c0.5,0.6,0.7,1.6,1,2.6c3.7,6.6,6,14,3.8,23.9c-0.9,4.2-2.9,6.8-4.4,10.2c-1.4,3.9-3.5,4.6-5.9,4.6c-7.5,0-15.1-0.1-22.6,0.1
		c-8-0.2-16.1-0.1-24.1-0.1c-1.8,0-3.6-0.3-5.3-0.8c-2.7,0.8-5.4,0.6-8.1,0.9c-3.4,0.4-4.7,2.7-4.9,8.8c-0.3,10.2-0.2,20.3,0,30.5
		c0,1.7,0.3,3.3,0.6,4.8c0.8,3.8,2,5.2,3.9,2.2c2.6,0.9,5.2,1.3,7.9,1.5c0.4,0,0.8,0,1.3,0c9.3-0.5,18.5-0.4,27.8,0
		c0.4,0,0.9,0,1.3,0c7.9-0.5,15.9-0.1,23.8-0.3c1.5,0,2.9,0.8,4,2.7c0.5,0.6,0.8,1.5,1,2.6c3.5,6.3,5.9,13.3,4.1,22.9
		c-0.9,4.8-3,7.7-4.7,11.3c-1.1,3.3-2.7,4.5-4.8,4.5c-7.9-0.1-15.7,0.1-23.6-0.1c-9.9,0.1-19.8,0.4-29.7-0.2
		c-8.8,0.1-17.6,1.3-26.3-0.6C539.5,603.8,538.7,606.3,537.6,604.9z"/>
	<path class="st0" d="M333.3,335.5c-2,6.9-1.7,14-0.7,21.3c3.3,9.7,2.7,20,1.3,30.3c-0.3,2.3-0.4,4.5-0.4,6.8
		c0,43.1-0.1,86.2,0.1,129.4c0,8.5,1.7,16.8,1.3,25.4c-0.1,2.1-0.1,4.2-0.1,6.3c-0.1,2.8-0.7,4.7-2.1,5.7c-1.6,1.1-2.3-1-3.2-2.4
		c-0.6-1-1-2.2-1.4-3.6c-7.2-25.4-14.6-50.6-21.7-76.1c-0.9-3.3-1.1-7.4-3.2-9.5c-0.9-0.9-0.9-3.5-0.9-5.3c0-8.3-0.6-16.8,1-24.9
		c0.4-2,0.3-4.1,0.3-6.2c0-131.9,0-263.7-0.1-395.6c0-9.3-1.6-18.5-1.3-28c0.1-3.8,0.5-6.9,2.4-8.9c9.5,0,19,0,28.6,0
		c1.2,1.9,1.7,4.3,1.7,7.3c0,1.7,0,3.3,0,5c0,102.4,0,204.8,0,307.3C335,325.2,335,330.6,333.3,335.5z"/>
	<path d="M683.5,964.8c0-93.5,0.1-187,0.1-280.5c0-2.9,0-5.9,0-8.8c0-221.3,0-442.7,0-664c0-3.8-0.1-7.5-0.2-11.3
		c4.4,0,8.8,0.1,13.3-0.1c1.5-0.1,2,0.5,1.7,3.2c-0.1,0.8,0,1.7,0,2.5c0,317.8,0,635.5,0.1,953.3c0,4.7-0.6,6.1-3.1,5.8
		C691.5,964.4,687.5,964.8,683.5,964.8z"/>
	<path d="M391.5,595.3c0.5-7.1,1.4-14.1,0.2-21.2c-3.1-10.2-2.7-20.9-1.3-31.7c0.3-2.3,0.4-4.5,0.4-6.8c0-43.4,0-86.9,0-130.3
		c0-3-0.5-5.7-0.7-8.6c-1-13.8-1.2-27.5,1.5-40.9c1.7-9.5-0.1-19.1,0.1-28.6c-1.2-1.4-1.5-3.5-1.6-5.9c0-2.1,0-4.2,0-6.3
		c0-101.1,0-202.2,0-303.3c0-4.1-0.4-8.5,1.7-11.6c9.5,0,19,0,28.6,0c1.9,1.9,2.5,4.9,2.4,8.8c-0.2,7.5,0.3,15.1-1.2,22.3
		c-0.4,1.7-0.1,3.7-0.1,5.6c0,96.7,0,193.4,0,290.1c0,3.9,0.7,7.4,1,11c0.7,8,0.5,16.1-0.4,24.1c-0.4,3.4-2,5.5-3.2,7.9
		c-9.9,19-16.7,41.2-19.6,67.1c-4.4,40.5,0.3,77.2,13.8,110.1c1,2.3,2.1,4.4,3.4,6.1c0.7,0.8,1.6,1.5,1.5,3c-0.2,4.5,1.5,6.8,3,9
		c1.2,1.8,1.5,3.6,1.4,6.1c0.7,6.9,0.4,13.9,0.4,20.9c0,12.9,0,25.9,0,38.8c0,2.7,0.2,5.5-0.8,7.8c-2.6,3.1-4-1.7-5.1-3.9
		c-5.9-11.9-13-15.7-21.4-13.2c-1.6,0.4-3.4,0.2-4.9-2C388.9,611.4,389.3,603.2,391.5,595.3z"/>
	<path class="st0" d="M216.3,0.2c0,142.5-0.1,285,0,427.4c0,11-1.2,20.7-4.1,30.4c-7.5,25.3-14.6,51-21.9,76.6
		c-0.5,1.6-0.7,3.5-2,4.7c-1.2-2.6-0.7-5.9-0.7-8.8c0-64,0-128,0-192.1c0-108.8,0-217.6,0-326.4c0-4,0.1-7.9,0.2-11.9
		C197.3,0.2,206.8,0.2,216.3,0.2z"/>
	<path class="st0" d="M157.8,0.2c0,106.9,0,213.8,0,320.8c0,5.1-0.5,9.3-2.7,12.8c-2.5,4-2.8,9.7-2.8,15.5c0,48.5,0,97.1,0,145.6
		c0,4.8,0,9.6-0.1,14.4c0,1.9-0.1,4-1.4,4.5c-1,0.5-1.7-0.9-2.2-2.3c-6.2-16.6-12.3-33.1-18.4-49.7c-0.9-2.3-0.9-5.2-0.9-7.9
		c-0.1-8.4-0.1-16.7-0.1-25.1c0-139.8,0-279.5,0-419.3c0-3.1,0.1-6.3,0.1-9.4C138.8,0.2,148.3,0.2,157.8,0.2z"/>
	<path d="M15.7,0.2c0,3.8-0.1,7.5-0.1,11.3c0,220.5,0,441,0,661.5c0,93.7,0.2,187.4,0.2,281.1c0,3.6-0.1,7.1-0.1,10.7
		c-4.5,0-9.1,0-13.6,0c0-319.6,0-639.3-0.1-958.9c0-4.7,0.6-6.1,3.1-5.8C8.6,0.6,12.2,0.2,15.7,0.2z"/>
	<path class="st1" d="M415,556.6c-11.9-23.6-18.1-51.8-19.1-83.8c-1.2-41.4,6.4-76.7,22.2-106c1.5-2.9,2.4-6,2.3-10c0-2.5,0-5,0-7.5
		c0-112.5,0-225.1,0-337.6c0-3.8-0.1-7.5-0.1-11.3c0.2,0,0.5,0,0.7,0c1.2,1.9,1.8,4.3,1.7,7.3c-0.1,2.9,0,5.9,0,8.8
		c0,106.5,0,213,0,319.5c0,3.3-0.1,6.7,0.2,10c0.4,3.7,1.8,5.2,3.5,3.3c5.8-6.6,12-11.7,18.1-17.3c2-1.8,2.9-5.2,3.1-9.2
		c0.3-4,0.2-7.9,0.2-11.9c0-99.6,0-199.2,0-298.8c0-4.1-0.5-8.6,1.7-11.7c0.2,0,0.5,0,0.7,0c1.2,1.9,1.7,4.3,1.7,7.2
		c0,2.9,0,5.9,0,8.8c0,97.5,0,195.1,0,292.6c0,18.1,0.6,19.1,10.3,16.5c3.1-0.8,6.1-0.2,9.2-0.7c3.8-0.6,5.2-3.2,5.6-10.2
		c0.2-3.5,0.1-7.1,0.1-10.7c0-97.3,0-194.7,0-292c0-4.1-0.5-8.6,1.7-11.6c0.2,0,0.5,0,0.7,0c1.2,1.9,1.8,4.3,1.7,7.3
		c-0.1,2.7,0,5.4,0,8.2c0,94.1,0,188.3,0,282.4c0,2.9,0,5.9,0,8.8c0,17.7,0.3,18.3,9.4,22.8c3.7,1.8,7.3,4.6,10.9,7.3
		c3.4,2.5,4.6,1,4.9-5.6c0.1-2.9,0.1-5.9,0.1-8.8c0-103.6,0-207.1,0-310.7c0-4.1-0.5-8.6,1.7-11.7c0.2,0,0.5,0,0.7,0
		c0,113.2,0,226.5-0.1,339.7c0,5.6,0.8,9.5,3.5,12.5c2.7,3,5.1,6.9,7.4,11.1c3.1,5.8,3.6,12.6,2,19.7c-1.5,6.9-4.5,11.4-8.6,11.1
		c-3.7-0.3-4.3,2.7-4.3,8.6c0.1,40.6,0.1,81.2,0.1,121.8c0,9.6,0,9.6,5.1,10.6c3.9,0.8,6.5,5,7.8,11.5c1.3,6.4,1.1,12.8-1.5,18.3
		c-2.3,4.7-5,8.4-7.8,12.1c-1.4,1.8-2.7,3.9-4,5.8c-0.6,2.4-1.5,4.4-2.8,5.6c-8.4,7.9-17.1,13.9-26.6,14.8c-5.5,1.6-11,3-16.5,0.1
		c-2.3-5.4-5.9-4.4-8.9-6.3c-7-4.3-14.2-8.5-20.5-15.8c-5.5-6.3-10.8-13.2-15.6-21.2C416.6,558.8,415.8,557.7,415,556.6z"/>
	<path d="M274.6,565.6c3.3-13.4,8.4-24.8,12.7-37c4.9-14,4.6-14.4,8.7,0.6c1.9,6.9,3.9,13.7,5.9,20.5c1.2,4.1,2.1,8.3,2.3,13
		c1.5,5,1.6,10.4,1.6,15.9c0,118.2,0,236.4,0,354.6c0,7.9,0,15.9,0,23.8c0,3.1-0.4,5.8-1.7,7.9c-9.7,0-19.5,0-29.2,0
		c-1.8-2-2.4-5-2.4-8.9c0.2-7.9-0.4-15.9,1.2-23.6c0.4-1.7,0.1-3.7,0.1-5.6c0-101.2,0-202.4,0-303.6c0-3.2-0.5-6.2-0.7-9.2
		C272,597.7,272.2,581.5,274.6,565.6z"/>
	<path d="M304,475.2c-4.6-11.3-7.4-24.3-11-36.5c-5.3-17.7-10.2-35.8-15.4-53.6c-1.8-6-3-12.1-2.9-19c-1.2-1.4-1.3-3.6-1.5-5.9
		c-0.2-2.5-0.1-5-0.1-7.5c0-113.4,0-226.8,0-340.2c0-4.3-0.5-8.9,1.7-12.3c9.7,0,19.5,0,29.2,0c0.7,2.4,0.3,4.9,0.3,7.4
		c0,150.7,0,301.5,0,452.2c0,3.9-0.4,7.9,0.7,11.7C305.5,472.9,305.3,474.9,304,475.2z"/>
	<path d="M216.2,526.5c0.6-3.1,0.5-7.6,2.5-8.2c1.9-0.5,2.5,3.8,3.4,6.2c7.1,19.2,14.1,38.5,21.1,57.7c1,2.6,1.9,5.2,2.4,8.3
		c2.8,11.8,2.9,23.9,1.3,36.2c-0.3,2.3-0.4,4.5-0.4,6.8c0,97.9-0.1,195.9,0.1,293.8c0,9.5,1.5,18.9,1.3,28.6
		c-0.1,3.8-0.5,6.9-2.4,8.9c-9.7,0-19.5,0-29.2,0c-1.6-2.4-1.7-5.6-1.7-9.1c0-15.7,0-31.3,0-47c0-73.9,0-147.9,0-221.8
		c0.3-10.8-0.5-21.7,1.1-32.4c0.6-3.8-0.9-7.9-1-12.2c-0.3-14.8,0.3-29.6,0-44.5c-0.2-11.9-0.1-23.8,0-35.8c0-7.5,1.1-15,0.1-22.6
		C214.2,535,215.5,530.7,216.2,526.5z"/>
	<path d="M128.6,0.2c0,149.4,0,298.8,0,448.2c0,0.4,0,0.8,0,1.3c-0.1,1.8,0.4,4.4-0.7,5.1c-1.2,0.8-1.6-1.9-2.1-3.3
		c-4.7-12.4-9.3-24.8-13.9-37.2c-3.1-8.5-6.2-17-9.4-25.3c-1.9-4.8-2.6-9.9-2.6-15.8C99.9,272,99.9,171,99.9,69.9
		c0-23.2,0-46.5,0.1-69.7C109.5,0.2,119,0.2,128.6,0.2z"/>
	<path d="M245.7,335.9c-0.2,3.8-0.7,7.4-1.7,10.8c-8.3,29.1-16.5,58.2-24.8,87.2c-0.4,1.3-0.6,2.8-1.5,3.3c-1.1-1.5-0.7-3.8-0.7-5.7
		c0-142.5,0-285,0-427.5c0-1.3,0.1-2.5,0.1-3.8c9.5,0,19,0,28.6,0c1.2,1.9,1.8,4.3,1.7,7.2c0,1.3,0,2.5,0,3.7c0,104.3,0,208.7,0,313
		C247.2,328.3,247.5,332.6,245.7,335.9z"/>
	<path class="st0" d="M216.3,687.2c0,4-0.1,7.9-0.1,11.9c0,85,0,170,0,255c0,3.5,0.1,7.1,0.1,10.6c-9.5,0-19,0-28.6,0
		c-0.6-1.9-0.3-4.1-0.3-6.1c0-114.8,0-229.6,0-344.5c0-7.7,0-7.8,4.2-9.9c4-2,6.7-6.6,8.8-12.9c3.7-11.5,6.8-23.6,10.3-35.3
		c0.7-2.5,1.2-5.4,2.7-6.9c1.5-1.6,2.5-1,3,2.2c0.2,1.4,0.2,2.9,0.2,4.3c0,42.7,0,85.3,0,128C216.6,684.8,216.8,686.1,216.3,687.2z"
		/>
	<path d="M99.5,601.9c9.8,0,19.5,0,29.3,0c1.6,2.7,1.6,6.3,1.8,9.8c0.5,9.4,0.9,18.7-0.8,27.9c-0.4,2-0.2,4.1-0.2,6.2
		c0,94,0,188.1,0,282.1c0,9.3,1.7,18.4,1.3,27.9c-0.2,3.8-0.5,6.9-2.4,8.9c-9.7,0-19.5,0-29.2,0c-1.6-2.4-1.7-5.6-1.7-9.1
		c0-17.2,0-34.3,0-51.5c0-72,0-144,0-216c-0.2-13.5,0.3-26.9,1.3-40.3c0.6-8.8-1.6-17.4-1.4-26.5c0.1-5.2,1-10.4,0.4-15.8
		C97.7,604.1,98.7,602.9,99.5,601.9z"/>
	<path class="st0" d="M304,964.8c0.1-3.3,0.2-6.7,0.2-10c0-85.8,0-171.5,0-257.3c0-45-0.1-89.9-0.1-134.9c1.6,0.6,2,3.2,2.7,5.3
		c3.1,9.4,5.1,20,8.8,28.9c1.6,5.7,4.5,7.4,7.7,8.2c2.2,0.5,4.3-0.2,6.4-0.6c3.3-0.7,4.9,1.8,5.1,7.7c0.2,6.4,0.4,12.9-0.1,19.2
		c-0.3,3.1,1.4,6.2-0.1,9c-4.9,16.8-4.7,33.4-0.2,50.5c1.2,4.7,0.7,10.7,0.5,16c-2.8,73.1-0.5,146.2-1.2,219.4
		c-0.1,10,1.8,19.7,1.3,29.8c-0.2,3.8-0.5,6.9-2.4,8.9C323.1,964.8,313.6,964.8,304,964.8z"/>
	<path class="st0" d="M157.9,687.3c0,49.6-0.1,99.2-0.1,148.8c0,42.9,0,85.8,0,128.7c-9.5,0-19,0-28.6,0c-0.6-1.9-0.3-4.1-0.3-6.1
		c0-113.9,0-227.9,0-341.8c0-8.8,0.2-9.3,4.9-9.3c6.5-0.1,12.9-0.1,19.4,0c4.2,0.1,5,1.6,5,9c0,22,0,43.9,0,65.9
		C158.1,684,158.3,685.7,157.9,687.3z"/>
	<path class="st0" d="M274.1,964.8c-9.3,0-18.6,0-27.9,0c-0.6-1.9-0.3-4.1-0.3-6.1c0-118.2,0-236.4,0-354.6c0-2.3-0.7-5.7,0.7-6.8
		c1.4-1,2.3,2,3.3,3.6c4.7,6.9,11.6,6,16.1-2c1.8-3.2,3.1-7.1,4.8-10.6c0.7-1.4,1.3-3.2,2.5-2.3c1.1,0.9,1.1,3,1.1,4.9
		c0,1.3,0,2.5,0,3.8c0,121.1,0,242.2,0,363.4C274.4,960.3,274.8,962.6,274.1,964.8z"/>
	<path d="M463.2,600.5c5.4,2.8,10.8,0.2,16.2,0.2c2.3,3.3,1.8,8.1,2,12.5c0.2,5.2-0.9,10.5,0.1,15.7c-1,5.5-4,7.6-6.1,11.3
		c-1.3,2.3-3,3.8-4.1,6.5c-0.5,1.2-0.9,2.6-0.2,4c0.6,1,1.3,0.7,1.9,0.1c1.3-1.2,2.4-3.1,3.6-4.6c2.4-3.2,3.2-2.4,4.1,2.9
		c0.4,2.3,1.5,4.2,0.8,6.9c-0.4,5.4-0.3,10.9-0.3,16.3c0,93.4,0,186.9,0,280.3c0,4.3,0.5,8.9-1.7,12.2c-10,0-19.9,0-29.9,0
		c-1.8-2.5-1.7-6.1-1.7-9.7c0-21.8,0-43.5,0-65.3c0-45.8,0-91.7,0-137.5c0-12.3,0.1-24.7-0.2-37c0.6-4.5,2.2-6.7,4.5-8.2
		c7-4.4,11-13.6,11.2-27.6c0.3-15,0.1-30.1,0.1-45.2c0-0.8,0.1,0.2,0-0.6c-0.2-2.4,0.1-6-1.6-6c-1.7,0-1.6,3.6-1.6,6
		c-0.2,15.3-0.1,30.5-0.1,45.8c0,8.2-1.8,14.6-5.5,19c-4,4.8-6.5,2.5-6.7-6.3c-0.2-5.8-0.5-11.9,0.3-17.5
		c1.6-11.6,0.6-23.3,1.1-34.9c0.4-9.9-1.1-19.4-1.3-29.2c-0.1-3.1-0.2-6.3,0.1-9.4c0.4-5,2.1-7.1,4.5-5.3
		C456,598.5,459.9,597.1,463.2,600.5z"/>
	<path class="st0" d="M245.7,335.9c0-108.1,0-216.2,0-324.4c0-3.8-0.1-7.5-0.1-11.3c9.7,0,19.5,0,29.2,0c0,122-0.1,243.9-0.1,365.9
		c-2,0.2-2.7-2.4-3.5-5c-2.1-7.2-4.1-14.5-6.3-21.5c-4.1-12.8-10.5-14.9-16.8-5.7C247.3,335,246.7,336,245.7,335.9z"/>
	<path class="st0" d="M449.6,0.2c0.1,2.9,0.2,5.9,0.2,8.8c0,103.4,0,206.8,0,310.2c0,2.9,0,5.9-0.1,8.8c0,3.3-0.9,5.4-2.6,6.5
		c-8.5,5.2-16.3,12.6-23.3,23c-1.8,2.7-2.6,1.4-2.7-2.5c0-2.5,0-5,0-7.5c0-115.7,0-231.5,0-347.2C430.5,0.2,440.1,0.2,449.6,0.2z"/>
	<path d="M333.3,335.5c0-20.5-0.1-41-0.1-61.5c0-91.2,0-182.5,0-273.7c9.7,0,19.5,0,29.2,0c1.2,1.9,1.8,4.3,1.7,7.2c0,1.7,0,3.3,0,5
		c0,101.3,0,202.5,0,303.8c0,4.1,0.5,8.6-1.7,11.7c-6,0-11.9,0.4-17.9,0C340.3,327.7,336.5,329.6,333.3,335.5z"/>
	<path class="st0" d="M362.6,327.9c0-109.2,0-218.5,0-327.7c9.7,0,19.5,0,29.2,0c0,2.5-0.1,5-0.1,7.5c0,106.5,0,213,0,319.5
		c-0.3,6.1-1.5,7.5-4.3,3.3c-1.7-2.5-4-2.6-6.2-2.6C375,328,368.8,327.9,362.6,327.9z"/>
	<path class="st0" d="M508.1,0.2c0,3.1,0.1,6.3,0.1,9.4c0,107.9,0,215.9,0,323.8c0,12.1,0.8,14.4-6.2,7.7
		c-5.6-5.3-11.5-8.5-17.7-10.7c-4.5-1.6-4.7-2-4.7-11.4c0-82.4,0-164.8,0-247.3c0-23.8,0-47.7,0-71.5C489,0.2,498.5,0.2,508.1,0.2z"
		/>
	<path d="M566.7,601.9c9.9,0,19.8,0,29.7,0c1.4,1.8,1.8,4.3,1.5,7.4c-0.3,3-0.6,6-0.7,9.1c-0.7,24.2-0.2,48.4-0.4,72.5
		c0,6.7,0.3,13.3,1.3,19.8c0.1,2.8-0.6,5.6-0.1,8.4c0.2,2.3,0.1,4.6,0.1,6.9c0,75.9,0,151.9,0,227.8c0,3.9,0.3,8.1-1.7,10.9
		c-10,0-19.9,0-29.9,0c-1.9-2.7-1.7-6.6-1.7-10.3c0-27.8,0-55.7,0-83.5c0-43.3,0-86.6,0-130c0-7.3,0-14.6-0.3-22
		c0.7-10.9,0.1-21.9,0.5-32.8c0.7-3.5,1-7.1,3.8-7.2c3.1-0.1,6.2-2.3,8.4,4.5c1.9,5.9,4.1,11.5,6.2,17.2c0.6,1.5,1.1,3.1,2,4.3
		c0.5,0.6,1,1.1,1.6,0.6c0.7-0.7,0.7-2,0.6-3.3c-0.2-2.1-0.9-3.8-1.5-5.5c-1.8-5.2-3.8-10.4-5.6-15.7c-1.3-4-1.3-7.5,0.4-11.4
		c8.4-20.8,2.9-44.4-11-48.1c-1.5-0.4-3.6,1.2-4.1-3.6C565.4,612.4,564,606.7,566.7,601.9z"/>
	<path d="M478.8,0.2c0,33.5,0.1,67,0.1,100.4c0,72.2,0,144.4,0,216.6c0,11.1,0,11.2-5.9,10.8c-6.1-0.4-12.2,0.7-18.2,2.9
		c-4.2,1.5-4.5,1.1-4.5-6.8c0-39.1,0-78.3,0-117.4c0-68.8,0-137.7,0-206.5C459.8,0.2,469.3,0.2,478.8,0.2z"/>
	<path class="st0" d="M625,0.2c0,106.7,0,213.5,0.1,320.2c0,5.9-0.8,8.1-4.3,7.7c-6.7-0.6-13.4-0.4-20.1-0.2
		c-3.2,0.1-4.6-2.4-4.4-8.2c0.1-1.9,0-3.8,0-5.6c0-102.1,0-204.3,0-306.4c0-2.5,0.1-5,0.1-7.5C606,0.2,615.5,0.2,625,0.2z"/>
	<path class="st0" d="M566.6,0.2c0,29.1,0.1,58.2,0.1,87.3c0,74.9,0,149.9,0,224.8c0,3.1,0,6.3-0.1,9.4c0,4.1-1.1,6.2-3.3,6.2
		c-7.6,0-15.2,0.1-22.8,0.2c-1.8,0-2.5-1.5-2.5-4.5c0-1.3,0-2.5,0-3.8c0-105.5,0-211,0-316.5c0-1,0-2.1,0.1-3.1
		C547.5,0.2,557,0.2,566.6,0.2z"/>
	<path d="M595.8,0.2c0,106.3,0,212.6,0,318.9c0,7.9-0.5,8.9-4.6,8.9c-6.5,0.1-12.9,0.1-19.4,0c-4.1-0.1-4.6-1-4.6-8.9
		c0-20.5,0-41,0-61.5c0-85.8,0-171.6,0-257.3C576.8,0.2,586.3,0.2,595.8,0.2z"/>
	<path class="st0" d="M99.4,688.5c0,92.1,0,184.2,0,276.2c-8.6,0-17.2,0-25.8,0c0-116.4,0-232.7,0-349.1c0-2.1,0.1-4.2,0.1-6.3
		c0.9-2.6,2.3-3.3,3.9-3.1c6.4,0.5,12.8,1.3,19.2,1.4c2.8,0.1,2.9,3.9,2.9,7.6c0,11.7,0.1,23.4,0,35.1
		C99.5,663.1,100.1,675.9,99.4,688.5z"/>
	<path class="st0" d="M99.3,0.2c0,56.5,0.1,113,0.1,169.5c0,64.7,0,129.4-0.1,194c0,3.3,0.9,8.5-1.1,9.6c-1.8,0.9-2.7-4.3-3.7-7.1
		c-3.6-9.2-7-18.6-10.5-27.9c-2.5-6.8-5.8-11.1-10.5-10.5c0-109.2,0-218.5,0-327.7C82.1,0.2,90.7,0.2,99.3,0.2z"/>
	<path class="st0" d="M391.1,964.8c-9.3,0-18.6,0-27.9,0c-1.9-1.9-2.5-4.9-2.4-8.8c0.2-7.5-0.3-15.1,1.2-22.3
		c0.4-1.8,0.2-3.7,0.2-5.6c0-59.2,0.1-118.4-0.1-177.6c0-9.1-1.4-18-1.4-27.3c0-6.7,1-11.4,4.3-14.4c1.4-1.3,2.7-3.2,3.5-5.7
		c0.6-1.7,0.9-3.5,0.3-5.3c-0.7-2-1.7-1.6-2.7-1.3c-4.2,1.4-5,0.2-5.3-7.9c0-15.8,0-31.5,0-47.3c0.5-5.3,2.3-7.5,5-6
		c0.3,0.2,0.6,0.5,0.9,0.7c1,0.5,2.1,1.2,2.7-1c0.5-2.1-0.3-3.5-1.1-4.8c-1.1-1.8-2.3-3.4-3.7-4.2c-2-1.2-2.9-3.5-3.1-7.2
		c-1.1-4.4,0-7.1,2-9c1.5-1.4,3.1-2.2,4.8-2.2c6.9-0.2,13.7,0.9,20.5-1.6c1.9-0.7,2.4,1.4,2.5,4.2c0.1,2.9,0,5.8,0,8.7
		c0.8,3.7-0.6,5.2-2,6.7c-3.4,3.5-6.6,7.3-8.9,13.2c-8.4,21.1-5.5,50.1,6.5,64.1c2,2.4,4.3,4.1,5.4,8.5c1,2.8,1,5.9,1,9.1
		c0,63.9,0,127.8,0,191.7c0,5.4,0,10.9-1.1,16c-0.4,2-0.5,4.2-0.1,6.2c1.4,7.1,1,14.4,1.2,21.7C393.5,959.7,392.9,962.8,391.1,964.8
		z"/>
	<path class="st0" d="M479.5,964.8c0-91,0.1-182,0-273.1c0-13-0.2-25.9,0.1-38.9c0.8-2,0.9-5.3,2.2-5.9c2.6-1.1,4.4-0.1,4.8,5.5
		c1.1,14.1,0.5,28.2,0.7,42.3c0.1,5.5,0.2,10.8,2.2,15.3c1.1,4.5,2.4,3.5,3.7,0.4c1.7-4,2-8.8,2.1-13.6c0.2-10.2,0-20.5,0.1-30.8
		c0-2.5,0-5,0.5-7.4c1-4.8,3.3-6.8,5.7-4.2c1.7,1.8,3.3,3.9,5.1,5.4c1.1,0.9,1.5,2.9,1.7,5c0.1,1.4,0,2.9,0,4.4
		c0,96.5,0,193,0,289.4c0,2,0.3,4.2-0.3,6.1C498.5,964.8,489,964.8,479.5,964.8z"/>
	<path d="M421,964.8c-9.7,0-19.5,0-29.2,0c-0.7-2.2-0.3-4.5-0.3-6.8c0-80.2,0-160.3,0-240.5c0-9.1,0-8.7,5.1-8.1
		c8.1,1,15.2-3.1,20.7-14.8c1.1-2.3,2.2-5.6,4.4-3.8c2.6,6.1,1.4,13.2,1.5,19.9c-0.6,6.4-0.5,12.9-0.5,19.4c0,74.3,0,148.7,0,223
		C422.7,957.3,423.1,961.7,421,964.8z"/>
	<path d="M362.5,964.8c-9.7,0-19.5,0-29.2,0c-0.6-1.9-0.3-4.1-0.3-6.1c0-86.5,0-172.9,0-259.3c0-2.4-0.7-5.5,0.8-6.9
		c1.5-1.5,2.4,1.6,3.4,3.1c2.4,3.6,4.8,7,7.6,9.3c4.8,3.9,9.8,4.9,15,3c3.8-1.4,4-0.9,3.3,6c-0.2,2.1-0.1,4.2-0.1,6.3
		c0,79.3,0,158.7,0,238C362.8,960.3,363.2,962.6,362.5,964.8z"/>
	<path class="st0" d="M421,964.8c0-4.2,0.1-8.4,0.1-12.5c0-80.5,0-161.1,0-241.6c0.2-9.5,0-19.2,2.8-27.8c0.2-0.7,0.4-1.5,0.6-2.2
		c0.9-2.5,1.6-6.1,3.7-5.6c2.4,0.6,1.7,4.7,2,7.5c1.3,14.2,6.1,23.3,14.3,26.2c2.1,0.8,3.9,1.9,4.9,5.7c0.6,30.5,0.2,61.1,0.3,91.6
		c0.1,49.6,0,99.1,0,148.7c0,3.3-0.1,6.7-0.2,10C440.1,964.8,430.5,964.8,421,964.8z"/>
	<path class="st0" d="M566.6,718.6c0,82.1,0,164.1,0,246.2c-9.3,0-18.6,0-27.9,0c-0.6-1.9-0.3-4.1-0.3-6.1c0-77.6,0-155.2-0.1-232.8
		c0-5.7,1-9.1,3.7-11.5c3.2-2.7,5.7-7.5,8.5-11.4c1.1-1.6,2.2-2.3,3.5-1.5c2.6,0.5,2.3,6,4,8.1c0.4,4.2,1.3,6.1,3.9,4.1
		C565.4,711,565.6,711.5,566.6,718.6z"/>
	<path class="st2" d="M596.5,964.8c0-12.3-0.1-24.6-0.1-36.9c0-65.4,0-130.7,0-196.1c0-4.4,0.1-8.8,0.1-13.1
		c0.9-1.8,1.3-4.3,3.2-3.2c6.5,3.8,13.3,2.4,19.9,2.6c4.9,0.2,5.1,0.5,5.1,9.7c0,76.8,0,153.6,0,230.4c0,2.2,0.3,4.6-0.3,6.8
		C615.1,964.8,605.8,964.8,596.5,964.8z"/>
	<path class="st3" d="M362.5,964.8c0-81.8,0-163.5,0-245.3c0-8.7-0.1-8.8-4.8-7.7c-8,1.9-14.9-2.6-21-12.4c-0.9-1.4-1.5-4.6-2.9-3.3
		c-1.2,1.1-0.6,4.2-0.6,6.4c0,87.4,0,174.8,0,262.3c-0.2,0-0.5,0-0.7,0c0-2.1,0.1-4.2,0.1-6.3c0-85.1,0-170.2,0-255.4
		c0-7-0.5-13.5-2-20.1c-3.3-14.9-2-29.5,1.9-43.5c0.4-1.1,0.2-2.6,0.6-3.7c5-15.2,15.9-23.8,25.2-20.1c1.5,0.6,2.8,1.5,3.9,3.6
		c0.3,0.5,0.5,1,0.8,1.5c2.6,2.5,5.3,4.4,7.5,8.2c1.6,2.8,2.6,5.9,1.1,9.8c-1.3,3.4-3.3,3.4-5.1,1.5c-1.3-1.4-2.6-2.5-4.1-0.9
		c-0.4,0-0.9,0.2-1.3-0.2c-7.4-7-13.9-5-19.2,5.7c-5.1,10.3-5.8,24.9-1.8,36.5c3,8.9,7.5,13.9,13.1,14.8c2.9,0.5,5.7-0.3,7.4-5.6
		c0.5-1.5,1.1-1.9,1.9-1.7c0.4,4.5,1.5,5.7,3.6,2.7c1.6-2.2,3.4-2.6,5-0.1c1.6,2.6,1.3,5.9,0.6,9.2c-1,5-2.8,8.5-5.5,10.5
		c-2.3,1.7-3.3,4.8-3.3,9.3c0,4.2-0.1,8.4-0.1,12.5c0,74.6,0,149.1,0,223.7c0,2.7,0.1,5.4,0.2,8.1
		C363,964.8,362.7,964.8,362.5,964.8z"/>
	<path class="st4" d="M304,475.2c0-154.3-0.1-308.7-0.1-463c0-4,0.1-7.9,0.1-11.9c0.2,0,0.5,0,0.7,0c0,150.2,0.1,300.4-0.2,450.7
		c0,14.8,3.4,26,6.7,37.9c5.7,20.2,11.5,40.3,17.3,60.5c0.2,0.7,0.4,1.5,0.6,2.2c0.7,1.9,1,5.6,2.6,4.8c1.3-0.7,0.7-4.1,0.7-6.2
		c0-61.1,0-122.2,0-183.3c0-3.3,0-6.7,0.1-10c0.2,0.5,0.5,1.1,0.7,1.6c1.2,4.1,1.6,8.5,1.6,13.2c0,62.2,0,124.4,0,186.7
		c0,4.7-0.3,9.2-1.6,13.3c-2.6,2.9-2.9-1.8-3.5-4c-5.5-19-10.9-38-16.3-57.1C310.3,498.8,306.6,487.5,304,475.2z"/>
	<path class="st5" d="M274.1,964.8c0-120.3,0-240.6,0-360.8c0-3.6,0-7.1-0.1-10.7c0-1.2-0.1-2.7-0.9-3.1c-0.8-0.4-1.2,0.9-1.6,1.8
		c-1.3,3-2.4,6.1-3.7,8.9c-4.5,9.9-11.9,11-17.3,2.9c-1-1.5-1.8-4.8-3.3-3.6c-1.6,1.3-0.9,4.9-0.9,7.4c0,114.8,0,229.7,0,344.5
		c0,4.2,0,8.4-0.1,12.5c-0.2,0-0.5,0-0.7,0c0-35.7,0.1-71.5,0.1-107.2c0-80.5-0.1-160.9-0.2-241.4c0-8.6,0.1-17.1,0.2-25.7
		c0.7,1.3,1.5,2.5,2.2,3.9c5.1,10.1,11.7,9.7,16.2-1.4c2.6-6.3,4.8-13.1,7.2-19.7c1-2.7,2.2-5.2,3.3-7.8
		c0.7,40.6,0.3,81.2,0.3,121.8c0,6.7-0.1,13.4-0.1,20.1c0,85.8,0,171.6,0,257.4C274.6,964.8,274.3,964.8,274.1,964.8z"/>
	<path class="st6" d="M216.3,687.2c-0.1-41-0.1-82-0.2-122.9c0-2.7,0-5.4-0.1-8.2c0-1.4,0-3.2-0.9-3.7c-1.1-0.6-1.6,1.1-2.1,2.6
		c-2.3,7.7-4.5,15.5-6.7,23.2c-2.2,7.8-4.1,15.9-7.4,22.4c-2,3.9-4.4,6.8-7.3,7.2c-3.1,0.4-3.9,3.7-3.9,8.8c0,22.2,0,44.3,0,66.5
		c0,93.9,0,187.8,0,281.7c-0.2,0-0.5,0-0.7,0c0-92.3,0-184.6,0-276.9c0-28.7,0-57.3,0-86c4.9-0.2,8.3-4.3,10.5-12.3
		c4.6-16.5,9.3-32.9,13.9-49.3c1.4-4.8,2.6-9.7,4.6-13.8c1.4,51.5,0.4,103.1,0.6,154.6C216.8,683.1,216.5,685.2,216.3,687.2z"/>
	<path class="st7" d="M554.3,703.6c-2.5,0.8-4.2,4.1-6,6.9c-2,3.1-4,6.1-6.5,7.8c-2.2,1.5-3.2,4.4-3.1,8.7c0,0.8,0,1.7,0,2.5
		c0,78.4,0,156.9,0,235.3c-0.2,0-0.5,0-0.7,0c-0.1-2.7-0.1-5.4-0.1-8.1c0-81.9,0.1-163.8,0.1-245.7c-1-2.5,0-3.8,1-4.9
		c6.8-7.5,9-19,8.9-32.9c-0.1-14.6-0.1-29.2,0-43.8c0-2.8-0.3-6,1.3-7.9c2.9-2.1,4.2,3.5,6.4,4.4c0.5,2.8,0.4,5.8,0.4,8.7
		c0,20.5,0.1,41,0,61.4C555.9,698.6,556.8,702.5,554.3,703.6z"/>
	<path class="st8" d="M508.1,964.8c0-19.2-0.1-38.5-0.1-57.7c0-77.6,0-155.1,0.1-232.7c0-7.4-1.2-12.2-4.9-15.4
		c-4-3.5-5.8-2.1-6,6.1c-0.2,10-0.1,20.1-0.1,30.1c0,4.6-0.2,9.2-0.8,13.7c-0.6,3.8-1.6,7-3.9,7.9c-2.2,0.8-3.7-1.1-4.8-4.4
		c3.5-8.6,3.2-18.7,3.1-28.7c-0.1-12.7,0-25.5,0-38.2c0-2.1-0.1-4.2,0.4-6.2c0.6-2.6,1.9-3.5,3-2.2c5,6.1,10,12.4,14.4,20.1
		c0,12.8,0.1,25.5,0.1,38.3c0,87.1,0,174.1,0,261.2c0,2.7,0.1,5.4,0.2,8.1C508.5,964.8,508.3,964.8,508.1,964.8z"/>
	<path class="st9" d="M157.9,687.3c-0.1-21.9-0.1-43.9-0.2-65.8c0-9.9-0.5-10.8-5.8-10.9c-5.9-0.1-11.8-0.1-17.7,0
		c-4.3,0.1-4.9,1.2-4.9,9.2c0,26.3,0,52.7,0,79c0,84.9,0,169.8,0,254.6c0,3.8-0.1,7.5-0.1,11.3c-0.2,0-0.5,0-0.7,0
		c0.1-3.8,0.2-7.5,0.2-11.3c0-84.8,0-169.5,0-254.3c0-32.4,0-64.9,0-97.3c9.7,0,19.4,0,29.2,0c0.9,25.6,0.3,51.2,0.4,76.7
		C158.4,681.6,158.4,684.5,157.9,687.3z"/>
	<path class="st10" d="M624.4,964.8c0-77.7,0-155.5,0-233.2c0-9.5-0.5-10.6-5.6-10.4c-7.5,0.3-14.9-0.2-22.2-2.6c0-2.5,0-5,0-7.5
		c0.3-2.2,1.3-1.9,2.2-1.9c7.8,0,15.5-0.1,23.3,0.1c1.2,0,2.9-0.8,3.1,3.1c0.1,82.7,0.1,165.3,0.2,248c0,1.5-0.1,2.9-0.1,4.4
		C624.8,964.8,624.6,964.8,624.4,964.8z"/>
	<path class="st3" d="M421,691.9c-4.8,9.4-10,17.7-17.3,19.7c-2.6,0.7-5.2,1.2-7.8,0.2c-3.3-1.2-4.4,1.5-4.2,7.1c0,0.2,0,0.4,0,0.6
		c0,81.8,0,163.5,0.1,245.3c-0.2,0-0.5,0-0.7,0c0-84.9,0.3-169.8-0.2-254.7c-0.9-4.2,0-5.3,2.3-6.3c5.5-2.4,11.3-0.9,16.5-6.1
		c0.5-0.5,1.4-0.3,1.7-1.5c1.5-6.2,5.1-7,7.7-10.4c1.4-1.9,2.2-0.7,2.9,1.5C422.5,689.3,422.6,691.3,421,691.9z"/>
	<path class="st1" d="M625,712.4c-7.6,0-15.3,0-22.9-0.1c-1.9,0-3.8,0-5.7-1.2c-1.2-3.3-1.3-7-1.3-10.8c0-23.6,0-47.2,0-70.8
		c0-3.8,0.4-7.5,0.9-11.1c1.2-2.8,2.7-3.5,4.5-3.5c5.3,0.1,10.6,0,15.8,0c3.2,0,6.1-0.9,7.2-7.7c0.2-1.5,1-1.4,1.7-1.5
		c0.6,5.5,0.2,11.5,3,15.8c1.3,2.1,0.8,5.3-0.3,7.9c-1,2.4-2,4.9-3,7.4c-2.2,8.9-6.5,14.4-9.9,21.3c-0.7,1.5-2,2.8-1.5,5.1
		c0.5,2.4,1.9,1.8,3,1.8c2.5,0,5,0.6,7-3c0.8-1.5,1.4-0.5,2,0.5c0.2,2.1,0.5,3.9,1.3,5.5c3.2,6.4,2.7,9.8-1.7,12.8
		c-1.1,2.5-2.6,3.1-4.2,3.1c-3.2-0.1-6.3-0.1-9.5,0c-1.2,0-2.5,0.1-3.7,0.8c-1.5,0.9-2.7,2.5-2.7,5.7c0,3.3,1.3,4.7,2.8,5.4
		c2.8,1.2,5.6,0.5,8.4,0.8c3,0.2,6-1.1,8.8,1.9c1.8,1.6,3.9,2.7,3.7,7.5C628.7,710.1,627,711.8,625,712.4z"/>
	<path class="st11" d="M625.2,605.8c-0.3,12.4-0.3,12.4-7.2,12.4c-7.3,0-14.6,0.1-22,0.2c0.1-5.5,0.2-11,0.4-16.5
		c9.5-0.7,19.1,1.5,28.6-1.4C625,602.3,625.1,604,625.2,605.8z"/>
	<path class="st12" d="M596.6,472.2c-0.3,0-0.5,0.1-0.8,0.1c-1.4-1.5-1.7-4.1-1.7-6.7c0-12.5,0-25.1,0-37.6c0-3.8,1.1-6.6,2.2-9.5
		c9.3-18.2,18.9-35.7,28.7-52.9c1.4,36.3,0.4,72.7,0.6,109c-0.2-0.5-0.5-0.9-0.7-1.4c-1.7-2.1-1.6-5.4-1.6-8.6c0-19.4,0-38.8,0-58.2
		c0-2.3,0.1-4.6,0-6.9c-0.1-2.6,0.4-6-1.1-7.5c-1.7-1.7-3,1.3-4.1,3.2c-6.1,10.3-11.8,21.2-17.6,32.2c-1.8,3.5-2.4,7.9-2.4,12.7
		c-0.1,8.1,0,16.3,0,24.4C598.2,467.6,598.1,470.3,596.6,472.2z"/>
	<path class="st13" d="M625.1,698.5c-6.1,2.1-12.2,1.1-18.2,0.6c-2.3-0.2-4.6-0.9-4.5-7c0.2-6.6,1.7-10.7,4.8-10.9
		c5.3-0.4,10.6-0.2,15.9-0.3c0.7,0,1.4,0,2,0C625.1,686.9,625.1,692.7,625.1,698.5z"/>
	<path class="st14" d="M625.5,662.7c-0.4,3.2-1.3,5.4-3.2,5.4c-3.4,0-6.8,0.1-10.2-0.3c-1.7-0.2-3.6-1.8-1.7-5.5
		c4.7-8.8,9-18.3,14.4-25.5C625.1,645.5,625.3,654.1,625.5,662.7z"/>
	<path class="st15" d="M625.6,566.3c-0.2-0.4-0.4-0.9-0.6-1.3c-1.5-2-1.6-5-1.6-8c0-8.1,0.1-16.3-0.1-24.4
		c-0.2-8.6-1.6-11.3-6.2-11.6c-4.3-0.3-8.6-0.3-12.9,0c-4.4,0.3-5.8,3-6,11.2c-0.2,8.1,0,16.3-0.1,24.4c0,2.9-0.3,5.4-1.6,7.3
		c-0.3,0.1-0.5,0.1-0.8,0.2c-1.2-1.4-1.7-3.6-1.7-6c0-13.8-0.1-27.5,0-41.3c0-3,0.6-5.2,2.1-6.5c9.6-0.9,19.2,1.3,28.8-1.5
		C626.2,527.9,625.5,547.1,625.6,566.3z"/>
	<path class="st9" d="M99.4,688.5c0-22.3-0.1-44.6-0.1-66.9c0-10.1-0.5-10.8-6-11.1c-6.5-0.3-13.1-0.7-19.6-1.1
		c0-2.5-0.1-5.1-0.1-7.6c8.7,0,17.3,0,26,0.1c0.9,26.8,0.3,53.7,0.4,80.5C99.9,684.5,99.5,686.5,99.4,688.5z"/>
	<path class="st1" d="M549.6,623.1c0,16.5-0.4,33.1,0,49.5c0.4,17.6-3.1,30.4-11.7,38.3c-3.8,0.7-7.6,2.1-11.5,0.3
		c-8.2-3.9-13.6-16-13.7-31.7c-0.1-16.7,0-33.4,0-50.2c0-1.9,0-3.8,0.2-5.6c0.4-2.9,1.4-4.9,3.1-5c1.7-0.1,2.8,1.9,3.2,4.8
		c0.3,2.4,0.3,5,0.3,7.5c0,16.1,0,32.2,0.1,48.3c0,8.4,2.3,14.4,6.3,17.9c4.2,3.6,8.3,3.6,12.1-2.4c2.2-7.5,2.9-15.6,3-24
		c0.1-15.1,0-30.1,0.1-45.2c0.1-7,2.3-10.9,5.6-10.2C549.1,615.8,550,618.4,549.6,623.1z"/>
	<path class="st1" d="M508.5,657.2c-4.1-0.2-6.5-6.1-9.6-9.8c-1.8-2.2-3.4-7.5-5.6-5.4c-1.9,1.8-0.8,7.3-0.9,11.1
		c-0.1,16.3-0.1,32.5-0.1,48.8c0,6.1-1.2,10.1-4.8,10.5c-2.1-2.6-2.2-6.5-2.2-10.6c-0.1-14.4,0-28.8-0.3-43.2
		c-0.2-9.3-1.2-10.1-5.5-5.7c-0.3-3.7-1-5.6-3-2.4c-1.1,1.8-2.3,3.4-3.5,4.9c-1.7,2.2-3.4,2-4.8-1c-1.3-3-0.9-6,0.5-8.3
		c3.3-5.3,6.8-10.3,10.1-15.4c0.1-0.6,0.2-1.2,0.4-1.7c1.6-6.1,4.5-9.6,7.5-12.7c1.6-1.6,3.3-1.3,4.8,0.7
		c5.2,6.8,10.5,13.6,15.1,21.9c0.6,1.8,1.3,3.6,1.8,5.6C510.5,648.7,510.5,653,508.5,657.2z"/>
	<path class="st16" d="M549.6,623.1c-1.2-2.6-2.3-5.5-4.5-4.2c-2.3,1.4-2.5,5-2.5,8.7c0,16.5,0,33-0.1,49.5c0,7.1-0.6,13.9-4.5,17.7
		c0-2.4-0.1-4.9-0.1-7.3c-0.6-7.1-0.2-14.2-0.2-21.3c-0.1-18.2,0-36.4,0-54.6c0-6.4,0.8-7.6,4.2-6.7c6.6,1.8,13.3,2.8,19.9,2.6
		c4.5-0.1,5,1,5.1,9.5c0.1,2.1-0.1,4-1.4,3.9c-4.1-0.4-7.8,1.9-11.2,6C552.7,625.6,551.2,624.4,549.6,623.1z"/>
	<path class="st17" d="M508.6,644.3c-0.9-1.2-1.7-2.4-2.6-3.6c0.7-11.2,0.4-22.4,0.2-33.7c-0.1-5.6-1.3-7.2-4.2-5.4
		c-5.4,3.4-10.9,6.8-16.6,8.6c-2.7,0.9-4.1,4.1-4.2,9.1c-0.1,3.5-0.7,6.6-1.7,9.5c-0.2,0.5-0.4,1.1-0.6,1.6
		c-0.2-10,0.1-19.9,0.4-29.8c9.3-2.8,18.2-7.6,26.5-16c0.8-0.8,1.7-1.1,2.5-1.7C509,603.4,508.7,623.9,508.6,644.3z"/>
	<path class="st7" d="M566.4,617.8c0.1-5-1.4-7.1-4-7.1c-7.2,0-14.4,0.1-21.6-2.8c-2.5-1-2.8,2.5-2.8,5.8c0,11.3,0,22.5-0.1,33.8
		c0,13.3-0.1,26.7-0.1,40c-0.2-2.1-0.4-4.1-0.4-6.2c0-25.4,0.1-50.9,0.1-76.4c0.5-2.8,1.6-3.5,3.1-3.5c8.7,0.3,17.3,0.3,26,0.5
		c0.1,5.4,0.3,10.7,0.4,16.1C566.8,618.5,566.6,618.4,566.4,617.8z"/>
	<path d="M333.4,571.5c0-71,0-142.1,0-213.1c3.7,6.7,8.3,7.6,13.2,7.4c4.6-0.2,5.1,0.8,5.1,9.3c0,59.8,0,119.6,0,179.4
		c0,9.1-0.4,10-5.6,9.7C341.4,563.8,336.9,564.5,333.4,571.5z"/>
	<path class="st0" d="M274.8,494.9c-5.2,16.5-11.2,32.1-17.1,47.9c-1.7,2.6-2.9,1.2-4-1.7c-3.1-7.9-5.9-16-8.8-24.2
		c-0.9-2.6-1.1-5.6-1.1-8.7c0.1-22-0.1-43.9,0-65.9c0-3.5-0.1-7.1,2.3-8.8c0.7-0.5,0.7-2.6,1-4c2-8.4,4-16.8,7.3-23.8
		c2.5-5.2,3.3-5,6,0c4.8,17,10.1,33.6,14.3,51.3C277.2,469.7,277.3,482.3,274.8,494.9z"/>
	<path class="st2" d="M389.8,570.1c-3.3-7-7.9-5.9-12.2-6.2c-1.6-1.4-2.3-3.6-2.5-7c-0.3-4.8-0.6-9.5-0.6-14.4
		c0-47.9,0-95.8,0-143.8c0-5.7,0.2-11.3,0.6-16.9c0.5-6,2.5-10.3,5.7-11.5c2.5-1,5.1-1.6,7.7-2.3c2-0.6,3,1.1,3,4.8c0,1,0,2.1,0,3.1
		c0,62.6,0,125.1-0.1,187.7C391.4,566.1,392.5,570,389.8,570.1z"/>
	<path class="st18" d="M389.8,570.1c1.3-2.5,1.3-5.7,1.3-8.8c0-60.6,0-121.2,0-181.8c0-7.9-0.6-8.2-4.9-7.2
		c-9.3,2.1-9.7,3.6-9.8,21.4c-0.4,50.8-0.2,101.6-0.1,152.4c0,6,0.5,12.1,1.3,18c-5,0.2-5.5-0.6-5.5-9.8c0-59.3,0-118.6,0-177.9
		c0-9.7,0.4-10.9,5.5-10.4c5.5,0.5,10.3-1.9,14-9.9c0.1,21.5,0.3,43,0.3,64.6c0,51.2-0.1,102.4-0.2,153.6
		C391,572.8,390.4,571.4,389.8,570.1z"/>
	<path d="M245.5,520.5c-5.8-12.1-10.1-26.2-14.9-39.5c-0.7-1.8-0.7-4-0.2-6c4.9-17.4,9.3-35.4,15.1-51.8c2.4,1.4,1.8,5.1,1.3,7.7
		c-1,5.3-0.9,10.7-0.9,16.2c0,23.3,0,46.7,0,70C245.9,518.1,246.2,519.5,245.5,520.5z"/>
	<path d="M362.4,620.5c-10.5-5.2-19.5-0.8-27.1,13.6c-0.5,1-1.2,1.9-1.8,2.8c-1.1-6.5-0.3-13.1-0.5-19.7c-0.2-4.7,0.1-9.3-1-13.9
		c-0.7-3.1-1-7,1.3-9.3c3.2,6,7.2,8,11.7,7.7c5.9-0.3,11.7,0,17.6,0c1.6,2.2,2.1,5,0.9,8.1C362.2,613.3,363.6,617.3,362.4,620.5z"/>
	<path class="st19" d="M245.5,520.5c0-32.5,0-64.9,0-97.4c2.2-10.6,5.3-20.2,8.1-30.2c1.1-3.9,2.3-3.3,3.4,0.2
		c1.2,4.2,2.8,8.1,3.5,12.8c-2.6-1.8-4.5,0.4-5.7,4.3c-2.7,8.7-5.4,17.4-7.9,26.3c-0.6,2.1-0.6,4.9-0.6,7.3c-0.1,22.3-0.2,44.7,0,67
		c0.1,12.7,5.4,20.6,9.1,29.9c0.5,1.2,1.6,1.4,2.4,2.1c-2.1,6-2.6,6.1-4.6,0.4C250.6,535.7,247.4,528.9,245.5,520.5z"/>
	<path class="st4" d="M362.4,620.5c0.1-6.2,0.1-12.4,0.2-18.5c5,0,9.9-0.6,14.9,0.1c5.2,0.8,9.7-2.4,14.1-6.8
		c0.1,8.1,0.2,16.1,0.3,24.2c0.3,0.5,0.3,1.1,0,1.6c-0.4,0.2-0.7,0-0.9-0.6c0-1.3,0-2.5,0-3.8c-0.1-7.4-0.3-7.7-4.3-6.7
		c-6,1.4-12,0.2-17.9,0.8c-4.5,0.4-5.2,1.8-5.5,10C362.9,620.6,362.6,620.5,362.4,620.5z"/>
	<path class="st9" d="M333.3,594.1c0.1,14.3,0.1,28.5,0.2,42.8c-0.3,0.9-0.5,1.7-0.8,2.6c0-8.3,0-16.6-0.1-24.9
		c-0.1-6.7-0.7-7.5-4.3-6.4c-6.1,1.9-10.6-2.2-12.6-11.5c6.1,6.9,9,6.6,14.9-1.7C331.4,593.8,332.2,592.7,333.3,594.1z"/>
	<path class="st20" d="M274.8,494.9c0-12.6,0-25.2-0.1-37.8c2.5,4.9,3.9,11.1,5.5,17c0.8,2.9,0.5,5.7-0.5,8.2
		C278.2,486.6,276.5,490.7,274.8,494.9z"/>
	<path d="M99.9,506.9c0-16.5,0-33,0-49.5c0-1.8-0.4-4.3,0.8-5c1.2-0.6,1.6,1.9,2.1,3.4c8,21.5,16.1,43,24.1,64.5
		c1.1,3,1.7,6.3,1.7,10c0,8.6-0.1,17.1,0,25.7c0.1,5.8-1.1,8.4-4.4,8.3c-6.6-0.2-13.1,0-19.7-0.1c-4-0.1-4.6-1.1-4.6-8.4
		C99.9,539.5,99.9,523.2,99.9,506.9C99.9,506.9,99.9,506.9,99.9,506.9z"/>
	<path class="st2" d="M99.3,452.5c0,32.6,0.1,65.3,0.1,97.9c0,13.9,0,13.9-7.5,13.5c-2.9-2.3-3.8-6.7-3.8-12.2c0-34.5,0-69,0-103.5
		c0-3.4,0.3-6.7,1-9.8c0.9-4.3,3.7-5.5,5.1-1.9C96.2,441.6,98.7,446.1,99.3,452.5z"/>
	<path class="st21" d="M99.3,452.5c-1.4-3.6-2.7-7.2-4.1-10.7c-0.7-1.8-1.6-3.9-3-3.3c-1.6,0.7-1.8,3.6-2,6
		c-0.2,2.9-0.3,5.8-0.3,8.7c0,31.1,0,62.1,0,93.2c0,6.2,0.5,12,2.1,17.5c-1.2,0-2.5,0.1-3.7,0c-1.9-0.1-2.9-2-3-5.5
		c0-1-0.1-2.1-0.1-3.1c0-43.9,0-87.8,0-131.8c0-1.9,0.1-3.8,0.3-5.6c0.5-2.9,1.6-3.9,2.7-1.2c3.8,9.3,7.5,18.8,10.7,29
		C99.4,447.8,99.4,450.2,99.3,452.5z"/>
	<path class="st22" d="M130.4,530c3.6,9.8,7.3,19.5,10.9,29.3c1.2,3.2,0.4,4.6-1.4,4.7c-2.6,0.1-5.2,0.1-7.8,0
		c-1.5-0.1-2.6-1.5-2.7-4.5c-0.3-9.7-0.2-19.4,0.1-29C129.7,530.3,130,530.2,130.4,530z"/>
	<path class="st23" d="M596.6,472.2c0-11.7,0-23.4-0.1-35.1c0-4.7,0.8-8.4,2.6-11.7c7.3-13,14.1-27,21.9-39.2
		c0.8-1.3,1.6-3.5,2.9-2.4c1.2,1.1,1,3.6,1,5.6c0,28,0,56,0,83.9C615.5,471.3,606.1,473,596.6,472.2z"/>
	<path d="M596.3,510.3c-0.8,17.9-0.2,35.8-0.4,53.8c-9.6,0-19.2,0-28.7,0c-1.8-1.8-2.2-4.7-2.2-8.2c0-14-0.2-28,0.5-41.9
		c0.1-2,0.9-2.4,1.3-3.6C576.6,510.2,586.4,510.3,596.3,510.3z"/>
	<path class="st2" d="M596.6,563.9c0-12.5,0-25.1-0.1-37.6c-0.1-6.1,1.4-8.7,4.7-8.6c6.3,0.2,12.7-0.1,19,0.1c4,0.1,4.7,1.5,4.7,9
		c0.1,12.7,0,25.5,0,38.2C615.5,563,606,564.8,596.6,563.9z"/>
	<path d="M596.3,418.6c-0.9,17.9-0.4,35.8-0.5,53.7c-8.3,0-16.7,0.1-25,0.1c-0.9,0-1.9,0.4-2.4-1.4c-0.5-1.7,0.3-2.7,0.8-3.7
		c8.5-15.6,16.9-31.2,25.4-46.7C595.1,419.7,595.8,419.2,596.3,418.6z"/>
	<path d="M567,365.8c8.1,0,16.3-0.1,24.4-0.1c0.9,0,1.9-0.4,2.5,1.3c0.6,1.9-0.4,3.1-1,4.2c-8.6,15.4-17.2,30.9-25.8,46.3
		c-1.5-0.8-2.2-2.5-2.2-5.4c0.1-13.2-0.7-26.4,0.4-39.6C565.6,369.9,566.1,367.6,567,365.8z"/>
	<path class="st22" d="M566.6,418.5c-2.6,6.5-6,11.4-8.9,17.3c-1.4,1.3-2.3,0.4-2.9-2.1c-0.6-2.3-0.8-4.8-0.8-7.3
		c0-13.4-0.1-26.8,0-40.2c0.1-11.1,2.8-16,8.7-17c2.5-0.4,4.2,1.7,4.1,6C566.8,389.7,567.3,404.1,566.6,418.5z"/>
	<path class="st2" d="M566.4,563.8c-2.7,0-5.3,0.1-8,0.1c-2.3-2-3.2-5.1-3.1-9.9c0.2-8.5-0.1-17.1,0.1-25.6
		c0.2-9.8,4.5-15.2,9.6-12.2c1.2,0.7,1.8,2.4,1.8,4.2C566.8,534.9,567.4,549.4,566.4,563.8z"/>
	<path class="st24" d="M566.6,418.5c0-12.1,0-24.3-0.1-36.4c0-3.7,0.3-7.9-2.4-9.2c-2.6-1.3-6.2,1.5-7.3,5.7
		c-0.8,3.1-1.1,6.4-1.1,9.8c0,12.1,0,24.3,0,36.4c0,4,0.2,8,1.9,11c-1.4,2.5-2.7,7.5-4.6,6.1c-1.7-1.2-0.7-6.4-0.8-9.9
		c-0.1-19-0.1-38.1,0-57.1c0-8.1,0.6-9.1,4.9-9.2c3.3-0.1,6.6,0,9.9,0c0.1,17.2,0.1,34.4,0.2,51.7
		C567,417.8,566.8,418.2,566.6,418.5z"/>
	<path class="st7" d="M566.4,563.8c0-12.1,0-24.2,0.1-36.3c0-4.3-0.3-8.1-3.3-8.4c-2.7-0.2-5.5,0.9-5.7,6.5
		c-0.5,12.8-1.6,25.8,1,38.4c-5.8,0.3-6.1-0.2-6.1-11c0-11.4,0.1-22.9,0-34.3c-0.1-6.2,1.3-8.7,4.6-8.5c3.3,0.2,6.5,0.1,9.8,0.1
		c0.8,17.9,0.3,35.9,0.4,53.8C566.9,564,566.6,563.9,566.4,563.8z"/>
	<path class="st1" d="M391,620.5c0.2,0,0.5,0,0.7,0c2.4,3.1,5,0.3,7.5,0.4c7.1,0.4,13.1,4.4,17.8,14.7c0.9,2.1,2.3,5.1,4.3,2.9
		c1.6-1.1,1.9,1.4,2.4,3.1c1.5,4.6,2,9.9,3.1,14c-0.2-9.8-0.2-20.4,0-30.9c0.1-5.1,2.4-9.2,4.9-9.6c2.6-0.4,4.1,1.8,5.2,7.7
		c-0.2,7.6,0.1,15.1,0,22.7c-0.1,8.8,0,17.5,0,26.3c0,5.3,0.5,10.3,1.6,15.3c1,4.5,2.4,7.3,5.2,6c2.7,1.2,3.7-1.5,4-6
		c0.2-3.3,0.1-6.7,0.1-10c0-21.8-0.1-43.5,0-65.3c0-8.1-1.4-13.2-5.8-16.2c-5.2-3.6-10.1-8.5-14.7-14.2c-2.5-3.1-4.8-6.6-6.3-11.4
		c-1.3-5.6-4.4-8.5-6.1-13.5c3.6,2.3,6.4,6.9,9.3,11c10.5,15,22.1,24.6,35.1,29.2c1.5,0.5,2.8,1.5,3.8,3.7c-3.2,0.3-6.3-0.9-9.4-2.2
		c-2.5-1-3.5,0.7-3.5,5.4c0,29.2,0,58.5,0,87.7c0,2-0.2,4.5,1.1,5.4c1.2,0.8,2.2-0.8,3.1-2c3-4.1,4-9.8,4-16.4c0-16.1,0-32.2,0-48.3
		c0-7.9,1.3-12.1,3.6-11.4c3.6,1.1,3.2,6.7,3.2,11.4c0,16.5,0.1,33,0,49.5c-0.1,14.8-4.2,25.4-11.7,30.4c-1.5,1-3.1,1.5-4,4.3
		c-1.8-0.7-3.5-1.4-5.3-2c-8.8-3-14.2-13.1-15.8-29.4c-0.1-1.2,0-2.6-0.9-3.5c-4,9-6.2,19.3-6.3,31.1c-0.1-6.2-0.1-12.4-0.2-18.7
		c-1.1-5.9-2.6-2.9-3.9-0.5c-3,5.6-6.1,10.8-10.4,13.3c-3.6,2.1-7.1,1.4-10.7,1.5c-2,0-3.8,0.7-5,3.9c-10.1-7.5-16.2-20.9-16.8-41.4
		C373.3,645.2,379.5,629.6,391,620.5z"/>
	<path class="st2" d="M435.4,623.1c-0.8-3.1-2-5.3-4-4.4c-2.2,1.1-2.9,4.3-2.9,8.2c-0.1,9.8-0.1,19.6-0.2,29.4
		c0,2.2,0.3,4.6-0.8,7.5c-3.3-7.5-3.7-17.2-6.4-24.6c-0.2-0.1-0.3-0.3-0.3-0.5c0-0.3,0.1-0.4,0.1-0.4c0-22.8,0-45.5,0.1-68.3
		c1.2,1.2,2.4,2.3,3.5,3.8c6.5,8.9,13.5,16.1,21.1,20.9c2.6,1.6,3.9,4.3,3.9,9.5c0,29.4,0,58.8-0.1,88.3c0,6.5-0.8,7.1-6,5.9
		c-4.1-5.7-5.5-13.2-5.2-22.6c0.3-10.4,0.1-20.9,0-31.3C438.2,636.9,437.5,629.7,435.4,623.1z"/>
	<path class="st3" d="M421,638.4c0.1,0.3,0.1,0.6,0.1,0.9c-1.6,2.9-3.2,1.8-4.4-0.9c-5.5-11.8-12.6-15.6-20.7-14.3
		c-1.8,0.3-3.4-0.2-4.3-3.6c0-0.4,0.1-0.7,0.1-1c3.6-0.1,7.1-1.7,10.8-0.8C410.4,620.4,415.9,628.6,421,638.4z"/>
	<path d="M450.1,372.1c8.4-6.9,17.2-7.2,26.2-6.2c1.6,0.2,2.7,1.7,3.3,4.5c0.6,1.6,1.1,3.2-0.2,4.5c-0.6,3.9-0.4,7.9-0.4,11.9
		c0,55.3,0,110.5,0,165.8c0,11.1-0.3,11.5-6.3,11.9c-6.2,0.4-12.2-0.4-18.1-3.9c-1.5-0.9-3.1-1.6-4.3-3.7c-1.9-2.6-2.2-6.2-2.3-10.4
		c-0.3-9.5,1.3-18.6,1.3-27.9c0.2-33,0-66.1,0.1-99.1c0-3.9-0.7-7.3-1-11c-0.8-10.2-0.3-20.4,0.4-30.6
		C448.8,375.5,449.7,374,450.1,372.1z"/>
	<path class="st0" d="M479.4,374.8c0.1-1.5,0.2-3,0.2-4.5c9.8,0,17.9,7.8,25.3,18.9c2.3,3.5,3.3,7.5,3.3,13c0,29.7,0,59.4,0,89.2
		c0,11.9-0.1,23.9,0.1,35.8c0.1,6.3-1.1,10.5-3.8,14.3c-5.8,8.3-12,15-19.1,18.9c-5.5,3-5.9,2.4-5.9-7.9c0-56.5,0-113,0-169.5
		C479.5,380.3,479.4,377.6,479.4,374.8z"/>
	<path class="st0" d="M449.4,556.4c-4.2-2.3-7.8-6.7-11.3-11.2c-5.2-8.4-10-17.7-13.1-29.1c-2.4-8.7-6.3-17.1-5.5-27.5
		c1-13.9-0.2-27.6-0.1-41.4c0-3.8-0.4-7.8,2.2-10.2c1-0.9,0.7-4.4,1.2-6.6c4.6-20.2,12.2-35.9,22.4-47c3.2-3.5,4.8-1.6,4.8,5.3
		c0,54.6,0,109.1,0,163.7C449.9,553.8,450.3,555.4,449.4,556.4z"/>
	<path class="st17" d="M449.4,556.4c0-54.6,0.1-109.2,0.1-163.8c0-7.8-1.3-8.9-5-4.7c-10.7,12.4-17.7,30.3-22.2,51.7
		c-0.4,1.9-0.6,4.1-0.6,6.1c-0.1,16.1-0.4,32.3,0.1,48.3c0.3,10.6,3.8,19.5,6.6,28.6c2.6,8.4,6.7,14.7,9.6,22.6
		c-7.9-10.3-14.1-22.9-17.2-40.2c-1.1-4.1-1.4-8.8-1.4-13.1c-0.3-18.5-0.5-37.1,0.1-55.6c0.1-3.9,0.4-8.1,1.4-11.8
		c2.3-14.4,7.5-25,13.3-34.7c4.6-7.8,9.9-13.9,15.8-17.8c0.3,61.5,0.3,123.1,0,184.6C449.9,556.6,449.7,556.5,449.4,556.4z"/>
	<path class="st25" d="M421,424.6c0,26.8,0,53.6-0.1,80.4c-0.9-1.6-1.5-3.6-1.9-5.8c-4.3-22.7-4.4-45.5-0.1-68.2
		C419.4,428.6,419.9,426.3,421,424.6z"/>
	<path class="st1" d="M566.4,617.8c0.2,0.1,0.4,0.2,0.7,0.2c2,0.4,4.1,0.4,6.1,1.3c14.1,6.1,16.3,34.8,10.1,49.5
		c-2.3,5.4-2.2,9.3-0.1,14.3c2.2,5.3,4.1,11.1,6,16.7c1.3,3.8,2,8.1-0.4,11.1c-2.4,2.9-4-0.5-5.3-3.9c-2.3-6.2-4.5-12.5-6.8-18.8
		c-2.7-7.5-5.5-8.5-10-3.7c-2.5,0.3-2.4,4.3-2.9,7.2c-0.5,3.2-0.3,6.6-0.3,9.9c0,2.1,0,4.1-0.4,6.1c-1.2,6.7-3.3,8-6.7,4.4
		c-1.3-2.4-2-5.2-2.2-8.5c0-25.6,0-51.1,0-76.7c0.3-6.1,2.1-8.9,5.4-8.8C561.9,618.2,564.2,617.9,566.4,617.8z"/>
	<path class="st26" d="M556.4,712.1c3.9-0.6,5-2.5,5.3-9.3c0.2-4.5,0-9.1,0.2-13.7c0.2-6.6,1.5-7.7,4.8-4.5
		c0,11.4-0.1,22.7-0.1,34.1c-0.9-2.3-1.9-3.4-3.4-2C560.1,719.4,558,716.8,556.4,712.1z"/>
	<path d="M362.7,688.8c0.1,6-1.6,8.9-4.7,10.1c-7.2,2.6-14.9-3.3-19.1-15.1c-4.1-11.4-3.8-27.5,0.5-38.3c4.8-11.8,12.7-16.8,19.8-13
		c2,1.1,3.1,3.1,3.4,6.8C362.5,655.7,362.3,672.2,362.7,688.8z"/>
	<path class="st27" d="M602,644.4c0-1.9,0-3.8,0-5.6c-0.1-5.5,1.3-8.1,4.3-7.9c2.4,0.1,4.7-0.1,7.1,0.1c2,0.2,2.5,2.1,1.1,4.8
		c-3.2,6.1-6.5,12.2-9.8,18.1c-1.5,2.6-2.5,1.6-2.6-2C601.9,649.4,602,646.9,602,644.4C602,644.4,602,644.4,602,644.4z"/>
	<path class="st2" d="M479.6,628.9c-0.1-22.9-0.6-19.7,10.1-23.8c4.8-1.8,9.4-4.9,13.9-8.4c3.4-2.6,4.3-1.5,4.4,5.2
		c0.1,10.2,0,20.5,0,30.7c0,3.2-0.2,6.3-2,8.1c-4.6-6.4-9.2-12.8-13.7-19.3c-2.4-3.5-4.6-3.6-7,0.1
		C483.6,624.2,481.8,627.2,479.6,628.9z"/>
	<path class="st13" d="M391,695.8c-10.9-12.9-13.2-35.8-5.4-52.7c1.5-3.2,3.2-5.7,5.4-7.4c2.3,0.1,2.3,3.1,2.4,6.1
		c0.1,15.5,0,31.1,0,46.6C393.3,691.6,393.7,695.4,391,695.8z"/>
	<path class="st3" d="M391.5,641.8c-0.2-2-0.4-4.1-0.5-6.1c-0.5-5.7,1-8,3.9-8.6c7.4-1.6,13.8,0.8,19.7,10.7c6.9,11.8,7,35.7,3.3,47
		c-4.9,15.3-14.2,22.7-23.5,18.5c-2.2-1-3.9-2.6-3.3-7.6c0.2-2.4,0.3-4.8,0.5-7.1c1.1-0.4,1.6,0.6,2.1,2.3c1.2,4.2,3.4,5.2,5.8,5.3
		c9.2,0.1,16.5-13.4,16.5-30.7c0-17-7.2-30.7-16.4-30.9c-2.5,0-4.8,1-6,5.5C393,641.7,392.4,642,391.5,641.8z"/>
	<path class="st9" d="M435.4,623.1c3.8,3.6,4.5,10.1,4.6,17c0.1,10.4,0.2,20.9,0,31.3c-0.2,9.7,0.6,18.7,3.5,26.9
		c-5.6-3.7-8.1-11.3-8.2-22.1C435.4,658.6,435.4,640.8,435.4,623.1z"/>
	<path class="st28" d="M579.5,651.6c0,0.5,0,2.1-0.2,3.4c-0.4,2.8-0.6,6.2-2.5,6.8c-1.6,0.5-2.1-2.7-2.9-4.6
		c-2-5.3-3.9-10.7-5.8-16.2c-0.8-2.4-1.9-5.3-0.8-8.1c1.2-3.2,3.1-1.7,4.7-0.9C576.6,634.3,579.5,641.7,579.5,651.6z"/>
	<path d="M391.5,641.8c-0.1-7.3,2.2-9.8,5.7-10.4c7.9-1.3,14.1,4.3,18,16.6c3.8,11.8,3.7,24.5-0.4,36.1
		c-4.2,11.8-10.4,16.7-18.1,15.1c-3.5-0.7-5.4-3.8-5.2-10.5C392,673,391.8,657.4,391.5,641.8z"/>
</g>
</svg>
