<?xml version="1.0" encoding="utf-8"?>
<!-- Generator: Adobe Illustrator 21.1.0, SVG Export Plug-In . SVG Version: 6.00 Build 0)  -->
<svg version="1.1" id="Layer_1" xmlns="http://www.w3.org/2000/svg" xmlns:xlink="http://www.w3.org/1999/xlink" x="0px" y="0px"
	 viewBox="0 0 700 965" style="enable-background:new 0 0 700 965;" xml:space="preserve">
<style type="text/css">
	.st0{fill:#FEFEFE;}
	.st1{fill:#0067A2;}
	.st2{fill:#0167A2;}
	.st3{fill:#0168A2;}
	.st4{fill:#0469A3;}
	.st5{fill:#046AA4;}
	.st6{fill:#056AA4;}
	.st7{fill:#066AA4;}
	.st8{fill:#FFFFFF;}
	.st9{fill:#FEFEFF;}
</style>
<g>
	<path class="st0" d="M3.4,608.5c0-84,0-168.1,0-252.3c232.1,0,464.2,0,696.4,0c0,84,0,168.1,0,252.3
		C467.7,608.5,235.6,608.5,3.4,608.5z"/>
	<path class="st1" d="M552.8,395c0.4-0.5,0.6-0.7,0.7-1c5.6-9.4,14-15,24.7-16.9c6.9-1.2,13.9-1.2,20.6,1
		c12.5,4.1,19.5,13,21.7,25.9c0.3,1.8,0.3,3.5,0.3,5.3c0,26,0,52,0,78c0,14.3,11.1,25.9,25.4,26.6c6.8,0.4,13-1.1,18.3-5.5
		c1.4-1.2,2.7-2.5,3.9-3.9c0.7-0.9,1.4-1.7,2-2.8c-0.9-0.2-1.5,0.2-2.1,0.4c-8.9,2.6-18.4-2.1-21.4-10.8
		c-4.1-12.1,5.2-23.6,17.2-22.9c9.3,0.5,16.4,8,16.4,17.3c0,2.2-0.3,4.3-1,6.4c-2.3,6.7-5.5,12.9-10.7,17.8
		c-6.6,6.2-14.5,8.7-23.5,8c-6.4-0.5-12.2-2.5-17.1-6.6c-8.2-6.7-12.2-15.4-11.6-26.1c0-0.5,0-0.9,0-1.4c0-24.7,0-49.5,0-74.2
		c0-4-0.6-7.9-2.1-11.6c-3.5-8.8-9.9-14.4-19.1-16.6c-7.6-1.8-15.3-1.4-22.6,1.3c-9.6,3.6-15.7,10.6-19,20.2c-0.3,1-0.3,2.1-0.3,3.1
		c0,19.9,0,39.8,0,59.7c0,9.8-0.1,19.6-0.1,29.4c0,8.2-3.5,14.4-10.7,18.4c-7.9,4.4-18.9,2.7-25-3.6c-3.6-3.7-5.1-8.3-5.3-13.3
		c-0.1-2.9,0-5.8-0.2-8.8c-9.2,17.7-23.6,27.8-43.6,28c-20.1,0.2-34.6-9.6-44.4-27.6c0,2.8,0,5.2,0,7.6c0,3.9-1,7.6-3.3,10.8
		c-4.6,6.7-11,9.6-19.1,9.1c-1.5-0.1-3-0.3-4.5-0.7c-8-2.2-13.3-8.4-14.1-16.8c-0.2-1.9-0.3-3.8-0.3-5.7c0-28,0-56,0-83.9
		c0-8.2-3-15.2-9-20.8c-4.4-4.1-9.7-6.2-15.5-6.9c-6.2-0.8-12.3-0.4-18.2,1.6c-10.1,3.5-16.5,10.5-20,20.5c-0.3,1-0.4,2.1-0.4,3.1
		c0,19,0,38,0,56.9c0,11,0,22.1-0.1,33.1c-0.1,7-3.2,12.5-8.9,16.4c-8.1,5.5-20.2,4.3-26.8-2.6c-3.3-3.5-4.8-7.7-5.2-12.4
		c-0.2-2.6-0.1-5.2-0.1-7.7c0-0.6,0-1.3,0-2.4c-9.4,18.2-23.8,28.4-44.1,28.5c-20.2,0.1-34.7-9.9-44.1-27.7c-0.3,0.5-0.2,1-0.2,1.5
		c0,2.3,0,4.6,0,6.9c-0.3,10.6-8.7,19-19.2,19.5c-2.9,0.1-5.7-0.2-8.4-1c-7.5-2.3-12.5-8.6-13.2-16.7c-0.1-1.3-0.2-2.6-0.2-4
		c0-27.6,0-55.3,0-82.9c0-4-0.2-8.1-1.6-11.9c-3.9-10.8-11.7-16.9-22.9-18.5c-6.9-1-13.7-0.4-20.3,2.3c-9.2,3.8-15,10.7-18.1,20.1
		c-0.3,1-0.3,2.1-0.3,3.1c0,35.2,0,70.4,0,105.6c0,0.7,0,1.3,0,2c-0.1,1.1-0.8,1.7-1.8,1.8c-1,0.1-2-0.6-2.2-1.6
		c-0.1-0.7-0.1-1.5-0.1-2.2c0-35.2,0-70.4,0-105.6c0-7.8-2.9-14.3-8.4-19.7c-4.3-4.2-9.6-6.4-15.6-7.1c-2.8-0.3-5.6-0.3-8.3,0.2
		c-7.6,1.3-13.2,5.5-17.4,11.8c-0.1,0.1,0,0.2-0.1,0.5c1.9-0.6,3.7-1.2,5.6-1.3c9-0.7,16.8,5,18.5,13.9c2.2,11.7-7,20.2-16.3,20.5
		c-8.4,0.3-16.4-5.6-17.8-14.6c-0.4-2.2-0.4-4.5,0.2-6.7c2-7.9,5.7-15,11.7-20.6c6.8-6.3,15-8.6,24.2-7.6c7.9,0.9,14.6,4.1,19.9,10
		c2.8,3.1,4.9,6.7,6.3,10.7c0.7-0.3,0.9-1,1.2-1.6c6.1-10.5,15.4-16.3,27.3-17.8c6.9-0.9,13.8-0.6,20.3,2
		c11.6,4.7,17.9,13.5,19.8,25.7c0.3,1.9,0.3,3.8,0.3,5.7c0,27.8,0,55.7,0,83.5c0,2.1,0.1,4.2,0.6,6.3c1.6,6.5,6,10.3,13.1,11.5
		c8.6,1.4,16.5-3.7,18.7-11.9c0.4-1.5,0.6-3,0.5-4.5c0-8.5,0-17.1,0-25.6c0-6.9,1-13.7,3.9-20.1c7.3-16.1,19.7-25.9,37.3-28.6
		c26.1-4,50.2,13.8,54.4,39.7c0.6,3.5,0.9,7.1,0.9,10.6c-0.1,7.6,0,15.2,0,22.8c0,2.2,0.2,4.4,0.8,6.5c1.5,5.6,5.2,9.1,10.8,10.5
		c6.3,1.6,12,0.5,16.7-4.1c3.2-3.2,4.7-7.1,4.7-11.6c0-14.4,0.1-28.7,0.1-43.1c0-16.3,0-32.5,0-48.8c0-4.2-0.6-8.4-2-12.5
		c-0.4-1.2-0.9-2.3-1.5-3.5c-2.8-5.2-7.2-8-13.1-8.3c-1.7-0.1-3.4-0.1-5.1,0.2c-5.4,1.1-8.9,4.3-10.8,9.5c-0.2,0.4-0.2,0.9-0.5,1.3
		c-0.5,0.9-1.4,1.3-2.4,1c-1-0.3-1.4-1-1.4-1.9c0-0.6,0.2-1.2,0.4-1.7c2.6-7.1,7.6-11.2,15.1-12.3c2.9-0.4,5.8-0.2,8.7,0.4
		c5.5,1.3,9.6,4.5,12.4,9.4c1.3,2.4,2.2,4.9,2.9,7.6c0.1,0.6,0.3,1.3,0.5,1.9c0.7-0.2,0.8-0.8,1-1.2c5.6-9,13.7-14.4,24-16.3
		c7.7-1.5,15.3-1.3,22.7,1.5c11.8,4.6,18.2,13.5,20.1,25.9c0.3,1.9,0.3,3.8,0.3,5.7c0,27.8,0,55.7,0,83.5c0,2,0,4,0.5,5.9
		c1.4,6.1,5.1,10,11.3,11.5c3.3,0.8,6.6,0.8,9.8-0.2c6.7-2.1,11.3-8.1,11.4-15.1c0.1-7.9,0.2-15.7,0-23.6c-0.1-4.6-0.1-9.1,0.8-13.6
		c4-19.4,19.2-34.2,38.7-37.6c20-3.5,39.8,5.6,50,23.1c3.7,6.4,5.8,13.3,6.3,20.7c0.7,9.6,0.2,19.2,0.3,28.7c0,2,0.1,4,0.5,5.9
		c1.5,6.8,5.8,10.8,13.1,12c8.4,1.4,16.2-3.3,18.7-11.2c0.5-1.5,0.7-3.1,0.7-4.7c0-30.2,0.1-60.3,0.1-90.5c0-4.4-0.4-8.9-1.7-13.1
		c-0.4-1.2-0.8-2.4-1.3-3.5c-2.6-5.7-7.1-8.8-13.3-9.3c-2.1-0.2-4.2-0.1-6.3,0.4c-4.8,1.2-7.9,4.3-9.7,8.8c-0.2,0.6-0.3,1.2-0.6,1.7
		c-0.4,0.9-1.4,1.3-2.3,1.1c-0.9-0.3-1.5-1-1.5-2.1c0-0.5,0.2-1,0.4-1.5c2.6-7.3,7.8-11.5,15.5-12.4c2.8-0.4,5.7-0.2,8.5,0.5
		c5.5,1.4,9.6,4.5,12.3,9.5C551.1,388.2,552,391.4,552.8,395z"/>
	<path class="st2" d="M217.5,594.7c0.3-1.2,0.4-2.1,0.4-3.1c0-3.6,0-7.1,0-10.7c0-1.3-0.1-2.6-0.7-3.9c-1.7-4-6.3-5.6-10.1-3.4
		c-1.1,0.6-2,1.5-2.8,2.5c-0.4,0.5-0.6,1-0.6,1.6c0,5,0,10,0,15.1c0,0.6,0.2,1.2,0.3,1.8c-1.3,0.3-2.7,0.1-4.2,0.2
		c0.6-1.3,0.5-2.4,0.5-3.5c0-4.4,0-8.9,0-13.3c0-1-0.4-2.2-0.1-3.1c0.2-0.7,1.5-1.1,2.3-1.7c0.6-0.6,1.3-1.1,2-1.6
		c4.8-3.4,10.5-2.7,14.4,1.7c0.2,0.2,0.3,0.4,0.6,0.7c0.5-0.5,0.9-0.9,1.4-1.4c3.2-3.2,7.6-4.2,11.7-2.4c4.1,1.8,6.3,5.1,6.4,9.7
		c0.1,3.2,0,6.5,0,9.7c0,1.6-0.1,3.3,0.4,5c-1.4,0.3-2.7,0.1-3.9,0.1c0.5-5.1,0.3-10,0.2-14.9c-0.1-3.8-2.4-6.2-5.9-7
		c-3.1-0.7-7,1.4-8.1,4.3c-0.2,0.4-0.1,0.9-0.1,1.4c0,4.6,0,9.1,0,13.7c0,0.8,0.2,1.6,0.4,2.4C220.3,594.9,219,594.7,217.5,594.7z"
		/>
	<path class="st1" d="M168.3,594.7c-1.8,0-3.4,0-5,0c5.6-12.1,10.7-24.4,16.3-36.9c5.8,12.5,11.4,24.7,17,36.9c-1.5,0-3.1,0-4.9,0
		c0.4-1.1-0.1-2-0.5-3c-0.8-1.8-1.7-3.6-2.4-5.4c-0.3-0.7-0.7-1.2-1.6-1.2c-4.8,0-9.7,0-14.5,0c-0.8,0-1.2,0.3-1.5,1
		c-0.9,2.1-1.7,4.1-2.7,6.2C168.1,593,168,593.8,168.3,594.7z"/>
	<path class="st2" d="M328.4,572.7c0-4.9,0.1-9.4-0.1-14c-0.1,0,0,0,0,0c4.3-0.2,3.4-0.5,3.5,3.1c0.1,8.5,0,16.9,0,25.4
		c0,1,0,2,0.5,3.1c-1.7,0.3-2.9,1.5-4.2,2.4c-4.3,3-8.9,3.9-13.8,1.6c-6.1-2.8-9-10-6.7-16.4c2.3-6.2,9-9.8,15.3-8.2
		C324.8,570.2,326.4,571.4,328.4,572.7z"/>
	<path class="st1" d="M429.1,574.5c-0.3,6.8-0.2,13.4-0.1,20.1c-3.1,0.5-3.1,0.5-3.5-2.4c-0.4-0.1-0.6,0.2-0.8,0.4
		c-5.3,4.8-14,3.6-18.3-2.4c-4.4-6-2.9-14.5,3.3-18.7c4.7-3.1,10.3-2.9,15.2,0.5c0.7,0.5,1.4,1,2.1,1.5
		C427.7,574.1,428.5,574.3,429.1,574.5z"/>
	<path class="st1" d="M527.1,594.7c-0.1,0-0.3,0.1-0.5,0.1c-2.7,0.1-2.7,0.1-3-2.6c-0.5-0.2-0.7,0.3-1,0.5
		c-6.7,5.9-18.3,2.4-20.4-7.4c-1.2-5.5,0.6-10.1,5.2-13.4c4.6-3.3,9.5-3.3,14.4-0.6c0.7,0.4,1.3,0.8,2,1.3c1.1,0.8,2.2,1.7,3.5,1.9
		C526.7,581.2,526.9,587.9,527.1,594.7z"/>
	<path class="st2" d="M487.3,591.5c0.3,3.3,0.3,3.3-2.9,3.3c-5.8,0-11.6,0-17.5,0c-0.7,0-1.3,0-2.4,0c5.3-7.2,10.3-14.2,15.7-21.5
		c-4.5,0.1-8.6-0.2-12.7,0.2c-0.4-3.3-0.4-3.3,2.9-3.3c5.3,0,10.6,0,16.2,0c-1.2,2.1-2.6,3.7-3.8,5.4c-1.3,1.8-2.6,3.5-3.9,5.3
		c-1.2,1.7-2.5,3.4-3.7,5.1c-1.3,1.7-2.5,3.5-4.1,5.6C476.7,591.5,481.9,591.7,487.3,591.5z"/>
	<path class="st2" d="M385.3,594.7c-1.4,0-2.7,0-4.1,0c0.5-1.3,0.4-2.6,0.4-3.8c0-3.5,0-7,0-10.5c-0.1-3.7-1.8-6.2-4.8-7.2
		c-3.5-1.3-7.7,0.1-9.9,3.1c-0.3,0.4-0.4,0.8-0.4,1.3c0,5.2,0,10.3,0,15.5c0,0.5,0.2,1,0.3,1.6c-1.3,0.3-2.7,0.2-4,0.1
		c0.5-2.7,0.4-17.8-0.1-19.7c1.5-0.6,2.7-1.8,3.9-2.8c3-2.5,6.4-3.3,10.2-2.4c4.6,1,7.6,4.4,8,9.1c0.3,3.5,0.1,7,0.2,10.5
		C385,591.1,384.8,592.8,385.3,594.7z"/>
	<path class="st2" d="M441.3,594.7c-1.5,0.1-2.8,0.1-4.2-0.1c0.5-1.7,0.4-3.3,0.4-4.9c0-4.2,0.2-8.3-0.1-12.5
		c-0.1-1.7,0.1-2.7,1.6-3.5c1.1-0.6,2.1-1.6,3.1-2.4c2.4-1.8,5.2-2.3,8.1-1.8c5.4,0.8,8.9,4.6,9.1,10.1c0.1,3.2,0.1,6.3,0.1,9.5
		c0,1.8-0.2,3.7,0.4,5.5c-1.5,0.2-2.8,0.2-4.1,0c0.5-1.5,0.4-2.9,0.4-4.4c0-3.2,0-6.5,0-9.7c-0.1-3.9-2-6.6-5.2-7.6
		c-3.5-1-7.4,0.3-9.5,3.2c-0.4,0.5-0.4,1.1-0.4,1.7c0,4.8,0,9.6,0,14.5C440.9,593.1,441.1,593.8,441.3,594.7z"/>
	<path class="st3" d="M402.7,573.5c-1.9-0.3-3.5-0.2-5.2-0.2c-1.4,0-1.4,0-1.4,1.4c0,5,0,9.9,0,14.9c0,1.6-0.2,3.3,0.4,5
		c-1.4,0.2-2.7,0.1-4.1,0.1c0.5-2,0.3-4,0.3-5.9c0-4.6,0-9.3,0-13.9c0-1.6,0-1.7-1.7-1.6c-0.5,0-1,0.2-1.6,0.2
		c-0.4-0.2-0.3-0.6-0.3-0.9c-0.1-2.4-0.1-2.4,2.3-2.5c0.8,0,1.2-0.2,1.2-1.1c-0.1-1.1,0.1-2.2,0.3-3.3c0.6-3.7,2.8-5.9,6.4-6.7
		c1.1-0.2,2.2-0.4,3.3-0.6c0.3,0.4,0.2,1,0.2,1.5c0,0.7,0.3,1.6-0.2,2.1c-0.4,0.5-1.2,0.1-1.9,0.2c-2.5,0.2-4.4,2-4.7,4.6
		c-0.4,3.4-0.4,3.4,3,3.4c0.9,0,1.7,0,2.6,0c0.7,0,0.9,0.3,0.9,1C402.7,571.9,402.7,572.6,402.7,573.5z"/>
	<path class="st2" d="M474.7,402.3c-0.1-0.6,0.2-1.2,0.5-1.7c6.3-10.3,12.6-20.6,18.9-30.9c0.2-0.3,0.3-0.6,0.6-0.8
		c0.7-0.7,1.8-0.8,2.6-0.3c0.8,0.5,1.1,1.5,0.8,2.4c-0.2,0.4-0.4,0.8-0.7,1.2c-6.1,10-12.2,20-18.4,30.1c-0.3,0.5-0.6,1-1,1.4
		c-0.6,0.6-1.4,0.7-2.2,0.3C475.1,403.7,474.7,403.1,474.7,402.3z"/>
	<path class="st2" d="M275.9,570c0,1.6,0,3,0,4.7c-3-1.9-6-2.7-9.3-1.4c-2,0.8-3.7,2.1-4.9,3.9c-2.4,3.7-2.1,8.5,0.7,11.8
		c1.7,1.9,3.8,3.1,6.3,3.4c2.5,0.3,4.8-0.5,7-2.1c0,1.7,0,3.1,0,4.6c-1.2-0.2-2.3,0.3-3.5,0.5c-5.6,1-10-0.9-13.3-5.4
		c-3.1-4.3-3.3-10.1-0.3-14.5c3.1-4.6,7.5-6.6,13.1-5.8C273.2,569.8,274.4,570.4,275.9,570z"/>
	<path class="st4" d="M251.1,594.7c-1.5,0-2.8,0-4,0c0.2-8.1,0.1-16.2,0-24.4c-0.1,0.1,0,0,0,0c3.4-0.3,3.4-0.3,3.4,3.1
		c0,6,0,12,0,18C250.6,592.4,250.6,593.5,251.1,594.7z"/>
	<path class="st4" d="M282.8,570.3c3.6-0.3,3.6-0.3,3.6,3.1c0,5.9,0,11.9,0,17.8c0,1.1-0.1,2.2,0.4,3.4c-1.4,0.2-2.7,0.1-3.9,0.1
		C283,586.5,283,578.4,282.8,570.3z"/>
	<path class="st5" d="M350.9,594.7c0.1-8.2,0.2-16.3-0.1-24.4c0,0,0.2-0.1,0.4-0.1c3.8,0,3.1-0.5,3.1,3.1c0,5.7,0,11.4,0,17
		c0,1.4,0,2.9,0.4,4.4C353.4,594.7,352.1,594.7,350.9,594.7z"/>
	<path class="st4" d="M496.4,594.6c-1.6,0-2.9,0-4.1,0c0.2-8.2,0.2-16.2,0-24.5c0.8,0,1.7,0,2.6,0c0.7,0,0.9,0.4,0.9,1
		c0,0.8,0,1.6,0,2.4c0,6,0,12,0,18C495.9,592.5,495.8,593.5,496.4,594.6z"/>
	<path class="st4" d="M345.2,558.6c-0.9,1.9-1.7,3.6-2.5,5.3c-0.5,1-1,2-1.5,3c-0.7,1.6-0.7,1.6-2.6,1.5c-0.1-1,0.4-1.9,0.6-2.8
		c0.5-2.1,1.3-4.2,1.5-6.3c0.1-0.6,0.3-0.6,0.8-0.6C342.6,558.6,343.7,558.6,345.2,558.6z"/>
	<path class="st6" d="M540.6,592.4c0,1.5-1.3,2.7-2.8,2.7c-1.5,0-2.7-1.3-2.7-2.8c0-1.4,1.2-2.6,2.7-2.6
		C539.3,589.7,540.6,590.9,540.6,592.4z"/>
	<path class="st6" d="M248.9,565.9c-1.4,0-2.4-1-2.4-2.3c0-1.3,1.1-2.4,2.4-2.4c1.3,0,2.4,1.1,2.4,2.4
		C251.3,564.8,250.2,565.9,248.9,565.9z"/>
	<path class="st7" d="M284.7,565.9c-1.4,0-2.4-0.9-2.5-2.2c-0.1-1.3,0.9-2.4,2.3-2.5c1.2-0.1,2.4,1.1,2.5,2.3
		C287.1,564.7,286,565.8,284.7,565.9z"/>
	<path class="st7" d="M355.1,563.4c0,1.4-0.9,2.4-2.3,2.4c-1.3,0-2.4-1-2.5-2.2c-0.1-1.2,1.1-2.4,2.3-2.5
		C353.9,561.1,355,562.1,355.1,563.4z"/>
	<path class="st7" d="M494.1,565.9c-1.4,0-2.3-1-2.3-2.4c0-1.3,1.2-2.4,2.4-2.3c1.3,0,2.4,1.2,2.3,2.5
		C496.5,564.9,495.4,565.9,494.1,565.9z"/>
	<path class="st8" d="M234.9,424.8c23.1-0.3,43.9,18.6,43.9,43.7c0,24.1-19.8,43.7-44.1,43.7c-23.6-0.1-43.7-18.9-43.8-43.6
		C190.8,442.8,212.2,424.5,234.9,424.8z"/>
	<path class="st8" d="M468.1,511.9c-23.1,0.2-44.3-18.9-43.8-44.8c0.5-22.8,19.3-42.7,44.2-42.6c25.1,0.1,44,20.7,43.7,44.3
		C511.9,492.6,492.2,512,468.1,511.9z"/>
	<path class="st8" d="M39.6,395.1c7.3,0,13.3,5.8,13.3,12.9c0.1,7.3-5.8,13.3-13.1,13.3c-7.3,0-13.5-5.9-13.3-13.2
		C26.6,399.6,33.8,394.9,39.6,395.1z"/>
	<path class="st8" d="M663.5,472.4c7.2,0,13.2,5.9,13.2,13c0,7.2-6,13.2-13.3,13.2c-7.3,0-13.3-6-13.2-13.3
		C650.3,478.2,656.2,472.4,663.5,472.4z"/>
	<path class="st9" d="M186.2,581.5c-4.3,0-8.5,0-12.8,0c0.2-1.5,3.7-10.1,6-14.7C180.4,567.7,185.8,579.5,186.2,581.5z"/>
	<path class="st8" d="M328.4,582.6c0,0.9-0.1,1.9,0,2.8c0.2,1.7-0.5,3-1.7,4.1c-3,2.7-6.3,3.6-10,2.2c-3.8-1.4-6-4.4-6.4-8.3
		c-0.4-3.8,1.1-7,4.4-9.2c4.1-2.7,9.5-1.9,12.7,1.8c0.7,0.8,1.2,1.7,1.1,2.9C328.3,580.1,328.4,581.3,328.4,582.6z"/>
	<path class="st8" d="M425.6,582.4c0,1.1-0.1,2.1,0,3.2c0.2,1.6-0.5,2.8-1.6,3.8c-3.2,3.2-7.8,3.9-11.6,1.7
		c-3.8-2.2-5.8-6.7-4.8-10.8c1.1-4.4,4.8-7.6,9.2-7.7c3.5-0.1,6.2,1.6,8.4,4.2c0.4,0.4,0.4,0.9,0.4,1.5
		C425.6,579.6,425.6,581,425.6,582.4z"/>
	<path class="st8" d="M523.6,582.4c0,1.1-0.1,2.3,0,3.4c0.1,1.5-0.5,2.5-1.4,3.5c-3.2,3.2-7.8,4-11.6,1.9c-3.8-2.1-5.9-6.6-5-10.7
		c1-4.4,4.6-7.6,9.1-7.8c3.6-0.2,6.3,1.5,8.6,4.2c0.4,0.5,0.4,1,0.4,1.5C523.6,579.6,523.6,581,523.6,582.4z"/>
</g>
</svg>
