<?xml version="1.0" encoding="utf-8"?>
<!-- Generator: Adobe Illustrator 21.1.0, SVG Export Plug-In . SVG Version: 6.00 Build 0)  -->
<svg version="1.1" id="Layer_1" xmlns="http://www.w3.org/2000/svg" xmlns:xlink="http://www.w3.org/1999/xlink" x="0px" y="0px"
	 viewBox="0 0 700 965" style="enable-background:new 0 0 700 965;" xml:space="preserve">
<style type="text/css">
	.st0{fill:#FEFEFE;}
	.st1{fill:#231F20;}
</style>
<g>
	<path class="st0" d="M351.2,334.1c115.6,0,231.2,0,346.9-0.1c3.2,0,3.8,0.7,3.8,3.8c-0.1,97.2-0.1,194.5,0,291.7
		c0,3-0.4,3.9-3.7,3.9c-231.2-0.1-462.5-0.1-693.7,0c-3,0-3.6-0.6-3.6-3.6c0.1-97.2,0.1-194.5,0-291.7c0-3.2,0.6-4.1,4-4.1
		C120.2,334.1,235.7,334.1,351.2,334.1z"/>
	<path class="st1" d="M198.6,560.7c0-1.6,0-3.1,0-4.7c0-50.9,0-101.8-0.1-152.6c0-3.5,0.6-4.8,4.4-4.6c6.7,0.4,13.4,0.4,20.1,0
		c4.2-0.3,4.6,1.3,4.6,4.9c-0.1,42.1-0.1,84.3-0.1,126.4c0,26.7,0,53.4,0.1,80c0,3.1-0.4,4.3-3.9,4.2c-8.3-0.3-16.6-0.2-24.9,0
		c-2.9,0.1-4.4-1-5.9-3.3C159.7,558.9,126.3,507,93,455c-0.7-1.2-1.5-2.3-3.1-3.3c0,1.5,0,3,0,4.6c0,51,0,102.1,0.1,153.1
		c0,3.6-0.5,5.1-4.6,4.9c-6.7-0.4-13.4-0.3-20.1,0c-3.3,0.1-4-0.8-4-4.1c0.1-64,0.1-128,0.1-192c0-5.5,0.1-11.1,0-16.6
		c-0.1-2.1,0.6-2.7,2.7-2.7c9.2,0.1,18.4,0.1,27.6,0c2.5,0,3.2,1.5,4.2,3.1c29.3,45.7,58.7,91.3,88.1,137c4.7,7.3,9.4,14.7,14.2,22
		C198.1,560.8,198.4,560.8,198.6,560.7z"/>
	<path class="st1" d="M412.6,588.1c2.2,0,3.8,0,5.3,0c30.3,0,60.6,0.1,91-0.1c4.2,0,5.1,1.3,4.9,5.1c-0.3,6-0.2,12,0,17.9
		c0.1,2.4-0.5,3.2-3.1,3.2c-45-0.1-90.1-0.1-135.1,0c-3.3,0-3.1-1.7-2.9-3.8c1.9-16.5,9-30.6,20.4-42.5c14.3-14.9,30.7-27.3,46-41
		c9-8.1,18.2-16,26.3-25c8-9,15.1-18.5,18-30.5c5.4-22.3-9.9-43.1-32.7-44.7c-9.9-0.7-19.1,1.1-27.4,6.8
		c-10.7,7.3-15.5,17.5-15.1,30.2c0.1,3.6-1.1,4.4-4.4,4.2c-6.7-0.3-13.4-0.2-20.1-0.1c-2.6,0.1-3.7-0.4-3.8-3.5
		c-1.2-35.5,22.5-56.6,50.3-62.7c19.8-4.3,38.9-2.2,55.7,10.5c25.6,19.5,32.3,56,15.2,84.9c-9,15.2-20.5,28.3-34,39.6
		c-16,13.4-31.5,27.3-46.4,41.9C417.6,581.3,414.8,584,412.6,588.1z"/>
	<path class="st1" d="M611.4,455.6c-8.5,7.5-17.9,12.2-26.9,17.5c-6.7,3.9-13.9,6.6-21.1,9.3c-2.4,0.9-2.7,0.2-2.7-2
		c0.1-6.6,0.2-13.1,0-19.7c-0.1-2.7,0.8-4,3.3-5.2c18-8.5,33.7-20.1,46.5-35.5c3.5-4.3,6.7-8.8,9.2-13.8c0.8-1.6,1.8-2.3,3.7-2.2
		c3.8,0.2,7.6,0.3,11.4,0c3.8-0.3,5,0.7,5,4.8c-0.2,47.7-0.1,95.3-0.1,143c0,19.5-0.1,39.1,0.1,58.6c0,3-0.6,4-3.8,3.9
		c-6.8-0.3-13.7-0.3-20.5,0c-3.3,0.1-4-0.8-4-4.1c0.1-49.3,0.1-98.5,0.1-147.8C611.4,460.4,611.4,458.5,611.4,455.6z"/>
	<path class="st1" d="M310.2,402.3c20.4,0,36.9,17,37,38.1c0.1,21.2-16.5,38.5-37,38.5c-20.7,0-37.7-17.4-37.6-38.5
		C272.7,419.4,289.6,402.3,310.2,402.3z"/>
	<path class="st0" d="M310,470.9c-16.4-0.1-29.5-13.7-29.4-30.5c0.1-16.7,13.6-30.3,29.9-30.1c15.8,0.2,28.7,13.9,28.6,30.4
		C339.1,457.5,326.2,470.9,310,470.9z"/>
</g>
</svg>
