<?xml version="1.0" encoding="utf-8"?>
<!-- Generator: Adobe Illustrator 21.1.0, SVG Export Plug-In . SVG Version: 6.00 Build 0)  -->
<svg version="1.1" id="Layer_1" xmlns="http://www.w3.org/2000/svg" xmlns:xlink="http://www.w3.org/1999/xlink" x="0px" y="0px"
	 viewBox="0 0 700 965" style="enable-background:new 0 0 700 965;" xml:space="preserve">
<style type="text/css">
	.st0{fill:#EC1C24;}
	.st1{fill:#FEFEFE;}
	.st2{fill:#ED1C24;}
	.st3{fill:#EF1C24;}
	.st4{fill:#FCFCFC;}
	.st5{fill:#F11C25;}
	.st6{fill:#F21D25;}
	.st7{fill:#EE1C24;}
	.st8{fill:#F01C25;}
	.st9{fill:#E81B23;}
	.st10{fill:#F0F0F0;}
	.st11{fill:#FBFBFB;}
	.st12{fill:#FAFAFA;}
	.st13{fill:#F6F6F6;}
	.st14{fill:#F7F7F7;}
	.st15{fill:#090101;}
	.st16{fill:#0E0202;}
	.st17{fill:#0C0C0C;}
	.st18{fill:#0A0102;}
	.st19{fill:#020000;}
	.st20{fill:#050101;}
	.st21{fill:#888888;}
	.st22{fill:#101010;}
</style>
<g>
	<path d="M701,484c0,159.2,0,318.3,0.1,477.5c0,3.8-0.8,4.6-4.6,4.6c-230.3-0.1-460.7-0.1-691,0c-3.7,0-4.6-0.9-4.6-4.6
		C1,642.8,1,324.2,0.9,5.6c0-3.8,0.8-4.6,4.6-4.6c230.3,0.1,460.7,0.1,691,0c3.7,0,4.6,0.8,4.6,4.6C701,165,701,324.5,701,484z"/>
	<path class="st0" d="M385.2,547.8c-49.4,0.2-91.2-41.6-90.9-91.5c0.3-53.5,43-92,91.3-91.8c49.7,0.3,90.1,40.8,90.2,91.2
		C476,506.4,435.4,547.6,385.2,547.8z"/>
	<path class="st0" d="M276.3,456.4c-0.1,50.3-41,91.4-90.9,91.3c-49.8-0.1-90.5-41.5-90.4-91.9c0.1-51.1,40.7-91.5,91.7-91.2
		C236.4,364.8,276.4,405.8,276.3,456.4z"/>
	<path class="st1" d="M493.8,456.2c0-28.9,0.1-57.9-0.1-86.8c0-4.2,1.2-4.9,5-4.9c39.3,0.1,78.7,0.1,118-0.1c3.8,0,4.4,1.3,4.4,4.7
		c-0.2,9.1-0.3,18.2,0,27.2c0.2,4.3-1.5,5-5.2,5c-26.8-0.1-53.7,0.1-80.5-0.1c-4.6,0-5.5,1.2-5.3,5.6c0.4,8.7,0.3,17.5,0,26.2
		c-0.1,3.9,1.1,4.9,4.8,4.9c14.8-0.2,29.7,0.1,44.5-0.2c4-0.1,5.6,0.6,5.4,5.1c-0.4,8.7-0.4,17.5,0,26.2c0.2,4.2-0.9,5.5-5.1,5.5
		c-15-0.2-30,0-45-0.2c-3.4,0-4.5,0.8-4.4,4.4c0.2,21.4,0,42.7,0.2,64.1c0,3.8-1.1,4.9-4.7,4.8c-9.2-0.2-18.3-0.2-27.5,0
		c-3.5,0.1-4.4-1.2-4.4-4.7C493.9,514.1,493.8,485.1,493.8,456.2z"/>
	<path class="st0" d="M384.9,346.2c-22.5,0-45-0.1-67.4,0.1c-3.8,0-5.1-0.8-4.9-5c0.5-8.9,0.3-17.8,0.1-26.7c-0.1-3.6,0.7-5,4.6-5
		c45.5,0.1,90.9,0.1,136.4,0c3.3,0,4.3,1,4.3,4.3c-0.2,9.1-0.2,18.2,0,27.2c0.1,4-1,5.2-5,5.2C430.2,346.1,407.5,346.2,384.9,346.2z
		"/>
	<path class="st2" d="M185.4,309.7c22.6,0,45.3,0.1,67.9-0.1c3.7,0,4.9,1,4.8,4.8c-0.3,9.2-0.2,18.5,0,27.7c0.1,3.4-1.2,4.2-4.3,4.2
		c-45.5-0.1-90.9-0.1-136.4,0c-3.4,0-4.6-0.9-4.5-4.5c0.2-9.2,0.2-18.5,0-27.7c-0.1-3.6,1.2-4.5,4.6-4.5
		C140.2,309.7,162.8,309.7,185.4,309.7z"/>
	<path class="st3" d="M498,641.6c4,1.7,7.4,3.7,8.5,8.1c1.5,5.9-2.1,12.3-8.1,14.3c-6,1.9-12.2,1.1-18.3,1.1c-2.2,0-2.6-1.5-2.6-3.5
		c0-12.1,0.1-24.2,0-36.3c0-2.6,1-3.7,3.5-3.6c4,0.1,8,0.1,12,0c4.8-0.1,8.5,2,10.2,6.5c1.6,4.5,0.5,8.6-3.5,11.6
		C499,640.4,498.7,640.9,498,641.6z"/>
	<path class="st4" d="M297,643.6c8.2,4,6.4,12.5,8.7,19.2c0.2,0.5-0.1,1.6-0.5,1.8c-2.7,1.1-5.5,0.5-8.3,0.4
		c-2.2-0.1-2.3-2.1-2.5-3.7c-0.5-3.5-0.9-7-1.6-10.4c-0.4-1.9-1.3-3.8-3.6-3.4c-2,0.4-1.1,2.5-1.1,3.9c-0.1,2.5,0,5,0,7.5
		c0,6.2-2.1,7.7-8.2,6.3c-2.1-0.5-2-1.9-2-3.4c0-12.2,0-24.5,0-36.7c0-2.4,0.8-3.3,3.2-3.3c4.5,0.1,9-0.1,13.5,0.1
		c6.2,0.3,9.7,3.2,10.7,8.6c0.9,4.8-1.4,8.9-6.5,11.7C298.2,642.4,297.8,643,297,643.6z"/>
	<path class="st3" d="M400.7,643.2c0-5.9,0.1-11.8,0-17.6c-0.1-2.8,1-3.9,3.8-3.8c4.3,0.2,8.7,0,13,0.1c4.8,0.1,8.4,2.5,9.9,7.1
		c1.5,4.7,0.3,9.4-4,12c-3.6,2.2-2.4,3.1-0.3,5.5c4,4.6,3.8,10.9,4.9,16.6c0.2,0.9-0.4,1.5-1.3,1.9c-4.5,2-9.1-0.5-9.9-5.5
		c-0.5-3.1-1-6.3-1.7-9.4c-0.3-1.4-1.3-3-3.1-2.7c-1.8,0.4-1,2.2-1.1,3.4c-0.1,3.5-0.1,7.1,0,10.6c0.2,4.4-2.9,3.5-5.5,3.7
		c-2.7,0.1-4.9,0.1-4.8-3.8C400.9,655.3,400.7,649.2,400.7,643.2z"/>
	<path class="st5" d="M213.2,642.4c0,5.5-0.7,9.7-2.6,13.7c-2.9,6.1-7.3,9.7-14.5,9.4c-6.9-0.2-10.7-4.3-12.8-10.1
		c-2.9-8-3-16.1,0.1-24.1c2.7-6.9,7.9-10.6,13.9-10.3c6.6,0.3,12.4,5,14.5,12C212.8,636.4,213.4,639.9,213.2,642.4z"/>
	<path class="st5" d="M274.1,643.1c0.1,5.1-0.6,9.7-3,13.9c-3.2,5.7-7.7,9-14.6,8.6c-6.4-0.4-9.9-4.3-12.1-9.7
		c-3.5-8.6-3.3-17.4,0.5-25.9c2.4-5.4,6.6-8.9,12.8-8.9c6.2,0,10.7,3.2,13.6,8.7C273.5,634,274.3,638.6,274.1,643.1z"/>
	<path class="st0" d="M548.7,665.2c-12.4,0-12.4,0-12.4-12.3c0-8.7,0.2-17.5,0-26.2c-0.1-3.6,0.7-5.2,4.7-5c5.5,0.3,11,0.3,16.5,0
		c3.6-0.2,3.6,1.9,3.6,4.5c0,2.5,0.2,4.9-3.5,4.6c-2.3-0.2-4.7,0.1-7,0c-2.7-0.2-4.4,0.2-4.3,3.7c0.1,3.1,1.4,4.2,4.3,4
		c1.5-0.1,3,0.1,4.5,0c3.5-0.4,5.1,0.6,5.1,4.6c0,4-1.9,4.4-4.9,4.2c-1.3-0.1-2.7,0.1-4,0c-3.5-0.5-5.1,0.6-5,4.6
		c0,3.8,1.6,4.7,4.8,4.4c1.5-0.1,3,0.2,4.5-0.1c5.3-1.1,5.7,2,5.5,6.1c-0.1,2.4-1.1,3.2-3.4,3.1
		C554.7,665.1,551.7,665.2,548.7,665.2z"/>
	<path class="st3" d="M309.9,643.1c0-5.7,0.2-11.4-0.1-17.1c-0.1-3.4,1.1-4.4,4.3-4.3c5.5,0.2,11,0.2,16.5,0c3.5-0.1,3.5,2,3.6,4.5
		c0.1,2.7-0.3,4.7-3.6,4.5c-2-0.1-4,0.1-6,0c-2.7-0.1-4.8-0.2-4.7,3.8c0,4,1.9,4.5,5,4c1.1-0.2,2.3-0.1,3.5-0.1
		c2.6,0,5.4-0.8,5.3,3.7c-0.1,3.7-1.1,5.7-5.1,5.1c-1.1-0.2-2.3,0.1-3.5,0c-3.3-0.4-5.3,0.1-5.2,4.4c0.1,4,1.6,5,5.1,4.6
		c1.3-0.1,2.7,0.1,4-0.1c3.6-0.4,5.5,0.4,5.4,4.8c0,4.3-2.1,4.5-5.3,4.4c-5-0.2-10-0.2-15,0c-3.3,0.1-4.4-1.2-4.3-4.5
		C310,654.9,309.9,649,309.9,643.1z"/>
	<path class="st6" d="M383.7,621.8c2.3,0,4.7,0.1,7,0c2.9-0.1,5.4-0.4,5.5,4.1c0.1,4.5-2,5.1-5.4,4.8c-1.7-0.1-3.3,0-5,0
		c-2.2-0.1-4.3-0.3-4.2,3.2c0,3,0.5,4.9,4,4.7c1.5-0.1,3.1,0.2,4.5-0.1c4.9-1.1,5.1,1.7,5,5.4c-0.1,2.4-1,3.3-3.3,3.2
		c-2-0.1-4,0.2-6,0c-3.4-0.4-4,1.2-4.2,4.3c-0.3,3.9,0.9,5.3,4.7,4.8c1.5-0.2,3,0,4.5,0c5.4,0,5.9,0.7,5.4,6.1c-0.2,2.1-0.9,3-3.1,3
		c-6.2-0.1-12.3-0.1-18.5,0c-2.1,0-2.9-0.9-2.9-3c0-12.4-0.1-24.8-0.3-37.2c0-2.5,1.1-3.2,3.4-3.1
		C377.7,621.9,380.7,621.8,383.7,621.8z"/>
	<path class="st7" d="M352.6,647.9c1.5-8.6,2.7-15.7,4-22.7c0.6-3.1,4.7-4.5,9.2-3.4c3.5,0.9,1.3,3.4,0.9,4.8
		c-2.8,11.8-5.9,23.4-8.6,35.2c-0.9,3.8-3.5,3.3-6.2,3.3c-2.5,0-4.7,0.3-5.5-3.3c-2.8-12.3-5.8-24.5-8.9-36.7
		c-0.6-2.5,0.1-3.2,2.5-3.4c7.4-0.5,7.7-0.1,8.9,7.2C349.9,634.8,350.1,640.8,352.6,647.9z"/>
	<path class="st8" d="M441.7,665.5c-2,0-4-0.1-5.9-0.8c-4.1-1.4-6.4-6.4-4.7-10.4c0.6-1.5,1.4-1,2.3-0.5c1.8,0.9,3.5,2,5.3,2.7
		c3,1.1,5.4-0.1,6.7-2.8c1.3-2.7-0.1-4.9-2.4-6.3c-1.4-0.9-2.9-1.6-4.3-2.5c-6.8-4.1-8.9-9.2-6.5-15.5c2.3-6.1,9.2-9.5,16-7.9
		c2.8,0.6,5.9,0.8,5.9,5.3c-0.1,5.8,0.2,5.8-5,3.8c-2.5-0.9-5.2-1.2-6.7,1.4c-1.7,2.9,0.6,4.6,2.9,5.9c1,0.6,2.1,1.1,3.1,1.7
		c7.1,3.9,9.4,8.5,7.6,15.6C454.3,661.3,448.6,665.5,441.7,665.5z"/>
	<path class="st8" d="M154.8,641.1c0-3.7,1.1-9.6,5.1-14.5c2.8-3.6,6.6-5.6,11.2-5.6c5.8,0,8.1,3.2,6.5,8.8
		c-0.5,1.6-1.2,1.4-2.6,1.2c-5.5-1.1-8,0.4-9.4,5.9c-1.1,4.6-1.3,9.4,0.2,13.9c1.1,3.4,3.3,6,7.4,5.3c1.7-0.3,4.1-2.4,4.2,1.4
		c0.1,3,1.2,6.6-3.4,7.7c-5.8,1.5-11.4-0.5-14.9-5.5C156.3,655.5,154.9,650.5,154.8,641.1z"/>
	<path class="st2" d="M510.2,643.3c0-5.5,0.3-11.1-0.1-16.6c-0.3-4.3,1.7-4.9,5.3-5c3.6-0.1,5.1,0.8,5,4.7
		c-0.3,8.2,0.2,16.5-0.2,24.7c-0.2,4.2,1.4,5.5,5.2,5c1.1-0.1,2.3,0.1,3.5-0.1c3.6-0.4,5.4,0.4,5.4,4.8c0,4.3-2.1,4.5-5.3,4.4
		c-4.7-0.2-9.3-0.2-14,0c-3.6,0.2-5.1-1-4.9-4.8C510.3,654.7,510.1,649,510.2,643.3C510.1,643.3,510.2,643.3,510.2,643.3z"/>
	<path class="st9" d="M217.7,643.2c0-5.7,0.3-11.4-0.1-17.1c-0.3-4.3,2-4.4,5.2-4.5c3.4,0,5.2,0.6,5.1,4.6
		c-0.3,8.4,0.1,16.8-0.2,25.1c-0.1,3.5,0.9,5,4.5,4.6c1.3-0.2,2.7,0.1,4-0.1c3.6-0.5,5.4,0.5,5.3,4.8c0,4.2-1.9,4.6-5.2,4.5
		c-5-0.2-10-0.2-14.9,0c-2.8,0.1-3.8-1-3.8-3.9C217.8,655.3,217.7,649.3,217.7,643.2z"/>
	<path class="st10" d="M378.1,586.2c0-4.2,0.1-8.4,0-12.6c-0.1-2.9,0.5-4.4,3.8-4.2c3.8,0.3,7.7,0.2,11.5,0c2.6-0.1,3.6,0.9,3.6,3.5
		c0,2.6-0.8,3.8-3.5,3.6c-1.5-0.1-3,0-4.5-0.1c-2.2-0.2-2.9,0.9-3,3c-0.1,2.1,0.6,3.2,2.8,3.1c1.3-0.1,2.7,0.1,4-0.1
		c2.6-0.3,3.5,0.8,3.5,3.4c0,2.7-1,3.3-3.5,3.5c-2.5,0.2-7-2.7-6.7,3.4c0.3,5.8,4.7,2.8,7.1,3c3.1,0.2,4.1,1.3,4,4.3
		c-0.1,2.2-1,3-3,3c-4.3-0.1-8.7-0.1-13,0c-2.6,0.1-3-1.3-3-3.5C378.2,594.9,378.1,590.6,378.1,586.2
		C378.1,586.2,378.1,586.2,378.1,586.2z"/>
	<path class="st11" d="M328.2,602.7c-2.7,0.4-4.6-0.3-4.6-3.9c0-2.1-1.5-2.7-3.4-2.8c-1.9-0.1-3.2,0.5-3.6,2.5
		c-0.4,2.2-0.6,4.2-3.8,4.3c-3.6,0.1-5.2-0.5-3.9-4.7c2.5-8.4,4.7-16.8,6.7-25.3c0.7-2.8,2.1-3.3,4.6-3.4c2.5-0.1,4.1,0.6,4.8,3.2
		c2.3,8.9,4.6,17.9,7,26.8C333,602.9,330.8,602.9,328.2,602.7z"/>
	<path class="st9" d="M471.6,643.6c0,5.7-0.2,11.4,0.1,17.1c0.2,4.2-1.9,4.7-5.2,4.5c-2.9-0.1-5.6,0.3-5.5-4.2
		c0.2-11.7,0.2-23.5,0-35.2c-0.1-4.2,2.4-4.1,5.2-4c2.5,0.1,5.5-1,5.3,3.7c-0.3,6-0.1,12.1-0.1,18.1
		C471.5,643.6,471.6,643.6,471.6,643.6z"/>
	<path class="st12" d="M366,575.3c0.7-1.5,1.1-3.2,2-4.5c1.7-2.3,4.5-1.9,6.3-0.9c1.9,1.1,0.1,3-0.8,4.2c-3.8,4.7-3.9,9.5-1.3,14.8
		c2,4,2.8,8.4,3.7,12.8c-6.7,1.1-6.7,1.1-9.4-4.9c-0.6-1.7-1.1-3.4-1.7-5.1c-0.6-1.7-1.3-1-2-0.1c-0.9,2.1-0.5,4.3-0.4,6.5
		c0.1,2.9-0.4,4.3-3.8,4.2c-3.3,0-3.3-1.8-3.3-4.2c0.1-8.1,0.1-16.1,0-24.2c0-2.5,0.3-4.2,3.4-4c2.9,0.2,3.7,1.7,3.5,4.3
		c0,0.7,0-0.2-0.1,0.5c-0.1,1.4-1.1,3.5,0.7,4C365.3,579.2,365.2,576.6,366,575.3z"/>
	<path class="st13" d="M406,589.3c0-2.7-0.1-5.4,0-8c0.1-2.9,0.1-5.4-4.1-4.9c-2.9,0.4-2.3-2.1-2.4-3.9c-0.1-1.9,0.3-3.2,2.7-3.2
		c5,0.1,10,0.1,14.9,0c2.4,0,3.2,1.2,3.2,3.4c0,2.1-0.3,3.9-2.8,3.6c-3.9-0.5-3.9,1.9-3.8,4.6c0.1,6-0.1,12.1,0.2,18.1
		c0.1,3.1-1.4,3.6-3.9,3.6c-2.4,0-4.2-0.2-4-3.4C406.1,596.1,406,592.7,406,589.3C406,589.3,406,589.3,406,589.3z"/>
	<path class="st11" d="M333.6,588.7c0-10.6,3.6-17,9.2-19.1c5.3-2,9,0.2,8.5,5.1c-0.2,1.6-0.4,2.7-2.4,2c-0.8-0.3-1.6-0.5-2.4-0.4
		c-3.6,0.5-5.5,5.7-4.7,13c0.4,3.7,1.4,7.1,6.3,6.5c1.6-0.2,3.1-0.7,3.1,1.8c0,1.9,0.7,4.1-1.9,5.1c-4,1.5-7.5,0.7-10.6-2.2
		C334.7,596.6,333.6,591.5,333.6,588.7z"/>
	<path class="st14" d="M306.8,583.9c0,4,0.2,8.1-0.1,12.1c-0.3,3.8-1.8,6.9-6.1,7.3c-1.6,0.2-3.7,0.7-4.4-1.3
		c-0.7-1.9-1.4-4.5,1-5.8c2.2-1.2,1.9-2.9,1.9-4.7c0-6.2,0.1-12.4,0-18.6c-0.1-2.5,0.5-3.7,3.3-3.5c2.4,0.2,4.8-0.2,4.6,3.5
		c-0.2,3.7,0,7.4,0,11.1C306.9,583.9,306.9,583.9,306.8,583.9z"/>
	<path class="st10" d="M366,575.3c-0.1,1-0.1,2.1-0.5,2.9c-0.6,1.5-1.2,3.6-3.4,2.9c-1.9-0.6-1.1-2.6-1-4c0-1.1,0.6-2.3,0.7-3.4
		c0.2-2-0.8-3.1-2.8-3.3c-2.1-0.2-3,0.7-3,2.9c0,8.4,0,16.8,0,25.2c0,2,0.6,3.1,2.8,3.1c2.4,0.1,3.1-1.1,3.2-3.3
		c0.1-2.3-0.9-4.7,0.9-6.7c0,2.2-0.2,4.4,0,6.5c0.3,3.3-0.5,4.9-4.3,4.9c-3.8,0-3.8-2-3.8-4.8c0.1-8.1,0.1-16.1,0-24.2
		c0-2.7-0.1-4.8,3.8-4.7c3.9,0.1,4.5,1.8,4.1,5c-0.1,1.1,0,2.3,0,3.4C365.3,578.5,364.6,575.7,366,575.3z"/>
	<path class="st10" d="M366.6,596.7c2.1,3.7,4.9,6,9.4,4.9C370.3,604.5,368.3,603.5,366.6,596.7z"/>
	<path d="M439.2,456.4c1.1,27.6-23.1,54.7-54.6,54.5c-29.7-0.2-54.2-25.3-53.8-55.5c0.5-31.4,26.5-54.7,55.6-54.1
		C415,401.9,440.5,426.9,439.2,456.4z"/>
	<path d="M240,456.1c0,30.2-24.5,54.8-54.5,54.8c-29.6,0-54.1-24.8-54.2-54.7c-0.1-30.7,24.1-54.8,54.8-54.7
		C215.9,401.5,240,426,240,456.1z"/>
	<path class="st15" d="M487.7,651.5c0.2-2.2-0.8-5.3,3-5.1c3.1,0.2,5.6,1.7,5.5,5.2c-0.1,3.2-2.4,4.6-5.4,4.7
		C487,656.5,487.9,653.7,487.7,651.5z"/>
	<path class="st16" d="M487.7,634.4c0.1-1.9-0.4-4.1,2.4-4c2.1,0.1,3.2,1.5,3.2,3.7c0,2.4-1.3,3.9-3.6,4
		C487.2,638.1,487.9,635.8,487.7,634.4z"/>
	<path class="st17" d="M291.1,630.3c2.6,0,4,1.7,3.9,4.4c-0.1,2.6-1.4,4.4-4.2,4.5c-3.6,0.2-2.7-2.5-2.7-4.5
		C288.1,632.8,287.2,630.1,291.1,630.3z"/>
	<path class="st18" d="M413.5,630.3c2.6,0.4,4.3,1.8,4,4.7c-0.3,2.6-1.8,4.5-4.6,4.2c-3.5-0.3-1.9-3.3-2.1-5.1
		C410.6,632.2,410.6,630.1,413.5,630.3z"/>
	<path class="st19" d="M203,642.6c0,3.9-0.5,7.2-1.8,10.3c-0.7,1.7-2,3.2-4.1,3.2c-2.1,0.1-3.5-1.3-4.1-3.1
		c-2.3-6.5-2.5-13.1,0.1-19.6c0.7-1.8,2-3,4.2-2.9c2.2,0.1,3.3,1.5,4,3.3C202.5,636.8,203.1,639.9,203,642.6z"/>
	<path class="st20" d="M264,642.5c0,4.1-0.4,7.4-1.9,10.5c-0.9,1.9-2.3,3-4.6,3.1c-2.6,0.2-3.1-1.8-3.7-3.3
		c-2.3-6.2-2.1-12.5-0.1-18.6c0.6-1.9,1.9-3.5,4.3-3.6c2.5-0.1,3.6,1.6,4.4,3.4C263.6,636.9,264.1,640,264,642.5z"/>
	<path class="st21" d="M320,590.5c-4.6-2.8-0.7-6.4-1.5-10.4c3.3,2.4,3.6,4.8,3.4,7.5C320.5,586.9,320.5,586.9,320,590.5z"/>
	<path class="st22" d="M320,590.5c-1.7-1.9-1-4-0.6-6.2c2.2,0.1,1.1,2.6,2.5,3.3C322.1,589.1,321.4,590,320,590.5z"/>
</g>
</svg>
