<?xml version="1.0" encoding="utf-8"?>
<!-- Generator: Adobe Illustrator 21.1.0, SVG Export Plug-In . SVG Version: 6.00 Build 0)  -->
<svg version="1.1" id="Layer_1" xmlns="http://www.w3.org/2000/svg" xmlns:xlink="http://www.w3.org/1999/xlink" x="0px" y="0px"
	 viewBox="0 0 700 965" style="enable-background:new 0 0 700 965;" xml:space="preserve">
<style type="text/css">
	.st0{fill:#FEFEFE;}
	.st1{fill:#A0806A;}
	.st2{fill:#A0816A;}
	.st3{fill:#A2836C;}
	.st4{fill:#A3836C;}
	.st5{fill:#A3836D;}
	.st6{fill:#FEFEFD;}
</style>
<g>
	<path class="st0" d="M350.6,571.3c-116.4,0-232.8,0-349.3,0c-1,0-1.1-0.3-1.1-1.2c0-58.3,0-116.6,0-174.9c0-1,0.3-1.1,1.2-1.1
		c232.8,0,465.7,0,698.5,0c1,0,1.1,0.3,1.1,1.2c0,58.3,0,116.6,0,174.9c0,1-0.3,1.1-1.2,1.1C583.4,571.3,467,571.3,350.6,571.3z"/>
	<path class="st1" d="M276.1,454.3c-1.1,0.1-1.7,0.6-2.4,1c-10.3,6-20.4,12.3-30.8,18.1c-8.4,4.6-16.9,8.9-25.9,12
		c-9.6,3.3-19.2,3-28.6-0.7c-1.7-0.7-3.3-1.4-4.7-2.7c-0.9-0.9-1.9-0.5-2.8,0.1c-2.6,1.6-5.2,3-8,4.1c-6.5,2.6-13.2,4.1-20.3,4.1
		c-3.6,0-6.7-1.1-9.4-3.6c-1.5-1.3-3.1-1.4-4.8-0.5c-5,2.6-10.2,4.5-15.8,5.3c-6.1,0.9-12.1,0.6-17.9-1.5c-1.1-0.4-2.1-0.9-3-1.5
		c-3.3-2.2-4-5.1-2.3-8.6c2.2-4.4,4.4-8.8,6.6-13.2c0.8-1.7,1.5-3.4,2.3-5c1.1-2.5,1-5.1,0.1-7.6c-0.9-2.3-2.9-3.4-5.3-3
		c-2.3,0.4-4.4,1.4-6.4,2.6c-5.4,3.3-10.3,7.2-14.9,11.6c-1.6,1.6-3.3,3.2-4.8,5c-2.5,3.1-3.7,6.8-4.9,10.5
		c-4.2,12.3-7.5,24.8-11.1,37.2c-1.9,6.4-3.7,12.9-6.5,19c-0.3,0.6-0.6,1.1-0.9,1.7c-1.9,3.5-4.3,4.6-8.2,3.7
		c-3.7-0.8-3.9-1-3.9-4.8c0-4.5,1.1-8.8,2.2-13.1c2.4-8.8,4.8-17.7,7.7-26.3c0.4-1.3,1-2.5,1.5-3.8c0.7-1.8,0.2-2.5-1.7-2.7
		c-2.5-0.2-4.9,0.2-7.3,0.4c-7.1,0.4-14.2,0.2-20.9-2.6c-2.2-0.9-4.3-2-5.9-3.9c-2.2-2.8-1.4-5.9,1.9-7.3c1.8-0.8,3.6-0.7,5.4,0
		c2.6,0.9,4.9,2.2,7.6,2.9c2.3,0.6,4.6,1.2,7,1.2c3,0.1,5.6-0.9,7.8-3.1c1.3-1.3,2.5-2.7,3.8-4.1c2.2-2.6,3.3-5.7,3.6-9.1
		c0.3-4.3,1.1-8.6,2.1-12.8c0.8-3.3,3.7-4.5,6.8-3c2.1,1.1,3.9,2.6,5.5,4.3c2.9,3.1,4.1,3.2,7.5,0.6c5.7-4.5,11.6-8.8,18.3-11.5
		c9.7-3.9,19-2.5,27.3,3.7c4.7,3.5,5.9,8.2,4.1,14c-1.4,4.6-4.2,8.4-7,12.2c-0.7,0.9-1.4,1.8-2,2.8c-1.3,2-0.8,3.1,1.4,3.6
		c7.3,1.7,14,0.1,20-4.3c1.4-1,2.6-2.1,3.9-3.3c0.7-0.6,1.1-1.4,1.5-2.2c3.5-7.6,8.4-14,15.5-18.6c8.6-5.4,17.7-9.6,27.7-11.6
		c3.3-0.7,6.6-0.9,9.9-0.1c6.1,1.6,9.4,7.2,8.1,13.5c-1.1,5.8-3.9,10.8-6.9,15.7c-1.1,1.8-2.3,3.5-3.5,5.3c-0.7,0.9-0.5,1.6,0.2,2.4
		c1.7,1.7,3.8,2.3,6.1,2.4c4.1,0.2,8-0.9,11.8-2.4c7.4-2.8,14.2-6.8,21.2-10.5c10.6-5.7,20.7-12.1,31.3-17.7
		c4.4-2.3,8.9-4.3,13.8-5.3c4.1-0.8,7.4,0.5,9.9,3.8c1.2,1.6,2.2,3.4,2.8,5.3c0.5,1.5,0.6,1.5,1.9,0.7c5.9-3.7,11.9-7,18.3-9.5
		c2.3-0.9,4.5-1.7,7-1.7c5,0,9.4,3.5,10.5,8.3c0.3,1.3,0.3,1.3,1.5,0.6c3.8-2.4,7.8-4.4,12.2-5.4c3.2-0.7,6.3-0.4,9.3,0.7
		c2.3,0.8,3.5,2.5,4,4.8c0.8,3.5,1.4,7,2.3,10.5c0.6,2.4,1.3,4.8,2.7,6.9c1.5,2.3,3.6,3.5,6.3,3.7c5.6,0.3,11-0.1,16.5-1.5
		c3.6-0.9,6.4-2.9,8.7-5.7c2.4-3,4.7-6.2,6.5-9.7c1.8-3.3,4.5-4.4,8.8-3.5c3.8,0.8,4.6,2.2,3.1,5.7c-1.6,3.8-3.3,7.6-4.9,11.4
		c-0.7,1.7-1.2,3.4-1.6,5.2c-0.2,0.9-0.2,1.9-0.1,2.8c0.5,3.3,2,4.5,5.3,4.5c3.5-0.1,6.7-1.2,10-2.2c11-3.5,21.5-8,31.6-13.7
		c1.7-0.9,2.3-2.1,2.4-4c0.2-6.3,1.2-12.5,2.7-18.5c2.5-9.8,6.7-18.7,13.4-26.4c5.8-6.6,13-11,21.7-12.9c7.3-1.5,13.9,0.2,19.7,4.8
		c3.8,3,4.6,6.8,3.5,11.4c-1.2,5.1-3.9,9.4-7.2,13.5c-6.4,7.9-14.2,14.5-22.2,20.8c-4.9,3.9-10,7.6-15.1,11.2
		c-0.5,0.3-1,0.6-1.2,1.2c-1.4,3.3-2.4,6.8-1.7,10.4c0.5,2.8,2.5,4.3,5.4,4.4c3.6,0,7.1-0.7,10.6-1.7c12.2-3.5,23.8-8.5,34.6-15.4
		c1.3-0.8,1.8-1.8,1.9-3.3c0.8-11.6,2.3-23.1,6.3-34.1c1.7-4.7,4.5-8.7,8.4-11.8c6.3-4.9,13-8.7,20.9-10.4
		c5.6-1.2,11.3-1.4,16.9-0.1c5.3,1.2,7.8,5.1,6.9,10.4c-1.1,5.9-3.9,11-7.3,15.9c-3.8,5.5-8.5,10.2-13.1,15
		c-6.1,6.3-12.1,12.6-18.2,18.9c-2.5,2.6-3.2,5.5-1.6,8.9c0.8,1.7,1.5,3.5,3,4.7c2.3,2,5.1,1.9,7.8,1.8c7.6-0.5,14.7-2.6,21.6-5.8
		c5.6-2.6,10.2-6.3,13.6-11.6c3.1-4.8,7.1-8.6,11.8-11.7c6.5-4.3,13.2-8.1,20.7-10.6c4.7-1.6,9.5-2.3,14.4-2.6c4-0.2,8-0.4,11.9,0.4
		c1.1,0.2,2.2,0.6,3.1,1.2c1.3,0.8,1.9,2,2,3.5c0.2,3.7-1,7-2.7,10.2c-2.3,4.2-5.3,7.9-8,11.8c-1.1,1.6-2.2,3.2-3.2,5
		c-0.5,0.9-0.9,1.8-1.2,2.8c-0.4,1.5,0.1,2.2,1.7,2.2c3.4,0.1,6.6-0.8,9.8-1.7c7-1.8,13.7-4.4,20.4-7c4.8-1.8,9.6-3.3,14.8-3.3
		c1,0,2,0.1,2.9,0.4c2.2,0.6,2.5,1.8,1.1,3.6c-1.3,1.5-2.7,2.7-4.2,3.9c-4,3.1-8.7,4.9-13.4,6.6c-9.9,3.5-20,6-30.3,7.6
		c-5,0.8-9.3-0.6-13-4c0,0-0.1-0.1-0.1-0.1c-3.1-2.9-3.2-2.9-6.8-0.8c-5.1,2.9-10.6,4.4-16.3,5.5c-1.6,0.3-3.3,0.6-4.9,0.9
		c-2,0.3-3.8-0.1-5.6-1c-2.5-1.3-4.8-3-6.9-4.9c-1.2-1.1-2.4-1.2-3.8-0.7c-7,2.4-13.9,4.8-20.9,7.2c-4.7,1.6-9.5,2.5-14.4,2.4
		c-3.8-0.1-7.4-0.7-10.9-2.3c-5-2.4-7.8-6.5-9.5-11.5c-0.6-1.9-0.6-1.9-2.3-0.7c-11.3,8.1-23.8,13.5-37.6,15.9
		c-4.5,0.8-8.9,1.4-13.5,1.2c-6.2-0.3-11.8-2.1-16-6.9c-1.7-2-3-4.2-3.1-6.9c0-1.2-0.6-0.5-1-0.3c-5.6,3.2-11.5,6-17.5,8.3
		c-6.8,2.6-13.9,4.3-21.2,4.6c-6.2,0.3-11.3-2.1-15.7-6.3c-1.6-1.5-3.1-3.1-4.6-4.7c-0.8-0.9-1.7-1.1-2.8-0.7
		c-4.3,1.4-8.5,2.8-13,3.6c-9.8,1.8-18.6,0-25.8-7.2c-4.6-4.6-7.2-10.2-7.8-16.6c-0.1-1.1-0.3-1.2-1.4-0.8c-4.1,1.6-6.8,4.6-8.7,8.5
		c-1.3,2.6-1.8,5.4-2.6,8.2c-0.8,3-1.8,5.8-3.7,8.3c-1.7,2.2-3.9,2.8-6.2,1.8c-2.4-1.1-3.8-3.6-3.3-6.2c0.5-2.4,1.4-4.8,1.9-7.2
		c0.9-4.2,1.5-8.4,1.9-12.6c0.2-1.5,0.3-3.1-1.2-4.1c-1.6-1-3.1-0.4-4.5,0.5c-2.8,1.8-5.6,3.8-8.4,5.8c-9.1,6.4-18.3,12.9-26.9,20
		c-2.2,1.8-4.4,3.6-6.6,5.3c-1.9,1.5-4,2.5-6.4,3c-3.4,0.7-5.4-1.4-4.6-4.9c0.7-2.8,2.3-5.2,3.7-7.6c3.3-6,6.8-11.9,9.7-18.1
		C275,457.1,275.5,455.8,276.1,454.3z"/>
	<path class="st2" d="M436,428.7c-0.5,5.7-3.7,12.2-10.6,14.8c-1.6,0.6-3.3,0.6-4.9,0.3c-1.6-0.4-2.7-1.7-2.9-3.8
		c-0.5-4.3,0.3-8.4,2-12.2c1.5-3.5,7.1-6.6,10.5-6C433.7,422.3,436.1,425.1,436,428.7z"/>
	<path class="st3" d="M249.3,542.2c1.1-1,2-1.9,3.1-2.5c2.2-1.2,4-1.1,5.9,0.7c0.5,0.4,0.8,0.4,1.2,0c1.9-1.3,3.9-1.7,6.1-1.2
		c1.5,0.3,2.5,1.3,2.8,2.8c0.6,3.7,1.2,7.3,1.8,11c0.2,1.2-0.2,1.8-1.2,2c-1.4,0.3-2.2-0.2-2.4-1.5c-0.3-1.6-0.5-3.3-0.7-4.9
		c-0.2-1.5-0.4-3.1-0.7-4.6c-0.4-1.7-1.2-2.2-2.9-1.7c-0.6,0.2-1.3,0.5-1.9,0.8c-1.3,0.7-1.7,1.5-1.5,3c0.3,2.5,0.9,5,0.9,7.5
		c0,1.4-0.5,2-1.7,2c-1.3,0-1.9-0.6-1.9-2c-0.2-3.5-0.8-7-0.9-10.6c0-1.1-0.5-1.3-1.5-0.7c-1.5,0.9-2.8,2.1-3.9,3.4
		c-0.7,0.8-0.4,1.9-0.6,2.8c-0.2,1.3-0.3,2.6,0,3.9c0.2,0.9,0,1.6-0.9,1.9c-1,0.4-2,0.1-2.5-0.7c-0.6-1.1-0.7-2.3-0.6-3.5
		c0.4-2.9,0.4-5.8,0-8.7c-0.1-0.9,0.1-1.7,0.5-2.5c0.3-0.8,1-1.1,1.9-0.9c0.9,0.2,1.5,0.6,1.5,1.6
		C249.2,540.5,249,541.3,249.3,542.2z"/>
	<path class="st3" d="M310.3,533.7c-0.1,4-1,8-0.9,12.1c0,2.2,0,4.3,0.5,6.4c0.1,0.7,0.2,1.5-0.6,1.9c-0.8,0.4-1.6,0.5-2.3-0.3
		c-0.5-0.6-1.1-0.3-1.6-0.1c-2.6,1.1-5.2,1.1-7.9,0.4c-3.1-0.9-5.2-3.5-5.3-6.5c-0.1-3.5,1.8-6.5,4.9-7.7c2.8-1.1,5.6-1.4,8.4,0.1
		c0.6,0.4,0.8,0,0.8-0.6c0.1-2,0.3-4.1,0.5-6.1c0.2-1.7,1.1-2.4,2.5-2C310.2,531.7,310.3,532.1,310.3,533.7z"/>
	<path class="st3" d="M317,549.7c1.9,1.9,4.2,2.4,6.7,2.2c1.9-0.2,3.8-0.5,5.3-2c0.6-0.6,1.4-0.4,2,0.2c0.7,0.6,0.5,1.3,0,1.9
		c-0.4,0.6-1,0.9-1.6,1.2c-3.5,1.6-7,1.9-10.7,0.9c-2.6-0.7-4.6-2.3-5.2-5.1c-0.7-3.1,0.5-5.7,2.7-7.7c2.8-2.6,8.2-3.1,11.5-1.2
		c2.4,1.3,2.5,3.7,0.2,5.2c-2,1.3-4.4,1.9-6.7,2.8C320,548.6,318.6,549.1,317,549.7z"/>
	<path class="st3" d="M282.4,539c1.8,0.1,3.4,0.4,4.9,1.1c0.9,0.4,1.3,1,1.1,2c-0.3,2.2-0.8,4.3-0.4,6.5c0.2,1.4,0.7,2.8,1.5,4
		c0.4,0.6,0.6,1.2,0,1.7c-0.6,0.6-1.5,0.9-2.1,0.2c-1.3-1.3-2.6-1-4.1-0.4c-2.2,0.9-4.5,0.8-6.8,0c-3.1-1.1-4.2-3.9-3.9-7.1
		c0.4-4.2,3.6-7.2,8-7.8C281.2,539.1,281.9,539,282.4,539z"/>
	<path class="st3" d="M422.3,539.1c1.6,0,3,0.4,4.3,1c0.9,0.4,1.2,0.9,1.1,1.9c-0.1,1.2-0.3,2.3-0.4,3.5c-0.3,2.5,0.1,4.9,1.4,7.1
		c0.4,0.6,0.9,1.3,0,2c-0.8,0.6-1.6,0.7-2.3-0.1c-0.9-1-2-0.9-3.1-0.5c-2.1,0.9-4.3,1-6.5,0.5c-3.7-0.9-5.3-3.7-4.9-7.5
		c0.5-4.1,3.9-7.2,8-7.7C420.7,539.1,421.5,538.9,422.3,539.1z"/>
	<path class="st3" d="M449.5,549c1.6-3,3.1-5.9,5-8.6c0.5-0.7,1.1-1.2,2-1.2c1.4,0.1,2.1,1.2,1.4,2.4c-1.5,2.6-3.1,5.2-4.6,7.8
		c-2.1,3.6-4.3,7.3-5.9,11.2c-0.6,1.4-1.3,1.8-2.4,1.6c-1.2-0.2-1.8-1-1.4-2.2c0.7-2.1,1.8-4.1,2.9-6c0.6-1,0.6-1.8-0.1-2.8
		c-2.1-3.1-4.2-6.2-6.3-9.3c-0.5-0.7-0.9-1.4-0.1-2.2c0.8-0.7,1.7-0.8,2.6-0.1c1.1,0.9,1.9,2.1,2.7,3.3
		C446.8,544.8,448.1,546.8,449.5,549z"/>
	<path class="st3" d="M359.7,541.5c1.5-1.2,3-2.3,4.9-2.7c3.4-0.6,5.8,1.1,6,4.6c0.1,3.2,0.3,6.3,0.8,9.4c0.2,1.2-0.4,2-1.6,2.1
		c-1.2,0.2-1.9-0.4-2.2-1.6c-0.7-3.1-0.8-6.2-0.7-9.3c0-0.9,0-1.7-0.9-2.1c-0.9-0.5-1.7-0.1-2.4,0.4c-3.1,2-4.6,4.9-4.5,8.6
		c0,0.7,0.1,1.4,0.1,2c0,1-0.4,1.6-1.4,1.7c-1.2,0.1-1.9-0.3-2.2-1.3c-0.3-1.4-0.4-2.9-0.2-4.4c0.3-2.8,0.5-5.6,0.4-8.5
		c-0.1-1.4,0.4-1.9,1.7-2.1c1.1-0.1,1.8,0.6,2,1.8C359.6,540.6,359.6,541,359.7,541.5z"/>
	<path class="st3" d="M400.5,545.7c0-0.4,0-0.5,0-0.7c0-3.7,0.4-2.7-3-3.1c-0.5-0.1-1-0.1-1.5-0.2c-0.7-0.2-1.2-0.6-1.2-1.4
		c0-0.9,0.6-1.3,1.4-1.4c1-0.1,2,0,3.1,0.1c0.7,0,1.1-0.2,1-0.9c-0.1-0.8,0-1.5-0.1-2.3c0-0.9,0.4-1.4,1.2-1.6
		c0.9-0.2,1.7-0.1,2.1,0.8c0.4,0.8,0.5,1.6,0.5,2.5c0,1.6,0,1.6,1.6,1.5c0.9,0,1.9,0,2.8,0c0.9,0.1,1.5,0.4,1.5,1.5
		c0,1-0.6,1.4-1.5,1.4c-0.9,0-1.8,0-2.7,0c-1.4,0-1.7,0.3-1.6,1.7c0.1,2.6,0.2,5.1,0.3,7.7c0,0.7,0,1.4-0.2,2
		c-0.3,1.2-1,1.7-2.3,1.5c-1-0.1-1.5-0.7-1.4-1.9C400.9,550.4,400.3,548,400.5,545.7z"/>
	<path class="st3" d="M432.8,551c0.4-6,0.6-11.9,0.5-17.8c0-1.6,0.7-2.3,2.2-2.1c1.2,0.1,1.6,0.6,1.6,1.9c0,2.8-0.1,5.6-0.2,8.4
		c-0.1,3.7-0.3,7.5-0.4,11.2c-0.1,1.4-0.7,2.1-2,2c-1.3-0.1-1.7-0.6-1.7-2.1C432.8,551.9,432.8,551.4,432.8,551z"/>
	<path class="st4" d="M346.2,548.7c-0.1-2.6,0.1-5.3,0.4-7.9c0.1-1,0.7-1.5,1.8-1.5c1.2,0,1.8,0.5,1.8,1.5c0,0.9-0.1,1.9-0.1,2.8
		c-0.1,2.8-0.2,5.6-0.1,8.4c0.1,1.3-0.5,1.8-1.7,2c-1.2,0.1-1.9-0.5-2.1-1.7c-0.1-0.6,0-1.2,0-1.8
		C346.2,549.9,346.2,549.3,346.2,548.7z"/>
	<path class="st3" d="M386.6,548.2c-0.2-2.4,0.2-4.8,0.2-7.2c0-1.1,0.7-1.6,1.9-1.6c1.2,0,1.8,0.5,1.8,1.7c0,3.8-0.4,7.7-0.2,11.5
		c0,1-0.6,1.4-1.8,1.4c-1.2,0-1.8-0.5-1.9-1.6C386.6,551,386.6,549.6,386.6,548.2z"/>
	<path class="st5" d="M348.9,536.1c-1.2,0-2.1-0.8-2.1-1.7c0-0.9,1-1.7,2.2-1.7c1.2,0,2.3,0.8,2.2,1.8
		C351,535.4,350.1,536.1,348.9,536.1z"/>
	<path class="st4" d="M389.3,532.6c1.2,0,2.1,0.7,2.2,1.7c0,1-0.9,1.7-2.1,1.7c-1.2,0-2.2-0.7-2.2-1.6
		C387.1,533.5,388.1,532.6,389.3,532.6z"/>
	<path class="st0" d="M558.6,411.8c6.2,0,8.5,2.8,7.7,7.2c-0.5,2.8-1.8,5.2-3.3,7.5c-5.1,7.6-11.4,14.1-18.2,20.1
		c-1.6,1.4-3.3,2.8-5,4.1c-0.7,0.5-1.4,1-2.3,1.3c-2.1,0.8-3.6,0.1-4.1-2.1c-0.8-2.8-0.3-5.5,0.6-8.2c3.4-9.4,8.4-17.9,15.5-24.9
		C552.5,413.8,555.9,411.9,558.6,411.8z"/>
	<path class="st0" d="M601.8,476.1c-4.4,0.1-6.4-2.6-5.6-7.7c0.4-2.3,1.8-4.1,3.3-5.8c6.5-7.3,14.1-13,23.2-16.4
		c3.4-1.3,7-2.1,10.7-1.5c3,0.5,3.9,2.7,2.2,5.1C630,458.5,623,466,614,471.6c-3.1,1.9-6.3,3.5-9.8,4.2
		C603.4,476,602.6,476,601.8,476.1z"/>
	<path class="st0" d="M161.3,478.7c-1.9,0-3.5-0.2-4.9-1.3c-1.7-1.3-2.2-2.7-1.5-4.8c0.8-2.4,2.5-4.3,4.1-6.2
		c6.9-8.2,15.6-13.3,26-15.5c0.9-0.2,1.8-0.2,2.7-0.1c2.8,0.4,4.2,3.3,2.8,5.8c-2.3,4.3-5.4,8-9,11.4c-4,3.7-8.4,7-13.5,9.1
		C165.7,478,163.5,478.7,161.3,478.7z"/>
	<path class="st0" d="M493.2,414.1c4.6,0,7,3,6,6.9c-0.6,2.4-1.9,4.4-3.3,6.4c-5.4,7.3-11.7,13.7-18.8,19.3c-1.4,1.1-2.8,2-4.5,2.5
		c-1.9,0.5-3-0.2-3-2.2c0-3.1,1.1-5.9,2.4-8.6c3.9-8.1,9-15.2,15.4-21.4C489.2,415.1,491.3,414,493.2,414.1z"/>
	<path class="st0" d="M305.9,546.9c0,0.2,0,0.5,0,0.7c0,2.6-0.4,3.2-2.9,3.9c-1.2,0.4-2.5,0.4-3.7,0c-2.6-0.7-3.9-2.4-3.7-4.9
		c0.2-2.7,1.8-4.3,4.6-4.7c0.1,0,0.2,0,0.2,0C304.4,541.8,306.2,542.7,305.9,546.9z"/>
	<path class="st6" d="M316.9,546.8c0.5-4.4,5-6.3,9.5-4c-1.5,1-3.1,1.6-4.7,2.2C320.2,545.6,318.6,546.2,316.9,546.8z"/>
	<path class="st0" d="M276.3,547.7c0-3.4,3.6-6.5,6.9-6c1.2,0.2,1.5,0.6,1.3,1.7c-0.4,2-0.1,4,0.3,5.9c0.2,0.9-0.1,1.4-0.8,1.8
		c-1.7,1-3.5,1.2-5.3,0.7C277.1,551.4,276.3,549.9,276.3,547.7z"/>
	<path class="st0" d="M419.8,552.1c-2.9,0-4.8-2.3-4.2-5.2c0.6-3.3,4.3-5.8,7.3-5.1c0.8,0.2,1.2,0.4,1,1.5c-0.4,2-0.1,4.1,0.2,6.1
		c0.2,0.9-0.2,1.5-0.9,1.9C422.1,551.8,421,552.1,419.8,552.1z"/>
</g>
</svg>
