<?xml version="1.0" encoding="utf-8"?>
<!-- Generator: Adobe Illustrator 21.1.0, SVG Export Plug-In . SVG Version: 6.00 Build 0)  -->
<svg version="1.1" id="Layer_1" xmlns="http://www.w3.org/2000/svg" xmlns:xlink="http://www.w3.org/1999/xlink" x="0px" y="0px"
	 viewBox="0 0 700 965" style="enable-background:new 0 0 700 965;" xml:space="preserve">
<style type="text/css">
	.st0{fill:#FDFDFD;}
	.st1{fill:#1E1D1F;}
	.st2{fill:#1E1E21;}
	.st3{fill:#1D1D1E;}
	.st4{fill:#1E1D20;}
	.st5{fill:#1E1E20;}
	.st6{fill:#1E1E1F;}
	.st7{fill:#1F1F21;}
	.st8{fill:#1D1E1F;}
	.st9{fill:#232224;}
	.st10{fill:#222124;}
	.st11{fill:#202022;}
	.st12{fill:#232324;}
	.st13{fill:#212122;}
	.st14{fill:#222223;}
	.st15{fill:#39393A;}
	.st16{fill:#FEFEFE;}
	.st17{fill:#FCFCFC;}
	.st18{fill:#FCFCFB;}
	.st19{fill:#FBFBFB;}
	.st20{fill:#F9FAFA;}
	.st21{fill:#F7F7F8;}
</style>
<g>
	<path class="st0" d="M350.4,832.8c-115.4,0-230.7,0-346.1,0.1c-2.9,0-3.6-0.7-3.6-3.6c0.1-231,0.1-462,0-693c0-2.9,0.7-3.6,3.6-3.6
		c231,0.1,462,0.1,693,0c2.9,0,3.6,0.7,3.6,3.6c-0.1,231-0.1,462,0,693c0,2.9-0.7,3.6-3.6,3.6C581.6,832.8,466,832.8,350.4,832.8z"
		/>
	<path class="st1" d="M527.8,440.1c5.1,0,10.1-0.2,15.1,0.1c7.5,0.4,11.3,4.5,11.5,11.9c0.1,4.9,0.1,9.8,0,14.8
		c-0.1,7.7-3.8,12.1-11.5,12.4c-10.2,0.4-20.5,0.4-30.7,0c-7.3-0.3-10.9-4-11.4-11.2c-0.4-5.4-0.4-10.9-0.1-16.3
		c0.5-8,4.2-11.4,12.2-11.6C517.9,439.9,522.8,440,527.8,440.1C527.8,440,527.8,440,527.8,440.1z"/>
	<path class="st2" d="M608.1,461.8c3.8,1.7,5.2,4.4,4.9,8.2c-0.2,1.9-0.1,3.9,0,5.8c0.1,1.9-0.1,3.1-2.6,3.1c-2.6,0-3.2-1-2.9-3.2
		c0-0.1,0-0.3,0-0.4c-0.2-11.5-0.2-11.4-11.8-11.4c-6.7,0-13.5,0.1-20.2-0.1c-2.8-0.1-3.6,0.9-3.4,3.5c0.2,3-0.1,6,0.1,8.9
		c0.2,2.5-1.2,2.6-3.1,2.7c-2.1,0.1-3-0.4-3-2.8c0.1-11.1,0.1-22.3,0-33.4c0-2.1,0.8-2.6,2.8-2.6c11.4,0.1,22.8-0.1,34.1,0.3
		c9.2,0.3,14,9.1,9.9,17.6C611.9,460,610.2,460.9,608.1,461.8z"/>
	<path class="st3" d="M256.5,478.8c-4.9,0-9.9,0.3-14.7-0.1c-6.1-0.5-9.4-4-9.7-10.1c-0.3-6.1-0.4-12.2,0-18.3
		c0.4-7,4.3-10.4,11.4-10.4c8.9,0,17.9,0,26.8,0c6.7,0,10.2,2.8,11,9.5c0.8,6.8,0.9,13.7-0.1,20.5c-0.8,5.2-3.7,7.9-9,8.7
		C266.9,479.5,261.7,478.9,256.5,478.8z"/>
	<path class="st4" d="M153.8,439.9c4.7,0,9.3,0,14,0c6.3,0.1,9.8,2.9,10.6,9.1c0.9,6.8,0.8,13.7,0,20.5c-0.7,5.6-3.7,8.8-9.4,9.2
		c-10.1,0.8-20.2,0.8-30.3,0c-5.4-0.4-8.6-3.6-9.3-8.9c-0.9-7.1-0.9-14.2,0-21.3c0.8-5.6,4.5-8.5,10.2-8.6
		C144.4,439.9,149.1,439.9,153.8,439.9z"/>
	<path class="st5" d="M352.8,440.3c5.6,0,11.1-0.2,16.7,0c7.3,0.3,9.6,2.8,10,10c0.1,1.7,0,3.4-0.2,5c-0.6,5.2-2.6,7.4-7.8,8.1
		c-9.2,1.1-18.4,0.3-27.5,0.5c-5.4,0.1-4.9-0.9-4.9,5c0,2.2-0.1,4.4,0,6.6c0.1,2.3-0.2,3.6-3,3.6c-2.9,0-3-1.3-3-3.5
		c0.1-10.6,0.1-21.2,0-31.8c0-2.7,0.7-3.6,3.5-3.5C341.9,440.3,347.4,440.2,352.8,440.3C352.8,440.2,352.8,440.2,352.8,440.3z"/>
	<path class="st4" d="M410,478.9c-5.8,0-11.7-0.1-17.5,0c-2.3,0-3.2-0.5-3.2-3c0.1-10.9,0.1-21.8,0-32.6c0-2.3,0.6-3.2,3-3.2
		c11.8,0.1,23.6,0.1,35.4,0c1.5,0,2.8-0.1,2.9,2.1c0.1,2.4-1.3,2.4-2.9,2.4c-9.7,0-19.4,0.1-29.1-0.1c-2.5,0-3.3,0.7-3.3,3.3
		c0,9.1-0.1,9.1,8.8,9.1c7,0,14-0.1,21,0c1.6,0,4.3-1.3,4.2,2.2c-0.1,3.1-2.5,2-4,2c-8.8,0.1-17.6,0.1-26.4,0
		c-2.8-0.1-3.5,0.8-3.5,3.5c0,10-0.1,10,9.7,10c7.6,0,15.3,0,22.9,0c1.6,0,3.1-0.1,3,2.3c-0.1,2.3-1.6,1.9-3,1.9
		C421.9,478.9,415.9,478.9,410,478.9z"/>
	<path class="st2" d="M465.8,440.1c5,0,10.1-0.3,15.1,0.1c6.2,0.5,9.1,4.2,8.9,10c-0.1,1.7-0.4,2.7-2.4,2.6c-1.5-0.1-2.6,0-2.9-2.1
		c-0.6-4.9-2.2-6.2-7.1-6.3c-7.8-0.1-15.5-0.1-23.3,0c-5.6,0.1-8,2.6-8.2,8.1c-0.2,4.8-0.2,9.6,0,14.4c0.2,5.2,2.5,7.5,7.7,7.9
		c8.4,0.5,16.8,0.4,25.2,0c3.8-0.2,6.2-2,6-6c-0.1-2.6,1-2.9,3.2-3c2.8-0.1,2.4,1.7,2.4,3.3c-0.1,6-2.2,9.1-8.3,9.8
		c-10.7,1.2-21.5,1.1-32.1,0.1c-6.6-0.7-9.6-4.6-9.9-11.4c-0.2-5.3-0.2-10.6,0-15.9c0.3-7.3,4.2-11,11.5-11.6c0.5,0,1-0.1,1.6-0.1
		c4.1,0,8.3,0,12.4,0C465.8,440,465.8,440.1,465.8,440.1z"/>
	<path class="st6" d="M677.3,478.5c-4.5,1.1-7.6,0.3-9.2-3.8c-1.3-3.4-3.9-4.1-7.3-4c-7.9,0.2-15.8,0.2-23.7,0
		c-3.2-0.1-5.2,0.8-6.8,3.7c-2.7,4.8-2.9,4.7-8.6,4.3c-0.7-1.1,0.3-1.7,0.7-2.4c7.1-11.1,14.2-22.3,21.4-33.4
		c2.6-4,8.1-4.1,10.7-0.1C662,454.6,669.5,466.4,677.3,478.5z"/>
	<path class="st7" d="M25.3,459.1c0-5.4,0.1-10.9,0-16.3c-0.1-2.2,0.7-2.8,2.9-2.8c10.2,0.1,20.5,0,30.7,0.1c6.1,0.1,8.4,2.3,9,8.3
		c0.1,0.6,0.1,1.3,0.1,1.9c0.2,10.7-2.1,13.1-12.8,13c-6.9,0-13.7,0.2-20.6-0.1c-3.6-0.2-4.5,1.1-4.2,4.4c0.3,2.8-0.1,5.7,0.1,8.5
		c0.1,2.3-1.1,2.4-2.9,2.5c-2,0.1-2.4-0.8-2.4-2.5C25.3,470.5,25.2,464.8,25.3,459.1z"/>
	<path class="st8" d="M69.9,478.3c7.3-12.4,14.5-24.6,21.8-36.8c1.4-2.4,7.2-2.2,8.7,0.2c7.2,12.1,14.4,24.2,21.6,36.3
		c-4.1,1.6-6.8,0.5-8.3-3.5c-1.2-3.3-3.5-4.4-7.2-4.2c-7.1,0.3-14.2,0.3-21.3,0c-3.5-0.2-5.7,0.9-6.8,4.1
		C77,478.4,74.2,479.5,69.9,478.3z"/>
	<path class="st9" d="M288.6,507c-3.8,5.6-7.6,11.3-11.4,16.9c-2.5,3.6-3.6,3.7-6.1,0.1c-3.9-5.6-7.7-11.3-11.5-17
		c-1.6,1-0.8,2.4-0.8,3.5c-0.1,4.3,0,8.5-0.1,12.8c0,1.2,0.8,3.1-1.6,3.2c-2.4,0.1-1.7-1.8-1.7-3.1c-0.1-5.8-0.1-11.7,0-17.5
		c0-1.3-0.9-3.2,1.1-3.6c1.9-0.4,4-0.6,5.4,1.8c3.4,5.5,7.2,10.8,10.8,16.1c0.4,0.5,0.7,1,1.5,2.1c4.1-6,7.9-11.7,11.8-17.4
		c0.5-0.7,0.9-1.6,1.6-2.1c1.4-1,3-0.7,4.5-0.3c1.5,0.4,0.9,2,0.9,3c0.1,6.1,0,12.2,0,18.3c0,1.4,0.3,3-2,2.8
		c-2.2-0.1-1.5-1.7-1.5-2.8c-0.1-5.4,0-10.9,0-16.3C289.1,507.2,288.9,507.1,288.6,507z"/>
	<path class="st10" d="M189.9,459.7c0-5.6,0.1-11.1,0-16.7c0-2.1,0.5-3,2.8-3c2.4-0.1,2.7,1,2.7,3c-0.1,9.3,0.1,18.6-0.1,28
		c0,2.5,0.6,3.4,3.2,3.3c7.9-0.2,15.8,0,23.7-0.1c1.6,0,3.1-0.3,3.2,2.2c0.1,2.5-1.4,2.3-3,2.3c-9.8,0-19.7-0.1-29.5,0
		c-2.4,0-3.1-0.8-3-3.1C190,470.3,189.9,465,189.9,459.7z"/>
	<path class="st11" d="M382,505.7c0,6.4,0.1,11.8,0,17.2c0,1.3,1.1,3.4-1.6,3.5c-2.8,0.1-1.8-2-1.8-3.3c-0.1-5.6-0.1-11.1,0-16.7
		c0-1.4-1-3.5,1-4.1c1.9-0.6,3.9-0.4,5.7,1.4c5.3,5.5,10.8,10.8,16.3,16.1c0.9,0.9,1.5,2.1,3.3,2.4c0-5.8,0-11.4,0-17
		c0-1.2-0.7-3.1,1.7-3.1c2.4,0,1.7,1.9,1.7,3.1c0.1,5.6,0.1,11.1-0.1,16.7c0,1.5,1.3,3.7-1.1,4.3c-2.1,0.5-4.1,0.2-5.9-1.7
		c-5.5-5.7-11.2-11.1-16.8-16.7C383.8,507.4,383.3,506.9,382,505.7z"/>
	<path class="st12" d="M431.9,526.5c-3,0-5.9,0-8.9,0c-3.2,0.1-5.2-1.6-5.8-4.6c-1-5-0.9-10,0-15c0.6-3,2.8-4.7,5.8-4.8
		c5.9-0.1,11.9-0.2,17.8,0c3.8,0.2,5.9,2.5,6.2,6.6c0.3,3.7,0.3,7.5,0,11.2c-0.3,4.6-2.6,6.5-7.4,6.5
		C437,526.5,434.5,526.5,431.9,526.5z"/>
	<path class="st13" d="M371.9,526c-2.4,0.9-4,0.6-4.9-1.7c-0.9-2.3-2.5-2.9-4.9-2.8c-4.1,0.2-8.3,0.1-12.4,0
		c-2.1-0.1-3.5,0.5-4.3,2.5c-0.8,2.2-2.3,3-4.8,2.2c1-3.2,3-5.8,4.6-8.6c2.5-4.5,5.1-9,7.7-13.5c1.5-2.5,4.5-2.9,5.9-0.6
		C363.4,510.9,367.6,518.4,371.9,526z"/>
	<path class="st14" d="M314.7,514.5c0-2.8-0.1-5.7,0.1-8.5c0.1-1.4-1.2-3.8,1.8-3.7c2.6,0.1,1.6,2.2,1.6,3.6c0.1,4.7,0.3,9.3,0,14
		c-0.2,3.4,1,4.2,4.2,4c3.9-0.2,7.8-0.1,11.7,0c1.1,0,2.6-0.3,2.5,1.5c-0.1,1.6-1.5,1.1-2.4,1.1c-5.7,0-11.4,0-17.1,0
		c-1.7,0-2.3-0.6-2.2-2.2C314.8,521,314.7,517.8,314.7,514.5z"/>
	<path class="st15" d="M302,513.9c0-3.2,0-6.5,0-9.7c0-1.1,0.1-2.1,1.6-2.1c1.6-0.1,1.9,0.8,1.9,2.2c0,6.7,0,13.4,0,20.1
		c0,1.1-0.2,2-1.6,2.1c-1.6,0.1-1.9-0.8-1.9-2.2C302.1,520.9,302,517.4,302,513.9z"/>
	<path class="st16" d="M527.5,444.3c4.3,0,8.6-0.1,12.8,0c5.8,0.2,8.1,2.7,8.2,8.5c0,4.8,0,9.6,0,14.4c-0.1,4.5-2.2,7.2-6.7,7.5
		c-9.4,0.6-18.9,0.7-28.3,0c-4.6-0.3-6.8-2.9-6.9-7.4c-0.1-5-0.1-10.1,0-15.2c0.1-5,2.3-7.4,7.4-7.7c4.5-0.3,9.1-0.1,13.6-0.1
		C527.5,444.4,527.5,444.4,527.5,444.3z"/>
	<path class="st17" d="M587.5,459.3c-4.3,0-8.5-0.1-12.8,0c-2,0.1-2.9-0.5-2.7-2.6c0.3-3.8-1.5-8.7,0.7-11.3c2.1-2.5,7-0.7,10.7-0.8
		c5.8-0.1,11.6-0.2,17.4,0.2c6.1,0.4,7,1.7,6.9,8.2c-0.1,4.4-1.9,6-7.4,6.3c-2.2,0.1-4.4,0-6.6,0
		C591.6,459.3,589.5,459.3,587.5,459.3z"/>
	<path class="st16" d="M256.6,474.6c-3.9,0-7.8,0.1-11.7,0c-5-0.2-7.6-2.7-7.8-7.7c-0.2-5-0.2-10.1,0-15.2c0.2-4.7,2.2-7.1,6.7-7.5
		c8.5-0.7,17.1-0.7,25.6,0c4.3,0.3,6.4,2.8,6.6,7.2c0.2,5.2,0.1,10.4,0,15.5c-0.1,4.9-2.5,7.4-7.4,7.6
		C264.6,474.7,260.6,474.6,256.6,474.6C256.6,474.6,256.6,474.6,256.6,474.6z"/>
	<path class="st0" d="M154,474.6c-3.9,0-7.8,0.1-11.7,0c-5.2-0.1-7.7-2.5-7.8-7.6c-0.1-5-0.2-10.1,0-15.2c0.1-5,2.1-7.3,7-7.7
		c8.3-0.6,16.6-0.6,24.8,0c4.9,0.4,6.9,2.7,7.1,7.6c0.2,5.2,0.2,10.4,0,15.5c-0.2,4.7-2.7,7.1-7.4,7.3
		C162,474.7,158,474.6,154,474.6C154,474.6,154,474.6,154,474.6z"/>
	<path class="st18" d="M354.4,459.3c-4.1,0-8.3-0.1-12.4,0c-2.1,0.1-3.1-0.4-2.9-2.8c0.3-3.8-1.5-8.7,0.7-11.2
		c2.1-2.4,7.1-0.6,10.8-0.7c5.2-0.1,10.3-0.1,15.5,0c6.3,0.1,7.6,1.6,7.6,7.9c0,5.2-1.7,6.7-7.6,6.7
		C362.1,459.3,358.3,459.3,354.4,459.3z"/>
	<path class="st19" d="M649.2,444.9c4.6,7.2,9,14,13.6,21.3c-9.1,0-17.7,0-27.1,0C640.1,459.1,644.5,452.2,649.2,444.9z"/>
	<path class="st0" d="M44.7,444.5c4.1,0,8.3-0.1,12.4,0c3.4,0.1,5.2,1.7,5.3,5.3c0.2,8-0.8,9.1-9,9.1c-6.7,0-13.4-0.1-20.2,0
		c-2.1,0-3.1-0.6-2.9-2.8c0.2-3,0.2-6,0-8.9c-0.2-2.5,0.9-3.1,3.2-3c3.7,0.1,7.5,0,11.2,0C44.7,444.4,44.7,444.4,44.7,444.5z"/>
	<path class="st20" d="M83.3,466.1c4.4-7.5,8.4-14.3,12.7-21.6c4.1,7,7.9,13.4,11.7,19.8c0.8,1.3,0.4,1.8-1.1,1.8
		C99.1,466.1,91.6,466.1,83.3,466.1z"/>
	<path class="st17" d="M432,523.9c-2.5,0-4.9,0.1-7.4,0c-2.8-0.1-4.3-1.6-4.4-4.4c-0.1-3.4-0.1-6.7,0-10.1c0.1-3,1.9-4.5,4.7-4.6
		c4.8-0.1,9.6-0.1,14.4,0c2.7,0.1,4.3,1.7,4.4,4.4c0.1,3.2,0.1,6.5,0,9.7c-0.1,3.5-2,5.1-5.5,5C436.1,523.9,434,523.9,432,523.9
		C432,523.9,432,523.9,432,523.9z"/>
	<path class="st21" d="M363.6,518.4c-5.1,0-9.7,0-14.8,0c2.3-4.1,4.4-7.8,6.5-11.6c0.7-1.2,1.4-0.8,1.9,0.2
		C359.3,510.7,361.3,514.4,363.6,518.4z"/>
</g>
</svg>
