<?xml version="1.0" encoding="utf-8"?>
<!-- Generator: Adobe Illustrator 21.1.0, SVG Export Plug-In . SVG Version: 6.00 Build 0)  -->
<svg version="1.1" id="Layer_1" xmlns="http://www.w3.org/2000/svg" xmlns:xlink="http://www.w3.org/1999/xlink" x="0px" y="0px"
	 viewBox="0 0 700 965" style="enable-background:new 0 0 700 965;" xml:space="preserve">
<style type="text/css">
	.st0{display:none;fill:#FFFFFF;}
	.st1{fill:#FFFFFF;}
</style>
<g>
	<path class="st0" d="M10.6,261.5c223.9,0,447.9,0,671.9,0c0,165.6,0,331.3,0,497.1c-223.9,0-447.9,0-671.9,0
		C10.6,593,10.6,427.3,10.6,261.5z M335.2,484.4c-3-4.6-6.1-9.2-9.2-14.1c0.9-0.4,1.4-0.7,2-0.9c4.6-1.6,6.7-4.9,6.3-10.4
		c-0.3-4.8-2.9-8.2-7.5-8.5c-8-0.4-16-0.1-23.5-0.1c0,11.2,0,22.5,0,33.9c2.6,0,5.4,0,7.6,0c0-4.7,0-9.4,0-14.1
		c4.7-1.1,8.9-0.7,11.2,5.3c0.7,1.8,2.1,3.2,2.9,4.9c0.6,1.1,0.7,2.5,1.1,3.9C329,484.4,332.2,484.4,335.2,484.4z M378.3,484.3
		c2.9,0,6.3,0,9,0c-2.9-4.5-5.9-9.1-9-13.8c0.6-0.4,0.9-0.7,1.3-0.8c5.4-1.9,7.3-4.8,7-10.5c-0.3-5-2.7-8.2-8.1-8.5
		c-7.8-0.5-15.6-0.1-23-0.1c0,11.2,0,22.6,0,34c2.5,0,5.3,0,7.6,0c0-4.7,0-9.4,0-14.4c1.4,0,3,0.2,4.6,0c2.4-0.4,3.8,0.8,5,3
		c1.4,2.6,3.1,4.9,4.5,7.4C377.8,481.6,377.9,483,378.3,484.3z M405.5,467.1c-0.1,10.6,7,18,17.2,18.2c10.7,0.1,18.2-7.1,18.3-17.8
		c0.1-10.7-7.1-18.1-17.6-18.2C412.7,449.3,405.6,456.4,405.5,467.1z M204.3,450.5c0,11.2,0,22.5,0,33.9c2.4,0,5.3,0,7.6,0
		c0-4.7,0-9.4,0-14.1c5-0.3,10.3-0.3,15.5-0.9c4.7-0.5,7.3-4.3,7.3-9.4c0-5.2-2.6-9.1-7.3-9.4C219.6,450.2,211.8,450.5,204.3,450.5z
		 M269.7,450.1c-2.7,0-6,0-9,0c0,1.4,0.4,2.8-0.1,3.9c-4.3,10.2-8.7,20.4-13,30.4c2.6,0,5.6,0,8.6,0c-1.9-4,0.7-8.9,4.7-8.9
		c2.6,0,5.2,0,7.8,0c4.1,0,6.7,4.7,4.9,8.7c3.4,0,6.8,0,10.3,0c-0.9-1.3-1.8-2.4-2.3-3.7c-3.9-8.6-7.7-17.3-11.4-26
		C269.7,453.4,269.9,451.8,269.7,450.1z M469.3,455.9c0,9.6,0,19,0,28.5c2.4,0,5.3,0,7.6,0c0-9.6,0-19.1,0-28.4c3.7,0,7.5,0,11.5,0
		c0-2.1,0-4.5,0-6.5c-10.2,0-20.3,0-30.4,0c0,2.3,0,4.5,0,6.4C461.9,455.9,465.7,455.9,469.3,455.9z M235.7,479.8
		c0.1,3.8,1.4,5.4,3.7,5.4c2.1,0,3.4-1.5,3.5-3.9c0.1-2.7-1.4-4.4-3.6-4.1C237.8,477.3,236.5,479.1,235.7,479.8z M288.5,479.9
		c0.2,3.8,1.5,5.3,3.8,5.3c2.1-0.1,3.4-1.5,3.4-4c0-2.7-1.5-4.3-3.6-4C290.7,477.3,289.4,479.1,288.5,479.9z M340.8,482.4
		c0.9,0.7,2.1,2.5,3.6,2.7c2.2,0.3,3.6-1.4,3.6-4.1c0-2.5-1.4-3.9-3.5-3.9C342.3,477,340.9,478.5,340.8,482.4z M399.8,479.9
		c-0.9-0.7-2.1-2.6-3.5-2.8c-2.1-0.3-3.7,1.2-3.7,3.9c0,2.5,1.3,4,3.4,4.1C398.2,485.2,399.5,483.7,399.8,479.9z M446.6,479.7
		c0.1,3.8,1.4,5.4,3.6,5.4c2.1,0,3.5-1.4,3.5-3.9c0.1-2.7-1.4-4.4-3.6-4.1C448.8,477.3,447.5,479.1,446.6,479.7z"/>
	<path d="M323.4,509.4c-7.3,0-15.3,0-22.5,0c-0.9-3.4-1.3-6.8-2.7-9.6c-2.1-4.2-5.5-7.7-7.1-12c-5.6-14.8-16-15.8-27.7-13
		c0,11.6,0,23.1,0,34.8c-5.6,0-12.4,0-18.8,0c0-28,0-56,0-83.6c18.6,0,38.3-0.7,58,0.3c11.4,0.6,17.6,8.9,18.5,20.8
		c0.9,13.4-4.1,21.6-15.5,25.5c-1.4,0.5-2.8,1.2-5,2.2C308.5,486.7,316,498.1,323.4,509.4z M262.4,460.3c11.7,0,22.6,0.3,33.5-0.1
		c5.6-0.2,8.9-4.2,9.1-10.4c0.2-5.7-2.3-10.6-7.7-10.8c-11.6-0.6-23.2-0.2-34.9-0.2C262.4,446.2,262.4,452.7,262.4,460.3z"/>
	<path d="M429.6,509.1c-0.9-3.2-1.2-6.7-2.7-9.4c-3.4-6.3-7.7-12-11-18.3c-2.9-5.4-6.2-8.3-12.2-7.4c-3.9,0.6-8,0.1-11.4,0.1
		c0,12.5,0,23.9,0,35.5c-5.7,0-12.6,0-18.8,0c0-28.1,0-56.2,0-83.7c18.2,0,37.4-0.9,56.6,0.3c13.1,0.8,19,8.6,19.9,21
		c0.9,13.8-3.9,21-17.2,25.8c-0.9,0.3-1.7,1.1-3.1,2c7.6,11.6,15,23,22.2,34.1C445,509.1,436.8,509.1,429.6,509.1z M391.3,460.4
		c11.5,0,22.2,0.2,32.8-0.1c6-0.2,9.6-4.2,9.6-10.8c0.1-6.1-3-10.6-8.7-10.8c-11.1-0.4-22.3-0.1-33.8-0.1
		C391.3,446,391.3,452.7,391.3,460.4z"/>
	<path d="M496.6,466.7c0.2-26.4,17.8-43.8,44.1-43.7c25.7,0.1,43.5,18.5,43.3,44.7c-0.2,26.2-18.5,44.1-45,43.7
		C513.7,511.2,496.4,492.9,496.6,466.7z M540,496.2c16.1,0.1,27.5-11.9,27.5-29.1c0-16.8-11.1-28.6-27-28.8
		c-16-0.1-27.6,12.1-27.5,29.1C513.1,484.1,524.3,496.1,540,496.2z"/>
	<path d="M1,426c18.4,0,37.8-0.8,57,0.3c11.7,0.7,18,10.4,18,23.1c0,12.7-6.5,21.9-18,23.2c-12.8,1.4-25.7,1.5-38.2,2.2
		c0,11.7,0,23.2,0,34.8c-5.7,0-12.8,0-18.8,0C1,481.5,1,453.6,1,426z M18.8,460.2c11,0,21.6,0.3,32.3-0.1c5.4-0.2,8.1-4.5,8.2-10.4
		c0.1-6.2-2.7-10.7-8.4-11c-10.6-0.4-21.2-0.1-32-0.1C18.8,446.2,18.8,452.8,18.8,460.2z"/>
	<path d="M162.2,425c0.4,4-0.1,7.9,1.2,10.9c9.2,21.5,18.6,42.8,28.2,64c1.4,3.2,3.7,5.9,5.8,9.2c-8.4,0-16.9,0-25.3,0
		c4.3-10-2-21.5-12.2-21.5c-6.4,0-12.8,0-19.1,0c-9.9,0-16.3,12-11.6,21.9c-7.5,0-14.8,0-21.1,0c10.6-24.7,21.4-49.8,31.9-75
		c1.1-2.5,0.1-6.1,0.1-9.5C147.5,425,155.5,425,162.2,425z M162.7,475.6c-4-10-7.7-19.2-12.1-30.1c-4.6,11.3-8.4,20.4-12.3,30.1
		C146.6,475.6,153.7,475.6,162.7,475.6z"/>
	<path d="M654,439.3c-9.1,0-18.3,0-27.9,0c0-4.6,0-10.2,0-15.7c24.9,0,49.9,0,75,0c0,4.9,0,10.8,0,16.1c-9.6,0-19.2,0-28.2,0
		c0,23,0,46.4,0,70c-5.7,0-12.8,0-18.8,0C654,486.1,654,462.9,654,439.3z"/>
	<path d="M81.4,463.3c2.2-1.7,5.3-6.1,8.8-6.6c5.3-0.7,9,3.4,8.8,10c-0.1,6.1-3.5,9.7-8.6,9.7C84.9,476.6,81.6,472.7,81.4,463.3z"/>
	<path d="M211.6,463.5c2.2-1.8,5.2-6.2,8.8-6.7c5.3-0.8,9,3.3,9,9.9c0,6.1-3.4,9.7-8.5,9.9C215.3,476.7,212,472.8,211.6,463.5z"/>
	<path d="M340.5,469.7c0.1-9.5,3.5-13.2,9-13.2c5.1,0,8.5,3.5,8.6,9.7c0.1,6.5-3.5,10.8-8.9,10C345.7,475.8,342.5,471.4,340.5,469.7
		z"/>
	<path d="M485.6,463.7c-0.6,9.3-3.9,13.1-9.5,12.8c-5.1-0.2-8.4-3.9-8.4-10c0-6.7,4-10.5,9.1-9.7
		C480.4,457.4,483.4,461.9,485.6,463.7z"/>
	<g>
		<path d="M601,463.2c2.2-1.7,5.3-6,8.9-6.5c5.3-0.7,8.9,3.5,8.8,10.1c-0.2,6.1-3.6,9.7-8.7,9.6C604.4,476.5,601.2,472.6,601,463.2z
			"/>
	</g>
	<path class="st1" d="M262.4,460.3c0-7.7,0-14.1,0-21.6c11.8,0,23.4-0.4,34.9,0.2c5.3,0.3,7.8,5.2,7.7,10.8
		c-0.2,6.2-3.5,10.2-9.1,10.4C285,460.6,274.1,460.3,262.4,460.3z"/>
	<path class="st1" d="M391.3,460.4c0-7.7,0-14.4,0-21.8c11.5,0,22.7-0.3,33.8,0.1c5.7,0.2,8.8,4.7,8.7,10.8
		c-0.1,6.6-3.7,10.6-9.6,10.8C413.5,460.6,402.8,460.4,391.3,460.4z"/>
	<path class="st1" d="M540,496.2c-15.6-0.1-26.9-12.1-27-28.8c-0.1-17,11.5-29.2,27.5-29.1c15.9,0.1,26.9,11.9,27,28.8
		C567.5,484.2,556.1,496.3,540,496.2z"/>
	<path class="st1" d="M18.8,460.2c0-7.3,0-14,0-21.6c10.8,0,21.4-0.3,32,0.1c5.8,0.2,8.5,4.7,8.4,11c-0.1,5.8-2.8,10.1-8.2,10.4
		C40.5,460.5,29.8,460.2,18.8,460.2z"/>
	<path class="st1" d="M162.7,475.6c-9,0-16.1,0-24.4,0c4-9.7,7.7-18.8,12.3-30.1C155,456.4,158.7,465.6,162.7,475.6z"/>
</g>
</svg>
