<?xml version="1.0" encoding="utf-8"?>
<!-- Generator: Adobe Illustrator 21.1.0, SVG Export Plug-In . SVG Version: 6.00 Build 0)  -->
<svg version="1.1" id="Layer_1" xmlns="http://www.w3.org/2000/svg" xmlns:xlink="http://www.w3.org/1999/xlink" x="0px" y="0px"
	 viewBox="0 0 700 965" style="enable-background:new 0 0 700 965;" xml:space="preserve">
<style type="text/css">
	.st0{fill:#FFFFFF;}
</style>
<g>
	<path class="st0" d="M0,85.5h700v700H0V85.5z"/>
	<path d="M19.2,403.9v-38.1h10.2c5.9,0,12.1,0.1,17,3.7c4.9,3.5,7.4,9.3,7.4,15.2c0,5.5-2.1,10.3-6.3,14.1c-5,4.4-10.7,5.1-17,5.1
		L19.2,403.9L19.2,403.9z M19.2,409.5h11c7.6,0,15.7-1,21.7-5.9c5.4-4.4,8.2-11.8,8.2-18.5c0-7.3-2.9-14.4-8.8-19.3
		c-6.1-5-13.4-5.5-21-5.5H12.9V454h6.2V409.5z M106.4,422H72.8l16.9-40L106.4,422z M108.4,426.9l11.5,27.2h5.6l-35.9-85.5l-36,85.5
		h5.6l11.5-27.2L108.4,426.9L108.4,426.9L108.4,426.9z M145.5,454H140v-77.9h-22.2v-4.9h49.9v4.9h-22.2V454L145.5,454z M183,410
		v-33.9h3.5c5,0,10.9-0.2,15.4,1.9c6.2,2.6,9.2,8.8,9.2,15c0,5-1.9,9.9-6.1,13.1c-4.3,3.6-9.7,3.9-15.1,3.9L183,410L183,410z
		 M191.9,414.9c14.3,0.2,24.7-7.2,24.7-21.7c0-7.1-2.5-13.7-8.6-17.9c-5.8-4-12.7-4.1-19.7-4.1h-10.7V454h5.4v-39.2h2.7l28.1,39.2
		h6.3L191.9,414.9L191.9,414.9z M238.6,454h-5.4v-82.8h5.4V454L238.6,454z M309.8,449.2v4.9h-60.5l52.4-77.9h-47.4v-4.9h57
		l-52.4,77.9L309.8,449.2L309.8,449.2z M327.3,454h-5.4v-82.8h5.4V454L327.3,454z M389.9,422h-33.6l16.9-40L389.9,422z M392,426.9
		l11.5,27.2h5.6l-35.9-85.5l-36,85.5h5.6l11.5-27.2H392z M481.1,403.9v-38.1h10.2c5.9,0,12.1,0.1,17,3.7c4.9,3.5,7.4,9.3,7.4,15.2
		c0,5.5-2.1,10.3-6.3,14.1c-5,4.4-10.7,5.1-17,5.1L481.1,403.9L481.1,403.9L481.1,403.9z M481.1,409.5h11c7.6,0,15.7-1,21.7-5.9
		c5.4-4.4,8.2-11.8,8.2-18.5c0-7.3-2.9-14.4-8.8-19.3c-6.1-5-13.4-5.5-21-5.5h-17.2V454h6.2L481.1,409.5L481.1,409.5z M540,376.1
		v30.2h34.7v4.9H540v37.9h35.6v4.9h-41v-82.8h41v4.9L540,376.1L540,376.1z M597.8,409.9v-33.7h9c5.2,0,10.7,0.1,15.1,3.3
		c4.3,3.1,6.5,8.3,6.5,13.4c0,4.8-1.8,9.1-5.6,12.5c-4.4,3.9-9.5,4.5-15.1,4.5L597.8,409.9L597.8,409.9z M597.8,414.8h9.7
		c6.7,0,13.9-0.9,19.2-5.2c4.8-3.9,7.2-10.5,7.2-16.4c0-6.5-2.5-12.8-7.7-17.1c-5.4-4.4-11.9-4.8-18.6-4.8h-15.1V454h5.4V414.8z
		 M651.6,376.1v30.2h34.7v4.9h-34.7v37.9h35.6v4.9h-41v-82.8h41v4.9L651.6,376.1L651.6,376.1z M12.8,474.1v13.7h12.9v2.2H12.8v19.5
		h-2.5v-37.7h15.8v2.2H12.8z M119.8,509.6h-2.5v-37.7h2.5V509.6z M216.8,489.5v-15.4h1.6c2.3,0,4.9-0.1,7,0.8c2.8,1.2,4.1,4,4.1,6.8
		c0,2.3-0.9,4.5-2.7,6c-2,1.7-4.4,1.8-6.8,1.8H216.8z M220.9,491.7c6.5,0.1,11.2-3.3,11.2-9.9c0-3.2-1.1-6.2-4-8.1
		c-2.6-1.8-5.7-1.9-8.9-1.9h-4.9v37.7h2.5v-17.8h1.2l12.7,17.8h2.9L220.9,491.7L220.9,491.7z M325.1,474.1v13.7h15.8v2.2h-15.8v17.3
		h16.2v2.3h-18.7v-37.7h18.7v2.2H325.1z M467.2,510.8l-32.8-33.6v32.4h-2.5v-38.1l32.8,33.3v-32.9h2.5V510.8L467.2,510.8z
		 M582.5,507.3v2.3H555l23.9-35.4h-21.6v-2.2h25.9l-23.9,35.4L582.5,507.3L582.5,507.3z M673.5,474.1v13.7h15.8v2.2h-15.8v17.3h16.2
		v2.3H671v-37.7h18.7v2.2H673.5z"/>
</g>
</svg>
