<?xml version="1.0" encoding="utf-8"?>
<!-- Generator: Adobe Illustrator 21.1.0, SVG Export Plug-In . SVG Version: 6.00 Build 0)  -->
<svg version="1.1" id="Layer_1" xmlns="http://www.w3.org/2000/svg" xmlns:xlink="http://www.w3.org/1999/xlink" x="0px" y="0px"
	 viewBox="0 0 700 965" style="enable-background:new 0 0 700 965;" xml:space="preserve">
<style type="text/css">
	.st0{fill:#FDFDFD;}
	.st1{fill:#FEFEFE;}
	.st2{fill:#373435;}
	.st3{fill:#383536;}
	.st4{fill:#393637;}
	.st5{fill:#3E3B3C;}
	.st6{fill:#FCFCFC;}
</style>
<g>
	<path class="st0" d="M673.4,666.6c-216.4,0-432.7,0-649.1,0c-0.8-0.8-0.9-1.9-0.9-3c0-1.2,0-2.3,0-3.5c0-110.2,0-220.4,0-330.6
		c0-7.6,0-7.6,7.5-7.6c212,0,424,0,636,0c7.5,0,7.5,0,7.5,7.5c0,110.3,0,220.6,0,330.9C674.4,662.5,674.9,664.7,673.4,666.6z"/>
	<path class="st1" d="M18.6,666.6c-5.5,0-11,0-16.5,0c-1.2,0-1.7-0.2-1.5-1.5c0.1-0.4,0-0.8,0-1.2c0-120.3,0-240.7-0.1-361
		c0-2.5,0.7-2.7,2.9-2.7c230.5,0.1,461.1,0.1,691.6,0c2.2,0,2.9,0.2,2.9,2.7c-0.1,120.3-0.1,240.7,0,361c0,2.2-0.5,2.7-2.7,2.7
		c-5.3-0.2-10.6-0.1-16-0.1c-0.9-0.9-0.9-2.1-0.9-3.3c0-1.4,0-2.7,0-4.1c0-111.9,0-223.9,0-335.8c0-6.4,0.4-5.9-6-5.9
		c-215.6,0-431.1,0-646.7,0c-6.4,0-6-0.4-6,5.9c0,112.3,0,224.7,0,337C19.5,662.5,20,664.7,18.6,666.6z"/>
	<path class="st2" d="M18.6,666.6c-0.1-1.1-0.2-2.1-0.2-3.2c0-114.4,0-228.9-0.1-343.3c0-2.9,0.7-3.6,3.6-3.6
		c218,0.1,435.9,0.1,653.9,0c2.9,0,3.6,0.7,3.6,3.6c-0.1,114.4-0.1,228.9-0.1,343.3c0,1.1-0.1,2.1-0.2,3.2c-1.9,0-3.9,0-5.8,0
		c0-113.5,0-227,0.1-340.5c0-2.4-0.5-3-3-3c-214.4,0.1-428.8,0.1-643.2,0c-2.5,0-3,0.7-3,3c0.1,113.5,0.1,227,0.1,340.5
		C22.4,666.6,20.5,666.6,18.6,666.6z"/>
	<path class="st2" d="M392,479.9c-0.2,2.2-0.3,3.8,0.1,5.4c0.4,1.6,1.3,2.9,3.1,3c1.7,0.1,2.6-1,3.1-2.5c1.3-4.4,3.3-8.4,6.8-11.5
		c6.2-5.5,13.2-7.2,20.9-4.1c8.6,3.4,8.8,8.8,5.2,17c-1.4,3.2-4.4,5.1-7.2,7c-2.2,1.5-4.3,3-6.4,4.4c-1.8,1.2-1.5,2.6-0.1,3.8
		c2.3,1.9,4.9,2.8,7.8,1.8c7.4-2.3,11.7-7.6,13.9-14.8c2.4-7.6,10.3-13.6,18.2-13.6c2.3,0,4.6,0.1,7,0.2c1.5,0,2.8,0.5,4.1,1.3
		c1.3,0.8,2.1,1.8,1.9,3.6c-0.3,1.7-1.4,2.2-2.8,2.5c-4.2,1-8.4,2.1-12.7,2.7c-5.3,0.8-8.9,7.3-7.6,12.4c0.5,2.1,1.8,3.3,3.9,3.7
		c2,0.4,3.3-0.7,4-2.2c3-6.3,7.3-8.1,13.8-5.2c3.1,1.4,5.3-1.3,6.8-3.6c1.5-2.3,2.7-4.9,4-7.4c4.6-9.4,14.5-11.4,22.6-4.5
		c3.9,3.3,6.5,3.2,9.8-0.7c1.3-1.6,2.9-2.9,4.9-3.5c7.2-2.4,10.7-0.2,13.4,6.1c2.4,5.6,4.1,11.4,5.9,17.2c1.5,4.6,5.9,5.8,9.6,2.6
		c4-3.5,6.3-8.3,8.4-13.1c1.6-3.4,3.1-6.9,5.2-10c2.1-3.2,4.8-5.5,8.3-6.9c6.7-2.7,13.2-0.2,16.1,6.5c2.2,5,2.4,10.3,3,15.6
		c0.4,3.5,1.5,4.7,5.2,4.9c2.1,0.1,4.3,0.2,6.3,0.7c1.5,0.4,2.7,0.9,2.6,2.9c-0.2,2-1.6,1.8-2.9,2c-3.8,0.4-7.5,0.9-10.9,2.6
		c-1.8,0.9-3.5,2-4.9,3.6c-4.3,4.7-11.5,6.1-17.1,3.3c-2.3-1.1-3.5-3.3-4.7-5.4c-3.5-5.9-5.7-6.3-9.7-0.8
		c-5.3,7.5-12.8,5.6-17.8,0.6c-2.6-2.6-4.4-5.9-6.2-9c-1.1-1.9-2.4-3.8-3.9-5.4c-2.2-2.4-3.8-2.2-5.9,0.4c-1.7,2.2-2,5-2.6,7.6
		c-0.5,2.1-1.1,4.1-2.5,5.8c-2.1,2.3-4.5,2-5.7-0.9c-1.4-3.5-2.6-7.1-4-10.6c-1.4-3.5-3.4-6.7-6.8-8.7c-3.1-1.8-5.4-1.3-7.5,1.6
		c-0.8,1.1-1.3,2.4-1.6,3.7c-1.5,5.9-2.8,11.9-5.1,17.5c-1.9,4.5-4,5-7.6,1.9c-1.5-1.3-3.1-2.6-4.6-4c-2.2-2-5-2.2-7.3-0.5
		c-1.6,1.2-3.2,2.5-4.8,3.7c-3.5,2.6-7.1,2.7-10.8,0.4c-5.2-3.3-10.3-3.2-15.5,0.1c-2.8,1.8-5.9,2.5-9.2,2c-7.3-1-14-3.4-19.3-9
		c-1.7-1.8-3.7-2.7-6.1-2.8c-2.5-0.2-4.3,0.7-4.9,3.4c-1.6,6.6-3.5,13-5.6,19.4c-2.5,7.8-6.2,15-10.7,21.7
		c-4.7,7-12.2,9.7-20.4,10.6c-7.9,0.8-14.8-1.2-20.3-7c-2.8-2.9-4.1-6.3-4.5-10.4c-0.5-5.1-1.2-10.1,0.1-15.2
		c1.5-5.7,4.2-10.2,8.8-14.2c6.2-5.3,13.7-7.3,20.7-10.5c0.9-0.4,1.8-0.8,2.6-1.2c3.6-1.9,3.9-4.5,1.1-7.3c-2-2-4.1-3.9-5.9-6
		c-8-9.1-12.4-19.7-12.8-31.9c-0.3-7.6,3.4-15.6,10.9-18.3c8-2.9,16.9-1.4,22.6,5c5.9,6.7,10,14.3,11.1,23.4
		c0.5,3.8,1.4,7.6,2.4,11.3C391.9,476.1,392.3,478.2,392,479.9z"/>
	<path class="st2" d="M175.3,486.8c-0.4-6.3,0.7-12.1,6.8-15.1c7-3.5,14.5-5.3,21.9-0.8c6.1,3.7,7.4,11.7,3,17.8
		c-2.1,2.9-4.6,5.5-6.8,8.3c-1.8,2.3-1.2,3.8,1.8,4.2c1.3,0.2,2.4-0.1,3.6-0.6c5.4-2.6,9.7-6.6,13.9-10.8c4.1-4.1,8.1-8.3,12.8-11.7
		c7.2-5.2,14.7-5.2,22.5-1.8c10.5,4.5,16.1,12.6,17.3,23.8c0.2,2.1,1.3,3.2,3,3.7c2.1,0.7,4.1-0.3,5.6-1.6c1.5-1.2,0.5-2.9,0-4.3
		c-2.6-6.6-2.2-13.2,1-19.4c2.7-5.2,7-8.4,13.3-8c4.4,0.3,8.9-0.6,12.8,2.7c4.7,4,6.6,8.9,5.7,14.9c-0.7,4.3-1.9,8.4-5.3,11.6
		c-0.7,0.6-1.5,1.4-1,2.5c0.5,1.1,1.6,1.3,2.7,1.4c3.5,0.2,6.6-1.2,9.7-2.6c2-0.9,4.1-1.9,5.8,0.3c1.7,2.2,1,4.4-0.6,6.3
		c-3,3.6-7.1,5.3-11.7,5.7c-3.8,0.4-7.7,0.3-11.2-1.1c-6.2-2.5-12.3-2.1-18.5-0.4c-10.6,3-21.3,1.5-32,1.2c-5.1-0.1-7,1-7.1,6
		c0,5.2,0.1,10.5-0.1,15.7c-0.2,6.3-3.1,11.3-8.4,14.7c-6.3,3.9-12.7,2.2-15.2-5.1c-2.9-8.6-4.7-17.6-3-26.8c0.6-3.3,0.6-6.7,1-10.1
		c0.2-2.3-0.8-3-3-2.5c-2.7,0.7-5.4,1.6-7.8,2.9c-9.7,5.5-18.4,3.5-26.3-3.5c-2.7-2.4-5.6-3.6-9.1-4c-1.9-0.2-3.8-0.7-5.6-1.3
		c-1.1-0.4-2.2-1.1-1.7-2.6c0.4-1.3,1.4-1.7,2.7-1.7c7.8,0.1,7.8,0.1,7.5-7.6C175.3,487,175.3,486.9,175.3,486.8z"/>
	<path class="st2" d="M114.3,480c0.5-19.3,7.7-36,19.4-51.1c2-2.5,3.9-4.9,4.2-8.3c0.2-2.2,1.5-3,3.9-2.5c8.2,1.7,16.6,1.2,24.8,2.4
		c10.5,1.5,18.3,7.3,23.3,16.3c5.2,9.4,3.3,22.1-8.9,29.5c-5.1,3.1-10.7,5.1-16.6,5.8c-7.1,0.8-8.6,5.8-7.6,11.4
		c2.1,12.3-5.6,27.4-20.3,28.1c-7.8,0.4-16.2-5-18.9-12.6C115.5,492.9,114.1,486.6,114.3,480z"/>
	<path class="st3" d="M341.4,588.2c0-2.9,0-5.8,0-8.7c0-1.7-0.3-3.1,2.4-3.1c2.5,0,2.5,1.1,2.5,3c-0.1,4.5,0,9.1-0.1,13.6
		c0,1,0.7,2.8-0.8,3c-1.7,0.2-3.8,1-5.3-1.1c-2.6-3.5-5.4-7-8.7-11.1c0,3.9-0.1,7.1,0,10.3c0.1,2.1-1.1,2-2.5,2
		c-1.5,0-2.6,0.1-2.6-2c0.1-4.7,0-9.5,0.1-14.2c0-1.1-0.8-3,0.8-3.3c1.8-0.3,4-0.9,5.5,1.2c2.6,3.6,5.3,7,8,10.5
		C341.1,588.3,341.2,588.3,341.4,588.2z"/>
	<path class="st3" d="M407.5,583.8c0,3.8-0.1,6.7,0,9.5c0.1,2-0.3,2.9-2.6,2.9c-2.6,0-2.5-1.3-2.4-3.1c0.1-4.5,0-9.1,0.1-13.6
		c0-1-0.8-2.7,0.9-2.9c1.7-0.2,3.6-0.9,5,1c2.7,3.6,5.6,7.1,8.9,11.4c0-3.9,0.1-7.1,0-10.2c-0.1-2.1,0.9-2.3,2.6-2.3
		c1.8-0.1,2.3,0.5,2.3,2.3c-0.1,4.7,0,9.5-0.1,14.2c0,1.1,1,2.9-0.9,3.1c-1.8,0.2-3.8,0.8-5.3-1.2
		C413.3,591.3,410.6,587.9,407.5,583.8z"/>
	<path class="st3" d="M386.8,596.5c-8.5,0-13.5-6-11.2-13.4c1.8-5.7,8.6-8.4,15.8-6.3c5.5,1.6,8.4,6.8,6.9,12.5
		C397.1,593.9,393,596.5,386.8,596.5z"/>
	<path class="st3" d="M311,596.5c-8.4,0-13-5-11.6-12.4c0.4-1.9,1.2-3.4,2.5-4.8c3.5-3.5,11-4.2,16-1.5c3.7,2,5.5,6.5,4.4,11.3
		C321.3,593.8,317.2,596.5,311,596.5z"/>
	<path class="st4" d="M351.2,586.3c0-2.6,0.1-5.2,0-7.8c-0.1-1.6,0.5-2,2-2c3.2,0.1,6.4,0,9.6,0.1c5.7,0.3,8.7,3.5,8.9,9.3
		c0.2,5.9-2.8,9.6-8.4,10.1c-3.5,0.3-6.9,0.1-10.4,0.1c-1.3,0-1.7-0.6-1.6-1.8C351.2,591.7,351.2,589,351.2,586.3z"/>
	<path class="st5" d="M279.2,586.2c0-2.5,0.1-5,0-7.5c-0.1-1.9,0.6-2.3,2.3-2.2c1.6,0.1,2.8,0,2.6,2.2c-0.2,3.6,0.1,7.1-0.1,10.7
		c-0.1,2.5,0.4,3.5,3.1,3.2c2.4-0.3,4.8,0,7.2-0.1c1.2,0,2.3-0.1,2.2,1.7c0,1.6-0.7,1.9-2.1,1.9c-4.4-0.1-8.9-0.1-13.3,0
		c-1.8,0.1-2.1-0.7-2-2.2C279.3,591.4,279.2,588.8,279.2,586.2z"/>
	<path class="st1" d="M377.9,509.3c-1.2,5-2.1,11.2-5.4,16.7c-3.5,5.8-6.3,12.1-11.1,17.2c-4.8,5.1-10,5.7-16.2,3.3
		c-5.9-2.2-7.9-6.9-8.9-12.5c-0.2-1.1,0.3-2.1,0.8-3c1.3-2.8,3-5.4,5.1-7.7c7-7.7,14.8-14.4,24.6-18.3c1.9-0.8,3.8-1.4,5.8-1.6
		C376.9,503,378,504,377.9,509.3z"/>
	<path class="st1" d="M379.6,478.1c0,2.8,0.1,5.6,0,8.4c-0.1,1.5-0.6,2.9-2.1,3.6c-1.5,0.7-2.5-0.2-3.7-1c-9-6.2-15-14.7-18.3-25
		c-1.8-5.8-1.9-12-0.5-18c0.9-4,5.5-6.2,9.4-4.8c3.9,1.3,6.9,3.8,9,7.3c4.5,7.6,6.1,16,6.3,24.7c0,1.6,0,3.3,0,4.9
		C379.7,478.1,379.7,478.1,379.6,478.1z"/>
	<path class="st0" d="M570.2,496.5c-7.9-0.5-8.1-0.7-5.8-8c0.8-2.6,1.5-5.4,3.7-7.4c2.3-2.1,4.4-1.8,5.9,0.8
		c2.2,3.9,2.2,8.2,1.2,12.4C574.7,496.7,572.2,496.9,570.2,496.5z"/>
	<path class="st0" d="M414.3,487c-3.6,0-4.9-1.7-4.2-4.8c0.9-3.8,3.2-6.3,6.9-7.4c1.9-0.6,3.8-0.2,5.3,1.4c1.6,1.7,0.8,3.4-0.1,5.1
		C420.5,484.6,417.9,486.8,414.3,487z"/>
	<path class="st1" d="M240.7,493c0.1-2.6,0-4.6,1.3-6.4c2.4-3.2,5.7-2.9,10.6-0.1c1.1,0.6,2.1,1.7,3,2.7c3.1,3.2,4,7.1,2.4,10
		c-1.9,3.4-7.2,5.8-11,5c-2.1-0.5-3.4-2.2-4.4-4C241.4,497.8,240.5,495.2,240.7,493z"/>
	<path class="st0" d="M225.8,530.1c0.4-4.5,0.3-9.1,1.1-13.5c0.3-1.8,1-3.5,2-5.1c0.8-1.3,1.8-2.3,3.5-2.1c1.7,0.3,2.4,1.4,2.7,3
		c0.3,1.5,0.6,3,0.6,4.6c0.1,5.1,0.8,10.2,0.1,15.3c-0.2,1.3-0.4,2.7-0.8,3.9c-0.7,2.1-1.8,4.1-4.4,3.8c-2.7-0.3-3.9-2.4-4.4-4.7
		C225.8,533.6,225.9,531.8,225.8,530.1z"/>
	<path class="st1" d="M303.8,484.7c0.1,4.5-1.9,8-5.5,10.5c-3,2.1-5.7,1.1-6.4-2.6c-0.7-3.4-0.1-6.7,0.8-10c0.4-1.6,1.5-3.1,3.3-3.8
		C301.1,476.7,303.7,478.6,303.8,484.7z"/>
	<path class="st0" d="M198.3,481.7c0,4.6-3.9,10.2-7.9,11.7c-2.3,0.9-3.8-0.3-4.1-2.3c-0.7-4.6-0.1-9.1,2.3-13c1.2-2,3.4-3.3,6-2.4
		C197.8,476.7,197.8,479.6,198.3,481.7z"/>
	<path class="st1" d="M147,483.9c0.2,3-0.7,7.1-1.8,11.3c-1.2,4.7-4.7,6.9-8.9,8.3c-1.7,0.6-3.4,0.2-4.9-1
		c-3.6-3.2-6.3-6.9-7.4-11.8c-1.6-7.3-1-14.4,0.3-21.6c1.1-6,2.6-11.9,4.9-17.5c1.2-2.9,2.9-5.5,5.8-7c1.8-0.9,3.7-0.7,4.3,1.3
		C142.5,458,146.9,469.8,147,483.9z"/>
	<path class="st1" d="M149.2,434.4c-0.6-6.5,4.1-9.3,10-8.7c6.8,0.6,13.1,2.4,17.9,7.7c4.7,5.1,5.4,9.5,2,15.6
		c-4.9,8.6-12.2,14-21.9,16.2c-2.3,0.5-3.8-0.6-4-2.6c-0.9-8.6-3.4-16.9-3.9-25.5C149.4,436.3,149.3,435.6,149.2,434.4z"/>
	<path class="st0" d="M380.1,586.2c0-4.3,2.5-6.7,6.9-6.7c4.3,0,6.6,2.4,6.7,6.6c0,4.3-2.5,6.8-6.8,6.8
		C382.5,593,380.1,590.6,380.1,586.2z"/>
	<path class="st0" d="M317.7,586.4c0,4.3-2.5,6.7-6.9,6.6c-4.2-0.1-6.6-2.5-6.6-6.7c0-4.3,2.5-6.8,6.9-6.8
		C315.4,579.6,317.8,581.9,317.7,586.4z"/>
	<path class="st6" d="M356.1,586.4c0-0.4-0.1-0.8,0-1.2c0.6-1.9-2-5.5,3-5.3c6,0.3,7.7,1.4,7.7,6.1c0,5.3-5.5,8.8-10,6.4
		c-0.7-0.3-0.6-0.9-0.6-1.5C356.1,589.5,356.1,588,356.1,586.4z"/>
</g>
</svg>
