<?xml version="1.0" encoding="utf-8"?>
<!-- Generator: Adobe Illustrator 21.1.0, SVG Export Plug-In . SVG Version: 6.00 Build 0)  -->
<svg version="1.1" id="Layer_1" xmlns="http://www.w3.org/2000/svg" xmlns:xlink="http://www.w3.org/1999/xlink" x="0px" y="0px"
	 viewBox="0 0 700 965" style="enable-background:new 0 0 700 965;" xml:space="preserve">
<style type="text/css">
	.st0{fill:#FDFDFD;}
	.st1{fill:#DD372C;}
	.st2{fill:#18171F;}
	.st3{fill:#181720;}
	.st4{fill:#FEFEFE;}
</style>
<g>
	<path class="st0" d="M350.4,628.5c-116.1,0-232.2,0-348.4,0c-1.4,0-1.7-0.3-1.7-1.7c0-95.8,0-191.5,0-287.3c0-1.4,0.3-1.7,1.7-1.7
		c232.2,0,464.5,0,696.7,0c1.4,0,1.7,0.3,1.7,1.7c0,95.8,0,191.5,0,287.3c0,1.4-0.3,1.7-1.7,1.7
		C582.6,628.5,466.5,628.5,350.4,628.5z"/>
	<path class="st1" d="M292.8,519.2c-23.4-0.2-42.5-19.1-42.6-42.6c-0.2-24.8,19.5-43.3,42.9-43.4c23.9-0.1,43.3,19.4,43.1,43.4
		C335.9,500.3,316.5,519.4,292.8,519.2z"/>
	<path class="st1" d="M350.9,432.2c-23.8,0-43.1-19.1-43.1-42.8c-0.1-24.3,19.6-43,42.5-43.2c24.1-0.2,43.5,19.4,43.4,43.1
		C393.6,413.1,374.7,432,350.9,432.2z"/>
	<path class="st1" d="M451.8,474.1c0.2,23.8-20,43.2-43.7,42.7c-23.6-0.5-42.6-19.9-42.2-43.8c0.4-23.3,19.7-42.6,43.8-42.1
		C433.2,431.3,452.1,450.5,451.8,474.1z"/>
	<path class="st2" d="M394.2,572.4c7.1,0,14.2,0,21.3,0c1.4,0,1.8,0.4,1.7,1.7c-0.1,2.2-0.1,4.5,0,6.7c0.1,1.4-0.3,1.8-1.8,1.8
		c-14-0.1-28.1,0-42.1-0.1c-1.8,0-2,0.6-1.8,2.1c0.9,6.6,0.3,5.4,5.6,6c9.2,1,18.4,0.8,27.6,0.4c6.7-0.3,13.3-0.9,19.9-1.9
		c1.2-0.2,1.8,0,1.7,1.4c-0.1,2.2,0,4.4,0,6.6c0,0.8-0.1,1.2-1.1,1.5c-3.9,0.8-7.9,1.3-11.8,1.7c-11.1,1.1-22.3,0.9-33.5,0.4
		c-3.6-0.2-7.1-0.4-10.6-1.3c-3.8-0.9-5.9-3.2-7-6.8c-3.1-10-2.8-20,0.1-29.9c1.1-3.8,3.8-5.7,7.6-6.4c7.8-1.5,15.6-1.8,23.5-1.9
		c10.4-0.1,20.7,0.5,31.1,1.1c1.2,0.1,1.7,0.4,1.6,1.7c-0.1,2.2-0.1,4.5,0,6.7c0,0.9,0,1.3-1.2,1.2c-14-1.7-28.1-1.8-42.2-0.9
		c-3.1,0.2-6.3,0.7-9.4,1.1c-0.8,0.1-1.2,0.5-1.5,1.2c-0.1,0.3-0.2,0.6-0.3,0.9c-1.4,4.9-1.3,5,3.7,5
		C381.7,572.4,388,572.4,394.2,572.4z"/>
	<path class="st2" d="M133.9,572.4c7.1,0,14.2,0,21.3,0c1.2,0,1.7,0.2,1.7,1.6c-0.1,2.4-0.1,4.7,0,7.1c0.1,1.3-0.3,1.6-1.6,1.6
		c-11.8-0.1-23.7,0-35.5,0c-2.4,0-4.9,0.1-7.3,0c-1.1,0-1.3,0.3-1.3,1.3c0,5.5,0.6,6.2,5.9,6.7c8.5,0.8,17.1,0.8,25.7,0.4
		c7.3-0.3,14.6-0.9,21.9-2c1-0.1,1.5-0.1,1.4,1.1c-0.1,2.3-0.1,4.6,0,6.9c0,0.9-0.2,1.3-1.2,1.4c-3.9,0.8-7.8,1.3-11.7,1.7
		c-11.3,1.2-22.7,0.9-34,0.4c-3.6-0.2-7.3-0.3-10.8-1.4c-3.2-1-5.2-2.9-6.2-6.2c-3.2-10.3-3-20.5,0-30.8c1.1-3.8,4-5.3,7.5-6
		c6.7-1.3,13.5-1.8,20.3-1.9c7.8-0.1,15.7,0,23.5,0.4c3.7,0.2,7.4,0.5,11.1,0.7c0.9,0.1,1.4,0.2,1.4,1.3c-0.1,2.4,0,4.9,0,7.3
		c0,0.8-0.1,1.1-1.1,1c-14.3-1.8-28.6-1.7-42.9-0.9c-2.9,0.2-5.8,0.7-8.7,1c-0.8,0.1-1.3,0.5-1.5,1.1c-0.6,1.7-0.9,3.4-0.9,5.2
		c0,1.2,0.9,0.7,1.4,0.7c6.6,0,13.2,0,19.9,0C132.7,572.4,133.3,572.4,133.9,572.4z"/>
	<path class="st2" d="M568.9,582.6c-7.1,0-14.2,0-21.3,0c-1.2,0-1.6,0.3-1.5,1.5c0.7,6.9-0.2,6,5.9,6.5c12.7,1.1,25.5,0.9,38.2-0.4
		c3.1-0.3,6.2-0.6,9.2-1.1c1-0.2,1.4,0.1,1.4,1.2c-0.1,2.2-0.1,4.5,0,6.7c0,1.1-0.3,1.5-1.3,1.7c-3.8,0.7-7.7,1.2-11.5,1.6
		c-11.2,1.1-22.4,0.9-33.7,0.3c-3.1-0.2-6.3-0.3-9.4-1c-4.5-0.9-7-3.5-8.2-7.8c-2.8-9.8-2.6-19.5,0.3-29.2c1.1-3.7,3.6-5.5,7.2-6.3
		c6.7-1.3,13.5-1.8,20.3-2c11.6-0.3,23.2,0.4,34.8,1.1c1.1,0.1,1.4,0.4,1.4,1.5c-0.1,2.3-0.1,4.6,0,6.9c0,0.9-0.2,1.3-1.2,1.1
		c-11.8-1.5-23.6-1.5-35.5-1.2c-5.2,0.1-10.4,0.6-15.6,1.4c-1.1,0.2-1.7,0.6-2,1.7c-0.3,1.3-0.5,2.6-0.7,3.9
		c-0.1,1.2,0.3,1.4,1.4,1.4c5.7-0.1,11.4,0,17.1,0c8.6,0,17.3,0,25.9,0c1.4,0,1.8,0.3,1.7,1.7c-0.1,2.2-0.1,4.5,0,6.7
		c0.1,1.4-0.3,1.8-1.7,1.8C583,582.6,576,582.6,568.9,582.6z"/>
	<path class="st3" d="M448.8,578.8c0-6.7,0-13.5,0-20.2c0-1.4,0.4-1.8,1.8-2c13.6-1.6,27.3-2.4,41-1.8c5.3,0.3,10.6,0.6,15.9,1.6
		c3.8,0.7,6,2.8,6.8,6.6c0.9,4.2,1,8.4-0.2,12.6c-0.8,2.8-2.3,4.9-5.1,6c-0.6,0.3-1.2,0.5-1.8,0.8c-1.8,0.8-2,1.2-0.9,3
		c2.7,4.7,5.3,9.3,8.1,13.9c0.9,1.4,0.2,1.4-0.9,1.4c-3,0-6.1-0.1-9.1,0c-0.9,0-1.3-0.3-1.8-1.1c-2.8-4.9-5.7-9.7-8.5-14.5
		c-0.4-0.7-1-0.8-1.6-0.8c-10.3,0-20.6,0-31,0c-1.2,0-1.4,0.4-1.4,1.5c0.1,4.5,0,9,0.1,13.5c0,1.2-0.4,1.6-1.5,1.6
		c-2.9-0.1-5.8-0.1-8.7,0c-1,0-1.3-0.3-1.3-1.3c0.1-6.9,0-13.7,0-20.6C448.7,578.8,448.8,578.8,448.8,578.8z"/>
	<path class="st3" d="M11.8,578.8c0-6.7,0-13.5,0-20.2c0-1.4,0.5-1.8,1.8-2c13.9-1.6,27.9-2.4,42-1.7c5,0.3,10,0.6,15,1.5
		c3.1,0.6,5.4,2.2,6.4,5.3c1.5,5,1.7,10-0.2,15c-1.2,3.3-3.7,5-7,5.6c-10.7,2.2-21.6,2.4-32.4,1.5c-4.2-0.3-8.3-0.6-12.5-0.9
		c-1.3-0.1-1.7,0.2-1.6,1.5c0.1,4.9,0,9.7,0.1,14.6c0,1.3-0.2,1.9-1.7,1.8c-2.8-0.1-5.6-0.1-8.4,0c-1.2,0-1.5-0.3-1.5-1.5
		C11.7,592.4,11.7,585.6,11.8,578.8C11.7,578.8,11.7,578.8,11.8,578.8z"/>
	<path class="st3" d="M221.6,600.8c-6.5-0.3-13-0.4-19.5-0.8c-2.5-0.2-5.1-0.4-7.5-1.4c-2.7-1.2-4.2-3.1-5-5.8
		c-3.3-10.9-3.4-22-1-33.1c0.2-0.7,0.4-1.4,0.6-2.1c0.9-3.1,0.9-3.1,4.1-3.1c2,0,4,0,6,0c1,0,1.2,0.2,0.9,1.2
		c-1.9,8.6-2.9,17.3-2.3,26.2c0.1,2.1,0.6,4.2,1.1,6.3c0.3,1.3,1.2,1.9,2.6,2.1c12.1,1.3,24.2,1.2,36.4,0.4c1.3-0.1,2.5-0.3,3.8-0.4
		c1.1-0.1,1.7-0.7,2.1-1.7c1.3-4,1.5-8.1,1.5-12.2c0-6.9-1.1-13.6-2.5-20.4c-0.2-1.1,0-1.5,1.2-1.4c2.5,0.1,5.1,0.1,7.7,0
		c1.2-0.1,1.6,0.5,1.9,1.5c2.4,8.3,3,16.7,2.3,25.2c-0.4,4.3-1.3,8.4-2.6,12.4c-1.1,3.4-3.7,5.1-7.1,5.7c-5.9,1.2-11.8,1-17.8,1.3
		c-2.2,0.1-4.5,0-6.7,0C221.6,600.7,221.6,600.7,221.6,600.8z"/>
	<path class="st3" d="M618.6,554.5c5.4,0,10.5,0,15.7,0c1.2,0,2,1.1,2.8,1.8c5.9,4.6,11.8,9.2,17.7,13.9c0.9,0.7,1.7,0.6,2.5,0
		c6.4-5,12.9-10,19.3-15.1c0.3-0.3,0.6-0.6,1.1-0.6c5.2,0,10.4,0,15.7,0.4c-2.4,1.8-4.7,3.7-7.1,5.5c-8,6.3-16.1,12.6-24.1,18.9
		c-0.7,0.6-1,1.2-1,2.2c0,5.8,0,11.5,0.1,17.3c0,1.3-0.4,1.5-1.5,1.5c-2.4-0.1-4.7-0.1-7.1,0c-1.4,0.1-1.9-0.3-1.9-1.8
		c0.1-5.6,0-11.3,0.1-16.9c0-1-0.2-1.6-1-2.1c-6.6-5.2-13.2-10.4-19.8-15.6c-3.7-2.9-7.3-5.7-11-8.6
		C619,555.1,618.9,554.9,618.6,554.5z"/>
	<path class="st3" d="M309.1,555.7c10.4,0,20.8,0,31.1,0c1.3,0,1.8,0.3,1.7,1.7c-0.1,2-0.1,4,0,6c0.1,1.4-0.4,1.7-1.7,1.7
		c-8-0.1-16,0-24-0.1c-1.7,0-2,0.4-2,2c0.1,10.5,0,21,0.1,31.5c0,1.3-0.3,1.8-1.7,1.7c-2.4-0.1-4.7-0.1-7.1,0
		c-1.3,0.1-1.6-0.4-1.6-1.6c0.1-10.6,0-21.1,0.1-31.7c0-1.6-0.5-1.9-1.9-1.9c-8,0.1-16,0-24,0.1c-1.4,0-1.8-0.3-1.7-1.7
		c0.1-2.1,0.1-4.1,0-6.2c-0.1-1.3,0.4-1.6,1.6-1.6C288.3,555.7,298.7,555.7,309.1,555.7C309.1,555.7,309.1,555.7,309.1,555.7z"/>
	<path class="st4" d="M481.8,574.2c-6.7,0-13.3,0-20,0c-1.3,0-1.7-0.4-1.6-1.6c0.1-1.9,0-3.8,0-5.6c0-0.8,0.1-1.3,1.1-1.4
		c10.1-1.2,20.2-1.8,30.3-1.3c3.5,0.2,7,0.6,10.5,1.3c0.9,0.2,1.3,0.5,1.4,1.3c0.3,2,0.5,4,0.4,6c0,1.2-0.5,1.4-1.5,1.4
		C495.5,574.2,488.6,574.2,481.8,574.2C481.8,574.2,481.8,574.2,481.8,574.2z"/>
	<path class="st4" d="M43.7,574.4c-6-0.2-12.6-0.1-19.1-1.6c-1.2-0.3-1.4-0.8-1.4-1.8c0.1-1.6-0.5-3.6,0.2-4.8
		c0.8-1.2,3-0.7,4.6-0.9c12-1.3,23.9-1.8,35.9,0.1c1.7,0.3,2.4,0.9,2.7,2.6c0.7,3.9,0.3,4.6-3.7,5.2
		C56.8,574.1,50.5,574.2,43.7,574.4z"/>
</g>
</svg>
