<?xml version="1.0" encoding="utf-8"?>
<!-- Generator: Adobe Illustrator 21.1.0, SVG Export Plug-In . SVG Version: 6.00 Build 0)  -->
<svg version="1.1" id="Layer_1" xmlns="http://www.w3.org/2000/svg" xmlns:xlink="http://www.w3.org/1999/xlink" x="0px" y="0px"
	 viewBox="0 0 900 596" style="enable-background:new 0 0 900 596;" xml:space="preserve">
<style type="text/css">
	.st0{fill:#FEFEFE;}
	.st1{fill:#35425F;}
</style>
<g>
	<path class="st0" d="M450.5,447.3c-148.2,0-296.3,0-444.5,0.1c-4,0-5.1-0.7-5.1-4.9c0.1-95.6,0.1-191.1,0-286.7
		c0-3.5,0.4-4.6,4.3-4.6c297.2,0.1,594.4,0.1,891.6,0c3.3,0,4.2,0.6,4.2,4.1c-0.1,95.9-0.1,191.9,0,287.8c0,4-1.2,4.3-4.6,4.3
		C747.9,447.2,599.2,447.3,450.5,447.3z"/>
	<path class="st1" d="M450.6,348.2c-16.7,0-33.4,0-50,0c-2.9,0-5-0.5-6.7-3.3c-10.6-17.1-21.3-34.1-32-51.1
		c-6.5-10.3-13.1-20.5-19.8-30.7c-1.2-1.8-1-3.4,0.1-5.2c16.6-27.3,33.1-54.6,49.6-81.9c1.8-3,3.8-4.3,7.6-4.3
		c32.8,0.2,65.6,0.2,98.4,0c3.4,0,5.4,0.8,7.3,3.9c17,27.4,34.2,54.8,51.6,82c1.5,2.3,0.6,3.4-0.3,4.9
		c-9.1,15.3-18.2,30.6-27.4,45.8c-7.4,12.2-15.1,24.3-22.3,36.6c-1.6,2.7-3.3,3.2-6,3.2C484,348.2,467.3,348.2,450.6,348.2z"/>
	<path class="st1" d="M175.4,434.5c-0.7,2-1.4,2.9-2.6,2.9c-4.3,0.1-8.7,0.1-13,0c-0.9,0-1.9,0-2-1.2c-0.1-1,0.1-2,1.3-1.9
		c3.6,0.4,3-2.1,3-4.2c0-0.7,0-1.4,0-2.2c0-13.3,0-13.2-13.4-12.3c-2.4,0.2-3.1,1-3,3.2c0.1,4,0.1,8,0,12c0,1.8-0.3,3.8,2.6,3.5
		c1.4-0.1,1.8,0.8,1.7,2.1c-0.2,1.3-1.2,1.1-2,1.1c-4,0-8,0-12,0c-1.4,0-2.8-0.5-3.1-1.7c-0.5-2.2,1.4-1.5,2.5-1.6
		c2-0.3,2.7-1.5,2.7-3.3c0-10.3,0-20.6,0-31c0-1.6-0.1-2.9-2.2-2.7c-1.6,0.1-2.8-0.5-3.2-2.8c5.3-1,10.6-0.3,15.9-0.4
		c0.7,0,1.5,0.3,1.4,1.2c-0.1,0.6-0.5,1.8-0.7,1.8c-5.6-0.2-3.4,4-3.5,6.5c-0.2,9-0.1,9,8.9,9c7.3,0,7.6,0,7.1-7.5
		c-0.2-2.7,3.1-7.8-3.5-8.1c-0.2,0-0.6-1.2-0.6-1.8c-0.1-1,0.8-1.1,1.5-1.1c4.7,0,9.4,0,14.1,0c0.7,0,1.5,0.1,1.5,1
		c0,1-0.7,2-1.5,1.9c-4.8-0.3-3.7,3.1-3.7,5.8c0,8.3,0.2,16.7-0.1,25C169.6,431.8,169.8,435,175.4,434.5z"/>
	<path class="st1" d="M705.2,405c-2.7-0.9-2.8-2.6-3.2-4c-0.8-2.9-2.6-3.8-5.5-3.9c-11-0.3-12.9,2-10.9,13.3c0.3,1.7,1,1.9,2.4,2
		c2.6,0.2,4.1-1,5.2-3.1c0.6-1.2-0.8-3.8,2.1-3.3c2.3,0.4,1.2,2.7,1.2,4c0.2,3.6,0.1,7.3,0,10.9c0,1,0.2,2.3-1.4,2.3
		c-1.5,0.1-1.9-0.7-1.8-2c0.2-2.2-1.2-3.4-2.8-4.2c-1.2-0.6-2.4-2-3.9-1.2c-1.7,0.9-0.7,2.6-0.8,3.9c-0.2,2.2-0.4,4.4,0,6.5
		c0.6,2.6-2.2,6.6,1.9,7.8c6.8,1.9,13.6-1.1,15.4-6.1c0.4-1,0.9-2,1-3c0.1-1.6,1-1.7,2.2-1.6c1.3,0.2,1.2,1.2,1.1,2.1
		c-0.3,3.5-0.7,7.1-1.1,10.6c-0.2,1.6-1.4,1.4-2.4,1.4c-9.2,0-18.5,0-27.7,0c-1.8,0-3.2-0.5-3.4-2.9c5.2,0.5,5.6-2.7,5.5-6.8
		c-0.3-8.7-0.1-17.4-0.1-26.1c0-2.2,0.8-4.9-3.2-4.5c-1.1,0.1-2.1-0.9-2-2.1c0.2-1.6,1.6-1,2.6-1c8.9,0,17.8,0,26.7-0.1
		c2.2,0,3.4,0.4,3.2,2.9C705,399.4,705.2,402,705.2,405z"/>
	<path class="st1" d="M827.1,438c-5.2-0.5-5.6-5.3-7.5-8.3c-5.9-9.3-11.2-19.1-17.5-30c0,11.7,0,21.9,0,32c0,1.8,0.5,2.7,2.4,2.5
		c1.3-0.1,2,0.5,1.9,1.9c-0.2,1.6-1.4,1.3-2.4,1.3c-2.7,0-5.4,0-8.2,0c-1,0-2.3,0.3-2.4-1.4c-0.1-1.4,0.7-1.9,2-1.9
		c3,0.1,3.5-1.8,3.5-4.2c-0.1-9.8-0.1-19.6,0-29.4c0-2.4-0.4-3.8-3.2-3.5c-1.1,0.1-2.1-0.9-2.1-2c0.1-1.6,1.6-0.9,2.5-1.1
		c8.8-1.9,13.6,2.3,17.1,10c2.6,5.9,6.5,11.1,10.7,18c0-8.4,0-15.3,0-22.3c0-1.9-0.7-2.6-2.5-2.5c-1.4,0.1-2.8-0.7-2.7-2
		c0-2,1.9-1.1,2.9-1.2c2.7-0.1,5.4-0.1,8.2,0c0.9,0,2.4-0.6,2.6,1c0.2,1.2-0.9,2.2-2,2.1c-3.9-0.4-3.3,2.2-3.3,4.5
		C827.1,413.7,827.1,425.8,827.1,438z"/>
	<path class="st1" d="M80.5,393.9c3.3,0.7,7.3-0.3,11.5,0.7c6,1.4,8.7,5.5,8.9,10.4c0.1,4.6-2.5,9-7.8,10.8c-2.5,0.8-4.9,2.4-7.6,2
		c-4.9-0.7-6.9,1.1-6.1,6.1c0.3,1.9,0.1,4,0,6c-0.1,2.4,0.3,4.4,3.4,4.3c1.2,0,2.1,0.3,2.1,1.8c0,1.2-0.8,1.5-1.8,1.5
		c-4.7,0-9.4,0-14.1,0c-0.7,0-1.4-0.2-1.4-1.2c0-1,0.1-2.1,1.2-1.9c3.6,0.4,3.1-2,3.1-4.2c0-9.6,0-19.2,0-28.8c0-2.1,0.7-4.6-3-4.2
		c-1.2,0.1-1.4-0.9-1.3-1.8c0.1-1.3,1-1.3,1.9-1.3C72.9,393.9,76.3,393.9,80.5,393.9z"/>
	<path class="st1" d="M390.5,393.9c3.5,0.6,7.7-0.4,12.1,0.8c5.6,1.5,8.2,5.2,8.6,10.2c0.4,4.9-2.4,8.8-7.2,10.7
		c-3.1,1.3-6.2,2.7-9.7,2.2c-2.9-0.4-3.8,0.8-3.6,3.6c0.2,3.1,0.1,6.2,0.1,9.2c0,1.8-0.4,3.8,2.5,3.5c1.4-0.1,1.9,0.7,1.7,2
		c-0.1,1.3-1.1,1.2-2,1.2c-4.5,0-9.1,0-13.6,0c-1,0-1.7-0.3-1.7-1.5c0-1,0.4-1.8,1.6-1.7c4.3,0.2,3.9-2.7,3.9-5.5
		c0-9.1,0-18.1,0-27.2c0-2.3,0.6-5-3.3-4.4c-1.2,0.2-2.1-0.2-2.1-1.7c0-1.6,1.2-1.5,2.3-1.5C383.2,393.9,386.5,393.9,390.5,393.9z"
		/>
	<path class="st1" d="M455.9,393.9c3.5,0.6,7.7-0.5,12.1,0.9c5.1,1.6,8.3,4.8,8.6,10.7c0.2,4.3-4.6,10-9.1,11.3
		c-1.5,0.4-3.2,1.3-4.6,1c-7.1-1.5-7.5,2.7-7,7.9c0.2,2,0,4,0.1,6c0,1-0.3,2.2,1.2,2.5c1.2,0.2,3.4-0.5,3,1.9
		c-0.4,2.5-2.6,1.3-3.9,1.4c-3.4,0.2-6.9,0-10.3,0.1c-1.5,0-2.6-0.6-2.9-1.9c-0.3-1.7,1.3-1.3,2.3-1.4c2.8-0.1,3-2,3-4.1
		c0-9.8-0.1-19.5,0-29.3c0-2.2,0-4-3-3.6c-1.2,0.1-2.3-0.9-2.3-1.9c0-2,1.8-1.2,2.9-1.3C449.1,393.9,452.2,393.9,455.9,393.9z"/>
	<path class="st1" d="M550.5,437.5c-1.6,0-3.3,0.1-4.9,0c-1.2-0.1-3.1,0.9-3.6-1.2c-0.5-2.3,1.4-1.9,2.8-2.1c2-0.2,1.4-1.8,1.4-2.9
		c0-10.3,0-20.6,0.1-30.9c0-2.2-0.4-3.4-2.9-3.2c-1.1,0.1-1.5-0.7-1.4-1.8c0-0.9,0.5-1.4,1.3-1.3c8.7,0.7,17.4-1.7,26,2
		c6.7,2.9,7.1,14.4,1.4,18c-4.1,2.6-8.1,4.3-12.9,3.9c-3.1-0.3-4.1,0.9-3.9,3.9c0.2,2.9,0.1,5.8,0,8.7c-0.1,2.5,0.2,4.3,3.4,3.8
		c1.2-0.2,2.1,0.2,2.1,1.7c-0.1,1.6-1.3,1.5-2.3,1.5C554.9,437.5,552.7,437.5,550.5,437.5z"/>
	<path class="st1" d="M639.9,423.5c0,3.9,0,7.8,0,11.6c0,1.6-0.5,2.3-2.2,2.3c-9.4,0-18.8,0-28.2,0c-1.1,0-2.3,0.1-2.2-1.6
		c0-1.1,0.5-1.8,1.6-1.6c2.8,0.3,2.7-1.4,2.7-3.3c0-10.1,0-20.3,0-30.4c0-2,0-3.7-2.7-3.3c-1.1,0.1-1.6-0.5-1.6-1.6
		c0-1.7,1.2-1.6,2.2-1.6c4.7,0,9.4,0,14.1,0c1.1,0,2.2,0.1,2.1,1.7c-0.1,1.6-1.2,1.7-2.3,1.5c-3.4-0.5-3.2,1.7-3.2,4
		c0,9.8,0.1,19.5,0,29.3c0,2.6,0.4,3.9,3.5,3.8c7.7-0.2,11.6-0.9,13.5-8.8c0.2-0.8,0.8-1.4,1.3-2.2
		C639,423.4,639.4,423.5,639.9,423.5z"/>
	<path class="st1" d="M276,437.5c-4.5,0-9,0-13.6,0c-1,0-2.2,0.2-2.3-1.5c-0.1-1.5,0.9-1.9,2.1-1.7c3.2,0.5,3.4-1.3,3.4-3.8
		c-0.1-9.8-0.1-19.5,0-29.3c0-2.2,0.3-4.5-3.1-4c-1.1,0.1-2.1-0.9-2.1-2c0.1-1.6,1.6-1.1,2.5-1.1c4.3-0.1,8.7-0.1,13,0
		c1.1,0,2.7-0.5,2.7,1.6c0,1.5-1.1,1.8-2.2,1.6c-3.4-0.6-3.3,1.6-3.3,3.9c0,9.8,0.1,19.5,0,29.3c-0.1,3.1,0.9,3.9,3.9,3.9
		c9.5,0.1,10.2-0.3,13.6-8.9c0.4-1,1-2,2.3-1.9c1.3,0.1,0.9,1.3,0.9,2.1c0.3,3.4-0.4,6.7-1,10.1c-0.4,2.4-2,1.7-3.2,1.7
		C285,437.5,280.5,437.5,276,437.5z"/>
	<path class="st1" d="M227.5,434.8c-0.5,1.9-1.4,2.7-2.8,2.7c-4.5,0-9,0-13.5,0c-1.1,0-2.2,0-2.2-1.6c0.1-1.1,0.6-1.7,1.7-1.6
		c3.4,0.3,2.7-2.1,2.7-3.9c0-9.4,0.1-18.8,0-28.2c0-2.2,1.3-5.5-3.2-5.1c-0.8,0.1-1.1-0.8-1.1-1.5c-0.1-1.2,0.6-1.6,1.6-1.6
		c5.1,0,10.1,0,15.2,0c0.7,0,1.5,0.1,1.5,1.1c0,1-0.7,2-1.6,1.9c-4.8-0.3-3.7,3.1-3.7,5.8c0,8.5,0,17,0,25.5
		C222,433.8,222,433.8,227.5,434.8z"/>
	<path class="st1" d="M750,437.5c-2.2,0-4.4,0-6.5,0c-1,0-2.2,0.2-2.4-1.4c-0.1-1.5,0.8-2,2-1.8c3.2,0.5,3.5-1.2,3.4-3.8
		c-0.1-9.8-0.1-19.6,0-29.4c0-2.3,0.1-4.5-3.3-3.9c-1.1,0.2-2.2-0.1-2.2-1.6c0-1.7,1.2-1.6,2.2-1.6c4.5,0,9.1,0,13.6,0
		c1.2,0,2.7-0.4,2.6,1.7c-0.1,1.6-1.2,1.7-2.3,1.5c-2.9-0.4-3.2,1.2-3.2,3.5c0.1,9.6,0.1,19.2,0,28.8c0,2.6,0.1,4.9,3.6,4.7
		c1.4-0.1,2,0.6,1.8,1.9c-0.2,1.6-1.5,1.3-2.5,1.3C754.7,437.5,752.4,437.5,750,437.5z"/>
	<path class="st1" d="M325,393.9c5.9,0,11.1,0,16.3,0c1.2,0,2.7-0.3,2.6,1.7c-0.1,1.6-1.2,1.6-2.3,1.5c-2.9-0.4-3.2,1.2-3.1,3.5
		c0.1,9.6,0.1,19.2,0,28.8c0,2.6,0.1,4.9,3.6,4.7c1.4-0.1,2,0.6,1.8,2c-0.2,1.6-1.5,1.3-2.5,1.3c-4.4,0-8.7,0.1-13.1,0
		c-1.1,0-2.7,0.6-2.9-1.4c-0.1-2,1.3-1.9,2.6-1.8c2.7,0.3,2.9-1.1,2.9-3.2c-0.1-10.2-0.1-20.3,0-30.5c0-1.9,0.1-3.7-2.7-3.4
		C326.7,397.3,325.9,396.3,325,393.9z"/>
	<path class="st0" d="M450,338.4c-14.5,0-29-0.1-43.5,0.1c-2.9,0-4.9-0.6-6.5-3.2c-15.1-24.2-30.3-48.5-45.6-72.6
		c-1.3-2.1-1.2-3.1-0.1-4.9c14.3-23.5,28.6-47,42.9-70.5c1.7-2.8,3.4-4.6,7.3-4.6c29.4,0.3,58.7,0.2,88.1,0.1c3.2,0,5.1,0.9,6.9,3.7
		c14.7,23.3,29.5,46.5,44.4,69.6c1.7,2.7,1.7,5.2,0,8c-14.5,24-29.1,47.9-43.5,72c-1.4,2.4-3.1,2.4-5.2,2.4
		C480.1,338.4,465.1,338.4,450,338.4z"/>
	<path class="st0" d="M79.4,405.6c0-0.5,0-1.1,0-1.6c0.1-3.5-1.3-7.4,5.2-7c5.8,0.3,7.7,1.4,7.9,7.8c0.1,4.4-0.5,8.3-5.4,9.7
		C80.6,416.3,79.4,414.9,79.4,405.6z"/>
	<path class="st0" d="M390.7,405.8c0-0.7-0.1-1.4,0-2.2c0.2-3-1.7-7,4.5-6.5c6.1,0.5,7.3,1.1,7.5,7c0.2,7.1-1.4,9.9-6.1,10.6
		c-3.8,0.6-6.8,0.1-5.9-5C390.9,408.3,390.7,407,390.7,405.8z"/>
	<path class="st0" d="M456,405.7c0-0.7,0-1.4,0-2.2c0.1-3.1-1.5-7,4.6-6.5c6.6,0.5,7.3,0.7,7.4,7c0.1,8-1.5,10.1-7.2,10.6
		c-3.7,0.3-5.4-0.6-4.8-4.6C456.2,408.7,456,407.2,456,405.7z"/>
	<path class="st0" d="M553.7,405.9c1.5-3.3-3.1-9.5,5.4-8.8c6.4,0.5,8,1.7,7.9,8.4c-0.1,6.9-2.2,9-8.8,9.1
		C550,414.8,555.8,408.5,553.7,405.9z"/>
	<path class="st1" d="M424.9,224.2c7.4,0,14,0,20.5,0c1.1,0,2.8-0.6,2.9,1.4c0.2,2.5-1.8,2-3,1.8c-5.9-1-6.9,1.6-6.9,7
		c0.3,22.1,0.2,44.2,0,66.3c0,4.6,0.6,7.3,5.9,6.2c0.5-0.1,1.1,0,1.6,0c1.1,0,2.2-0.1,2.3,1.5c0.1,1.6-0.9,1.7-2.1,1.7
		c-10.1,0-20.3,0-30.4,0c-1.1,0-2.2,0-2.3-1.6c-0.1-1.6,1-1.6,2.1-1.7c2.8-0.3,6.8,1.4,8.1-0.8c1.4-2.5,0.5-6.3,0.6-9.5
		c0-6.9-0.1-13.8,0.1-20.6c0.1-3.2-1-3.8-4-3.9c-8.8-0.3-17.7-0.9-26.1-4.3c-9.6-3.8-15.6-11-14.6-24.4c0.6-7.9,7.5-14.4,16.6-17.1
		C406.2,223.5,416,224.4,424.9,224.2z"/>
	<path class="st1" d="M474.1,224.2c8.7,0.4,18.5-0.8,28.2,2c9.6,2.8,16.3,9.2,16.8,17.4c0.9,13-5.4,20.5-15,24.1
		c-8.3,3.1-16.9,4-25.5,4.2c-3.4,0.1-4.3,0.9-4.2,4.3c0.2,8.7,0.3,17.4,0,26.1c-0.1,3.9,1.1,5.2,4.8,4.6c1.2-0.2,2.5-0.1,3.8,0
		c1.1,0,2.2-0.1,2.3,1.5c0.1,1.6-0.9,1.7-2.1,1.7c-10.1,0-20.3,0-30.4,0c-1.1,0-2.2,0.1-2.3-1.5c-0.1-1.6,1-1.6,2.1-1.7
		c2.4-0.3,6,1.2,7.1-0.8c1.2-2.2,0.5-5.6,0.5-8.5c0-21.4-0.1-42.7,0.1-64.1c0.1-4.9-1.1-6.9-6.1-6.1c-1.2,0.2-3.7,1.2-3.7-1.6
		c0.1-2.7,2.5-1.5,3.8-1.5C460.6,224.1,466.8,224.2,474.1,224.2z"/>
	<path class="st0" d="M424.4,247.6c0,5.6,0,11.2,0,16.8c0,1.3,0.6,3.2-1.7,3.2c-7.1,0.2-14.2,0.3-20.7-3.3c-2.1-1.2-3.8-2.6-4.7-4.8
		c-3.7-8.8-3.5-17.7,0.3-26.3c1.6-3.5,5.7-4.2,9.1-4.6c3.5-0.5,7.1-0.7,10.6-1.1c7-0.9,7.1-0.6,7.1,6.5
		C424.4,238.5,424.4,243.1,424.4,247.6z"/>
	<path class="st0" d="M474.5,247.2c0-5.2,0.2-10.5-0.1-15.7c-0.2-3.6,1.1-4.2,4.3-4.1c4.8,0.2,9.6,1,14.4,1.5
		c6.9,0.7,10.5,5.7,10.8,12.9c0.1,2-0.1,4,0,6c1.1,14.7-7.3,19.4-20,20c-9.4,0.4-9.4,0.1-9.4-9C474.5,254.8,474.5,251,474.5,247.2z"
		/>
</g>
</svg>
