<?xml version="1.0" encoding="utf-8"?>
<!-- Generator: Adobe Illustrator 21.1.0, SVG Export Plug-In . SVG Version: 6.00 Build 0)  -->
<svg version="1.1" id="Layer_1" xmlns="http://www.w3.org/2000/svg" xmlns:xlink="http://www.w3.org/1999/xlink" x="0px" y="0px"
	 viewBox="0 0 700 965" style="enable-background:new 0 0 700 965;" xml:space="preserve">
<style type="text/css">
	.st0{fill:#FEFEFE;}
	.st1{fill:#FFFFFF;}
</style>
<g>
	<path class="st0" d="M0.3,549.6c0-44.6,0-89.2,0-133.8c233.4,0,466.7,0,700.1,0c0,44.6,0,89.2,0,133.8
		C467,549.6,233.6,549.6,0.3,549.6z"/>
	<path d="M602.9,520.7c-10.2-0.1-20.2-1.5-29.9-4.6c-9.8-3.1-18.7-7.8-26.2-15c-3.4-3.2-6.2-6.8-7.9-11.2c-1.7-4.3-2.3-8.7-1.4-13.3
		c1-5.3,3.5-9.7,6.9-13.8c4.5-5.3,10-9.1,16.1-12.3c7.1-3.7,14.7-6.1,22.5-7.7c9.8-2,19.7-2.6,29.7-1.8c10.4,0.8,20.4,3.1,30,7.1
		c6.4,2.7,12.2,6.2,17.3,10.9c3.5,3.2,6.5,6.7,8.6,11c2.2,4.4,2.9,9.1,2.2,13.9c-0.9,6.5-4,11.9-8.7,16.5
		c-6.3,6.1-13.6,10.5-21.7,13.7c-6.8,2.7-13.9,4.4-21.1,5.4C613.9,520.4,608.4,520.7,602.9,520.7z"/>
	<path d="M336.6,496c0-0.5,0-0.9,0-1.4c0-17,0-33.9,0-50.9c0-0.3,0-0.5,0-0.8c0-1,0-1,1-1c6.7,0,13.4,0,20.1,0c1.1,0,1.1,0,1.1,1.1
		c0,4.7,0,9.5,0,14.2c0,20.1,0,40.3,0,60.4c0,1.4,0,1.4-1.4,1.4c-8.3,0-16.5,0.1-24.8-0.1c-0.8,0-1.3-0.2-1.9-0.7
		c-10.7-9.3-21.4-18.6-32-28c-9.5-8.3-19.1-16.6-28.6-24.9c-0.5-0.5-1.1-0.9-1.7-1.5c-0.2,0.6-0.1,1.1-0.1,1.6c0,17.3,0,34.7,0,52
		c0,0.3,0,0.6,0,0.9c0.1,0.7-0.3,0.8-0.9,0.8c-6.8,0-13.6,0-20.3,0c-0.6,0-1-0.1-0.9-0.8c0-0.2,0-0.5,0-0.8c0-24.6,0-49.2,0-73.9
		c0-1.9-0.2-1.6,1.6-1.6c8.5,0,17,0,25.6,0c0.9,0,1.5,0.3,2.2,0.8c7.3,6.3,14.6,12.7,21.8,19c9.8,8.5,19.6,17,29.4,25.6
		c2.9,2.6,5.9,5.1,8.8,7.7C335.8,495.6,336,496,336.6,496z"/>
	<path d="M521.8,442.4c-0.5,0.7-1.2,1.2-1.8,1.6c-2.9,2.1-5.9,4-9,6c-7.5,4.8-15.1,9.4-22.7,14c-7.6,4.7-15.2,9.5-22.8,14.2
		c-0.5,0.3-1,0.5-1.4,1c0.5,0.6,1.1,0.8,1.7,1.2c6.3,3.8,12.6,7.4,19,11.1c10.1,5.8,20.3,11.6,30.4,17.4c4.5,2.6,8.9,5.2,13.3,7.9
		c1.1,0.7,2.2,1.4,3.4,2.2c-0.4,0.4-0.9,0.3-1.3,0.3c-10.4,0-20.9,0-31.3,0c-1,0-2,0-2.9,0c-0.9,0.1-1.6-0.2-2.4-0.7
		c-7.5-4.5-15-9-22.5-13.5c-12.5-7.4-24.9-14.9-37.5-22.2c-0.8-0.5-1.6-0.9-2.4-1.4c-0.3-0.2-0.6-0.3-0.9-0.4
		c-0.7-0.1-0.8,0-0.8,0.7c0,0.3,0,0.6,0,0.9c0,11.7,0,23.4,0,35.1c0,1.6,0.2,1.4-1.4,1.4c-6.2,0-12.5,0-18.7,0c-0.3,0-0.6,0-0.9,0
		c-0.4,0-0.5-0.2-0.5-0.5c0-0.3,0-0.6,0-0.9c0-24.8,0-49.6,0-74.4c0-0.2,0-0.4,0-0.6c-0.1-0.7,0.3-0.8,0.9-0.8c6.6,0,13.2,0,19.8,0
		c0.6,0,0.9,0.1,0.8,0.8c0,0.3,0,0.6,0,0.9c0,10.6,0,21.3,0,31.9c0,0.5-0.3,1.1,0.2,1.4c0.5,0.3,1-0.2,1.4-0.5
		c16.1-9.8,32.1-19.7,48.2-29.5c2.4-1.5,4.8-2.9,7.1-4.4c0.5-0.3,1-0.5,1.5-0.5c10.8,0,21.7,0,32.5,0
		C521.1,442.2,521.4,442.1,521.8,442.4z"/>
	<path d="M34.3,480.5c0-12.4,0-24.8,0-37.2c0-1.4,0-1.4,1.3-1.3c17.8,0.2,35.5,0.4,53.3,0.7c6.5,0.1,13,0.3,19.6,0.8
		c3.6,0.3,7.2,0.7,10.7,1.5c4.9,1.2,9.1,3.5,12.8,7c2.5,2.4,3.9,5.4,4.6,8.8c0.7,3.8,0.4,7.5-0.2,11.2c-0.3,2.1-1.4,3.9-2.7,5.5
		c-3.7,4.5-8.5,7.4-14.2,8.9c-3.9,1-7.8,1.5-11.8,1.8c-9,0.7-18.1,0.8-27.2,0.8c-7.7,0-15.4,0-23.1,0c-0.3,0-0.6,0-0.9,0
		c-0.4,0-0.5,0.2-0.5,0.5c0,0.3,0,0.7,0,1c0,9.2,0,18.4,0,27.6c0,1.6,0.1,1.4-1.3,1.4c-6.3,0-12.6,0-18.9,0c-0.2,0-0.4,0-0.6,0
		c-0.5,0.1-0.7-0.2-0.6-0.7c0-0.3,0-0.6,0-0.9C34.3,505.4,34.3,492.9,34.3,480.5z"/>
	<path d="M195.3,480.8c0,12.4,0,24.7,0,37.1c0,1.6,0.2,1.4-1.4,1.4c-6.2,0-12.4,0-18.6,0c-0.3,0-0.6,0-0.9,0c-0.3,0-0.5-0.1-0.5-0.4
		c0-0.3,0-0.6,0-0.9c0-24.9,0-49.8,0-74.7c0-0.3,0-0.5,0-0.8c0-0.4,0.2-0.5,0.5-0.5c0.3,0,0.5,0,0.8,0c6.2,0,12.5,0,18.7,0
		c0.2,0,0.4,0,0.6,0c0.5,0,0.8,0.1,0.7,0.7c0,0.3,0,0.6,0,0.9C195.3,456,195.3,468.4,195.3,480.8z"/>
	<path class="st1" d="M603.4,455.6c4.7,0.2,9.4,0.3,14,1.5c5.2,1.3,10,3.3,14.4,6.5c2,1.5,3.8,3.1,5.4,4.9c3,3.4,4.3,7.4,4.4,11.9
		c0.1,4.7-1.1,9.1-3.9,13c-2,2.7-4.6,4.9-7.4,6.7c-5.5,3.5-11.6,5.5-18,6.4c-4.9,0.7-9.9,0.7-14.8,0.2c-8.2-0.9-15.8-3.4-22.3-8.6
		c-4.1-3.2-6.7-7.4-7.8-12.5c-0.6-2.8-0.6-5.6-0.4-8.3c0.2-2.5,1.3-4.8,2.8-6.8c3.7-5.2,8.7-8.8,14.6-11.2
		C590.4,456.6,596.8,455.4,603.4,455.6z"/>
	<path class="st1" d="M75.8,476.4c-6.2,0-12.5,0-18.7,0c-0.3,0-0.6,0-0.9,0c-0.3,0-0.5-0.2-0.4-0.5c0-0.3,0-0.5,0-0.8
		c0-6.5,0-13,0-19.4c0-0.1,0-0.3,0-0.4c0-0.9,0-0.9,0.9-0.9c1.1,0,2.1,0,3.2,0c10.4,0.1,20.8,0.2,31.3,0.5c3.5,0.1,6.9,0.2,10.3,1
		c3.6,0.9,6.9,2.3,9.7,4.9c2.6,2.4,2.8,4.9,0.8,8.1c-1.2,1.9-3,3.1-4.9,4.1c-3.2,1.6-6.6,2.4-10.1,2.8c-5.4,0.7-10.9,0.5-16.4,0.5
		C79.1,476.4,77.5,476.4,75.8,476.4z"/>
</g>
</svg>
