<?xml version="1.0" encoding="utf-8"?>
<!-- Generator: Adobe Illustrator 21.1.0, SVG Export Plug-In . SVG Version: 6.00 Build 0)  -->
<svg version="1.1" id="Layer_1" xmlns="http://www.w3.org/2000/svg" xmlns:xlink="http://www.w3.org/1999/xlink" x="0px" y="0px"
	 viewBox="0 0 900 596" style="enable-background:new 0 0 900 596;" xml:space="preserve">
<style type="text/css">
	.st0{fill:#FFFFFF;}
</style>
<g>
	<path class="st0" d="M1.1,500.2c0-134.2,0-268.4,0-402.6c300,0,600,0,900,0c0,134.2,0,268.4,0,402.6
		C601.1,500.2,301.1,500.2,1.1,500.2z M400.9,118c-0.5,1.6-1,3-1.5,4.4c-26,88.5-52,177.1-78,265.6c-0.5,1.8-1.8,3.4-2.7,5.1
		c-1-1.8-2.5-3.4-3.1-5.3c-9.8-35.3-19.5-70.7-29.3-106.1c-14.6-53.1-29.2-106.1-43.7-159.2c-1-3.6-2.3-4.9-6-4.8
		c-7.3,0.3-14.7,0.1-22,0.1c-5.4,0-10.7,0-16.1,0c-7,123.5-13.8,246-20.8,368.7c5.1,0,9.3,0,13.8,0c5.2-90.1,10.4-179.8,15.6-269.4
		c0.9-0.1,1.8-0.3,2.7-0.4c12.6,44.6,24.4,89.5,36.6,134.2c12.4,45.3,24.5,90.6,36.9,136.1c6.2,0,11.8-0.4,17.4,0.1
		c5.1,0.4,6.9-1.4,8.3-6.3c24.9-86.1,50.1-172.2,75.2-258.2c0.6-1.9,1.5-3.7,2.3-5.5c0.6,0.1,1.3,0.2,1.9,0.4
		c4.6,89.8,9.3,179.6,13.9,269.2c18.4,0,35.8,0,53.7,0c-7.3-123.1-14.6-245.8-21.9-368.5C422.6,118,411.8,118,400.9,118z
		 M467.1,360.9c0.7,7.9,1.4,21.6,3.4,35.2c3.4,23,10.3,44.9,24.1,64.1c25.7,35.6,73.2,43,106.6,16.4c18.2-14.5,28.4-34.3,34.7-56
		c10.3-35.2,11.1-71,5.4-107c-3.5-21.6-10.4-42.2-23.2-60.3c-20-28.3-52.4-40.1-84.5-30.3c-22,6.7-36.7,21.9-47.2,41.7
		C471.4,293,467.8,323.7,467.1,360.9z M662.8,225.3c0,2.5,0,4.7,0,6.9c0,44.5,0,89.1,0,133.6c0,18.8-0.5,37.6,0.5,56.4
		c1.3,25.4,11.5,46.4,34.6,59.4c12.2,6.9,25.5,10,41,10.8c-1.6-2.5-2.2-4.4-3.4-5.3c-7.8-5.4-12.1-13.1-14.9-21.9
		c-4.6-14.5-4.8-29.5-4.8-44.6c0-63.1,0.1-126.3,0.1-189.4c0-2,0-3.9,0-5.9C697.8,225.3,680.6,225.3,662.8,225.3z M824.7,381
		c-0.4-5-0.9-9.7-1.2-14.3c-1.5-21.5,6.9-39.9,18.1-57.4c11.4-17.9,23.2-35.5,34-53.7c18.3-30.9,23.9-63.7,12-98.3
		c-19.1-55.8-83.5-61.7-115.4-41.1c-5.5,3.5-6.7,7.7-5.1,13.2c6.7-3,13-6.4,19.6-8.6c18.6-6.3,34.3-0.1,44,16.9
		c7,12.3,9.8,25.9,10.6,39.8c1.9,30.8-5.4,59.5-20.5,86.3c-19.7,35-23.1,71.5-10,109.5C814,382.3,814,382.4,824.7,381z M13.4,192.8
		c44.6,0,89.3,0,134.1,0c0-4.1,0-7.8,0-12c-43.2,0-86.2,0-129,0c-4.3-21.9,2.7-36.8,19-40.1c10.1-2.1,20.2-1.7,29.5,3.7
		c11.7,6.7,10.7,18.6,11.5,30.3c2.4-1.4,4-2.3,5.6-3.2c18.6-11.7,36.8-23.9,55.8-34.8c7.9-4.6,9.2-10.1,7.3-18.3
		c-21.2,13.1-42.1,26.2-63.1,39.2c-0.4-0.6-0.7-0.9-0.8-1.3c-0.4-1.4-0.7-2.9-1.1-4.4c-3.6-13.3-11.7-22.1-25.6-24.5
		c-5.3-0.9-10.9-1-16.3-0.3c-15.1,1.9-25.1,10.9-26.7,26C12.3,166.1,13.4,179.3,13.4,192.8z M79.9,409.6
		c16.5-0.3,32.6-2.5,46.9-11.4c16.3-10.1,24.5-25.1,24-44.2c-0.5-19.1-9.9-33.5-27.4-41c-9.8-4.2-20.6-7-31.2-8.2
		c-20.6-2.4-41,0-59.2,10.9C16.2,325.5,8,340.4,8.7,360.1c0.8,19.5,10.9,32.5,27.9,40.8C50.3,407.6,65,409.1,79.9,409.6z
		 M794.9,462.1c0.1,17,13.4,30.2,30.4,30.2c16.7,0,30.3-13.8,30.2-30.6c-0.1-16.8-13.8-30.3-30.6-30.3
		C808.2,431.5,794.8,445.1,794.9,462.1z M92.7,474.9c0-6.1,0.2-11.7,0-17.2c-1-24.3-12.3-36.2-36.6-38.5c-22.2-2-38.9,8.1-42.1,27.4
		c-2.2,13-1.6,26.4-2.2,40c46,0,90.7,0,135.7,0c0-3.9,0-7.6,0-11.7C129.1,474.9,111.1,474.9,92.7,474.9z M12.5,214.8
		c2.8,0,5.1,0,7.3,0c30.6,0,61.2-0.1,91.9,0.1c7.9,0.1,15.8,1,22.4,6.2c9.5,7.6,13.7,24,9.6,37.1c-4.2,13.4-12.1,19.6-26.8,20.7
		c-3,0.2-6,0.2-9,0.2c-29.5,0-59,0-88.5,0c-2.2,0-4.4,0-6.5,0c0,4.5,0,8.3,0,12.2c33.3,0,66.2,0,99,0c3.2,0,6.4-0.6,9.5-1
		c13.1-1.5,22.2-8.4,25.8-21c2.3-7.8,3.7-16.2,3.5-24.3c-0.4-19.7-9.9-31.5-27.5-35.4c-5.6-1.2-11.5-1.6-17.3-1.6
		c-29.1-0.2-58.2-0.2-87.4-0.3c-2,0-3.9,0-6,0C12.5,210.4,12.5,212.3,12.5,214.8z M716,143.4c0.6-14.5-11.5-27.1-26.3-27.5
		c-14.2-0.4-26.3,11-27,25.5c-0.7,15.1,10.9,27.7,26.1,28.1C703.1,169.9,715.4,158,716,143.4z"/>
	<path d="M400.9,118c10.9,0,21.7,0,33.4,0c7.3,122.8,14.6,245.5,21.9,368.5c-17.9,0-35.3,0-53.7,0c-4.6-89.6-9.3-179.4-13.9-269.2
		c-0.6-0.1-1.3-0.2-1.9-0.4c-0.8,1.8-1.8,3.6-2.3,5.5c-25.1,86.1-50.3,172.1-75.2,258.2c-1.4,4.9-3.2,6.7-8.3,6.3
		c-5.6-0.5-11.2-0.1-17.4-0.1c-12.3-45.5-24.4-90.8-36.9-136.1c-12.3-44.7-24-89.6-36.6-134.2c-0.9,0.1-1.8,0.3-2.7,0.4
		c-5.2,89.7-10.4,179.4-15.6,269.4c-4.5,0-8.7,0-13.8,0c6.9-122.7,13.8-245.2,20.8-368.7c5.4,0,10.7,0,16.1,0c7.3,0,14.7,0.2,22-0.1
		c3.7-0.1,5,1.2,6,4.8c14.4,53.1,29.1,106.1,43.7,159.2c9.7,35.4,19.4,70.8,29.3,106.1c0.5,1.9,2,3.5,3.1,5.3
		c0.9-1.7,2.1-3.3,2.7-5.1c26-88.5,52-177.1,78-265.6C399.8,121,400.3,119.6,400.9,118z"/>
	<path d="M467.1,360.9c0.7-37.2,4.4-67.9,19.3-96.3c10.4-19.8,25.2-35,47.2-41.7c32.1-9.8,64.6,2,84.5,30.3
		c12.8,18.2,19.7,38.7,23.2,60.3c5.8,36,4.9,71.9-5.4,107c-6.4,21.8-16.5,41.5-34.7,56c-33.3,26.6-80.8,19.2-106.6-16.4
		c-13.8-19.2-20.7-41.1-24.1-64.1C468.5,382.5,467.8,368.8,467.1,360.9z M591.4,354.2c0.5-0.1,1.1-0.1,1.6-0.2
		c-2.5-26.1-4.6-52.3-7.8-78.3c-1.9-14.8-5.6-29.5-14.6-42c-7.8-10.8-20-11.5-27.7-0.7c-5,7-8.8,15.3-11.4,23.5
		c-7.3,23-9.4,46.9-10.7,71c-2.1,38.9-0.7,77.7,7.2,115.9c2.5,12.3,6,24.4,13.7,34.7c8.5,11.3,20.7,11.6,28.2-0.2
		c4.7-7.5,8.4-16,10.8-24.5C589.8,421.1,591.1,387.7,591.4,354.2z"/>
	<path d="M662.8,225.3c17.8,0,35.1,0,53.2,0c0,1.9,0,3.9,0,5.9c0,63.1-0.1,126.3-0.1,189.4c0,15,0.2,30,4.8,44.6
		c2.8,8.8,7,16.5,14.9,21.9c1.2,0.9,1.8,2.7,3.4,5.3c-15.5-0.8-28.8-3.9-41-10.8c-23.1-13-33.3-34-34.6-59.4
		c-1-18.7-0.5-37.6-0.5-56.4c-0.1-44.5,0-89.1,0-133.6C662.8,229.9,662.8,227.7,662.8,225.3z"/>
	<path d="M824.7,381c-10.7,1.3-10.7,1.3-13.8-7.7c-13.1-38-9.7-74.5,10-109.5c15.1-26.8,22.4-55.5,20.5-86.3
		c-0.9-14-3.6-27.5-10.6-39.8c-9.7-17-25.4-23.2-44-16.9c-6.7,2.3-13,5.7-19.6,8.6c-1.7-5.5-0.4-9.6,5.1-13.2
		c31.9-20.6,96.3-14.7,115.4,41.1c11.9,34.6,6.3,67.4-12,98.3c-10.8,18.2-22.6,35.8-34,53.7c-11.1,17.5-19.5,35.9-18.1,57.4
		C823.8,371.4,824.2,376,824.7,381z"/>
	<path d="M13.4,192.8c0-13.5-1.1-26.7,0.3-39.7c1.6-15.1,11.6-24.1,26.7-26c5.3-0.7,11-0.6,16.3,0.3c13.9,2.3,22,11.2,25.6,24.5
		c0.4,1.4,0.7,2.9,1.1,4.4c0.1,0.3,0.4,0.6,0.8,1.3c20.9-13,41.9-26,63.1-39.2c1.9,8.3,0.6,13.7-7.3,18.3
		c-19,11-37.2,23.2-55.8,34.8c-1.5,1-3.2,1.8-5.6,3.2c-0.8-11.7,0.2-23.6-11.5-30.3c-9.3-5.4-19.3-5.8-29.5-3.7
		c-16.3,3.3-23.3,18.2-19,40.1c42.8,0,85.8,0,129,0c0,4.2,0,7.9,0,12C102.7,192.8,57.9,192.8,13.4,192.8z"/>
	<path d="M79.9,409.6c-14.9-0.5-29.6-2-43.2-8.7c-17-8.3-27.2-21.4-27.9-40.8c-0.8-19.6,7.4-34.6,24.1-44.5
		c18.3-10.9,38.6-13.3,59.2-10.9c10.6,1.2,21.4,4,31.2,8.2c17.5,7.5,26.9,21.9,27.4,41c0.5,19.1-7.7,34.1-24,44.2
		C112.4,407.1,96.4,409.3,79.9,409.6z M81.3,316.1c-0.1,0.4-0.1,0.9-0.2,1.3c-4.1,0-8.3-0.3-12.4,0c-15.1,1.1-29.8,3.7-42.1,13.6
		c-18.9,15.2-17.7,41,2.7,54.1c3.6,2.3,7.6,4.2,11.6,5.6c16.2,5.9,33,6.4,50,4.9c13.4-1.2,26.3-3.7,37.6-11.7
		c17.7-12.5,22.1-32.6,10.2-47.7c-6.2-7.9-14.4-13.4-24.2-15.4C103.6,318.8,92.4,317.7,81.3,316.1z"/>
	<path d="M794.9,462.1c-0.1-17,13.3-30.6,30-30.6c16.7-0.1,30.4,13.5,30.6,30.3c0.1,16.8-13.5,30.5-30.2,30.6
		C808.3,492.3,795,479,794.9,462.1z"/>
	<path d="M92.7,474.9c18.4,0,36.4,0,54.7,0c0,4.1,0,7.8,0,11.7c-45,0-89.7,0-135.7,0c0.7-13.6,0.1-27,2.2-40
		c3.2-19.4,19.9-29.5,42.1-27.4c24.2,2.2,35.6,14.1,36.6,38.5C92.9,463.3,92.7,468.8,92.7,474.9z M18.1,474.4c1,0.4,1.4,0.6,1.7,0.6
		c17.8,0,35.6,0.1,53.4,0.1c14.4,0,14.4,0,13.6-14.5c-0.9-15.1-8.5-24.8-23.6-27c-8.3-1.2-17.3-0.8-25.5,0.8
		c-11.6,2.3-18.4,11-19.5,22.5C17.7,462.6,18.1,468.5,18.1,474.4z"/>
	<path d="M12.5,214.8c0-2.5,0-4.3,0-7.1c2.1,0,4,0,6,0c29.1,0.1,58.2,0.1,87.4,0.3c5.8,0,11.7,0.4,17.3,1.6
		c17.6,3.9,27.1,15.7,27.5,35.4c0.2,8.1-1.3,16.5-3.5,24.3c-3.6,12.5-12.7,19.5-25.8,21c-3.2,0.4-6.3,1-9.5,1c-32.9,0.1-65.7,0-99,0
		c0-3.9,0-7.7,0-12.2c2.2,0,4.3,0,6.5,0c29.5,0,59,0,88.5,0c3,0,6,0.1,9-0.2c14.7-1.2,22.6-7.3,26.8-20.7
		c4.1-13.1-0.1-29.5-9.6-37.1c-6.5-5.2-14.5-6.2-22.4-6.2c-30.6-0.2-61.2-0.1-91.9-0.1C17.6,214.8,15.4,214.8,12.5,214.8z"/>
	<path d="M716,143.4c-0.6,14.6-13,26.5-27.2,26.1c-15.1-0.4-26.8-13-26.1-28.1c0.7-14.5,12.7-25.9,27-25.5
		C704.5,116.3,716.6,128.9,716,143.4z"/>
	<path class="st0" d="M591.4,354.2c-0.3,33.4-1.7,66.8-10.8,99.2c-2.4,8.5-6,17-10.8,24.5c-7.5,11.8-19.7,11.5-28.2,0.2
		c-7.7-10.3-11.2-22.4-13.7-34.7c-7.9-38.3-9.3-77-7.2-115.9c1.3-24,3.4-47.9,10.7-71c2.6-8.2,6.5-16.5,11.4-23.5
		c7.6-10.8,19.9-10.1,27.7,0.7c9,12.5,12.8,27.2,14.6,42c3.3,26,5.3,52.2,7.8,78.3C592.5,354.1,591.9,354.2,591.4,354.2z"/>
	<path class="st0" d="M81.3,316.1c11.1,1.6,22.3,2.6,33.3,4.8c9.8,2,18,7.5,24.2,15.4c11.9,15.1,7.5,35.2-10.2,47.7
		c-11.3,7.9-24.2,10.5-37.6,11.7c-17,1.5-33.8,0.9-50-4.9c-4-1.5-8-3.3-11.6-5.6C9,372.1,7.8,346.3,26.7,331.1
		c12.3-9.9,27-12.5,42.1-13.6c4.1-0.3,8.3,0,12.4,0C81.2,317,81.3,316.6,81.3,316.1z"/>
	<path class="st0" d="M18.1,474.4c0-5.9-0.4-11.8,0.1-17.5c1-11.6,7.9-20.3,19.5-22.5c8.3-1.6,17.2-2,25.5-0.8
		c15.1,2.2,22.7,11.9,23.6,27c0.8,14.5,0.8,14.6-13.6,14.5c-17.8,0-35.6-0.1-53.4-0.1C19.5,475,19.1,474.7,18.1,474.4z"/>
</g>
</svg>
