<?xml version="1.0" encoding="utf-8"?>
<!-- Generator: Adobe Illustrator 21.1.0, SVG Export Plug-In . SVG Version: 6.00 Build 0)  -->
<svg version="1.1" id="Layer_1" xmlns="http://www.w3.org/2000/svg" xmlns:xlink="http://www.w3.org/1999/xlink" x="0px" y="0px"
	 viewBox="0 0 700 965" style="enable-background:new 0 0 700 965;" xml:space="preserve">
<style type="text/css">
	.st0{fill:#FCFCFC;}
	.st1{fill:#FEFEFE;}
</style>
<g>
	<path class="st0" d="M350.2,568.1c-116.3,0-232.6,0-349,0c-0.9,0-1.1-0.2-1.1-1.1c0-56.1,0-112.2,0-168.2c0-0.9,0.2-1.1,1.1-1.1
		c232.6,0,465.3,0,697.9,0c0.9,0,1.1,0.2,1.1,1.1c0,56.1,0,112.2,0,168.2c0,0.9-0.2,1.1-1.1,1.1
		C582.9,568.1,466.6,568.1,350.2,568.1z"/>
	<path d="M307.8,477.4c0-13.2,0-26.4,0-39.5c0-1-0.2-1.2-1.2-1.2c-3.8,0.1-7.6,0-11.4,0c-0.7,0-1-0.2-1-1c0-8.4,0-16.9,0-25.3
		c0-1,0.3-1,1.1-1c20.6,0,41.1,0,61.7,0c3.3,0,6.5,0,9.8,0c0.5,0,0.9,0.2,1.3,0.5c2.8,2.9,5.7,5.8,8.5,8.6c4,4,7.9,8,11.9,12
		c0.4,0.4,0.6,0.9,0.6,1.5c0,12.1,0,24.2,0,36.3c0,0.6-0.2,1.1-0.6,1.5c-2.3,2.2-4.5,4.6-6.8,6.8c-0.7,0.6-0.6,0.9,0,1.5
		c2.2,2.2,4.4,4.4,6.6,6.6c0.5,0.5,0.8,1.1,0.8,1.8c0,10.1,0,20.2,0,30.3c0,1,0.2,1.2,1.2,1.2c3.9-0.1,7.8,0,11.7,0
		c0.7,0,0.9,0.1,0.9,0.9c0,8.5,0,17,0,25.5c0,0.8-0.3,0.9-0.9,0.9c-16.9,0-33.8,0-50.6,0c-0.8,0-0.9-0.2-0.9-1c0-8.5,0-17,0-25.4
		c0-0.7,0.1-0.9,0.9-0.9c3.3,0,6.5,0,9.8,0c0.7,0,1-0.1,1-0.9c0-8.4,0-16.9,0-25.3c0-0.7-0.1-0.9-0.9-0.9c-8.5,0-17,0-25.5,0
		c-0.8,0-0.9,0.3-0.9,0.9c0,8.4,0,16.9,0,25.3c0,0.7,0.2,0.9,0.9,0.9c3.3,0,6.5,0,9.8,0c0.7,0,1,0.1,1,0.9c0,8.5,0,17,0,25.4
		c0,0.8-0.3,0.9-1,0.9c-16.8,0-33.6,0-50.4,0c-0.8,0-1-0.2-1-1c0-8.4,0-16.9,0-25.3c0-0.8,0.2-1,1-1c3.8,0,7.5,0,11.3,0
		c1,0,1.3-0.1,1.3-1.2C307.7,503.8,307.8,490.6,307.8,477.4z"/>
	<path d="M595.4,457.1c4.6-6.8,9-13.5,13.5-20.2c-0.2-0.4-0.6-0.2-0.9-0.2c-3.3,0-6.5,0-9.8,0c-0.7,0-0.9-0.1-0.9-0.9
		c0-8.5,0-17,0-25.5c0-0.8,0.2-0.9,0.9-0.9c16.8,0,33.7,0,50.5,0c0.8,0,1,0.2,1,1c0,8.4,0,16.9,0,25.3c0,0.8-0.2,1-1,1
		c-3.9,0-7.8,0-11.7,0c-0.7,0-1,0.2-1.4,0.8c-8.7,13.1-17.4,26.2-26.2,39.2c-0.4,0.6-0.4,1,0,1.6c8.7,13,17.4,26.1,26.1,39.1
		c0.4,0.6,0.8,0.8,1.5,0.8c3.9,0,7.8,0,11.7,0c0.8,0,1,0.2,1,1c0,8.4,0,16.9,0,25.3c0,0.8-0.2,1-1,1c-16.8,0-33.6,0-50.4,0
		c-0.7,0-1-0.1-1-0.9c0-8.5,0-17,0-25.4c0-0.8,0.3-0.9,1-0.9c3.5,0,7,0,10.7,0c-4.6-6.9-9.1-13.6-13.6-20.4
		c-4.6,6.8-9,13.5-13.6,20.4c3.3,0,6.5,0,9.6,0c0.4,0,0.8,0,1.2,0c0.6-0.1,0.9,0.1,0.9,0.8c0,8.6,0,17.1,0,25.7
		c0,0.7-0.2,0.8-0.9,0.8c-16.9,0-33.8,0-50.6,0c-0.6,0-0.9-0.1-0.9-0.8c0-8.6,0-17.1,0-25.7c0-0.7,0.3-0.8,0.9-0.8
		c3.9,0,7.9,0,11.8,0c0.7,0,1-0.2,1.4-0.7c8.7-13,17.4-26.1,26.1-39.1c0.4-0.6,0.5-1.1,0-1.7c-8.8-13.1-17.5-26.1-26.2-39.2
		c-0.3-0.5-0.7-0.7-1.3-0.7c-3.9,0-7.8,0-11.7,0c-0.8,0-1-0.2-1-1c0-8.4,0-16.9,0-25.3c0-0.7,0.1-1,0.9-1c16.8,0,33.7,0,50.5,0
		c0.7,0,0.9,0.2,0.9,0.9c0,8.5,0,17,0,25.4c0,0.7-0.2,1-1,1c-3.5,0-7,0-10.7,0C586.3,443.6,590.8,450.3,595.4,457.1z"/>
	<path d="M471.9,409.5c15.4,0,30.9,0,46.3,0c0.9,0,1.2,0.2,1.2,1.2c0,12.8,0,25.7,0,38.5c0,0.9-0.1,1.2-1.1,1.2c-8.3,0-16.6,0-25,0
		c-0.9,0-1.1-0.3-1.1-1.1c0-3.8,0-7.6,0-11.4c0-0.8-0.1-1.1-1-1c-8.4,0-16.9,0-25.3,0c-0.8,0-1,0.2-1,1c0,8.3,0,16.6,0,25
		c0,0.9,0.2,1.2,1.1,1.2c8.3,0,16.6,0,25,0c0.9,0,1.2,0.2,1.2,1.2c0,8.3,0,16.6,0,25c0,1-0.3,1.2-1.2,1.2c-8.3,0-16.6,0-24.8,0
		c-0.9,0-1.2,0.1-1.2,1.2c0.1,8.3,0,16.6,0,24.8c0,0.9,0.3,1.1,1.1,1.1c8.4,0,16.7,0,25.1,0c0.8,0,1.1-0.2,1.1-1.1
		c-0.1-3.8,0-7.7,0-11.5c0-0.8,0.2-1,1-1c8.4,0,16.8,0,25.2,0c0.7,0,1,0.2,1,0.9c0,13,0,26,0,39c0,0.8-0.3,0.9-1,0.9
		c-31,0-62.1,0-93.1,0c-0.7,0-1-0.2-1-0.9c0-8.5,0-17,0-25.4c0-0.8,0.3-0.9,1-0.9c3.8,0,7.7,0,11.5,0c0.8,0,1.1-0.1,1-1
		c0-26.5,0-53,0-79.6c0-0.7-0.2-1-0.9-1c-3.9,0-7.8,0-11.7,0c-0.7,0-1-0.1-1-0.9c0-8.5,0-17,0-25.4c0-1,0.4-0.9,1.1-0.9
		C441,409.5,456.4,409.5,471.9,409.5z"/>
	<path d="M61.1,477.4c0-13.1,0-26.3,0-39.4c0-1.1-0.3-1.3-1.3-1.2c-3.8,0.1-7.5,0-11.3,0c-0.8,0-1-0.2-1-1c0-8.4,0-16.9,0-25.3
		c0-0.7,0.2-1,0.9-1c23.9,0,47.8,0,71.7,0c0.6,0,0.9,0.2,1.3,0.6c2.9,3,5.9,5.9,8.8,8.9c3.9,3.9,7.7,7.8,11.6,11.7
		c0.5,0.5,0.7,1,0.7,1.7c0,12,0,24,0,36c0,0.7-0.2,1.2-0.7,1.7c-6.5,6.5-12.9,12.9-19.3,19.4c-1.2,1.2-2.3,1.7-4,1.6
		c-9.7-0.1-19.4,0-29.2-0.1c-1,0-1.2,0.2-1.2,1.2c0,8.3,0,16.6,0,24.8c0,0.9,0.2,1.1,1.1,1.1c3.8-0.1,7.7,0,11.5,0c0.8,0,1,0.2,1,1
		c0,8.4,0,16.9,0,25.3c0,0.9-0.3,1-1.1,1c-17.4,0-34.8,0-52.1,0c-0.8,0-1.1-0.1-1.1-1c0-8.4,0-16.8,0-25.2c0-0.9,0.3-1.1,1.1-1.1
		c3.8,0,7.6,0,11.4,0c0.9,0,1.1-0.2,1.1-1.1C61.1,503.9,61.1,490.6,61.1,477.4z"/>
	<path d="M204.7,436.7c4.6,6.9,9,13.6,13.6,20.4c4.6-6.8,9-13.5,13.7-20.4c-3.6,0-7-0.1-10.4,0c-1.1,0-1.3-0.3-1.3-1.3
		c0-8.3,0-16.6,0-24.8c0-0.9,0.2-1.1,1.1-1.1c16.7,0,33.4,0,50,0c0.9,0,1.2,0.2,1.2,1.2c0,8.3,0,16.6,0,24.8c0,1-0.2,1.3-1.2,1.3
		c-3.8-0.1-7.6,0-11.4,0c-0.6,0-1,0.2-1.4,0.7c-8.7,13.1-17.5,26.2-26.2,39.3c-0.3,0.5-0.4,0.9-0.4,1.5c0,13,0,25.9,0,38.9
		c0,0.8,0.2,1.1,1.1,1.1c3.8-0.1,7.7,0,11.5,0c0.7,0,1,0.1,1,0.9c0,8.5,0,17,0,25.4c0,0.8-0.3,0.9-1,0.9c-17.5,0-34.9,0-52.4,0
		c-0.8,0-1-0.2-1-1c0-8.4,0-16.8,0-25.2c0-1,0.3-1.1,1.2-1.1c3.8,0,7.7,0,11.5,0c0.8,0,1-0.2,1-1c0-13,0-26,0-39
		c0-0.6-0.1-1-0.5-1.5c-8.7-12.9-17.3-25.9-25.9-38.8c-0.6-0.9-1.2-1.3-2.3-1.2c-3.7,0.1-7.3,0-11,0c-0.8,0-1.1-0.1-1.1-1.1
		c0-8.4,0-16.8,0-25.2c0-0.9,0.3-1.1,1.1-1.1c16.7,0,33.4,0,50.2,0c0.9,0,1.1,0.2,1.1,1.1c0,8.4,0,16.8,0,25.2c0,0.8-0.2,1-1,1
		C211.9,436.7,208.4,436.7,204.7,436.7z"/>
	<path class="st1" d="M348.5,436.7c4.2,0,8.5,0,12.7,0c0.8,0,1,0.2,1,0.9c0,8.4,0,16.8,0,25.2c0,0.8-0.2,1-1,1c-8.4,0-16.8,0-25.2,0
		c-0.8,0-1.1-0.2-1.1-1.1c0-8.3,0-16.6,0-25c0-1,0.3-1.1,1.2-1.1C340.2,436.7,344.3,436.7,348.5,436.7z"/>
	<path class="st1" d="M102,436.7c4.2,0,8.4,0,12.6,0c0.8,0,1,0.2,1,1c0,8.4,0,16.8,0,25.2c0,0.8-0.3,1-1,1c-8.4,0-16.8,0-25.2,0
		c-0.9,0-1.1-0.2-1.1-1.1c0-8.3,0-16.6,0-25c0-1,0.3-1.1,1.2-1.1C93.6,436.7,97.8,436.7,102,436.7z"/>
</g>
</svg>
