<?xml version="1.0" encoding="utf-8"?>
<!-- Generator: Adobe Illustrator 21.1.0, SVG Export Plug-In . SVG Version: 6.00 Build 0)  -->
<svg version="1.1" id="Layer_1" xmlns="http://www.w3.org/2000/svg" xmlns:xlink="http://www.w3.org/1999/xlink" x="0px" y="0px"
	 viewBox="0 0 900 596" style="enable-background:new 0 0 900 596;" xml:space="preserve">
<style type="text/css">
	.st0{fill:#FEFEFE;}
	.st1{fill:#FDFDFD;}
	.st2{fill:#404040;}
	.st3{fill:#020202;}
	.st4{fill:#0B0B0B;}
	.st5{fill:#050505;}
	.st6{fill:#151515;}
	.st7{fill:#080808;}
	.st8{fill:#070707;}
	.st9{fill:#060606;}
	.st10{fill:#121212;}
	.st11{fill:#161616;}
	.st12{fill:#0A0A0A;}
	.st13{fill:#1D1D1D;}
	.st14{fill:#F2F2F2;}
	.st15{fill:#F1F1F1;}
	.st16{fill:#EFEFEF;}
</style>
<g>
	<path class="st0" d="M845,190.4c15.4,0,30.8,0.1,46.3-0.1c3.3,0,3.9,0.6,3.9,3.9c-0.1,70.9-0.1,141.8,0,212.8
		c0,3.3-0.6,4.5-3.9,3.9c-1-0.2-2,0-3,0c-293.3,0-586.6,0-879.9,0.1c-5.7,0-7-1.3-7-7c0.3-44.6,0.2-89.3,0.2-133.9
		c3.9,0.1,3.8,3.6,4.7,5.9c7.5,20.8,21.6,34.7,42.6,41.1c4.3,1.3,7.1,3.6,8.2,8c0.9,3.6,2.8,6.4,6.3,8.1c8.2,4.1,11.5,2.5,12-6.6
		c0.3-5.5,2.9-8.3,8-9.6c10.8-2.8,19.2-9.4,27.6-16.7c29.4-25.6,24.1-90-26.6-105.6c-2.6-0.8-6.4,0.1-7-4.2c91.5,0,183.1,0,274.6,0
		c-0.3,4-3.7,3.7-6.1,4.3c-5.1,1.5-10.1,3.1-14.9,5.5c-12.1,6-18.4,15.7-17.8,29.4c0.6,13.9,8.4,22.7,20.6,27.6
		c11.1,4.5,22.8,6.5,34.9,6.1c9.7-0.3,19.1,1.2,28.3,4.6c2.6,1,5.1,2.1,7.4,3.8c8.5,6.3,8.6,15.2,0.1,21.5
		c-9.1,6.8-19.9,8.8-30.8,9.2c-16,0.6-31.3-1.7-43.4-14c-4.2-4.3-10-2.8-15.2-2.1c-2.8,0.4-2.1,3-1.5,5c2.1,6.9,6.4,12,12.5,15.7
		c17.9,11.1,37.5,13.2,57.7,10.4c10.3-1.4,20.4-4,29.2-9.9c20.7-13.9,19.2-42.3-3.1-53.4c-8-4-16.6-6.5-25.5-6.5
		c-9.4,0-18.6-1.3-27.9-1.9c-6.3-0.4-12.5-2-18.1-5.3c-11.1-6.4-11.5-16.8-1.2-24.4c2.9-2.2,6.2-3.5,9.7-4.3
		c13.7-3.3,27.6-2.9,41.4-0.7c7.5,1.2,13.8,4.8,18.5,11c1.7,2.3,3.7,4.2,6.8,4.2c3.2,0,7.1,1.3,9.4-1.5c2.7-3.2,0.3-6.9-1.2-10
		c-5.9-12.2-17.3-16.4-29.2-19.8c-3.5-1-8.4,0.4-10-4.8c45,0,90,0,135,0c-0.7,4.5-4.8,3.8-7.6,4.8c-38,14.1-53.8,57.8-33.3,93.1
		c7.9,13.6,19.3,23.6,34.6,28c5.8,1.7,9.9,4.4,11.4,10.7c1.6,6.3,7.1,7.4,12.5,8c3.9,0.4,4.8-2.6,4.5-5.6
		c-0.8-8.4,3.8-11.3,11.1-13.6c22.6-6.9,40.9-30,42.1-52.1c1.7-31.3-11.6-55.1-36.3-66.4c-4.5-2-10.8-1-13.2-7c91,0,182,0,273.1,0
		c-0.3,4-3.7,3.7-6.1,4.3c-5.6,1.5-11.1,3.4-16.3,6.2c-10.8,5.8-16.5,14.7-16.5,27.1c0,12.4,5.8,21.2,16.7,27
		c11.8,6.2,24.5,7.9,37.4,8.3c9.9,0.3,19.7,1.1,29.1,4.4c3.1,1.1,6.1,2.5,8.7,4.6c7.6,6.2,7.6,14.6-0.1,20.6
		c-9.2,7.1-20.3,9.2-31.4,9.6c-16,0.6-31.2-1.8-43.4-14.1c-4.2-4.2-10.1-3-15.2-1.9c-3.5,0.8-2,4.2-1.1,6.5
		c3,7.1,8.5,11.9,14.9,15.8c9.1,5.5,19.1,8.2,29.4,9.4c16.1,1.8,31.8-0.1,46.9-6.2c15-6.1,22.5-16.8,22.2-31.3
		c-0.3-13.3-7.4-21.8-18.9-27c-9.4-4.3-19.3-5.6-29.5-5.9c-10.8-0.3-21.7-1-32.3-3.6c-5.3-1.3-9.9-3.8-13.6-7.9
		c-4.6-5.1-4.8-9.5-0.8-15.1c3.3-4.5,7.7-7.4,13-8.7c15.7-3.9,31.5-3.9,47.2,0.1c5.8,1.5,10.8,4.5,14.1,9.7c3.9,6,9.6,4.7,15,4.1
		c3-0.4,2.9-3.2,2.3-5.5c-1.5-5.8-4.7-10.7-9.2-14.6c-7.7-6.7-16.8-10.1-26.7-11.9C849.4,193.7,845.8,194.7,845,190.4z"/>
	<path d="M77.4,190.4c14.2,3.8,27.1,9.8,37.2,21.2c32.3,36.4,15,95.4-31.8,107.6c-4.7,1.2-5.6,3.3-5.8,7.7
		c-0.2,3.4,3.4,8.6-2.5,10.3c-6.8,1.9-17.3-3-18.1-9c-0.9-7-4.9-8.3-10.5-10.1c-21.9-7.4-36-22.7-42.5-45.1c-0.3-1.2-0.2-2.6-1.7-3
		c0-9.2,0-18.4,0-27.6c3.5-22.7,16.2-38.2,36.4-48.2c4.9-2.4,10.2-2.3,15.2-3.9C61.2,190.4,69.3,190.4,77.4,190.4z"/>
	<path d="M543.1,190.4c6,2.3,12.2,4.2,17.8,7.1c24.2,12.6,36.9,38.5,33.7,67.9c-2.7,24.7-22.5,47.4-47.5,53.7
		c-4.4,1.1-6,2.7-6.1,7.4c-0.1,3.5,3.5,9.2-2.9,10.6c-7.2,1.6-17.1-2.9-17.6-8.5c-0.6-7.7-5.3-8.8-11-10.6
		c-27.5-8.9-44.5-34.2-44-65.1c0.5-27.7,18.9-51.9,45.6-60.1c2-0.6,4.7,0.1,6-2.4C525.9,190.4,534.5,190.4,543.1,190.4z"/>
	<path d="M845,190.4c7.5,2.6,15.6,2.8,22.9,6.2c11.6,5.4,20.3,13,23,26.3c1,4.8-0.1,6.7-5.1,6.1c-3-0.3-6.1-0.2-9.1,0
		c-3.3,0.2-5.3-0.4-6.7-4.2c-2.7-7.1-9.4-9.7-16.1-11.3c-13.7-3.3-27.5-3.3-41.3-0.2c-2.7,0.6-5.3,1.6-7.8,2.9
		c-4.9,2.5-9.3,5.9-9.4,11.9c-0.1,6.2,4.7,9.2,9.6,11.6c10.5,5.3,22,5.1,33.3,5.4c10.9,0.3,21.6,1.3,32,5.1
		c13.1,4.8,21.9,13.3,23.3,28c1.5,15.7-5.4,26.9-19,33.3c-27.2,12.8-54.6,13.1-81.7-0.5c-9.3-4.7-16.3-11.9-18.5-22.9
		c-0.7-3.6-0.1-5.3,3.9-5.1c7.4,0.4,15.1-2,20.6,6.7c3.1,5,10,6.6,15.9,8.2c17,4.5,33.6,3.4,49.5-4.2c4.7-2.2,9.1-5.4,9-11.3
		c-0.1-6.1-4.6-9.4-9.7-11.6c-9.9-4.3-20.4-5.5-31-5.6c-13.2,0-26.2-1.6-38.2-7.6c-11.7-5.9-19.1-15-19.2-28.7
		c-0.1-14.1,6.7-24,18.8-30.8c7.1-3.9,15.3-4.1,22.4-7.8c2,0,4,0,6.1,0c7.1,1.3,14.2,1.3,21.2,0C844,190.4,844.5,190.4,845,190.4z"
		/>
	<path d="M382.3,190.4c3.7,2.9,8.4,1.9,12.6,3.2c14.1,4.4,26.3,10.8,31,26.2c2.5,8.2,1.7,9.2-6.6,9.2c-6.3,0-12.5,1.4-15.8-7.3
		c-1.9-5.2-8.5-6.9-13.9-8.2c-14-3.3-28-3.2-42-0.1c-3.1,0.7-6.2,2.2-9,3.9c-10,6.2-9.8,15.6,0.3,21.4c11,6.3,23.3,6.1,35.4,6.4
		c10.9,0.3,21.6,1.4,31.9,5.1c13.5,4.9,22.1,13.9,23.2,29c1.1,15.3-6,26.2-19.4,32.4c-26.9,12.6-54.2,12.9-81-0.3
		c-9.4-4.6-16.4-11.8-18.7-22.6c-0.3-1.6-1.5-3.4,0.1-5c1.4-1.4,18.6-0.9,19.7,0.9c8.2,12.6,21.4,14.6,34.5,15.7
		c12.7,1.1,25.2-0.8,36.6-7.3c4.1-2.3,7.8-5.3,7.7-10.5c-0.1-5.5-3.9-8.7-8.4-10.8c-10-4.8-20.7-6.2-31.6-6.2
		c-12.5,0-24.7-1.3-36.2-6.4c-12.9-5.7-21.6-14.8-21.7-30.1c-0.2-15.7,7.9-25.9,21.5-31.9c6.3-2.8,13.1-4.4,19.6-6.6
		c1.5,0,3,0,4.6,0c7.6,1.3,15.2,1.3,22.8,0C380.3,190.4,381.3,190.4,382.3,190.4z"/>
	<path class="st1" d="M53.1,190.4c-0.3,1.2-1.2,1.3-2.2,1.5c-24.2,6.1-39.7,21.4-47.2,45.3c-0.5,1.8,0.2,4.2-2.2,5.2
		c0-17.3,0-34.7,0-52C18.7,190.4,35.9,190.4,53.1,190.4z"/>
	<path class="st2" d="M379.3,190.4c-7.6,2.4-15.2,2.7-22.8,0C364.1,190.4,371.7,190.4,379.3,190.4z"/>
	<path class="st2" d="M843.5,190.4c-7.1,2.5-14.2,2.5-21.2,0C829.3,190.4,836.4,190.4,843.5,190.4z"/>
	<path d="M262.5,229.7c0,11.2,0.3,22.4-0.1,33.6c-0.9,27-27.1,60.3-66.1,57.6c-29-2-55.7-30-56.2-61.6c-0.3-20.6,0.1-41.3-0.2-61.9
		c0-4.4,1.4-5.4,5.6-5.5c16.4-0.2,16.4-0.4,16.4,15.9c0,16.6-0.1,33.1,0,49.7c0.1,23.2,17.7,42,39.3,42.1c22,0.1,39.9-18.7,40-42.2
		c0.1-19.6,0.1-39.3-0.1-58.9c-0.1-4.6,0.6-6.6,6-6.6c15.7,0.1,15.7-0.1,15.7,15.7c0,7.4,0,14.8,0,22.2
		C262.7,229.7,262.6,229.7,262.5,229.7z"/>
	<path d="M726.2,230.4c0,12.5,1.1,25.1-0.2,37.4c-2.9,26.1-28.1,56.7-67.8,52.8c-28.1-2.8-53.2-30.5-53.8-61.5
		c-0.4-20.6,0-41.3-0.2-62c0-3.8,0.7-5.2,4.9-5.4c16.9-0.5,16.9-0.7,16.9,16.2c0,16.3,0,32.6,0,49c0.1,23.7,17.6,42.4,39.7,42.5
		c21.5,0,39.3-18.6,39.6-41.9c0.3-19.9,0.2-39.8-0.1-59.7c-0.1-4.6,1-6,5.8-6c15.7,0,15.7-0.2,15.7,15.7c0,7.7,0,15.3,0,23
		C726.7,230.4,726.4,230.4,726.2,230.4z"/>
	<path class="st3" d="M299.6,255.4c0,19.4-0.1,38.7,0.1,58.1c0.1,4.6-1,6.1-5.8,6.1c-16,0.1-16,0.3-16-15.6
		c0-35.2,0.1-70.3-0.1-105.5c0-5.3,1.2-6.9,6.6-6.8c15.3,0.2,15.3,0,15.3,15.5C299.6,223.3,299.6,239.4,299.6,255.4z"/>
	<path class="st3" d="M764,256.2c0,19.1-0.2,38.3,0.1,57.4c0.1,4.7-1.2,6-5.9,6.1c-16,0.1-16,0.3-16-15.6c0-35.2,0.1-70.4-0.1-105.6
		c0-5.4,1.3-6.8,6.7-6.7c15.3,0.2,15.3,0,15.3,15.5C764,223.6,764,239.9,764,256.2z"/>
	<path class="st4" d="M329.7,393c0-10.4,0-19.1,0-27.7c0-1.9-0.7-4.6,2.3-4.8c3.6-0.3,3,2.7,3,4.8c0.1,13.1,0,26.1,0,39.8
		c-11.6-10.8-22.4-20.9-33.3-31c0,7.4,0.1,15.9,0,24.4c0,2.3,1.1,5.7-3.1,5.5c-3.5-0.2-2.4-3.3-2.4-5.4c-0.1-12.7,0-25.4,0-37.7
		C306.7,371.1,317.5,381.4,329.7,393z"/>
	<path class="st5" d="M390,404.7c-12.6,0-22.6-10-22.5-22.6c0.1-12.6,10-22.3,22.8-22.2c12.8,0.1,22.7,9.9,22.6,22.5
		C412.8,395,402.8,404.7,390,404.7z"/>
	<path class="st4" d="M844.6,385.6c2,2.8,4,5.7,6,8.5c2,2.8,4,5.7,5.3,9.2c-10.6-0.7-10.9-12.3-18.6-17.7c0,5,0,9.6,0,14.3
		c0,2.1,0,4.3-3,4.1c-2.4-0.2-2.5-2-2.5-3.9c0-12,0-23.9,0-35.9c0-1.5,0.1-2.9,1.9-3.7c5.2-2.3,17.4,1.6,19.7,6.3
		c3.2,6.6,0.4,13.3-7.3,17.4C845.6,384.5,845.3,384.9,844.6,385.6z"/>
	<path class="st6" d="M123.6,382.5c0-5.9,0-11.7,0-17.6c0-1.7-0.4-4.2,2-4.3c6.3-0.3,12.6-0.2,18.9-0.1c1.5,0,2,1.3,2,2.7
		c0,1.6-1.2,2.2-2.5,2.2c-2.5,0.1-5.1,0.2-7.6,0c-4.3-0.2-7.6-0.5-7.6,6c0,6.3,2.9,6,7.3,6.3c3.2,0.2,9.3-2.8,9.3,2.4
		c0,5.1-6.3,2.6-9.3,2.3c-7.5-0.7-7.2,3.4-7.2,8.7c-0.1,5.3,0.5,9,7.1,7.8c2.4-0.4,5-0.1,7.6-0.1c1.8,0,2.9,0.8,2.8,2.7
		c-0.1,1.9-1.3,2.5-3.1,2.5c-5.6,0-11.1,0-16.7,0c-3.5,0-3.2-2.5-3.2-4.8C123.6,393.7,123.6,388.1,123.6,382.5z"/>
	<path class="st7" d="M245.8,357.8c6.2,14.5,11.8,27.5,17.2,40.6c0.6,1.6,3.8,4.1-0.1,5.5c-2.6,0.9-4.3-1-4.8-3.5
		c-1.6-7-5.5-9.4-12.9-9.2c-6.5,0.2-10.5,1.6-11.9,8.2c-0.3,1.4-1.2,2.9-2.2,3.9c-1.1,1.1-2.9,1.3-4.2,0.3c-1.5-1-0.2-2.2,0.3-3.3
		C233.2,386.7,239.1,373,245.8,357.8z"/>
	<path class="st8" d="M540.6,357.9c6.3,14.7,12,28,17.6,41.4c0.6,1.4,2.6,3.3,0.2,4.6c-1.9,1-4,0.2-4.9-2.1
		c-0.2-0.5-0.4-0.9-0.6-1.4c-1.6-2.8-1.4-7.6-4.6-8.3c-4.8-1.1-10-0.6-15.1-0.4c-2.8,0.1-2.7,3.3-3.9,5.1c-1.9,2.8-1.7,9.4-6.7,6.8
		c-3.6-1.9,0.9-6,2.1-8.9C529.6,382.7,534.9,371,540.6,357.9z"/>
	<path class="st9" d="M648.1,357.9c6.5,15.2,12.3,28.7,17.9,42.1c0.5,1.1,2.2,2.8,0,3.8c-1.3,0.6-3.1,0.5-4.2-0.8
		c-0.8-0.9-1.5-2.2-1.7-3.4c-1.4-7-5.6-8.5-12.4-8.5c-6.5,0-10.6,1.5-12.1,8.1c-0.3,1.2-0.9,2.4-1.7,3.4c-1,1.4-2.6,1.8-4,1.2
		c-2-0.9-1-2.5-0.4-3.9C635.4,386.6,641.4,373.2,648.1,357.9z"/>
	<path class="st10" d="M779.7,381.9c0-1.5,0-3.1,0-4.6c0-18.8,0.6-19.3,19.2-17c1.8,0.2,3.7,0.1,3.7,2.7c0,2.6-2,2.4-3.8,2.5
		c-2.3,0-4.6,0.2-6.8,0c-4.9-0.6-7,0.6-7.1,6.4c-0.1,6,2.9,6,7,5.7c1.5-0.1,3-0.2,4.5,0c2.2,0.3,6-1.3,5.7,2.7
		c-0.2,3.8-3.9,2-6.1,2.4c-0.7,0.1-1.5-0.1-2.3,0c-2.8,0.6-7-1.8-8.1,1.7c-1.2,4-1.2,8.7-0.2,12.8c0.8,3.4,4.9,1,7.3,1.8
		c3.2,1,9.3-2.5,9.3,2.5c0.1,5.3-6,2.4-9.2,2.5c-13.2,0.4-13.2,0.2-13.2-12.9C779.7,388,779.7,385,779.7,381.9z"/>
	<path class="st8" d="M26.8,359.8c0.8,0,3.1,0.1,5,1.6c1.8,1.4,5.4,2.5,3.6,5.6c-2,3.4-4,0.5-6.1-0.9c-4-2.8-7.8-2.1-10.3,2.1
		c-2.5,4.3,0.8,6.6,4,8.3c3.1,1.7,6.4,3,9.5,4.8c5.3,3.2,6.8,8.2,5,13.9c-2,6.3-6.7,9.3-13.2,9.4c-6,0.1-10-2.8-12.5-8.2
		c-0.6-1.4-1.4-3,0.7-3.8c1.8-0.7,3.2-0.4,4.3,1.7c2.2,4.3,5.4,6.7,10.5,4.7c3.1-1.2,5.2-3.3,5.6-6.6c0.4-3.4-1.4-5.9-4.3-7.5
		c-2.9-1.6-5.9-2.9-8.9-4.3c-5.7-2.8-7.6-7.5-6-13.3C15.1,361.7,19.7,359.8,26.8,359.8z"/>
	<path class="st9" d="M494.4,369.3c-10.7-6.6-19.3-6-25.4,1.4c-5.7,6.9-5.7,16.3,0,23c6.5,7.6,14.7,8.1,25.2,1.4
		c1.8,3.7,0.7,5.9-2.8,7.7c-8.9,4.4-20.8,1.5-27.3-6.7c-6.2-7.8-6.2-19.5,0-27.6c6.4-8.4,18.1-11.2,27.2-7
		C494.7,363.1,495.7,365.3,494.4,369.3z"/>
	<path class="st7" d="M594.1,392.7c3.8-10.1,7-18.8,10.3-27.6c1-2.7,2.1-6,5.6-4.4c3.2,1.5,0.2,4.1-0.4,5.8
		c-4.8,13-9.9,26-15.5,40.5c-5.8-15.3-11.2-29.2-16.5-43.2c-0.6-1.6-1.1-2.9,1.2-3.4c1.9-0.4,3.4,0.2,4.2,2.3
		c2.4,6.4,4.8,12.8,7.2,19.2C591.2,385,592.4,388.1,594.1,392.7z"/>
	<path class="st11" d="M180.5,381.8c0-2.3,0-4.6,0-6.9c0-15.5,1.8-17,16.9-14.6c1.6,0.3,2.9,0.4,3.1,2.4c0.2,2.5-1.2,3-3.3,2.9
		c-1.5-0.1-3,0.2-4.5,0c-5.1-0.8-6.8,1.1-6.9,6.5c-0.2,6.2,3.1,5.7,7,5.5c1.3-0.1,2.5,0,3.8,0c1.8,0,3.7-0.1,3.9,2.4
		c0.2,2.6-1.8,2.5-3.6,2.8c-3.6,0.6-8.4-2.2-10.4,1.6c-1.6,3-0.4,7.4-0.5,11.3c0,1.8,0,3.6,0,5.3c0,1.7-0.6,3-2.4,3.2
		c-2.3,0.2-3.1-1.2-3.1-3.3C180.6,394.5,180.5,388.1,180.5,381.8z"/>
	<path class="st4" d="M693.5,382.5c0-5.3-0.1-10.7,0.1-16c0.1-2.2-1.4-5.8,2.6-5.9c4.1-0.2,2.8,3.5,2.8,5.7c0.1,8.6,0.3,17.3,0,25.9
		c-0.2,4.8,0.4,7.8,6.3,6.9c1.9-0.3,5.2-1.3,5.3,2.2c0.2,4.2-3.4,2.8-5.6,2.8c-13.9,0-11.1,1.4-11.4-10.9
		C693.4,389.6,693.5,386,693.5,382.5z"/>
	<path class="st8" d="M77.4,385.5c0-3.6-0.1-7.1,0-10.7c0.3-5.5,0.9-11.2-7.6-9.4c-1.6,0.3-2.9-0.4-2.9-2.5c0.1-2.1,1.4-2.5,3-2.5
		c6.8,0,13.6,0,20.4,0c1.7,0,3.1,0.6,3.1,2.5c0,2-1.5,2.7-3.1,2.4c-8.3-1.7-8.1,3.6-7.9,9.3c0.3,8.1,0.1,16.3,0,24.4
		c0,2.1,0.7,5.1-3,4.8c-3.2-0.2-2.1-3-2.1-4.7C77.3,394.6,77.4,390.1,77.4,385.5z"/>
	<path class="st12" d="M736.7,382c0-5.1-0.1-10.2,0.1-15.3c0.1-2.2-1.5-6,2.4-6c4.7-0.1,2.6,4.1,2.6,6.4c0.3,8.1,0.4,16.3,0,24.5
		c-0.3,5.6,0.9,8.6,7.2,7.6c1.9-0.3,5-1.2,4.9,2.7c-0.1,3.2-2.8,2.3-4.6,2.4c-12.6,0.8-12.6,0.8-12.6-12.2
		C736.7,388.6,736.7,385.3,736.7,382z"/>
	<path class="st13" d="M890,382.5c0,5.6,0,11.2,0,16.8c0,2.3,0.4,4.9-3.1,4.8c-3.3-0.1-2.4-2.7-2.4-4.5c-0.1-11.5-0.1-22.9,0-34.4
		c0-2-1-5.1,2.8-4.8c3.5,0.3,2.6,3.1,2.7,5.2C890.1,371.3,890,376.9,890,382.5z"/>
	<path class="st0" d="M77.1,300c0-3.6,0.3-6.6-0.1-9.6c-0.4-3.3,2.1-8.8-1.5-9.6c-6.2-1.4-13.1-1.1-19.5,0.1
		c-2.7,0.5-0.7,5.5-1.2,8.4c-0.6,3.4,1.8,8.2-1.2,9.9c-2.8,1.5-6.5-1.7-9.5-3.5c-17.3-10.1-25.4-33-19-53.4
		c6.1-19.3,24.6-32.1,44-30.5c20.2,1.7,36.5,16.9,39.8,37c3.4,20.9-7.7,41.9-26.1,49.5C81.2,298.9,79.5,299.3,77.1,300z"/>
	<path class="st0" d="M487,256.7c0.2-23.2,16.4-41.8,38.5-44.7c20.6-2.7,40.9,11.2,46.6,32.1c5.9,21.6-4.7,45.1-24.1,53.9
		c-4.9,2.2-6.9,2.4-6.8-4.1c0.3-13.7-0.1-13.3-13.8-13.9c-7.4-0.4-9,2.5-8.4,9c0.3,3.4,1.8,8.7-0.8,10.1c-3.5,1.8-7.5-1.8-10.8-4
		C493.3,285.9,487.7,272.3,487,256.7z"/>
	<path class="st1" d="M373,381.9c0.1-9.8,7.6-17.3,17.3-17.3c9.5,0.1,17.4,8,17.4,17.4c0,9.3-8.1,17.7-17.2,17.8
		C380.7,400.1,372.9,392,373,381.9z"/>
	<path class="st14" d="M836.5,373.4c2.1-2.9-2.2-8.3,4.4-8c4.8,0.2,8.4,2.2,8.2,7.6c-0.1,5.6-4.3,7.1-8.8,7.2
		C834,380.5,839.4,375,836.5,373.4z"/>
	<path class="st15" d="M245.5,370c2.8,6.7,4.7,11.3,6.8,16.3c-4.8,0.1-11.4,1.8-11.9-0.8C239.7,381.5,243,376.8,245.5,370z"/>
	<path class="st14" d="M540.5,370.5c2.5,6,4.4,10.6,6.4,15.5c-4.4,1.1-8.3,0.6-13.2,0.4C535.9,381.2,537.9,376.6,540.5,370.5z"/>
	<path class="st16" d="M647.3,371.7c2.8,2.1,3.2,4.7,3.9,7c0.9,2.4,4.1,5.6,1.8,7.2c-2.2,1.6-6.2,0.8-9.4,0.6
		c-3.2-0.2-1.6-2.3-1-3.8C644.1,379.2,645.6,375.8,647.3,371.7z"/>
</g>
</svg>
