<?xml version="1.0" encoding="utf-8"?>
<!-- Generator: Adobe Illustrator 21.1.0, SVG Export Plug-In . SVG Version: 6.00 Build 0)  -->
<svg version="1.1" id="Layer_1" xmlns="http://www.w3.org/2000/svg" xmlns:xlink="http://www.w3.org/1999/xlink" x="0px" y="0px"
	 viewBox="0 0 700 965" style="enable-background:new 0 0 700 965;" xml:space="preserve">
<style type="text/css">
	.st0{fill:#FEFEFE;}
	.st1{fill:#231F20;}
	.st2{fill:#A4A1A2;}
	.st3{fill:#CBC7C8;}
	.st4{fill:#ABAAAA;}
	.st5{fill:#241F21;}
	.st6{fill:#CB4C92;}
	.st7{fill:#CA4E94;}
	.st8{fill:#C85196;}
	.st9{fill:#CB4F97;}
	.st10{fill:#CE4B97;}
	.st11{fill:#CF4C95;}
	.st12{fill:#CB5294;}
	.st13{fill:#CC4C98;}
	.st14{fill:#D04C9A;}
	.st15{fill:#CE4A92;}
	.st16{fill:#CA5095;}
	.st17{fill:#C95796;}
	.st18{fill:#CF509C;}
	.st19{fill:#D45299;}
	.st20{fill:#995D82;}
	.st21{fill:#9A5C86;}
	.st22{fill:#CE3F95;}
	.st23{fill:#D04095;}
	.st24{fill:#261F22;}
	.st25{fill:#F0EFEF;}
	.st26{fill:#875F72;}
	.st27{fill:#CAC9C9;}
	.st28{fill:#C76096;}
	.st29{fill:#9F9198;}
	.st30{fill:#341C2C;}
	.st31{fill:#605F60;}
	.st32{fill:#727373;}
	.st33{fill:#FDFDFD;}
	.st34{fill:#FBFBFB;}
	.st35{fill:#F9FAFA;}
	.st36{fill:#FAFBFB;}
	.st37{fill:#FAF4F9;}
	.st38{fill:#F9EAFB;}
	.st39{fill:#F8F6F9;}
	.st40{fill:#FAE7F5;}
	.st41{fill:#C1B7BE;}
	.st42{fill:#3C202F;}
	.st43{fill:#797576;}
	.st44{fill:#D2D0D1;}
</style>
<g>
	<path class="st0" d="M701.3,635.9c0,18.8-0.2,37.6,0.1,56.5c0.1,4.6-0.8,5.9-5.7,5.9c-131.1-0.2-262.2-0.1-393.3-0.1
		c-0.4-0.6-0.4-1.2,0.1-1.7c5.3-2.2,11.1-2.7,16.4-4.9c3.4-1.4,6.6-2.9,9.1-5.6c0.9-0.9,1.8-2,1.2-3.4c-0.7-1.7-2.3-1.6-3.8-1.4
		c-2.3,0.3-4.5,1.1-6.7,2c-16.1,6.8-29.7,2.3-41.9-9c-10.7-9.9-18.5-21.9-26.7-33.8c-13.4-19.4-23.5-40.6-36-60.5
		c-11.1-17.6-23.4-34.2-38.4-48.8c-3.2-3.1-6.8-5.7-10.4-8.3c-4.6-3.4-4.4-5.3,0.9-7.3c15.2-5.7,28.9-14,41.2-24.6
		c30-25.9,51.6-57.3,59.4-96.6c5.7-29,2.4-57.1-16.7-81.3c-16.4-20.9-38.3-32.9-64.4-37.5c-6.8-1.2-13.8-2.1-20.5-3.7
		c-0.5-0.5-0.6-1.1-0.1-1.7c176.8,0,353.6,0,530.4-0.1c4.8,0,5.8,1.1,5.8,5.8c-0.2,116.7-0.1,233.3-0.1,350
		c-8.4,6.1-18.2,2.9-21.6-7.3c-2.9-8.9-2.3-18.1-1.2-27.1c2.3-19.3,5.9-38.5,7.9-57.9c1-9.6,0.4-18.6-8.8-24
		c-9.3-5.4-18.9-4.1-27.6,1.6c-8.4,5.5-14.6,13.5-19.7,22.1c-8.2,13.6-15,28-21.1,42.6c-1,2.3-1.9,4.7-3.2,6.9
		c-1.3,2.2-1.6,6.4-4.7,5.8c-3.9-0.7-3.1-5-3.2-8c-0.3-11.2,1.6-22.3,1.5-33.6c0-4.7,2.3-8.9,5-12.8c24.7-36.1,39.7-76,46.4-119.1
		c0.9-5.8,1-11.8-0.7-17.6c-3.7-12.8-16.8-16.7-27-7.9c-5.6,4.8-9,11.1-12.2,17.6c-7.6,15.8-11.4,32.7-14.6,49.8
		c-5.7,30.4-9.6,61-12.4,91.8c-1.3,14.5-2.3,29.1-3.1,43.6c-0.9,16.2-9.9,27.9-24.2,35.5c-2.6,1.4-5.6,2.1-8.6,1.7
		c-2.8-0.4-4.6-2-3.5-4.8c7.6-19,0.9-37.1-3.1-55.4c-3.2-14.3-8.5-27.9-13.1-41.8c-1.8-5.4-2.4-10.7-0.4-16.1c0.5-1.4,0.8-2.8,1-4.3
		c0.9-7.1-1.1-10.4-6.9-11.3c-5.9-0.9-10.1,2.2-10.6,8.9c-0.7,9.8-3.2,19.2-5.8,28.6c-4.8,17.4-10.3,34.5-16.7,51.3
		c-1.6,4.2-3.6,8.1-6,11.9c-1.8,2.8-3.9,4.9-7.7,4.7c-5.2-0.3-7.2,2.7-7.4,7.4c-0.1,3,0,5.9,0.3,8.9c1.2,10.5-9.1,18.4-19,14.6
		c-8.4-3.3-12.7-10.3-15.1-18.5c-3-10.4-4.5-21.2-3.8-32c1.1-20.3,2.8-40.5,6-60.6c0.8-5,2.3-9.9,3.4-14.8c0.6-2.9,1-6.1-2.1-8
		c-2.9-1.8-5.8-0.6-8.4,0.9c-3.8,2.1-5.6,5.7-7,9.5c-4.1,11-6,22.6-6.3,34.2c-0.5,18.8-2.2,37.5,0.4,56.4c1.2,8.6-5.6,15.2-10.1,22
		c-2,3-4.8,5.3-7.5,7.8c-8.1,7.3-17.6,6.6-24.3-2.1c-8-10.4-9.8-23.1-12.8-35.5c-4.1-16.9-0.6-30.6,9.7-45.3
		c19.6-27.8,28.8-60,32.3-93.9c1.6-15.4,2.7-30.7-0.3-46.1c-0.4-1.9-0.8-3.7-1.3-5.6c-3.6-11.3-14-16-24.7-10.9
		c-8.9,4.2-14,12.1-18.3,20.4c-7,13.5-10.2,28.2-12.7,43.1c-5.8,34.2-5.9,68.7-5.1,103.2c0.2,10.1,0.6,20.4,3.2,30.2
		c2.3,8.6,0.3,16-4.3,22.9c-8.1,12.3-18.8,21.7-33.1,26.5c-12.2,4.1-23.3,0.2-30.8-10.1c-8.6-11.7-11.3-25.4-13.2-39.3
		c-0.5-3.7,1.3-6.1,5.2-6.5c1.9-0.2,3.8-0.3,5.7-0.4c17.5-1,30-9.6,37.7-25c6.2-12.4,8.1-25.9,6.4-39.6
		c-1.9-14.7-13.6-23.1-28.2-20.6c-12.3,2.1-22.1,8.2-29.2,18.5c-10,14.3-14.8,30.4-14.9,47.8c-0.1,13.7-1,27.5,2.5,41.1
		c2.4,9.3,5.2,18.4,11.4,26c13.4,16.3,39,20.6,59.2,9.7c9.9-5.3,18.1-12.4,24.5-21.7c5.1-7.3,5.7-7.2,9.7,0.4
		c3,5.7,6.2,11.2,11.2,15.3c14.1,11.7,31.8,9.9,43.9-4.5c2.6-3.1,5.1-6.2,7.5-9.5c2.3-3,4.5-2.7,6.5,0.2c1,1.4,1.7,2.9,2.5,4.4
		c8.1,15.8,30.5,22.1,42.2,12.1c3-2.6,6.4-2.5,9.1,0.5c12.2,13.9,36,15.9,55.2,5c5.1-2.9,10.2-4.6,16.2-4.7c8.7,0,15.9-4,22.3-9.4
		c1.5-1.2,2.7-2.7,4.1-3.9c1.6-1.4,3.1-3.3,5.4-2.6c2.7,0.8,2.9,3.4,3,5.8c0.2,3.4,0.7,6.7,1.7,10c1.2,4,3.3,6.9,7.9,7
		c4.9,0.1,8.1-2.3,9.4-7c2.2-8.2,4.2-16.4,6.6-24.5c8.7-30,20.1-58.9,37.3-85.2c2.5-3.8,5.3-7.1,8.8-9.9c2.9-2.3,6.2-3.9,10-2.4
		c3.9,1.6,4.6,5.2,4.9,8.9c0.9,12.4-2,24.4-4.4,36.5c-2.7,14.2-5.3,28.3-4.5,42.8c0.2,4.3,0.7,8.4,2,12.5
		c5.1,16,14.5,22.2,32.2,21.3C696.5,635,699,633.9,701.3,635.9z"/>
	<path class="st0" d="M288.4,698.1c-94,0-188,0-282,0.1c-4.4,0-5.2-0.9-5.2-5.2c0.2-91.9,0.1-183.8,0.1-275.7
		c0.7-0.4,1.2-0.3,1.8,0.2c2.6,7.2,2.8,14.9,4.9,22.2c5,17.7,13.4,33.3,26.8,46c2.1,2,4.8,5.9,7.8,3c2.7-2.6-1.1-5.2-2.7-7.5
		c-22.6-32.2-31.1-67.5-21.4-105.9c7.7-30.6,27.8-52.1,54.7-67.6c23.2-13.4,48.6-20,75.2-20.2c28.6-0.2,55.7,6.1,77,27
		c17.5,17.2,23.7,38.4,21.9,63c-2.3,32.2-14.5,60.1-33.3,85.7c-10.1,13.7-22.4,25.3-36.5,34.9c-1.8,1.2-3.4,2.5-5.7,2.4
		c-3.2-1.1-1.5-3.1-0.5-4.4c10.1-13.8,7.9-26.5-2.9-38.7c-1-1.1-1.6-2.4-1.7-4c0.2-3.3,2-5.9,3.7-8.5c2.1-3.1,3.8-6.5,5-10.1
		c0.7-1.9,1.7-3.6,2.8-5.3c1.8-3.1,4.1-6,4.1-9.8c-0.3-1.4-0.7-2.9-0.8-4.4c-0.3-3,0.5-5.8,1.8-8.6c7.8-17.1,5.1-33-7.4-46.4
		c-7.5-8.1-10.2-17.2-11.1-27.5c-0.7-8.3-3-16.2-7.5-23.3c-5.4-8.5-13.4-12-23.3-10.8c-3.4,0.4-6.7,0.3-10.1-0.4
		c-17.4-3.7-26.5,7.9-28.1,22.1c-0.4,3.8-0.2,7.6-0.1,11.4c0.1,6.5-3,10.8-8.9,13.3c-2.3,1-4.7,1.8-7,3c-7.9,4.3-11.3,11.2-10.5,20
		c0.4,4.5,0.7,8.5-5,9.9c-2.5,0.6-1.6,2.6-1,4.1c1.7,4.3,4.1,8.3,7.1,11.9c4.5,5.4,3.9,6.9-3.2,8.1c6.2,16.2,19.6,24.1,37.5,22.3
		c3.9-0.4,3.2-2,2.2-4.6c-4.1-11.1,1.5-28,11.3-34.4c0.5-0.3,1.2-0.4,1.8-0.5c0.6,0.2,1,0.7,1.2,1.3c-0.6,5.6-2.2,11.1-1.8,16.4
		c1.2-2.7,3-5.6,4.9-8.4c1.3-1.5,2.3-3.1,2.7-5.1c0.6-1.7,1.6-3,2.9-4.2c0.8-0.8,1.8-1.4,2.7-2.1c2.3-1.4,3.4-3.7,4.6-5.9
		c0.9-1.6,2.1-3,3.4-4.3c1.9-2,3.8-3.9,5.6-6.1c1.1-1.3,2.4-2.6,4.3-1.7c1.9,0.9,1.7,2.8,1.4,4.5c-1.1,6.6-0.6,13.1,2.2,19.2
		c3,6.6,7,12.6,11,18.5c4.5,6.5,4.9,12.5,1.4,19.5c-2.9,5.8-4.7,12.2-8.6,17.6c-1.7,2.4-3.5,4.8-6.5,5.7c-8,5.4-17.4,5-26.4,5.9
		c-1.5,0.1-3,0-4.1,1.2c-2.1,4-4.1,8-6.1,12c-3.7,8.5-11.5,12-19.3,15.2c-22.2,9-43.5,19.6-62.4,34.6c-1.6,1.3-3.4,2.5-4.4,4.5
		c-4.9,9.2-1.9,15.9,9.1,18.6c10.6,2.7,21.4,4.8,32,7.8c3.7,1,7.3,2.2,10.9,3.3c4.6,1.4,6.1,4.4,5.9,9.1c-1.2,27-5.8,53.6-7.9,80.5
		c-0.9,11.5-3.4,23.1-12.6,31.6c-4.5,3.8-10.3,4.6-15.8,6.1c5.6,1.3,11,3.2,16.5,4.5c8,2,9.8,1.2,13.9-5.9c2.2-3.9,4.5-7.7,8.3-10.3
		c4.4-3.1,7.2-1.7,7.6,3.6c0.2,3.4,0.1,6.8-0.8,8.8c1.1-6,1.8-13.3,2.8-20.5c0.6-4.6-2.5-7.9-5.3-11.1c-2.3-7.4,0.2-14.3,3.2-20.8
		c4-8.7,6.9-17.6,7.8-27.2c0.9-9.7,4.1-18.9,6.9-28.2c1.4-4.4,3.7-4.7,6.8-1.8c5.9,5.6,10.5,12.1,12,20.3c-0.7,6.4-0.7,12.9-2.4,17
		c2.4-3.8,6.8-8.9,11-14.2c5.2-6.6,5.3-9.1,0-15.5c-2.5-3-4.4-6.2-5.7-9.8c-0.9-2.4-1.6-5.1,0.4-7.2c2.4-2.4,4.7-0.4,6.8,0.8
		c0.6,0.3,1.1,0.5,1.7,0.8c2.3,1.4,4.6,2.8,7.5,4.1c-2.4-1.5-4.6-2.2-6.5-3.7c-6.4-3.1-11.9-8-18.7-10.4c-1.9-0.7-3.5-2.5-1.8-4.4
		c6.8-7.4,11.8-16.4,21.1-21.3c5.4,0.4,8.6,4.1,11.8,7.8c16.4,19,29,40.6,41.1,62.4c11.7,21.1,22.8,42.6,38.9,60.9
		c11.9,13.5,24,26.9,41.6,33.4c3.8,1.4,7.9,1.7,11.4,3.8C288.8,697,288.8,697.6,288.4,698.1z"/>
	<path class="st1" d="M701.3,635.9c-5.8,0.6-11.6,1.6-17.5,0.5c-15.5-2.9-24.2-13.7-25.7-32.2c-1.5-18,2.8-35.3,5.8-52.8
		c1.6-9.4,3.7-18.7,3.3-28.3c-0.1-3.4,0.1-7.2-3.6-8.8c-3.8-1.6-7,0.6-9.7,3.2c-9.6,9.2-15.4,21-21.3,32.8
		c-13.3,26.6-22.2,54.6-29.2,83.4c-1.2,5.1-2.5,10.4-9.7,10.5c-7,0.1-10.2-1.9-11.7-8.8c-1.2-5.3-1.8-10.7-2.8-16.7
		c-7.7,8.7-15.4,17.1-26.8,17.6c-9.9,0.5-17.9,4.6-26.7,8c-19.1,7.5-37.3,7.1-52.1-9.7c-1.2-1.3-1.9-1.5-3.6-0.6
		c-22.6,12.1-37.5,7.3-49.5-15.6c-0.5-0.9-1.1-1.8-1.7-2.6c-9.8,13.1-18.7,27.3-38.2,25c-17.6-2.1-25.5-14.9-32.1-29.7
		c-6,10.2-13.6,18.5-23.4,24.8c-32.2,20.9-68.1,7.6-77.4-29.5c-6.9-27.3-7.2-54.9,4-81.5c6.7-16,17.7-27.6,35.4-31.7
		c16.4-3.8,30.3,4.8,32.6,21.4c2.3,17-0.7,33.4-10.6,47.8c-9.5,14-23.4,19.6-39.8,19.3c-3.2,0-4.9,0.1-4.5,3.8
		c1.2,14.1,4.1,27.6,12.7,39.2c8.5,11.4,18.9,14.2,31.8,8.6c16-7,27.6-18.4,34.2-34.7c0.7-1.7,0.6-3.2,0.3-4.9
		c-6.2-31.6-5.5-63.6-4.1-95.5c1.2-25.6,3.9-51,12-75.5c3.4-10.1,8.1-19.5,15.1-27.6c2.8-3.3,6.1-5.8,10.1-7.5
		c12.2-4.9,22.6-0.3,26.7,12.2c3.3,10,3.7,20.4,3.4,30.7c-1.6,48.3-14.5,92.8-44.4,131.6c-1.1,1.4-1.8,2.7-1.7,4.6
		c1.1,16.3,2.4,32.5,8.6,47.8c1.7,4.1,3.6,8.1,6.4,11.6c5.5,7.1,12.9,8.2,20,3c9-6.6,13.9-16.3,19-25.8c0.8-1.5,0.1-2.9,0-4.3
		c-2.8-27.7-2-55.3,3.1-82.7c0.9-4.8,2.6-9.3,5-13.6c1.9-3.2,4.4-5.6,8.1-6.7c8.2-2.4,12.9,1.5,10.7,9.6
		c-6.3,23.5-7.7,47.5-9.4,71.6c-0.8,12.1,0.4,24.1,3.4,35.8c1.3,5,3.6,9.5,7.2,13.2c7.4,7.5,16.3,7.1,23.1-0.9
		c1.5-1.8,1.4-3.4,0.8-5.2c-1.3-4.3-1.1-8.8-0.8-13.2c0.3-6.2,4-9.3,9.7-7.3c3.4,1.2,3.9-0.4,5.1-2.5c8-13.4,12.3-28.2,16.9-42.9
		c5.1-16.7,11-33.3,12.3-50.9c0.5-7.1,5-10.1,11.7-9.4c8,0.9,10.1,3.6,9.4,11.8c0,0.2,0,0.4-0.1,0.6c-5.6,11.8-0.5,22.4,3.4,33.3
		c6.2,16.9,10.3,34.4,13.9,51.9c2.5,12.2,2.2,24.4-3.6,36.2c5.6,1,10.6-0.3,14.7-3.2c11.3-8,18.9-18.6,19.7-32.9
		c2.8-53.1,8.5-105.8,20.3-157.7c2.7-11.7,6.8-23,12.6-33.7c2-3.7,4.4-7.2,7.4-10.3c6.1-6.2,13.3-9.1,21.8-6.2
		c8.8,3,10.9,10.7,11.5,18.8c1,14.3-2.4,28.1-6.1,41.8c-7.6,27.6-16.6,55-33.2,78.3c-11.5,16.1-13.7,32.8-13.6,51
		c0,4.8-0.9,9.7,1.2,15.3c7.3-15.8,13.3-31.3,21.1-45.9c6.1-11.5,13.1-22.2,22.8-30.9c7-6.3,15.2-8.9,24.6-7.7
		c11.7,1.5,18.7,9.1,18.7,20.9c0.1,15.5-3.3,30.7-5.4,45.9c-1.7,12.4-4.2,24.6-3.2,37.2c0.2,2.9,0.6,5.9,1.4,8.7
		c2.4,8.4,7.9,11.4,16.5,9.1c1.2-0.3,2.4-0.6,3.7-0.9C701.3,629.1,701.3,632.5,701.3,635.9z"/>
	<path class="st0" d="M1.3,395.8c0-40.3,0.1-80.7-0.1-121c0-4,1-4.8,4.9-4.8c46.3,0.2,92.5,0.1,138.8,0.1c0.4,0.6,0.4,1.2-0.2,1.7
		c-8.6,3-17.9,2.8-26.7,4.9C73.4,287.2,37.8,309.9,16,351.4c-5.4,10.4-8.9,21.4-10.6,33.1c-0.5,3.7-0.7,7.6-2.4,11.1
		C2.5,396.2,1.9,396.2,1.3,395.8z"/>
	<path class="st2" d="M1.3,395.8c0.3-0.2,0.7-0.2,1.1-0.1c3.5,7.3,3.5,14.6,0,21.8l-0.5,0.1l-0.5-0.3C1.3,410.2,1.3,403,1.3,395.8z"
		/>
	<path class="st3" d="M144.8,271.1c0.1-0.4,0.1-0.7,0.1-1.1c6.8,0,13.6,0,20.3,0c0,0.4,0,0.7,0.1,1.1
		C158.4,274.5,151.6,274.5,144.8,271.1z"/>
	<path class="st4" d="M288.4,698.1c0-0.4-0.1-0.7-0.1-1.1c4.7-3.2,9.5-3.2,14.2,0c-0.1,0.4-0.1,0.7-0.1,1.1
		C297.7,698.1,293,698.1,288.4,698.1z"/>
	<path class="st1" d="M302.5,697.1c-4.7,0-9.5,0-14.2,0c-14.7-1.9-26.5-9.4-37.2-19c-23.6-21.1-39.1-48-54-75.4
		c-12-22.1-24.6-43.8-40.9-63.2c-3.5-4.2-7.2-8.3-12.4-10.7c-2-2.3,0.4-3.4,1.4-4.6c5.6-6.9,12.4-12.6,17.8-19.7
		c2-2.5,4.8-4.1,8.1-4.4c46.7-30.9,72.7-74.1,74.8-130.2c1.4-36.7-23.1-66.5-60.8-75.6c-51-12.4-97.1-1.5-136.1,33.6
		c-26.1,23.4-35.8,54.2-32.1,88.9c2.6,24.9,11.1,47.6,27.2,67c2,2.4,2.7,4.9,0.3,7.3c-2.3,2.5-4.8,1.1-6.8-0.4
		c-11-8.4-18.5-19.7-24.4-31.9c-6.4-13-9.8-26.9-10.9-41.4c0-7.3,0-14.6,0-21.8c4.8-50.1,32.3-84.2,75.8-106.7
		c20.8-10.8,43.3-16.2,66.6-17.8c6.8,0,13.6,0,20.4,0c24.4,1.8,47.6,7.6,67.5,22.5c30.6,23,42.5,54.9,36.9,91.7
		c-9.9,64-47.6,107.3-106.3,134.1c0,1.3,2.1,1.5,3.3,2.4c20.7,15,35,35.5,48.3,56.6c15.3,24.3,27.9,50.2,45,73.4
		c6.9,9.4,13.9,18.6,23.4,25.7c10.5,7.8,21.8,9.5,34,4.4c2.9-1.2,6-2,9.1-2.6c2-0.4,4.4-0.6,5.5,1.9c1,2.3-0.3,4.1-2,5.6
		c-7,6-15.5,8.4-24.3,9.9C304.6,697,303.5,697,302.5,697.1z"/>
	<path class="st5" d="M446.9,454.4c-8.2-0.1-12.7-4.3-12.6-11.6c0.1-7.2,5.6-12.2,13.3-12c8.2,0.2,12.6,4.4,12.5,11.8
		C460,450.3,455.3,454.5,446.9,454.4z"/>
	<path class="st6" d="M634.9,653.7c8.9,0.1,15.8,8.8,13.1,18.1c-1,3.5-1.7,6.7,0,10.1c-3.1,0.6-5.9-1.6-9.6,0.2
		c-5.5,2.7-11.3,0.7-15.4-4.1c-4.1-4.7-5.2-10.2-2.4-15.9C623.3,656.5,627.7,653.4,634.9,653.7z"/>
	<path class="st7" d="M534.9,682.9c-8.3,0-15.1-6.6-15.1-14.6c0-8.2,6.6-14.6,15-14.6c8.2,0,15,6.8,14.8,14.9
		C549.4,676.4,542.7,682.9,534.9,682.9z"/>
	<path class="st8" d="M496.8,667.7c0-2.3,0.2-4.7-0.1-6.9c-0.6-5.1,0.6-8,6.6-7.1c5.2,0.8,8.3,3.7,7.1,8.8c-0.6,2.7,0.1,4.1,1.5,6
		c2.7,3.6,2.3,7.6-0.5,11c-2.2,2.7-11.2,4.5-13.7,2.9c-1.3-0.8-1.1-2.2-1.1-3.4c0-1.9,0-3.8,0-5.7
		C496.8,671.5,496.8,669.6,496.8,667.7z"/>
	<path class="st9" d="M337.9,668.8c0-1.9-0.3-3.8,0.1-5.7c0.6-3.1-2.2-7.8,1.9-8.9c4.6-1.2,10.3-1.8,13.9,3.1
		c2.8,3.9,2.5,7.9-0.8,11.5c-3.5,3.8,1.2,6.3,1.4,9.5c0.1,1.4,2.6,3.2,0,4.2c-2.2,0.9-2.8-1.4-3.5-2.8c-1-2.1-1.9-4.2-2.8-6.3
		c-0.8-2-2.4-2-4.2-2c-2.6,0.1-1.9,2.1-2.3,3.6c-0.6,2.5,1.8,7.3-2.1,7.1c-3.2-0.2-1.1-5-1.5-7.7
		C337.7,672.6,337.9,670.7,337.9,668.8z"/>
	<path class="st10" d="M426.5,682.7c-2.4-0.2-2.4-2.3-2.8-3.8c-0.8-3-1.7-5.2-5.7-5.2c-3.9,0-5,1.7-5.8,5c-0.4,1.6-0.7,4.5-3.3,3.7
		c-2.3-0.8-1-3.1-0.4-4.8c2.3-7,4.6-13.9,6.8-20.9c0.4-1.2,0.5-2.5,2.2-2.6c1.8-0.1,2.5,1,3,2.6c2.4,7.6,5,15.1,7.4,22.7
		C428.3,680.6,428.7,682.3,426.5,682.7z"/>
	<path class="st11" d="M670.8,665c0-2.7,0-5.5,0-8.2c0-1.2-0.1-2.7,1.7-2.8c1.8-0.1,2,1.2,2,2.5c0,6.1,0.3,12.3-0.3,18.4
		c-0.4,4.5-3.3,7.8-8.3,8c-5.1,0.2-8.3-2.1-9.4-7.4c-1.3-6.3-0.5-12.6-0.6-18.9c0-1.3,0.5-2.6,2.1-2.5c1.8,0.1,1.6,1.7,1.7,2.9
		c0.1,5.1-0.1,10.2,0.2,15.2c0.2,3.4,0.8,7.1,5.5,6.9c4.5-0.2,5.3-3.4,5.3-7.1C670.8,669.7,670.8,667.4,670.8,665
		C670.8,665,670.8,665,670.8,665z"/>
	<path class="st12" d="M457.3,668.3c0-1.5,0-3,0-4.4c0-10,3.2-12.5,13.1-10c1.1,0.3,2.1,0.5,2.2,1.8c0,1.3-0.9,1.8-2.1,1.8
		c-1.9,0.1-3.8,0.2-5.7,0c-3.2-0.3-3.9,1.3-3.8,4.2c0,2.7,0.3,4.7,3.7,4.4c0.8-0.1,1.7-0.1,2.5,0c1.2,0.1,2.9-0.2,2.7,1.7
		c-0.1,1.7-1.8,1.3-3,1.4c-2.7,0.3-5.7-1.1-6.1,3.9c-0.5,6.1,2.5,6.5,7.1,6.1c1.6-0.1,4.5-1,4.5,1.7c0,2.6-2.8,1.9-4.6,1.9
		c-13.2,0-10.2,1-10.6-10.1C457.3,671.2,457.3,669.7,457.3,668.3z"/>
	<path class="st13" d="M364.4,668.2c0-1.5,0-3,0-4.4c0-10.1,3-12.4,13.2-10c1.1,0.3,2.1,0.5,2.2,1.8c0.1,1.8-1.3,1.9-2.6,1.9
		c-1.7,0-3.4,0.2-5.1,0c-3.3-0.3-3.8,1.5-3.8,4.2c0,2.7,0.6,4.6,3.8,4.3c0.8-0.1,1.7,0,2.5,0c1,0.1,2.3,0,2.4,1.4
		c0.1,1.9-1.5,1.5-2.7,1.7c-2.3,0.4-5.7-1.5-6.1,3.3c-0.4,5,0.8,7.6,6.4,6.8c1.6-0.2,4.9-1.6,4.9,1.8c0,2.7-2.9,1.7-4.6,1.7
		c-12.5-0.1-10.3,1.7-10.6-10.1C364.4,671.2,364.4,669.7,364.4,668.2z"/>
	<path class="st14" d="M571.9,654.9c2.4-2.2,3.4-1.1,3.4,1.6c0,6.1,0.5,12.3-0.2,18.4c-0.5,4.7-3.4,8.1-8.9,8.1
		c-5.3,0-8.2-2.8-9.1-7.9c-1.1-6.1-0.3-12.2-0.4-18.3c0-1.3,0.4-2.7,2-2.7c1.8,0,1.6,1.6,1.7,2.8c0.1,4.9-0.1,9.7,0.1,14.6
		c0.1,3.2,0.5,6.6,4.4,7.5c4.1,1,5.5-2,6.9-5C572.7,667.6,572.6,661.3,571.9,654.9z"/>
	<path class="st15" d="M684.4,668.1c0-1.3,0-2.5,0-3.8c0-10.9,1.8-12.4,12.8-10.5c1.3,0.2,2.7,0.3,2.5,2c-0.2,1.8-1.7,1.5-2.9,1.6
		c-1.5,0.1-3,0.1-4.4,0c-2.8-0.2-4.9,0.1-4.8,3.9c0.1,3.1,1,4.9,4.4,4.5c0.8-0.1,1.7,0,2.5,0c1.2,0.1,2.9,0.1,2.5,1.9
		c-0.3,1.5-2.1,1.3-3.2,1.1c-5.3-0.8-6.5,1.7-6.2,6.5c0.2,2.9,1.3,3.7,3.8,3.5c1.3-0.1,2.6-0.2,3.8,0c1.6,0.3,4.4-1.1,4.4,1.9
		c0,2.3-2.5,1.7-4.1,1.8C684.4,683.4,684.4,683.4,684.4,668.1z"/>
	<path class="st16" d="M394.3,682.9c-2.2,0.1-4.2-0.7-5.7-2.3c-1.1-1.1-2.7-2.6-1.4-4.3c1.7-2.1,2.8-0.2,3.9,1.1
		c1.9,2.5,4.5,2.6,6.5,0.7c2.1-2,1.7-4.8-0.2-6.9c-2.2-2.5-5-4.5-7.3-7c-2.2-2.4-2.3-5.4-0.6-8.2c1.7-2.8,4.6-2.7,7.3-2.1
		c1.2,0.3,2.7,1.2,2.5,2.5c-0.2,1.6-1.6,2.4-3.3,1.7c-1.4-0.6-2.9-1.3-3.6,0.9c-0.5,1.7,0.7,2.8,1.7,3.8c2.4,2.4,5,4.6,7,7.2
		c2.1,2.7,2,5.9,0.3,8.9C400,681.7,397.5,683,394.3,682.9z"/>
	<path class="st17" d="M592,670.1c0,3.2,0,6.3,0,9.5c0,1.5-0.2,3.2-2.3,2.9c-1.8-0.2-1.5-1.8-1.5-3c0-5.7,0-11.4,0-17.1
		c0-2.6,0.4-5.3-3.6-4.9c-1.3,0.1-2.7-0.2-2.6-1.9c0.1-1.7,1.6-1.7,2.9-1.7c3.6,0,7.2,0,10.8,0c1.1,0,2.1,0.2,2.4,1.5
		c0.2,0.9-0.3,1.9-1.1,1.9c-7.6-0.1-4.1,5.6-4.8,9C591.8,667.5,592,668.8,592,670.1z"/>
	<path class="st18" d="M435.3,668c0-3.4-0.1-6.7,0-10.1c0-1.5-0.6-3.9,2-3.8c2.2,0.1,2,2.4,2,4c0,4.8,0.3,9.7-0.1,14.5
		c-0.3,4.6,0.6,7.3,6,6.5c1.5-0.2,4.4-1,4.3,1.9c-0.1,2.7-2.9,1.8-4.6,1.8c-11.1,0-9.5,1.1-9.7-9.1
		C435.3,671.8,435.3,669.9,435.3,668z"/>
	<path class="st19" d="M609.9,678.9c1.3,0.4,3.3-0.4,3.4,1.8c0.1,2.2-1.8,1.9-3.2,2c-5.3,0.6-4.7-0.1-4.4-5.1
		c0.4-6.8,2.7-14.1-1.5-20.7c-1.4-2.2-0.5-3,1.6-3.2c0.8-0.1,1.7-0.2,2.5,0c1.7,0.3,4.2-1,4.9,1.5c0.8,2.8-3.1,1.6-3.6,3.5
		C609,665.5,608.5,672.2,609.9,678.9z"/>
	<path class="st20" d="M571.9,654.9c1.9,6.4,1.5,12.7-0.1,19.1C571.9,667.6,571.9,661.3,571.9,654.9z"/>
	<path class="st21" d="M609.9,678.9c-2.3-6.7-2-13.4-0.2-20.2C609.7,665.5,609.8,672.2,609.9,678.9z"/>
	<path class="st1" d="M120.7,385.6c-13.2,10.2-17.1,25.9-9.5,39.2c-18.6,7.9-38.1-2.5-47.6-25.4c1.1-1.4,1.7,0.1,2.4,0.4
		c1.9,1,4.1,2.5,5.7,0.5c2.1-2.6-1.2-3.4-2.5-4.8c-5-5.6-8-12.2-10-19.8c2.7-0.4,5.1,2.7,7.3,0.5c2-2,1.3-4.6,1.1-7.2
		c-0.9-12.1,4-19.7,15.3-24c10.2-3.8,12-6.5,11.1-17.6c-0.7-7.9,0.9-15.1,5.2-21.7c4.5-7,11.3-10.4,19.4-9.8
		c6.6,0.4,13.2,1.2,19.9,1.1c9.5-0.2,16.9,4.9,21.4,13.5c4.3,8.1,6.5,16.9,7.1,26.1c0.6,8.5,3.3,15.5,9.6,21.9
		c13.5,13.7,16,32,7.7,49.7c-1.3,2.7-0.9,5.3-1.3,7.9c-3,0.2-3.1-2.2-3.8-4.1c-2.1-5.4-3.1-11.3-5.8-16.6c7,14.4,9,28.8-0.4,43
		c-0.8,1.5-1.6,2.9-2.7,4.2c-1.3,1.4,0,1,0.7,1c0.8,0.3,1.3,0.8,0.7,1.7c-1.5,2.6-2.9,5.2-4.4,7.8c-0.3,4.1-2.5,6.7-6.6,7
		c-3.8,0.2-8.6-5.7-9.3-10.9c9.5-8.5,12.3-20.6,16.8-31.8c0.7-1.6-0.6-2.7-1.3-3.9c-2.4-4.2-4.5-8.5-7.3-12.5
		c-7.5-10.8-13-22.1-7.7-36.4c-5.6,2.2-6.6,7.7-10.8,9.7c-2.2-0.1-1.5-1.5-1.2-2.6c0.6-2.2,2.5-3.7,3.3-5.9
		c-1.6,2.6-3.1,5.1-5.5,6.9c-1.1,0.7-2.2,1.2-3.5,1.4c-4.2,0.6-6.9-1.3-8.1-5.6c0.7,5.8-0.9,11-2,16.2
		C123.2,386,122.2,386.7,120.7,385.6z"/>
	<path class="st22" d="M151.2,449.3c0.9,1.4,1.6,3,2.6,4.3c5.8,7.6,8,7.5,13.3-0.4c1.7,2.1,3.3,4.3,5,6.4
		c9.5,11.6,9.8,24.4,1.1,36.4c-0.9,1.2-2.8,2-2.1,4c-10.5,8.3-19.1,18.3-27.3,28.7c-8.2,6.4-14.1,15-22.2,23
		c9.1,1.8,15,7.5,21.8,11.9c0.1,1.1-0.1,1.9-1.5,1.3c-2.9,0.2-5.4-4.5-7.8-1.9c-2.8,2.9,0.7,6.2,1.8,9.2c1.2,3.2,3.6,5.7,5.8,8.2
		c3.1,3.5,4,7.5,1,11.5c-5.2,6.8-10.6,13.5-17.2,21.7c1.2-8.3,2.1-14.6,3-21c6.3-4.7,7.5-7.6,3.4-14.3
		c-6.4-10.4-13.3-20.3-24.1-27.1c-17.4-10.9-37.1-16-56-23.1c-7.7-2.9-15.9-3.8-23.6-6.7c9.1-10,20.9-16.1,32.4-22.6
		c11.6-6.5,23.5-12.2,36-16.8c7.3-2.7,13.4-7.1,17.7-13.7c4.9-1.2,4.9-1.2,9.9,2.5c0.6,0.4,1.2,0.2,1.8,0c5.8-2.7,12-1.7,18.1-2
		c2.3-0.1,5.1,0,6.1-2.5c1.2-3-1.8-4.4-3.6-6.1c-2.9-2.8-6.7-3.1-10.6-3.5c-5.6-0.5-11.2,1.6-16.8-0.1c0.2-3.1,2.8-2.6,4.7-2.8
		c5.2-0.5,10.3-1,15.5-1.3c2.8-0.2,5.2-0.4,7-3.1C147.5,448.5,149.4,447.1,151.2,449.3z"/>
	<path class="st1" d="M28.3,521.6c13.3,0.3,25.2,5.8,37.6,9.8c16.2,5.2,32.3,10.9,46.2,20.9c10.5,7.6,18.3,17.9,23.3,29.8
		c2.7,6.4-0.4,10.3-6.8,10.6c-2.4-9-7.4-16.2-14.8-22.6c-3.5,12.6-7.6,24.3-8.3,36.8c-0.4,7.2-3.1,13.9-6.5,20.3
		c-3.8,7.1-5.4,14.6-4.6,22.6c-2.9,12.2-8.3,23-18.9,30.4c-3.1,2.2-6.9,1.6-10.2-0.4c-2.2-1.4-1.8-3.5-0.9-5.6
		c8.9-8.9,12.1-20.6,12.6-32.4c0.9-19.7,5.2-38.9,6.1-58.5c0.3-7.2,0.6-14.4,1.5-21.5c0.5-4.2-0.7-6-4.7-7.2
		c-13.2-3.8-26.4-7.3-39.8-10.2c-1.9-0.4-3.8-0.7-5.5-1.3C23.4,539.3,21,531.1,28.3,521.6z"/>
	<path class="st23" d="M64.5,674.2c1.4,5.8,6.4,7.6,11.7,3.9c3.1-2.2,5.7-5,7.5-8.4c3.6-6.6,7.1-13.3,10.7-20
		c3.7,1.3,5.4,4.6,5.5,7.9c0.5,10.7-3.1,20.8-4.7,31.3c-2.2-5.5,0.5-10.7,0-16.1c-0.1-1.4,0.6-3.1-1-4.1c-1.9-1.1-3.2,0.3-4.4,1.4
		c-3.8,3.4-6.8,7.5-8.9,12.2c-2.4,5.3-6.5,6.9-12,5.3c-7.5-2.2-15-4.3-23.3-6.7C52.1,677.4,59,677.6,64.5,674.2z"/>
	<path class="st24" d="M119.3,457c5.9-2.2,12-1.6,18.1-1.4c5.6,0.2,10,1.9,13.5,6.6c3.4,4.6,3.1,6.7-2.4,8.4c-1,0.3-2.1,0.3-3.1,0.3
		c-8.4,0-16.9,0-25.2,3.8c-0.4-4.1,3.2-3.7,3.5-6c-3.1,0.1-6.2,1.5-9.2-0.1c-0.2-0.3-0.8-0.9-0.7-1C116,464.2,116.2,459.8,119.3,457
		z"/>
	<path class="st25" d="M171.3,438.6c2.8-8.1,8.9-15.4,6.4-25c-2-7.6-3.9-15.3-7.3-22.9c3.3,0.2,3.2,3,4.2,4.7
		c3.5,6.6,4,14.4,8.3,20.6c0.4,1.4,0.7,2.8,1.1,4.2c-2.4,3.1-3.6,6.7-4.9,10.3c-0.8,1.5-1.6,2.9-2.4,4.4c-1.6,1.7-1.8,4.6-4.3,5.7
		C171.3,440.3,170.8,439.8,171.3,438.6z"/>
	<path class="st1" d="M126.1,394.6c-2.3,3.8-4.7,7.6-7.8,12.8c-0.3-7.9-1.5-14.4,2.7-20.3C125.2,387.8,123.6,392.6,126.1,394.6z"/>
	<path class="st26" d="M133.2,384c-0.7,0.6-1.3,1.1-2,1.7c-2.1,1-4.1,1.7-6.2,0c-0.4-0.4-0.7-0.9-1-1.5c1-3-0.8-6.9,2.8-9.1
		c1.8,1.1,3.3,2.7,5.5,3.2C134.1,380,134.7,381.8,133.2,384z"/>
	<path class="st27" d="M137.2,371.7c2.7-3.4,5.4-6.7,8.9-11.1c-0.5,6-5.3,9-5.1,13.8c-0.8,1.1-1.6,2.3-2.4,3.4
		c-2.1,1-2.8-0.5-3.4-2.1C135.1,374,136.5,373,137.2,371.7z"/>
	<path class="st26" d="M126.1,394.6c-5.5,0-2-6-5.1-7.5c-0.1-0.5-0.1-0.9-0.2-1.4c1-0.2,2.1-0.1,2.6-1.3c0.3-0.5,0.6-0.5,1-0.1
		l0.4,0.4c0.9,1.8,1.7,3.7,3.4,4.8C128.5,391.5,128.2,393.4,126.1,394.6z"/>
	<path class="st28" d="M141.9,564.9c0.5-0.4,1-0.9,1.5-1.3c3.9,1.3,7.5,3.2,11.3,7.8C149.1,569.5,145.3,567.8,141.9,564.9z"/>
	<path class="st29" d="M135.8,375.3c0.6,1.3,1.5,2.1,2.8,2.6c-0.9,2.9-2.4,5.2-5.4,6.2c-0.4-1.6,0.2-3.5-1.3-4.8
		C131.8,376.5,133.1,375.3,135.8,375.3z"/>
	<path class="st30" d="M128.2,389.4c-6.4,2.2-2.5-3.1-3.4-4.8c2,1.4,4.3,1.2,6.5,1.1C130.2,386.9,129.2,388.2,128.2,389.4z"/>
	<path class="st31" d="M172.6,440.2c1.7-1.5,1.8-4.2,4.1-5.2c-0.6,4-2.6,7.3-5.1,10.4c-0.4-0.4-0.8-0.8-1.2-1.2
		C169.3,441.8,171.5,441.3,172.6,440.2z"/>
	<path class="st32" d="M179.1,430.6c0.8-3.8,0.7-8.1,4.9-10.3C183.1,424.1,181.5,427.5,179.1,430.6z"/>
	<path class="st0" d="M359.6,543.7c-0.4-2.1-0.9-3.5-1-4.9c-1.1-38.9,0.2-77.7,9.9-115.7c1.9-7.4,4.4-14.5,8.9-20.8
		c2.2-3.1,4.6-6.4,9.1-5.6c4.3,0.8,6,4.5,7.2,8.1c2.2,7.1,2.7,14.6,2.4,21.9c-1.5,35.2-9.6,68.8-25.3,100.4
		C367.9,533,364.8,538.7,359.6,543.7z"/>
	<path class="st0" d="M306.2,524.6c-0.5,10.5-0.4,21.1-6.2,30.6c-7.3,11.9-17.2,18.7-31.7,18.3c-3.2-0.1-4.5-0.8-4.4-4.3
		c0.7-19.2,3.9-37.7,13.1-54.9c1.8-3.3,3.9-6.5,6.8-9.1c8.2-7.3,17.8-4.8,21.5,5.5C307,515.4,306.4,520,306.2,524.6z"/>
	<path class="st0" d="M515.3,536.4c7.7,26.7,14.6,51.7,10.5,78.1c-1.9,11.9-4.4,13.1-15.2,8.4c-1.7-0.8-3.5-1.6-5.1-2.6
		c-5-3.2-10.6-6.3-13.4-11.4c-3.2-5.8,2.4-10.7,4.5-15.8c6.6-16.2,12.2-32.7,16.6-49.7C513.6,541.7,514.2,540,515.3,536.4z"/>
	<path class="st33" d="M603.6,518.3c3.5-32.9,7.3-65.8,17.5-97.5c2.5-7.8,4.9-15.7,9.1-22.8c1.5-2.5,3.2-5.5,6.8-4.6
		c3.3,0.8,3.1,4.1,3.4,6.8c1.3,9.6-0.3,18.9-2.6,28.2c-7.3,29.1-17.1,57.3-30.7,84.1C606.1,514.4,604.7,516.3,603.6,518.3z"/>
	<path class="st34" d="M516.8,634.9c-11.5,8.4-26.5,5.8-34.2-5.2c-3.3-4.7,0.3-7.4,2-10.6c0.7-1.3,1.8,0,2.6,0.6
		C495.8,627.1,505.5,632.3,516.8,634.9z"/>
	<path class="st35" d="M645,668.7c-1.9,0.4,1.4,7.8-5,3.5c-1.5-1-2.8,0.9-1.8,2.5c3.3,4.9-1.1,4.2-3.3,4.4
		c-6.2,0.7-11.7-4.1-12.1-10.2c-0.4-6.1,4.5-11.4,10.8-11.5C640,657.3,645.2,662.2,645,668.7z"/>
	<path class="st36" d="M534.6,657.4c6.6,0,11.1,4.6,11,11c-0.1,6-4.9,10.8-10.9,10.8c-5.9,0-10.9-4.8-11.1-10.6
		C523.4,662.5,528.4,657.5,534.6,657.4z"/>
	<path class="st37" d="M500.4,673.4c0.6-2-1.4-5.6,2.9-5.5c3.7,0.1,6.6,1.7,6.4,6c-0.1,3.7-2.6,4.9-5.9,5.1
		C499,679.4,500.8,675.8,500.4,673.4z"/>
	<path class="st38" d="M506.9,660.9c0.1,2.6-1.4,3.8-3.8,4c-2.3,0.2-2.8-1.3-2.7-3.1c0-2-0.4-4.4,2.9-4.2
		C505.5,657.6,506.8,658.6,506.9,660.9z"/>
	<path class="st39" d="M341.6,662.5c-0.3-2.9-0.2-5.3,4-5.1c3.7,0.2,6.2,1.7,6.1,5.5c-0.2,3.5-2.8,4.6-6.1,4.8
		C341.3,668,341.4,665.4,341.6,662.5z"/>
	<path class="st40" d="M417.7,662.1c1.5,2.4,3.5,4.8,2.1,7.7c-0.5,1-2.7,1-3.4,0.1C414,667,417.2,664.8,417.7,662.1z"/>
	<path class="st41" d="M124.3,384.2l-0.5,0.2c0,0-0.5-0.1-0.5-0.1c0-5.7,0.9-11.2,2.8-17.7c1.7,4.4,3.8,7.3,8.2,6.5
		c-1.4,2.5-1.4,2.5-7.6,2.2C124.5,377.8,126.6,381.6,124.3,384.2z"/>
	<path class="st42" d="M126.8,375.3c0.2-1.2,0-2.6,2-1.4c1.9,1.1,3.9,1,5.5-0.8c0.9-0.5,1.9-0.9,2.8-1.4c0.3,1.5-0.8,2.5-1.4,3.6
		c-1.3,1.3-2.5,2.6-3.8,4C128.9,379.6,127.1,378.5,126.8,375.3z"/>
	<path class="st43" d="M147.4,355.3c-0.6-4.9-2.8-10,0.4-14.8C146.7,345.5,148.3,350.5,147.4,355.3z"/>
	<path class="st44" d="M172.6,440.2c-0.7,1.3-1.5,2.7-2.2,4c-1.1,1.2-2.2,2.5-4.4,5.1c1.2-5.1,3.4-7.7,5.3-10.6
		C171.7,439.1,172.1,439.6,172.6,440.2z"/>
</g>
</svg>
