<?xml version="1.0" encoding="utf-8"?>
<!-- Generator: Adobe Illustrator 21.1.0, SVG Export Plug-In . SVG Version: 6.00 Build 0)  -->
<svg version="1.1" id="Layer_1" xmlns="http://www.w3.org/2000/svg" xmlns:xlink="http://www.w3.org/1999/xlink" x="0px" y="0px"
	 viewBox="0 0 900 596" style="enable-background:new 0 0 900 596;" xml:space="preserve">
<style type="text/css">
	.st0{fill:#FEFEFE;}
	.st1{fill:#FDFDFD;}
	.st2{fill:#FCFCFC;}
	.st3{fill:#FBFBFB;}
	.st4{fill:#010101;}
	.st5{fill:#060606;}
	.st6{fill:#050505;}
</style>
<g>
	<path d="M450.3,1c148.5,0,297,0,445.5-0.1c3.7,0,4.6,0.8,4.6,4.6c-0.1,195.7-0.1,391.3,0,587c0,3.7-0.8,4.6-4.6,4.6
		c-297-0.1-594-0.1-891,0c-3.7,0-4.6-0.8-4.6-4.6c0.1-195.7,0.1-391.3,0-587c0-3.7,0.8-4.6,4.6-4.6C153.3,1,301.8,1,450.3,1z"/>
	<path class="st0" d="M639.1,289c0,15-0.1,30,0.1,45c0,3.5-1.3,4.9-4.6,4.8c-2.7-0.1-5.3,0-8,0c-2.7,0-4.6-0.6-4.3-4
		c0.3-2.9-1.5-2.5-3.1-1.5c-3.4,2.2-6.8,4.2-10.5,5.6c-20.8,7.9-42.5-6.5-42.9-28.8c-0.3-14.4,4.6-26.7,16-36.1
		c6.2-5.1,12.9-9.4,20.1-13c5.5-2.8,10.7-6,14.9-10.7c5.8-6.6,7-12.6,3.6-18.1c-3.2-5-11.9-7.2-19.1-4.8c-5.3,1.8-8.7,5.3-10,10.8
		c-1.3,5.4-1.9,10.8-2,16.3c-0.1,4.8-2.5,6.6-7,6.1c-1.7-0.2-3.3-0.3-5-0.4c-2.6-0.2-3.8-1.6-3.8-4.2c-0.1-9,0.4-18,3.9-26.5
		c5.5-13.4,19.8-21.4,34.9-19.3c14.3,2,25.5,13,27.2,27.2C641.3,254.7,639.6,271.8,639.1,289z"/>
	<path class="st0" d="M783.4,288.5c0,15.2-0.1,30.3,0.1,45.5c0,3.5-1.2,4.9-4.6,4.8c-2.5-0.1-5,0-7.5,0c-2.7,0-5.1-0.3-4.7-4.1
		c0.2-2.6-1.2-2.7-3.1-1.5c-1.8,1.2-3.6,2.5-5.4,3.5c-12.1,6.5-24,6.4-35.3-1.7c-11.9-8.5-14.3-20.6-12.1-34.2
		c1.9-12,8.1-21.3,17.6-28.6c6.1-4.7,12.7-8.6,19.5-12c5-2.5,9.4-5.7,13.1-9.8c5.8-6.4,7-12.7,3.6-18.1c-3-4.9-11.4-7.2-18.6-5
		c-5.7,1.8-9.5,5.6-10.6,11.5c-1,5.6-1.6,11.2-2.1,16.8c-0.3,3.6-2,5.1-5.4,5.1c-2,0-4-0.3-6-0.4c-3.2-0.1-4.5-1.8-4.5-4.8
		c0.1-7,0.3-14,2.2-20.8c4.7-16.7,18.5-26.2,35.7-24.6c16,1.5,27.9,14.3,28.6,31.8c0.6,15.5,0.1,31,0.1,46.5
		C783.9,288.5,783.6,288.5,783.4,288.5z"/>
	<path class="st0" d="M164.5,221.4c9-9.4,19.2-11.8,30.6-8c14.3,4.8,19.7,16.4,20.9,30.1c1.9,22.4,1.5,44.9-2.7,67.1
		c-3.4,18-18.7,30.4-34.6,28.9c-18.5-1.8-32.4-16.3-32.4-35c0-37.6,0.5-75.3,0.7-112.9c0-3.2,1.1-4.5,4.4-4.4
		c15.6,0.3,12.6-1.9,12.8,12.4c0.1,6.5,0,13,0,19.5C164.1,219.5,164.2,219.9,164.5,221.4z"/>
	<path class="st0" d="M65.5,274.3c0.4-12.3,0.8-24.6,3.7-36.7c6.3-25.5,37.3-35.2,57.2-18.1c6.6,5.7,9.2,13.4,10.8,21.4
		c4.7,24.2,4.2,48.4-2.1,72.3c-5.4,20.8-21.9,29.4-43.1,24.8C82,336,76,328.9,72.2,319.9c-5.9-13.8-6-28.5-6.7-43.1
		C65.4,275.9,65.5,275.1,65.5,274.3z"/>
	<path class="st0" d="M455.1,268.3c0.2,15.2-1,30.3-5,45c-5.7,21-22.3,29.3-43.2,24.8c-9.7-2.1-15.6-9-19.6-17.7
		c-3.3-7.2-4.7-14.9-5.5-22.7c-2.1-20.2-2.1-40.3,2.5-60.1c2.9-12.7,10.9-21.1,23.4-24.9c13-3.9,24.7-0.9,34.8,8
		c6,5.3,8,12.9,9.7,20.4C454.3,250,454.8,259.1,455.1,268.3z"/>
	<path class="st0" d="M226.2,275.2c0.1-13.3-0.8-26.7,3.9-39.5c1.4-3.8,3-7.4,5.2-10.7c7.8-12.4,19.4-16.1,33.2-14.1
		c12.7,1.9,20.9,9.5,25.2,21.4c0.5,1.2,0.8,2.5,1.2,3.8c3.1,9.6,2.1,17.3-6.8,24.4c-13.8,11-26.2,23.6-39.3,35.5
		c-7.2,6.6-7.6,14.8-0.8,22.2c4.6,5,10.3,7.3,17.1,5.9c7.1-1.4,11.1-6.2,13.4-12.7c0.7-2.1,0.5-5.2,3.3-5.7
		c3.7-0.7,7.6-0.8,11.4,0.3c1.8,0.5,1.5,2.4,1.3,3.9c-1.1,12.1-12.3,25.6-24,28.8c-12.7,3.5-27.6-2.1-35.1-13.3
		c-5.9-8.8-8.2-18.9-8.9-29.2C225.8,289.2,226.2,282.2,226.2,275.2z"/>
	<path class="st0" d="M679.5,293.5c1.9-8.5,3.8-17,5.7-25.5c3.7-16.7,7.5-33.4,10.9-50.2c0.9-4.5,3.1-5.9,7.6-5.8
		c14.1,0.5,12.5-0.2,9.5,12.3c-8.7,36.2-17.7,72.4-26.2,108.6c-1.5,6.3-5.4,5.9-10,6.1c-4.9,0.2-6.7-1.9-7.7-6.4
		c-8.2-37.9-16.6-75.7-25-113.5c-1.4-6.2-0.9-6.8,5.6-6.8c11.1,0.1,10-1.3,12.5,10c5.3,23.7,10.8,47.5,16.2,71.2
		C679,293.5,679.2,293.5,679.5,293.5z"/>
	<path class="st0" d="M489.4,279.7c-0.3-16.7-0.1-30.7,4-44.2c6.3-20.9,25.2-29,41.8-24.4c13.6,3.8,20.5,14.1,22.9,27.5
		c2.4,13.6,2.3,13.5-11.6,13.4c-3.1,0-4.6-0.9-4.8-4.2c-0.3-4.7-1.1-9.3-3-13.6c-4.8-10.6-18.1-11.9-25-2.5c-2.9,4-4.6,8.6-5.1,13.4
		c-2.3,20-3.4,40.1-0.3,60.2c0.5,3.5,1.5,6.8,2.9,10c3.1,6.8,7.7,9.9,14.3,9.6c7.7-0.4,13-4.3,15-11.6c1.1-4,1.9-8.1,2.6-12.2
		c0.4-2.4,1.6-3.5,4-3.5c12.6,0.2,13.4-2,11.1,12.2c-2.8,17.8-15.5,29.6-31.9,30.2c-15.7,0.5-30.5-12.6-34-30.2
		C490.2,299,489.7,288,489.4,279.7z"/>
	<path class="st0" d="M351.1,263.8c0-22.6,0.1-45.3-0.1-67.9c0-4.3,1.2-5.8,5.6-5.7c11.9,0.2,11.9,0,11.9,11.7c0,0.7,0,1.3,0,2
		c0,7.6,0,7.6,7.8,7.5c6.8,0,6.8,0,6.8,6.9c0,0.3,0,0.7,0,1c0,9.5,0.8,8.9-8.6,8.5c-4.9-0.2-6.1,1.5-6.1,6.2
		c0.2,32.8,0,65.6,0.2,98.4c0,4.4-1.2,5.7-5.6,5.7c-11.9-0.2-11.9,0-11.9-11.8C351.1,305.4,351.1,284.6,351.1,263.8z"/>
	<path class="st0" d="M826.1,261.4c0-24,0.1-47.9-0.1-71.9c0-3.8,0.9-5.3,5-5.2c14.3,0.4,11.9-1.8,11.9,11.7
		c0.1,45.3,0,90.5,0.1,135.8c0,5-1.3,6.7-6.4,6.5c-10.6-0.4-10.6-0.1-10.6-10.5C826.1,305.6,826.1,283.5,826.1,261.4z"/>
	<path class="st1" d="M796.8,261c0-23.7,0.1-47.3-0.1-71c0-4.3,1-5.9,5.6-5.8c11.4,0.2,11.4,0,11.4,11.3c0,45.5-0.1,91,0.1,136.5
		c0,4.6-0.9,6.5-6,6.3c-10.9-0.4-11-0.1-11-11.3C796.8,305,796.8,283,796.8,261z"/>
	<path class="st0" d="M303,290c0-12.7,0-25.3,0-38c0-12.6,2.8-24,12.5-33c6.3-5.9,13.6-8.7,22.1-8.9c3.4-0.1,5.1,1.1,4.8,4.6
		c-0.1,1.2,0,2.3,0,3.5c0,7.3,0,7.3-7.3,8.7c-8.1,1.6-13.6,7.1-14.9,15.3c-0.5,3.1-0.7,6.3-0.7,9.4c-0.1,27-0.1,54,0.1,81
		c0,4.1-1,5.5-5.3,5.4c-11.2-0.2-11.2,0-11.2-11C303,314.7,303,302.3,303,290z"/>
	<path class="st0" d="M27.2,290.5c0-14-0.2-28,0.1-41.9c0.3-11.7,5-21.5,14.1-29.1c5.9-5,12.7-7,20.2-7.2c3.4-0.1,5,1.3,4.7,4.7
		c-0.1,1,0,2,0,3c0,7.7,0,7.7-7.4,9.2c-9.5,1.9-15.2,8.7-15.5,19.8c-0.3,11.5-0.1,23-0.2,34.5c0,16.6-0.1,33.3,0.1,49.9
		c0,3.8-1.2,4.8-4.8,4.8c-11.6-0.1-11.6,0.1-11.6-11.6c0-12,0-24,0-36C27,290.5,27.1,290.5,27.2,290.5z"/>
	<path class="st1" d="M874,275c0,19.2-0.1,38.3,0.1,57.5c0,4.2-0.9,5.9-5.5,5.8c-11.4-0.2-11.4,0-11.4-11.2
		c0-36.8,0.1-73.6-0.1-110.4c0-4.4,0.8-6.2,5.7-6c11.2,0.4,11.2,0.1,11.2,11.4C874,239.7,874,257.4,874,275z"/>
	<path class="st1" d="M410.5,378.7c5.4-1.7,8,0.6,10.5,4.3c3.6,5.5,7.7,10.8,11.9,16.6c3.7-6.4,7.2-12.4,10.7-18.3
		c2.7-4.5,10.7-4.6,13.4,0c3.5,6,7,12,10.8,18.4c4.2-5.8,8.2-11.1,11.9-16.6c2.4-3.6,4.9-6.2,10-4.5c-0.5,2.7-2.7,4.5-4.2,6.7
		c-3.5,5.1-7.3,9.9-10.7,15c-1.4,2.1-3,3-5.6,3.2c-4.6,0.4-7.2-1.2-9.3-5.3c-2.6-5.3-5.9-10.3-9.3-16.1c-3.8,6.5-7.4,12.6-11,18.6
		c-1.9,3.2-9.8,4.2-12,1.3C421.6,394.3,416.2,386.6,410.5,378.7z"/>
	<path class="st2" d="M597.1,389.7c0.4-6.3-0.3-7.3-6.6-8c-6.8-0.8-13.6-0.5-20.4-0.2c-2.7,0.1-5.8-0.3-7.5,3.5
		c-0.8,1.7-4.6,1.5-5.8,0.2c-1.7-1.9,0-4.1,2-5.2c1.4-0.8,3.1-1.4,4.7-1.5c10.9-0.9,21.9-1.4,32.8,0.4c6.3,1,7.9,3.5,7.9,9.9
		c0,3.8-0.2,7.7,0.1,11.5c0.1,2.5-0.8,3.1-3.1,3c-11.1-0.8-22.2,1.5-33.3,0.5c-2.6-0.2-5.3-0.3-7.9-0.9c-4-0.8-5.7-3.4-5.7-7.5
		c0-4.3,2.3-6.2,6-6.5C572.5,387.7,584.7,387.1,597.1,389.7z"/>
	<path class="st3" d="M546.1,396.1c-0.2,3.8-2.7,5.5-5.8,6.1c-12.5,2.5-25.2,2.6-37.6,0.2c-6.3-1.2-7.6-4.5-7.5-13.7
		c0.1-5.6,2.2-8.7,8-9.7c11.5-2,23.2-1.9,34.7,0.1c2.5,0.4,4.7,1.6,6.3,3.7c1.7,2.2,2.6,5,1.8,7.5c-0.9,2.6-3.8,1.2-5.7,1.2
		c-11.3,0.1-22.6,0-33.9,0.1c-1.4,0-3.6-1.1-4.1,1.3c-0.4,2.1,0.5,3.9,2.4,5.1c2.2,1.4,4.7,1.8,7.2,1.9c6.8,0.1,13.6,0.1,20.5,0.1
		c2,0,4.4,0,5.5-1.7C540,394.9,542.9,395.7,546.1,396.1z"/>
	<path class="st3" d="M272.4,391.6c-6.2,0-12.3,0-18.5,0c-1.2,0-2.9-0.8-3.5,0.9c-0.5,1.5,0,3,1,4.2c2,2.4,4.8,3,7.6,3
		c7.3,0.2,14.6,0.2,22,0.1c2.3,0,4.7-0.5,6.1-2.8c1.6-2.7,4.3-1.5,6.3-1.2c1.9,0.3,0.8,2.1,0.1,3.2c-1.7,2.6-4.6,3.4-7.3,3.7
		c-10.9,1.4-21.9,1.6-32.8,0.1c-7.2-1-9.8-4.3-9.9-11.3c-0.1-8.7,1.8-11.8,9.6-13c10.7-1.5,21.6-1.6,32.3,0.3
		c6.1,1.1,8.9,4.6,9.1,9.6c0.1,2.4-0.6,3.2-3.1,3.2C285,391.5,278.7,391.6,272.4,391.6z"/>
	<path class="st3" d="M383.5,391.6c-6.2,0-12.3,0-18.5,0c-1.1,0-2.7-0.4-3.2,0.7c-0.7,1.4-0.1,3,0.8,4.2c1.8,2.5,4.7,3.2,7.5,3.2
		c7.5,0.2,15,0.2,22.5,0.1c2.3,0,4.5-0.6,5.9-3c1.4-2.3,3.9-0.9,6-1.1c0.7-0.1,1.1,0.6,1,1.4c-0.2,2-1.6,3.2-3.3,4.1
		c-0.7,0.4-1.5,0.7-2.3,0.9c-12.5,2.4-25.2,2.6-37.7,0.2c-6.1-1.2-7.4-4.3-7.4-12.7c0.1-6.4,1.8-9.5,7.6-10.6
		c11.7-2.1,23.5-2,35.2,0.1c2.5,0.4,4.7,1.8,6.3,3.8c1.7,2.3,2.3,5.1,1.4,7.5c-0.8,2.2-3.6,1-5.4,1
		C394.5,391.7,389,391.6,383.5,391.6z"/>
	<path class="st2" d="M322.1,404.7c-7.6-8.6-15.2-17.2-23-25.9c6.9-1,6.9-1,10.8,3.6c5.1,5.9,10.2,11.8,15.6,17.9
		c4.7-6,9.4-11.6,13.6-17.6c2.6-3.7,5.5-5.5,10.1-4.1c0.5,1.5-1,2.1-1.8,3c-6.4,8.1-13,16-19.2,24.3c-5.1,6.8-12.2,6.5-19.4,6.8
		c-1.2,0-1.8-0.6-1.8-1.8c-0.1-1.7,1.1-1.7,2.3-1.8C314.2,409,319.1,409.3,322.1,404.7z"/>
	<path class="st3" d="M616.3,390.7c0-3.2,0-6.3,0-9.5c0-1-0.6-2.7,1-2.8c1.7-0.1,4.4-1.2,4.9,0.7c0.8,2.6,1.3,1.5,2.8,0.9
		c9.2-3.6,18.6-2.7,27.9-0.6c3.2,0.7,4.8,3.5,4.9,6.8c0.1,1.5,0.8,3.7-2,3.5c-1.8-0.1-4.7,1.3-4.5-2.6c0.1-3-1.7-4.7-4.5-5.1
		c-5.8-0.8-11.6-1.2-17.4-0.2c-4.3,0.8-6.8,3-6.5,7.8c0.3,3.3-0.1,6.7,0.1,10c0.2,2.7-0.6,3.7-3.5,3.7c-3,0-3.7-1-3.5-3.7
		C616.5,396.7,616.3,393.7,616.3,390.7z"/>
	<path d="M622.6,264.3c-0.3,15.9,0.2,30.4-2.1,44.7c-1.9,12-11.5,18.6-22.7,15.9c-10.6-2.5-17.3-14.9-14-25.6
		c1.8-5.8,5.5-10.3,10.2-13.8C603.3,278.7,613.3,273.1,622.6,264.3z"/>
	<path d="M766.8,264.4c0,4.7,0.1,8.5,0,12.2c-0.3,10-0.4,19.9-1.5,29.9c-1,9.3-5.9,16.2-13.1,18.3c-7.5,2.2-15.8-0.6-20.5-6.8
		c-5.4-7.2-5.9-16.2-1.1-23.8c1.9-3.1,4.3-6,7.3-8.2C747.2,279,757.5,273.2,766.8,264.4z"/>
	<path d="M200.4,273.3c-0.3,10.8-0.2,21.6-2.3,32.3c-1.6,8.4-4.1,16.3-14,18.6c-8.1,1.9-15.5-1.6-18.9-9.2
		c-1.9-4.1-2.7-8.6-2.8-13.1c-0.4-18.3,0-36.6,1.9-54.8c0.5-5.5,2.2-10.7,6-15c8.9-10,23.6-7.2,27.9,5.5c2.7,8.1,2.8,16.7,2.7,25.2
		C200.9,266.3,200.6,269.8,200.4,273.3z"/>
	<path d="M122.8,274.8c-0.5,11-0.2,22-2.5,32.8c-0.5,2.3-1.1,4.5-2,6.7c-2.8,6.5-7.9,10.2-15,10.5c-7.3,0.3-13.8-4.1-16.3-10.9
		c-3.6-9.5-4.3-19.4-4.6-29.4c-0.3-14.2,0.1-28.3,3.1-42.2c2.6-11.7,11.5-17.9,21.1-15.2c6.7,1.9,10.3,7,12.5,13.2
		c3.3,9.1,3.5,18.6,3.6,28.1C122.8,270.5,122.8,272.7,122.8,274.8z"/>
	<path d="M437.6,275c-0.3,11.3,0,22.7-2.4,33.8c-2.7,12.3-11.7,18.3-22.4,15.1c-5.7-1.7-9.4-5.5-11.3-11.1
		c-2.2-6.5-3.2-13.3-3.6-20.1c-1-16.8-0.7-33.6,2.4-50.2c0.6-3.1,1.6-6.1,3.5-8.7c7.7-10.2,21.2-9.7,28,1.3c3.8,6.1,5,13,5.6,20
		C437.8,261.7,437.9,268.3,437.6,275z"/>
	<path d="M242.3,266.1c0.1-10.2,0.9-19.5,4-28.3c3.3-9.3,11.7-13.3,21.7-10.7c6.9,1.8,12.4,11.5,11.3,19.6c-0.2,1.7-1.2,2.6-2.3,3.6
		c-9.8,8.7-19.7,17.4-29.5,26.1c-1,0.9-1.9,2.2-3.3,1.8c-1.9-0.6-1.2-2.5-1.3-3.9C242.4,271.2,242.4,268.2,242.3,266.1z"/>
	<path class="st4" d="M578.3,399.9c-4.1,0-8.3,0.1-12.4-0.1c-2.3-0.1-4.7-0.6-4.8-3.9c0-3.2,2.1-3.9,4.6-4c9-0.5,17.9-0.5,26.8,0.2
		c2.3,0.2,4.8,0.7,4.7,4c-0.1,3-2.6,3.4-4.6,3.5c-4.8,0.3-9.6,0.1-14.4,0.1C578.3,399.8,578.3,399.9,578.3,399.9z"/>
	<path class="st5" d="M520.4,388c-5.2,0-10.3,0-15.5,0c-0.9,0-2.1,0.6-2.5-0.8c-0.3-1,0.2-1.9,0.8-2.8c1.1-1.7,2.8-2.3,4.7-2.5
		c8.5-0.9,17-1,25.4,0.1c1.1,0.1,2.3,0.6,3.3,1.1c1.6,0.7,3.1,1.9,2.7,3.8c-0.5,2.1-2.5,1-3.8,1.1C530.4,388.1,525.4,388,520.4,388z
		"/>
	<path class="st6" d="M268.5,388c-5,0-10,0-15,0c-1,0-2.7,0.7-2.9-0.9c-0.1-1,0.6-2.2,1.2-3.1c1-1.4,2.6-1.9,4.4-2.1
		c8.5-0.8,16.9-0.9,25.4,0.2c1.1,0.2,2.2,0.6,3.3,1.1c1.6,0.7,3,1.9,2.5,3.8c-0.5,1.9-2.2,1-3.4,1C278.8,388,273.7,388,268.5,388z"
		/>
	<path class="st5" d="M379.8,388c-5,0-10,0-15,0c-1,0-2.7,0.7-2.9-0.9c-0.1-1,0.6-2.2,1.2-3.1c1-1.4,2.7-1.9,4.4-2.1
		c8.5-0.8,17-1,25.4,0.2c1.3,0.2,2.6,0.7,3.7,1.3c1.4,0.7,2.6,2,2.1,3.6c-0.5,1.8-2.3,0.9-3.4,1C390.2,388,385,388,379.8,388z"/>
</g>
</svg>
