<?xml version="1.0" encoding="utf-8"?>
<!-- Generator: Adobe Illustrator 21.1.0, SVG Export Plug-In . SVG Version: 6.00 Build 0)  -->
<svg version="1.1" id="Layer_1" xmlns="http://www.w3.org/2000/svg" xmlns:xlink="http://www.w3.org/1999/xlink" x="0px" y="0px"
	 viewBox="0 0 900 596" style="enable-background:new 0 0 900 596;" xml:space="preserve">
<style type="text/css">
	.st0{fill:#FEFEFE;}
</style>
<g>
	<path class="st0" d="M1.3,239.6c0-17.1,0-34.2,0-51.4c0-1.5,0.3-2.2,1.9-1.9c0.4,0.1,0.8,0,1.3,0c297.4,0,594.8,0,892.2-0.1
		c2.6,0,3,0.6,3,3.1c-0.1,72.7-0.1,145.3,0,218c0,2.2-0.4,2.7-2.7,2.7C599.3,410,301.7,410,4,410c-2.4,0-2.9-0.6-2.8-2.9
		C1.3,352.7,1.3,298.3,1.3,244c5.5-2.4,12.7,1,15,7.1c0.7,2,1,4,1,6.2c0,27.8,0,55.5,0,83.3c0,4-1,7.6-3.1,11
		c-2.1,3.4-4.9,5.7-8.8,6.4c-0.9,0.2-2.3,0.3-2,1.8c0.2,1.2,1.4,1.1,2.3,1.1c12.4,0.1,24.8,0.1,37.3,0c0.9,0,2.1,0.1,2.2-1.1
		c0.1-1.3-1.1-1.3-1.9-1.6c-7.1-2.3-11.8-8.2-12-15.7c-0.2-10.4-0.1-20.9,0-31.3c0-3.3,0.7-3.8,3.8-4c9.8-0.6,18.5,1.4,24.7,9.8
		c5.3,7.2,9.8,14.8,14.1,22.5c3.5,6.4,7.2,12.7,11.7,18.5c1.7,2.2,3.7,3,6.5,3c7-0.1,14,0,21,0c0.8,0,1.7,0,2.5-0.1
		c0.7-0.1,1.2-0.5,1.2-1.2c0-0.7-0.2-1.2-0.9-1.5c-0.2-0.1-0.4-0.2-0.6-0.2c-9.5-1.2-15-8.1-20.4-14.9c-6.8-8.4-12.7-17.3-18.4-26.5
		c-2-3.3-4.3-6.4-7.1-9.1c-2.2-2.1-2.2-2.6,0.6-4c5.4-2.7,10-6.5,13.6-11.3c9.3-12.3,9.4-34.7-11-46.2c-6.3-3.6-13-5.5-20.3-5.4
		c-15.4,0.2-30.9,0.1-46.3,0C4.2,240.4,2.6,240.7,1.3,239.6z"/>
	<path d="M1.3,239.6c18.3,0,36.5-0.3,54.8,0.1c12.6,0.3,28.5,10.1,32.6,23.7c5.7,18.9-4.6,35.3-20.8,41.6c6.2,4.8,9.5,11.7,13.6,18
		c6,9.1,12.2,18,19.6,26c3.9,4.2,8.5,7.6,14.7,7.7c2.3,0,1.9,1.6,2.1,3c0.2,1.7-0.5,2.1-2.1,2c-8.9-0.1-17.7,0-26.6-0.1
		c-3.4,0-4.2-3.2-5.7-5.2c-6.1-7.9-10.3-17.1-15.5-25.6c-3.3-5.5-6.6-10.9-10.8-15.7c-4.6-5.2-10.6-7.3-17.4-7.3
		c-2.5,0-5.7-0.8-7.2,0.5c-1.6,1.3-0.4,4.7-0.5,7.2c-0.1,8.8-0.1,17.5,0,26.3c0.1,5.9,2.6,10.7,7.6,14.1c1.5,1,3.2,1.4,4.8,1.3
		c2.2-0.1,1.9,1.1,2,2.5c0.2,1.8-0.6,2-2.1,2c-13.5,0-26.9,0-40.4,0c-1.3,0-2.3-0.1-2-1.8c0.2-1-0.9-2.5,1.4-2.7
		c8.9-0.5,12.8-8.8,12.9-15.4c0.2-28.7,0.2-57.4,0-86.1c0-7.4-4.3-11.3-11.8-11.8c-1-0.1-2.1,0-3.1,0C1.3,242.5,1.3,241,1.3,239.6z"
		/>
	<path d="M257.4,363c-9.6,0-17.6-0.1-25.5,0.1c-2.3,0-2.8-0.7-2.7-2.8c0.1-1.8-0.2-3,2.5-3c6.9,0.1,11.3-4.6,11.3-12.4
		c0.1-23,0.2-45.9-0.1-68.9c-0.1-5.2-2-10-9.5-9.5c-1.8,0.1-3.1,0.2-3-2.4c0.1-2.3,0.8-2.7,2.9-2.6c4.2,0.2,8.4-0.1,12.5,0.1
		c8.4,0.4,16.8-1,25.2-0.6c9.9,0.4,18.7,3.4,25.7,10.7c3.5,3.7,5.4,8,6,13.2c1.1,9.9-2.7,17.1-10.8,22.3c-0.5,0.3-1.2,0.6-1.1,1.3
		c0,1,1,0.4,1.5,0.7c6.2,3.1,11.9,6.6,15.9,12.6c5.5,8.2,4.4,23.3-2.8,30.1c-6.3,6-13.4,9.4-22,10.6
		C274.1,363.6,264.9,362.5,257.4,363z"/>
	<path d="M806.3,315.7c5.1,5,8,11.2,11.8,16.8c3.8,5.6,7.9,11.1,12.3,16.3c3.1,3.7,6.4,7,11.3,8.1c0.5,0.1,0.9,0.3,1.4,0.4
		c1,0.2,2.5-0.5,2.9,0.4c0.5,1.3,0.2,2.9,0.2,4.3c0,1.2-0.9,0.9-1.6,0.9c-7.5,0-15,0-22.5,0c-1.2,0-1.9-0.7-2.6-1.4
		c-4.8-4.6-7.7-10.5-10.8-16.1c-4.1-7.4-8.3-14.8-13.7-21.4c-4.1-5-12.6-6.6-18.2-5.1c-1.1,0.3-0.8,1.1-0.8,1.7c0,9-0.2,18,0,26.9
		c0.1,5.2,4.4,9.5,9.5,9.6c2.4,0,1.8,1.5,1.7,2.7c-0.1,1.1,1.1,3.1-1.6,3c-11.4-0.1-22.8-0.1-34.1,0c-1.7,0-2.1-0.8-1.7-2
		c0.4-1.2-1.5-3.3,1.3-3.7c6.6-0.8,10.5-5.2,10.5-12.2c0.1-23,0-45.9,0-68.9c0-5.4-3.9-11-9.8-9.8c-2.7,0.6-2.7-1-2.7-3
		c-0.1-2.2,0.5-2.8,2.7-2.7c13.5,0.1,26.9-0.3,40.4,0.2c12.5,0.5,23.1,5.5,28.8,17.2c4.9,10,3.5,19.8-3.5,28.7
		C814.5,310.8,810.6,313.4,806.3,315.7z"/>
	<path d="M689.2,259c26.9-1.6,55,24.1,52.7,57.2c-1.7,23.5-23.7,50.8-56.4,48.8c-26-1.6-49.5-23.8-49.6-53
		C635.7,283.3,660.1,257.7,689.2,259z"/>
	<path d="M124.7,305c0-10.4,0-18.8,0-27.3c0-5.9-4.4-10.9-10.3-11.1c-2.2-0.1-1.7-1.5-1.6-2.5c0.2-1.1-1.3-3.2,1.4-3.2
		c11.9,0,23.8,0,35.7,0c2.8,0,1.4,2,1.6,3.1c0.2,1.2,0.6,2.6-1.7,2.6c-6.1,0.1-10.7,5.1-10.7,11.2c0,14.4-0.3,28.8,0.1,43.2
		c0.3,10.8,3.5,20.8,11.8,28.5c3.3,3.1,7.4,4.7,11.8,5.6c7.4,1.6,14.5,1.1,21.5-1.9c8.6-3.6,12.8-10.9,15.5-19.1c1.3-3.9,2-8,2-12.3
		c-0.1-14.8,0-29.6,0-44.5c0-6.3-3.9-10.6-10.2-10.8c-2.4-0.1-1.7-1.6-1.7-2.7c0.1-1.2-1.1-3,1.7-3c11.6,0.1,23.2,0.1,34.8,0
		c2.4,0,1.8,1.6,1.7,2.7c-0.1,1.1,1.1,3-1.6,3.1c-5.5,0.2-9.6,4.7-9.6,10.5c0,15.9-0.2,31.7,0,47.6c0.2,14-5.6,24.5-17.3,32
		c-10.6,6.8-22.4,9.3-34.7,8.1c-11.3-1.1-21.5-5.7-29.9-13.3c-5.4-4.8-8.7-11-9.6-18.5C123.9,323,125.2,313,124.7,305z"/>
	<path d="M531.2,303.2c0-10.2,0-18.3,0-26.4c0-5.4-4.2-10-9.5-10.2c-2.4-0.1-1.8-1.6-1.7-2.7c0.1-1.1-1.1-3.1,1.7-3
		c11.6,0.1,23.2,0.1,34.8,0c2.4,0,1.8,1.5,1.7,2.7c-0.1,1.1,1.2,3-1.6,3.1c-6.4,0.2-10.2,4.5-10.2,11.1c0,15.3-0.2,30.7,0.1,46
		c0.1,8.9,3.4,16.9,9.1,23.6c4.3,5.1,10.3,7.4,17,8.4c5.7,0.8,11,0.1,16.2-1.5c6.7-1.9,11.2-6.6,14.6-12.6
		c4.1-7.4,5.6-15.3,5.6-23.7c0-13.4,0.1-26.7-0.1-40.1c-0.1-4.7-2.1-8.5-6.5-10.8c-1.4-0.8-2.8-0.5-4.2-0.4
		c-2.5,0.1-1.8-1.6-1.7-2.7c0.1-1.2-1.1-3,1.7-3c11.8,0.1,23.6,0.1,35.4,0c2.4,0,1.8,1.5,1.7,2.7c-0.1,1.1,1.1,3-1.6,3.1
		c-5.7,0.2-10.2,5.2-10.2,11.1c0,16.5,0.1,33,0,49.5c-0.1,11.9-4.9,21.2-14.9,28c-11.1,7.6-23.2,10.9-36.4,9.6
		c-13.1-1.3-24.7-6.6-33.4-16.8c-4.1-4.7-6.1-10.5-6.7-16.9C530.7,321.1,531.6,311.1,531.2,303.2z"/>
	<path d="M511.8,273.8c0,3.5,0.1,7.1-0.1,10.6c0,0.9,1,2.7-1,2.7c-1.7,0-4.1,1.2-5.1-1.4c-1.9-5-5.3-8.8-9.8-11.5
		c-9.7-6-20.2-7.2-30.8-2.7c-13.9,5.9-20.8,17.4-24.1,31.5c-2.3,9.9-0.8,19.6,3.5,28.6c5.9,12.3,15.1,21.5,29.2,23
		c13.1,1.4,24.6-2.7,32.4-14.2c0.8-1.1,1-2.9,3-3.1c4.2-0.5,4.5-0.3,4.5,4c0,1.1-0.2,2.3,0,3.4c1.4,6.2-1.9,9.7-6.8,12.3
		c-6.7,3.6-13.6,6.3-21.3,7.4c-14.2,2-27.1-1.2-38.9-8.9c-12.5-8.2-21-19.3-23.3-34.5c-1.7-11.6-0.6-22.8,5.1-33.2
		c5-9.1,12.4-15.8,21.2-21.2c11.1-6.7,23.3-8.3,35.9-7.4c4.8,0.3,9.7,1.3,14,3.4c3.2,1.5,5.2,0.6,6.8-1.7c1.5-2.2,3,0,4.5-0.3
		c1.3-0.3,0.7,1.4,0.8,2.1C511.8,266.3,511.8,270,511.8,273.8z"/>
	<path d="M406.4,363c-5.7,0-11.5-0.1-17.2,0.1c-2.8,0.1-1.9-1.7-2-3c-0.1-1.4-0.4-2.7,2-2.7c5.8,0,7.3-2.6,5.1-8.2
		c-2.7-6.9-5.2-13.9-7.9-20.8c-0.7-1.9-1.7-3-4.2-3c-9.2,0.2-18.4,0.2-27.6,0c-2.3,0-3.3,0.7-4,2.8c-1.8,5.7-3.7,11.3-5.6,16.9
		c-2.2,6.4,0.7,12.5,8,12.3c2.3,0,1.5,1.7,1.4,2.6c-0.1,1,1.2,3-1.3,3c-10.5,0-21.1,0-31.6,0c-2.3,0-1.5-1.7-1.4-2.6
		c0.1-1-1.3-3,1.3-3c8.2-0.1,12.5-5.6,14.8-12.1c9.5-27.2,18.5-54.6,27.6-81.9c0.7-2,1.5-2.6,3.4-2.4c0.9,0.1,1.9,0,2.8,0
		c6.3,0,6.1,0.1,8.3,5.8c4.7,12.4,9.5,24.7,14.3,37.1c5.2,13.6,10.5,27.1,15.7,40.7c2.2,5.8,6.3,9.6,11.6,12.4
		c1.1,0.6,2.2,0.6,3.3,0.4c2.2-0.3,2.7,0.6,2.7,2.7c0.1,2.5-0.7,3.1-3.1,3C417.4,362.8,411.9,363,406.4,363z"/>
	<path d="M870.1,363c-5.5,0-11.1-0.2-16.6,0.1c-2.7,0.1-2.2-1.4-2.2-2.9c0-1.5-0.5-3,2.2-2.9c4.7,0.2,9-4.7,9.1-10
		c0.1-24.6,0-49.3,0-73.9c0-3.6-3.9-7.1-8-6.8c-2.8,0.2-2.6-1.2-2.7-3.1c-0.1-2.2,0.6-2.7,2.7-2.7c10.4,0.1,20.9,0.1,31.3,0
		c2.4,0,2.4,1,2.4,2.7c-0.1,1.7,0.4,3.1-2.4,3c-5.1-0.2-8.3,3.3-8.3,8.4c0,23.9,0,47.8,0,71.7c0,6,3.8,10.2,9.7,10.6
		c2.9,0.2,1.2,2.3,1.5,3.5c0.4,1.3,0.1,2.3-1.8,2.2C881.3,362.9,875.7,363,870.1,363z"/>
	<path d="M872,250.9c-2.8,0.1-6.4,0-10-0.6c-1-0.2-1.6-0.4-2.1-1.4c-4.1-9.6-6.1-19.4-3-29.7c1.6-5.3,7.6-10.8,13.2-10.4
		c4.3,0.3,9.7,3.6,11.1,8.9c0,0.1,0,0.2,0,0.3c0,3.7,1,5.5,5.5,5c5.2-0.6,9.2,2.6,11.3,7.3c2.3,5.3,0,10-3.5,13.9
		c-4.1,4.5-9.7,6-15.5,6.7C877.1,251.1,874.9,250.9,872,250.9z"/>
	<path class="st0" d="M56.4,266.5c8.5-2.1,15.1,0.5,17.1,9.2c0.7,3.1-2.5,9.2-5.8,11.5c-7.3,5-15.3,5.3-24,5.4
		c-8.8,0-9.3-5.6-10.8-11.1c-1.7-6.7-2.5-13.6,0.3-20.3c2-4.9,5.5-8.3,10.7-9.6c2.8-0.7,8.5,1.7,10.7,5.8c0.8,1.4,1.5,2.9,1.7,4.4
		C56.6,263.3,56.4,264.9,56.4,266.5z"/>
	<path class="st0" d="M257.5,330.4c0-4.4,0-8.8,0-13.1c0-1.1,0-2,1.6-1.9c6.8,0.4,13.6-0.9,20.3,1.3c9.7,3.1,16.6,8.7,16.3,19
		c-0.2,5.8-3.2,10.1-8,13.2c-6.6,4.2-13.8,6.2-21.6,4.7c-4.9-0.9-8.5-5.4-8.5-10.3C257.4,339,257.5,334.7,257.5,330.4z"/>
	<path class="st0" d="M257.5,288.1c0-5.4,0.1-10.9,0-16.3c0-1.8,0.4-2.3,2.2-2.2c5.8,0.1,11.5-0.1,16.9,3c9,5.2,12.4,15.4,7.8,23
		c-3.6,6-9,9.2-15.8,10.4c-3.1,0.6-6.1,0.5-9.2,0.6c-1.5,0.1-1.9-0.4-1.9-1.9C257.5,299.2,257.5,293.7,257.5,288.1z"/>
	<path class="st0" d="M776.1,290.6c0-5.7,0.1-11.5-0.1-17.2c-0.1-2.1,0.6-2.7,2.6-2.5c4.5,0.4,9.1-0.5,13.6,0.6
		c7,1.6,11.2,6.3,13.8,12.5c5.6,13.2-6.5,26.2-17.4,26c-3.3-0.1-6.8,0.3-10.2,0.5c-2.2,0.1-2.5-0.7-2.5-2.6
		C776.2,302.1,776.1,296.3,776.1,290.6z"/>
	<path class="st0" d="M726,316.7c-0.6,11.1-2.6,22-10.7,30.2c-12,12.2-29.1,13.5-43.3,1.9c-10-8.2-16.7-18.5-19-31.2
		c-2.7-14.5-0.3-28.3,9.3-40c4.7-5.7,11.3-8.6,18.7-9.8c10.6-1.7,19.1,2.2,26.9,9c9.5,8.3,15.3,18.7,17.4,31
		C725.7,310.6,726.7,313.6,726,316.7z"/>
	<path class="st0" d="M381.7,316.6c-8.5,0-16.6,0-24.8,0c-1.8,0-1.9-0.4-1.3-2.2c4-11.5,7.7-23,11.7-34.9
		C372.2,292.1,376.9,304.2,381.7,316.6z"/>
</g>
</svg>
