<?xml version="1.0" encoding="utf-8"?>
<!-- Generator: Adobe Illustrator 21.1.0, SVG Export Plug-In . SVG Version: 6.00 Build 0)  -->
<svg version="1.1" id="Layer_1" xmlns="http://www.w3.org/2000/svg" xmlns:xlink="http://www.w3.org/1999/xlink" x="0px" y="0px"
	 viewBox="0 0 700 965" style="enable-background:new 0 0 700 965;" xml:space="preserve">
<style type="text/css">
	.st0{fill:#D6D6D6;}
	.st1{fill:#CFCFCF;}
	.st2{fill:#C8C8C8;}
	.st3{fill:#FEFEFE;}
	.st4{fill:#FDFDFD;}
	.st5{fill:#050505;}
	.st6{fill:#050606;}
	.st7{fill:#060706;}
	.st8{fill:#080808;}
	.st9{fill:#060606;}
	.st10{fill:#080909;}
	.st11{fill:#8E8F8E;}
	.st12{fill:#9D9F9E;}
	.st13{fill:#B1B3B2;}
	.st14{fill:#BDBEBD;}
	.st15{fill:#202120;}
	.st16{fill:#282828;}
	.st17{fill:#1D1D1D;}
	.st18{fill:#B7B9B7;}
	.st19{fill:#B9BBB9;}
	.st20{fill:#303130;}
	.st21{fill:#8D8E8D;}
	.st22{fill:#B2B4B3;}
	.st23{fill:#1E1F1E;}
	.st24{fill:#8B8C8C;}
	.st25{fill:#9B9C9B;}
	.st26{fill:#181818;}
	.st27{fill:#3B3C3B;}
	.st28{fill:#8A8C8B;}
	.st29{fill:#1E1F1F;}
	.st30{fill:#B9B9B8;}
	.st31{fill:#909290;}
	.st32{fill:#878888;}
	.st33{fill:#8C8C8C;}
	.st34{fill:#898A89;}
	.st35{fill:#929392;}
	.st36{fill:#333433;}
	.st37{fill:#383938;}
	.st38{fill:#A7A7A6;}
	.st39{fill:#404140;}
	.st40{fill:#A7A8A7;}
	.st41{fill:#919391;}
	.st42{fill:#909190;}
	.st43{fill:#373737;}
	.st44{fill:#666867;}
	.st45{fill:#717371;}
	.st46{fill:#888A89;}
	.st47{fill:#7A7B7A;}
	.st48{fill:#8B8C8B;}
	.st49{fill:#808280;}
	.st50{fill:#969897;}
	.st51{fill:#8C8E8D;}
	.st52{fill:#8E908E;}
	.st53{fill:#747574;}
	.st54{fill:#909291;}
	.st55{fill:#424443;}
	.st56{fill:#C7C7C7;}
	.st57{fill:#4B4B4B;}
	.st58{fill:#E2E3E2;}
	.st59{fill:#C0C2C1;}
	.st60{fill:#727473;}
	.st61{fill:#515251;}
	.st62{fill:#606160;}
	.st63{fill:#989998;}
	.st64{fill:#949695;}
	.st65{fill:#8F908F;}
	.st66{fill:#BEBFBE;}
	.st67{fill:#AAACAB;}
	.st68{fill:#2C2D2C;}
	.st69{fill:#9C9D9C;}
	.st70{fill:#7F817F;}
	.st71{fill:#CBCDCB;}
	.st72{fill:#919392;}
	.st73{fill:#7D7F7E;}
	.st74{fill:#7F807F;}
	.st75{fill:#292A29;}
	.st76{fill:#C3C5C3;}
	.st77{fill:#A8AAA8;}
	.st78{fill:#808381;}
	.st79{fill:#2F2F2F;}
	.st80{fill:#404141;}
	.st81{fill:#919291;}
	.st82{fill:#A2A5A3;}
	.st83{fill:#AFB0AF;}
	.st84{fill:#3C3D3C;}
	.st85{fill:#A6A7A6;}
	.st86{fill:#9FA09F;}
	.st87{fill:#0C0C0B;}
	.st88{fill:#838583;}
	.st89{fill:#A9ABA9;}
	.st90{fill:#8A8B8A;}
	.st91{fill:#949594;}
	.st92{fill:#A6A8A6;}
	.st93{fill:#747575;}
	.st94{fill:#EAEBEA;}
	.st95{fill:#1A1A1A;}
	.st96{fill:#A2A4A2;}
	.st97{fill:#EBECEB;}
	.st98{fill:#0A0A0A;}
	.st99{fill:#8F9190;}
	.st100{fill:#0D0D0D;}
	.st101{fill:#313131;}
</style>
<g>
	<path class="st0" d="M701.4,139c0,0.5,0,0.9,0,1.4c-1.4,2.4-0.7,5-0.7,7.5c0,223.6,0,447.3,0,670.9c0,2.5-0.7,5.1,0.7,7.5
		c-1.7,2,3.7,6.9-2.8,7c-2.9-1.4-6-0.7-8.9-0.7c-225.9,0-451.8,0-677.7-0.2c-2.5,0-6.1,2.3-7.7-1.9c2.2-2.1,5-2.3,7.9-2.4
		c3.3-0.1,6.5-0.1,9.8-0.1c219.6,0,439.1,0,658.7,0c17.4,0,15.7,1.2,15.7-16c0-219.8,0-439.6,0-659.4c0-15.2,1-14.2-13.9-14.2
		c-220.5,0-441,0-661.5,0c-15,0-14.3-1.2-14.3,14.6c0,221,0,441.9-0.1,662.9c0,4.8,1.2,9.9-2.1,14.2c-1.5,0.6-2.1-0.2-2.2-1.6
		c-0.2-2.1-0.1-4.2-0.1-6.3c0-228.1,0-456.3,0-684.4c-0.9-4.2,2.8-3.5,4.9-4.6c0.5,0,0.9,0,1.4,0c2.4,1.4,5,0.7,7.5,0.7
		c223.6,0,447.3,0,670.9,0c2.5,0,5.1,0.7,7.5-0.7c0.5,0,0.9,0,1.4,0C699.2,133.8,701,135.6,701.4,139z"/>
	<path class="st1" d="M2.8,136.2c0,228.6,0,457.2,0.1,685.7c0,2.9-1.1,6.1,1.3,8.7l0,0c2.6,2.4,5.8,1.3,8.7,1.3
		c225.7,0.1,451.4,0,677.1,0.1c2.9,0,6.1-1.2,8.7,1.3c-230.3,0-460.6,0-690.9,0.1c-5.2,0-6.4-1.2-6.4-6.4
		c0.2-230.3,0.1-460.6,0.1-690.9C1.9,135.5,2.3,135.5,2.8,136.2z"/>
	<path class="st2" d="M694.4,133.4c-2.1,2.3-4.8,1.3-7.3,1.4c-223.8,0-447.6,0-671.5,0c-2.5,0-5.2,0.9-7.3-1.4
		C237.1,133.4,465.7,133.4,694.4,133.4z"/>
	<path class="st2" d="M701.4,826.4c-2.3-2.1-1.4-4.8-1.4-7.3c0-223.8,0-447.6,0-671.5c0-2.5-0.9-5.2,1.4-7.3
		C701.4,369.1,701.4,597.7,701.4,826.4z"/>
	<path class="st0" d="M701.4,139c-1.3-2.5-3.1-4.3-5.6-5.6C700.6,132.3,702.5,134.2,701.4,139z"/>
	<path class="st0" d="M2.8,136.2l-0.7,0l-0.7,0c-0.4-5.5,3.8-1.6,5.6-2.8C5.6,134.3,4.2,135.3,2.8,136.2z"/>
	<path class="st3" d="M4.2,830.6c0-228.2,0-456.4,0-684.5c0-9.9,0-9.9,9.6-9.9c225.1,0,450.3,0,675.4,0c9.4,0,9.4,0,9.4,9.4
		c0,225.4,0,450.8,0,676.1c0,8.9,0,8.9-9.2,8.9C461,830.6,232.6,830.6,4.2,830.6C4.2,830.6,4.2,830.6,4.2,830.6z"/>
	<path class="st4" d="M574,511.4c0-24.7-0.1-49.4,0.1-74.1c0-5.4-0.6-9.4-7.4-8.6c-2.5,0.3-3.9-1-3.8-3.7c0.1-2.9,2-3.3,4.3-3.2
		c16.7,0.6,33.5-1.5,50.1,1.4c11.8,2.1,21.7,10.5,23.5,20.6c2.2,12.6-7.8,27.9-21.1,26.7c-0.1-0.7,0.1-1.3,0.5-1.9
		c1.3-1.4,3-2.2,4.7-3c7.2-3.3,11.3-8.4,11.7-16.7c0.4-8.6-3.8-14.1-10.7-18.2c-1.2-0.7-2.4-1.4-3.7-2.1c-4.3-2.8-9.3-2.2-14.1-2.9
		c3.5,0.5,6.6,2.4,10,2.9c16.4,8.5,16.2,28.1-0.4,39.3c-4.7,2.3-9.3,4.8-14.7,4.6c-3.7,0.3-7.4-0.7-11-0.4c-5.6,0.4-7.5-2.3-7.5-7.4
		c0-11.1-0.1-22.2,0-33.2c0-1.4,0.4-2.8,1.2-4c-3.6-2.7-7.9-0.5-11.7-1.6c-0.4-0.1-0.9-0.1-1.4-0.1c0.5,0.6,1.4,0.6,2,1.1
		c3.1,3,3.9,6.9,4,10.8c0.7,23.2,0.7,46.3-1.4,69.5c-0.1,1.2-0.5,2.3-1.1,3.3C575.7,511.6,574.9,511.8,574,511.4z"/>
	<path class="st5" d="M151.2,427.4c-2.1,1.4-3.1,3.3-3.1,5.9c0.1,10.7,0.1,21.3,0.1,32c1.6,1.8,1.4,3.6,0.2,5.5
		c-1,13.5-0.5,27,0.1,40.4c0.3,1.7,2.4,2.1,2.8,5c-6.2-1-12.3,2.4-18.2-1.9c3.2-1.6,4.4-4,4.6-7.8c0.8-23.5,0.3-47,0-70.6
		c0-3.1,0.2-6.7-3.3-8.6C138.1,424.4,147.6,424.4,151.2,427.4z"/>
	<path class="st6" d="M221.2,430.2c-0.7,26.6-0.7,53.2,0,79.8c0.8,1.9,3,3,2.7,5.8c-5.2,0.5-10.4,1.1-15.6-0.3
		c4-16.1,3-32.3,1.1-48.5c2.7-8.6,1.5-17.4,0.8-26.1c-0.4-4.6,1.8-9.9-2.9-13.7l0.1,0c2.5-1.8,13.6-3,14.9-1.3
		C223.6,427.6,221.8,428.8,221.2,430.2z"/>
	<path class="st5" d="M102.2,508.6c7.1-13.3,3.7-24.5-10-30.9c-8.2-3.8-17-6.5-25-10.6c-12.3-6.3-16.1-19.3-9.9-31.3
		c2.9-2.7,3-2.7,4.3,0c-2.6,11.9,0.6,18.6,11.7,23.3c6.6,2.8,13.3,5.6,20.3,7.2c19.8,4.7,23.9,29.1,13.1,41
		C105,507.3,104.9,512.6,102.2,508.6z"/>
	<path class="st7" d="M588,427.4c-0.5,0.9-1,1.7-1.6,2.6c-0.6,14-1.7,28,0.6,42c-1.6,13.7-2.6,27.3,0.8,40.9c0.4,0.5,0.9,1,1.3,1.5
		c-1.6,4-5,1.4-7.5,1.7c-2.8,0.4-5.9,0.7-8.8-0.4c-0.6-2.4,2.2-2.7,2.6-4.3c1.3-25.6,1.2-51.3,0.7-77c-0.1-2.8-0.5-5.6-3.4-7.1
		C576.6,424.4,584.3,424.5,588,427.4z"/>
	<path class="st8" d="M494.3,508.5c0.9,1,1.8,2,2.6,3c1.6,0.8,3.1,1.8,4.8,2.3c1.2,0.3,1.6,1.4,0.3,2.4c-0.8,0.1-1.5,0.1-2.3,0.1
		c-5.6,0-11.2,0.1-16.7,0c-3,0-4.1-1.1-1.5-3.6c1.2-1.5,1.7-3.2,1.7-5.2c-0.1-22.8-0.1-45.6-0.3-68.4c0-3.5,0.9-7.6-2.9-10.2
		c-0.5-6.2,4.3-3.9,7.2-4.2c2.8-0.3,5.2,0.5,5,4.1c-0.1,1.6,0,3.3,0,4.9c-0.2,22,0.3,44,0.7,66C492.9,502.7,493,505.7,494.3,508.5z"
		/>
	<path class="st6" d="M257.7,428.7c-0.5-0.4-1-0.9-1.5-1.3c2.7-5.1,7.3-2.6,10.9-2.2c3.5,0.4,2.2,4.1,2.3,6.4
		c0.1,9.8,0,19.5,0.1,29.3c0,2.3-0.7,4.7,0.9,6.7c-1.5,12.3-1.4,24.5-0.3,36.8c0.6,4.1,2.1,7.6,6.8,8.5c1.2,0.5,2.4,1,1.5,2.7
		c-7.1,0.9-14.1,1.3-21.2-0.3c2-3.7,2.5-7.7,2.5-11.9c-0.2-21.8-0.1-43.7-0.1-65.5C259.7,434.7,259.8,431.5,257.7,428.7z"/>
	<path class="st9" d="M379.4,435.8c3.8,18.5,11.4,35.9,17.9,53.5c1.6,4.2,2.2,9.1,5.9,12.3c5.6,1.3,2,4.3,1.3,6.8
		c-1.8,2.3-1.5,6.1-5.6,7.5c-8-21.1-16.1-42.1-24.1-63.2c-2.2-5.9-4.4-11.8-6.5-17.7c-1.1-3.1-2.5-6-5.5-7.8c2.7-4,6.8-1.6,10.2-1.8
		c7-0.4,7-0.1,5.8,6.4C378.5,433.2,378.4,434.6,379.4,435.8z"/>
	<path class="st10" d="M620.4,481.8c6.6,8.3,13.2,16.6,19.9,24.9c1.9,2.3,3.9,4.6,6.6,6.1c0.8,0.8,2.5,0.6,2.7,1.9
		c0.2,1.6-1.2,1.7-2.3,1.6c-4.3-0.3-8.7,1-12.9-0.7c-7.2-10.1-14.3-20.4-21.6-30.4c-2.3-3.1-5.3-5.7-8-8.6c-1.4-1.2-2.8-2.3-1.7-4.4
		c0.6-0.4,1.3-0.6,2-0.6C613.2,470.5,615.4,478.2,620.4,481.8z"/>
	<path class="st11" d="M494.3,508.5c-2.9-3.2-2.7-7.3-2.7-11.2c-0.1-22.1-0.1-44.2-0.2-66.3c0-2,1.2-5.5-2.5-5.2
		c-3,0.3-7.9-3.1-8.9,3.1c-2.2-1.3-4.6-1.5-7.1-1.4c-2,0.1-4.3,0.3-3.8-3c7-1.6,14.1-0.4,21.2-0.7c2.7-0.1,3.8,1.3,3.1,3.9
		c0,11.1,0.2,22.3-0.2,33.4c-0.2,4.9,1.7,6,6.1,5.7c5.8-0.4,11.6-0.3,17.4-0.4c0.3,2.1-1.2,2.4-2.7,2.7c-2.4,0.8-4.9-1.7-7.2,0.3
		c-13.9,0.1-13.8,0.1-13,14.1C494.1,491.9,494.1,500.2,494.3,508.5z"/>
	<path class="st12" d="M148.5,470.8c-0.1-1.8-0.1-3.7-0.2-5.5c1.8,0.5,3.5,1.4,5.3,1.4c18.3,0,36.7-0.1,55-0.2
		c1,1.6-0.3,2.2-1.3,2.9c-16.9,0.1-33.8,0.2-50.6,0.2C153.8,469.6,151,469.5,148.5,470.8z"/>
	<path class="st13" d="M388.1,540.9c-4.3-7.9,3.1-3.2,4.9-4.6c3.2-0.8,4.3,0.5,3.6,3.6c0,9.6-0.1,19.3-0.1,28.9
		c0.3,1.8,3.3,3.2,1,5.5c-2.5,0-4.9,0.1-7.4,0.1c-3.5,0.1-3.7-1.6-2.3-4.2c0.7-0.5,1.3-0.4,1.8,0.2c4.1-0.3,3.1-3,2.9-5.6
		c-0.6-7.1-0.6-14.2,0-21.3c-0.7,7.1-0.3,14.1-0.3,21.2c0,2.1,1.2,5.8-3.5,4.5C388.2,559.8,389.1,550.3,388.1,540.9z"/>
	<path class="st14" d="M366.4,570.1c0.9-4.5,0.5-9.1,0.3-13.7c0.7-0.6,1.3-0.6,2-0.1c0.5,0.6,0.8,1.2,1.1,1.9
		c0.7,3.1,0.2,6.3,0.6,9.4c0.1,0.2,0.2,0.4,0.3,0.6c0.3,0.6,0.9,0.7,0.9,0.2c0.8-8.8,0.3-17.6-0.2-26.4c-1.9,3.5-0.3,7.6-2.3,11
		c-0.5,0.6-1.1,0.8-1.8,0.7c-0.7-0.5-0.8-1.1-0.4-1.8c-0.2-4.3,1.5-8.8-1.4-12.8c-0.9-1.2-0.5-2.2,0.7-2.8c2.8-1.5,5.9-1.3,8.8-0.7
		c1.7,0.3,1.6,1.8,1.4,3.3c-1.4,11-2,22,0.4,33c0.5,2.1-0.4,2.3-1.8,2.7c-3.1,0.9-6.3,2-9.3-0.3
		C363.6,572.5,365.5,571.4,366.4,570.1z"/>
	<path class="st15" d="M316.4,424.6c4.9,3.4,4.4,9.5,7.2,13.9c0.5,1.1,0.7,2.2-0.4,3c-0.8,0.6-1.6,0.4-2.3-0.4
		c-4.5-5.7-9-11.4-16.9-12.5c-2-3.7,1.3-3.7,3.2-4.7C310.2,424.2,313.4,423.2,316.4,424.6z"/>
	<path class="st16" d="M541.7,438.7c-4-5.3-8.9-9.3-15.3-11.3c-0.8-2.3,1.2-2.5,2.5-3.1c0.6-0.2,1.2-0.1,1.7,0.3
		c13.3-3.1,12.9,8.5,16.7,15.5c1.4,3,0.1,3.4-2.3,2.2C543.6,441.5,542.8,439.9,541.7,438.7z"/>
	<path class="st17" d="M413,571.6c-10.8-8.2-12.1-19.7-3.3-29.7c2.5-0.2,2.9,0.9,1.8,3c-2.1,6.6-2.4,13.1,0.1,19.7
		c1,1.8,2.8,3,3.7,4.8C416.5,571.8,415.6,572.8,413,571.6z"/>
	<path class="st18" d="M316.4,424.6c-3.1,1-6.3,0.4-9.5,0.3c-1.9,0.4-3.7,0.9-5.6,1c-2.9,0.1-5.7,0-8.6,0c-2.4,0.3-5.1-0.9-7.2,1.3
		c-5,0.2-10,0.3-15,0.5c-4.1-4.4-9.4-2.1-14.1-2.1c-3.4,0-6.8,1.2-9.9-0.9c1-1.8,2.7-1.4,4.3-1.4c20.6,0,41.2,0.1,61.7,0.1
		C314,423.4,315.4,423.3,316.4,424.6z"/>
	<path class="st19" d="M530.6,424.5c-0.3,0.4-0.6,0.5-1.1,0.4c-1.9,0.3-3.7,0.8-5.6,1c-4.7,0.6-9.7-1.2-14.3,1.4
		c-5.4,0.2-10.8,0.4-16.3,0.6c-0.6-3.4-3.1-3.4-5.7-3.4c-6.2,0.1-12.4,0.1-18.6,0.2c1-1.7,2.7-1.5,4.3-1.5
		c17.6,0.1,35.2,0.1,52.7,0.2C527.7,423.3,529.4,423.2,530.6,424.5z"/>
	<path class="st20" d="M537.7,511.6c6.9-2.8,9.4-10.5,17.2-15.6c-3,7.3-5.2,12.8-7.4,18.2c-5.3,4.1-11.1,1.3-17.9,1.9
		C532.3,512.7,535.8,513.6,537.7,511.6z"/>
	<path class="st21" d="M257.7,428.7c3.2,1.5,2.9,4.5,2.9,7.2c0.1,23.7,0,47.5,0.2,71.2c0,3.3-1.4,5.7-2.9,8.3
		c-1.8,0.7-3.9,2.3-4.5-1.3c4.6-1.1,6.1-4.1,6-8.7c-0.3-21.9-0.2-43.8-0.4-65.7C259,436,258.2,432.4,257.7,428.7z"/>
	<path class="st22" d="M604.8,472.1c-0.4,0.1-0.8,0.2-1.2,0.2c-3.4,0.2-1.1,2.5-1.3,3.8c-4.8-0.3-9.2-3.6-14.2-1.3
		c-0.5-0.8-0.7-1.8-1.3-2.6c-1.6-1-1.7-2.6-1.7-4.3c0-11.4,0-22.8,0-34.2c0-1.4-0.1-2.8,1.4-3.6c0.1,11.3,0.6,22.7,0.3,34
		c-0.2,5.7,1.9,7.4,7.1,7c3.7-0.3,7.4,0,11.1,0c0.3,0.3,0.4,0.6,0.3,0.8C605.1,472,604.9,472.1,604.8,472.1z"/>
	<path class="st23" d="M315.1,511.5c5-1.9,7.3-6.8,11.1-10c1.3,0.6,1.4,1.8,1.6,3c-0.6,4-2.1,7.7-4.4,11.1c-5,1.3-10,0.7-15.1,0.3
		c-0.6-0.6-0.7-1.3-0.2-2C310.6,513.5,313.1,513.2,315.1,511.5z"/>
	<path class="st24" d="M246.6,424.7c6-0.1,12.1-0.1,18.1-0.2c2.5,0,5.3-0.4,6,3.2c0,12.8-0.1,25.5-0.1,38.3c0.4,0.9,0.2,1.6-0.5,2.3
		c-2.4-11.2-0.7-22.6-1-33.9c-0.3-9.7-2.9-11.3-12.7-7C253,426.5,248.5,430.3,246.6,424.7z"/>
	<path class="st25" d="M270,468.3c0.2-0.8,0.3-1.5,0.5-2.3c7.3,1.9,14.8,0,22.1,0.7c0.1,2-1.3,2.3-2.7,2.6c-2.4,0.4-4.8-0.9-7.2,0.2
		c-11.9,0.3-11.9,0.3-12.1,12.2c-0.1,7.6-0.3,15.2-0.4,22.8C268.7,492.4,268.3,480.3,270,468.3z"/>
	<path class="st26" d="M306.6,545c-0.4,0.5-0.9,0.9-1.3,1.4c-1,6.2-2.2,12.3,1.2,18.2c1.5,1.8,2.9,3.6,4.4,5.3
		c0.1,0.3,0.1,0.6,0.2,1c-0.8,1.4-1.8,1.8-3.1,0.7c-3-2.1-6.5-3.7-7.3-7.8c-2.4-6.5-1.6-12.7,1.6-18.7l-0.2-0.1
		c1.2-1.1,1.9-3.3,4.1-2.6C307.5,542.7,307.4,544,306.6,545z"/>
	<path class="st27" d="M62.5,511.6c-0.2,0-0.5,0-0.7-0.2c-2.4-2.7-7.7,0.4-8.1-2c-0.8-4.5,0.7-9.3,1.4-16.2
		c3.3,6.9,5.6,12.1,9.5,16.1C65,511.3,64.3,512,62.5,511.6z"/>
	<path class="st28" d="M208.9,515.5c4.6,0,9.2,0,13.7,0c0.7-2.5-2.3-3.4-1.4-5.5c3.2,4.5,8.6,3.3,13.4,4.8
		c-5.4,3.1-32.2,3.2-38.3,0.3c3.2-2,6.4-1.1,9.5-1C206.9,514.2,208,514.6,208.9,515.5z"/>
	<path class="st29" d="M442.5,424.7c0.4,0,0.9,0,1.3,0c0.7,1.2,3.7-0.1,2.8,2.7c-2.2,1.5-4.4,2.9-6.6,4.4c-2.4,1.6-2.7,4.8-4.6,6.8
		c-1,2.3-2,4.7-3,7c-3.5-1.2-1.6-3.6-1.4-5.7l0,0.1c3.6-4.4,1.9-9.4,1.7-14.3C435.9,424.6,439.3,426.2,442.5,424.7z"/>
	<path class="st11" d="M366.7,553.2c0.4,0,0.8,0,1.2,0.1c1.1,1,1.1,2,0.1,3c-0.5,0-0.9,0-1.4,0.1c-1.1,0-2.3-0.1-3.4-0.1
		c-13.5,0-13.5,0-12.9,13.5c1.2,5.1-2.6,3.8-5,3.8c-3.6-0.1-3.3-2.4-2.3-4.8l-0.1-0.3c0.5-0.3,1.1-0.4,1.7-0.4
		c3.7-0.7,1.9-3.6,2.2-5.5c0.4-3.4-0.4-7,2.8-9.6c0.7-0.4,1.4-0.5,2.1-0.3C356.7,553.1,361.7,552.1,366.7,553.2z"/>
	<path class="st30" d="M309.4,514.1c-0.3,0.3-0.6,0.4-1,0.3c-2.3,1-4.6,0.6-6.6,0.1c0.5,2.1,5.2-1.6,4.9,2.6
		c-8.9,0-17.8-0.1-26.6-0.1c0-3.9,3.9-0.7,4.9-2.7c0.9-0.2-0.7-0.7-0.1,0c-2.1,1.1-4.3,1.1-6.4,0.1c-0.5-0.5-0.9-0.9-1.4-1.4
		c10.8,0.5,21.6,1,32.4-0.1c0.5,0.3,0.6,0.6,0.4,0.8C309.7,513.9,309.5,514.1,309.4,514.1z"/>
	<path class="st31" d="M379.4,435.8c-3.3-3.3-1.5-6.3,1.9-10.3c-7.2,0.9-13-1.6-18.6,1.7c-2.2,0.4-4.4,0.5-8.2-2.1
		c13.2-1.8,24.5-1.3,36.2,0.6C385.2,427.5,378.1,427.2,379.4,435.8z"/>
	<path class="st32" d="M208.9,515.5c-1.3,0.1-2.5-0.1-3.2-1.4c1.8-1.1,3.2-2.5,3.3-4.9c0.3-11.8,0.7-23.6,1-35.4
		c0.1-2.1-1.1-3.5-2.8-4.4c0.4-1,0.9-1.9,1.3-2.9c0,0,0,0,0,0c0.6-0.5,1.2-0.5,1.7,0.2c3.1,14.1,0.9,28.3,1,42.4
		C211.2,511.2,209.7,513.4,208.9,515.5z"/>
	<path class="st33" d="M575.4,511.4c0,1.8-2.9,5,2.3,4.1c3.8-0.7,7.8,1,11.5-1.1c3.4-0.8,6.8-0.9,10.3,0.1
		c-3.7,3.2-27.7,3.8-35.1,0.8c2.7-3,7.7,0,9.6-3.9C574.5,511.4,574.9,511.4,575.4,511.4z"/>
	<path class="st34" d="M133.2,514.4c4.7,2.1,9.6,0.9,14.4,1c5.1,0.1-0.9-3,1-4.1c3.4,3,8,2.3,11.9,4.1c-11.9,2.1-23.6,1.9-35.3,0.3
		C127.6,513.2,130.4,513.9,133.2,514.4z"/>
	<path class="st35" d="M221.2,430.2c-0.1-1.9,2.5-5.4-2.5-4.5c-3.8,0.7-7.9-1.6-11.3,1.6c-3.3,0.2-6.6,0.9-9.5-1.5
		c11-2.1,22-1.9,33-0.3C227.9,428.2,223.7,427.2,221.2,430.2z"/>
	<path class="st36" d="M514,468.1c0.9-0.5,1.7-1,2.6-1.5c4.9-1,3.2-6.1,5.4-8.7c3,0.2,2.2,2.5,2.2,4.1c0.1,3.9,0.1,7.9,0,11.8
		c-0.1,2.1-0.6,3.8-3.3,2.4c-0.2-1.5,0-3.2-1.5-4.2C518.2,470,514.2,471.7,514,468.1z"/>
	<path class="st37" d="M106.3,434.4c0.3,1.6,0.8,3.2-0.8,5.6c-3.5-5.4-7.8-9.6-13-12.8c-0.5-0.7-0.4-1.3,0.3-1.8
		c1.8-0.1,3.6-0.5,5.2,0.5l0,0C105.2,427.1,105.2,427.1,106.3,434.4z"/>
	<path class="st21" d="M68.4,511.7c8.1,3.7,16.5,5.1,25.2,2.4c1.2,1.2,3.3-0.2,4.3,1.5c-2.3,2.4-5.1,3.3-8.4,2.7
		c-3.7-1-7.4-1-11.1,0c-3.7,0.5-6.9-0.4-9.8-2.8C69.9,514.2,66.8,513.1,68.4,511.7z"/>
	<path class="st11" d="M343.1,561.6c-0.3-7.4,1.4-15-1.8-22.1c-0.7-5.4,3.5-3.3,5.8-3.4c1.9-0.1,5.8-1.5,4.2,3.3l0,0
		c-1.8,4.5,0.2,9.2-1.1,13.7c-0.3,0.2-0.5,0.4-0.8,0.6c-4.2-2.2-2-6.6-3-9.5c-0.8,5.5,1.3,11.6-1.6,17.3
		C344.3,562.1,343.7,562.1,343.1,561.6z"/>
	<path class="st38" d="M501.2,515.6c0.3-0.3,0.6-0.3,0.9-0.2c2.3-1.5,5.3,0.7,7.6-1.3c4.2,0,8.4,0.1,12.5,0.1
		c3.2,1.6,7.4-0.3,10.1,3c-10.4,1.7-20.7-0.5-31.1-0.2c-0.5-0.3-0.6-0.6-0.5-0.9C500.9,515.8,501,515.6,501.2,515.6z"/>
	<path class="st12" d="M210.2,466.7c-0.6-0.1-1.1-0.1-1.7-0.2c2.6-4.9,1.3-10.1,1.1-15.1c-0.2-8.1,0.3-16.3-2.4-24.1
		c3,0.3,3.8,2.7,3.8,4.9c0.2,10.7,0.3,21.4,0.3,32.1C211.4,465.1,210.6,465.9,210.2,466.7z"/>
	<path class="st39" d="M289.9,468c0.9-0.4,1.9-0.9,2.8-1.3c2.7-0.4,4.2-2.1,5.3-4.4c0.8-0.8,1.7-2.1,2.8-1.1
		c1.7,1.5,1.2,12.3-0.6,14.1c-0.6,0.6-1.3-0.1-1.9-0.4c-0.5-0.9-1.1-1.8-1.6-2.7C295.3,469.5,290.8,471.7,289.9,468z"/>
	<path class="st40" d="M414.3,537.8c8-5.6,16-1.7,24,0.1c-2.4,3.1-5.8-0.2-8.4,1.3c-4.9-1.4-9.5,0.5-14.3,1.2
		C415,539.7,414.5,538.9,414.3,537.8z"/>
	<path class="st41" d="M278.4,514.3c2.3,0,4.5,0,7.3,0c-1.7,2.2-4.6,0.5-5.7,2.7c-10.8,0-21.7,0-33,0c1.3-4.2,4.1-2.9,6.4-2.8
		c1.1,1.7,2.9,1.4,4.5,1.3C264.7,514.7,271.7,516.8,278.4,514.3z"/>
	<path class="st42" d="M586.7,472.2c2.5-0.2,2,1.2,1.3,2.6c-2.5,11.1-0.8,22.3-0.4,33.4c0.1,1.6,0.2,3.2,0.3,4.7
		c-1.9-1.3-2.5-3.4-2.5-5.5c-0.2-10.3-0.4-20.5-0.3-30.8C585,475.2,586.1,473.7,586.7,472.2z"/>
	<path class="st43" d="M343.2,509.1c2.7,0.4,4.9,1.8,4.7,4.7c-0.1,2.7-2.3,4-4.8,3.9c-2.5-0.1-4.4-1.6-4.4-4.3
		C338.8,510.8,340.4,509.3,343.2,509.1z"/>
	<path class="st44" d="M604.8,472.1c0.1-0.4,0.1-0.8,0.2-1.1c4.5-0.4,8.3-3,12.5-4.3c0.8,1,2,1.6,2.7,2.7c-0.1,0.4-0.3,0.8-0.4,1.2
		c-2.2,0.3-5.4,0.3-6.1,2.1c-1.1,2.7,2.9,2.8,4.1,4.6c1,1.5,2.8,2.4,2.7,4.5c-2.7-2.1-6.1-3.7-8-6.4
		C610.3,472.3,607.8,472.2,604.8,472.1z"/>
	<path class="st45" d="M298.4,474.9c3.7-3.9,3.5-10.9-0.4-12.6c0-2.6,0.3-5.1,3.9-7.1c0,9.1,0,17.7,0,26.8
		C298.9,479.9,299.3,477.1,298.4,474.9z"/>
	<path class="st46" d="M501.2,515.6c0,0.5,0,0.9,0,1.4c-10.6-0.4-21.3,1.1-31.7-2.5c4-0.6,8-1.2,12-1.8c-0.7,2.9,1.1,2.8,3,2.8
		C490.1,515.5,495.7,515.6,501.2,515.6z"/>
	<path class="st47" d="M417,474.7c2.4-6,4.7-12,7.1-18c1.5,0.9,1.7,2.3,1.5,3.9c-1,5.9-3.7,11-6.8,16
		C417.3,476.9,416.5,476.4,417,474.7z"/>
	<path class="st48" d="M151.2,427.4c-5.6-2.7-11.2-2.7-16.8,0c-3.2-0.1-6.6,1.1-9.6-1.8c9.2-1.8,18.5-1.5,27.7-1.1
		c0.6,0.9,2.2,1.2,1.4,2.8C153,427.3,152.1,427.4,151.2,427.4z"/>
	<path class="st49" d="M417,474.7c0.6,0.6,1.2,1.2,1.8,1.8c-2,5.6-3.5,11.5-7.4,16.3c-1.1-0.4-1.7-1.1-1.2-2.3
		C412.2,485.1,413.8,479.6,417,474.7z"/>
	<path class="st50" d="M410.2,490.5c0.4,0.8,0.8,1.6,1.2,2.3c-0.9,5.9-3.3,11.1-7,15.7c-0.4-2.3,2.2-5.1-1.3-6.8
		C407.4,499.2,407.1,493.7,410.2,490.5z"/>
	<path class="st51" d="M532.3,517.2c-3.2-1.7-7.1-0.6-10.1-3c5.2-0.9,10.3-1.8,15.5-2.6c-1,2.4-3.8,2.1-7.3,4
		c6.9,0.1,12.1,1.4,17-1.3c-1,4.3-4.4,2.9-7.1,3C537.7,517.4,535,517.2,532.3,517.2z"/>
	<path class="st52" d="M521,476.3c1.2,0.1,2.8-0.2,2.7-1.5c-0.4-5.6,2-11.6-1.7-16.9c0.1-1.2,0.4-2.4,1.9-2.2
		c2.3,0.4,1.7,2.3,1.6,3.8c-0.3,7-0.6,14,0.8,21c-2.1,1.7-3.1-0.1-4.1-1.4C521.8,478.2,521.4,477.3,521,476.3z"/>
	<path class="st53" d="M413,571.6c1.4-0.4,2.6-0.7,1.2-2.6c-1.1-1.3-2.9-2.3-2.5-4.5c4,3.7,7.9,7.4,13.9,7.1c0.9,0.9,0.9,1.8,0,2.7
		C421.1,574.8,416.6,575.3,413,571.6z"/>
	<path class="st54" d="M634.3,515.5c4.1,0,8.3,0.3,12.4,0c4.4-0.3-1-1.9,0.2-2.7c3.2,0.5,6.5,1.1,9.7,1.6c-0.1,0.7-0.2,1.4-0.3,2.2
		C648.9,517,641.6,519,634.3,515.5z"/>
	<path class="st55" d="M98,515.6c-1.5-0.3-3.4,0.6-4.3-1.5c2.8-1.8,5.7-3.7,8.5-5.5c2,1.4,2.7-1.6,4.4-1.3
		C105.2,511.6,101.5,513.5,98,515.6z"/>
	<path class="st56" d="M329,571.4c-1.7,2.5-4.1,3.2-7,3c-3.2-2.9-8.6,0.3-11.4-4l0-0.4l0.4-0.1c5.5,0.1,11,0.2,16.5,0.2
		C328.9,569.5,329,570.3,329,571.4z"/>
	<path class="st57" d="M425.7,460.6c-0.5-1.3-1-2.6-1.5-3.9c1.7-2.6,0.9-6.5,4.2-8.3c3-0.4,1.1,1.9,1.6,2.9
		C429,454.6,428.2,458,425.7,460.6z"/>
	<path class="st58" d="M350.3,553.1c-0.1-4.6-1.6-9.3,1.1-13.7c0.1,12.8,0.1,12.8,15.3,12.6c0,0.4,0,0.8,0,1.3
		C361.2,553.2,355.8,553.1,350.3,553.1z"/>
	<path class="st59" d="M389.1,570.2c-0.5,0-0.9,0-1.4,0c0.1-9.8,0.2-19.5,0.3-29.3C390.5,550.5,388.6,560.4,389.1,570.2L389.1,570.2
		z"/>
	<path class="st60" d="M310.6,570.4c3.7,1.7,8.8-0.8,11.4,4c-4.8,0.1-10,1.5-13.9-2.8C308.9,571.2,309.7,570.8,310.6,570.4z"/>
	<path class="st61" d="M61.6,435.8c-1.4-2.2-2.8-0.6-4.3,0c1-3.9,3.8-6.3,6.9-8.6c1.4-0.6,2.8-1.1,2.8,1.3
		C65.2,431,63.4,433.4,61.6,435.8z"/>
	<path class="st58" d="M351.4,539.4c-3.4-4.8-6.7-4.6-10,0.1c-1.9-0.5-3.1-1.5-1.7-3.4c1.2-1.6,12.9-1.4,13.8,0.2
		C354.7,538.4,353.2,539.1,351.4,539.4z"/>
	<path class="st62" d="M306.6,545c-1.3-6.1-2.9,1.7-4.3-0.1c0.8-3.9,4.3-5,7.1-7c1.7-0.5,3.5-1.8,4.1,1.3
		C311.2,541.1,308.9,543.1,306.6,545z"/>
	<path class="st63" d="M306.6,517.1c-1.3-2-3.6-1.1-5.4-2.7c2.4,0,4.8,0,7.2,0c4.8,2.7,10,0.9,15,1.2
		C318.1,519.4,312.2,516.3,306.6,517.1z"/>
	<path class="st64" d="M330.5,536.9c3-0.1,3.2,1.6,2.7,3.9c-0.3,1.7-1.2,2.8-2.9,3.2c-1.9-1.5-3.8-3-5.7-4.5
		C325.1,535.5,328.8,538.4,330.5,536.9z"/>
	<path class="st65" d="M442.5,424.7c-3.1,1.9-6.7,0.2-9.9,1.2c-0.3,0.8-0.5,1.6-1.6,1.7c-2.1-0.1-4.5,0.5-7.4-2.3
		C430.6,423.6,436.5,423.9,442.5,424.7z"/>
	<path class="st66" d="M330.5,536.9c-1.5,1.9-4.6,0.3-5.9,2.7c-2.7-0.1-5.5-0.2-8.2-0.4c0.1-3.8,3.9-2.4,5.6-3.9
		C324.8,535.8,327.6,536.3,330.5,536.9z"/>
	<path class="st67" d="M509.6,427.3c3.9-5.6,9.4-1.4,14.1-2.5c-0.6,3.7-4.2,0.7-5.7,2.5C515.3,427.3,512.4,427.3,509.6,427.3z"/>
	<path class="st68" d="M302.4,545c-1.7,6.1-2.8,12.3-1.6,18.7C297.2,557.1,297.7,550.9,302.4,545z"/>
	<path class="st69" d="M321.9,535.3c-1.9,1.3-3.7,2.6-5.6,3.9c-1,0-2,0-2.9,0c-1-1.5-2.8-0.8-4.1-1.3
		C313.1,535.1,317.4,534.4,321.9,535.3z"/>
	<path class="st70" d="M289.9,468c1.8,2.3,5.9,0.7,6.9,4.2c-4.7-0.9-9.4-1.8-14-2.8C284.8,467.2,287.4,468.2,289.9,468z"/>
	<path class="st71" d="M431,570c2.1-2.3,4.5-4.1,8-5.2c0.3,4.2-2.3,5.5-5,6.8C433.3,570.7,431.6,571.4,431,570z"/>
	<path class="st72" d="M69.8,424.5c4.1-2.2,8.4-1.6,12.8-1.3c0.8,0.5,0.8,1,0,1.6c-4.4,0-8.5,1.4-12.6,2.8
		C69.1,426.5,69.9,425.5,69.8,424.5z"/>
	<path class="st73" d="M106.3,434.4c-0.8-4.7-3.6-7.5-8.3-8.5C106.4,425.2,106.4,425.2,106.3,434.4z"/>
	<path class="st74" d="M82.6,424.7c0-0.5,0-1,0-1.6c4-0.6,8-0.5,11.7,1.2c0,1.2-1.9,0.4-1.8,1.7c0.1,0.4,0.1,0.8,0,1.1
		C89.2,426.4,85.9,425.5,82.6,424.7z"/>
	<path class="st34" d="M446.6,427.4c-0.9-0.9-1.9-1.8-2.8-2.7c3.6-0.6,7.2-1,11.4,0.9C452.3,428.4,449.3,427.3,446.6,427.4z"/>
	<path class="st75" d="M306.5,564.6c-4.9-5.8-3.1-12-1.2-18.2C305.6,552.5,304.4,558.6,306.5,564.6z"/>
	<path class="st76" d="M541.7,438.7c2.1-0.6,2.6,5.7,5.6,1.3c1.6,1.4,3.5,3.2,1.6,5c-1.6,1.6-3.3-0.4-4.6-1.7
		C543.2,442,541.6,440.8,541.7,438.7z"/>
	<path class="st77" d="M343,568.8c-0.1,2.2,0.2,4.1,3,4.2c2.4,0.1,3.9-0.7,4.3-3.2c1,1.2,3,2.8,1.2,3.9c-2.5,1.5-6,1.3-8.6,0
		C340.6,572.6,340.9,570.4,343,568.8z"/>
	<path class="st78" d="M514,468.1c1.3,2,4.7,1.2,5.4,3.9c-4.3-0.8-8.5-1.7-12.8-2.5C508.8,467.1,511.5,468.3,514,468.1z"/>
	<path class="st79" d="M430,451.3c-1.7-0.3,0.4-2.8-1.6-2.9c-0.4-3.3,1.3-5.9,2.7-8.6c0.6,1.9-0.5,4.2,1.4,5.7
		C431.6,447.5,430.8,449.4,430,451.3z"/>
	<path class="st80" d="M68.4,511.7c0.3,0.6,0.5,1.2,0.8,1.8c0.4,0.9,2.4,0.1,2,1.7c-0.1,0.3-1.7,0.3-2.6,0.4
		c-2.1-1.3-4.7-1.7-6.2-3.9c0.7-0.7,1.5-1.5,2.2-2.2C65.9,510.2,67.2,510.9,68.4,511.7z"/>
	<path class="st81" d="M154,427.2c-0.5-0.9-0.9-1.9-1.4-2.8c3.2,0.1,6.6-1,10.4,1.5C159.6,428.3,156.7,427.4,154,427.2z"/>
	<path class="st82" d="M431,570c1.2,0.2,2.4,0.4,3,1.6c-2.6,1.6-5.1,3.5-8.5,2.7c0-0.9,0-1.8,0-2.7C427.4,571.1,429.2,570.6,431,570
		z"/>
	<path class="st79" d="M430.9,427.6c0.5-0.6,1-1.2,1.6-1.7c2.2,5,3,9.8-1.5,14.1C430.9,435.8,435.4,431.7,430.9,427.6z"/>
	<path class="st83" d="M330.3,544c0.6-1.4,1.5-2.6,2.9-3.2c1.8,1.6,2.4,4.1,0.9,5.5C332.4,547.8,330.9,546,330.3,544z"/>
	<path class="st46" d="M509.7,514.1c-2.2,2.3-5,1.3-7.6,1.3c-1.6-1.5-4.6-1.1-5.2-3.9C501.1,512.5,505.2,514.3,509.7,514.1z"/>
	<path class="st84" d="M414.3,537.8c1.7,0.3,2.2,1.1,1.3,2.7c-1.3,1.4-2.7,2.9-4,4.3c-0.1-1.3-0.5-2.4-1.8-3
		C411.3,540.5,412.8,539.2,414.3,537.8z"/>
	<path class="st85" d="M320.9,441.1c2.2,0.5,2.4-1.1,2.7-2.6c1.6,1.9,4,4.4,1.6,6.2C323.3,446.1,321.4,443.4,320.9,441.1z"/>
	<path class="st86" d="M291.3,424.8c3.3,0,6.5,0,9.8,0.1c0,3.3-3.2,1-4.2,2.5c-1.9,0-3.8,0-5.7,0
		C290.4,426.4,290.4,425.6,291.3,424.8z"/>
	<path class="st87" d="M327.7,504.5c-1.3-0.6-1.4-1.8-1.6-3c0.7-1.7,1.8-3,3.7-3.6C330.7,500.6,329.1,502.5,327.7,504.5z"/>
	<path class="st21" d="M518.1,427.3c1.3-2.1,4.2-0.6,5.6-2.5c1.9,0,3.9,0.1,5.8,0.1c-1.1,0.8-2.1,1.6-3.2,2.5
		C523.6,427.4,520.9,427.3,518.1,427.3z"/>
	<path class="st88" d="M296.9,427.3c1.4-0.8,2.8-1.6,4.2-2.5c1.9,0,3.9,0.1,5.8,0.1c-1.4,0.9-3.4,1.4-3,3.7
		C301.6,428.2,299.2,427.7,296.9,427.3z"/>
	<path class="st89" d="M291.3,424.8c0,0.8,0,1.7-0.1,2.5c-1.9,0-3.7,0-5.6,0C285.6,422.1,289.5,425.8,291.3,424.8z"/>
	<path class="st90" d="M69.8,424.5c1.7,0.9,0.4,2,0.2,3c-1,0.4-2,0.7-3,1.1c-0.9-0.4-1.9-0.9-2.8-1.3
		C65.6,425.4,67.4,424.3,69.8,424.5z"/>
	<path class="st11" d="M429.9,539.3c2.5-2.3,5.6-1,8.4-1.3c0.3,0.3,0.4,0.7,0.3,1.2c-0.2,0.5-0.5,1-0.9,1.3c-0.9,0.7-1.5,1.6-2.6,2
		C433.3,541.4,431.6,540.4,429.9,539.3z"/>
	<path class="st91" d="M438.6,539.1c0.7,2.3,2.4,4.9-0.5,6.6c-1.1,0.7-2.5-0.6-2.5-2.4c0.8-1.1,1.1-2.5,2.1-3.5
		C438,539.6,438.3,539.4,438.6,539.1z"/>
	<path class="st92" d="M329,571.4c-0.5-0.4-1-0.8-1.5-1.2c1.3-1.6,2.2-3.9,5.3-3.5C333,569.6,331,570.5,329,571.4z"/>
	<path class="st44" d="M602.2,476.1c-1.1-1.1-2.2-2.1-3.4-3.2c1.6-1.2,3.2-0.9,4.7-0.6c0.4,1.4,0.8,2.8,1.2,4.2
		C603.9,476.4,603,476.2,602.2,476.1z"/>
	<path class="st93" d="M78.5,518.3c3.7-2.1,7.4-2.1,11.1,0C85.8,519,82.1,519,78.5,518.3z"/>
	<path class="st79" d="M435.4,438.5c0.7-2.8,1.2-5.8,4.6-6.8C438.5,434.1,438.2,437.1,435.4,438.5z"/>
	<path class="st94" d="M397.4,574.3c-0.3-1.8-0.6-3.7-1-5.5C397.5,570.5,402.6,571.5,397.4,574.3z"/>
	<path class="st95" d="M437.7,539.8c0.2,1.7-0.3,3-2.1,3.5c-0.1-0.4-0.3-0.7-0.6-0.9C434.3,539.9,434.4,538.2,437.7,539.8z"/>
	<path class="st96" d="M522.2,479.2c1.4,0.5,2.8,0.9,4.1,1.4c0,1.2-0.3,2.4-1.8,2.2C522.8,482.4,522.1,481,522.2,479.2z"/>
	<path class="st97" d="M366.4,570.1c-0.3,1.4-0.5,2.8-0.8,4.2c-1.1-0.1-2.4,0-2.4-1.5C363.3,570.9,364.8,570.4,366.4,570.1z"/>
	<path class="st59" d="M396.6,539.9c-0.3-2.1-1.5-3.3-3.6-3.6c1.7-1,3.5-1.5,4.8,0.2C399,538,397.4,538.9,396.6,539.9z"/>
	<path class="st73" d="M92.5,426.1c-1-2.2,1.1-1.2,1.8-1.7c1.5,0,3-0.1,3.8,1.6C96.2,426,94.4,426,92.5,426.1z"/>
	<path class="st63" d="M309.4,514.1c0-0.4,0-0.8,0.1-1.2c1.9-0.5,3.8-0.9,5.6-1.4C313.8,513.7,311.7,514.2,309.4,514.1z"/>
	<path class="st58" d="M343.1,561.6c0.3,0.1,0.7,0.2,1.1,0.3c2.2,2.3,2.2,4.5-0.1,6.7c-0.4,0-0.8-0.1-1.2-0.1
		C342.9,566.2,343,563.9,343.1,561.6z"/>
	<path class="st98" d="M620.2,469.4c-1.1-0.7-4,0.5-2.7-2.7c14.8-11.2,14.8-27,0-36.5c-1.9-1.2-4.5-1.1-5.9-3.7
		c4.2-2.7,7.8,0.5,11.5,1c15.1,7.3,20,18.6,13.3,31C632.8,465,626.6,467.4,620.2,469.4z"/>
	<path class="st99" d="M623,427.4c-3.2-0.4-6.3-0.9-10-1.4c1.8,1.6,3.1,2.9,4.5,4.2c-5.2-1.1-10.4-2.2-14.8-5.6
		C609.5,425.1,616.8,422.5,623,427.4z"/>
	<path class="st81" d="M588,427.4c-5.1-2.6-10.2-2.9-15.3-0.1c-2.7,0.2-5.4,0.9-7.9-0.8c-0.1-2.2,1.4-2.3,2.7-2.3
		c6.9-0.1,13.8-0.1,20.6,0c1.1,0,3.2-0.4,2.7,1.9C590.6,427.3,589.3,427.6,588,427.4z"/>
	<path class="st100" d="M389.1,570.1c3.1-9.2,0.9-18.7,1.3-28c0.1-1.6-1.9-3.9,1.5-4.1c3.4-0.2,2.5,2.3,2.5,4.3
		c-0.1,8.6-0.1,17.1-0.2,25.7c0,1.3,1.1,2.9-0.6,3.7C391.9,572.5,390.1,572.4,389.1,570.1L389.1,570.1z"/>
	<path class="st101" d="M368,556.3c0-1-0.1-2-0.1-3c1.4-3.9,0.7-7.8,0.5-11.8c-0.1-1.8-0.9-3.9,2.1-4.1c2.7-0.2,3.4,1.2,3.4,3.9
		c-0.2,9.3-0.1,18.6,0,27.9c0,2-0.2,3.1-2.4,3.3c-2.7,0.2-4-0.8-3.2-3.7c1.1-3.8,0.9-7.6,0.1-11.5C368.4,557,368.3,556.6,368,556.3z
		"/>
	<path class="st11" d="M368.4,557.4c1.2,3.8,1.3,7.6-0.1,11.5C368.3,565.1,368.3,561.2,368.4,557.4z"/>
	<path class="st95" d="M344.1,568.6c0-2.2,0.1-4.5,0.1-6.7c0.1-6.5,0.2-12.9,0.4-19.4c0-1.7-0.9-4.3,1.8-4.4c3.4-0.1,2,2.8,2.1,4.7
		c0.3,3.6-1,7.4,0.9,10.9c-1.6,4.7-0.9,9.6-0.9,14.5c0,1.6,0.7,3.5-1.8,3.7C344.5,572,344.3,570.3,344.1,568.6z"/>
</g>
</svg>
