<?xml version="1.0" encoding="utf-8"?>
<!-- Generator: Adobe Illustrator 21.1.0, SVG Export Plug-In . SVG Version: 6.00 Build 0)  -->
<svg version="1.1" id="Layer_1" xmlns="http://www.w3.org/2000/svg" xmlns:xlink="http://www.w3.org/1999/xlink" x="0px" y="0px"
	 viewBox="0 0 900 596" style="enable-background:new 0 0 900 596;" xml:space="preserve">
<style type="text/css">
	.st0{fill:#FFFFFF;}
	.st1{fill:#0E0D0E;}
	.st2{fill:#141415;}
	.st3{fill:#131313;}
	.st4{fill:#121213;}
	.st5{fill:#0D0D0E;}
	.st6{fill:#111111;}
	.st7{fill:#101010;}
	.st8{fill:#141314;}
	.st9{fill:#181718;}
	.st10{fill:#262627;}
	.st11{fill:#FCFCFD;}
</style>
<g>
	<path class="st0" d="M2,358c0-42,0.2-84-0.2-126c-0.1-6.9,1.4-8.2,8.2-8.2c195.3,0.2,390.7,0.2,586,0.2c3.4,3.9,2.8,8.7,2.8,13.3
		c0.1,28,0.1,56,0,84c0,7.1,0.5,14,2.9,20.7c7,19.4,29.9,29.1,48.5,20.1c5.5-2.6,10.9-5.9,12.1-13c-4.3-1.3-6,1.8-8.2,3.5
		c-19.6,14.9-45.5,5.1-48.1-19.3c-2.4-22.8-1-45.9-0.5-68.9c0.1-5.5,3.3-8.4,8.8-8.9c2.7-0.2,5.4-0.1,7.9-0.8
		c1.3-0.3,2.7-0.8,2.9-2.4c0.2-2.3-1.7-2.5-3.2-3c-0.6-0.2-1.3-0.2-2-0.3c-15.5-2.8-18.8-9.7-12-25c23.3,0,46.7,0,70,0
		c2.2,7.5,0.6,15.2,0.7,22.8c0.2,23.6,0.1,47.3,0.1,70.9c0,7.7,0.8,15.3,3,22.7c7.2,24.3,37.3,33.3,56.6,17.1c1.5-1.3,3.1-2.6,4-4.4
		c0.7-1.5,1.7-3.1,0-4.5c-1.2-0.9-2.5-0.3-3.7,0.4c-2,1.2-3.6,2.9-5.5,4.3c-16.9,12.7-39.5,5.4-45.9-14.8
		c-1.9-6.1-2.2-12.4-2.2-18.8c0-17-0.2-33.9,0.1-50.9c0.2-11.1,1.6-12.4,12.5-13.6c1.7-0.2,3.3-0.1,4.9-0.6c1.3-0.4,2.5-0.9,2.6-2.5
		c0.1-1.7-1.2-2.2-2.5-2.6c-0.9-0.3-2-0.4-2.9-0.6c-15.4-2.7-18.7-9.6-11.9-24.9c68.8,0,137.6,0.1,206.4-0.1c5.9,0,7.8,1,7.8,7.5
		c-0.4,41.5-0.2,83.1-0.2,124.6c-5.7,1.7-9.6-1.9-13.3-5.1c-10.5-9.2-17.1-21-17-34.9c0.3-40.7-33.8-72-82.4-67.4
		c-2.3,0.2-5,0.2-5.4,3.3c-0.3,2.6,2.1,3,3.9,3.8c7.3,2.9,3.7,5.5-0.4,7.5c-10.3,5-19.9,10.5-26.7,20.3
		c-12.4,17.8-13.7,36.7-4.9,55.8c9.1,19.9,26.1,29.8,47.5,31.7c21.9,1.9,45.7-14.1,53.4-34.9c0.5-1.2,0.7-2.6,1.2-3.8
		c1.1-3,1.3-7.7,5-7.8c4-0.1,4,4.7,4.9,7.6c4.2,13.6,14,22.3,25.3,29.8c3,2,6.6,3.2,9,6.1c1.5,6.8-1.1,8.2-8,8.2
		c-294.7-0.2-589.4-0.2-884,0c-6.9,0-9.5-1.4-8-8.2c1.5-1.5,3.3-2.2,5.4-2.3c21.2-1.7,34.4-14.6,43.9-32.1
		c6.5-12,12.3-24.4,18.5-36.6c7-14,16.8-24.7,32.7-28.7c2.7-0.7,7-1.1,5.5-5.3c-1.1-3.1-4.7-1.7-7.1-1.1
		c-16.5,3.7-27.5,14.4-35.3,28.7c-8.6,15.8-15.2,32.7-25.2,47.7C31.4,351.8,19.5,360.7,2,358z"/>
	<path class="st1" d="M902,368c-21.7-6.1-33.5-21.3-38.9-42.2c-12.8,33.5-34,50-61.2,47.6c-27.1-2.4-48.8-21.5-53.6-47.1
		c-5.4-29.1,8.7-51.8,42.9-68.1c-3.5-0.2-6.5,0.3-9.1-0.6c-3.8-1.4-1.5-5.1-1.9-7.8c-0.5-3.2,1.8-3.7,4.4-3.7
		c14.3,0.1,28.6-0.9,42.5,3.8c26.8,9,46.3,34.3,46.8,62c0.4,20.6,9.1,35.5,28.1,44.1C902,360,902,364,902,368z"/>
	<path class="st2" d="M688,224c0.1,2,0.4,4,0.4,6c0.2,15.4,0.2,15.6,16,16.1c4.6,0.1,6.4,1.2,6.5,6.1c0.1,5.1-1.9,5.8-6.4,6
		c-16.1,0.4-16.1,0.6-16.1,17c0,16.6,0.1,33.3,0,49.9c-0.1,13.4,3.9,24.6,17.1,29.8c12.5,5,23.7,1.6,31.9-9.2
		c4.2-5.5,7.1-0.9,9.9,0.6c4.6,2.5,0.4,5-1,7c-8.7,12.2-25.9,18.1-40.9,14.1c-14.2-3.7-26.7-16.3-27.4-30.9
		c-2-37.2-1.3-74.5-0.3-111.7c0-0.3,0.3-0.6,0.4-0.9C681.3,224,684.7,224,688,224z"/>
	<path class="st3" d="M608,224c0.1,1.7,0.1,3.3,0.2,5c0.2,16.3,0.2,16.6,16,17.1c4.8,0.1,6.1,1.5,6.2,6.3c0.2,5.3-2.2,5.7-6.5,5.8
		c-15.7,0.4-15.7,0.5-15.7,16.4c0,17.3,0,34.7,0,52c0,14.3,6,24.9,17.2,28.7c12.2,4.2,23.2,1.6,31.1-9c3.9-5.3,7-1.8,10,0
		c5.1,3,0.6,5.7-1,7.9c-9.4,12.5-27.1,17.7-42.1,12.8c-16.4-5.4-26.8-19.4-26.9-37.9c-0.3-33.3-0.1-66.6-0.1-100
		c0-1.7-0.2-3.3-0.2-5C600,224,604,224,608,224z"/>
	<path class="st4" d="M2,358c24.1-1.7,36.6-17.3,45.6-37.6c5.1-11.5,11.1-22.6,17.1-33.7c8.6-16,22.3-25.1,40.1-28.2
		c2.6-0.4,7.3-3.1,7.5,2.9c0.1,3.7,2.2,8.4-5.3,9c-15.6,1.3-26,10.6-33,24.1c-7.9,15.3-15.3,30.9-23.8,45.9
		C39.7,358.9,24,369.2,2,368C2,364.7,2,361.3,2,358z"/>
	<path class="st5" d="M535.2,316.9c-14.7,0-29.3,0.3-44-0.1c-6.7-0.2-7.7,2-6.1,8.2c4.7,18.1,15.9,30.3,33.8,34.4
		c18.6,4.3,34.9-1.3,47-16.8c2.4-3.1,3.8-7,9.1-3.7c3.5,2.2,5.8,3.2,2.9,8c-13.3,21.9-44.4,31.7-69.5,21.7
		c-26.7-10.6-41-38.2-34.5-66.5c6.2-27.1,31.6-45.8,59.8-44c26.9,1.7,50.1,24,52.8,50.1c0.8,7.2-1.1,9.2-8.2,8.9
		C563.9,316.5,549.5,316.8,535.2,316.9z"/>
	<path class="st6" d="M247.4,324.8c0,11.3,0.2,22.7-0.1,34c-0.1,3.9,2.7,9.6-5.6,9.9c-8.4,0.3-5.8-5.4-5.9-9.3c-0.2-23,0-46-0.1-69
		c0-13-6.2-20.4-16.6-20.4c-10.4,0-16.7,7.4-16.8,20.4c-0.1,23.7-0.1,47.3,0,71c0,4.2,0.4,7.6-5.9,7.5c-6.1-0.1-6-3.3-6-7.7
		c0.1-24.7,0-49.3,0-74c0-8.8-4.2-14.9-12.6-16.8c-7.9-1.8-14.3,1.3-18.3,8.7c-2.1,3.8-1.7,7.8-1.7,11.7c-0.1,23.3-0.1,46.6,0,70
		c0,4.7,0.2,8.1-6.5,8.1c-6.8,0-5.4-4.1-5.4-7.9c0-24.3,0.1-48.6,0-73c0-12.1,4.9-21.3,15.7-26.8c10.9-5.6,21.5-4.1,30.6,3.7
		c3.6,3.1,5.1,3.1,8.7,0c8.8-7.6,19.1-9.2,29.8-4.3c11,5.1,16.4,14.3,16.6,26.3C247.6,299.5,247.4,312.2,247.4,324.8z"/>
	<path class="st7" d="M313.5,259.1c31.7-0.1,57.2,24.9,57.6,56.6c0.4,31.6-25.6,58.1-57.3,58.1c-31.7,0-57.8-26.1-57.7-57.8
		C256.3,284.7,281.9,259.3,313.5,259.1z"/>
	<path class="st8" d="M381.8,327.1c0-9.7-0.1-19.3,0-29c0.3-22.4,17-39.6,38.5-40.1c21.6-0.5,40.1,15.8,41,37.8
		c0.9,22.3,0.1,44.6,0.3,66.9c0.1,5.3-2.5,5.7-6.7,5.9c-4.9,0.3-5.3-2.2-5.2-6c0.1-20.6,0.1-41.3,0-61.9
		c-0.1-18.2-11.5-30.7-28.1-30.8c-16.8-0.1-28,11.9-28.1,30.4c-0.1,20.3-0.1,40.6,0,60.9c0,4.6-0.4,7.3-6.2,7.4
		c-6.6,0.1-5.6-3.7-5.6-7.7C381.8,349.8,381.8,338.4,381.8,327.1z"/>
	<path class="st9" d="M133.9,313c0,16.3-0.2,32.6,0.1,48.9c0.1,5.1-1.3,6.8-6.6,6.9c-5.7,0.1-5.5-2.9-5.4-6.8
		c0.1-32.6,0.1-65.2,0-97.8c0-4.5,0.9-6.4,5.9-6.3c4.8,0.1,6.2,1.5,6.1,6.3C133.7,280.4,133.9,296.7,133.9,313z"/>
	<path class="st10" d="M128.1,242.1c-5.7-0.4-8.7-3.4-8.6-8.9c0-5.2,3.2-7.9,8.1-8c4.8,0,8.2,2.4,8.5,7.7
		C136.4,238.5,133.3,241.3,128.1,242.1z"/>
	<path class="st0" d="M805.8,269.9c25,0.1,45.6,20.7,45.6,45.7c0,25.1-21.7,46.5-46.6,46.1c-25.1-0.4-45.1-20.8-45.2-46.1
		C759.6,289.7,779.7,269.8,805.8,269.9z"/>
	<path class="st11" d="M572.9,305.5c-27.3,0-54.6-0.1-81.8,0.1c-4.6,0-5.7-1.2-4.3-5.8c5.4-17.6,25.6-30.9,46.1-29.7
		C552.5,271.1,569.8,286.3,572.9,305.5z"/>
	<path class="st0" d="M313.9,270.9c24.7,0.1,45,20.5,45.2,45.2c0.1,24.9-20.9,46-45.7,45.8c-24.9-0.2-45.6-21.4-45.2-46.4
		C268.5,291,289.2,270.8,313.9,270.9z"/>
</g>
</svg>
