<?xml version="1.0" encoding="utf-8"?>
<!-- Generator: Adobe Illustrator 21.1.0, SVG Export Plug-In . SVG Version: 6.00 Build 0)  -->
<svg version="1.1" id="Layer_1" xmlns="http://www.w3.org/2000/svg" xmlns:xlink="http://www.w3.org/1999/xlink" x="0px" y="0px"
	 viewBox="0 0 700 965" style="enable-background:new 0 0 700 965;" xml:space="preserve">
<style type="text/css">
	.st0{display:none;fill:#FEFEFE;}
	.st1{fill:#552C24;}
	.st2{fill:#49251F;}
	.st3{fill:#BE8D39;}
	.st4{fill:#BC9041;}
	.st5{fill:#483017;}
	.st6{fill:#C49440;}
	.st7{fill:#C28F3C;}
	.st8{fill:#552922;}
	.st9{fill:#4A2721;}
	.st10{fill:#5A2C1D;}
	.st11{fill:#643121;}
	.st12{fill:#5C2E21;}
	.st13{fill:#632D1F;}
	.st14{fill:#62311E;}
	.st15{fill:#603021;}
	.st16{fill:#582C1E;}
	.st17{fill:#5E2E20;}
	.st18{fill:#623021;}
	.st19{fill:#62321E;}
	.st20{fill:#62321D;}
	.st21{fill:#935B2A;}
	.st22{fill:#5C2F21;}
	.st23{fill:#693621;}
	.st24{fill:#9B6A40;}
	.st25{fill:#582A1F;}
	.st26{fill:#5A291D;}
	.st27{fill:#C18F41;}
	.st28{fill:#BE8D41;}
	.st29{fill:#BF8C3E;}
	.st30{fill:#BD8C3C;}
	.st31{fill:#AA7B3F;}
	.st32{fill:#B38446;}
	.st33{fill:#A57B3F;}
</style>
<g>
	<path class="st0" d="M-0.6,717.1c0-154.6,0-309.2-0.1-463.7c0-2.4,0.5-3,3-3c231.5,0.1,463,0.1,694.5,0c2.4,0,3,0.5,3,3
		c-0.1,153.6-0.1,307.2,0,460.8c0,2.4-0.5,3-3,3C464.3,717.1,231.8,717.1-0.6,717.1z"/>
	<path class="st1" d="M443.3,314.5c17.6-0.9,34.4,4,51.2,7.7c39.9,8.9,78.6,21.3,114.7,40.9c9,4.9,18,9.7,25.6,16.8
		c23.2,15.4,41.3,35.4,51.2,61.5c9.6,25.5,7,50.8-6.2,74.8c-18.5,33.6-47.5,56.1-80.2,74.4c-18.7,10.5-38.8,17.9-58.7,25.5
		c-32.6,10.8-66.1,17.6-100.1,22.6c-30.1,4.4-60.3,6.1-90.5,6.9c-26.8,0.8-53.5-1.4-80.3-3.8c-35.6-3.2-70.5-9.5-105-18.7
		c-4.7-1.2-9.3-2.8-14-4.2c-13.1-5.7-27.1-9.3-40-15.5c-24.1-11.6-46.5-25.8-66.2-43.9c-5.9-5.5-11-11.9-15.8-18.4
		c-1.2-1.6-2.4-3.3-1.8-5.5c3-2.5,4.3,0.5,6,1.9c1.9,1.5,2.6,4.2,5.6,5.1c1.4-2.7-3.2-5.4,0-7.9c2.3-0.2,3.9,1.2,5.2,2.7
		c21.3,25.1,49.1,41.1,78.3,54.9c16,7.6,32.3,14.5,49.5,19.3c34.2,10,68.9,16.5,104.3,20.5c30.8,3.5,61.8,4.2,92.6,2.7
		c61-3.1,121-12.6,178.1-35.5c31.2-12.5,60.9-28.2,86.5-50.1c22-18.7,39.3-40.9,43.1-71.1c2.5-20.2-4.4-37.5-15.5-53.4
		c-24-34.2-59.2-53.1-96.7-68.4c-10.3-4.2-20.6-8.6-31.4-11.4c-21.5-6.5-43.4-11.4-65.7-14.7c-4.1-0.6-8.7-0.3-11.8-4.1
		c2.2-5.2,7.9-0.8,11.5-4.2c-5.6-2.8-11.4-2.5-16.8-3.9C447.5,317.2,444.1,318.4,443.3,314.5z"/>
	<path class="st2" d="M443.3,314.5c7.5,1.4,15.1,2.8,22.6,4.3c1.8,0.3,4.6-0.4,4.4,2.7c-0.2,3.1-3,4.3-5.5,4
		c-3.3-0.5-6.5-0.6-9.7-0.3c-7.4,4.3-15,0.8-22.2-0.1c-32.3-4.1-64.7-5.3-97.1-3.9c-78,3.3-153.4,18.5-223.7,53.9
		c-21.2,10.6-41,23.7-57.8,40.4c-19.8,19.6-33.5,42.6-32,72.1c0.7,13.8,5.3,26.2,12.6,37.8c1.8,2.9,4.6,5.6,3.6,9.6
		c-0.2,1.9,0.8,3.3,2,4.6c1.4,1.4,3.2,3,1,5c-2.6,2.3-4.7,0.7-6.3-1.4c-2.3-3-3.9-6.5-7.7-7.9c-3.9,0.1-5-3.1-6.5-5.6
		c-19.2-32-18-64.1,0.8-95.7c15.8-26.6,38.9-45.7,65.5-61c55.5-31.9,115.5-50,178.6-59.3c28.7-4.2,57.5-6.2,86.3-6.3
		c24.4-0.1,48.9,1.2,73.2,4.1C431,314.2,437.7,311.9,443.3,314.5z"/>
	<path class="st3" d="M425.4,311.2c-16.7-0.6-33.4-0.7-50-2c-20-1.6-40,0-59.9,1c-31.3,1.6-62.3,6.5-93,13.3
		c-50.3,11.1-98.1,28.7-142,55.9c-27,16.7-50,37.6-63,67.1c-13.7,31.1-10.7,61.1,10,88.7c7.4,13.2,18.2,23.4,29.8,32.8
		c26.4,21.4,56.3,36.3,88,47.8c2.1,0.7,4.5,0.9,5.6,3.3c-38.7-10.9-76.1-25-107.5-50.6C20.9,550,8,524.5,1.8,495.8
		c-7.2-33.4,8.5-59,27.8-83.6c18.2-23.2,42.9-38,68.1-51.9c12.1-6.7,24.5-12.5,37.3-17.9c15.3-6.4,30.3-13.3,46.1-18.2
		c15.9-4.9,32.2-6.9,48.4-9.8c33.1-5.9,66.6-7.4,100.1-8.8c21.3-0.9,42.5,0.8,63.7,2.3c8.3,0.6,16.6,1.2,24.9,1.8
		C420.7,309.8,423.4,309,425.4,311.2z"/>
	<path class="st4" d="M540.9,616.1c9.5-6.4,20.9-8.6,31.1-13.4c28.3-13.4,55.4-28.8,77.9-50.7c20-19.5,35.9-41.7,39.1-71
		c2.8-25.3-5.6-46.8-20.2-66.6c-9.7-13.1-21.7-23.9-34-34.6c9.4,2.4,15.5,9.7,22.4,15.5c17.4,14.9,31,32.8,38.8,54.6
		c1.2,3.3,1.8,6.7,2.6,10.1c-0.6,11.4,0.1,22.8-2.6,34.1c-1.3,5.6-5.2,10.4-4.7,16.4c-7,18.1-19.5,32.2-33.8,44.7
		c-33.2,28.8-72.5,46.6-113.8,60.2C542.9,616,541.9,616,540.9,616.1z"/>
	<path class="st5" d="M691.5,510.8c-1.9-1.5-1.8-3.5-0.9-5.5c5.8-13.1,7-27,6.7-41.1c0-1.5-0.1-3,1.5-3.9
		C701.5,477.8,700.1,494.8,691.5,510.8z"/>
	<path class="st6" d="M533.2,343.1c19.5,4.9,37.7,13.1,55.7,21.7c28,13.4,52.6,30.9,71.7,55.9c23.9,31.3,23.6,65,3.3,96.7
		c-17.2,27-42.5,44.9-69.6,60.8c-34,19.9-70.7,33-108.6,42.5c-33.4,8.3-67.6,12.4-102,14.9c-54.9,4-109.4,0.6-163.2-9.9
		c-16.7-3.3-33.8-6.2-49.7-13c-1.7-7.8-7.9-9.6-14.4-11.2c-7.9-1.9-9.7-5.1-8.5-14.4c0.7-5.8,4.5-8.4,10.9-9.2
		c5.7-0.7,9.8,0.6,14.2,4.6c6.4,5.8,8.1,5.3,13.9-0.2c0.4-0.6,0.9-1.2,1.3-1.7c2-2.8,4-6.3,6.9-0.8c1.6,4.5,4.1,1.8,6.4,0.8
		c5.5-2.4,10.5-1.6,14.7,2.9c1.8,7.5,6.8,11.2,13.9,10.2c5.4-2.5,4.4-8.1,5.7-12.5c0.6-2.1,0.3-5.1,3.1-5.5c3.4-0.5,3.8,2.7,4.8,4.9
		c1.7,4.2,2.7,8.7,4.4,13c0.7,1.7,1.8,3.2,3.9,3.1c1.8-0.1,2.5-1.5,3-3c0.4-1.2,0.7-2.4,0.9-3.7c0.8-5.9,2.9-11.6,3.5-18.7
		c-4.3,3.3-3.7,7.4-5,10.7c-0.7,1.8-1.1,4.4-3.4,4.5c-2.8,0.2-3.5-2.4-4.2-4.6c-1-3.1-2.1-6.2-3-9.4c-1.2-4.5-3.7-7.1-8.5-6.9
		c-8.1-0.9-13.1-7-18.8-11.7c-2.3-1.9-4.1-5.3-2.8-8.2c2.8-6.1,0.5-12-0.6-17.7c-1.2-6.8-1.2-13.2,2.8-18.8c3.8-5.3-2.7-6-3.3-9.3
		c-0.6-2-0.5-4,0.5-5.9c6.1-11,8.8-23.1,11.7-35.1c3.7-15.6,13.7-26.2,27.4-33.6c2.9-1.6,6.8-2.7,9,0.5c2.3,3.2-0.2,6.3-2.7,8.6
		c-5.6,5.2-10.4,11.1-15.4,16.8c-4.9,5.4-7.2,13.4-4.5,16.5c4.3,5.1,10.5,4.9,16.2,3.6c5.3-1.2,10.6-3.1,14.9-7
		c5.7-5.1,8.8-4.3,11.6,2.5c2.1,5,5.8,6.8,10.9,5.8c6.3-1.2,11.7-4.6,17.5-7.2c7.4-3.5,11.7-10.7,18.2-15.1c0.7-0.7,1.4-1.4,2-2.2
		c1.5-4,6.4-5.2,7.7-9.4c1.2-1.8,3.1-2.9,4.3-4.5c1.8-2.8,3.8-5.3,5.8-7.9c1-1.2,2.1-2.3,3.8-1.5c2,1,1.9,2.8,1.3,4.6
		c-0.9,2.7-2.8,4.7-4.4,7c-4.3,6-7.9,12.5-8.9,19.7c-0.7,5.3-0.7,11.8,4.7,15c5.4,3.2,11.5,2.6,17.2-0.7c0.6-0.4,1.3-0.6,2-0.8
		c5.8-1.8,11.1-4.8,15.8-8.6c7.3-5.9,14.7-11.5,22.1-17.2c1.5-1.2,3-3.2,5.2-1.2c2,1.8,1,3.6-0.2,5.4c-5.7,8.4-12.5,15.9-19.1,23.6
		c-8.2,9.6-15.7,19.8-23.4,29.8c-3.2,4.1-6.4,9.5-2.1,15.3c3.8,5.1,11,7.6,17.7,5.7c7.2-2,13.1-6.5,18.9-10.9
		c9.2-6.9,15.9-16.4,20.1-26.8c4-9.9,6.7-20.5,7.7-31.3c0.3-2.8,0.7-4.7,3.8-5.6c11.5-3.4,21.8-9.1,31.2-16.7c1.4-1.1,2.7-2.3,4.4-3
		c1.2-0.5,2.4-1,3.5,0.1c1.1,1.1,0.5,2.4-0.1,3.5c-2.3,4.7-6,8.1-9.8,11.5c-6,5.3-10.4,11.7-12.8,19.4c-2.4,7.8,3.9,15.1,13,13.6
		c11.5-1.9,21.5-7.5,29.2-16.2c8.2-9.2,13-20.8,20.9-30.3c2.9-3.4,5.7-6.5,10.7-6.1c1.5,0.1,3.2,0.3,3.9,1.8
		c0.8,1.6-0.4,2.9-1.6,3.9c-6.9,6.2-11.9,13.7-16.9,21.4c-9.5,14.7-7.5,19.7,7.6,22.9c3,0.6,6.1,2.2,8.9,1.2c11.6-4.4,23.5-1.5,35-1
		c12.1,0.5,23.9-0.8,35.8-1.1c4.6-0.1,8.9-1.6,13.4-2.4c2.7-0.5,3.1-2.6-0.3-3.4c-6.2,0-12.4-0.5-18.6,0.5c-1.1,0.2-2.3,0.2-3.4-0.2
		c-2.3-1.5-3.4-3.1-0.5-5.1c1.5-1,3.2-1.5,4.5-2.7c2.7-2.7,3.2-5.7,1-8.8c-2.3-3.2-5.4-3.3-8.7-1.6c-3.5,1.8-4.2,4.6-2.9,8.2
		c1,2.7,4.4,4.5,2.9,8c-7.6,4.1-15.8,3-23.8,2.7c-2.1-0.1-4.2-0.8-4.9-3c-0.7-2.3,1.7-2.7,2.9-3.8c11.9-10.5,22.8-22,29.4-36.7
		c2.9-6.5,0.2-9.6-7-10.4c-13.8-1.5-23,5.8-30.4,16c-6.4,8.9-11.7,18.3-12.4,29.7c-0.3,4.9-4,8.2-8.4,8.6c-4.9,0.5-10.1-1-14-4.5
		c-1.6-1.5-1.1-3.7-0.5-5.7c1.6-4.9,3.8-9.7,7.8-12.9c7.3-5.9,11.1-14.3,17.1-21.2c3-3.4,0.7-8.1-3.9-7.9c-7.1,0.4-13.3,0.8-18-6.4
		c-2.1-3.4-5-0.1-6.5,2.2c-3.8,5.9-5.5,12.9-9.3,18.9c-8.4,13.2-15.1,27.7-30.2,35.2c-3.5,1.7-6.7,2.6-9.9-0.1
		c-3.7-3.3-3.5-6.7-0.4-10.6c6.3-7.9,14.6-14,20.6-22.3c1.5-2,3.3-3.8,4.6-6c1.6-2.7,4.7-5.3,1.5-8.7c-3-3.2-6.5-4.6-10.9-2.7
		c-9.4,4-18.1,9.2-26.2,15.3c-3.1,2.3-6.3,4.3-10.3,4.3c-1.2-0.2-2-0.9-2.5-2c-1-3.2,0.9-5.1,2.8-7.4c10.2-12.3,21.1-23.9,32-35.5
		c3.5-3.8,6-8.1,8.1-12.8c0.7-1.7,1.2-3.5-0.4-5c-1.4-1.4-3.3-1.4-5-0.7c-4.3,1.7-8.1,4.2-11.6,7.2c-12.3,10.6-24.5,21.3-36.4,32.4
		c-2.3,2.1-4.3,3.5-7.9,3.2c-8.6-0.7-15.4,6.2-15.5,14.9c0,2.2,0.7,4.5-1.6,6.2c-12,8.9-22.6,19.7-36.3,26.1
		c-5.1,2.4-10.6,5.5-16.3,1c-1.1-5.2,0.3-10,2-14.8c2.8-6.5,6.3-12.6,10.8-18.2c5.9-12.2,16.4-17.1,29.2-17.8
		c4.9-0.2,9.3-1.9,14-2.9c3.2-0.7,4.2-3.4,4.2-6.4c0-2.8-2.1-3.8-4.4-4.4c-3.9-1.1-8-1.2-11.9-2.1c-5.9-1.3-7.4-4.3-5.3-9.9
		c2-5.2,4.4-10.2,6.2-15.4c0.3-1.2,2.2-3.3-0.6-3.1c-7.2,0.4-13.1,3.5-19.7,7.2c-11.7,6.5-8.5,17.1-11.7,25.9
		c-4.2,4.8-8.4,9.5-12.5,14.4c-4.6,5.2-9.2,10.3-14.2,15.2c-3.6,2.6-8.1,3.5-11.3,7c-2.4,2.6-3.3,5.4-3.6,8.7c-0.4,1-1,1.9-1.7,2.8
		c-1.8,1.7-3.2,4-6.1,4c-0.2-0.1-0.6-0.3-0.6-0.4c-0.3-6.5-0.2-13.1-5-18.4c0.8-5.8,5.9-8.5,8.9-12.8c1.7-2.4,6.1-4.7,2.5-8.1
		c-3.1-2.9-6-0.1-8.5,2.2c-1.1,1-2.2,2.1-3.5,2.8c-1.9,0.9-6.6-1.1-4.5,4.2c-0.8,2.5-1.9,4.7-5,4.7c-1.3-0.5-2.3-2.8-3.6-1.5
		c-1.5,1.5,1,2.9,1.1,4.5c0,2.7-0.5,5.1-3.1,6.5c-3.4,1.3-4.3-2.4-6.6-3.5c-3.4,3.4,2.5,3.3,2,5.6c-0.8,3.9-3,6.7-6.6,8.2
		c-1.8,0-3.2-1.6-4.9-1.2c-6.9,1.3-7.8-2.1-6.1-7.7c1.2-3.8,2.6-7.5,4.9-10.7c1.1-1.7,1.2-3.9,2.2-5.7c1.2-2.1,4.8-3,3.6-6.1
		c-1.4-3.5-4-6.4-7.4-8.4c-8-4.8-8.6-13.2-1.4-19.4c2.5-2.2,5-2,7.5,0c2.2,1.7,4,4.7,6.9,4.2c3.1-0.6,2.3-4.7,4.2-6.8
		c1.3-1.5,2.5-3.2,3.9-4.6c2.7-2.6,1.9-4.9-0.4-7.2c-2.8-2.7-3.8,0-5.2,1.7c-2.8,3.6-5.2,2.1-7.3-0.7c-2.1-2.9-3.8-5.1-8.5-4.7
		c-4.9,0.5-5-4.1-3.1-7c3.9-6.1,1-8.4-4.3-10.7c-5.3-2.3-8.1-14-4.5-18.4c3.2-4,7.9-3.3,11.9-1.7c3.9,1.5,3.5,5,1.9,8.4
		c-0.7,1.3-1.7,2.6-1.3,4.9c6.2-2.2,11.5-0.8,16.3,3.7c2,1.9,5.3,2.5,7.8,0.8c2.5-1.6,0.7-4.2,0.5-6.3c-0.3-3.1,1.1-6,1.6-8.9
		c0.7-3.5,2.8-4.5,6.2-3c6.5,2.9,13.3,4.9,20.2,6.9c-2.9-7.5-0.4-10.8,7.7-9.3c3.4,0.6,5.2-0.2,6.8-3.1c3.4-6.1,8.5-6.7,14.2-3.5
		c4.2,2.4,7.8,2.5,11.7-0.9c3.5-3,7.9-2.8,12.1-0.5c10,5.4,10,5.4,13.9,11.3c5.5-7.7,12.9-9.3,21.5-6.4c1.5,0.5,3-0.1,4.5-0.3
		c8.5-1.2,14.1,3.3,15,11.9c0.2,1.8,0,3.6,0.5,5.3c0.6,2.1,1.7,3.8,4,4.1c2.2,0.2,2.9-1.7,3.6-3.3c1.9-4.6,4.7-8.4,9.2-10.8
		c2.8-1.5,5.9-1.9,6.9,1.6c1.6,5.8,6.9,7.6,10.1,11.5c1.4-0.7,0.9-1.5,0.5-2c-1.8-3-5.1-5.6-2.8-9.5c2.6-4.4,7-3.1,11-3
		c9.5,0.2,18,4.7,27.2,6.1c0.2,0,0.4,0.2,0.7,0.3c5.6,1,5.9,10.9,12.7,8.5c5.1-1.8,9.9-3.6,15.3-3.6
		C530.3,342.6,531.9,342.1,533.2,343.1z"/>
	<path class="st7" d="M189,582c-7,9.5-11.8,9.6-19.7,0c-4.6-5.6-10.2-1.5-15.1-1.5c-3.7,0-5.1,5.3-4.7,9.9c0.5,5.5,1.8,9.7,8.5,9.7
		c2.8,0,5.4,1.1,7.9,2.5c4.3,2.2,6.6,5.1,4.9,10.1c-16.4-3.4-31.4-10.6-46.6-17.4c-27.3-12.2-52.8-27.4-74.4-48.3
		c-4-3.8-7.6-8.1-11.3-12.1c-6-9.6-12.3-19.1-15.5-30.3c-8-27.3-0.5-51.5,15.4-73.7c18.3-25.6,43.9-42.5,71.2-56.7
		c54.8-28.5,113.5-43.6,174.6-50.9c34.8-4.2,69.7-5.3,104.6-3.9c18.7,0.7,37.3,2.2,55.8,5.4c3.5,0.6,7.1,0.3,10.6,0.4
		c12.8,4,26.3,4.5,39.4,7.5c13,3.1,26.2,5.5,38.7,10.5c-6.9,1.8-14.7,0.6-20.4,6.6c-2.1,2.2-3.6,0.3-4.6-1.7
		c-3.2-6.4-8.3-8.3-15.4-10.1c-8-2-15.9-3.6-23.9-4.9c-2.7-0.4-4.5,0.1-5.9,2.2c-1.4,2.2,0.3,3.8,1.4,5.4c0.7,1,1.8,1.8,2.6,2.8
		c1.3,1.5,3.2,3.2,1.1,5.1c-1.7,1.6-4.6,1.1-5.4-0.7c-2.2-5.2-10.1-5.5-9.9-12.6c0.1-1.8-1.7-2.6-4-1.4c-4.7,2.6-7.5,6.6-9.6,11.3
		c-0.8,1.8,0.9,6-3.8,4.8c-3.3-0.9-6.5-2-7.1-5.8c-0.4-2.2-0.1-4.6-0.2-6.8c-0.4-7.4-6.6-11.7-13.5-9.3c-1.9,0.7-3.4,1.2-5.6,0.1
		c-6.7-3.3-12.8-2.2-17.2,4.3c-1,1.5-1.9,3.2-4,3c-2.5-0.3-2.2-2.4-2.3-4.1c-0.1-3.1-2.1-4.1-4.7-5c-2.3-0.8-5.1-0.9-6.8-3.1
		c-3.5-4.5-7.3-3.4-10.1,0.2c-3.8,4.8-7.5,4.6-12.3,1.6c-6.1-3.8-11.3-4.5-13.7,4.5c-0.8,2.8-4.1,4.2-6.9,2.3c-3-2-5.4-2.9-7.8,0.3
		c-3.2,4.3,2.1,3.2,3.2,4.8c0.8,1.2,1.2,2.3,0.3,3.4c-1,1.3-2.7,1.9-4.1,1.1c-6.6-4.2-15-3.6-21.3-8.4c-1.6-1.2-3.9-0.5-3.3,0.7
		c2.2,4.5-5.3,8.7-0.1,13.3c1.7,1.5-0.2,4.7-1.6,5.2c-3.7,1.4-8.5,1.7-11.3-1c-4.7-4.4-8.5-7.6-14.6-2.3c-1.6,1.4-3.6,0-3.4-2.3
		c0.1-1.7,0.8-3.4,1.5-5c1-2.4,4.5-4.4,1.7-7.3c-2.8-2.9-6.9-1.5-10-0.9c-3.7,0.7-1,4.6-1.6,6.9c-1.8,7.1,0.8,9.7,7.5,11.7
		c3.9,1.1,9.1,5.2,2.3,10.4c-1.7,1.3-2.3,3.6-1.2,5.5c1.2,2.1,3,1.2,4.5,0.1c2.5-1.9,3.7,0.1,4.9,1.6c1.7,2.2,3.1,4.5,4.7,6.8
		c3.8-1.5,3.4-5.8,6.4-7.9c1.8,1.7,3.7,3.3,5.4,5.1c2.7,2.9,4.2,5.2-0.5,8.4c-3.3,2.2-6.2,5.6-6.3,10.6c-0.1,3.7-2.5,4.8-5.6,1.9
		c-0.4-0.3-0.7-0.7-1.1-1c-9.7-7.2-9.5-7.1-14.7,4.2c-1.6,3.5-0.7,6,2.4,6.5c5.4,0.8,7.1,5.7,10.7,8.4c4.2,3.1,1.5,8.1,0.5,8.2
		c-5.3,0.7-3.1,5.5-5.2,7.8c-3.1-2.2-3-6.2-5.1-9.1c-2.4-3.3-5.2-4.8-9.1-3.2c-2.8,1.1-5.9,1.6-8.7,2.7c-4.9,1.9-9.6,5.4-12.1-3.2
		c-0.7-2.5-4.4-1.8-6.9-1.4c-9.6,1.4-18.7,4.5-27.8,7.5c-5.8,1.9-10.8,2.1-16.4-1.6c-9.5-6.4-20.9-8.9-31.5-13
		c-11.7-4.6-13-11.3-3.3-19.3c10.1-8.3,21.7-13.6,35-14.4c1.8-0.1,3.5,0,5.2,0.5c7.6,2.2,8.1,3.8,3,10c-1,1.1-2.6,2.1-1.7,3.8
		c1,2,3,1.4,4.7,0.9c6.4-1.8,10.2-7,9.5-12.9c-0.7-5.9-4.7-9.1-11.8-9.3c-23.9-0.8-43.5,7.7-57.7,27.4c-4.6,6.4-4.4,9.3,1.9,14.1
		c8.8,6.8,19.7,9.1,29.6,13.5c2.6,1.2,7.1,0.7,7,4.5c0,4.5-4.6,4.7-8,5.5c-19.3,4.5-37.7,11.7-55.7,19.9c-7.9,3.6-8.7,11-1.2,15.7
		c8.6,5.5,18.1,9.1,28.8,6.4c4.4-1.2,8.9-1.7,13.4-2.5c13.2-2.5,22.3-11.7,32.5-18.9c5-3.6,9.2-8.8,10.4-15.5c0.7-4.3,2.5-7,7.7-7.7
		c4-0.5,7.9-3.1,12.2-3.8c1.8-0.3,3.6-0.8,4.8,1.1c1,1.7,0.5,3.4-0.4,5c-1.2,2-2.6,3.8-4.2,5.4c-12.2,12.3-21.9,26.6-33.6,39.3
		c-7.3,7.9-12,17.5-17.1,26.9c-2.3,4.3-3,9.4,0.3,12.9c3.4,3.7,8.4,4.9,13.9,3.5c10.3-2.5,17.1-10.3,25.2-16.1
		c2.5-1.8,4.2-4.3,7.7-3.2c1.6,1.1,3.2,2.3,4.9,3.3c2.5,1.5,3.1,3.3,0.9,5.4c-5.9,5.7-5.2,12.1-4.4,19.7c0.5,5.4,6.5,11.7,0,17.7
		c-1.7,1.6,0.9,5.9,2.9,7.1c5.7,3.6,9.7,10.2,17.3,10.8c2.1,2.9,0.7,5.8,0.1,8.7c-1.7,7.6-3.4,15.2-4.5,23c-2.7,0.4-5.4,0.7-8.1,1.1
		c0.2-5.9-11.7-4.8-7.5-13c3.5-0.9,2.6,4.2,6.1,3.9c0.2-7.7-0.5-15.4-2-23c-0.9-4.8-3.6-5.1-7-2.1c-4.3,3.9-7.6,8.9-11.6,13.1
		c-1.9,2-3,5.5-6.8,4.7C192.2,578.1,192.2,578.1,189,582c-2.1-3.9-6.7-4.9-9.5-8.1c-0.4-2.8-3.2-5.9,1.1-8c3-1.1,5.8,1.1,9,0.7
		c-1.6-2.6-4.5-2.1-6.6-3.2c-2.4-1.2-4.5-2.7-3.9-5.7c0.6-3.2,3.2-4.3,6.2-4.5c3.1-0.2,5.8,1.6,10.1,1.4c-6.3-3.7-12-5.7-17.6-2.3
		c-5.9,3.6-7.4,10-7.3,16.5c0,4.3,3.3,6.5,6.9,8.1C181.3,578.6,185.8,578.9,189,582z"/>
	<path class="st8" d="M329.3,451.3c-3.6,4.1-9,6.2-11.5,11.4c-1.3,2.8-5,1.9-6.9,3.9c-2.6-3.2,0-4.9,1.9-6.9
		c3.2-3.3,5.3-6.8,2.7-11.4c0.5-0.7,1-1.3,1.5-2c4.1-6.3,10.1-10.9,15.3-16.3c4.1-5.3,8.5-10.4,13.7-14.6c2.9,6,5.7,6.3,9.4,0.4
		c1.2-2,3.5-3.5,5-5.5c1.2-1.7,3-3.2,5.1-1.5c1.9,1.5,1.3,3.6,0.4,5.5c-0.3,0.7-0.7,1.4-1.2,1.9c-4.1,4.4-5.2,9.6-3.8,15.4
		c-3.8,5.5-7.7,10.9-10.3,17.2c-1.7-1-1.5-3.1-3.4-5.6c1.3,7.6-7,13.8,0.4,20.3c12.3,1.7,20.9-6,29.7-12.5c4.2-3.1,8.6-6.1,12.6-9.5
		c4.5-3.9,9.5-6.5,9.5-14.5c-0.1-9.8,8.6-15.1,18.8-13.4c2.8,0.5,2.8-1.5,3.9-2.5c15.2-13.4,29.4-28,46.4-39.3
		c3.6-2.4,7.3-4.2,10.9-0.7c3.5,3.4,0.5,6.6-1.2,9.5c-8.7,14.6-21.5,25.8-32.6,38.4c-3.8,4.3-8.3,8.2-10.2,14
		c-0.8,2.4-2.3,3.4-4.5,1.7c-4.1-3.3-4.5-10.5-0.8-15.3c-6.6,2.3-3.5,6.6-1.9,10.3c1.6,3.8,2.9,8.8,8.9,4.8
		c10.6-4.1,18.9-11.9,28.6-17.4c9.8-5.5,14.6-5.9,21.5,0.6c2.3,2.2,2.6,4.2,0.7,6.6c-7.4,9.2-13.8,19.2-23.5,26.5
		c-2.6,1.9-3.7,5.6-6.6,7.8c-1.8,1.4-0.9,4.2,0.9,6.1c2.1,2.2,4.5,2.2,7,1c10.8-5.2,18.2-14,24.3-24.1c3.6-5.9,6.3-12.3,10.8-17.7
		c3.6-4.4,1.6-11,6.4-15.3c3.4-3.1,8.6-4.1,9.8,0.2c2.3,8.3,8.5,7,13.2,5.6c5.7-1.7,7.2,1.5,9.4,4.8c2.9,4.3-0.9,5.9-3.5,7.6
		c-4.1,2.6-3.7,7.7-7,11.2c-5.9,6.2-13,11.7-16.2,20.3c-1.7,4.7-0.9,6.7,4,6.9c2,0.1,3.7,0.2,5.7,1.3c4.1,2.2,10.3-2.5,10-7.4
		c-0.5-9.1,4.2-16.4,8-24c3.3-6.5,9.1-10.8,13.3-16.5c3.6-4.8,10.5-5.2,16.1-6.5c2.6-0.6,5.8,0,8.8,0c6.8-0.1,9.8,6.7,7.5,13
		c-3,8.2-8,15.3-13.4,21.3c-6.1,6.6-11.6,14.6-21.4,18.7c10.2,3.2,19.5,0.9,28.9,0.3c1.1,0.2,2.1,0.6,3.1,1.2c1,0,1.9,0,2.9,0
		c7-2,14.4,0.7,21.4-1.5c2.7,0,4.9,0.9,3.9,3.9c-0.9,2.6-2.9,4.6-6.2,4.8c-7,0.4-14.1,2.2-20.7,2.2c-8.4,0-17.1,3.9-25.3-0.5
		c-2.3-1.2-3.9,0.2-5.7,0.7c-3.5,1-6.7,1.4-10.1-0.8c-5.7-3.6-11.4,0.1-16.7,1.3c-7.8,1.7-15.1-0.3-21.7-2.7
		c-9.1-3.3-10.7-11.4-3.8-20.8c6.7-9.2,11.4-20,22.2-26.5c-9.1-1.5-9.6-0.2-14.3,6.2c-3.8,5.2-6.7,11-10.9,16
		c-2.9,3.4-4.9,7.7-7.8,11.5c-8.3,10.9-19.9,15.1-32.1,18.4c-5.8,1.6-17.7-6.5-16.2-10.3c2.1-5.3,2.7-11.1,6.1-16.1
		c5.7-8.4,15-13.6,20.4-24c-7.4,4.4-12.9,9.6-19.4,13.3c-6,3.4-12.1,6.2-18.8,8c-1.4,0.4-3.6-0.2-3,2.1c2.1,8.5-2,16.5-3.8,24
		c-1.8,7.7-6,16.1-11.4,23.5c-3.8,5.1-8.7,8.9-12.5,13.8c-3,3.9-7.7,7.2-12.4,8.9c-6.2,2.3-12.7,5.4-20,2
		c-10.8-5-13.5-14.1-6.2-23.3c14.2-17.8,28.6-35.5,43-53.2c0.9-1.1,3.1-1.8,1.5-3.5c-1.9-2-2.3,0.7-3.2,1.5
		c-8.1,6.7-16.5,13-24.9,19.2c-3.8,2.8-8.3,9-15.2,6.1c-0.4-3.1,1.9-4.4,3.8-6.1c-4.6,0-5.9,2.1-4.1,6.3c-3.7,3.9-13.9,6.1-18,3.8
		c-5.6-3.1-9-12.5-7-19.8c2.4-8.6,6.7-16.2,12.1-23.3c1.3-1.7,3.4-3.2,1.5-6.2c-2.8,3.6-5.5,7-8.1,10.4c-5.1-5.4-7,0.3-10.2,2.6
		c2.1,1.8,4.2-0.8,5.9,0.7c0.6,5.9-6.8,6-7.8,10.7c-1.1-0.4-2-1.3-3.3-1.7C327.5,449.8,329,450.2,329.3,451.3z"/>
	<path class="st9" d="M315.5,448.2c6.1,5.1,2.2,9.6-1.6,13.2c-1.7,1.7-3.2,2.7-3,5.2c-6.8,5.2-14.7,8.3-23,8.9
		c-3.8,0.3-7.5-2.6-8.6-7.1c-0.5-1.8,1-5-1.4-5.2c-2.7-0.2-5.4,0.7-7.9,3.3c-5.9,6.2-20.3,10.1-28.8,6.3c-7.7-3.5-9-11.6-2.2-20
		c5.4-6.6,11.4-12.8,17.4-18.8c2.2-2.2,5-4.6,3.2-7.3c-0.6-1-5.3-0.9-8.5,1.1c-16.1,9.9-23.8,24.3-27.2,42.7
		c-1.5,8.2-3.1,17.4-9.5,24.3c-1,1.1-0.8,3.4-1.1,5.1c-3.7,1.3-5.6,6.4-7.6,7c-8.4,2.6-12.5,11.8-21.5,12.7
		c-3.6,0.3-6.1,4.1-10.6,2.3c-12.3-4.9-14.3-12.6-7.1-24.8c14-23.8,33.5-43.2,50.9-64.3c1.1-1.4,2.4-2.6,3.2-4.1
		c0.6-1.2-0.8-3.3-1.4-2.5c-3.1,3.5-7.5,2.2-11.1,3.2c-7.6,2-9.1,7-11.4,13.3c-3.1,8.5-11.2,13.4-18.5,17.9c-4.9,3-8.3,8-14.6,9.2
		c-6.2,1.3-12.1,3.9-18.6,4.9c-6.2,1-12.2,1.9-18.3,0.7c-7.3-1.4-14.4-3.9-19.8-9.3c-5.2-5.2-3.6-12.6,3.1-15.7
		c17.3-7.9,35.2-14.2,53.2-20.2c4.1-1.4,9.2,0,13.2-4.6c-8.6-2.4-16.1-6.3-24-8.9c-6.9-2.2-12.7-5.9-17.6-10.8
		c-2.9-2.9-2.9-6.9-0.5-10.5c8.8-13.2,20.4-22.9,35.7-27.6c9.5-3,19.2-4.2,29.2-3.2c7,0.7,10.2,5.4,10.6,10.9
		c0.4,5.1,0,11.4-7.3,13.2c-1.6,0.4-2.9,2-4.5,2.6c-3.3,1.1-6.1-0.2-8-2.8c-1.5-2.2,0.3-3.7,1.9-5c2.1-1.6,6.7-2.7,4.9-5.3
		c-1.5-2.1-6.5-3-9.7-2.6c-6.9,1-13.5,2.6-20.2,5.6c-7.4,3.3-12.5,8-17.7,13.1c-2.7,2.6-4.5,5.5,1.4,8.4
		c10.6,5.2,23.2,6.6,32.5,13.7c13,9.8,23.9,1,35.4-1.8c5.1-1.2,10.4-2,15.5-3c6.4-1.2,8.3,3,6.9,10.4c5.8-6.2,12.5-6,18.2-8.5
		c6.3-2.8,8.8,3,11.7,6.9c1.8,2.4,1.8,5.2,2,8c-3,2.8-4.5,6.4-5,10.4c-6,4.8-16.2,18.1-17.5,23.4c10.9-2.4,18.3-9.8,26.6-15.5
		c2-2.6,4-5.2,6.1-7.7c0.8-2.4,3.3-1.8,5-2.8c1-2,2-4.1,3.1-6.1c0.2-1.7,1.1-2.6,2.8-2.8c2.5-0.9,2.7-3.6,4.3-5.2
		c0.8-2.3,2.9-3.1,4.7-4.3c1.1-1.3,2.2-2.7,3.4-4c3.3-3.4,7.1-5.4,11.2-1.6c4.4,4.1-0.5,6.1-2.1,9.2c-2.6,4.8-9.3,6.5-9.5,12.9
		c-5.6,6.1-9.6,13.4-13.9,20.3c-0.9,1.5-1.2,3.4,0.2,5c1.2,1.4,2.8,0.8,4.2,0.4c5.2-1.3,9.2-5.1,14.1-7.1
		C312.4,451.2,314,449.7,315.5,448.2z"/>
	<path class="st9" d="M360.9,431.4c-3.7-4.2-3.8-8.5-0.2-12.8c1.6-1.9,3.1-3.9,4.4-6.1c0.4-0.7,0.3-2-0.2-2.7
		c-0.7-1.1-2.3-0.5-2.4,0.3c-0.6,5-6.6,5.7-8,10.1c-0.7,2.3-2,4.2-4.9,3.5c-2.3-0.6-2.9-2.4-2.9-4.6c0-1.2-0.4-2.5-0.7-3.7
		c3.7-5,6.4-10.8,12.2-13.9c5.2-11.2,13.9-19.7,22-28.7c3.3-3.7,7.6-7.3,12.8-2c-0.6,5.7-3,10.9-5.4,15.9c-2.6,5.4-1.7,8.4,4.2,8.2
		c4.5-0.2,8.4,1.4,12.6,2c3.3,0.4,6.3,2.4,5,6c-1.2,3.3,0.3,8.5-5.9,9.2c-9.2,1-18.5,1.9-27.3,4.3
		C368.9,418.3,364.8,425.1,360.9,431.4z"/>
	<path class="st10" d="M230.6,595.7c-2.2-2.3-1.6-4.9-1-7.7c1.9-8,3.6-16,5.4-24c5.7-1,9,1.3,10.3,7.1c1.1,5,3,9.9,4.8,15.4
		c3.5-4.6,2.8-9.4,4.3-13.6c1-2.9,2-5.4,5.7-4.2c3.2,1,1.9,3.6,1.4,5.7c-1.3,5.9-2.4,11.9-4.1,17.6c-0.8,2.8,0.2,7.5-4.6,7.5
		c-4.3,0.1-6.5-2.6-7.4-7.1c-1.1-5.4-3.2-10.5-5.3-16.9c-3,5.1-2.7,9.9-4,14.2C235.2,592.7,234.9,596.1,230.6,595.7z"/>
	<path class="st11" d="M557.7,558.3c0.3,2.7-1.2,5.4-4.1,6.8c-5.5,2.5-11.3,4.5-16.9,6.8c-2.2,0.9-3.3,0.2-4.2-1.8
		c-1-2.3,0.5-3.3,2.2-4c3.5-1.4,7.1-2.6,10.6-4c2.1-0.9,4.7-2.2,3.7-4.9c-1-3.1-3.8-2.6-6.4-1.8c-3.1,0.9-6.3,2-9.5,2.5
		c-4.3,0.7-7.4-1.2-8.7-5.5c-1.2-4.1-1.2-8.2,2.9-10.8c5.2-3.3,11.2-4.7,16.9-6.6c1.4-0.5,3.1-0.5,3.8,1.3c0.8,2.1-0.4,3.4-2.2,4.1
		c-2.8,1.1-5.7,2-8.6,3.1c-2.4,0.9-5.2,1.9-4.2,5.2c1.2,3.5,3.9,2.1,6.3,1.4c2.9-0.9,5.8-2.4,8.7-2.4
		C554.3,547.9,557.5,551.5,557.7,558.3z"/>
	<path class="st12" d="M277.7,603.3c-2.1-0.4-6.1-0.9-10-1.8c-1.9-0.4-4.4-0.9-3.8-3.7c0.6-2.8,3.1-2.1,5-2c2.5,0.2,5,1,7.5,1.1
		c2.9,0.2,6.8,1.2,7-3.3c0.2-3.8-3.4-3.6-6.2-3.9c-9.6-1.1-12.8-3.9-12.2-10.9c0.4-4.4,2.7-7.4,6.8-8.1c6.8-1.1,13.5,1.2,20.1,2.5
		c0.7,0.1,1.6,1.4,1.7,2.1c0.1,1.5-1,2.4-2.4,2.3c-3.5-0.2-7.1-0.5-10.6-0.8c-2.9-0.3-6.7-1.8-7.2,2.8c-0.5,4,3.1,3.9,5.9,4.1
		c0.5,0.1,1,0,1.5,0.1c7.7,0.8,12,4.6,11.7,10.3C292.3,600.6,288.1,603.7,277.7,603.3z"/>
	<path class="st13" d="M324.2,575.8c0.5,0,1.1-0.1,1.5,0c2.5,0.8,7.3-1.9,7.2,2.7c-0.1,3.8-4.4,1.9-6.9,2.2c-2.3,0.2-4.8,0-5.7,2.7
		c-0.9,2.4,1.1,3.5,2.7,4.8c2.5,2,2.8,4.2-0.5,5.8c-2.2,1.1-4.6,2.3-2.6,4.9c2.2,2.7,5.6,2.2,8.4,0.9c1.8-0.8,4.6-2.4,2.6-5.1
		c-1.7-2.3-3.3-5.1,0.1-5.9c4.1-1,9-1.9,13,1.1c0.5,0.4,0.6,2,0.3,2.8c-3.4,9.6-16.1,16.1-26.4,13.6c-5.5-1.3-8.3-6.3-6.1-11.6
		c0.8-2,2.3-3.4,1.6-6.2C310.9,577.8,312.8,575.8,324.2,575.8z"/>
	<path class="st14" d="M450.1,583.2c0.5,3.2,1,6.4,1.6,9.5c0.5,2.5-0.5,3.9-2.8,4.4c-2.5,0.5-3.6-0.8-4-3.2
		c-1.4-7.4-3.1-14.8-4.4-22.2c-0.4-2.3-1.1-5.5,2.6-6c3.9-0.5,3.3,2.9,4,5.1c0.7,2.1,1.3,4.2,2.1,6.9c3.5-3.1,4.2-7,6.1-10.1
		c1.3-2.1,1.9-4.8,4.6-5.8c1.7-0.6,3.6-1.5,5-0.3c1.9,1.6-0.2,3.1-0.8,4.6c-0.2,0.5-0.5,0.9-0.8,1.3c-6.3,11-6.3,11,4,19.1
		c1.8,1.4,5.8,2.7,3.5,5.2c-1.6,1.7-5.6,3.6-8.8,0.4c-3.3-3.4-6.9-6.5-10.3-9.8C451.1,582.6,450.6,582.9,450.1,583.2z"/>
	<path class="st15" d="M483.6,588.5c-7.4,0.1-12.4-4.6-14.3-12.7c-2-8.8,0.1-14.1,7-17.1c3.2-1.4,6.7-2.3,10-3.4
		c1.5-0.5,3.1-0.8,3.8,1.1c0.8,2.1-0.3,3.4-2.2,4.1c-3,1.3-6.2,2.3-9,3.8c-2.1,1.1-3.5,3.4-2.2,5.7c1.1,2.1,3.2,0.6,4.8,0.1
		c2.7-0.8,5.3-1.7,8-2.5c2.1-0.7,4.2-0.8,5.1,1.7c1.1,2.8-1,3.4-3.1,4c-2.7,0.8-5.3,1.7-7.9,2.6c-1.8,0.6-4.6,0.3-3.8,3.3
		c0.5,2,2.6,3.2,4.8,3c3-0.4,5.9-1.2,8.9-1.8c1.8-0.4,4.1-1.9,4.8,1.4c0.5,2.6-1.3,3.6-3.3,4.2C490.9,587.2,487.2,588.8,483.6,588.5
		z"/>
	<path class="st16" d="M193.7,580.4c5.8-6.6,11.6-13.1,17.3-19.8c1.8-2.2,3.6-3.3,6.4-2.3c2.8,1,3.6,2.9,3.9,5.7
		c0.5,7,1.4,14,2.1,21c0.2,2.3,2.1,5.4-1.7,6.2c-3.4,0.7-5-1.5-5.2-4.9c-0.1-0.9-0.9-1.6-1.4-2.5c-5.2-2.7-10-5.2-15.5,0.5
		C197.5,586.4,192.1,587,193.7,580.4z"/>
	<path class="st17" d="M412.6,600.1c0.2,1.8-0.2,2.9-1.7,3.2c-1.8,0.4-3.3,0.1-4.9-1.2c-8.6-6.9-11.2-6.7-17.9,2.1
		c-1.7,2.2-3.7,2.9-5.9,1.9c-2.4-1.2-1.2-3.5-0.6-5.4c2.2-7.2,4.6-14.4,6.8-21.6c0.8-2.8,1.8-5.2,5.1-5.8c3.4-0.6,5,1.4,6.5,4
		c3.5,6.4,7.2,12.7,10.8,19.1C411.5,597.7,412.1,599.1,412.6,600.1z"/>
	<path class="st18" d="M429.3,594.3c1.2-0.2,3.7-0.8,6.2-1.2c2.2-0.3,4.1,0.2,4.5,2.8c0.4,2.4-1.6,2.7-3.3,3.3
		c-14.9,5.3-23.5,0.7-25.2-13.6c-1.2-10.6,11.4-21.2,21.7-18c1.3,0.4,2.1,1.3,2.2,2.7c0.2,1.5-0.5,2.4-1.8,2.9
		c-2.9,0.9-5.8,1.9-8.7,2.6c-5,1.2-6.5,4.7-5.4,9.2C420.4,589.5,421.2,594.8,429.3,594.3z"/>
	<path class="st7" d="M310.9,452.8c-2.9,5.2-8.2,7.2-13.3,9c-2.2,0.7-5.4,3.7-7.4,0.3c-1.7-2.9-1.5-7.2,0.4-9.4
		c4.7-5.2,7.4-11.7,11.6-17.1c0.7-0.9,2.7-0.9,4.1-1.3c-0.1,0.7-0.4,2.1-0.3,2.1c9.7,1.7,4.9,8.2,4.2,13.2
		C310,450.8,309.7,451.9,310.9,452.8z"/>
	<path class="st7" d="M393,370.8c-7.2-3.4-10.6,2.2-14.2,6.4c-7,7.9-13.7,16.2-20.5,24.3c0.5-3.5,1.4-7,1.3-10.4
		c-0.3-6.7,0.4-11.3,8.2-14.5c4.6-1.9,7.8-7.6,13.7-9.6c4.2-1.5,8.2-0.8,11.9-0.4C396.9,366.8,396,369.4,393,370.8z"/>
	<path class="st7" d="M277.4,446.7c-6.3,8.9-15.3,13.8-25.3,17.3c-1.1,0.4-4-1.2-3.9-1.3c0.8-3.1,1-7,3-8.9c4.6-4.3,9.9-7.8,12.3-14
		c0.9-2.4,3.2-0.2,4.7-0.9c-0.3,1.8-2.5,3.7-0.5,5.5c1.7,1.6,3.2,0.1,4.6-0.9C276.5,440.6,275.3,446.2,277.4,446.7z"/>
	<path class="st19" d="M516.1,545.8c2.1-0.5,3.6,0.2,4.1,2.3c0.4,1.8-0.8,3.1-2.4,3.2c-7.1,0.7-5.3,5-3.9,9.3
		c1.5,4.6,2.7,9.2,4.2,13.8c0.9,2.7,0.3,4.3-2.5,5.2c-3,0.9-3.4-1.2-4-3.2c-1.2-3.6-2.4-7.2-3.6-10.8c-1.7-4.9-1.7-12-10.5-8.1
		c-1.5,0.7-3-0.6-3.4-2.3c-0.4-1.8,0.9-2.8,2.4-3.3C503.1,549.9,509.6,547.8,516.1,545.8z"/>
	<path class="st20" d="M377.9,586.6c-0.3,3.4-0.4,6.7-1,9.9c-1.4,8.1-12.2,14-19.8,11.1c-1.4-0.5-2-1.4-2-2.8c0-2.2,1.5-2.7,3.4-3.1
		c11.7-2.3,11.7-2.4,11.7-14.1c0-0.3-0.1-0.5,0-0.8c1.4-3.7-3.4-10.9,3.8-10.9C381.1,576,376,583.2,377.9,586.6z"/>
	<path class="st21" d="M583.4,466.4c-1.2,0.2-2.4,0-3.1-1.2c-1.2-1.6-2.6-3.1-3.7-4.7c-3-4.5-3.8-8.9,1.4-12.5
		c4.7-3.3,10.7-2.1,13.2,2.2c2.9,5.1,1,10.4-4.7,13.1C585.2,463.9,581.6,462.5,583.4,466.4z"/>
	<path class="st7" d="M308.4,358.7c-1.3,2.1-1.7,3-2.4,3.7c-4.3,4.7-10.4,3.3-15.7,4.3c-1.8,0.3-3.6-3.2-3.2-5.3
		c0.6-3.7,4.1-5.5,7.2-5.6c3.7-0.1,7,3.7,11.3,1.8C306.3,357.4,307.5,358.3,308.4,358.7z"/>
	<path class="st22" d="M327.9,392.1c9.7-0.3,9.7-0.3,7.2,10.2c-4.4,3.4-8.8,5.7-13.4,0.2c0.3-2.1-0.8-4.4,1.3-6.1
		C324.4,394.6,325.4,392.5,327.9,392.1z"/>
	<path class="st23" d="M499.3,399.7c-3.7,2-0.7,9.9-8.1,9.1c-2.9-0.3-6.6-1.3-5.9-4.3c0.9-4.2,3.1-8.6,8.4-9.2
		C496.5,394.9,498.4,396.6,499.3,399.7z"/>
	<path class="st7" d="M354.7,352.4c2.3,0.3,6.7,0.3,2,5.2c-2.4,2.5,0,4.7-0.1,7c-0.2,3.1-2.1,4.7-4.7,4.9c-2.9,0.2-2.6-2.4-2.8-4.3
		c-0.3-2-0.5-3.9-1-5.9C346.7,354.4,348.6,352.1,354.7,352.4z"/>
	<path class="st7" d="M327.9,392.1c-1.4,1.7-2,4.4-4.9,4.3c-1.4-2-3.7-1-5.5-1.7c-1.1-0.4-2.4-1.2-2.8-2.1c-0.6-1.5,0.9-1.9,2.1-2.4
		c2.6-1,3.8-2.5,1.8-5.1c-1.3-1.7-2.4-3.8-1-5.5c2.3-2.5,3.6,1.3,5.7,1.5c1.1,0.1,2.2,0.9,4.3,1.8C321.2,386.8,321,390,327.9,392.1z
		"/>
	<path class="st9" d="M347.6,463.2c-4.5,1.3-5.4-4.1-5.3-5c0.5-5.8,3.4-11.1,4.1-17c0.2-1.8,3-1.8,3.7,0.6c0.6,2.1,0.4,4.4,0.5,6.7
		C347.7,453.1,349.2,458.5,347.6,463.2z"/>
	<path class="st7" d="M321.7,402.5c4.5,2.5,9,2.7,13.4-0.2c0.1,4.2,3.9,6.8,5,11.8c-3.4-1.2-6.7,0.2-6.1-5.1
		c0.5-3.8-2.7-4.5-4.6-1.9c-2.9,4.2-6,2.5-9.2,1.4c-1.9-0.6-4.2-1.7-3.7-4C317.1,402,319.8,402.7,321.7,402.5z"/>
	<path class="st24" d="M437,434.3c-3.9,5-6.8,4-9-1.5c-1.8-4.4-3.7-8.7-5.9-14c6.2,3.2,7.3-3.4,11.6-5c0.4,3.1-1.4,5-3.1,6.9
		c-3.3,4-2.3,10.7,2.2,13.2c0.5,0.3,1.7-0.7,2.6-1.2C435.9,433.3,436.5,433.8,437,434.3z"/>
	<path class="st7" d="M332.3,429.9c-3.6,6.9-9,12-15.3,16.3c-2.9-8.1,4.3-10.4,8.6-13.7C327,431.4,329.6,429.5,332.3,429.9z"/>
	<path class="st9" d="M338.5,439.1c-1.7,0.9-3.4,2.1-5.3,2.8c-1.4,0.5-3.7,0.3-3.6-1.5c0.4-5.4,5.7-7.3,9.1-9.8c2.7-2,4,2.2,4,5.2
		C342.2,438,340.1,438.2,338.5,439.1z"/>
	<path class="st7" d="M288.4,436.2c-1.7,0.9-3.3,1.8-5,2.8c-4.7,0.1-5.7-2.2-4.2-6.2c0.6-1.6,1.7-3.4,3.6-3.3
		c1.7,0.1,2.1,1.9,2.1,3.5C285.2,435.1,286.4,435.9,288.4,436.2z"/>
	<path class="st7" d="M294.3,427.3c-0.9,0.9-1.9,1.9-2.8,2.8c-1.6-1.2-4.9-1.1-4.1-4.4c0.4-1.7,1.4-3.3,3.6-3.3
		C294.4,422.5,294.1,425.1,294.3,427.3z"/>
	<path class="st9" d="M329.3,451.3c-2.3-0.7-5.3-0.4-5.5-3.9c0-0.6,1.3-1.7,2.1-1.9c3.3-0.6,4.5,1.4,4.8,4.3
		C330.3,450.3,329.8,450.8,329.3,451.3z"/>
	<path class="st21" d="M607.7,464.9c-7,3-14.2,1.1-21.4,1.5C593.3,463.6,600.6,465.4,607.7,464.9z"/>
	<path class="st7" d="M303.3,417.8c-0.7,2.3-2.5,3.6-4.7,4.3c-1.2-1.6-4.2-2.7-2.2-5.3C299,413.4,300.8,418.8,303.3,417.8z"/>
	<path class="st7" d="M331.1,342c-1.4,4.3-1.2,7.5-3.9,9.3c-0.8,0.5-2-0.5-2-1.5C325,346.3,327.6,344.7,331.1,342z"/>
	<path class="st25" d="M179.9,573.1c2.8,3.3,10.6,1.4,9.1,9c0,0,0,0,0,0c-4.5,0.3-8.4-1.8-12.4-3.2c-7.4-2.7-9.3-6.9-7.7-15.6
		c1.7-9.3,6.5-14.4,13.6-14.6c4.7-0.1,8.8,1.9,13.1,3.3c2.1,0.7,2.7,2.2,2,4.1c-0.7,1.9-2.3,1.6-3.8,1.2c-2.7-0.8-5.3-1.7-8-2.2
		c-2.3-0.5-4.9-0.1-5.7,2.5c-1.1,3.2,2.1,3.6,4,4.4c2.3,1,4.8,1.5,7.2,2.2c2.2,0.7,2.7,2.2,1.9,4.1c-0.7,1.9-2.3,1.5-3.8,1.1
		c-3.2-0.9-6.3-1.7-9.5-2.5C175.1,568.7,178.9,570.9,179.9,573.1z"/>
	<path class="st6" d="M201.3,540.4c-0.4,2.7,1.3,7-3.3,7.9c-3.6,0.7-4.9-2.5-6.1-5.5c-1.5-4-4-5.8-8-2.3c-0.9,0.8-2.5,1.5-3.4,1.2
		c-2.8-0.9-6.6-1.5-7.4-4.6c-0.7-2.7,3.1-2.7,4.7-4.1c2.3-2.2,5.3-2.8,8.2-3.8C199.2,524.7,201.3,526.2,201.3,540.4z"/>
	<path class="st26" d="M152.6,568.6c-0.7-0.2-2.2-0.4-3.5-1.1c-3-1.4-8.8-1.3-7.7-5.5c1.4-5.1,5.4-0.3,8.1,0.2
		c5,0.9,7.7-1.3,9.6-5.4c1.9-4.2,3.7-8.3,5.5-12.5c0.8-1.9,1.9-2.9,4.1-2c1.5,0.7,2.9,1.8,2.3,3.4c-2.9,7.8-4.8,16.1-11.7,21.7
		C157.6,568.7,155.5,568.9,152.6,568.6z"/>
	<path class="st6" d="M203.8,515.8c2.9-0.8,5.5-1.4,7.4,1.6c0.2,0.4-0.2,1.7-0.6,1.9C207.4,520.3,205.2,519.2,203.8,515.8z"/>
	<path class="st6" d="M179.9,573.1c-2.9-0.6-4.4-2.6-3.8-5.4c0.5-2.1,2.2-2.6,4-0.9C177.5,568.8,181.9,571,179.9,573.1z"/>
	<path class="st27" d="M414.3,458.7c-0.9,9.2-3.3,17.6-8.6,25.2c-5,7.1-8.4,15.1-15,21.2c-4.2,3.9-9.4,5.8-13.9,8.8
		c-2.2,1.5-4.3,1.1-6.1-0.9c-2.1-2.5-0.8-4.8,0.7-6.8c6-7.9,15.3-13.4,17.8-23.9c9.3,1,6.2-11.1,13.3-12.7c1.1-0.2,2.5-2.2,2.6-3.5
		C405.7,460.8,409.4,459.4,414.3,458.7z"/>
	<path class="st28" d="M544.9,456.1c3.2-12.9,9.6-21.7,17.8-29.1c2.1-1.9,5.4-3.7,7.4-2.3c2.5,1.9,0.4,4.8-1,7.3
		C563.5,441.7,556.6,449.8,544.9,456.1z"/>
	<path class="st9" d="M362.4,470.9c-2.2-1.6-5.8-4.1-3.3-6.1c2.8-2.3,7.4-3.8,11.5-2.8c1.8,0.5,0.5,2.4-1.2,2.9
		c-3,0.9-4.8,3.4-6.7,5.7C362.6,470.6,362.4,470.9,362.4,470.9z"/>
	<path class="st9" d="M352.4,465.1c2.2,0.3,3.8,1.1,3.6,3.3c-0.1,1.3-1.2,2.4-2.6,2.2c-1.7-0.2-3.7-0.6-3.8-2.8
		C349.5,465.9,351.2,465.5,352.4,465.1z"/>
	<path class="st29" d="M216.6,454.2c-3.7,22.9-12,42.4-32.7,54.5c-3.1,1.8-6.8,3.1-9,0.9c-2.4-2.5,0.2-5.4,1.9-8.4
		c3.4-6.2,7.1-12.1,11.8-17.4c6.2-7,12-14.6,18.6-21.2C210.1,459.8,209,452.9,216.6,454.2z"/>
	<path class="st30" d="M117.7,459c13.7-5.7,26.9-10.1,39.9-14.6c7.1-2.4,14.6-4.9,22.2-5.7c1.3-0.1,4.2-1.6,5.1,1.4
		c1,3.3-2,2.6-3.5,3.6c-3.9,2.8-7.3,6.3-11.3,8.7C154,461.9,137.1,467.2,117.7,459z"/>
	<path class="st31" d="M382,405.4c-2.1,0.1-3.6,0.5-5,0.3c-2.7-0.4-5.5,3.4-7.5,0.5c-1.5-2.1,2-2.7,3.2-4.1c3.2-3.5,5.6-1.9,8,0.9
		C380.9,403.4,381.1,403.9,382,405.4z"/>
	<path class="st32" d="M213.9,568.1c1.4,2.9,2.7,5.8-0.4,7.8c-1.2,0.8-3.3,0.4-3.8-1.2C208.3,571.1,212.2,570.4,213.9,568.1z"/>
	<path class="st33" d="M394.7,581c2.2,4.8,5.6,7.1,3.6,10.7c-0.9,1.6-3.6,1.4-4.8,0.2C390.3,588.8,393.6,586.1,394.7,581z"/>
</g>
</svg>
