<?xml version="1.0" encoding="utf-8"?>
<!-- Generator: Adobe Illustrator 21.1.0, SVG Export Plug-In . SVG Version: 6.00 Build 0)  -->
<svg version="1.1" id="Layer_1" xmlns="http://www.w3.org/2000/svg" xmlns:xlink="http://www.w3.org/1999/xlink" x="0px" y="0px"
	 viewBox="0 0 900 596" style="enable-background:new 0 0 900 596;" xml:space="preserve">
<style type="text/css">
	.st0{fill:#FCFCFC;}
	.st1{fill:#020202;}
	.st2{fill:#030303;}
	.st3{fill:#040404;}
	.st4{fill:#010101;}
	.st5{fill:#050505;}
	.st6{fill:#060606;}
	.st7{fill:#585858;}
</style>
<g>
	<path class="st0" d="M451.1,336c-150,0-300,0-450,0c-0.7,0-0.9-0.2-0.9-0.9c0-23.4,0-46.8,0-70.3c0-0.7,0.1-0.8,0.8-0.8
		c300.1,0,600.1,0,900.2,0c0.7,0,0.8,0.1,0.8,0.8c0,23.4,0,46.8,0,70.3c0,0.7-0.2,0.9-0.9,0.9C751.1,336,601.1,336,451.1,336z"/>
	<path class="st1" d="M456.5,297.2c-0.9,0-1.4-0.6-1.4-1.6c0-0.9,0.5-1.5,1.3-1.5c1.1,0,1.8,0.5,1.9,1.5
		C458.3,296.4,457.4,297.2,456.5,297.2z"/>
	<path class="st2" d="M500.5,316.3c0,0.7-0.8,1.5-1.6,1.5c-0.9,0-1.7-0.8-1.6-1.7c0-0.8,0.6-1.3,1.5-1.3
		C499.7,314.8,500.5,315.5,500.5,316.3z"/>
	<path class="st1" d="M720.7,288.3c0.8,0,1.5,0.6,1.5,1.5c0,0.8-0.8,1.6-1.5,1.5c-0.9,0-1.6-0.7-1.6-1.6
		C719.1,288.8,719.7,288.3,720.7,288.3z"/>
	<path class="st2" d="M735.7,306.8c-0.9,0-1.6-0.6-1.6-1.5c0-0.8,0.7-1.5,1.6-1.5c0.8,0,1.5,0.7,1.5,1.5
		C737.2,306.2,736.6,306.8,735.7,306.8z"/>
	<path class="st2" d="M431.3,305.8c-0.8,0-1.6-0.7-1.6-1.5c0-0.7,0.8-1.4,1.6-1.4c0.8,0,1.6,0.7,1.6,1.5
		C432.9,305.1,432.1,305.8,431.3,305.8z"/>
	<path class="st2" d="M503.8,284.1c0.9,0,1.6,0.6,1.5,1.5c0,0.8-0.7,1.5-1.5,1.4c-0.8,0-1.7-0.9-1.6-1.6
		C502.2,284.7,502.9,284.1,503.8,284.1z"/>
	<path class="st1" d="M432.3,300.9c-0.8,0-1.7-0.9-1.7-1.6c0-0.7,1-1.4,1.7-1.4c0.7,0.1,1.7,1,1.7,1.5
		C434,300.1,433,300.9,432.3,300.9z"/>
	<path class="st2" d="M431.6,307.7c0.8,0,1.6,0.7,1.5,1.5c0,0.7-0.8,1.5-1.6,1.5c-0.9,0-1.7-0.8-1.6-1.7
		C430,308.2,430.6,307.7,431.6,307.7z"/>
	<path class="st3" d="M739.5,307.9c0.7,0,1.6,0.9,1.6,1.6c0,0.6-1,1.4-1.7,1.4c-1,0-1.7-0.7-1.7-1.5
		C737.8,308.5,738.6,307.9,739.5,307.9z"/>
	<path class="st1" d="M460.9,297.5c0.7,0,1.7,0.9,1.7,1.5c0,0.6-1,1.5-1.7,1.5c-0.7,0-1.7-0.9-1.7-1.5
		C459.2,298.2,460,297.5,460.9,297.5z"/>
	<path class="st1" d="M498.4,287.6c-0.8,0-1.6-0.7-1.6-1.6c0-0.8,0.7-1.4,1.5-1.4c0.9,0,1.7,0.7,1.7,1.5
		C500,286.8,499.2,287.6,498.4,287.6z"/>
	<path class="st4" d="M718.3,286c0,0.9-0.7,1.4-1.8,1.4c-0.7,0-1.4-0.7-1.4-1.3c0-0.9,0.8-1.6,1.7-1.6
		C717.7,284.5,718.3,285.1,718.3,286z"/>
	<path class="st1" d="M488.9,305.2c0.8,0,1.6,0.6,1.6,1.4c0,0.7-0.8,1.6-1.5,1.6c-0.9,0-1.7-0.8-1.7-1.6
		C487.3,305.7,488,305.2,488.9,305.2z"/>
	<path class="st1" d="M451.3,292.3c0.9,0,1.7,0.7,1.7,1.5c0,0.8-0.9,1.6-1.7,1.5c-0.8,0-1.5-0.8-1.4-1.6
		C449.8,293,450.5,292.3,451.3,292.3z"/>
	<path class="st2" d="M492.2,310.9c0,0.7-0.8,1.5-1.6,1.5c-0.8,0-1.6-0.8-1.6-1.6c0-0.7,0.7-1.4,1.5-1.4
		C491.4,309.4,492.2,310.1,492.2,310.9z"/>
	<path class="st1" d="M743.2,314.8c-0.9,0-1.5-0.6-1.5-1.5c0-0.8,0.7-1.5,1.6-1.5c0.8,0,1.5,0.6,1.5,1.5
		C744.8,314.2,744.2,314.8,743.2,314.8z"/>
	<path class="st2" d="M494.1,312.9c0.7,0,1.5,0.7,1.6,1.4c0,0.7-0.8,1.6-1.5,1.6c-0.9,0-1.6-0.7-1.7-1.5
		C492.4,313.5,493.1,312.9,494.1,312.9z"/>
	<path class="st1" d="M434.1,295.6c0-0.8,0.7-1.4,1.5-1.4c0.9,0,1.7,0.7,1.7,1.5c0,0.8-0.8,1.5-1.7,1.5
		C434.8,297.2,434.1,296.4,434.1,295.6z"/>
	<path class="st1" d="M731.9,303.1c-0.8,0-1.7-0.8-1.7-1.5c0-0.7,0.9-1.4,1.7-1.4c0.7,0,1.6,0.8,1.6,1.5
		C733.5,302.3,732.7,303.1,731.9,303.1z"/>
	<path class="st4" d="M433.6,315.2c-0.8,0-1.6-0.7-1.6-1.5c0-0.8,0.7-1.4,1.6-1.5c0.8,0,1.7,0.8,1.6,1.5
		C435.2,314.4,434.4,315.2,433.6,315.2z"/>
	<path class="st1" d="M728,299.1c-1,0-1.6-0.7-1.5-1.6c0-0.8,0.7-1.4,1.7-1.3c0.8,0,1.4,0.7,1.4,1.6
		C729.6,298.6,728.9,299.1,728,299.1z"/>
	<path class="st2" d="M490.5,293.7c-0.8,0-1.6-0.8-1.6-1.5c0-0.7,0.9-1.5,1.6-1.5c0.8,0,1.6,0.8,1.5,1.5
		C492.1,293,491.3,293.7,490.5,293.7z"/>
	<path class="st1" d="M490.5,296.8c0,0.7-0.7,1.5-1.5,1.5c-0.9,0-1.7-0.7-1.7-1.6c0-0.7,0.9-1.4,1.9-1.4
		C489.9,295.3,490.6,296.1,490.5,296.8z"/>
	<path class="st3" d="M518.2,315.7c0-0.8,0.7-1.5,1.7-1.5c0.8,0,1.5,0.8,1.4,1.6c0,0.8-0.8,1.4-1.7,1.3
		C518.8,317.1,518.2,316.5,518.2,315.7z"/>
	<path class="st2" d="M747.5,315.9c0.9,0,1.7,0.7,1.6,1.6c0,0.7-0.8,1.3-1.6,1.3c-0.7,0-1.6-0.8-1.6-1.4
		C745.9,316.6,746.7,315.9,747.5,315.9z"/>
	<path class="st1" d="M488.5,303.2c-0.8,0-1.6-0.8-1.6-1.5c0-0.7,1-1.5,1.7-1.5c0.7,0,1.5,0.8,1.5,1.5
		C490.1,302.5,489.3,303.3,488.5,303.2z"/>
	<path class="st4" d="M724.6,292.2c1,0,1.5,0.6,1.6,1.5c0,0.9-0.7,1.4-1.8,1.4c-0.8,0-1.3-0.6-1.4-1.5
		C723,292.8,723.7,292.2,724.6,292.2z"/>
	<path class="st4" d="M442.1,293.8c0,0.7-0.9,1.5-1.7,1.5c-0.5,0-1.8-1-1.7-1.4c0-0.5,1.3-1.5,1.8-1.6
		C441.3,292.3,442.1,293.1,442.1,293.8z"/>
	<path class="st2" d="M495.1,287.9c0,0.7-0.7,1.5-1.5,1.6c-0.7,0-1.6-0.7-1.7-1.4c0-0.6,0.9-1.5,1.7-1.5
		C494.4,286.5,495.1,287.2,495.1,287.9z"/>
	<path class="st2" d="M854.2,292.4c0.9,0,1.6,0.7,1.6,1.4c0,0.7-0.9,1.4-1.6,1.4c-0.7,0-1.7-0.8-1.7-1.3
		C852.4,293.1,853.3,292.4,854.2,292.4z"/>
	<path class="st1" d="M716.3,315.9c0.9,0,1.7,0.6,1.7,1.3c0,0.8-0.7,1.5-1.6,1.5c-0.7,0-1.7-0.8-1.7-1.4
		C714.7,316.7,715.6,315.9,716.3,315.9z"/>
	<path class="st2" d="M519.2,285c0.9,0,1.6,0.6,1.7,1.4c0,0.8-0.6,1.5-1.5,1.5c-0.9,0-1.6-0.6-1.6-1.4
		C517.7,285.7,518.4,285,519.2,285z"/>
	<path class="st2" d="M374.7,298.5c-1,0-1.6-0.5-1.6-1.3c0-0.9,0.5-1.5,1.4-1.5c1,0,1.6,0.6,1.6,1.5
		C376.1,297.9,375.6,298.4,374.7,298.5z"/>
	<path class="st2" d="M847.9,301.8c0,0.7-0.8,1.4-1.6,1.4c-0.8,0-1.8-0.8-1.8-1.4c0-0.6,0.9-1.4,1.8-1.4
		C847.2,300.4,847.9,301,847.9,301.8z"/>
	<path class="st3" d="M834.2,291.5c-0.9,0-1.4-0.5-1.4-1.4c0-0.9,0.5-1.4,1.4-1.3c1,0,1.8,0.7,1.7,1.5
		C835.9,290.9,835.1,291.5,834.2,291.5z"/>
	<path class="st1" d="M398.2,289.8c0,0.9-0.5,1.4-1.5,1.4c-0.8,0-1.4-0.5-1.5-1.4c0-0.8,0.6-1.5,1.3-1.6
		C397.5,288.3,398.2,288.9,398.2,289.8z"/>
	<path class="st1" d="M370.8,294.9c-0.9,0-1.4-0.5-1.5-1.4c0-0.8,0.6-1.4,1.4-1.4c1,0,1.7,0.6,1.7,1.4
		C372.5,294.4,371.8,294.9,370.8,294.9z"/>
	<path class="st1" d="M850.4,296.4c1,0,1.5,0.4,1.5,1.3c0,0.9-0.5,1.4-1.4,1.5c-0.9,0-1.7-0.5-1.8-1.3
		C848.7,297.1,849.4,296.4,850.4,296.4z"/>
	<path class="st1" d="M619.4,308.3c0.9,0,1.6,0.6,1.5,1.4c0,0.8-0.8,1.4-1.6,1.4c-1,0-1.5-0.6-1.5-1.4
		C617.8,308.8,618.4,308.3,619.4,308.3z"/>
	<path class="st2" d="M393.1,292.2c0.8,0,1.4,0.6,1.4,1.4c0,0.8-0.5,1.4-1.3,1.4c-0.9,0-1.8-0.6-1.8-1.4
		C391.3,292.8,392.1,292.2,393.1,292.2z"/>
	<path class="st5" d="M862.1,287.5c-0.7,0-1.6-0.7-1.6-1.4c0-0.6,0.8-1.4,1.5-1.4c1,0,1.6,0.5,1.7,1.3
		C863.7,286.9,863.1,287.5,862.1,287.5z"/>
	<path class="st1" d="M445.8,294.8c-0.7,0-1.5-0.8-1.5-1.4c0-0.6,1-1.5,1.6-1.5c0.7,0,1.5,0.7,1.6,1.4
		C447.4,294,446.6,294.8,445.8,294.8z"/>
	<path class="st1" d="M623.1,314.8c-0.9,0-1.4-0.5-1.4-1.4c0-0.9,0.6-1.4,1.4-1.4c1,0,1.6,0.5,1.6,1.3
		C624.8,314.3,624.2,314.8,623.1,314.8z"/>
	<path class="st1" d="M617.3,305.7c0,0.8-0.6,1.4-1.4,1.4c-1,0-1.5-0.5-1.5-1.4c0-0.9,0.5-1.4,1.5-1.4
		C616.7,304.3,617.3,304.9,617.3,305.7z"/>
	<path class="st2" d="M842.1,296.4c1,0.1,1.6,0.6,1.5,1.4c-0.1,0.8-0.8,1.4-1.8,1.3c-0.9-0.1-1.4-0.7-1.3-1.5
		C840.7,296.8,841.2,296.4,842.1,296.4z"/>
	<path class="st5" d="M367.3,291.2c-0.8,0-1.6-0.7-1.6-1.4c0-0.7,0.9-1.5,1.6-1.6c0.6,0,1.5,0.8,1.6,1.5
		C368.9,290.4,368.1,291.2,367.3,291.2z"/>
	<path class="st2" d="M378.1,302.2c-0.8,0-1.3-0.6-1.3-1.4c0-0.9,0.5-1.4,1.4-1.4c1,0,1.5,0.6,1.5,1.4
		C379.7,301.7,379.1,302.2,378.1,302.2z"/>
	<path class="st2" d="M390.8,297.1c0,0.9-0.6,1.4-1.5,1.4c-0.9,0-1.5-0.5-1.5-1.4c0-0.9,0.6-1.4,1.5-1.4
		C390.3,295.7,390.8,296.2,390.8,297.1z"/>
	<path class="st1" d="M449.8,317.5c0,0.8-0.7,1.3-1.6,1.3c-0.8,0-1.6-0.6-1.6-1.2c0-0.7,0.9-1.5,1.8-1.5
		C449.2,316.1,449.8,316.7,449.8,317.5z"/>
	<path class="st4" d="M452.2,316c0.4-0.7,1-1,1.8-0.7c0.6,0.3,1.1,0.7,1.1,1.5c0,0.8-0.7,1-1.2,1.2c-0.7,0.2-1.4,0-1.7-0.8
		C451.9,316.8,451.9,316.4,452.2,316z"/>
	<path class="st1" d="M437.7,315c0.7,0,1.6,0.7,1.6,1.3c0,0.7-0.8,1.5-1.7,1.5c-0.7,0-1.6-0.7-1.6-1.3C436,315.9,437,315,437.7,315z
		"/>
	<path class="st1" d="M858,288.7c1,0,1.5,0.5,1.5,1.4c0,0.9-0.5,1.4-1.4,1.4c-0.9,0-1.5-0.5-1.5-1.3
		C856.5,289.2,857,288.7,858,288.7z"/>
	<path class="st1" d="M381.9,303.2c1,0,1.5,0.5,1.5,1.4c0,0.8-0.5,1.3-1.4,1.3c-0.9,0-1.6-0.5-1.6-1.3
		C380.4,303.7,380.9,303.2,381.9,303.2z"/>
	<path class="st2" d="M387.3,300.8c0,0.8-0.6,1.4-1.5,1.4c-0.9,0-1.4-0.5-1.4-1.4c0-0.9,0.5-1.4,1.3-1.4
		C386.7,299.4,387.3,300,387.3,300.8z"/>
	<path class="st4" d="M839.6,294c0,0.7-0.8,1.3-1.7,1.2c-1-0.1-1.5-0.6-1.4-1.5c0.1-0.9,0.7-1.4,1.7-1.3
		C839,292.5,839.6,293.2,839.6,294z"/>
	<path class="st1" d="M628.4,317.3c0,0.9-0.5,1.4-1.4,1.5c-1.1,0-1.6-0.4-1.6-1.4c0-0.9,0.5-1.4,1.5-1.4
		C627.8,316,628.4,316.6,628.4,317.3z"/>
	<path class="st1" d="M68.5,287.1c0,0.7-0.7,1.4-1.5,1.4c-0.9,0-1.4-0.5-1.5-1.4c0-0.9,0.4-1.4,1.2-1.4
		C67.7,285.7,68.4,286.3,68.5,287.1z"/>
	<path class="st5" d="M619.8,287.3c-0.8,0-1.7-0.7-1.7-1.4c0-0.6,1-1.4,1.6-1.4c0.6,0,1.5,0.9,1.5,1.5
		C621.3,286.7,620.5,287.4,619.8,287.3z"/>
	<path class="st3" d="M747.4,292.7c-0.7,0-1.5-0.7-1.5-1.2c0-0.7,1-1.6,1.7-1.5c0.6,0,1.5,0.9,1.5,1.4
		C749.1,292,748.2,292.7,747.4,292.7z"/>
	<path class="st2" d="M828.8,286c0-0.8,0.7-1.3,1.7-1.3c0.8,0,1.3,0.5,1.3,1.4c0,0.8-0.6,1.4-1.5,1.4
		C829.4,287.4,828.8,286.8,828.8,286z"/>
	<path class="st3" d="M747.4,303c-0.8,0-1.5-0.6-1.5-1.2c0-0.7,1-1.6,1.6-1.6c0.6,0,1.6,0.8,1.6,1.4
		C749.1,302.3,748.2,303,747.4,303z"/>
	<path class="st3" d="M46,316.1c-0.8,0-1.5-0.7-1.5-1.5c0-0.8,0.6-1.4,1.3-1.3c0.9,0,1.7,0.7,1.7,1.5
		C47.5,315.5,46.7,316.1,46,316.1z"/>
	<path class="st3" d="M613.7,287.3c-0.9,0-1.6-0.6-1.5-1.4c0-0.7,0.8-1.4,1.6-1.3c0.7,0,1.4,0.8,1.4,1.5
		C615.1,286.9,614.6,287.4,613.7,287.3z"/>
	<path class="st3" d="M747.6,310.8c0.7,0,1.5,0.8,1.5,1.4c0,0.6-1,1.4-1.7,1.3c-0.7,0-1.5-0.7-1.5-1.3
		C745.9,311.6,746.9,310.7,747.6,310.8z"/>
	<path class="st5" d="M747.5,297.9c-0.7,0-1.6-0.6-1.6-1.2c0-0.7,0.9-1.6,1.6-1.6c0.6,0,1.6,0.8,1.6,1.4
		C749.1,297.1,748.2,297.9,747.5,297.9z"/>
	<path class="st2" d="M626.9,287.5c0,0.8-0.6,1.3-1.4,1.3c-0.9,0-1.6-0.7-1.6-1.4c0-0.6,0.7-1.4,1.3-1.4
		C626.1,285.9,626.9,286.7,626.9,287.5z"/>
	<path class="st3" d="M71.8,288.3c0.8,0,1.5,0.7,1.5,1.4c0,0.7-0.7,1.3-1.5,1.4c-0.8,0-1.5-0.7-1.5-1.5
		C70.4,288.8,71,288.3,71.8,288.3z"/>
	<path class="st2" d="M363.2,303c-0.9,0-1.4-0.5-1.3-1.4c0-0.8,0.7-1.4,1.5-1.4c0.8,0,1.5,0.7,1.5,1.4
		C364.9,302.4,364.1,303.1,363.2,303z"/>
	<path class="st1" d="M328.6,308.4c0,0.8-0.7,1.4-1.5,1.3c-0.8,0-1.4-0.7-1.4-1.5c0-0.8,0.6-1.3,1.5-1.3
		C328,307,328.7,307.7,328.6,308.4z"/>
	<path class="st2" d="M363.4,308.4c-0.8,0-1.4-0.5-1.5-1.3c0-0.8,0.6-1.5,1.4-1.5c0.8,0,1.5,0.6,1.6,1.4
		C364.9,307.7,364.2,308.4,363.4,308.4z"/>
	<path class="st2" d="M514.1,287c-0.9,0-1.5-0.5-1.4-1.4c0-0.8,0.5-1.3,1.4-1.3c1,0,1.6,0.5,1.5,1.4C515.5,286.5,515,287,514.1,287z
		"/>
	<path class="st3" d="M607.9,287.3c-0.8,0-1.5-0.6-1.5-1.4c0-0.7,0.7-1.4,1.4-1.4c0.8,0,1.6,0.7,1.6,1.5
		C609.3,286.8,608.7,287.3,607.9,287.3z"/>
	<path class="st2" d="M442.7,316.2c0.8,0,1.7,0.6,1.7,1.3c0,0.7-0.8,1.5-1.5,1.5c-0.6,0-1.6-0.9-1.6-1.4
		C441.2,317,442.1,316.2,442.7,316.2z"/>
	<path class="st3" d="M225.5,318.7c-0.8,0-1.5-0.6-1.5-1.4c0-0.8,0.5-1.3,1.4-1.4c0.8,0,1.5,0.6,1.6,1.3
		C227,317.9,226.2,318.7,225.5,318.7z"/>
	<path class="st2" d="M43.5,299c-0.8,0-1.5-0.7-1.5-1.4c0-0.8,0.7-1.4,1.5-1.3c0.8,0,1.5,0.7,1.4,1.4
		C44.9,298.4,44.2,299.1,43.5,299z"/>
	<path class="st1" d="M56.1,283.9c0.8,0,1.5,0.6,1.5,1.3c0,0.7-0.7,1.4-1.5,1.4c-0.8,0-1.5-0.7-1.5-1.5
		C54.7,284.3,55.2,283.9,56.1,283.9z"/>
	<path class="st2" d="M157.8,303c-0.8,0-1.4-0.6-1.4-1.4c0-0.8,0.7-1.4,1.5-1.4c0.8,0,1.5,0.7,1.5,1.4
		C159.3,302.4,158.6,303.1,157.8,303z"/>
	<path class="st2" d="M321.7,309.8c-0.8,0-1.5-0.6-1.5-1.3c0-0.8,0.6-1.4,1.4-1.4c0.8,0,1.6,0.6,1.6,1.3
		C323.1,309.1,322.4,309.8,321.7,309.8z"/>
	<path class="st3" d="M665.5,287.3c-0.8,0-1.5-0.6-1.5-1.4c0-0.7,0.7-1.4,1.5-1.4c0.7,0,1.4,0.7,1.5,1.4
		C667,286.7,666.3,287.3,665.5,287.3z"/>
	<path class="st2" d="M42.6,291.1c0.9,0,1.6,0.6,1.6,1.4c0,0.7-0.6,1.3-1.4,1.4c-0.8,0-1.5-0.6-1.5-1.3
		C41.3,291.8,41.8,291.1,42.6,291.1z"/>
	<path class="st3" d="M363.3,318.7c-0.8,0-1.4-0.6-1.4-1.3c0-0.8,0.6-1.4,1.4-1.4c0.8,0,1.5,0.6,1.5,1.4
		C364.9,318,364.1,318.7,363.3,318.7z"/>
	<path class="st3" d="M563.9,298.1c0.8,0,1.4,0.8,1.4,1.5c0,0.7-0.7,1.3-1.5,1.2c-0.8,0-1.5-0.7-1.5-1.4
		C562.3,298.8,563.1,298.1,563.9,298.1z"/>
	<path class="st3" d="M785,287.3c-0.8,0-1.5-0.7-1.5-1.4c0-0.7,0.7-1.3,1.4-1.4c0.8,0,1.5,0.6,1.5,1.4
		C786.5,286.7,785.8,287.3,785,287.3z"/>
	<path class="st4" d="M333.7,290.4c0,0.8-0.7,1.5-1.5,1.5c-0.8,0-1.5-0.7-1.5-1.4c0-0.7,0.7-1.4,1.4-1.4
		C333,289,333.7,289.6,333.7,290.4z"/>
	<path class="st3" d="M790.5,284.6c0.8,0,1.5,0.7,1.5,1.4c0,0.7-0.7,1.3-1.4,1.4c-0.8,0-1.5-0.6-1.5-1.3
		C789,285.3,789.8,284.6,790.5,284.6z"/>
	<path class="st2" d="M514.6,315.4c0.9,0,1.4,0.5,1.4,1.4c0,0.9-0.6,1.3-1.5,1.3c-0.9,0-1.4-0.5-1.4-1.4
		C513.1,315.8,513.7,315.3,514.6,315.4z"/>
	<path class="st3" d="M125.6,286c0,0.7-0.6,1.4-1.4,1.4c-0.9,0-1.6-0.6-1.6-1.4c0-0.8,0.6-1.3,1.4-1.3
		C124.9,284.6,125.6,285.2,125.6,286z"/>
	<path class="st1" d="M56.4,316.3c0.9,0,1.7,0.7,1.6,1.5c0,0.7-0.7,1.3-1.4,1.3c-0.8,0-1.5-0.6-1.5-1.4
		C55.1,317,55.7,316.3,56.4,316.3z"/>
	<path class="st1" d="M569,309.8c-0.8,0-1.4-0.7-1.4-1.5c0-0.7,0.8-1.3,1.6-1.3c0.7,0,1.4,0.7,1.4,1.4
		C570.6,309.2,569.9,309.8,569,309.8z"/>
	<path class="st3" d="M565,308.4c0,0.8-0.7,1.4-1.5,1.4c-0.8,0-1.5-0.7-1.4-1.5c0-0.7,0.8-1.3,1.6-1.3
		C564.5,307.1,565.1,307.6,565,308.4z"/>
	<path class="st3" d="M557.7,309.8c-0.7,0-1.4-0.8-1.4-1.4c0-0.7,0.8-1.3,1.5-1.3c1,0,1.5,0.5,1.5,1.4
		C559.2,309.2,558.5,309.8,557.7,309.8z"/>
	<path class="st6" d="M747.4,308.4c-0.7,0-1.6-0.8-1.5-1.4c0.1-0.6,1-1.4,1.6-1.4c0.6,0,1.5,0.8,1.5,1.4
		C749.1,307.6,748.1,308.4,747.4,308.4z"/>
	<path class="st3" d="M61.7,286.9c-0.8,0-1.5-0.7-1.5-1.4c0-0.8,0.7-1.4,1.5-1.4c0.8,0,1.4,0.6,1.5,1.3
		C63.2,286.2,62.4,286.9,61.7,286.9z"/>
	<path class="st3" d="M50.6,287.1c-0.7,0-1.4-0.7-1.4-1.4c0-0.7,0.7-1.4,1.4-1.4c0.8,0,1.5,0.6,1.5,1.4
		C52.1,286.5,51.4,287.1,50.6,287.1z"/>
	<path class="st3" d="M73.5,312.7c0,0.8-0.7,1.4-1.6,1.3c-0.8,0-1.5-0.7-1.4-1.5c0-0.7,0.7-1.3,1.5-1.3
		C72.8,311.2,73.6,311.9,73.5,312.7z"/>
	<path class="st1" d="M510.6,317c0,0.9-0.6,1.4-1.4,1.4c-0.8,0-1.6-0.7-1.6-1.5c0-0.7,0.7-1.3,1.5-1.3
		C510,315.7,510.6,316.2,510.6,317z"/>
	<path class="st3" d="M157.9,318.7c-0.8,0-1.5-0.7-1.5-1.4c0-0.7,0.7-1.4,1.5-1.3c0.8,0,1.4,0.7,1.4,1.4
		C159.4,318,158.6,318.7,157.9,318.7z"/>
	<path class="st3" d="M659.7,287.3c-0.7,0-1.4-0.7-1.4-1.4c0-0.7,0.7-1.4,1.4-1.4c0.8,0,1.5,0.7,1.5,1.4
		C661.2,286.7,660.5,287.3,659.7,287.3z"/>
	<path class="st3" d="M45.7,289.5c-0.8,0-1.5-0.7-1.4-1.5c0-0.7,0.7-1.3,1.5-1.3c0.7,0,1.4,0.7,1.4,1.4
		C47.2,288.8,46.5,289.5,45.7,289.5z"/>
	<path class="st2" d="M363.3,292.7c-0.8,0-1.4-0.5-1.4-1.3c0-0.8,0.7-1.5,1.5-1.5c0.8,0,1.5,0.7,1.5,1.4
		C364.8,292.1,364.1,292.7,363.3,292.7z"/>
	<path class="st3" d="M779.1,292.7c-0.7,0-1.4-0.7-1.4-1.4c0-0.6,0.7-1.4,1.3-1.4c0.8,0,1.6,0.7,1.6,1.4
		C780.7,292.1,780,292.7,779.1,292.7z"/>
	<path class="st2" d="M157.8,308.4c-0.8,0-1.5-0.7-1.4-1.4c0-0.7,0.8-1.4,1.6-1.3c0.7,0,1.4,0.7,1.4,1.4
		C159.3,307.8,158.6,308.4,157.8,308.4z"/>
	<path class="st3" d="M363.3,297.9c-0.8,0-1.4-0.5-1.4-1.3c0-0.8,0.7-1.5,1.5-1.5c0.8,0,1.5,0.7,1.5,1.4
		C364.8,297.3,364.1,297.9,363.3,297.9z"/>
	<path class="st2" d="M363.4,310.8c0.8,0,1.4,0.7,1.4,1.4c0,0.8-0.8,1.5-1.6,1.4c-0.8,0-1.4-0.6-1.3-1.4
		C361.9,311.4,362.6,310.8,363.4,310.8z"/>
	<path class="st3" d="M671.1,303c-0.8,0-1.5-0.7-1.5-1.4c0-0.8,0.8-1.4,1.6-1.4c0.7,0,1.4,0.8,1.4,1.4
		C672.5,302.4,671.8,303,671.1,303z"/>
	<path class="st3" d="M784.9,303c-0.8,0-1.5-0.8-1.4-1.5c0-0.7,0.8-1.4,1.6-1.3c0.7,0,1.4,0.7,1.4,1.4
		C786.4,302.4,785.7,303.1,784.9,303z"/>
	<path class="st3" d="M790.6,303c-0.8,0-1.5-0.7-1.5-1.4c0-0.7,0.7-1.4,1.5-1.4c0.7,0,1.4,0.6,1.5,1.3
		C792,302.3,791.3,303,790.6,303z"/>
	<path class="st3" d="M796.1,303c-0.8,0-1.5-0.7-1.5-1.4c0-0.8,0.8-1.4,1.6-1.4c0.7,0,1.4,0.8,1.3,1.4
		C797.5,302.4,796.8,303,796.1,303z"/>
	<path class="st2" d="M527.6,293c-0.8,0-1.5-0.7-1.5-1.4c0-0.7,0.7-1.4,1.4-1.4c0.8,0,1.5,0.7,1.6,1.4
		C529.1,292.2,528.4,292.9,527.6,293z"/>
	<path class="st2" d="M95.9,287.3c-0.9,0-1.6-0.6-1.6-1.4c0-0.8,0.6-1.3,1.5-1.4c0.7,0,1.4,0.6,1.5,1.3
		C97.3,286.6,96.7,287.3,95.9,287.3z"/>
	<path class="st1" d="M574.4,318.7c-0.7,0-1.5-0.7-1.5-1.4c0-0.7,0.6-1.3,1.4-1.3c0.8,0,1.5,0.6,1.5,1.3
		C575.9,318,575.2,318.7,574.4,318.7z"/>
	<path class="st2" d="M316.1,315.9c0.9,0.1,1.5,0.7,1.5,1.4c-0.1,0.8-0.8,1.4-1.5,1.4c-0.8,0-1.5-0.7-1.4-1.5
		C314.7,316.5,315.4,315.9,316.1,315.9z"/>
	<path class="st2" d="M688.3,287.3c-0.7,0-1.4-0.6-1.4-1.4c0-0.8,0.6-1.4,1.4-1.4c0.8,0,1.6,0.7,1.6,1.4
		C689.8,286.7,689.1,287.3,688.3,287.3z"/>
	<path class="st2" d="M318.7,311.5c0.8,0,1.6,0.6,1.6,1.3c0,0.8-0.6,1.5-1.4,1.5c-0.9,0-1.5-0.6-1.6-1.3
		C317.4,312.2,318,311.5,318.7,311.5z"/>
	<path class="st3" d="M671.1,313.5c-0.8,0-1.5-0.6-1.5-1.4c0-0.8,0.7-1.4,1.6-1.4c0.7,0,1.4,0.7,1.4,1.4
		C672.5,312.9,671.8,313.6,671.1,313.5z"/>
	<path class="st3" d="M671.2,297.9c-0.8,0-1.5-0.6-1.6-1.3c0-0.8,0.7-1.5,1.5-1.5c0.7,0,1.4,0.7,1.4,1.4
		C672.6,297.2,671.9,297.8,671.2,297.9z"/>
	<path class="st2" d="M114.3,301.6c0,0.8-0.7,1.4-1.6,1.4c-0.7,0-1.3-0.6-1.4-1.3c0-0.8,0.7-1.5,1.4-1.5
		C113.7,300.3,114.3,300.9,114.3,301.6z"/>
	<path class="st2" d="M114.3,307c0,0.8-0.7,1.4-1.6,1.4c-0.7,0-1.3-0.6-1.3-1.3c0-0.8,0.7-1.5,1.5-1.4
		C113.7,305.7,114.4,306.3,114.3,307z"/>
	<path class="st1" d="M334.2,308.5c0,0.7-0.7,1.4-1.4,1.3c-0.9,0-1.5-0.7-1.5-1.5c0.1-0.8,0.7-1.3,1.6-1.3
		C333.5,307.1,334.2,307.8,334.2,308.5z"/>
	<path class="st3" d="M671.1,287.3c-0.8,0-1.5-0.6-1.5-1.3c0-0.8,0.7-1.4,1.6-1.4c0.7,0,1.4,0.7,1.4,1.4
		C672.5,286.7,671.8,287.3,671.1,287.3z"/>
	<path class="st3" d="M796.2,287.3c-0.8,0-1.5-0.6-1.6-1.3c0-0.7,0.7-1.4,1.5-1.4c0.7,0,1.4,0.7,1.5,1.4
		C797.6,286.6,796.9,287.3,796.2,287.3z"/>
	<path class="st3" d="M786.5,317.3c0,0.7-0.7,1.4-1.5,1.4c-0.7,0-1.5-0.7-1.5-1.4c0-0.7,0.7-1.3,1.4-1.3
		C785.7,315.9,786.5,316.5,786.5,317.3z"/>
	<path class="st2" d="M790.6,315.9c0.8,0,1.4,0.6,1.5,1.3c0,0.7-0.7,1.4-1.5,1.4c-0.8,0-1.5-0.7-1.5-1.4
		C789,316.6,789.8,315.9,790.6,315.9z"/>
	<path class="st1" d="M112.8,315.9c0.8,0,1.5,0.6,1.6,1.3c0,0.8-0.7,1.4-1.6,1.4c-0.7,0-1.4-0.6-1.4-1.4
		C111.4,316.6,112.1,315.9,112.8,315.9z"/>
	<path class="st3" d="M118.4,287.3c-0.8,0-1.5-0.6-1.5-1.4c0-0.7,0.7-1.4,1.4-1.4c0.8,0,1.5,0.6,1.5,1.3
		C119.9,286.7,119.3,287.3,118.4,287.3z"/>
	<path class="st2" d="M157.9,313.6c-0.8,0-1.5-0.6-1.5-1.4c0-0.7,0.6-1.3,1.4-1.4c0.8,0,1.5,0.6,1.6,1.3
		C159.4,312.8,158.7,313.5,157.9,313.6z"/>
	<path class="st2" d="M157.9,287.3c-0.8,0-1.5-0.6-1.5-1.4c0-0.7,0.7-1.4,1.5-1.4c0.7,0,1.4,0.7,1.5,1.4
		C159.4,286.7,158.7,287.3,157.9,287.3z"/>
	<path class="st2" d="M164.9,285.9c0,0.7-0.7,1.4-1.4,1.4c-0.8,0-1.5-0.6-1.5-1.3c0-0.8,0.7-1.4,1.5-1.4
		C164.1,284.6,164.9,285.2,164.9,285.9z"/>
	<path class="st5" d="M779.1,287.3c-0.7,0-1.4-0.7-1.4-1.4c0-0.7,0.7-1.3,1.4-1.3c0.8,0,1.6,0.7,1.6,1.4
		C780.7,286.7,779.9,287.3,779.1,287.3z"/>
	<path class="st3" d="M602,303c-0.7,0-1.3-0.6-1.4-1.3c0-0.8,0.7-1.5,1.4-1.5c0.7,0,1.5,0.7,1.6,1.4C603.6,302.3,602.7,303,602,303z
		"/>
	<path class="st3" d="M504.1,318c-0.8,0-1.5-0.6-1.5-1.3c0-0.7,0.7-1.4,1.4-1.4c0.8,0,1.5,0.7,1.5,1.4
		C505.6,317.3,504.8,318,504.1,318z"/>
	<path class="st2" d="M363.3,287.3c-0.8,0-1.4-0.7-1.4-1.4c0-0.8,0.6-1.3,1.4-1.3c0.8,0,1.5,0.7,1.5,1.4
		C364.9,286.7,364.1,287.4,363.3,287.3z"/>
	<path class="st1" d="M164.9,317.3c0,0.7-0.7,1.4-1.4,1.4c-0.8,0-1.5-0.6-1.5-1.4c0-0.8,0.7-1.4,1.5-1.4
		C164.2,315.9,164.9,316.6,164.9,317.3z"/>
	<path class="st2" d="M557.2,286c0,0.7-0.7,1.3-1.5,1.4c-0.8,0-1.4-0.6-1.4-1.5c0-0.7,0.6-1.3,1.4-1.3
		C556.5,284.6,557.2,285.2,557.2,286z"/>
	<path class="st2" d="M157.9,289.9c0.7,0,1.5,0.7,1.5,1.4c0,0.7-0.7,1.4-1.5,1.4c-0.8,0-1.4-0.6-1.4-1.3
		C156.4,290.7,157.1,289.9,157.9,289.9z"/>
	<path class="st2" d="M717.9,301.7c0,0.6-0.9,1.4-1.7,1.4c-0.5,0-1.5-0.9-1.6-1.3c0-0.5,1.2-1.5,1.7-1.4
		C717.2,300.3,718,301,717.9,301.7z"/>
	<path class="st3" d="M60.6,301.4c0,0.7-0.7,1.4-1.4,1.4c-0.8,0-1.5-0.7-1.5-1.4c0-0.7,0.7-1.4,1.5-1.4
		C59.9,300,60.6,300.7,60.6,301.4z"/>
	<path class="st2" d="M157.8,295.1c0.8,0,1.5,0.7,1.5,1.4c0,0.7-0.6,1.4-1.4,1.4c-0.8,0-1.5-0.6-1.6-1.3
		C156.4,295.8,157.1,295.1,157.8,295.1z"/>
	<path class="st3" d="M624.9,302.3c-0.8,0-1.7-0.8-1.7-1.3c0-0.7,0.9-1.4,1.5-1.4c0.7,0,1.7,0.9,1.7,1.5
		C626.5,301.6,625.6,302.3,624.9,302.3z"/>
	<path class="st1" d="M628.5,290.5c0.9,0,1.7,0.7,1.7,1.6c0,0.9-0.6,1.1-1.3,1.1c-0.8,0-1.7-0.7-1.7-1.4
		C627.2,291.2,627.9,290.5,628.5,290.5z"/>
	<path class="st2" d="M717.9,307c0,0.6-0.8,1.4-1.5,1.4c-0.5,0-1.7-1-1.7-1.4c0-0.5,1.2-1.4,1.7-1.4
		C717.1,305.6,717.9,306.4,717.9,307z"/>
	<path class="st2" d="M48.1,301.8c-0.8,0-1.5-0.6-1.5-1.4c0-0.8,0.6-1.4,1.4-1.4c0.8,0,1.5,0.6,1.5,1.4
		C49.6,301.2,48.9,301.8,48.1,301.8z"/>
	<path class="st3" d="M328.4,299.5c0,0.7-0.7,1.3-1.6,1.3c-0.7,0-1.5-0.7-1.4-1.3c0-0.7,0.7-1.4,1.4-1.4
		C327.7,298.1,328.4,298.8,328.4,299.5z"/>
	<path class="st5" d="M780.7,312.3c-0.1,0.7-0.9,1.3-1.7,1.3c-0.7-0.1-1.4-0.8-1.3-1.5c0.1-0.7,0.8-1.3,1.5-1.2
		C780.2,310.9,780.8,311.6,780.7,312.3z"/>
	<path class="st2" d="M266.8,307c0,0.7-0.7,1.4-1.4,1.4c-0.9,0-1.5-0.6-1.5-1.4c0-0.9,0.8-1.2,1.6-1.3
		C266.1,305.6,266.8,306.3,266.8,307z"/>
	<path class="st2" d="M602,308.4c-0.7,0-1.3-0.5-1.4-1.3c0-0.8,0.6-1.5,1.4-1.5c0.7,0,1.6,0.7,1.6,1.3
		C603.6,307.6,602.7,308.4,602,308.4z"/>
	<path class="st3" d="M671.1,308.4c-0.8,0-1.5-0.6-1.6-1.3c0-0.8,0.7-1.4,1.5-1.4c0.7,0,1.4,0.7,1.4,1.4
		C672.5,307.7,671.8,308.4,671.1,308.4z"/>
	<path class="st1" d="M400.4,303c-0.9-0.1-1.4-0.6-1.4-1.5c0.1-0.8,0.9-1.4,1.7-1.3c0.8,0.1,1.2,0.6,1.2,1.4
		C402,302.4,401.2,303.1,400.4,303z"/>
	<path class="st2" d="M111.4,312.1c0-0.7,0.7-1.4,1.5-1.3c0.9,0.1,1.6,0.7,1.5,1.5c-0.1,0.8-0.9,1.4-1.7,1.3
		C111.9,313.5,111.4,312.8,111.4,312.1z"/>
	<path class="st2" d="M717.9,312.1c0,0.6-0.9,1.4-1.6,1.4c-0.5,0-1.7-1-1.6-1.4c0-0.4,1.1-1.4,1.6-1.4
		C717.1,310.8,717.9,311.5,717.9,312.1z"/>
	<path class="st3" d="M73.1,308.8c-0.7,0-1.6-0.8-1.6-1.3c0-0.5,0.9-1.4,1.6-1.4c0.5,0,1.6,0.7,1.6,1.4
		C74.7,308,73.8,308.8,73.1,308.8z"/>
	<path class="st1" d="M231.1,318.7c-0.8,0-1.5-0.6-1.6-1.3c0-0.8,0.6-1.4,1.5-1.4c0.8,0,1.4,0.6,1.5,1.3
		C232.5,317.9,231.8,318.7,231.1,318.7z"/>
	<path class="st2" d="M282.5,315.9c0.8,0.1,1.5,0.7,1.4,1.5c-0.1,0.7-0.8,1.3-1.5,1.3c-0.8,0-1.5-0.8-1.4-1.5
		C280.9,316.4,281.6,315.9,282.5,315.9z"/>
	<path class="st3" d="M780.7,317.4c-0.1,0.7-0.9,1.3-1.6,1.3c-0.7,0-1.4-0.8-1.3-1.5c0.1-0.7,0.8-1.3,1.5-1.3
		C780.1,316,780.8,316.7,780.7,317.4z"/>
	<path class="st3" d="M218.2,317.3c0-0.7,0.7-1.4,1.4-1.4c0.8,0,1.5,0.6,1.5,1.4c0,0.7-0.7,1.4-1.5,1.4
		C218.9,318.7,218.2,318,218.2,317.3z"/>
	<path class="st2" d="M108.6,286c0,0.6-0.9,1.3-1.6,1.3c-0.6,0-1.6-0.8-1.6-1.4c0-0.6,1-1.4,1.6-1.4
		C107.7,284.6,108.6,285.5,108.6,286z"/>
	<path class="st3" d="M524.3,315.4c-0.7,0-1.4-0.7-1.4-1.4c0-0.7,0.7-1.3,1.4-1.4c0.8,0,1.6,0.7,1.6,1.4
		C525.8,314.8,525.1,315.4,524.3,315.4z"/>
	<path class="st2" d="M671.1,292.7c-0.8,0-1.5-0.6-1.5-1.4c0-0.7,0.7-1.4,1.5-1.4c0.7,0,1.5,0.8,1.4,1.5
		C672.5,292.1,671.8,292.7,671.1,292.7z"/>
	<path class="st2" d="M266.8,312.2c0,0.7-0.7,1.4-1.4,1.4c-0.9,0-1.5-0.5-1.5-1.3c0-0.8,0.6-1.4,1.5-1.5
		C266.1,310.8,266.8,311.4,266.8,312.2z"/>
	<path class="st2" d="M716.4,292.7c-0.6,0-1.7-1-1.7-1.4c0-0.4,1.2-1.3,1.6-1.3c0.7,0,1.6,0.8,1.6,1.4
		C717.9,292,717.1,292.7,716.4,292.7z"/>
	<path class="st1" d="M114.3,296.5c0,0.8-0.7,1.4-1.6,1.4c-0.7,0-1.3-0.6-1.3-1.3c0-0.7,0.7-1.5,1.4-1.5
		C113.7,295.1,114.3,295.7,114.3,296.5z"/>
	<path class="st1" d="M402,307c0,0.7-0.7,1.4-1.4,1.4c-0.9,0-1.6-0.7-1.5-1.5c0-0.7,0.7-1.3,1.6-1.3C401.3,305.6,402,306.3,402,307z
		"/>
	<path class="st3" d="M779.1,300.3c0.8,0,1.6,0.7,1.6,1.3c0,0.7-0.8,1.4-1.6,1.4c-0.7,0-1.3-0.7-1.4-1.4
		C777.7,301,778.4,300.3,779.1,300.3z"/>
	<path class="st1" d="M266.8,296.5c0,0.7-0.7,1.4-1.4,1.4c-0.9,0-1.5-0.5-1.5-1.3c0-1,0.7-1.3,1.5-1.4
		C266.1,295,266.8,295.8,266.8,296.5z"/>
	<path class="st3" d="M682.5,287.3c-0.6,0-1.6-0.8-1.6-1.3c0-0.6,1-1.5,1.6-1.4c0.6,0,1.6,0.9,1.6,1.4
		C684.1,286.5,683.1,287.3,682.5,287.3z"/>
	<path class="st2" d="M266.8,285.9c0,0.7-0.7,1.5-1.4,1.4c-0.9-0.1-1.6-0.5-1.6-1.4c0-0.8,0.6-1.3,1.5-1.3
		C266.1,284.6,266.8,285.3,266.8,285.9z"/>
	<path class="st3" d="M600.6,317.3c0-0.7,0.6-1.4,1.4-1.4c0.8,0,1.6,0.7,1.6,1.4c0,0.6-1,1.4-1.7,1.4
		C601.2,318.7,600.6,318.1,600.6,317.3z"/>
	<path class="st1" d="M51,315.7c0.8,0,1.5,0.6,1.5,1.4c0,0.7-0.7,1.4-1.4,1.4c-0.8,0-1.5-0.6-1.5-1.4
		C49.6,316.3,50.1,315.7,51,315.7z"/>
	<path class="st5" d="M780.7,296.5c0,0.7-0.7,1.3-1.5,1.4c-0.7,0-1.4-0.7-1.4-1.4c0-0.7,0.8-1.4,1.4-1.4
		C780,295.1,780.7,295.8,780.7,296.5z"/>
	<path class="st2" d="M717.9,296.5c0,0.6-0.8,1.3-1.6,1.4c-0.5,0-1.6-0.9-1.7-1.4c0-0.4,1.2-1.5,1.7-1.4
		C717.1,295.1,718,295.9,717.9,296.5z"/>
	<path class="st3" d="M212.7,301.6c0-0.7,0.7-1.4,1.4-1.4c0.8,0,1.5,0.7,1.5,1.4c0,0.6-0.8,1.4-1.6,1.4
		C213.4,303,212.6,302.3,212.7,301.6z"/>
	<path class="st3" d="M655.7,286c0,0.7-0.7,1.3-1.6,1.4c-0.7,0-1.4-0.7-1.4-1.4c0-0.6,0.7-1.4,1.3-1.4
		C654.9,284.5,655.7,285.2,655.7,286z"/>
	<path class="st2" d="M461.8,313c-0.8,0-1.4-0.5-1.4-1.2c0-0.7,0.7-1.4,1.4-1.4c0.8,0,1.6,0.6,1.6,1.3
		C463.4,312.4,462.7,313,461.8,313z"/>
	<path class="st5" d="M779.1,305.6c0.8,0,1.5,0.6,1.6,1.4c0,0.8-0.8,1.4-1.6,1.4c-0.7,0-1.3-0.7-1.4-1.4
		C777.7,306.3,778.4,305.6,779.1,305.6z"/>
	<path class="st2" d="M400.6,310.8c0.7,0,1.4,0.7,1.4,1.4c0,0.7-0.7,1.3-1.4,1.3c-0.9,0-1.6-0.6-1.6-1.4
		C399.1,311.4,399.7,310.8,400.6,310.8z"/>
	<path class="st1" d="M571.8,314.2c-0.8,0-1.4-0.7-1.4-1.4c0-0.7,0.7-1.3,1.5-1.3c0.7,0,1.5,0.7,1.5,1.4
		C573.4,313.6,572.6,314.2,571.8,314.2z"/>
	<path class="st2" d="M601.9,292.7c-0.7,0-1.3-0.6-1.3-1.3c0-0.8,0.7-1.5,1.4-1.5c0.7,0,1.5,0.8,1.5,1.4
		C603.6,292,602.7,292.7,601.9,292.7z"/>
	<path class="st2" d="M400.6,292.7c-0.9,0-1.5-0.6-1.5-1.3c0-0.8,0.7-1.5,1.6-1.4c0.7,0,1.3,0.7,1.4,1.4
		C402,292,401.3,292.7,400.6,292.7z"/>
	<path class="st1" d="M456.5,315c0-0.7,0.6-1.4,1.5-1.4c0.7-0.1,1.4,0.6,1.5,1.3c0,0.7-0.7,1.5-1.4,1.4
		C457.3,316.2,456.5,315.9,456.5,315z"/>
	<path class="st3" d="M214,297.9c-0.7,0-1.4-0.7-1.4-1.4c0-0.6,0.7-1.3,1.3-1.4c0.8,0,1.6,0.7,1.6,1.4
		C215.6,297.2,214.8,297.9,214,297.9z"/>
	<path class="st2" d="M167.7,317.3c0-0.7,0.7-1.3,1.5-1.4c0.7,0,1.6,0.7,1.5,1.4c-0.1,0.7-0.6,1.3-1.4,1.3
		C168.7,318.8,167.7,317.9,167.7,317.3z"/>
	<path class="st3" d="M400.9,287.3c-0.8,0-1.6-0.6-1.6-1.3c0-0.8,0.7-1.5,1.5-1.5c0.6,0,1.4,0.7,1.4,1.3
		C402.3,286.6,401.6,287.3,400.9,287.3z"/>
	<path class="st3" d="M276.5,315.9c0.8,0,1.6,0.6,1.6,1.3c0,0.8-0.7,1.5-1.6,1.4c-0.7,0-1.4-0.8-1.4-1.4
		C275.2,316.6,275.9,315.9,276.5,315.9z"/>
	<path class="st3" d="M131.2,286c0,0.7-0.7,1.4-1.4,1.3c-0.8,0-1.5-0.7-1.5-1.4c0-0.7,0.8-1.4,1.6-1.4
		C130.5,284.6,131.2,285.3,131.2,286z"/>
	<path class="st2" d="M53.6,302.6c-0.7,0-1.4-0.7-1.5-1.4c0-0.7,0.7-1.4,1.5-1.4c0.8,0,1.4,0.6,1.4,1.3
		C55.1,301.9,54.4,302.6,53.6,302.6z"/>
	<path class="st1" d="M265.4,303c-0.9,0-1.5-0.5-1.5-1.3c0-0.9,0.6-1.3,1.5-1.5c0.7-0.1,1.4,0.7,1.4,1.4
		C266.8,302.3,266.1,303,265.4,303z"/>
	<path class="st2" d="M163.4,303c-0.8,0-1.5-0.7-1.5-1.4c0-0.7,0.7-1.4,1.5-1.4c0.7,0,1.4,0.7,1.4,1.4
		C164.9,302.4,164.2,303,163.4,303z"/>
	<path class="st3" d="M64.9,303.2c-0.8-0.1-1.5-0.8-1.5-1.4c0-0.7,1-1.4,1.7-1.3c0.7,0.1,1.3,0.8,1.3,1.4
		C66.4,302.6,65.6,303.3,64.9,303.2z"/>
	<path class="st4" d="M613.1,300.7c0.8,0,1.5,0.6,1.5,1.4c0,0.7-0.6,1.3-1.4,1.4c-0.8,0-1.5-0.6-1.5-1.3
		C611.7,301.4,612.4,300.7,613.1,300.7z"/>
	<path class="st2" d="M671.2,318.7c-0.8,0-1.5-0.6-1.6-1.3c0-0.7,0.6-1.4,1.4-1.4c0.8,0,1.5,0.6,1.5,1.3
		C672.6,318,671.8,318.7,671.2,318.7z"/>
	<path class="st2" d="M618.7,300.7c0.8,0,1.5,0.6,1.5,1.4c0,0.7-0.6,1.3-1.4,1.4c-0.8,0-1.5-0.6-1.6-1.3
		C617.2,301.4,617.9,300.7,618.7,300.7z"/>
	<path class="st3" d="M70.3,304.9c-0.7,0-1.6-0.7-1.6-1.3c0-0.6,0.9-1.4,1.5-1.4c0.6,0,1.6,0.8,1.6,1.4
		C71.9,304,70.9,304.9,70.3,304.9z"/>
	<path class="st2" d="M212.7,307.1c0-0.7,0.7-1.4,1.4-1.4c0.7,0,1.6,0.7,1.6,1.3c0,0.7-0.7,1.4-1.5,1.4
		C213.4,308.4,212.7,307.8,212.7,307.1z"/>
	<path class="st3" d="M602,297.9c-0.7,0-1.3-0.5-1.4-1.3c0-0.8,0.7-1.5,1.4-1.5c0.7,0,1.6,0.8,1.6,1.3
		C603.6,297.1,602.8,297.9,602,297.9z"/>
	<path class="st3" d="M796.1,318.7c-0.8,0-1.5-0.7-1.5-1.4c0-0.8,0.7-1.4,1.6-1.4c0.7,0,1.4,0.7,1.4,1.4
		C797.5,318,796.8,318.7,796.1,318.7z"/>
	<path class="st1" d="M63.8,317.5c0,0.7-0.7,1.4-1.4,1.4c-0.7,0-1.6-0.8-1.6-1.4c0-0.7,0.7-1.3,1.5-1.3
		C63.2,316.1,63.8,316.8,63.8,317.5z"/>
	<path class="st1" d="M402,296.5c0,0.7-0.7,1.4-1.4,1.4c-0.9,0-1.5-0.6-1.5-1.4c0-0.7,0.7-1.4,1.5-1.4
		C401.3,295.1,402,295.8,402,296.5z"/>
	<path class="st2" d="M399.1,317.3c0-0.8,0.6-1.4,1.5-1.4c0.7,0,1.4,0.6,1.5,1.3c0,0.7-0.7,1.4-1.4,1.4
		C399.8,318.7,399.1,318.1,399.1,317.3z"/>
	<path class="st1" d="M336.3,286.1c0,0.8-0.5,1.3-1.3,1.3c-0.8,0-1.5-0.6-1.5-1.3c0-0.7,0.7-1.4,1.5-1.4
		C335.8,284.6,336.3,285.1,336.3,286.1z"/>
	<path class="st3" d="M214.1,287.3c-0.7,0-1.4-0.6-1.4-1.4c0-0.7,0.6-1.4,1.3-1.4c0.7,0,1.6,0.7,1.6,1.4
		C215.6,286.6,214.8,287.3,214.1,287.3z"/>
	<path class="st3" d="M212.7,312.2c0-0.7,0.7-1.4,1.4-1.4c0.8,0,1.6,0.7,1.6,1.3c0,0.6-0.8,1.4-1.5,1.4
		C213.4,313.6,212.7,312.9,212.7,312.2z"/>
	<path class="st2" d="M176.4,301.7c0,0.6-0.9,1.4-1.6,1.4c-0.7,0-1.4-0.7-1.4-1.4c0-0.7,0.7-1.4,1.4-1.3
		C175.7,300.3,176.4,301,176.4,301.7z"/>
	<path class="st2" d="M602,313.5c-0.7,0-1.3-0.5-1.4-1.3c0-0.8,0.6-1.5,1.4-1.5c0.7,0,1.6,0.7,1.6,1.3
		C603.6,312.8,602.8,313.5,602,313.5z"/>
	<path class="st1" d="M324.1,305.3c-0.8,0-1.4-0.6-1.4-1.3c0-0.7,0.7-1.3,1.4-1.3c0.8,0,1.5,0.6,1.5,1.4
		C325.6,304.8,325,305.3,324.1,305.3z"/>
	<path class="st2" d="M508.4,286.7c-0.7-0.1-1.1-0.5-1.1-1.2c0-1,0.5-1.6,1.4-1.5c0.8,0,1.4,0.7,1.4,1.5
		C510.2,286.1,509.4,286.7,508.4,286.7z"/>
	<path class="st2" d="M747.3,287.3c-0.7,0-1.6-0.7-1.6-1.3c0-0.6,0.9-1.5,1.6-1.5c0.6,0,1.5,0.9,1.6,1.4
		C748.9,286.5,747.8,287.3,747.3,287.3z"/>
	<path class="st2" d="M169.2,300.2c0.7,0,1.5,0.7,1.5,1.4c0,0.6-0.8,1.4-1.4,1.4c-0.7,0-1.6-0.8-1.6-1.4
		C167.7,300.8,168.4,300.4,169.2,300.2z"/>
	<path class="st2" d="M41.1,310.7c0-0.7,0.6-1.3,1.3-1.4c0.9,0,1.6,0.6,1.7,1.3c0,0.8-0.7,1.4-1.6,1.5
		C41.8,312.2,41.1,311.4,41.1,310.7z"/>
	<path class="st2" d="M265.4,292.7c-0.9,0-1.5-0.5-1.5-1.3c0-0.8,0.7-1.5,1.5-1.5c0.7,0,1.4,0.7,1.4,1.4
		C266.8,292.1,266.1,292.7,265.4,292.7z"/>
	<path class="st2" d="M607.5,303.5c-0.7,0-1.4-0.7-1.4-1.4c0-0.7,0.7-1.3,1.4-1.3c0.9,0,1.6,0.7,1.6,1.4
		C609.1,302.9,608.3,303.5,607.5,303.5z"/>
	<path class="st2" d="M602,287.3c-0.7,0-1.3-0.7-1.3-1.4c0-0.8,0.6-1.4,1.4-1.3c0.8,0,1.6,0.8,1.6,1.5
		C603.5,286.7,602.7,287.4,602,287.3z"/>
	<path class="st2" d="M114.4,291.4c0,0.8-0.7,1.4-1.6,1.3c-0.7,0-1.3-0.6-1.3-1.3c0-0.7,0.7-1.4,1.4-1.4
		C113.6,289.9,114.4,290.6,114.4,291.4z"/>
	<path class="st2" d="M271,315.9c0.7,0,1.5,0.8,1.5,1.4c0,0.5-0.9,1.4-1.5,1.4c-0.6,0-1.6-0.9-1.6-1.4
		C269.5,316.7,270.4,315.9,271,315.9z"/>
	<path class="st3" d="M801.9,287.3c-0.7,0-1.5-0.8-1.5-1.4c0-0.6,1-1.4,1.6-1.4c0.6,0,1.5,1,1.5,1.5
		C803.4,286.6,802.5,287.4,801.9,287.3z"/>
	<path class="st2" d="M181.9,286c0,0.8-0.7,1.3-1.6,1.3c-0.7,0-1.4-0.7-1.4-1.4c0-0.7,0.8-1.4,1.5-1.3
		C181.3,284.6,181.9,285.3,181.9,286z"/>
	<path class="st2" d="M169.3,287.3c-0.7,0-1.6-0.7-1.6-1.3c0-0.6,0.9-1.5,1.6-1.5c0.6,0,1.4,0.8,1.4,1.4
		C170.7,286.6,170,287.3,169.3,287.3z"/>
	<path class="st2" d="M114.3,286c0,0.8-0.7,1.3-1.5,1.4c-0.7,0-1.4-0.7-1.4-1.4c0-0.7,0.8-1.4,1.4-1.4
		C113.7,284.6,114.4,285.2,114.3,286z"/>
	<path class="st2" d="M561.2,296.3c-1,0-1.7-0.5-1.6-1.3c0-0.6,0.8-1.3,1.5-1.3c0.8,0,1.5,0.6,1.5,1.4
		C562.5,295.8,562,296.3,561.2,296.3z"/>
	<path class="st2" d="M181.9,317.3c0,0.7-0.7,1.4-1.5,1.4c-0.7,0-1.4-0.7-1.4-1.4c0-0.7,0.7-1.4,1.4-1.4
		C181.3,315.9,181.9,316.5,181.9,317.3z"/>
	<path class="st2" d="M844.7,312.2c0-0.6,0.8-1.4,1.5-1.4c0.7,0,1.5,0.7,1.5,1.4c0,0.6-0.8,1.4-1.5,1.4
		C845.6,313.5,844.7,312.7,844.7,312.2z"/>
	<path class="st2" d="M266.8,317.3c0,0.7-0.7,1.4-1.4,1.4c-0.9,0-1.5-0.5-1.5-1.3c0-0.8,0.7-1.4,1.5-1.4
		C266.2,315.9,266.8,316.6,266.8,317.3z"/>
	<path class="st2" d="M846.3,315.9c0.7,0,1.4,0.7,1.4,1.4c0,0.6-0.8,1.4-1.5,1.4c-0.7,0-1.6-0.8-1.6-1.5
		C844.7,316.6,845.5,315.9,846.3,315.9z"/>
	<path class="st1" d="M329.4,296.3c-0.8,0.1-1.3-0.3-1.4-1.1c-0.1-0.8,0.7-1.5,1.5-1.5c0.8,0,1.4,0.7,1.4,1.3
		C331,295.8,330.4,296.3,329.4,296.3z"/>
	<path class="st2" d="M844.7,307c0-0.6,0.8-1.4,1.5-1.4c0.7,0,1.5,0.8,1.5,1.4c0,0.6-0.8,1.4-1.5,1.4
		C845.6,308.4,844.7,307.6,844.7,307z"/>
	<path class="st3" d="M628.6,298.6c-0.7,0-1.5-0.7-1.5-1.3c0-0.7,0.7-1.4,1.3-1.4c0.8,0,1.6,0.6,1.6,1.3
		C630.1,297.8,629.4,298.6,628.6,298.6z"/>
	<path class="st3" d="M214,292.7c-0.7,0-1.3-0.7-1.3-1.4c0-0.7,0.7-1.4,1.4-1.4c0.8,0,1.6,0.8,1.6,1.5
		C215.6,292.1,214.7,292.7,214,292.7z"/>
	<path class="st1" d="M566.4,302.6c0.8,0,1.5,0.7,1.5,1.4c0,0.7-0.7,1.3-1.4,1.3c-0.8,0-1.6-0.6-1.6-1.3
		C564.8,303.2,565.6,302.6,566.4,302.6z"/>
	<path class="st2" d="M525.4,288.3c0,0.6-0.9,1.4-1.6,1.4c-0.7,0-1.4-0.7-1.4-1.4c0-0.7,0.8-1.4,1.5-1.3
		C524.6,287,525.4,287.7,525.4,288.3z"/>
	<path class="st2" d="M676.6,287.3c-0.9,0-1.5-0.6-1.5-1.4c0-0.9,0.9-1.3,1.6-1.4c0.6,0,1.3,0.7,1.3,1.4
		C678.1,286.7,677.3,287.4,676.6,287.3z"/>
	<path class="st2" d="M69.8,316.1c0,0.7-0.7,1.4-1.5,1.4c-0.7,0-1.4-0.7-1.4-1.4c0-0.7,0.7-1.4,1.4-1.4
		C69.2,314.8,69.8,315.4,69.8,316.1z"/>
	<path class="st1" d="M559.7,290.5c0,0.8-0.8,1.4-1.6,1.3c-0.7-0.1-1.2-0.5-1.2-1.3c0-0.9,0.6-1.5,1.4-1.4
		C559.1,289.1,559.7,289.7,559.7,290.5z"/>
	<path class="st3" d="M214.1,315.9c0.8,0,1.6,0.7,1.6,1.4c0,0.6-0.9,1.4-1.6,1.4c-0.7,0-1.3-0.7-1.3-1.4
		C212.6,316.6,213.3,315.9,214.1,315.9z"/>
	<path class="st2" d="M528,312c-0.8,0-1.4-0.6-1.4-1.3c0-0.7,0.8-1.3,1.6-1.3c0.7,0,1.4,0.7,1.4,1.4C529.5,311.6,528.9,312,528,312z
		"/>
	<path class="st2" d="M800.4,317.3c0-0.6,0.8-1.3,1.5-1.4c0.6,0,1.6,0.8,1.6,1.4c0,0.6-1,1.4-1.6,1.4
		C801.3,318.7,800.4,317.9,800.4,317.3z"/>
	<path class="st2" d="M174.8,287.3c-0.7,0-1.4-0.7-1.4-1.4c0-0.7,0.6-1.3,1.3-1.4c0.7,0,1.6,0.8,1.6,1.4
		C176.4,286.6,175.6,287.3,174.8,287.3z"/>
	<path class="st2" d="M176.4,317.3c0,0.6-0.8,1.4-1.5,1.4c-0.7,0-1.4-0.6-1.4-1.4c0-0.7,0.7-1.4,1.4-1.4
		C175.5,315.9,176.4,316.6,176.4,317.3z"/>
	<path class="st2" d="M102.8,286c0,0.7-0.7,1.4-1.4,1.4c-0.7,0-1.5-0.7-1.5-1.4c0-0.6,0.8-1.4,1.5-1.4
		C102.1,284.5,102.8,285.3,102.8,286z"/>
	<path class="st7" d="M452.2,316c0,0.4,0,0.8,0,1.2C451.5,316.8,451.5,316.4,452.2,316z"/>
</g>
</svg>
