<?xml version="1.0" encoding="utf-8"?>
<!-- Generator: Adobe Illustrator 21.1.0, SVG Export Plug-In . SVG Version: 6.00 Build 0)  -->
<svg version="1.1" id="Layer_1" xmlns="http://www.w3.org/2000/svg" xmlns:xlink="http://www.w3.org/1999/xlink" x="0px" y="0px"
	 viewBox="0 0 700 965" style="enable-background:new 0 0 700 965;" xml:space="preserve">
<style type="text/css">
	.st0{fill:#FEFEFE;}
	.st1{fill:#E64A29;}
	.st2{fill:#E64A2A;}
	.st3{fill:#E64929;}
	.st4{fill:#E64828;}
	.st5{fill:#E32818;}
	.st6{fill:#F4A88D;}
	.st7{fill:#E33017;}
	.st8{fill:#E32E0F;}
	.st9{fill:#E32B1A;}
	.st10{fill:#FEFEFD;}
	.st11{fill:#E2270D;}
</style>
<g>
	<path class="st0" d="M349.4,834.2c-114.1,0-228.3,0-342.4,0.1c-4.8,0-5.7-0.9-5.7-5.7c0.2-228.8,0.2-457.5,0-686.3
		c0-4.8,0.9-5.7,5.7-5.7c228.8,0.2,457.5,0.2,686.3,0c4.8,0,5.7,0.9,5.7,5.7c-0.2,228.8-0.2,457.5,0,686.3c0,4.8-0.9,5.7-5.7,5.7
		C578.6,834.1,464,834.2,349.4,834.2z"/>
	<path class="st1" d="M414.6,626.5c0.4-15.2,2.6-30,7.6-44.4c9.6-27.5,29.2-40.8,58.4-39.7c9.8,0.3,19.4,1.2,28.6,5
		c15.1,6.2,24.5,20.3,24.3,36.5c0,2.9-0.6,4.3-3.7,4.1c-4.2-0.2-8.4-0.3-12.5,0c-9.4,0.7-16.3,1-19.6-11.8
		c-3.7-14.5-24.3-16.9-36.5-6.1c-5,4.5-8.1,10.2-9.9,16.5c-3.8,12.9-4.1,26.3-4.3,40.2c35-31.7,74.8-22.3,89.1,21.1
		c6.4-9.3,14.7-15.3,25.5-17.3c-0.4-2-1.9-2.7-3.4-3.4c-16.3-8-21.6-21.8-21.4-38.9c0.2-17.3,7-31,22.6-38.6
		c20.7-10.1,42.4-10.3,63.1-0.2c17.2,8.3,24,23.6,23.4,42.4c-0.6,18-8.7,30.9-25.8,37.2c-0.3,1.5,0.6,1.6,1.5,1.8
		c16.9,3.7,26.6,14.7,29.4,31.3c2,11.4,2,23.1-1.2,34.5c-4.9,17.7-16.9,28.4-34.5,32.8c-16.5,4.2-33.1,4-49.5-0.4
		c-16.6-4.4-27.9-14.7-33.3-31.5c-17.3,30.2-41.7,40.6-75.6,32.8c-17.4-4-29.3-14.1-35.5-31c-4.7-13-6.6-26.5-6.9-40.2
		C411.8,648.2,411.8,637.3,414.6,626.5z"/>
	<path class="st2" d="M374.8,508.2c-108.9,0-216.5,0-325.5,0c54.4-90.5,108.4-180.3,162.8-270.9
		C266.5,327.8,320.4,417.5,374.8,508.2z"/>
	<path class="st2" d="M521.8,401.6c-3.3-3.8-5.8-2.9-9.3,0.6c-34.3,34.6-68.8,69-103,103.6c-4.1,4.2-6.4,4.4-10.1,0
		c-4.4-5.1-9.4-9.6-14.3-14.2c-2-1.9-2.8-3.2-0.4-5.5c8.2-7.8,16.3-15.8,24.4-23.7c2.2-0.5,3.4-2.3,4.8-3.8
		c25.4-25.4,50.8-50.8,76.2-76.2c1.4-1.4,3.5-2.5,3.6-4.9c2.3-3.8-1.6-4.8-3.3-6.4c-34.1-34.4-68.2-68.8-102.7-102.9
		c-4.8-4.7-5.1-7.5,0.2-11.6c6-4.6,10.3-14.7,16.7-14.3c5.6,0.3,10.8,9.2,16,14.4c30.5,30.5,61.1,60.9,91.4,91.5
		c3.9,3.9,5.8,4.6,10.1,0.2c34.3-34.6,68.9-68.8,103.3-103.3c3.7-3.7,5.9-4.6,9.6-0.1c3.8,4.6,8.3,8.7,12.4,13
		c3.6,4.2,0.7,6.9-2.2,9.8c-33.4,33.4-66.9,66.8-100.2,100.2c-1.7,1.7-4.2,3-4.6,5.9c-1.3,3.7,2.1,4.8,3.9,6.5
		c34.3,34.5,68.6,69.1,103.2,103.4c4.1,4.1,4.5,6.3,0,10.1c-5.5,4.6-10.4,9.8-15.6,14.8c-3.4-0.2-5.1-3-7.1-5.1
		c-32.4-32.3-64.8-64.7-97.2-97.1C525.9,404.5,524.6,402.1,521.8,401.6z"/>
	<path class="st3" d="M411.9,728.2c-10.4,1.9-16.1-2.1-21.1-12c-26.1-51.2-53.3-101.8-80.1-152.6c-0.5-0.9-0.4-2.4-2.6-2.3
		c0,2.9,0,5.8,0,8.6c0,50.3,0,100.7,0.1,151c0,4.5,0.3,7.6-6.2,7.6c-7.1,0.1-5.9-3.9-5.9-8c0-57.3,0-114.6,0.1-171.9
		c0-2.7-2.4-7.7,2.8-7.6c5.1,0.1,11.5-3.5,15.3,4c9.6,19,19.6,37.8,29.5,56.7c18.7,35.7,37.3,71.4,57.2,107c0-55.7,0-111.3,0-167
		c0.2-0.1,0.4-0.3,0.6-0.3c11.2-1.3,11.2-1.3,11.2,9.7c0,19.9-0.5,39.9,0.1,59.8c1.1,36.6-0.8,73.2-0.2,109.8
		C412.7,723.2,413.5,725.8,411.9,728.2z"/>
	<path class="st2" d="M110.5,731.5c-7.7,0.1-15.3-0.8-22.7-3c-25.4-7.7-36.9-27.6-35.1-54.6c0.3-4.4,3.3-3.3,5.5-3
		c2.5,0.3,6.5-2.3,7.2,2.7c0.2,1.8,0,3.7,0,5.6c0,23.6,12.7,39,36.1,42.8c12.6,2.1,25.1,0.8,36.3-6c14.2-8.7,21.3-21.5,20.6-38.3
		c-0.7-16.2-9.6-26.8-24.2-32.5c-11.9-4.6-24.1-8.4-36.1-12.6c-4.6-1.6-9.2-3.2-13.6-5.2c-21.6-9.9-30.1-24.9-27.4-48.4
		c2.2-19.6,17.7-35.7,38.4-39.7c12.9-2.5,25.9-2,38.6,1.4c20.2,5.5,33,23.5,32,44.3c-0.1,2.4-0.3,4.4-3.2,3.9
		c-2.9-0.5-6.6,1.9-8.7-1.9c-0.3-0.6-0.1-1.4-0.2-2.1c-1.6-33.6-26-41.1-54.2-37c-17.6,2.6-27.8,12.8-30.3,28.9
		c-3,19.1,3.5,32.8,19.8,41.1c9.3,4.8,19.6,7,29.5,10.1c8.8,2.8,17.5,6,26,9.7c36,15.6,31,64.5,6.9,81.5
		C140.2,727.3,127.4,731.5,110.5,731.5z"/>
	<path class="st4" d="M189.4,700.4c13,21.1,41.3,28.9,63.7,17.5c13.1-6.7,19.8-17.9,21.2-32.2c0.8-8.3,0.7-16.7,0.7-25
		c0.1-38,0.1-76-0.1-114c0-4.5,0.8-6.2,5.6-6c4.1,0.2,6.7,0,6.7,5.7c-0.3,43.8,0.1,87.6-0.2,131.4c-0.3,33.8-20.1,53.2-54,53.6
		c-5.8,0.1-11.6-0.1-17.3-1c-26-4.2-41-19.7-41.4-46c-0.8-47-0.2-94.1-0.2-141.1c8.8-2.9,10.3-1.9,10.3,6.9
		c0,40.9-0.1,81.9,0.1,122.8c0,7.1,0.2,14.3,2,21.3C187.1,696.5,187.4,698.8,189.4,700.4z"/>
	<path class="st5" d="M540.5,373.6c-1.9-3.4,1.6-4.2,3.1-5.6c33.3-33.5,66.7-67,100.3-100.2c3.1-3.1,4.4-6,3.7-10
		c2.5,2.1,6.1,3.4,1.7,7.7c-36,35.7-71.7,71.6-107.6,107.4C541.3,373.2,540.9,373.4,540.5,373.6z"/>
	<path class="st6" d="M411.9,728.2c0.1-2.5,0.4-5.1,0.4-7.6c0-56.2,0-112.4,0-168.6c0-10.9,0-10.9-11.4-10.2c10-4,12.6-2.5,12.7,7.3
		c0,23.3,0,46.7,0.1,70c0,2.5-0.8,5.1,1,7.4c0,10.9,0,21.7,0,32.6c-1.8,3-0.9,6.3-1,9.5c-0.1,17.6,0,35.2-0.1,52.8
		C413.4,723.6,414.9,726.5,411.9,728.2z"/>
	<path class="st7" d="M521.8,401.6c3.4-1.7,4.2,1.7,5.6,3.2c32,31.9,63.9,63.8,95.9,95.7c2.8,2.8,5.7,5.3,8.6,8
		c-3.4,3.9-4.3-0.7-5.6-2c-31.6-31.4-63-62.9-94.5-94.4C528.5,408.6,525.2,405.1,521.8,401.6z"/>
	<path class="st8" d="M189.4,700.4c-0.5,2.4-1.3,2.2-2,0.2c-2-5.7-3.7-11.4-3.6-17.5c0.1-43.4,0-86.7,0-130.1
		c0-11.6,0.4-9.5-9.7-9.7c2.5-4.6,6.9-2.2,10.1-2c3.1,0.2,1.5,3.8,1.5,5.9c0.1,42.2,0.1,84.4,0.1,126.5
		C185.7,682.8,186.5,691.7,189.4,700.4z"/>
	<path class="st9" d="M493.7,377.3c2.3,2.4-0.5,3.2-1.5,4.1c-26.4,26.6-52.9,53-79.4,79.5c-0.9,0.9-1.6,3.4-3.7,1.3
		C437.3,434,465.5,405.6,493.7,377.3z"/>
	<path class="st0" d="M504.5,672.3c-0.1,6.6-0.5,14.5-3.3,22c-3.4,8.9-9.3,14.8-19.1,16.1c-10.2,1.4-18.7-1.5-24.8-10.2
		c-9.9-14-10.1-45.7-0.3-59.6c9.8-13.9,34.1-12.2,42.3,2.9C502.8,649.9,504.5,658.9,504.5,672.3z"/>
	<path class="st0" d="M620,675.1c-0.3,3.9-0.3,7.9-1,11.8c-2.9,16.3-12.6,24.2-29,23.7c-15.2-0.4-24.1-8.9-26.5-25
		c-1.1-7.4-0.8-14.8,0.5-22.1c2.6-14.2,11.8-22.2,25.8-22.6c14.9-0.4,24.4,6.4,28.4,20.4C619.5,665.8,619.5,670.4,620,675.1z"/>
	<path class="st0" d="M591.2,563.8c16.4,0,25.2,9.4,25.4,27.1c0.2,18.4-9.1,28.8-25.5,28.7c-16.4-0.1-25.2-9.9-25.3-28.1
		C565.7,573.3,574.4,563.8,591.2,563.8z"/>
	<path class="st10" d="M321.7,477.9c-73.5,0-145.7,0-219.2,0c36.6-60.8,72.8-121,109.6-182.2C248.8,356.7,285,416.8,321.7,477.9z"/>
	<path class="st11" d="M104.8,479.5c71.6,0,143.2,0,214.9,0c0,0.2,0,0.4,0,0.6c-71.7,0-143.4,0-215.1,0
		C104.7,479.9,104.8,479.7,104.8,479.5z"/>
</g>
</svg>
