<?xml version="1.0" encoding="utf-8"?>
<!-- Generator: Adobe Illustrator 21.1.0, SVG Export Plug-In . SVG Version: 6.00 Build 0)  -->
<svg version="1.1" id="Layer_1" xmlns="http://www.w3.org/2000/svg" xmlns:xlink="http://www.w3.org/1999/xlink" x="0px" y="0px"
	 viewBox="0 0 700 965" style="enable-background:new 0 0 700 965;" xml:space="preserve">
<style type="text/css">
	.st0{fill:#FEFEFE;}
	.st1{fill:#545356;}
	.st2{fill:#3E3D40;}
	.st3{fill:#EBEBEB;}
	.st4{fill:#3F3E41;}
	.st5{fill:#424144;}
	.st6{fill:#464547;}
	.st7{fill:#444346;}
	.st8{fill:#474649;}
	.st9{fill:#434245;}
	.st10{fill:#FCFCFC;}
	.st11{fill:#FBFBFB;}
	.st12{fill:#FDFDFD;}
</style>
<g>
	<path class="st0" d="M351.4,833.4c-114.8,0-229.6,0-344.4,0.1c-4.8,0-5.7-0.9-5.7-5.7c0.2-229.6,0.2-459.2,0-688.8
		c0-4.8,0.9-5.7,5.7-5.7c229.6,0.2,459.2,0.2,688.8,0c4.8,0,5.7,0.9,5.7,5.7c-0.2,229.6-0.2,459.2,0,688.8c0,4.8-0.9,5.7-5.7,5.7
		C581,833.4,466.2,833.4,351.4,833.4z"/>
	<path class="st1" d="M693,482.1c0,1.2,0,2.4-1.6,2.5c-1.9,0.1-3.7,0.1-5.6,0.1c-224.2,0-448.3,0-672.5,0c-2.1,0-4.3,0.2-6.3-0.3
		C5.5,484,6,482.8,7,481.8c2.5-1,5.1-0.5,7.6-0.5c223.6,0,447.2,0,670.8,0C688,481.4,690.6,480.6,693,482.1z"/>
	<path class="st2" d="M572.4,470.9c-5.2,0-10.3,0-15.5,0c3.5-6.3,2.7-43.6-1.9-48.3c15.6,0.6,30.4-0.9,45.1,1.2
		c0.9,0.1,1.8,0.5,2.7,0.7c6.3,1.9,12.3,4.9,12.4,12.4c0.1,7.7-5.9,10.4-12.3,12.2c-1.1,0.3-2.1,0.6-3.7,1.1
		c6.3,7,12.3,13.7,18.3,20.3c-7,0.9-14.2,2.8-18-6.3c-1.1-2.7-4.3-4.4-5.7-7c-5-8.8-13.3-6.9-21-6.8c-1.2,0-2.6,0.4-2.5,1.8
		C570.6,458.5,568.2,465,572.4,470.9z"/>
	<path class="st2" d="M503.2,472c-9.4-0.4-18.6-1.7-26.3-7.7c-11.5-9-11.9-24.4-1-33.9c13.1-11.4,41.2-11.3,54.2,0
		c10.6,9.3,10.4,24.5-0.6,33.5C521.8,470.2,512.6,471.5,503.2,472z"/>
	<path class="st2" d="M207.7,427.9c-1.6,1.7-3,3.3-4.5,4.7c-1.8,1.7-2.4,3.7-5.7,0.1c-8-8.6-30.6-5.6-37.5,3.9
		c-6.2,8.7-3.5,20.8,6,25.8c9,4.6,18.4,4.1,27.9,1.6c4.7-1.2,3.6-4.7,3.6-7.8c0-3.9-3.1-2.6-5.1-2.7c-2.8-0.2-5.8-0.7-8.3,0.1
		c-8.8,2.7-6.5-2.9-6.1-7.1c10.9,2.9,21.9,0.5,33.4,1.7c-3.4,3.2-3.4,7.2-2.4,10.6c1.5,5.6-1.5,7.5-5.5,9
		c-13.8,5.3-27.7,5.9-41.6,0.6c-10.3-3.9-16.2-12-16-21.5c0.2-11,6.6-17.6,16.1-21.5c10.9-4.4,22.3-4.5,33.6-1.3
		C199.4,425.2,203.3,426.6,207.7,427.9z"/>
	<path class="st2" d="M639.2,471.1c1.3-16.4,0.6-32,0.6-48.2c16.4-0.8,34.5,0.8,52.8-0.9c0,2.5,0,5.3,0,7.9
		c-12.8-2.8-25.6-0.8-38.3-1.4c-2.4-0.1-3,1.1-3.2,3.4c-1.2,11.2-1.3,11.4,10.1,11.1c7.1-0.1,14.4,1.3,21.4-1.5
		c1.2,2.9,0.6,5.9,0.4,9.4c-9.1-3.4-18.3-1.3-27.4-2c-3.8-0.3-4.6,1.4-4.7,4.9c-0.2,11.6-0.4,11.8,11.2,11.5
		c10.4-0.3,20.8,1.4,31.7-1.5c0,2.3,0.1,4.3,0,6.4c-0.1,1.4,0,2.8-2.3,2.3c-14.3-3.2-28.8-0.6-43.2-1.4
		C645.2,471,642,471.1,639.2,471.1z"/>
	<path class="st2" d="M398.5,471.1c-1.6,0-2.7,0-3.9,0c-4.9-0.2-10.3,1.8-11.2-6.7c-0.6-5.5-5.2-8.8-11.8-7.6c-4.3,0.7-9,0.8-13.2,0
		c-7.5-1.4-11.3,3.2-11.7,8.6c-0.6,7.4-5,5.5-9,5.7c-1.1,0.1-2.3-0.1-4.1-0.2c6.9-13.3,15.5-25.6,19.8-39.3
		c3.3-10.6,9.4-8.8,16.3-8.9c2.6,0,5.5-0.7,4.4,3.9c-0.3,1.2,1.3,2.9,2.1,4.3C383.6,444.1,390.8,457.2,398.5,471.1z"/>
	<path class="st2" d="M133.1,471c-1,0.1-2.1,0.1-3.3,0.2c-5,0.1-10,1.3-11.2-6.5c-1-6.2-5.8-8.8-12.5-7.8c-4.1,0.6-8.5,0.6-12.6,0
		c-6.4-0.9-11,1.5-11.8,7.5c-1.3,9.4-7.3,6.5-13.3,6.5c5.7-11,11.2-21.5,16.7-31.9c1.5-2.9,2.5-6.2,4.6-8.6c2.1-2.4-0.3-6.8,2.5-7.3
		c5-0.9,10.2-0.3,15.3-0.2c0.8,0,1.5,0,1.9,1.4C114,441.2,125.7,454.6,133.1,471z"/>
	<path class="st3" d="M693,482.1c-3.5,0-7-0.1-10.5-0.1c-222.4,0-444.7,0-667.1,0c-2.8,0-5.6-0.1-8.4-0.1c2.4-2.2,5.3-1.2,8-1.2
		c223.3,0,446.7,0,670,0C687.7,480.7,690.7,479.5,693,482.1z"/>
	<path class="st2" d="M438.5,471c-7.4,0-12.7,0-19.2,0c2.5-2.1,3.7-3.9,3.6-6.7c-0.3-10.5-0.2-21,0-31.4c0.1-3.4-1-4.6-4.3-4.3
		c-6.2,0.5-12.5-1.1-18.7,1.5c-1.4-2.8-1.1-5.5-0.4-7.9c19.4,0,38.6,0,58.2,0c0.8,1.3,0.1,3.4,0.2,5.4c0.1,2.1-0.5,2.8-2.9,1.9
		c-5.4-1.9-11.1-0.4-16.6-0.9c-3.9-0.4-4.6,1.5-4.5,4.9c0.2,10.2,0.2,20.5,0,30.7C433.8,467,434.4,469.1,438.5,471z"/>
	<path class="st2" d="M46.3,471c-7.5,0-12.8,0-19.2,0c2.5-2,3.5-3.9,3.5-6.5c-0.2-10.5-0.2-21,0-31.5c0-3.2-0.8-4.8-4.3-4.5
		c-5.6,0.4-11.2-0.7-16.7,0.8c-1.1,0.3-2.5,1.1-2.7-0.6c-0.3-2-0.4-4.2,0.1-6.2c0.3-1.5,1.8-0.5,2.9-0.5c17.7,1,35.3,1.3,53-0.2
		c1.2-0.1,2.5-0.6,2.7,0.9c0.3,2,0.3,4.2-0.1,6.2c-0.3,1.6-1.6,0.6-2.7,0.4c-20.9-3.4-21-3.3-21,17.5c0,5.8,0.2,11.7-0.1,17.5
		C41.5,467.2,42.4,469.2,46.3,471z"/>
	<path class="st4" d="M285.3,472c-17.7-1.8-35.3-0.2-52.4-1c0-16,0-31.7,0-47.9c3.8,0,8.6,0,13.6,0c-2.8,5.1-1.4,10.6-1.5,15.8
		c-0.2,7.4-0.1,14.9,0,22.3c0,1.8-0.4,4.1,2.4,4.1c12.5-0.2,25,0.9,37.8-0.8C286.2,466.7,285.8,469.6,285.3,472z"/>
	<path class="st4" d="M316.6,470.9c-5.7,0-11.2,0-17,0c4.2-4.8,4.3-42.9,0.1-48c5.8,0,11.3,0,16.8,0
		C312.7,427.9,312.6,465.7,316.6,470.9z"/>
	<path class="st5" d="M671,515.8c0.1,5.6-1,10.7-5.5,14.5c-5.2,4.4-12.4,4.1-17.1-0.5c-6.1-5.8-6.5-19.1-0.9-25.8
		c4.3-5.1,11.6-6.4,17-2.8C669.6,504.6,671.1,509.9,671,515.8z"/>
	<path class="st6" d="M589.8,515.4c0-2.8-0.4-5.6,0.1-8.4c0.4-2.7-3.3-11.4,5.4-4.5c0.4,0.3,2.2-1.3,3.3-1.9
		c6.2-3.3,12.5-1,14.4,5.7c2.3,7.7,0.9,15.7,1.1,23.6c0,1.7-1,2.4-2.6,2.5c-2.2,0.2-2.8-1-2.8-3c0-5.1,0.1-10.2,0-15.3
		c-0.1-4.5-0.4-9.8-6.4-9.6c-5.9,0.1-7.1,5.1-7.1,10.1c0,4.7,0,9.3,0,14c0,1.8,0.4,3.9-2.5,3.9c-2.8,0-2.8-1.9-2.8-3.8
		C589.9,524.3,589.9,519.8,589.8,515.4C589.9,515.4,589.8,515.4,589.8,515.4z"/>
	<path class="st7" d="M579.3,517c0,2.8,0,5.6,0,8.4c0,5.4,0,5.3-5.5,4.4c-0.8-0.1-1.9,1-2.8,1.5c-7.3,4-13.9,1.3-14.9-6.9
		c-0.9-7.1-0.4-14.4-0.6-21.6c0-2,0.7-3.1,2.9-2.9c2.3,0.2,2.4,1.8,2.4,3.5c0,5.4-0.1,10.7,0.1,16.1c0.2,4.1,0.8,8.6,6.1,8.5
		c5.1-0.1,6.9-4.2,7-8.8c0.1-5.1,0-10.2,0-15.4c0-1.9-0.1-3.8,2.7-3.8c2.8,0,2.8,1.9,2.8,3.8c0,4.4,0,8.8,0,13.3
		C579.4,517,579.4,517,579.3,517z"/>
	<path class="st8" d="M545.8,519c-0.3,5.8-0.4,11.6-1,17.4c-0.4,4.8-3.2,8.1-7.8,9.8c-1.5,0.6-3.2,1.4-4-1c-0.5-1.4-0.7-2.9,1.1-3.5
		c6.4-2.2,5.8-7.7,5.9-12.8c0.1-8.1,0-16.3,0.1-24.4c0-1.9-0.9-4.5,2.5-4.6c3.3-0.1,2.8,2.4,2.9,4.4c0,4.9,0,9.8,0,14.6
		C545.6,519,545.7,519,545.8,519z"/>
	<path class="st9" d="M680,515.7c0-3.9,0-7.9,0-11.8c0-1.3,0.7-3.8,1-3.5c4.6,5.9,7.8-2.3,11.8-0.9c0.6,0.2,1.2,1.3,1.3,2.1
		c0.2,1.4,0.2,2.9-1.6,3.3c-7.5,1.6-7.2,7.4-7.3,13c0,3.7,0,7.4,0,11.1c0,1.6,0.1,3.3-2.3,3.4c-2.8,0.2-2.9-1.6-2.9-3.6
		C680,524.5,680,520.1,680,515.7z"/>
	<path class="st4" d="M630.4,516.4c0,4,0.1,7.9,0,11.9c0,1.7,0.7,4-2.3,4.2c-2.9,0.2-2.7-1.8-2.7-3.7c0-8.4,0-16.8,0-25.2
		c0-1.6-0.1-3.4,2.3-3.5c2.8-0.1,2.7,1.8,2.7,3.7C630.5,508,630.5,512.2,630.4,516.4z"/>
	<path class="st10" d="M582.5,445.2c-0.5,0-0.9,0-1.4,0c-11.7,0-13.2-1.9-11.2-13.7c0.3-2,0.9-3,2.9-2.9c8.1,0.3,16.3-0.9,24.3,1.2
		c3.6,0.9,6.7,2.7,6.8,6.9c0.1,4.6-3.1,6.4-6.9,7.6C592.3,445.7,587.4,445.1,582.5,445.2z"/>
	<path class="st0" d="M503,466.1c-3-0.4-6.1-0.5-9-1.3c-9.2-2.3-14.8-9.2-14.8-17.8c0-8.7,5.5-15.5,14.7-17.9
		c6.2-1.6,12.4-1.6,18.6,0.1c9.1,2.6,14.4,9.5,14.1,18.3c-0.2,8.4-5.6,15-14.6,17.2C509.1,465.5,506,465.7,503,466.1z"/>
	<path class="st11" d="M364.6,428.8c4.2,8.1,7.7,14.8,11.6,22.2c-7.6,0-14.5,0-22.1,0C357.5,443.8,360.7,437,364.6,428.8z"/>
	<path class="st11" d="M110.9,451.2c-7.8,0-14.6,0-22.3,0c3.6-7.4,6.9-14.2,10.9-22.4C103.6,436.8,107.1,443.7,110.9,451.2z"/>
	<path class="st12" d="M665.8,516c0.1,7-3.7,12.5-8.5,12.5c-4.6,0-8.3-5.1-8.4-11.8c-0.2-7,3.3-12.5,8.2-12.8
		C661.9,503.6,665.7,508.8,665.8,516z"/>
</g>
</svg>
