<?xml version="1.0" encoding="utf-8"?>
<!-- Generator: Adobe Illustrator 21.1.0, SVG Export Plug-In . SVG Version: 6.00 Build 0)  -->
<svg version="1.1" id="Layer_1" xmlns="http://www.w3.org/2000/svg" xmlns:xlink="http://www.w3.org/1999/xlink" x="0px" y="0px"
	 viewBox="0 0 700 965" style="enable-background:new 0 0 700 965;" xml:space="preserve">
<style type="text/css">
	.st0{fill:#FEFEFE;}
	.st1{fill:#FAA929;}
	.st2{fill:#FCD89D;}
</style>
<path class="st0" d="M622.3,399.3c24.7,0,49.5,0,74.2,0c1.4,0,1.6,0.3,1.6,1.6c0,59.5,0,119.1,0,178.6c0,1.4-0.3,1.6-1.6,1.6
	c-231,0-462,0-693,0c-1.4,0-1.6-0.3-1.6-1.6c0-59.5,0-118.9,0-178.4c0-1.5,0.3-1.8,1.8-1.8c203,0,406.1,0,609.1,0
	c0.5,0.7,0.1,1.3-0.2,1.9c-2,4.1-4.1,8.1-6.4,12.1c-0.4,0.7-0.8,1.7-1.8,1.6c-1-0.1-1.3-1.1-1.6-1.8c-1.4-2.7-2.8-5.4-4.1-8.2
	c-0.7-1.5-1.7-2-3.3-1.4c-5.1,1.6-5.1,1.5-5.1,6.8c0,1.1,0,2.2,0,3.4c0,1.4-0.7,2-2.1,1.8c-2.5-0.4-5.1-0.9-7.6-1.4
	c-2.6-0.5-6.4,1.8-7.2,4.3c-0.3,1.1,0.4,1.8,1,2.4c2.4,2.6,4.6,5.3,7,7.9c1.3,1.4,2.5,2.9,3.8,4.3c1.4,1.6,1.1,2.2-1,2.7
	c-1.5,0.3-2.6,0-3.7-1.2c-3.1-3.4-6.1-7-9.3-10.3c-0.6-0.6-1.1-1.7-2.3-0.8c-1.3,1-1.6,2.5-0.7,3.6c1.9,2.3,3.8,4.6,5.6,6.9
	c0.4,0.6,1.1,1.1,0.8,1.9c-0.3,0.8-1.2,0.7-1.9,0.8c-3,0.3-6,0.7-9.1,0.8c-1.8,0.1-2.9,0.9-3.5,2.7c-2.2,6.6-3,13.3-3,20.3
	c0,9.5,2.4,18.3,6.4,26.8c1.1,2.2,2.5,4.2,3.9,6.2c0.6,0.9,1.4,1.2,2.6,1.1c4.6-0.6,9.2-1.2,13.8-1.6c0.3,0,0.5-0.1,0.8-0.1
	c10.2-0.1,20.4-0.3,30.5,0.6c2.4,0.2,4.7,0.2,7.1,0.4c8.9,0.7,17.8,0.7,26.8,0.4c5.3-0.2,10.5-1,15.7-2c1.8-0.4,3-1.2,3.8-2.8
	c3.7-6.7,6.1-13.9,7-21.6c0.9-6.9,0.6-13.8-1-20.7c-0.7-2.9-0.7-2.9-3.6-2.3c-8.3,1.8-16.4,4.3-24.7,6.1c-0.9,0.2-1.8,0.4-2.7,0.5
	c-1,0.1-1.6-0.3-1.1-1.4c1.5-3,3-5.8,6.9-6.3c7.1-0.8,13.5-3.7,20-6.3c1.2-0.5,1.8-1,1.2-2.4c-0.8-2-1.4-2.6-3-2
	c-3.1,1.1-6.1,2.3-9,3.6c-2.5,1.1-5.2,1.6-7.8,2.1c-0.7,0.1-1.5,0.3-2-0.4c-0.4-0.6,0.1-1.3,0.4-1.8c1.2-2.3,2.7-4.6,4-6.9
	c0.6-1.1,1.6-1.6,2.9-1.7c3-0.3,5.9-0.4,8.9-0.7c1-0.1,1.1-0.4,0.6-1.2c-1.2-2.2-2.8-3.4-5.4-3.3c-2.4,0.1-4.8,0-7.1,0
	c-0.7,0-1.5,0-2.2-0.1c-2.4-0.4-2.7-1-1.5-3.1c0.9-1.5,1.9-2.9,2.8-4.3c1.1-1.7,1-2.6-0.3-3.4c-1.5-0.9-2,0.3-2.7,1.2
	c-3.1,4.1-6,8.4-9,12.6c-0.3,0.4-0.6,0.9-1,1.3c-0.8,0.8-1.5,0.8-2.1-0.3c-1.2-2.4-1.9-4.9-2.7-7.5c-0.4-1.3,0.5-2.1,1.4-2.9
	c2.7-2.2,5.2-4.7,7.9-6.9c0.6-0.5,1.7-1,1.1-2c-0.6-1-1.7-0.9-2.7-0.5c-2.9,1.4-5.5,3.1-8.4,4.5c-2.3,1.2-2.5,1.1-3.9-1.1
	c-0.6-1-1-2-1.6-3C626.3,404.6,625.3,401.3,622.3,399.3z"/>
<path class="st1" d="M622.3,399.3c2.9,0.3,3.4,3,4.6,4.9c1.4,2.2,2.5,4.5,3.8,6.8c0.5,0.9,0.8,1.2,1.9,0.5c2.7-1.7,5.5-3.2,8.3-4.7
	c2.5-1.3,3.1-1.2,5.2,1.1c-3.2,2.8-6.3,5.7-9.6,8.4c-1.4,1.2-2.5,2.1-1.3,4.2c1,1.7,1.2,3.8,2.1,5.6c0.2,0.4,0.1,1.1,0.6,1.1
	c0.4,0.1,0.7-0.5,1-0.8c2.7-3.8,5.4-7.6,8.1-11.5c0.7-1,1.4-2.1,2.2-3c0.7-0.8,1.3-1.7,2.6-0.9c1.8,1.2,2.2,2.3,1.3,3.7
	c-1.3,2-2.6,3.9-3.9,5.8c-0.2,0.3-0.3,0.7-0.6,1.2c3.9,1,7.9,0.4,11.7,0.5c3.3,0.1,5.6,2.1,6.1,5.5c-3.8,0.3-7.6,0.6-11.3,0.9
	c-0.5,0-0.8,0-1.1,0.5c-1.8,3.1-3.6,6.1-5.6,9.5c4.3-0.5,8.2-1.6,11.9-3.2c2.4-1,4.9-1.8,7.2-2.9c1.4-0.6,2.1-0.3,2.8,1
	c1.7,3.5,1.7,3.5-1.8,4.9c-3.3,1.3-6.4,2.8-9.8,3.8c-3,1-6.1,1.8-9.3,2.1c-2.8,0.3-4.5,1.7-5.7,4c-0.5,0.9-1,1.8-1.6,2.9
	c6.2-1.2,12.1-2.8,18.1-4.3c4.3-1.1,8.6-2,12.8-3.1c0.9-0.2,1,0.2,1.2,0.8c1.8,7.2,2.5,14.5,1.7,21.9c-0.8,7.5-3.1,14.4-6.1,21.2
	c-1.6,3.6-4.1,4.9-7.7,5.6c-11.1,2-22.3,1.7-33.4,1.5c-6.8-0.1-13.6-0.7-20.4-1.2c-7.9-0.5-15.7-0.4-23.5-0.2
	c-5.2,0.1-10.4,0.8-15.5,1.8c-1.1,0.2-1.8-0.5-2.3-1.2c-5.2-7-8-15-9.8-23.5c-1.1-5.5-1-11-0.7-16.5c0.3-5.1,1.5-10.1,3.2-15
	c0.6-1.7,1.8-2,3.3-2.1c3.7-0.3,7.4-0.6,11.4-0.9c-1.2-2.2-3-3.7-4.3-5.6c-0.8-1.1-1.7-2-2.5-3c-1-1.2-1.2-2.3,0.1-3.5
	c0.6-0.6,1-1.6,1.8-2.1c4.2,3.8,7.7,8.2,11.5,12.4c0.9,0.9,1.6,1.1,2.5,0.9c0.7-0.2,1.5-0.3,2.3-0.4c-1.1-2.2-3-3.7-4.5-5.5
	c-2.6-3.2-5.5-6.3-8.3-9.5c-0.7-0.7-0.6-1.2-0.1-2c1-1.5,2.2-2.6,3.5-3.7c1-0.9,2.2-1.2,3.8-0.8c2.9,0.8,5.8,1.2,8.8,1.7
	c0.9,0.2,0.9-0.5,0.9-1.1c0-2.4,0-4.9,0-7.3c0-1.1,0.3-1.7,1.3-2.1c1.7-0.8,3.5-1.3,5.3-2c1.1-0.4,1.9,0,2.5,1.2
	c1.6,3.4,3.3,6.7,4.9,10c0.3,0.5,0.7,1.7,1.4,0.4c2.7-4.9,5.6-9.7,7.7-14.9c0.5,0,1.1,0,1.6,0c0.8,0.4,1.2,1.2,1.5,2
	c2.1,4.1,4.1,8.3,6.2,12.4c0.2,0.5,0.5,0.9,0.7,1.4c0.4,0.8,1.1,1.2,2,0.7c0.9-0.5,0.2-1.2,0-1.7c-1.7-4.1-3.6-8.1-5.1-12.2
	c-0.3-0.8-0.9-1.7-0.1-2.6C620.4,399.3,621.4,399.3,622.3,399.3z"/>
<path class="st0" d="M619.5,399.3c-0.1,2,1.1,3.6,1.7,5.3c1.3,3.4,2.9,6.7,4.3,10c0.2,0.5,1.1,1.4,0.1,1.6c-0.9,0.2-2.1,1.4-3-0.1
	c-0.6-1.1-1.1-2.2-1.6-3.3c-2.2-4.5-4.5-9-6.7-13.4C616.1,399.3,617.8,399.3,619.5,399.3z"/>
<path class="st1" d="M237.4,475.9c0.5-3.1,0.9-6.2,1.5-9.3c1.3-6.5,3.5-12.6,8-17.5c3.5-3.7,7.7-6,12.9-6.6c4.2-0.4,8,0.3,11.6,2.1
	c3.1,1.6,5.3,4.6,7.4,7.3c4,5.2,6.1,11.2,5.6,17.8c-0.1,1.4-0.3,2.7-0.5,4.1c-0.2,1-0.8,1.6-1.8,2.1c-6.7,3.2-13.7,5.6-20.6,8.3
	c-4.7,1.8-4.9,2.1-3.3,6.8c0.4,1.1,0.8,2.2,1.2,3.3c1.8,4.8,5.9,6.3,10.4,7c3,0.5,4.4-0.8,5.2-4.4c0.4-1.6,0.4-3.7,2.3-4.2
	c2.4-0.6,4.6,0.3,6.5,1.9c2.2,1.9,2.4,4.5,2,7c-0.5,3.5-1.8,6.8-3.4,10c-1.6,3-4,4.8-7,5.9c-7.4,2.7-14.7,3.2-22-0.4
	c-4.3-2.1-7.3-5.6-9.6-9.7c-3.2-5.5-4.9-11.6-6.1-17.8c-0.6,4.6-1,9.2-2.2,13.6c-1.5,5.7-4,10.7-9.3,13.9c-2.2,1.3-4.6,2.1-7.1,2.3
	c-6.4,0.6-12.3-0.6-17.5-4.8c-0.7-0.6-1.3-1.3-1.7-2.1c-0.4-0.8-0.6-1.9-2-1.8c-1.3,0.1-2,0.8-2.5,1.9c-0.9,2.2-2.1,4.2-4.4,5.3
	c-1.5,0.7-2.9,1.5-4.6,0.8c-0.2-0.1-0.6-0.2-0.7-0.3c-1-2.2-2.3-1.1-3.6-0.4c-1,0.5-2.1,0.8-3.2,0.8c-6,0-11.9,0.1-17.9,0
	c-1.9,0-3.9-0.3-5.3-2c-1.1-1.4-1.1-3,0.5-3.8c2.7-1.3,3.2-3.8,3.3-6.2c0.3-7-0.5-13.9-1-20.8c-0.3-4.1-0.7-8.2-1.3-12.3
	c-0.6-4.3-0.7-8.7-2.8-12.7c-0.7-1.4-1.5-2.9-3.5-2.6c-1.7,0.3-3.6,2.6-3.6,4.4c0,14.7-0.1,29.4,0,44.1c0,2.3,1.1,4.4,3.1,5.7
	c1.5,1,1.6,2.6,0.4,3.9c-1.2,1.3-2.7,1.8-4.4,1.8c-4.3,0-8.6-0.2-12.9,0.1c-2.4,0.2-4.8,0.2-7.1-0.5c-0.9-0.2-1.5-0.7-2.2-1.2
	c-1.8-1.4-1.7-3.4,0.3-4.3c2.7-1.3,3.5-3.7,3.5-6.1c-0.4-15.2-0.3-30.4-0.3-45.6c0-2.7-3.8-4.6-6.1-3.2c-2.7,1.7-4,4.3-4.1,7.3
	c-0.1,5.8-0.4,11.7,0,17.5c0.6,8.2,0.2,16.4,0.3,24.5c0,2,0.8,3.5,2.3,4.7c1.1,0.8,2.4,1.4,1.9,3.2c-0.5,1.9-1.8,2.9-3.6,3.1
	c-7.3,0.9-14.6,0.3-21.9,0.4c-1.4,0-2.8-0.4-4.1-1.2c-1.9-1.2-2.1-3.5-0.1-4.7c2.6-1.5,3.4-3.7,3.4-6.5c0-6.2-0.1-12.3,0-18.5
	c0.2-9-0.7-17.9-0.4-26.9c0-1.6-1.2-2.2-2.1-3.1c-0.5-0.5-1.2-0.7-1.8-1.1c-1.6-1.2-1.7-2.9-0.2-4.3c2.3-2.2,5.4-2.7,8.2-3.9
	c3.5-1.4,7.1-2.6,10.4-4.3c1.7-0.9,3.5-0.7,5.2-0.3c1.3,0.3,2.2,1.3,2.1,2.9c-0.1,1.4-0.5,3.3,1.1,3.9c1.5,0.5,2.4-1.1,3.2-2.4
	c3.5-5.3,10.2-5.8,15.6-4.4c3.1,0.8,5.6,2.2,7.2,5.1c1.3,2.4,2.4,2.4,4,0.1c1.8-2.5,3.6-4.6,6.9-5.2c6.9-1.2,12.9,1.3,16.2,7.4
	c2.3,4.2,3.2,8.9,4.1,13.5c0.9,5.2,2.1,10.4,2.7,15.7c0.5,4.6,0.9,9.2,1.4,13.8c0.5,4.8-0.2,9.7,0.7,14.5c0.3,1.6,0.9,2.9,2.5,3.9
	c1.6,0.9,1.5,0.1,1.5-1c-0.2-4.8,0.4-9.6-0.4-14.4c-0.1-0.7,0-1.5,0-2.2c0.3-23.1-0.6-46.2-0.4-69.4c0-2.9-1.2-5.4-3.2-7.5
	c-2.1-2.1-2.1-3,0-5.1c2.3-2.2,5.2-3.2,8.1-4.2c3.4-1.2,6.8-2,9.7-4.3c1.5-1.2,3.5-1.4,5.2-0.3c1.5,1,2.1,2.5,2.1,4.4
	c0,11.4,0,22.9,0,34.3c0,0.5-0.1,1.1,0.1,1.6c0.5,1,1.3,1.8,2.2,0.6c2.4-3.1,5.8-2.8,9-2.6c3,0.2,5.6,1.5,7.9,3.5
	c6.2,5.3,9,12.4,10.6,20.2c0.6,3.2,1.2,6.3,1.8,9.5C237.2,475.8,237.3,475.9,237.4,475.9z"/>
<path class="st1" d="M462.2,518c-2.8,0-5.7,0-8.5,0c-3-0.1-4.9-1.9-4.8-4.4c0-0.8,0.3-1.5,1-1.8c3-1.1,3.2-3.8,3.3-6.3
	c0.3-7.7-0.4-15.3-1.8-22.8c-1.2-6.4-2.8-12.7-4.5-18.9c-0.6-1.9-1.3-4-3.5-4.9c-1.4-0.6-2.9,0-3.2,1.4c-0.7,3.2-0.6,6.5-0.2,9.8
	c0.1,0.6,0.1,1.3,0.2,2c0,6.2,0.1,12.3,0,18.5c-0.1,5.9,0.5,11.7,0.4,17.6c0,1.5,0.8,2.4,2,3.2c1.4,0.9,2.4,2,1.9,3.7
	c-0.5,1.6-1.9,2.3-3.7,2.7c-3.1,0.7-6.2,0.5-9.2,0.5c-4.1,0-8.3,0-12.4-0.3c-1.2-0.1-2.5-0.7-3.1-1.8c-0.7-1.3-1.2-0.9-1.9-0.1
	c-4,4.5-11.6,5.1-16.8,0.2c-0.7-0.7-1.6-1.2-2.2-1.9c-1-1-2-1-3.1,0c-3.9,3.5-8.5,5.7-13.7,5.9c-3.9,0.2-7.6-1.3-11-3.4
	c-5.3-3.3-8-8.1-8.6-14.3c-0.5-4.7-0.5-9.2,0.8-13.8c1.3-4.3,4.3-7.2,7.5-10.1c5-4.5,11.2-6.7,17.4-8.9c0.9-0.3,1.5-0.8,1.8-1.8
	c1.3-4.5,0.5-8.7-1.8-12.7c-1.3-2.2-3.6-2.1-5.6-2.4c-1.1-0.2-2.2,0-3.4,0c-0.6,0-1.2,0-1.5,0.7c-0.2,0.7,0.3,1.2,0.8,1.5
	c1.8,1.1,2.7,2.5,2.8,4.8c0.2,4.6-0.8,7.4-4.9,8.6c-3.8,1.1-8.1,1.2-11.1-2.3c-1.2-1.5-1.8-3.2-2.2-4.9c-1.3-5.5,1.5-10.9,6.5-14
	c4.1-2.5,8.5-3.4,13.2-3.5c4.6-0.1,9.2-0.3,13.7,0.7c6.4,1.4,10.1,5.3,11.8,11.4c1.8,6.4,2.6,13,3.2,19.6c0.4,4,0.6,8,0.8,12
	c0.3,5,0.7,9.9,0.8,14.9c0,1.4,0.6,2.8,2.3,2.9c3.5,0.1,2.8,0.7,4,3.7c0.1,0.2-0.1,0.6,0.1,0.8c0.4,0.7,0,2.1,0.9,2.1
	c0.8,0.1,1.8-0.7,2.3-1.6c0.9-1.5,1.6-3.2,1.6-5c0-3.8,0.2-7.7,0-11.5c-0.8-10.9-0.1-21.8-0.3-32.7c0-1.9-0.8-3.2-2.3-4.3
	c-4.3-3.2-4.8-4.7,0.4-7c5.1-2.3,10.3-4.4,15.3-6.9c3-1.5,6.1,0.5,6.5,3.8c0.1,0.6,0.1,1.2,0.8,1.4c0.6,0.1,0.9-0.2,1.2-0.8
	c3.9-7.4,10.9-6.6,16.5-2.4c6,4.5,8.6,10.9,10,17.9c1.3,6.6,2.4,13.3,3.2,20c0.7,5.6,1.3,11.1,1.8,16.7c0.3,3.1-0.2,6.4,1.1,9.5
	c0.4,1,0.9,1.9,1.9,2.3c1.3,0.5,1.8,1.4,1.7,2.8c-0.2,1.4-0.8,2.6-2.2,3c-1.9,0.5-3.8,0.7-5.8,0.8C467.3,518.1,464.7,518,462.2,518z
	"/>
<path class="st1" d="M86,470.6c0,6.1,0,10.8,0,15.5c0.1,6.9,0.5,13.8,0.5,20.8c0,2.2,0.7,4.3,3.2,5.3c1.4,0.6,1.3,1.9,0.8,3.2
	c-0.9,2-2.7,2.6-4.7,2.6c-7.4,0.1-14.8,0-22.2,0c-0.4,0-1.1,0.1-1.3-0.2c-1.5-1.6-2.9-1.4-4.8-0.3c-1.4,0.8-3.2,1-4.9,0.9
	c-5.6,0-11.3-0.2-16.9,0.1c-3.2,0.1-6.3,0.2-9.4-0.9c-0.4-0.1-0.7-0.3-1.1-0.4c-1.2-0.5-1.9-1.3-1.9-2.6c0-1.3,0.7-2.2,1.9-2.4
	c3.1-0.8,3.6-3.4,3.6-5.8c0.1-14.3,0.4-28.6,0-42.9c-0.4-11.4-0.1-22.8-0.2-34.3c0-3.2-0.6-6.3-0.4-9.4c0.1-0.9-0.5-1.3-1.2-1.6
	c-1.3-0.4-2.6-0.4-3.7,0.5c-1.3,1.1-2.3,2.5-3.1,4c-2.5,4.6-4.2,9.5-6.5,14.2c-1.9,3.8-6.1,4.8-9.3,2.3c-2.3-1.8-2.4-4.4-1.9-6.8
	c1.7-8.8,3.6-17.5,5.5-26.2c0.3-1.1,0.8-2.4,1.8-3.2c1.6-1.2,3.3-1.1,4.9,0.6c1.3,1.4,2.7,1.8,4.6,1.8c6.7-0.1,13.5,0.3,20.2-0.1
	c8.2-0.4,16.5-0.2,24.7-0.3c1.3,0,2.4-0.6,3.3-1.4c3.5-3,5.7-1.4,6.7,2.3c2.5,9.2,4.3,18.5,6.3,27.9c0.3,1.6-1.3,4.4-2.8,5.4
	c-2.4,1.5-5.6,0.8-7.1-0.8c-2.1-2.1-3.1-4.8-4.2-7.4c-1.6-3.8-3.4-7.5-5.7-10.8c-1.3-1.8-3.3-2.6-5-2.1c-1.2,0.3-1.6,0.9-1.6,2.1
	c0,9.2-0.3,18.4,0.1,27.6c0.4,8.3,0.3,16.5,0.2,24.7c0,11.4,0.7,22.8,0.5,34.3c-0.1,2.8,2,5.2,4.8,5.9c1.9,0.4,4.5-2.1,4.7-4.6
	c0.8-7.3,0.6-14.7,0.3-21.9c-0.4-8.1-0.1-16.1-0.2-24.1c0-2.1-0.8-3.4-2.5-4.5c-4.2-2.7-4.1-4.7,0.5-6.9c3.1-1.5,6.3-2.7,9.6-3.7
	c3.1-1,5.8-2.9,9-3.5c3-0.6,4.5,0.7,4.7,3.7C86.2,455.2,86,463.6,86,470.6z"/>
<path class="st1" d="M334.4,445.7c0.5-6.8-0.1-13.5-0.3-20.1c-0.1-2.6-0.7-5.1-3.4-6.6c-1.5-0.8-1.4-2.9-0.2-4.2
	c2.3-2.7,5.5-3.9,8.7-5c3.6-1.2,7.2-2.5,10.5-4.4c3-1.8,6.2,0.3,6.3,3.7c0.5,17.3,0,34.6,0.5,51.9c0.4,14.5,0.1,29.1,0.3,43.6
	c0,3,0.7,5.7,3.5,7.4c1,0.6,1.3,1.9,1.2,2.9c-0.3,1.6-1.2,3-2.9,3.6c-1.4,0.5-2.9,0.8-4.4,0.8c-5,0-10.1,0.1-15.1,0
	c-1.9-0.1-3.9-0.2-5.8-0.7c-1.8-0.4-2.8-1.6-3.1-3.3c-0.3-1.7,0.4-2.7,1.9-3.7c1.9-1.2,2.9-3.1,2.9-5.6c-0.1-12.1,0.1-24.2-0.1-36.3
	c-0.1-3.7-0.2-7.5-0.3-11.5c-0.8,2.1-0.7,4.1-1.1,6c-0.4,2.1-1.5,3.5-3.5,3.9c-1.8,0.4-4.3-0.9-5.2-2.8c-0.6-1.2-1.1-2.5-1.6-3.7
	c-0.5-1.3-1.2-1.7-2.6-1.1c-3,1.3-5.2,3.6-6.8,6.3c-2.6,4.1-3.8,8.7-4.2,13.7c-0.2,2.8-0.6,5.7-0.3,8.4c0.6,4.3-0.2,8.7,0.7,13
	c0.4,2-0.4,3.9-0.4,5.9c0,1.5,0.5,2.4,1.8,2.9c1.8,0.7,3.1,1.7,2.6,3.9c-0.5,2.1-2.3,3.5-4.8,3.5c-3.9,0-7.8,0-11.7,0
	c-3.5,0-7,0-10.5,0c-2.1,0-3.9-1.5-4.3-3.6c-0.3-1.6,0.6-2.8,2.8-3.6c1.4-0.5,2-1.4,2-3c-0.1-12.6,0.1-25.1-0.1-37.7
	c-0.1-3.5-0.3-7.1-0.3-10.6c0-1.8-1.4-2.4-2.5-3.3c-1.2-1-3.1-1.7-2.6-3.5c0.4-1.7,2-2.8,3.7-3.5c5.5-2.1,11-4.3,16.4-6.5
	c1.7-0.7,3.4-0.8,5.1,0c1.3,0.6,2.1,1.5,2.1,3c0,2.4,0,4.8,0,7.1c0,0.8,0.1,1.6,0.8,1.9c0.9,0.4,1-0.6,1.4-1.1
	c1.9-2.5,3.7-5.1,6-7.2c3.3-3,7.1-4,11.5-3.3C330.9,443.6,332.6,444.3,334.4,445.7z"/>
<path class="st1" d="M527,420.1c0,2.2-0.1,4.4,0,6.5c0.7,15.1,0,30.3,0.5,45.4c0.3,9.9,0.1,19.8,0.3,29.7c0,1.7,0.5,2.9,2.3,3.3
	c1.1,0.3,2.3,0.7,2.4,2.2c0.1,1.7,0,3.5-1.7,4.4c-3.6,2.1-7.5,3.4-11.5,4.8c-2.7,0.9-5.5,1.7-8.1,2.6c-1.1,0.4-2.1,0.3-3.1,0.2
	c-1.1-0.1-1.9-0.7-1.8-2.1c0.1-0.8,0.5-2.1-0.6-2.4c-0.9-0.3-1.4,0.9-1.9,1.5c-2.6,3-5.8,4.6-9.7,3.9c-6.5-1.1-11.8-4-15.1-9.9
	c-2.7-4.8-4.2-9.9-4.8-15.3c-0.5-4.5-0.6-9-0.2-13.4c0.7-9.7,1.7-19.3,6.7-28c2.1-3.7,4.4-7.4,8.1-9.9c4-2.7,10.2-2.3,13.9,0.7
	c0.6,0.5,1.2,1.5,2.1,1c0.9-0.4,0.5-1.4,0.5-2.2c0-6-0.2-12,0.1-18.1c0.2-3.4-2-4.7-4.2-6.2c-2.5-1.8-2.8-4.6-0.5-6.1
	c0.7-0.5,1.6-0.7,2.4-0.6c1.4,0.2,2.7-0.2,4-0.8c5.1-2.8,10.7-4.7,16-7.2c2-0.9,3.4,0.1,3.7,2.2c0.7,4.1,0.2,8.3,0.4,12.4
	C527,419.1,527,419.6,527,420.1z"/>
<path class="st1" d="M647.6,509.4c-5.7-0.5-11.6-0.9-17.5-1.6c-6.1-0.7-12.1-1.7-18.2-2.5c-5.4-0.7-10.7-1.8-16.1-2.7
	c-3.5-0.5-7.1-0.8-10.7-1.3c-4.4-0.6-8.8-0.8-13.3-1.2c-1.5-0.1-1.7-1.5-2.3-2.4c-0.3-0.5,0.2-0.7,0.8-0.8c2.8-0.4,5.7-1,8.5-1.1
	c7.1-0.5,14.2-1.1,21.3-0.8c6,0.2,12.1,0.4,18.1,0.8c4,0.3,8,0.5,11.9,0.8c4.7,0.4,9.4,0.4,14,0.3c6.7-0.1,13.4-0.8,20-2.1
	c1.2-0.2,1.1,0.2,0.8,0.9c-0.5,0.9-1.2,1.8-1.9,2.7c-3.1,3.8-6.6,7.2-10.6,10.1C650.9,509.6,649.4,509.1,647.6,509.4z"/>
<path class="st1" d="M647.9,511.3c-21.8,15-56.6,11.4-74-8.7c0.3-0.7,0.9-0.4,1.4-0.4c5.9,0.3,11.7,0.8,17.5,1.9
	c4.7,0.9,9.5,1.4,14.3,2.1c5.4,0.9,10.9,1.8,16.3,2.7c2.7,0.4,5.4,0.6,8.2,0.9C636.8,510.2,642.2,510.7,647.9,511.3z"/>
<path class="st2" d="M680.2,422.8c-3.9,0-6.4-2.4-6.4-6.2c0-3.6,2.7-6.3,6.3-6.3c3.6,0,6.5,2.8,6.5,6.2
	C686.7,420,683.8,422.8,680.2,422.8z"/>
<path class="st1" d="M482.4,421.2c-3.8,0-6.2-2.3-6.1-6.1c0-3.8,2.4-6.3,6.2-6.3c3.6,0,6.7,2.9,6.5,6.4
	C488.6,418.5,486,421.5,482.4,421.2z"/>
<path class="st0" d="M647.2,457c1.8-0.4,3.6-0.4,5.1-1.1c2.9-1.4,4.7-0.1,6.2,2.1c0.7,1.1,1.9,1.8,2.4,3.1c0.3,0.7,0.9,0.6,1.5,0.6
	c1.7,0,3.4,0,5.3,0c-0.7-2.5-2.4-4.5-3.4-6.8c-0.5-1.2-1-1.7,0.9-2.1c3.5-0.7,4-0.4,4.7,3.1c1.8,9-0.4,17.2-3.9,25.4
	c-1,2.5-2.3,4.8-3.7,7c-0.7,1.2-1.9,1.8-3.2,1.5c-3-0.8-6.1-0.5-9.2-0.6c-8.1-0.5-16.2-1.4-24.3-2.5c-1.7-0.2-2.5-1.2-2.6-2.8
	c-0.2-2.7-0.7-5.3-0.7-8c-0.1-3.6-0.7-7.2-0.5-10.8c0-1,0.2-1.6,1.4-1.9c5.5-1.6,11-3.3,16.5-5c1.2-0.4,2.1-0.1,2.7,1.1
	c0.6,0.9,1.3,1.8,2,2.6c0.4,0.5,4.1,0.3,4.5-0.2c0.5-0.5,0-0.9-0.2-1.2C648.4,459.4,647.8,458.3,647.2,457z"/>
<path class="st0" d="M589.3,460.9c3.7,0,7.4,0.1,11.1,0c2.3-0.1,4-1.8,5.8-2.9c1.3-0.8,1.9-0.5,2.6,0.4c1.5,1.9,2.5,3.9,2.4,6.6
	c-0.2,6.3-0.1,12.7-0.1,19.1c-5.7-0.2-11.3-1.2-16.9-1.7c-6.4-0.6-12.7-1.4-19.1-1.6c-1.8-0.1-3.7-0.5-5.5-0.3
	c-2.3,0.3-3.3-1-3.6-2.7c-1.1-5.2-2.3-10.3-2.1-15.7c0-1.5,0.5-2.1,2-1.9c2.1,0.4,3.4-0.7,4.4-2.4c0.3-0.4,0.7-0.8,1-1.2
	c3-4,3-4,7.4-2c3.2,1.5,3.2,1.5,1,4.3c-0.4,0.6-0.8,1.2-1.3,1.9c3.8,0.5,7.2,0.3,10.2-2.7c3.2-3.3,7.1-5.9,10.7-8.9
	c0.6-0.5,0.9-0.2,1.4,0c0.3,0.1,0.5,0.4,0.7,0.7c2.2,2.1,2.2,2.5-0.4,4c-3.9,2.3-7.8,4.6-11.7,6.9
	C589.3,460.7,589.3,460.8,589.3,460.9z"/>
<path class="st0" d="M611.7,435.3c-1.1-3.6-2.1-7.1-3.3-10.6c-0.4-1.1-0.2-2,0.4-2.9c2-3.2,3.3-6.8,5.5-10.1c1.6,2.6,2.3,5.4,3.7,8
	c1.3,2.6-0.2,5.2-0.1,7.7C618,431.8,614.9,433.5,611.7,435.3z"/>
<path class="st0" d="M584.9,440.6c1.9,0.1,4,0.4,6.1,0.5c1.6,0.1,2.3,1.8,3.4,2.8c0.4,0.5-0.2,0.8-0.5,1.1c-2.1,1.9-4.3,3.7-6.3,5.6
	c-0.6,0.5-1,0.1-1.4-0.1c-2.5-0.9-5-1.9-7.4-2.8c-0.6-0.2-0.8-0.4-0.3-1.1c1.2-1.7,2.2-3.5,3.3-5.2
	C582.4,440.2,583.7,440.8,584.9,440.6z"/>
<path class="st0" d="M623.6,447.6c-0.2-3.1,0.2-5.7-0.5-8.2c-0.8-2.8,1.3-4.1,3-5.6c1.4-1.2,2.9-2.3,4.2-3.5
	c0.8-0.7,1.1-0.5,1.5,0.4c1.2,2.7,1.4,5.1-1,7.6C628.3,441.1,626.2,444.3,623.6,447.6z"/>
<path class="st0" d="M580.6,419.6c2.9,0.2,5.6,1.4,8.5,2c0.7,0.1,0.6,0.5,0.6,1c0,2.1,0,4.2,0,6.8
	C586.5,425.9,583.7,422.6,580.6,419.6z"/>
<path class="st0" d="M637.4,439.5c1.6-2.5,3-4.4,4.2-6.6c1.2-2.4,2.5-4.3,5.6-3.3c-1.8,2.9-3.6,5.9-5.4,9
	C640.7,440.3,639.2,439.1,637.4,439.5z"/>
<path class="st0" d="M638,446.3c-1.5,2.5-2.8,4.6-4,6.6c-0.4,0.6-1,0.8-1.7,0.8c-1,0-2.1-0.1-3.3,0.1c1.3-2.2,2.5-4.5,4.1-6.4
	C634.1,446.3,636,446.9,638,446.3z"/>
<path class="st0" d="M596.6,435.3c-0.4-3.6,0.3-6.6-0.5-9.6c-0.1-0.4,0-1.1,0.6-0.9c1.1,0.3,2.2,0.7,3.3,1.2c0.8,0.3,0.2,0.7,0,1.1
	C599,429.6,597.9,432.2,596.6,435.3z"/>
<path class="st0" d="M606.8,445.3c-2-1.2-2.9-3.3-4.5-4.7c-0.4-0.3-0.2-0.8,0-1.3c0.7-1.2,1.3-2.5,2.1-4.1
	C605.5,438.7,606.1,442,606.8,445.3z"/>
<path class="st0" d="M563.8,441.7c3.5,0.4,6.4-0.7,9.4-0.2c-0.1,1.3-1.2,2.2-1.7,3.4c-0.2,0.5-0.4,0.5-0.9,0.3
	C568.6,444,566.2,443.4,563.8,441.7z"/>
<path class="st0" d="M615.8,446.5c-1.2-0.3-2.5-0.4-2.3-2.1c0.2-1.5-1-3.3,1.6-4c1.1-0.3,1.2,0,1.3,0.9
	C616.5,443,616.1,444.7,615.8,446.5z"/>
<path class="st0" d="M564.3,455.1c-0.2-1.6-0.3-3.1,0-4.6c0.3-1.5,0.9-1.5,1.9-1c0.5,0.3,1.2,0.1,1.6,0.8
	C566.6,451.9,565.4,453.5,564.3,455.1z"/>
<path class="st0" d="M596.1,412.9c1.2,1.4,1.3,2.8,2,4c0.2,0.4,0.7,0.9,0.2,1.4c-0.3,0.3-0.7,0.1-1.1-0.1c-0.5-0.2-1.2-0.1-1.1-1
	C596.2,415.8,596.1,414.5,596.1,412.9z"/>
<path class="st0" d="M626.6,425.4c-0.6-0.1-0.7-0.4-0.7-0.8c-0.2-1.5,1.2-1.5,1.9-2.1c0.3-0.2,0.9,0.3,0.8,0.6
	C628.3,424.1,627.2,424.6,626.6,425.4z"/>
<path class="st0" d="M205.1,478.6c-0.2-7.2,1-13.9,3.6-20.4c0.5-1.1,1.1-2.2,1.8-3.2c1.3-1.8,3.1-1.6,4.1,0.3
	c2.1,3.8,2.6,8.1,3.5,12.2c1,4.5,1.5,9.2,1.2,13.8c-0.4,6.5-1.3,12.9-5,18.6c-1.3,2-3.4,2.6-4.9,0.3c-2.2-3.3-2.8-7.1-3.5-10.8
	C205.3,485.7,205,482.1,205.1,478.6z"/>
<path class="st0" d="M265.9,467.5c-0.1,3.9-1.5,6.8-5.1,8.4c-1.2,0.5-2.5,1.1-3.7,1.8c-1.3,0.8-1.9,0.4-2.5-0.9c-1-1.9-1.1-4-1.4-6
	c-0.7-4.7-0.5-9.5,0.4-14.2c0.4-2.3,2.1-3.7,4.2-4.5c0.8-0.3,1.7,0.1,2.1,0.7C262.7,457.5,265.8,462,265.9,467.5z"/>
<path class="st0" d="M388.9,498.8c0,1.3,0,2.6,0,4c0,2.3-1.1,3.7-3.3,4.1c-2.5,0.5-5-0.8-6.2-3c-1.1-1.9-1.4-4-1.5-6.2
	c-0.1-5.1-0.8-10.3,2.3-15c1.2-1.8,3-2.9,4.9-3.8c1.7-0.8,2.5-0.1,2.7,1.8C388.4,486.7,388.8,492.7,388.9,498.8z"/>
<path class="st0" d="M506.4,480.3c0.2,7-0.9,13.5-3.9,19.7c-1.1,2.2-2.7,2.5-4.4,0.8c-2.6-2.5-3.5-5.9-4.3-9.2
	c-1-4.5-2-9.1-1.6-13.7c0.6-7.5,1.3-15,4.3-22c1-2.3,2.1-2.4,3.9-0.7c2.4,2.3,3.2,5.4,3.9,8.4C505.7,469,506.6,474.7,506.4,480.3z"
	/>
<path class="st1" d="M679.4,412.9c2.5,0,3.6,0.8,3.5,2.4c0,0.1,0.1,0.3,0,0.4c-1.6,1.3-1.4,2.7-0.1,4.1c0,0-0.1,0.4-0.2,0.4
	c-0.3,0.1-0.5,0-0.7-0.2c-0.5-0.7-1-1.4-1.4-2.1c-0.2-0.4-0.4-0.9-1-0.7c-0.6,0.2-0.4,0.7-0.5,1.1c-0.1,0.6,0.4,1.8-0.5,1.8
	c-1.1,0-0.5-1.2-0.5-1.9c-0.1-1.2,0.1-2.5-0.1-3.8C677.8,413.1,678.4,412.7,679.4,412.9z"/>
<path class="st0" d="M482.3,420c-2.7,0-4.9-2-4.9-4.7c0-2.3,1.5-5.4,5.3-5.3c2.6,0.1,4.7,2.3,4.6,5.2
	C487.3,418.2,485.4,420,482.3,420z"/>
<path class="st0" d="M679.9,416c-0.7,0.1-0.9-0.4-0.9-1.1c0-1.3,0.9-0.9,1.5-0.9c0.8,0,1.4,0.3,1.2,1.1
	C681.6,416.2,680.7,416,679.9,416z"/>
<path class="st1" d="M479.8,414.9c0-0.3,0-0.5,0-0.8c0.2-0.9-0.6-2.2,0.6-2.7c1.4-0.5,3-0.3,4.3,0.6c1.1,0.7,1,2.1,0.2,2.7
	c-1.2,1-0.9,1.6-0.1,2.6c0.2,0.3,0.9,0.9,0.3,1.3c-0.6,0.4-1.1,0-1.3-0.7c0-0.1-0.1-0.3-0.2-0.3c-0.8-0.5-0.6-2.1-1.6-1.9
	c-1.2,0.2-0.3,1.4-0.6,2.2c-0.1,0.4-0.3,0.8-0.7,0.8c-0.5,0.1-0.8-0.3-0.9-0.9C479.8,416.9,479.8,415.9,479.8,414.9
	C479.8,414.9,479.8,414.9,479.8,414.9z"/>
<path class="st0" d="M482.6,414.4c-0.6,0-1.3,0.1-1.2-0.9c0-0.7,0.2-1.1,1-1c0.8,0.1,1.7,0.1,1.7,1.1
	C484.1,414.4,483.4,414.4,482.6,414.4z"/>
</svg>
