<?xml version="1.0" encoding="utf-8"?>
<!-- Generator: Adobe Illustrator 21.1.0, SVG Export Plug-In . SVG Version: 6.00 Build 0)  -->
<svg version="1.1" id="Layer_1" xmlns="http://www.w3.org/2000/svg" xmlns:xlink="http://www.w3.org/1999/xlink" x="0px" y="0px"
	 viewBox="0 0 700 965" style="enable-background:new 0 0 700 965;" xml:space="preserve">
<style type="text/css">
	.st0{fill:#FEFEFE;}
	.st1{fill:#083392;}
	.st2{fill:#FDFCFB;}
</style>
<g>
	<path class="st0" d="M320.4,562.8c-106.2,0-212.3,0-318.5,0c-1.3,0-1.6-0.3-1.6-1.6c0-31.9,0-63.7,0-95.6c1.1,0.2,1.1,1.1,1.3,1.8
		c0.6,2,1.2,4.1,1.8,6.2c0.6,2.1,1.3,2.7,3.5,2.6c3.9-0.2,7.8-0.7,11.8-1.1c5.5-0.6,11.1-1.2,16.6-1.9c1.9-0.2,2.4,0.2,2.4,2.2
		c0,7.5,0.2,15.1,0,22.6c-0.2,5.8-0.5,11.7-0.6,17.5c-0.1,2.9,1.1,3.9,4,3.4c2.6-0.5,5-1.4,7.5-2.1c1.1-0.3,1.9-1.2,2-2.4
		c0.1-1.2,0.4-2.4,0.4-3.6c-0.1-4.7,0.3-9.4,0.4-14.1c0.2-7.5,0.3-15.1,0.3-22.6c0-1.9,0.3-2.1,2.1-2.5c2-0.4,4-0.3,6.1-0.5
		c1.9-0.2,3.8-0.2,5.7-0.4c3.7-0.3,5.1,1.2,4.8,5c-0.4,3.9-1,7.7-1.5,11.6c-0.6,5.3-1.8,10.6-1.6,16.1c0.2,4.5,1.4,8.6,4,12.2
		c4.9,6.9,13.7,7.5,20,1.5c3.7-3.5,6.2-8,8.7-12.3c1.7-2.9,3.5-5.8,5.4-8.5c0.5-0.8,1.1-1.6,2.2-1.4c1.1,0.2,1.3,1.3,1.5,2.2
		c1.3,6.3,3.5,12.2,7.1,17.7c0.7,1.1,1.4,2.1,2.3,3.1c1.7,1.8,4.1,1.6,5.3-0.5c1.4-2.3,2.7-4.6,4-6.9c0.8-1.3,0.5-2.5-0.3-3.7
		c-2.8-4.3-4.6-8.9-5.4-14c-0.9-5.7-0.6-11.3,1-16.9c0.1-0.3,0.2-0.6,0.2-0.8c1.2-4.1,0.9-4.7-2.9-6.6c-2.4-1.2-4.8-2.6-7.2-3.8
		c-2.6-1.3-3.8-0.9-5.1,1.6c-3.5,6.8-7.2,13.4-11.3,19.8c-3.1,4.8-6.4,9.4-10,13.8c-0.5,0.6-1.1,1.2-1.7,1.7
		c-1.1,0.9-2.4,1.2-3.7,0.6c-1.3-0.7-1.9-1.8-1.9-3.3c0-1.4,0.3-2.8,0.5-4.1c1-6.7,1.9-13.4,2.9-20.2c1.3-8.6-4.3-15.5-13-16.2
		c-1.3-0.1-2.7,0.2-4,0.3c-3.7,0.2-7.4,0.2-11.1,0.6c-2.2,0.2-2.7-0.2-2.7-2.4c0-0.9,0-1.7,0-2.6c0.2-10.8-0.3-21.6-0.4-32.4
		c-0.1-4.7-0.1-9.5-0.6-14.2c-0.2-2.1-1.6-3.3-3.7-2.8c-2.6,0.6-5.3,1.3-7.9,2.1c-1.7,0.6-2.2,1.4-2.3,3.4
		c-0.2,4.8,0.3,9.5,0.4,14.3c0.3,10,0.2,20,0.3,29.9c0,1.2,0.3,2.3,0.3,3.5c0,1.3-0.5,1.9-1.8,2c-4.8,0.5-9.6,0.6-14.4,1.1
		c-5.8,0.5-11.5,1-17.3,1.5c-1.7,0.1-2.8,1.1-4.2,1.8c0-19.7,0-39.3,0-59c0-1.5,0.4-1.6,1.7-1.6c50.6,0,101.3,0,151.9,0
		c-0.1,1-0.9,1.1-1.6,1.3c-2,0.7-4,1.1-6,1.7c-2.3,0.7-3,1.8-2.8,4.1c0.3,3.5,0.3,7.1,0.4,10.6c0.3,11.1,0.7,22.3,0.4,33.4
		c-0.1,2.8-0.3,3.1-3.1,3c-3.8,0-7.5,0.2-11.3-0.3c-1.1-0.2-2.3-0.1-3.5,0c-1.8,0.2-2.7,1.4-2,3.1c1.2,3.1,2.6,6.1,4.2,9
		c0.8,1.3,2.1,1.8,3.5,1.8c3.2,0.2,6.4,0.4,9.6,0.4c2.2,0,2.5,0.4,2.5,2.6c0,7.9-0.3,15.9-0.6,23.8c-0.2,3.9,0,7.9-0.4,11.8
		c-0.2,2,0,4.1-0.2,6.1c-0.2,1.9,0.9,2.9,2.8,3c0.7,0,1.4-0.1,2.1-0.3c2-0.6,4-1.1,6-1.7c2.1-0.5,2.8-1.5,2.9-3.6
		c0.2-6.9,0.5-13.8,0.8-20.7c0.3-6.1-0.1-12.3,0.6-18.4c0.2-1.9,0.5-2.4,2.4-2.3c3.4,0.2,6.8,0.2,10.3,0.4c2.1,0.1,2.5,0.7,2.6,2.9
		c0.6,6.8,0.1,13.6,0.4,20.4c0.2,6,0.5,11.9,0.7,17.9c0.1,1.7,0.9,2.8,2.5,3.3c2.3,0.7,4.7,1.4,7,1.9c3.1,0.7,4.5-0.6,4.3-3.8
		c-0.4-5.6-0.6-11.2-0.7-16.8c-0.2-7-0.4-14-0.3-21c0-0.6,0-1.2,0-1.7c0-1.4,0.7-2,2-2c2.9-0.1,5.8,0.3,8.7,0.5
		c3.2,0.1,6.3,0.6,9.5,0.6c2.6,0,2.9,0.6,1.7,2.9c-4.4,8.7-5.3,17.7-2.2,27c3.9,11.4,12.3,17.3,24,18.9c5.2,0.7,10.3,0.2,15.3-1.2
		c12.7-3.6,20.9-14.5,21.3-27.1c0.4-11.5-6.9-22.3-18.2-27.3c-6.7-2.9-13.7-4.6-21-5.1c-8-0.6-15.9-1.3-23.9-2
		c-5-0.4-10.1-0.6-15.1-1.1c-2-0.2-2.2-0.5-2.3-2.5c-0.3-11,0.3-21.9,0.5-32.9c0.1-4.2,0-8.5,0.5-12.7c0.4-3.2-0.5-4.1-3.5-5
		c-2-0.6-3.9-1.1-5.8-1.7c-0.6-0.2-1.4-0.2-1.6-1.1c146.7,0,293.5,0,440.2,0c-0.1,0.9-0.9,1-1.5,1.2c-2,0.7-4,1.2-6,1.9
		c-1.5,0.5-2.3,1.5-2.4,3.1c0,0.5-0.1,0.9-0.1,1.4c0.2,18.3-0.6,36.7-0.4,55c0.1,4.7,0,9.4,0,14.1c0.1,7.9,0.3,15.9,1.1,23.8
		c0.4,4,1.9,7.7,4.4,11c5,6.6,13.1,6.8,18.5,0.6c1.4-1.6,2.8-3.3,4.2-4.8c2-2.2,4.3-2.2,6.4-0.1c1.5,1.6,2.9,3.3,4.6,4.7
		c7.3,5.6,15.7,7.3,24.6,6.4c4.7-0.4,9.3-1.5,13.5-3.6c7.5-3.7,12.3-9.6,14.4-17.8c0.2-0.7,0-1.7,1.1-1.9c0,21,0,41.9,0,62.9
		c0,1.3-0.3,1.6-1.6,1.6c-125.4,0-250.9,0-376.3,0c0-0.9,0.8-0.9,1.3-1.2c2-1.1,4.2-1.9,6.3-3c1.5-0.7,2.2-1.8,2-3.5
		c-0.5-4.3-0.9-8.5-1.2-12.8c-0.2-3-0.5-6-0.5-9c-0.1-7.3-0.2-14.6,0-21.9c0.2-6.2,0.6-12.5,1.3-18.7c0.7-6.2,1.4-12.4,2.6-18.6
		c0.5-2.8,0.7-2.9,3.7-3c5.9-0.1,11.8,0.1,17.6,1.7c1.1,0.3,2.1,0.6,3.1,1.1c1.4,0.7,1.5,1.4,0.3,2.3c-2,1.5-4,3-5.9,4.6
		c-5,4.3-9.9,8.7-13.2,14.5c-1.5,2.6-2.5,5.5-2.6,8.6c-0.1,5,2.2,8.6,6.4,10.9c5.3,2.8,10.8,2.7,16.2,0.8
		c10.1-3.5,16.8-10.7,20.7-20.5c2.1-5.2,2.6-10.7,1.3-16.2c-0.5-2.1-0.2-2.6,1.7-3.3c3.6-1.4,7.3-2.5,11.2-2.4
		c5.4,0,9.7,2.3,12.4,7.2c2.4,4.3,3.3,9,3.8,13.9c0.5,4.8,0.8,9.6,0.8,14.4c0,1.5,0,3-0.2,4.5c-0.3,2,0.6,3.4,2.5,4
		c2.7,0.8,5.4,1.5,8.1,2c2.1,0.4,3.5-0.7,3.6-2.9c0.4-8.5,0.8-17-0.7-25.5c-1.1-6.4-2.9-12.5-6.7-18c-4.2-6.2-10.2-9.5-17.4-10.6
		c-8.4-1.2-16.2,1-23.9,4c-1.8,0.7-3.1,0.6-4.6-0.6c-4.9-3.7-10.6-5.6-16.6-6.8c-7.9-1.7-15.9-1.8-23.9-1.4
		c-11.5,0.6-23,2.4-34.2,5.1c-4.6,1.1-9.3,2.1-13.8,3.5c-3.4,1-4,2.7-2,5.6c1.2,1.7,2.4,3.4,3.6,5.2c1.5,2.1,2.6,2.5,5.1,1.8
		c8.1-2.2,16.2-4,24.5-5.3c0.9-0.2,1.8-0.2,2.8-0.3c2.1-0.2,2.4,0.1,2.1,2.1c-0.4,2.5-0.8,5-1.2,7.6c-0.8,6.3-1.4,12.6-1.8,18.9
		c-0.4,7.4-0.8,14.8-0.6,22.2c0.2,6.5,0.4,13,0.9,19.4c0.4,5.2,0.9,10.4,1.4,15.6C318.9,560.2,319.9,561.4,320.4,562.8z"/>
	<path class="st1" d="M177.6,403.7c2.7,1.1,5.5,1.7,8.3,2.5c2.5,0.8,3.3,1.8,3.2,4.4c-0.7,15.5-1,31.1-1,46.6c0,1.4,0.2,1.8,1.7,1.9
		c14.7,0.9,29.4,1.7,44,3.5c10.2,1.3,19.9,4.5,27.3,12.4c11.9,12.7,9.2,33.6-5.3,43.4c-10.8,7.3-29.3,7.6-39.5-0.5
		c-6.3-4.9-9.7-11.4-10.9-19.1c-1.2-7.9,0.1-15.5,4.1-22.5c0.6-1.1,0.3-1.2-0.7-1.3c-6.3-0.3-12.6-0.7-18.9-1.1
		c-1.5-0.1-1.9,0.3-1.9,1.8c0.1,13.3,0.3,26.6,1.1,39.8c0.2,3.2-1.7,4.7-5,3.9c-2.2-0.6-4.5-1.2-6.7-1.9c-2.4-0.7-3.1-1.6-3.2-4
		c-0.6-12.8-0.9-25.6-0.9-38.5c0-1.5-0.4-2-1.9-2c-3.8-0.1-7.5-0.3-11.3-0.5c-1.1-0.1-1.3,0.3-1.4,1.3c-0.3,10.6-0.6,21.2-1,31.8
		c-0.1,2.8-0.2,5.6-0.3,8.3c-0.1,1.7-0.9,2.9-2.5,3.3c-2.6,0.8-5.2,1.5-7.9,2.1c-2.9,0.7-4.5-0.9-4.4-3.8c0.6-14,1-28.1,1.3-42.1
		c0-1.2-0.3-1.4-1.5-1.4c-3.5,0-7.1-0.2-10.6-0.3c-1.8-0.1-3.1-0.9-3.9-2.5c-1.3-2.7-2.6-5.4-3.8-8.2c-1.2-2.8-0.2-4.3,2.8-4.2
		c5.2,0.1,10.3,0.2,15.5,0.3c1.2,0,1.4-0.3,1.4-1.4c0-15.2-0.3-30.4-1-45.6c-0.1-2.3,0.7-3.6,3-4.2c2.2-0.6,4.5-1.2,6.7-1.8
		c0.5-0.1,1.1-0.1,1.3-0.7c0.5,0,0.9,0,1.4,0c2.2,0.6,2.9,1.3,2.9,3.7c0,3.5,0.4,6.9,0.5,10.4c0.2,7.3,0.1,14.6,0.4,21.9
		c0.2,5,0.2,10.1,0.3,15.1c0,2.2,0.3,2.5,2.5,2.6c2.8,0.1,5.7,0,8.5,0.4c1.3,0.2,1.8-0.4,1.9-1.7c0.6-7.9,0.1-15.9,0.3-23.8
		c0.2-8.1,0.5-16.2,0.7-24.3c0.1-2.5,1-3.6,3.3-4.2C176.9,403.7,177.3,403.7,177.6,403.7z"/>
	<path class="st0" d="M619.2,403.7c26.6,0,53.2,0,79.8,0c1.2,0,1.4,0.2,1.4,1.4c0,28,0,56,0,83.9c-0.8,0-0.8-0.8-0.9-1.3
		c-3.8-14.4-13.5-22.1-27.7-24.6c-5.7-1-11.5-0.9-16.9,1.4c-10.6,4.5-18.3,15.4-18.3,26.8c0,2.1-0.5,3.7-2.2,5.2
		c-1.9,1.6-3.9,3.1-5.9,4.6c-2.7,1.9-5.6,0.5-6-2.7c-0.2-1.3-0.4-2.7-0.4-4c0.1-4.3-0.5-8.6-0.4-12.9c0.1-13.6-0.2-27.3,0.1-40.9
		c0.3-10.4,0.1-20.9,0.3-31.3c0-2.3-0.3-4.2-2.5-5.2C619.2,404,619.2,403.8,619.2,403.7z"/>
	<path class="st1" d="M320.4,562.8c-1.6-1-2-2.6-2.2-4.4c-1.7-14.8-2.5-29.6-2.2-44.5c0.3-13.3,1.2-26.6,3.6-39.8
		c0.2-0.9,0.1-1.2-1-1.1c-9.5,1.4-18.9,3.4-28.2,5.9c-2.6,0.7-3.7,0.4-5.3-1.9c-1.4-2-2.8-4-4.1-6c-1.7-2.5-0.9-4.6,2-5.4
		c19.4-5.5,39-9.5,59.2-8.9c9.6,0.3,19.1,1.6,27.6,6.5c1.3,0.7,2.5,1.5,3.6,2.4c1,0.8,1.7,0.8,2.8,0.3c5.6-2.5,11.5-4,17.6-4.6
		c13.2-1.2,23.7,5.4,28.7,17.9c2.8,7.1,3.8,14.5,4.1,22.1c0.2,5.1-0.2,10.2-0.4,15.3c-0.1,1.9-2,3.5-3.8,3.1c-3-0.7-6-1.4-8.9-2.2
		c-1.7-0.5-2.4-1.7-2.4-3.8c0.2-4.9,0.1-9.9-0.2-14.8c-0.3-4.6-0.8-9.1-2.1-13.5c-2.9-9.8-9.6-13.6-19.6-11.1
		c-2.1,0.5-4.2,1.3-6.3,2c-0.7,0.2-1.2,0.5-0.9,1.5c2.9,10.9-0.6,20.2-7.6,28.5c-4.4,5.2-9.9,8.9-16.6,10.5c-4.3,1-8.6,1.1-12.8-0.7
		c-6.7-2.8-9.7-8.8-7.8-15.8c1.3-4.8,4.1-8.8,7.5-12.4c4-4.3,8.4-8.1,13.2-11.5c0.6-0.4,1.1-0.8,1.8-1.3c-3.5-1.8-7.1-2.4-10.7-2.9
		c-4.1-0.6-8.3-0.5-12.5-0.5c-1,0-1.3,0.4-1.5,1.4c-1.7,8.6-2.7,17.3-3.4,26c-0.8,10.7-1,21.4-0.7,32.2c0.2,7.8,0.7,15.5,1.6,23.3
		c0.4,3.4,0.2,3.6-2.8,5c-2.4,1.1-4.8,2.3-7.2,3.4C321.8,562.8,321.1,562.8,320.4,562.8z"/>
	<path class="st1" d="M0.3,464.3c0.8-1.4,1.9-2.1,3.6-2.2c10.6-1,21.3-1.9,31.9-2.6c1.5-0.1,1.6-0.6,1.6-1.9
		c-0.1-15.6-0.4-31.2-1-46.8c-0.1-3.2,0.5-3.9,3.6-4.7c2.3-0.6,4.6-1.3,6.9-1.9c2.8-0.7,4.5,0.6,4.6,3.5c0.7,16.4,1,32.8,0.9,49.3
		c0,1.5,0.4,1.8,1.9,1.7c5-0.4,10-0.9,14.9-0.9c8.7-0.1,15.5,7.3,14.1,16.4c-1.2,7.9-2.3,15.8-3.4,23.7c-0.2,1.7,0.1,3,1.8,3.7
		c1.7,0.7,2.9-0.1,3.9-1.3c6.7-7.9,12.3-16.5,17.4-25.6c1.6-2.9,3.2-5.9,4.7-8.9c1.5-2.9,2.8-3.3,5.7-1.8c2.9,1.5,5.7,3,8.6,4.5
		c2.3,1.2,3.1,2.7,2.2,5.2c-2.9,9-2.8,18,0.6,26.9c0.9,2.3,2.1,4.4,3.5,6.4c0.8,1.1,0.9,2.2,0.1,3.4c-1.5,2.4-2.9,4.9-4.3,7.3
		c-1.3,2.4-4.2,2.6-5.9,0.6c-4.9-5.8-7.7-12.6-9.4-19.9c-0.2-0.7-0.3-1.4-0.4-2c-0.1-0.5-0.2-1-0.9-1.1c-0.6-0.1-0.9,0.3-1.2,0.8
		c-2.2,3-4.1,6.2-6,9.4c-2.2,3.6-4.2,7.3-7.1,10.5c-3.2,3.6-7,5.8-11.9,5.9c-4.2,0-7.5-2-10-5.2c-4.3-5.5-5.3-11.9-4.5-18.6
		c0.9-7.4,2-14.7,2.9-22.1c0.5-3.7-0.7-4.9-4.5-4.6c-3.9,0.3-7.9,0.6-11.8,0.8c-1.2,0.1-1.5,0.5-1.5,1.7c0,13.3-0.3,26.7-1,40
		c-0.1,2.4-0.8,3.1-3,3.8c-2.3,0.6-4.6,1.3-6.9,1.9c-3.3,0.9-5-0.5-4.8-3.8c0.5-13.4,0.8-26.8,0.9-40.2c0-1.6-0.4-2-2-1.8
		c-9,1.1-18.1,2-27.1,3c-4,0.4-4.5,0-5.7-3.8c-0.7-2.4-1.1-5-2.3-7.3C0.3,465.2,0.3,464.7,0.3,464.3z"/>
	<path class="st1" d="M619.2,403.7c2.8,1.2,3.1,1.6,3.1,4.8c-0.2,19.2-0.3,38.4-0.5,57.6c-0.1,10.6,0,21.1,0.8,31.7
		c0.1,1.5,0.6,2.8,1.9,3.5c1.4,0.7,2.6,0.2,3.7-0.7c1.1-0.8,2.1-1.6,3.2-2.4c3-2,4.3-4.4,4.6-8.3c0.9-15.2,14.3-28.3,29.7-27.7
		c7.5,0.3,14.6,1.9,20.9,6.2c7.1,4.8,11.5,11.4,13.3,19.8c0.1,0.3,0,0.7,0.3,0.9c0,3.1,0,6.3,0,9.4c-1,4-2.3,8-4.8,11.4
		c-4.4,6-10.4,9.6-17.6,11.3c-8.5,2-17,2-25.2-1.5c-4.3-1.9-7.9-4.6-10.8-8.3c-1.8-2.3-4.1-2.3-6-0.1c-1.5,1.7-3,3.5-4.6,5.3
		c-4.9,5.5-12.3,5.7-17.5,0.4c-4.5-4.6-5.9-10.4-6.3-16.7c-1.2-22.8-0.7-45.7-0.4-68.5c0.1-7,0.1-14,0.2-21.1c0-3.2,0.4-3.6,3.4-4.6
		c2.3-0.8,4.8-1.2,7-2.4C618.3,403.7,618.7,403.7,619.2,403.7z"/>
	<path class="st0" d="M176.6,403.7c-2.2,0.9-2.7,2.7-2.8,4.9c-0.6,16.1-0.8,32.1-0.9,48.2c0,1.3-0.2,1.7-1.6,1.6
		c-3.7-0.3-7.4-0.4-11.1-0.5c-1.3,0-1.5-0.5-1.5-1.7c-0.1-10.3-0.2-20.6-0.4-31c-0.1-6-0.4-12.1-0.6-18.1c0-1.7-1-2.8-2.4-3.4
		C162.4,403.7,169.5,403.7,176.6,403.7z"/>
	<path class="st1" d="M464.8,467.4c-0.1,1.4-0.1,2.9-0.2,4.3c-0.1,2.2-0.9,3.2-2.9,4c-5.9,2.2-11,5.5-13.9,11.3
		c-2.1,4.1-2.2,8.4-1.1,12.7c0.6,2.5,2.5,3.8,4.9,4.5c4.1,1.3,8.3,1.1,12.4,0.4c5.5-0.9,10.9-2.2,15.6-5.5c0.7-0.5,1-0.9,0.9-1.8
		c-1.4-11.9,3.3-21.1,12.4-28.4c5-4,10.7-6.7,16.8-8.6c0.7-0.2,1.5-0.3,2.2-0.3c1.7,0.1,2.8,1.3,2.7,3c-0.1,3.1-0.4,6.1-0.6,9.2
		c-0.1,1.9-1.1,2.9-2.8,3.5c-4.2,1.5-8,3.6-11.1,6.9c-4.4,4.8-5.6,10.4-4.3,16.6c0.9,4,4.2,5.2,7.7,5.6c8.2,0.9,15.9-0.9,23.2-4.5
		c3.5-1.7,6.8-3.8,10.2-5.6c1-0.5,0.9-1.2,0.9-2c0-7.5,2.3-14.1,7.1-19.9c6.6-8,15.2-11.5,25.5-10.9c10,0.7,18.7,4.4,25.2,12.2
		c9.3,11.1,9.4,27.1,0.3,37.6c-4.7,5.4-10.8,8.3-17.7,9.6c-9.3,1.8-18.2,1.2-26.6-3.7c-3.6-2.1-6.6-4.9-8.9-8.4
		c-0.6-1-1-1.2-2.1-0.5c-3.5,2.3-7,4.5-10.7,6.5c-7.6,4.1-15.6,6.4-24.4,5.5c-6.4-0.6-12.1-3-16.7-7.6c-1.2-1.2-2-1.2-3.3-0.4
		c-5.8,3.4-11.8,6.2-18.4,7.5c-8.5,1.6-16.6,0.8-23.9-4.1c-13.4-9.1-16.4-26.7-7-39.8c6.1-8.6,14.8-13.5,24.7-16.4
		c2.6-0.8,4.1,0.6,4,3.3C464.9,464.8,464.9,466.1,464.8,467.4C464.9,467.4,464.9,467.4,464.8,467.4z"/>
	<path class="st1" d="M416.5,439.4c0.1,1.3-0.4,2.6-0.7,4c-0.6,2.8-1.4,5.6-2,8.4c-0.2,0.8-0.5,1.5-0.9,2.2
		c-1.6,2.5-4.4,2.5-6.1,0.1c-0.6-0.9-0.9-2-1.1-3.1c-0.8-3.4-1.7-6.7-2.5-10.1c-0.7-3.1,0.5-6.2,3-7.8c2.4-1.6,5.4-1.4,7.8,0.4
		C415.6,434.8,416.5,436.8,416.5,439.4z"/>
	<path class="st0" d="M237,508.9c-6.1,0-11-1.4-14.4-6c-4.9-6.5-3.1-18,3.5-22.7c2.5-1.8,5.3-2.3,8.4-1.7c4.7,0.8,9.3,1.8,13.4,4.5
		c5.7,3.8,8,12.1,4.8,17.9c-2.5,4.5-6.6,6.6-11.5,7.6C239.6,508.8,238,508.9,237,508.9z"/>
	<path class="st2" d="M368.2,483.5c0.1,1.7-0.2,3.1-0.8,4.5c-2.1,5.5-5.6,10.1-10.2,13.8c-0.6,0.5-1.3,0.9-2.1,1.2
		c-2.8,1.3-4.2,0.3-4.1-2.8c0-3,1.8-5.1,3.8-7c3.6-3.4,7.7-6.4,12-8.9C367.2,484.1,367.6,483.9,368.2,483.5z"/>
	<path class="st0" d="M665.1,507.6c-4.2-0.1-8.2-1.2-11.3-4.1c-5.2-4.8-5.8-14.4-1.2-20.4c3.8-5,8.9-6.9,15-6
		c6.2,0.8,11.4,3.5,14.8,8.9c4.7,7.4,2.4,15.6-5.5,19.4C673.2,507.2,669.2,507.6,665.1,507.6z"/>
	<path class="st0" d="M569.4,507.6c-4.3,0-8.4-0.7-11.9-3.6c-5.8-4.8-6.6-14.9-1.8-21c3.9-5,9-6.8,15.2-5.9
		c4.7,0.7,8.9,2.5,12.3,5.9c8.2,8.1,5.4,19.9-5.6,23.4C574.9,507.2,572.2,507.5,569.4,507.6z"/>
</g>
</svg>
