<?xml version="1.0" encoding="utf-8"?>
<!-- Generator: Adobe Illustrator 21.1.0, SVG Export Plug-In . SVG Version: 6.00 Build 0)  -->
<svg version="1.1" id="Layer_1" xmlns="http://www.w3.org/2000/svg" xmlns:xlink="http://www.w3.org/1999/xlink" x="0px" y="0px"
	 viewBox="0 0 900 596" style="enable-background:new 0 0 900 596;" xml:space="preserve">
<style type="text/css">
	.st0{fill:#FDFDFD;}
	.st1{fill:#DD0025;}
	.st2{fill:#7D3547;}
	.st3{fill:#B00A2B;}
	.st4{fill:#FAF0F5;}
	.st5{fill:#FAF1F7;}
	.st6{fill:#FAEEF4;}
	.st7{fill:#FAE9F1;}
	.st8{fill:#FAEDF3;}
	.st9{fill:#F7E6EB;}
	.st10{fill:#FAECF3;}
	.st11{fill:#FBEFF5;}
	.st12{fill:#FBF0F7;}
	.st13{fill:#7F2236;}
	.st14{fill:#852641;}
	.st15{fill:#951433;}
	.st16{fill:#7B293E;}
	.st17{fill:#7E2339;}
	.st18{fill:#D90325;}
	.st19{fill:#B21537;}
	.st20{fill:#C70C30;}
</style>
<g>
	<path class="st0" d="M450.7,0.5c148.9,0,297.8,0,446.7,0c2.7,0,3.3,0.4,3.3,2.2c-0.1,197.2-0.1,394.4,0,591.7
		c0,1.8-0.6,2.2-3.3,2.2c-297.8,0-595.6,0-893.3,0c-2.7,0-3.3-0.4-3.3-2.2c0.1-197.2,0.1-394.4,0-591.7c0-1.8,0.6-2.2,3.3-2.2
		C152.9,0.5,301.8,0.5,450.7,0.5z"/>
	<path class="st1" d="M16.8,196.6c1.6,0,3.1-0.1,4.7-0.1c281.5,0,563,0,844.5,0c1.1,0,2.2,0.1,3.3,0c2.5-0.2,3.2,0.4,3.2,2.1
		c-0.1,58.3-0.1,116.6-0.1,174.9c0,0.3-0.1,0.6-0.1,1c-0.9,0.9-2,1.3-3.7,1.2c-0.8-0.1-1.7,0-2.5,0c-281.5,0-563,0-844.6,0
		c-0.5,0-1,0-1.4,0c-3,0.3-3.8-0.4-3.8-2.5c0.1-16.3,0.1-32.5,0.1-48.8c0-41.6,0-83.3,0-124.9C16.3,198.5,15.9,197.5,16.8,196.6z"/>
	<path class="st2" d="M16.8,196.6c0,1.5-0.1,3-0.1,4.6c0,56.9,0,113.7,0,170.6c0,3.6,0,3.6,5.2,3.6c281.3,0,562.7,0,844,0
		c2.3,0,4.5-0.1,6.4-0.9c0.2,0.8,0.3,1.5-1.4,1.5c-1.3,0-2.7,0-4,0c-279.9,0-559.8,0-839.7,0c-3,0-6,0-9.1,0c-1.7,0-2.4-0.4-2.3-1.5
		c0.1-0.7,0-1.4,0-2.2c0-57.6,0-115.2,0-172.8C15.9,198.5,15,197.4,16.8,196.6z"/>
	<path class="st0" d="M295.1,230.3c-1.9,10.1-3.8,20.2-5.8,30.2c-2.6,13.2-6.3,26.2-9.9,39.2c-2.2,8.1-4.7,16.2-7,24.2
		c-0.5,1.9-1.6,2.8-4.6,2.8c-5.8,0-11.6,0-17.4-0.2c-2.7-0.1-3.9-0.9-4.6-2.6c-5.8-13.4-10.7-27-15.2-40.7c-2-6.1-4.1-12.1-6.7-18.3
		c-1.4,3.6-2.8,7.2-4.2,10.8c-6.1,16-12.3,32-18.2,48.1c-0.8,2.1-2.2,2.9-5.4,2.9c-5.2-0.1-10.4,0-15.6-0.4
		c-2.3-0.2-3.3-0.7-3.8-2.2c-3.7-13.3-7.5-26.7-11.5-40c-5.6-18.9-10-37.9-14.9-56.9c-1.2-4.7-0.7-5.2,6.3-5.5
		c6-0.2,12.1,0,18.1-0.1c2.8,0,3.8,1,4,2.7c1.7,11.1,4.3,22.2,6.7,33.3c2.2,10.3,4.3,20.6,6,30.9c0.1,0.7,0,1.5,1.3,2.1
		c4.7-22.6,14.6-44.2,22-66.3c0.5-1.5,1.6-1.9,3.8-1.8c4.8,0.1,9.7,0.1,14.5,0c2.7-0.1,3.8,0.7,4.5,2.3c4,9.2,6.7,18.6,8.9,28.1
		c2.8,12.3,6.6,24.4,10.4,36.5c0.2,0.5,0.5,1,0.9,1.8c2.8-13.8,5.6-27.2,8.4-40.7c1.7-8.2,3.6-16.5,5.4-24.7c0.2-1,0.3-2.1,0.5-3.1
		c0.4-1.1,1.8-0.9,2.9-0.9c6,0,12,0,18.1,0c2.3,0,3.4,0.5,3.2,2.1C296,226,296.3,228.2,295.1,230.3z"/>
	<path class="st0" d="M398.1,275c-1,9.9-0.4,20-4.4,29.7c-3.9,9.7-11.1,18-26.1,21.5c-23.4,5.4-48.2,1.3-57.8-18
		c-3.2-6.4-4.7-12.9-4.9-19.6c-0.3-11.3-0.4-22.6,2-33.8c1.3-6,3.1-12,6.7-17.6c8.4-13.1,24.6-18.8,45.5-15.9
		c18.8,2.6,29,11,34.6,22.5c3.6,7.5,4.5,15.2,4.5,23C398.1,269.5,398.1,272.2,398.1,275z"/>
	<path class="st0" d="M677.4,326.9c-3.4,0-6.8-0.1-10.1,0c-1.6,0-2.5-0.3-2.7-1.4c-3-17.2-12-33.5-16.7-50.5
		c-4.7-16.8-11.6-33.3-17.2-50c-0.7-2,0.2-2.7,2.9-2.7c5.9-0.1,11.8-0.1,17.7-0.2c2.1,0,2.8,0.9,3.3,2.1c4.1,10,8.3,20,11.1,30.2
		c1.5,5.8,0,5.4,10.1,5.4c4.1,0,8.2-0.3,12.3-0.3c2.6,0,3.6-0.6,4.2-2.2c4.1-10.3,7.4-20.7,10.3-31.1c1.1-4,1.1-4.1,7.2-4.1
		c4.2,0,8.4,0.2,12.7,0.3c4.1,0.2,4.6,0.6,3.8,3.3c-2.8,9.2-5.5,18.3-8.5,27.4c-6.8,20.7-13.9,41.3-21.8,61.8
		c-1.3,3.3-2.9,6.6-4.3,9.9c-0.6,1.3-1.5,2-3.8,1.9C684.4,326.7,680.9,326.8,677.4,326.9C677.4,326.8,677.4,326.8,677.4,326.9z"/>
	<path class="st0" d="M478.6,226.1c0.3-2.5,2.7-3,6.2-3.2c14.8-0.8,29.2,0.1,42.7,4.4c14.3,4.6,22.6,12.1,24.3,22.7
		c1.4,8.9,0.3,17.5-4.5,25.9c-4.9,8.4-13.7,13.8-27,15.7c-3.6,0.5-7.3,1.2-11,1.4c-3.3,0.2-4.4,1.2-4.6,3.3
		c-0.7,6.5-0.1,13-0.2,19.4c0,2.7,0.1,5.4,0,8.2c0,1.6-1,2.4-3.8,2.4c-6.3-0.1-12.6,0-18.8,0.2c-3.2,0.1-3.9-0.7-3.9-2.6
		c0.2-11,0.5-21.9,0.2-32.9c-0.3-12.6-0.5-25.1-0.3-37.7c0.6-7.4,0.1-14.7,0.3-22.1C478.3,229.6,477.8,227.8,478.6,226.1z"/>
	<path class="st0" d="M795.7,264.4c6.7-8.1,11.2-16.3,15.7-24.5c2.9-5.3,6.1-10.4,9.6-15.5c0.7-1,1.2-1.8,3.3-1.9
		c6.3-0.1,12.5-0.3,18.8-0.6c3.3-0.1,3.9,0.7,3,2.8c-4.5,9.9-10.7,19.3-16.8,28.8c-13.3,20.7-24.3,42.1-36.7,63.1
		c-1.6,2.7-3.5,5.4-4.9,8.2c-0.8,1.6-2.1,2-4.5,1.9c-6.3-0.4-12.5-0.5-18.8-0.2c-3.3,0.2-3.5-0.7-2.7-2.5c3.9-8.6,8.3-17,12.7-25.5
		c1.9-3.7,4-7.4,5.8-11.1c1.4-2.8,1.3-5.5-0.6-8.4c-8.3-13-18.9-25.2-28.4-37.7c-4-5.3-7.9-10.6-11.4-16c-1.2-1.8-0.5-2.5,2.2-2.7
		c6.5-0.4,13-0.5,19.5-0.5c2.2,0,2.8,1,3.6,2c9,11.2,17.8,22.5,26.1,34C792.5,260.1,794,262.1,795.7,264.4z"/>
	<path class="st0" d="M109.4,302.9c0.1,6.9,0.2,13.7,0.4,20.6c0.1,2-0.7,2.9-4,2.9c-7,0-14,0.1-21,0.2c-2.9,0-2.6-1.1-2.5-2.4
		c0.6-9.2,1.4-18.4,1.1-27.6c0.4-0.6,0.3-1.3,0.3-1.9c0-18,0-36,0-54c0-0.7,0.2-1.4-0.4-2.1c-0.5-1.2-2-0.6-3-0.6
		c-6.6-0.1-13.3-0.1-19.9,0c-2.8,0-3.9-0.5-3.8-2.4c0.3-3.8,0.5-7.7,0.6-11.5c0-1.9,1.9-1.7,3.7-1.7c11.8,0,23.7,0,35.5,0
		c12.3,0,24.6,0,36.9,0.1c6,0,6.9,0.6,6.9,4.6c0,2.9-0.4,5.8-0.6,8.6c-0.1,1.4-1.1,2.2-3.6,2.3c-7.7,0.4-15.4,0.6-23.2,0.6
		c-1.5,0-2.8-0.1-2.8,1.4c-0.2,8.1-0.5,16.2-0.8,24.2c-0.5,1.1-0.2,2.2-0.2,3.3c0,10.9,0,21.8,0,32.7
		C109.1,301.1,108.9,302,109.4,302.9z"/>
	<path class="st0" d="M569.2,236.9c0.3-4,0.7-8,0.8-12c0-1.7,1.1-2.3,3.5-2.2c6.3,0.2,12.6,0.4,18.8-0.1c2.5-0.2,3.2,0.5,3.2,2
		c-0.2,10.6-0.2,21.1-0.6,31.7c-0.7,17.5-1.3,34.9-1.1,52.4c0,1.7,1,1.9,3.2,2c12.4,0.1,24.9,0.4,37.3,0.5c3.1,0,3.9,0.7,3.8,2.7
		c-0.4,4.1-0.5,8.3-0.7,12.4c-1.4,0.8-3,0.5-4.5,0.5c-17.5,0-35,0-52.5,0c-2.5,0-5,0.3-7.6,0.3c-3.1,0-5.2-0.9-5.3-3
		c-0.4-4-0.8-8,0.4-12.1c1-3.4,0.6-7,0.6-10.5c0.1-20.3,0-40.6,0.1-61C568.5,239.3,568.2,238,569.2,236.9z"/>
	<path class="st3" d="M569.2,236.9c0,6.9,0.1,13.8,0,20.7c-0.2,19.3,0.8,38.6-1.2,57.9c-0.3,2.8-0.4,5.6,0.3,8.4
		c0.6,2.4,1.9,3.3,5.7,2.9c11.1-0.9,22.1-0.3,33.2-0.4c10-0.1,20.1,0,30.1,0c-0.2,1.2-1.6,1-2.8,1c-21.2,0-42.5,0-63.7,0
		c-3.8,0-4.3-1.8-4.4-3.4c-0.3-3.5-1-7.2,0.1-10.5c2.1-6.2,1.1-12.4,1.1-18.5c0.2-18.3,0.1-36.6,0.1-55
		C567.8,238.9,567.2,237.6,569.2,236.9z"/>
	<path class="st4" d="M761.3,343.8c0-2.6,0-5.2,0-7.8c0-0.8,0-1.7,1.8-1.6c1.7,0.1,1.8,0.8,1.8,1.7c-0.1,3.8-0.1,7.7-0.3,11.5
		c0,0.8,0.3,1.9-1.6,2.1c-1.7,0.3-2.6-0.4-3.4-1.3c-2.1-2.4-4.3-4.8-7.1-7.1c0,2.3,0,4.5,0,6.8c0,1-0.3,1.7-2.2,1.7
		c-2,0-2-0.8-2-1.7c0.1-3.9,0.2-7.8,0.3-11.7c0-0.7-0.3-1.7,1.5-1.9c1.5-0.1,2.4,0.3,3.2,1.2c2.3,2.8,4.6,5.6,7,8.3
		C760.7,343.9,761,343.9,761.3,343.8z"/>
	<path class="st5" d="M714.9,345.5c0,1.5,0,2.3,0,3.1c0,0.9-0.7,1.3-2,1.2c-1.2,0-1.7-0.4-1.7-1.2c0-4.2,0-8.5,0.1-12.7
		c0-0.5,0-1.1,1.1-1.3c2.9-0.7,8.1,0.5,9.7,2.2c1.8,2,1.1,4.7-1.9,6.2c-1.9,0.9-1.7,1.6-0.5,2.7c0.8,0.7,1.5,1.4,2.2,2.2
		c0.4,0.5,1.7,1.1,0.7,1.6c-1,0.5-2.6,0.5-3.6-0.3C717.7,348.2,716.7,347.2,714.9,345.5z"/>
	<path class="st6" d="M628.1,342.3c0-2.1,0-4.2,0-6.2c0-1.1,0.7-1.5,2.4-1.5c5-0.1,8.3,1.4,9.8,4.6c1.2,2.7,0.8,5.4-1.3,7.9
		c-1.7,2-6.2,3.3-9.6,2.9c-1.5-0.2-1.5-0.8-1.6-1.6c0-2,0-4,0-6C627.9,342.3,628,342.3,628.1,342.3z"/>
	<path class="st7" d="M691.8,335.1c3.7-1.2,7.5-0.4,11.3-0.5c0.9,0,1.2,0.5,1.2,1c0,0.6,0,1.2-1.2,1.3c-1,0.1-1.9,0-2.9,0
		c-4.9,0-4.8,0-4.6,3.1c0.1,1.1,0.2,1.9,2.3,1.8c1.3-0.1,2,0.4,2,1.3c0,1.1-1.1,1.1-2.2,1.1c-2.8-0.2-2.3,1.1-2.4,2.2
		c-0.2,1.4,1.2,1.3,2.6,1.3c1.7,0,3.4,0,5.1,0c1.2,0,1.8,0.3,1.8,1.1c0,0.7-0.5,1.1-1.5,1.1c-3.8-0.2-7.7,0.6-11.4-0.4
		C691.2,344.6,691.1,339.9,691.8,335.1z"/>
	<path class="st8" d="M729.5,342.1c0-1-0.1-1.9,0-2.9c0.3-1.5-1.2-3.9,0.9-4.4c3.1-0.7,6.9-0.3,10.4-0.2c1.1,0,1,0.7,1,1.3
		c0,0.5-0.3,0.9-1.2,1c-0.8,0-1.7,0-2.5,0c-5.2,0-5.2,0-4.9,3.4c0.1,1.1,0.4,1.7,2.2,1.6c1.2-0.1,2.1,0.1,2.2,1.1
		c0.1,1.2-1.1,1.3-2.4,1.2c-2.5-0.1-2.1,1-2.3,2.1c-0.2,1.5,1.2,1.5,2.7,1.5c1.6,0,3.1,0,4.7,0c1,0,1.9,0.1,2,1
		c0,0.8-0.6,1.2-1.7,1.2c-3,0-6,0-9,0c-1.9,0-2.1-0.7-2.1-1.7C729.4,346.1,729.4,344.1,729.5,342.1
		C729.4,342.1,729.4,342.1,729.5,342.1z"/>
	<path class="st9" d="M681.4,334.4c1.3,0,2.7,0,4,0c1.2,0,1.7,0.4,1.7,1.2c0,0.7-0.4,1.1-1.4,1.1c-0.5,0-1,0-1.4,0
		c-5.3,0.1-5.2,0.1-5.1,3.5c0,1.2,0.6,1.8,2.4,1.7c0.8,0,1.3,0.3,1.4,0.9c0,0.5-0.2,1.1-1.1,1c-3.2-0.2-2.4,1.3-2.7,2.5
		c-0.3,1.2,1.7,3.3-1.9,3.4c-3.7,0.1-2-2.1-2.1-3.3c-0.2-3,0.2-6.1-0.1-9.1c-0.2-2.3,1-3.2,4.4-2.9
		C680.2,334.5,680.8,334.4,681.4,334.4C681.4,334.4,681.4,334.4,681.4,334.4z"/>
	<path class="st10" d="M775.2,343.3c0-1.4,0-2.7,0-4.1c0.1-1.3,0.3-2.6-2.8-2.4c-1.3,0.1-1.6-0.5-1.6-1.2c0-0.9,0.8-1.1,1.9-1.1
		c3,0,6,0,9.1,0c1.1,0,2.3-0.1,2.4,1c0,1-0.7,1.5-2.2,1.4c-2.6-0.3-2.6,0.7-2.6,2c0.1,3,0,5.9,0,8.9c0,1.1,0.2,2.1-2.3,2.1
		c-2.4,0-2-1-2-2C775.1,346.3,775.1,344.8,775.2,343.3C775.2,343.3,775.2,343.3,775.2,343.3z"/>
	<path class="st11" d="M658.5,341.9c0-1.8,0-3.5,0-5.3c0-0.2,0-0.5,0-0.7c-0.1-1,0.4-1.6,2-1.4c3.2,0.4,6.7-1,9.5,0.7
		c0.7,0.4,0.2,1.4-1.3,1.5c-0.6,0-1.2,0-1.8,0c-4.4-0.1-6,1.5-4.7,4.4c0.5,1,1.7,0.7,2.6,0.8c0.7,0.1,1.4,0.1,1.4,0.8
		c0,0.5-0.2,1.1-1.1,1c-3.6-0.2-2.9,1.4-2.9,2.8c0,0.5,0.1,1,0.1,1.4c0,0.8,0.3,1.7-1.6,1.7c-1.8,0.1-2.4-0.5-2.2-1.6
		c0-0.2,0-0.3,0-0.5C658.4,345.7,658.4,343.8,658.5,341.9C658.4,341.9,658.5,341.9,658.5,341.9z"/>
	<path class="st12" d="M650.5,342c0,2.1,0,4.2,0,6.2c0,0.9-0.2,1.5-1.9,1.5c-1.7,0-2.3-0.5-2.2-1.6c0.2-4.1,0.4-8.2,0.5-12.2
		c0-1.1,0.8-1.3,2.3-1.3c1.6,0,1.7,0.7,1.7,1.4c0,2,0,4,0,6C650.7,342,650.6,342,650.5,342z"/>
	<path class="st13" d="M83.4,238.6c1.1,0.5,0.9,1.3,0.9,2c-0.2,18.5,0.2,36.9-0.5,55.4c0,0.2-0.2,0.5-0.3,0.7
		c0-16.5,0-33.1-0.1-49.6C83.4,244.2,83.4,241.4,83.4,238.6z"/>
	<path class="st14" d="M109.4,302.9c-0.2-0.6-0.4-1.2-0.4-1.9c-0.5-11.6-0.4-23.3,0-34.9c0-0.6,0.3-1.2,0.4-1.9
		C109.4,277.1,109.4,290,109.4,302.9z"/>
	<path class="st15" d="M295.1,230.3c0.2-2.1,0.4-4.3,0.6-6.4c0.1-1-0.1-1.7-2-1.7c-6.6,0-13.2,0-19.8,0.1c-0.6,0-1.3,0.4-1.9,0.6
		c-0.1-1.2,1.2-1.2,2.4-1.2c6.5,0,13,0,19.4,0c2,0,2.8,0.5,2.8,1.8c-0.1,1.8-0.1,3.7-0.1,5.5C296.5,229.5,296.4,230.1,295.1,230.3z"
		/>
	<path class="st16" d="M478.6,226.1c-0.1,8.4-0.1,16.8-0.2,25.2c0,0.7-0.3,1.4-0.4,2.1c0-8.9-0.1-17.9-0.1-26.8
		c0-0.2,0.1-0.4,0.2-0.6C478.3,226,478.5,226.1,478.6,226.1z"/>
	<path class="st17" d="M691.8,335.1c0,4.8,0,9.5,0,14.3c-1.5-1.8-0.7-3.7-0.7-5.6C691.2,340.9,690.2,337.9,691.8,335.1z"/>
	<path class="st1" d="M374.8,270c-0.6,9.7-0.9,19.8-4.3,29.8c-0.8,2.3-2.2,4.4-3.6,6.5c-7,9.9-23.1,8-29.7,0.9
		c-4.3-4.6-6.3-9.7-7-14.9c-1.8-13.4-0.5-26.8,2.7-40.1c1-4.2,3.6-8.1,8.3-11.2c5.8-3.9,12.7-4.3,19.5-1.1
		c7.6,3.5,11.5,8.5,12.9,14.4C374.7,259.3,374.5,264.4,374.8,270z"/>
	<path class="st18" d="M677.8,303.9c-2-7.5-3.8-14.4-5.6-21.3c-0.6-2.1-1-4.3-1.7-6.4c-0.4-1.2-0.1-1.8,1.9-1.8
		c4.1,0,8.2-0.1,12.3-0.1c1.3,0,2.8,0,2.3,1.4c-3.3,8.9-4.7,18-8.2,26.9C678.6,302.9,678.4,303.1,677.8,303.9z"/>
	<path class="st1" d="M531.2,259.4c-0.1,4.3-1.9,8.7-7.2,12.3c-5.1,3.5-11.8,3.7-18.3,4.2c-1.6,0.1-2.3-0.7-2.6-1.6
		c-0.5-1.3-0.6-2.7-0.5-4c1-9.9,1.3-19.8,1.2-29.7c0-1.9,0.7-2.3,3.5-1.9C522.5,240.6,530.6,247.4,531.2,259.4z"/>
	<path class="st19" d="M715.9,336.9c1.4,0.1,2.1,0.7,2.7,1.4c0.7,0.9,1.2,1.9,0.1,2.9c-0.7,0.7-1.8,0.7-2.8,0.8
		c-0.5,0.1-0.9-0.2-0.9-0.6c0-1.3,0-2.7,0-4C715,337,715.4,336.8,715.9,336.9z"/>
	<path class="st20" d="M631.8,342.3c0-1.4,0-2.7,0-4.1c0-1.6,1.3-1.5,2.8-0.9c2.4,1,2.9,2.7,2.8,4.4c-0.1,1.9-0.6,3.7-2.8,5
		c-0.7,0.5-1.5,0.9-2.6,0.6c-1-0.3-0.5-1-0.5-1.5c-0.1-1.2,0-2.4,0-3.6C631.6,342.3,631.7,342.3,631.8,342.3z"/>
</g>
</svg>
