<?xml version="1.0" encoding="utf-8"?>
<!-- Generator: Adobe Illustrator 21.1.0, SVG Export Plug-In . SVG Version: 6.00 Build 0)  -->
<svg version="1.1" id="Layer_1" xmlns="http://www.w3.org/2000/svg" xmlns:xlink="http://www.w3.org/1999/xlink" x="0px" y="0px"
	 viewBox="0 0 700 965" style="enable-background:new 0 0 700 965;" xml:space="preserve">
<style type="text/css">
	.st0{fill:#FEFEFE;}
	.st1{fill:#182849;}
	.st2{fill:#19294A;}
	.st3{fill:#FCFCFC;}
	.st4{fill:#1F2F4E;}
	.st5{fill:#B51A32;}
	.st6{fill:#FDFDFD;}
	.st7{fill:#B51B34;}
	.st8{fill:#B41831;}
	.st9{fill:#B41931;}
	.st10{fill:#B51B33;}
	.st11{fill:#21304F;}
	.st12{fill:#1A294A;}
	.st13{fill:#EFF0F2;}
	.st14{fill:#B41730;}
	.st15{fill:#283755;}
	.st16{fill:#202F4F;}
	.st17{fill:#F5F6F7;}
	.st18{fill:#293756;}
	.st19{fill:#253452;}
	.st20{fill:#F4F4F6;}
	.st21{fill:#D9DCE1;}
	.st22{fill:#ECEEF0;}
	.st23{fill:#707A8E;}
	.st24{fill:#A3AAB6;}
	.st25{fill:#2D3C59;}
	.st26{fill:#F8F8F9;}
	.st27{fill:#535F77;}
	.st28{fill:#243352;}
	.st29{fill:#D8DAE0;}
	.st30{fill:#F6F7F8;}
	.st31{fill:#F4F5F6;}
	.st32{fill:#4B5871;}
	.st33{fill:#4E5A73;}
	.st34{fill:#FAFBFB;}
	.st35{fill:#D3D6DC;}
	.st36{fill:#1B2B4B;}
	.st37{fill:#47546D;}
	.st38{fill:#FBFCFC;}
	.st39{fill:#F0F1F3;}
	.st40{fill:#C7CBD2;}
	.st41{fill:#293856;}
	.st42{fill:#3F4C67;}
	.st43{fill:#505C75;}
	.st44{fill:#949CAA;}
	.st45{fill:#4F5B74;}
	.st46{fill:#626C82;}
	.st47{fill:#2A3957;}
	.st48{fill:#CACDD5;}
	.st49{fill:#434F6A;}
	.st50{fill:#57637A;}
	.st51{fill:#ABB1BC;}
	.st52{fill:#878FA0;}
	.st53{fill:#7E8798;}
	.st54{fill:#45526C;}
	.st55{fill:#7E8799;}
	.st56{fill:#56627A;}
	.st57{fill:#182848;}
	.st58{fill:#6F798D;}
	.st59{fill:#687287;}
	.st60{fill:#4A566F;}
	.st61{fill:#E0E2E6;}
	.st62{fill:#192848;}
	.st63{fill:#525E76;}
	.st64{fill:#DEE1E5;}
	.st65{fill:#44516B;}
	.st66{fill:#2E3D5A;}
	.st67{fill:#AEB4BF;}
	.st68{fill:#6C768A;}
	.st69{fill:#E4E6E9;}
	.st70{fill:#C2C6CE;}
	.st71{fill:#59657C;}
	.st72{fill:#34415E;}
	.st73{fill:#515E76;}
	.st74{fill:#7B8496;}
	.st75{fill:#798294;}
	.st76{fill:#364460;}
	.st77{fill:#5A657D;}
	.st78{fill:#BABFC8;}
	.st79{fill:#778194;}
	.st80{fill:#4B5771;}
	.st81{fill:#49566F;}
	.st82{fill:#59647B;}
	.st83{fill:#8D95A5;}
	.st84{fill:#1A2A4A;}
	.st85{fill:#3C4A65;}
	.st86{fill:#8A92A2;}
	.st87{fill:#F5F5F7;}
	.st88{fill:#F1F2F4;}
	.st89{fill:#E7E9EC;}
	.st90{fill:#6B758A;}
	.st91{fill:#EBECEF;}
	.st92{fill:#EAECEE;}
	.st93{fill:#3E4B66;}
	.st94{fill:#D0D3DA;}
	.st95{fill:#9DA4B1;}
	.st96{fill:#6A7589;}
	.st97{fill:#DDDFE3;}
	.st98{fill:#DADDE2;}
	.st99{fill:#C3C7CF;}
	.st100{fill:#E8EAEC;}
	.st101{fill:#B3B8C3;}
	.st102{fill:#6C768B;}
	.st103{fill:#778093;}
	.st104{fill:#E7E8EB;}
	.st105{fill:#A7AEB9;}
	.st106{fill:#CCD0D6;}
	.st107{fill:#D1D4DA;}
	.st108{fill:#9BA2B0;}
	.st109{fill:#CACDD4;}
	.st110{fill:#8F97A6;}
	.st111{fill:#FAFAFB;}
	.st112{fill:#E1E3E7;}
	.st113{fill:#F3F4F6;}
	.st114{fill:#D8DBE0;}
	.st115{fill:#959CAB;}
	.st116{fill:#717B8F;}
	.st117{fill:#414E68;}
	.st118{fill:#D9DBE1;}
	.st119{fill:#A4AAB7;}
	.st120{fill:#F2F2F4;}
	.st121{fill:#ECEDF0;}
	.st122{fill:#ECEDEF;}
	.st123{fill:#D7DADF;}
	.st124{fill:#EBEDEF;}
	.st125{fill:#7C8597;}
	.st126{fill:#C1C6CE;}
	.st127{fill:#2A3856;}
	.st128{fill:#B4B9C3;}
	.st129{fill:#202F4E;}
	.st130{fill:#636E83;}
	.st131{fill:#7F889A;}
	.st132{fill:#FBF5F6;}
	.st133{fill:#FDFCFD;}
	.st134{fill:#FDFAFB;}
	.st135{fill:#8B93A3;}
	.st136{fill:#B7BCC6;}
	.st137{fill:#DFE1E5;}
	.st138{fill:#EDEEF0;}
	.st139{fill:#F2F3F5;}
	.st140{fill:#FBFBFC;}
	.st141{fill:#626D83;}
	.st142{fill:#B8BDC6;}
	.st143{fill:#273554;}
	.st144{fill:#C2C7CE;}
</style>
<g>
	<path class="st0" d="M352.6,133.8c114.6,0,229.3,0.1,343.9-0.2c6,0,7.2,1.2,7.2,7.2c-0.2,228.7-0.2,457.3,0,686
		c0,6-1.2,7.2-7.2,7.2c-229.2-0.2-458.5-0.2-687.7,0c-6,0-7.2-1.2-7.2-7.2c0.2-228.7,0.2-457.3,0-686c0-6,1.2-7.2,7.2-7.2
		C123.4,133.8,238,133.8,352.6,133.8z"/>
	<path class="st1" d="M332.7,552c-1.5-8.2-7.2-14.8-9.3-22.7c-0.3-2.7-0.9-5.4,2.4-6.8c6.8-3.3,3.4-5.7-0.7-8.1
		c-3.6-2.8-3.8-7.6-6.3-11c-1.5-2.1-4.4-2.9-5.2-5.6c-5.8-6.4-4.3-17.2-13.8-22.2c-7.8,14.3-15.7,28.7-23.5,43
		c-2.2,1.4-3.7,1.2-3.6-1.9c6.3-11.7,12.2-23.7,19-35.1c4.4-7.3,6.4-13-3.4-17c-0.1-5.2,4.9-7.6,7.1-12.8c-4.8,2-10,7.4-12.3-1.3
		c1.2-1.8,2.4-3.6,3.7-5.4c0.7-0.5,1.3-1,1.9-1.5c12.9,0.1,17.8-10.4,24.4-18.5c3-3.7,7.2-7,6.5-12.7c0.4-1.2,1.2-2.1,2.3-2.7
		c1.5-0.6,3.6,0.4,4.5-1c0.7-1-1-1.5-1.8-2c-2.5-1.1-5.2-1.3-7.8-1.7c-0.8-0.1-1.6-0.3-2.4-0.5c-3.8-0.7-7-2.3-8.2-6.4
		c-5.3-3.7-5.8-6.3,1.5-7.5c1.9-0.3,3.7-1,5.6-1.6c6.1-0.6,11.8-0.2,14.3,6.8c-4.5,3.9-8.6-1.8-14.8,0c6,1.4,10.1,3.4,14.7,0.3
		c2-1.1,3.9-0.4,6.2,0.2c-2.2-1-4.2-1.4-5.8-2.8c-1-0.8-1.4-1.9-1-3.1c0.5-1.6,1.8-2,3.4-2c1.2,0,2.1,1.3,3.4,0.7
		c-1.4-1-1.3-3.2-3.2-3.9c-3.5-1.2-7.6-1.1-10.1-4.4c-7.7-4.8-11.6-12.2-14.5-20.5c-2.8-7.9-7.8-14.3-15.3-18.4
		c-7.6,3.2-12.4,0-15.4-6.9c0.7-2.5,1.2-5.1,2.1-7.4c1.5-3.7,1.8-6.3-3-8c-5.7-2-7.3-6.6-4.3-11.9c2.7-4.9,1.2-10.3,2.7-15.4
		c4.2-13.9,17.2-17.7,27.6-7.7c1.8,1.8,3.1,4.2,6,4.7c4.5,0.8,5.8,3.3,3.5,7.5c-1.6,3,0.8,4.8,2.4,6.8c2.5,6.8,10.2,8.1,14.1,13.4
		c0.3,0.7,0.4,1.5,0.4,2.3c-1.1,5.2,3,6.8,6.2,9.1c3,2.2,5.4,5.1,8.7,6.9c3.7,1.5,3.8,5.4,5.7,8.1c2.5,2.5,4.7,0.6,7.1-0.4
		c2.2-1,5.6-1.4,6.1,1.2c2,9.8,7.5,19.9-0.6,29.6c-4.5,4.2-10.6,4.5-15.3,6.6c2.9-0.9,6.4-2.2,10.1-2.3c4.4,2.9,5-3.3,8.1-3.4
		c0.8,0,1.5,0.3,2.1,0.9c1.1,7.5-2.9,13.3-5.8,18.9c3.7-3.5,3.5-10.3,8.9-13.3c1.6-0.6,3.2-0.6,4.8,0.2c4.7,3.3-1.5,9.1,2.9,12.5
		c4.2,8,14.5,10.6,17.3,19.8c-0.3,4.5-4.6,4.3-6.9,6.3c4.7-2.5,9.7-4.7,15.2-1.7c0.9,0.9,1.5,2,2,3.2c0.7,2.1,1.2,4.1,0.1,6.2
		c-3.1,2.9-7.3,0.1-10.6,2.2c-2.4,1.5-5.6,2.1-5.8,5.6c-0.1,3.6,3.7,3,5.4,4.6c2,2.6,4.8,0.7,7.2,1.3c5.8,5,2.9,9.1-1.2,13.1
		c-2.4,2.3-5.2,3.7-8.5,4.1c-1.5,0-2.8-0.5-4-1.4c-1.5-1.2-3-3.1-5.2-1.3c-2,1.8,0,3.7,0,5.6c0,1.5,2,3.2,1.6,3.8
		c-9.3,13.8,6.8,23.3,6,35.6c-0.8,4.6-4.6,7.5-6.8,11.3c-3.7,4.3-0.1,7.9,1.1,11.7c0.3,1.6,0,3.2-0.1,4.8
		c-0.7,5.4,0.6,10.5,2.2,15.6c0.2,0.8,0.2,1.6,0.1,2.5c-1.3,4.6-3.5,8.9-1.7,14.1c2.5,6.9,6.4,11.9,14.2,12.5
		c-2.4,6.9,2,12.5,3.5,18.7c-3.4,1.5-6.1-3.2-9.7-1.2c0.2,3.6,2.3,4.8,5.5,5.1c2,0.2,4.9-0.5,4.6,3.2c-4.4,4-9.6,3.1-14.7,2.5
		c-8.7-0.9-0.4-8.7-4.6-11.5c-2.6-1.6-2.6-5.1-4.9-7c-2-1.5-4.1-0.8-6.2-0.1c-1.5,0.4-2.9,1-4.4,0.1c-0.9-2.7-3.7-4.5-3.6-7.7
		c0.1-2.1-0.7-2.9-3.1-2.7c-9.7,0.9-9.8,0.8-6.1-8.7c1.6-1.3,3.2-2.4,5.4-2.2c1.3,0.4,2.5,1.2,3.6,2c-1.4-1.6-3.2-2.3-5.3-2.3
		c-5.5-5.2-2.2-10.1,0.6-15c10.2-3.7,10.2-3.7,9.1-15.7c-0.4,5.4,2.1,10.6-4,12.7c-2.7-1.5-2.9-4.3-3-6.8c-0.3-6.4-3.3-3.6-6.1-1.9
		c-1.9,0.4-3.4-0.5-4.7-1.6c-2.3-3.2-4.5-6.5-2.8-10.8c4.3-1.5,4.6-4.5,3.3-8.4c-1.2-3.6-2.6-7.2-2.4-11c0.1-3.5,1.6-5.6,5.3-2.7
		c0.3,0.2,0-0.7,0.1-1c1.3-6,6.6-8.3,11.2-4.6c-1.9-4.8-2.7-9.6-4.7-14.1c-1.5-3.5-3.4-6.8-6.8-8.8c-1.5-0.9-3.1-2.1-4.8-0.7
		c-1.3,1-0.9,2.6-0.7,4.1c0.3,1.7,0.9,3.4,1.5,5c3.4,9.3,3.5,9.5-5.9,12.3c-3.1,0.9-3.5,2.8-3.6,5.1c0,5.9,1.1,11.6,5.6,16
		c2.3,2.3,4.7,4.6,2.7,8.3c-6.6,3.5-1.6,8.1-0.8,11.9c1.1,5,4.5,9.7,0.5,14.8c-1.4,3.5-1.1,7.6-4,10.4
		C334.6,563.6,334.6,556.5,332.7,552z"/>
	<path class="st2" d="M402.2,428.3c-0.4-2.1-0.8-4.1-1.3-6.2c6.5-0.6,6.9,4,7.4,8.6c0,1.1,0,2.3,0.4,3.3c2.8,2.3,3.9,6.9,8.7,6.4
		c2.2,0.2,3.9,1.2,5.1,3c1.3,2.4,0.5,5.1,0.9,7.6c0.7,4.8,4.3,6.4,8.4,7.4c3.9,1,6.1-0.7,6.4-4.7c5.4-6.4,5.4-6.4,6.6-19.7
		c-5.4,5-1.8,13.8-8.7,17c-2.9-0.6-4.3-2.5-4.7-5.3c0.8-3.2,2.1-6.3,0.8-9.9c-2.7-7.7-3.3-8-10-2.7c-4,1.2-5.8-2.1-8.2-4.1
		c-1.1-1.2-2-2.6-2.2-4.3c0-0.8,0.2-1.6,0.6-2.3c0.6-0.5,1.4-0.7,2.2-0.6c1.1,0.5,2.2,0.9,3.2,1.6c3.5,1.8,5.6-0.3,7.6-2.7
		c-3-1.8-4.9,2-7.6,1.4c-5.2,0.1-4.2-6.2-8-7.6c-0.7-0.5-1.1-1.2-1.3-2c1-6.7,7.3-6.8,11.7-9.3c2.7-0.6,5.4-0.5,8,0.5
		c5,2.8,9,6.7,12.4,11.4c2.9,4.9,7.4,7.8,12.7,8.3c6.9,0.6,9.6,4.5,10.7,10.5c0.8,4.3,2.2,8.4,3.5,12.6c0.2,5.6-6.5,4-8.1,7.7
		c-0.5,0.3-0.9,0.6-1.3,1c-0.7,0.8-1.7,1.5-2,2.6c0.7-0.7,1.1-1.7,2-2.3c1.6-0.8,3-0.2,4.4,0.5c2.9,1.7,2.9,5.3,5,7.6
		c0.4,0.7,0.7,1.4,0.9,2.2c0.4,5.3-1.7,11.6,5.1,14.6c0.7,0.5,1.2,1,1.8,1.6c-3,5.1-7.3,2.9-11.5,1.6c-0.4,3.3-0.4,6.2-1.1,9
		c-0.7,3.2-2.1,6.2-5.6,7.2c-4.2,1.2-5.5-2.3-7.1-4.9c-1.2-2-2-4.5-4.9-4.1c-4.1,0.7-1.3,3.6-1.5,5.5c-0.6,7.6-5.4,13.1-9.8,18.8
		c-0.6,0.6-1.3,0.8-2.2,0.6c-5.4-3.4-5.5-7.7-2.3-12.6c0.6-1,1.6-1.8,1.8-2.9c0.3-1.9-0.2-3.4-2.6-3c0.8,0.9,2.7,0.5,2.6,2.5
		c-0.2,3.7-5.7,3.2-5.4,7.2c0.7,3.7,1.5,7.3-1.8,10.3c-0.8,0.3-1.6,0.3-2.3-0.2c-1-9.8-2-19.6-3.2-32c-4,9.6-9.4,5-14.2,4.5
		c-3.9-0.8-3.8-4.1-3.9-6.8c-0.3-9.8-0.5-19.4-11.7-23.8c-0.3-0.1,0-1,0.2-1.6c3.8-1.3,7.2-3.3,10-6.2c3.2-3.4,2.5-6.7-1.1-9.4
		c-3,1.1-3.6-5-7.1-2.5c-6.2-0.5-5.8-3.4-2.5-7.2C391.9,427.7,397.4,429.4,402.2,428.3z"/>
	<path class="st3" d="M388.8,457.4c11.3,4.3,15.3,11.7,14.2,24.7c-0.2,2.4-3,5.6,1.1,7.4c-3.6,10.2-0.7,20.8-1.8,31.2
		c-3.6-0.4-4-3.4-3.7-5.8c0.6-5.8-0.6-12,1.2-15.6c-2.6,10,0.8,24-9.4,34c-5.2,1-5.3-2.7-5.9-6.1c-0.2-10.1,6-18.8,6.1-28.9
		c-0.2-1.1-0.4,0.4-0.5-0.7c-0.1-1-0.1-1.8,0.6-2.5c-1,0.9-1,1.9-0.3,2.9c0,2.4-0.7,3.9-3.5,3c-1.6-4.7-5-8.8-4-14.3
		c0.4-2.2-1.6-3.4-2.9-3.7c-10.4-2.1-4.8-7.3-2.4-11.7c1.5-2.8-0.7-3.7-0.1-5.1c1.8-3.9-2.2-6.9-0.6-10c1.3-2.5,3.5-4.4,5.3-6.6
		C385.6,452.3,385.2,456.5,388.8,457.4z"/>
	<path class="st4" d="M439.3,415.5c-3.5-3.3-7.1-6.7-10.6-10c0.7-2.1,2.5-2.1,4.3-2.4c-4.8,0.2-9.7-3.5-14.1,1.1
		c-5.5,1.6-8.1-0.9-7.5-6.1c0.5-4.2-1.2-7.3-3.1-10.6c-0.8-3-0.2-5.6,2.3-7.6c1.7-1,3.5-1.1,5.4-0.7c5.1,2.8,11.1,2.1,16.3,4.5
		c1.8,0.9,3.2,2.4,4.6,3.8c5.1,5,10.6,8,17.3,2.6c1.1-0.9,2.5-1.5,3.9-0.4c2.8,3.6,5.5,7.1,8.3,10.7c-2.9,1.7-5-2.5-7.9-1
		c0,8,2.4,15.2,6.2,22c0.4,1.8,0.2,3.5-1.1,4.9c-3.5-0.7-6.8-2.1-10.6-2.2C447.3,423.9,442.5,420.8,439.3,415.5z"/>
	<path class="st5" d="M569.2,684.2c0,9.1,0,18.3,0,27.4c0,1.5,0.1,2.8,1.6,3.7c1.5,0.9,4.9-0.2,4.4,2.9c-0.6,3.3-3.8,1.5-5.8,1.8
		c-2,0.3-4.1,0.1-6.1,0c-1.7-0.1-4.1,0.7-4.7-1.1c-1.1-2.9,1.9-2.5,3.4-3.5c2.9-1.9,2.8-35,0-36.8c-1.5-1-4.6-0.4-3.4-3.4
		c0.7-1.7,3.1-0.9,4.8-1.1c5.7-0.7,9.7,0.6,12.4,6.6c4.2,9.2,9.5,17.8,14.5,27.1c3.8-12,2.2-27.4-3.8-32.1c3.6-2.5,7.4-1.3,10.9-1.4
		c2.1,0,5.2-1.3,6.1,1.5c1,3.2-2.7,1.9-4,3c-2.1,1.8-1.3,4.3-1.3,6.6c-0.1,9,0.2,18.1-0.2,27.1c-0.1,2.6,2.4,6.7-2.9,7.7
		c-4.6,0.9-5.9-2.4-7.5-5.5c-4.7-9-9.6-17.9-14.5-26.8C572.4,686.5,572.5,684.1,569.2,684.2z"/>
	<path class="st3" d="M429.7,335.1c1.8,4,2.4,8.1,0.8,12.3c-1,1.1-1.4,2.5-2.3,3.7c-0.4,0.6-0.9,1.2-1.4,1.8
		c-4.7,4.2-8.1,9.8-14,12.5c-2.1,0-4.2-1-4.8-2.8c-1.3-3.9-4-1.7-6.2-2c-6.9-2.7-13.9,2.3-20.8-0.2c-1.1-3.9-1.2-8-1.3-12
		c-0.1-2.3-0.2-5,2.2-6.2c2.6-1.2,4.1,1.2,5.7,2.8c5.7,6,16.9,5.6,22.7-0.4c2.7-2.8,2.1-5,0.1-7.5c-1.4-2.9-2.3-5.7,0.9-8.1
		c4.6,1.5,6.8-4.2,11.1-3.6C427.2,326.7,426.1,332.7,429.7,335.1z"/>
	<path class="st6" d="M320.4,412.1c2.4,3,3.8,6.3-0.5,8.6c-4.3,2.3-6.6,6.7-9,10.2c-5.5,8-10.3,15.9-21.8,14.1
		c-1.9-2.4-1.5-5.1-0.2-7.3c4.5-7.9,5.8-17,10.6-24.7c0.5-0.8,1-1.6,1.6-2.3c3.4-4.9,6.4-10.6,14.1-7.5c0.4,0.3,0.9,0.4,1.4,0.3
		C318.1,406.2,320.2,408.7,320.4,412.1z"/>
	<path class="st7" d="M134.1,676.7c-8.7,1-7,6.8-7,11.7c-0.1,6.1,0.2,12.2-0.1,18.3c-0.5,9.7-6.8,14.5-18.1,14.3
		c-10.9-0.2-16.3-4.9-16.5-14.7c-0.2-7,0-14,0-20.9c0-1.7-0.2-3.5-0.3-5.2c-0.2-2.9-7.9-1.5-4.3-4.9c3.2-3.1,9.4-1.2,14.3-0.7
		c1.7,0.2,2,2.8,0.6,3.2c-3.3,1-4.9,2.4-4.5,6c0.8,9.2-1.9,18.8,1.5,27.6c2,5.3,7.8,5.6,12.9,4.7c5.1-0.9,8.5-3.5,8.5-9.3
		c-0.1-7.8,0-15.7,0-23.6c0-1.7,0.3-3.8-1.7-4.5c-1.9-0.6-4.6-0.4-3.4-3.4c0.4-0.9,3.1-1,4.8-1.1c4-0.1,8,0,12,0
		C133.1,675,133.6,675.8,134.1,676.7z"/>
	<path class="st8" d="M459.7,675.9c-7.8,2.5-6.4,6.5-4.6,10.9c2.2,5.4,3.7,11,6,16.3c2.4,5.5,1.9,12.7,10.7,14.5
		c-0.5,0.8-1,1.6-1.6,2.4c-4.7,0-9.5,0.2-14.2-0.1c-3-0.1-3.7-2.7-1.1-3.5c4.3-1.4,3.3-3.3,2.4-6.4c-1.1-3.6-3.2-4.9-6.3-4.2
		c-5.5,1.3-13.3-4.4-16,5.4c-0.4,1.6-1.7,3.3,0.8,4.3c1.5,0.6,4,0.2,3.5,2.8c-0.6,3-3.3,1.5-5,1.7c-2,0.2-4.1,0.2-6.1,0
		c-1.6-0.1-3.8,0.8-4.6-1.3c-0.9-2.4,1.4-2.5,2.9-3.3c2.3-1.2,2.5-3.8,3.3-5.9c3.1-8.4,6.3-16.9,9.3-25.3c0.6-1.6,1.4-3.6,0.9-5
		c-2-5.2-2.2-5.3,3.8-5.1C448.1,674.4,453,673.2,459.7,675.9z"/>
	<path class="st8" d="M403,697.6c-0.2,14.5-8.4,23.4-21.3,23.2c-12.7-0.2-21.2-9.8-21.1-23.8c0.1-13.9,8.9-23.8,21.2-23.9
		C394.7,673,403.2,682.9,403,697.6z"/>
	<path class="st8" d="M313.6,697.4c-0.1,14.4-8.3,23.6-21.1,23.6c-12.7,0-21.4-9.6-21.4-23.6c-0.1-14.3,9.2-24.5,21.9-24.2
		C305.5,673.4,313.7,683,313.6,697.4z"/>
	<path class="st9" d="M532.1,721.1c-2.9-0.4-6.6-0.8-10.4-1.3c-4.2-0.5-3.7-3.8-3.6-6.6c0-2-0.6-4.4,2.4-4.7
		c3.5-0.3,2.6,2.9,3.7,4.6c3.6,5.5,9.4,3.5,14.3,2.9c4.3-0.5,7.4-3.6,7.3-8.5c-0.2-5.6-4.6-6.9-9-8c-3.4-0.8-6.9-1.1-10.3-2
		c-5.4-1.4-8.6-4.9-8.7-10.6c-0.1-5.9,2.7-10,8.2-12.2c6.8-2.7,13.8-1.4,20.7-0.2c3.9,0.6,3.1,3.6,3.1,6.1c0,1.9,0.6,4.3-2.6,4.5
		c-3,0.2-2.4-2.2-3.4-3.8c-3.5-5.6-9.2-3.4-14-2.8c-3.8,0.5-6.1,3.7-5.9,7.6c0.2,5,4.2,6.5,8.4,7.4c2.6,0.5,5.2,0.8,7.7,1.3
		c7,1.4,11.9,5,12,12.8c0.1,6.8-5.6,12.1-13.8,13.2C536.5,721,534.7,720.9,532.1,721.1z"/>
	<path class="st10" d="M169.3,721.1c-2.9-0.4-6.7-0.5-10.4-1.4c-3.5-0.8-5.4-8.6-2.5-10.6c2.3-1.6,4.6-1.2,4.9,2.2
		c0.5,6.5,5.5,4.7,9.2,5.1c4.6,0.5,9.2-0.2,11.3-4.8c2.2-4.8,1.2-9.4-4.6-11.1c-4.2-1.2-8.5-1.8-12.7-2.8c-5.8-1.4-9.1-4.8-9.1-11.1
		c0-6.4,3.2-10.3,9.1-12.3c6.7-2.2,13.3-0.7,19.9,0.3c3.8,0.6,3.2,3.6,3.1,6.1c0,1.6,0.8,3.7-1.7,4.3c-3.1,0.7-3.2-1.5-4.4-3.7
		c-3.3-5.8-9.2-3.4-14.1-2.9c-3.7,0.4-6.1,3.3-5.8,7.5c0.3,5.7,4.7,6.8,9.1,7.6c2.3,0.4,4.6,0.7,6.9,1.2c7.3,1.6,12.6,5.3,11.8,13.6
		c-0.8,8-6.3,11.3-13.6,12.4C173.6,721,171.9,720.9,169.3,721.1z"/>
	<path class="st5" d="M490.6,721.1c-3.7-0.5-7.6-0.6-11.2-1.5c-3.3-0.7-5.1-9-2.5-10.8c2-1.3,3.4-0.6,4.6,1.8
		c3.3,6.7,15.3,7.9,20,2.2c3.8-4.6,2.2-10.3-3.9-12.4c-4.1-1.4-8.5-1.8-12.7-2.9c-5.7-1.4-9.1-4.9-9.2-11.1c0-6,2.9-9.9,8.3-12
		c6.9-2.7,13.8-1.1,20.7,0c3.8,0.6,2.9,3.8,3,6.2c0,1.6,0.7,3.7-1.8,4.2c-3.3,0.7-3-1.8-4.2-3.8c-3.4-5.6-9.3-3.3-14.2-2.7
		c-3.7,0.5-6.2,3.7-5.9,7.6c0.4,5.4,4.8,6.8,9.3,7.5c2.3,0.4,4.6,0.6,6.9,1.2c7.3,1.7,12.6,5.3,11.7,13.6
		c-0.8,7.9-6.3,11.4-13.6,12.3c-1.7,0.2-3.5,0-5.2,0C490.6,720.9,490.6,721,490.6,721.1z"/>
	<path class="st10" d="M231.9,697.4c0-4.4,0.1-8.7,0-13.1c0-1.7-0.2-3.5-0.9-5c-0.9-1.9-5.9,0-4.6-3.5c1.2-3.3,5.1-1.5,7.8-1.6
		c6.1-0.2,12.2,0,18.3-0.1c8.2-0.1,12.3,4.5,13.2,12.1c1,8.2-3.6,14.3-11.6,15.7c-2.3,0.4-4.7-0.1-6.9,0.4c-3,0.6-8.1-2.3-8.7,2.4
		c-0.5,3.8-3.8,10.3,4.3,11.6c0.5,0.1,1.2,1.2,1.3,1.9c0.2,1.6-1.2,1.8-2.3,1.8c-2.9,0.1-5.8,0.2-8.7,0.1c-2.2-0.1-5.5,1.1-6.5-1
		c-1.6-3.5,2.5-2.7,4-3.9c0.6-0.5,1.2-1.4,1.2-2.1c0.1-5.2,0.1-10.5,0.1-15.7C231.9,697.4,231.9,697.4,231.9,697.4z"/>
	<path class="st11" d="M358.6,306.8c0.1-1,0.2-2,0.3-3c1.1-4.4,2.3-8.7-4.8-8.3c-1.1,0.1-2.4-0.2-2.4-1.7c0-2.8,2.5-3.5,4.3-4.8
		c0.7-0.6,1.5-0.9,2.3-1.2c6.6-1,13.1-2.5,19.7-0.5c1.3,0.2,2.6,0.7,3.7,1.6c0.9,1.1,1.1,2.4,0.8,3.7c-1.4,3.3-5,4-7.3,6.3
		c-2.3,2.9-2,5.9-0.2,8.8c0.3,0.4-0.9,1.8,0.7,1.1c1.2-0.6,1.9-2,2.8-3c1.1-1.2,2-2.5,3.7-2.9c1.4,0.3,2.1,1.3,2.4,2.6
		c-0.1,4-1.6,7.8,0.8,11.9c1.8,3.1,0,6.2-2.6,8.5c-2.7,2.3-5.4,1-8.1-0.2c-7.8-3.3-11.3-10.6-16.1-16.7
		C358,308.3,358.1,307.5,358.6,306.8z"/>
	<path class="st12" d="M287.5,343.9c-1.1,16.1-12.5,22-25.8,25.8c-7.7,2.2-15.6,3.9-23.7,4c-2-2-1.9-4.3-1-6.7
		c1.3-2.2,3.6-2.7,5.7-3.8c10.6-2,19.1-8.8,28.8-12.9c3.1-1.4,4.5-4.3,6.8-6.4C281.3,341.8,284.4,342.3,287.5,343.9z"/>
	<path class="st13" d="M432.3,385.5c-5.1-3.1-12,0-16.5-5.1c3.1-3.2,7.2-3.1,11.1-3.6c-1.2-5.3-5.4-6.5-10-7.3
		c-1.2-0.5-2.1-1.4-2.7-2.5c1.8-7.3,9.5-10.1,12.7-16.3l-0.1,0.1c4.1-2.4,4,1.1,4.8,3.4c2.8,8.2,6.1,16.1,11.5,22.9
		c0.4,0.4,0.8,0.9,1.2,1.3c3.2,4.1,2.4,7-2.7,8.4C438.3,388.6,435.5,385.2,432.3,385.5z"/>
	<path class="st14" d="M331.3,697.3c0,2,0,4.1,0,6.1c0,12.8,2.5,14.8,15.1,12.5c1.8-0.3,3.4-0.6,3.5-2.9c0.1-2.3-0.2-5,3.4-4.7
		c3,0.3,2.6,2.9,2.4,4.7c-0.4,2.5,2,6.8-2.6,6.9c-10.1,0.4-20.3,0.2-30.5,0.1c-2.9,0-3.8-2.9-1.3-3.6c5.8-1.4,4.1-5.5,4.1-8.9
		c0.2-7.8,0.1-15.7,0-23.5c0-1.9,0.8-4.4-1.6-5.4c-1.7-0.8-4.7-0.3-3.5-3.4c0.7-1.7,3.1-1.1,4.8-1.1c2-0.1,4.1-0.2,6.1,0
		c2.1,0.3,5.2-1.4,5.9,1.7c0.7,3.2-2.8,1.9-4.3,2.8c-2.2,1.4-1.6,3.5-1.6,5.5C331.2,688.6,331.3,692.9,331.3,697.3z"/>
	<path class="st15" d="M332.7,552c2.8,3.2,4.1,8.5,10.1,7c0.6,7,1.2,14,1.8,21c0.2,1.4,0.4,2.9-0.1,4.2c-1.5,4,1.3,4,3.8,4.6
		c-1.7,4.4-3.6,8.8-1.4,13.7c0.5,0.9,0.4,1.7-0.2,2.5c-3.3,1.5-6.3,0.2-9.4-0.9c-1.3-0.8-2.1-1.7-1.6-3.4c1-2.3,2.2-4.4,0.9-7.3
		c-2.3-5.4-2.4-11.2-1.4-17C336.5,568,329.6,560.5,332.7,552z"/>
	<path class="st4" d="M284.1,230.1c-2.2,4.2-4.6,2.2-6.8,0.1c-1.9-1.7-3.5-3.8-5.6-6.1c-2.4,4.9-3.4,9.6-4.1,14.4
		c-3,0.9-6.6,2.8-5.3-3.3c1.1-3.3,1.9-6.7,3.2-9.8c2.2-5.1,1.3-9-2.6-13.1c-3-3.2-7.9-7-2.3-12.3c1.2,0.2,2.3,0.7,3.3,1.3
		c5.5,3.1,8.7,8.4,12.6,13c0.5,0.6,1,1.3,1.4,1.9c1.7,3.5,3.5,7,5.1,10.5C283.5,227.9,283.7,229,284.1,230.1z"/>
	<path class="st16" d="M390,532.4c6.8-11.4,6-24.9,10-37.1c1.5,8.5-0.7,17.2,2.4,25.4c0.1,10-4.8,18-10.4,25.8
		c-1.2-1.6-2.7-2.5-4.7-2c-0.8-0.1-1.6-0.4-2.3-0.9C381.3,537.4,385.8,535,390,532.4z"/>
	<path class="st17" d="M369.3,581.8c2.9-0.8,5.9-3.9,8.9-0.2c1,10.8-1.3,21.6,1.5,32.4c0.7,2.8-3.6,2.9-5.7,4.2
		c-2.7,0.8-5.3,2.4-8.2,0.4c0.8-8.9,2.3-17.7,1.9-26.7C367.7,588.4,371.2,585.5,369.3,581.8z"/>
	<path class="st18" d="M434,534.4c4,5.2,5.2,16.9,1.6,20.4c-4.7,4.5-10.1,2.6-15.3,0.7c-1.6-0.6-2-1.9-1.9-3.4
		c1.5-2.3,1.5-4.8,0.9-7.4c-0.5-1.8-2.1-3.2-2-5.3c0.4-2.2,1.7-3.5,3.9-4.1c2.2-0.2,3.7,1.1,5.3,2.2c1.9,1.1,3.6,0.4,5.1-0.9
		C432.3,535.8,433,534.9,434,534.4z"/>
	<path class="st19" d="M313.6,497.8c2,1.7,5.2,1,6.6,3.6c2.1,9.2,6.7,18.2,1.7,27.8c-6.2-0.7-11.5,2.8-17.4,3.4
		c-5.2,0.5-10.6,0.9-10.5-6.9c6.2-1.5,13.4,2.6,18.6-3.6c1.3-1.6,5-1.9,3.5-4.9c-1.1-2.2-3.6-1-5.5-0.7c-1.5,0.2-2.8,0.2-4.1-0.8
		C311.4,510.7,310.5,503.5,313.6,497.8z"/>
	<path class="st17" d="M383.2,272c1.2,1.1,2.4,2.2,3.6,3.3c-0.3,11.4-0.3,11.5-11.9,9.7c-4.8-0.7-9.9,0.9-14.4-2
		c-1.9-4.3,1.1-7.1,3.3-10.1C370,267.8,376.4,266.7,383.2,272z"/>
	<path class="st20" d="M386.9,543.4c0.5-0.3,0.9-0.3,1.4,0c3.4,3.3,1.3,7.5,1.9,11.2c0.4,2.7-0.2,5.7,2.2,7.8
		c1.6,3.7,3.1,7.3,4.7,11c-4.1,1.6-11.6,0.3-11.7-0.4c-1.2-8.7-11.4-16.9-2.1-26.3C384.2,545.4,385,543.8,386.9,543.4z"/>
	<path class="st21" d="M306.5,515.7c4.1,1.1,7.6-7.6,12-0.8c1.2,1.9,2.7,5.9,1,6.2c-5.8,1.1-8.5,7.9-15,7.4
		c-3.7-0.3-7.3-0.5-10.5-2.8C296.9,520.8,302.7,519.5,306.5,515.7z"/>
	<path class="st22" d="M320.2,380.8c8.9-1,13.1,5.6,19,11.8c-4.5-1.2-8.1-2.1-12.6-3.3c2.9,5.6,9.3,3.5,12.8,7.6
		c-4.7,3.1-8.4,0.2-12.2-0.7l0.2,0.2c-2.7-6.3-9.7-4.3-14.1-7.4C314.1,385,318.3,383.9,320.2,380.8z"/>
	<path class="st23" d="M272.7,516.7c0.5,1.9,2,2,3.6,1.9c-2.7,5.3-5.1,10.8-8.3,15.8c-3.2,5-3.2,7.8,3.1,9.5c2,0.5,4.4,1.4,5.6,3.7
		c1,1.8,0.2,2.7-1.5,3.2c-9.9-5.4-21.3-4.2-31.8-7c-0.8-0.8-0.8-1.7-0.1-2.6c0.4-0.4,1-1.1,1.2-1.1c12.9,5.5,16.8-4,21.4-12.7
		C267.8,523.8,270.4,520.3,272.7,516.7z"/>
	<path class="st24" d="M236.5,335.3c1.4-12.1,6.1-23.3,8.5-35.1c0.4-1.7,1.7-3,3.6-3.3c0.8,0.2,1.3,0.6,1.7,1.4
		c-1,14.7-6.6,28.2-10.2,42.2C237.7,339.6,237.2,337.4,236.5,335.3z"/>
	<path class="st25" d="M425.1,539.3c-1.3-1.1-2.6-2.2-3.8-3.2c-2.6-1-5.3-1-8.1-0.8c-0.8,0-1.5-0.3-2.1-0.8
		c2.6-6.4,5.7-12.5,10.5-17.5c0.5-0.1,1.1-0.1,1.6,0c1.4,5.6,5.4,8.1,10.7,9c0.6,2.8-4.5,5.7,0.1,8.4c-0.1,1.3-0.2,2.7-0.3,4
		C430.5,535.2,428.2,540.6,425.1,539.3z"/>
	<path class="st26" d="M432.3,385.5c3.1-2.5,6.1,1.6,9.2,0c4-0.8,7.9-2.4,12.1-1.5c3.6,0.1,7.4,0.2,4.8,5.6
		C447.8,398.8,443.9,398.2,432.3,385.5z"/>
	<path class="st27" d="M360.7,282.2c6.8,1.7,14.1-1.7,20.9,2.4c2.6,1.6,4.8-2,3.2-4.7c-1.9-3.1-0.7-3.9,1.9-4.6
		c5.5,1.6,3.6,6.9,5.3,10.5c2,3.9-0.5,4.7-3.5,5.2c-2.5-0.1-5-0.1-7.4-1c-1.1-0.2-2.2-0.4-3.3-0.6c-5.3-4.4-11-1.6-16.5-0.9
		C358.7,286.6,359.5,284.4,360.7,282.2z"/>
	<path class="st28" d="M274.5,550c0.7-0.8,1.4-1.6,2.1-2.4c3.5,4.5,2.4,7.2-3.3,7c-9.9-0.5-19.8-1.4-29.3-4.5
		c-2.2-0.7-4.5-1.5-4.7-4.4c-0.2-2.8,0.8-4.5,3.9-4.3c0,0.6-0.1,1.2-0.1,1.8C253.3,546.5,264.5,545.6,274.5,550z"/>
	<path class="st17" d="M325.5,317.8c-2.6-3.1-6.5-3.7-9.7-5.5c-2.5-1.3-4.7-4.9-3.7-8.8c3.7,3.9,7.9-1.6,11.7,0.7
		c3.6,3.7,9.7,3.5,12.8,8.1C334.4,317.6,329.8,317.5,325.5,317.8z"/>
	<path class="st29" d="M238.4,366.6c-0.2,2.4-0.3,4.7-0.5,7.1c-2.3,4.7-6.5,3.2-8.4,1c-3.1-3.6-5.7-8.3-2.3-13.5
		c3.2-1.1,2-6.9,6.8-6.5c9.6,3.9,0.1,9.5,1.3,14.1c-0.1,1.2,2,0.3,0.9,0.2c-0.3,0-0.4-0.2-0.5-0.4c-0.6-1.4-0.6-3,0.7-3.7
		C237.9,364.1,238.4,365.4,238.4,366.6z"/>
	<path class="st30" d="M432.6,758.4c-3,0.3-6,2.8-9.1,0.1c-4.5-12.1-1.6-15.9,10.6-14l-0.1-0.1C436.4,749.4,441.3,754.5,432.6,758.4
		z"/>
	<path class="st31" d="M458.4,398c0-3.9,2-2.7,3.7-1.4c1.5,1.2,2,3.7,4.5,3.6c1.5,2.5,2.7,5.2,2.3,8.2c3,6.2,2.3,12-2.2,17.2
		c-0.8,0.6-1.7,0.7-2.7,0.3c-0.2-1.7-0.4-3.3-0.6-5C460.4,413.6,459.3,405.8,458.4,398z"/>
	<path class="st32" d="M339.3,767.1c-0.3-8,1.6-16.3-1.6-24.8c5,0,10.7,0,16.4,0c1.7,0,3.7-0.1,4,2.2c0.2,1.4,0.7,3.9-2.3,2.4
		c-0.7-0.3-1-1.8-1.6-1.9c-3.7-0.4-7.7-1.6-10.8,0.8c-1.2,0.9-1,4.5-0.4,6.6c1.6,4.9,6.8,0.7,10.4,4.1c-8.8-0.9-12.8,2.2-10.5,10.7
		c0.2,1.3-0.1,2.3-1.5,2.5C339.9,769.8,339,768.9,339.3,767.1z"/>
	<path class="st33" d="M238.4,366.6c-4.4-2.4-1.4,2.6-2.8,3c-4.3-4.1,6.8-11-2.9-14.1c0.2-3,2-4.5,4.9-4.8c3,10.3,4.2,10.9,13.7,6.4
		c6-2.8,11.1-7.5,17.9-8.6c0.2,0.3,0.5,0.6,0.7,1c-5.7,5.3-11.9,9.7-19.4,12.1c-2.5,0.8-5.6,0.6-7.1,3.4
		C242.1,366.7,240.3,366.9,238.4,366.6z"/>
	<path class="st28" d="M365.8,618.6c2.3-0.7,4.5-1.4,6.8-2.1c3-0.7,6.1-1.1,9.1,0.2c0.4,3.6,4.2,8.4-1,10.3
		C375.1,629,366.6,623.4,365.8,618.6z"/>
	<path class="st34" d="M402.5,755.1c-1.1-0.6-2.2-1.2-3.3-1.8c-1.7-9.5,0.5-11,13.1-8.8c1.2,4,1.9,8-2.7,10.5
		C407.2,758.5,404.8,758.8,402.5,755.1z"/>
	<path class="st35" d="M346.8,548.5c1.7-5.5-1.7-9.8-3.3-14.5c-1.5-4.6-2.3-9.4-1.9-14.3c2.8-1.3,2.9,2.4,4.8,2.5l-0.2-0.2
		c1.3,3.6,2.7,7.1,4,10.7c1.6,2.8,2.2,6,3.3,9c1.2,3.2-1,4-3.2,4.9C349.1,547.2,348,547.9,346.8,548.5z"/>
	<path class="st36" d="M465.4,425.9c3.6-5.3,3.6-11.4,3.6-17.4c5.4,5.2,5.6,11.3,2.6,17.7c-2.4,4.9-5.2,9.6-3.7,15.5
		c-0.4,0.2-0.9,0.4-1.3,0.6C463.8,436.9,459.6,431.8,465.4,425.9z"/>
	<path class="st37" d="M257.4,767.5c5.6-5.2,3.6-8.4-2.8-10.3c-2.2-0.7-4.7-0.7-6.7-1.6c-5.3-2.6-5.9-9-1-11.9
		c4.2-2.5,9-1.8,13.6-0.9c2.1,0.4,2.8,2.8,1.8,4.1c-1.8,2.4-2.4,0.1-3.5-1.3c-0.6-0.7-2-1.1-3-1.2c-3.5-0.2-7.5-1-8.7,3.6
		c-1.3,5,2.8,5.6,6.2,6.4c9.4,2.4,11.9,5.6,9,11.9c-0.5,1.2-2.1,1.9-3.2,2.8C257.2,769.9,257.1,769,257.4,767.5z"/>
	<path class="st38" d="M402.5,755.1c2.4,1.5,4.7,1.5,7.1,0c0,0.6,0,1.2,0,1.8c6.2,6.1,6,7.3-1.1,11.9c-10.1-0.3-11.8-2.2-9.1-10.4
		C400.4,757.3,401.4,756.2,402.5,755.1z"/>
	<path class="st39" d="M433.9,526c-10.2,3.1-10.8,2.6-10.7-9c2-3.4,0.8-6.9,0.4-10.4c2.9-3.8,3.9-2.4,4.3,1.5c0.3,3.1-0.9,7.3,4.6,7
		c0.5,0.2,1,0.3,1.5,0.1C433.9,518.7,433.9,522.4,433.9,526z"/>
	<path class="st40" d="M283.1,450.4c2.1,2.4,3.8,6.9,7,0.6c1.6-3.2,4.9-3.4,7.2-1.1c2.3,2.4,0.4,5.1-1.6,6.6c-3.1,2.2-5,5.3-7.4,8
		C284.1,460.8,283.3,455.7,283.1,450.4z"/>
	<path class="st41" d="M237.6,350.7c-1.6,1.6-3.2,3.2-4.9,4.8c-3.3,0.5,0.7,8-5.4,5.7c3.1-8.6,6.2-17.3,9.2-25.9
		c1.7,1.4,3.2,2.8,3.6,5.1C239.3,343.9,238.4,347.3,237.6,350.7z"/>
	<path class="st40" d="M401,599.3c-0.4-1.3-1.5-2.2-2.6-1.7c-5.4,2.6-8.5,1-9.4-4.9c-0.2-1.4-2.7-3.1,0.1-4.2
		c4.7-1.9,8.4,0.1,11.5,3.7C403.7,594.4,403.4,596.8,401,599.3z"/>
	<path class="st42" d="M444.8,763.6c-1.3-4.2-1.3-8.6-0.5-12.8c0.9-4.9,3.3-8.6,9.1-8.6c5.3,0,7.7,3.1,8.9,7.7
		c1.7,6.1,1.4,11.9-2.4,17.3c-0.8,0.6-1.5,0.5-2.1-0.2c-1.4-3.7,0.5-7.4,0.1-11.1c-0.3-3.4,0-7.8-4.6-8c-4.1-0.2-4.3,3.9-4.8,7
		c-0.3,2.3-0.1,4.6-0.9,6.8C447.1,762.9,446.4,763.9,444.8,763.6z"/>
	<path class="st43" d="M350.3,546.6c1.2-1.5,4-2.4,1.2-5.1c-2.5-2.5-0.6-5.9-1.4-8.8c0.9,0.6,1.9,1.1,2.8,1.7c5,1.4,3.9,6.7,6.1,9.8
		c0.3,0.8,0.2,1.6-0.3,2.3c0.4,4.7-9,9.2-0.3,14.1c0.9,0.9,0.8,1.6-0.4,2.1c-1.6,0.5-3.1,1-4.7,1.5c0.1-4.6,0.1-9.2,0.2-13.8
		C353.6,548,353,546.5,350.3,546.6z"/>
	<path class="st44" d="M381.6,616.6c-3-0.1-6-0.1-9.1-0.2c4.5-1.1,6.8-3.1,5.2-8.4c-2.6-8.8-1.7-17.6,0.3-26.4
		c2.7,2.3,4.5,4.9,3.5,8.7C376.9,599.1,380.8,607.8,381.6,616.6z"/>
	<path class="st45" d="M316.7,746.2c-3.1,3.5-3.7,7.8-3.3,12.2c0.4,4.4,2.4,7.5,6.8,9.1c4.7,1.6,8.3,0.5,11.3-3.8
		c2.7,4.2,0.4,5.8-3,6.6c-6.1,1.2-11.8,0.6-15.5-5.1c-4.2-6.4-4.4-13,0.9-19.1C314.9,745.6,315.8,745.7,316.7,746.2z"/>
	<path class="st40" d="M253.1,282c-1.5-10,0.9-16.7,6.3-24.8C261.7,267.2,259.4,274.1,253.1,282z"/>
	<path class="st46" d="M395.4,289.7c18.5,2.1,22.9,16.2,26.5,31.1c0.9,1.9-0.3,2.2-1.7,2.4c-2.7-1.6-3.6-4.5-4.3-7.3
		c-2.9-11.6-9.3-19.7-21.6-22.1C392.5,291.8,393.7,290.7,395.4,289.7z"/>
	<path class="st47" d="M383,767.1c0.1-6.9,1.1-13.8-0.6-20.5c-0.4-1.7-1.8-3.1,0.7-3.8c2.4-0.6,2.9,1.2,2.9,3.1
		c0.2,7.2,0.4,14.3,0.6,21.5c0.3,1.2-0.1,2.2-1.5,2.3C383.5,769.7,382.7,768.8,383,767.1z"/>
	<path class="st48" d="M262.3,235.2c0,3.9,3.3,2.6,5.3,3.3c-1.5,5.3-1.4,11.3-6.3,16C257.9,247.5,260.8,241.4,262.3,235.2z"/>
	<path class="st49" d="M458.5,453.3c0.2-5.7,7-3.2,8.7-7c-1-1.6-1.3-3.1,0.1-4.6c0,0,0.7,0,0.7,0c1.6,5.9,3.1,11.8,4.7,17.6
		c-0.6,0.6-1.3,0.8-2.1,0.6c-2.8-1.1-4.8-5.1-8.6-2.3c-1.1-0.5-2.1-1.1-3.2-1.6C457.7,455.1,457.6,454.3,458.5,453.3z"/>
	<path class="st33" d="M287.5,343.9c-3.1-0.4-6.2-0.5-8.8,1.7c-3.3,0.4-3.9,7.2-8.9,3.8c-0.2-0.3-0.4-0.6-0.7-0.8
		c4.5-3.4,3.1-9.4,5.7-13.6c4.6,3.5,8.6,8.3,15.4,6.9C289.8,343.1,288.9,343.8,287.5,343.9z"/>
	<path class="st50" d="M443.2,377.1c-7.5-5.3-9.4-13.8-12.7-21.6c-0.8-1.9,0.1-5-3.6-4.7c0.2-2.2,1.6-3.1,3.6-3.5
		C434.7,357.3,439,367.2,443.2,377.1z"/>
	<path class="st51" d="M321.9,529.1c-0.1-9.2,3.9-19.3-5.7-26.5c-1.2-0.9,0-1.6,0.6-1.7c1.1-0.1,2.3,0.2,3.4,0.3
		c1.8,4,3.5,8,5.3,12.1c2.4,3.3,3,6.7,0.2,10.2c-3.3,0.9,1.9,5.2-2.3,5.7l-0.8,0.2L321.9,529.1z"/>
	<path class="st52" d="M339.3,767.1c1.3,2.4,2.5,2.5,3.8,0c3.9,0,8.2,1.7,11.7-1.1c1.4-1.2,2.4-2.9,3.7-0.5c0.8,1.5,0.6,4-1.3,4.5
		c-6.5,1.6-13.3,1.4-19.8,0.1C335.2,769.6,338,767.8,339.3,767.1z"/>
	<path class="st53" d="M299.3,413c-2.5,6.9-4.7,13.9-7.6,20.6c-1.6,3.7-3.1,7.3-2.7,11.4c-0.7,0-1.5,0-2.2,0
		C288.1,433.2,292.7,422.7,299.3,413z"/>
	<path class="st54" d="M471,459.2c0.5,0,1,0,1.6,0c1.2,7.6,6.7,14.6,2.8,22.8c-1,0-1.9,0-2.9-0.1c-0.9-6.1-0.8-12.5-5.3-17.5
		l0.1,0.2C465.2,460.5,467.9,459.7,471,459.2z"/>
	<path class="st55" d="M392.4,562.5c-0.5,0.9-0.7,4.8-2.1,0.7c-2.2-6.3-1.9-13.1-2-19.7c4-2.4,4,0.2,3.7,3.1
		C392.1,551.8,392.3,557.1,392.4,562.5z"/>
	<path class="st56" d="M358.6,306.8c0.1,0.9,0.2,1.8,0.3,2.6c0.9,6.5-3.2,14.4-8.6,15.6c-6,1.3-7.6-3.7-9.8-7.7
		c-0.1-1,0.2-1.8,1-2.5C350.7,321.4,350.7,321.4,358.6,306.8z"/>
	<path class="st57" d="M300.9,763.5c-1.1-6.3,2.2-13-1.7-19.2c-0.8-1.3-0.4-1.6,6.4-1.1c-4.6,3.8-2.2,8.7-2.6,13.1
		c-0.3,3.7,0.4,7.6-0.3,11.3c-0.6,3.4-2.4,2.5-3.6-0.1C298,765.4,299.7,764.6,300.9,763.5z"/>
	<path class="st58" d="M335.7,600.7c0.8,0.9,1.7,1.7,2.5,2.6c1.1,8,5,3.3,8.2,1.8c0.1-0.9,0.3-1.8,0.4-2.7c1.9,2.8,3.4,6.4-0.1,8.2
		c-4.4,2.2-10.2,2.3-13.8-1.3C330.2,606.7,333.4,603.2,335.7,600.7z"/>
	<path class="st59" d="M399.4,758.4c-1.6,8.7,3.1,10.3,10.3,9.2c0.8,0.2,1.4,0.8,1.7,1.5c-5.9,3.2-11.2,2.8-14.7-3.4
		C395.1,762.9,394.9,759.5,399.4,758.4z"/>
	<path class="st11" d="M285.4,748.3c0,6.9,0,13.8,0,20.7c-3.3-8.3,1-17-4.2-24.8c-0.7-1.1,0.1-1.4,0.8-1.5c3.2-0.6,5.8-0.2,6.7,3.6
		C287.9,747.5,286,746.8,285.4,748.3z"/>
	<path class="st60" d="M432.6,758.4c6.4-4.1,2.3-9.2,1.4-14c8.2,5.1,5.2,12.1,4.1,19.3C434.6,762.6,437.3,757.1,432.6,758.4z"/>
	<path class="st61" d="M357.1,289.5c-1.2,2.1-5.2,1.1-5.1,5.2c5.4,0.5,12,0.7,6.9,9.1c-0.7-2.7,1.1-6.7-3.9-7.1
		c-2.5-0.2-5.7,0.2-6.1-3.1c-0.5-4.1,3.6-4.4,6.2-5.9C356.1,287.8,356.8,288.4,357.1,289.5z"/>
	<path class="st62" d="M268.8,742.9c4.3-0.9,7.1-1.7,4.7,5c-1.7,4.6-0.2,10.3-0.4,15.4c-0.1,1.9,1.5,4.8-2.2,5.7
		C270,760.5,273.1,751.6,268.8,742.9z"/>
	<path class="st63" d="M284.1,230.1c-0.7-0.8-1.3-1.6-2-2.3c-0.8-4.5-3.1-8.2-5.7-11.7l0.1,0.1c-1.1-3.3-6.2-5.1-3.6-9.8
		C278.5,213.4,286.5,219.3,284.1,230.1z"/>
	<path class="st64" d="M348.3,588.7c-2.5,0.2-4.3,3.3-7.7,1.3c4.3-2.2-0.7-7.8,4.1-10C348.3,581.8,349.9,584.6,348.3,588.7z"/>
	<path class="st65" d="M285.4,748.3c0.2-2.2,1.9-1.9,3.4-2c5.3,4.9,5.9,13.1,12.1,17.2c-0.6,1.3-1.2,2.7-1.8,4
		c-3.2-5.3-6.4-10.6-9.7-15.9C288.5,750.1,288.2,747.5,285.4,748.3z"/>
	<path class="st66" d="M419.5,322.3c0.8-0.5,1.6-1,2.4-1.5c0.6,0.6,1.2,1.2,1.8,1.9c1,2-0.6,2.8-1.8,3.7c-3.4,1.4-6,5.4-10.5,3.1
		C410.3,322.8,414.4,322.1,419.5,322.3z"/>
	<path class="st67" d="M383.2,272c-6.7-2.8-13.2-3.3-19.1,1.8c-0.8-0.3-1.4-0.9-1.7-1.7C371.3,265.2,378.4,265.2,383.2,272z"/>
	<path class="st68" d="M257.4,767.5c0.6,0.5,1.1,1,1.7,1.5c-4.6,3.2-9.3,2-14,0.4c-2.2-0.8-2.3-2.9-1.5-4.3c1.2-2.2,2.3-1.4,3.6,0.5
		C249.7,769.4,253.8,767.5,257.4,767.5z"/>
	<path class="st11" d="M362.3,272.1c0.6,0.6,1.2,1.1,1.7,1.7c-1.6,2.6-3.5,5.1-3.3,8.4c0.3,1.7,1.3,3.5-0.4,5.1
		c-0.4,2-2.7,0.9-3.5,2.3c0,0,0.2-0.1,0.2-0.1c-0.7-0.6-1.4-1.2-2.1-1.7C358.4,283,357.7,276.3,362.3,272.1z"/>
	<path class="st54" d="M434.1,744.5c-11.4-0.4-12.3,0.8-10.6,14c-5.2-3.9-4.9-8.8-1.5-13.2C425.3,741.2,429.8,740.5,434.1,744.5z"/>
	<path class="st69" d="M272.9,206.4c-1,4.1,4.2,5.9,3.6,9.8c-4.7-4.7-9.4-9.4-14.1-14.1c0.4-3.7,2.3-2.9,4.5-1.6
		c2.1,1.3,3.1,3.9,5.4,5.1C272.7,205.7,272.9,205.9,272.9,206.4z"/>
	<path class="st70" d="M250.3,298.3c-0.6-0.5-1.1-0.9-1.7-1.4c-4.1-5.3,3.6-7.4,2.8-11.9C255.7,290,251.4,293.9,250.3,298.3z"/>
	<path class="st71" d="M411.1,534.5c0.5-0.1,1.1-0.2,1.6-0.1c1.2,2.4,2.6,4.6,5.5,5.3c1.1,1.2,2.3,2.4,3.4,3.7
		c-1.1,0.9-0.4,3.1-2.2,3.4c-2.5,0.5-1.6-2.7-3.1-3.3c-2.8-0.7-6.7,2.1-8.2-0.6C406.7,540.2,409,537,411.1,534.5z"/>
	<path class="st72" d="M453.6,384c-3.6,4.1-8.2,0.1-12.1,1.5c4.7-0.8,3.2-4.2,2.9-7.1C447.2,380.8,451.6,380.4,453.6,384z"/>
	<path class="st73" d="M369.3,581.8c1.2,2.8,4.3,0.4,6.4,2.8c-5.6-0.4-4.7,5.5-8.1,7.3c-1.4-2.7-3.8-5.2-1.5-8.5
		C367.2,582.8,368.2,582.3,369.3,581.8z"/>
	<path class="st74" d="M341.5,314.8c0,0.8-0.1,1.5-0.1,2.3c-5.3,0.8-10.2,5.3-16,1.8c-0.2-0.4-0.2-0.8,0.2-1.2
		c2.4-3.8,7.8-1.7,10.3-5.3c0.8-1,1.5-1,2.3,0C339.1,313.4,341.4,312.5,341.5,314.8z"/>
	<path class="st75" d="M315,403.2c-7.1-2-9.6,4.7-14.1,7.5c0-4.9,5.7-7.5,5.2-12.6C307.8,402.1,312.7,400.5,315,403.2z"/>
	<path class="st76" d="M316.7,746.2c-0.9,0-1.8-0.1-2.8-0.1c4.4-5.6,10.5-4.1,16.1-3.4c3.4,0.4,2.7,3.1,1.9,5.6
		C327.5,742.9,322.2,743.6,316.7,746.2z"/>
	<path class="st77" d="M444.8,763.6c0.6-0.7,1.1-1.3,1.7-2c3.9,1.2,6.6,5,11,5.2c0.8,0.1,1.7,0.2,2.5,0.3
		C452.6,772.8,450,772.2,444.8,763.6z"/>
	<path class="st78" d="M416.3,543.5c1.8,1.8,3.6,1.8,5.3-0.1c-0.1,2.8,0.1,5.7-0.3,8.5c-0.5,2.8-1.9,0.4-2.9,0.2
		C414.8,549.9,417.1,546.3,416.3,543.5z"/>
	<path class="st79" d="M432.7,769c-3,3-5.9,1.9-8.5,1.4c-1.9-0.4-3.9-1.5-3.7-4c0.2-1.8,0.8-3.6,3-1.5c0.6,0.5,0.6,1.6,1.1,2.2
		C426.6,769.2,429.5,767.4,432.7,769z"/>
	<path class="st80" d="M412.2,744.5c-6.4-0.2-14.1-2.2-13.1,8.8c-4-2.5-2.9-6.2-0.6-8.4C402.7,740.9,407.6,741.1,412.2,744.5z"/>
	<path class="st81" d="M338,312.4c-0.8,0-1.5,0-2.3,0c-3.8-3-9.4-3.4-12.1-8.1C329.2,305.7,335,306.7,338,312.4z"/>
	<path class="st82" d="M272.2,205.6c-2.8,0.2-3.6-2.4-5.4-3.7c-1.5-1.2-3.2-3.2-4.5,0.2c-0.6-0.7-1.1-1.4-1.7-2.1
		C268.6,193.4,269,202.5,272.2,205.6z"/>
	<path class="st83" d="M383,767.1c1.1,2.6,2.3,2.2,3.6,0.2c1.5,0.5,5.1,0.8,2.1,2.9c-2.1,1.5-6,0.4-9.1,0.3c-0.4,0-1.2-1.3-1.1-1.7
		C379.5,766.9,381.5,767.6,383,767.1z"/>
	<path class="st84" d="M395.4,289.7c-0.6,1-1.2,2-1.7,3c-0.1,1.3-0.8,2.1-2.1,2.5c-2.8-0.9-5.1-2.1-4.7-5.6c2.9,0.3,4.9-0.7,5.2-3.9
		C394.7,285.8,394.3,288.3,395.4,289.7z"/>
	<path class="st85" d="M411.4,769.1c-0.6-0.5-1.2-1-1.7-1.5c5.5-3.6,2.9-7.2-0.1-10.7C416.8,760,417.1,762.4,411.4,769.1z"/>
	<path class="st86" d="M421.8,326.4c0.6-1.2,1.2-2.5,1.8-3.7c3.1,3.6,4.7,8,6,12.4C424.5,334.5,426.6,327.3,421.8,326.4z"/>
	<path class="st6" d="M391.8,294.7c0.6-0.6,1.2-1.3,1.8-1.9c15.7,2.1,22.3,9.7,25.8,29.6c-2.6,2.5-7.8,2.1-8.1,7.2
		c-1.8,2.5-0.2,5,0,7.6c-1.6,7.7-14.8,14.7-20.4,9.6c-5.7-5.2-11.4-4.7-17.7-4.9c-3.2-1-6.6-1.5-9.7-3c-1.8-0.9-3.4-2.1-4.8-3.5
		c-3.6-4.1-7-6.7-11-0.2c-1.3,2.2-3.8,3.6-6.6,1.7c-6.9-0.9-9.5-8.6-16.3-10.3c-2.5-0.6-1.7-5,0.4-7.6c5.6,1.6,10.1-6.2,16-1.8
		c8.1,9.3,10.5,8.9,16.1-2.9c0.7-1.5,1-3.2,1.5-4.8c1.5-0.6,3.9-2,4.2,0.5c1,7.9,7.6,10.3,12.8,14.1c2,1.5,4.5,3.9,6.3,0.1
		c1-2.2,5-4.3,0.2-7.6c-4.6-3.3-0.1-7.1,1.3-10.5c0.5-1.4-0.2-2.8-0.1-4.3c0.1-1.4,0.4-3.1,2.1-3.2c1.8-0.2,2.3,1.5,2.6,2.9
		c0.4,2.1,0,4.4,1.4,6.3c0.7,1,1.3-0.9,0.5-0.1C387.6,302.8,387.1,298.4,391.8,294.7z"/>
	<path class="st6" d="M411.6,380.5c-1.8,2.4-2.5,5.1-2.4,8c2.2,2,0.1,3.6-0.4,5.4c-2.8,7.1-3.1,14.8-4.8,22.2c-1.5,1-3.2,1-5,0.7
		c-2.5-0.6-5.2-1-7-3.2c-3.3-2.9-5.5-7.1-10-8.9c-4.3-1.8-6.7-5.6-7.7-10.1c-1.5-6.8,1.7-12.3,4.8-17.8c1.8-1.6,3.9-1.8,6.1-1.4
		c2.5,1.6,5,2.5,7.6,0.3c0.6-0.1,1.3-0.4,1.7-0.2c3.2,1.9,6.1,2.1,8.6-1.2C406.7,375.4,412.5,373.4,411.6,380.5z"/>
	<path class="st87" d="M346.4,522.2c0-2.4-0.1-5.2-2.2-6.3c-6.6-3.3-6.8-9.6-7.6-15.5c-0.5-4,0.1-8.1,2.4-11.8c3.2,3,8-3.4,11.4,1.7
		c-1.9-4.7-4-9.4-5.8-14.2c-1-2.7-2.1-6.1,0.5-8.2c3.1-2.4,6.3,0.1,8.6,1.9c10.5,8.4,11.2,20.2,11.2,34.3c-3.8-4.5-1.9-8.6-4-12.5
		c-3.4,4.6-9.8,6.4-7.4,13.9c-2.7-1.4-0.8-5.1-3.9-5.6c-1.2,0.1-1.2,1.1-1.1,1.8c1.3,5.6,2.9,11.1,4,16.7c0.3,1.7,1.5,4.2-0.9,5.5
		c-2.2,1.2-3.6-1.2-5.4-2C346.2,522,346.4,522.2,346.4,522.2z"/>
	<path class="st88" d="M364.1,336.7c2.9,1.1,5.8,2.2,8.6,3.2c-5,4.6,2.8,6,2.5,9.4c-0.3,4.3-2,7.9-5.5,10.5
		c-6.4,1.7-0.7,6.8-2.8,9.7c-0.6,2.5-2.3,4.2-4.3,5.8c-1.8,1.9-1.8,5-5.2,6c-3.6,1.1-1.8-1.5-2.3-2.5c-1.1-3.3,2.7-3.5,3.5-5.6
		c1-3.3,2.1-6.5,3.1-9.8c1.2-4,1.9-8.2-2.8-10.5c-3.2-1.6-2.6-3.1-0.9-5.3c0.9-1.1,3.1-2.5,0.7-4c-1.6-1-3.6-0.5-4.5,1.3
		c-4.5,9.2-6.8,1-9.9-1.2c0.8-2.6,2.9-4.2,4.4-6.3c3.7-5.2,7.6-7,12.3-1.1C361.9,337.2,363,337.8,364.1,336.7z"/>
	<path class="st20" d="M344.3,422c3.7,10.1,10,15.2,15.6,21.7c-4.7-0.5-9.5-0.8-14.1-1.6c-4.2-0.7-8.2-3.5-9.2-7.2
		C335.2,429.5,341.5,427.8,344.3,422z"/>
	<path class="st16" d="M390,497.8c4.2-1,4.1,1.1,3,4.1c-2.7,7.8-5.4,15.6-6.4,23.8c-3.5,1-4.3-2.5-6.3-3.9
		c-1.9-3.3-2.9-6.6-0.6-10.1c2.4-3.6,4.7-7.2,7.1-10.7c1.1-1.1,2.2-2.3,3.3-3.4L390,497.8z"/>
	<path class="st89" d="M331.1,456.4c5.3,5.7,9,11.8,4.7,19.4c-2.5,4.4,0.4,9.3-2,14.1c-4.4-3.2-5.5-7.6-4.1-12.1
		C331.8,470.7,333.1,463.8,331.1,456.4z"/>
	<path class="st83" d="M364.1,336.7c-0.1,0.3-0.1,0.6-0.2,0.8c-9.6-7.8-13.4,2.9-19.5,6.2c-3.4-1.3,0.6-5.9-3.2-7
		c6.8-0.3,6.9-6.6,9.5-10.9C356.4,328.3,359,334,364.1,336.7z"/>
	<path class="st90" d="M399,415.4c1.6,0,3.1-0.1,4.7-0.1c0.5-0.4,1-0.9,1.5-1.2c1.2-0.5,2.5-1,3.8-0.4c0.7,0,1.4,0,2.1-0.1
		c2.6,2.4,2,5.6,1.9,8.6c0,0.7,0,1.3,0.1,2c-1.5,3.3-0.6,9.1-7.3,7.2c1.3-4.7-1.4-7.3-4.9-9.4c-0.1-0.9-0.1-1.9-0.2-2.8
		C399.8,418.1,398,417.4,399,415.4z"/>
	<path class="st33" d="M302.7,324.7c-0.8,4.4-3.8,4-6.5,2.4c-3.5-2.1-0.1-3.8,0.8-5.5c2.3-4.2,5.3-8.1,2.7-14c5.9,0.7,3.9,7,7.8,7.9
		C310.1,320.8,305.1,322.1,302.7,324.7z"/>
	<path class="st91" d="M332.3,427.2c-2.6,2.2-2.6,6.4-7.5,8.7c3.7-13.8,9.9-24.2,21.6-30.8c1.7,2,1,4.2-0.5,5.4
		C340.4,415.3,337.8,422.4,332.3,427.2z"/>
	<path class="st92" d="M367.7,382.3c-4.3,6.4-6.7,14.2-13.6,19.1c4.1-8.5,8.2-16.9,9.7-26.2c1.5-2.3,3.5-2.9,5.4-0.6
		C371.8,377.6,370.6,380.2,367.7,382.3z"/>
	<path class="st88" d="M358.3,545.2c-6.2-1.4-0.8-8.6-5.3-10.8c1.5-3.3,3.6-6.4,7.6-5.2c4.3,1.3,1,4.6,1,7.1c0,2.2,0.5,4.5,0.7,6.7
		C362.5,546.4,360.6,546.1,358.3,545.2z"/>
	<path class="st93" d="M332.3,427.2c2.3-9,10.9-13.8,14.1-22.1c1.3-1.8,3-2.3,3,0.5c0.1,3.3-0.8,6.6-1.2,9.9c-1.2,1.2-2.3,0.1-3.4,0
		c-3.7,2.2-4.8,6.4-7.5,9.3C336.1,426.1,335.5,429.5,332.3,427.2z"/>
	<path class="st69" d="M358.3,545.2c1.6-0.3,3.2-0.5,4-2.2c5.7-3.5,0.3-8.3,1.5-12.4c0.7-2.2-0.7-5.8,3.6-5.2
		c3.6,0.5,2.1,3.4,2.1,5.5c0,2-0.5,4-0.5,6c0,7-1.6,12.2-10.4,9.6C358.8,546,358.7,545.6,358.3,545.2z"/>
	<path class="st94" d="M327.2,396.2c-4.4,5.3-11.3,4.8-18.4-1.8c6.8-3.9,12.6,0.3,18.6,2C327.4,396.4,327.2,396.2,327.2,396.2z"/>
	<path class="st95" d="M380,377.1c-1.9,5.9-3.8,11.7-5.7,17.6c-1.7-0.5-5.2,1.1-3.8-3.3c1-3,1.5-6.1,2.3-9.1
		c-3.4-2.4-1.7-4.5,0.5-6.6c1.3-1.1,2.7-1.7,4.5-1.3C378.9,374.9,379.7,375.8,380,377.1z"/>
	<path class="st96" d="M381.6,522.2c1.7,1.2,3.4,2.3,5.1,3.5c1.6,2-1.9,6.6,3.4,6.8c-1.6,3.5-8.1,5.6-3.1,11
		c-1.2,1.1-2.4,2.2-3.7,3.3c0-0.9-0.1-1.9-0.1-2.8c-2.1-5.3-1.3-11.1-3.3-16.4c0.5-1.4,1-2.7,1.6-4.1c-0.4-0.3-0.6-0.7-0.4-0.9
		C381.2,522.4,381.4,522.2,381.6,522.2z"/>
	<path class="st97" d="M402.2,428.3c-0.7,2.2-2,3.6-4.3,2.6c-4-1.8-6.3,1-9,2.9c-1.2,0.9-2.5,2.2-1.7,3.5c1,1.5,3,1.2,4.7,0.7
		c1.3,1.3,1.1,2.6,0.1,3.9c-4.3-0.4-9.7-0.7-8.4-6.6c1.2-5.4,6.7-7.5,11.9-8.4C397.6,426.4,400,427.7,402.2,428.3z"/>
	<path class="st91" d="M376.9,429.4c-0.1,2.3-2.7,3.4-3.2,2.1c-1.9-4.8-7.2-6.9-8.7-11.7c-0.3-0.9,0-2.2,0.4-3.2
		c0.2-0.4,1.8-0.7,2.1-0.4C371.1,420.1,375.4,423.7,376.9,429.4z"/>
	<path class="st98" d="M358.7,373.3c0.6,3-2.2,3.8-3.5,5.6c-5.2,2.6-12,1.2-16.7,9.5C339.8,379.7,342.5,378,358.7,373.3z"/>
	<path class="st99" d="M302.7,324.7c1.6-3,3.2-6.1,4.8-9.1c0-3.3,0-6.6,0-9.7C314.4,315.7,313.1,321.2,302.7,324.7z"/>
	<path class="st100" d="M325.7,523.5c-0.1-3.4-0.1-6.8-0.2-10.2c3.8-0.1,7.2,0.4,7.2,5.2C332.7,523.4,329.7,524.4,325.7,523.5z"/>
	<path class="st101" d="M399,415.4c0.6,1.3,1.2,2.5,1.8,3.8c-6-1.4-11.7-0.8-17.6,5c1.5-6.8,7.2-6.7,8.9-10.5
		C394.5,413.7,397.3,412.5,399,415.4z"/>
	<path class="st102" d="M320.4,412.1c-4.6-1.3-5.3-4.5-3.9-8.6c3.5-1.8,6.4-0.3,9.1,1.6c0.5,2.8-1.1,4-3.5,4.6
		C322.2,411,321.5,411.7,320.4,412.1z"/>
	<path class="st45" d="M374.6,376.4c-1,1.8-2.3,3.6-1.8,5.9c-1.7,0-3.4,0.1-5.1,0.1c0.8-2.7,2.5-5.5-0.2-8.1c-1.6-1.6-2.3,1.1-3.7,1
		c0,0-0.6,0.2-0.6,0.2l-0.6-0.1c0.9-2,1.8-3.9,2.7-5.9c1.2,0.1,2.4,0.4,3.4,1C371.2,371.9,372.9,374.2,374.6,376.4z"/>
	<path class="st103" d="M344.9,415.4c1.2-2.3,2.3-0.1,3.4,0c-1.1,6.1,4,8.2,6.9,11.9C349.7,425.3,344.4,423.1,344.9,415.4z"/>
	<path class="st104" d="M322.1,409.7c1.2-1.5,2.3-3.1,3.5-4.6c3.4-0.1,6.3,1.7,4.8,4.8C328.4,414.3,324.9,412.4,322.1,409.7z"/>
	<path class="st105" d="M293,314.6c-5.3,4.5-10.8,7-17.4,2.4C281.7,318.1,287.3,316.1,293,314.6z"/>
	<path class="st106" d="M358,562.7c0.1-0.7,0.3-1.4,0.4-2.1c6.8-1,8.2,3.2,8.6,9C363,568.1,360.5,565.4,358,562.7z"/>
	<path class="st107" d="M379.9,527.6c3.1,5.1,3.9,10.6,3.3,16.4C379.1,539.1,379.4,533.4,379.9,527.6z"/>
	<path class="st99" d="M370.5,485.7c5.7,2.2,8.1,5.1,9,10.5C374.6,494.1,372.7,490.8,370.5,485.7z"/>
	<path class="st108" d="M377.4,408.9c-3-1.4-6.3-2.3-8.2-5.4C375,400.8,376.4,404.7,377.4,408.9z"/>
	<path class="st109" d="M374.2,567.4c0.4-4.2-0.9-8.6,1.3-13.2c1.4,6,0.8,11.4,0.4,16.8C372.6,571.2,373.9,569,374.2,567.4z"/>
	<path class="st110" d="M374.2,567.4c0.6,1.2,1.2,2.4,1.8,3.6c0.2,2.4,1,5-2.3,7.5C372.2,574.4,372.3,570.9,374.2,567.4z"/>
	<path class="st111" d="M381.6,522.2c-0.4,0.4-0.5,0.9-0.1,1.3c-4-3.5-6.9-7.1-1.7-11.9C379.8,515.3,379.8,518.9,381.6,522.2z"/>
	<path class="st112" d="M392,441.8c0-1.3-0.1-2.6-0.1-3.9c4.4-2.5,3.4,3.3,5.8,3.8C395.8,445.8,393.9,445,392,441.8z"/>
	<path class="st111" d="M431.8,445.1c1.4,1.7,2.7,3.4,4.1,5.1c1.5,0.8,2.7,1.9,3,3.8c4.4,5.1,3.6,7.5-3.5,7.3
		c-4.9-0.1-8.6-2.3-12.5-5.1c-5.7-4,0.8-8.7-1.4-12.7c1.7-5.8,5.2-2.6,8.3-1.6C430.9,442.7,431.7,443.7,431.8,445.1z"/>
	<path class="st113" d="M409,413.7c-0.9,0.6-1.9,1.1-2.8,1.7c-3.3-3.9-1.7-8.1-0.6-12.1c1-3.5,1.5-7.1,2.1-10.7
		c0.5-1.4,1-2.7,1.5-4.1c5.6,0.2,5.7,3.9,4.3,7.7c-2.6,7,1,7.6,6.4,6.9c0.4,0.4,0.6,0.8,0.4,1.2c-0.1,0.4-0.3,0.6-0.4,0.6
		C417.1,408.9,409.6,406.9,409,413.7z"/>
	<path class="st114" d="M438.8,454c-1.7-0.7-2.6-2-3-3.8c3.3-2.1,2.3-6,3.2-9c1.5-4.7,3-9.1,8.4-11.6c1,7.7-1.8,14.7-2.9,21.9
		C443.9,456,440.1,451.8,438.8,454z"/>
	<path class="st17" d="M431.8,445.1c-0.5-0.1-0.9-0.3-1.2-0.7c-2.2-3.3-6.1-5-7.6-8.9c-0.3-0.8-0.4-1.5-0.2-2.3
		c-0.6-5.1,3.7-7.9,6.7-8.3c3.9-0.6,2.8,4.7,3.7,7.3C434.6,436.6,439.4,441.6,431.8,445.1z"/>
	<path class="st115" d="M432.4,515c-2.5,1.1-2.1,5.8-6.8,4.9c1.1-3.8,1.8-7.7,1.4-11.7c-0.3-2.9-1.7-2.4-3.5-1.6
		c-6.1-9.9,8-0.7,4.9-8c-1.1-0.5-6.4,2.6-6.5-3.7c3-1.2,6,2.2,9.8-0.5c2.5-1.8,1.6,2.4,1.1,4.5C431.6,504.2,425.1,509.5,432.4,515z"
		/>
	<path class="st116" d="M467.2,441.6c0,1.6,0,3.1-0.1,4.6c-3.5-13.7-12-22.3-25.7-25.9c-1.9-0.5-3.3-2.4-2.1-4.9
		c5.4,4.4,10.9,8.7,18.5,7c3.3-0.7,4,2.7,6.3,3.4c0.4-0.3,0.8-0.3,1.3-0.1C462.5,431.5,464.4,436.6,467.2,441.6z"/>
	<path class="st117" d="M423.3,433.6c2.5,3.5,6.6,6,7.2,10.8c-3-0.3-5.5-5.6-9.1-0.9c-1.6-0.6-3.3-1.2-4.9-1.7
		c-2.2-4.4-6.3-5.7-10.6-7c-0.1-1.1-0.1-2.2-0.2-3.3c4.5-0.3,3.8-5.8,7.2-7.2c0.6,1,1.2,2,1.8,3C415.8,431.9,417.9,435,423.3,433.6z
		"/>
	<path class="st118" d="M467.1,464.5c8.1,3.9,7.8,10.4,5.3,17.5C462.7,478.6,467.1,470.9,467.1,464.5z"/>
	<path class="st119" d="M420,405c0-0.6,0-1.2,0-1.8c3.4-0.9,3.3-3.3,2.6-6.4c3.6,5.2,8.6,5.5,15.5,4.1c-3.5,3.6-6.5,4-9.3,4.7
		C425.8,405.3,422.9,405.2,420,405z"/>
	<path class="st120" d="M471,459.2c-0.2,2.5-4.6,2.1-3.7,5.4c-6.9,1.5-1.5-6.3-5.3-7.1C466.4,450.7,468.6,455.2,471,459.2z"/>
	<path class="st90" d="M416.7,424.3c-0.7-0.4-1.5-0.9-2.2-1.3c0.3-2,2.4-0.9,3.3-1.8c2.2-1.4,4.4-2.7,6.7-4.1
		c4.8-2.8,4.7,0.3,4.3,3.7C424.5,420.9,422.2,427.9,416.7,424.3z"/>
	<path class="st121" d="M406,434.8c5,0.1,11.1-1.4,10.6,7C410.7,443,410,436.4,406,434.8z"/>
	<path class="st122" d="M423.3,433.6c-5.3,6.8-7.6-1.2-10.7-2.7c-2.4-1.1,0.5-2.9,2.2-3.7c2.9,1.7,4.1,5.6,7.9,6
		C422.7,433.3,423.3,433.6,423.3,433.6z"/>
	<path class="st123" d="M416.7,424.3c4.9,1.8,6.9-6.3,12-3.5C425.2,423.2,422.9,430.5,416.7,424.3z"/>
	<path class="st124" d="M417.8,421.1c-1.1,0.6-2.2,1.2-3.3,1.8c-0.5-0.2-1-0.4-1.5-0.7c-0.8-2.8-2.8-5.4-1.9-8.6
		c1.7-2.1,2.9-2.9,3.7,0.7C415.2,416.8,413.3,420.5,417.8,421.1z"/>
	<path class="st125" d="M458.5,453.3c0.1,0.9,0.2,1.7,0.3,2.6c-2.3,2.2-0.8,6.3-4.5,8.5C453.1,459.3,454.7,455.9,458.5,453.3z"/>
	<path class="st126" d="M453.3,475.3c-5.3,1.2-7.8,1.4-9.6-1.1c-0.1-0.2,0.3-1.1,0.7-1.4C447.5,470.6,448.7,473.7,453.3,475.3z"/>
	<path class="st76" d="M390.2,497.6c-1.2-3.4,1.6-9.2,4.1-8.5c2.1,0.6,2.2,2.2,0.5,3.7c-1.7,1.5-3.2,3.2-4.8,4.9
		C390,497.8,390.2,497.6,390.2,497.6z"/>
	<path class="st127" d="M411.6,380.5c-0.4-6.1-7-1.8-8.9-5.3c-0.4-1.7-0.1-3.2,0.7-4.7c2.1-2.5,4.4-3.7,7.4-1.6
		c2.5,2.1,4.9,4.3,8.7,3.8c-0.8-1.1-2-1.3-2.8-2.1c-0.4-0.4-0.6-0.9-0.5-1.4c0.1-0.5,0.1-0.8,0.3-0.8c5.1-0.4,5.1-0.4,15,9.9
		c-5.4,0.7-10.5,1.3-15.6,1.9C414.4,380.4,413,380.5,411.6,380.5z"/>
	<path class="st128" d="M458.4,398c4.3,7.1,4.7,15,5.1,23c-6.6-6.2-5.3-15.3-8.2-22.9C454.6,396.1,457.3,398.1,458.4,398z"/>
	<path class="st129" d="M374.4,349.2c-2.7-2.5-5.5-5.1-8.4-7.9c2.4-2.3,4.8-0.9,6.8-1.4c6.7,0.5,12.7-1.1,19.3,5.4
		c4.3,4.3,14.5-1.3,19.4-8.3c5.4,1.7,5.6,3.3,1.9,8.2c-6.3,8.3-15,5.7-22.7,6.6c-4.6,0.6-3.7-7.2-8-9.4c-4.7,5.3,1.8,11.5-1.2,16.9
		c-1.7,2.7,3.8,3,1.9,5.8c-6.8,9.6-7.9,9.8-13.4,1.8c-0.1-0.8-0.1-1.6,0-2.4C370.9,359.4,374.6,354.9,374.4,349.2z"/>
	<path class="st130" d="M416.5,368.5c0.3,0.3,0.4,0.6,0.2,0.9c-2,3-4.5,1.9-7,0.8c-2.7-2-4.4,0.6-6.4,1.4c-0.8-0.1-1.4-0.6-1.6-1.4
		c1.8-4.6-2.4-2.4-3.8-3.3c-2.1-2.7,0.3-4.3,1.7-6.1c0.9-0.8,1.9-1.4,3.1-1.6c6.9-4.7,6,5.5,10.4,5.5c0.8,0.4,1.4,0.9,1.7,1.8
		C415.3,367.2,415.9,367.9,416.5,368.5z"/>
	<path class="st131" d="M402.6,359.2c-0.8,0.7-1.7,1.5-2.5,2.2c-5.3,2.5-11,3.1-16.8,3.3c-0.2-1.9-6-1.9-1.9-5.3
		C388.4,359.1,395.5,354.9,402.6,359.2z"/>
	<path class="st83" d="M414.7,366.5c-0.6-0.6-1.1-1.2-1.7-1.8c4.6-4.8,8.4-10.3,14-14.1C425.3,357.9,418.2,360.8,414.7,366.5z"/>
	<path class="st132" d="M446.4,678.1c2.3,6.9,4,11.6,5.4,16.3c0.7,2.2,3.6,5.3,0.2,6.7c-3.6,1.5-8.1,1.2-12-0.1
		c-1.6-0.5-0.9-2.5-0.4-3.9C441.5,691.6,443.6,685.9,446.4,678.1z"/>
	<path class="st133" d="M367.3,697.1c0-12,5.2-18.7,14.6-18.8c9.1-0.1,15.1,7.2,15.2,18.5c0.1,11.9-5.8,19.3-15.3,19.2
		C372.5,715.8,367.3,709,367.3,697.1z"/>
	<path class="st133" d="M277.7,696.8c0.1-11.7,5.7-18.7,15-18.6c9,0.1,15.1,7.7,15.1,18.8c0,11.7-6.2,19.2-15.8,18.9
		C282.8,715.7,277.6,708.7,277.7,696.8z"/>
	<path class="st134" d="M238.3,688.4c-1-6.6-0.6-11.2,8.4-10.3c6.9,0.7,13.1,0.9,13,9.9c-0.1,9-6.2,9.3-13.1,9.7
		C238.9,698.2,236.6,695.3,238.3,688.4z"/>
	<path class="st65" d="M391.8,294.7c-3.9,4.7-1,10.2-1.3,16.6c-4.2-3.5-3.9-7.2-4.2-11.2c-1,2.3-1.8,4.1-2.6,5.9
		c-0.6-0.8-1.2-1.5-1.7-2.3c-3,0.3-5.8,0.5-4.4-4c1.4-2.3,4-3.9,3.9-7c-0.1-0.9-0.2-1.8-0.3-2.7c1.9-0.5,3.6-3.3,5.7-0.3
		C388.5,291.3,390.2,293,391.8,294.7z"/>
	<path class="st135" d="M378,299.8c-1.1,3.8,3.8,1.4,4,3.9c-0.8,1.1-1.6,2.2-2.4,3.3c-1.8,0.7-3.2,3.6-5.6,1.2
		c-1.2-0.7-2.3-1.4-3.5-2.1c3.9-1.3-5.1-9.4,4.1-7.9C376.5,297,377.7,297.2,378,299.8z"/>
	<path class="st61" d="M356.9,289.6c0.1-2.3,2.3-1.6,3.5-2.3c4.8-0.3,9.6-0.6,14.4-0.8c1.9-0.1,3.4,0.5,3,2.9
		C370.8,286.7,363.9,290.2,356.9,289.6z"/>
	<path class="st94" d="M378,299.8c-0.7-1.4-2-1.5-3.4-1.5c0.2-4.4,5.2-3.1,6.9-5.7C383.9,296.7,382.2,298.8,378,299.8z"/>
	<path class="st136" d="M373.9,308.2c1.9-0.4,3.8-0.8,5.6-1.2c-0.7,2.9-3,4.1-5.5,4.8c-1.5,0.5-3.9,1.1-4.1-1.3
		C369.8,308.4,372.5,308.9,373.9,308.2z"/>
	<path class="st137" d="M269.8,349.5c3,0,4.4-1.3,5.4-4.4c1.1-3.5,2.6-1.5,3.5,0.5c-0.9,2.4-1.2,5.4-4.1,6.2
		c-11.1,2.9-19.4,12.1-31.2,13.3c-0.6-0.1-1.3,0.1-1.7-0.2c-3-1.9,0.2-1.7,0.8-1.8C252.8,360.8,260.8,354.2,269.8,349.5z"/>
	<path class="st138" d="M346.4,605.1c0.6,4.1-1.7,4.9-5.1,4.6c-2.3-0.2-5.2,0.5-6.2-1.9c-1-2.3,2.2-2.9,3.1-4.6
		C341.3,602.3,343.8,603.8,346.4,605.1z"/>
	<path class="st114" d="M276.4,216c4.4,2.7,6.5,6.5,5.7,11.7C280.4,223.7,276.8,220.6,276.4,216z"/>
	<path class="st91" d="M418.2,539.7c-2.1,0.7-4.4,2.8-6.3,1c-2-1.9,0.8-4.1,0.8-6.3c3.6-2.9,6.4-2.3,8.6,1.7
		C419.5,536.6,418.7,538.1,418.2,539.7z"/>
	<path class="st20" d="M425.1,539.3c2.4-4.9,4.9-8.1,8.6-0.9C430.7,537.5,428.6,545.1,425.1,539.3z"/>
	<path class="st139" d="M274.5,550c-10.7,0.2-21-2.8-31.3-5.1c-0.2,0-0.6-0.4-0.5-0.6c0.1-0.4,0.3-0.9,0.5-1.3
		c9.4-0.3,18.9-0.9,27.7,3.7C272.4,547.6,273.9,548.1,274.5,550z"/>
	<path class="st140" d="M457.5,766.9c-6,3.2-8.7-0.7-11-5.2c0.2-4-0.8-8.1,0.8-12c1.1-2.7,2.4-5.3,6-5.2c3.9,0.1,5.9,2.6,6.5,5.8
		C460.7,755.9,461.1,761.7,457.5,766.9z"/>
	<path class="st141" d="M407.8,392.7c2.8,3.7,0.3,6.9-0.8,10.2c-1.5,4.1-0.9,8.3-0.7,12.5c-0.8,0-1.7-0.1-2.5-0.1
		C401,407.1,405.6,400.1,407.8,392.7z"/>
	<path class="st141" d="M401.8,371.4c0.5,0.1,1,0.2,1.5,0.2c0.5,1.3,1.3,2.6-0.5,3.5c-2.6,5.9-7.2,0.9-10.6,2
		c-1.1-1.7-0.1-3,0.8-4.3c0.8-0.9,1.8-1.6,3-2C397.9,370.3,399.9,370.4,401.8,371.4z"/>
	<path class="st142" d="M395.5,371.6c-0.6,0.7-1.3,1.4-1.9,2.1c-2.2,1.7-5.6,0.8-7.3,3.5c-2.1,0-4.2-0.1-6.3-0.1
		c-0.6-0.6-1.3-1.3-1.9-1.9c0.3-1.4,1.1-2.4,2.2-3.2c4.6-2.5,9.3-3.1,14.3-1.3C394.9,371,395.2,371.3,395.5,371.6z"/>
	<path class="st28" d="M386.3,377.2c-0.5-7.2,5-2.1,7.3-3.5c-0.5,1.2-1,2.3-1.5,3.5C390.2,379.9,388.2,380.5,386.3,377.2z"/>
	<path class="st143" d="M371.1,364.3c-0.1,0.8-0.2,1.6-0.3,2.5c-3.8,0-0.7,3.8-2.7,4.9c-1-0.7-1.9-1.4-2.9-2.2
		c-0.4-4.3-0.8-8.5-1.2-12.6c2.3-2.1,3.2,2.5,5.3,0.7C372.1,359.3,372.4,361.6,371.1,364.3z"/>
	<path class="st144" d="M371.1,364.3c-0.6-2.2-1.2-4.5-1.7-6.7c1.7-2.8,3.3-5.6,5-8.4C373.8,354.4,375.2,359.9,371.1,364.3z"/>
	<path class="st89" d="M368.2,371.7c-0.3-1.4-0.7-2.8-0.8-4.3c-0.1-1,0.3-2.1,0.4-3.1c1,0.8,2,1.7,3,2.5c2.8,1.5,6.3,10.7,7.9-0.8
		c0.1-0.6,2.9-0.8,4.5-1.2c4.9-4.4,10.9-3.7,16.8-3.3c-1,1.7-1.9,3.4-2.9,5c-0.2,0.3-0.4,0.7-0.6,1c-2.1,2.8-4.9,3.8-8.3,3.4
		c-3.3-0.4-6.2,0.6-8.6,3c-0.5,0.4-1,0.9-1.5,1.3c-1.1,0.4-2.3,0.8-3.4,1.2C370.2,377.9,370.7,372.8,368.2,371.7z"/>
	<path class="st112" d="M409.7,370.2c2.3-0.3,4.7-0.5,7-0.8c3.2,0.5,7.3-0.2,7.3,5.7C418.9,373.9,412.9,376.6,409.7,370.2z"/>
	<path class="st39" d="M401.8,371.4c-2,3.6-4.2-0.4-6.2,0.1c0,0,0.1,0.1,0.1,0.1c-2.2-2.7,0.1-3.9,1.7-5.2c0,0-0.2,0.1-0.2,0.1
		c3.5,0.2,5-3.3,8.3-4.5C406.4,366.1,402.5,368.2,401.8,371.4z"/>
	<path class="st141" d="M397.3,366.5c-0.6,1.7-1.2,3.5-1.7,5.2c-5.5-0.7-10.9-0.1-16,2.1c0.4-0.7,0.6-1.8,1.1-2
		C386.2,369.9,391.8,368.2,397.3,366.5z"/>
</g>
</svg>
