<?xml version="1.0" encoding="utf-8"?>
<!-- Generator: Adobe Illustrator 21.1.0, SVG Export Plug-In . SVG Version: 6.00 Build 0)  -->
<svg version="1.1" id="Layer_1" xmlns="http://www.w3.org/2000/svg" xmlns:xlink="http://www.w3.org/1999/xlink" x="0px" y="0px"
	 viewBox="0 0 700 965" style="enable-background:new 0 0 700 965;" xml:space="preserve">
<style type="text/css">
	.st0{fill:#FEFEFE;}
</style>
<g>
	<path class="st0" d="M349.9,608.2c-113.7,0-227.4,0-341.2,0.1c-5.4,0-7.4-0.6-7.4-6.9c0.3-77.5,0.2-155.1,0-232.6
		c0-5,1.4-5.8,6-5.8c228.2,0.1,456.4,0.1,684.6-0.1c5.7,0,6.2,1.6,6.1,6.5c-0.2,77.5-0.2,155.1,0,232.6c0,5.5-1.3,6.3-6.4,6.3
		C577.8,608.1,463.9,608.2,349.9,608.2z"/>
	<path d="M345.4,439.2c5.9-16.5,13.3-31.7,17.7-47.9c0.9-3.4,3.3-1.8,4.9-1.7c2.9,0,6.1-1.3,8.7,1c0.2,0.2-0.2,1.8-0.6,2
		c-9,3.6-8.6,12.9-11.9,19.8c-3.5,7.4-5.9,15.3-9.3,22.7c-1.9,4-0.6,5,2.7,3.6c6.1-2.5,11.5,1.1,16.4,2.7c2.9,1,5.1,7.7,6.3,13.8
		c-3.7-2-6.4-2.1-9.1-5c-5-5.5-12.5-4.1-18.7-2.4c-4.1,1.2-5.7,5.9-5.1,10.9c0.4,3.6,1.9,5.7,5.1,6.8c3.1,1,6.3,1.5,9.3,2.7
		c17.4,7.1,18.8,9.7,18.5,29.6c-0.1,4.5-1.8,7.4-5.5,9.8c-1.7,1.1-3.2,1.4-4.9,1.4c-9.6,0-19.1,0-28.7,0c-2.4,0-4.7,0.4-4.5-3.3
		c0.2-5.2,0.2-10.3,0-15.5c-0.1-2.5,1.1-3,3.3-2.9c1.7,0.1,2.8,0.3,3,2.4c0.5,4.9-0.1,11.1,4.7,13.6c5.2,2.7,11.6,1.1,17.5,0.9
		c5.2-0.2,7.1-4.5,8.8-8.7c1.8-4.4-1.1-7.2-3.8-9.2c-3.3-2.5-7.1-4.3-11.3-5.2c-12-2.5-16.7-8.6-19.3-20.2c-1.9-8.6-5.8-16.8-9.2-25
		c-5-12.3-10.4-24.5-15.2-36.8c-0.9-2.3-1-4.6-3.9-4.7c-2.2-0.1-2.6-1.1-2.4-2.9c0.3-2.4,2.1-1.6,3.5-1.8c0.3,0,0.5,0,0.8,0
		c7.1,0,13.9-2.1,16.2,9.1C332.1,412.5,339.3,425.3,345.4,439.2z"/>
	<path d="M25.4,541.5c1.8,0,3.6-0.1,5.4,0c4.8,0.5,11.8-2.4,13.5,3.9c1.7,6.3,2.4,13.5-3.1,19.4c-4.4,4.7-7.6,11.2-14.6,12.2
		c-7.4,1-19.7-11.8-20.4-20.5c-1.1-13.9,0-15,13.8-15C21.8,541.5,23.6,541.5,25.4,541.5z"/>
	<path d="M656.4,579.5c1-3.6,1.6-7.3,3-10.7c2.3-5.8-1.4-8.5-5.5-10.1c-3.1-1.2-4-2.6-3.9-5.5c0.2-4.1,3.5-2.6,5.2-2.3
		c8.5,1.6,12.1-2.2,11.8-10.2c-0.1-3,0.8-4.1,3.9-3.9c2.8,0.2,5.7,0.6,5.3,3.9c-1,8.9,3.4,11.2,11.2,10.2c1.4-0.2,3.8-1.2,4.3,1.6
		c0.4,2.4,0.1,5.1-2.4,5.9c-8.8,2.7-7.4,8.8-5,14.9c1,2.5,2.5,5.2,0,6.7c-2.9,1.7-4.5-1-6.4-3.2c-4.8-5.7-8.7-5.4-14.1,0.5
		C661.4,580.1,661.4,580.1,656.4,579.5z"/>
	<path d="M373,539.9c9.9,0,13.6,2.5,13.3,8.9c-0.1,1.9,0.1,3.7-2.7,3.5c-1.8-0.1-3.8,0.2-3.5-2.6c0.5-5.3-4.6-3.2-6.7-5.1
		c-1.2,2.3-4.9,0.1-5.6,3c-0.8,3.5,0.8,5.5,4.2,6.9c2.7,1.1,4.8,3.5,7.2,5.5c1.7,1.4,3.1,4.1,5.3,0.3c0.3-0.6,4-0.4,4.2,0.2
		c1.9,5.1,3.7,10.1,8.1,13.9c0.8,0.7-3.4,4-5.6,1.9c-2.8-2.6-4.1-0.7-6.8-0.1c-7.4,1.8-15.3,1.9-22.8,0c-5.5-1.4-7.4-15.8-2.5-18.9
		c2.6-1.7,3-2.4,2.6-5.4C360.3,542.2,362.8,539.9,373,539.9z"/>
	<path d="M232.7,557.8c0-17.8,0-17.8,17.7-17.8c14.3,0,17.9,5.2,13.3,18.9c-1.5,4.3,3.4,7.9,1.6,12.4c-0.9,2.1,2,6.1-3.3,6
		c-4.6-0.1-2.9-3.6-2.8-5.6c0.2-3.7-0.8-7.3-4.3-8c-4.4-0.8-9.4-1-13.6,0.4c-2.3,0.8-0.8,5.6-0.8,8.6c0,3-0.3,4.6-4.1,4.6
		c-4,0-3.8-2.1-3.8-4.8C232.8,567.6,232.7,562.7,232.7,557.8z"/>
	<path d="M438.7,577.2c-3.1,0-6.2,0.3-9.3-0.1c-4.9-0.5-8.2-7.3-5.8-11.2c0.8-1.4,2.2-1,3.4-1.1c2.7-0.3,2.3,1.7,2.8,3.4
		c2.5,8.3,9.4,3.4,14.3,4.1c5.1,0.7,4-4,4.3-7.2c0.2-2.8-0.9-3.6-3.6-3.5c-4.1,0.3-8-1-12-1.3c-7.9-0.6-9.6-4.9-9.4-11.6
		c0.2-6.9,4-9.1,10.3-8.9c4.1,0.2,8.3,0.1,12.4,0c3.6-0.1,6.2,1.4,7.6,4.7c0.9,2,2,4.7-0.7,5.9c-1.9,0.9-3.9,0.5-5.5-2.3
		c-1.9-3.5-13-5.1-16.1-3.1c-2.4,1.6-1.9,4-1.8,6.3c0.1,2.9,1.8,3.9,4.5,4.1c5.3,0.4,10.5-0.6,15.9,1.3c8.4,3.1,3.5,9.6,4.2,14.4
		c0.6,4.1-2.8,6.1-7.1,6C444.4,577.1,441.5,577.2,438.7,577.2z"/>
	<path d="M223.4,558.9c0,18.3,0,18.3-18.6,18.3c-2.1,0-4.1,0-6.2,0c-6.7,0.2-9.5-3.2-9.4-9.7c0.1-5.7,0.3-11.4,0-17
		c-0.5-7.5,4.1-9.6,10.1-10.5c1.8-0.2,3.6,0,5.4,0C223.4,539.9,223.4,539.9,223.4,558.9z"/>
	<path d="M602,577.1c4.7-12,9.5-23.5,13.7-35.1c1-2.7,2.5-2,4.1-2.1c2.6-0.2,5.6-0.6,6.8,2.4c4,9.9,7.7,19.9,11.6,29.8
		c0.8,1.9,2.2,3.9-0.6,4.9c-2.1,0.7-3.9,0.2-5.3-2.6c-4-7.5-18.2-7.4-22,0.2C608.1,578.9,605.1,576.4,602,577.1z"/>
	<path d="M328.6,576.7c-5.1,1.5-8.3,0.2-8.9-4.5c-0.3-2.6-1.5-2.8-3.5-2.8c-4.4,0.1-8.8,0-13.2,0c-1.8,0-3.4-0.3-3.7,2.5
		c-0.6,5.4-4.2,6.2-9,4.8c4.4-10.8,8.9-21.6,13.2-32.5c1.2-3,2.8-4.4,6.2-4.3c3.5,0.1,4.3,1.8,5.4,4.9
		C319.2,555.5,324,565.9,328.6,576.7z"/>
	<path d="M111.7,557.9c0-2.6,0.3-5.2-0.1-7.7c-0.8-6.3,3.2-9.3,8.1-10c6.3-0.9,12.9-0.6,19.3-0.1c4.4,0.3,7.2,7.2,5.2,11.1
		c-0.8,1.5-2.1,1.1-3.3,1.2c-1.8,0.1-2.6-0.5-2.9-2.5c-1.5-10.1-9.3-4.2-14.2-4.9c-4.6-0.7-6.2,3.4-6,7.8c0.1,2.3,0,4.6,0,7
		c0,12.4,4.9,16.2,16.9,12.8c2.8-0.8,5.1-2.7,4.8-6.1c-0.3-3.2,1.5-3.1,3.8-3.2c2.9,0,2.4,2,2.5,3.7c0.2,7-2.6,10.1-9.6,10.3
		c-3.9,0.1-7.7,0-11.6,0c-10.2,0-12.9-2.7-12.9-13.1C111.7,562,111.7,560,111.7,557.9z"/>
	<path d="M499.3,558.9c0.8-6.4-2.5-14.5,1.6-18c3.5-3,11.3-1.1,17.2-0.8c3.1,0.2,8.8-2.2,8.9,2.1c0.1,4.8-5.6,1.6-8.6,2.4
		c-2,0.5-4.1,0.1-6.2,0.1c-3.7-0.1-6.6-0.6-6.7,5.2c-0.1,6.1,2.8,5.9,7,5.7c3.6-0.2,7.2,0,10.8,0c1.3,0,2.5,0.2,2.6,1.9
		c0.2,2-0.8,2.7-2.7,2.7c-4.4,0-8.8,0.3-13.1-0.1c-5.2-0.5-4.6,2.8-4.3,5.8c0.3,2.8-2,7.2,4.1,6.8c4.1-0.3,8.3-0.2,12.4,0
		c1.9,0.1,5.3-1.6,5.1,2.4c-0.2,3.8-3.5,1.6-5.4,2.1c-1.2,0.3-2.6,0.1-3.9,0.1c-5.9-0.1-13.7,2-17.2-1
		C496.8,572.7,500.3,564.6,499.3,558.9z"/>
	<path d="M69.4,570.4c3.6-9.4,6.7-17.5,9.7-25.5c1.1-2.9,2.2-6.3,6.1-4.8c4.6,1.8,0.7,4.9,0,6.8c-3.2,9.1-7.5,17.8-10.4,27
		c-1,3.2-2.3,3.2-4.6,3.2c-2.6,0-5.3,0.3-6.5-2.8c-3.7-9.7-7.4-19.4-10.8-29.3c-0.5-1.4-3.8-3.7-0.5-5c2.5-1,5.5-0.6,6.7,3.1
		c1.5,4.7,3.6,9.2,5.4,13.8C66,561.1,67.4,565,69.4,570.4z"/>
	<path d="M473.2,560.3c0-1.8-0.2-3.6,0-5.4c0.9-7,0.2-12.3-9.1-10.3c-1.4,0.3-3.1,0.4-3.3-2c-0.3-2.8,1.7-2.6,3.5-2.6
		c8.5,0,17,0,25.5,0c1.7,0,3.8-0.4,3.6,2.5c-0.2,2.9-2.5,2.4-4,2.1c-8.4-1.7-9,2.9-8.5,9.5c0.5,6.4,0,12.9,0.2,19.3
		c0.1,3-0.8,4-3.9,4c-2.9,0-4.2-0.8-4-3.9C473.3,569,473.2,564.6,473.2,560.3z"/>
	<path d="M166.8,539.9c4.1,0,8.2-0.1,12.4,0c1.6,0,3.8-0.8,3.9,2.2c0.1,3-2.1,2.7-3.7,2.4c-9.2-2.1-9.1,3.5-8.8,9.9
		c0.3,6.2,0.1,12.4,0,18.5c0,1.9,0.7,4.1-2.7,4.3c-3.6,0.2-3.5-1.8-3.5-4.3c0.1-7.5-0.2-14.9,0.1-22.4c0.2-4.5-0.7-6.9-5.7-6
		c-1.2,0.2-2.6,0.2-3.9,0c-1.7-0.2-4.6,1.2-4.4-2.4c0.2-3.5,3-2,4.7-2.1C159,539.8,162.9,539.9,166.8,539.9z"/>
	<path d="M536.8,558.3c0-4.9,0.1-9.8,0-14.7c0-2.4,0.2-3.8,3.3-3.8c3.2,0,3,2,3,4c0,7.7,0.2,15.4-0.1,23.1c-0.2,4.3,0.9,6,5.4,5.6
		c3.8-0.4,7.7-0.1,11.6-0.1c1.5,0,3.1-0.2,3.3,2.1c0.1,2.2-1.1,2.6-2.8,2.6c-6.9,0-13.9-0.1-20.8,0c-3.4,0-2.7-2.3-2.7-4.3
		C536.7,568,536.8,563.2,536.8,558.3z"/>
	<path d="M577.1,556.3c0.1,5.1-1.6,11.6,0.9,14.9c2.7,3.6,9.6,0.7,14.6,1.3c1.7,0.2,4.5-1.3,4.7,2.1c0.2,3.6-2.7,2.3-4.4,2.4
		c-21.9,1.2-21.9,1.2-21.9-20.5c0-3.9-0.1-7.7,0-11.6c0.1-2.3-1.3-5.4,3.3-5.2c4,0.1,2.8,2.9,2.8,4.9
		C577.2,548.6,577.1,552.5,577.1,556.3z"/>
	<path d="M100.8,558.7c0,5.1-0.1,10.3,0,15.4c0,2.2-0.7,3.2-3.1,3.2c-2.3,0-3.2-0.6-3.2-3c0.1-10.3,0.1-20.5,0-30.8
		c0-2.6,0.7-3.6,3.4-3.6c2.6,0.1,2.8,1.4,2.8,3.4C100.8,548.4,100.8,553.5,100.8,558.7z"/>
	<path d="M276.1,557.9c0-4.9,0-9.7,0-14.6c0-2,0.1-3.4,2.8-3.4c2.7-0.1,3.5,0.9,3.5,3.5c-0.1,10.3-0.1,20.5,0,30.8
		c0,2.3-0.9,3-3.2,3.1c-2.4,0-3.1-0.9-3.1-3.1C276.2,568.7,276.1,563.3,276.1,557.9z"/>
	<path class="st0" d="M372.1,572.5c-8.7,0-10.5-1.8-9.1-8.6c0.5-2.3,1.5-3.6,4-3.8c2-0.1,13.7,7.6,14,9.5c0.2,1.8-1,2.8-2.6,2.9
		C376.3,572.6,374.2,572.5,372.1,572.5z"/>
	<path class="st0" d="M246.8,558.6c-5.1,1.2-6.4-1.1-6.6-6.8c-0.2-6.4,2.1-7.5,7.7-7.3c10,0.4,12.6,1.9,11,8.4
		C257.5,559.1,252.2,558.5,246.8,558.6z"/>
	<path class="st0" d="M206,572.5c-10.8,0-11.9-1.3-12.1-13.8c-0.2-11.7,2-14.1,12.8-14.1c10.4,0,12.1,1.8,12.1,13.2
		C218.7,571.6,217.9,572.5,206,572.5z"/>
	<path class="st0" d="M621.4,547.4c2.4,6.2,4.5,11.5,6.5,16.8c-0.7,0.2-1.1,0.5-1.6,0.5c-13,0.2-13,0.2-7.5-11.8
		C619.6,551.4,620.3,549.8,621.4,547.4z"/>
	<path class="st0" d="M316.7,564.4c-4.9,0-9.4,0-14.4,0c2.4-5.6,4.6-10.8,7.1-16.9C311.9,553.4,314.2,558.6,316.7,564.4z"/>
</g>
</svg>
