<?xml version="1.0" encoding="utf-8"?>
<!-- Generator: Adobe Illustrator 21.1.0, SVG Export Plug-In . SVG Version: 6.00 Build 0)  -->
<svg version="1.1" id="Layer_1" xmlns="http://www.w3.org/2000/svg" xmlns:xlink="http://www.w3.org/1999/xlink" x="0px" y="0px"
	 viewBox="0 0 700 965" style="enable-background:new 0 0 700 965;" xml:space="preserve">
<style type="text/css">
	.st0{display:none;fill:#FEFEFE;}
	.st1{fill:#010101;}
	.st2{fill:#020202;}
	.st3{fill:#FEFEFE;}
	.st4{fill:#FDFDFD;}
</style>
<g>
	<path class="st0" d="M353.2,249.4c115.1,0,230.1,0,345.2-0.1c2.7,0,3.1,0.6,3.1,3.2c-0.1,152.6-0.1,305.2,0,457.8
		c0,2.5-0.4,3.2-3.1,3.2c-230.1-0.1-460.3-0.1-690.4,0c-2.5,0-2.9-0.6-2.9-3c0.1-152.7,0.1-305.4,0-458.1c0-2.3,0.4-3,2.9-3
		C123.1,249.4,238.1,249.4,353.2,249.4z"/>
	<path d="M634.6,477c0-11.9,0.1-23.8-0.1-35.7c-0.1-3.5,0.9-4.6,4.4-4.5c9.4,0.4,18.8-0.4,28.2,1.1c20.1,3.2,32.4,17,32.8,37.5
		c0.4,21.7-11.4,36.8-31.6,40.6c-10.2,1.9-20.4,0.9-30.6,1.3c-3.7,0.1-3.1-2.2-3.1-4.4C634.6,500.8,634.6,488.9,634.6,477z"/>
	<path d="M399.2,516.5c-8.2,2.3-13.4,0-17.7-7c-4.9-8-11.1-15.3-16.8-22.8c-1.8-2.3-10.5-4-12.9-2.7c-1.7,0.9-1,2.5-1,3.8
		c-0.1,8.4-0.3,16.9,0.1,25.3c0.2,4-1.7,4.2-4.8,4.1c-2.9-0.1-5.4,0.5-5.3-4.2c0.3-24.1,0.1-48.1,0.1-72.2c0-2.2-0.1-4,3.1-3.9
		c10,0.4,20.1-0.7,30.1,0.9c12.6,2.1,20.1,9.2,20.9,19.8c0.9,12.4-4.9,20.1-18.1,24.2c-0.9,0.3-1.9,0.7-3.1,1.2
		C382.3,494.2,390.7,505.3,399.2,516.5z"/>
	<path d="M594.5,482.9c8.7,11.4,17,22.3,25.4,33.3c-9.9,2.5-11,2-16.4-5.4c-5.8-8-11.7-15.9-17.6-23.8c-2-2.6-11-4.6-13.4-3
		c-1.5,1-0.9,2.6-0.9,4c-0.1,8.4-0.3,16.9,0.1,25.3c0.2,4.3-2.1,4-4.9,3.9c-2.6-0.1-5.2,0.8-5.2-3.7c0.2-24.3,0.1-48.6,0.1-72.8
		c0-2.4,0.3-3.9,3.3-3.7c9.8,0.4,19.7-0.7,29.5,0.8c13,2,20.6,9.2,21.4,20.1c0.8,12.4-5,20.1-18.3,24
		C596.8,482,596,482.3,594.5,482.9z"/>
	<path d="M248,476.7c0.2-15.2,4.7-28.5,18.8-36.3c12.7-7,25.9-6.6,38.7,0.3c4.8,2.6,8.8,6.3,11.4,11c8.8,15.8,9.4,32.2,1,48.2
		c-7.7,14.7-23.9,21.1-41.5,17.3c-15.9-3.4-26.8-16.7-28.3-34.5C247.9,480.8,248,478.8,248,476.7z"/>
	<path d="M475,516.4c10.5-25.6,21-51.2,31.3-76.8c1.1-2.8,3.1-2.8,5.4-2.7c2.2,0.1,4.3-0.5,5.5,2.5c10.4,25.6,20.9,51.2,31.4,76.8
		c-9.8,2-9.8,2-13.4-6.8c-2.2-5.5-3.2-12.8-7.2-15.9c-4.4-3.4-11.9-0.9-18-1c-14.9-0.1-14.9,0-20.4,13.8c-0.3,0.8-0.8,1.5-0.9,2.3
		C487,515.6,483.3,519.2,475,516.4z"/>
	<path class="st1" d="M0,437.3c9.7-1,9.8-1.1,12.9,7.5c6.8,18.5,13.5,37,20.3,55.4c0.4,1.1,1,2.2,1.7,3.7
		c7.4-20.1,14.9-39.5,21.7-59.2c2.3-6.6,5.3-9.7,12.9-7c-3.4,9.1-6.9,18.4-10.5,27.7c-6.1,16.1-12.4,32.1-18.4,48.3
		c-1,2.8-2.5,3.9-5.4,3.5c-2.3-0.3-4.6,0.6-5.9-2.8C19.7,488.6,9.8,463.1,0,437.3z"/>
	<path d="M168.5,507.6c2.4,7.3-1.2,9.4-7.3,10.1c-5.5,0.6-11,1.2-16.5,0.5c-25.8-3.6-38.6-21.3-34.7-47.6
		c3.5-23.6,23.4-38.1,47.5-34.5c2.4,0.4,4.8,0.8,7.2,1.2c4.6,0.8,3.5,4.4,3.3,7.2c-0.4,4-3.2,1.2-4.6,1c-5.5-0.9-11-1.7-16.5-0.9
		c-17.7,2.4-28.2,16.3-27,35.6c1.2,18.9,12.1,29.3,30.8,29.6C156.7,509.9,162.5,508.7,168.5,507.6z"/>
	<path class="st1" d="M204.6,481.3c0-10.5-0.1-20.9,0.1-31.4c0.1-3.5-1-4.6-4.5-4.4c-6.4,0.3-12.7-0.1-19.1,0.2
		c-3.4,0.1-3.7-1.4-3.5-4c0.2-2.3-0.9-4.8,3.3-4.8c18.9,0.2,37.8,0.2,56.7,0c3.2,0,3.8,1.3,3.5,4c-0.2,2.3,0.8,5-3.4,4.8
		c-6.4-0.3-12.7,0.1-19.1-0.2c-3.6-0.2-4.4,1.1-4.3,4.5c0.2,20.5,0,41.1,0.2,61.6c0,3.9-0.3,5.8-5.1,5.8c-5,0.1-5-2.2-4.9-5.9
		C204.7,501.4,204.6,491.4,204.6,481.3z"/>
	<path class="st2" d="M430.1,508.5c1.8,0.4,2.6,0.5,3.4,0.7c18.9,2.8,20.2-4.3,19.9-16.7c-0.4-16.8,0-33.7-0.2-50.5
		c0-3.9,0.8-5.3,5-5.2c4,0,5.1,1.1,5,5.1c-0.2,18.5,0,36.9-0.1,55.4c-0.1,16.4-15.1,26.2-30.4,19.9
		C428.5,515.4,431.5,511.9,430.1,508.5z"/>
	<path class="st2" d="M92.7,477c0,11.9-0.2,23.8,0.1,35.7c0.1,4.3-1.7,4.4-5,4.5c-3.3,0-5.1-0.2-5.1-4.5c0.2-23.8,0.2-47.7,0-71.5
		c0-4.3,1.9-4.4,5.1-4.5c3.4,0,5.1,0.3,5,4.5C92.5,453.2,92.7,465.1,92.7,477z"/>
	<path class="st3" d="M644.4,476.7c0-8.8,0.2-17.7-0.1-26.5c-0.1-3.9,1.1-4.8,4.8-4.7c7.4,0.2,14.8,0,21.9,2.4
		c9.5,3.3,15.4,9.8,17.6,19.6c5.4,24.6-7.6,40.8-32.8,41c-11.5,0.1-11.5,0.1-11.5-11.5C644.4,490.2,644.4,483.4,644.4,476.7z"/>
	<path class="st4" d="M350.7,459.9c0-14.5,0-14.6,14.6-14.4c2.8,0,5.7,0.4,8.5,1.1c6.9,1.7,10.5,5.9,10.8,12.3
		c0.4,6.8-2.9,11.9-9.3,14.3c-7.3,2.8-15,1.7-22.5,1.8c-2.6,0.1-2.1-2-2.1-3.5C350.6,467.7,350.7,463.8,350.7,459.9z"/>
	<path class="st4" d="M571.6,460.3c0-15,0-15,14.8-14.8c12.4,0.1,19.1,5.1,19.1,14.3c0,9.2-6.6,14.7-18.5,15.4
		C571.6,476,571.6,476,571.6,460.3z"/>
	<path class="st3" d="M313.2,476.9c-0.1,8.2-1.5,16-6.5,22.7c-11.5,15.6-36.6,13-44.9-4.8c-5.1-10.9-5.1-22.3-0.9-33.6
		c4.2-11.3,13.8-17.3,25.9-16.9c11.1,0.3,20.1,7.1,23.9,18C312.5,467,313.3,471.9,313.2,476.9z"/>
	<path class="st4" d="M524.9,483.6c-9,0-17.3,0-26.1,0c4.3-11.4,8.6-22.4,13-34.1C516.2,460.9,520.4,471.9,524.9,483.6z"/>
</g>
</svg>
