<?xml version="1.0" encoding="utf-8"?>
<!-- Generator: Adobe Illustrator 21.1.0, SVG Export Plug-In . SVG Version: 6.00 Build 0)  -->
<svg version="1.1" id="Layer_1" xmlns="http://www.w3.org/2000/svg" xmlns:xlink="http://www.w3.org/1999/xlink" x="0px" y="0px"
	 viewBox="0 0 700 965" style="enable-background:new 0 0 700 965;" xml:space="preserve">
<style type="text/css">
	.st0{fill:#FEFEFE;}
	.st1{fill:#8E8987;}
	.st2{fill:#1F1A17;}
	.st3{fill:#A72923;}
	.st4{fill:#FDFDFD;}
	.st5{fill:#4E221F;}
	.st6{fill:#FDFDFC;}
	.st7{fill:#D7CFCD;}
	.st8{fill:#FBF9F9;}
</style>
<g>
	<path d="M1,958C1,640.6,1,323.1,0.9,5.7c0-4.2,1-4.8,4.9-4.8C236.2,1,466.5,1,696.9,0.9c3.9,0,4.9,0.6,4.9,4.8
		c-0.1,317.4-0.1,634.9-0.1,952.3c-1.7,0.9-3.6,0.5-5.4,0.5c-230,0-459.9,0-689.9,0C4.6,958.5,2.7,958.9,1,958z"/>
	<path class="st0" d="M1,958c233.6,0,467.2,0,700.7,0c-0.2,0.3,0.5,1-0.5,1c-1.3,0-2.7,0-4,0c-230.6,0-461.1,0-691.7-0.1
		C4,958.9,2.1,960.1,1,958z"/>
	<path class="st1" d="M350.9,622.6c-107.8,0-215.5,0-323.3,0.1c-4.3,0-5.7-0.7-5.7-5.4c0.2-92.2,0.2-184.5,0-276.7
		c0-4.4,1.1-5.3,5.4-5.3c215.9,0.1,431.7,0.1,647.6,0c4.4,0,5,1.3,5,5.2c-0.1,92.4-0.1,184.8,0,277.2c0,4.2-1,5.1-5.1,5
		C566.8,622.6,458.8,622.7,350.9,622.6z"/>
	<path class="st2" d="M350.9,336.4c107.1,0,214.2,0,321.3,0c7.4,0,6.5-0.9,6.5,6.2c0,91.1,0,182.2,0.1,273.3c0,4.3-0.8,5.9-5.6,5.9
		c-215.1-0.1-430.1-0.1-645.2,0c-3.7,0-5.1-0.7-5.1-4.8c0.1-91.9,0.1-183.9,0-275.8c0-4.8,2.1-4.8,5.6-4.8
		C136,336.4,243.4,336.4,350.9,336.4z"/>
	<path class="st3" d="M550.2,490.2c-0.2-0.3-0.3-0.6-0.5-0.9c-1.3-2.5,2.5-6.9-2.4-7.8c-4.5-0.8-9.4,3.8-10.3,8.8
		c-1.3,0.1-1.2-2-3.2-1.9c0.5,1.4,2.6,1.1,2.5,2.5c-0.5,0.1-0.9,0.4-1.4,0.4c-2.5,0.3-5.6-1.2-6.9,2.4c-1.3,3.6-0.3,6.9,2,9.8
		c4.7,5.9,11.5,8.7,18,12.1c4.3,2.2,8.4,4.8,11.9,8.1c5.7,5.3,7.1,11.9,5.2,19.2c-0.9,3.7-4,5.7-7.5,6.6
		c-18.3,4.9-35.9,11.6-51.6,22.5c-6.5,4.5-12.4,10-18.8,14.7c-9.2,6.9-18.8,13.4-31,12.8c-11-0.5-21.1-3.9-26.5-14.5
		c-5.8-11.3-5.1-22.9,1.7-33.7c5-8,11.8-14.3,19.9-19.1c2.8-1.6,3.5-2.6,0.9-5.4c-11.2-12.8-8.9-28.1,5.3-37.5
		c1.6-1.1,3.5-1.8,4.5-3.7c5.6-2.2,11.4-3.9,17.5-3.4c3.7,0.3,7.3,0.9,9.4,4.6c1,1.8,2.7,2.3,4.7,2.3c2.7,0,5.3-0.2,8,0
		c7.4,0.6,13.7,0.1,17.9-7.9c3.4-6.3,11.1-8.1,17.2-11.5c3.9,3.8,7.2-0.8,10.8-1c2.5-0.1,1.9-3.1,1.9-5c0-32.3,0-64.5,0-96.8
		c0-1.8-0.5-3.7,0.5-5.4c2.7,2.1,1.9,5.1,1.9,7.8c0.1,28.6,0,57.2,0,85.8c0,1.3,0,2.7,0,4c0,6.8,0.2,6.8,6.7,5.6
		c5.8-1.1,11.7-2.9,17.7-1.4c5.9,1.7,12.3,2.3,17.4,6.2c5.8,2.9,8,8.3,8.6,14.2c0.5,4.4,2.5,5.6,6.5,5.3c3.5-0.2,6.9-0.1,10.4,0
		c1.8,0.1,3.7-0.2,4.8,1.7c-6.3,1.2-12.6,0.3-18.9,0.5c-2.7,0.1-4.4,0.2-5.5,3.4c-1.9,5.7-6.1,10.2-10,14.6c-3,3.4-5.1,7.3-5.6,12
		c-0.5,4.7,1.9,7.2,6.1,8.2c5.4,1.3,10.8,1.1,16.4,0.5c12.3-1.2,24.7-1,37-0.3c7.4,0.4,11.3,3.9,12.5,9.3c0.5,2.4,0.3,3.3-2.6,2.9
		c-13.4-1.7-26.8-3.1-40.3-2.5c-9.5,0.4-18.9,1.6-28.1,3.7c-8,1.8-15.3-4.2-15.8-13.5c-0.4-7.2,2.8-13.1,6.7-18.8
		c3.3-4.8,6.7-9.5,9.7-14.5c2.4-3.9,1.7-4.7-2.8-4.9c-10.8-0.3-21.6,0.7-32.4-0.5c1.4-2.3,3.8-1.8,5.8-1.8c8.3-0.1,16.6,0,24.9-0.1
		c1.8,0,4.1,0.5,4.8-1.7c0.8-2.4-0.8-4.1-2.7-5.4c-2.5-1.7-5.4-2.6-8.4-2.8c-5.8-0.4-11.6-0.4-17.4,0.8c-3.7,0.8-6.2,2.1-6,6.4
		C552,487.8,551.8,489.4,550.2,490.2z"/>
	<path class="st0" d="M243.7,450.5c4,0,8.7-1.3,11.8,0.3c3.4,1.8,1,6.9,1.8,10.6c1.7,8.4,7.6,13,17.1,12.8
		c8.4-0.2,14.3-5.4,15.4-13.5c1.2-8.8-2-15-10.1-19.4c-7.8-4.2-16.5-6.1-24.5-9.9c-21.6-10.3-29.5-33-18.8-54.6
		c4.2-8.5,11.2-13.6,20-16.1c11.7-3.4,23.4-3.2,35,0.5c15.5,4.9,22.1,17.9,21.9,33.2c0,1.9-0.6,2.7-2.6,2.7c-6.7-0.1-13.3,0-20,0
		c-1.8,0-2.8-0.5-2.7-2.6c0-1-0.2-2-0.4-3c-1.3-8.9-4.6-12.8-11.9-13.7c-7.3-0.9-13.5,2.1-15.8,7.8c-2.8,7.1-0.7,16.4,4.6,20.6
		c2.9,2.3,6.4,3.6,9.7,5.1c7.3,3.2,14.7,6.2,21.9,9.7c17.5,8.4,23.6,20.6,20.9,39.9c-2.2,16.1-11.2,25.8-26.7,29.9
		c-9.8,2.6-19.9,2.9-29.8,1.3c-19.1-2.9-27.4-12-29.7-31.3c-1.2-10.4-1.2-10.4,8.9-10.4c1.3,0,2.7,0,4,0
		C243.7,450.4,243.7,450.4,243.7,450.5z"/>
	<path class="st0" d="M147.9,425.9c0-20.2,0.1-40.4-0.1-60.5c0-3.4,0.8-4.5,4.4-4.5c21.3,0.2,42.7,0.2,64,0c3.3,0,4.9,0.6,4.6,4.3
		c-0.3,4.3-0.3,8.7,0,13c0.3,3.7-1.2,4.3-4.5,4.3c-12.7-0.2-25.3,0-38-0.2c-3.2,0-4.3,0.6-4.2,4c0.3,7.5,0.3,15,0,22.5
		c-0.1,3.7,1.2,4.4,4.5,4.3c11.7-0.2,23.3,0,35-0.2c3.4-0.1,4.8,0.7,4.5,4.4c-0.3,4.5-0.2,9,0,13.5c0.1,2.9-0.8,3.7-3.6,3.6
		c-12.2-0.1-24.3,0-36.5-0.1c-3,0-4,0.7-3.9,3.8c0.2,9.2,0.2,18.3,0,27.5c-0.1,3.1,0.9,3.9,3.9,3.8c13.5-0.2,27,0,40.5-0.2
		c3.4-0.1,4.2,1,4.1,4.2c-0.3,4.7-0.3,9.3,0,14c0.2,3.3-1.6,3.3-4,3.3c-22.3-0.1-44.7-0.1-67,0.1c-3.3,0-3.7-1.2-3.7-4.1
		C147.9,466.5,147.9,446.2,147.9,425.9z"/>
	<path class="st0" d="M536.9,469.8c0.1,2.4-1.7,2.9-3.4,3.6c-7.6,2.9-13.7,7.5-17,15.2c-0.9,2.2-2.6,2.2-4.4,2.2c-6,0-12,0-18,0
		c-3,0-6.6,1-6.5-4.2c0.1-1.5-1.8-1.7-3.1-2.1c-5.3-1.6-10.5-0.8-15.8,0.3c-2.1,0.5-4.2,2.1-6.6,0.9c0-39.7,0.1-79.4,0-119.1
		c0-4.4,0.9-5.8,5.6-5.8c20.8,0.3,41.7,0.2,62.5,0c4,0,5.3,1.1,4.9,5c-0.3,4-0.4,8,0,12c0.4,4-1.2,4.6-4.8,4.6
		c-12.3-0.2-24.7,0.1-37-0.2c-4.3-0.1-5.2,1.3-5,5.3c0.3,7.3,0.2,14.7,0,22c-0.1,2.9,0.9,3.6,3.7,3.6c12-0.1,24,0.1,36-0.1
		c3.6-0.1,4.6,1.1,4.3,4.5c-0.3,4.5-0.3,9,0,13.5c0.2,3-1,3.6-3.7,3.5c-12.2-0.1-24.3,0.1-36.5-0.1c-3.1,0-3.9,0.8-3.9,3.9
		c0.2,9.2,0.2,18.3,0,27.5c-0.1,3.3,1,3.8,4,3.8C507.3,469.5,522.1,469.7,536.9,469.8z"/>
	<path class="st0" d="M399.2,469.5c15.4,0,30,0.2,44.7-0.1c4-0.1,5.1,1.2,4.8,5c-0.3,4.3-0.2,8.7,0,13c0.1,2.4-0.3,3.6-3.2,3.6
		c-24.2-0.1-48.4-0.1-72.6,0c-2.5,0-3.4-0.7-3.5-3.3c-0.6-9.6,1-18.4,6-27.1c14.4-25.5,27.9-51.5,41.9-77.4c-1.5-1.1-3-0.6-4.3-0.6
		c-12,0-24-0.2-36,0.1c-3.4,0.1-4.3-1-4.1-4.2c0.2-4.7,0.2-9.3,0-14c-0.1-2.6,1-3.4,3.5-3.4c22.7,0.1,45.4,0.1,68.1,0
		c2.9,0,3.6,1,3.7,3.7c0.5,10-1.1,19-6.4,28C427.2,417.6,413.6,443.3,399.2,469.5z"/>
	<path class="st0" d="M91.1,411.6c6-16.3,11.6-31,16.7-45.9c1.3-3.9,3.2-5,7.1-4.8c7.5,0.3,14.9,0.1,23.1,0.1
		c-4,9.4-7.7,18.1-11.4,26.7c-6.8,15.9-13.6,31.8-20.5,47.7c-1.4,3.1-2,6.2-1.9,9.6c0.1,14,0,28,0.1,42c0,2.9-0.5,4.1-3.8,4
		c-6.3-0.3-12.7-0.2-19,0c-2.9,0.1-3.6-1-3.6-3.7c0.1-14.5,0-29,0.1-43.5c0-2.7-0.5-5.2-1.6-7.7C66.2,412.6,56.3,389,46,365.5
		c-1.7-3.9-1-4.8,3.2-4.6c6.8,0.3,13.7,0.3,20.5,0c3.3-0.1,4.6,1.1,5.5,4.1C80.2,380.1,85.5,395.1,91.1,411.6z"/>
	<path class="st0" d="M576.6,463.5c-8,1.4-16.1,2.1-23.9,4.3c-1.9,0.5-2.3-0.5-2.3-2.1c0-1.3,0-2.7,0-4
		c-0.1-33.4-0.1-66.7-0.2-100.1c1.5-1.2,3.2-0.7,4.8-0.7c21,0,42,0.1,63.1-0.1c3.7,0,5.5,0.6,5,4.8c-0.6,5.4,2.3,12.7-1.1,15.8
		c-3,2.7-10.1,0.9-15.4,0.9c-8.8,0.1-17.7,0.1-26.5-0.1c-2.9-0.1-3.6,0.9-3.6,3.6c0.2,7.7,0.2,15.4,0,23c-0.1,3.3,0.8,4.3,4.2,4.2
		c11.7-0.2,23.4,0.1,35-0.2c4.1-0.1,5.1,1.3,4.9,5.1c-0.3,4.1-0.3,8.3,0,12.5c0.2,3-0.7,4-3.9,4c-12-0.2-24,0.1-36-0.1
		c-3.2-0.1-4.3,0.8-4.1,4.1C576.7,446.8,576.5,455.1,576.6,463.5z"/>
	<path class="st3" d="M324.3,423.8c-0.7-13.8,11.7-24.1,23.7-24.2c12.8-0.1,24.4,11.4,24.4,24c0,12.9-10.9,23.9-23.7,24
		C334.4,447.5,324.3,437.7,324.3,423.8z"/>
	<path class="st4" d="M624.4,490.9c-6.3-0.1-12.7-0.2-19-0.1c-2.9,0.1-4.2-0.4-3.9-3.8c0.5-7-2.9-12.4-7.4-17.3
		c9.3-0.1,18.5-0.1,27.8-0.2c1.9,0,3.2,0.3,3,2.6C624.5,478.4,625.4,484.7,624.4,490.9z"/>
	<path class="st5" d="M628.9,545.5c3.2,0.1,4.8,1.8,4.8,5c0,3.2-1.5,5.2-4.8,5c-3-0.2-5.2-2.1-5.1-5
		C623.9,547.8,625.4,545.4,628.9,545.5z"/>
	<path class="st2" d="M481.7,493.8c8.1-3.2,18-2.1,27.8-2.5c4.2-0.2,5.3,1.1,5.2,5.3c-0.3,11.5,5.8,19.5,16.6,23.1
		c4.2,1.4,8.3,3.1,12.1,5.7c8.3,5.8,7.9,13.6-1.3,18.2c-6.4,3.1-13.1,5.5-19.6,8.5c-12.1,5.5-22.9,13.2-34.4,19.8
		c-9.3,5.3-18.5,10.7-29.2,13c-8.4,1.8-16.3-3.4-17.3-11.9c-1.6-13,8.6-33.6,27.3-33.5c7.6,0.1,11.9-4.6,10.8-10
		c-1-5.1-5.5-6.5-9.6-7.6c-8.4-2.3-11.5-4.9-11.6-10.7c-0.1-8.1,3.7-13.3,11-15.8C472.9,494,476.4,493.2,481.7,493.8z"/>
	<path class="st6" d="M550.2,490.2c0.6-11,0.6-11.2,11.8-12.5c6.8-0.8,13.6-1.1,20.1,1.6c2.4,1,4.5,2.2,5.7,4.6
		c2.3,4.4,0.8,6.8-4.1,6.8c-11,0.1-21.9,0.1-32.9,0.2C550.7,490.6,550.5,490.4,550.2,490.2z"/>
	<path class="st7" d="M536.4,491c-1.7-0.1-3.5-0.3-5.5-0.4c1.2-2.7,3.4-3.4,5.1-4.7c1.5,1.5,0.7,3,1,4.4
		C536.8,490.5,536.6,490.8,536.4,491z"/>
	<path class="st8" d="M356.3,423.9c-0.1,4.5-3.8,7.9-8.5,7.8c-4.6-0.1-8.1-3.8-8-8.3c0.1-4.4,4.1-8.1,8.5-7.9
		C352.8,415.6,356.4,419.4,356.3,423.9z"/>
</g>
</svg>
